<?xml version="1.0" encoding="utf-8" standalone="no"?>
<!DOCTYPE svg PUBLIC "-//W3C//DTD SVG 1.1//EN"
  "http://www.w3.org/Graphics/SVG/1.1/DTD/svg11.dtd">
<!-- Created with matplotlib (https://matplotlib.org/) -->
<svg height="576pt" version="1.1" viewBox="0 0 1152 576" width="1152pt" xmlns="http://www.w3.org/2000/svg" xmlns:xlink="http://www.w3.org/1999/xlink">
 <defs>
  <style type="text/css">
*{stroke-linecap:butt;stroke-linejoin:round;}
  </style>
 </defs>
 <g id="figure_1">
  <g id="patch_1">
   <path d="M 0 576 
L 1152 576 
L 1152 0 
L 0 0 
z
" style="fill:#ffffff;"/>
  </g>
  <g id="axes_1">
   <g id="patch_2">
    <path d="M 144 504 
L 1036.8 504 
L 1036.8 69.12 
L 144 69.12 
z
" style="fill:#ffffff;"/>
   </g>
   <g id="matplotlib.axis_1">
    <g id="xtick_1">
     <g id="line2d_1">
      <defs>
       <path d="M 0 0 
L 0 3.5 
" id="m5644a8c2c2" style="stroke:#000000;stroke-width:0.8;"/>
      </defs>
      <g>
       <use style="stroke:#000000;stroke-width:0.8;" x="182.527043" xlink:href="#m5644a8c2c2" y="504"/>
      </g>
     </g>
     <g id="text_1">
      <!-- 0 -->
      <defs>
       <path d="M 31.78125 66.40625 
Q 24.171875 66.40625 20.328125 58.90625 
Q 16.5 51.421875 16.5 36.375 
Q 16.5 21.390625 20.328125 13.890625 
Q 24.171875 6.390625 31.78125 6.390625 
Q 39.453125 6.390625 43.28125 13.890625 
Q 47.125 21.390625 47.125 36.375 
Q 47.125 51.421875 43.28125 58.90625 
Q 39.453125 66.40625 31.78125 66.40625 
z
M 31.78125 74.21875 
Q 44.046875 74.21875 50.515625 64.515625 
Q 56.984375 54.828125 56.984375 36.375 
Q 56.984375 17.96875 50.515625 8.265625 
Q 44.046875 -1.421875 31.78125 -1.421875 
Q 19.53125 -1.421875 13.0625 8.265625 
Q 6.59375 17.96875 6.59375 36.375 
Q 6.59375 54.828125 13.0625 64.515625 
Q 19.53125 74.21875 31.78125 74.21875 
z
" id="DejaVuSans-48"/>
      </defs>
      <g transform="translate(179.345793 518.598438)scale(0.1 -0.1)">
       <use xlink:href="#DejaVuSans-48"/>
      </g>
     </g>
    </g>
    <g id="xtick_2">
     <g id="line2d_2">
      <g>
       <use style="stroke:#000000;stroke-width:0.8;" x="285.265823" xlink:href="#m5644a8c2c2" y="504"/>
      </g>
     </g>
     <g id="text_2">
      <!-- 50 -->
      <defs>
       <path d="M 10.796875 72.90625 
L 49.515625 72.90625 
L 49.515625 64.59375 
L 19.828125 64.59375 
L 19.828125 46.734375 
Q 21.96875 47.46875 24.109375 47.828125 
Q 26.265625 48.1875 28.421875 48.1875 
Q 40.625 48.1875 47.75 41.5 
Q 54.890625 34.8125 54.890625 23.390625 
Q 54.890625 11.625 47.5625 5.09375 
Q 40.234375 -1.421875 26.90625 -1.421875 
Q 22.3125 -1.421875 17.546875 -0.640625 
Q 12.796875 0.140625 7.71875 1.703125 
L 7.71875 11.625 
Q 12.109375 9.234375 16.796875 8.0625 
Q 21.484375 6.890625 26.703125 6.890625 
Q 35.15625 6.890625 40.078125 11.328125 
Q 45.015625 15.765625 45.015625 23.390625 
Q 45.015625 31 40.078125 35.4375 
Q 35.15625 39.890625 26.703125 39.890625 
Q 22.75 39.890625 18.8125 39.015625 
Q 14.890625 38.140625 10.796875 36.28125 
z
" id="DejaVuSans-53"/>
      </defs>
      <g transform="translate(278.903323 518.598438)scale(0.1 -0.1)">
       <use xlink:href="#DejaVuSans-53"/>
       <use x="63.623047" xlink:href="#DejaVuSans-48"/>
      </g>
     </g>
    </g>
    <g id="xtick_3">
     <g id="line2d_3">
      <g>
       <use style="stroke:#000000;stroke-width:0.8;" x="388.004603" xlink:href="#m5644a8c2c2" y="504"/>
      </g>
     </g>
     <g id="text_3">
      <!-- 100 -->
      <defs>
       <path d="M 12.40625 8.296875 
L 28.515625 8.296875 
L 28.515625 63.921875 
L 10.984375 60.40625 
L 10.984375 69.390625 
L 28.421875 72.90625 
L 38.28125 72.90625 
L 38.28125 8.296875 
L 54.390625 8.296875 
L 54.390625 0 
L 12.40625 0 
z
" id="DejaVuSans-49"/>
      </defs>
      <g transform="translate(378.460853 518.598438)scale(0.1 -0.1)">
       <use xlink:href="#DejaVuSans-49"/>
       <use x="63.623047" xlink:href="#DejaVuSans-48"/>
       <use x="127.246094" xlink:href="#DejaVuSans-48"/>
      </g>
     </g>
    </g>
    <g id="xtick_4">
     <g id="line2d_4">
      <g>
       <use style="stroke:#000000;stroke-width:0.8;" x="490.743383" xlink:href="#m5644a8c2c2" y="504"/>
      </g>
     </g>
     <g id="text_4">
      <!-- 150 -->
      <g transform="translate(481.199633 518.598438)scale(0.1 -0.1)">
       <use xlink:href="#DejaVuSans-49"/>
       <use x="63.623047" xlink:href="#DejaVuSans-53"/>
       <use x="127.246094" xlink:href="#DejaVuSans-48"/>
      </g>
     </g>
    </g>
    <g id="xtick_5">
     <g id="line2d_5">
      <g>
       <use style="stroke:#000000;stroke-width:0.8;" x="593.482163" xlink:href="#m5644a8c2c2" y="504"/>
      </g>
     </g>
     <g id="text_5">
      <!-- 200 -->
      <defs>
       <path d="M 19.1875 8.296875 
L 53.609375 8.296875 
L 53.609375 0 
L 7.328125 0 
L 7.328125 8.296875 
Q 12.9375 14.109375 22.625 23.890625 
Q 32.328125 33.6875 34.8125 36.53125 
Q 39.546875 41.84375 41.421875 45.53125 
Q 43.3125 49.21875 43.3125 52.78125 
Q 43.3125 58.59375 39.234375 62.25 
Q 35.15625 65.921875 28.609375 65.921875 
Q 23.96875 65.921875 18.8125 64.3125 
Q 13.671875 62.703125 7.8125 59.421875 
L 7.8125 69.390625 
Q 13.765625 71.78125 18.9375 73 
Q 24.125 74.21875 28.421875 74.21875 
Q 39.75 74.21875 46.484375 68.546875 
Q 53.21875 62.890625 53.21875 53.421875 
Q 53.21875 48.921875 51.53125 44.890625 
Q 49.859375 40.875 45.40625 35.40625 
Q 44.1875 33.984375 37.640625 27.21875 
Q 31.109375 20.453125 19.1875 8.296875 
z
" id="DejaVuSans-50"/>
      </defs>
      <g transform="translate(583.938413 518.598438)scale(0.1 -0.1)">
       <use xlink:href="#DejaVuSans-50"/>
       <use x="63.623047" xlink:href="#DejaVuSans-48"/>
       <use x="127.246094" xlink:href="#DejaVuSans-48"/>
      </g>
     </g>
    </g>
    <g id="xtick_6">
     <g id="line2d_6">
      <g>
       <use style="stroke:#000000;stroke-width:0.8;" x="696.220944" xlink:href="#m5644a8c2c2" y="504"/>
      </g>
     </g>
     <g id="text_6">
      <!-- 250 -->
      <g transform="translate(686.677194 518.598438)scale(0.1 -0.1)">
       <use xlink:href="#DejaVuSans-50"/>
       <use x="63.623047" xlink:href="#DejaVuSans-53"/>
       <use x="127.246094" xlink:href="#DejaVuSans-48"/>
      </g>
     </g>
    </g>
    <g id="xtick_7">
     <g id="line2d_7">
      <g>
       <use style="stroke:#000000;stroke-width:0.8;" x="798.959724" xlink:href="#m5644a8c2c2" y="504"/>
      </g>
     </g>
     <g id="text_7">
      <!-- 300 -->
      <defs>
       <path d="M 40.578125 39.3125 
Q 47.65625 37.796875 51.625 33 
Q 55.609375 28.21875 55.609375 21.1875 
Q 55.609375 10.40625 48.1875 4.484375 
Q 40.765625 -1.421875 27.09375 -1.421875 
Q 22.515625 -1.421875 17.65625 -0.515625 
Q 12.796875 0.390625 7.625 2.203125 
L 7.625 11.71875 
Q 11.71875 9.328125 16.59375 8.109375 
Q 21.484375 6.890625 26.8125 6.890625 
Q 36.078125 6.890625 40.9375 10.546875 
Q 45.796875 14.203125 45.796875 21.1875 
Q 45.796875 27.640625 41.28125 31.265625 
Q 36.765625 34.90625 28.71875 34.90625 
L 20.21875 34.90625 
L 20.21875 43.015625 
L 29.109375 43.015625 
Q 36.375 43.015625 40.234375 45.921875 
Q 44.09375 48.828125 44.09375 54.296875 
Q 44.09375 59.90625 40.109375 62.90625 
Q 36.140625 65.921875 28.71875 65.921875 
Q 24.65625 65.921875 20.015625 65.03125 
Q 15.375 64.15625 9.8125 62.3125 
L 9.8125 71.09375 
Q 15.4375 72.65625 20.34375 73.4375 
Q 25.25 74.21875 29.59375 74.21875 
Q 40.828125 74.21875 47.359375 69.109375 
Q 53.90625 64.015625 53.90625 55.328125 
Q 53.90625 49.265625 50.4375 45.09375 
Q 46.96875 40.921875 40.578125 39.3125 
z
" id="DejaVuSans-51"/>
      </defs>
      <g transform="translate(789.415974 518.598438)scale(0.1 -0.1)">
       <use xlink:href="#DejaVuSans-51"/>
       <use x="63.623047" xlink:href="#DejaVuSans-48"/>
       <use x="127.246094" xlink:href="#DejaVuSans-48"/>
      </g>
     </g>
    </g>
    <g id="xtick_8">
     <g id="line2d_8">
      <g>
       <use style="stroke:#000000;stroke-width:0.8;" x="901.698504" xlink:href="#m5644a8c2c2" y="504"/>
      </g>
     </g>
     <g id="text_8">
      <!-- 350 -->
      <g transform="translate(892.154754 518.598438)scale(0.1 -0.1)">
       <use xlink:href="#DejaVuSans-51"/>
       <use x="63.623047" xlink:href="#DejaVuSans-53"/>
       <use x="127.246094" xlink:href="#DejaVuSans-48"/>
      </g>
     </g>
    </g>
    <g id="xtick_9">
     <g id="line2d_9">
      <g>
       <use style="stroke:#000000;stroke-width:0.8;" x="1004.437284" xlink:href="#m5644a8c2c2" y="504"/>
      </g>
     </g>
     <g id="text_9">
      <!-- 400 -->
      <defs>
       <path d="M 37.796875 64.3125 
L 12.890625 25.390625 
L 37.796875 25.390625 
z
M 35.203125 72.90625 
L 47.609375 72.90625 
L 47.609375 25.390625 
L 58.015625 25.390625 
L 58.015625 17.1875 
L 47.609375 17.1875 
L 47.609375 0 
L 37.796875 0 
L 37.796875 17.1875 
L 4.890625 17.1875 
L 4.890625 26.703125 
z
" id="DejaVuSans-52"/>
      </defs>
      <g transform="translate(994.893534 518.598438)scale(0.1 -0.1)">
       <use xlink:href="#DejaVuSans-52"/>
       <use x="63.623047" xlink:href="#DejaVuSans-48"/>
       <use x="127.246094" xlink:href="#DejaVuSans-48"/>
      </g>
     </g>
    </g>
    <g id="text_10">
     <!-- Number of Neurons pruned -->
     <defs>
      <path d="M 9.8125 72.90625 
L 23.09375 72.90625 
L 55.421875 11.921875 
L 55.421875 72.90625 
L 64.984375 72.90625 
L 64.984375 0 
L 51.703125 0 
L 19.390625 60.984375 
L 19.390625 0 
L 9.8125 0 
z
" id="DejaVuSans-78"/>
      <path d="M 8.5 21.578125 
L 8.5 54.6875 
L 17.484375 54.6875 
L 17.484375 21.921875 
Q 17.484375 14.15625 20.5 10.265625 
Q 23.53125 6.390625 29.59375 6.390625 
Q 36.859375 6.390625 41.078125 11.03125 
Q 45.3125 15.671875 45.3125 23.6875 
L 45.3125 54.6875 
L 54.296875 54.6875 
L 54.296875 0 
L 45.3125 0 
L 45.3125 8.40625 
Q 42.046875 3.421875 37.71875 1 
Q 33.40625 -1.421875 27.6875 -1.421875 
Q 18.265625 -1.421875 13.375 4.4375 
Q 8.5 10.296875 8.5 21.578125 
z
M 31.109375 56 
z
" id="DejaVuSans-117"/>
      <path d="M 52 44.1875 
Q 55.375 50.25 60.0625 53.125 
Q 64.75 56 71.09375 56 
Q 79.640625 56 84.28125 50.015625 
Q 88.921875 44.046875 88.921875 33.015625 
L 88.921875 0 
L 79.890625 0 
L 79.890625 32.71875 
Q 79.890625 40.578125 77.09375 44.375 
Q 74.3125 48.1875 68.609375 48.1875 
Q 61.625 48.1875 57.5625 43.546875 
Q 53.515625 38.921875 53.515625 30.90625 
L 53.515625 0 
L 44.484375 0 
L 44.484375 32.71875 
Q 44.484375 40.625 41.703125 44.40625 
Q 38.921875 48.1875 33.109375 48.1875 
Q 26.21875 48.1875 22.15625 43.53125 
Q 18.109375 38.875 18.109375 30.90625 
L 18.109375 0 
L 9.078125 0 
L 9.078125 54.6875 
L 18.109375 54.6875 
L 18.109375 46.1875 
Q 21.1875 51.21875 25.484375 53.609375 
Q 29.78125 56 35.6875 56 
Q 41.65625 56 45.828125 52.96875 
Q 50 49.953125 52 44.1875 
z
" id="DejaVuSans-109"/>
      <path d="M 48.6875 27.296875 
Q 48.6875 37.203125 44.609375 42.84375 
Q 40.53125 48.484375 33.40625 48.484375 
Q 26.265625 48.484375 22.1875 42.84375 
Q 18.109375 37.203125 18.109375 27.296875 
Q 18.109375 17.390625 22.1875 11.75 
Q 26.265625 6.109375 33.40625 6.109375 
Q 40.53125 6.109375 44.609375 11.75 
Q 48.6875 17.390625 48.6875 27.296875 
z
M 18.109375 46.390625 
Q 20.953125 51.265625 25.265625 53.625 
Q 29.59375 56 35.59375 56 
Q 45.5625 56 51.78125 48.09375 
Q 58.015625 40.1875 58.015625 27.296875 
Q 58.015625 14.40625 51.78125 6.484375 
Q 45.5625 -1.421875 35.59375 -1.421875 
Q 29.59375 -1.421875 25.265625 0.953125 
Q 20.953125 3.328125 18.109375 8.203125 
L 18.109375 0 
L 9.078125 0 
L 9.078125 75.984375 
L 18.109375 75.984375 
z
" id="DejaVuSans-98"/>
      <path d="M 56.203125 29.59375 
L 56.203125 25.203125 
L 14.890625 25.203125 
Q 15.484375 15.921875 20.484375 11.0625 
Q 25.484375 6.203125 34.421875 6.203125 
Q 39.59375 6.203125 44.453125 7.46875 
Q 49.3125 8.734375 54.109375 11.28125 
L 54.109375 2.78125 
Q 49.265625 0.734375 44.1875 -0.34375 
Q 39.109375 -1.421875 33.890625 -1.421875 
Q 20.796875 -1.421875 13.15625 6.1875 
Q 5.515625 13.8125 5.515625 26.8125 
Q 5.515625 40.234375 12.765625 48.109375 
Q 20.015625 56 32.328125 56 
Q 43.359375 56 49.78125 48.890625 
Q 56.203125 41.796875 56.203125 29.59375 
z
M 47.21875 32.234375 
Q 47.125 39.59375 43.09375 43.984375 
Q 39.0625 48.390625 32.421875 48.390625 
Q 24.90625 48.390625 20.390625 44.140625 
Q 15.875 39.890625 15.1875 32.171875 
z
" id="DejaVuSans-101"/>
      <path d="M 41.109375 46.296875 
Q 39.59375 47.171875 37.8125 47.578125 
Q 36.03125 48 33.890625 48 
Q 26.265625 48 22.1875 43.046875 
Q 18.109375 38.09375 18.109375 28.8125 
L 18.109375 0 
L 9.078125 0 
L 9.078125 54.6875 
L 18.109375 54.6875 
L 18.109375 46.1875 
Q 20.953125 51.171875 25.484375 53.578125 
Q 30.03125 56 36.53125 56 
Q 37.453125 56 38.578125 55.875 
Q 39.703125 55.765625 41.0625 55.515625 
z
" id="DejaVuSans-114"/>
      <path id="DejaVuSans-32"/>
      <path d="M 30.609375 48.390625 
Q 23.390625 48.390625 19.1875 42.75 
Q 14.984375 37.109375 14.984375 27.296875 
Q 14.984375 17.484375 19.15625 11.84375 
Q 23.34375 6.203125 30.609375 6.203125 
Q 37.796875 6.203125 41.984375 11.859375 
Q 46.1875 17.53125 46.1875 27.296875 
Q 46.1875 37.015625 41.984375 42.703125 
Q 37.796875 48.390625 30.609375 48.390625 
z
M 30.609375 56 
Q 42.328125 56 49.015625 48.375 
Q 55.71875 40.765625 55.71875 27.296875 
Q 55.71875 13.875 49.015625 6.21875 
Q 42.328125 -1.421875 30.609375 -1.421875 
Q 18.84375 -1.421875 12.171875 6.21875 
Q 5.515625 13.875 5.515625 27.296875 
Q 5.515625 40.765625 12.171875 48.375 
Q 18.84375 56 30.609375 56 
z
" id="DejaVuSans-111"/>
      <path d="M 37.109375 75.984375 
L 37.109375 68.5 
L 28.515625 68.5 
Q 23.6875 68.5 21.796875 66.546875 
Q 19.921875 64.59375 19.921875 59.515625 
L 19.921875 54.6875 
L 34.71875 54.6875 
L 34.71875 47.703125 
L 19.921875 47.703125 
L 19.921875 0 
L 10.890625 0 
L 10.890625 47.703125 
L 2.296875 47.703125 
L 2.296875 54.6875 
L 10.890625 54.6875 
L 10.890625 58.5 
Q 10.890625 67.625 15.140625 71.796875 
Q 19.390625 75.984375 28.609375 75.984375 
z
" id="DejaVuSans-102"/>
      <path d="M 54.890625 33.015625 
L 54.890625 0 
L 45.90625 0 
L 45.90625 32.71875 
Q 45.90625 40.484375 42.875 44.328125 
Q 39.84375 48.1875 33.796875 48.1875 
Q 26.515625 48.1875 22.3125 43.546875 
Q 18.109375 38.921875 18.109375 30.90625 
L 18.109375 0 
L 9.078125 0 
L 9.078125 54.6875 
L 18.109375 54.6875 
L 18.109375 46.1875 
Q 21.34375 51.125 25.703125 53.5625 
Q 30.078125 56 35.796875 56 
Q 45.21875 56 50.046875 50.171875 
Q 54.890625 44.34375 54.890625 33.015625 
z
" id="DejaVuSans-110"/>
      <path d="M 44.28125 53.078125 
L 44.28125 44.578125 
Q 40.484375 46.53125 36.375 47.5 
Q 32.28125 48.484375 27.875 48.484375 
Q 21.1875 48.484375 17.84375 46.4375 
Q 14.5 44.390625 14.5 40.28125 
Q 14.5 37.15625 16.890625 35.375 
Q 19.28125 33.59375 26.515625 31.984375 
L 29.59375 31.296875 
Q 39.15625 29.25 43.1875 25.515625 
Q 47.21875 21.78125 47.21875 15.09375 
Q 47.21875 7.46875 41.1875 3.015625 
Q 35.15625 -1.421875 24.609375 -1.421875 
Q 20.21875 -1.421875 15.453125 -0.5625 
Q 10.6875 0.296875 5.421875 2 
L 5.421875 11.28125 
Q 10.40625 8.6875 15.234375 7.390625 
Q 20.0625 6.109375 24.8125 6.109375 
Q 31.15625 6.109375 34.5625 8.28125 
Q 37.984375 10.453125 37.984375 14.40625 
Q 37.984375 18.0625 35.515625 20.015625 
Q 33.0625 21.96875 24.703125 23.78125 
L 21.578125 24.515625 
Q 13.234375 26.265625 9.515625 29.90625 
Q 5.8125 33.546875 5.8125 39.890625 
Q 5.8125 47.609375 11.28125 51.796875 
Q 16.75 56 26.8125 56 
Q 31.78125 56 36.171875 55.265625 
Q 40.578125 54.546875 44.28125 53.078125 
z
" id="DejaVuSans-115"/>
      <path d="M 18.109375 8.203125 
L 18.109375 -20.796875 
L 9.078125 -20.796875 
L 9.078125 54.6875 
L 18.109375 54.6875 
L 18.109375 46.390625 
Q 20.953125 51.265625 25.265625 53.625 
Q 29.59375 56 35.59375 56 
Q 45.5625 56 51.78125 48.09375 
Q 58.015625 40.1875 58.015625 27.296875 
Q 58.015625 14.40625 51.78125 6.484375 
Q 45.5625 -1.421875 35.59375 -1.421875 
Q 29.59375 -1.421875 25.265625 0.953125 
Q 20.953125 3.328125 18.109375 8.203125 
z
M 48.6875 27.296875 
Q 48.6875 37.203125 44.609375 42.84375 
Q 40.53125 48.484375 33.40625 48.484375 
Q 26.265625 48.484375 22.1875 42.84375 
Q 18.109375 37.203125 18.109375 27.296875 
Q 18.109375 17.390625 22.1875 11.75 
Q 26.265625 6.109375 33.40625 6.109375 
Q 40.53125 6.109375 44.609375 11.75 
Q 48.6875 17.390625 48.6875 27.296875 
z
" id="DejaVuSans-112"/>
      <path d="M 45.40625 46.390625 
L 45.40625 75.984375 
L 54.390625 75.984375 
L 54.390625 0 
L 45.40625 0 
L 45.40625 8.203125 
Q 42.578125 3.328125 38.25 0.953125 
Q 33.9375 -1.421875 27.875 -1.421875 
Q 17.96875 -1.421875 11.734375 6.484375 
Q 5.515625 14.40625 5.515625 27.296875 
Q 5.515625 40.1875 11.734375 48.09375 
Q 17.96875 56 27.875 56 
Q 33.9375 56 38.25 53.625 
Q 42.578125 51.265625 45.40625 46.390625 
z
M 14.796875 27.296875 
Q 14.796875 17.390625 18.875 11.75 
Q 22.953125 6.109375 30.078125 6.109375 
Q 37.203125 6.109375 41.296875 11.75 
Q 45.40625 17.390625 45.40625 27.296875 
Q 45.40625 37.203125 41.296875 42.84375 
Q 37.203125 48.484375 30.078125 48.484375 
Q 22.953125 48.484375 18.875 42.84375 
Q 14.796875 37.203125 14.796875 27.296875 
z
" id="DejaVuSans-100"/>
     </defs>
     <g transform="translate(522.147656 532.276562)scale(0.1 -0.1)">
      <use xlink:href="#DejaVuSans-78"/>
      <use x="74.804688" xlink:href="#DejaVuSans-117"/>
      <use x="138.183594" xlink:href="#DejaVuSans-109"/>
      <use x="235.595703" xlink:href="#DejaVuSans-98"/>
      <use x="299.072266" xlink:href="#DejaVuSans-101"/>
      <use x="360.595703" xlink:href="#DejaVuSans-114"/>
      <use x="401.708984" xlink:href="#DejaVuSans-32"/>
      <use x="433.496094" xlink:href="#DejaVuSans-111"/>
      <use x="494.677734" xlink:href="#DejaVuSans-102"/>
      <use x="529.882812" xlink:href="#DejaVuSans-32"/>
      <use x="561.669922" xlink:href="#DejaVuSans-78"/>
      <use x="636.474609" xlink:href="#DejaVuSans-101"/>
      <use x="697.998047" xlink:href="#DejaVuSans-117"/>
      <use x="761.376953" xlink:href="#DejaVuSans-114"/>
      <use x="800.240234" xlink:href="#DejaVuSans-111"/>
      <use x="861.421875" xlink:href="#DejaVuSans-110"/>
      <use x="924.800781" xlink:href="#DejaVuSans-115"/>
      <use x="976.900391" xlink:href="#DejaVuSans-32"/>
      <use x="1008.6875" xlink:href="#DejaVuSans-112"/>
      <use x="1072.164062" xlink:href="#DejaVuSans-114"/>
      <use x="1113.277344" xlink:href="#DejaVuSans-117"/>
      <use x="1176.65625" xlink:href="#DejaVuSans-110"/>
      <use x="1240.035156" xlink:href="#DejaVuSans-101"/>
      <use x="1301.558594" xlink:href="#DejaVuSans-100"/>
     </g>
    </g>
   </g>
   <g id="matplotlib.axis_2">
    <g id="ytick_1">
     <g id="line2d_10">
      <defs>
       <path d="M 0 0 
L -3.5 0 
" id="m3e91e7efa3" style="stroke:#000000;stroke-width:0.8;"/>
      </defs>
      <g>
       <use style="stroke:#000000;stroke-width:0.8;" x="144" xlink:href="#m3e91e7efa3" y="484.24474"/>
      </g>
     </g>
     <g id="text_11">
      <!-- 0 -->
      <g transform="translate(130.6375 488.043959)scale(0.1 -0.1)">
       <use xlink:href="#DejaVuSans-48"/>
      </g>
     </g>
    </g>
    <g id="ytick_2">
     <g id="line2d_11">
      <g>
       <use style="stroke:#000000;stroke-width:0.8;" x="144" xlink:href="#m3e91e7efa3" y="415.285267"/>
      </g>
     </g>
     <g id="text_12">
      <!-- 2 -->
      <g transform="translate(130.6375 419.084486)scale(0.1 -0.1)">
       <use xlink:href="#DejaVuSans-50"/>
      </g>
     </g>
    </g>
    <g id="ytick_3">
     <g id="line2d_12">
      <g>
       <use style="stroke:#000000;stroke-width:0.8;" x="144" xlink:href="#m3e91e7efa3" y="346.325795"/>
      </g>
     </g>
     <g id="text_13">
      <!-- 4 -->
      <g transform="translate(130.6375 350.125014)scale(0.1 -0.1)">
       <use xlink:href="#DejaVuSans-52"/>
      </g>
     </g>
    </g>
    <g id="ytick_4">
     <g id="line2d_13">
      <g>
       <use style="stroke:#000000;stroke-width:0.8;" x="144" xlink:href="#m3e91e7efa3" y="277.366322"/>
      </g>
     </g>
     <g id="text_14">
      <!-- 6 -->
      <defs>
       <path d="M 33.015625 40.375 
Q 26.375 40.375 22.484375 35.828125 
Q 18.609375 31.296875 18.609375 23.390625 
Q 18.609375 15.53125 22.484375 10.953125 
Q 26.375 6.390625 33.015625 6.390625 
Q 39.65625 6.390625 43.53125 10.953125 
Q 47.40625 15.53125 47.40625 23.390625 
Q 47.40625 31.296875 43.53125 35.828125 
Q 39.65625 40.375 33.015625 40.375 
z
M 52.59375 71.296875 
L 52.59375 62.3125 
Q 48.875 64.0625 45.09375 64.984375 
Q 41.3125 65.921875 37.59375 65.921875 
Q 27.828125 65.921875 22.671875 59.328125 
Q 17.53125 52.734375 16.796875 39.40625 
Q 19.671875 43.65625 24.015625 45.921875 
Q 28.375 48.1875 33.59375 48.1875 
Q 44.578125 48.1875 50.953125 41.515625 
Q 57.328125 34.859375 57.328125 23.390625 
Q 57.328125 12.15625 50.6875 5.359375 
Q 44.046875 -1.421875 33.015625 -1.421875 
Q 20.359375 -1.421875 13.671875 8.265625 
Q 6.984375 17.96875 6.984375 36.375 
Q 6.984375 53.65625 15.1875 63.9375 
Q 23.390625 74.21875 37.203125 74.21875 
Q 40.921875 74.21875 44.703125 73.484375 
Q 48.484375 72.75 52.59375 71.296875 
z
" id="DejaVuSans-54"/>
      </defs>
      <g transform="translate(130.6375 281.165541)scale(0.1 -0.1)">
       <use xlink:href="#DejaVuSans-54"/>
      </g>
     </g>
    </g>
    <g id="ytick_5">
     <g id="line2d_14">
      <g>
       <use style="stroke:#000000;stroke-width:0.8;" x="144" xlink:href="#m3e91e7efa3" y="208.406849"/>
      </g>
     </g>
     <g id="text_15">
      <!-- 8 -->
      <defs>
       <path d="M 31.78125 34.625 
Q 24.75 34.625 20.71875 30.859375 
Q 16.703125 27.09375 16.703125 20.515625 
Q 16.703125 13.921875 20.71875 10.15625 
Q 24.75 6.390625 31.78125 6.390625 
Q 38.8125 6.390625 42.859375 10.171875 
Q 46.921875 13.96875 46.921875 20.515625 
Q 46.921875 27.09375 42.890625 30.859375 
Q 38.875 34.625 31.78125 34.625 
z
M 21.921875 38.8125 
Q 15.578125 40.375 12.03125 44.71875 
Q 8.5 49.078125 8.5 55.328125 
Q 8.5 64.0625 14.71875 69.140625 
Q 20.953125 74.21875 31.78125 74.21875 
Q 42.671875 74.21875 48.875 69.140625 
Q 55.078125 64.0625 55.078125 55.328125 
Q 55.078125 49.078125 51.53125 44.71875 
Q 48 40.375 41.703125 38.8125 
Q 48.828125 37.15625 52.796875 32.3125 
Q 56.78125 27.484375 56.78125 20.515625 
Q 56.78125 9.90625 50.3125 4.234375 
Q 43.84375 -1.421875 31.78125 -1.421875 
Q 19.734375 -1.421875 13.25 4.234375 
Q 6.78125 9.90625 6.78125 20.515625 
Q 6.78125 27.484375 10.78125 32.3125 
Q 14.796875 37.15625 21.921875 38.8125 
z
M 18.3125 54.390625 
Q 18.3125 48.734375 21.84375 45.5625 
Q 25.390625 42.390625 31.78125 42.390625 
Q 38.140625 42.390625 41.71875 45.5625 
Q 45.3125 48.734375 45.3125 54.390625 
Q 45.3125 60.0625 41.71875 63.234375 
Q 38.140625 66.40625 31.78125 66.40625 
Q 25.390625 66.40625 21.84375 63.234375 
Q 18.3125 60.0625 18.3125 54.390625 
z
" id="DejaVuSans-56"/>
      </defs>
      <g transform="translate(130.6375 212.206068)scale(0.1 -0.1)">
       <use xlink:href="#DejaVuSans-56"/>
      </g>
     </g>
    </g>
    <g id="ytick_6">
     <g id="line2d_15">
      <g>
       <use style="stroke:#000000;stroke-width:0.8;" x="144" xlink:href="#m3e91e7efa3" y="139.447377"/>
      </g>
     </g>
     <g id="text_16">
      <!-- 10 -->
      <g transform="translate(124.275 143.246595)scale(0.1 -0.1)">
       <use xlink:href="#DejaVuSans-49"/>
       <use x="63.623047" xlink:href="#DejaVuSans-48"/>
      </g>
     </g>
    </g>
    <g id="ytick_7">
     <g id="line2d_16">
      <g>
       <use style="stroke:#000000;stroke-width:0.8;" x="144" xlink:href="#m3e91e7efa3" y="70.487904"/>
      </g>
     </g>
     <g id="text_17">
      <!-- 12 -->
      <g transform="translate(124.275 74.287123)scale(0.1 -0.1)">
       <use xlink:href="#DejaVuSans-49"/>
       <use x="63.623047" xlink:href="#DejaVuSans-50"/>
      </g>
     </g>
    </g>
    <g id="text_18">
     <!-- Squared Deviation -->
     <defs>
      <path d="M 53.515625 70.515625 
L 53.515625 60.890625 
Q 47.90625 63.578125 42.921875 64.890625 
Q 37.9375 66.21875 33.296875 66.21875 
Q 25.25 66.21875 20.875 63.09375 
Q 16.5 59.96875 16.5 54.203125 
Q 16.5 49.359375 19.40625 46.890625 
Q 22.3125 44.4375 30.421875 42.921875 
L 36.375 41.703125 
Q 47.40625 39.59375 52.65625 34.296875 
Q 57.90625 29 57.90625 20.125 
Q 57.90625 9.515625 50.796875 4.046875 
Q 43.703125 -1.421875 29.984375 -1.421875 
Q 24.8125 -1.421875 18.96875 -0.25 
Q 13.140625 0.921875 6.890625 3.21875 
L 6.890625 13.375 
Q 12.890625 10.015625 18.65625 8.296875 
Q 24.421875 6.59375 29.984375 6.59375 
Q 38.421875 6.59375 43.015625 9.90625 
Q 47.609375 13.234375 47.609375 19.390625 
Q 47.609375 24.75 44.3125 27.78125 
Q 41.015625 30.8125 33.5 32.328125 
L 27.484375 33.5 
Q 16.453125 35.6875 11.515625 40.375 
Q 6.59375 45.0625 6.59375 53.421875 
Q 6.59375 63.09375 13.40625 68.65625 
Q 20.21875 74.21875 32.171875 74.21875 
Q 37.3125 74.21875 42.625 73.28125 
Q 47.953125 72.359375 53.515625 70.515625 
z
" id="DejaVuSans-83"/>
      <path d="M 14.796875 27.296875 
Q 14.796875 17.390625 18.875 11.75 
Q 22.953125 6.109375 30.078125 6.109375 
Q 37.203125 6.109375 41.296875 11.75 
Q 45.40625 17.390625 45.40625 27.296875 
Q 45.40625 37.203125 41.296875 42.84375 
Q 37.203125 48.484375 30.078125 48.484375 
Q 22.953125 48.484375 18.875 42.84375 
Q 14.796875 37.203125 14.796875 27.296875 
z
M 45.40625 8.203125 
Q 42.578125 3.328125 38.25 0.953125 
Q 33.9375 -1.421875 27.875 -1.421875 
Q 17.96875 -1.421875 11.734375 6.484375 
Q 5.515625 14.40625 5.515625 27.296875 
Q 5.515625 40.1875 11.734375 48.09375 
Q 17.96875 56 27.875 56 
Q 33.9375 56 38.25 53.625 
Q 42.578125 51.265625 45.40625 46.390625 
L 45.40625 54.6875 
L 54.390625 54.6875 
L 54.390625 -20.796875 
L 45.40625 -20.796875 
z
" id="DejaVuSans-113"/>
      <path d="M 34.28125 27.484375 
Q 23.390625 27.484375 19.1875 25 
Q 14.984375 22.515625 14.984375 16.5 
Q 14.984375 11.71875 18.140625 8.90625 
Q 21.296875 6.109375 26.703125 6.109375 
Q 34.1875 6.109375 38.703125 11.40625 
Q 43.21875 16.703125 43.21875 25.484375 
L 43.21875 27.484375 
z
M 52.203125 31.203125 
L 52.203125 0 
L 43.21875 0 
L 43.21875 8.296875 
Q 40.140625 3.328125 35.546875 0.953125 
Q 30.953125 -1.421875 24.3125 -1.421875 
Q 15.921875 -1.421875 10.953125 3.296875 
Q 6 8.015625 6 15.921875 
Q 6 25.140625 12.171875 29.828125 
Q 18.359375 34.515625 30.609375 34.515625 
L 43.21875 34.515625 
L 43.21875 35.40625 
Q 43.21875 41.609375 39.140625 45 
Q 35.0625 48.390625 27.6875 48.390625 
Q 23 48.390625 18.546875 47.265625 
Q 14.109375 46.140625 10.015625 43.890625 
L 10.015625 52.203125 
Q 14.9375 54.109375 19.578125 55.046875 
Q 24.21875 56 28.609375 56 
Q 40.484375 56 46.34375 49.84375 
Q 52.203125 43.703125 52.203125 31.203125 
z
" id="DejaVuSans-97"/>
      <path d="M 19.671875 64.796875 
L 19.671875 8.109375 
L 31.59375 8.109375 
Q 46.6875 8.109375 53.6875 14.9375 
Q 60.6875 21.78125 60.6875 36.53125 
Q 60.6875 51.171875 53.6875 57.984375 
Q 46.6875 64.796875 31.59375 64.796875 
z
M 9.8125 72.90625 
L 30.078125 72.90625 
Q 51.265625 72.90625 61.171875 64.09375 
Q 71.09375 55.28125 71.09375 36.53125 
Q 71.09375 17.671875 61.125 8.828125 
Q 51.171875 0 30.078125 0 
L 9.8125 0 
z
" id="DejaVuSans-68"/>
      <path d="M 2.984375 54.6875 
L 12.5 54.6875 
L 29.59375 8.796875 
L 46.6875 54.6875 
L 56.203125 54.6875 
L 35.6875 0 
L 23.484375 0 
z
" id="DejaVuSans-118"/>
      <path d="M 9.421875 54.6875 
L 18.40625 54.6875 
L 18.40625 0 
L 9.421875 0 
z
M 9.421875 75.984375 
L 18.40625 75.984375 
L 18.40625 64.59375 
L 9.421875 64.59375 
z
" id="DejaVuSans-105"/>
      <path d="M 18.3125 70.21875 
L 18.3125 54.6875 
L 36.8125 54.6875 
L 36.8125 47.703125 
L 18.3125 47.703125 
L 18.3125 18.015625 
Q 18.3125 11.328125 20.140625 9.421875 
Q 21.96875 7.515625 27.59375 7.515625 
L 36.8125 7.515625 
L 36.8125 0 
L 27.59375 0 
Q 17.1875 0 13.234375 3.875 
Q 9.28125 7.765625 9.28125 18.015625 
L 9.28125 47.703125 
L 2.6875 47.703125 
L 2.6875 54.6875 
L 9.28125 54.6875 
L 9.28125 70.21875 
z
" id="DejaVuSans-116"/>
     </defs>
     <g transform="translate(118.195312 332.840469)rotate(-90)scale(0.1 -0.1)">
      <use xlink:href="#DejaVuSans-83"/>
      <use x="63.476562" xlink:href="#DejaVuSans-113"/>
      <use x="126.953125" xlink:href="#DejaVuSans-117"/>
      <use x="190.332031" xlink:href="#DejaVuSans-97"/>
      <use x="251.611328" xlink:href="#DejaVuSans-114"/>
      <use x="290.474609" xlink:href="#DejaVuSans-101"/>
      <use x="351.998047" xlink:href="#DejaVuSans-100"/>
      <use x="415.474609" xlink:href="#DejaVuSans-32"/>
      <use x="447.261719" xlink:href="#DejaVuSans-68"/>
      <use x="524.263672" xlink:href="#DejaVuSans-101"/>
      <use x="585.787109" xlink:href="#DejaVuSans-118"/>
      <use x="644.966797" xlink:href="#DejaVuSans-105"/>
      <use x="672.75" xlink:href="#DejaVuSans-97"/>
      <use x="734.029297" xlink:href="#DejaVuSans-116"/>
      <use x="773.238281" xlink:href="#DejaVuSans-105"/>
      <use x="801.021484" xlink:href="#DejaVuSans-111"/>
      <use x="862.203125" xlink:href="#DejaVuSans-110"/>
     </g>
    </g>
   </g>
   <g id="line2d_17">
    <path clip-path="url(#p3c49599b29)" d="M 184.581818 484.210442 
L 194.855696 483.835767 
L 205.129574 483.178369 
L 215.403452 482.167834 
L 225.67733 481.081842 
L 235.951208 480.280493 
L 246.225086 478.842142 
L 256.498964 477.322567 
L 266.772842 475.2307 
L 277.04672 473.024119 
L 287.320598 470.621741 
L 297.594476 469.008179 
L 307.868354 466.86887 
L 318.142232 461.6252 
L 328.41611 458.69899 
L 338.689988 456.52097 
L 348.963867 454.100936 
L 359.237745 450.46386 
L 369.511623 445.750999 
L 379.785501 441.519745 
L 390.059379 438.331698 
L 400.333257 434.44741 
L 410.607135 430.004623 
L 420.881013 425.373752 
L 431.154891 420.047076 
L 441.428769 417.442142 
L 451.702647 413.367506 
L 461.976525 408.817744 
L 472.250403 405.207951 
L 482.524281 400.752216 
L 492.798159 396.610064 
L 503.072037 391.752761 
L 513.345915 387.298004 
L 523.619793 381.29751 
L 533.893671 376.486998 
L 544.167549 371.987521 
L 554.441427 365.214947 
L 564.715305 359.837197 
L 574.989183 354.756984 
L 585.263061 350.343001 
L 595.536939 344.644614 
L 605.810817 339.790098 
L 616.084695 333.557001 
L 626.358573 328.929768 
L 636.632451 323.624828 
L 646.906329 316.158952 
L 657.180207 310.271417 
L 667.454085 302.97316 
L 677.727963 295.971354 
L 688.001841 289.989447 
L 698.275719 282.441973 
L 708.549597 277.1431 
L 718.823475 273.272919 
L 729.097353 266.513292 
L 739.371231 264.287957 
L 749.645109 256.85623 
L 759.918987 251.149992 
L 770.192865 240.1605 
L 780.466743 232.507721 
L 790.740621 228.829425 
L 801.014499 222.204206 
L 811.288377 209.723808 
L 821.562255 201.346792 
L 831.836133 194.663075 
L 842.110012 192.127313 
L 852.38389 189.401326 
L 862.657768 181.740967 
L 872.931646 176.142041 
L 883.205524 169.003921 
L 893.479402 160.54475 
L 903.75328 151.384623 
L 914.027158 144.268205 
L 924.301036 135.595922 
L 934.574914 132.459431 
L 944.848792 122.828559 
L 955.12267 117.430052 
L 965.396548 109.926049 
L 975.670426 102.677543 
L 985.944304 95.148286 
L 996.218182 88.887273 
" style="fill:none;stroke:#1f77b4;stroke-linecap:square;stroke-width:1.5;"/>
   </g>
   <g id="line2d_18">
    <path clip-path="url(#p3c49599b29)" d="M 184.581818 484.211815 
L 194.855696 483.931353 
L 205.129574 483.688652 
L 215.403452 483.465268 
L 225.67733 482.772092 
L 235.951208 482.217837 
L 246.225086 481.045989 
L 256.498964 480.237259 
L 266.772842 479.157298 
L 277.04672 477.979745 
L 287.320598 476.783682 
L 297.594476 474.616652 
L 307.868354 472.584909 
L 318.142232 471.252526 
L 328.41611 469.379875 
L 338.689988 467.471358 
L 348.963867 465.301817 
L 359.237745 463.933288 
L 369.511623 460.640889 
L 379.785501 459.187802 
L 390.059379 456.923133 
L 400.333257 454.28561 
L 410.607135 450.695117 
L 420.881013 447.573989 
L 431.154891 443.107938 
L 441.428769 439.684152 
L 451.702647 435.457974 
L 461.976525 432.111179 
L 472.250403 427.594895 
L 482.524281 423.786907 
L 492.798159 419.068104 
L 503.072037 413.897431 
L 513.345915 410.357966 
L 523.619793 405.303721 
L 533.893671 400.684906 
L 544.167549 395.504351 
L 554.441427 388.401777 
L 564.715305 381.667018 
L 574.989183 375.525606 
L 585.263061 371.022882 
L 595.536939 364.643673 
L 605.810817 359.218284 
L 616.084695 356.626153 
L 626.358573 351.809024 
L 636.632451 347.392855 
L 646.906329 343.529571 
L 657.180207 336.983713 
L 667.454085 329.234637 
L 677.727963 325.421771 
L 688.001841 319.138315 
L 698.275719 314.07146 
L 708.549597 306.403176 
L 718.823475 300.486606 
L 729.097353 295.132013 
L 739.371231 288.480406 
L 749.645109 280.708016 
L 759.918987 268.404345 
L 770.192865 263.663289 
L 780.466743 258.089765 
L 790.740621 249.404691 
L 801.014499 243.92766 
L 811.288377 238.446569 
L 821.562255 230.252577 
L 831.836133 224.245268 
L 842.110012 216.492148 
L 852.38389 208.056651 
L 862.657768 200.555805 
L 872.931646 192.402144 
L 883.205524 187.290997 
L 893.479402 178.460122 
L 903.75328 169.47881 
L 914.027158 160.007878 
L 924.301036 151.036924 
L 934.574914 141.770159 
L 944.848792 135.743565 
L 955.12267 128.425939 
L 965.396548 125.126811 
L 975.670426 114.932795 
L 985.944304 107.453586 
L 996.218182 100.451763 
" style="fill:none;stroke:#ff7f0e;stroke-linecap:square;stroke-width:1.5;"/>
   </g>
   <g id="line2d_19">
    <path clip-path="url(#p3c49599b29)" d="M 184.581818 484.232727 
L 194.855696 484.052124 
L 205.129574 483.723103 
L 215.403452 483.451349 
L 225.67733 482.960792 
L 235.951208 482.594045 
L 246.225086 481.764593 
L 256.498964 480.815645 
L 266.772842 479.905914 
L 277.04672 479.043845 
L 287.320598 477.353395 
L 297.594476 475.70491 
L 307.868354 474.134942 
L 318.142232 472.171364 
L 328.41611 470.446615 
L 338.689988 467.97305 
L 348.963867 464.028222 
L 359.237745 462.097924 
L 369.511623 459.438822 
L 379.785501 455.727336 
L 390.059379 454.344311 
L 400.333257 451.957426 
L 410.607135 448.108904 
L 420.881013 445.728471 
L 431.154891 443.268774 
L 441.428769 440.101365 
L 451.702647 436.924658 
L 461.976525 432.438425 
L 472.250403 428.076709 
L 482.524281 425.051936 
L 492.798159 420.539269 
L 503.072037 417.142575 
L 513.345915 413.345968 
L 523.619793 407.213903 
L 533.893671 403.264607 
L 544.167549 400.2295 
L 554.441427 397.141625 
L 564.715305 394.75635 
L 574.989183 388.334319 
L 585.263061 382.685872 
L 595.536939 375.930677 
L 605.810817 370.375887 
L 616.084695 365.523648 
L 626.358573 361.408509 
L 636.632451 354.24082 
L 646.906329 350.578349 
L 657.180207 343.698784 
L 667.454085 338.519849 
L 677.727963 333.398113 
L 688.001841 327.37456 
L 698.275719 319.646069 
L 708.549597 313.566139 
L 718.823475 305.40258 
L 729.097353 300.436181 
L 739.371231 294.076536 
L 749.645109 287.652294 
L 759.918987 282.739247 
L 770.192865 276.41431 
L 780.466743 272.434071 
L 790.740621 266.212007 
L 801.014499 259.202951 
L 811.288377 251.016884 
L 821.562255 242.446076 
L 831.836133 235.613089 
L 842.110012 227.045389 
L 852.38389 221.075302 
L 862.657768 212.681336 
L 872.931646 206.377707 
L 883.205524 198.688214 
L 893.479402 189.715419 
L 903.75328 180.687973 
L 914.027158 169.84193 
L 924.301036 161.823285 
L 934.574914 154.717258 
L 944.848792 145.534475 
L 955.12267 136.59808 
L 965.396548 130.584014 
L 975.670426 120.246367 
L 985.944304 109.372375 
L 996.218182 101.048448 
" style="fill:none;stroke:#2ca02c;stroke-linecap:square;stroke-width:1.5;"/>
   </g>
   <g id="line2d_20">
    <path clip-path="url(#p3c49599b29)" d="M 184.581818 484.227649 
L 194.855696 483.941497 
L 205.129574 483.466655 
L 215.403452 482.964191 
L 225.67733 482.49107 
L 235.951208 481.90534 
L 246.225086 480.879087 
L 256.498964 479.488142 
L 266.772842 478.114898 
L 277.04672 476.311766 
L 287.320598 474.768886 
L 297.594476 473.264166 
L 307.868354 470.407795 
L 318.142232 468.215887 
L 328.41611 467.095645 
L 338.689988 464.88684 
L 348.963867 462.695832 
L 359.237745 460.533797 
L 369.511623 457.797152 
L 379.785501 454.441939 
L 390.059379 452.885179 
L 400.333257 450.867505 
L 410.607135 448.462461 
L 420.881013 445.59579 
L 431.154891 441.675829 
L 441.428769 437.683593 
L 451.702647 433.249844 
L 461.976525 430.648654 
L 472.250403 426.029757 
L 482.524281 421.989347 
L 492.798159 418.181269 
L 503.072037 413.150548 
L 513.345915 408.368578 
L 523.619793 404.576838 
L 533.893671 400.152818 
L 544.167549 397.673417 
L 554.441427 389.798755 
L 564.715305 384.672851 
L 574.989183 380.66569 
L 585.263061 375.505893 
L 595.536939 368.670678 
L 605.810817 362.706428 
L 616.084695 357.024729 
L 626.358573 351.956567 
L 636.632451 347.265509 
L 646.906329 339.65357 
L 657.180207 332.57528 
L 667.454085 326.183575 
L 677.727963 317.190047 
L 688.001841 310.972652 
L 698.275719 302.326231 
L 708.549597 297.161879 
L 718.823475 292.850054 
L 729.097353 286.330848 
L 739.371231 278.43829 
L 749.645109 272.517922 
L 759.918987 267.841776 
L 770.192865 262.713266 
L 780.466743 253.472561 
L 790.740621 245.289963 
L 801.014499 237.045711 
L 811.288377 230.129548 
L 821.562255 225.364784 
L 831.836133 218.666812 
L 842.110012 212.01162 
L 852.38389 202.561437 
L 862.657768 193.17692 
L 872.931646 185.472927 
L 883.205524 179.801528 
L 893.479402 168.84819 
L 903.75328 160.959627 
L 914.027158 153.913808 
L 924.301036 147.522021 
L 934.574914 139.263827 
L 944.848792 132.358909 
L 955.12267 124.801242 
L 965.396548 119.015939 
L 975.670426 108.770757 
L 985.944304 101.351756 
L 996.218182 94.966578 
" style="fill:none;stroke:#d62728;stroke-dasharray:5.55,2.4;stroke-dashoffset:0;stroke-width:1.5;"/>
   </g>
   <g id="line2d_21">
    <path clip-path="url(#p3c49599b29)" d="M 184.581818 484.200311 
L 194.855696 483.854111 
L 205.129574 483.552161 
L 215.403452 482.970983 
L 225.67733 482.178806 
L 235.951208 481.061415 
L 246.225086 479.896139 
L 256.498964 477.544466 
L 266.772842 476.531107 
L 277.04672 475.167165 
L 287.320598 472.320768 
L 297.594476 469.74462 
L 307.868354 468.154811 
L 318.142232 466.25178 
L 328.41611 463.699745 
L 338.689988 461.456267 
L 348.963867 459.238081 
L 359.237745 457.116827 
L 369.511623 454.230213 
L 379.785501 452.052446 
L 390.059379 449.313376 
L 400.333257 447.0861 
L 410.607135 444.355111 
L 420.881013 440.553498 
L 431.154891 438.101796 
L 441.428769 435.392357 
L 451.702647 431.812869 
L 461.976525 427.179824 
L 472.250403 422.256131 
L 482.524281 417.32677 
L 492.798159 413.075362 
L 503.072037 408.721316 
L 513.345915 403.230606 
L 523.619793 397.559372 
L 533.893671 396.327226 
L 544.167549 392.710281 
L 554.441427 390.318782 
L 564.715305 384.753487 
L 574.989183 379.359592 
L 585.263061 374.24911 
L 595.536939 369.84944 
L 605.810817 366.262163 
L 616.084695 361.366132 
L 626.358573 357.746745 
L 636.632451 351.902434 
L 646.906329 347.263413 
L 657.180207 342.177083 
L 667.454085 337.238897 
L 677.727963 332.434017 
L 688.001841 328.290369 
L 698.275719 324.067261 
L 708.549597 317.446234 
L 718.823475 313.057135 
L 729.097353 305.270195 
L 739.371231 298.62232 
L 749.645109 292.204062 
L 759.918987 284.290838 
L 770.192865 275.674521 
L 780.466743 268.008753 
L 790.740621 262.400472 
L 801.014499 255.407643 
L 811.288377 250.546188 
L 821.562255 245.855327 
L 831.836133 239.238575 
L 842.110012 233.489738 
L 852.38389 227.856187 
L 862.657768 218.147483 
L 872.931646 213.762873 
L 883.205524 208.253486 
L 893.479402 200.993865 
L 903.75328 193.666375 
L 914.027158 186.059023 
L 924.301036 179.343476 
L 934.574914 173.001374 
L 944.848792 164.518658 
L 955.12267 157.31086 
L 965.396548 147.649276 
L 975.670426 138.739681 
L 985.944304 129.302191 
L 996.218182 120.230912 
" style="fill:none;stroke:#9467bd;stroke-linecap:square;stroke-width:1.5;"/>
   </g>
   <g id="line2d_22">
    <path clip-path="url(#p3c49599b29)" d="M 184.581818 484.213759 
L 194.855696 483.946943 
L 205.129574 483.7462 
L 215.403452 483.437068 
L 225.67733 482.918218 
L 235.951208 482.17418 
L 246.225086 481.232898 
L 256.498964 480.508747 
L 266.772842 479.501568 
L 277.04672 478.497384 
L 287.320598 476.650088 
L 297.594476 475.456232 
L 307.868354 473.727793 
L 318.142232 471.757801 
L 328.41611 470.018408 
L 338.689988 468.243175 
L 348.963867 466.141073 
L 359.237745 463.711137 
L 369.511623 461.648707 
L 379.785501 459.842175 
L 390.059379 457.161298 
L 400.333257 454.004948 
L 410.607135 451.297449 
L 420.881013 448.792987 
L 431.154891 444.06829 
L 441.428769 439.397306 
L 451.702647 436.352545 
L 461.976525 433.254723 
L 472.250403 428.553722 
L 482.524281 424.962972 
L 492.798159 420.042078 
L 503.072037 415.620689 
L 513.345915 410.814497 
L 523.619793 406.171398 
L 533.893671 401.677626 
L 544.167549 397.215447 
L 554.441427 394.347785 
L 564.715305 390.846743 
L 574.989183 385.551914 
L 585.263061 378.617303 
L 595.536939 372.796651 
L 605.810817 366.246667 
L 616.084695 361.828977 
L 626.358573 356.832046 
L 636.632451 351.671863 
L 646.906329 346.195531 
L 657.180207 342.17243 
L 667.454085 335.826514 
L 677.727963 330.050878 
L 688.001841 326.627241 
L 698.275719 322.916671 
L 708.549597 315.05356 
L 718.823475 308.059728 
L 729.097353 299.535712 
L 739.371231 291.919465 
L 749.645109 285.088582 
L 759.918987 278.576807 
L 770.192865 271.004721 
L 780.466743 264.337774 
L 790.740621 257.974298 
L 801.014499 252.771211 
L 811.288377 245.939457 
L 821.562255 240.976987 
L 831.836133 231.66713 
L 842.110012 222.497484 
L 852.38389 217.937907 
L 862.657768 210.244846 
L 872.931646 200.217708 
L 883.205524 191.238829 
L 893.479402 184.174333 
L 903.75328 179.920102 
L 914.027158 173.140171 
L 924.301036 165.513089 
L 934.574914 156.491298 
L 944.848792 147.871299 
L 955.12267 142.364608 
L 965.396548 134.99812 
L 975.670426 124.430131 
L 985.944304 118.608789 
L 996.218182 112.500908 
" style="fill:none;stroke:#8c564b;stroke-linecap:square;stroke-width:1.5;"/>
   </g>
   <g id="line2d_23">
    <path clip-path="url(#p3c49599b29)" d="M 184.581818 484.213759 
L 194.855696 484.040427 
L 205.129574 483.73558 
L 215.403452 483.495332 
L 225.67733 482.96675 
L 235.951208 482.570204 
L 246.225086 481.905408 
L 256.498964 481.073212 
L 266.772842 480.232209 
L 277.04672 479.155262 
L 287.320598 477.769733 
L 297.594476 475.932425 
L 307.868354 474.249442 
L 318.142232 472.606022 
L 328.41611 470.448374 
L 338.689988 468.382742 
L 348.963867 466.337952 
L 359.237745 463.339528 
L 369.511623 460.106667 
L 379.785501 457.889786 
L 390.059379 454.9229 
L 400.333257 452.785655 
L 410.607135 449.307868 
L 420.881013 446.469744 
L 431.154891 443.693187 
L 441.428769 440.78407 
L 451.702647 437.768643 
L 461.976525 433.129001 
L 472.250403 430.237755 
L 482.524281 426.374467 
L 492.798159 422.645619 
L 503.072037 417.827121 
L 513.345915 414.125989 
L 523.619793 409.529262 
L 533.893671 405.992255 
L 544.167549 402.844419 
L 554.441427 397.878751 
L 564.715305 395.357671 
L 574.989183 390.925143 
L 585.263061 386.797797 
L 595.536939 381.688712 
L 605.810817 375.71302 
L 616.084695 370.055991 
L 626.358573 365.10905 
L 636.632451 359.241187 
L 646.906329 351.854747 
L 657.180207 347.415724 
L 667.454085 341.701521 
L 677.727963 335.769956 
L 688.001841 332.222977 
L 698.275719 325.365936 
L 708.549597 319.645066 
L 718.823475 313.358026 
L 729.097353 306.782919 
L 739.371231 301.551751 
L 749.645109 295.703757 
L 759.918987 292.973429 
L 770.192865 286.732046 
L 780.466743 278.186558 
L 790.740621 270.753384 
L 801.014499 264.727167 
L 811.288377 255.777209 
L 821.562255 248.556751 
L 831.836133 244.412051 
L 842.110012 237.073595 
L 852.38389 229.571204 
L 862.657768 222.914434 
L 872.931646 216.006639 
L 883.205524 206.232202 
L 893.479402 198.806032 
L 903.75328 189.29745 
L 914.027158 180.764852 
L 924.301036 174.655887 
L 934.574914 165.643928 
L 944.848792 156.708553 
L 955.12267 149.053324 
L 965.396548 138.98505 
L 975.670426 128.939201 
L 985.944304 119.745304 
L 996.218182 113.183515 
" style="fill:none;stroke:#e377c2;stroke-linecap:square;stroke-width:1.5;"/>
   </g>
   <g id="line2d_24">
    <path clip-path="url(#p3c49599b29)" d="M 184.581818 484.232315 
L 194.855696 484.044699 
L 205.129574 483.811582 
L 215.403452 483.389622 
L 225.67733 482.700799 
L 235.951208 481.550709 
L 246.225086 480.427363 
L 256.498964 479.357348 
L 266.772842 478.002371 
L 277.04672 476.460554 
L 287.320598 475.213425 
L 297.594476 473.514613 
L 307.868354 470.636494 
L 318.142232 468.103955 
L 328.41611 466.598328 
L 338.689988 464.455069 
L 348.963867 462.231807 
L 359.237745 460.577449 
L 369.511623 458.528665 
L 379.785501 456.88367 
L 390.059379 454.59075 
L 400.333257 452.146303 
L 410.607135 449.141709 
L 420.881013 445.826053 
L 431.154891 442.007436 
L 441.428769 438.855724 
L 451.702647 436.067388 
L 461.976525 432.209592 
L 472.250403 429.431757 
L 482.524281 426.624892 
L 492.798159 423.154791 
L 503.072037 420.116799 
L 513.345915 415.334164 
L 523.619793 409.902018 
L 533.893671 406.505517 
L 544.167549 399.534505 
L 554.441427 394.538175 
L 564.715305 390.092535 
L 574.989183 382.35311 
L 585.263061 376.922181 
L 595.536939 372.569532 
L 605.810817 369.155069 
L 616.084695 364.870956 
L 626.358573 361.231355 
L 636.632451 357.088661 
L 646.906329 351.246208 
L 657.180207 345.891697 
L 667.454085 341.028878 
L 677.727963 337.223837 
L 688.001841 330.915736 
L 698.275719 324.174606 
L 708.549597 319.765794 
L 718.823475 315.723309 
L 729.097353 311.858521 
L 739.371231 304.230009 
L 749.645109 296.262906 
L 759.918987 288.213351 
L 770.192865 284.082149 
L 780.466743 278.424068 
L 790.740621 272.707916 
L 801.014499 265.870556 
L 811.288377 259.62424 
L 821.562255 248.667171 
L 831.836133 240.103613 
L 842.110012 234.730458 
L 852.38389 226.12713 
L 862.657768 218.152349 
L 872.931646 210.752156 
L 883.205524 199.498273 
L 893.479402 194.009438 
L 903.75328 185.355931 
L 914.027158 177.816875 
L 924.301036 168.99649 
L 934.574914 161.257937 
L 944.848792 154.69378 
L 955.12267 147.535865 
L 965.396548 140.558902 
L 975.670426 132.639528 
L 985.944304 123.417286 
L 996.218182 113.996172 
" style="fill:none;stroke:#7f7f7f;stroke-dasharray:5.55,2.4;stroke-dashoffset:0;stroke-width:1.5;"/>
   </g>
   <g id="line2d_25">
    <path clip-path="url(#p3c49599b29)" d="M 184.581818 484.232315 
L 194.855696 484.044699 
L 205.129574 483.748586 
L 215.403452 483.448538 
L 225.67733 483.078993 
L 235.951208 482.477342 
L 246.225086 481.77676 
L 256.498964 480.850015 
L 266.772842 479.979994 
L 277.04672 478.913506 
L 287.320598 477.822792 
L 297.594476 476.623516 
L 307.868354 474.77115 
L 318.142232 472.638994 
L 328.41611 470.587209 
L 338.689988 468.489011 
L 348.963867 466.10491 
L 359.237745 464.619639 
L 369.511623 461.131002 
L 379.785501 458.223777 
L 390.059379 455.553515 
L 400.333257 452.911208 
L 410.607135 449.88097 
L 420.881013 447.944809 
L 431.154891 445.411776 
L 441.428769 442.125299 
L 451.702647 438.623883 
L 461.976525 436.233819 
L 472.250403 431.123678 
L 482.524281 427.298484 
L 492.798159 423.405331 
L 503.072037 420.161996 
L 513.345915 415.17299 
L 523.619793 412.894796 
L 533.893671 408.254205 
L 544.167549 404.825627 
L 554.441427 399.97023 
L 564.715305 396.315816 
L 574.989183 390.999819 
L 585.263061 385.038167 
L 595.536939 380.730419 
L 605.810817 374.694798 
L 616.084695 369.806766 
L 626.358573 366.239161 
L 636.632451 360.936268 
L 646.906329 356.666755 
L 657.180207 352.150113 
L 667.454085 344.126469 
L 677.727963 337.430947 
L 688.001841 331.950069 
L 698.275719 325.495263 
L 708.549597 321.725226 
L 718.823475 317.3004 
L 729.097353 311.076412 
L 739.371231 305.25867 
L 749.645109 300.42528 
L 759.918987 294.138586 
L 770.192865 286.641948 
L 780.466743 279.456922 
L 790.740621 274.044522 
L 801.014499 270.259243 
L 811.288377 260.54291 
L 821.562255 251.93677 
L 831.836133 247.12089 
L 842.110012 241.513086 
L 852.38389 233.852662 
L 862.657768 225.992657 
L 872.931646 218.744858 
L 883.205524 209.714436 
L 893.479402 202.0099 
L 903.75328 193.575061 
L 914.027158 187.392768 
L 924.301036 180.564861 
L 934.574914 173.337071 
L 944.848792 162.121068 
L 955.12267 153.824927 
L 965.396548 147.666934 
L 975.670426 138.538769 
L 985.944304 131.030294 
L 996.218182 117.461849 
" style="fill:none;stroke:#bcbd22;stroke-dasharray:5.55,2.4;stroke-dashoffset:0;stroke-width:1.5;"/>
   </g>
   <g id="patch_3">
    <path d="M 144 504 
L 144 69.12 
" style="fill:none;stroke:#000000;stroke-linecap:square;stroke-linejoin:miter;stroke-width:0.8;"/>
   </g>
   <g id="patch_4">
    <path d="M 1036.8 504 
L 1036.8 69.12 
" style="fill:none;stroke:#000000;stroke-linecap:square;stroke-linejoin:miter;stroke-width:0.8;"/>
   </g>
   <g id="patch_5">
    <path d="M 144 504 
L 1036.8 504 
" style="fill:none;stroke:#000000;stroke-linecap:square;stroke-linejoin:miter;stroke-width:0.8;"/>
   </g>
   <g id="patch_6">
    <path d="M 144 69.12 
L 1036.8 69.12 
" style="fill:none;stroke:#000000;stroke-linecap:square;stroke-linejoin:miter;stroke-width:0.8;"/>
   </g>
   <g id="legend_1">
    <g id="patch_7">
     <path d="M 151 211.17 
L 300.879687 211.17 
Q 302.879687 211.17 302.879687 209.17 
L 302.879687 76.12 
Q 302.879687 74.12 300.879687 74.12 
L 151 74.12 
Q 149 74.12 149 76.12 
L 149 209.17 
Q 149 211.17 151 211.17 
z
" style="fill:#ffffff;opacity:0.8;stroke:#cccccc;stroke-linejoin:miter;"/>
    </g>
    <g id="line2d_26">
     <path d="M 153 82.218437 
L 173 82.218437 
" style="fill:none;stroke:#1f77b4;stroke-linecap:square;stroke-width:1.5;"/>
    </g>
    <g id="line2d_27"/>
    <g id="text_19">
     <!-- taylorfo noBN -->
     <defs>
      <path d="M 32.171875 -5.078125 
Q 28.375 -14.84375 24.75 -17.8125 
Q 21.140625 -20.796875 15.09375 -20.796875 
L 7.90625 -20.796875 
L 7.90625 -13.28125 
L 13.1875 -13.28125 
Q 16.890625 -13.28125 18.9375 -11.515625 
Q 21 -9.765625 23.484375 -3.21875 
L 25.09375 0.875 
L 2.984375 54.6875 
L 12.5 54.6875 
L 29.59375 11.921875 
L 46.6875 54.6875 
L 56.203125 54.6875 
z
" id="DejaVuSans-121"/>
      <path d="M 9.421875 75.984375 
L 18.40625 75.984375 
L 18.40625 0 
L 9.421875 0 
z
" id="DejaVuSans-108"/>
      <path d="M 19.671875 34.8125 
L 19.671875 8.109375 
L 35.5 8.109375 
Q 43.453125 8.109375 47.28125 11.40625 
Q 51.125 14.703125 51.125 21.484375 
Q 51.125 28.328125 47.28125 31.5625 
Q 43.453125 34.8125 35.5 34.8125 
z
M 19.671875 64.796875 
L 19.671875 42.828125 
L 34.28125 42.828125 
Q 41.5 42.828125 45.03125 45.53125 
Q 48.578125 48.25 48.578125 53.8125 
Q 48.578125 59.328125 45.03125 62.0625 
Q 41.5 64.796875 34.28125 64.796875 
z
M 9.8125 72.90625 
L 35.015625 72.90625 
Q 46.296875 72.90625 52.390625 68.21875 
Q 58.5 63.53125 58.5 54.890625 
Q 58.5 48.1875 55.375 44.234375 
Q 52.25 40.28125 46.1875 39.3125 
Q 53.46875 37.75 57.5 32.78125 
Q 61.53125 27.828125 61.53125 20.40625 
Q 61.53125 10.640625 54.890625 5.3125 
Q 48.25 0 35.984375 0 
L 9.8125 0 
z
" id="DejaVuSans-66"/>
     </defs>
     <g transform="translate(181 85.718437)scale(0.1 -0.1)">
      <use xlink:href="#DejaVuSans-116"/>
      <use x="39.208984" xlink:href="#DejaVuSans-97"/>
      <use x="100.488281" xlink:href="#DejaVuSans-121"/>
      <use x="159.667969" xlink:href="#DejaVuSans-108"/>
      <use x="187.451172" xlink:href="#DejaVuSans-111"/>
      <use x="248.632812" xlink:href="#DejaVuSans-114"/>
      <use x="289.746094" xlink:href="#DejaVuSans-102"/>
      <use x="324.951172" xlink:href="#DejaVuSans-111"/>
      <use x="386.132812" xlink:href="#DejaVuSans-32"/>
      <use x="417.919922" xlink:href="#DejaVuSans-110"/>
      <use x="481.298828" xlink:href="#DejaVuSans-111"/>
      <use x="542.480469" xlink:href="#DejaVuSans-66"/>
      <use x="611.083984" xlink:href="#DejaVuSans-78"/>
     </g>
    </g>
    <g id="line2d_28">
     <path d="M 153 96.896563 
L 173 96.896563 
" style="fill:none;stroke:#ff7f0e;stroke-linecap:square;stroke-width:1.5;"/>
    </g>
    <g id="line2d_29"/>
    <g id="text_20">
     <!-- taylorfo_abs noBN -->
     <defs>
      <path d="M 50.984375 -16.609375 
L 50.984375 -23.578125 
L -0.984375 -23.578125 
L -0.984375 -16.609375 
z
" id="DejaVuSans-95"/>
     </defs>
     <g transform="translate(181 100.396563)scale(0.1 -0.1)">
      <use xlink:href="#DejaVuSans-116"/>
      <use x="39.208984" xlink:href="#DejaVuSans-97"/>
      <use x="100.488281" xlink:href="#DejaVuSans-121"/>
      <use x="159.667969" xlink:href="#DejaVuSans-108"/>
      <use x="187.451172" xlink:href="#DejaVuSans-111"/>
      <use x="248.632812" xlink:href="#DejaVuSans-114"/>
      <use x="289.746094" xlink:href="#DejaVuSans-102"/>
      <use x="324.951172" xlink:href="#DejaVuSans-111"/>
      <use x="386.132812" xlink:href="#DejaVuSans-95"/>
      <use x="436.132812" xlink:href="#DejaVuSans-97"/>
      <use x="497.412109" xlink:href="#DejaVuSans-98"/>
      <use x="560.888672" xlink:href="#DejaVuSans-115"/>
      <use x="612.988281" xlink:href="#DejaVuSans-32"/>
      <use x="644.775391" xlink:href="#DejaVuSans-110"/>
      <use x="708.154297" xlink:href="#DejaVuSans-111"/>
      <use x="769.335938" xlink:href="#DejaVuSans-66"/>
      <use x="837.939453" xlink:href="#DejaVuSans-78"/>
     </g>
    </g>
    <g id="line2d_30">
     <path d="M 153 111.852812 
L 173 111.852812 
" style="fill:none;stroke:#2ca02c;stroke-linecap:square;stroke-width:1.5;"/>
    </g>
    <g id="line2d_31"/>
    <g id="text_21">
     <!-- taylorfo_sq noBN -->
     <g transform="translate(181 115.352812)scale(0.1 -0.1)">
      <use xlink:href="#DejaVuSans-116"/>
      <use x="39.208984" xlink:href="#DejaVuSans-97"/>
      <use x="100.488281" xlink:href="#DejaVuSans-121"/>
      <use x="159.667969" xlink:href="#DejaVuSans-108"/>
      <use x="187.451172" xlink:href="#DejaVuSans-111"/>
      <use x="248.632812" xlink:href="#DejaVuSans-114"/>
      <use x="289.746094" xlink:href="#DejaVuSans-102"/>
      <use x="324.951172" xlink:href="#DejaVuSans-111"/>
      <use x="386.132812" xlink:href="#DejaVuSans-95"/>
      <use x="436.132812" xlink:href="#DejaVuSans-115"/>
      <use x="488.232422" xlink:href="#DejaVuSans-113"/>
      <use x="551.708984" xlink:href="#DejaVuSans-32"/>
      <use x="583.496094" xlink:href="#DejaVuSans-110"/>
      <use x="646.875" xlink:href="#DejaVuSans-111"/>
      <use x="708.056641" xlink:href="#DejaVuSans-66"/>
      <use x="776.660156" xlink:href="#DejaVuSans-78"/>
     </g>
    </g>
    <g id="line2d_32">
     <path d="M 153 126.809062 
L 173 126.809062 
" style="fill:none;stroke:#d62728;stroke-dasharray:5.55,2.4;stroke-dashoffset:0;stroke-width:1.5;"/>
    </g>
    <g id="line2d_33"/>
    <g id="text_22">
     <!-- Molchanov_group noBN -->
     <defs>
      <path d="M 9.8125 72.90625 
L 24.515625 72.90625 
L 43.109375 23.296875 
L 61.8125 72.90625 
L 76.515625 72.90625 
L 76.515625 0 
L 66.890625 0 
L 66.890625 64.015625 
L 48.09375 14.015625 
L 38.1875 14.015625 
L 19.390625 64.015625 
L 19.390625 0 
L 9.8125 0 
z
" id="DejaVuSans-77"/>
      <path d="M 48.78125 52.59375 
L 48.78125 44.1875 
Q 44.96875 46.296875 41.140625 47.34375 
Q 37.3125 48.390625 33.40625 48.390625 
Q 24.65625 48.390625 19.8125 42.84375 
Q 14.984375 37.3125 14.984375 27.296875 
Q 14.984375 17.28125 19.8125 11.734375 
Q 24.65625 6.203125 33.40625 6.203125 
Q 37.3125 6.203125 41.140625 7.25 
Q 44.96875 8.296875 48.78125 10.40625 
L 48.78125 2.09375 
Q 45.015625 0.34375 40.984375 -0.53125 
Q 36.96875 -1.421875 32.421875 -1.421875 
Q 20.0625 -1.421875 12.78125 6.34375 
Q 5.515625 14.109375 5.515625 27.296875 
Q 5.515625 40.671875 12.859375 48.328125 
Q 20.21875 56 33.015625 56 
Q 37.15625 56 41.109375 55.140625 
Q 45.0625 54.296875 48.78125 52.59375 
z
" id="DejaVuSans-99"/>
      <path d="M 54.890625 33.015625 
L 54.890625 0 
L 45.90625 0 
L 45.90625 32.71875 
Q 45.90625 40.484375 42.875 44.328125 
Q 39.84375 48.1875 33.796875 48.1875 
Q 26.515625 48.1875 22.3125 43.546875 
Q 18.109375 38.921875 18.109375 30.90625 
L 18.109375 0 
L 9.078125 0 
L 9.078125 75.984375 
L 18.109375 75.984375 
L 18.109375 46.1875 
Q 21.34375 51.125 25.703125 53.5625 
Q 30.078125 56 35.796875 56 
Q 45.21875 56 50.046875 50.171875 
Q 54.890625 44.34375 54.890625 33.015625 
z
" id="DejaVuSans-104"/>
      <path d="M 45.40625 27.984375 
Q 45.40625 37.75 41.375 43.109375 
Q 37.359375 48.484375 30.078125 48.484375 
Q 22.859375 48.484375 18.828125 43.109375 
Q 14.796875 37.75 14.796875 27.984375 
Q 14.796875 18.265625 18.828125 12.890625 
Q 22.859375 7.515625 30.078125 7.515625 
Q 37.359375 7.515625 41.375 12.890625 
Q 45.40625 18.265625 45.40625 27.984375 
z
M 54.390625 6.78125 
Q 54.390625 -7.171875 48.1875 -13.984375 
Q 42 -20.796875 29.203125 -20.796875 
Q 24.46875 -20.796875 20.265625 -20.09375 
Q 16.0625 -19.390625 12.109375 -17.921875 
L 12.109375 -9.1875 
Q 16.0625 -11.328125 19.921875 -12.34375 
Q 23.78125 -13.375 27.78125 -13.375 
Q 36.625 -13.375 41.015625 -8.765625 
Q 45.40625 -4.15625 45.40625 5.171875 
L 45.40625 9.625 
Q 42.625 4.78125 38.28125 2.390625 
Q 33.9375 0 27.875 0 
Q 17.828125 0 11.671875 7.65625 
Q 5.515625 15.328125 5.515625 27.984375 
Q 5.515625 40.671875 11.671875 48.328125 
Q 17.828125 56 27.875 56 
Q 33.9375 56 38.28125 53.609375 
Q 42.625 51.21875 45.40625 46.390625 
L 45.40625 54.6875 
L 54.390625 54.6875 
z
" id="DejaVuSans-103"/>
     </defs>
     <g transform="translate(181 130.309062)scale(0.1 -0.1)">
      <use xlink:href="#DejaVuSans-77"/>
      <use x="86.279297" xlink:href="#DejaVuSans-111"/>
      <use x="147.460938" xlink:href="#DejaVuSans-108"/>
      <use x="175.244141" xlink:href="#DejaVuSans-99"/>
      <use x="230.224609" xlink:href="#DejaVuSans-104"/>
      <use x="293.603516" xlink:href="#DejaVuSans-97"/>
      <use x="354.882812" xlink:href="#DejaVuSans-110"/>
      <use x="418.261719" xlink:href="#DejaVuSans-111"/>
      <use x="479.443359" xlink:href="#DejaVuSans-118"/>
      <use x="538.623047" xlink:href="#DejaVuSans-95"/>
      <use x="588.623047" xlink:href="#DejaVuSans-103"/>
      <use x="652.099609" xlink:href="#DejaVuSans-114"/>
      <use x="690.962891" xlink:href="#DejaVuSans-111"/>
      <use x="752.144531" xlink:href="#DejaVuSans-117"/>
      <use x="815.523438" xlink:href="#DejaVuSans-112"/>
      <use x="879" xlink:href="#DejaVuSans-32"/>
      <use x="910.787109" xlink:href="#DejaVuSans-110"/>
      <use x="974.166016" xlink:href="#DejaVuSans-111"/>
      <use x="1035.347656" xlink:href="#DejaVuSans-66"/>
      <use x="1103.951172" xlink:href="#DejaVuSans-78"/>
     </g>
    </g>
    <g id="line2d_34">
     <path d="M 153 141.765312 
L 173 141.765312 
" style="fill:none;stroke:#9467bd;stroke-linecap:square;stroke-width:1.5;"/>
    </g>
    <g id="line2d_35"/>
    <g id="text_23">
     <!-- taylorfo BN -->
     <g transform="translate(181 145.265312)scale(0.1 -0.1)">
      <use xlink:href="#DejaVuSans-116"/>
      <use x="39.208984" xlink:href="#DejaVuSans-97"/>
      <use x="100.488281" xlink:href="#DejaVuSans-121"/>
      <use x="159.667969" xlink:href="#DejaVuSans-108"/>
      <use x="187.451172" xlink:href="#DejaVuSans-111"/>
      <use x="248.632812" xlink:href="#DejaVuSans-114"/>
      <use x="289.746094" xlink:href="#DejaVuSans-102"/>
      <use x="324.951172" xlink:href="#DejaVuSans-111"/>
      <use x="386.132812" xlink:href="#DejaVuSans-32"/>
      <use x="417.919922" xlink:href="#DejaVuSans-66"/>
      <use x="486.523438" xlink:href="#DejaVuSans-78"/>
     </g>
    </g>
    <g id="line2d_36">
     <path d="M 153 156.443437 
L 173 156.443437 
" style="fill:none;stroke:#8c564b;stroke-linecap:square;stroke-width:1.5;"/>
    </g>
    <g id="line2d_37"/>
    <g id="text_24">
     <!-- taylorfo_abs BN -->
     <g transform="translate(181 159.943437)scale(0.1 -0.1)">
      <use xlink:href="#DejaVuSans-116"/>
      <use x="39.208984" xlink:href="#DejaVuSans-97"/>
      <use x="100.488281" xlink:href="#DejaVuSans-121"/>
      <use x="159.667969" xlink:href="#DejaVuSans-108"/>
      <use x="187.451172" xlink:href="#DejaVuSans-111"/>
      <use x="248.632812" xlink:href="#DejaVuSans-114"/>
      <use x="289.746094" xlink:href="#DejaVuSans-102"/>
      <use x="324.951172" xlink:href="#DejaVuSans-111"/>
      <use x="386.132812" xlink:href="#DejaVuSans-95"/>
      <use x="436.132812" xlink:href="#DejaVuSans-97"/>
      <use x="497.412109" xlink:href="#DejaVuSans-98"/>
      <use x="560.888672" xlink:href="#DejaVuSans-115"/>
      <use x="612.988281" xlink:href="#DejaVuSans-32"/>
      <use x="644.775391" xlink:href="#DejaVuSans-66"/>
      <use x="713.378906" xlink:href="#DejaVuSans-78"/>
     </g>
    </g>
    <g id="line2d_38">
     <path d="M 153 171.399687 
L 173 171.399687 
" style="fill:none;stroke:#e377c2;stroke-linecap:square;stroke-width:1.5;"/>
    </g>
    <g id="line2d_39"/>
    <g id="text_25">
     <!-- taylorfo_sq BN -->
     <g transform="translate(181 174.899687)scale(0.1 -0.1)">
      <use xlink:href="#DejaVuSans-116"/>
      <use x="39.208984" xlink:href="#DejaVuSans-97"/>
      <use x="100.488281" xlink:href="#DejaVuSans-121"/>
      <use x="159.667969" xlink:href="#DejaVuSans-108"/>
      <use x="187.451172" xlink:href="#DejaVuSans-111"/>
      <use x="248.632812" xlink:href="#DejaVuSans-114"/>
      <use x="289.746094" xlink:href="#DejaVuSans-102"/>
      <use x="324.951172" xlink:href="#DejaVuSans-111"/>
      <use x="386.132812" xlink:href="#DejaVuSans-95"/>
      <use x="436.132812" xlink:href="#DejaVuSans-115"/>
      <use x="488.232422" xlink:href="#DejaVuSans-113"/>
      <use x="551.708984" xlink:href="#DejaVuSans-32"/>
      <use x="583.496094" xlink:href="#DejaVuSans-66"/>
      <use x="652.099609" xlink:href="#DejaVuSans-78"/>
     </g>
    </g>
    <g id="line2d_40">
     <path d="M 153 186.355937 
L 173 186.355937 
" style="fill:none;stroke:#7f7f7f;stroke-dasharray:5.55,2.4;stroke-dashoffset:0;stroke-width:1.5;"/>
    </g>
    <g id="line2d_41"/>
    <g id="text_26">
     <!-- Molchanov_group BN -->
     <g transform="translate(181 189.855937)scale(0.1 -0.1)">
      <use xlink:href="#DejaVuSans-77"/>
      <use x="86.279297" xlink:href="#DejaVuSans-111"/>
      <use x="147.460938" xlink:href="#DejaVuSans-108"/>
      <use x="175.244141" xlink:href="#DejaVuSans-99"/>
      <use x="230.224609" xlink:href="#DejaVuSans-104"/>
      <use x="293.603516" xlink:href="#DejaVuSans-97"/>
      <use x="354.882812" xlink:href="#DejaVuSans-110"/>
      <use x="418.261719" xlink:href="#DejaVuSans-111"/>
      <use x="479.443359" xlink:href="#DejaVuSans-118"/>
      <use x="538.623047" xlink:href="#DejaVuSans-95"/>
      <use x="588.623047" xlink:href="#DejaVuSans-103"/>
      <use x="652.099609" xlink:href="#DejaVuSans-114"/>
      <use x="690.962891" xlink:href="#DejaVuSans-111"/>
      <use x="752.144531" xlink:href="#DejaVuSans-117"/>
      <use x="815.523438" xlink:href="#DejaVuSans-112"/>
      <use x="879" xlink:href="#DejaVuSans-32"/>
      <use x="910.787109" xlink:href="#DejaVuSans-66"/>
      <use x="979.390625" xlink:href="#DejaVuSans-78"/>
     </g>
    </g>
    <g id="line2d_42">
     <path d="M 153 201.312187 
L 173 201.312187 
" style="fill:none;stroke:#bcbd22;stroke-dasharray:5.55,2.4;stroke-dashoffset:0;stroke-width:1.5;"/>
    </g>
    <g id="line2d_43"/>
    <g id="text_27">
     <!-- Molchanov_BN BN -->
     <g transform="translate(181 204.812187)scale(0.1 -0.1)">
      <use xlink:href="#DejaVuSans-77"/>
      <use x="86.279297" xlink:href="#DejaVuSans-111"/>
      <use x="147.460938" xlink:href="#DejaVuSans-108"/>
      <use x="175.244141" xlink:href="#DejaVuSans-99"/>
      <use x="230.224609" xlink:href="#DejaVuSans-104"/>
      <use x="293.603516" xlink:href="#DejaVuSans-97"/>
      <use x="354.882812" xlink:href="#DejaVuSans-110"/>
      <use x="418.261719" xlink:href="#DejaVuSans-111"/>
      <use x="479.443359" xlink:href="#DejaVuSans-118"/>
      <use x="538.623047" xlink:href="#DejaVuSans-95"/>
      <use x="588.623047" xlink:href="#DejaVuSans-66"/>
      <use x="657.226562" xlink:href="#DejaVuSans-78"/>
      <use x="732.03125" xlink:href="#DejaVuSans-32"/>
      <use x="763.818359" xlink:href="#DejaVuSans-66"/>
      <use x="832.421875" xlink:href="#DejaVuSans-78"/>
     </g>
    </g>
   </g>
  </g>
 </g>
 <defs>
  <clipPath id="p3c49599b29">
   <rect height="434.88" width="892.8" x="144" y="69.12"/>
  </clipPath>
 </defs>
</svg>
