<?xml version="1.0" encoding="utf-8" standalone="no"?>
<!DOCTYPE svg PUBLIC "-//W3C//DTD SVG 1.1//EN"
  "http://www.w3.org/Graphics/SVG/1.1/DTD/svg11.dtd">
<!-- Created with matplotlib (https://matplotlib.org/) -->
<svg height="576pt" version="1.1" viewBox="0 0 1152 576" width="1152pt" xmlns="http://www.w3.org/2000/svg" xmlns:xlink="http://www.w3.org/1999/xlink">
 <defs>
  <style type="text/css">
*{stroke-linecap:butt;stroke-linejoin:round;}
  </style>
 </defs>
 <g id="figure_1">
  <g id="patch_1">
   <path d="M 0 576 
L 1152 576 
L 1152 0 
L 0 0 
z
" style="fill:#ffffff;"/>
  </g>
  <g id="axes_1">
   <g id="patch_2">
    <path d="M 144 504 
L 1036.8 504 
L 1036.8 69.12 
L 144 69.12 
z
" style="fill:#ffffff;"/>
   </g>
   <g id="matplotlib.axis_1">
    <g id="xtick_1">
     <g id="line2d_1">
      <defs>
       <path d="M 0 0 
L 0 3.5 
" id="ma87c6e362e" style="stroke:#000000;stroke-width:0.8;"/>
      </defs>
      <g>
       <use style="stroke:#000000;stroke-width:0.8;" x="182.527043" xlink:href="#ma87c6e362e" y="504"/>
      </g>
     </g>
     <g id="text_1">
      <!-- 0 -->
      <defs>
       <path d="M 31.78125 66.40625 
Q 24.171875 66.40625 20.328125 58.90625 
Q 16.5 51.421875 16.5 36.375 
Q 16.5 21.390625 20.328125 13.890625 
Q 24.171875 6.390625 31.78125 6.390625 
Q 39.453125 6.390625 43.28125 13.890625 
Q 47.125 21.390625 47.125 36.375 
Q 47.125 51.421875 43.28125 58.90625 
Q 39.453125 66.40625 31.78125 66.40625 
z
M 31.78125 74.21875 
Q 44.046875 74.21875 50.515625 64.515625 
Q 56.984375 54.828125 56.984375 36.375 
Q 56.984375 17.96875 50.515625 8.265625 
Q 44.046875 -1.421875 31.78125 -1.421875 
Q 19.53125 -1.421875 13.0625 8.265625 
Q 6.59375 17.96875 6.59375 36.375 
Q 6.59375 54.828125 13.0625 64.515625 
Q 19.53125 74.21875 31.78125 74.21875 
z
" id="DejaVuSans-48"/>
      </defs>
      <g transform="translate(179.345793 518.598438)scale(0.1 -0.1)">
       <use xlink:href="#DejaVuSans-48"/>
      </g>
     </g>
    </g>
    <g id="xtick_2">
     <g id="line2d_2">
      <g>
       <use style="stroke:#000000;stroke-width:0.8;" x="285.265823" xlink:href="#ma87c6e362e" y="504"/>
      </g>
     </g>
     <g id="text_2">
      <!-- 50 -->
      <defs>
       <path d="M 10.796875 72.90625 
L 49.515625 72.90625 
L 49.515625 64.59375 
L 19.828125 64.59375 
L 19.828125 46.734375 
Q 21.96875 47.46875 24.109375 47.828125 
Q 26.265625 48.1875 28.421875 48.1875 
Q 40.625 48.1875 47.75 41.5 
Q 54.890625 34.8125 54.890625 23.390625 
Q 54.890625 11.625 47.5625 5.09375 
Q 40.234375 -1.421875 26.90625 -1.421875 
Q 22.3125 -1.421875 17.546875 -0.640625 
Q 12.796875 0.140625 7.71875 1.703125 
L 7.71875 11.625 
Q 12.109375 9.234375 16.796875 8.0625 
Q 21.484375 6.890625 26.703125 6.890625 
Q 35.15625 6.890625 40.078125 11.328125 
Q 45.015625 15.765625 45.015625 23.390625 
Q 45.015625 31 40.078125 35.4375 
Q 35.15625 39.890625 26.703125 39.890625 
Q 22.75 39.890625 18.8125 39.015625 
Q 14.890625 38.140625 10.796875 36.28125 
z
" id="DejaVuSans-53"/>
      </defs>
      <g transform="translate(278.903323 518.598438)scale(0.1 -0.1)">
       <use xlink:href="#DejaVuSans-53"/>
       <use x="63.623047" xlink:href="#DejaVuSans-48"/>
      </g>
     </g>
    </g>
    <g id="xtick_3">
     <g id="line2d_3">
      <g>
       <use style="stroke:#000000;stroke-width:0.8;" x="388.004603" xlink:href="#ma87c6e362e" y="504"/>
      </g>
     </g>
     <g id="text_3">
      <!-- 100 -->
      <defs>
       <path d="M 12.40625 8.296875 
L 28.515625 8.296875 
L 28.515625 63.921875 
L 10.984375 60.40625 
L 10.984375 69.390625 
L 28.421875 72.90625 
L 38.28125 72.90625 
L 38.28125 8.296875 
L 54.390625 8.296875 
L 54.390625 0 
L 12.40625 0 
z
" id="DejaVuSans-49"/>
      </defs>
      <g transform="translate(378.460853 518.598438)scale(0.1 -0.1)">
       <use xlink:href="#DejaVuSans-49"/>
       <use x="63.623047" xlink:href="#DejaVuSans-48"/>
       <use x="127.246094" xlink:href="#DejaVuSans-48"/>
      </g>
     </g>
    </g>
    <g id="xtick_4">
     <g id="line2d_4">
      <g>
       <use style="stroke:#000000;stroke-width:0.8;" x="490.743383" xlink:href="#ma87c6e362e" y="504"/>
      </g>
     </g>
     <g id="text_4">
      <!-- 150 -->
      <g transform="translate(481.199633 518.598438)scale(0.1 -0.1)">
       <use xlink:href="#DejaVuSans-49"/>
       <use x="63.623047" xlink:href="#DejaVuSans-53"/>
       <use x="127.246094" xlink:href="#DejaVuSans-48"/>
      </g>
     </g>
    </g>
    <g id="xtick_5">
     <g id="line2d_5">
      <g>
       <use style="stroke:#000000;stroke-width:0.8;" x="593.482163" xlink:href="#ma87c6e362e" y="504"/>
      </g>
     </g>
     <g id="text_5">
      <!-- 200 -->
      <defs>
       <path d="M 19.1875 8.296875 
L 53.609375 8.296875 
L 53.609375 0 
L 7.328125 0 
L 7.328125 8.296875 
Q 12.9375 14.109375 22.625 23.890625 
Q 32.328125 33.6875 34.8125 36.53125 
Q 39.546875 41.84375 41.421875 45.53125 
Q 43.3125 49.21875 43.3125 52.78125 
Q 43.3125 58.59375 39.234375 62.25 
Q 35.15625 65.921875 28.609375 65.921875 
Q 23.96875 65.921875 18.8125 64.3125 
Q 13.671875 62.703125 7.8125 59.421875 
L 7.8125 69.390625 
Q 13.765625 71.78125 18.9375 73 
Q 24.125 74.21875 28.421875 74.21875 
Q 39.75 74.21875 46.484375 68.546875 
Q 53.21875 62.890625 53.21875 53.421875 
Q 53.21875 48.921875 51.53125 44.890625 
Q 49.859375 40.875 45.40625 35.40625 
Q 44.1875 33.984375 37.640625 27.21875 
Q 31.109375 20.453125 19.1875 8.296875 
z
" id="DejaVuSans-50"/>
      </defs>
      <g transform="translate(583.938413 518.598438)scale(0.1 -0.1)">
       <use xlink:href="#DejaVuSans-50"/>
       <use x="63.623047" xlink:href="#DejaVuSans-48"/>
       <use x="127.246094" xlink:href="#DejaVuSans-48"/>
      </g>
     </g>
    </g>
    <g id="xtick_6">
     <g id="line2d_6">
      <g>
       <use style="stroke:#000000;stroke-width:0.8;" x="696.220944" xlink:href="#ma87c6e362e" y="504"/>
      </g>
     </g>
     <g id="text_6">
      <!-- 250 -->
      <g transform="translate(686.677194 518.598438)scale(0.1 -0.1)">
       <use xlink:href="#DejaVuSans-50"/>
       <use x="63.623047" xlink:href="#DejaVuSans-53"/>
       <use x="127.246094" xlink:href="#DejaVuSans-48"/>
      </g>
     </g>
    </g>
    <g id="xtick_7">
     <g id="line2d_7">
      <g>
       <use style="stroke:#000000;stroke-width:0.8;" x="798.959724" xlink:href="#ma87c6e362e" y="504"/>
      </g>
     </g>
     <g id="text_7">
      <!-- 300 -->
      <defs>
       <path d="M 40.578125 39.3125 
Q 47.65625 37.796875 51.625 33 
Q 55.609375 28.21875 55.609375 21.1875 
Q 55.609375 10.40625 48.1875 4.484375 
Q 40.765625 -1.421875 27.09375 -1.421875 
Q 22.515625 -1.421875 17.65625 -0.515625 
Q 12.796875 0.390625 7.625 2.203125 
L 7.625 11.71875 
Q 11.71875 9.328125 16.59375 8.109375 
Q 21.484375 6.890625 26.8125 6.890625 
Q 36.078125 6.890625 40.9375 10.546875 
Q 45.796875 14.203125 45.796875 21.1875 
Q 45.796875 27.640625 41.28125 31.265625 
Q 36.765625 34.90625 28.71875 34.90625 
L 20.21875 34.90625 
L 20.21875 43.015625 
L 29.109375 43.015625 
Q 36.375 43.015625 40.234375 45.921875 
Q 44.09375 48.828125 44.09375 54.296875 
Q 44.09375 59.90625 40.109375 62.90625 
Q 36.140625 65.921875 28.71875 65.921875 
Q 24.65625 65.921875 20.015625 65.03125 
Q 15.375 64.15625 9.8125 62.3125 
L 9.8125 71.09375 
Q 15.4375 72.65625 20.34375 73.4375 
Q 25.25 74.21875 29.59375 74.21875 
Q 40.828125 74.21875 47.359375 69.109375 
Q 53.90625 64.015625 53.90625 55.328125 
Q 53.90625 49.265625 50.4375 45.09375 
Q 46.96875 40.921875 40.578125 39.3125 
z
" id="DejaVuSans-51"/>
      </defs>
      <g transform="translate(789.415974 518.598438)scale(0.1 -0.1)">
       <use xlink:href="#DejaVuSans-51"/>
       <use x="63.623047" xlink:href="#DejaVuSans-48"/>
       <use x="127.246094" xlink:href="#DejaVuSans-48"/>
      </g>
     </g>
    </g>
    <g id="xtick_8">
     <g id="line2d_8">
      <g>
       <use style="stroke:#000000;stroke-width:0.8;" x="901.698504" xlink:href="#ma87c6e362e" y="504"/>
      </g>
     </g>
     <g id="text_8">
      <!-- 350 -->
      <g transform="translate(892.154754 518.598438)scale(0.1 -0.1)">
       <use xlink:href="#DejaVuSans-51"/>
       <use x="63.623047" xlink:href="#DejaVuSans-53"/>
       <use x="127.246094" xlink:href="#DejaVuSans-48"/>
      </g>
     </g>
    </g>
    <g id="xtick_9">
     <g id="line2d_9">
      <g>
       <use style="stroke:#000000;stroke-width:0.8;" x="1004.437284" xlink:href="#ma87c6e362e" y="504"/>
      </g>
     </g>
     <g id="text_9">
      <!-- 400 -->
      <defs>
       <path d="M 37.796875 64.3125 
L 12.890625 25.390625 
L 37.796875 25.390625 
z
M 35.203125 72.90625 
L 47.609375 72.90625 
L 47.609375 25.390625 
L 58.015625 25.390625 
L 58.015625 17.1875 
L 47.609375 17.1875 
L 47.609375 0 
L 37.796875 0 
L 37.796875 17.1875 
L 4.890625 17.1875 
L 4.890625 26.703125 
z
" id="DejaVuSans-52"/>
      </defs>
      <g transform="translate(994.893534 518.598438)scale(0.1 -0.1)">
       <use xlink:href="#DejaVuSans-52"/>
       <use x="63.623047" xlink:href="#DejaVuSans-48"/>
       <use x="127.246094" xlink:href="#DejaVuSans-48"/>
      </g>
     </g>
    </g>
    <g id="text_10">
     <!-- Number of Neurons pruned -->
     <defs>
      <path d="M 9.8125 72.90625 
L 23.09375 72.90625 
L 55.421875 11.921875 
L 55.421875 72.90625 
L 64.984375 72.90625 
L 64.984375 0 
L 51.703125 0 
L 19.390625 60.984375 
L 19.390625 0 
L 9.8125 0 
z
" id="DejaVuSans-78"/>
      <path d="M 8.5 21.578125 
L 8.5 54.6875 
L 17.484375 54.6875 
L 17.484375 21.921875 
Q 17.484375 14.15625 20.5 10.265625 
Q 23.53125 6.390625 29.59375 6.390625 
Q 36.859375 6.390625 41.078125 11.03125 
Q 45.3125 15.671875 45.3125 23.6875 
L 45.3125 54.6875 
L 54.296875 54.6875 
L 54.296875 0 
L 45.3125 0 
L 45.3125 8.40625 
Q 42.046875 3.421875 37.71875 1 
Q 33.40625 -1.421875 27.6875 -1.421875 
Q 18.265625 -1.421875 13.375 4.4375 
Q 8.5 10.296875 8.5 21.578125 
z
M 31.109375 56 
z
" id="DejaVuSans-117"/>
      <path d="M 52 44.1875 
Q 55.375 50.25 60.0625 53.125 
Q 64.75 56 71.09375 56 
Q 79.640625 56 84.28125 50.015625 
Q 88.921875 44.046875 88.921875 33.015625 
L 88.921875 0 
L 79.890625 0 
L 79.890625 32.71875 
Q 79.890625 40.578125 77.09375 44.375 
Q 74.3125 48.1875 68.609375 48.1875 
Q 61.625 48.1875 57.5625 43.546875 
Q 53.515625 38.921875 53.515625 30.90625 
L 53.515625 0 
L 44.484375 0 
L 44.484375 32.71875 
Q 44.484375 40.625 41.703125 44.40625 
Q 38.921875 48.1875 33.109375 48.1875 
Q 26.21875 48.1875 22.15625 43.53125 
Q 18.109375 38.875 18.109375 30.90625 
L 18.109375 0 
L 9.078125 0 
L 9.078125 54.6875 
L 18.109375 54.6875 
L 18.109375 46.1875 
Q 21.1875 51.21875 25.484375 53.609375 
Q 29.78125 56 35.6875 56 
Q 41.65625 56 45.828125 52.96875 
Q 50 49.953125 52 44.1875 
z
" id="DejaVuSans-109"/>
      <path d="M 48.6875 27.296875 
Q 48.6875 37.203125 44.609375 42.84375 
Q 40.53125 48.484375 33.40625 48.484375 
Q 26.265625 48.484375 22.1875 42.84375 
Q 18.109375 37.203125 18.109375 27.296875 
Q 18.109375 17.390625 22.1875 11.75 
Q 26.265625 6.109375 33.40625 6.109375 
Q 40.53125 6.109375 44.609375 11.75 
Q 48.6875 17.390625 48.6875 27.296875 
z
M 18.109375 46.390625 
Q 20.953125 51.265625 25.265625 53.625 
Q 29.59375 56 35.59375 56 
Q 45.5625 56 51.78125 48.09375 
Q 58.015625 40.1875 58.015625 27.296875 
Q 58.015625 14.40625 51.78125 6.484375 
Q 45.5625 -1.421875 35.59375 -1.421875 
Q 29.59375 -1.421875 25.265625 0.953125 
Q 20.953125 3.328125 18.109375 8.203125 
L 18.109375 0 
L 9.078125 0 
L 9.078125 75.984375 
L 18.109375 75.984375 
z
" id="DejaVuSans-98"/>
      <path d="M 56.203125 29.59375 
L 56.203125 25.203125 
L 14.890625 25.203125 
Q 15.484375 15.921875 20.484375 11.0625 
Q 25.484375 6.203125 34.421875 6.203125 
Q 39.59375 6.203125 44.453125 7.46875 
Q 49.3125 8.734375 54.109375 11.28125 
L 54.109375 2.78125 
Q 49.265625 0.734375 44.1875 -0.34375 
Q 39.109375 -1.421875 33.890625 -1.421875 
Q 20.796875 -1.421875 13.15625 6.1875 
Q 5.515625 13.8125 5.515625 26.8125 
Q 5.515625 40.234375 12.765625 48.109375 
Q 20.015625 56 32.328125 56 
Q 43.359375 56 49.78125 48.890625 
Q 56.203125 41.796875 56.203125 29.59375 
z
M 47.21875 32.234375 
Q 47.125 39.59375 43.09375 43.984375 
Q 39.0625 48.390625 32.421875 48.390625 
Q 24.90625 48.390625 20.390625 44.140625 
Q 15.875 39.890625 15.1875 32.171875 
z
" id="DejaVuSans-101"/>
      <path d="M 41.109375 46.296875 
Q 39.59375 47.171875 37.8125 47.578125 
Q 36.03125 48 33.890625 48 
Q 26.265625 48 22.1875 43.046875 
Q 18.109375 38.09375 18.109375 28.8125 
L 18.109375 0 
L 9.078125 0 
L 9.078125 54.6875 
L 18.109375 54.6875 
L 18.109375 46.1875 
Q 20.953125 51.171875 25.484375 53.578125 
Q 30.03125 56 36.53125 56 
Q 37.453125 56 38.578125 55.875 
Q 39.703125 55.765625 41.0625 55.515625 
z
" id="DejaVuSans-114"/>
      <path id="DejaVuSans-32"/>
      <path d="M 30.609375 48.390625 
Q 23.390625 48.390625 19.1875 42.75 
Q 14.984375 37.109375 14.984375 27.296875 
Q 14.984375 17.484375 19.15625 11.84375 
Q 23.34375 6.203125 30.609375 6.203125 
Q 37.796875 6.203125 41.984375 11.859375 
Q 46.1875 17.53125 46.1875 27.296875 
Q 46.1875 37.015625 41.984375 42.703125 
Q 37.796875 48.390625 30.609375 48.390625 
z
M 30.609375 56 
Q 42.328125 56 49.015625 48.375 
Q 55.71875 40.765625 55.71875 27.296875 
Q 55.71875 13.875 49.015625 6.21875 
Q 42.328125 -1.421875 30.609375 -1.421875 
Q 18.84375 -1.421875 12.171875 6.21875 
Q 5.515625 13.875 5.515625 27.296875 
Q 5.515625 40.765625 12.171875 48.375 
Q 18.84375 56 30.609375 56 
z
" id="DejaVuSans-111"/>
      <path d="M 37.109375 75.984375 
L 37.109375 68.5 
L 28.515625 68.5 
Q 23.6875 68.5 21.796875 66.546875 
Q 19.921875 64.59375 19.921875 59.515625 
L 19.921875 54.6875 
L 34.71875 54.6875 
L 34.71875 47.703125 
L 19.921875 47.703125 
L 19.921875 0 
L 10.890625 0 
L 10.890625 47.703125 
L 2.296875 47.703125 
L 2.296875 54.6875 
L 10.890625 54.6875 
L 10.890625 58.5 
Q 10.890625 67.625 15.140625 71.796875 
Q 19.390625 75.984375 28.609375 75.984375 
z
" id="DejaVuSans-102"/>
      <path d="M 54.890625 33.015625 
L 54.890625 0 
L 45.90625 0 
L 45.90625 32.71875 
Q 45.90625 40.484375 42.875 44.328125 
Q 39.84375 48.1875 33.796875 48.1875 
Q 26.515625 48.1875 22.3125 43.546875 
Q 18.109375 38.921875 18.109375 30.90625 
L 18.109375 0 
L 9.078125 0 
L 9.078125 54.6875 
L 18.109375 54.6875 
L 18.109375 46.1875 
Q 21.34375 51.125 25.703125 53.5625 
Q 30.078125 56 35.796875 56 
Q 45.21875 56 50.046875 50.171875 
Q 54.890625 44.34375 54.890625 33.015625 
z
" id="DejaVuSans-110"/>
      <path d="M 44.28125 53.078125 
L 44.28125 44.578125 
Q 40.484375 46.53125 36.375 47.5 
Q 32.28125 48.484375 27.875 48.484375 
Q 21.1875 48.484375 17.84375 46.4375 
Q 14.5 44.390625 14.5 40.28125 
Q 14.5 37.15625 16.890625 35.375 
Q 19.28125 33.59375 26.515625 31.984375 
L 29.59375 31.296875 
Q 39.15625 29.25 43.1875 25.515625 
Q 47.21875 21.78125 47.21875 15.09375 
Q 47.21875 7.46875 41.1875 3.015625 
Q 35.15625 -1.421875 24.609375 -1.421875 
Q 20.21875 -1.421875 15.453125 -0.5625 
Q 10.6875 0.296875 5.421875 2 
L 5.421875 11.28125 
Q 10.40625 8.6875 15.234375 7.390625 
Q 20.0625 6.109375 24.8125 6.109375 
Q 31.15625 6.109375 34.5625 8.28125 
Q 37.984375 10.453125 37.984375 14.40625 
Q 37.984375 18.0625 35.515625 20.015625 
Q 33.0625 21.96875 24.703125 23.78125 
L 21.578125 24.515625 
Q 13.234375 26.265625 9.515625 29.90625 
Q 5.8125 33.546875 5.8125 39.890625 
Q 5.8125 47.609375 11.28125 51.796875 
Q 16.75 56 26.8125 56 
Q 31.78125 56 36.171875 55.265625 
Q 40.578125 54.546875 44.28125 53.078125 
z
" id="DejaVuSans-115"/>
      <path d="M 18.109375 8.203125 
L 18.109375 -20.796875 
L 9.078125 -20.796875 
L 9.078125 54.6875 
L 18.109375 54.6875 
L 18.109375 46.390625 
Q 20.953125 51.265625 25.265625 53.625 
Q 29.59375 56 35.59375 56 
Q 45.5625 56 51.78125 48.09375 
Q 58.015625 40.1875 58.015625 27.296875 
Q 58.015625 14.40625 51.78125 6.484375 
Q 45.5625 -1.421875 35.59375 -1.421875 
Q 29.59375 -1.421875 25.265625 0.953125 
Q 20.953125 3.328125 18.109375 8.203125 
z
M 48.6875 27.296875 
Q 48.6875 37.203125 44.609375 42.84375 
Q 40.53125 48.484375 33.40625 48.484375 
Q 26.265625 48.484375 22.1875 42.84375 
Q 18.109375 37.203125 18.109375 27.296875 
Q 18.109375 17.390625 22.1875 11.75 
Q 26.265625 6.109375 33.40625 6.109375 
Q 40.53125 6.109375 44.609375 11.75 
Q 48.6875 17.390625 48.6875 27.296875 
z
" id="DejaVuSans-112"/>
      <path d="M 45.40625 46.390625 
L 45.40625 75.984375 
L 54.390625 75.984375 
L 54.390625 0 
L 45.40625 0 
L 45.40625 8.203125 
Q 42.578125 3.328125 38.25 0.953125 
Q 33.9375 -1.421875 27.875 -1.421875 
Q 17.96875 -1.421875 11.734375 6.484375 
Q 5.515625 14.40625 5.515625 27.296875 
Q 5.515625 40.1875 11.734375 48.09375 
Q 17.96875 56 27.875 56 
Q 33.9375 56 38.25 53.625 
Q 42.578125 51.265625 45.40625 46.390625 
z
M 14.796875 27.296875 
Q 14.796875 17.390625 18.875 11.75 
Q 22.953125 6.109375 30.078125 6.109375 
Q 37.203125 6.109375 41.296875 11.75 
Q 45.40625 17.390625 45.40625 27.296875 
Q 45.40625 37.203125 41.296875 42.84375 
Q 37.203125 48.484375 30.078125 48.484375 
Q 22.953125 48.484375 18.875 42.84375 
Q 14.796875 37.203125 14.796875 27.296875 
z
" id="DejaVuSans-100"/>
     </defs>
     <g transform="translate(522.147656 532.276562)scale(0.1 -0.1)">
      <use xlink:href="#DejaVuSans-78"/>
      <use x="74.804688" xlink:href="#DejaVuSans-117"/>
      <use x="138.183594" xlink:href="#DejaVuSans-109"/>
      <use x="235.595703" xlink:href="#DejaVuSans-98"/>
      <use x="299.072266" xlink:href="#DejaVuSans-101"/>
      <use x="360.595703" xlink:href="#DejaVuSans-114"/>
      <use x="401.708984" xlink:href="#DejaVuSans-32"/>
      <use x="433.496094" xlink:href="#DejaVuSans-111"/>
      <use x="494.677734" xlink:href="#DejaVuSans-102"/>
      <use x="529.882812" xlink:href="#DejaVuSans-32"/>
      <use x="561.669922" xlink:href="#DejaVuSans-78"/>
      <use x="636.474609" xlink:href="#DejaVuSans-101"/>
      <use x="697.998047" xlink:href="#DejaVuSans-117"/>
      <use x="761.376953" xlink:href="#DejaVuSans-114"/>
      <use x="800.240234" xlink:href="#DejaVuSans-111"/>
      <use x="861.421875" xlink:href="#DejaVuSans-110"/>
      <use x="924.800781" xlink:href="#DejaVuSans-115"/>
      <use x="976.900391" xlink:href="#DejaVuSans-32"/>
      <use x="1008.6875" xlink:href="#DejaVuSans-112"/>
      <use x="1072.164062" xlink:href="#DejaVuSans-114"/>
      <use x="1113.277344" xlink:href="#DejaVuSans-117"/>
      <use x="1176.65625" xlink:href="#DejaVuSans-110"/>
      <use x="1240.035156" xlink:href="#DejaVuSans-101"/>
      <use x="1301.558594" xlink:href="#DejaVuSans-100"/>
     </g>
    </g>
   </g>
   <g id="matplotlib.axis_2">
    <g id="ytick_1">
     <g id="line2d_10">
      <defs>
       <path d="M 0 0 
L -3.5 0 
" id="m3f3cfe3993" style="stroke:#000000;stroke-width:0.8;"/>
      </defs>
      <g>
       <use style="stroke:#000000;stroke-width:0.8;" x="144" xlink:href="#m3f3cfe3993" y="484.245372"/>
      </g>
     </g>
     <g id="text_11">
      <!-- 0 -->
      <g transform="translate(130.6375 488.044591)scale(0.1 -0.1)">
       <use xlink:href="#DejaVuSans-48"/>
      </g>
     </g>
    </g>
    <g id="ytick_2">
     <g id="line2d_11">
      <g>
       <use style="stroke:#000000;stroke-width:0.8;" x="144" xlink:href="#m3f3cfe3993" y="401.994812"/>
      </g>
     </g>
     <g id="text_12">
      <!-- 1 -->
      <g transform="translate(130.6375 405.794031)scale(0.1 -0.1)">
       <use xlink:href="#DejaVuSans-49"/>
      </g>
     </g>
    </g>
    <g id="ytick_3">
     <g id="line2d_12">
      <g>
       <use style="stroke:#000000;stroke-width:0.8;" x="144" xlink:href="#m3f3cfe3993" y="319.744252"/>
      </g>
     </g>
     <g id="text_13">
      <!-- 2 -->
      <g transform="translate(130.6375 323.543471)scale(0.1 -0.1)">
       <use xlink:href="#DejaVuSans-50"/>
      </g>
     </g>
    </g>
    <g id="ytick_4">
     <g id="line2d_13">
      <g>
       <use style="stroke:#000000;stroke-width:0.8;" x="144" xlink:href="#m3f3cfe3993" y="237.493693"/>
      </g>
     </g>
     <g id="text_14">
      <!-- 3 -->
      <g transform="translate(130.6375 241.292911)scale(0.1 -0.1)">
       <use xlink:href="#DejaVuSans-51"/>
      </g>
     </g>
    </g>
    <g id="ytick_5">
     <g id="line2d_14">
      <g>
       <use style="stroke:#000000;stroke-width:0.8;" x="144" xlink:href="#m3f3cfe3993" y="155.243133"/>
      </g>
     </g>
     <g id="text_15">
      <!-- 4 -->
      <g transform="translate(130.6375 159.042351)scale(0.1 -0.1)">
       <use xlink:href="#DejaVuSans-52"/>
      </g>
     </g>
    </g>
    <g id="ytick_6">
     <g id="line2d_15">
      <g>
       <use style="stroke:#000000;stroke-width:0.8;" x="144" xlink:href="#m3f3cfe3993" y="72.992573"/>
      </g>
     </g>
     <g id="text_16">
      <!-- 5 -->
      <g transform="translate(130.6375 76.791791)scale(0.1 -0.1)">
       <use xlink:href="#DejaVuSans-53"/>
      </g>
     </g>
    </g>
    <g id="text_17">
     <!-- Squared Deviation -->
     <defs>
      <path d="M 53.515625 70.515625 
L 53.515625 60.890625 
Q 47.90625 63.578125 42.921875 64.890625 
Q 37.9375 66.21875 33.296875 66.21875 
Q 25.25 66.21875 20.875 63.09375 
Q 16.5 59.96875 16.5 54.203125 
Q 16.5 49.359375 19.40625 46.890625 
Q 22.3125 44.4375 30.421875 42.921875 
L 36.375 41.703125 
Q 47.40625 39.59375 52.65625 34.296875 
Q 57.90625 29 57.90625 20.125 
Q 57.90625 9.515625 50.796875 4.046875 
Q 43.703125 -1.421875 29.984375 -1.421875 
Q 24.8125 -1.421875 18.96875 -0.25 
Q 13.140625 0.921875 6.890625 3.21875 
L 6.890625 13.375 
Q 12.890625 10.015625 18.65625 8.296875 
Q 24.421875 6.59375 29.984375 6.59375 
Q 38.421875 6.59375 43.015625 9.90625 
Q 47.609375 13.234375 47.609375 19.390625 
Q 47.609375 24.75 44.3125 27.78125 
Q 41.015625 30.8125 33.5 32.328125 
L 27.484375 33.5 
Q 16.453125 35.6875 11.515625 40.375 
Q 6.59375 45.0625 6.59375 53.421875 
Q 6.59375 63.09375 13.40625 68.65625 
Q 20.21875 74.21875 32.171875 74.21875 
Q 37.3125 74.21875 42.625 73.28125 
Q 47.953125 72.359375 53.515625 70.515625 
z
" id="DejaVuSans-83"/>
      <path d="M 14.796875 27.296875 
Q 14.796875 17.390625 18.875 11.75 
Q 22.953125 6.109375 30.078125 6.109375 
Q 37.203125 6.109375 41.296875 11.75 
Q 45.40625 17.390625 45.40625 27.296875 
Q 45.40625 37.203125 41.296875 42.84375 
Q 37.203125 48.484375 30.078125 48.484375 
Q 22.953125 48.484375 18.875 42.84375 
Q 14.796875 37.203125 14.796875 27.296875 
z
M 45.40625 8.203125 
Q 42.578125 3.328125 38.25 0.953125 
Q 33.9375 -1.421875 27.875 -1.421875 
Q 17.96875 -1.421875 11.734375 6.484375 
Q 5.515625 14.40625 5.515625 27.296875 
Q 5.515625 40.1875 11.734375 48.09375 
Q 17.96875 56 27.875 56 
Q 33.9375 56 38.25 53.625 
Q 42.578125 51.265625 45.40625 46.390625 
L 45.40625 54.6875 
L 54.390625 54.6875 
L 54.390625 -20.796875 
L 45.40625 -20.796875 
z
" id="DejaVuSans-113"/>
      <path d="M 34.28125 27.484375 
Q 23.390625 27.484375 19.1875 25 
Q 14.984375 22.515625 14.984375 16.5 
Q 14.984375 11.71875 18.140625 8.90625 
Q 21.296875 6.109375 26.703125 6.109375 
Q 34.1875 6.109375 38.703125 11.40625 
Q 43.21875 16.703125 43.21875 25.484375 
L 43.21875 27.484375 
z
M 52.203125 31.203125 
L 52.203125 0 
L 43.21875 0 
L 43.21875 8.296875 
Q 40.140625 3.328125 35.546875 0.953125 
Q 30.953125 -1.421875 24.3125 -1.421875 
Q 15.921875 -1.421875 10.953125 3.296875 
Q 6 8.015625 6 15.921875 
Q 6 25.140625 12.171875 29.828125 
Q 18.359375 34.515625 30.609375 34.515625 
L 43.21875 34.515625 
L 43.21875 35.40625 
Q 43.21875 41.609375 39.140625 45 
Q 35.0625 48.390625 27.6875 48.390625 
Q 23 48.390625 18.546875 47.265625 
Q 14.109375 46.140625 10.015625 43.890625 
L 10.015625 52.203125 
Q 14.9375 54.109375 19.578125 55.046875 
Q 24.21875 56 28.609375 56 
Q 40.484375 56 46.34375 49.84375 
Q 52.203125 43.703125 52.203125 31.203125 
z
" id="DejaVuSans-97"/>
      <path d="M 19.671875 64.796875 
L 19.671875 8.109375 
L 31.59375 8.109375 
Q 46.6875 8.109375 53.6875 14.9375 
Q 60.6875 21.78125 60.6875 36.53125 
Q 60.6875 51.171875 53.6875 57.984375 
Q 46.6875 64.796875 31.59375 64.796875 
z
M 9.8125 72.90625 
L 30.078125 72.90625 
Q 51.265625 72.90625 61.171875 64.09375 
Q 71.09375 55.28125 71.09375 36.53125 
Q 71.09375 17.671875 61.125 8.828125 
Q 51.171875 0 30.078125 0 
L 9.8125 0 
z
" id="DejaVuSans-68"/>
      <path d="M 2.984375 54.6875 
L 12.5 54.6875 
L 29.59375 8.796875 
L 46.6875 54.6875 
L 56.203125 54.6875 
L 35.6875 0 
L 23.484375 0 
z
" id="DejaVuSans-118"/>
      <path d="M 9.421875 54.6875 
L 18.40625 54.6875 
L 18.40625 0 
L 9.421875 0 
z
M 9.421875 75.984375 
L 18.40625 75.984375 
L 18.40625 64.59375 
L 9.421875 64.59375 
z
" id="DejaVuSans-105"/>
      <path d="M 18.3125 70.21875 
L 18.3125 54.6875 
L 36.8125 54.6875 
L 36.8125 47.703125 
L 18.3125 47.703125 
L 18.3125 18.015625 
Q 18.3125 11.328125 20.140625 9.421875 
Q 21.96875 7.515625 27.59375 7.515625 
L 36.8125 7.515625 
L 36.8125 0 
L 27.59375 0 
Q 17.1875 0 13.234375 3.875 
Q 9.28125 7.765625 9.28125 18.015625 
L 9.28125 47.703125 
L 2.6875 47.703125 
L 2.6875 54.6875 
L 9.28125 54.6875 
L 9.28125 70.21875 
z
" id="DejaVuSans-116"/>
     </defs>
     <g transform="translate(124.557812 332.840469)rotate(-90)scale(0.1 -0.1)">
      <use xlink:href="#DejaVuSans-83"/>
      <use x="63.476562" xlink:href="#DejaVuSans-113"/>
      <use x="126.953125" xlink:href="#DejaVuSans-117"/>
      <use x="190.332031" xlink:href="#DejaVuSans-97"/>
      <use x="251.611328" xlink:href="#DejaVuSans-114"/>
      <use x="290.474609" xlink:href="#DejaVuSans-101"/>
      <use x="351.998047" xlink:href="#DejaVuSans-100"/>
      <use x="415.474609" xlink:href="#DejaVuSans-32"/>
      <use x="447.261719" xlink:href="#DejaVuSans-68"/>
      <use x="524.263672" xlink:href="#DejaVuSans-101"/>
      <use x="585.787109" xlink:href="#DejaVuSans-118"/>
      <use x="644.966797" xlink:href="#DejaVuSans-105"/>
      <use x="672.75" xlink:href="#DejaVuSans-97"/>
      <use x="734.029297" xlink:href="#DejaVuSans-116"/>
      <use x="773.238281" xlink:href="#DejaVuSans-105"/>
      <use x="801.021484" xlink:href="#DejaVuSans-111"/>
      <use x="862.203125" xlink:href="#DejaVuSans-110"/>
     </g>
    </g>
   </g>
   <g id="line2d_16">
    <path clip-path="url(#p0d38201979)" d="M 184.581818 484.13262 
L 194.855696 483.905205 
L 205.129574 483.473646 
L 215.403452 483.098484 
L 225.67733 482.128815 
L 235.951208 481.170159 
L 246.225086 480.028009 
L 256.498964 478.108893 
L 266.772842 476.574555 
L 277.04672 475.136943 
L 287.320598 472.916403 
L 297.594476 471.270244 
L 307.868354 469.33238 
L 318.142232 467.30948 
L 328.41611 464.624493 
L 338.689988 462.124424 
L 348.963867 459.137525 
L 359.237745 457.176607 
L 369.511623 454.118413 
L 379.785501 451.818949 
L 390.059379 449.807366 
L 400.333257 446.889352 
L 410.607135 442.117092 
L 420.881013 439.585874 
L 431.154891 435.706876 
L 441.428769 431.820633 
L 451.702647 429.075484 
L 461.976525 425.289497 
L 472.250403 422.543412 
L 482.524281 419.159705 
L 492.798159 416.538791 
L 503.072037 410.301022 
L 513.345915 404.86576 
L 523.619793 399.615681 
L 533.893671 394.54245 
L 544.167549 390.354486 
L 554.441427 385.852369 
L 564.715305 378.310133 
L 574.989183 372.250389 
L 585.263061 369.246647 
L 595.536939 365.340626 
L 605.810817 361.65669 
L 616.084695 357.31917 
L 626.358573 352.390407 
L 636.632451 350.076204 
L 646.906329 345.618827 
L 657.180207 337.502869 
L 667.454085 327.73298 
L 677.727963 321.616719 
L 688.001841 316.715675 
L 698.275719 311.184735 
L 708.549597 306.656752 
L 718.823475 298.684752 
L 729.097353 290.304608 
L 739.371231 284.527072 
L 749.645109 277.905205 
L 759.918987 272.426017 
L 770.192865 264.472588 
L 780.466743 260.232539 
L 790.740621 253.489581 
L 801.014499 244.582318 
L 811.288377 237.612039 
L 821.562255 228.211623 
L 831.836133 223.480244 
L 842.110012 210.96224 
L 852.38389 201.616418 
L 862.657768 197.670638 
L 872.931646 190.291254 
L 883.205524 181.741562 
L 893.479402 175.709742 
L 903.75328 164.949348 
L 914.027158 155.881538 
L 924.301036 150.707639 
L 934.574914 141.125026 
L 944.848792 136.132578 
L 955.12267 133.30869 
L 965.396548 119.822616 
L 975.670426 105.299796 
L 985.944304 97.597748 
L 996.218182 88.887273 
" style="fill:none;stroke:#1f77b4;stroke-linecap:square;stroke-width:1.5;"/>
   </g>
   <g id="line2d_17">
    <path clip-path="url(#p0d38201979)" d="M 184.581818 484.217794 
L 194.855696 484.06222 
L 205.129574 483.862765 
L 215.403452 483.670765 
L 225.67733 483.214428 
L 235.951208 483.016747 
L 246.225086 482.335135 
L 256.498964 481.858127 
L 266.772842 481.030961 
L 277.04672 480.478584 
L 287.320598 479.715935 
L 297.594476 479.115821 
L 307.868354 478.404031 
L 318.142232 476.386583 
L 328.41611 475.341616 
L 338.689988 473.979511 
L 348.963867 472.880723 
L 359.237745 471.72079 
L 369.511623 470.056711 
L 379.785501 468.957372 
L 390.059379 467.501761 
L 400.333257 465.517751 
L 410.607135 463.362637 
L 420.881013 461.541162 
L 431.154891 457.47845 
L 441.428769 455.396854 
L 451.702647 454.29042 
L 461.976525 451.860978 
L 472.250403 450.229875 
L 482.524281 447.57693 
L 492.798159 444.177607 
L 503.072037 442.356124 
L 513.345915 438.148108 
L 523.619793 436.208458 
L 533.893671 433.65081 
L 544.167549 428.891056 
L 554.441427 426.279942 
L 564.715305 423.095087 
L 574.989183 419.037995 
L 585.263061 416.283336 
L 595.536939 410.014053 
L 605.810817 409.068941 
L 616.084695 405.07519 
L 626.358573 399.248159 
L 636.632451 394.087084 
L 646.906329 388.02132 
L 657.180207 382.656595 
L 667.454085 378.07897 
L 677.727963 373.144127 
L 688.001841 369.383702 
L 698.275719 364.288076 
L 708.549597 359.282049 
L 718.823475 353.217422 
L 729.097353 347.482616 
L 739.371231 340.806596 
L 749.645109 337.269529 
L 759.918987 332.340099 
L 770.192865 323.790602 
L 780.466743 314.655108 
L 790.740621 308.748361 
L 801.014499 302.908014 
L 811.288377 298.077546 
L 821.562255 289.326478 
L 831.836133 282.099503 
L 842.110012 278.108032 
L 852.38389 271.329658 
L 862.657768 263.45057 
L 872.931646 259.757231 
L 883.205524 252.715611 
L 893.479402 241.672126 
L 903.75328 231.583494 
L 914.027158 227.66462 
L 924.301036 223.009073 
L 934.574914 212.034165 
L 944.848792 204.793621 
L 955.12267 197.716624 
L 965.396548 188.100007 
L 975.670426 175.660776 
L 985.944304 165.756538 
L 996.218182 163.075509 
" style="fill:none;stroke:#ff7f0e;stroke-linecap:square;stroke-width:1.5;"/>
   </g>
   <g id="line2d_18">
    <path clip-path="url(#p0d38201979)" d="M 184.581818 484.231861 
L 194.855696 484.132683 
L 205.129574 483.921166 
L 215.403452 483.629593 
L 225.67733 483.20809 
L 235.951208 483.01922 
L 246.225086 482.481581 
L 256.498964 481.641 
L 266.772842 480.666983 
L 277.04672 479.84936 
L 287.320598 478.585957 
L 297.594476 478.141713 
L 307.868354 477.830242 
L 318.142232 476.922184 
L 328.41611 474.991612 
L 338.689988 473.799932 
L 348.963867 471.880697 
L 359.237745 469.176241 
L 369.511623 467.799084 
L 379.785501 465.986221 
L 390.059379 463.785849 
L 400.333257 462.095045 
L 410.607135 460.760593 
L 420.881013 458.021337 
L 431.154891 455.642239 
L 441.428769 453.615954 
L 451.702647 450.958987 
L 461.976525 448.762314 
L 472.250403 444.371656 
L 482.524281 441.446575 
L 492.798159 438.791902 
L 503.072037 436.809565 
L 513.345915 433.243446 
L 523.619793 430.892743 
L 533.893671 427.996215 
L 544.167549 422.602384 
L 554.441427 417.69051 
L 564.715305 413.335625 
L 574.989183 410.80301 
L 585.263061 407.54671 
L 595.536939 404.322257 
L 605.810817 401.305548 
L 616.084695 395.243 
L 626.358573 388.22398 
L 636.632451 384.412039 
L 646.906329 381.015655 
L 657.180207 377.262161 
L 667.454085 374.860351 
L 677.727963 369.816221 
L 688.001841 367.223663 
L 698.275719 363.287012 
L 708.549597 355.634489 
L 718.823475 353.203047 
L 729.097353 344.378235 
L 739.371231 342.944818 
L 749.645109 339.177627 
L 759.918987 333.631059 
L 770.192865 329.549685 
L 780.466743 319.939324 
L 790.740621 316.181693 
L 801.014499 310.367721 
L 811.288377 301.318482 
L 821.562255 291.60805 
L 831.836133 285.761722 
L 842.110012 274.109992 
L 852.38389 268.146788 
L 862.657768 263.474377 
L 872.931646 257.169291 
L 883.205524 248.406613 
L 893.479402 247.314706 
L 903.75328 244.968832 
L 914.027158 239.247695 
L 924.301036 230.212457 
L 934.574914 221.23701 
L 944.848792 215.912173 
L 955.12267 210.707368 
L 965.396548 205.021254 
L 975.670426 199.589522 
L 985.944304 193.275553 
L 996.218182 187.697216 
" style="fill:none;stroke:#2ca02c;stroke-linecap:square;stroke-width:1.5;"/>
   </g>
   <g id="line2d_19">
    <path clip-path="url(#p0d38201979)" d="M 184.581818 484.231861 
L 194.855696 484.079342 
L 205.129574 483.845285 
L 215.403452 483.146714 
L 225.67733 482.664826 
L 235.951208 482.233247 
L 246.225086 481.774419 
L 256.498964 481.170705 
L 266.772842 480.465979 
L 277.04672 479.550774 
L 287.320598 478.579003 
L 297.594476 477.13268 
L 307.868354 475.741074 
L 318.142232 474.522864 
L 328.41611 473.296898 
L 338.689988 471.382042 
L 348.963867 470.134642 
L 359.237745 468.454509 
L 369.511623 465.961836 
L 379.785501 463.16324 
L 390.059379 459.799832 
L 400.333257 457.719207 
L 410.607135 455.342907 
L 420.881013 453.013645 
L 431.154891 451.047372 
L 441.428769 447.600991 
L 451.702647 443.993564 
L 461.976525 440.178206 
L 472.250403 437.4895 
L 482.524281 434.906889 
L 492.798159 431.718621 
L 503.072037 429.826353 
L 513.345915 425.822979 
L 523.619793 420.218747 
L 533.893671 416.335621 
L 544.167549 412.695317 
L 554.441427 411.510002 
L 564.715305 405.931777 
L 574.989183 402.008701 
L 585.263061 396.041757 
L 595.536939 391.391358 
L 605.810817 387.941762 
L 616.084695 383.948614 
L 626.358573 381.936435 
L 636.632451 377.039479 
L 646.906329 372.384992 
L 657.180207 368.355124 
L 667.454085 362.630781 
L 677.727963 359.921621 
L 688.001841 353.641754 
L 698.275719 347.623838 
L 708.549597 341.773568 
L 718.823475 335.362059 
L 729.097353 326.171244 
L 739.371231 320.558874 
L 749.645109 309.663759 
L 759.918987 306.746959 
L 770.192865 301.748824 
L 780.466743 294.61641 
L 790.740621 288.200547 
L 801.014499 282.917518 
L 811.288377 275.901645 
L 821.562255 273.3472 
L 831.836133 269.677059 
L 842.110012 263.742623 
L 852.38389 259.55911 
L 862.657768 252.250087 
L 872.931646 243.587774 
L 883.205524 239.287856 
L 893.479402 231.443773 
L 903.75328 223.890918 
L 914.027158 213.028474 
L 924.301036 204.927361 
L 934.574914 198.743544 
L 944.848792 189.565741 
L 955.12267 182.31745 
L 965.396548 175.853896 
L 975.670426 167.727937 
L 985.944304 160.129156 
L 996.218182 153.443478 
" style="fill:none;stroke:#d62728;stroke-dasharray:5.55,2.4;stroke-dashoffset:0;stroke-width:1.5;"/>
   </g>
   <g id="line2d_20">
    <path clip-path="url(#p0d38201979)" d="M 184.581818 484.223612 
L 194.855696 483.890317 
L 205.129574 483.663733 
L 215.403452 483.274953 
L 225.67733 482.812192 
L 235.951208 482.240351 
L 246.225086 481.513541 
L 256.498964 480.906148 
L 266.772842 480.190152 
L 277.04672 479.477075 
L 287.320598 478.657094 
L 297.594476 477.728584 
L 307.868354 476.467852 
L 318.142232 475.742497 
L 328.41611 474.548941 
L 338.689988 473.416695 
L 348.963867 471.768869 
L 359.237745 470.279681 
L 369.511623 467.882116 
L 379.785501 466.348541 
L 390.059379 463.871699 
L 400.333257 460.897802 
L 410.607135 459.879785 
L 420.881013 457.481494 
L 431.154891 455.383249 
L 441.428769 452.894436 
L 451.702647 450.616011 
L 461.976525 448.219409 
L 472.250403 446.38759 
L 482.524281 444.639595 
L 492.798159 441.54712 
L 503.072037 437.940781 
L 513.345915 434.436291 
L 523.619793 431.056968 
L 533.893671 427.474533 
L 544.167549 424.308386 
L 554.441427 420.264644 
L 564.715305 416.44659 
L 574.989183 414.413011 
L 585.263061 410.499417 
L 595.536939 406.994123 
L 605.810817 403.544096 
L 616.084695 401.052069 
L 626.358573 394.176506 
L 636.632451 390.554087 
L 646.906329 387.404574 
L 657.180207 381.557275 
L 667.454085 376.605038 
L 677.727963 372.375942 
L 688.001841 366.246621 
L 698.275719 361.840466 
L 708.549597 358.308341 
L 718.823475 355.937553 
L 729.097353 352.081646 
L 739.371231 348.01952 
L 749.645109 340.51268 
L 759.918987 335.93682 
L 770.192865 329.155651 
L 780.466743 324.624108 
L 790.740621 319.819869 
L 801.014499 313.528412 
L 811.288377 307.302551 
L 821.562255 299.875593 
L 831.836133 293.912271 
L 842.110012 287.119464 
L 852.38389 281.261585 
L 862.657768 272.534461 
L 872.931646 264.394697 
L 883.205524 256.919537 
L 893.479402 250.061408 
L 903.75328 244.401396 
L 914.027158 238.825176 
L 924.301036 231.962106 
L 934.574914 222.931692 
L 944.848792 213.494625 
L 955.12267 206.027368 
L 965.396548 195.418835 
L 975.670426 190.931484 
L 985.944304 184.876544 
L 996.218182 178.67749 
" style="fill:none;stroke:#9467bd;stroke-linecap:square;stroke-width:1.5;"/>
   </g>
   <g id="line2d_21">
    <path clip-path="url(#p0d38201979)" d="M 184.581818 484.218163 
L 194.855696 484.061862 
L 205.129574 483.888108 
L 215.403452 483.55896 
L 225.67733 483.475491 
L 235.951208 482.855571 
L 246.225086 482.358407 
L 256.498964 481.951733 
L 266.772842 481.082563 
L 277.04672 480.488244 
L 287.320598 479.836551 
L 297.594476 479.131864 
L 307.868354 478.05602 
L 318.142232 477.403442 
L 328.41611 476.440291 
L 338.689988 475.515976 
L 348.963867 474.587849 
L 359.237745 472.968228 
L 369.511623 471.29615 
L 379.785501 469.262133 
L 390.059379 467.816008 
L 400.333257 465.517906 
L 410.607135 462.71891 
L 420.881013 460.695333 
L 431.154891 459.332868 
L 441.428769 457.331759 
L 451.702647 455.726641 
L 461.976525 452.892181 
L 472.250403 451.067952 
L 482.524281 448.941898 
L 492.798159 445.898868 
L 503.072037 443.301216 
L 513.345915 441.094197 
L 523.619793 436.680045 
L 533.893671 434.276312 
L 544.167549 431.324086 
L 554.441427 426.886398 
L 564.715305 424.511767 
L 574.989183 418.664032 
L 585.263061 414.8936 
L 595.536939 409.691492 
L 605.810817 405.430074 
L 616.084695 401.411423 
L 626.358573 397.40999 
L 636.632451 393.922674 
L 646.906329 390.141226 
L 657.180207 384.201545 
L 667.454085 379.356644 
L 677.727963 376.51491 
L 688.001841 370.301031 
L 698.275719 366.460302 
L 708.549597 362.829411 
L 718.823475 355.903265 
L 729.097353 350.469032 
L 739.371231 340.765582 
L 749.645109 336.043704 
L 759.918987 332.043918 
L 770.192865 328.078921 
L 780.466743 324.937418 
L 790.740621 320.876753 
L 801.014499 313.707962 
L 811.288377 307.697968 
L 821.562255 301.463008 
L 831.836133 296.654366 
L 842.110012 291.01061 
L 852.38389 282.586421 
L 862.657768 275.150149 
L 872.931646 265.947951 
L 883.205524 257.849309 
L 893.479402 249.457183 
L 903.75328 246.958704 
L 914.027158 239.287876 
L 924.301036 229.875242 
L 934.574914 223.981615 
L 944.848792 212.103859 
L 955.12267 198.778352 
L 965.396548 189.612354 
L 975.670426 184.007465 
L 985.944304 181.039267 
L 996.218182 178.34306 
" style="fill:none;stroke:#8c564b;stroke-linecap:square;stroke-width:1.5;"/>
   </g>
   <g id="line2d_22">
    <path clip-path="url(#p0d38201979)" d="M 184.581818 484.232727 
L 194.855696 484.096192 
L 205.129574 483.924637 
L 215.403452 483.558214 
L 225.67733 483.203239 
L 235.951208 483.034733 
L 246.225086 482.523898 
L 256.498964 481.750361 
L 266.772842 480.665206 
L 277.04672 479.619491 
L 287.320598 478.72565 
L 297.594476 478.297796 
L 307.868354 478.173756 
L 318.142232 477.279717 
L 328.41611 475.749664 
L 338.689988 474.105119 
L 348.963867 472.445222 
L 359.237745 469.794035 
L 369.511623 468.301011 
L 379.785501 466.83506 
L 390.059379 463.989283 
L 400.333257 463.145098 
L 410.607135 461.309028 
L 420.881013 458.176953 
L 431.154891 456.024194 
L 441.428769 453.412708 
L 451.702647 451.073485 
L 461.976525 449.3714 
L 472.250403 446.189521 
L 482.524281 443.415989 
L 492.798159 441.189536 
L 503.072037 438.848246 
L 513.345915 436.44746 
L 523.619793 435.155633 
L 533.893671 429.779083 
L 544.167549 424.687973 
L 554.441427 421.049939 
L 564.715305 417.838188 
L 574.989183 413.280143 
L 585.263061 410.74617 
L 595.536939 407.201343 
L 605.810817 404.460292 
L 616.084695 398.891736 
L 626.358573 397.1555 
L 636.632451 395.2123 
L 646.906329 387.205904 
L 657.180207 382.289838 
L 667.454085 379.481981 
L 677.727963 375.234589 
L 688.001841 368.73405 
L 698.275719 364.17323 
L 708.549597 360.477302 
L 718.823475 354.41946 
L 729.097353 348.85131 
L 739.371231 342.390079 
L 749.645109 338.107497 
L 759.918987 334.887613 
L 770.192865 331.444017 
L 780.466743 325.550919 
L 790.740621 323.637614 
L 801.014499 316.817863 
L 811.288377 310.802868 
L 821.562255 299.603994 
L 831.836133 290.681729 
L 842.110012 283.814227 
L 852.38389 277.684769 
L 862.657768 270.884823 
L 872.931646 268.845788 
L 883.205524 264.438329 
L 893.479402 256.912772 
L 903.75328 250.867813 
L 914.027158 249.744706 
L 924.301036 241.456631 
L 934.574914 231.117893 
L 944.848792 226.904651 
L 955.12267 218.128031 
L 965.396548 213.312545 
L 975.670426 207.321887 
L 985.944304 199.497669 
L 996.218182 190.189125 
" style="fill:none;stroke:#e377c2;stroke-linecap:square;stroke-width:1.5;"/>
   </g>
   <g id="line2d_23">
    <path clip-path="url(#p0d38201979)" d="M 184.581818 484.22833 
L 194.855696 484.110576 
L 205.129574 483.890826 
L 215.403452 483.653831 
L 225.67733 483.549003 
L 235.951208 483.225187 
L 246.225086 482.77938 
L 256.498964 482.028809 
L 266.772842 481.503288 
L 277.04672 480.906675 
L 287.320598 480.467769 
L 297.594476 479.162335 
L 307.868354 478.31735 
L 318.142232 477.425776 
L 328.41611 476.202382 
L 338.689988 475.104424 
L 348.963867 474.253523 
L 359.237745 472.841282 
L 369.511623 471.376576 
L 379.785501 469.317273 
L 390.059379 468.404188 
L 400.333257 466.625138 
L 410.607135 464.940609 
L 420.881013 463.683769 
L 431.154891 461.909735 
L 441.428769 460.008907 
L 451.702647 458.013589 
L 461.976525 455.999018 
L 472.250403 453.462007 
L 482.524281 451.213883 
L 492.798159 449.52644 
L 503.072037 446.989219 
L 513.345915 444.554657 
L 523.619793 442.835178 
L 533.893671 440.110703 
L 544.167549 437.658867 
L 554.441427 435.705979 
L 564.715305 432.822923 
L 574.989183 428.916579 
L 585.263061 426.143446 
L 595.536939 423.745396 
L 605.810817 419.502195 
L 616.084695 415.731827 
L 626.358573 411.807991 
L 636.632451 405.929459 
L 646.906329 402.946778 
L 657.180207 399.526906 
L 667.454085 394.457852 
L 677.727963 388.925589 
L 688.001841 384.294437 
L 698.275719 381.129854 
L 708.549597 377.025517 
L 718.823475 372.742895 
L 729.097353 368.715597 
L 739.371231 363.173823 
L 749.645109 357.866889 
L 759.918987 353.878389 
L 770.192865 349.290585 
L 780.466743 342.946299 
L 790.740621 338.831696 
L 801.014499 334.189985 
L 811.288377 326.957588 
L 821.562255 323.990468 
L 831.836133 315.969629 
L 842.110012 310.811654 
L 852.38389 306.376956 
L 862.657768 301.692916 
L 872.931646 298.056819 
L 883.205524 291.808014 
L 893.479402 286.918029 
L 903.75328 283.484111 
L 914.027158 276.756879 
L 924.301036 271.869542 
L 934.574914 268.10845 
L 944.848792 260.690415 
L 955.12267 253.674739 
L 965.396548 246.659259 
L 975.670426 240.800459 
L 985.944304 232.476811 
L 996.218182 226.607971 
" style="fill:none;stroke:#7f7f7f;stroke-dasharray:5.55,2.4;stroke-dashoffset:0;stroke-width:1.5;"/>
   </g>
   <g id="line2d_24">
    <path clip-path="url(#p0d38201979)" d="M 184.581818 484.232727 
L 194.855696 484.078217 
L 205.129574 483.861695 
L 215.403452 483.538325 
L 225.67733 483.313056 
L 235.951208 482.971246 
L 246.225086 482.556807 
L 256.498964 481.975903 
L 266.772842 481.079484 
L 277.04672 480.531914 
L 287.320598 480.124515 
L 297.594476 479.074696 
L 307.868354 478.115909 
L 318.142232 477.628668 
L 328.41611 476.330818 
L 338.689988 474.790284 
L 348.963867 473.602534 
L 359.237745 472.013599 
L 369.511623 470.72908 
L 379.785501 469.322537 
L 390.059379 467.760539 
L 400.333257 466.058201 
L 410.607135 464.806117 
L 420.881013 463.568281 
L 431.154891 461.741 
L 441.428769 459.531702 
L 451.702647 455.911895 
L 461.976525 452.919483 
L 472.250403 450.396352 
L 482.524281 447.278916 
L 492.798159 445.614897 
L 503.072037 443.220797 
L 513.345915 439.228544 
L 523.619793 435.381795 
L 533.893671 430.04174 
L 544.167549 427.255744 
L 554.441427 425.386787 
L 564.715305 423.277882 
L 574.989183 421.04005 
L 585.263061 418.028558 
L 595.536939 414.971526 
L 605.810817 412.68161 
L 616.084695 409.883994 
L 626.358573 405.900421 
L 636.632451 401.054137 
L 646.906329 397.172032 
L 657.180207 393.579527 
L 667.454085 389.27 
L 677.727963 382.823153 
L 688.001841 380.844831 
L 698.275719 378.052104 
L 708.549597 373.102446 
L 718.823475 365.248861 
L 729.097353 359.35992 
L 739.371231 355.062091 
L 749.645109 348.432596 
L 759.918987 341.174569 
L 770.192865 336.766796 
L 780.466743 330.716307 
L 790.740621 324.246232 
L 801.014499 319.75793 
L 811.288377 315.855832 
L 821.562255 314.909607 
L 831.836133 306.315243 
L 842.110012 299.26017 
L 852.38389 291.331822 
L 862.657768 288.565313 
L 872.931646 284.511168 
L 883.205524 280.078549 
L 893.479402 270.86435 
L 903.75328 264.078739 
L 914.027158 257.284422 
L 924.301036 253.705193 
L 934.574914 248.566808 
L 944.848792 241.902387 
L 955.12267 232.683893 
L 965.396548 229.269056 
L 975.670426 222.816581 
L 985.944304 212.99749 
L 996.218182 207.223876 
" style="fill:none;stroke:#bcbd22;stroke-dasharray:5.55,2.4;stroke-dashoffset:0;stroke-width:1.5;"/>
   </g>
   <g id="patch_3">
    <path d="M 144 504 
L 144 69.12 
" style="fill:none;stroke:#000000;stroke-linecap:square;stroke-linejoin:miter;stroke-width:0.8;"/>
   </g>
   <g id="patch_4">
    <path d="M 1036.8 504 
L 1036.8 69.12 
" style="fill:none;stroke:#000000;stroke-linecap:square;stroke-linejoin:miter;stroke-width:0.8;"/>
   </g>
   <g id="patch_5">
    <path d="M 144 504 
L 1036.8 504 
" style="fill:none;stroke:#000000;stroke-linecap:square;stroke-linejoin:miter;stroke-width:0.8;"/>
   </g>
   <g id="patch_6">
    <path d="M 144 69.12 
L 1036.8 69.12 
" style="fill:none;stroke:#000000;stroke-linecap:square;stroke-linejoin:miter;stroke-width:0.8;"/>
   </g>
   <g id="legend_1">
    <g id="patch_7">
     <path d="M 151 211.17 
L 300.879687 211.17 
Q 302.879687 211.17 302.879687 209.17 
L 302.879687 76.12 
Q 302.879687 74.12 300.879687 74.12 
L 151 74.12 
Q 149 74.12 149 76.12 
L 149 209.17 
Q 149 211.17 151 211.17 
z
" style="fill:#ffffff;opacity:0.8;stroke:#cccccc;stroke-linejoin:miter;"/>
    </g>
    <g id="line2d_25">
     <path d="M 153 82.218437 
L 173 82.218437 
" style="fill:none;stroke:#1f77b4;stroke-linecap:square;stroke-width:1.5;"/>
    </g>
    <g id="line2d_26"/>
    <g id="text_18">
     <!-- taylorfo noBN -->
     <defs>
      <path d="M 32.171875 -5.078125 
Q 28.375 -14.84375 24.75 -17.8125 
Q 21.140625 -20.796875 15.09375 -20.796875 
L 7.90625 -20.796875 
L 7.90625 -13.28125 
L 13.1875 -13.28125 
Q 16.890625 -13.28125 18.9375 -11.515625 
Q 21 -9.765625 23.484375 -3.21875 
L 25.09375 0.875 
L 2.984375 54.6875 
L 12.5 54.6875 
L 29.59375 11.921875 
L 46.6875 54.6875 
L 56.203125 54.6875 
z
" id="DejaVuSans-121"/>
      <path d="M 9.421875 75.984375 
L 18.40625 75.984375 
L 18.40625 0 
L 9.421875 0 
z
" id="DejaVuSans-108"/>
      <path d="M 19.671875 34.8125 
L 19.671875 8.109375 
L 35.5 8.109375 
Q 43.453125 8.109375 47.28125 11.40625 
Q 51.125 14.703125 51.125 21.484375 
Q 51.125 28.328125 47.28125 31.5625 
Q 43.453125 34.8125 35.5 34.8125 
z
M 19.671875 64.796875 
L 19.671875 42.828125 
L 34.28125 42.828125 
Q 41.5 42.828125 45.03125 45.53125 
Q 48.578125 48.25 48.578125 53.8125 
Q 48.578125 59.328125 45.03125 62.0625 
Q 41.5 64.796875 34.28125 64.796875 
z
M 9.8125 72.90625 
L 35.015625 72.90625 
Q 46.296875 72.90625 52.390625 68.21875 
Q 58.5 63.53125 58.5 54.890625 
Q 58.5 48.1875 55.375 44.234375 
Q 52.25 40.28125 46.1875 39.3125 
Q 53.46875 37.75 57.5 32.78125 
Q 61.53125 27.828125 61.53125 20.40625 
Q 61.53125 10.640625 54.890625 5.3125 
Q 48.25 0 35.984375 0 
L 9.8125 0 
z
" id="DejaVuSans-66"/>
     </defs>
     <g transform="translate(181 85.718437)scale(0.1 -0.1)">
      <use xlink:href="#DejaVuSans-116"/>
      <use x="39.208984" xlink:href="#DejaVuSans-97"/>
      <use x="100.488281" xlink:href="#DejaVuSans-121"/>
      <use x="159.667969" xlink:href="#DejaVuSans-108"/>
      <use x="187.451172" xlink:href="#DejaVuSans-111"/>
      <use x="248.632812" xlink:href="#DejaVuSans-114"/>
      <use x="289.746094" xlink:href="#DejaVuSans-102"/>
      <use x="324.951172" xlink:href="#DejaVuSans-111"/>
      <use x="386.132812" xlink:href="#DejaVuSans-32"/>
      <use x="417.919922" xlink:href="#DejaVuSans-110"/>
      <use x="481.298828" xlink:href="#DejaVuSans-111"/>
      <use x="542.480469" xlink:href="#DejaVuSans-66"/>
      <use x="611.083984" xlink:href="#DejaVuSans-78"/>
     </g>
    </g>
    <g id="line2d_27">
     <path d="M 153 96.896563 
L 173 96.896563 
" style="fill:none;stroke:#ff7f0e;stroke-linecap:square;stroke-width:1.5;"/>
    </g>
    <g id="line2d_28"/>
    <g id="text_19">
     <!-- taylorfo_abs noBN -->
     <defs>
      <path d="M 50.984375 -16.609375 
L 50.984375 -23.578125 
L -0.984375 -23.578125 
L -0.984375 -16.609375 
z
" id="DejaVuSans-95"/>
     </defs>
     <g transform="translate(181 100.396563)scale(0.1 -0.1)">
      <use xlink:href="#DejaVuSans-116"/>
      <use x="39.208984" xlink:href="#DejaVuSans-97"/>
      <use x="100.488281" xlink:href="#DejaVuSans-121"/>
      <use x="159.667969" xlink:href="#DejaVuSans-108"/>
      <use x="187.451172" xlink:href="#DejaVuSans-111"/>
      <use x="248.632812" xlink:href="#DejaVuSans-114"/>
      <use x="289.746094" xlink:href="#DejaVuSans-102"/>
      <use x="324.951172" xlink:href="#DejaVuSans-111"/>
      <use x="386.132812" xlink:href="#DejaVuSans-95"/>
      <use x="436.132812" xlink:href="#DejaVuSans-97"/>
      <use x="497.412109" xlink:href="#DejaVuSans-98"/>
      <use x="560.888672" xlink:href="#DejaVuSans-115"/>
      <use x="612.988281" xlink:href="#DejaVuSans-32"/>
      <use x="644.775391" xlink:href="#DejaVuSans-110"/>
      <use x="708.154297" xlink:href="#DejaVuSans-111"/>
      <use x="769.335938" xlink:href="#DejaVuSans-66"/>
      <use x="837.939453" xlink:href="#DejaVuSans-78"/>
     </g>
    </g>
    <g id="line2d_29">
     <path d="M 153 111.852812 
L 173 111.852812 
" style="fill:none;stroke:#2ca02c;stroke-linecap:square;stroke-width:1.5;"/>
    </g>
    <g id="line2d_30"/>
    <g id="text_20">
     <!-- taylorfo_sq noBN -->
     <g transform="translate(181 115.352812)scale(0.1 -0.1)">
      <use xlink:href="#DejaVuSans-116"/>
      <use x="39.208984" xlink:href="#DejaVuSans-97"/>
      <use x="100.488281" xlink:href="#DejaVuSans-121"/>
      <use x="159.667969" xlink:href="#DejaVuSans-108"/>
      <use x="187.451172" xlink:href="#DejaVuSans-111"/>
      <use x="248.632812" xlink:href="#DejaVuSans-114"/>
      <use x="289.746094" xlink:href="#DejaVuSans-102"/>
      <use x="324.951172" xlink:href="#DejaVuSans-111"/>
      <use x="386.132812" xlink:href="#DejaVuSans-95"/>
      <use x="436.132812" xlink:href="#DejaVuSans-115"/>
      <use x="488.232422" xlink:href="#DejaVuSans-113"/>
      <use x="551.708984" xlink:href="#DejaVuSans-32"/>
      <use x="583.496094" xlink:href="#DejaVuSans-110"/>
      <use x="646.875" xlink:href="#DejaVuSans-111"/>
      <use x="708.056641" xlink:href="#DejaVuSans-66"/>
      <use x="776.660156" xlink:href="#DejaVuSans-78"/>
     </g>
    </g>
    <g id="line2d_31">
     <path d="M 153 126.809062 
L 173 126.809062 
" style="fill:none;stroke:#d62728;stroke-dasharray:5.55,2.4;stroke-dashoffset:0;stroke-width:1.5;"/>
    </g>
    <g id="line2d_32"/>
    <g id="text_21">
     <!-- Molchanov_group noBN -->
     <defs>
      <path d="M 9.8125 72.90625 
L 24.515625 72.90625 
L 43.109375 23.296875 
L 61.8125 72.90625 
L 76.515625 72.90625 
L 76.515625 0 
L 66.890625 0 
L 66.890625 64.015625 
L 48.09375 14.015625 
L 38.1875 14.015625 
L 19.390625 64.015625 
L 19.390625 0 
L 9.8125 0 
z
" id="DejaVuSans-77"/>
      <path d="M 48.78125 52.59375 
L 48.78125 44.1875 
Q 44.96875 46.296875 41.140625 47.34375 
Q 37.3125 48.390625 33.40625 48.390625 
Q 24.65625 48.390625 19.8125 42.84375 
Q 14.984375 37.3125 14.984375 27.296875 
Q 14.984375 17.28125 19.8125 11.734375 
Q 24.65625 6.203125 33.40625 6.203125 
Q 37.3125 6.203125 41.140625 7.25 
Q 44.96875 8.296875 48.78125 10.40625 
L 48.78125 2.09375 
Q 45.015625 0.34375 40.984375 -0.53125 
Q 36.96875 -1.421875 32.421875 -1.421875 
Q 20.0625 -1.421875 12.78125 6.34375 
Q 5.515625 14.109375 5.515625 27.296875 
Q 5.515625 40.671875 12.859375 48.328125 
Q 20.21875 56 33.015625 56 
Q 37.15625 56 41.109375 55.140625 
Q 45.0625 54.296875 48.78125 52.59375 
z
" id="DejaVuSans-99"/>
      <path d="M 54.890625 33.015625 
L 54.890625 0 
L 45.90625 0 
L 45.90625 32.71875 
Q 45.90625 40.484375 42.875 44.328125 
Q 39.84375 48.1875 33.796875 48.1875 
Q 26.515625 48.1875 22.3125 43.546875 
Q 18.109375 38.921875 18.109375 30.90625 
L 18.109375 0 
L 9.078125 0 
L 9.078125 75.984375 
L 18.109375 75.984375 
L 18.109375 46.1875 
Q 21.34375 51.125 25.703125 53.5625 
Q 30.078125 56 35.796875 56 
Q 45.21875 56 50.046875 50.171875 
Q 54.890625 44.34375 54.890625 33.015625 
z
" id="DejaVuSans-104"/>
      <path d="M 45.40625 27.984375 
Q 45.40625 37.75 41.375 43.109375 
Q 37.359375 48.484375 30.078125 48.484375 
Q 22.859375 48.484375 18.828125 43.109375 
Q 14.796875 37.75 14.796875 27.984375 
Q 14.796875 18.265625 18.828125 12.890625 
Q 22.859375 7.515625 30.078125 7.515625 
Q 37.359375 7.515625 41.375 12.890625 
Q 45.40625 18.265625 45.40625 27.984375 
z
M 54.390625 6.78125 
Q 54.390625 -7.171875 48.1875 -13.984375 
Q 42 -20.796875 29.203125 -20.796875 
Q 24.46875 -20.796875 20.265625 -20.09375 
Q 16.0625 -19.390625 12.109375 -17.921875 
L 12.109375 -9.1875 
Q 16.0625 -11.328125 19.921875 -12.34375 
Q 23.78125 -13.375 27.78125 -13.375 
Q 36.625 -13.375 41.015625 -8.765625 
Q 45.40625 -4.15625 45.40625 5.171875 
L 45.40625 9.625 
Q 42.625 4.78125 38.28125 2.390625 
Q 33.9375 0 27.875 0 
Q 17.828125 0 11.671875 7.65625 
Q 5.515625 15.328125 5.515625 27.984375 
Q 5.515625 40.671875 11.671875 48.328125 
Q 17.828125 56 27.875 56 
Q 33.9375 56 38.28125 53.609375 
Q 42.625 51.21875 45.40625 46.390625 
L 45.40625 54.6875 
L 54.390625 54.6875 
z
" id="DejaVuSans-103"/>
     </defs>
     <g transform="translate(181 130.309062)scale(0.1 -0.1)">
      <use xlink:href="#DejaVuSans-77"/>
      <use x="86.279297" xlink:href="#DejaVuSans-111"/>
      <use x="147.460938" xlink:href="#DejaVuSans-108"/>
      <use x="175.244141" xlink:href="#DejaVuSans-99"/>
      <use x="230.224609" xlink:href="#DejaVuSans-104"/>
      <use x="293.603516" xlink:href="#DejaVuSans-97"/>
      <use x="354.882812" xlink:href="#DejaVuSans-110"/>
      <use x="418.261719" xlink:href="#DejaVuSans-111"/>
      <use x="479.443359" xlink:href="#DejaVuSans-118"/>
      <use x="538.623047" xlink:href="#DejaVuSans-95"/>
      <use x="588.623047" xlink:href="#DejaVuSans-103"/>
      <use x="652.099609" xlink:href="#DejaVuSans-114"/>
      <use x="690.962891" xlink:href="#DejaVuSans-111"/>
      <use x="752.144531" xlink:href="#DejaVuSans-117"/>
      <use x="815.523438" xlink:href="#DejaVuSans-112"/>
      <use x="879" xlink:href="#DejaVuSans-32"/>
      <use x="910.787109" xlink:href="#DejaVuSans-110"/>
      <use x="974.166016" xlink:href="#DejaVuSans-111"/>
      <use x="1035.347656" xlink:href="#DejaVuSans-66"/>
      <use x="1103.951172" xlink:href="#DejaVuSans-78"/>
     </g>
    </g>
    <g id="line2d_33">
     <path d="M 153 141.765312 
L 173 141.765312 
" style="fill:none;stroke:#9467bd;stroke-linecap:square;stroke-width:1.5;"/>
    </g>
    <g id="line2d_34"/>
    <g id="text_22">
     <!-- taylorfo BN -->
     <g transform="translate(181 145.265312)scale(0.1 -0.1)">
      <use xlink:href="#DejaVuSans-116"/>
      <use x="39.208984" xlink:href="#DejaVuSans-97"/>
      <use x="100.488281" xlink:href="#DejaVuSans-121"/>
      <use x="159.667969" xlink:href="#DejaVuSans-108"/>
      <use x="187.451172" xlink:href="#DejaVuSans-111"/>
      <use x="248.632812" xlink:href="#DejaVuSans-114"/>
      <use x="289.746094" xlink:href="#DejaVuSans-102"/>
      <use x="324.951172" xlink:href="#DejaVuSans-111"/>
      <use x="386.132812" xlink:href="#DejaVuSans-32"/>
      <use x="417.919922" xlink:href="#DejaVuSans-66"/>
      <use x="486.523438" xlink:href="#DejaVuSans-78"/>
     </g>
    </g>
    <g id="line2d_35">
     <path d="M 153 156.443437 
L 173 156.443437 
" style="fill:none;stroke:#8c564b;stroke-linecap:square;stroke-width:1.5;"/>
    </g>
    <g id="line2d_36"/>
    <g id="text_23">
     <!-- taylorfo_abs BN -->
     <g transform="translate(181 159.943437)scale(0.1 -0.1)">
      <use xlink:href="#DejaVuSans-116"/>
      <use x="39.208984" xlink:href="#DejaVuSans-97"/>
      <use x="100.488281" xlink:href="#DejaVuSans-121"/>
      <use x="159.667969" xlink:href="#DejaVuSans-108"/>
      <use x="187.451172" xlink:href="#DejaVuSans-111"/>
      <use x="248.632812" xlink:href="#DejaVuSans-114"/>
      <use x="289.746094" xlink:href="#DejaVuSans-102"/>
      <use x="324.951172" xlink:href="#DejaVuSans-111"/>
      <use x="386.132812" xlink:href="#DejaVuSans-95"/>
      <use x="436.132812" xlink:href="#DejaVuSans-97"/>
      <use x="497.412109" xlink:href="#DejaVuSans-98"/>
      <use x="560.888672" xlink:href="#DejaVuSans-115"/>
      <use x="612.988281" xlink:href="#DejaVuSans-32"/>
      <use x="644.775391" xlink:href="#DejaVuSans-66"/>
      <use x="713.378906" xlink:href="#DejaVuSans-78"/>
     </g>
    </g>
    <g id="line2d_37">
     <path d="M 153 171.399687 
L 173 171.399687 
" style="fill:none;stroke:#e377c2;stroke-linecap:square;stroke-width:1.5;"/>
    </g>
    <g id="line2d_38"/>
    <g id="text_24">
     <!-- taylorfo_sq BN -->
     <g transform="translate(181 174.899687)scale(0.1 -0.1)">
      <use xlink:href="#DejaVuSans-116"/>
      <use x="39.208984" xlink:href="#DejaVuSans-97"/>
      <use x="100.488281" xlink:href="#DejaVuSans-121"/>
      <use x="159.667969" xlink:href="#DejaVuSans-108"/>
      <use x="187.451172" xlink:href="#DejaVuSans-111"/>
      <use x="248.632812" xlink:href="#DejaVuSans-114"/>
      <use x="289.746094" xlink:href="#DejaVuSans-102"/>
      <use x="324.951172" xlink:href="#DejaVuSans-111"/>
      <use x="386.132812" xlink:href="#DejaVuSans-95"/>
      <use x="436.132812" xlink:href="#DejaVuSans-115"/>
      <use x="488.232422" xlink:href="#DejaVuSans-113"/>
      <use x="551.708984" xlink:href="#DejaVuSans-32"/>
      <use x="583.496094" xlink:href="#DejaVuSans-66"/>
      <use x="652.099609" xlink:href="#DejaVuSans-78"/>
     </g>
    </g>
    <g id="line2d_39">
     <path d="M 153 186.355937 
L 173 186.355937 
" style="fill:none;stroke:#7f7f7f;stroke-dasharray:5.55,2.4;stroke-dashoffset:0;stroke-width:1.5;"/>
    </g>
    <g id="line2d_40"/>
    <g id="text_25">
     <!-- Molchanov_group BN -->
     <g transform="translate(181 189.855937)scale(0.1 -0.1)">
      <use xlink:href="#DejaVuSans-77"/>
      <use x="86.279297" xlink:href="#DejaVuSans-111"/>
      <use x="147.460938" xlink:href="#DejaVuSans-108"/>
      <use x="175.244141" xlink:href="#DejaVuSans-99"/>
      <use x="230.224609" xlink:href="#DejaVuSans-104"/>
      <use x="293.603516" xlink:href="#DejaVuSans-97"/>
      <use x="354.882812" xlink:href="#DejaVuSans-110"/>
      <use x="418.261719" xlink:href="#DejaVuSans-111"/>
      <use x="479.443359" xlink:href="#DejaVuSans-118"/>
      <use x="538.623047" xlink:href="#DejaVuSans-95"/>
      <use x="588.623047" xlink:href="#DejaVuSans-103"/>
      <use x="652.099609" xlink:href="#DejaVuSans-114"/>
      <use x="690.962891" xlink:href="#DejaVuSans-111"/>
      <use x="752.144531" xlink:href="#DejaVuSans-117"/>
      <use x="815.523438" xlink:href="#DejaVuSans-112"/>
      <use x="879" xlink:href="#DejaVuSans-32"/>
      <use x="910.787109" xlink:href="#DejaVuSans-66"/>
      <use x="979.390625" xlink:href="#DejaVuSans-78"/>
     </g>
    </g>
    <g id="line2d_41">
     <path d="M 153 201.312187 
L 173 201.312187 
" style="fill:none;stroke:#bcbd22;stroke-dasharray:5.55,2.4;stroke-dashoffset:0;stroke-width:1.5;"/>
    </g>
    <g id="line2d_42"/>
    <g id="text_26">
     <!-- Molchanov_BN BN -->
     <g transform="translate(181 204.812187)scale(0.1 -0.1)">
      <use xlink:href="#DejaVuSans-77"/>
      <use x="86.279297" xlink:href="#DejaVuSans-111"/>
      <use x="147.460938" xlink:href="#DejaVuSans-108"/>
      <use x="175.244141" xlink:href="#DejaVuSans-99"/>
      <use x="230.224609" xlink:href="#DejaVuSans-104"/>
      <use x="293.603516" xlink:href="#DejaVuSans-97"/>
      <use x="354.882812" xlink:href="#DejaVuSans-110"/>
      <use x="418.261719" xlink:href="#DejaVuSans-111"/>
      <use x="479.443359" xlink:href="#DejaVuSans-118"/>
      <use x="538.623047" xlink:href="#DejaVuSans-95"/>
      <use x="588.623047" xlink:href="#DejaVuSans-66"/>
      <use x="657.226562" xlink:href="#DejaVuSans-78"/>
      <use x="732.03125" xlink:href="#DejaVuSans-32"/>
      <use x="763.818359" xlink:href="#DejaVuSans-66"/>
      <use x="832.421875" xlink:href="#DejaVuSans-78"/>
     </g>
    </g>
   </g>
  </g>
 </g>
 <defs>
  <clipPath id="p0d38201979">
   <rect height="434.88" width="892.8" x="144" y="69.12"/>
  </clipPath>
 </defs>
</svg>
