<?xml version="1.0" encoding="utf-8" standalone="no"?>
<!DOCTYPE svg PUBLIC "-//W3C//DTD SVG 1.1//EN"
  "http://www.w3.org/Graphics/SVG/1.1/DTD/svg11.dtd">
<!-- Created with matplotlib (https://matplotlib.org/) -->
<svg height="576pt" version="1.1" viewBox="0 0 1152 576" width="1152pt" xmlns="http://www.w3.org/2000/svg" xmlns:xlink="http://www.w3.org/1999/xlink">
 <defs>
  <style type="text/css">
*{stroke-linecap:butt;stroke-linejoin:round;}
  </style>
 </defs>
 <g id="figure_1">
  <g id="patch_1">
   <path d="M 0 576 
L 1152 576 
L 1152 0 
L 0 0 
z
" style="fill:#ffffff;"/>
  </g>
  <g id="axes_1">
   <g id="patch_2">
    <path d="M 144 504 
L 1036.8 504 
L 1036.8 69.12 
L 144 69.12 
z
" style="fill:#ffffff;"/>
   </g>
   <g id="matplotlib.axis_1">
    <g id="xtick_1">
     <g id="line2d_1">
      <defs>
       <path d="M 0 0 
L 0 3.5 
" id="md96bc90ee7" style="stroke:#000000;stroke-width:0.8;"/>
      </defs>
      <g>
       <use style="stroke:#000000;stroke-width:0.8;" x="182.527043" xlink:href="#md96bc90ee7" y="504"/>
      </g>
     </g>
     <g id="text_1">
      <!-- 0 -->
      <defs>
       <path d="M 31.78125 66.40625 
Q 24.171875 66.40625 20.328125 58.90625 
Q 16.5 51.421875 16.5 36.375 
Q 16.5 21.390625 20.328125 13.890625 
Q 24.171875 6.390625 31.78125 6.390625 
Q 39.453125 6.390625 43.28125 13.890625 
Q 47.125 21.390625 47.125 36.375 
Q 47.125 51.421875 43.28125 58.90625 
Q 39.453125 66.40625 31.78125 66.40625 
z
M 31.78125 74.21875 
Q 44.046875 74.21875 50.515625 64.515625 
Q 56.984375 54.828125 56.984375 36.375 
Q 56.984375 17.96875 50.515625 8.265625 
Q 44.046875 -1.421875 31.78125 -1.421875 
Q 19.53125 -1.421875 13.0625 8.265625 
Q 6.59375 17.96875 6.59375 36.375 
Q 6.59375 54.828125 13.0625 64.515625 
Q 19.53125 74.21875 31.78125 74.21875 
z
" id="DejaVuSans-48"/>
      </defs>
      <g transform="translate(179.345793 518.598438)scale(0.1 -0.1)">
       <use xlink:href="#DejaVuSans-48"/>
      </g>
     </g>
    </g>
    <g id="xtick_2">
     <g id="line2d_2">
      <g>
       <use style="stroke:#000000;stroke-width:0.8;" x="285.265823" xlink:href="#md96bc90ee7" y="504"/>
      </g>
     </g>
     <g id="text_2">
      <!-- 50 -->
      <defs>
       <path d="M 10.796875 72.90625 
L 49.515625 72.90625 
L 49.515625 64.59375 
L 19.828125 64.59375 
L 19.828125 46.734375 
Q 21.96875 47.46875 24.109375 47.828125 
Q 26.265625 48.1875 28.421875 48.1875 
Q 40.625 48.1875 47.75 41.5 
Q 54.890625 34.8125 54.890625 23.390625 
Q 54.890625 11.625 47.5625 5.09375 
Q 40.234375 -1.421875 26.90625 -1.421875 
Q 22.3125 -1.421875 17.546875 -0.640625 
Q 12.796875 0.140625 7.71875 1.703125 
L 7.71875 11.625 
Q 12.109375 9.234375 16.796875 8.0625 
Q 21.484375 6.890625 26.703125 6.890625 
Q 35.15625 6.890625 40.078125 11.328125 
Q 45.015625 15.765625 45.015625 23.390625 
Q 45.015625 31 40.078125 35.4375 
Q 35.15625 39.890625 26.703125 39.890625 
Q 22.75 39.890625 18.8125 39.015625 
Q 14.890625 38.140625 10.796875 36.28125 
z
" id="DejaVuSans-53"/>
      </defs>
      <g transform="translate(278.903323 518.598438)scale(0.1 -0.1)">
       <use xlink:href="#DejaVuSans-53"/>
       <use x="63.623047" xlink:href="#DejaVuSans-48"/>
      </g>
     </g>
    </g>
    <g id="xtick_3">
     <g id="line2d_3">
      <g>
       <use style="stroke:#000000;stroke-width:0.8;" x="388.004603" xlink:href="#md96bc90ee7" y="504"/>
      </g>
     </g>
     <g id="text_3">
      <!-- 100 -->
      <defs>
       <path d="M 12.40625 8.296875 
L 28.515625 8.296875 
L 28.515625 63.921875 
L 10.984375 60.40625 
L 10.984375 69.390625 
L 28.421875 72.90625 
L 38.28125 72.90625 
L 38.28125 8.296875 
L 54.390625 8.296875 
L 54.390625 0 
L 12.40625 0 
z
" id="DejaVuSans-49"/>
      </defs>
      <g transform="translate(378.460853 518.598438)scale(0.1 -0.1)">
       <use xlink:href="#DejaVuSans-49"/>
       <use x="63.623047" xlink:href="#DejaVuSans-48"/>
       <use x="127.246094" xlink:href="#DejaVuSans-48"/>
      </g>
     </g>
    </g>
    <g id="xtick_4">
     <g id="line2d_4">
      <g>
       <use style="stroke:#000000;stroke-width:0.8;" x="490.743383" xlink:href="#md96bc90ee7" y="504"/>
      </g>
     </g>
     <g id="text_4">
      <!-- 150 -->
      <g transform="translate(481.199633 518.598438)scale(0.1 -0.1)">
       <use xlink:href="#DejaVuSans-49"/>
       <use x="63.623047" xlink:href="#DejaVuSans-53"/>
       <use x="127.246094" xlink:href="#DejaVuSans-48"/>
      </g>
     </g>
    </g>
    <g id="xtick_5">
     <g id="line2d_5">
      <g>
       <use style="stroke:#000000;stroke-width:0.8;" x="593.482163" xlink:href="#md96bc90ee7" y="504"/>
      </g>
     </g>
     <g id="text_5">
      <!-- 200 -->
      <defs>
       <path d="M 19.1875 8.296875 
L 53.609375 8.296875 
L 53.609375 0 
L 7.328125 0 
L 7.328125 8.296875 
Q 12.9375 14.109375 22.625 23.890625 
Q 32.328125 33.6875 34.8125 36.53125 
Q 39.546875 41.84375 41.421875 45.53125 
Q 43.3125 49.21875 43.3125 52.78125 
Q 43.3125 58.59375 39.234375 62.25 
Q 35.15625 65.921875 28.609375 65.921875 
Q 23.96875 65.921875 18.8125 64.3125 
Q 13.671875 62.703125 7.8125 59.421875 
L 7.8125 69.390625 
Q 13.765625 71.78125 18.9375 73 
Q 24.125 74.21875 28.421875 74.21875 
Q 39.75 74.21875 46.484375 68.546875 
Q 53.21875 62.890625 53.21875 53.421875 
Q 53.21875 48.921875 51.53125 44.890625 
Q 49.859375 40.875 45.40625 35.40625 
Q 44.1875 33.984375 37.640625 27.21875 
Q 31.109375 20.453125 19.1875 8.296875 
z
" id="DejaVuSans-50"/>
      </defs>
      <g transform="translate(583.938413 518.598438)scale(0.1 -0.1)">
       <use xlink:href="#DejaVuSans-50"/>
       <use x="63.623047" xlink:href="#DejaVuSans-48"/>
       <use x="127.246094" xlink:href="#DejaVuSans-48"/>
      </g>
     </g>
    </g>
    <g id="xtick_6">
     <g id="line2d_6">
      <g>
       <use style="stroke:#000000;stroke-width:0.8;" x="696.220944" xlink:href="#md96bc90ee7" y="504"/>
      </g>
     </g>
     <g id="text_6">
      <!-- 250 -->
      <g transform="translate(686.677194 518.598438)scale(0.1 -0.1)">
       <use xlink:href="#DejaVuSans-50"/>
       <use x="63.623047" xlink:href="#DejaVuSans-53"/>
       <use x="127.246094" xlink:href="#DejaVuSans-48"/>
      </g>
     </g>
    </g>
    <g id="xtick_7">
     <g id="line2d_7">
      <g>
       <use style="stroke:#000000;stroke-width:0.8;" x="798.959724" xlink:href="#md96bc90ee7" y="504"/>
      </g>
     </g>
     <g id="text_7">
      <!-- 300 -->
      <defs>
       <path d="M 40.578125 39.3125 
Q 47.65625 37.796875 51.625 33 
Q 55.609375 28.21875 55.609375 21.1875 
Q 55.609375 10.40625 48.1875 4.484375 
Q 40.765625 -1.421875 27.09375 -1.421875 
Q 22.515625 -1.421875 17.65625 -0.515625 
Q 12.796875 0.390625 7.625 2.203125 
L 7.625 11.71875 
Q 11.71875 9.328125 16.59375 8.109375 
Q 21.484375 6.890625 26.8125 6.890625 
Q 36.078125 6.890625 40.9375 10.546875 
Q 45.796875 14.203125 45.796875 21.1875 
Q 45.796875 27.640625 41.28125 31.265625 
Q 36.765625 34.90625 28.71875 34.90625 
L 20.21875 34.90625 
L 20.21875 43.015625 
L 29.109375 43.015625 
Q 36.375 43.015625 40.234375 45.921875 
Q 44.09375 48.828125 44.09375 54.296875 
Q 44.09375 59.90625 40.109375 62.90625 
Q 36.140625 65.921875 28.71875 65.921875 
Q 24.65625 65.921875 20.015625 65.03125 
Q 15.375 64.15625 9.8125 62.3125 
L 9.8125 71.09375 
Q 15.4375 72.65625 20.34375 73.4375 
Q 25.25 74.21875 29.59375 74.21875 
Q 40.828125 74.21875 47.359375 69.109375 
Q 53.90625 64.015625 53.90625 55.328125 
Q 53.90625 49.265625 50.4375 45.09375 
Q 46.96875 40.921875 40.578125 39.3125 
z
" id="DejaVuSans-51"/>
      </defs>
      <g transform="translate(789.415974 518.598438)scale(0.1 -0.1)">
       <use xlink:href="#DejaVuSans-51"/>
       <use x="63.623047" xlink:href="#DejaVuSans-48"/>
       <use x="127.246094" xlink:href="#DejaVuSans-48"/>
      </g>
     </g>
    </g>
    <g id="xtick_8">
     <g id="line2d_8">
      <g>
       <use style="stroke:#000000;stroke-width:0.8;" x="901.698504" xlink:href="#md96bc90ee7" y="504"/>
      </g>
     </g>
     <g id="text_8">
      <!-- 350 -->
      <g transform="translate(892.154754 518.598438)scale(0.1 -0.1)">
       <use xlink:href="#DejaVuSans-51"/>
       <use x="63.623047" xlink:href="#DejaVuSans-53"/>
       <use x="127.246094" xlink:href="#DejaVuSans-48"/>
      </g>
     </g>
    </g>
    <g id="xtick_9">
     <g id="line2d_9">
      <g>
       <use style="stroke:#000000;stroke-width:0.8;" x="1004.437284" xlink:href="#md96bc90ee7" y="504"/>
      </g>
     </g>
     <g id="text_9">
      <!-- 400 -->
      <defs>
       <path d="M 37.796875 64.3125 
L 12.890625 25.390625 
L 37.796875 25.390625 
z
M 35.203125 72.90625 
L 47.609375 72.90625 
L 47.609375 25.390625 
L 58.015625 25.390625 
L 58.015625 17.1875 
L 47.609375 17.1875 
L 47.609375 0 
L 37.796875 0 
L 37.796875 17.1875 
L 4.890625 17.1875 
L 4.890625 26.703125 
z
" id="DejaVuSans-52"/>
      </defs>
      <g transform="translate(994.893534 518.598438)scale(0.1 -0.1)">
       <use xlink:href="#DejaVuSans-52"/>
       <use x="63.623047" xlink:href="#DejaVuSans-48"/>
       <use x="127.246094" xlink:href="#DejaVuSans-48"/>
      </g>
     </g>
    </g>
    <g id="text_10">
     <!-- Number of Neurons pruned -->
     <defs>
      <path d="M 9.8125 72.90625 
L 23.09375 72.90625 
L 55.421875 11.921875 
L 55.421875 72.90625 
L 64.984375 72.90625 
L 64.984375 0 
L 51.703125 0 
L 19.390625 60.984375 
L 19.390625 0 
L 9.8125 0 
z
" id="DejaVuSans-78"/>
      <path d="M 8.5 21.578125 
L 8.5 54.6875 
L 17.484375 54.6875 
L 17.484375 21.921875 
Q 17.484375 14.15625 20.5 10.265625 
Q 23.53125 6.390625 29.59375 6.390625 
Q 36.859375 6.390625 41.078125 11.03125 
Q 45.3125 15.671875 45.3125 23.6875 
L 45.3125 54.6875 
L 54.296875 54.6875 
L 54.296875 0 
L 45.3125 0 
L 45.3125 8.40625 
Q 42.046875 3.421875 37.71875 1 
Q 33.40625 -1.421875 27.6875 -1.421875 
Q 18.265625 -1.421875 13.375 4.4375 
Q 8.5 10.296875 8.5 21.578125 
z
M 31.109375 56 
z
" id="DejaVuSans-117"/>
      <path d="M 52 44.1875 
Q 55.375 50.25 60.0625 53.125 
Q 64.75 56 71.09375 56 
Q 79.640625 56 84.28125 50.015625 
Q 88.921875 44.046875 88.921875 33.015625 
L 88.921875 0 
L 79.890625 0 
L 79.890625 32.71875 
Q 79.890625 40.578125 77.09375 44.375 
Q 74.3125 48.1875 68.609375 48.1875 
Q 61.625 48.1875 57.5625 43.546875 
Q 53.515625 38.921875 53.515625 30.90625 
L 53.515625 0 
L 44.484375 0 
L 44.484375 32.71875 
Q 44.484375 40.625 41.703125 44.40625 
Q 38.921875 48.1875 33.109375 48.1875 
Q 26.21875 48.1875 22.15625 43.53125 
Q 18.109375 38.875 18.109375 30.90625 
L 18.109375 0 
L 9.078125 0 
L 9.078125 54.6875 
L 18.109375 54.6875 
L 18.109375 46.1875 
Q 21.1875 51.21875 25.484375 53.609375 
Q 29.78125 56 35.6875 56 
Q 41.65625 56 45.828125 52.96875 
Q 50 49.953125 52 44.1875 
z
" id="DejaVuSans-109"/>
      <path d="M 48.6875 27.296875 
Q 48.6875 37.203125 44.609375 42.84375 
Q 40.53125 48.484375 33.40625 48.484375 
Q 26.265625 48.484375 22.1875 42.84375 
Q 18.109375 37.203125 18.109375 27.296875 
Q 18.109375 17.390625 22.1875 11.75 
Q 26.265625 6.109375 33.40625 6.109375 
Q 40.53125 6.109375 44.609375 11.75 
Q 48.6875 17.390625 48.6875 27.296875 
z
M 18.109375 46.390625 
Q 20.953125 51.265625 25.265625 53.625 
Q 29.59375 56 35.59375 56 
Q 45.5625 56 51.78125 48.09375 
Q 58.015625 40.1875 58.015625 27.296875 
Q 58.015625 14.40625 51.78125 6.484375 
Q 45.5625 -1.421875 35.59375 -1.421875 
Q 29.59375 -1.421875 25.265625 0.953125 
Q 20.953125 3.328125 18.109375 8.203125 
L 18.109375 0 
L 9.078125 0 
L 9.078125 75.984375 
L 18.109375 75.984375 
z
" id="DejaVuSans-98"/>
      <path d="M 56.203125 29.59375 
L 56.203125 25.203125 
L 14.890625 25.203125 
Q 15.484375 15.921875 20.484375 11.0625 
Q 25.484375 6.203125 34.421875 6.203125 
Q 39.59375 6.203125 44.453125 7.46875 
Q 49.3125 8.734375 54.109375 11.28125 
L 54.109375 2.78125 
Q 49.265625 0.734375 44.1875 -0.34375 
Q 39.109375 -1.421875 33.890625 -1.421875 
Q 20.796875 -1.421875 13.15625 6.1875 
Q 5.515625 13.8125 5.515625 26.8125 
Q 5.515625 40.234375 12.765625 48.109375 
Q 20.015625 56 32.328125 56 
Q 43.359375 56 49.78125 48.890625 
Q 56.203125 41.796875 56.203125 29.59375 
z
M 47.21875 32.234375 
Q 47.125 39.59375 43.09375 43.984375 
Q 39.0625 48.390625 32.421875 48.390625 
Q 24.90625 48.390625 20.390625 44.140625 
Q 15.875 39.890625 15.1875 32.171875 
z
" id="DejaVuSans-101"/>
      <path d="M 41.109375 46.296875 
Q 39.59375 47.171875 37.8125 47.578125 
Q 36.03125 48 33.890625 48 
Q 26.265625 48 22.1875 43.046875 
Q 18.109375 38.09375 18.109375 28.8125 
L 18.109375 0 
L 9.078125 0 
L 9.078125 54.6875 
L 18.109375 54.6875 
L 18.109375 46.1875 
Q 20.953125 51.171875 25.484375 53.578125 
Q 30.03125 56 36.53125 56 
Q 37.453125 56 38.578125 55.875 
Q 39.703125 55.765625 41.0625 55.515625 
z
" id="DejaVuSans-114"/>
      <path id="DejaVuSans-32"/>
      <path d="M 30.609375 48.390625 
Q 23.390625 48.390625 19.1875 42.75 
Q 14.984375 37.109375 14.984375 27.296875 
Q 14.984375 17.484375 19.15625 11.84375 
Q 23.34375 6.203125 30.609375 6.203125 
Q 37.796875 6.203125 41.984375 11.859375 
Q 46.1875 17.53125 46.1875 27.296875 
Q 46.1875 37.015625 41.984375 42.703125 
Q 37.796875 48.390625 30.609375 48.390625 
z
M 30.609375 56 
Q 42.328125 56 49.015625 48.375 
Q 55.71875 40.765625 55.71875 27.296875 
Q 55.71875 13.875 49.015625 6.21875 
Q 42.328125 -1.421875 30.609375 -1.421875 
Q 18.84375 -1.421875 12.171875 6.21875 
Q 5.515625 13.875 5.515625 27.296875 
Q 5.515625 40.765625 12.171875 48.375 
Q 18.84375 56 30.609375 56 
z
" id="DejaVuSans-111"/>
      <path d="M 37.109375 75.984375 
L 37.109375 68.5 
L 28.515625 68.5 
Q 23.6875 68.5 21.796875 66.546875 
Q 19.921875 64.59375 19.921875 59.515625 
L 19.921875 54.6875 
L 34.71875 54.6875 
L 34.71875 47.703125 
L 19.921875 47.703125 
L 19.921875 0 
L 10.890625 0 
L 10.890625 47.703125 
L 2.296875 47.703125 
L 2.296875 54.6875 
L 10.890625 54.6875 
L 10.890625 58.5 
Q 10.890625 67.625 15.140625 71.796875 
Q 19.390625 75.984375 28.609375 75.984375 
z
" id="DejaVuSans-102"/>
      <path d="M 54.890625 33.015625 
L 54.890625 0 
L 45.90625 0 
L 45.90625 32.71875 
Q 45.90625 40.484375 42.875 44.328125 
Q 39.84375 48.1875 33.796875 48.1875 
Q 26.515625 48.1875 22.3125 43.546875 
Q 18.109375 38.921875 18.109375 30.90625 
L 18.109375 0 
L 9.078125 0 
L 9.078125 54.6875 
L 18.109375 54.6875 
L 18.109375 46.1875 
Q 21.34375 51.125 25.703125 53.5625 
Q 30.078125 56 35.796875 56 
Q 45.21875 56 50.046875 50.171875 
Q 54.890625 44.34375 54.890625 33.015625 
z
" id="DejaVuSans-110"/>
      <path d="M 44.28125 53.078125 
L 44.28125 44.578125 
Q 40.484375 46.53125 36.375 47.5 
Q 32.28125 48.484375 27.875 48.484375 
Q 21.1875 48.484375 17.84375 46.4375 
Q 14.5 44.390625 14.5 40.28125 
Q 14.5 37.15625 16.890625 35.375 
Q 19.28125 33.59375 26.515625 31.984375 
L 29.59375 31.296875 
Q 39.15625 29.25 43.1875 25.515625 
Q 47.21875 21.78125 47.21875 15.09375 
Q 47.21875 7.46875 41.1875 3.015625 
Q 35.15625 -1.421875 24.609375 -1.421875 
Q 20.21875 -1.421875 15.453125 -0.5625 
Q 10.6875 0.296875 5.421875 2 
L 5.421875 11.28125 
Q 10.40625 8.6875 15.234375 7.390625 
Q 20.0625 6.109375 24.8125 6.109375 
Q 31.15625 6.109375 34.5625 8.28125 
Q 37.984375 10.453125 37.984375 14.40625 
Q 37.984375 18.0625 35.515625 20.015625 
Q 33.0625 21.96875 24.703125 23.78125 
L 21.578125 24.515625 
Q 13.234375 26.265625 9.515625 29.90625 
Q 5.8125 33.546875 5.8125 39.890625 
Q 5.8125 47.609375 11.28125 51.796875 
Q 16.75 56 26.8125 56 
Q 31.78125 56 36.171875 55.265625 
Q 40.578125 54.546875 44.28125 53.078125 
z
" id="DejaVuSans-115"/>
      <path d="M 18.109375 8.203125 
L 18.109375 -20.796875 
L 9.078125 -20.796875 
L 9.078125 54.6875 
L 18.109375 54.6875 
L 18.109375 46.390625 
Q 20.953125 51.265625 25.265625 53.625 
Q 29.59375 56 35.59375 56 
Q 45.5625 56 51.78125 48.09375 
Q 58.015625 40.1875 58.015625 27.296875 
Q 58.015625 14.40625 51.78125 6.484375 
Q 45.5625 -1.421875 35.59375 -1.421875 
Q 29.59375 -1.421875 25.265625 0.953125 
Q 20.953125 3.328125 18.109375 8.203125 
z
M 48.6875 27.296875 
Q 48.6875 37.203125 44.609375 42.84375 
Q 40.53125 48.484375 33.40625 48.484375 
Q 26.265625 48.484375 22.1875 42.84375 
Q 18.109375 37.203125 18.109375 27.296875 
Q 18.109375 17.390625 22.1875 11.75 
Q 26.265625 6.109375 33.40625 6.109375 
Q 40.53125 6.109375 44.609375 11.75 
Q 48.6875 17.390625 48.6875 27.296875 
z
" id="DejaVuSans-112"/>
      <path d="M 45.40625 46.390625 
L 45.40625 75.984375 
L 54.390625 75.984375 
L 54.390625 0 
L 45.40625 0 
L 45.40625 8.203125 
Q 42.578125 3.328125 38.25 0.953125 
Q 33.9375 -1.421875 27.875 -1.421875 
Q 17.96875 -1.421875 11.734375 6.484375 
Q 5.515625 14.40625 5.515625 27.296875 
Q 5.515625 40.1875 11.734375 48.09375 
Q 17.96875 56 27.875 56 
Q 33.9375 56 38.25 53.625 
Q 42.578125 51.265625 45.40625 46.390625 
z
M 14.796875 27.296875 
Q 14.796875 17.390625 18.875 11.75 
Q 22.953125 6.109375 30.078125 6.109375 
Q 37.203125 6.109375 41.296875 11.75 
Q 45.40625 17.390625 45.40625 27.296875 
Q 45.40625 37.203125 41.296875 42.84375 
Q 37.203125 48.484375 30.078125 48.484375 
Q 22.953125 48.484375 18.875 42.84375 
Q 14.796875 37.203125 14.796875 27.296875 
z
" id="DejaVuSans-100"/>
     </defs>
     <g transform="translate(522.147656 532.276562)scale(0.1 -0.1)">
      <use xlink:href="#DejaVuSans-78"/>
      <use x="74.804688" xlink:href="#DejaVuSans-117"/>
      <use x="138.183594" xlink:href="#DejaVuSans-109"/>
      <use x="235.595703" xlink:href="#DejaVuSans-98"/>
      <use x="299.072266" xlink:href="#DejaVuSans-101"/>
      <use x="360.595703" xlink:href="#DejaVuSans-114"/>
      <use x="401.708984" xlink:href="#DejaVuSans-32"/>
      <use x="433.496094" xlink:href="#DejaVuSans-111"/>
      <use x="494.677734" xlink:href="#DejaVuSans-102"/>
      <use x="529.882812" xlink:href="#DejaVuSans-32"/>
      <use x="561.669922" xlink:href="#DejaVuSans-78"/>
      <use x="636.474609" xlink:href="#DejaVuSans-101"/>
      <use x="697.998047" xlink:href="#DejaVuSans-117"/>
      <use x="761.376953" xlink:href="#DejaVuSans-114"/>
      <use x="800.240234" xlink:href="#DejaVuSans-111"/>
      <use x="861.421875" xlink:href="#DejaVuSans-110"/>
      <use x="924.800781" xlink:href="#DejaVuSans-115"/>
      <use x="976.900391" xlink:href="#DejaVuSans-32"/>
      <use x="1008.6875" xlink:href="#DejaVuSans-112"/>
      <use x="1072.164062" xlink:href="#DejaVuSans-114"/>
      <use x="1113.277344" xlink:href="#DejaVuSans-117"/>
      <use x="1176.65625" xlink:href="#DejaVuSans-110"/>
      <use x="1240.035156" xlink:href="#DejaVuSans-101"/>
      <use x="1301.558594" xlink:href="#DejaVuSans-100"/>
     </g>
    </g>
   </g>
   <g id="matplotlib.axis_2">
    <g id="ytick_1">
     <g id="line2d_10">
      <defs>
       <path d="M 0 0 
L -3.5 0 
" id="m783fe6d371" style="stroke:#000000;stroke-width:0.8;"/>
      </defs>
      <g>
       <use style="stroke:#000000;stroke-width:0.8;" x="144" xlink:href="#m783fe6d371" y="486.114452"/>
      </g>
     </g>
     <g id="text_11">
      <!-- 0 -->
      <g transform="translate(130.6375 489.913671)scale(0.1 -0.1)">
       <use xlink:href="#DejaVuSans-48"/>
      </g>
     </g>
    </g>
    <g id="ytick_2">
     <g id="line2d_11">
      <g>
       <use style="stroke:#000000;stroke-width:0.8;" x="144" xlink:href="#m783fe6d371" y="398.804285"/>
      </g>
     </g>
     <g id="text_12">
      <!-- 2 -->
      <g transform="translate(130.6375 402.603504)scale(0.1 -0.1)">
       <use xlink:href="#DejaVuSans-50"/>
      </g>
     </g>
    </g>
    <g id="ytick_3">
     <g id="line2d_12">
      <g>
       <use style="stroke:#000000;stroke-width:0.8;" x="144" xlink:href="#m783fe6d371" y="311.494118"/>
      </g>
     </g>
     <g id="text_13">
      <!-- 4 -->
      <g transform="translate(130.6375 315.293337)scale(0.1 -0.1)">
       <use xlink:href="#DejaVuSans-52"/>
      </g>
     </g>
    </g>
    <g id="ytick_4">
     <g id="line2d_13">
      <g>
       <use style="stroke:#000000;stroke-width:0.8;" x="144" xlink:href="#m783fe6d371" y="224.183951"/>
      </g>
     </g>
     <g id="text_14">
      <!-- 6 -->
      <defs>
       <path d="M 33.015625 40.375 
Q 26.375 40.375 22.484375 35.828125 
Q 18.609375 31.296875 18.609375 23.390625 
Q 18.609375 15.53125 22.484375 10.953125 
Q 26.375 6.390625 33.015625 6.390625 
Q 39.65625 6.390625 43.53125 10.953125 
Q 47.40625 15.53125 47.40625 23.390625 
Q 47.40625 31.296875 43.53125 35.828125 
Q 39.65625 40.375 33.015625 40.375 
z
M 52.59375 71.296875 
L 52.59375 62.3125 
Q 48.875 64.0625 45.09375 64.984375 
Q 41.3125 65.921875 37.59375 65.921875 
Q 27.828125 65.921875 22.671875 59.328125 
Q 17.53125 52.734375 16.796875 39.40625 
Q 19.671875 43.65625 24.015625 45.921875 
Q 28.375 48.1875 33.59375 48.1875 
Q 44.578125 48.1875 50.953125 41.515625 
Q 57.328125 34.859375 57.328125 23.390625 
Q 57.328125 12.15625 50.6875 5.359375 
Q 44.046875 -1.421875 33.015625 -1.421875 
Q 20.359375 -1.421875 13.671875 8.265625 
Q 6.984375 17.96875 6.984375 36.375 
Q 6.984375 53.65625 15.1875 63.9375 
Q 23.390625 74.21875 37.203125 74.21875 
Q 40.921875 74.21875 44.703125 73.484375 
Q 48.484375 72.75 52.59375 71.296875 
z
" id="DejaVuSans-54"/>
      </defs>
      <g transform="translate(130.6375 227.98317)scale(0.1 -0.1)">
       <use xlink:href="#DejaVuSans-54"/>
      </g>
     </g>
    </g>
    <g id="ytick_5">
     <g id="line2d_14">
      <g>
       <use style="stroke:#000000;stroke-width:0.8;" x="144" xlink:href="#m783fe6d371" y="136.873784"/>
      </g>
     </g>
     <g id="text_15">
      <!-- 8 -->
      <defs>
       <path d="M 31.78125 34.625 
Q 24.75 34.625 20.71875 30.859375 
Q 16.703125 27.09375 16.703125 20.515625 
Q 16.703125 13.921875 20.71875 10.15625 
Q 24.75 6.390625 31.78125 6.390625 
Q 38.8125 6.390625 42.859375 10.171875 
Q 46.921875 13.96875 46.921875 20.515625 
Q 46.921875 27.09375 42.890625 30.859375 
Q 38.875 34.625 31.78125 34.625 
z
M 21.921875 38.8125 
Q 15.578125 40.375 12.03125 44.71875 
Q 8.5 49.078125 8.5 55.328125 
Q 8.5 64.0625 14.71875 69.140625 
Q 20.953125 74.21875 31.78125 74.21875 
Q 42.671875 74.21875 48.875 69.140625 
Q 55.078125 64.0625 55.078125 55.328125 
Q 55.078125 49.078125 51.53125 44.71875 
Q 48 40.375 41.703125 38.8125 
Q 48.828125 37.15625 52.796875 32.3125 
Q 56.78125 27.484375 56.78125 20.515625 
Q 56.78125 9.90625 50.3125 4.234375 
Q 43.84375 -1.421875 31.78125 -1.421875 
Q 19.734375 -1.421875 13.25 4.234375 
Q 6.78125 9.90625 6.78125 20.515625 
Q 6.78125 27.484375 10.78125 32.3125 
Q 14.796875 37.15625 21.921875 38.8125 
z
M 18.3125 54.390625 
Q 18.3125 48.734375 21.84375 45.5625 
Q 25.390625 42.390625 31.78125 42.390625 
Q 38.140625 42.390625 41.71875 45.5625 
Q 45.3125 48.734375 45.3125 54.390625 
Q 45.3125 60.0625 41.71875 63.234375 
Q 38.140625 66.40625 31.78125 66.40625 
Q 25.390625 66.40625 21.84375 63.234375 
Q 18.3125 60.0625 18.3125 54.390625 
z
" id="DejaVuSans-56"/>
      </defs>
      <g transform="translate(130.6375 140.673003)scale(0.1 -0.1)">
       <use xlink:href="#DejaVuSans-56"/>
      </g>
     </g>
    </g>
    <g id="text_16">
     <!-- Loss -->
     <defs>
      <path d="M 9.8125 72.90625 
L 19.671875 72.90625 
L 19.671875 8.296875 
L 55.171875 8.296875 
L 55.171875 0 
L 9.8125 0 
z
" id="DejaVuSans-76"/>
     </defs>
     <g transform="translate(124.557812 297.527188)rotate(-90)scale(0.1 -0.1)">
      <use xlink:href="#DejaVuSans-76"/>
      <use x="53.962891" xlink:href="#DejaVuSans-111"/>
      <use x="115.144531" xlink:href="#DejaVuSans-115"/>
      <use x="167.244141" xlink:href="#DejaVuSans-115"/>
     </g>
    </g>
   </g>
   <g id="line2d_15">
    <path clip-path="url(#pb7e11e61b7)" d="M 184.581818 484.027125 
L 194.855696 483.622799 
L 205.129574 483.336135 
L 215.403452 482.620748 
L 225.67733 482.623867 
L 235.951208 481.902034 
L 246.225086 481.753818 
L 256.498964 479.678494 
L 266.772842 478.46676 
L 277.04672 473.982063 
L 287.320598 474.304877 
L 297.594476 472.39236 
L 307.868354 470.289506 
L 318.142232 467.055681 
L 328.41611 460.525484 
L 338.689988 458.664069 
L 348.963867 455.556032 
L 359.237745 457.578537 
L 369.511623 457.091645 
L 379.785501 456.255504 
L 390.059379 450.329961 
L 400.333257 441.870125 
L 410.607135 438.143194 
L 420.881013 435.379509 
L 431.154891 426.782048 
L 441.428769 428.16387 
L 451.702647 425.217298 
L 461.976525 418.895378 
L 472.250403 410.552709 
L 482.524281 405.127355 
L 492.798159 397.780432 
L 503.072037 392.5911 
L 513.345915 384.552308 
L 523.619793 376.943843 
L 533.893671 377.09981 
L 544.167549 367.750379 
L 554.441427 348.985143 
L 564.715305 339.449728 
L 574.989183 339.166521 
L 585.263061 330.977571 
L 595.536939 317.991489 
L 605.810817 320.80787 
L 616.084695 315.864722 
L 626.358573 312.980188 
L 636.632451 305.626047 
L 646.906329 308.873359 
L 657.180207 302.557861 
L 667.454085 276.178654 
L 677.727963 277.021467 
L 688.001841 264.851054 
L 698.275719 258.188921 
L 708.549597 252.441877 
L 718.823475 241.69295 
L 729.097353 228.285629 
L 739.371231 210.634287 
L 749.645109 202.465862 
L 759.918987 219.7897 
L 770.192865 214.891588 
L 780.466743 200.324191 
L 790.740621 182.241284 
L 801.014499 186.842846 
L 811.288377 174.162661 
L 821.562255 184.33004 
L 831.836133 159.000041 
L 842.110012 159.981782 
L 852.38389 125.164245 
L 862.657768 103.313347 
L 872.931646 160.307308 
L 883.205524 204.53684 
L 893.479402 202.43828 
L 903.75328 188.350888 
L 914.027158 163.486509 
L 924.301036 134.030144 
L 934.574914 115.033669 
L 944.848792 88.887273 
L 955.12267 108.899294 
L 965.396548 237.556822 
L 975.670426 274.193064 
L 985.944304 349.177694 
L 996.218182 349.827102 
" style="fill:none;stroke:#1f77b4;stroke-linecap:square;stroke-width:1.5;"/>
   </g>
   <g id="line2d_16">
    <path clip-path="url(#pb7e11e61b7)" d="M 184.581818 484.045983 
L 194.855696 484.047444 
L 205.129574 484.001942 
L 215.403452 483.91829 
L 225.67733 483.880064 
L 235.951208 483.851927 
L 246.225086 483.709422 
L 256.498964 483.52219 
L 266.772842 483.256545 
L 277.04672 483.035945 
L 287.320598 482.815709 
L 297.594476 482.213512 
L 307.868354 481.745771 
L 318.142232 481.564423 
L 328.41611 481.168146 
L 338.689988 480.331202 
L 348.963867 480.639517 
L 359.237745 479.775348 
L 369.511623 478.711139 
L 379.785501 478.524229 
L 390.059379 477.906956 
L 400.333257 476.540034 
L 410.607135 473.485151 
L 420.881013 471.07509 
L 431.154891 467.338646 
L 441.428769 464.142005 
L 451.702647 464.402334 
L 461.976525 461.185821 
L 472.250403 459.596705 
L 482.524281 457.457948 
L 492.798159 455.371269 
L 503.072037 455.005783 
L 513.345915 450.682552 
L 523.619793 452.180745 
L 533.893671 446.712254 
L 544.167549 441.870448 
L 554.441427 429.492173 
L 564.715305 426.654012 
L 574.989183 423.893882 
L 585.263061 423.689496 
L 595.536939 418.016001 
L 605.810817 421.646713 
L 616.084695 420.252444 
L 626.358573 412.105324 
L 636.632451 407.146366 
L 646.906329 408.538055 
L 657.180207 403.871619 
L 667.454085 406.284157 
L 677.727963 399.532104 
L 688.001841 405.476248 
L 698.275719 402.35523 
L 708.549597 397.562131 
L 718.823475 398.084206 
L 729.097353 395.359739 
L 739.371231 390.592843 
L 749.645109 390.297979 
L 759.918987 386.398272 
L 770.192865 384.567536 
L 780.466743 386.197686 
L 790.740621 384.187824 
L 801.014499 377.299886 
L 811.288377 376.191134 
L 821.562255 385.091858 
L 831.836133 391.206738 
L 842.110012 390.91508 
L 852.38389 390.20876 
L 862.657768 388.743798 
L 872.931646 387.859061 
L 883.205524 387.112097 
L 893.479402 386.473815 
L 903.75328 384.494709 
L 914.027158 387.991026 
L 924.301036 387.760017 
L 934.574914 387.696329 
L 944.848792 387.07037 
L 955.12267 387.160443 
L 965.396548 386.796823 
L 975.670426 386.563711 
L 985.944304 386.504988 
L 996.218182 386.287207 
" style="fill:none;stroke:#ff7f0e;stroke-linecap:square;stroke-width:1.5;"/>
   </g>
   <g id="line2d_17">
    <path clip-path="url(#pb7e11e61b7)" d="M 184.581818 484.065718 
L 194.855696 484.076885 
L 205.129574 483.938003 
L 215.403452 483.936371 
L 225.67733 483.822917 
L 235.951208 483.631739 
L 246.225086 483.329293 
L 256.498964 483.15403 
L 266.772842 482.785404 
L 277.04672 482.593183 
L 287.320598 482.339081 
L 297.594476 482.36477 
L 307.868354 482.015438 
L 318.142232 481.562182 
L 328.41611 481.042488 
L 338.689988 480.076304 
L 348.963867 479.486613 
L 359.237745 478.573291 
L 369.511623 477.829087 
L 379.785501 476.188629 
L 390.059379 475.334858 
L 400.333257 473.197567 
L 410.607135 471.554025 
L 420.881013 469.188419 
L 431.154891 467.935511 
L 441.428769 463.596721 
L 451.702647 460.619785 
L 461.976525 456.701534 
L 472.250403 453.257468 
L 482.524281 450.415009 
L 492.798159 447.390714 
L 503.072037 444.471453 
L 513.345915 440.755851 
L 523.619793 434.189198 
L 533.893671 432.081656 
L 544.167549 431.244224 
L 554.441427 428.932827 
L 564.715305 425.837964 
L 574.989183 424.057368 
L 585.263061 418.991955 
L 595.536939 416.931645 
L 605.810817 414.001159 
L 616.084695 410.084757 
L 626.358573 406.842379 
L 636.632451 406.402066 
L 646.906329 402.719745 
L 657.180207 400.198066 
L 667.454085 400.857763 
L 677.727963 398.917964 
L 688.001841 395.720778 
L 698.275719 394.79957 
L 708.549597 394.260052 
L 718.823475 394.562618 
L 729.097353 393.332246 
L 739.371231 392.964868 
L 749.645109 392.780133 
L 759.918987 391.840878 
L 770.192865 391.03288 
L 780.466743 390.091002 
L 790.740621 389.631408 
L 801.014499 388.047824 
L 811.288377 388.211326 
L 821.562255 388.254499 
L 831.836133 386.470058 
L 842.110012 386.511357 
L 852.38389 385.359484 
L 862.657768 385.359484 
L 872.931646 385.359484 
L 883.205524 385.359484 
L 893.479402 385.359484 
L 903.75328 385.359484 
L 914.027158 385.359484 
L 924.301036 385.359484 
L 934.574914 385.359484 
L 944.848792 385.359484 
L 955.12267 385.359484 
L 965.396548 385.359484 
L 975.670426 385.359484 
L 985.944304 385.359484 
L 996.218182 385.359484 
" style="fill:none;stroke:#2ca02c;stroke-linecap:square;stroke-width:1.5;"/>
   </g>
   <g id="line2d_18">
    <path clip-path="url(#pb7e11e61b7)" d="M 184.581818 484.045983 
L 194.855696 484.024346 
L 205.129574 483.962321 
L 215.403452 483.890558 
L 225.67733 483.787778 
L 235.951208 483.625472 
L 246.225086 483.392057 
L 256.498964 483.21824 
L 266.772842 482.891515 
L 277.04672 482.750026 
L 287.320598 482.095537 
L 297.594476 480.370124 
L 307.868354 479.182845 
L 318.142232 479.326446 
L 328.41611 478.644377 
L 338.689988 477.078387 
L 348.963867 475.024973 
L 359.237745 474.247362 
L 369.511623 471.170134 
L 379.785501 467.30264 
L 390.059379 467.077904 
L 400.333257 465.665167 
L 410.607135 460.609208 
L 420.881013 457.997306 
L 431.154891 454.514132 
L 441.428769 452.120109 
L 451.702647 445.913496 
L 461.976525 442.90741 
L 472.250403 443.648166 
L 482.524281 442.384753 
L 492.798159 436.452942 
L 503.072037 430.932062 
L 513.345915 433.45448 
L 523.619793 429.245483 
L 533.893671 430.765125 
L 544.167549 427.207863 
L 554.441427 423.783649 
L 564.715305 421.928073 
L 574.989183 418.902898 
L 585.263061 416.033679 
L 595.536939 415.745066 
L 605.810817 413.554539 
L 616.084695 404.122966 
L 626.358573 397.348181 
L 636.632451 390.103211 
L 646.906329 386.226881 
L 657.180207 375.326734 
L 667.454085 363.445627 
L 677.727963 353.396349 
L 688.001841 345.129171 
L 698.275719 345.923451 
L 708.549597 362.075358 
L 718.823475 355.483814 
L 729.097353 350.022537 
L 739.371231 354.864538 
L 749.645109 350.374771 
L 759.918987 343.44137 
L 770.192865 336.832704 
L 780.466743 365.432206 
L 790.740621 363.977246 
L 801.014499 375.031673 
L 811.288377 370.753264 
L 821.562255 368.716362 
L 831.836133 367.887569 
L 842.110012 365.578232 
L 852.38389 360.276398 
L 862.657768 359.824578 
L 872.931646 375.588812 
L 883.205524 377.246878 
L 893.479402 376.08751 
L 903.75328 381.280787 
L 914.027158 382.685622 
L 924.301036 381.466761 
L 934.574914 379.434875 
L 944.848792 379.251306 
L 955.12267 380.048844 
L 965.396548 383.426611 
L 975.670426 382.794356 
L 985.944304 382.667938 
L 996.218182 385.362752 
" style="fill:none;stroke:#d62728;stroke-dasharray:5.55,2.4;stroke-dashoffset:0;stroke-width:1.5;"/>
   </g>
   <g id="line2d_19">
    <path clip-path="url(#pb7e11e61b7)" d="M 184.581818 484.223296 
L 194.855696 484.123653 
L 205.129574 483.923467 
L 215.403452 483.821556 
L 225.67733 483.699711 
L 235.951208 483.593119 
L 246.225086 483.449136 
L 256.498964 483.345601 
L 266.772842 483.227348 
L 277.04672 483.06143 
L 287.320598 482.957924 
L 297.594476 482.806755 
L 307.868354 482.51806 
L 318.142232 482.391558 
L 328.41611 482.088559 
L 338.689988 481.827229 
L 348.963867 481.749693 
L 359.237745 481.598398 
L 369.511623 481.271803 
L 379.785501 480.973163 
L 390.059379 480.651561 
L 400.333257 480.574767 
L 410.607135 480.276092 
L 420.881013 479.782641 
L 431.154891 479.218249 
L 441.428769 478.496692 
L 451.702647 477.63942 
L 461.976525 477.292141 
L 472.250403 476.665382 
L 482.524281 476.287282 
L 492.798159 476.084472 
L 503.072037 474.906544 
L 513.345915 473.993648 
L 523.619793 473.0297 
L 533.893671 473.022747 
L 544.167549 472.396632 
L 554.441427 470.072056 
L 564.715305 468.909334 
L 574.989183 468.148206 
L 585.263061 468.223785 
L 595.536939 466.538708 
L 605.810817 465.164866 
L 616.084695 463.706454 
L 626.358573 463.932611 
L 636.632451 462.81191 
L 646.906329 460.107341 
L 657.180207 459.196992 
L 667.454085 457.112303 
L 677.727963 453.403763 
L 688.001841 449.511202 
L 698.275719 445.374987 
L 708.549597 439.348014 
L 718.823475 435.904524 
L 729.097353 436.583221 
L 739.371231 435.072812 
L 749.645109 428.023001 
L 759.918987 426.172603 
L 770.192865 422.976093 
L 780.466743 425.820161 
L 790.740621 421.376012 
L 801.014499 415.197902 
L 811.288377 407.859306 
L 821.562255 397.794983 
L 831.836133 391.426539 
L 842.110012 389.500088 
L 852.38389 395.101168 
L 862.657768 390.121873 
L 872.931646 378.39822 
L 883.205524 373.000547 
L 893.479402 368.82494 
L 903.75328 364.491837 
L 914.027158 368.282466 
L 924.301036 372.886026 
L 934.574914 368.51411 
L 944.848792 362.88472 
L 955.12267 357.113236 
L 965.396548 385.443166 
L 975.670426 385.443166 
L 985.944304 385.443166 
L 996.218182 385.443166 
" style="fill:none;stroke:#9467bd;stroke-linecap:square;stroke-width:1.5;"/>
   </g>
   <g id="line2d_20">
    <path clip-path="url(#pb7e11e61b7)" d="M 184.581818 484.232727 
L 194.855696 484.183739 
L 205.129574 484.132765 
L 215.403452 484.056024 
L 225.67733 484.020997 
L 235.951208 483.972423 
L 246.225086 483.900235 
L 256.498964 483.817298 
L 266.772842 483.699353 
L 277.04672 483.62923 
L 287.320598 483.492718 
L 297.594476 483.347664 
L 307.868354 482.990894 
L 318.142232 482.676394 
L 328.41611 482.620059 
L 338.689988 481.974732 
L 348.963867 481.885767 
L 359.237745 481.940253 
L 369.511623 481.641859 
L 379.785501 481.329378 
L 390.059379 481.273435 
L 400.333257 480.803281 
L 410.607135 480.576938 
L 420.881013 480.372234 
L 431.154891 479.407889 
L 441.428769 478.272716 
L 451.702647 477.74449 
L 461.976525 476.311216 
L 472.250403 476.231116 
L 482.524281 475.854013 
L 492.798159 476.345954 
L 503.072037 475.28342 
L 513.345915 473.196462 
L 523.619793 470.58552 
L 533.893671 468.296195 
L 544.167549 466.228436 
L 554.441427 466.61112 
L 564.715305 464.559524 
L 574.989183 463.320506 
L 585.263061 461.510819 
L 595.536939 461.249511 
L 605.810817 459.945244 
L 616.084695 457.565493 
L 626.358573 456.17272 
L 636.632451 454.43925 
L 646.906329 450.672981 
L 657.180207 447.080933 
L 667.454085 444.261314 
L 677.727963 442.237097 
L 688.001841 441.725108 
L 698.275719 441.016618 
L 708.549597 438.407193 
L 718.823475 435.989648 
L 729.097353 431.928937 
L 739.371231 431.632043 
L 749.645109 427.556495 
L 759.918987 425.853727 
L 770.192865 423.708663 
L 780.466743 422.141014 
L 790.740621 419.574059 
L 801.014499 416.48261 
L 811.288377 413.3873 
L 821.562255 410.388505 
L 831.836133 408.725334 
L 842.110012 406.976796 
L 852.38389 403.048035 
L 862.657768 401.246284 
L 872.931646 396.976036 
L 883.205524 394.481902 
L 893.479402 392.550716 
L 903.75328 392.758547 
L 914.027158 392.353991 
L 924.301036 392.582045 
L 934.574914 392.34556 
L 944.848792 390.707937 
L 955.12267 389.246597 
L 965.396548 387.78151 
L 975.670426 388.377701 
L 985.944304 388.264262 
L 996.218182 388.158536 
" style="fill:none;stroke:#8c564b;stroke-linecap:square;stroke-width:1.5;"/>
   </g>
   <g id="line2d_21">
    <path clip-path="url(#pb7e11e61b7)" d="M 184.581818 484.227782 
L 194.855696 484.18005 
L 205.129574 484.064841 
L 215.403452 484.014718 
L 225.67733 483.958102 
L 235.951208 483.867964 
L 246.225086 483.749592 
L 256.498964 483.661202 
L 266.772842 483.499334 
L 277.04672 483.389729 
L 287.320598 483.307226 
L 297.594476 483.128328 
L 307.868354 482.925619 
L 318.142232 482.678132 
L 328.41611 482.410148 
L 338.689988 482.24407 
L 348.963867 481.761042 
L 359.237745 481.120372 
L 369.511623 480.280406 
L 379.785501 479.060542 
L 390.059379 478.497791 
L 400.333257 477.53104 
L 410.607135 475.58394 
L 420.881013 472.973353 
L 431.154891 470.996453 
L 441.428769 469.770298 
L 451.702647 468.186408 
L 461.976525 466.110346 
L 472.250403 464.550335 
L 482.524281 460.728571 
L 492.798159 457.241747 
L 503.072037 453.644908 
L 513.345915 451.015546 
L 523.619793 448.736117 
L 533.893671 447.413724 
L 544.167549 446.126619 
L 554.441427 444.344072 
L 564.715305 439.521566 
L 574.989183 436.302934 
L 585.263061 430.674282 
L 595.536939 425.350419 
L 605.810817 424.690649 
L 616.084695 418.344832 
L 626.358573 418.751032 
L 636.632451 418.476105 
L 646.906329 418.037952 
L 657.180207 417.800135 
L 667.454085 413.613777 
L 677.727963 408.0328 
L 688.001841 404.075895 
L 698.275719 403.940266 
L 708.549597 402.654387 
L 718.823475 400.922059 
L 729.097353 400.164562 
L 739.371231 399.734361 
L 749.645109 399.647504 
L 759.918987 399.629857 
L 770.192865 394.781908 
L 780.466743 392.455335 
L 790.740621 390.341256 
L 801.014499 390.215422 
L 811.288377 390.173154 
L 821.562255 390.751172 
L 831.836133 390.444027 
L 842.110012 390.244179 
L 852.38389 390.080584 
L 862.657768 387.757404 
L 872.931646 385.443166 
L 883.205524 385.443166 
L 893.479402 385.443166 
L 903.75328 385.443166 
L 914.027158 385.443166 
L 924.301036 385.443166 
L 934.574914 385.443166 
L 944.848792 385.443166 
L 955.12267 385.443166 
L 965.396548 385.443166 
L 975.670426 385.443166 
L 985.944304 385.443166 
L 996.218182 385.443166 
" style="fill:none;stroke:#e377c2;stroke-linecap:square;stroke-width:1.5;"/>
   </g>
   <g id="line2d_22">
    <path clip-path="url(#pb7e11e61b7)" d="M 184.581818 484.232727 
L 194.855696 484.192513 
L 205.129574 484.142939 
L 215.403452 484.07547 
L 225.67733 484.012832 
L 235.951208 483.98608 
L 246.225086 483.895298 
L 256.498964 483.799951 
L 266.772842 483.715047 
L 277.04672 483.63897 
L 287.320598 483.466304 
L 297.594476 483.3829 
L 307.868354 483.24453 
L 318.142232 482.738092 
L 328.41611 482.363935 
L 338.689988 482.091904 
L 348.963867 481.757933 
L 359.237745 481.330282 
L 369.511623 480.939298 
L 379.785501 480.571831 
L 390.059379 479.179617 
L 400.333257 479.240696 
L 410.607135 478.300926 
L 420.881013 478.247872 
L 431.154891 477.595319 
L 441.428769 477.256315 
L 451.702647 476.420125 
L 461.976525 475.11093 
L 472.250403 473.098971 
L 482.524281 472.313476 
L 492.798159 470.772138 
L 503.072037 469.249441 
L 513.345915 467.324799 
L 523.619793 468.127675 
L 533.893671 466.960068 
L 544.167549 464.059669 
L 554.441427 462.778333 
L 564.715305 460.348048 
L 574.989183 458.903348 
L 585.263061 457.509216 
L 595.536939 453.194015 
L 605.810817 451.130624 
L 616.084695 448.352703 
L 626.358573 447.907139 
L 636.632451 441.585696 
L 646.906329 438.702514 
L 657.180207 434.58142 
L 667.454085 433.143353 
L 677.727963 428.707484 
L 688.001841 428.494309 
L 698.275719 426.907519 
L 708.549597 426.57504 
L 718.823475 423.665089 
L 729.097353 421.96077 
L 739.371231 418.441784 
L 749.645109 413.620136 
L 759.918987 411.116146 
L 770.192865 408.693173 
L 780.466743 406.978196 
L 790.740621 404.948277 
L 801.014499 402.907071 
L 811.288377 402.000461 
L 821.562255 401.548096 
L 831.836133 401.12391 
L 842.110012 400.304729 
L 852.38389 398.904459 
L 862.657768 398.961704 
L 872.931646 398.723664 
L 883.205524 397.020489 
L 893.479402 395.267241 
L 903.75328 391.635805 
L 914.027158 390.825237 
L 924.301036 387.087034 
L 934.574914 387.750566 
L 944.848792 387.040395 
L 955.12267 387.388299 
L 965.396548 387.47527 
L 975.670426 385.847909 
L 985.944304 386.205149 
L 996.218182 385.813603 
" style="fill:none;stroke:#7f7f7f;stroke-dasharray:5.55,2.4;stroke-dashoffset:0;stroke-width:1.5;"/>
   </g>
   <g id="line2d_23">
    <path clip-path="url(#pb7e11e61b7)" d="M 184.581818 484.232727 
L 194.855696 484.180315 
L 205.129574 484.12472 
L 215.403452 484.082885 
L 225.67733 483.995181 
L 235.951208 483.898643 
L 246.225086 483.792471 
L 256.498964 483.68068 
L 266.772842 483.597215 
L 277.04672 483.408762 
L 287.320598 483.360529 
L 297.594476 482.75922 
L 307.868354 482.67022 
L 318.142232 482.637773 
L 328.41611 482.176029 
L 338.689988 482.154882 
L 348.963867 481.953344 
L 359.237745 481.783845 
L 369.511623 481.727658 
L 379.785501 481.532833 
L 390.059379 480.970916 
L 400.333257 480.660384 
L 410.607135 480.272083 
L 420.881013 479.858232 
L 431.154891 478.989062 
L 441.428769 479.274355 
L 451.702647 479.181352 
L 461.976525 478.610309 
L 472.250403 478.357227 
L 482.524281 477.738228 
L 492.798159 476.553058 
L 503.072037 475.13733 
L 513.345915 474.444692 
L 523.619793 474.210274 
L 533.893671 473.213934 
L 544.167549 471.071632 
L 554.441427 470.34437 
L 564.715305 469.99566 
L 574.989183 469.722792 
L 585.263061 468.505351 
L 595.536939 466.962927 
L 605.810817 465.487577 
L 616.084695 460.709915 
L 626.358573 459.376143 
L 636.632451 455.649409 
L 646.906329 454.761818 
L 657.180207 453.384526 
L 667.454085 449.542983 
L 677.727963 447.253435 
L 688.001841 444.160985 
L 698.275719 441.653994 
L 708.549597 441.695278 
L 718.823475 437.239504 
L 729.097353 434.944983 
L 739.371231 433.528279 
L 749.645109 431.747324 
L 759.918987 422.495069 
L 770.192865 415.414273 
L 780.466743 414.298875 
L 790.740621 413.210059 
L 801.014499 411.31374 
L 811.288377 408.892006 
L 821.562255 407.936149 
L 831.836133 405.408944 
L 842.110012 402.377805 
L 852.38389 399.901131 
L 862.657768 400.803359 
L 872.931646 398.834266 
L 883.205524 397.605731 
L 893.479402 398.70954 
L 903.75328 397.21022 
L 914.027158 395.010909 
L 924.301036 392.948621 
L 934.574914 391.037553 
L 944.848792 390.570018 
L 955.12267 389.135208 
L 965.396548 389.430905 
L 975.670426 388.857632 
L 985.944304 388.20072 
L 996.218182 387.520275 
" style="fill:none;stroke:#bcbd22;stroke-dasharray:5.55,2.4;stroke-dashoffset:0;stroke-width:1.5;"/>
   </g>
   <g id="patch_3">
    <path d="M 144 504 
L 144 69.12 
" style="fill:none;stroke:#000000;stroke-linecap:square;stroke-linejoin:miter;stroke-width:0.8;"/>
   </g>
   <g id="patch_4">
    <path d="M 1036.8 504 
L 1036.8 69.12 
" style="fill:none;stroke:#000000;stroke-linecap:square;stroke-linejoin:miter;stroke-width:0.8;"/>
   </g>
   <g id="patch_5">
    <path d="M 144 504 
L 1036.8 504 
" style="fill:none;stroke:#000000;stroke-linecap:square;stroke-linejoin:miter;stroke-width:0.8;"/>
   </g>
   <g id="patch_6">
    <path d="M 144 69.12 
L 1036.8 69.12 
" style="fill:none;stroke:#000000;stroke-linecap:square;stroke-linejoin:miter;stroke-width:0.8;"/>
   </g>
   <g id="legend_1">
    <g id="patch_7">
     <path d="M 151 211.17 
L 300.879687 211.17 
Q 302.879687 211.17 302.879687 209.17 
L 302.879687 76.12 
Q 302.879687 74.12 300.879687 74.12 
L 151 74.12 
Q 149 74.12 149 76.12 
L 149 209.17 
Q 149 211.17 151 211.17 
z
" style="fill:#ffffff;opacity:0.8;stroke:#cccccc;stroke-linejoin:miter;"/>
    </g>
    <g id="line2d_24">
     <path d="M 153 82.218437 
L 173 82.218437 
" style="fill:none;stroke:#1f77b4;stroke-linecap:square;stroke-width:1.5;"/>
    </g>
    <g id="line2d_25"/>
    <g id="text_17">
     <!-- taylorfo noBN -->
     <defs>
      <path d="M 18.3125 70.21875 
L 18.3125 54.6875 
L 36.8125 54.6875 
L 36.8125 47.703125 
L 18.3125 47.703125 
L 18.3125 18.015625 
Q 18.3125 11.328125 20.140625 9.421875 
Q 21.96875 7.515625 27.59375 7.515625 
L 36.8125 7.515625 
L 36.8125 0 
L 27.59375 0 
Q 17.1875 0 13.234375 3.875 
Q 9.28125 7.765625 9.28125 18.015625 
L 9.28125 47.703125 
L 2.6875 47.703125 
L 2.6875 54.6875 
L 9.28125 54.6875 
L 9.28125 70.21875 
z
" id="DejaVuSans-116"/>
      <path d="M 34.28125 27.484375 
Q 23.390625 27.484375 19.1875 25 
Q 14.984375 22.515625 14.984375 16.5 
Q 14.984375 11.71875 18.140625 8.90625 
Q 21.296875 6.109375 26.703125 6.109375 
Q 34.1875 6.109375 38.703125 11.40625 
Q 43.21875 16.703125 43.21875 25.484375 
L 43.21875 27.484375 
z
M 52.203125 31.203125 
L 52.203125 0 
L 43.21875 0 
L 43.21875 8.296875 
Q 40.140625 3.328125 35.546875 0.953125 
Q 30.953125 -1.421875 24.3125 -1.421875 
Q 15.921875 -1.421875 10.953125 3.296875 
Q 6 8.015625 6 15.921875 
Q 6 25.140625 12.171875 29.828125 
Q 18.359375 34.515625 30.609375 34.515625 
L 43.21875 34.515625 
L 43.21875 35.40625 
Q 43.21875 41.609375 39.140625 45 
Q 35.0625 48.390625 27.6875 48.390625 
Q 23 48.390625 18.546875 47.265625 
Q 14.109375 46.140625 10.015625 43.890625 
L 10.015625 52.203125 
Q 14.9375 54.109375 19.578125 55.046875 
Q 24.21875 56 28.609375 56 
Q 40.484375 56 46.34375 49.84375 
Q 52.203125 43.703125 52.203125 31.203125 
z
" id="DejaVuSans-97"/>
      <path d="M 32.171875 -5.078125 
Q 28.375 -14.84375 24.75 -17.8125 
Q 21.140625 -20.796875 15.09375 -20.796875 
L 7.90625 -20.796875 
L 7.90625 -13.28125 
L 13.1875 -13.28125 
Q 16.890625 -13.28125 18.9375 -11.515625 
Q 21 -9.765625 23.484375 -3.21875 
L 25.09375 0.875 
L 2.984375 54.6875 
L 12.5 54.6875 
L 29.59375 11.921875 
L 46.6875 54.6875 
L 56.203125 54.6875 
z
" id="DejaVuSans-121"/>
      <path d="M 9.421875 75.984375 
L 18.40625 75.984375 
L 18.40625 0 
L 9.421875 0 
z
" id="DejaVuSans-108"/>
      <path d="M 19.671875 34.8125 
L 19.671875 8.109375 
L 35.5 8.109375 
Q 43.453125 8.109375 47.28125 11.40625 
Q 51.125 14.703125 51.125 21.484375 
Q 51.125 28.328125 47.28125 31.5625 
Q 43.453125 34.8125 35.5 34.8125 
z
M 19.671875 64.796875 
L 19.671875 42.828125 
L 34.28125 42.828125 
Q 41.5 42.828125 45.03125 45.53125 
Q 48.578125 48.25 48.578125 53.8125 
Q 48.578125 59.328125 45.03125 62.0625 
Q 41.5 64.796875 34.28125 64.796875 
z
M 9.8125 72.90625 
L 35.015625 72.90625 
Q 46.296875 72.90625 52.390625 68.21875 
Q 58.5 63.53125 58.5 54.890625 
Q 58.5 48.1875 55.375 44.234375 
Q 52.25 40.28125 46.1875 39.3125 
Q 53.46875 37.75 57.5 32.78125 
Q 61.53125 27.828125 61.53125 20.40625 
Q 61.53125 10.640625 54.890625 5.3125 
Q 48.25 0 35.984375 0 
L 9.8125 0 
z
" id="DejaVuSans-66"/>
     </defs>
     <g transform="translate(181 85.718437)scale(0.1 -0.1)">
      <use xlink:href="#DejaVuSans-116"/>
      <use x="39.208984" xlink:href="#DejaVuSans-97"/>
      <use x="100.488281" xlink:href="#DejaVuSans-121"/>
      <use x="159.667969" xlink:href="#DejaVuSans-108"/>
      <use x="187.451172" xlink:href="#DejaVuSans-111"/>
      <use x="248.632812" xlink:href="#DejaVuSans-114"/>
      <use x="289.746094" xlink:href="#DejaVuSans-102"/>
      <use x="324.951172" xlink:href="#DejaVuSans-111"/>
      <use x="386.132812" xlink:href="#DejaVuSans-32"/>
      <use x="417.919922" xlink:href="#DejaVuSans-110"/>
      <use x="481.298828" xlink:href="#DejaVuSans-111"/>
      <use x="542.480469" xlink:href="#DejaVuSans-66"/>
      <use x="611.083984" xlink:href="#DejaVuSans-78"/>
     </g>
    </g>
    <g id="line2d_26">
     <path d="M 153 96.896563 
L 173 96.896563 
" style="fill:none;stroke:#ff7f0e;stroke-linecap:square;stroke-width:1.5;"/>
    </g>
    <g id="line2d_27"/>
    <g id="text_18">
     <!-- taylorfo_abs noBN -->
     <defs>
      <path d="M 50.984375 -16.609375 
L 50.984375 -23.578125 
L -0.984375 -23.578125 
L -0.984375 -16.609375 
z
" id="DejaVuSans-95"/>
     </defs>
     <g transform="translate(181 100.396563)scale(0.1 -0.1)">
      <use xlink:href="#DejaVuSans-116"/>
      <use x="39.208984" xlink:href="#DejaVuSans-97"/>
      <use x="100.488281" xlink:href="#DejaVuSans-121"/>
      <use x="159.667969" xlink:href="#DejaVuSans-108"/>
      <use x="187.451172" xlink:href="#DejaVuSans-111"/>
      <use x="248.632812" xlink:href="#DejaVuSans-114"/>
      <use x="289.746094" xlink:href="#DejaVuSans-102"/>
      <use x="324.951172" xlink:href="#DejaVuSans-111"/>
      <use x="386.132812" xlink:href="#DejaVuSans-95"/>
      <use x="436.132812" xlink:href="#DejaVuSans-97"/>
      <use x="497.412109" xlink:href="#DejaVuSans-98"/>
      <use x="560.888672" xlink:href="#DejaVuSans-115"/>
      <use x="612.988281" xlink:href="#DejaVuSans-32"/>
      <use x="644.775391" xlink:href="#DejaVuSans-110"/>
      <use x="708.154297" xlink:href="#DejaVuSans-111"/>
      <use x="769.335938" xlink:href="#DejaVuSans-66"/>
      <use x="837.939453" xlink:href="#DejaVuSans-78"/>
     </g>
    </g>
    <g id="line2d_28">
     <path d="M 153 111.852812 
L 173 111.852812 
" style="fill:none;stroke:#2ca02c;stroke-linecap:square;stroke-width:1.5;"/>
    </g>
    <g id="line2d_29"/>
    <g id="text_19">
     <!-- taylorfo_sq noBN -->
     <defs>
      <path d="M 14.796875 27.296875 
Q 14.796875 17.390625 18.875 11.75 
Q 22.953125 6.109375 30.078125 6.109375 
Q 37.203125 6.109375 41.296875 11.75 
Q 45.40625 17.390625 45.40625 27.296875 
Q 45.40625 37.203125 41.296875 42.84375 
Q 37.203125 48.484375 30.078125 48.484375 
Q 22.953125 48.484375 18.875 42.84375 
Q 14.796875 37.203125 14.796875 27.296875 
z
M 45.40625 8.203125 
Q 42.578125 3.328125 38.25 0.953125 
Q 33.9375 -1.421875 27.875 -1.421875 
Q 17.96875 -1.421875 11.734375 6.484375 
Q 5.515625 14.40625 5.515625 27.296875 
Q 5.515625 40.1875 11.734375 48.09375 
Q 17.96875 56 27.875 56 
Q 33.9375 56 38.25 53.625 
Q 42.578125 51.265625 45.40625 46.390625 
L 45.40625 54.6875 
L 54.390625 54.6875 
L 54.390625 -20.796875 
L 45.40625 -20.796875 
z
" id="DejaVuSans-113"/>
     </defs>
     <g transform="translate(181 115.352812)scale(0.1 -0.1)">
      <use xlink:href="#DejaVuSans-116"/>
      <use x="39.208984" xlink:href="#DejaVuSans-97"/>
      <use x="100.488281" xlink:href="#DejaVuSans-121"/>
      <use x="159.667969" xlink:href="#DejaVuSans-108"/>
      <use x="187.451172" xlink:href="#DejaVuSans-111"/>
      <use x="248.632812" xlink:href="#DejaVuSans-114"/>
      <use x="289.746094" xlink:href="#DejaVuSans-102"/>
      <use x="324.951172" xlink:href="#DejaVuSans-111"/>
      <use x="386.132812" xlink:href="#DejaVuSans-95"/>
      <use x="436.132812" xlink:href="#DejaVuSans-115"/>
      <use x="488.232422" xlink:href="#DejaVuSans-113"/>
      <use x="551.708984" xlink:href="#DejaVuSans-32"/>
      <use x="583.496094" xlink:href="#DejaVuSans-110"/>
      <use x="646.875" xlink:href="#DejaVuSans-111"/>
      <use x="708.056641" xlink:href="#DejaVuSans-66"/>
      <use x="776.660156" xlink:href="#DejaVuSans-78"/>
     </g>
    </g>
    <g id="line2d_30">
     <path d="M 153 126.809062 
L 173 126.809062 
" style="fill:none;stroke:#d62728;stroke-dasharray:5.55,2.4;stroke-dashoffset:0;stroke-width:1.5;"/>
    </g>
    <g id="line2d_31"/>
    <g id="text_20">
     <!-- Molchanov_group noBN -->
     <defs>
      <path d="M 9.8125 72.90625 
L 24.515625 72.90625 
L 43.109375 23.296875 
L 61.8125 72.90625 
L 76.515625 72.90625 
L 76.515625 0 
L 66.890625 0 
L 66.890625 64.015625 
L 48.09375 14.015625 
L 38.1875 14.015625 
L 19.390625 64.015625 
L 19.390625 0 
L 9.8125 0 
z
" id="DejaVuSans-77"/>
      <path d="M 48.78125 52.59375 
L 48.78125 44.1875 
Q 44.96875 46.296875 41.140625 47.34375 
Q 37.3125 48.390625 33.40625 48.390625 
Q 24.65625 48.390625 19.8125 42.84375 
Q 14.984375 37.3125 14.984375 27.296875 
Q 14.984375 17.28125 19.8125 11.734375 
Q 24.65625 6.203125 33.40625 6.203125 
Q 37.3125 6.203125 41.140625 7.25 
Q 44.96875 8.296875 48.78125 10.40625 
L 48.78125 2.09375 
Q 45.015625 0.34375 40.984375 -0.53125 
Q 36.96875 -1.421875 32.421875 -1.421875 
Q 20.0625 -1.421875 12.78125 6.34375 
Q 5.515625 14.109375 5.515625 27.296875 
Q 5.515625 40.671875 12.859375 48.328125 
Q 20.21875 56 33.015625 56 
Q 37.15625 56 41.109375 55.140625 
Q 45.0625 54.296875 48.78125 52.59375 
z
" id="DejaVuSans-99"/>
      <path d="M 54.890625 33.015625 
L 54.890625 0 
L 45.90625 0 
L 45.90625 32.71875 
Q 45.90625 40.484375 42.875 44.328125 
Q 39.84375 48.1875 33.796875 48.1875 
Q 26.515625 48.1875 22.3125 43.546875 
Q 18.109375 38.921875 18.109375 30.90625 
L 18.109375 0 
L 9.078125 0 
L 9.078125 75.984375 
L 18.109375 75.984375 
L 18.109375 46.1875 
Q 21.34375 51.125 25.703125 53.5625 
Q 30.078125 56 35.796875 56 
Q 45.21875 56 50.046875 50.171875 
Q 54.890625 44.34375 54.890625 33.015625 
z
" id="DejaVuSans-104"/>
      <path d="M 2.984375 54.6875 
L 12.5 54.6875 
L 29.59375 8.796875 
L 46.6875 54.6875 
L 56.203125 54.6875 
L 35.6875 0 
L 23.484375 0 
z
" id="DejaVuSans-118"/>
      <path d="M 45.40625 27.984375 
Q 45.40625 37.75 41.375 43.109375 
Q 37.359375 48.484375 30.078125 48.484375 
Q 22.859375 48.484375 18.828125 43.109375 
Q 14.796875 37.75 14.796875 27.984375 
Q 14.796875 18.265625 18.828125 12.890625 
Q 22.859375 7.515625 30.078125 7.515625 
Q 37.359375 7.515625 41.375 12.890625 
Q 45.40625 18.265625 45.40625 27.984375 
z
M 54.390625 6.78125 
Q 54.390625 -7.171875 48.1875 -13.984375 
Q 42 -20.796875 29.203125 -20.796875 
Q 24.46875 -20.796875 20.265625 -20.09375 
Q 16.0625 -19.390625 12.109375 -17.921875 
L 12.109375 -9.1875 
Q 16.0625 -11.328125 19.921875 -12.34375 
Q 23.78125 -13.375 27.78125 -13.375 
Q 36.625 -13.375 41.015625 -8.765625 
Q 45.40625 -4.15625 45.40625 5.171875 
L 45.40625 9.625 
Q 42.625 4.78125 38.28125 2.390625 
Q 33.9375 0 27.875 0 
Q 17.828125 0 11.671875 7.65625 
Q 5.515625 15.328125 5.515625 27.984375 
Q 5.515625 40.671875 11.671875 48.328125 
Q 17.828125 56 27.875 56 
Q 33.9375 56 38.28125 53.609375 
Q 42.625 51.21875 45.40625 46.390625 
L 45.40625 54.6875 
L 54.390625 54.6875 
z
" id="DejaVuSans-103"/>
     </defs>
     <g transform="translate(181 130.309062)scale(0.1 -0.1)">
      <use xlink:href="#DejaVuSans-77"/>
      <use x="86.279297" xlink:href="#DejaVuSans-111"/>
      <use x="147.460938" xlink:href="#DejaVuSans-108"/>
      <use x="175.244141" xlink:href="#DejaVuSans-99"/>
      <use x="230.224609" xlink:href="#DejaVuSans-104"/>
      <use x="293.603516" xlink:href="#DejaVuSans-97"/>
      <use x="354.882812" xlink:href="#DejaVuSans-110"/>
      <use x="418.261719" xlink:href="#DejaVuSans-111"/>
      <use x="479.443359" xlink:href="#DejaVuSans-118"/>
      <use x="538.623047" xlink:href="#DejaVuSans-95"/>
      <use x="588.623047" xlink:href="#DejaVuSans-103"/>
      <use x="652.099609" xlink:href="#DejaVuSans-114"/>
      <use x="690.962891" xlink:href="#DejaVuSans-111"/>
      <use x="752.144531" xlink:href="#DejaVuSans-117"/>
      <use x="815.523438" xlink:href="#DejaVuSans-112"/>
      <use x="879" xlink:href="#DejaVuSans-32"/>
      <use x="910.787109" xlink:href="#DejaVuSans-110"/>
      <use x="974.166016" xlink:href="#DejaVuSans-111"/>
      <use x="1035.347656" xlink:href="#DejaVuSans-66"/>
      <use x="1103.951172" xlink:href="#DejaVuSans-78"/>
     </g>
    </g>
    <g id="line2d_32">
     <path d="M 153 141.765312 
L 173 141.765312 
" style="fill:none;stroke:#9467bd;stroke-linecap:square;stroke-width:1.5;"/>
    </g>
    <g id="line2d_33"/>
    <g id="text_21">
     <!-- taylorfo BN -->
     <g transform="translate(181 145.265312)scale(0.1 -0.1)">
      <use xlink:href="#DejaVuSans-116"/>
      <use x="39.208984" xlink:href="#DejaVuSans-97"/>
      <use x="100.488281" xlink:href="#DejaVuSans-121"/>
      <use x="159.667969" xlink:href="#DejaVuSans-108"/>
      <use x="187.451172" xlink:href="#DejaVuSans-111"/>
      <use x="248.632812" xlink:href="#DejaVuSans-114"/>
      <use x="289.746094" xlink:href="#DejaVuSans-102"/>
      <use x="324.951172" xlink:href="#DejaVuSans-111"/>
      <use x="386.132812" xlink:href="#DejaVuSans-32"/>
      <use x="417.919922" xlink:href="#DejaVuSans-66"/>
      <use x="486.523438" xlink:href="#DejaVuSans-78"/>
     </g>
    </g>
    <g id="line2d_34">
     <path d="M 153 156.443437 
L 173 156.443437 
" style="fill:none;stroke:#8c564b;stroke-linecap:square;stroke-width:1.5;"/>
    </g>
    <g id="line2d_35"/>
    <g id="text_22">
     <!-- taylorfo_abs BN -->
     <g transform="translate(181 159.943437)scale(0.1 -0.1)">
      <use xlink:href="#DejaVuSans-116"/>
      <use x="39.208984" xlink:href="#DejaVuSans-97"/>
      <use x="100.488281" xlink:href="#DejaVuSans-121"/>
      <use x="159.667969" xlink:href="#DejaVuSans-108"/>
      <use x="187.451172" xlink:href="#DejaVuSans-111"/>
      <use x="248.632812" xlink:href="#DejaVuSans-114"/>
      <use x="289.746094" xlink:href="#DejaVuSans-102"/>
      <use x="324.951172" xlink:href="#DejaVuSans-111"/>
      <use x="386.132812" xlink:href="#DejaVuSans-95"/>
      <use x="436.132812" xlink:href="#DejaVuSans-97"/>
      <use x="497.412109" xlink:href="#DejaVuSans-98"/>
      <use x="560.888672" xlink:href="#DejaVuSans-115"/>
      <use x="612.988281" xlink:href="#DejaVuSans-32"/>
      <use x="644.775391" xlink:href="#DejaVuSans-66"/>
      <use x="713.378906" xlink:href="#DejaVuSans-78"/>
     </g>
    </g>
    <g id="line2d_36">
     <path d="M 153 171.399687 
L 173 171.399687 
" style="fill:none;stroke:#e377c2;stroke-linecap:square;stroke-width:1.5;"/>
    </g>
    <g id="line2d_37"/>
    <g id="text_23">
     <!-- taylorfo_sq BN -->
     <g transform="translate(181 174.899687)scale(0.1 -0.1)">
      <use xlink:href="#DejaVuSans-116"/>
      <use x="39.208984" xlink:href="#DejaVuSans-97"/>
      <use x="100.488281" xlink:href="#DejaVuSans-121"/>
      <use x="159.667969" xlink:href="#DejaVuSans-108"/>
      <use x="187.451172" xlink:href="#DejaVuSans-111"/>
      <use x="248.632812" xlink:href="#DejaVuSans-114"/>
      <use x="289.746094" xlink:href="#DejaVuSans-102"/>
      <use x="324.951172" xlink:href="#DejaVuSans-111"/>
      <use x="386.132812" xlink:href="#DejaVuSans-95"/>
      <use x="436.132812" xlink:href="#DejaVuSans-115"/>
      <use x="488.232422" xlink:href="#DejaVuSans-113"/>
      <use x="551.708984" xlink:href="#DejaVuSans-32"/>
      <use x="583.496094" xlink:href="#DejaVuSans-66"/>
      <use x="652.099609" xlink:href="#DejaVuSans-78"/>
     </g>
    </g>
    <g id="line2d_38">
     <path d="M 153 186.355937 
L 173 186.355937 
" style="fill:none;stroke:#7f7f7f;stroke-dasharray:5.55,2.4;stroke-dashoffset:0;stroke-width:1.5;"/>
    </g>
    <g id="line2d_39"/>
    <g id="text_24">
     <!-- Molchanov_group BN -->
     <g transform="translate(181 189.855937)scale(0.1 -0.1)">
      <use xlink:href="#DejaVuSans-77"/>
      <use x="86.279297" xlink:href="#DejaVuSans-111"/>
      <use x="147.460938" xlink:href="#DejaVuSans-108"/>
      <use x="175.244141" xlink:href="#DejaVuSans-99"/>
      <use x="230.224609" xlink:href="#DejaVuSans-104"/>
      <use x="293.603516" xlink:href="#DejaVuSans-97"/>
      <use x="354.882812" xlink:href="#DejaVuSans-110"/>
      <use x="418.261719" xlink:href="#DejaVuSans-111"/>
      <use x="479.443359" xlink:href="#DejaVuSans-118"/>
      <use x="538.623047" xlink:href="#DejaVuSans-95"/>
      <use x="588.623047" xlink:href="#DejaVuSans-103"/>
      <use x="652.099609" xlink:href="#DejaVuSans-114"/>
      <use x="690.962891" xlink:href="#DejaVuSans-111"/>
      <use x="752.144531" xlink:href="#DejaVuSans-117"/>
      <use x="815.523438" xlink:href="#DejaVuSans-112"/>
      <use x="879" xlink:href="#DejaVuSans-32"/>
      <use x="910.787109" xlink:href="#DejaVuSans-66"/>
      <use x="979.390625" xlink:href="#DejaVuSans-78"/>
     </g>
    </g>
    <g id="line2d_40">
     <path d="M 153 201.312187 
L 173 201.312187 
" style="fill:none;stroke:#bcbd22;stroke-dasharray:5.55,2.4;stroke-dashoffset:0;stroke-width:1.5;"/>
    </g>
    <g id="line2d_41"/>
    <g id="text_25">
     <!-- Molchanov_BN BN -->
     <g transform="translate(181 204.812187)scale(0.1 -0.1)">
      <use xlink:href="#DejaVuSans-77"/>
      <use x="86.279297" xlink:href="#DejaVuSans-111"/>
      <use x="147.460938" xlink:href="#DejaVuSans-108"/>
      <use x="175.244141" xlink:href="#DejaVuSans-99"/>
      <use x="230.224609" xlink:href="#DejaVuSans-104"/>
      <use x="293.603516" xlink:href="#DejaVuSans-97"/>
      <use x="354.882812" xlink:href="#DejaVuSans-110"/>
      <use x="418.261719" xlink:href="#DejaVuSans-111"/>
      <use x="479.443359" xlink:href="#DejaVuSans-118"/>
      <use x="538.623047" xlink:href="#DejaVuSans-95"/>
      <use x="588.623047" xlink:href="#DejaVuSans-66"/>
      <use x="657.226562" xlink:href="#DejaVuSans-78"/>
      <use x="732.03125" xlink:href="#DejaVuSans-32"/>
      <use x="763.818359" xlink:href="#DejaVuSans-66"/>
      <use x="832.421875" xlink:href="#DejaVuSans-78"/>
     </g>
    </g>
   </g>
  </g>
 </g>
 <defs>
  <clipPath id="pb7e11e61b7">
   <rect height="434.88" width="892.8" x="144" y="69.12"/>
  </clipPath>
 </defs>
</svg>
