<?xml version="1.0" encoding="utf-8" standalone="no"?>
<!DOCTYPE svg PUBLIC "-//W3C//DTD SVG 1.1//EN"
  "http://www.w3.org/Graphics/SVG/1.1/DTD/svg11.dtd">
<!-- Created with matplotlib (https://matplotlib.org/) -->
<svg height="576pt" version="1.1" viewBox="0 0 1152 576" width="1152pt" xmlns="http://www.w3.org/2000/svg" xmlns:xlink="http://www.w3.org/1999/xlink">
 <defs>
  <style type="text/css">
*{stroke-linecap:butt;stroke-linejoin:round;}
  </style>
 </defs>
 <g id="figure_1">
  <g id="patch_1">
   <path d="M 0 576 
L 1152 576 
L 1152 0 
L 0 0 
z
" style="fill:#ffffff;"/>
  </g>
  <g id="axes_1">
   <g id="patch_2">
    <path d="M 144 504 
L 1036.8 504 
L 1036.8 69.12 
L 144 69.12 
z
" style="fill:#ffffff;"/>
   </g>
   <g id="matplotlib.axis_1">
    <g id="xtick_1">
     <g id="line2d_1">
      <defs>
       <path d="M 0 0 
L 0 3.5 
" id="m11628018b6" style="stroke:#000000;stroke-width:0.8;"/>
      </defs>
      <g>
       <use style="stroke:#000000;stroke-width:0.8;" x="182.547642" xlink:href="#m11628018b6" y="504"/>
      </g>
     </g>
     <g id="text_1">
      <!-- 0 -->
      <defs>
       <path d="M 31.78125 66.40625 
Q 24.171875 66.40625 20.328125 58.90625 
Q 16.5 51.421875 16.5 36.375 
Q 16.5 21.390625 20.328125 13.890625 
Q 24.171875 6.390625 31.78125 6.390625 
Q 39.453125 6.390625 43.28125 13.890625 
Q 47.125 21.390625 47.125 36.375 
Q 47.125 51.421875 43.28125 58.90625 
Q 39.453125 66.40625 31.78125 66.40625 
z
M 31.78125 74.21875 
Q 44.046875 74.21875 50.515625 64.515625 
Q 56.984375 54.828125 56.984375 36.375 
Q 56.984375 17.96875 50.515625 8.265625 
Q 44.046875 -1.421875 31.78125 -1.421875 
Q 19.53125 -1.421875 13.0625 8.265625 
Q 6.59375 17.96875 6.59375 36.375 
Q 6.59375 54.828125 13.0625 64.515625 
Q 19.53125 74.21875 31.78125 74.21875 
z
" id="DejaVuSans-48"/>
      </defs>
      <g transform="translate(179.366392 518.598438)scale(0.1 -0.1)">
       <use xlink:href="#DejaVuSans-48"/>
      </g>
     </g>
    </g>
    <g id="xtick_2">
     <g id="line2d_2">
      <g>
       <use style="stroke:#000000;stroke-width:0.8;" x="284.256459" xlink:href="#m11628018b6" y="504"/>
      </g>
     </g>
     <g id="text_2">
      <!-- 50 -->
      <defs>
       <path d="M 10.796875 72.90625 
L 49.515625 72.90625 
L 49.515625 64.59375 
L 19.828125 64.59375 
L 19.828125 46.734375 
Q 21.96875 47.46875 24.109375 47.828125 
Q 26.265625 48.1875 28.421875 48.1875 
Q 40.625 48.1875 47.75 41.5 
Q 54.890625 34.8125 54.890625 23.390625 
Q 54.890625 11.625 47.5625 5.09375 
Q 40.234375 -1.421875 26.90625 -1.421875 
Q 22.3125 -1.421875 17.546875 -0.640625 
Q 12.796875 0.140625 7.71875 1.703125 
L 7.71875 11.625 
Q 12.109375 9.234375 16.796875 8.0625 
Q 21.484375 6.890625 26.703125 6.890625 
Q 35.15625 6.890625 40.078125 11.328125 
Q 45.015625 15.765625 45.015625 23.390625 
Q 45.015625 31 40.078125 35.4375 
Q 35.15625 39.890625 26.703125 39.890625 
Q 22.75 39.890625 18.8125 39.015625 
Q 14.890625 38.140625 10.796875 36.28125 
z
" id="DejaVuSans-53"/>
      </defs>
      <g transform="translate(277.893959 518.598438)scale(0.1 -0.1)">
       <use xlink:href="#DejaVuSans-53"/>
       <use x="63.623047" xlink:href="#DejaVuSans-48"/>
      </g>
     </g>
    </g>
    <g id="xtick_3">
     <g id="line2d_3">
      <g>
       <use style="stroke:#000000;stroke-width:0.8;" x="385.965277" xlink:href="#m11628018b6" y="504"/>
      </g>
     </g>
     <g id="text_3">
      <!-- 100 -->
      <defs>
       <path d="M 12.40625 8.296875 
L 28.515625 8.296875 
L 28.515625 63.921875 
L 10.984375 60.40625 
L 10.984375 69.390625 
L 28.421875 72.90625 
L 38.28125 72.90625 
L 38.28125 8.296875 
L 54.390625 8.296875 
L 54.390625 0 
L 12.40625 0 
z
" id="DejaVuSans-49"/>
      </defs>
      <g transform="translate(376.421527 518.598438)scale(0.1 -0.1)">
       <use xlink:href="#DejaVuSans-49"/>
       <use x="63.623047" xlink:href="#DejaVuSans-48"/>
       <use x="127.246094" xlink:href="#DejaVuSans-48"/>
      </g>
     </g>
    </g>
    <g id="xtick_4">
     <g id="line2d_4">
      <g>
       <use style="stroke:#000000;stroke-width:0.8;" x="487.674094" xlink:href="#m11628018b6" y="504"/>
      </g>
     </g>
     <g id="text_4">
      <!-- 150 -->
      <g transform="translate(478.130344 518.598438)scale(0.1 -0.1)">
       <use xlink:href="#DejaVuSans-49"/>
       <use x="63.623047" xlink:href="#DejaVuSans-53"/>
       <use x="127.246094" xlink:href="#DejaVuSans-48"/>
      </g>
     </g>
    </g>
    <g id="xtick_5">
     <g id="line2d_5">
      <g>
       <use style="stroke:#000000;stroke-width:0.8;" x="589.382912" xlink:href="#m11628018b6" y="504"/>
      </g>
     </g>
     <g id="text_5">
      <!-- 200 -->
      <defs>
       <path d="M 19.1875 8.296875 
L 53.609375 8.296875 
L 53.609375 0 
L 7.328125 0 
L 7.328125 8.296875 
Q 12.9375 14.109375 22.625 23.890625 
Q 32.328125 33.6875 34.8125 36.53125 
Q 39.546875 41.84375 41.421875 45.53125 
Q 43.3125 49.21875 43.3125 52.78125 
Q 43.3125 58.59375 39.234375 62.25 
Q 35.15625 65.921875 28.609375 65.921875 
Q 23.96875 65.921875 18.8125 64.3125 
Q 13.671875 62.703125 7.8125 59.421875 
L 7.8125 69.390625 
Q 13.765625 71.78125 18.9375 73 
Q 24.125 74.21875 28.421875 74.21875 
Q 39.75 74.21875 46.484375 68.546875 
Q 53.21875 62.890625 53.21875 53.421875 
Q 53.21875 48.921875 51.53125 44.890625 
Q 49.859375 40.875 45.40625 35.40625 
Q 44.1875 33.984375 37.640625 27.21875 
Q 31.109375 20.453125 19.1875 8.296875 
z
" id="DejaVuSans-50"/>
      </defs>
      <g transform="translate(579.839162 518.598438)scale(0.1 -0.1)">
       <use xlink:href="#DejaVuSans-50"/>
       <use x="63.623047" xlink:href="#DejaVuSans-48"/>
       <use x="127.246094" xlink:href="#DejaVuSans-48"/>
      </g>
     </g>
    </g>
    <g id="xtick_6">
     <g id="line2d_6">
      <g>
       <use style="stroke:#000000;stroke-width:0.8;" x="691.091729" xlink:href="#m11628018b6" y="504"/>
      </g>
     </g>
     <g id="text_6">
      <!-- 250 -->
      <g transform="translate(681.547979 518.598438)scale(0.1 -0.1)">
       <use xlink:href="#DejaVuSans-50"/>
       <use x="63.623047" xlink:href="#DejaVuSans-53"/>
       <use x="127.246094" xlink:href="#DejaVuSans-48"/>
      </g>
     </g>
    </g>
    <g id="xtick_7">
     <g id="line2d_7">
      <g>
       <use style="stroke:#000000;stroke-width:0.8;" x="792.800547" xlink:href="#m11628018b6" y="504"/>
      </g>
     </g>
     <g id="text_7">
      <!-- 300 -->
      <defs>
       <path d="M 40.578125 39.3125 
Q 47.65625 37.796875 51.625 33 
Q 55.609375 28.21875 55.609375 21.1875 
Q 55.609375 10.40625 48.1875 4.484375 
Q 40.765625 -1.421875 27.09375 -1.421875 
Q 22.515625 -1.421875 17.65625 -0.515625 
Q 12.796875 0.390625 7.625 2.203125 
L 7.625 11.71875 
Q 11.71875 9.328125 16.59375 8.109375 
Q 21.484375 6.890625 26.8125 6.890625 
Q 36.078125 6.890625 40.9375 10.546875 
Q 45.796875 14.203125 45.796875 21.1875 
Q 45.796875 27.640625 41.28125 31.265625 
Q 36.765625 34.90625 28.71875 34.90625 
L 20.21875 34.90625 
L 20.21875 43.015625 
L 29.109375 43.015625 
Q 36.375 43.015625 40.234375 45.921875 
Q 44.09375 48.828125 44.09375 54.296875 
Q 44.09375 59.90625 40.109375 62.90625 
Q 36.140625 65.921875 28.71875 65.921875 
Q 24.65625 65.921875 20.015625 65.03125 
Q 15.375 64.15625 9.8125 62.3125 
L 9.8125 71.09375 
Q 15.4375 72.65625 20.34375 73.4375 
Q 25.25 74.21875 29.59375 74.21875 
Q 40.828125 74.21875 47.359375 69.109375 
Q 53.90625 64.015625 53.90625 55.328125 
Q 53.90625 49.265625 50.4375 45.09375 
Q 46.96875 40.921875 40.578125 39.3125 
z
" id="DejaVuSans-51"/>
      </defs>
      <g transform="translate(783.256797 518.598438)scale(0.1 -0.1)">
       <use xlink:href="#DejaVuSans-51"/>
       <use x="63.623047" xlink:href="#DejaVuSans-48"/>
       <use x="127.246094" xlink:href="#DejaVuSans-48"/>
      </g>
     </g>
    </g>
    <g id="xtick_8">
     <g id="line2d_8">
      <g>
       <use style="stroke:#000000;stroke-width:0.8;" x="894.509364" xlink:href="#m11628018b6" y="504"/>
      </g>
     </g>
     <g id="text_8">
      <!-- 350 -->
      <g transform="translate(884.965614 518.598438)scale(0.1 -0.1)">
       <use xlink:href="#DejaVuSans-51"/>
       <use x="63.623047" xlink:href="#DejaVuSans-53"/>
       <use x="127.246094" xlink:href="#DejaVuSans-48"/>
      </g>
     </g>
    </g>
    <g id="xtick_9">
     <g id="line2d_9">
      <g>
       <use style="stroke:#000000;stroke-width:0.8;" x="996.218182" xlink:href="#m11628018b6" y="504"/>
      </g>
     </g>
     <g id="text_9">
      <!-- 400 -->
      <defs>
       <path d="M 37.796875 64.3125 
L 12.890625 25.390625 
L 37.796875 25.390625 
z
M 35.203125 72.90625 
L 47.609375 72.90625 
L 47.609375 25.390625 
L 58.015625 25.390625 
L 58.015625 17.1875 
L 47.609375 17.1875 
L 47.609375 0 
L 37.796875 0 
L 37.796875 17.1875 
L 4.890625 17.1875 
L 4.890625 26.703125 
z
" id="DejaVuSans-52"/>
      </defs>
      <g transform="translate(986.674432 518.598438)scale(0.1 -0.1)">
       <use xlink:href="#DejaVuSans-52"/>
       <use x="63.623047" xlink:href="#DejaVuSans-48"/>
       <use x="127.246094" xlink:href="#DejaVuSans-48"/>
      </g>
     </g>
    </g>
    <g id="text_10">
     <!-- Number of Neurons pruned -->
     <defs>
      <path d="M 9.8125 72.90625 
L 23.09375 72.90625 
L 55.421875 11.921875 
L 55.421875 72.90625 
L 64.984375 72.90625 
L 64.984375 0 
L 51.703125 0 
L 19.390625 60.984375 
L 19.390625 0 
L 9.8125 0 
z
" id="DejaVuSans-78"/>
      <path d="M 8.5 21.578125 
L 8.5 54.6875 
L 17.484375 54.6875 
L 17.484375 21.921875 
Q 17.484375 14.15625 20.5 10.265625 
Q 23.53125 6.390625 29.59375 6.390625 
Q 36.859375 6.390625 41.078125 11.03125 
Q 45.3125 15.671875 45.3125 23.6875 
L 45.3125 54.6875 
L 54.296875 54.6875 
L 54.296875 0 
L 45.3125 0 
L 45.3125 8.40625 
Q 42.046875 3.421875 37.71875 1 
Q 33.40625 -1.421875 27.6875 -1.421875 
Q 18.265625 -1.421875 13.375 4.4375 
Q 8.5 10.296875 8.5 21.578125 
z
M 31.109375 56 
z
" id="DejaVuSans-117"/>
      <path d="M 52 44.1875 
Q 55.375 50.25 60.0625 53.125 
Q 64.75 56 71.09375 56 
Q 79.640625 56 84.28125 50.015625 
Q 88.921875 44.046875 88.921875 33.015625 
L 88.921875 0 
L 79.890625 0 
L 79.890625 32.71875 
Q 79.890625 40.578125 77.09375 44.375 
Q 74.3125 48.1875 68.609375 48.1875 
Q 61.625 48.1875 57.5625 43.546875 
Q 53.515625 38.921875 53.515625 30.90625 
L 53.515625 0 
L 44.484375 0 
L 44.484375 32.71875 
Q 44.484375 40.625 41.703125 44.40625 
Q 38.921875 48.1875 33.109375 48.1875 
Q 26.21875 48.1875 22.15625 43.53125 
Q 18.109375 38.875 18.109375 30.90625 
L 18.109375 0 
L 9.078125 0 
L 9.078125 54.6875 
L 18.109375 54.6875 
L 18.109375 46.1875 
Q 21.1875 51.21875 25.484375 53.609375 
Q 29.78125 56 35.6875 56 
Q 41.65625 56 45.828125 52.96875 
Q 50 49.953125 52 44.1875 
z
" id="DejaVuSans-109"/>
      <path d="M 48.6875 27.296875 
Q 48.6875 37.203125 44.609375 42.84375 
Q 40.53125 48.484375 33.40625 48.484375 
Q 26.265625 48.484375 22.1875 42.84375 
Q 18.109375 37.203125 18.109375 27.296875 
Q 18.109375 17.390625 22.1875 11.75 
Q 26.265625 6.109375 33.40625 6.109375 
Q 40.53125 6.109375 44.609375 11.75 
Q 48.6875 17.390625 48.6875 27.296875 
z
M 18.109375 46.390625 
Q 20.953125 51.265625 25.265625 53.625 
Q 29.59375 56 35.59375 56 
Q 45.5625 56 51.78125 48.09375 
Q 58.015625 40.1875 58.015625 27.296875 
Q 58.015625 14.40625 51.78125 6.484375 
Q 45.5625 -1.421875 35.59375 -1.421875 
Q 29.59375 -1.421875 25.265625 0.953125 
Q 20.953125 3.328125 18.109375 8.203125 
L 18.109375 0 
L 9.078125 0 
L 9.078125 75.984375 
L 18.109375 75.984375 
z
" id="DejaVuSans-98"/>
      <path d="M 56.203125 29.59375 
L 56.203125 25.203125 
L 14.890625 25.203125 
Q 15.484375 15.921875 20.484375 11.0625 
Q 25.484375 6.203125 34.421875 6.203125 
Q 39.59375 6.203125 44.453125 7.46875 
Q 49.3125 8.734375 54.109375 11.28125 
L 54.109375 2.78125 
Q 49.265625 0.734375 44.1875 -0.34375 
Q 39.109375 -1.421875 33.890625 -1.421875 
Q 20.796875 -1.421875 13.15625 6.1875 
Q 5.515625 13.8125 5.515625 26.8125 
Q 5.515625 40.234375 12.765625 48.109375 
Q 20.015625 56 32.328125 56 
Q 43.359375 56 49.78125 48.890625 
Q 56.203125 41.796875 56.203125 29.59375 
z
M 47.21875 32.234375 
Q 47.125 39.59375 43.09375 43.984375 
Q 39.0625 48.390625 32.421875 48.390625 
Q 24.90625 48.390625 20.390625 44.140625 
Q 15.875 39.890625 15.1875 32.171875 
z
" id="DejaVuSans-101"/>
      <path d="M 41.109375 46.296875 
Q 39.59375 47.171875 37.8125 47.578125 
Q 36.03125 48 33.890625 48 
Q 26.265625 48 22.1875 43.046875 
Q 18.109375 38.09375 18.109375 28.8125 
L 18.109375 0 
L 9.078125 0 
L 9.078125 54.6875 
L 18.109375 54.6875 
L 18.109375 46.1875 
Q 20.953125 51.171875 25.484375 53.578125 
Q 30.03125 56 36.53125 56 
Q 37.453125 56 38.578125 55.875 
Q 39.703125 55.765625 41.0625 55.515625 
z
" id="DejaVuSans-114"/>
      <path id="DejaVuSans-32"/>
      <path d="M 30.609375 48.390625 
Q 23.390625 48.390625 19.1875 42.75 
Q 14.984375 37.109375 14.984375 27.296875 
Q 14.984375 17.484375 19.15625 11.84375 
Q 23.34375 6.203125 30.609375 6.203125 
Q 37.796875 6.203125 41.984375 11.859375 
Q 46.1875 17.53125 46.1875 27.296875 
Q 46.1875 37.015625 41.984375 42.703125 
Q 37.796875 48.390625 30.609375 48.390625 
z
M 30.609375 56 
Q 42.328125 56 49.015625 48.375 
Q 55.71875 40.765625 55.71875 27.296875 
Q 55.71875 13.875 49.015625 6.21875 
Q 42.328125 -1.421875 30.609375 -1.421875 
Q 18.84375 -1.421875 12.171875 6.21875 
Q 5.515625 13.875 5.515625 27.296875 
Q 5.515625 40.765625 12.171875 48.375 
Q 18.84375 56 30.609375 56 
z
" id="DejaVuSans-111"/>
      <path d="M 37.109375 75.984375 
L 37.109375 68.5 
L 28.515625 68.5 
Q 23.6875 68.5 21.796875 66.546875 
Q 19.921875 64.59375 19.921875 59.515625 
L 19.921875 54.6875 
L 34.71875 54.6875 
L 34.71875 47.703125 
L 19.921875 47.703125 
L 19.921875 0 
L 10.890625 0 
L 10.890625 47.703125 
L 2.296875 47.703125 
L 2.296875 54.6875 
L 10.890625 54.6875 
L 10.890625 58.5 
Q 10.890625 67.625 15.140625 71.796875 
Q 19.390625 75.984375 28.609375 75.984375 
z
" id="DejaVuSans-102"/>
      <path d="M 54.890625 33.015625 
L 54.890625 0 
L 45.90625 0 
L 45.90625 32.71875 
Q 45.90625 40.484375 42.875 44.328125 
Q 39.84375 48.1875 33.796875 48.1875 
Q 26.515625 48.1875 22.3125 43.546875 
Q 18.109375 38.921875 18.109375 30.90625 
L 18.109375 0 
L 9.078125 0 
L 9.078125 54.6875 
L 18.109375 54.6875 
L 18.109375 46.1875 
Q 21.34375 51.125 25.703125 53.5625 
Q 30.078125 56 35.796875 56 
Q 45.21875 56 50.046875 50.171875 
Q 54.890625 44.34375 54.890625 33.015625 
z
" id="DejaVuSans-110"/>
      <path d="M 44.28125 53.078125 
L 44.28125 44.578125 
Q 40.484375 46.53125 36.375 47.5 
Q 32.28125 48.484375 27.875 48.484375 
Q 21.1875 48.484375 17.84375 46.4375 
Q 14.5 44.390625 14.5 40.28125 
Q 14.5 37.15625 16.890625 35.375 
Q 19.28125 33.59375 26.515625 31.984375 
L 29.59375 31.296875 
Q 39.15625 29.25 43.1875 25.515625 
Q 47.21875 21.78125 47.21875 15.09375 
Q 47.21875 7.46875 41.1875 3.015625 
Q 35.15625 -1.421875 24.609375 -1.421875 
Q 20.21875 -1.421875 15.453125 -0.5625 
Q 10.6875 0.296875 5.421875 2 
L 5.421875 11.28125 
Q 10.40625 8.6875 15.234375 7.390625 
Q 20.0625 6.109375 24.8125 6.109375 
Q 31.15625 6.109375 34.5625 8.28125 
Q 37.984375 10.453125 37.984375 14.40625 
Q 37.984375 18.0625 35.515625 20.015625 
Q 33.0625 21.96875 24.703125 23.78125 
L 21.578125 24.515625 
Q 13.234375 26.265625 9.515625 29.90625 
Q 5.8125 33.546875 5.8125 39.890625 
Q 5.8125 47.609375 11.28125 51.796875 
Q 16.75 56 26.8125 56 
Q 31.78125 56 36.171875 55.265625 
Q 40.578125 54.546875 44.28125 53.078125 
z
" id="DejaVuSans-115"/>
      <path d="M 18.109375 8.203125 
L 18.109375 -20.796875 
L 9.078125 -20.796875 
L 9.078125 54.6875 
L 18.109375 54.6875 
L 18.109375 46.390625 
Q 20.953125 51.265625 25.265625 53.625 
Q 29.59375 56 35.59375 56 
Q 45.5625 56 51.78125 48.09375 
Q 58.015625 40.1875 58.015625 27.296875 
Q 58.015625 14.40625 51.78125 6.484375 
Q 45.5625 -1.421875 35.59375 -1.421875 
Q 29.59375 -1.421875 25.265625 0.953125 
Q 20.953125 3.328125 18.109375 8.203125 
z
M 48.6875 27.296875 
Q 48.6875 37.203125 44.609375 42.84375 
Q 40.53125 48.484375 33.40625 48.484375 
Q 26.265625 48.484375 22.1875 42.84375 
Q 18.109375 37.203125 18.109375 27.296875 
Q 18.109375 17.390625 22.1875 11.75 
Q 26.265625 6.109375 33.40625 6.109375 
Q 40.53125 6.109375 44.609375 11.75 
Q 48.6875 17.390625 48.6875 27.296875 
z
" id="DejaVuSans-112"/>
      <path d="M 45.40625 46.390625 
L 45.40625 75.984375 
L 54.390625 75.984375 
L 54.390625 0 
L 45.40625 0 
L 45.40625 8.203125 
Q 42.578125 3.328125 38.25 0.953125 
Q 33.9375 -1.421875 27.875 -1.421875 
Q 17.96875 -1.421875 11.734375 6.484375 
Q 5.515625 14.40625 5.515625 27.296875 
Q 5.515625 40.1875 11.734375 48.09375 
Q 17.96875 56 27.875 56 
Q 33.9375 56 38.25 53.625 
Q 42.578125 51.265625 45.40625 46.390625 
z
M 14.796875 27.296875 
Q 14.796875 17.390625 18.875 11.75 
Q 22.953125 6.109375 30.078125 6.109375 
Q 37.203125 6.109375 41.296875 11.75 
Q 45.40625 17.390625 45.40625 27.296875 
Q 45.40625 37.203125 41.296875 42.84375 
Q 37.203125 48.484375 30.078125 48.484375 
Q 22.953125 48.484375 18.875 42.84375 
Q 14.796875 37.203125 14.796875 27.296875 
z
" id="DejaVuSans-100"/>
     </defs>
     <g transform="translate(522.147656 532.276562)scale(0.1 -0.1)">
      <use xlink:href="#DejaVuSans-78"/>
      <use x="74.804688" xlink:href="#DejaVuSans-117"/>
      <use x="138.183594" xlink:href="#DejaVuSans-109"/>
      <use x="235.595703" xlink:href="#DejaVuSans-98"/>
      <use x="299.072266" xlink:href="#DejaVuSans-101"/>
      <use x="360.595703" xlink:href="#DejaVuSans-114"/>
      <use x="401.708984" xlink:href="#DejaVuSans-32"/>
      <use x="433.496094" xlink:href="#DejaVuSans-111"/>
      <use x="494.677734" xlink:href="#DejaVuSans-102"/>
      <use x="529.882812" xlink:href="#DejaVuSans-32"/>
      <use x="561.669922" xlink:href="#DejaVuSans-78"/>
      <use x="636.474609" xlink:href="#DejaVuSans-101"/>
      <use x="697.998047" xlink:href="#DejaVuSans-117"/>
      <use x="761.376953" xlink:href="#DejaVuSans-114"/>
      <use x="800.240234" xlink:href="#DejaVuSans-111"/>
      <use x="861.421875" xlink:href="#DejaVuSans-110"/>
      <use x="924.800781" xlink:href="#DejaVuSans-115"/>
      <use x="976.900391" xlink:href="#DejaVuSans-32"/>
      <use x="1008.6875" xlink:href="#DejaVuSans-112"/>
      <use x="1072.164062" xlink:href="#DejaVuSans-114"/>
      <use x="1113.277344" xlink:href="#DejaVuSans-117"/>
      <use x="1176.65625" xlink:href="#DejaVuSans-110"/>
      <use x="1240.035156" xlink:href="#DejaVuSans-101"/>
      <use x="1301.558594" xlink:href="#DejaVuSans-100"/>
     </g>
    </g>
   </g>
   <g id="matplotlib.axis_2">
    <g id="ytick_1">
     <g id="line2d_10">
      <defs>
       <path d="M 0 0 
L -3.5 0 
" id="m518e2b61ff" style="stroke:#000000;stroke-width:0.8;"/>
      </defs>
      <g>
       <use style="stroke:#000000;stroke-width:0.8;" x="144" xlink:href="#m518e2b61ff" y="424.926529"/>
      </g>
     </g>
     <g id="text_11">
      <!-- 0.2 -->
      <defs>
       <path d="M 10.6875 12.40625 
L 21 12.40625 
L 21 0 
L 10.6875 0 
z
" id="DejaVuSans-46"/>
      </defs>
      <g transform="translate(121.096875 428.725748)scale(0.1 -0.1)">
       <use xlink:href="#DejaVuSans-48"/>
       <use x="63.623047" xlink:href="#DejaVuSans-46"/>
       <use x="95.410156" xlink:href="#DejaVuSans-50"/>
      </g>
     </g>
    </g>
    <g id="ytick_2">
     <g id="line2d_11">
      <g>
       <use style="stroke:#000000;stroke-width:0.8;" x="144" xlink:href="#m518e2b61ff" y="337.325054"/>
      </g>
     </g>
     <g id="text_12">
      <!-- 0.4 -->
      <g transform="translate(121.096875 341.124273)scale(0.1 -0.1)">
       <use xlink:href="#DejaVuSans-48"/>
       <use x="63.623047" xlink:href="#DejaVuSans-46"/>
       <use x="95.410156" xlink:href="#DejaVuSans-52"/>
      </g>
     </g>
    </g>
    <g id="ytick_3">
     <g id="line2d_12">
      <g>
       <use style="stroke:#000000;stroke-width:0.8;" x="144" xlink:href="#m518e2b61ff" y="249.72358"/>
      </g>
     </g>
     <g id="text_13">
      <!-- 0.6 -->
      <defs>
       <path d="M 33.015625 40.375 
Q 26.375 40.375 22.484375 35.828125 
Q 18.609375 31.296875 18.609375 23.390625 
Q 18.609375 15.53125 22.484375 10.953125 
Q 26.375 6.390625 33.015625 6.390625 
Q 39.65625 6.390625 43.53125 10.953125 
Q 47.40625 15.53125 47.40625 23.390625 
Q 47.40625 31.296875 43.53125 35.828125 
Q 39.65625 40.375 33.015625 40.375 
z
M 52.59375 71.296875 
L 52.59375 62.3125 
Q 48.875 64.0625 45.09375 64.984375 
Q 41.3125 65.921875 37.59375 65.921875 
Q 27.828125 65.921875 22.671875 59.328125 
Q 17.53125 52.734375 16.796875 39.40625 
Q 19.671875 43.65625 24.015625 45.921875 
Q 28.375 48.1875 33.59375 48.1875 
Q 44.578125 48.1875 50.953125 41.515625 
Q 57.328125 34.859375 57.328125 23.390625 
Q 57.328125 12.15625 50.6875 5.359375 
Q 44.046875 -1.421875 33.015625 -1.421875 
Q 20.359375 -1.421875 13.671875 8.265625 
Q 6.984375 17.96875 6.984375 36.375 
Q 6.984375 53.65625 15.1875 63.9375 
Q 23.390625 74.21875 37.203125 74.21875 
Q 40.921875 74.21875 44.703125 73.484375 
Q 48.484375 72.75 52.59375 71.296875 
z
" id="DejaVuSans-54"/>
      </defs>
      <g transform="translate(121.096875 253.522799)scale(0.1 -0.1)">
       <use xlink:href="#DejaVuSans-48"/>
       <use x="63.623047" xlink:href="#DejaVuSans-46"/>
       <use x="95.410156" xlink:href="#DejaVuSans-54"/>
      </g>
     </g>
    </g>
    <g id="ytick_4">
     <g id="line2d_13">
      <g>
       <use style="stroke:#000000;stroke-width:0.8;" x="144" xlink:href="#m518e2b61ff" y="162.122105"/>
      </g>
     </g>
     <g id="text_14">
      <!-- 0.8 -->
      <defs>
       <path d="M 31.78125 34.625 
Q 24.75 34.625 20.71875 30.859375 
Q 16.703125 27.09375 16.703125 20.515625 
Q 16.703125 13.921875 20.71875 10.15625 
Q 24.75 6.390625 31.78125 6.390625 
Q 38.8125 6.390625 42.859375 10.171875 
Q 46.921875 13.96875 46.921875 20.515625 
Q 46.921875 27.09375 42.890625 30.859375 
Q 38.875 34.625 31.78125 34.625 
z
M 21.921875 38.8125 
Q 15.578125 40.375 12.03125 44.71875 
Q 8.5 49.078125 8.5 55.328125 
Q 8.5 64.0625 14.71875 69.140625 
Q 20.953125 74.21875 31.78125 74.21875 
Q 42.671875 74.21875 48.875 69.140625 
Q 55.078125 64.0625 55.078125 55.328125 
Q 55.078125 49.078125 51.53125 44.71875 
Q 48 40.375 41.703125 38.8125 
Q 48.828125 37.15625 52.796875 32.3125 
Q 56.78125 27.484375 56.78125 20.515625 
Q 56.78125 9.90625 50.3125 4.234375 
Q 43.84375 -1.421875 31.78125 -1.421875 
Q 19.734375 -1.421875 13.25 4.234375 
Q 6.78125 9.90625 6.78125 20.515625 
Q 6.78125 27.484375 10.78125 32.3125 
Q 14.796875 37.15625 21.921875 38.8125 
z
M 18.3125 54.390625 
Q 18.3125 48.734375 21.84375 45.5625 
Q 25.390625 42.390625 31.78125 42.390625 
Q 38.140625 42.390625 41.71875 45.5625 
Q 45.3125 48.734375 45.3125 54.390625 
Q 45.3125 60.0625 41.71875 63.234375 
Q 38.140625 66.40625 31.78125 66.40625 
Q 25.390625 66.40625 21.84375 63.234375 
Q 18.3125 60.0625 18.3125 54.390625 
z
" id="DejaVuSans-56"/>
      </defs>
      <g transform="translate(121.096875 165.921324)scale(0.1 -0.1)">
       <use xlink:href="#DejaVuSans-48"/>
       <use x="63.623047" xlink:href="#DejaVuSans-46"/>
       <use x="95.410156" xlink:href="#DejaVuSans-56"/>
      </g>
     </g>
    </g>
    <g id="ytick_5">
     <g id="line2d_14">
      <g>
       <use style="stroke:#000000;stroke-width:0.8;" x="144" xlink:href="#m518e2b61ff" y="74.520631"/>
      </g>
     </g>
     <g id="text_15">
      <!-- 1.0 -->
      <g transform="translate(121.096875 78.31985)scale(0.1 -0.1)">
       <use xlink:href="#DejaVuSans-49"/>
       <use x="63.623047" xlink:href="#DejaVuSans-46"/>
       <use x="95.410156" xlink:href="#DejaVuSans-48"/>
      </g>
     </g>
    </g>
    <g id="text_16">
     <!-- Accuracy -->
     <defs>
      <path d="M 34.1875 63.1875 
L 20.796875 26.90625 
L 47.609375 26.90625 
z
M 28.609375 72.90625 
L 39.796875 72.90625 
L 67.578125 0 
L 57.328125 0 
L 50.6875 18.703125 
L 17.828125 18.703125 
L 11.1875 0 
L 0.78125 0 
z
" id="DejaVuSans-65"/>
      <path d="M 48.78125 52.59375 
L 48.78125 44.1875 
Q 44.96875 46.296875 41.140625 47.34375 
Q 37.3125 48.390625 33.40625 48.390625 
Q 24.65625 48.390625 19.8125 42.84375 
Q 14.984375 37.3125 14.984375 27.296875 
Q 14.984375 17.28125 19.8125 11.734375 
Q 24.65625 6.203125 33.40625 6.203125 
Q 37.3125 6.203125 41.140625 7.25 
Q 44.96875 8.296875 48.78125 10.40625 
L 48.78125 2.09375 
Q 45.015625 0.34375 40.984375 -0.53125 
Q 36.96875 -1.421875 32.421875 -1.421875 
Q 20.0625 -1.421875 12.78125 6.34375 
Q 5.515625 14.109375 5.515625 27.296875 
Q 5.515625 40.671875 12.859375 48.328125 
Q 20.21875 56 33.015625 56 
Q 37.15625 56 41.109375 55.140625 
Q 45.0625 54.296875 48.78125 52.59375 
z
" id="DejaVuSans-99"/>
      <path d="M 34.28125 27.484375 
Q 23.390625 27.484375 19.1875 25 
Q 14.984375 22.515625 14.984375 16.5 
Q 14.984375 11.71875 18.140625 8.90625 
Q 21.296875 6.109375 26.703125 6.109375 
Q 34.1875 6.109375 38.703125 11.40625 
Q 43.21875 16.703125 43.21875 25.484375 
L 43.21875 27.484375 
z
M 52.203125 31.203125 
L 52.203125 0 
L 43.21875 0 
L 43.21875 8.296875 
Q 40.140625 3.328125 35.546875 0.953125 
Q 30.953125 -1.421875 24.3125 -1.421875 
Q 15.921875 -1.421875 10.953125 3.296875 
Q 6 8.015625 6 15.921875 
Q 6 25.140625 12.171875 29.828125 
Q 18.359375 34.515625 30.609375 34.515625 
L 43.21875 34.515625 
L 43.21875 35.40625 
Q 43.21875 41.609375 39.140625 45 
Q 35.0625 48.390625 27.6875 48.390625 
Q 23 48.390625 18.546875 47.265625 
Q 14.109375 46.140625 10.015625 43.890625 
L 10.015625 52.203125 
Q 14.9375 54.109375 19.578125 55.046875 
Q 24.21875 56 28.609375 56 
Q 40.484375 56 46.34375 49.84375 
Q 52.203125 43.703125 52.203125 31.203125 
z
" id="DejaVuSans-97"/>
      <path d="M 32.171875 -5.078125 
Q 28.375 -14.84375 24.75 -17.8125 
Q 21.140625 -20.796875 15.09375 -20.796875 
L 7.90625 -20.796875 
L 7.90625 -13.28125 
L 13.1875 -13.28125 
Q 16.890625 -13.28125 18.9375 -11.515625 
Q 21 -9.765625 23.484375 -3.21875 
L 25.09375 0.875 
L 2.984375 54.6875 
L 12.5 54.6875 
L 29.59375 11.921875 
L 46.6875 54.6875 
L 56.203125 54.6875 
z
" id="DejaVuSans-121"/>
     </defs>
     <g transform="translate(115.017187 309.388125)rotate(-90)scale(0.1 -0.1)">
      <use xlink:href="#DejaVuSans-65"/>
      <use x="66.658203" xlink:href="#DejaVuSans-99"/>
      <use x="121.638672" xlink:href="#DejaVuSans-99"/>
      <use x="176.619141" xlink:href="#DejaVuSans-117"/>
      <use x="239.998047" xlink:href="#DejaVuSans-114"/>
      <use x="281.111328" xlink:href="#DejaVuSans-97"/>
      <use x="342.390625" xlink:href="#DejaVuSans-99"/>
      <use x="397.371094" xlink:href="#DejaVuSans-121"/>
     </g>
    </g>
   </g>
   <g id="line2d_15">
    <path clip-path="url(#pb8702a0b1b)" d="M 184.581818 89.062476 
L 274.085578 89.120877 
L 276.119754 89.201178 
L 278.15393 89.113577 
L 280.188107 89.179278 
L 282.222283 89.376381 
L 284.256459 89.32528 
L 288.324812 90.047992 
L 290.358988 90.026092 
L 292.393165 90.142894 
L 296.461517 89.646486 
L 298.495694 89.807088 
L 304.598223 91.237912 
L 306.632399 92.30373 
L 308.666576 92.661436 
L 310.700752 92.749038 
L 312.734928 93.668853 
L 314.769105 94.033859 
L 316.803281 94.026559 
L 318.837457 93.625052 
L 320.871634 93.559351 
L 322.90581 94.807672 
L 324.939986 95.28218 
L 326.974163 96.019493 
L 329.008339 96.245797 
L 331.042515 96.698404 
L 333.076692 97.559819 
L 337.145044 96.647303 
L 339.179221 97.121811 
L 341.213397 98.990643 
L 343.247573 100.297365 
L 345.28175 101.954493 
L 347.315926 101.377783 
L 351.384279 103.01301 
L 353.418455 104.429234 
L 355.452632 103.735723 
L 357.486808 104.16643 
L 359.520984 105.816258 
L 361.555161 106.641172 
L 363.589337 107.261682 
L 365.623513 108.750907 
L 367.65769 109.831325 
L 369.691866 109.247315 
L 371.726042 111.685556 
L 373.760219 111.203748 
L 377.828571 111.948361 
L 379.862748 111.751258 
L 381.896924 112.663773 
L 383.9311 117.781159 
L 385.965277 121.905729 
L 387.999453 127.439222 
L 390.03363 128.54884 
L 392.067806 127.395421 
L 394.101982 129.490556 
L 396.136159 130.132967 
L 398.170335 134.191835 
L 400.204511 135.359855 
L 402.238688 140.754646 
L 404.272864 140.083034 
L 406.30704 135.878164 
L 408.341217 137.068084 
L 410.375393 140.010033 
L 412.409569 137.863797 
L 414.443746 137.265187 
L 416.477922 138.674111 
L 418.512098 135.126251 
L 420.546275 136.447573 
L 422.580451 134.140734 
L 424.614627 137.644793 
L 426.648804 137.600993 
L 428.68298 138.250704 
L 430.717157 146.076435 
L 432.751333 145.77713 
L 434.785509 143.689295 
L 436.819686 148.237272 
L 438.853862 151.230322 
L 440.888038 151.288723 
L 442.922215 151.551528 
L 444.956391 157.690931 
L 446.990567 156.595912 
L 449.024744 163.750033 
L 451.05892 162.99812 
L 453.093096 161.917702 
L 455.127273 165.020254 
L 457.161449 173.006589 
L 459.195625 176.890254 
L 461.229802 174.28411 
L 463.263978 174.926521 
L 465.298154 182.774153 
L 467.332331 187.446232 
L 469.366507 190.461182 
L 471.400684 200.038944 
L 473.43486 202.20708 
L 475.469036 205.455635 
L 477.503213 204.747523 
L 479.537389 204.937326 
L 481.571565 209.609405 
L 483.605742 209.864909 
L 485.639918 208.594688 
L 487.674094 216.46422 
L 489.708271 218.800259 
L 491.742447 218.311151 
L 493.776623 218.712658 
L 495.8108 219.924478 
L 497.844976 225.436071 
L 499.879152 225.487172 
L 501.913329 229.385438 
L 503.947505 223.691342 
L 505.981681 223.319036 
L 508.015858 225.830278 
L 510.050034 225.706176 
L 512.084211 228.151717 
L 514.118387 235.575942 
L 516.152563 234.524724 
L 518.18674 237.612676 
L 520.220916 243.876182 
L 524.289269 248.942467 
L 526.323445 245.57711 
L 528.357621 247.672245 
L 530.391798 251.409908 
L 532.425974 254.46866 
L 534.46015 260.768666 
L 536.494327 264.126722 
L 538.528503 264.791034 
L 540.562679 274.814102 
L 542.596856 275.668217 
L 544.631032 278.369262 
L 546.665208 278.106458 
L 548.699385 278.24516 
L 550.733561 281.20901 
L 552.767738 284.567066 
L 554.801914 285.238678 
L 556.83609 281.311212 
L 558.870267 282.588733 
L 560.904443 281.121408 
L 562.938619 281.333112 
L 564.972796 283.632651 
L 567.006972 284.705769 
L 569.041148 286.187694 
L 571.075325 291.947491 
L 573.109501 292.962208 
L 575.143677 294.203229 
L 577.177854 286.603801 
L 579.21203 289.845055 
L 583.280383 289.115043 
L 585.314559 290.991175 
L 587.348735 292.202995 
L 589.382912 292.808905 
L 593.451265 298.167195 
L 595.485441 296.758272 
L 597.519617 301.262447 
L 599.553794 303.77369 
L 601.58797 307.518653 
L 603.622146 305.197214 
L 605.656323 302.211463 
L 607.690499 303.131279 
L 609.724675 303.905092 
L 613.793028 307.847158 
L 615.827204 316.015996 
L 617.861381 316.578105 
L 619.895557 320.308468 
L 621.929733 319.950762 
L 623.96391 320.863277 
L 625.998086 325.243351 
L 628.032262 327.499089 
L 630.066439 329.419021 
L 632.100615 332.426672 
L 634.134792 335.025516 
L 636.168968 333.601992 
L 638.203144 332.543474 
L 642.271497 332.536174 
L 644.305673 338.938382 
L 646.33985 341.347422 
L 648.374026 335.29562 
L 650.408202 335.229919 
L 652.442379 338.069667 
L 654.476555 338.785079 
L 656.510731 341.610227 
L 658.544908 346.669212 
L 660.579084 344.720079 
L 662.61326 344.909882 
L 664.647437 344.668978 
L 666.681613 340.544409 
L 668.715789 344.106869 
L 670.749966 343.968166 
L 672.784142 357.349292 
L 674.818319 360.685448 
L 676.852495 362.634581 
L 678.886671 362.62728 
L 682.955024 357.27629 
L 684.9892 359.115921 
L 687.023377 354.662846 
L 689.057553 352.991118 
L 691.091729 348.31904 
L 693.125906 345.756696 
L 695.160082 348.304439 
L 697.194258 353.385325 
L 699.228435 353.881733 
L 701.262611 352.867016 
L 703.296787 340.785313 
L 705.330964 344.486475 
L 707.36514 348.479642 
L 709.399316 353.808732 
L 711.433493 355.422059 
L 713.467669 355.867367 
L 715.501846 354.334341 
L 717.536022 355.188455 
L 719.570198 354.370841 
L 721.604375 354.465743 
L 723.638551 367.292059 
L 725.672727 372.628449 
L 727.706904 372.650349 
L 729.74108 374.730884 
L 731.775256 371.336327 
L 733.809433 361.050454 
L 735.843609 360.962852 
L 737.877785 365.642231 
L 739.911962 371.657532 
L 741.946138 364.780817 
L 743.980314 365.700632 
L 746.014491 365.503529 
L 748.048667 374.343978 
L 750.082843 381.02359 
L 752.11702 386.688485 
L 754.151196 385.476665 
L 756.185373 385.805171 
L 758.219549 386.403781 
L 760.253725 389.192428 
L 762.287902 388.951523 
L 764.322078 389.097526 
L 766.356254 389.097526 
L 768.390431 392.214678 
L 770.424607 391.433565 
L 772.458783 385.608067 
L 774.49296 387.666702 
L 776.527136 389.418731 
L 778.561312 389.980841 
L 780.595489 393.127194 
L 782.629665 393.915607 
L 784.663841 394.149211 
L 786.698018 392.32418 
L 788.732194 394.536117 
L 790.76637 397.543768 
L 792.800547 397.412366 
L 794.834723 397.397766 
L 796.8689 399.690004 
L 798.903076 401.376333 
L 800.937252 401.478534 
L 802.971429 398.354082 
L 805.005605 400.420017 
L 807.039781 401.566136 
L 809.073958 402.529752 
L 811.108134 398.032876 
L 813.14231 397.324764 
L 815.176487 395.813639 
L 817.210663 398.003676 
L 819.244839 397.521868 
L 821.279016 397.733571 
L 823.313192 397.368565 
L 825.347368 397.529168 
L 827.381545 397.821173 
L 829.415721 400.01851 
L 831.449897 401.646437 
L 833.484074 398.675287 
L 835.51825 401.040527 
L 837.552427 400.894525 
L 839.586603 403.128362 
L 841.620779 403.084561 
L 845.689132 403.318165 
L 847.723308 399.704604 
L 849.757485 400.383516 
L 851.791661 399.799506 
L 853.825837 383.352329 
L 855.860014 394.039709 
L 857.89419 397.186062 
L 859.928366 397.229863 
L 861.962543 398.208079 
L 863.996719 400.741222 
L 866.030895 402.610053 
L 868.065072 398.047477 
L 870.099248 397.514568 
L 872.133424 389.812938 
L 874.167601 398.806689 
L 876.201777 398.813989 
L 878.235954 396.696954 
L 880.27013 409.442968 
L 882.304306 409.369967 
L 884.338483 411.209598 
L 886.372659 417.662907 
L 888.406835 418.166615 
L 890.441012 419.305434 
L 892.475188 417.626406 
L 894.509364 417.662907 
L 896.543541 418.407519 
L 898.577717 429.226301 
L 900.611893 438.344155 
L 902.64607 441.016 
L 904.680246 438.840563 
L 906.714422 438.818663 
L 908.748599 441.359106 
L 910.782775 439.534075 
L 912.816951 439.607076 
L 914.851128 442.490625 
L 916.885304 442.497925 
L 918.919481 445.658878 
L 920.953657 444.885065 
L 922.987833 451.170471 
L 925.02201 451.294573 
L 929.090362 455.397242 
L 931.124539 455.484843 
L 933.158715 454.893533 
L 935.192891 455.769548 
L 937.227068 455.740348 
L 939.261244 454.827832 
L 941.29542 466.442328 
L 943.329597 466.56643 
L 945.363773 466.56643 
L 947.397949 466.748933 
L 951.466302 466.332826 
L 955.534655 470.829702 
L 957.568831 470.829702 
L 959.603008 471.501313 
L 961.637184 471.282309 
L 963.67136 471.31881 
L 965.705537 471.026805 
L 967.739713 471.026805 
L 969.773889 470.822402 
L 971.808066 472.172924 
L 975.876418 472.063422 
L 977.910595 472.603632 
L 981.978947 472.581731 
L 984.013124 472.464929 
L 986.0473 471.873619 
L 988.081476 471.880919 
L 990.115653 471.603515 
L 992.149829 472.749634 
L 996.218182 472.756934 
L 996.218182 472.756934 
" style="fill:none;stroke:#1f77b4;stroke-linecap:square;stroke-width:1.5;"/>
   </g>
   <g id="line2d_16">
    <path clip-path="url(#pb8702a0b1b)" d="M 184.581818 89.062476 
L 294.427341 89.128177 
L 298.495694 89.29608 
L 304.598223 89.412882 
L 306.632399 89.398281 
L 308.666576 89.507783 
L 310.700752 89.471283 
L 318.837457 89.989591 
L 320.871634 90.113693 
L 326.974163 89.960391 
L 331.042515 90.099093 
L 333.076692 90.091793 
L 341.213397 91.201412 
L 343.247573 91.354714 
L 345.28175 91.040809 
L 349.350103 91.595618 
L 351.384279 91.354714 
L 353.418455 91.442316 
L 355.452632 91.858423 
L 357.486808 91.851123 
L 359.520984 92.113927 
L 361.555161 92.595735 
L 363.589337 92.537334 
L 365.623513 92.157728 
L 367.65769 93.011842 
L 371.726042 93.49365 
L 373.760219 93.135944 
L 375.794395 93.822156 
L 377.828571 93.727254 
L 379.862748 95.493884 
L 383.9311 96.523201 
L 387.999453 96.888207 
L 390.03363 97.530618 
L 392.067806 96.917408 
L 394.101982 97.676621 
L 396.136159 96.983109 
L 398.170335 97.04151 
L 400.204511 97.516018 
L 402.238688 98.180329 
L 404.272864 98.428533 
L 406.30704 99.129345 
L 408.341217 99.151245 
L 410.375393 100.538269 
L 412.409569 101.17338 
L 414.443746 102.3925 
L 416.477922 102.209997 
L 418.512098 102.772106 
L 420.546275 102.136996 
L 422.580451 105.093546 
L 424.614627 105.546153 
L 426.648804 106.473269 
L 428.68298 106.648472 
L 430.717157 108.203398 
L 432.751333 107.626688 
L 434.785509 109.305716 
L 436.819686 109.816725 
L 438.853862 108.634105 
L 440.888038 111.203748 
L 442.922215 111.218349 
L 444.956391 108.92611 
L 446.990567 109.320317 
L 449.024744 108.290999 
L 451.05892 110.517537 
L 455.127273 108.196098 
L 457.161449 110.451836 
L 459.195625 110.335034 
L 461.229802 110.72194 
L 463.263978 112.49587 
L 465.298154 112.999579 
L 467.332331 112.977678 
L 469.366507 116.291934 
L 471.400684 116.591239 
L 473.43486 117.584056 
L 475.469036 121.453121 
L 477.503213 121.022414 
L 479.537389 123.124849 
L 481.571565 121.832727 
L 483.605742 123.015347 
L 485.639918 126.709209 
L 487.674094 126.468305 
L 489.708271 125.263785 
L 491.742447 127.198318 
L 493.776623 131.271786 
L 495.8108 131.892297 
L 497.844976 130.819179 
L 499.879152 133.534824 
L 501.913329 140.740046 
L 503.947505 143.725796 
L 505.981681 148.828582 
L 508.015858 146.784547 
L 510.050034 150.668213 
L 512.084211 147.784664 
L 514.118387 151.369024 
L 516.152563 158.632647 
L 518.18674 161.18769 
L 520.220916 158.85165 
L 522.255092 165.874369 
L 524.289269 166.465679 
L 526.323445 173.356995 
L 528.357621 178.956189 
L 530.391798 180.737419 
L 532.425974 179.248194 
L 534.46015 176.525248 
L 536.494327 173.561398 
L 538.528503 177.116558 
L 540.562679 179.941705 
L 542.596856 178.671484 
L 544.631032 176.350045 
L 546.665208 175.430229 
L 548.699385 173.904504 
L 550.733561 174.85352 
L 552.767738 175.028723 
L 554.801914 182.847154 
L 556.83609 187.96454 
L 558.870267 194.220746 
L 560.904443 191.103593 
L 562.938619 186.592117 
L 564.972796 190.548784 
L 567.006972 190.994091 
L 569.041148 195.06026 
L 571.075325 199.695838 
L 573.109501 201.090161 
L 575.143677 201.199663 
L 577.177854 203.754706 
L 579.21203 204.148913 
L 581.246206 208.470586 
L 583.280383 213.179165 
L 585.314559 228.210118 
L 587.348735 230.429355 
L 589.382912 233.218002 
L 591.417088 239.101901 
L 593.451265 241.861348 
L 595.485441 248.716163 
L 597.519617 250.365991 
L 599.553794 255.490677 
L 601.58797 265.061138 
L 603.622146 272.835769 
L 605.656323 272.828469 
L 607.690499 276.989539 
L 609.724675 279.873087 
L 611.758852 281.406113 
L 613.793028 286.895806 
L 615.827204 285.881089 
L 617.861381 289.129643 
L 619.895557 292.706703 
L 621.929733 294.217829 
L 623.96391 295.904157 
L 625.998086 294.612036 
L 628.032262 297.670787 
L 630.066439 294.137528 
L 632.100615 294.794539 
L 634.134792 292.976808 
L 636.168968 295.035443 
L 638.203144 289.217245 
L 640.237321 292.334397 
L 642.271497 297.327681 
L 644.305673 295.137644 
L 646.33985 298.4227 
L 648.374026 297.948192 
L 650.408202 297.85329 
L 652.442379 299.327915 
L 654.476555 300.481334 
L 656.510731 303.029077 
L 658.544908 305.927226 
L 660.579084 311.059212 
L 662.61326 310.621205 
L 664.647437 312.11043 
L 666.681613 314.680073 
L 668.715789 314.891777 
L 670.749966 313.409852 
L 672.784142 315.183782 
L 674.818319 316.490504 
L 676.852495 314.738474 
L 678.886671 317.205916 
L 680.920848 319.85586 
L 682.955024 321.264784 
L 684.9892 324.703142 
L 687.023377 322.622607 
L 689.057553 327.039181 
L 691.091729 323.097115 
L 693.125906 328.710909 
L 695.160082 329.90813 
L 697.194258 332.536174 
L 699.228435 333.258886 
L 701.262611 333.288087 
L 703.296787 326.082865 
L 705.330964 327.842195 
L 707.36514 328.367804 
L 709.399316 346.479409 
L 711.433493 348.727846 
L 713.467669 348.34094 
L 715.501846 350.078369 
L 717.536022 350.377674 
L 719.570198 351.516493 
L 723.638551 353.414525 
L 725.672727 356.947785 
L 727.706904 359.086721 
L 729.74108 368.686382 
L 731.775256 366.649648 
L 733.809433 366.16054 
L 735.843609 372.482446 
L 737.877785 380.081874 
L 739.911962 391.046659 
L 741.946138 397.383165 
L 743.980314 394.69672 
L 746.014491 398.448983 
L 748.048667 391.024758 
L 750.082843 397.981775 
L 752.11702 394.601819 
L 754.151196 394.455816 
L 756.185373 398.448983 
L 758.219549 402.909358 
L 760.253725 403.843774 
L 762.287902 410.340884 
L 764.322078 413.611339 
L 766.356254 424.605324 
L 768.390431 428.693392 
L 770.424607 430.613325 
L 772.458783 425.656541 
L 776.527136 433.27787 
L 778.561312 446.060385 
L 780.595489 439.198269 
L 782.629665 437.628743 
L 784.663841 437.665243 
L 786.698018 439.023066 
L 788.732194 437.351338 
L 790.76637 438.833263 
L 792.800547 439.037667 
L 794.834723 434.212285 
L 796.8689 435.000699 
L 798.903076 435.438706 
L 800.937252 437.643343 
L 802.971429 438.132451 
L 805.005605 438.147052 
L 809.073958 444.235354 
L 811.108134 444.498158 
L 813.14231 444.286455 
L 815.176487 448.929333 
L 817.210663 449.615545 
L 819.244839 449.162937 
L 821.279016 451.11937 
L 823.313192 451.039069 
L 825.347368 450.111953 
L 827.381545 448.505926 
L 829.415721 448.681129 
L 831.449897 448.542427 
L 833.484074 450.885766 
L 835.51825 457.448576 
L 837.552427 457.579979 
L 839.586603 457.594579 
L 841.620779 455.30234 
L 843.654956 456.718564 
L 845.689132 464.274191 
L 849.757485 463.836184 
L 851.791661 463.916485 
L 853.825837 469.303976 
L 855.860014 470.398994 
L 857.89419 469.639782 
L 859.928366 470.7202 
L 861.962543 473.311743 
L 863.996719 474.735267 
L 868.065072 474.574665 
L 870.099248 474.414062 
L 872.133424 474.589265 
L 874.167601 475.209775 
L 876.201777 475.122174 
L 878.235954 475.173275 
L 880.27013 474.341061 
L 882.304306 470.785901 
L 884.338483 471.048705 
L 886.372659 471.129007 
L 888.406835 467.76365 
L 890.441012 469.632482 
L 892.475188 468.522863 
L 894.509364 471.034105 
L 896.543541 470.347894 
L 898.577717 469.121473 
L 900.611893 470.311393 
L 902.64607 469.048472 
L 904.680246 469.019271 
L 906.714422 469.143373 
L 908.748599 470.588798 
L 910.782775 470.661799 
L 912.816951 472.786135 
L 914.851128 472.808035 
L 916.885304 471.085206 
L 918.919481 472.180224 
L 920.953657 475.392278 
L 922.987833 476.859603 
L 925.02201 476.06389 
L 927.056186 471.713017 
L 929.090362 470.304093 
L 931.124539 469.230975 
L 933.158715 469.230975 
L 935.192891 469.041172 
L 941.29542 469.048472 
L 943.329597 471.873619 
L 945.363773 477.954622 
L 947.397949 477.100507 
L 951.466302 478.494831 
L 953.500478 478.648133 
L 955.534655 478.648133 
L 957.568831 479.911055 
L 961.637184 479.998656 
L 963.67136 479.181042 
L 967.739713 479.275944 
L 969.773889 478.918238 
L 971.808066 478.275827 
L 973.842242 478.290427 
L 975.876418 478.845237 
L 977.910595 478.845237 
L 979.944771 479.144542 
L 981.978947 480.743269 
L 984.013124 480.524265 
L 986.0473 473.486946 
L 988.081476 473.486946 
L 990.115653 476.604099 
L 992.149829 476.604099 
L 994.184005 476.779302 
L 996.218182 476.421596 
L 996.218182 476.421596 
" style="fill:none;stroke:#ff7f0e;stroke-linecap:square;stroke-width:1.5;"/>
   </g>
   <g id="line2d_17">
    <path clip-path="url(#pb8702a0b1b)" d="M 184.581818 89.062476 
L 278.15393 88.952974 
L 282.222283 88.916473 
L 288.324812 88.996775 
L 312.734928 89.434782 
L 318.837457 89.558884 
L 326.974163 89.617285 
L 329.008339 89.814388 
L 333.076692 89.682986 
L 337.145044 89.704886 
L 347.315926 90.018792 
L 353.418455 90.033392 
L 355.452632 89.996891 
L 361.555161 90.785305 
L 363.589337 90.719604 
L 365.623513 91.172211 
L 367.65769 91.062709 
L 369.691866 91.340114 
L 375.794395 91.559118 
L 377.828571 91.734321 
L 379.862748 91.427715 
L 381.896924 91.383915 
L 385.965277 91.566418 
L 387.999453 91.456916 
L 390.03363 91.967925 
L 394.101982 92.055526 
L 396.136159 91.873023 
L 400.204511 91.894923 
L 402.238688 92.150428 
L 404.272864 92.186928 
L 406.30704 92.727137 
L 408.341217 92.522734 
L 410.375393 93.515551 
L 412.409569 93.048343 
L 414.443746 92.836639 
L 416.477922 93.537451 
L 418.512098 93.267346 
L 420.546275 93.245446 
L 422.580451 93.099444 
L 428.68298 93.741854 
L 430.717157 94.06306 
L 432.751333 94.705471 
L 434.785509 95.639886 
L 436.819686 96.815206 
L 438.853862 98.435833 
L 440.888038 99.275348 
L 442.922215 100.428767 
L 444.956391 99.333749 
L 446.990567 98.917642 
L 449.024744 99.136645 
L 451.05892 98.888441 
L 455.127273 99.917758 
L 457.161449 99.450551 
L 459.195625 100.085661 
L 461.229802 99.764456 
L 463.263978 100.932475 
L 465.298154 102.910809 
L 467.332331 102.129696 
L 469.366507 101.509185 
L 471.400684 100.501768 
L 473.43486 99.99076 
L 475.469036 101.005477 
L 477.503213 102.633404 
L 479.537389 103.458318 
L 481.571565 104.932943 
L 483.605742 104.100729 
L 485.639918 104.626338 
L 487.674094 105.633755 
L 489.708271 107.181381 
L 491.742447 106.57547 
L 493.776623 105.188447 
L 495.8108 104.17373 
L 497.844976 105.531553 
L 499.879152 104.75774 
L 501.913329 105.531553 
L 503.947505 107.933293 
L 505.981681 110.021128 
L 508.015858 109.860526 
L 510.050034 109.261916 
L 512.084211 110.977445 
L 514.118387 113.780692 
L 516.152563 115.547321 
L 518.18674 114.408502 
L 520.220916 114.817309 
L 522.255092 115.744425 
L 528.357621 125.015581 
L 530.391798 125.037481 
L 532.425974 128.125433 
L 534.46015 128.658342 
L 536.494327 128.439338 
L 538.528503 129.322653 
L 542.596856 131.636792 
L 546.665208 129.548957 
L 550.733561 143.660095 
L 552.767738 149.178988 
L 554.801914 148.653379 
L 556.83609 146.711546 
L 558.870267 155.902401 
L 560.904443 156.822216 
L 562.938619 163.282825 
L 564.972796 164.399744 
L 567.006972 163.377727 
L 571.075325 172.364178 
L 573.109501 178.802886 
L 575.143677 184.241478 
L 577.177854 181.160826 
L 579.21203 177.101958 
L 581.246206 177.342862 
L 583.280383 183.314362 
L 585.314559 188.53395 
L 587.348735 195.578569 
L 589.382912 201.03906 
L 591.417088 210.266416 
L 593.451265 211.018328 
L 595.485441 212.383451 
L 597.519617 224.15125 
L 599.553794 221.581606 
L 601.58797 224.362953 
L 603.622146 216.018913 
L 605.656323 221.486705 
L 607.690499 222.99053 
L 609.724675 232.181385 
L 611.758852 232.736194 
L 613.793028 236.860763 
L 615.827204 238.736895 
L 617.861381 237.130868 
L 619.895557 235.371538 
L 621.929733 237.211169 
L 623.96391 245.153703 
L 625.998086 246.037018 
L 628.032262 243.963783 
L 630.066439 239.116501 
L 632.100615 238.247787 
L 634.134792 242.824964 
L 636.168968 244.890899 
L 638.203144 243.284872 
L 640.237321 244.102485 
L 642.271497 242.62056 
L 644.305673 242.065751 
L 646.33985 246.876532 
L 648.374026 253.110837 
L 650.408202 252.461126 
L 652.442379 249.015468 
L 654.476555 251.658113 
L 656.510731 251.271206 
L 658.544908 255.07457 
L 660.579084 262.104588 
L 662.61326 263.192307 
L 664.647437 267.258475 
L 666.681613 269.601815 
L 668.715789 280.6104 
L 670.749966 285.530683 
L 672.784142 288.144127 
L 674.818319 286.662202 
L 676.852495 291.020375 
L 678.886671 295.064643 
L 680.920848 306.868942 
L 682.955024 302.722472 
L 684.9892 308.321666 
L 687.023377 316.826309 
L 689.057553 317.46142 
L 691.091729 320.980079 
L 693.125906 323.162816 
L 695.160082 332.740577 
L 697.194258 335.375922 
L 699.228435 333.952398 
L 701.262611 334.514507 
L 703.296787 336.054833 
L 705.330964 336.273837 
L 707.36514 335.332121 
L 709.399316 342.603043 
L 711.433493 338.361672 
L 713.467669 344.544876 
L 715.501846 346.085202 
L 717.536022 340.785313 
L 719.570198 341.909532 
L 721.604375 349.837465 
L 723.638551 350.450675 
L 725.672727 352.545811 
L 727.706904 352.735614 
L 729.74108 354.27594 
L 731.775256 363.152889 
L 733.809433 365.715232 
L 735.843609 364.481512 
L 737.877785 372.248842 
L 739.911962 370.635515 
L 741.946138 370.365411 
L 743.980314 371.788935 
L 746.014491 378.300644 
L 748.048667 378.198442 
L 750.082843 387.907606 
L 754.151196 391.287563 
L 756.185373 392.762188 
L 758.219549 394.886523 
L 762.287902 394.68212 
L 764.322078 394.974125 
L 766.356254 396.645853 
L 768.390431 396.237046 
L 770.424607 395.163928 
L 772.458783 396.704254 
L 774.49296 396.886757 
L 776.527136 395.30263 
L 778.561312 395.390232 
L 780.595489 396.383049 
L 782.629665 396.200545 
L 784.663841 395.499734 
L 786.698018 395.171228 
L 788.732194 397.05466 
L 790.76637 398.405183 
L 792.800547 396.412249 
L 794.834723 397.200662 
L 798.903076 397.04736 
L 800.937252 396.404949 
L 802.971429 397.266363 
L 805.005605 397.916074 
L 807.039781 399.069494 
L 809.073958 398.332181 
L 813.14231 409.53787 
L 815.176487 416.867193 
L 817.210663 417.020496 
L 819.244839 414.786658 
L 821.279016 421.904278 
L 823.313192 422.115982 
L 825.347368 434.555391 
L 827.381545 434.000582 
L 829.415721 435.840213 
L 831.449897 453.280206 
L 833.484074 452.754597 
L 835.51825 453.681713 
L 837.552427 451.228872 
L 839.586603 452.440692 
L 841.620779 451.513577 
L 843.654956 454.616129 
L 845.689132 456.302457 
L 847.723308 455.762248 
L 849.757485 459.551012 
L 851.791661 459.215206 
L 853.825837 457.798982 
L 855.860014 458.003386 
L 857.89419 458.667697 
L 859.928366 458.747998 
L 861.962543 459.200606 
L 863.996719 458.967002 
L 866.030895 466.179523 
L 868.065072 466.829234 
L 870.099248 466.062721 
L 872.133424 464.704899 
L 874.167601 465.741516 
L 876.201777 465.646614 
L 878.235954 463.347076 
L 880.27013 464.310692 
L 882.304306 463.179173 
L 884.338483 462.974769 
L 886.372659 464.405594 
L 888.406835 465.186707 
L 890.441012 465.807217 
L 892.475188 465.814517 
L 894.509364 466.405827 
L 898.577717 466.792734 
L 900.611893 466.821934 
L 902.64607 465.442211 
L 904.680246 466.435028 
L 906.714422 472.793435 
L 910.782775 472.48683 
L 912.816951 473.508847 
L 914.851128 472.318927 
L 916.885304 469.493779 
L 918.919481 469.56678 
L 920.953657 469.953687 
L 922.987833 473.815452 
L 925.02201 473.070839 
L 927.056186 473.070839 
L 929.090362 472.581731 
L 931.124539 474.443262 
L 933.158715 475.195175 
L 939.261244 475.224376 
L 943.329597 474.114757 
L 945.363773 474.326461 
L 949.432126 474.370261 
L 951.466302 474.91047 
L 957.568831 474.837469 
L 959.603008 476.443496 
L 961.637184 476.998306 
L 963.67136 477.961922 
L 967.739713 478.064123 
L 969.773889 478.341528 
L 973.842242 478.414529 
L 975.876418 478.772235 
L 977.910595 478.670034 
L 979.944771 484.232727 
L 981.978947 475.903287 
L 984.013124 476.07119 
L 986.0473 478.137125 
L 988.081476 476.6771 
L 990.115653 477.173508 
L 992.149829 478.078724 
L 994.184005 478.845237 
L 996.218182 480.027856 
L 996.218182 480.027856 
" style="fill:none;stroke:#2ca02c;stroke-linecap:square;stroke-width:1.5;"/>
   </g>
   <g id="line2d_18">
    <path clip-path="url(#pb8702a0b1b)" d="M 184.581818 89.062476 
L 294.427341 89.128177 
L 300.52987 89.434782 
L 314.769105 89.617285 
L 316.803281 89.770588 
L 318.837457 89.799788 
L 320.871634 89.697586 
L 322.90581 89.967691 
L 324.939986 89.880089 
L 326.974163 90.055292 
L 333.076692 90.091793 
L 335.110868 90.208595 
L 337.145044 90.464099 
L 339.179221 90.427599 
L 343.247573 91.011608 
L 345.28175 90.785305 
L 349.350103 91.150311 
L 351.384279 91.807322 
L 353.418455 91.71242 
L 359.520984 92.113927 
L 361.555161 91.851123 
L 363.589337 91.741621 
L 367.65769 92.676037 
L 369.691866 93.048343 
L 371.726042 92.727137 
L 373.760219 93.595852 
L 375.794395 93.931658 
L 377.828571 94.06306 
L 381.896924 93.975458 
L 383.9311 94.559468 
L 385.965277 95.26028 
L 387.999453 95.369782 
L 390.03363 94.953675 
L 392.067806 96.917408 
L 394.101982 96.362599 
L 396.136159 96.983109 
L 398.170335 97.04151 
L 400.204511 97.370016 
L 402.238688 97.326215 
L 404.272864 97.669321 
L 406.30704 99.012543 
L 408.341217 100.02726 
L 410.375393 100.538269 
L 412.409569 100.58207 
L 414.443746 101.859591 
L 418.512098 102.772106 
L 420.546275 102.136996 
L 422.580451 103.290415 
L 424.614627 103.531319 
L 426.648804 103.407217 
L 430.717157 108.670606 
L 432.751333 109.860526 
L 434.785509 109.845926 
L 436.819686 111.167248 
L 438.853862 111.510354 
L 440.888038 109.094013 
L 442.922215 108.166897 
L 444.956391 107.042678 
L 446.990567 107.940593 
L 451.05892 112.371768 
L 453.093096 115.707924 
L 457.161449 113.481387 
L 459.195625 113.714991 
L 461.229802 113.627389 
L 463.263978 113.773392 
L 465.298154 113.474087 
L 467.332331 117.423453 
L 469.366507 119.562389 
L 471.400684 119.270384 
L 473.43486 119.737592 
L 475.469036 118.467371 
L 477.503213 120.599007 
L 479.537389 121.117315 
L 481.571565 121.832727 
L 483.605742 123.015347 
L 485.639918 126.475605 
L 487.674094 126.095999 
L 489.708271 125.168883 
L 491.742447 125.760193 
L 493.776623 128.081632 
L 495.8108 131.892297 
L 497.844976 134.812346 
L 499.879152 138.236103 
L 501.913329 145.090919 
L 503.947505 142.127069 
L 505.981681 145.696829 
L 508.015858 150.916417 
L 510.050034 154.252573 
L 512.084211 161.910402 
L 514.118387 160.691281 
L 516.152563 167.604498 
L 520.220916 163.414227 
L 524.289269 175.48863 
L 526.323445 174.123507 
L 528.357621 176.03614 
L 530.391798 176.715051 
L 532.425974 179.248194 
L 534.46015 182.146342 
L 536.494327 179.6351 
L 540.562679 178.671484 
L 542.596856 183.861871 
L 544.631032 181.956539 
L 546.665208 178.671484 
L 548.699385 177.109258 
L 550.733561 184.810887 
L 552.767738 188.446349 
L 554.801914 186.979024 
L 556.83609 187.96454 
L 558.870267 192.69502 
L 560.904443 198.805223 
L 562.938619 199.338132 
L 564.972796 204.00291 
L 567.006972 199.19943 
L 569.041148 195.06026 
L 573.109501 202.834891 
L 575.143677 207.229565 
L 577.177854 207.740573 
L 579.21203 207.601871 
L 581.246206 207.601871 
L 583.280383 220.690991 
L 585.314559 223.705942 
L 587.348735 231.057166 
L 589.382912 233.218002 
L 591.417088 234.84593 
L 593.451265 237.919281 
L 595.485441 240.335622 
L 597.519617 245.526009 
L 599.553794 250.088586 
L 601.58797 256.154988 
L 603.622146 265.667048 
L 605.656323 272.631366 
L 607.690499 273.186175 
L 609.724675 275.24481 
L 611.758852 276.668334 
L 613.793028 279.121175 
L 615.827204 279.756285 
L 617.861381 283.092442 
L 619.895557 284.815271 
L 621.929733 285.552583 
L 623.96391 285.297079 
L 625.998086 287.472515 
L 628.032262 288.969041 
L 630.066439 289.078542 
L 632.100615 290.11516 
L 634.134792 291.794188 
L 636.168968 289.954557 
L 638.203144 286.136593 
L 640.237321 286.968807 
L 642.271497 286.5308 
L 644.305673 284.880972 
L 646.33985 292.327097 
L 648.374026 292.181095 
L 650.408202 296.203462 
L 652.442379 307.94206 
L 654.476555 308.876476 
L 656.510731 310.373001 
L 658.544908 312.446236 
L 660.579084 312.928044 
L 662.61326 314.344268 
L 664.647437 317.096414 
L 666.681613 314.680073 
L 670.749966 316.227699 
L 672.784142 314.49757 
L 674.818319 315.417386 
L 676.852495 317.935928 
L 678.886671 317.001512 
L 680.920848 319.906961 
L 682.955024 322.440104 
L 684.9892 327.484489 
L 687.023377 329.95193 
L 689.057553 327.039181 
L 691.091729 323.097115 
L 693.125906 322.82701 
L 695.160082 322.878111 
L 697.194258 324.892945 
L 699.228435 326.513573 
L 701.262611 327.688892 
L 703.296787 331.528757 
L 705.330964 330.791445 
L 707.36514 328.367804 
L 709.399316 329.681826 
L 711.433493 331.411955 
L 713.467669 331.287853 
L 715.501846 332.339071 
L 717.536022 334.054599 
L 719.570198 333.528991 
L 721.604375 338.996783 
L 723.638551 345.705596 
L 725.672727 358.196106 
L 727.706904 356.217772 
L 729.74108 356.568178 
L 731.775256 356.122871 
L 733.809433 366.16054 
L 735.843609 372.482446 
L 737.877785 372.000638 
L 739.911962 374.767385 
L 741.946138 383.089525 
L 743.980314 394.69672 
L 746.014491 398.193479 
L 748.048667 391.616068 
L 750.082843 395.419432 
L 752.11702 393.455699 
L 754.151196 396.098344 
L 756.185373 396.229746 
L 758.219549 397.952575 
L 760.253725 403.843774 
L 762.287902 410.340884 
L 764.322078 413.611339 
L 766.356254 414.793958 
L 768.390431 418.991529 
L 770.424607 419.06453 
L 772.458783 412.895927 
L 774.49296 423.086898 
L 776.527136 426.926763 
L 778.561312 423.546806 
L 780.595489 427.189567 
L 782.629665 427.34287 
L 784.663841 441.62191 
L 786.698018 437.307537 
L 788.732194 435.840213 
L 790.76637 435.818312 
L 792.800547 437.716344 
L 794.834723 439.008466 
L 796.8689 436.073817 
L 798.903076 434.942298 
L 800.937252 435.380305 
L 802.971429 437.855047 
L 805.005605 439.993983 
L 807.039781 443.184136 
L 809.073958 444.235354 
L 811.108134 443.906848 
L 813.14231 443.213337 
L 815.176487 443.680545 
L 817.210663 444.293755 
L 819.244839 450.352857 
L 821.279016 451.11937 
L 823.313192 450.206855 
L 825.347368 450.111953 
L 827.381545 448.505926 
L 829.415721 448.681129 
L 831.449897 448.542427 
L 833.484074 450.885766 
L 835.51825 451.090169 
L 837.552427 451.09747 
L 839.586603 457.594579 
L 841.620779 455.30234 
L 843.654956 455.127137 
L 845.689132 454.046719 
L 847.723308 462.609763 
L 849.757485 463.055071 
L 851.791661 463.704782 
L 855.860014 468.654265 
L 857.89419 468.311159 
L 859.928366 468.632365 
L 861.962543 473.311743 
L 863.996719 474.735267 
L 868.065072 474.545464 
L 870.099248 474.720667 
L 872.133424 475.333877 
L 876.201777 475.122174 
L 878.235954 475.268176 
L 880.27013 474.450563 
L 882.304306 471.012205 
L 886.372659 471.129007 
L 888.406835 467.76365 
L 890.441012 469.070372 
L 892.475188 471.837119 
L 894.509364 471.034105 
L 896.543541 472.019622 
L 898.577717 472.151024 
L 900.611893 471.567014 
L 902.64607 471.778718 
L 904.680246 472.625532 
L 908.748599 470.588798 
L 910.782775 470.661799 
L 912.816951 472.786135 
L 914.851128 472.808035 
L 916.885304 473.946854 
L 918.919481 472.180224 
L 920.953657 475.392278 
L 922.987833 476.859603 
L 925.02201 472.151024 
L 927.056186 471.713017 
L 929.090362 471.713017 
L 931.124539 472.370028 
L 933.158715 471.581614 
L 939.261244 471.654616 
L 941.29542 469.048472 
L 943.329597 468.814868 
L 947.397949 477.100507 
L 949.432126 478.151725 
L 951.466302 478.494831 
L 953.500478 479.896454 
L 961.637184 479.998656 
L 963.67136 479.181042 
L 965.705537 479.275944 
L 967.739713 478.918238 
L 969.773889 478.932838 
L 971.808066 478.290427 
L 973.842242 478.290427 
L 975.876418 478.845237 
L 977.910595 479.144542 
L 979.944771 479.144542 
L 981.978947 480.743269 
L 984.013124 473.165741 
L 986.0473 473.486946 
L 988.081476 473.486946 
L 990.115653 476.604099 
L 992.149829 476.604099 
L 994.184005 476.779302 
L 996.218182 476.421596 
L 996.218182 476.421596 
" style="fill:none;stroke:#d62728;stroke-dasharray:5.55,2.4;stroke-dashoffset:0;stroke-width:1.5;"/>
   </g>
   <g id="line2d_19">
    <path clip-path="url(#pb8702a0b1b)" d="M 184.581818 89.062476 
L 278.15393 88.952974 
L 282.222283 88.916473 
L 294.427341 89.201178 
L 298.495694 89.113577 
L 347.315926 89.967691 
L 349.350103 89.858189 
L 359.520984 90.405698 
L 361.555161 90.332697 
L 363.589337 90.449499 
L 365.623513 90.836406 
L 367.65769 90.792605 
L 371.726042 91.09921 
L 373.760219 91.493417 
L 375.794395 91.559118 
L 377.828571 91.12111 
L 379.862748 91.427715 
L 385.965277 91.405815 
L 387.999453 91.500717 
L 390.03363 91.946024 
L 398.170335 91.70512 
L 400.204511 91.894923 
L 402.238688 91.858423 
L 404.272864 92.478933 
L 406.30704 92.29643 
L 410.375393 92.588435 
L 412.409569 92.29643 
L 414.443746 92.705237 
L 416.477922 93.522851 
L 418.512098 94.486467 
L 420.546275 93.822156 
L 422.580451 93.785655 
L 424.614627 93.588552 
L 426.648804 94.384265 
L 428.68298 94.245563 
L 430.717157 94.895274 
L 432.751333 95.807789 
L 434.785509 95.997592 
L 436.819686 96.895508 
L 438.853862 96.837107 
L 440.888038 96.172795 
L 444.956391 97.457617 
L 446.990567 97.355415 
L 449.024744 97.844523 
L 451.05892 98.786239 
L 453.093096 100.509068 
L 455.127273 100.129462 
L 457.161449 101.056578 
L 459.195625 100.406867 
L 461.229802 100.100261 
L 463.263978 99.40675 
L 465.298154 98.567236 
L 467.332331 99.216947 
L 469.366507 100.071061 
L 471.400684 101.21718 
L 473.43486 103.998527 
L 475.469036 104.808841 
L 477.503213 104.407334 
L 479.537389 103.691922 
L 481.571565 106.100962 
L 483.605742 108.057395 
L 485.639918 106.874775 
L 487.674094 109.203515 
L 489.708271 110.72924 
L 491.742447 110.970144 
L 493.776623 112.306067 
L 497.844976 116.62774 
L 499.879152 116.62774 
L 501.913329 115.978029 
L 503.947505 116.204333 
L 508.015858 113.590889 
L 510.050034 114.525304 
L 512.084211 115.656823 
L 514.118387 115.532721 
L 516.152563 119.401786 
L 518.18674 122.847444 
L 520.220916 121.015114 
L 522.255092 121.847328 
L 524.289269 122.088232 
L 526.323445 123.219751 
L 528.357621 121.745126 
L 530.391798 123.497155 
L 532.425974 125.088582 
L 534.46015 127.643625 
L 536.494327 130.87758 
L 538.528503 130.505273 
L 540.562679 131.724394 
L 542.596856 130.673176 
L 544.631032 136.86368 
L 546.665208 136.776079 
L 548.699385 145.15662 
L 550.733561 146.587444 
L 552.767738 145.010617 
L 554.801914 154.08467 
L 556.83609 152.989652 
L 558.870267 158.866251 
L 560.904443 163.253624 
L 562.938619 159.932069 
L 564.972796 166.932886 
L 567.006972 165.049455 
L 571.075325 161.749799 
L 573.109501 161.19499 
L 575.143677 163.129522 
L 577.177854 168.480512 
L 581.246206 181.284928 
L 583.280383 186.022708 
L 585.314559 192.11831 
L 587.348735 197.805106 
L 589.382912 203.827707 
L 593.451265 216.741625 
L 595.485441 214.223082 
L 597.519617 206.506853 
L 599.553794 209.580204 
L 601.58797 219.814977 
L 605.656323 221.2385 
L 607.690499 231.049866 
L 609.724675 232.181385 
L 611.758852 236.758562 
L 613.793028 236.860763 
L 615.827204 238.736895 
L 617.861381 236.466557 
L 619.895557 235.882547 
L 621.929733 230.71406 
L 623.96391 232.947898 
L 625.998086 232.736194 
L 628.032262 237.897381 
L 630.066439 241.934349 
L 632.100615 244.153586 
L 634.134792 242.824964 
L 636.168968 240.620327 
L 638.203144 241.255437 
L 640.237321 244.430991 
L 642.271497 243.730179 
L 644.305673 245.56251 
L 646.33985 250.803998 
L 648.374026 253.110837 
L 650.408202 259.972952 
L 652.442379 258.323125 
L 654.476555 259.22104 
L 656.510731 261.797983 
L 658.544908 259.425443 
L 660.579084 271.09104 
L 662.61326 273.434379 
L 664.647437 275.128008 
L 666.681613 275.777719 
L 670.749966 285.202177 
L 672.784142 286.808204 
L 674.818319 292.451199 
L 676.852495 296.480867 
L 678.886671 295.064643 
L 680.920848 293.867423 
L 682.955024 302.722472 
L 684.9892 303.445184 
L 687.023377 310.394901 
L 689.057553 314.767675 
L 691.091729 315.709391 
L 693.125906 317.848327 
L 695.160082 319.111248 
L 697.194258 324.447638 
L 699.228435 324.00963 
L 701.262611 325.360153 
L 703.296787 327.170584 
L 705.330964 336.273837 
L 707.36514 335.332121 
L 709.399316 342.603043 
L 711.433493 343.559359 
L 713.467669 345.048584 
L 715.501846 340.63201 
L 717.536022 335.682527 
L 719.570198 341.909532 
L 721.604375 342.544642 
L 723.638551 350.450675 
L 725.672727 350.866782 
L 727.706904 349.501659 
L 729.74108 353.363424 
L 731.775256 355.071653 
L 733.809433 360.130638 
L 735.843609 360.422643 
L 737.877785 371.095423 
L 739.911962 377.877237 
L 741.946138 378.811653 
L 743.980314 378.614549 
L 746.014491 384.58605 
L 748.048667 386.36728 
L 750.082843 389.666936 
L 752.11702 391.178061 
L 754.151196 390.915257 
L 756.185373 391.900773 
L 758.219549 387.345496 
L 760.253725 387.330896 
L 762.287902 389.250829 
L 764.322078 389.666936 
L 766.356254 391.316763 
L 768.390431 391.331364 
L 770.424607 389.017225 
L 772.458783 387.389297 
L 774.49296 387.024291 
L 776.527136 393.258596 
L 778.561312 393.842606 
L 780.595489 391.878873 
L 782.629665 395.222329 
L 784.663841 395.499734 
L 786.698018 397.419666 
L 788.732194 397.05466 
L 790.76637 394.638319 
L 792.800547 394.485017 
L 794.834723 394.163811 
L 796.8689 396.069143 
L 798.903076 397.368565 
L 800.937252 396.404949 
L 802.971429 398.215379 
L 805.005605 397.857673 
L 807.039781 397.959875 
L 809.073958 399.251997 
L 811.108134 405.537403 
L 813.14231 405.683405 
L 815.176487 409.588971 
L 817.210663 416.589789 
L 819.244839 414.509254 
L 821.279016 414.954561 
L 823.313192 414.188048 
L 825.347368 423.459204 
L 827.381545 425.459438 
L 829.415721 426.16025 
L 831.449897 429.576707 
L 833.484074 446.622494 
L 835.51825 456.988669 
L 837.552427 456.711264 
L 839.586603 456.623663 
L 843.654956 454.616129 
L 845.689132 456.302457 
L 847.723308 459.930618 
L 849.757485 459.551012 
L 851.791661 459.835717 
L 853.825837 460.558429 
L 855.860014 459.259007 
L 857.89419 459.105704 
L 859.928366 458.543595 
L 861.962543 458.594696 
L 863.996719 459.288207 
L 868.065072 459.748115 
L 870.099248 460.908835 
L 872.133424 466.931436 
L 874.167601 467.617648 
L 876.201777 465.099105 
L 878.235954 465.274308 
L 880.27013 464.310692 
L 882.304306 464.909302 
L 884.338483 463.777783 
L 886.372659 463.544179 
L 888.406835 464.120889 
L 890.441012 465.814517 
L 892.475188 466.508029 
L 894.509364 466.639431 
L 896.543541 466.610231 
L 898.577717 467.690649 
L 900.611893 466.383927 
L 902.64607 466.442328 
L 904.680246 466.143023 
L 906.714422 466.157623 
L 908.748599 472.698533 
L 910.782775 472.48683 
L 912.816951 473.508847 
L 914.851128 469.289376 
L 916.885304 469.493779 
L 918.919481 469.56678 
L 920.953657 469.953687 
L 922.987833 473.815452 
L 925.02201 473.815452 
L 927.056186 473.070839 
L 929.090362 473.355544 
L 933.158715 473.421245 
L 935.192891 475.224376 
L 937.227068 475.224376 
L 939.261244 474.859369 
L 941.29542 474.859369 
L 943.329597 474.114757 
L 945.363773 474.326461 
L 947.397949 474.370261 
L 949.432126 473.567248 
L 951.466302 473.567248 
L 953.500478 474.808269 
L 957.568831 474.837469 
L 959.603008 476.443496 
L 961.637184 476.998306 
L 963.67136 477.129708 
L 965.705537 478.239326 
L 969.773889 478.341528 
L 971.808066 478.078724 
L 973.842242 478.093324 
L 975.876418 478.326928 
L 977.910595 478.399929 
L 979.944771 471.89552 
L 981.978947 475.027272 
L 984.013124 476.07119 
L 986.0473 475.633183 
L 988.081476 475.786485 
L 994.184005 476.837703 
L 996.218182 480.027856 
L 996.218182 480.027856 
" style="fill:none;stroke:#9467bd;stroke-dasharray:5.55,2.4;stroke-dashoffset:0;stroke-width:1.5;"/>
   </g>
   <g id="line2d_20">
    <path clip-path="url(#pb8702a0b1b)" d="M 184.581818 89.062476 
L 278.15393 89.113577 
L 280.188107 89.237679 
L 298.495694 89.31798 
L 300.52987 89.551584 
L 302.564046 89.90929 
L 308.666576 89.828989 
L 310.700752 90.062593 
L 312.734928 90.018792 
L 314.769105 90.193995 
L 316.803281 89.90929 
L 318.837457 89.89469 
L 320.871634 90.193995 
L 324.939986 90.5152 
L 326.974163 90.427599 
L 331.042515 91.026209 
L 333.076692 90.909407 
L 335.110868 91.201412 
L 337.145044 90.887506 
L 339.179221 91.66862 
L 341.213397 91.829222 
L 343.247573 91.851123 
L 345.28175 92.661436 
L 347.315926 92.676037 
L 349.350103 93.194345 
L 351.384279 92.785538 
L 353.418455 93.289247 
L 355.452632 93.150544 
L 357.486808 94.194462 
L 361.555161 94.223663 
L 363.589337 95.391682 
L 365.623513 96.216596 
L 369.691866 96.362599 
L 371.726042 97.574419 
L 375.794395 97.559819 
L 377.828571 97.829923 
L 379.862748 97.377316 
L 381.896924 97.902924 
L 383.9311 96.764105 
L 385.965277 96.421 
L 390.03363 96.537802 
L 392.067806 96.479401 
L 396.136159 97.260514 
L 398.170335 97.129111 
L 400.204511 96.326098 
L 402.238688 96.391799 
L 404.272864 95.785889 
L 406.30704 97.311615 
L 408.341217 97.472217 
L 410.375393 98.121928 
L 412.409569 98.632937 
L 414.443746 99.946959 
L 416.477922 100.399567 
L 418.512098 101.79389 
L 420.546275 101.604087 
L 424.614627 104.100729 
L 426.648804 103.991227 
L 430.717157 104.370833 
L 432.751333 105.677555 
L 434.785509 105.808958 
L 436.819686 107.327383 
L 440.888038 106.217764 
L 442.922215 106.049862 
L 444.956391 105.998761 
L 446.990567 107.626688 
L 449.024744 107.071879 
L 451.05892 108.831208 
L 453.093096 108.502703 
L 455.127273 108.3421 
L 457.161449 110.605138 
L 459.195625 110.889843 
L 461.229802 109.955427 
L 463.263978 110.006528 
L 465.298154 109.933527 
L 467.332331 111.780458 
L 469.366507 111.729357 
L 471.400684 111.29135 
L 473.43486 111.086946 
L 475.469036 110.634339 
L 477.503213 112.320667 
L 479.537389 115.094714 
L 481.571565 117.26285 
L 483.605742 117.81036 
L 485.639918 118.781276 
L 487.674094 118.832377 
L 489.708271 116.62044 
L 491.742447 120.292401 
L 493.776623 120.78151 
L 495.8108 122.555439 
L 497.844976 122.737943 
L 499.879152 125.949997 
L 501.913329 126.1252 
L 503.947505 125.511989 
L 505.981681 126.526706 
L 508.015858 127.760427 
L 510.050034 127.994031 
L 512.084211 127.132616 
L 514.118387 129.183951 
L 516.152563 134.096934 
L 518.18674 136.389172 
L 520.220916 137.644793 
L 522.255092 138.696011 
L 524.289269 137.031583 
L 526.323445 140.229037 
L 528.357621 141.411657 
L 530.391798 143.156386 
L 532.425974 148.843182 
L 534.46015 155.201589 
L 536.494327 158.172739 
L 538.528503 156.800316 
L 540.562679 159.793366 
L 542.596856 161.859301 
L 544.631032 162.837517 
L 546.665208 164.231841 
L 548.699385 164.611447 
L 552.767738 166.626281 
L 554.801914 167.480396 
L 556.83609 169.736134 
L 558.870267 172.364178 
L 560.904443 175.262327 
L 562.938619 184.621084 
L 564.972796 187.884239 
L 567.006972 188.402548 
L 569.041148 187.665235 
L 571.075325 198.578919 
L 573.109501 208.054479 
L 575.143677 210.054712 
L 577.177854 212.91636 
L 579.21203 216.500721 
L 581.246206 219.581373 
L 583.280383 226.122283 
L 585.314559 230.641059 
L 587.348735 240.269921 
L 589.382912 240.123918 
L 591.417088 242.970966 
L 593.451265 246.015118 
L 595.485441 243.007467 
L 597.519617 245.029601 
L 599.553794 244.131686 
L 601.58797 245.693912 
L 603.622146 249.059269 
L 605.656323 251.818715 
L 607.690499 253.88465 
L 609.724675 258.01652 
L 611.758852 262.469595 
L 613.793028 275.996722 
L 615.827204 280.654201 
L 617.861381 291.845289 
L 619.895557 297.028376 
L 621.929733 295.721654 
L 623.96391 296.130461 
L 625.998086 295.47345 
L 628.032262 297.699988 
L 630.066439 288.874139 
L 632.100615 289.596851 
L 634.134792 289.560351 
L 636.168968 288.633235 
L 638.203144 291.88909 
L 640.237321 292.670203 
L 642.271497 295.093844 
L 644.305673 304.861408 
L 646.33985 308.723173 
L 648.374026 316.125498 
L 650.408202 319.739058 
L 652.442379 319.80476 
L 654.476555 320.600473 
L 656.510731 330.733044 
L 658.544908 333.288087 
L 660.579084 332.91578 
L 662.61326 331.755061 
L 664.647437 328.937213 
L 666.681613 329.732927 
L 668.715789 328.1196 
L 670.749966 329.572324 
L 672.784142 328.214501 
L 674.818319 332.733277 
L 676.852495 339.814396 
L 678.886671 341.602926 
L 680.920848 346.034101 
L 682.955024 347.457625 
L 684.9892 359.101321 
L 687.023377 361.926469 
L 689.057553 360.459144 
L 691.091729 361.006653 
L 693.125906 368.036671 
L 695.160082 371.847336 
L 697.194258 377.775035 
L 701.262611 393.4922 
L 703.296787 397.572969 
L 705.330964 393.594402 
L 707.36514 392.630785 
L 709.399316 392.579685 
L 711.433493 397.711671 
L 713.467669 399.230096 
L 715.501846 402.522452 
L 717.536022 404.033577 
L 719.570198 403.332766 
L 721.604375 406.632421 
L 723.638551 406.632421 
L 725.672727 407.836941 
L 727.706904 408.807858 
L 729.74108 412.421419 
L 731.775256 415.341468 
L 733.809433 414.998362 
L 735.843609 419.247033 
L 737.877785 429.810311 
L 739.911962 429.71541 
L 741.946138 429.854112 
L 743.980314 436.86223 
L 746.014491 436.88413 
L 748.048667 437.190735 
L 750.082843 438.497457 
L 754.151196 438.512058 
L 756.185373 439.409973 
L 758.219549 438.760262 
L 760.253725 437.913448 
L 762.287902 438.906264 
L 764.322078 439.015766 
L 766.356254 438.796762 
L 768.390431 438.161652 
L 770.424607 439.373472 
L 772.458783 439.482974 
L 774.49296 439.468374 
L 778.561312 439.672777 
L 780.595489 441.395606 
L 782.629665 441.067101 
L 784.663841 440.504991 
L 786.698018 440.497691 
L 788.732194 440.964899 
L 790.76637 441.067101 
L 792.800547 438.198152 
L 794.834723 438.05215 
L 796.8689 438.234653 
L 798.903076 438.825963 
L 800.937252 438.789462 
L 802.971429 437.526541 
L 805.005605 437.548441 
L 807.039781 436.745428 
L 809.073958 437.672544 
L 811.108134 439.066867 
L 813.14231 438.979266 
L 815.176487 439.753079 
L 817.210663 439.86258 
L 819.244839 440.322488 
L 821.279016 440.059684 
L 823.313192 439.395373 
L 825.347368 441.249604 
L 827.381545 440.556092 
L 829.415721 440.103484 
L 831.449897 439.030366 
L 835.51825 439.023066 
L 837.552427 438.774862 
L 839.586603 439.059567 
L 843.654956 438.928165 
L 845.689132 443.97255 
L 847.723308 441.665711 
L 849.757485 442.81183 
L 851.791661 444.447058 
L 855.860014 444.760963 
L 857.89419 446.191787 
L 859.928366 448.695729 
L 861.962543 450.462359 
L 863.996719 450.659462 
L 866.030895 454.419025 
L 868.065072 454.214622 
L 870.099248 454.404425 
L 872.133424 457.251473 
L 874.167601 456.587162 
L 876.201777 456.915667 
L 878.235954 450.002451 
L 880.27013 447.819714 
L 882.304306 452.491793 
L 884.338483 452.228989 
L 886.372659 452.353091 
L 888.406835 453.324007 
L 890.441012 448.228521 
L 892.475188 447.520409 
L 894.509364 446.476492 
L 898.577717 451.367574 
L 900.611893 448.016818 
L 902.64607 447.681012 
L 904.680246 450.075452 
L 906.714422 464.456694 
L 908.748599 467.289142 
L 910.782775 462.938269 
L 912.816951 461.638847 
L 914.851128 461.646147 
L 916.885304 461.82865 
L 918.919481 459.485311 
L 920.953657 459.478011 
L 922.987833 461.653447 
L 925.02201 471.223908 
L 929.090362 470.523097 
L 931.124539 472.231325 
L 933.158715 472.771534 
L 935.192891 472.428429 
L 937.227068 472.333527 
L 939.261244 472.472229 
L 941.29542 473.640249 
L 943.329597 472.720433 
L 945.363773 474.472463 
L 949.432126 474.859369 
L 951.466302 473.764351 
L 953.500478 472.990538 
L 957.568831 473.012438 
L 959.603008 472.333527 
L 961.637184 472.749634 
L 963.67136 474.151258 
L 965.705537 476.458096 
L 967.739713 476.604099 
L 969.773889 468.865969 
L 971.808066 468.208958 
L 973.842242 468.208958 
L 975.876418 469.136073 
L 977.910595 468.639665 
L 981.978947 468.625065 
L 984.013124 472.567131 
L 990.115653 472.567131 
L 992.149829 474.078256 
L 996.218182 474.078256 
L 996.218182 474.078256 
" style="fill:none;stroke:#8c564b;stroke-dasharray:5.55,2.4;stroke-dashoffset:0;stroke-width:1.5;"/>
   </g>
   <g id="patch_3">
    <path d="M 144 504 
L 144 69.12 
" style="fill:none;stroke:#000000;stroke-linecap:square;stroke-linejoin:miter;stroke-width:0.8;"/>
   </g>
   <g id="patch_4">
    <path d="M 1036.8 504 
L 1036.8 69.12 
" style="fill:none;stroke:#000000;stroke-linecap:square;stroke-linejoin:miter;stroke-width:0.8;"/>
   </g>
   <g id="patch_5">
    <path d="M 144 504 
L 1036.8 504 
" style="fill:none;stroke:#000000;stroke-linecap:square;stroke-linejoin:miter;stroke-width:0.8;"/>
   </g>
   <g id="patch_6">
    <path d="M 144 69.12 
L 1036.8 69.12 
" style="fill:none;stroke:#000000;stroke-linecap:square;stroke-linejoin:miter;stroke-width:0.8;"/>
   </g>
   <g id="legend_1">
    <g id="patch_7">
     <path d="M 905.367188 166.579375 
L 1029.8 166.579375 
Q 1031.8 166.579375 1031.8 164.579375 
L 1031.8 76.12 
Q 1031.8 74.12 1029.8 74.12 
L 905.367188 74.12 
Q 903.367188 74.12 903.367188 76.12 
L 903.367188 164.579375 
Q 903.367188 166.579375 905.367188 166.579375 
z
" style="fill:#ffffff;opacity:0.8;stroke:#cccccc;stroke-linejoin:miter;"/>
    </g>
    <g id="line2d_21">
     <path d="M 907.367188 82.218438 
L 927.367188 82.218438 
" style="fill:none;stroke:#1f77b4;stroke-linecap:square;stroke-width:1.5;"/>
    </g>
    <g id="line2d_22"/>
    <g id="text_17">
     <!-- taylorfo -->
     <defs>
      <path d="M 18.3125 70.21875 
L 18.3125 54.6875 
L 36.8125 54.6875 
L 36.8125 47.703125 
L 18.3125 47.703125 
L 18.3125 18.015625 
Q 18.3125 11.328125 20.140625 9.421875 
Q 21.96875 7.515625 27.59375 7.515625 
L 36.8125 7.515625 
L 36.8125 0 
L 27.59375 0 
Q 17.1875 0 13.234375 3.875 
Q 9.28125 7.765625 9.28125 18.015625 
L 9.28125 47.703125 
L 2.6875 47.703125 
L 2.6875 54.6875 
L 9.28125 54.6875 
L 9.28125 70.21875 
z
" id="DejaVuSans-116"/>
      <path d="M 9.421875 75.984375 
L 18.40625 75.984375 
L 18.40625 0 
L 9.421875 0 
z
" id="DejaVuSans-108"/>
     </defs>
     <g transform="translate(935.367188 85.718438)scale(0.1 -0.1)">
      <use xlink:href="#DejaVuSans-116"/>
      <use x="39.208984" xlink:href="#DejaVuSans-97"/>
      <use x="100.488281" xlink:href="#DejaVuSans-121"/>
      <use x="159.667969" xlink:href="#DejaVuSans-108"/>
      <use x="187.451172" xlink:href="#DejaVuSans-111"/>
      <use x="248.632812" xlink:href="#DejaVuSans-114"/>
      <use x="289.746094" xlink:href="#DejaVuSans-102"/>
      <use x="324.951172" xlink:href="#DejaVuSans-111"/>
     </g>
    </g>
    <g id="line2d_23">
     <path d="M 907.367188 96.896563 
L 927.367188 96.896563 
" style="fill:none;stroke:#ff7f0e;stroke-linecap:square;stroke-width:1.5;"/>
    </g>
    <g id="line2d_24"/>
    <g id="text_18">
     <!-- taylorfo_abs -->
     <defs>
      <path d="M 50.984375 -16.609375 
L 50.984375 -23.578125 
L -0.984375 -23.578125 
L -0.984375 -16.609375 
z
" id="DejaVuSans-95"/>
     </defs>
     <g transform="translate(935.367188 100.396563)scale(0.1 -0.1)">
      <use xlink:href="#DejaVuSans-116"/>
      <use x="39.208984" xlink:href="#DejaVuSans-97"/>
      <use x="100.488281" xlink:href="#DejaVuSans-121"/>
      <use x="159.667969" xlink:href="#DejaVuSans-108"/>
      <use x="187.451172" xlink:href="#DejaVuSans-111"/>
      <use x="248.632812" xlink:href="#DejaVuSans-114"/>
      <use x="289.746094" xlink:href="#DejaVuSans-102"/>
      <use x="324.951172" xlink:href="#DejaVuSans-111"/>
      <use x="386.132812" xlink:href="#DejaVuSans-95"/>
      <use x="436.132812" xlink:href="#DejaVuSans-97"/>
      <use x="497.412109" xlink:href="#DejaVuSans-98"/>
      <use x="560.888672" xlink:href="#DejaVuSans-115"/>
     </g>
    </g>
    <g id="line2d_25">
     <path d="M 907.367188 111.852813 
L 927.367188 111.852813 
" style="fill:none;stroke:#2ca02c;stroke-linecap:square;stroke-width:1.5;"/>
    </g>
    <g id="line2d_26"/>
    <g id="text_19">
     <!-- taylorfo_sq -->
     <defs>
      <path d="M 14.796875 27.296875 
Q 14.796875 17.390625 18.875 11.75 
Q 22.953125 6.109375 30.078125 6.109375 
Q 37.203125 6.109375 41.296875 11.75 
Q 45.40625 17.390625 45.40625 27.296875 
Q 45.40625 37.203125 41.296875 42.84375 
Q 37.203125 48.484375 30.078125 48.484375 
Q 22.953125 48.484375 18.875 42.84375 
Q 14.796875 37.203125 14.796875 27.296875 
z
M 45.40625 8.203125 
Q 42.578125 3.328125 38.25 0.953125 
Q 33.9375 -1.421875 27.875 -1.421875 
Q 17.96875 -1.421875 11.734375 6.484375 
Q 5.515625 14.40625 5.515625 27.296875 
Q 5.515625 40.1875 11.734375 48.09375 
Q 17.96875 56 27.875 56 
Q 33.9375 56 38.25 53.625 
Q 42.578125 51.265625 45.40625 46.390625 
L 45.40625 54.6875 
L 54.390625 54.6875 
L 54.390625 -20.796875 
L 45.40625 -20.796875 
z
" id="DejaVuSans-113"/>
     </defs>
     <g transform="translate(935.367188 115.352813)scale(0.1 -0.1)">
      <use xlink:href="#DejaVuSans-116"/>
      <use x="39.208984" xlink:href="#DejaVuSans-97"/>
      <use x="100.488281" xlink:href="#DejaVuSans-121"/>
      <use x="159.667969" xlink:href="#DejaVuSans-108"/>
      <use x="187.451172" xlink:href="#DejaVuSans-111"/>
      <use x="248.632812" xlink:href="#DejaVuSans-114"/>
      <use x="289.746094" xlink:href="#DejaVuSans-102"/>
      <use x="324.951172" xlink:href="#DejaVuSans-111"/>
      <use x="386.132812" xlink:href="#DejaVuSans-95"/>
      <use x="436.132812" xlink:href="#DejaVuSans-115"/>
      <use x="488.232422" xlink:href="#DejaVuSans-113"/>
     </g>
    </g>
    <g id="line2d_27">
     <path d="M 907.367188 126.809063 
L 927.367188 126.809063 
" style="fill:none;stroke:#d62728;stroke-dasharray:5.55,2.4;stroke-dashoffset:0;stroke-width:1.5;"/>
    </g>
    <g id="line2d_28"/>
    <g id="text_20">
     <!-- taylorfo_abs_norm -->
     <g transform="translate(935.367188 130.309063)scale(0.1 -0.1)">
      <use xlink:href="#DejaVuSans-116"/>
      <use x="39.208984" xlink:href="#DejaVuSans-97"/>
      <use x="100.488281" xlink:href="#DejaVuSans-121"/>
      <use x="159.667969" xlink:href="#DejaVuSans-108"/>
      <use x="187.451172" xlink:href="#DejaVuSans-111"/>
      <use x="248.632812" xlink:href="#DejaVuSans-114"/>
      <use x="289.746094" xlink:href="#DejaVuSans-102"/>
      <use x="324.951172" xlink:href="#DejaVuSans-111"/>
      <use x="386.132812" xlink:href="#DejaVuSans-95"/>
      <use x="436.132812" xlink:href="#DejaVuSans-97"/>
      <use x="497.412109" xlink:href="#DejaVuSans-98"/>
      <use x="560.888672" xlink:href="#DejaVuSans-115"/>
      <use x="612.988281" xlink:href="#DejaVuSans-95"/>
      <use x="662.988281" xlink:href="#DejaVuSans-110"/>
      <use x="726.367188" xlink:href="#DejaVuSans-111"/>
      <use x="787.548828" xlink:href="#DejaVuSans-114"/>
      <use x="826.912109" xlink:href="#DejaVuSans-109"/>
     </g>
    </g>
    <g id="line2d_29">
     <path d="M 907.367188 141.765313 
L 927.367188 141.765313 
" style="fill:none;stroke:#9467bd;stroke-dasharray:5.55,2.4;stroke-dashoffset:0;stroke-width:1.5;"/>
    </g>
    <g id="line2d_30"/>
    <g id="text_21">
     <!-- taylorfo_sq_norm -->
     <g transform="translate(935.367188 145.265313)scale(0.1 -0.1)">
      <use xlink:href="#DejaVuSans-116"/>
      <use x="39.208984" xlink:href="#DejaVuSans-97"/>
      <use x="100.488281" xlink:href="#DejaVuSans-121"/>
      <use x="159.667969" xlink:href="#DejaVuSans-108"/>
      <use x="187.451172" xlink:href="#DejaVuSans-111"/>
      <use x="248.632812" xlink:href="#DejaVuSans-114"/>
      <use x="289.746094" xlink:href="#DejaVuSans-102"/>
      <use x="324.951172" xlink:href="#DejaVuSans-111"/>
      <use x="386.132812" xlink:href="#DejaVuSans-95"/>
      <use x="436.132812" xlink:href="#DejaVuSans-115"/>
      <use x="488.232422" xlink:href="#DejaVuSans-113"/>
      <use x="551.708984" xlink:href="#DejaVuSans-95"/>
      <use x="601.708984" xlink:href="#DejaVuSans-110"/>
      <use x="665.087891" xlink:href="#DejaVuSans-111"/>
      <use x="726.269531" xlink:href="#DejaVuSans-114"/>
      <use x="765.632812" xlink:href="#DejaVuSans-109"/>
     </g>
    </g>
    <g id="line2d_31">
     <path d="M 907.367188 156.721563 
L 927.367188 156.721563 
" style="fill:none;stroke:#8c564b;stroke-dasharray:5.55,2.4;stroke-dashoffset:0;stroke-width:1.5;"/>
    </g>
    <g id="line2d_32"/>
    <g id="text_22">
     <!-- Molchanov_group -->
     <defs>
      <path d="M 9.8125 72.90625 
L 24.515625 72.90625 
L 43.109375 23.296875 
L 61.8125 72.90625 
L 76.515625 72.90625 
L 76.515625 0 
L 66.890625 0 
L 66.890625 64.015625 
L 48.09375 14.015625 
L 38.1875 14.015625 
L 19.390625 64.015625 
L 19.390625 0 
L 9.8125 0 
z
" id="DejaVuSans-77"/>
      <path d="M 54.890625 33.015625 
L 54.890625 0 
L 45.90625 0 
L 45.90625 32.71875 
Q 45.90625 40.484375 42.875 44.328125 
Q 39.84375 48.1875 33.796875 48.1875 
Q 26.515625 48.1875 22.3125 43.546875 
Q 18.109375 38.921875 18.109375 30.90625 
L 18.109375 0 
L 9.078125 0 
L 9.078125 75.984375 
L 18.109375 75.984375 
L 18.109375 46.1875 
Q 21.34375 51.125 25.703125 53.5625 
Q 30.078125 56 35.796875 56 
Q 45.21875 56 50.046875 50.171875 
Q 54.890625 44.34375 54.890625 33.015625 
z
" id="DejaVuSans-104"/>
      <path d="M 2.984375 54.6875 
L 12.5 54.6875 
L 29.59375 8.796875 
L 46.6875 54.6875 
L 56.203125 54.6875 
L 35.6875 0 
L 23.484375 0 
z
" id="DejaVuSans-118"/>
      <path d="M 45.40625 27.984375 
Q 45.40625 37.75 41.375 43.109375 
Q 37.359375 48.484375 30.078125 48.484375 
Q 22.859375 48.484375 18.828125 43.109375 
Q 14.796875 37.75 14.796875 27.984375 
Q 14.796875 18.265625 18.828125 12.890625 
Q 22.859375 7.515625 30.078125 7.515625 
Q 37.359375 7.515625 41.375 12.890625 
Q 45.40625 18.265625 45.40625 27.984375 
z
M 54.390625 6.78125 
Q 54.390625 -7.171875 48.1875 -13.984375 
Q 42 -20.796875 29.203125 -20.796875 
Q 24.46875 -20.796875 20.265625 -20.09375 
Q 16.0625 -19.390625 12.109375 -17.921875 
L 12.109375 -9.1875 
Q 16.0625 -11.328125 19.921875 -12.34375 
Q 23.78125 -13.375 27.78125 -13.375 
Q 36.625 -13.375 41.015625 -8.765625 
Q 45.40625 -4.15625 45.40625 5.171875 
L 45.40625 9.625 
Q 42.625 4.78125 38.28125 2.390625 
Q 33.9375 0 27.875 0 
Q 17.828125 0 11.671875 7.65625 
Q 5.515625 15.328125 5.515625 27.984375 
Q 5.515625 40.671875 11.671875 48.328125 
Q 17.828125 56 27.875 56 
Q 33.9375 56 38.28125 53.609375 
Q 42.625 51.21875 45.40625 46.390625 
L 45.40625 54.6875 
L 54.390625 54.6875 
z
" id="DejaVuSans-103"/>
     </defs>
     <g transform="translate(935.367188 160.221563)scale(0.1 -0.1)">
      <use xlink:href="#DejaVuSans-77"/>
      <use x="86.279297" xlink:href="#DejaVuSans-111"/>
      <use x="147.460938" xlink:href="#DejaVuSans-108"/>
      <use x="175.244141" xlink:href="#DejaVuSans-99"/>
      <use x="230.224609" xlink:href="#DejaVuSans-104"/>
      <use x="293.603516" xlink:href="#DejaVuSans-97"/>
      <use x="354.882812" xlink:href="#DejaVuSans-110"/>
      <use x="418.261719" xlink:href="#DejaVuSans-111"/>
      <use x="479.443359" xlink:href="#DejaVuSans-118"/>
      <use x="538.623047" xlink:href="#DejaVuSans-95"/>
      <use x="588.623047" xlink:href="#DejaVuSans-103"/>
      <use x="652.099609" xlink:href="#DejaVuSans-114"/>
      <use x="690.962891" xlink:href="#DejaVuSans-111"/>
      <use x="752.144531" xlink:href="#DejaVuSans-117"/>
      <use x="815.523438" xlink:href="#DejaVuSans-112"/>
     </g>
    </g>
   </g>
  </g>
 </g>
 <defs>
  <clipPath id="pb8702a0b1b">
   <rect height="434.88" width="892.8" x="144" y="69.12"/>
  </clipPath>
 </defs>
</svg>
