<?xml version="1.0" encoding="utf-8" standalone="no"?>
<!DOCTYPE svg PUBLIC "-//W3C//DTD SVG 1.1//EN"
  "http://www.w3.org/Graphics/SVG/1.1/DTD/svg11.dtd">
<!-- Created with matplotlib (https://matplotlib.org/) -->
<svg height="576pt" version="1.1" viewBox="0 0 1152 576" width="1152pt" xmlns="http://www.w3.org/2000/svg" xmlns:xlink="http://www.w3.org/1999/xlink">
 <defs>
  <style type="text/css">
*{stroke-linecap:butt;stroke-linejoin:round;}
  </style>
 </defs>
 <g id="figure_1">
  <g id="patch_1">
   <path d="M 0 576 
L 1152 576 
L 1152 0 
L 0 0 
z
" style="fill:#ffffff;"/>
  </g>
  <g id="axes_1">
   <g id="patch_2">
    <path d="M 144 504 
L 1036.8 504 
L 1036.8 69.12 
L 144 69.12 
z
" style="fill:#ffffff;"/>
   </g>
   <g id="matplotlib.axis_1">
    <g id="xtick_1">
     <g id="line2d_1">
      <defs>
       <path d="M 0 0 
L 0 3.5 
" id="m1aedb53113" style="stroke:#000000;stroke-width:0.8;"/>
      </defs>
      <g>
       <use style="stroke:#000000;stroke-width:0.8;" x="182.547642" xlink:href="#m1aedb53113" y="504"/>
      </g>
     </g>
     <g id="text_1">
      <!-- 0 -->
      <defs>
       <path d="M 31.78125 66.40625 
Q 24.171875 66.40625 20.328125 58.90625 
Q 16.5 51.421875 16.5 36.375 
Q 16.5 21.390625 20.328125 13.890625 
Q 24.171875 6.390625 31.78125 6.390625 
Q 39.453125 6.390625 43.28125 13.890625 
Q 47.125 21.390625 47.125 36.375 
Q 47.125 51.421875 43.28125 58.90625 
Q 39.453125 66.40625 31.78125 66.40625 
z
M 31.78125 74.21875 
Q 44.046875 74.21875 50.515625 64.515625 
Q 56.984375 54.828125 56.984375 36.375 
Q 56.984375 17.96875 50.515625 8.265625 
Q 44.046875 -1.421875 31.78125 -1.421875 
Q 19.53125 -1.421875 13.0625 8.265625 
Q 6.59375 17.96875 6.59375 36.375 
Q 6.59375 54.828125 13.0625 64.515625 
Q 19.53125 74.21875 31.78125 74.21875 
z
" id="DejaVuSans-48"/>
      </defs>
      <g transform="translate(179.366392 518.598438)scale(0.1 -0.1)">
       <use xlink:href="#DejaVuSans-48"/>
      </g>
     </g>
    </g>
    <g id="xtick_2">
     <g id="line2d_2">
      <g>
       <use style="stroke:#000000;stroke-width:0.8;" x="284.256459" xlink:href="#m1aedb53113" y="504"/>
      </g>
     </g>
     <g id="text_2">
      <!-- 50 -->
      <defs>
       <path d="M 10.796875 72.90625 
L 49.515625 72.90625 
L 49.515625 64.59375 
L 19.828125 64.59375 
L 19.828125 46.734375 
Q 21.96875 47.46875 24.109375 47.828125 
Q 26.265625 48.1875 28.421875 48.1875 
Q 40.625 48.1875 47.75 41.5 
Q 54.890625 34.8125 54.890625 23.390625 
Q 54.890625 11.625 47.5625 5.09375 
Q 40.234375 -1.421875 26.90625 -1.421875 
Q 22.3125 -1.421875 17.546875 -0.640625 
Q 12.796875 0.140625 7.71875 1.703125 
L 7.71875 11.625 
Q 12.109375 9.234375 16.796875 8.0625 
Q 21.484375 6.890625 26.703125 6.890625 
Q 35.15625 6.890625 40.078125 11.328125 
Q 45.015625 15.765625 45.015625 23.390625 
Q 45.015625 31 40.078125 35.4375 
Q 35.15625 39.890625 26.703125 39.890625 
Q 22.75 39.890625 18.8125 39.015625 
Q 14.890625 38.140625 10.796875 36.28125 
z
" id="DejaVuSans-53"/>
      </defs>
      <g transform="translate(277.893959 518.598438)scale(0.1 -0.1)">
       <use xlink:href="#DejaVuSans-53"/>
       <use x="63.623047" xlink:href="#DejaVuSans-48"/>
      </g>
     </g>
    </g>
    <g id="xtick_3">
     <g id="line2d_3">
      <g>
       <use style="stroke:#000000;stroke-width:0.8;" x="385.965277" xlink:href="#m1aedb53113" y="504"/>
      </g>
     </g>
     <g id="text_3">
      <!-- 100 -->
      <defs>
       <path d="M 12.40625 8.296875 
L 28.515625 8.296875 
L 28.515625 63.921875 
L 10.984375 60.40625 
L 10.984375 69.390625 
L 28.421875 72.90625 
L 38.28125 72.90625 
L 38.28125 8.296875 
L 54.390625 8.296875 
L 54.390625 0 
L 12.40625 0 
z
" id="DejaVuSans-49"/>
      </defs>
      <g transform="translate(376.421527 518.598438)scale(0.1 -0.1)">
       <use xlink:href="#DejaVuSans-49"/>
       <use x="63.623047" xlink:href="#DejaVuSans-48"/>
       <use x="127.246094" xlink:href="#DejaVuSans-48"/>
      </g>
     </g>
    </g>
    <g id="xtick_4">
     <g id="line2d_4">
      <g>
       <use style="stroke:#000000;stroke-width:0.8;" x="487.674094" xlink:href="#m1aedb53113" y="504"/>
      </g>
     </g>
     <g id="text_4">
      <!-- 150 -->
      <g transform="translate(478.130344 518.598438)scale(0.1 -0.1)">
       <use xlink:href="#DejaVuSans-49"/>
       <use x="63.623047" xlink:href="#DejaVuSans-53"/>
       <use x="127.246094" xlink:href="#DejaVuSans-48"/>
      </g>
     </g>
    </g>
    <g id="xtick_5">
     <g id="line2d_5">
      <g>
       <use style="stroke:#000000;stroke-width:0.8;" x="589.382912" xlink:href="#m1aedb53113" y="504"/>
      </g>
     </g>
     <g id="text_5">
      <!-- 200 -->
      <defs>
       <path d="M 19.1875 8.296875 
L 53.609375 8.296875 
L 53.609375 0 
L 7.328125 0 
L 7.328125 8.296875 
Q 12.9375 14.109375 22.625 23.890625 
Q 32.328125 33.6875 34.8125 36.53125 
Q 39.546875 41.84375 41.421875 45.53125 
Q 43.3125 49.21875 43.3125 52.78125 
Q 43.3125 58.59375 39.234375 62.25 
Q 35.15625 65.921875 28.609375 65.921875 
Q 23.96875 65.921875 18.8125 64.3125 
Q 13.671875 62.703125 7.8125 59.421875 
L 7.8125 69.390625 
Q 13.765625 71.78125 18.9375 73 
Q 24.125 74.21875 28.421875 74.21875 
Q 39.75 74.21875 46.484375 68.546875 
Q 53.21875 62.890625 53.21875 53.421875 
Q 53.21875 48.921875 51.53125 44.890625 
Q 49.859375 40.875 45.40625 35.40625 
Q 44.1875 33.984375 37.640625 27.21875 
Q 31.109375 20.453125 19.1875 8.296875 
z
" id="DejaVuSans-50"/>
      </defs>
      <g transform="translate(579.839162 518.598438)scale(0.1 -0.1)">
       <use xlink:href="#DejaVuSans-50"/>
       <use x="63.623047" xlink:href="#DejaVuSans-48"/>
       <use x="127.246094" xlink:href="#DejaVuSans-48"/>
      </g>
     </g>
    </g>
    <g id="xtick_6">
     <g id="line2d_6">
      <g>
       <use style="stroke:#000000;stroke-width:0.8;" x="691.091729" xlink:href="#m1aedb53113" y="504"/>
      </g>
     </g>
     <g id="text_6">
      <!-- 250 -->
      <g transform="translate(681.547979 518.598438)scale(0.1 -0.1)">
       <use xlink:href="#DejaVuSans-50"/>
       <use x="63.623047" xlink:href="#DejaVuSans-53"/>
       <use x="127.246094" xlink:href="#DejaVuSans-48"/>
      </g>
     </g>
    </g>
    <g id="xtick_7">
     <g id="line2d_7">
      <g>
       <use style="stroke:#000000;stroke-width:0.8;" x="792.800547" xlink:href="#m1aedb53113" y="504"/>
      </g>
     </g>
     <g id="text_7">
      <!-- 300 -->
      <defs>
       <path d="M 40.578125 39.3125 
Q 47.65625 37.796875 51.625 33 
Q 55.609375 28.21875 55.609375 21.1875 
Q 55.609375 10.40625 48.1875 4.484375 
Q 40.765625 -1.421875 27.09375 -1.421875 
Q 22.515625 -1.421875 17.65625 -0.515625 
Q 12.796875 0.390625 7.625 2.203125 
L 7.625 11.71875 
Q 11.71875 9.328125 16.59375 8.109375 
Q 21.484375 6.890625 26.8125 6.890625 
Q 36.078125 6.890625 40.9375 10.546875 
Q 45.796875 14.203125 45.796875 21.1875 
Q 45.796875 27.640625 41.28125 31.265625 
Q 36.765625 34.90625 28.71875 34.90625 
L 20.21875 34.90625 
L 20.21875 43.015625 
L 29.109375 43.015625 
Q 36.375 43.015625 40.234375 45.921875 
Q 44.09375 48.828125 44.09375 54.296875 
Q 44.09375 59.90625 40.109375 62.90625 
Q 36.140625 65.921875 28.71875 65.921875 
Q 24.65625 65.921875 20.015625 65.03125 
Q 15.375 64.15625 9.8125 62.3125 
L 9.8125 71.09375 
Q 15.4375 72.65625 20.34375 73.4375 
Q 25.25 74.21875 29.59375 74.21875 
Q 40.828125 74.21875 47.359375 69.109375 
Q 53.90625 64.015625 53.90625 55.328125 
Q 53.90625 49.265625 50.4375 45.09375 
Q 46.96875 40.921875 40.578125 39.3125 
z
" id="DejaVuSans-51"/>
      </defs>
      <g transform="translate(783.256797 518.598438)scale(0.1 -0.1)">
       <use xlink:href="#DejaVuSans-51"/>
       <use x="63.623047" xlink:href="#DejaVuSans-48"/>
       <use x="127.246094" xlink:href="#DejaVuSans-48"/>
      </g>
     </g>
    </g>
    <g id="xtick_8">
     <g id="line2d_8">
      <g>
       <use style="stroke:#000000;stroke-width:0.8;" x="894.509364" xlink:href="#m1aedb53113" y="504"/>
      </g>
     </g>
     <g id="text_8">
      <!-- 350 -->
      <g transform="translate(884.965614 518.598438)scale(0.1 -0.1)">
       <use xlink:href="#DejaVuSans-51"/>
       <use x="63.623047" xlink:href="#DejaVuSans-53"/>
       <use x="127.246094" xlink:href="#DejaVuSans-48"/>
      </g>
     </g>
    </g>
    <g id="xtick_9">
     <g id="line2d_9">
      <g>
       <use style="stroke:#000000;stroke-width:0.8;" x="996.218182" xlink:href="#m1aedb53113" y="504"/>
      </g>
     </g>
     <g id="text_9">
      <!-- 400 -->
      <defs>
       <path d="M 37.796875 64.3125 
L 12.890625 25.390625 
L 37.796875 25.390625 
z
M 35.203125 72.90625 
L 47.609375 72.90625 
L 47.609375 25.390625 
L 58.015625 25.390625 
L 58.015625 17.1875 
L 47.609375 17.1875 
L 47.609375 0 
L 37.796875 0 
L 37.796875 17.1875 
L 4.890625 17.1875 
L 4.890625 26.703125 
z
" id="DejaVuSans-52"/>
      </defs>
      <g transform="translate(986.674432 518.598438)scale(0.1 -0.1)">
       <use xlink:href="#DejaVuSans-52"/>
       <use x="63.623047" xlink:href="#DejaVuSans-48"/>
       <use x="127.246094" xlink:href="#DejaVuSans-48"/>
      </g>
     </g>
    </g>
    <g id="text_10">
     <!-- Number of Neurons pruned -->
     <defs>
      <path d="M 9.8125 72.90625 
L 23.09375 72.90625 
L 55.421875 11.921875 
L 55.421875 72.90625 
L 64.984375 72.90625 
L 64.984375 0 
L 51.703125 0 
L 19.390625 60.984375 
L 19.390625 0 
L 9.8125 0 
z
" id="DejaVuSans-78"/>
      <path d="M 8.5 21.578125 
L 8.5 54.6875 
L 17.484375 54.6875 
L 17.484375 21.921875 
Q 17.484375 14.15625 20.5 10.265625 
Q 23.53125 6.390625 29.59375 6.390625 
Q 36.859375 6.390625 41.078125 11.03125 
Q 45.3125 15.671875 45.3125 23.6875 
L 45.3125 54.6875 
L 54.296875 54.6875 
L 54.296875 0 
L 45.3125 0 
L 45.3125 8.40625 
Q 42.046875 3.421875 37.71875 1 
Q 33.40625 -1.421875 27.6875 -1.421875 
Q 18.265625 -1.421875 13.375 4.4375 
Q 8.5 10.296875 8.5 21.578125 
z
M 31.109375 56 
z
" id="DejaVuSans-117"/>
      <path d="M 52 44.1875 
Q 55.375 50.25 60.0625 53.125 
Q 64.75 56 71.09375 56 
Q 79.640625 56 84.28125 50.015625 
Q 88.921875 44.046875 88.921875 33.015625 
L 88.921875 0 
L 79.890625 0 
L 79.890625 32.71875 
Q 79.890625 40.578125 77.09375 44.375 
Q 74.3125 48.1875 68.609375 48.1875 
Q 61.625 48.1875 57.5625 43.546875 
Q 53.515625 38.921875 53.515625 30.90625 
L 53.515625 0 
L 44.484375 0 
L 44.484375 32.71875 
Q 44.484375 40.625 41.703125 44.40625 
Q 38.921875 48.1875 33.109375 48.1875 
Q 26.21875 48.1875 22.15625 43.53125 
Q 18.109375 38.875 18.109375 30.90625 
L 18.109375 0 
L 9.078125 0 
L 9.078125 54.6875 
L 18.109375 54.6875 
L 18.109375 46.1875 
Q 21.1875 51.21875 25.484375 53.609375 
Q 29.78125 56 35.6875 56 
Q 41.65625 56 45.828125 52.96875 
Q 50 49.953125 52 44.1875 
z
" id="DejaVuSans-109"/>
      <path d="M 48.6875 27.296875 
Q 48.6875 37.203125 44.609375 42.84375 
Q 40.53125 48.484375 33.40625 48.484375 
Q 26.265625 48.484375 22.1875 42.84375 
Q 18.109375 37.203125 18.109375 27.296875 
Q 18.109375 17.390625 22.1875 11.75 
Q 26.265625 6.109375 33.40625 6.109375 
Q 40.53125 6.109375 44.609375 11.75 
Q 48.6875 17.390625 48.6875 27.296875 
z
M 18.109375 46.390625 
Q 20.953125 51.265625 25.265625 53.625 
Q 29.59375 56 35.59375 56 
Q 45.5625 56 51.78125 48.09375 
Q 58.015625 40.1875 58.015625 27.296875 
Q 58.015625 14.40625 51.78125 6.484375 
Q 45.5625 -1.421875 35.59375 -1.421875 
Q 29.59375 -1.421875 25.265625 0.953125 
Q 20.953125 3.328125 18.109375 8.203125 
L 18.109375 0 
L 9.078125 0 
L 9.078125 75.984375 
L 18.109375 75.984375 
z
" id="DejaVuSans-98"/>
      <path d="M 56.203125 29.59375 
L 56.203125 25.203125 
L 14.890625 25.203125 
Q 15.484375 15.921875 20.484375 11.0625 
Q 25.484375 6.203125 34.421875 6.203125 
Q 39.59375 6.203125 44.453125 7.46875 
Q 49.3125 8.734375 54.109375 11.28125 
L 54.109375 2.78125 
Q 49.265625 0.734375 44.1875 -0.34375 
Q 39.109375 -1.421875 33.890625 -1.421875 
Q 20.796875 -1.421875 13.15625 6.1875 
Q 5.515625 13.8125 5.515625 26.8125 
Q 5.515625 40.234375 12.765625 48.109375 
Q 20.015625 56 32.328125 56 
Q 43.359375 56 49.78125 48.890625 
Q 56.203125 41.796875 56.203125 29.59375 
z
M 47.21875 32.234375 
Q 47.125 39.59375 43.09375 43.984375 
Q 39.0625 48.390625 32.421875 48.390625 
Q 24.90625 48.390625 20.390625 44.140625 
Q 15.875 39.890625 15.1875 32.171875 
z
" id="DejaVuSans-101"/>
      <path d="M 41.109375 46.296875 
Q 39.59375 47.171875 37.8125 47.578125 
Q 36.03125 48 33.890625 48 
Q 26.265625 48 22.1875 43.046875 
Q 18.109375 38.09375 18.109375 28.8125 
L 18.109375 0 
L 9.078125 0 
L 9.078125 54.6875 
L 18.109375 54.6875 
L 18.109375 46.1875 
Q 20.953125 51.171875 25.484375 53.578125 
Q 30.03125 56 36.53125 56 
Q 37.453125 56 38.578125 55.875 
Q 39.703125 55.765625 41.0625 55.515625 
z
" id="DejaVuSans-114"/>
      <path id="DejaVuSans-32"/>
      <path d="M 30.609375 48.390625 
Q 23.390625 48.390625 19.1875 42.75 
Q 14.984375 37.109375 14.984375 27.296875 
Q 14.984375 17.484375 19.15625 11.84375 
Q 23.34375 6.203125 30.609375 6.203125 
Q 37.796875 6.203125 41.984375 11.859375 
Q 46.1875 17.53125 46.1875 27.296875 
Q 46.1875 37.015625 41.984375 42.703125 
Q 37.796875 48.390625 30.609375 48.390625 
z
M 30.609375 56 
Q 42.328125 56 49.015625 48.375 
Q 55.71875 40.765625 55.71875 27.296875 
Q 55.71875 13.875 49.015625 6.21875 
Q 42.328125 -1.421875 30.609375 -1.421875 
Q 18.84375 -1.421875 12.171875 6.21875 
Q 5.515625 13.875 5.515625 27.296875 
Q 5.515625 40.765625 12.171875 48.375 
Q 18.84375 56 30.609375 56 
z
" id="DejaVuSans-111"/>
      <path d="M 37.109375 75.984375 
L 37.109375 68.5 
L 28.515625 68.5 
Q 23.6875 68.5 21.796875 66.546875 
Q 19.921875 64.59375 19.921875 59.515625 
L 19.921875 54.6875 
L 34.71875 54.6875 
L 34.71875 47.703125 
L 19.921875 47.703125 
L 19.921875 0 
L 10.890625 0 
L 10.890625 47.703125 
L 2.296875 47.703125 
L 2.296875 54.6875 
L 10.890625 54.6875 
L 10.890625 58.5 
Q 10.890625 67.625 15.140625 71.796875 
Q 19.390625 75.984375 28.609375 75.984375 
z
" id="DejaVuSans-102"/>
      <path d="M 54.890625 33.015625 
L 54.890625 0 
L 45.90625 0 
L 45.90625 32.71875 
Q 45.90625 40.484375 42.875 44.328125 
Q 39.84375 48.1875 33.796875 48.1875 
Q 26.515625 48.1875 22.3125 43.546875 
Q 18.109375 38.921875 18.109375 30.90625 
L 18.109375 0 
L 9.078125 0 
L 9.078125 54.6875 
L 18.109375 54.6875 
L 18.109375 46.1875 
Q 21.34375 51.125 25.703125 53.5625 
Q 30.078125 56 35.796875 56 
Q 45.21875 56 50.046875 50.171875 
Q 54.890625 44.34375 54.890625 33.015625 
z
" id="DejaVuSans-110"/>
      <path d="M 44.28125 53.078125 
L 44.28125 44.578125 
Q 40.484375 46.53125 36.375 47.5 
Q 32.28125 48.484375 27.875 48.484375 
Q 21.1875 48.484375 17.84375 46.4375 
Q 14.5 44.390625 14.5 40.28125 
Q 14.5 37.15625 16.890625 35.375 
Q 19.28125 33.59375 26.515625 31.984375 
L 29.59375 31.296875 
Q 39.15625 29.25 43.1875 25.515625 
Q 47.21875 21.78125 47.21875 15.09375 
Q 47.21875 7.46875 41.1875 3.015625 
Q 35.15625 -1.421875 24.609375 -1.421875 
Q 20.21875 -1.421875 15.453125 -0.5625 
Q 10.6875 0.296875 5.421875 2 
L 5.421875 11.28125 
Q 10.40625 8.6875 15.234375 7.390625 
Q 20.0625 6.109375 24.8125 6.109375 
Q 31.15625 6.109375 34.5625 8.28125 
Q 37.984375 10.453125 37.984375 14.40625 
Q 37.984375 18.0625 35.515625 20.015625 
Q 33.0625 21.96875 24.703125 23.78125 
L 21.578125 24.515625 
Q 13.234375 26.265625 9.515625 29.90625 
Q 5.8125 33.546875 5.8125 39.890625 
Q 5.8125 47.609375 11.28125 51.796875 
Q 16.75 56 26.8125 56 
Q 31.78125 56 36.171875 55.265625 
Q 40.578125 54.546875 44.28125 53.078125 
z
" id="DejaVuSans-115"/>
      <path d="M 18.109375 8.203125 
L 18.109375 -20.796875 
L 9.078125 -20.796875 
L 9.078125 54.6875 
L 18.109375 54.6875 
L 18.109375 46.390625 
Q 20.953125 51.265625 25.265625 53.625 
Q 29.59375 56 35.59375 56 
Q 45.5625 56 51.78125 48.09375 
Q 58.015625 40.1875 58.015625 27.296875 
Q 58.015625 14.40625 51.78125 6.484375 
Q 45.5625 -1.421875 35.59375 -1.421875 
Q 29.59375 -1.421875 25.265625 0.953125 
Q 20.953125 3.328125 18.109375 8.203125 
z
M 48.6875 27.296875 
Q 48.6875 37.203125 44.609375 42.84375 
Q 40.53125 48.484375 33.40625 48.484375 
Q 26.265625 48.484375 22.1875 42.84375 
Q 18.109375 37.203125 18.109375 27.296875 
Q 18.109375 17.390625 22.1875 11.75 
Q 26.265625 6.109375 33.40625 6.109375 
Q 40.53125 6.109375 44.609375 11.75 
Q 48.6875 17.390625 48.6875 27.296875 
z
" id="DejaVuSans-112"/>
      <path d="M 45.40625 46.390625 
L 45.40625 75.984375 
L 54.390625 75.984375 
L 54.390625 0 
L 45.40625 0 
L 45.40625 8.203125 
Q 42.578125 3.328125 38.25 0.953125 
Q 33.9375 -1.421875 27.875 -1.421875 
Q 17.96875 -1.421875 11.734375 6.484375 
Q 5.515625 14.40625 5.515625 27.296875 
Q 5.515625 40.1875 11.734375 48.09375 
Q 17.96875 56 27.875 56 
Q 33.9375 56 38.25 53.625 
Q 42.578125 51.265625 45.40625 46.390625 
z
M 14.796875 27.296875 
Q 14.796875 17.390625 18.875 11.75 
Q 22.953125 6.109375 30.078125 6.109375 
Q 37.203125 6.109375 41.296875 11.75 
Q 45.40625 17.390625 45.40625 27.296875 
Q 45.40625 37.203125 41.296875 42.84375 
Q 37.203125 48.484375 30.078125 48.484375 
Q 22.953125 48.484375 18.875 42.84375 
Q 14.796875 37.203125 14.796875 27.296875 
z
" id="DejaVuSans-100"/>
     </defs>
     <g transform="translate(522.147656 532.276562)scale(0.1 -0.1)">
      <use xlink:href="#DejaVuSans-78"/>
      <use x="74.804688" xlink:href="#DejaVuSans-117"/>
      <use x="138.183594" xlink:href="#DejaVuSans-109"/>
      <use x="235.595703" xlink:href="#DejaVuSans-98"/>
      <use x="299.072266" xlink:href="#DejaVuSans-101"/>
      <use x="360.595703" xlink:href="#DejaVuSans-114"/>
      <use x="401.708984" xlink:href="#DejaVuSans-32"/>
      <use x="433.496094" xlink:href="#DejaVuSans-111"/>
      <use x="494.677734" xlink:href="#DejaVuSans-102"/>
      <use x="529.882812" xlink:href="#DejaVuSans-32"/>
      <use x="561.669922" xlink:href="#DejaVuSans-78"/>
      <use x="636.474609" xlink:href="#DejaVuSans-101"/>
      <use x="697.998047" xlink:href="#DejaVuSans-117"/>
      <use x="761.376953" xlink:href="#DejaVuSans-114"/>
      <use x="800.240234" xlink:href="#DejaVuSans-111"/>
      <use x="861.421875" xlink:href="#DejaVuSans-110"/>
      <use x="924.800781" xlink:href="#DejaVuSans-115"/>
      <use x="976.900391" xlink:href="#DejaVuSans-32"/>
      <use x="1008.6875" xlink:href="#DejaVuSans-112"/>
      <use x="1072.164062" xlink:href="#DejaVuSans-114"/>
      <use x="1113.277344" xlink:href="#DejaVuSans-117"/>
      <use x="1176.65625" xlink:href="#DejaVuSans-110"/>
      <use x="1240.035156" xlink:href="#DejaVuSans-101"/>
      <use x="1301.558594" xlink:href="#DejaVuSans-100"/>
     </g>
    </g>
   </g>
   <g id="matplotlib.axis_2">
    <g id="ytick_1">
     <g id="line2d_10">
      <defs>
       <path d="M 0 0 
L -3.5 0 
" id="mf5e21dc174" style="stroke:#000000;stroke-width:0.8;"/>
      </defs>
      <g>
       <use style="stroke:#000000;stroke-width:0.8;" x="144" xlink:href="#mf5e21dc174" y="501.316354"/>
      </g>
     </g>
     <g id="text_11">
      <!-- 0.0 -->
      <defs>
       <path d="M 10.6875 12.40625 
L 21 12.40625 
L 21 0 
L 10.6875 0 
z
" id="DejaVuSans-46"/>
      </defs>
      <g transform="translate(121.096875 505.115573)scale(0.1 -0.1)">
       <use xlink:href="#DejaVuSans-48"/>
       <use x="63.623047" xlink:href="#DejaVuSans-46"/>
       <use x="95.410156" xlink:href="#DejaVuSans-48"/>
      </g>
     </g>
    </g>
    <g id="ytick_2">
     <g id="line2d_11">
      <g>
       <use style="stroke:#000000;stroke-width:0.8;" x="144" xlink:href="#mf5e21dc174" y="427.978009"/>
      </g>
     </g>
     <g id="text_12">
      <!-- 0.5 -->
      <g transform="translate(121.096875 431.777228)scale(0.1 -0.1)">
       <use xlink:href="#DejaVuSans-48"/>
       <use x="63.623047" xlink:href="#DejaVuSans-46"/>
       <use x="95.410156" xlink:href="#DejaVuSans-53"/>
      </g>
     </g>
    </g>
    <g id="ytick_3">
     <g id="line2d_12">
      <g>
       <use style="stroke:#000000;stroke-width:0.8;" x="144" xlink:href="#mf5e21dc174" y="354.639665"/>
      </g>
     </g>
     <g id="text_13">
      <!-- 1.0 -->
      <g transform="translate(121.096875 358.438884)scale(0.1 -0.1)">
       <use xlink:href="#DejaVuSans-49"/>
       <use x="63.623047" xlink:href="#DejaVuSans-46"/>
       <use x="95.410156" xlink:href="#DejaVuSans-48"/>
      </g>
     </g>
    </g>
    <g id="ytick_4">
     <g id="line2d_13">
      <g>
       <use style="stroke:#000000;stroke-width:0.8;" x="144" xlink:href="#mf5e21dc174" y="281.301321"/>
      </g>
     </g>
     <g id="text_14">
      <!-- 1.5 -->
      <g transform="translate(121.096875 285.100539)scale(0.1 -0.1)">
       <use xlink:href="#DejaVuSans-49"/>
       <use x="63.623047" xlink:href="#DejaVuSans-46"/>
       <use x="95.410156" xlink:href="#DejaVuSans-53"/>
      </g>
     </g>
    </g>
    <g id="ytick_5">
     <g id="line2d_14">
      <g>
       <use style="stroke:#000000;stroke-width:0.8;" x="144" xlink:href="#mf5e21dc174" y="207.962976"/>
      </g>
     </g>
     <g id="text_15">
      <!-- 2.0 -->
      <g transform="translate(121.096875 211.762195)scale(0.1 -0.1)">
       <use xlink:href="#DejaVuSans-50"/>
       <use x="63.623047" xlink:href="#DejaVuSans-46"/>
       <use x="95.410156" xlink:href="#DejaVuSans-48"/>
      </g>
     </g>
    </g>
    <g id="ytick_6">
     <g id="line2d_15">
      <g>
       <use style="stroke:#000000;stroke-width:0.8;" x="144" xlink:href="#mf5e21dc174" y="134.624632"/>
      </g>
     </g>
     <g id="text_16">
      <!-- 2.5 -->
      <g transform="translate(121.096875 138.42385)scale(0.1 -0.1)">
       <use xlink:href="#DejaVuSans-50"/>
       <use x="63.623047" xlink:href="#DejaVuSans-46"/>
       <use x="95.410156" xlink:href="#DejaVuSans-53"/>
      </g>
     </g>
    </g>
    <g id="text_17">
     <!-- Loss -->
     <defs>
      <path d="M 9.8125 72.90625 
L 19.671875 72.90625 
L 19.671875 8.296875 
L 55.171875 8.296875 
L 55.171875 0 
L 9.8125 0 
z
" id="DejaVuSans-76"/>
     </defs>
     <g transform="translate(115.017187 297.527188)rotate(-90)scale(0.1 -0.1)">
      <use xlink:href="#DejaVuSans-76"/>
      <use x="53.962891" xlink:href="#DejaVuSans-111"/>
      <use x="115.144531" xlink:href="#DejaVuSans-115"/>
      <use x="167.244141" xlink:href="#DejaVuSans-115"/>
     </g>
    </g>
   </g>
   <g id="line2d_16">
    <path clip-path="url(#p9870c862cd)" d="M 184.581818 484.232727 
L 274.085578 484.178442 
L 284.256459 483.813884 
L 288.324812 483.171456 
L 294.427341 483.096756 
L 296.461517 483.242712 
L 298.495694 483.075812 
L 304.598223 481.922701 
L 306.632399 481.017865 
L 308.666576 480.744525 
L 310.700752 480.604223 
L 312.734928 479.678938 
L 314.769105 479.300221 
L 316.803281 479.303246 
L 318.837457 479.535747 
L 320.871634 479.626487 
L 322.90581 478.525612 
L 324.939986 478.082683 
L 326.974163 477.517244 
L 331.042515 476.805414 
L 333.076692 475.879591 
L 337.145044 476.692807 
L 339.179221 476.122109 
L 341.213397 474.383173 
L 345.28175 471.699353 
L 347.315926 472.145523 
L 351.384279 470.365947 
L 353.418455 469.115692 
L 355.452632 469.923556 
L 357.486808 469.410954 
L 359.520984 467.795846 
L 361.555161 466.914672 
L 363.589337 466.629632 
L 365.623513 465.188028 
L 367.65769 464.040951 
L 369.691866 464.595635 
L 371.726042 462.094662 
L 373.760219 462.412985 
L 377.828571 461.650184 
L 379.862748 461.688747 
L 381.896924 460.896977 
L 383.9311 456.336739 
L 385.965277 452.67393 
L 387.999453 447.859592 
L 390.03363 446.796241 
L 392.067806 447.732295 
L 394.101982 445.215039 
L 396.136159 444.641214 
L 398.170335 440.901684 
L 400.204511 439.76083 
L 402.238688 434.977345 
L 404.272864 436.077524 
L 406.30704 439.916208 
L 408.341217 439.398969 
L 410.375393 436.202508 
L 412.409569 437.962946 
L 414.443746 438.787147 
L 416.477922 437.347274 
L 418.512098 440.293709 
L 420.546275 439.044158 
L 422.580451 440.826939 
L 424.614627 438.164708 
L 426.648804 438.123487 
L 428.68298 437.689871 
L 430.717157 431.258635 
L 432.751333 431.396126 
L 434.785509 433.210209 
L 436.819686 429.089654 
L 438.853862 426.420592 
L 440.888038 426.27723 
L 442.922215 426.015039 
L 444.956391 420.716125 
L 446.990567 421.849176 
L 449.024744 416.32152 
L 451.05892 416.745379 
L 453.093096 417.91834 
L 455.127273 414.984477 
L 457.161449 407.424776 
L 459.195625 404.344168 
L 461.229802 406.791522 
L 463.263978 406.288804 
L 465.298154 398.431268 
L 467.332331 392.899818 
L 469.366507 389.049781 
L 471.400684 379.300991 
L 473.43486 377.070812 
L 475.469036 372.094954 
L 477.503213 372.651133 
L 479.537389 372.802905 
L 481.571565 363.170102 
L 483.605742 363.773465 
L 485.639918 366.548239 
L 487.674094 355.309882 
L 489.708271 352.744879 
L 491.742447 354.264852 
L 493.776623 354.129586 
L 495.8108 355.315312 
L 497.844976 348.836634 
L 499.879152 350.150334 
L 501.913329 346.43586 
L 503.947505 351.178815 
L 505.981681 353.919204 
L 508.015858 347.021248 
L 510.050034 347.785789 
L 512.084211 345.475712 
L 514.118387 337.512329 
L 516.152563 338.678401 
L 518.18674 334.664073 
L 520.220916 332.394998 
L 522.255092 326.445004 
L 524.289269 323.41102 
L 526.323445 325.814522 
L 528.357621 324.413483 
L 530.391798 320.294629 
L 532.425974 322.63263 
L 534.46015 316.288047 
L 536.494327 312.946393 
L 538.528503 311.28528 
L 540.562679 300.435016 
L 542.596856 297.150452 
L 544.631032 297.752101 
L 546.665208 296.576692 
L 548.699385 295.808409 
L 550.733561 293.299856 
L 552.767738 291.240306 
L 554.801914 291.187571 
L 556.83609 296.07345 
L 558.870267 295.601611 
L 560.904443 294.958907 
L 562.938619 293.292215 
L 564.972796 291.007963 
L 567.006972 289.001271 
L 569.041148 287.868841 
L 571.075325 283.339905 
L 575.143677 279.843333 
L 577.177854 291.283722 
L 579.21203 288.468846 
L 581.246206 288.613694 
L 583.280383 290.386905 
L 585.314559 286.709028 
L 587.348735 285.865733 
L 589.382912 281.269305 
L 593.451265 278.519911 
L 595.485441 280.009058 
L 597.519617 277.290472 
L 599.553794 275.072279 
L 601.58797 272.317622 
L 603.622146 275.146067 
L 605.656323 279.353904 
L 607.690499 280.686383 
L 609.724675 279.759963 
L 611.758852 277.645038 
L 613.793028 274.889437 
L 615.827204 268.260753 
L 617.861381 267.862317 
L 619.895557 265.092343 
L 621.929733 264.831411 
L 623.96391 264.184178 
L 625.998086 257.11693 
L 628.032262 253.453216 
L 630.066439 254.622331 
L 632.100615 253.226118 
L 634.134792 251.101069 
L 638.203144 251.542449 
L 640.237321 250.548256 
L 642.271497 250.934697 
L 644.305673 247.062717 
L 646.33985 244.655159 
L 648.374026 247.768438 
L 650.408202 247.170024 
L 652.442379 247.256488 
L 654.476555 247.042644 
L 656.510731 245.314439 
L 658.544908 242.682144 
L 660.579084 244.603508 
L 664.647437 244.465881 
L 666.681613 246.969433 
L 668.715789 246.308789 
L 670.749966 245.243187 
L 672.784142 241.171927 
L 676.852495 235.626611 
L 678.886671 235.507554 
L 680.920848 237.194913 
L 682.955024 237.185734 
L 684.9892 236.400717 
L 687.023377 236.918629 
L 689.057553 235.93582 
L 691.091729 240.374094 
L 693.125906 240.374724 
L 695.160082 239.29669 
L 697.194258 236.494857 
L 699.228435 238.025584 
L 701.262611 238.211854 
L 703.296787 243.031901 
L 705.330964 241.514358 
L 707.36514 239.415292 
L 709.399316 237.138838 
L 711.433493 235.963481 
L 713.467669 234.561219 
L 715.501846 234.597361 
L 717.536022 234.001027 
L 719.570198 234.185969 
L 721.604375 234.055913 
L 723.638551 227.931766 
L 725.672727 226.279518 
L 727.706904 226.110051 
L 729.74108 224.659546 
L 731.775256 225.389117 
L 733.809433 226.487959 
L 735.843609 226.189276 
L 737.877785 224.642236 
L 739.911962 223.687176 
L 741.946138 223.821095 
L 743.980314 223.800655 
L 746.014491 223.221579 
L 748.048667 219.33631 
L 750.082843 214.559242 
L 752.11702 213.869118 
L 754.151196 210.863198 
L 756.185373 210.950432 
L 758.219549 210.741063 
L 760.253725 208.703213 
L 762.287902 207.876704 
L 766.356254 207.844706 
L 768.390431 206.2959 
L 770.424607 205.357608 
L 772.458783 205.128761 
L 774.49296 203.520016 
L 776.527136 202.747449 
L 778.561312 203.1893 
L 780.595489 202.690587 
L 782.629665 201.443471 
L 784.663841 201.098102 
L 786.698018 201.122057 
L 788.732194 199.74048 
L 790.76637 200.345364 
L 792.800547 201.629513 
L 794.834723 201.498619 
L 796.8689 199.775695 
L 800.937252 197.253486 
L 802.971429 199.651795 
L 805.005605 198.513926 
L 807.039781 198.94151 
L 809.073958 198.62216 
L 811.108134 198.900699 
L 813.14231 198.880172 
L 815.176487 198.662621 
L 817.210663 197.251388 
L 823.313192 196.590307 
L 827.381545 195.832043 
L 831.449897 195.347492 
L 833.484074 194.831328 
L 835.51825 194.134962 
L 837.552427 193.843903 
L 839.586603 191.23745 
L 847.723308 190.395956 
L 849.757485 190.314195 
L 851.791661 189.080648 
L 853.825837 189.177236 
L 855.860014 188.036081 
L 857.89419 187.234698 
L 859.928366 187.172381 
L 861.962543 185.979504 
L 863.996719 185.50464 
L 866.030895 185.183087 
L 868.065072 185.305448 
L 870.099248 184.500184 
L 872.133424 184.040043 
L 874.167601 182.767503 
L 876.201777 182.790583 
L 878.235954 181.648693 
L 880.27013 179.77092 
L 882.304306 179.321795 
L 884.338483 179.162085 
L 888.406835 178.344371 
L 890.441012 178.149585 
L 892.475188 177.679303 
L 894.509364 177.669301 
L 896.543541 176.840746 
L 902.64607 174.856558 
L 904.680246 174.510071 
L 908.748599 174.479647 
L 910.782775 173.839093 
L 912.816951 173.814299 
L 914.851128 172.863522 
L 916.885304 172.859676 
L 918.919481 170.83048 
L 920.953657 171.586157 
L 922.987833 171.681032 
L 925.02201 171.440995 
L 927.056186 171.458305 
L 933.158715 170.733228 
L 935.192891 170.541485 
L 937.227068 170.594465 
L 939.261244 169.63645 
L 941.29542 169.66572 
L 943.329597 169.355812 
L 945.363773 169.255621 
L 949.432126 168.196821 
L 951.466302 166.711381 
L 953.500478 166.846892 
L 955.534655 167.135853 
L 959.603008 167.055456 
L 961.637184 166.495754 
L 963.67136 165.746757 
L 965.705537 164.805842 
L 967.739713 164.805842 
L 969.773889 164.999648 
L 971.808066 165.323055 
L 973.842242 165.453809 
L 975.876418 165.406424 
L 977.910595 165.670556 
L 979.944771 165.403347 
L 981.978947 165.299135 
L 984.013124 165.052628 
L 986.0473 165.085955 
L 988.081476 164.952753 
L 990.115653 163.971657 
L 992.149829 163.730745 
L 994.184005 164.434875 
L 996.218182 164.434805 
L 996.218182 164.434805 
" style="fill:none;stroke:#1f77b4;stroke-linecap:square;stroke-width:1.5;"/>
   </g>
   <g id="line2d_17">
    <path clip-path="url(#p9870c862cd)" d="M 184.581818 484.232727 
L 278.15393 484.134599 
L 284.256459 483.973349 
L 298.495694 483.521555 
L 306.632399 483.300468 
L 310.700752 483.100961 
L 314.769105 482.989864 
L 318.837457 482.63902 
L 322.90581 482.448001 
L 326.974163 482.532391 
L 329.008339 482.409935 
L 331.042515 482.442119 
L 333.076692 482.348505 
L 335.110868 482.134748 
L 337.145044 481.730547 
L 339.179221 481.643383 
L 343.247573 481.128349 
L 345.28175 481.218739 
L 349.350103 480.654216 
L 353.418455 480.573836 
L 355.452632 480.248005 
L 357.486808 480.139315 
L 359.520984 479.883537 
L 361.555161 479.145204 
L 363.589337 479.12074 
L 365.623513 479.349444 
L 367.65769 478.70575 
L 369.691866 478.540099 
L 371.726042 478.242033 
L 373.760219 478.496443 
L 375.794395 477.83779 
L 377.828571 477.759985 
L 379.862748 476.306692 
L 381.896924 475.849106 
L 383.9311 475.087687 
L 387.999453 474.677893 
L 390.03363 473.878722 
L 392.067806 474.197226 
L 394.101982 473.665289 
L 396.136159 474.136531 
L 398.170335 473.967473 
L 406.30704 471.748617 
L 408.341217 471.490483 
L 410.375393 470.188612 
L 412.409569 469.848078 
L 414.443746 468.564556 
L 416.477922 468.691938 
L 418.512098 468.125399 
L 420.546275 468.483116 
L 422.580451 465.99943 
L 424.614627 465.640692 
L 426.648804 464.75651 
L 428.68298 464.542686 
L 430.717157 463.196787 
L 432.751333 463.676983 
L 434.785509 462.250819 
L 436.819686 461.874829 
L 438.853862 462.551582 
L 440.888038 460.667912 
L 442.922215 460.42784 
L 444.956391 462.210454 
L 446.990567 461.720514 
L 449.024744 462.479416 
L 451.05892 460.458041 
L 455.127273 461.69801 
L 457.161449 459.885352 
L 459.195625 459.780532 
L 461.229802 459.08386 
L 463.263978 457.394 
L 465.298154 456.404004 
L 467.332331 456.505432 
L 469.366507 453.727157 
L 473.43486 452.675919 
L 475.469036 449.49502 
L 477.503213 449.278513 
L 479.537389 447.327678 
L 481.571565 448.291647 
L 483.605742 447.126686 
L 485.639918 444.22868 
L 487.674094 443.858745 
L 489.708271 444.362608 
L 491.742447 442.516824 
L 493.776623 439.494425 
L 495.8108 438.618686 
L 497.844976 439.366533 
L 499.879152 437.071322 
L 501.913329 431.36262 
L 503.947505 428.997455 
L 505.981681 425.361809 
L 508.015858 426.777859 
L 510.050034 423.763922 
L 512.084211 425.85873 
L 514.118387 423.129331 
L 516.152563 417.662129 
L 518.18674 415.520732 
L 520.220916 417.241339 
L 522.255092 411.750707 
L 524.289269 411.093211 
L 526.323445 404.867002 
L 528.357621 399.990303 
L 530.391798 397.87196 
L 532.425974 398.286648 
L 534.46015 399.919261 
L 536.494327 401.948168 
L 538.528503 399.480828 
L 540.562679 397.707363 
L 544.631032 400.45708 
L 548.699385 402.461088 
L 550.733561 401.345434 
L 552.767738 401.708393 
L 554.801914 394.603683 
L 556.83609 389.164878 
L 558.870267 382.783112 
L 560.904443 385.864743 
L 562.938619 389.855562 
L 564.972796 385.751168 
L 567.006972 385.348413 
L 569.041148 379.865239 
L 571.075325 370.885868 
L 573.109501 370.567629 
L 575.143677 371.74177 
L 577.177854 367.919273 
L 579.21203 367.804334 
L 581.246206 365.404627 
L 583.280383 362.184618 
L 585.314559 353.197659 
L 587.348735 351.492902 
L 589.382912 346.676964 
L 591.417088 338.046135 
L 593.451265 333.373261 
L 595.485441 329.91624 
L 597.519617 330.225362 
L 599.553794 324.865878 
L 603.622146 311.543764 
L 605.656323 308.780871 
L 607.690499 301.406583 
L 609.724675 299.743825 
L 611.758852 295.263954 
L 613.793028 289.065477 
L 615.827204 288.730705 
L 617.861381 284.453889 
L 619.895557 278.21009 
L 621.929733 279.559023 
L 623.96391 274.467028 
L 625.998086 275.853921 
L 628.032262 267.6398 
L 630.066439 267.369339 
L 632.100615 269.72612 
L 634.134792 273.160987 
L 636.168968 272.232749 
L 638.203144 276.73189 
L 640.237321 272.637917 
L 642.271497 267.139741 
L 644.305673 269.661547 
L 646.33985 266.488905 
L 648.374026 262.559416 
L 650.408202 266.401969 
L 652.442379 265.805635 
L 654.476555 264.218484 
L 656.510731 263.620787 
L 658.544908 248.475663 
L 660.579084 231.154678 
L 662.61326 229.362162 
L 664.647437 225.024638 
L 666.681613 213.635567 
L 668.715789 212.817189 
L 670.749966 216.832636 
L 672.784142 215.598581 
L 674.818319 204.052091 
L 676.852495 204.710899 
L 678.886671 201.085373 
L 680.920848 202.686355 
L 682.955024 201.528134 
L 684.9892 196.292009 
L 687.023377 195.779552 
L 689.057553 192.265407 
L 691.091729 196.082501 
L 693.125906 192.053066 
L 695.160082 192.922956 
L 697.194258 189.408391 
L 699.228435 193.764485 
L 701.262611 193.743223 
L 703.296787 196.301871 
L 705.330964 199.907603 
L 707.36514 203.161988 
L 709.399316 191.215314 
L 711.433493 183.4161 
L 713.467669 183.742374 
L 715.501846 176.64708 
L 717.536022 174.978115 
L 719.570198 174.944894 
L 721.604375 176.411659 
L 723.638551 176.0494 
L 725.672727 163.64867 
L 727.706904 161.71337 
L 729.74108 144.102427 
L 731.775256 146.439188 
L 733.809433 145.60196 
L 735.843609 141.618372 
L 737.877785 131.889173 
L 739.911962 123.094351 
L 741.946138 116.875171 
L 743.980314 120.33151 
L 746.014491 120.099097 
L 748.048667 124.675609 
L 750.082843 123.720706 
L 754.151196 124.803636 
L 756.185373 122.821091 
L 758.219549 122.226314 
L 760.253725 123.284555 
L 762.287902 123.079943 
L 764.322078 120.588578 
L 766.356254 116.14852 
L 768.390431 99.754724 
L 770.424607 100.73026 
L 772.458783 103.144794 
L 774.49296 106.059826 
L 776.527136 98.757087 
L 778.561312 89.296007 
L 780.595489 97.157049 
L 782.629665 99.195826 
L 784.663841 99.01933 
L 786.698018 88.887273 
L 788.732194 94.939014 
L 790.76637 94.361477 
L 792.800547 95.021964 
L 794.834723 98.115589 
L 796.8689 102.962738 
L 798.903076 101.02006 
L 800.937252 104.118686 
L 802.971429 118.51518 
L 805.005605 117.951072 
L 807.039781 121.659443 
L 809.073958 122.490061 
L 811.108134 123.582713 
L 813.14231 124.288696 
L 815.176487 116.383766 
L 817.210663 115.738771 
L 819.244839 116.762252 
L 821.279016 117.198018 
L 823.313192 118.902023 
L 825.347368 121.14202 
L 827.381545 122.94709 
L 829.415721 127.282411 
L 831.449897 126.691691 
L 833.484074 124.937853 
L 835.51825 116.763406 
L 837.552427 117.720862 
L 839.586603 118.006675 
L 843.654956 125.870445 
L 845.689132 131.542581 
L 847.723308 132.93444 
L 849.757485 133.197103 
L 851.791661 138.012149 
L 853.825837 138.037433 
L 855.860014 136.833925 
L 857.89419 138.310027 
L 859.928366 140.032567 
L 863.996719 139.577566 
L 866.030895 139.162817 
L 868.065072 139.065389 
L 870.099248 142.400171 
L 874.167601 142.144257 
L 876.201777 142.110406 
L 878.235954 142.597439 
L 880.27013 145.075375 
L 882.304306 145.081775 
L 884.338483 145.652003 
L 886.372659 145.794473 
L 888.406835 147.170315 
L 890.441012 147.772996 
L 894.509364 150.189558 
L 896.543541 150.664492 
L 900.611893 150.994298 
L 902.64607 152.130978 
L 906.714422 152.212774 
L 908.748599 150.569722 
L 910.782775 150.545872 
L 912.816951 151.321237 
L 914.851128 151.339457 
L 916.885304 152.281456 
L 918.919481 152.032466 
L 920.953657 153.955946 
L 922.987833 154.226792 
L 925.02201 155.581582 
L 927.056186 158.288749 
L 929.090362 158.434401 
L 933.158715 158.398207 
L 935.192891 158.718396 
L 941.29542 158.60128 
L 943.329597 159.538383 
L 945.363773 157.614659 
L 947.397949 157.846373 
L 949.432126 157.902256 
L 951.466302 157.771746 
L 955.534655 157.865222 
L 957.568831 157.021805 
L 959.603008 156.989352 
L 961.637184 157.458236 
L 963.67136 158.297667 
L 967.739713 158.227551 
L 969.773889 158.254863 
L 971.808066 156.829467 
L 973.842242 157.789686 
L 977.910595 157.759786 
L 979.944771 157.816368 
L 981.978947 158.209471 
L 984.013124 157.847212 
L 986.0473 159.426687 
L 988.081476 159.426687 
L 990.115653 159.660989 
L 994.184005 159.665745 
L 996.218182 161.056835 
L 996.218182 161.056835 
" style="fill:none;stroke:#ff7f0e;stroke-linecap:square;stroke-width:1.5;"/>
   </g>
   <g id="line2d_18">
    <path clip-path="url(#p9870c862cd)" d="M 184.581818 484.232727 
L 280.188107 484.143565 
L 296.461517 483.76922 
L 300.52987 483.668022 
L 308.666576 483.500014 
L 335.110868 482.592509 
L 339.179221 482.600323 
L 349.350103 482.18942 
L 355.452632 482.169739 
L 357.486808 481.986288 
L 359.520984 481.636861 
L 363.589337 481.470312 
L 365.623513 481.068615 
L 367.65769 481.113793 
L 373.760219 480.632899 
L 377.828571 480.348594 
L 379.862748 480.592265 
L 381.896924 480.599474 
L 387.999453 479.99445 
L 390.03363 479.594849 
L 394.101982 479.379092 
L 396.136159 479.53607 
L 402.238688 479.034983 
L 404.272864 478.772075 
L 406.30704 478.167369 
L 408.341217 478.3457 
L 410.375393 477.53318 
L 412.409569 477.9082 
L 414.443746 477.892558 
L 416.477922 477.33663 
L 420.546275 477.333042 
L 422.580451 477.220039 
L 428.68298 476.496144 
L 430.717157 476.030259 
L 432.751333 475.312097 
L 436.819686 473.501218 
L 440.888038 471.385969 
L 442.922215 470.456566 
L 444.956391 471.065397 
L 446.990567 471.266198 
L 449.024744 471.048918 
L 451.05892 471.078009 
L 453.093096 470.685874 
L 455.127273 469.97654 
L 457.161449 470.423076 
L 459.195625 469.47172 
L 461.229802 469.424422 
L 463.263978 468.461754 
L 465.298154 466.49007 
L 467.332331 466.760385 
L 471.400684 467.902552 
L 473.43486 467.967009 
L 475.469036 466.804412 
L 477.503213 465.44355 
L 479.537389 464.740452 
L 481.571565 463.239044 
L 483.605742 463.715245 
L 485.639918 463.107756 
L 487.674094 462.315002 
L 489.708271 461.051988 
L 491.742447 461.274531 
L 493.776623 461.651937 
L 495.8108 462.492084 
L 497.844976 461.108758 
L 499.879152 461.645602 
L 501.913329 460.936743 
L 503.947505 458.952887 
L 505.981681 457.157596 
L 508.015858 456.771889 
L 510.050034 457.364717 
L 512.084211 456.006443 
L 514.118387 453.87669 
L 516.152563 452.415472 
L 518.18674 452.980918 
L 520.220916 452.219751 
L 522.255092 451.02642 
L 528.357621 443.2116 
L 530.391798 442.957601 
L 532.425974 440.409746 
L 534.46015 439.837467 
L 536.494327 439.8208 
L 538.528503 439.128726 
L 540.562679 437.367771 
L 542.596856 435.939495 
L 546.665208 437.050117 
L 550.733561 426.644892 
L 552.767738 422.735913 
L 554.801914 423.290413 
L 556.83609 424.494367 
L 558.870267 418.163999 
L 560.904443 416.581438 
L 562.938619 411.265012 
L 564.972796 410.220383 
L 567.006972 409.941424 
L 569.041148 406.525432 
L 571.075325 403.537723 
L 573.109501 398.74991 
L 575.143677 395.0683 
L 577.177854 397.153133 
L 579.21203 399.650233 
L 581.246206 399.22091 
L 583.280383 395.583231 
L 585.314559 391.329548 
L 587.348735 385.920267 
L 589.382912 381.596984 
L 591.417088 373.951815 
L 593.451265 373.288461 
L 595.485441 372.01829 
L 597.519617 361.919603 
L 599.553794 363.396414 
L 601.58797 359.610504 
L 603.622146 365.366115 
L 605.656323 358.969986 
L 607.690499 355.582949 
L 609.724675 347.24644 
L 611.758852 344.252008 
L 613.793028 336.279393 
L 615.827204 333.311294 
L 617.861381 337.117442 
L 619.895557 336.860042 
L 621.929733 329.844306 
L 623.96391 325.328013 
L 625.998086 321.692188 
L 628.032262 321.045724 
L 630.066439 324.299689 
L 632.100615 324.247828 
L 634.134792 313.36499 
L 636.168968 312.388492 
L 638.203144 312.161447 
L 640.237321 312.305577 
L 642.271497 314.212271 
L 644.305673 314.388557 
L 646.33985 304.950191 
L 648.374026 296.211845 
L 650.408202 299.660299 
L 652.442379 305.196785 
L 654.476555 297.300475 
L 656.510731 297.1593 
L 658.544908 293.177582 
L 660.579084 286.15062 
L 662.61326 289.892126 
L 664.647437 285.864614 
L 666.681613 281.203438 
L 668.715789 260.352116 
L 670.749966 247.598831 
L 672.784142 245.576246 
L 674.818319 249.325217 
L 676.852495 238.618927 
L 678.886671 226.03684 
L 680.920848 220.35451 
L 682.955024 221.571901 
L 684.9892 219.945775 
L 687.023377 211.407128 
L 691.091729 207.289305 
L 693.125906 204.796297 
L 695.160082 201.81129 
L 697.194258 200.07679 
L 699.228435 205.162193 
L 701.262611 199.256384 
L 703.296787 197.162633 
L 705.330964 189.158597 
L 707.36514 197.462295 
L 709.399316 182.205843 
L 711.433493 184.840271 
L 713.467669 178.2097 
L 715.501846 175.98467 
L 717.536022 190.410329 
L 719.570198 190.49195 
L 721.604375 182.26218 
L 723.638551 180.873469 
L 725.672727 178.033414 
L 727.706904 180.222529 
L 729.74108 175.774393 
L 731.775256 175.513198 
L 733.809433 179.750008 
L 735.843609 176.944259 
L 737.877785 173.500334 
L 739.911962 182.411853 
L 741.946138 182.030431 
L 743.980314 181.043845 
L 746.014491 177.893252 
L 748.048667 177.493575 
L 750.082843 176.486741 
L 752.11702 174.260802 
L 754.151196 167.534551 
L 756.185373 172.631668 
L 758.219549 171.939708 
L 760.253725 174.347808 
L 762.287902 175.644198 
L 764.322078 174.319307 
L 766.356254 170.711091 
L 768.390431 170.309771 
L 770.424607 171.35189 
L 772.458783 169.748845 
L 774.49296 168.83692 
L 776.527136 170.179471 
L 778.561312 170.833593 
L 780.595489 170.736305 
L 782.629665 170.414892 
L 784.663841 168.615977 
L 786.698018 167.983047 
L 788.732194 165.690069 
L 790.76637 165.637859 
L 792.800547 168.113731 
L 794.834723 170.028608 
L 796.8689 170.127365 
L 798.903076 169.870052 
L 802.971429 178.035827 
L 805.005605 178.650362 
L 807.039781 177.686996 
L 809.073958 177.876012 
L 811.108134 177.419542 
L 813.14231 174.773084 
L 815.176487 171.805037 
L 817.210663 171.729256 
L 819.244839 173.614723 
L 821.279016 169.60627 
L 823.313192 169.42334 
L 825.347368 165.805122 
L 827.381545 165.825965 
L 829.415721 164.624485 
L 831.449897 159.165423 
L 833.484074 160.408762 
L 835.51825 160.258984 
L 837.552427 160.596834 
L 839.586603 160.816343 
L 841.620779 159.324609 
L 843.654956 158.59586 
L 845.689132 154.853287 
L 847.723308 154.313868 
L 851.791661 156.4649 
L 853.825837 158.723432 
L 855.860014 158.419084 
L 857.89419 158.256192 
L 859.928366 160.812042 
L 861.962543 162.779829 
L 863.996719 161.756663 
L 866.030895 160.436949 
L 868.065072 160.358265 
L 870.099248 162.011668 
L 872.133424 161.788766 
L 874.167601 160.787947 
L 876.201777 160.915205 
L 878.235954 160.548365 
L 880.27013 160.734617 
L 882.304306 161.158739 
L 884.338483 161.3231 
L 886.372659 158.912657 
L 888.406835 158.694441 
L 894.509364 158.700806 
L 896.543541 159.5537 
L 902.64607 158.834883 
L 904.680246 158.979415 
L 906.714422 157.681382 
L 908.748599 157.422916 
L 910.782775 157.598572 
L 912.816951 157.023483 
L 914.851128 155.900302 
L 916.885304 159.326077 
L 920.953657 159.373987 
L 922.987833 158.279167 
L 925.02201 159.256172 
L 927.056186 159.256206 
L 929.090362 159.547825 
L 931.124539 160.857119 
L 933.158715 160.610752 
L 939.261244 160.396173 
L 941.29542 161.098625 
L 943.329597 160.735561 
L 947.397949 160.703528 
L 949.432126 159.411021 
L 951.466302 159.171893 
L 953.500478 159.185391 
L 957.568831 158.986479 
L 959.603008 157.620114 
L 963.67136 157.068805 
L 965.705537 157.07426 
L 967.739713 156.926405 
L 969.773889 156.931826 
L 971.808066 157.28786 
L 973.842242 157.236523 
L 975.876418 156.530855 
L 977.910595 157.811472 
L 979.944771 157.726005 
L 981.978947 158.860131 
L 984.013124 158.910768 
L 986.0473 159.533592 
L 988.081476 159.655464 
L 994.184005 159.751213 
L 996.218182 159.92096 
L 996.218182 159.92096 
" style="fill:none;stroke:#2ca02c;stroke-linecap:square;stroke-width:1.5;"/>
   </g>
   <g id="line2d_19">
    <path clip-path="url(#p9870c862cd)" d="M 184.581818 484.232727 
L 278.15393 484.134599 
L 284.256459 483.973349 
L 302.564046 483.363596 
L 312.734928 483.055096 
L 320.871634 482.75917 
L 322.90581 482.537033 
L 324.939986 482.62077 
L 326.974163 482.501081 
L 329.008339 482.529077 
L 337.145044 482.110249 
L 343.247573 481.367121 
L 345.28175 481.429873 
L 349.350103 480.903059 
L 351.384279 480.336122 
L 355.452632 480.248005 
L 357.486808 479.973986 
L 359.520984 479.883537 
L 361.555161 480.121334 
L 363.589337 480.077555 
L 365.623513 479.518227 
L 367.65769 478.800076 
L 369.691866 478.507487 
L 371.726042 478.691692 
L 373.760219 478.002806 
L 375.794395 477.62346 
L 381.896924 477.167564 
L 383.9311 476.522243 
L 385.965277 475.743403 
L 387.999453 475.638319 
L 390.03363 475.837321 
L 392.067806 474.197226 
L 394.101982 474.592202 
L 396.136159 474.136531 
L 398.170335 473.967473 
L 400.204511 473.644374 
L 402.238688 473.468149 
L 404.272864 472.931442 
L 406.30704 471.66398 
L 408.341217 470.803888 
L 410.375393 470.188612 
L 412.409569 470.244626 
L 414.443746 468.997409 
L 418.512098 468.125399 
L 420.546275 468.483116 
L 422.580451 467.540169 
L 424.614627 467.291717 
L 426.648804 467.546922 
L 428.68298 465.221829 
L 430.717157 463.228728 
L 432.751333 462.213868 
L 434.785509 461.924365 
L 436.819686 460.619609 
L 438.853862 460.397407 
L 440.888038 462.213732 
L 444.956391 463.659564 
L 446.990567 462.925604 
L 449.024744 460.911547 
L 451.05892 459.131393 
L 453.093096 456.210535 
L 455.127273 456.955432 
L 457.161449 457.511772 
L 459.195625 457.016586 
L 461.229802 456.878296 
L 463.263978 456.604656 
L 465.298154 456.901608 
L 467.332331 453.670312 
L 469.366507 451.803454 
L 471.400684 451.622403 
L 473.43486 450.574584 
L 475.469036 451.411055 
L 477.503213 449.484446 
L 479.537389 448.613542 
L 481.571565 448.291647 
L 483.605742 447.126686 
L 485.639918 444.343816 
L 487.674094 444.028728 
L 489.708271 444.517221 
L 491.742447 443.823556 
L 493.776623 441.753035 
L 495.8108 438.618686 
L 499.879152 433.834467 
L 501.913329 427.961993 
L 503.947505 430.31053 
L 505.981681 427.363535 
L 508.015858 423.583439 
L 510.050034 420.937558 
L 512.084211 415.289874 
L 514.118387 416.410887 
L 516.152563 410.664726 
L 518.18674 412.07449 
L 520.220916 413.819236 
L 522.255092 408.065959 
L 524.289269 403.079357 
L 526.323445 403.664884 
L 528.357621 401.439977 
L 530.391798 400.558293 
L 532.425974 398.286648 
L 534.46015 396.266598 
L 536.494327 397.855663 
L 538.528503 398.944495 
L 540.562679 399.565797 
L 542.596856 395.050999 
L 544.631032 396.356192 
L 546.665208 398.477298 
L 548.699385 399.314176 
L 550.733561 392.103899 
L 552.767738 389.834369 
L 554.801914 390.660022 
L 556.83609 389.164878 
L 558.870267 384.395634 
L 560.904443 378.223342 
L 562.938619 377.757483 
L 564.972796 371.970101 
L 569.041148 379.865239 
L 571.075325 375.595426 
L 573.109501 366.480755 
L 575.143677 363.056029 
L 577.177854 363.101657 
L 579.21203 363.951054 
L 581.246206 365.146492 
L 583.280383 357.084318 
L 585.314559 352.230149 
L 587.348735 348.466087 
L 589.382912 346.676964 
L 591.417088 346.762449 
L 593.451265 340.217188 
L 595.485441 336.218929 
L 597.519617 326.868339 
L 599.553794 321.909844 
L 601.58797 316.652159 
L 603.622146 310.501435 
L 605.656323 303.230606 
L 607.690499 300.175186 
L 609.724675 295.547949 
L 611.758852 294.439088 
L 613.793028 289.832204 
L 615.827204 288.320292 
L 617.861381 283.746891 
L 619.895557 276.764657 
L 621.929733 270.858725 
L 623.96391 273.662009 
L 625.998086 275.618553 
L 628.032262 272.480095 
L 630.066439 273.629469 
L 632.100615 270.716518 
L 634.134792 270.168024 
L 636.168968 268.663997 
L 638.203144 272.098707 
L 640.237321 270.254611 
L 642.271497 266.796593 
L 644.305673 269.59311 
L 646.33985 248.915504 
L 650.408202 249.348018 
L 652.442379 242.403272 
L 654.476555 241.299342 
L 656.510731 239.616669 
L 658.544908 225.411901 
L 660.579084 223.836412 
L 662.61326 218.909093 
L 664.647437 206.962681 
L 666.681613 213.635567 
L 668.715789 201.887246 
L 670.749966 200.801623 
L 672.784142 205.113899 
L 674.818319 207.454541 
L 676.852495 206.377451 
L 678.886671 206.778982 
L 680.920848 202.061433 
L 682.955024 197.879038 
L 684.9892 194.803876 
L 687.023377 193.061579 
L 689.057553 192.265407 
L 691.091729 196.082501 
L 693.125906 200.335397 
L 695.160082 200.287348 
L 697.194258 197.63998 
L 699.228435 200.927587 
L 701.262611 201.306771 
L 703.296787 198.084384 
L 705.330964 201.559957 
L 707.36514 203.161988 
L 709.399316 195.341547 
L 711.433493 188.063777 
L 713.467669 188.021393 
L 715.501846 189.810062 
L 717.536022 189.326071 
L 719.570198 189.553938 
L 721.604375 176.539406 
L 723.638551 173.805521 
L 725.672727 163.343098 
L 727.706904 166.213612 
L 729.74108 164.324508 
L 731.775256 162.959157 
L 733.809433 145.60196 
L 735.843609 141.618372 
L 737.877785 144.520849 
L 739.911962 137.884472 
L 741.946138 128.21322 
L 743.980314 120.33151 
L 746.014491 121.271306 
L 748.048667 125.482587 
L 750.082843 125.047555 
L 752.11702 125.023076 
L 754.151196 121.645455 
L 756.185373 122.185434 
L 758.219549 124.203788 
L 760.253725 123.284555 
L 762.287902 123.079943 
L 764.322078 120.588578 
L 766.356254 120.63355 
L 768.390431 123.380059 
L 770.424607 123.177545 
L 772.458783 131.608361 
L 774.49296 126.926937 
L 776.527136 111.263813 
L 778.561312 115.091573 
L 780.595489 108.468171 
L 782.629665 109.883285 
L 784.663841 100.460847 
L 786.698018 103.474531 
L 788.732194 104.930875 
L 790.76637 103.879978 
L 792.800547 94.367142 
L 794.834723 93.971661 
L 796.8689 99.023457 
L 798.903076 101.805426 
L 800.937252 99.884954 
L 802.971429 104.732033 
L 805.005605 105.64032 
L 807.039781 108.676699 
L 809.073958 122.490061 
L 811.108134 122.884038 
L 815.176487 125.500912 
L 817.210663 126.774675 
L 819.244839 117.830774 
L 821.279016 117.198018 
L 823.313192 119.51551 
L 825.347368 121.14202 
L 827.381545 122.94709 
L 829.415721 127.282411 
L 831.449897 126.691691 
L 833.484074 124.937853 
L 835.51825 125.738711 
L 837.552427 125.857191 
L 839.586603 118.006675 
L 841.620779 121.869231 
L 843.654956 122.418582 
L 845.689132 124.180113 
L 847.723308 129.929534 
L 849.757485 134.996018 
L 851.791661 133.278374 
L 853.825837 133.308694 
L 855.860014 135.876294 
L 857.89419 136.882359 
L 859.928366 139.893279 
L 861.962543 139.834074 
L 863.996719 139.577566 
L 866.030895 139.162817 
L 868.065072 142.482806 
L 874.167601 142.144257 
L 876.201777 142.110406 
L 878.235954 142.611602 
L 880.27013 145.093944 
L 882.304306 145.155423 
L 884.338483 145.652003 
L 886.372659 145.794473 
L 890.441012 148.540107 
L 892.475188 149.16377 
L 894.509364 150.189558 
L 898.577717 150.454879 
L 900.611893 150.942612 
L 902.64607 150.918692 
L 904.680246 149.433287 
L 906.714422 149.564951 
L 908.748599 150.569722 
L 910.782775 150.545872 
L 912.816951 151.321237 
L 914.851128 151.339457 
L 916.885304 151.099874 
L 918.919481 152.032466 
L 920.953657 153.955946 
L 922.987833 154.226792 
L 925.02201 156.920285 
L 927.056186 158.288749 
L 929.090362 158.288854 
L 931.124539 158.591139 
L 939.261244 158.413069 
L 941.29542 158.60128 
L 943.329597 158.468182 
L 945.363773 156.995122 
L 947.397949 157.846373 
L 949.432126 157.726179 
L 951.466302 157.771746 
L 953.500478 156.934309 
L 957.568831 157.021805 
L 959.603008 156.989352 
L 961.637184 157.458236 
L 963.67136 158.297667 
L 967.739713 158.254793 
L 969.773889 158.514308 
L 971.808066 157.790385 
L 979.944771 157.816368 
L 981.978947 158.209471 
L 984.013124 159.597903 
L 986.0473 159.426687 
L 988.081476 159.426687 
L 990.115653 159.660989 
L 994.184005 159.665745 
L 996.218182 161.056835 
L 996.218182 161.056835 
" style="fill:none;stroke:#d62728;stroke-dasharray:5.55,2.4;stroke-dashoffset:0;stroke-width:1.5;"/>
   </g>
   <g id="line2d_20">
    <path clip-path="url(#p9870c862cd)" d="M 184.581818 484.232727 
L 280.188107 484.143565 
L 300.52987 483.682002 
L 310.700752 483.394827 
L 314.769105 483.318342 
L 335.110868 482.55115 
L 337.145044 482.605182 
L 339.179221 482.510718 
L 341.213397 482.571599 
L 343.247573 482.399765 
L 349.350103 482.338119 
L 351.384279 482.200552 
L 353.418455 482.18708 
L 355.452632 481.99825 
L 357.486808 481.986288 
L 363.589337 481.663587 
L 365.623513 481.322193 
L 369.691866 481.137413 
L 371.726042 481.023464 
L 373.760219 480.644977 
L 375.794395 480.48078 
L 377.828571 480.70795 
L 379.862748 480.592265 
L 383.9311 480.565299 
L 390.03363 479.620898 
L 398.170335 479.590592 
L 402.238688 479.146998 
L 404.272864 478.60658 
L 406.30704 478.872887 
L 410.375393 478.32205 
L 412.409569 478.392423 
L 414.443746 478.018583 
L 418.512098 476.482947 
L 420.546275 476.906173 
L 422.580451 476.951472 
L 424.614627 476.843691 
L 426.648804 476.052588 
L 428.68298 476.020201 
L 430.717157 475.334907 
L 432.751333 474.469674 
L 434.785509 474.225603 
L 436.819686 473.341058 
L 438.853862 473.163893 
L 440.888038 473.586852 
L 444.956391 472.51948 
L 446.990567 472.475437 
L 449.024744 471.891555 
L 451.05892 470.969902 
L 453.093096 469.835867 
L 455.127273 469.94247 
L 457.161449 468.938681 
L 459.195625 469.285826 
L 463.263978 469.427605 
L 465.298154 469.970394 
L 467.332331 469.230837 
L 471.400684 467.07542 
L 473.43486 464.598149 
L 475.469036 463.733885 
L 479.537389 464.390372 
L 481.571565 462.433762 
L 483.605742 460.793198 
L 485.639918 461.257479 
L 487.674094 458.970507 
L 489.708271 457.611158 
L 491.742447 457.501176 
L 493.776623 456.170087 
L 495.8108 454.526856 
L 497.844976 452.676775 
L 501.913329 453.094143 
L 503.947505 452.472181 
L 505.981681 452.984201 
L 508.015858 453.786379 
L 510.050034 453.037019 
L 512.084211 451.822465 
L 514.118387 451.839238 
L 516.152563 448.644106 
L 518.18674 446.023517 
L 520.220916 447.057999 
L 522.255092 446.157362 
L 524.289269 445.863352 
L 526.323445 444.843089 
L 528.357621 446.105815 
L 530.391798 444.714341 
L 532.425974 443.047842 
L 534.46015 440.910251 
L 536.494327 438.355262 
L 538.528503 437.681019 
L 540.562679 436.248691 
L 542.596856 436.847547 
L 544.631032 432.107683 
L 546.665208 431.78654 
L 548.699385 425.896271 
L 550.733561 424.048258 
L 552.767738 424.94622 
L 554.801914 418.380248 
L 556.83609 419.194167 
L 558.870267 415.004909 
L 560.904443 411.477623 
L 562.938619 413.565193 
L 564.972796 408.14334 
L 567.006972 409.082043 
L 569.041148 409.802259 
L 571.075325 411.061589 
L 573.109501 410.424025 
L 575.143677 408.633634 
L 577.177854 404.348023 
L 579.21203 399.634925 
L 581.246206 393.758403 
L 583.280383 390.751705 
L 585.314559 387.290444 
L 587.348735 383.427032 
L 589.382912 379.133544 
L 591.417088 373.951815 
L 593.451265 368.08491 
L 595.485441 369.571487 
L 597.519617 374.644912 
L 599.553794 370.985709 
L 601.58797 361.327055 
L 603.622146 360.100091 
L 605.656323 359.585728 
L 607.690499 351.078834 
L 609.724675 347.24644 
L 611.758852 339.324218 
L 615.827204 333.311294 
L 619.895557 333.242 
L 621.929733 336.435256 
L 623.96391 331.455692 
L 625.998086 334.733332 
L 628.032262 323.120188 
L 630.066439 321.917223 
L 632.100615 314.765084 
L 634.134792 313.36499 
L 636.168968 314.470895 
L 638.203144 314.886414 
L 640.237321 306.367316 
L 642.271497 305.754896 
L 644.305673 305.442854 
L 646.33985 296.901707 
L 648.374026 296.211845 
L 650.408202 288.815893 
L 652.442379 293.039274 
L 654.476555 298.008924 
L 656.510731 294.284187 
L 658.544908 298.510523 
L 660.579084 277.974355 
L 662.61326 270.108924 
L 664.647437 265.679025 
L 666.681613 265.230441 
L 668.715789 260.352116 
L 670.749966 247.334822 
L 672.784142 245.469481 
L 674.818319 232.482715 
L 676.852495 221.9393 
L 678.886671 226.03684 
L 680.920848 226.673704 
L 682.955024 221.571901 
L 684.9892 214.519026 
L 687.023377 206.848853 
L 689.057553 204.529193 
L 691.091729 201.500682 
L 693.125906 198.936614 
L 695.160082 196.762047 
L 697.194258 196.004971 
L 699.228435 202.126373 
L 701.262611 194.04215 
L 703.296787 191.715741 
L 705.330964 189.158597 
L 707.36514 197.462295 
L 709.399316 182.205843 
L 711.433493 182.482564 
L 713.467669 179.976372 
L 715.501846 194.591221 
L 717.536022 197.013659 
L 719.570198 190.49195 
L 721.604375 189.056413 
L 723.638551 180.873469 
L 725.672727 180.1913 
L 727.706904 178.403191 
L 729.74108 182.62881 
L 731.775256 177.175274 
L 735.843609 179.630759 
L 737.877785 177.299734 
L 739.911962 173.490962 
L 741.946138 176.425542 
L 743.980314 175.784394 
L 746.014491 173.312963 
L 748.048667 172.123058 
L 750.082843 171.208266 
L 752.11702 165.683635 
L 754.151196 165.030772 
L 756.185373 170.469411 
L 758.219549 177.846182 
L 760.253725 176.566613 
L 762.287902 174.478108 
L 764.322078 173.104714 
L 766.356254 171.548669 
L 768.390431 172.958048 
L 770.424607 174.194638 
L 772.458783 175.724595 
L 774.49296 175.07946 
L 776.527136 172.464789 
L 778.561312 172.283607 
L 780.595489 171.035128 
L 782.629665 168.319253 
L 784.663841 168.615977 
L 786.698018 166.296317 
L 788.732194 165.690069 
L 790.76637 168.620873 
L 792.800547 168.394999 
L 794.834723 168.543308 
L 796.8689 170.267037 
L 798.903076 174.130012 
L 800.937252 174.030172 
L 802.971429 174.27409 
L 807.039781 174.223908 
L 809.073958 173.238336 
L 811.108134 170.243851 
L 813.14231 170.147578 
L 815.176487 167.898768 
L 817.210663 168.352579 
L 819.244839 170.811526 
L 821.279016 173.447389 
L 823.313192 173.417489 
L 825.347368 170.300818 
L 827.381545 169.070523 
L 829.415721 168.974389 
L 831.449897 167.762034 
L 833.484074 163.256406 
L 835.51825 158.472589 
L 837.552427 159.135104 
L 839.586603 157.567728 
L 841.620779 158.497103 
L 843.654956 158.59586 
L 845.689132 154.853287 
L 847.723308 156.011613 
L 849.757485 155.428551 
L 851.791661 155.245201 
L 853.825837 158.064938 
L 855.860014 160.297766 
L 857.89419 159.177138 
L 859.928366 160.058603 
L 861.962543 159.756738 
L 863.996719 159.744149 
L 866.030895 161.680638 
L 868.065072 161.723407 
L 870.099248 160.707305 
L 872.133424 159.339436 
L 874.167601 159.58367 
L 876.201777 159.087299 
L 878.235954 159.197421 
L 880.27013 160.734617 
L 882.304306 160.578509 
L 884.338483 161.002071 
L 888.406835 161.231547 
L 890.441012 158.758367 
L 896.543541 158.659331 
L 898.577717 159.460154 
L 900.611893 159.075095 
L 902.64607 158.955251 
L 904.680246 159.166682 
L 906.714422 159.192106 
L 908.748599 157.855955 
L 910.782775 157.598572 
L 912.816951 157.023483 
L 914.851128 160.698248 
L 916.885304 159.326077 
L 920.953657 159.373987 
L 922.987833 158.279167 
L 925.02201 158.279272 
L 927.056186 159.256206 
L 929.090362 159.010889 
L 931.124539 159.316216 
L 933.158715 159.265194 
L 935.192891 160.56015 
L 937.227068 160.558471 
L 939.261244 160.166103 
L 941.29542 160.033669 
L 943.329597 160.735561 
L 945.363773 160.770986 
L 947.397949 159.478374 
L 951.466302 159.505476 
L 953.500478 159.112268 
L 957.568831 158.986479 
L 959.603008 157.620114 
L 961.637184 157.291881 
L 963.67136 157.328146 
L 965.705537 157.099509 
L 969.773889 157.060552 
L 971.808066 158.085676 
L 973.842242 158.002796 
L 975.876418 158.369985 
L 977.910595 158.418524 
L 979.944771 159.532403 
L 981.978947 159.416126 
L 984.013124 158.910768 
L 986.0473 159.024422 
L 992.149829 159.091705 
L 994.184005 159.279672 
L 996.218182 159.92096 
L 996.218182 159.92096 
" style="fill:none;stroke:#9467bd;stroke-dasharray:5.55,2.4;stroke-dashoffset:0;stroke-width:1.5;"/>
   </g>
   <g id="line2d_21">
    <path clip-path="url(#p9870c862cd)" d="M 184.581818 484.232727 
L 276.119754 484.167757 
L 290.358988 483.853865 
L 292.393165 483.958128 
L 298.495694 483.810465 
L 300.52987 483.642997 
L 302.564046 483.294551 
L 306.632399 483.387285 
L 312.734928 483.144692 
L 314.769105 482.943836 
L 316.803281 483.135783 
L 318.837457 483.109213 
L 322.90581 482.750908 
L 324.939986 482.620503 
L 326.974163 482.667224 
L 331.042515 482.138836 
L 333.076692 482.300882 
L 335.110868 481.99265 
L 337.145044 482.09203 
L 339.179221 481.535027 
L 343.247573 481.185873 
L 345.28175 480.456556 
L 347.315926 480.441442 
L 349.350103 479.983006 
L 351.384279 480.343936 
L 353.418455 479.799636 
L 355.452632 480.038255 
L 357.486808 478.856306 
L 359.520984 479.007271 
L 361.555161 478.689506 
L 363.589337 477.636799 
L 365.623513 476.897992 
L 367.65769 476.724591 
L 369.691866 476.735991 
L 371.726042 475.415723 
L 375.794395 475.383201 
L 377.828571 475.043837 
L 379.862748 475.394217 
L 381.896924 474.991009 
L 383.9311 475.76668 
L 385.965277 476.033426 
L 390.03363 475.871967 
L 392.067806 475.694709 
L 396.136159 474.881003 
L 398.170335 474.930764 
L 400.204511 475.550065 
L 402.238688 475.500441 
L 404.272864 475.941867 
L 406.30704 474.469263 
L 408.341217 474.2032 
L 412.409569 473.062461 
L 414.443746 471.880884 
L 416.477922 471.543253 
L 418.512098 470.27992 
L 420.546275 470.246757 
L 422.580451 468.926889 
L 424.614627 467.862856 
L 426.648804 467.808108 
L 428.68298 467.461658 
L 430.717157 467.266573 
L 432.751333 466.169019 
L 434.785509 466.023251 
L 436.819686 464.472408 
L 440.888038 465.076907 
L 444.956391 464.873279 
L 446.990567 463.579516 
L 449.024744 463.971483 
L 451.05892 462.350873 
L 453.093096 462.278144 
L 455.127273 462.321109 
L 457.161449 460.320131 
L 459.195625 459.657034 
L 461.229802 460.189031 
L 463.263978 459.485745 
L 465.298154 459.388229 
L 467.332331 457.729787 
L 469.366507 457.842134 
L 471.400684 457.807159 
L 475.469036 458.507534 
L 477.503213 456.883646 
L 479.537389 454.98239 
L 481.571565 452.556009 
L 483.605742 451.94199 
L 485.639918 451.134815 
L 487.674094 450.920385 
L 489.708271 452.11814 
L 491.742447 448.670653 
L 493.776623 447.903266 
L 495.8108 446.345651 
L 497.844976 445.919711 
L 499.879152 442.602528 
L 501.913329 442.239758 
L 503.947505 442.436471 
L 505.981681 441.506904 
L 508.015858 439.91786 
L 510.050034 439.552668 
L 512.084211 440.043115 
L 514.118387 437.718691 
L 516.152563 433.888094 
L 518.18674 431.65308 
L 520.220916 430.059643 
L 522.255092 429.269726 
L 524.289269 430.138287 
L 526.323445 426.813476 
L 528.357621 425.641258 
L 530.391798 423.426562 
L 534.46015 414.432591 
L 536.494327 411.516423 
L 538.528503 412.113194 
L 542.596856 408.198628 
L 544.631032 407.083403 
L 546.665208 404.823796 
L 548.699385 404.337121 
L 552.767738 402.525993 
L 554.801914 401.32996 
L 558.870267 394.7299 
L 560.904443 392.3049 
L 562.938619 384.67719 
L 564.972796 381.619759 
L 567.006972 380.802797 
L 569.041148 381.419833 
L 571.075325 372.439973 
L 573.109501 366.799825 
L 575.143677 363.578636 
L 579.21203 355.430303 
L 581.246206 353.276447 
L 583.280383 344.593547 
L 585.314559 339.784778 
L 587.348735 330.460276 
L 589.382912 331.278129 
L 591.417088 330.866195 
L 593.451265 329.658928 
L 595.485441 329.676465 
L 597.519617 328.192127 
L 599.553794 329.028481 
L 601.58797 322.813445 
L 603.622146 319.431768 
L 605.656323 318.275785 
L 607.690499 319.34644 
L 609.724675 316.265648 
L 611.758852 312.93912 
L 613.793028 303.909767 
L 615.827204 300.179715 
L 617.861381 287.775347 
L 619.895557 283.211074 
L 623.96391 284.906704 
L 625.998086 284.831675 
L 628.032262 282.738851 
L 630.066439 291.37872 
L 632.100615 289.462356 
L 634.134792 286.572101 
L 636.168968 286.315733 
L 638.203144 282.341779 
L 640.237321 281.301758 
L 642.271497 278.271691 
L 644.305673 268.41548 
L 646.33985 264.403216 
L 648.374026 258.753233 
L 650.408202 255.789942 
L 652.442379 255.231394 
L 654.476555 254.519168 
L 656.510731 250.733005 
L 658.544908 249.733882 
L 660.579084 246.911068 
L 662.61326 247.373762 
L 664.647437 248.702027 
L 666.681613 246.355422 
L 668.715789 245.69476 
L 670.749966 242.774308 
L 672.784142 242.107369 
L 674.818319 239.396355 
L 676.852495 234.374494 
L 678.886671 231.685721 
L 680.920848 230.410786 
L 682.955024 225.538546 
L 684.9892 220.961247 
L 687.023377 219.165637 
L 691.091729 218.469165 
L 693.125906 213.585507 
L 695.160082 211.098024 
L 697.194258 206.799929 
L 701.262611 192.372591 
L 703.296787 190.706144 
L 705.330964 189.994636 
L 707.36514 187.896304 
L 709.399316 189.169053 
L 711.433493 182.910147 
L 713.467669 177.925355 
L 715.501846 176.088602 
L 717.536022 175.180524 
L 719.570198 173.547824 
L 721.604375 167.171208 
L 723.638551 167.095322 
L 725.672727 162.786473 
L 727.706904 161.779114 
L 729.74108 159.777056 
L 731.775256 156.848841 
L 733.809433 158.407334 
L 735.843609 155.152949 
L 737.877785 150.761255 
L 739.911962 150.930827 
L 741.946138 152.390633 
L 743.980314 149.115371 
L 746.014491 149.122505 
L 748.048667 149.822404 
L 750.082843 148.93975 
L 754.151196 148.782243 
L 756.185373 146.788612 
L 758.219549 147.015396 
L 760.253725 148.34186 
L 762.287902 146.186456 
L 764.322078 145.98632 
L 768.390431 144.032382 
L 770.424607 141.210231 
L 774.49296 141.211001 
L 776.527136 141.67887 
L 778.561312 141.669568 
L 780.595489 139.132532 
L 782.629665 138.984258 
L 786.698018 138.935858 
L 790.76637 138.353705 
L 792.800547 139.802776 
L 794.834723 141.640053 
L 796.8689 141.754022 
L 798.903076 142.360934 
L 800.937252 142.444793 
L 802.971429 141.178478 
L 805.005605 143.75038 
L 807.039781 144.753647 
L 809.073958 143.610113 
L 811.108134 148.649495 
L 813.14231 148.753602 
L 815.176487 148.349483 
L 817.210663 148.374207 
L 819.244839 144.64912 
L 821.279016 148.243873 
L 823.313192 148.555739 
L 825.347368 147.177973 
L 827.381545 147.70225 
L 829.415721 149.505676 
L 831.449897 149.668674 
L 833.484074 150.895332 
L 835.51825 150.824971 
L 837.552427 152.581327 
L 841.620779 153.259124 
L 843.654956 155.830327 
L 845.689132 153.581342 
L 847.723308 156.416886 
L 849.757485 155.172987 
L 851.791661 155.520628 
L 853.825837 155.613999 
L 857.89419 155.433307 
L 859.928366 156.444408 
L 861.962543 156.279942 
L 863.996719 156.726514 
L 866.030895 159.83745 
L 868.065072 163.574742 
L 870.099248 163.084421 
L 872.133424 160.585783 
L 876.201777 160.96801 
L 880.27013 161.605836 
L 886.372659 161.695115 
L 888.406835 161.613459 
L 890.441012 158.358375 
L 892.475188 160.563856 
L 894.509364 160.516681 
L 896.543541 161.431718 
L 898.577717 160.86705 
L 900.611893 160.759061 
L 902.64607 160.974479 
L 904.680246 160.28105 
L 906.714422 158.835407 
L 908.748599 158.406599 
L 912.816951 160.937481 
L 914.851128 160.943426 
L 916.885304 160.807531 
L 918.919481 162.218029 
L 920.953657 162.07444 
L 925.02201 161.385662 
L 927.056186 161.196787 
L 929.090362 161.246759 
L 933.158715 161.116459 
L 935.192891 161.62479 
L 937.227068 161.92627 
L 939.261244 161.957324 
L 941.29542 161.170209 
L 943.329597 161.535615 
L 945.363773 161.579538 
L 947.397949 160.496294 
L 949.432126 160.602464 
L 951.466302 161.099744 
L 957.568831 161.064249 
L 959.603008 160.732274 
L 961.637184 160.835822 
L 963.67136 160.763433 
L 965.705537 160.50091 
L 967.739713 160.559065 
L 969.773889 160.176804 
L 971.808066 160.06913 
L 973.842242 160.134175 
L 975.876418 161.99142 
L 981.978947 161.954142 
L 984.013124 162.251041 
L 996.218182 162.236283 
L 996.218182 162.236283 
" style="fill:none;stroke:#8c564b;stroke-dasharray:5.55,2.4;stroke-dashoffset:0;stroke-width:1.5;"/>
   </g>
   <g id="patch_3">
    <path d="M 144 504 
L 144 69.12 
" style="fill:none;stroke:#000000;stroke-linecap:square;stroke-linejoin:miter;stroke-width:0.8;"/>
   </g>
   <g id="patch_4">
    <path d="M 1036.8 504 
L 1036.8 69.12 
" style="fill:none;stroke:#000000;stroke-linecap:square;stroke-linejoin:miter;stroke-width:0.8;"/>
   </g>
   <g id="patch_5">
    <path d="M 144 504 
L 1036.8 504 
" style="fill:none;stroke:#000000;stroke-linecap:square;stroke-linejoin:miter;stroke-width:0.8;"/>
   </g>
   <g id="patch_6">
    <path d="M 144 69.12 
L 1036.8 69.12 
" style="fill:none;stroke:#000000;stroke-linecap:square;stroke-linejoin:miter;stroke-width:0.8;"/>
   </g>
   <g id="legend_1">
    <g id="patch_7">
     <path d="M 151 166.579375 
L 275.432813 166.579375 
Q 277.432813 166.579375 277.432813 164.579375 
L 277.432813 76.12 
Q 277.432813 74.12 275.432813 74.12 
L 151 74.12 
Q 149 74.12 149 76.12 
L 149 164.579375 
Q 149 166.579375 151 166.579375 
z
" style="fill:#ffffff;opacity:0.8;stroke:#cccccc;stroke-linejoin:miter;"/>
    </g>
    <g id="line2d_22">
     <path d="M 153 82.218438 
L 173 82.218438 
" style="fill:none;stroke:#1f77b4;stroke-linecap:square;stroke-width:1.5;"/>
    </g>
    <g id="line2d_23"/>
    <g id="text_18">
     <!-- taylorfo -->
     <defs>
      <path d="M 18.3125 70.21875 
L 18.3125 54.6875 
L 36.8125 54.6875 
L 36.8125 47.703125 
L 18.3125 47.703125 
L 18.3125 18.015625 
Q 18.3125 11.328125 20.140625 9.421875 
Q 21.96875 7.515625 27.59375 7.515625 
L 36.8125 7.515625 
L 36.8125 0 
L 27.59375 0 
Q 17.1875 0 13.234375 3.875 
Q 9.28125 7.765625 9.28125 18.015625 
L 9.28125 47.703125 
L 2.6875 47.703125 
L 2.6875 54.6875 
L 9.28125 54.6875 
L 9.28125 70.21875 
z
" id="DejaVuSans-116"/>
      <path d="M 34.28125 27.484375 
Q 23.390625 27.484375 19.1875 25 
Q 14.984375 22.515625 14.984375 16.5 
Q 14.984375 11.71875 18.140625 8.90625 
Q 21.296875 6.109375 26.703125 6.109375 
Q 34.1875 6.109375 38.703125 11.40625 
Q 43.21875 16.703125 43.21875 25.484375 
L 43.21875 27.484375 
z
M 52.203125 31.203125 
L 52.203125 0 
L 43.21875 0 
L 43.21875 8.296875 
Q 40.140625 3.328125 35.546875 0.953125 
Q 30.953125 -1.421875 24.3125 -1.421875 
Q 15.921875 -1.421875 10.953125 3.296875 
Q 6 8.015625 6 15.921875 
Q 6 25.140625 12.171875 29.828125 
Q 18.359375 34.515625 30.609375 34.515625 
L 43.21875 34.515625 
L 43.21875 35.40625 
Q 43.21875 41.609375 39.140625 45 
Q 35.0625 48.390625 27.6875 48.390625 
Q 23 48.390625 18.546875 47.265625 
Q 14.109375 46.140625 10.015625 43.890625 
L 10.015625 52.203125 
Q 14.9375 54.109375 19.578125 55.046875 
Q 24.21875 56 28.609375 56 
Q 40.484375 56 46.34375 49.84375 
Q 52.203125 43.703125 52.203125 31.203125 
z
" id="DejaVuSans-97"/>
      <path d="M 32.171875 -5.078125 
Q 28.375 -14.84375 24.75 -17.8125 
Q 21.140625 -20.796875 15.09375 -20.796875 
L 7.90625 -20.796875 
L 7.90625 -13.28125 
L 13.1875 -13.28125 
Q 16.890625 -13.28125 18.9375 -11.515625 
Q 21 -9.765625 23.484375 -3.21875 
L 25.09375 0.875 
L 2.984375 54.6875 
L 12.5 54.6875 
L 29.59375 11.921875 
L 46.6875 54.6875 
L 56.203125 54.6875 
z
" id="DejaVuSans-121"/>
      <path d="M 9.421875 75.984375 
L 18.40625 75.984375 
L 18.40625 0 
L 9.421875 0 
z
" id="DejaVuSans-108"/>
     </defs>
     <g transform="translate(181 85.718438)scale(0.1 -0.1)">
      <use xlink:href="#DejaVuSans-116"/>
      <use x="39.208984" xlink:href="#DejaVuSans-97"/>
      <use x="100.488281" xlink:href="#DejaVuSans-121"/>
      <use x="159.667969" xlink:href="#DejaVuSans-108"/>
      <use x="187.451172" xlink:href="#DejaVuSans-111"/>
      <use x="248.632812" xlink:href="#DejaVuSans-114"/>
      <use x="289.746094" xlink:href="#DejaVuSans-102"/>
      <use x="324.951172" xlink:href="#DejaVuSans-111"/>
     </g>
    </g>
    <g id="line2d_24">
     <path d="M 153 96.896563 
L 173 96.896563 
" style="fill:none;stroke:#ff7f0e;stroke-linecap:square;stroke-width:1.5;"/>
    </g>
    <g id="line2d_25"/>
    <g id="text_19">
     <!-- taylorfo_abs -->
     <defs>
      <path d="M 50.984375 -16.609375 
L 50.984375 -23.578125 
L -0.984375 -23.578125 
L -0.984375 -16.609375 
z
" id="DejaVuSans-95"/>
     </defs>
     <g transform="translate(181 100.396563)scale(0.1 -0.1)">
      <use xlink:href="#DejaVuSans-116"/>
      <use x="39.208984" xlink:href="#DejaVuSans-97"/>
      <use x="100.488281" xlink:href="#DejaVuSans-121"/>
      <use x="159.667969" xlink:href="#DejaVuSans-108"/>
      <use x="187.451172" xlink:href="#DejaVuSans-111"/>
      <use x="248.632812" xlink:href="#DejaVuSans-114"/>
      <use x="289.746094" xlink:href="#DejaVuSans-102"/>
      <use x="324.951172" xlink:href="#DejaVuSans-111"/>
      <use x="386.132812" xlink:href="#DejaVuSans-95"/>
      <use x="436.132812" xlink:href="#DejaVuSans-97"/>
      <use x="497.412109" xlink:href="#DejaVuSans-98"/>
      <use x="560.888672" xlink:href="#DejaVuSans-115"/>
     </g>
    </g>
    <g id="line2d_26">
     <path d="M 153 111.852813 
L 173 111.852813 
" style="fill:none;stroke:#2ca02c;stroke-linecap:square;stroke-width:1.5;"/>
    </g>
    <g id="line2d_27"/>
    <g id="text_20">
     <!-- taylorfo_sq -->
     <defs>
      <path d="M 14.796875 27.296875 
Q 14.796875 17.390625 18.875 11.75 
Q 22.953125 6.109375 30.078125 6.109375 
Q 37.203125 6.109375 41.296875 11.75 
Q 45.40625 17.390625 45.40625 27.296875 
Q 45.40625 37.203125 41.296875 42.84375 
Q 37.203125 48.484375 30.078125 48.484375 
Q 22.953125 48.484375 18.875 42.84375 
Q 14.796875 37.203125 14.796875 27.296875 
z
M 45.40625 8.203125 
Q 42.578125 3.328125 38.25 0.953125 
Q 33.9375 -1.421875 27.875 -1.421875 
Q 17.96875 -1.421875 11.734375 6.484375 
Q 5.515625 14.40625 5.515625 27.296875 
Q 5.515625 40.1875 11.734375 48.09375 
Q 17.96875 56 27.875 56 
Q 33.9375 56 38.25 53.625 
Q 42.578125 51.265625 45.40625 46.390625 
L 45.40625 54.6875 
L 54.390625 54.6875 
L 54.390625 -20.796875 
L 45.40625 -20.796875 
z
" id="DejaVuSans-113"/>
     </defs>
     <g transform="translate(181 115.352813)scale(0.1 -0.1)">
      <use xlink:href="#DejaVuSans-116"/>
      <use x="39.208984" xlink:href="#DejaVuSans-97"/>
      <use x="100.488281" xlink:href="#DejaVuSans-121"/>
      <use x="159.667969" xlink:href="#DejaVuSans-108"/>
      <use x="187.451172" xlink:href="#DejaVuSans-111"/>
      <use x="248.632812" xlink:href="#DejaVuSans-114"/>
      <use x="289.746094" xlink:href="#DejaVuSans-102"/>
      <use x="324.951172" xlink:href="#DejaVuSans-111"/>
      <use x="386.132812" xlink:href="#DejaVuSans-95"/>
      <use x="436.132812" xlink:href="#DejaVuSans-115"/>
      <use x="488.232422" xlink:href="#DejaVuSans-113"/>
     </g>
    </g>
    <g id="line2d_28">
     <path d="M 153 126.809063 
L 173 126.809063 
" style="fill:none;stroke:#d62728;stroke-dasharray:5.55,2.4;stroke-dashoffset:0;stroke-width:1.5;"/>
    </g>
    <g id="line2d_29"/>
    <g id="text_21">
     <!-- taylorfo_abs_norm -->
     <g transform="translate(181 130.309063)scale(0.1 -0.1)">
      <use xlink:href="#DejaVuSans-116"/>
      <use x="39.208984" xlink:href="#DejaVuSans-97"/>
      <use x="100.488281" xlink:href="#DejaVuSans-121"/>
      <use x="159.667969" xlink:href="#DejaVuSans-108"/>
      <use x="187.451172" xlink:href="#DejaVuSans-111"/>
      <use x="248.632812" xlink:href="#DejaVuSans-114"/>
      <use x="289.746094" xlink:href="#DejaVuSans-102"/>
      <use x="324.951172" xlink:href="#DejaVuSans-111"/>
      <use x="386.132812" xlink:href="#DejaVuSans-95"/>
      <use x="436.132812" xlink:href="#DejaVuSans-97"/>
      <use x="497.412109" xlink:href="#DejaVuSans-98"/>
      <use x="560.888672" xlink:href="#DejaVuSans-115"/>
      <use x="612.988281" xlink:href="#DejaVuSans-95"/>
      <use x="662.988281" xlink:href="#DejaVuSans-110"/>
      <use x="726.367188" xlink:href="#DejaVuSans-111"/>
      <use x="787.548828" xlink:href="#DejaVuSans-114"/>
      <use x="826.912109" xlink:href="#DejaVuSans-109"/>
     </g>
    </g>
    <g id="line2d_30">
     <path d="M 153 141.765313 
L 173 141.765313 
" style="fill:none;stroke:#9467bd;stroke-dasharray:5.55,2.4;stroke-dashoffset:0;stroke-width:1.5;"/>
    </g>
    <g id="line2d_31"/>
    <g id="text_22">
     <!-- taylorfo_sq_norm -->
     <g transform="translate(181 145.265313)scale(0.1 -0.1)">
      <use xlink:href="#DejaVuSans-116"/>
      <use x="39.208984" xlink:href="#DejaVuSans-97"/>
      <use x="100.488281" xlink:href="#DejaVuSans-121"/>
      <use x="159.667969" xlink:href="#DejaVuSans-108"/>
      <use x="187.451172" xlink:href="#DejaVuSans-111"/>
      <use x="248.632812" xlink:href="#DejaVuSans-114"/>
      <use x="289.746094" xlink:href="#DejaVuSans-102"/>
      <use x="324.951172" xlink:href="#DejaVuSans-111"/>
      <use x="386.132812" xlink:href="#DejaVuSans-95"/>
      <use x="436.132812" xlink:href="#DejaVuSans-115"/>
      <use x="488.232422" xlink:href="#DejaVuSans-113"/>
      <use x="551.708984" xlink:href="#DejaVuSans-95"/>
      <use x="601.708984" xlink:href="#DejaVuSans-110"/>
      <use x="665.087891" xlink:href="#DejaVuSans-111"/>
      <use x="726.269531" xlink:href="#DejaVuSans-114"/>
      <use x="765.632812" xlink:href="#DejaVuSans-109"/>
     </g>
    </g>
    <g id="line2d_32">
     <path d="M 153 156.721563 
L 173 156.721563 
" style="fill:none;stroke:#8c564b;stroke-dasharray:5.55,2.4;stroke-dashoffset:0;stroke-width:1.5;"/>
    </g>
    <g id="line2d_33"/>
    <g id="text_23">
     <!-- Molchanov_group -->
     <defs>
      <path d="M 9.8125 72.90625 
L 24.515625 72.90625 
L 43.109375 23.296875 
L 61.8125 72.90625 
L 76.515625 72.90625 
L 76.515625 0 
L 66.890625 0 
L 66.890625 64.015625 
L 48.09375 14.015625 
L 38.1875 14.015625 
L 19.390625 64.015625 
L 19.390625 0 
L 9.8125 0 
z
" id="DejaVuSans-77"/>
      <path d="M 48.78125 52.59375 
L 48.78125 44.1875 
Q 44.96875 46.296875 41.140625 47.34375 
Q 37.3125 48.390625 33.40625 48.390625 
Q 24.65625 48.390625 19.8125 42.84375 
Q 14.984375 37.3125 14.984375 27.296875 
Q 14.984375 17.28125 19.8125 11.734375 
Q 24.65625 6.203125 33.40625 6.203125 
Q 37.3125 6.203125 41.140625 7.25 
Q 44.96875 8.296875 48.78125 10.40625 
L 48.78125 2.09375 
Q 45.015625 0.34375 40.984375 -0.53125 
Q 36.96875 -1.421875 32.421875 -1.421875 
Q 20.0625 -1.421875 12.78125 6.34375 
Q 5.515625 14.109375 5.515625 27.296875 
Q 5.515625 40.671875 12.859375 48.328125 
Q 20.21875 56 33.015625 56 
Q 37.15625 56 41.109375 55.140625 
Q 45.0625 54.296875 48.78125 52.59375 
z
" id="DejaVuSans-99"/>
      <path d="M 54.890625 33.015625 
L 54.890625 0 
L 45.90625 0 
L 45.90625 32.71875 
Q 45.90625 40.484375 42.875 44.328125 
Q 39.84375 48.1875 33.796875 48.1875 
Q 26.515625 48.1875 22.3125 43.546875 
Q 18.109375 38.921875 18.109375 30.90625 
L 18.109375 0 
L 9.078125 0 
L 9.078125 75.984375 
L 18.109375 75.984375 
L 18.109375 46.1875 
Q 21.34375 51.125 25.703125 53.5625 
Q 30.078125 56 35.796875 56 
Q 45.21875 56 50.046875 50.171875 
Q 54.890625 44.34375 54.890625 33.015625 
z
" id="DejaVuSans-104"/>
      <path d="M 2.984375 54.6875 
L 12.5 54.6875 
L 29.59375 8.796875 
L 46.6875 54.6875 
L 56.203125 54.6875 
L 35.6875 0 
L 23.484375 0 
z
" id="DejaVuSans-118"/>
      <path d="M 45.40625 27.984375 
Q 45.40625 37.75 41.375 43.109375 
Q 37.359375 48.484375 30.078125 48.484375 
Q 22.859375 48.484375 18.828125 43.109375 
Q 14.796875 37.75 14.796875 27.984375 
Q 14.796875 18.265625 18.828125 12.890625 
Q 22.859375 7.515625 30.078125 7.515625 
Q 37.359375 7.515625 41.375 12.890625 
Q 45.40625 18.265625 45.40625 27.984375 
z
M 54.390625 6.78125 
Q 54.390625 -7.171875 48.1875 -13.984375 
Q 42 -20.796875 29.203125 -20.796875 
Q 24.46875 -20.796875 20.265625 -20.09375 
Q 16.0625 -19.390625 12.109375 -17.921875 
L 12.109375 -9.1875 
Q 16.0625 -11.328125 19.921875 -12.34375 
Q 23.78125 -13.375 27.78125 -13.375 
Q 36.625 -13.375 41.015625 -8.765625 
Q 45.40625 -4.15625 45.40625 5.171875 
L 45.40625 9.625 
Q 42.625 4.78125 38.28125 2.390625 
Q 33.9375 0 27.875 0 
Q 17.828125 0 11.671875 7.65625 
Q 5.515625 15.328125 5.515625 27.984375 
Q 5.515625 40.671875 11.671875 48.328125 
Q 17.828125 56 27.875 56 
Q 33.9375 56 38.28125 53.609375 
Q 42.625 51.21875 45.40625 46.390625 
L 45.40625 54.6875 
L 54.390625 54.6875 
z
" id="DejaVuSans-103"/>
     </defs>
     <g transform="translate(181 160.221563)scale(0.1 -0.1)">
      <use xlink:href="#DejaVuSans-77"/>
      <use x="86.279297" xlink:href="#DejaVuSans-111"/>
      <use x="147.460938" xlink:href="#DejaVuSans-108"/>
      <use x="175.244141" xlink:href="#DejaVuSans-99"/>
      <use x="230.224609" xlink:href="#DejaVuSans-104"/>
      <use x="293.603516" xlink:href="#DejaVuSans-97"/>
      <use x="354.882812" xlink:href="#DejaVuSans-110"/>
      <use x="418.261719" xlink:href="#DejaVuSans-111"/>
      <use x="479.443359" xlink:href="#DejaVuSans-118"/>
      <use x="538.623047" xlink:href="#DejaVuSans-95"/>
      <use x="588.623047" xlink:href="#DejaVuSans-103"/>
      <use x="652.099609" xlink:href="#DejaVuSans-114"/>
      <use x="690.962891" xlink:href="#DejaVuSans-111"/>
      <use x="752.144531" xlink:href="#DejaVuSans-117"/>
      <use x="815.523438" xlink:href="#DejaVuSans-112"/>
     </g>
    </g>
   </g>
  </g>
 </g>
 <defs>
  <clipPath id="p9870c862cd">
   <rect height="434.88" width="892.8" x="144" y="69.12"/>
  </clipPath>
 </defs>
</svg>
