<?xml version="1.0" encoding="utf-8" standalone="no"?>
<!DOCTYPE svg PUBLIC "-//W3C//DTD SVG 1.1//EN"
  "http://www.w3.org/Graphics/SVG/1.1/DTD/svg11.dtd">
<!-- Created with matplotlib (https://matplotlib.org/) -->
<svg height="576pt" version="1.1" viewBox="0 0 1152 576" width="1152pt" xmlns="http://www.w3.org/2000/svg" xmlns:xlink="http://www.w3.org/1999/xlink">
 <defs>
  <style type="text/css">
*{stroke-linecap:butt;stroke-linejoin:round;}
  </style>
 </defs>
 <g id="figure_1">
  <g id="patch_1">
   <path d="M 0 576 
L 1152 576 
L 1152 0 
L 0 0 
z
" style="fill:#ffffff;"/>
  </g>
  <g id="axes_1">
   <g id="patch_2">
    <path d="M 144 504 
L 1036.8 504 
L 1036.8 69.12 
L 144 69.12 
z
" style="fill:#ffffff;"/>
   </g>
   <g id="matplotlib.axis_1">
    <g id="xtick_1">
     <g id="line2d_1">
      <defs>
       <path d="M 0 0 
L 0 3.5 
" id="m4927fbfda7" style="stroke:#000000;stroke-width:0.8;"/>
      </defs>
      <g>
       <use style="stroke:#000000;stroke-width:0.8;" x="182.547642" xlink:href="#m4927fbfda7" y="504"/>
      </g>
     </g>
     <g id="text_1">
      <!-- 0 -->
      <defs>
       <path d="M 31.78125 66.40625 
Q 24.171875 66.40625 20.328125 58.90625 
Q 16.5 51.421875 16.5 36.375 
Q 16.5 21.390625 20.328125 13.890625 
Q 24.171875 6.390625 31.78125 6.390625 
Q 39.453125 6.390625 43.28125 13.890625 
Q 47.125 21.390625 47.125 36.375 
Q 47.125 51.421875 43.28125 58.90625 
Q 39.453125 66.40625 31.78125 66.40625 
z
M 31.78125 74.21875 
Q 44.046875 74.21875 50.515625 64.515625 
Q 56.984375 54.828125 56.984375 36.375 
Q 56.984375 17.96875 50.515625 8.265625 
Q 44.046875 -1.421875 31.78125 -1.421875 
Q 19.53125 -1.421875 13.0625 8.265625 
Q 6.59375 17.96875 6.59375 36.375 
Q 6.59375 54.828125 13.0625 64.515625 
Q 19.53125 74.21875 31.78125 74.21875 
z
" id="DejaVuSans-48"/>
      </defs>
      <g transform="translate(179.366392 518.598438)scale(0.1 -0.1)">
       <use xlink:href="#DejaVuSans-48"/>
      </g>
     </g>
    </g>
    <g id="xtick_2">
     <g id="line2d_2">
      <g>
       <use style="stroke:#000000;stroke-width:0.8;" x="284.256459" xlink:href="#m4927fbfda7" y="504"/>
      </g>
     </g>
     <g id="text_2">
      <!-- 50 -->
      <defs>
       <path d="M 10.796875 72.90625 
L 49.515625 72.90625 
L 49.515625 64.59375 
L 19.828125 64.59375 
L 19.828125 46.734375 
Q 21.96875 47.46875 24.109375 47.828125 
Q 26.265625 48.1875 28.421875 48.1875 
Q 40.625 48.1875 47.75 41.5 
Q 54.890625 34.8125 54.890625 23.390625 
Q 54.890625 11.625 47.5625 5.09375 
Q 40.234375 -1.421875 26.90625 -1.421875 
Q 22.3125 -1.421875 17.546875 -0.640625 
Q 12.796875 0.140625 7.71875 1.703125 
L 7.71875 11.625 
Q 12.109375 9.234375 16.796875 8.0625 
Q 21.484375 6.890625 26.703125 6.890625 
Q 35.15625 6.890625 40.078125 11.328125 
Q 45.015625 15.765625 45.015625 23.390625 
Q 45.015625 31 40.078125 35.4375 
Q 35.15625 39.890625 26.703125 39.890625 
Q 22.75 39.890625 18.8125 39.015625 
Q 14.890625 38.140625 10.796875 36.28125 
z
" id="DejaVuSans-53"/>
      </defs>
      <g transform="translate(277.893959 518.598438)scale(0.1 -0.1)">
       <use xlink:href="#DejaVuSans-53"/>
       <use x="63.623047" xlink:href="#DejaVuSans-48"/>
      </g>
     </g>
    </g>
    <g id="xtick_3">
     <g id="line2d_3">
      <g>
       <use style="stroke:#000000;stroke-width:0.8;" x="385.965277" xlink:href="#m4927fbfda7" y="504"/>
      </g>
     </g>
     <g id="text_3">
      <!-- 100 -->
      <defs>
       <path d="M 12.40625 8.296875 
L 28.515625 8.296875 
L 28.515625 63.921875 
L 10.984375 60.40625 
L 10.984375 69.390625 
L 28.421875 72.90625 
L 38.28125 72.90625 
L 38.28125 8.296875 
L 54.390625 8.296875 
L 54.390625 0 
L 12.40625 0 
z
" id="DejaVuSans-49"/>
      </defs>
      <g transform="translate(376.421527 518.598438)scale(0.1 -0.1)">
       <use xlink:href="#DejaVuSans-49"/>
       <use x="63.623047" xlink:href="#DejaVuSans-48"/>
       <use x="127.246094" xlink:href="#DejaVuSans-48"/>
      </g>
     </g>
    </g>
    <g id="xtick_4">
     <g id="line2d_4">
      <g>
       <use style="stroke:#000000;stroke-width:0.8;" x="487.674094" xlink:href="#m4927fbfda7" y="504"/>
      </g>
     </g>
     <g id="text_4">
      <!-- 150 -->
      <g transform="translate(478.130344 518.598438)scale(0.1 -0.1)">
       <use xlink:href="#DejaVuSans-49"/>
       <use x="63.623047" xlink:href="#DejaVuSans-53"/>
       <use x="127.246094" xlink:href="#DejaVuSans-48"/>
      </g>
     </g>
    </g>
    <g id="xtick_5">
     <g id="line2d_5">
      <g>
       <use style="stroke:#000000;stroke-width:0.8;" x="589.382912" xlink:href="#m4927fbfda7" y="504"/>
      </g>
     </g>
     <g id="text_5">
      <!-- 200 -->
      <defs>
       <path d="M 19.1875 8.296875 
L 53.609375 8.296875 
L 53.609375 0 
L 7.328125 0 
L 7.328125 8.296875 
Q 12.9375 14.109375 22.625 23.890625 
Q 32.328125 33.6875 34.8125 36.53125 
Q 39.546875 41.84375 41.421875 45.53125 
Q 43.3125 49.21875 43.3125 52.78125 
Q 43.3125 58.59375 39.234375 62.25 
Q 35.15625 65.921875 28.609375 65.921875 
Q 23.96875 65.921875 18.8125 64.3125 
Q 13.671875 62.703125 7.8125 59.421875 
L 7.8125 69.390625 
Q 13.765625 71.78125 18.9375 73 
Q 24.125 74.21875 28.421875 74.21875 
Q 39.75 74.21875 46.484375 68.546875 
Q 53.21875 62.890625 53.21875 53.421875 
Q 53.21875 48.921875 51.53125 44.890625 
Q 49.859375 40.875 45.40625 35.40625 
Q 44.1875 33.984375 37.640625 27.21875 
Q 31.109375 20.453125 19.1875 8.296875 
z
" id="DejaVuSans-50"/>
      </defs>
      <g transform="translate(579.839162 518.598438)scale(0.1 -0.1)">
       <use xlink:href="#DejaVuSans-50"/>
       <use x="63.623047" xlink:href="#DejaVuSans-48"/>
       <use x="127.246094" xlink:href="#DejaVuSans-48"/>
      </g>
     </g>
    </g>
    <g id="xtick_6">
     <g id="line2d_6">
      <g>
       <use style="stroke:#000000;stroke-width:0.8;" x="691.091729" xlink:href="#m4927fbfda7" y="504"/>
      </g>
     </g>
     <g id="text_6">
      <!-- 250 -->
      <g transform="translate(681.547979 518.598438)scale(0.1 -0.1)">
       <use xlink:href="#DejaVuSans-50"/>
       <use x="63.623047" xlink:href="#DejaVuSans-53"/>
       <use x="127.246094" xlink:href="#DejaVuSans-48"/>
      </g>
     </g>
    </g>
    <g id="xtick_7">
     <g id="line2d_7">
      <g>
       <use style="stroke:#000000;stroke-width:0.8;" x="792.800547" xlink:href="#m4927fbfda7" y="504"/>
      </g>
     </g>
     <g id="text_7">
      <!-- 300 -->
      <defs>
       <path d="M 40.578125 39.3125 
Q 47.65625 37.796875 51.625 33 
Q 55.609375 28.21875 55.609375 21.1875 
Q 55.609375 10.40625 48.1875 4.484375 
Q 40.765625 -1.421875 27.09375 -1.421875 
Q 22.515625 -1.421875 17.65625 -0.515625 
Q 12.796875 0.390625 7.625 2.203125 
L 7.625 11.71875 
Q 11.71875 9.328125 16.59375 8.109375 
Q 21.484375 6.890625 26.8125 6.890625 
Q 36.078125 6.890625 40.9375 10.546875 
Q 45.796875 14.203125 45.796875 21.1875 
Q 45.796875 27.640625 41.28125 31.265625 
Q 36.765625 34.90625 28.71875 34.90625 
L 20.21875 34.90625 
L 20.21875 43.015625 
L 29.109375 43.015625 
Q 36.375 43.015625 40.234375 45.921875 
Q 44.09375 48.828125 44.09375 54.296875 
Q 44.09375 59.90625 40.109375 62.90625 
Q 36.140625 65.921875 28.71875 65.921875 
Q 24.65625 65.921875 20.015625 65.03125 
Q 15.375 64.15625 9.8125 62.3125 
L 9.8125 71.09375 
Q 15.4375 72.65625 20.34375 73.4375 
Q 25.25 74.21875 29.59375 74.21875 
Q 40.828125 74.21875 47.359375 69.109375 
Q 53.90625 64.015625 53.90625 55.328125 
Q 53.90625 49.265625 50.4375 45.09375 
Q 46.96875 40.921875 40.578125 39.3125 
z
" id="DejaVuSans-51"/>
      </defs>
      <g transform="translate(783.256797 518.598438)scale(0.1 -0.1)">
       <use xlink:href="#DejaVuSans-51"/>
       <use x="63.623047" xlink:href="#DejaVuSans-48"/>
       <use x="127.246094" xlink:href="#DejaVuSans-48"/>
      </g>
     </g>
    </g>
    <g id="xtick_8">
     <g id="line2d_8">
      <g>
       <use style="stroke:#000000;stroke-width:0.8;" x="894.509364" xlink:href="#m4927fbfda7" y="504"/>
      </g>
     </g>
     <g id="text_8">
      <!-- 350 -->
      <g transform="translate(884.965614 518.598438)scale(0.1 -0.1)">
       <use xlink:href="#DejaVuSans-51"/>
       <use x="63.623047" xlink:href="#DejaVuSans-53"/>
       <use x="127.246094" xlink:href="#DejaVuSans-48"/>
      </g>
     </g>
    </g>
    <g id="xtick_9">
     <g id="line2d_9">
      <g>
       <use style="stroke:#000000;stroke-width:0.8;" x="996.218182" xlink:href="#m4927fbfda7" y="504"/>
      </g>
     </g>
     <g id="text_9">
      <!-- 400 -->
      <defs>
       <path d="M 37.796875 64.3125 
L 12.890625 25.390625 
L 37.796875 25.390625 
z
M 35.203125 72.90625 
L 47.609375 72.90625 
L 47.609375 25.390625 
L 58.015625 25.390625 
L 58.015625 17.1875 
L 47.609375 17.1875 
L 47.609375 0 
L 37.796875 0 
L 37.796875 17.1875 
L 4.890625 17.1875 
L 4.890625 26.703125 
z
" id="DejaVuSans-52"/>
      </defs>
      <g transform="translate(986.674432 518.598438)scale(0.1 -0.1)">
       <use xlink:href="#DejaVuSans-52"/>
       <use x="63.623047" xlink:href="#DejaVuSans-48"/>
       <use x="127.246094" xlink:href="#DejaVuSans-48"/>
      </g>
     </g>
    </g>
    <g id="text_10">
     <!-- Number of Neurons pruned -->
     <defs>
      <path d="M 9.8125 72.90625 
L 23.09375 72.90625 
L 55.421875 11.921875 
L 55.421875 72.90625 
L 64.984375 72.90625 
L 64.984375 0 
L 51.703125 0 
L 19.390625 60.984375 
L 19.390625 0 
L 9.8125 0 
z
" id="DejaVuSans-78"/>
      <path d="M 8.5 21.578125 
L 8.5 54.6875 
L 17.484375 54.6875 
L 17.484375 21.921875 
Q 17.484375 14.15625 20.5 10.265625 
Q 23.53125 6.390625 29.59375 6.390625 
Q 36.859375 6.390625 41.078125 11.03125 
Q 45.3125 15.671875 45.3125 23.6875 
L 45.3125 54.6875 
L 54.296875 54.6875 
L 54.296875 0 
L 45.3125 0 
L 45.3125 8.40625 
Q 42.046875 3.421875 37.71875 1 
Q 33.40625 -1.421875 27.6875 -1.421875 
Q 18.265625 -1.421875 13.375 4.4375 
Q 8.5 10.296875 8.5 21.578125 
z
M 31.109375 56 
z
" id="DejaVuSans-117"/>
      <path d="M 52 44.1875 
Q 55.375 50.25 60.0625 53.125 
Q 64.75 56 71.09375 56 
Q 79.640625 56 84.28125 50.015625 
Q 88.921875 44.046875 88.921875 33.015625 
L 88.921875 0 
L 79.890625 0 
L 79.890625 32.71875 
Q 79.890625 40.578125 77.09375 44.375 
Q 74.3125 48.1875 68.609375 48.1875 
Q 61.625 48.1875 57.5625 43.546875 
Q 53.515625 38.921875 53.515625 30.90625 
L 53.515625 0 
L 44.484375 0 
L 44.484375 32.71875 
Q 44.484375 40.625 41.703125 44.40625 
Q 38.921875 48.1875 33.109375 48.1875 
Q 26.21875 48.1875 22.15625 43.53125 
Q 18.109375 38.875 18.109375 30.90625 
L 18.109375 0 
L 9.078125 0 
L 9.078125 54.6875 
L 18.109375 54.6875 
L 18.109375 46.1875 
Q 21.1875 51.21875 25.484375 53.609375 
Q 29.78125 56 35.6875 56 
Q 41.65625 56 45.828125 52.96875 
Q 50 49.953125 52 44.1875 
z
" id="DejaVuSans-109"/>
      <path d="M 48.6875 27.296875 
Q 48.6875 37.203125 44.609375 42.84375 
Q 40.53125 48.484375 33.40625 48.484375 
Q 26.265625 48.484375 22.1875 42.84375 
Q 18.109375 37.203125 18.109375 27.296875 
Q 18.109375 17.390625 22.1875 11.75 
Q 26.265625 6.109375 33.40625 6.109375 
Q 40.53125 6.109375 44.609375 11.75 
Q 48.6875 17.390625 48.6875 27.296875 
z
M 18.109375 46.390625 
Q 20.953125 51.265625 25.265625 53.625 
Q 29.59375 56 35.59375 56 
Q 45.5625 56 51.78125 48.09375 
Q 58.015625 40.1875 58.015625 27.296875 
Q 58.015625 14.40625 51.78125 6.484375 
Q 45.5625 -1.421875 35.59375 -1.421875 
Q 29.59375 -1.421875 25.265625 0.953125 
Q 20.953125 3.328125 18.109375 8.203125 
L 18.109375 0 
L 9.078125 0 
L 9.078125 75.984375 
L 18.109375 75.984375 
z
" id="DejaVuSans-98"/>
      <path d="M 56.203125 29.59375 
L 56.203125 25.203125 
L 14.890625 25.203125 
Q 15.484375 15.921875 20.484375 11.0625 
Q 25.484375 6.203125 34.421875 6.203125 
Q 39.59375 6.203125 44.453125 7.46875 
Q 49.3125 8.734375 54.109375 11.28125 
L 54.109375 2.78125 
Q 49.265625 0.734375 44.1875 -0.34375 
Q 39.109375 -1.421875 33.890625 -1.421875 
Q 20.796875 -1.421875 13.15625 6.1875 
Q 5.515625 13.8125 5.515625 26.8125 
Q 5.515625 40.234375 12.765625 48.109375 
Q 20.015625 56 32.328125 56 
Q 43.359375 56 49.78125 48.890625 
Q 56.203125 41.796875 56.203125 29.59375 
z
M 47.21875 32.234375 
Q 47.125 39.59375 43.09375 43.984375 
Q 39.0625 48.390625 32.421875 48.390625 
Q 24.90625 48.390625 20.390625 44.140625 
Q 15.875 39.890625 15.1875 32.171875 
z
" id="DejaVuSans-101"/>
      <path d="M 41.109375 46.296875 
Q 39.59375 47.171875 37.8125 47.578125 
Q 36.03125 48 33.890625 48 
Q 26.265625 48 22.1875 43.046875 
Q 18.109375 38.09375 18.109375 28.8125 
L 18.109375 0 
L 9.078125 0 
L 9.078125 54.6875 
L 18.109375 54.6875 
L 18.109375 46.1875 
Q 20.953125 51.171875 25.484375 53.578125 
Q 30.03125 56 36.53125 56 
Q 37.453125 56 38.578125 55.875 
Q 39.703125 55.765625 41.0625 55.515625 
z
" id="DejaVuSans-114"/>
      <path id="DejaVuSans-32"/>
      <path d="M 30.609375 48.390625 
Q 23.390625 48.390625 19.1875 42.75 
Q 14.984375 37.109375 14.984375 27.296875 
Q 14.984375 17.484375 19.15625 11.84375 
Q 23.34375 6.203125 30.609375 6.203125 
Q 37.796875 6.203125 41.984375 11.859375 
Q 46.1875 17.53125 46.1875 27.296875 
Q 46.1875 37.015625 41.984375 42.703125 
Q 37.796875 48.390625 30.609375 48.390625 
z
M 30.609375 56 
Q 42.328125 56 49.015625 48.375 
Q 55.71875 40.765625 55.71875 27.296875 
Q 55.71875 13.875 49.015625 6.21875 
Q 42.328125 -1.421875 30.609375 -1.421875 
Q 18.84375 -1.421875 12.171875 6.21875 
Q 5.515625 13.875 5.515625 27.296875 
Q 5.515625 40.765625 12.171875 48.375 
Q 18.84375 56 30.609375 56 
z
" id="DejaVuSans-111"/>
      <path d="M 37.109375 75.984375 
L 37.109375 68.5 
L 28.515625 68.5 
Q 23.6875 68.5 21.796875 66.546875 
Q 19.921875 64.59375 19.921875 59.515625 
L 19.921875 54.6875 
L 34.71875 54.6875 
L 34.71875 47.703125 
L 19.921875 47.703125 
L 19.921875 0 
L 10.890625 0 
L 10.890625 47.703125 
L 2.296875 47.703125 
L 2.296875 54.6875 
L 10.890625 54.6875 
L 10.890625 58.5 
Q 10.890625 67.625 15.140625 71.796875 
Q 19.390625 75.984375 28.609375 75.984375 
z
" id="DejaVuSans-102"/>
      <path d="M 54.890625 33.015625 
L 54.890625 0 
L 45.90625 0 
L 45.90625 32.71875 
Q 45.90625 40.484375 42.875 44.328125 
Q 39.84375 48.1875 33.796875 48.1875 
Q 26.515625 48.1875 22.3125 43.546875 
Q 18.109375 38.921875 18.109375 30.90625 
L 18.109375 0 
L 9.078125 0 
L 9.078125 54.6875 
L 18.109375 54.6875 
L 18.109375 46.1875 
Q 21.34375 51.125 25.703125 53.5625 
Q 30.078125 56 35.796875 56 
Q 45.21875 56 50.046875 50.171875 
Q 54.890625 44.34375 54.890625 33.015625 
z
" id="DejaVuSans-110"/>
      <path d="M 44.28125 53.078125 
L 44.28125 44.578125 
Q 40.484375 46.53125 36.375 47.5 
Q 32.28125 48.484375 27.875 48.484375 
Q 21.1875 48.484375 17.84375 46.4375 
Q 14.5 44.390625 14.5 40.28125 
Q 14.5 37.15625 16.890625 35.375 
Q 19.28125 33.59375 26.515625 31.984375 
L 29.59375 31.296875 
Q 39.15625 29.25 43.1875 25.515625 
Q 47.21875 21.78125 47.21875 15.09375 
Q 47.21875 7.46875 41.1875 3.015625 
Q 35.15625 -1.421875 24.609375 -1.421875 
Q 20.21875 -1.421875 15.453125 -0.5625 
Q 10.6875 0.296875 5.421875 2 
L 5.421875 11.28125 
Q 10.40625 8.6875 15.234375 7.390625 
Q 20.0625 6.109375 24.8125 6.109375 
Q 31.15625 6.109375 34.5625 8.28125 
Q 37.984375 10.453125 37.984375 14.40625 
Q 37.984375 18.0625 35.515625 20.015625 
Q 33.0625 21.96875 24.703125 23.78125 
L 21.578125 24.515625 
Q 13.234375 26.265625 9.515625 29.90625 
Q 5.8125 33.546875 5.8125 39.890625 
Q 5.8125 47.609375 11.28125 51.796875 
Q 16.75 56 26.8125 56 
Q 31.78125 56 36.171875 55.265625 
Q 40.578125 54.546875 44.28125 53.078125 
z
" id="DejaVuSans-115"/>
      <path d="M 18.109375 8.203125 
L 18.109375 -20.796875 
L 9.078125 -20.796875 
L 9.078125 54.6875 
L 18.109375 54.6875 
L 18.109375 46.390625 
Q 20.953125 51.265625 25.265625 53.625 
Q 29.59375 56 35.59375 56 
Q 45.5625 56 51.78125 48.09375 
Q 58.015625 40.1875 58.015625 27.296875 
Q 58.015625 14.40625 51.78125 6.484375 
Q 45.5625 -1.421875 35.59375 -1.421875 
Q 29.59375 -1.421875 25.265625 0.953125 
Q 20.953125 3.328125 18.109375 8.203125 
z
M 48.6875 27.296875 
Q 48.6875 37.203125 44.609375 42.84375 
Q 40.53125 48.484375 33.40625 48.484375 
Q 26.265625 48.484375 22.1875 42.84375 
Q 18.109375 37.203125 18.109375 27.296875 
Q 18.109375 17.390625 22.1875 11.75 
Q 26.265625 6.109375 33.40625 6.109375 
Q 40.53125 6.109375 44.609375 11.75 
Q 48.6875 17.390625 48.6875 27.296875 
z
" id="DejaVuSans-112"/>
      <path d="M 45.40625 46.390625 
L 45.40625 75.984375 
L 54.390625 75.984375 
L 54.390625 0 
L 45.40625 0 
L 45.40625 8.203125 
Q 42.578125 3.328125 38.25 0.953125 
Q 33.9375 -1.421875 27.875 -1.421875 
Q 17.96875 -1.421875 11.734375 6.484375 
Q 5.515625 14.40625 5.515625 27.296875 
Q 5.515625 40.1875 11.734375 48.09375 
Q 17.96875 56 27.875 56 
Q 33.9375 56 38.25 53.625 
Q 42.578125 51.265625 45.40625 46.390625 
z
M 14.796875 27.296875 
Q 14.796875 17.390625 18.875 11.75 
Q 22.953125 6.109375 30.078125 6.109375 
Q 37.203125 6.109375 41.296875 11.75 
Q 45.40625 17.390625 45.40625 27.296875 
Q 45.40625 37.203125 41.296875 42.84375 
Q 37.203125 48.484375 30.078125 48.484375 
Q 22.953125 48.484375 18.875 42.84375 
Q 14.796875 37.203125 14.796875 27.296875 
z
" id="DejaVuSans-100"/>
     </defs>
     <g transform="translate(522.147656 532.276562)scale(0.1 -0.1)">
      <use xlink:href="#DejaVuSans-78"/>
      <use x="74.804688" xlink:href="#DejaVuSans-117"/>
      <use x="138.183594" xlink:href="#DejaVuSans-109"/>
      <use x="235.595703" xlink:href="#DejaVuSans-98"/>
      <use x="299.072266" xlink:href="#DejaVuSans-101"/>
      <use x="360.595703" xlink:href="#DejaVuSans-114"/>
      <use x="401.708984" xlink:href="#DejaVuSans-32"/>
      <use x="433.496094" xlink:href="#DejaVuSans-111"/>
      <use x="494.677734" xlink:href="#DejaVuSans-102"/>
      <use x="529.882812" xlink:href="#DejaVuSans-32"/>
      <use x="561.669922" xlink:href="#DejaVuSans-78"/>
      <use x="636.474609" xlink:href="#DejaVuSans-101"/>
      <use x="697.998047" xlink:href="#DejaVuSans-117"/>
      <use x="761.376953" xlink:href="#DejaVuSans-114"/>
      <use x="800.240234" xlink:href="#DejaVuSans-111"/>
      <use x="861.421875" xlink:href="#DejaVuSans-110"/>
      <use x="924.800781" xlink:href="#DejaVuSans-115"/>
      <use x="976.900391" xlink:href="#DejaVuSans-32"/>
      <use x="1008.6875" xlink:href="#DejaVuSans-112"/>
      <use x="1072.164062" xlink:href="#DejaVuSans-114"/>
      <use x="1113.277344" xlink:href="#DejaVuSans-117"/>
      <use x="1176.65625" xlink:href="#DejaVuSans-110"/>
      <use x="1240.035156" xlink:href="#DejaVuSans-101"/>
      <use x="1301.558594" xlink:href="#DejaVuSans-100"/>
     </g>
    </g>
   </g>
   <g id="matplotlib.axis_2">
    <g id="ytick_1">
     <g id="line2d_10">
      <defs>
       <path d="M 0 0 
L -3.5 0 
" id="md496774749" style="stroke:#000000;stroke-width:0.8;"/>
      </defs>
      <g>
       <use style="stroke:#000000;stroke-width:0.8;" x="144" xlink:href="#md496774749" y="431.384682"/>
      </g>
     </g>
     <g id="text_11">
      <!-- 0.2 -->
      <defs>
       <path d="M 10.6875 12.40625 
L 21 12.40625 
L 21 0 
L 10.6875 0 
z
" id="DejaVuSans-46"/>
      </defs>
      <g transform="translate(121.096875 435.183901)scale(0.1 -0.1)">
       <use xlink:href="#DejaVuSans-48"/>
       <use x="63.623047" xlink:href="#DejaVuSans-46"/>
       <use x="95.410156" xlink:href="#DejaVuSans-50"/>
      </g>
     </g>
    </g>
    <g id="ytick_2">
     <g id="line2d_11">
      <g>
       <use style="stroke:#000000;stroke-width:0.8;" x="144" xlink:href="#md496774749" y="342.489737"/>
      </g>
     </g>
     <g id="text_12">
      <!-- 0.4 -->
      <g transform="translate(121.096875 346.288955)scale(0.1 -0.1)">
       <use xlink:href="#DejaVuSans-48"/>
       <use x="63.623047" xlink:href="#DejaVuSans-46"/>
       <use x="95.410156" xlink:href="#DejaVuSans-52"/>
      </g>
     </g>
    </g>
    <g id="ytick_3">
     <g id="line2d_12">
      <g>
       <use style="stroke:#000000;stroke-width:0.8;" x="144" xlink:href="#md496774749" y="253.594791"/>
      </g>
     </g>
     <g id="text_13">
      <!-- 0.6 -->
      <defs>
       <path d="M 33.015625 40.375 
Q 26.375 40.375 22.484375 35.828125 
Q 18.609375 31.296875 18.609375 23.390625 
Q 18.609375 15.53125 22.484375 10.953125 
Q 26.375 6.390625 33.015625 6.390625 
Q 39.65625 6.390625 43.53125 10.953125 
Q 47.40625 15.53125 47.40625 23.390625 
Q 47.40625 31.296875 43.53125 35.828125 
Q 39.65625 40.375 33.015625 40.375 
z
M 52.59375 71.296875 
L 52.59375 62.3125 
Q 48.875 64.0625 45.09375 64.984375 
Q 41.3125 65.921875 37.59375 65.921875 
Q 27.828125 65.921875 22.671875 59.328125 
Q 17.53125 52.734375 16.796875 39.40625 
Q 19.671875 43.65625 24.015625 45.921875 
Q 28.375 48.1875 33.59375 48.1875 
Q 44.578125 48.1875 50.953125 41.515625 
Q 57.328125 34.859375 57.328125 23.390625 
Q 57.328125 12.15625 50.6875 5.359375 
Q 44.046875 -1.421875 33.015625 -1.421875 
Q 20.359375 -1.421875 13.671875 8.265625 
Q 6.984375 17.96875 6.984375 36.375 
Q 6.984375 53.65625 15.1875 63.9375 
Q 23.390625 74.21875 37.203125 74.21875 
Q 40.921875 74.21875 44.703125 73.484375 
Q 48.484375 72.75 52.59375 71.296875 
z
" id="DejaVuSans-54"/>
      </defs>
      <g transform="translate(121.096875 257.39401)scale(0.1 -0.1)">
       <use xlink:href="#DejaVuSans-48"/>
       <use x="63.623047" xlink:href="#DejaVuSans-46"/>
       <use x="95.410156" xlink:href="#DejaVuSans-54"/>
      </g>
     </g>
    </g>
    <g id="ytick_4">
     <g id="line2d_13">
      <g>
       <use style="stroke:#000000;stroke-width:0.8;" x="144" xlink:href="#md496774749" y="164.699845"/>
      </g>
     </g>
     <g id="text_14">
      <!-- 0.8 -->
      <defs>
       <path d="M 31.78125 34.625 
Q 24.75 34.625 20.71875 30.859375 
Q 16.703125 27.09375 16.703125 20.515625 
Q 16.703125 13.921875 20.71875 10.15625 
Q 24.75 6.390625 31.78125 6.390625 
Q 38.8125 6.390625 42.859375 10.171875 
Q 46.921875 13.96875 46.921875 20.515625 
Q 46.921875 27.09375 42.890625 30.859375 
Q 38.875 34.625 31.78125 34.625 
z
M 21.921875 38.8125 
Q 15.578125 40.375 12.03125 44.71875 
Q 8.5 49.078125 8.5 55.328125 
Q 8.5 64.0625 14.71875 69.140625 
Q 20.953125 74.21875 31.78125 74.21875 
Q 42.671875 74.21875 48.875 69.140625 
Q 55.078125 64.0625 55.078125 55.328125 
Q 55.078125 49.078125 51.53125 44.71875 
Q 48 40.375 41.703125 38.8125 
Q 48.828125 37.15625 52.796875 32.3125 
Q 56.78125 27.484375 56.78125 20.515625 
Q 56.78125 9.90625 50.3125 4.234375 
Q 43.84375 -1.421875 31.78125 -1.421875 
Q 19.734375 -1.421875 13.25 4.234375 
Q 6.78125 9.90625 6.78125 20.515625 
Q 6.78125 27.484375 10.78125 32.3125 
Q 14.796875 37.15625 21.921875 38.8125 
z
M 18.3125 54.390625 
Q 18.3125 48.734375 21.84375 45.5625 
Q 25.390625 42.390625 31.78125 42.390625 
Q 38.140625 42.390625 41.71875 45.5625 
Q 45.3125 48.734375 45.3125 54.390625 
Q 45.3125 60.0625 41.71875 63.234375 
Q 38.140625 66.40625 31.78125 66.40625 
Q 25.390625 66.40625 21.84375 63.234375 
Q 18.3125 60.0625 18.3125 54.390625 
z
" id="DejaVuSans-56"/>
      </defs>
      <g transform="translate(121.096875 168.499064)scale(0.1 -0.1)">
       <use xlink:href="#DejaVuSans-48"/>
       <use x="63.623047" xlink:href="#DejaVuSans-46"/>
       <use x="95.410156" xlink:href="#DejaVuSans-56"/>
      </g>
     </g>
    </g>
    <g id="ytick_5">
     <g id="line2d_14">
      <g>
       <use style="stroke:#000000;stroke-width:0.8;" x="144" xlink:href="#md496774749" y="75.8049"/>
      </g>
     </g>
     <g id="text_15">
      <!-- 1.0 -->
      <g transform="translate(121.096875 79.604119)scale(0.1 -0.1)">
       <use xlink:href="#DejaVuSans-49"/>
       <use x="63.623047" xlink:href="#DejaVuSans-46"/>
       <use x="95.410156" xlink:href="#DejaVuSans-48"/>
      </g>
     </g>
    </g>
    <g id="text_16">
     <!-- Accuracy -->
     <defs>
      <path d="M 34.1875 63.1875 
L 20.796875 26.90625 
L 47.609375 26.90625 
z
M 28.609375 72.90625 
L 39.796875 72.90625 
L 67.578125 0 
L 57.328125 0 
L 50.6875 18.703125 
L 17.828125 18.703125 
L 11.1875 0 
L 0.78125 0 
z
" id="DejaVuSans-65"/>
      <path d="M 48.78125 52.59375 
L 48.78125 44.1875 
Q 44.96875 46.296875 41.140625 47.34375 
Q 37.3125 48.390625 33.40625 48.390625 
Q 24.65625 48.390625 19.8125 42.84375 
Q 14.984375 37.3125 14.984375 27.296875 
Q 14.984375 17.28125 19.8125 11.734375 
Q 24.65625 6.203125 33.40625 6.203125 
Q 37.3125 6.203125 41.140625 7.25 
Q 44.96875 8.296875 48.78125 10.40625 
L 48.78125 2.09375 
Q 45.015625 0.34375 40.984375 -0.53125 
Q 36.96875 -1.421875 32.421875 -1.421875 
Q 20.0625 -1.421875 12.78125 6.34375 
Q 5.515625 14.109375 5.515625 27.296875 
Q 5.515625 40.671875 12.859375 48.328125 
Q 20.21875 56 33.015625 56 
Q 37.15625 56 41.109375 55.140625 
Q 45.0625 54.296875 48.78125 52.59375 
z
" id="DejaVuSans-99"/>
      <path d="M 34.28125 27.484375 
Q 23.390625 27.484375 19.1875 25 
Q 14.984375 22.515625 14.984375 16.5 
Q 14.984375 11.71875 18.140625 8.90625 
Q 21.296875 6.109375 26.703125 6.109375 
Q 34.1875 6.109375 38.703125 11.40625 
Q 43.21875 16.703125 43.21875 25.484375 
L 43.21875 27.484375 
z
M 52.203125 31.203125 
L 52.203125 0 
L 43.21875 0 
L 43.21875 8.296875 
Q 40.140625 3.328125 35.546875 0.953125 
Q 30.953125 -1.421875 24.3125 -1.421875 
Q 15.921875 -1.421875 10.953125 3.296875 
Q 6 8.015625 6 15.921875 
Q 6 25.140625 12.171875 29.828125 
Q 18.359375 34.515625 30.609375 34.515625 
L 43.21875 34.515625 
L 43.21875 35.40625 
Q 43.21875 41.609375 39.140625 45 
Q 35.0625 48.390625 27.6875 48.390625 
Q 23 48.390625 18.546875 47.265625 
Q 14.109375 46.140625 10.015625 43.890625 
L 10.015625 52.203125 
Q 14.9375 54.109375 19.578125 55.046875 
Q 24.21875 56 28.609375 56 
Q 40.484375 56 46.34375 49.84375 
Q 52.203125 43.703125 52.203125 31.203125 
z
" id="DejaVuSans-97"/>
      <path d="M 32.171875 -5.078125 
Q 28.375 -14.84375 24.75 -17.8125 
Q 21.140625 -20.796875 15.09375 -20.796875 
L 7.90625 -20.796875 
L 7.90625 -13.28125 
L 13.1875 -13.28125 
Q 16.890625 -13.28125 18.9375 -11.515625 
Q 21 -9.765625 23.484375 -3.21875 
L 25.09375 0.875 
L 2.984375 54.6875 
L 12.5 54.6875 
L 29.59375 11.921875 
L 46.6875 54.6875 
L 56.203125 54.6875 
z
" id="DejaVuSans-121"/>
     </defs>
     <g transform="translate(115.017187 309.388125)rotate(-90)scale(0.1 -0.1)">
      <use xlink:href="#DejaVuSans-65"/>
      <use x="66.658203" xlink:href="#DejaVuSans-99"/>
      <use x="121.638672" xlink:href="#DejaVuSans-99"/>
      <use x="176.619141" xlink:href="#DejaVuSans-117"/>
      <use x="239.998047" xlink:href="#DejaVuSans-114"/>
      <use x="281.111328" xlink:href="#DejaVuSans-97"/>
      <use x="342.390625" xlink:href="#DejaVuSans-99"/>
      <use x="397.371094" xlink:href="#DejaVuSans-121"/>
     </g>
    </g>
   </g>
   <g id="line2d_15">
    <path clip-path="url(#p37f1a6684e)" d="M 184.581818 88.887273 
L 249.675461 88.953944 
L 251.709638 89.050247 
L 253.743814 89.420642 
L 255.77799 89.442866 
L 257.812167 89.813262 
L 261.880519 90.005867 
L 265.948872 90.079947 
L 267.983049 89.92438 
L 270.017225 90.10217 
L 272.051401 90.694803 
L 274.085578 90.613316 
L 276.119754 90.865185 
L 278.15393 91.331884 
L 280.188107 91.428187 
L 282.222283 92.191202 
L 284.256459 92.013412 
L 286.290636 91.524489 
L 290.358988 92.168978 
L 292.393165 92.146754 
L 296.461517 92.502334 
L 298.495694 92.48011 
L 300.52987 92.828282 
L 304.598223 94.976576 
L 308.666576 95.21363 
L 310.700752 95.443275 
L 312.734928 95.984053 
L 314.769105 96.658173 
L 316.803281 97.51749 
L 318.837457 97.969373 
L 320.871634 98.295321 
L 322.90581 99.036112 
L 324.939986 98.510151 
L 326.974163 98.806467 
L 329.008339 98.828691 
L 333.076692 100.421392 
L 335.110868 101.614066 
L 337.145044 103.62161 
L 339.179221 105.28839 
L 341.213397 105.695825 
L 343.247573 108.955307 
L 345.28175 109.503492 
L 347.315926 109.747953 
L 349.350103 110.429481 
L 351.384279 110.081309 
L 353.418455 112.096261 
L 355.452632 113.155593 
L 357.486808 115.733546 
L 359.520984 118.674487 
L 361.555161 121.993232 
L 363.589337 124.926765 
L 365.623513 130.082672 
L 367.65769 132.097624 
L 369.691866 139.001798 
L 371.726042 138.194336 
L 373.760219 138.423981 
L 375.794395 140.631539 
L 377.828571 139.742589 
L 379.862748 139.66851 
L 381.896924 145.750406 
L 383.9311 146.291184 
L 385.965277 148.846914 
L 387.999453 154.476927 
L 390.03363 158.729068 
L 392.067806 160.055085 
L 394.101982 163.662738 
L 396.136159 169.055698 
L 398.170335 181.167634 
L 400.204511 177.982232 
L 402.238688 183.797443 
L 404.272864 182.70848 
L 406.30704 184.804919 
L 408.341217 183.656693 
L 410.375393 189.360785 
L 412.409569 194.049993 
L 414.443746 196.990934 
L 416.477922 195.309338 
L 418.512098 195.850116 
L 420.546275 196.702026 
L 422.580451 202.954304 
L 424.614627 206.961984 
L 426.648804 215.088464 
L 428.68298 217.607154 
L 430.717157 222.866772 
L 432.751333 223.874248 
L 434.785509 232.682255 
L 436.819686 228.711614 
L 438.853862 232.282228 
L 440.888038 231.200673 
L 442.922215 238.349308 
L 444.956391 246.386893 
L 446.990567 244.534914 
L 449.024744 251.779853 
L 451.05892 250.7946 
L 453.093096 252.868816 
L 455.127273 252.935487 
L 459.195625 267.840206 
L 461.229802 273.351693 
L 463.263978 270.544094 
L 465.298154 273.870247 
L 467.332331 280.537367 
L 469.366507 283.456085 
L 471.400684 280.937395 
L 473.43486 286.537776 
L 475.469036 283.856112 
L 477.503213 288.752742 
L 479.537389 288.76015 
L 481.571565 291.538117 
L 483.605742 288.626807 
L 485.639918 293.419727 
L 487.674094 300.723928 
L 489.708271 319.91042 
L 491.742447 330.800051 
L 493.776623 334.859587 
L 495.8108 332.155699 
L 497.844976 331.911238 
L 499.879152 329.681457 
L 501.913329 334.237322 
L 503.947505 329.399956 
L 505.981681 327.703544 
L 508.015858 329.807391 
L 510.050034 332.252002 
L 512.084211 333.311333 
L 514.118387 332.866859 
L 516.152563 336.993066 
L 518.18674 328.829547 
L 520.220916 329.274021 
L 522.255092 321.762398 
L 524.289269 335.141088 
L 526.323445 331.200078 
L 528.357621 338.926531 
L 530.391798 335.31147 
L 532.425974 338.422793 
L 534.46015 338.222779 
L 536.494327 336.474512 
L 538.528503 344.230596 
L 540.562679 342.541592 
L 542.596856 339.622875 
L 544.631032 344.349123 
L 546.665208 343.919464 
L 548.699385 342.297131 
L 550.733561 342.882356 
L 552.767738 344.734334 
L 554.801914 348.408658 
L 556.83609 349.25316 
L 558.870267 348.379027 
L 560.904443 347.875289 
L 562.938619 348.230868 
L 564.972796 350.186557 
L 567.006972 350.490282 
L 569.041148 356.327716 
L 571.075325 354.964661 
L 573.109501 355.283201 
L 575.143677 349.186489 
L 577.177854 349.327239 
L 579.21203 349.897649 
L 581.246206 350.919941 
L 583.280383 350.831046 
L 585.314559 350.971796 
L 587.348735 352.779327 
L 589.382912 352.149654 
L 591.417088 360.053896 
L 593.451265 363.320785 
L 595.485441 364.980158 
L 597.519617 365.624646 
L 599.553794 367.913691 
L 601.58797 361.913282 
L 603.622146 361.913282 
L 605.656323 362.972614 
L 607.690499 364.906079 
L 609.724675 362.572586 
L 611.758852 363.631918 
L 613.793028 363.950458 
L 615.827204 361.609558 
L 617.861381 365.624646 
L 619.895557 364.683841 
L 621.929733 364.965342 
L 625.998086 361.713269 
L 628.032262 361.654005 
L 630.066439 358.253774 
L 632.100615 358.69084 
L 634.134792 360.57245 
L 636.168968 365.580199 
L 638.203144 365.765396 
L 640.237321 366.646938 
L 642.271497 368.83968 
L 644.305673 369.284155 
L 646.33985 370.676842 
L 648.374026 369.632327 
L 650.408202 366.091345 
L 652.442379 366.921031 
L 654.476555 367.261795 
L 656.510731 367.276611 
L 658.544908 369.973091 
L 660.579084 371.299107 
L 662.61326 375.106774 
L 664.647437 373.41777 
L 666.681613 374.306719 
L 668.715789 375.432722 
L 670.749966 380.018219 
L 672.784142 381.810934 
L 674.818319 384.388888 
L 676.852495 383.277701 
L 678.886671 383.248069 
L 680.920848 383.781439 
L 684.9892 380.51455 
L 687.023377 379.958956 
L 689.057553 376.877265 
L 691.091729 378.262544 
L 693.125906 381.699815 
L 695.160082 384.618533 
L 697.194258 385.092639 
L 699.228435 387.203894 
L 701.262611 385.900102 
L 703.296787 385.23339 
L 705.330964 385.966773 
L 707.36514 387.226118 
L 709.399316 387.626145 
L 711.433493 387.744672 
L 713.467669 388.544726 
L 715.501846 388.611398 
L 717.536022 389.137359 
L 719.570198 391.30047 
L 721.604375 391.804208 
L 723.638551 393.470988 
L 725.672727 392.833907 
L 727.706904 392.515367 
L 729.74108 394.982202 
L 731.775256 391.041193 
L 733.809433 391.493075 
L 735.843609 388.255818 
L 737.877785 388.329897 
L 739.911962 391.12268 
L 741.946138 391.478259 
L 743.980314 392.019037 
L 746.014491 391.056009 
L 748.048667 392.011629 
L 750.082843 390.041125 
L 752.11702 389.611466 
L 754.151196 389.641097 
L 756.185373 390.885627 
L 758.219549 392.804276 
L 760.253725 393.611738 
L 762.287902 391.981998 
L 764.322078 391.011561 
L 766.356254 390.930074 
L 768.390431 388.233594 
L 770.424607 387.863198 
L 772.458783 387.959501 
L 774.49296 389.544794 
L 776.527136 392.715381 
L 778.561312 396.500824 
L 780.595489 395.885967 
L 782.629665 396.811956 
L 784.663841 396.4786 
L 786.698018 396.967522 
L 788.732194 395.930415 
L 790.76637 396.923075 
L 792.800547 396.145244 
L 794.834723 394.900715 
L 796.8689 394.359937 
L 798.903076 401.886376 
L 800.937252 398.67875 
L 802.971429 399.078777 
L 805.005605 405.605148 
L 807.039781 405.745898 
L 809.073958 407.783074 
L 811.108134 406.182965 
L 813.14231 406.864493 
L 815.176487 406.620032 
L 817.210663 407.486758 
L 819.244839 407.568245 
L 821.279016 408.049759 
L 823.313192 410.805502 
L 825.347368 409.183169 
L 829.415721 411.257385 
L 831.449897 410.701791 
L 833.484074 420.309854 
L 835.51825 414.783551 
L 837.552427 410.435107 
L 841.620779 410.701791 
L 843.654956 407.005243 
L 845.689132 407.183033 
L 847.723308 416.924438 
L 849.757485 416.87999 
L 851.791661 419.502391 
L 853.825837 421.724765 
L 855.860014 416.946661 
L 857.89419 417.287425 
L 859.928366 419.850563 
L 861.962543 419.687589 
L 863.996719 427.258475 
L 866.030895 431.243932 
L 868.065072 435.540521 
L 870.099248 428.465965 
L 872.133424 420.206143 
L 874.167601 417.161491 
L 876.201777 415.731764 
L 878.235954 415.628053 
L 880.27013 415.92437 
L 882.304306 413.36864 
L 884.338483 411.479622 
L 886.372659 410.301764 
L 888.406835 413.213074 
L 890.441012 416.52441 
L 892.475188 409.790618 
L 894.509364 415.139131 
L 896.543541 413.850154 
L 898.577717 411.642596 
L 900.611893 434.703427 
L 902.64607 434.207097 
L 904.680246 433.444082 
L 906.714422 433.444082 
L 910.782775 436.82209 
L 912.816951 427.865924 
L 914.851128 427.391818 
L 916.885304 424.15456 
L 918.919481 423.984178 
L 920.953657 420.828407 
L 922.987833 433.281108 
L 925.02201 425.087957 
L 927.056186 433.251476 
L 929.090362 433.244068 
L 931.124539 433.503345 
L 933.158715 432.481053 
L 935.192891 435.170125 
L 937.227068 444.215186 
L 939.261244 443.289197 
L 941.29542 443.511434 
L 945.363773 443.459579 
L 947.397949 442.296537 
L 949.432126 452.297218 
L 951.466302 452.067573 
L 953.500478 452.489824 
L 955.534655 457.786481 
L 957.568831 453.823248 
L 959.603008 453.963998 
L 961.637184 461.120041 
L 963.67136 462.497913 
L 965.705537 466.172238 
L 967.739713 466.216685 
L 969.773889 466.120382 
L 971.808066 463.490573 
L 973.842242 461.653411 
L 977.910595 461.58674 
L 979.944771 460.87558 
L 981.978947 459.88292 
L 984.013124 459.697722 
L 986.0473 460.008855 
L 988.081476 456.423425 
L 990.115653 459.690314 
L 992.149829 458.475417 
L 994.184005 467.639004 
L 996.218182 467.639004 
L 996.218182 467.639004 
" style="fill:none;stroke:#1f77b4;stroke-linecap:square;stroke-width:1.5;"/>
   </g>
   <g id="line2d_16">
    <path clip-path="url(#p37f1a6684e)" d="M 184.581818 88.887273 
L 257.812167 88.946536 
L 282.222283 89.739183 
L 286.290636 90.035499 
L 290.358988 90.576277 
L 292.393165 91.072607 
L 296.461517 91.257805 
L 298.495694 91.576345 
L 300.52987 91.45041 
L 304.598223 92.02082 
L 306.632399 93.035704 
L 308.666576 92.754203 
L 312.734928 93.517218 
L 314.769105 94.139482 
L 316.803281 94.376536 
L 318.837457 94.32468 
L 320.871634 94.080219 
L 322.90581 94.576549 
L 324.939986 95.828486 
L 326.974163 95.569209 
L 329.008339 95.99146 
L 331.042515 96.161842 
L 335.110868 98.310137 
L 337.145044 98.347177 
L 339.179221 98.539782 
L 341.213397 99.139823 
L 343.247573 99.199086 
L 345.28175 99.458363 
L 347.315926 100.60659 
L 349.350103 101.169591 
L 351.384279 101.251078 
L 353.418455 101.577026 
L 355.452632 102.317817 
L 359.520984 102.799332 
L 361.555161 103.94015 
L 363.589337 104.266098 
L 365.623513 104.140164 
L 367.65769 103.473452 
L 369.691866 105.073561 
L 371.726042 106.45884 
L 373.760219 104.79206 
L 375.794395 104.525375 
L 377.828571 104.79206 
L 379.862748 106.036589 
L 381.896924 104.680941 
L 383.9311 104.303138 
L 385.965277 105.155048 
L 387.999453 107.688554 
L 390.03363 109.340518 
L 392.067806 112.955579 
L 394.101982 112.333315 
L 396.136159 113.05929 
L 398.170335 115.452046 
L 400.204511 115.466861 
L 402.238688 117.474406 
L 404.272864 118.600408 
L 406.30704 117.933696 
L 408.341217 118.815238 
L 410.375393 119.059699 
L 412.409569 119.748635 
L 414.443746 119.556029 
L 418.512098 121.674692 
L 420.546275 120.459794 
L 422.580451 122.015456 
L 424.614627 122.363628 
L 426.648804 121.696916 
L 428.68298 119.867161 
L 430.717157 120.711663 
L 432.751333 121.267257 
L 434.785509 121.252441 
L 436.819686 121.926561 
L 438.853862 124.637857 
L 442.922215 125.645333 
L 444.956391 125.860162 
L 446.990567 128.134391 
L 449.024744 129.578934 
L 451.05892 131.830939 
L 453.093096 133.223627 
L 455.127273 132.030953 
L 457.161449 133.401417 
L 459.195625 132.297638 
L 461.229802 134.934855 
L 463.263978 132.371717 
L 465.298154 138.631403 
L 467.332331 142.172385 
L 469.366507 148.483926 
L 471.400684 152.810146 
L 473.43486 154.350992 
L 475.469036 152.276777 
L 477.503213 151.87675 
L 481.571565 153.469451 
L 483.605742 150.461838 
L 485.639918 149.750679 
L 487.674094 150.069219 
L 489.708271 151.602657 
L 491.742447 153.476859 
L 493.776623 152.83237 
L 495.8108 151.861934 
L 497.844976 148.246873 
L 499.879152 151.150774 
L 501.913329 153.276845 
L 503.947505 152.713844 
L 505.981681 154.765835 
L 508.015858 151.550801 
L 510.050034 151.069287 
L 512.084211 148.11353 
L 514.118387 150.069219 
L 516.152563 152.854594 
L 518.18674 157.580842 
L 520.220916 164.951714 
L 522.255092 170.648399 
L 524.289269 171.826257 
L 526.323445 173.515261 
L 528.357621 173.300431 
L 530.391798 179.700868 
L 532.425974 184.338221 
L 534.46015 186.664305 
L 536.494327 201.598656 
L 538.528503 208.191698 
L 540.562679 210.414071 
L 542.596856 214.192106 
L 544.631032 214.681029 
L 546.665208 220.170291 
L 548.699385 213.814303 
L 550.733561 219.28875 
L 552.767738 229.444997 
L 554.801914 222.30377 
L 556.83609 227.51894 
L 558.870267 229.178313 
L 560.904443 232.934124 
L 562.938619 246.320221 
L 564.972796 265.173358 
L 567.006972 265.225213 
L 569.041148 263.588064 
L 571.075325 260.973072 
L 573.109501 263.039879 
L 575.143677 265.277068 
L 577.177854 273.351693 
L 579.21203 278.455744 
L 581.246206 277.989046 
L 583.280383 269.869974 
L 585.314559 271.773807 
L 587.348735 271.388596 
L 589.382912 265.817846 
L 591.417088 264.573317 
L 593.451265 263.847341 
L 595.485441 265.417819 
L 597.519617 266.343808 
L 599.553794 269.292157 
L 601.58797 265.336332 
L 603.622146 260.387846 
L 605.656323 271.862702 
L 607.690499 271.566386 
L 609.724675 281.559659 
L 611.758852 282.493056 
L 613.793028 289.57502 
L 615.827204 298.716384 
L 617.861381 294.182742 
L 619.895557 307.220667 
L 621.929733 306.828048 
L 623.96391 311.99877 
L 625.998086 304.398252 
L 628.032262 303.242618 
L 630.066439 298.531186 
L 632.100615 299.953505 
L 634.134792 308.583723 
L 636.168968 314.169289 
L 638.203144 320.325263 
L 640.237321 317.525073 
L 642.271497 316.339807 
L 644.305673 312.309903 
L 646.33985 306.761376 
L 648.374026 309.754173 
L 650.408202 315.828661 
L 652.442379 316.021267 
L 654.476555 316.673163 
L 658.544908 323.206941 
L 662.61326 312.198784 
L 664.647437 313.38405 
L 666.681613 325.007064 
L 668.715789 320.836409 
L 670.749966 318.658483 
L 672.784142 321.421634 
L 674.818319 320.836409 
L 676.852495 322.747651 
L 678.886671 333.311333 
L 680.920848 336.385617 
L 682.955024 337.052329 
L 687.023377 336.548591 
L 689.057553 340.200692 
L 691.091729 342.33417 
L 693.125906 344.097254 
L 695.160082 350.549545 
L 697.194258 351.186625 
L 699.228435 352.957116 
L 701.262611 352.001496 
L 703.296787 356.112887 
L 705.330964 359.157539 
L 707.36514 357.594469 
L 709.399316 358.742696 
L 711.433493 370.439789 
L 713.467669 376.78837 
L 715.501846 377.418042 
L 717.536022 383.951821 
L 719.570198 387.440947 
L 721.604375 387.315013 
L 723.638551 388.826227 
L 725.672727 389.166991 
L 727.706904 389.729992 
L 729.74108 388.181739 
L 731.775256 388.796595 
L 733.809433 391.700497 
L 735.843609 392.152379 
L 737.877785 396.826772 
L 739.911962 400.715926 
L 741.946138 402.338259 
L 743.980314 404.538409 
L 746.014491 405.10141 
L 748.048667 406.94598 
L 750.082843 407.227481 
L 752.11702 410.420291 
L 754.151196 412.220413 
L 756.185373 411.916689 
L 758.219549 414.079799 
L 760.253725 415.383592 
L 762.287902 415.753988 
L 764.322078 416.405884 
L 766.356254 416.376252 
L 768.390431 419.976497 
L 770.424607 421.739581 
L 772.458783 421.754396 
L 774.49296 421.95441 
L 776.527136 422.443332 
L 778.561312 424.317534 
L 780.595489 431.295787 
L 782.629665 431.451353 
L 786.698018 431.406906 
L 788.732194 430.821681 
L 790.76637 427.147356 
L 794.834723 428.414109 
L 796.8689 427.651094 
L 798.903076 427.814068 
L 800.937252 431.495801 
L 802.971429 437.036919 
L 805.005605 435.925732 
L 807.039781 436.407247 
L 809.073958 434.962704 
L 811.108134 432.406974 
L 813.14231 431.592104 
L 815.176487 430.199416 
L 817.210663 448.141379 
L 819.244839 447.348733 
L 821.279016 447.815431 
L 823.313192 447.919142 
L 825.347368 445.311557 
L 827.381545 445.526386 
L 829.415721 444.230002 
L 831.449897 448.541407 
L 833.484074 450.578582 
L 835.51825 454.475144 
L 837.552427 453.85288 
L 843.654956 454.289946 
L 845.689132 455.030738 
L 849.757485 455.445581 
L 851.791661 455.445581 
L 853.825837 455.015922 
L 857.89419 455.690042 
L 859.928366 454.941843 
L 863.996719 455.349278 
L 866.030895 456.638255 
L 868.065072 457.060506 
L 872.133424 457.193848 
L 874.167601 456.030806 
L 876.201777 458.497641 
L 878.235954 458.71247 
L 880.27013 458.793957 
L 882.304306 460.297763 
L 884.338483 461.290423 
L 886.372659 461.690451 
L 888.406835 461.453397 
L 890.441012 457.497572 
L 892.475188 458.74951 
L 894.509364 458.608759 
L 896.543541 459.179168 
L 898.577717 459.156945 
L 900.611893 460.608895 
L 902.64607 460.275539 
L 904.680246 464.060983 
L 906.714422 452.060165 
L 908.748599 454.097341 
L 910.782775 454.097341 
L 912.816951 455.675226 
L 914.851128 456.01599 
L 916.885304 455.675226 
L 918.919481 454.66775 
L 920.953657 460.490369 
L 922.987833 461.58674 
L 931.124539 461.527477 
L 933.158715 461.846017 
L 935.192891 464.475826 
L 937.227068 464.453602 
L 939.261244 464.172101 
L 941.29542 463.720219 
L 943.329597 463.712811 
L 945.363773 463.238704 
L 947.397949 460.223684 
L 949.432126 461.023739 
L 951.466302 461.616372 
L 955.534655 461.734898 
L 957.568831 462.238636 
L 959.603008 462.283084 
L 961.637184 469.587285 
L 963.67136 474.839495 
L 965.705537 484.232727 
L 967.739713 482.669658 
L 969.773889 481.662182 
L 973.842242 481.647366 
L 975.876418 481.706629 
L 977.910595 478.365661 
L 979.944771 469.135402 
L 981.978947 469.276153 
L 984.013124 456.764189 
L 990.115653 456.816044 
L 992.149829 455.067777 
L 994.184005 453.889919 
L 996.218182 454.282539 
L 996.218182 454.282539 
" style="fill:none;stroke:#ff7f0e;stroke-linecap:square;stroke-width:1.5;"/>
   </g>
   <g id="line2d_17">
    <path clip-path="url(#p37f1a6684e)" d="M 184.581818 88.887273 
L 259.846343 88.976168 
L 272.051401 89.183589 
L 276.119754 89.32434 
L 284.256459 89.487314 
L 286.290636 89.702143 
L 288.324812 89.64288 
L 290.358988 89.724367 
L 296.461517 89.620656 
L 298.495694 89.709551 
L 302.564046 90.265144 
L 306.632399 90.531829 
L 308.666576 90.383671 
L 310.700752 90.591093 
L 314.769105 91.16891 
L 316.803281 91.776358 
L 318.837457 91.894885 
L 320.871634 91.6282 
L 322.90581 91.561529 
L 326.974163 91.739319 
L 331.042515 92.235649 
L 333.076692 91.820806 
L 335.110868 92.428255 
L 337.145044 92.472702 
L 339.179221 93.15423 
L 341.213397 93.19127 
L 345.28175 92.850506 
L 347.315926 93.006072 
L 349.350103 92.769019 
L 351.384279 93.094967 
L 353.418455 94.228377 
L 355.452632 95.006208 
L 357.486808 94.665444 
L 359.520984 95.828486 
L 361.555161 96.791515 
L 363.589337 99.310205 
L 365.623513 101.377013 
L 367.65769 102.851187 
L 369.691866 102.80674 
L 371.726042 102.473384 
L 373.760219 100.92513 
L 375.794395 100.60659 
L 377.828571 102.488199 
L 379.862748 103.962374 
L 381.896924 103.540123 
L 385.965277 105.955102 
L 387.999453 105.206903 
L 390.03363 106.014366 
L 392.067806 106.184748 
L 394.101982 105.140232 
L 396.136159 106.258827 
L 398.170335 108.37749 
L 400.204511 109.036794 
L 402.238688 108.747885 
L 404.272864 109.081241 
L 406.30704 108.073765 
L 408.341217 107.940423 
L 410.375393 107.999686 
L 412.409569 111.096193 
L 414.443746 112.792605 
L 416.477922 112.466657 
L 418.512098 116.044679 
L 420.546275 116.200245 
L 422.580451 117.933696 
L 424.614627 117.629972 
L 426.648804 118.185565 
L 428.68298 118.3115 
L 430.717157 117.111418 
L 432.751333 119.237489 
L 434.785509 118.941172 
L 438.853862 117.029931 
L 440.888038 118.889317 
L 444.956391 117.829985 
L 446.990567 121.030203 
L 449.024744 120.785742 
L 451.05892 120.79315 
L 455.127273 123.504446 
L 457.161449 123.504446 
L 459.195625 122.296956 
L 461.229802 123.482222 
L 463.263978 123.674828 
L 465.298154 123.222945 
L 467.332331 123.697052 
L 469.366507 125.223082 
L 471.400684 127.275073 
L 473.43486 126.704664 
L 475.469036 128.238102 
L 477.503213 130.749384 
L 479.537389 133.023613 
L 481.571565 133.905155 
L 483.605742 135.008934 
L 485.639918 135.771949 
L 487.674094 137.86098 
L 489.708271 136.764609 
L 491.742447 136.4757 
L 493.776623 136.646082 
L 495.8108 135.564527 
L 497.844976 137.246123 
L 499.879152 138.068401 
L 503.947505 138.112849 
L 505.981681 139.8463 
L 508.015858 139.135141 
L 510.050034 138.631403 
L 512.084211 142.616859 
L 514.118387 141.824213 
L 516.152563 144.95776 
L 518.18674 146.098578 
L 520.220916 145.943012 
L 522.255092 147.209765 
L 524.289269 147.891293 
L 526.323445 150.209969 
L 528.357621 152.958305 
L 530.391798 150.565549 
L 532.425974 156.640037 
L 534.46015 156.365944 
L 536.494327 156.328905 
L 538.528503 158.93649 
L 540.562679 155.484403 
L 542.596856 154.795467 
L 544.631032 155.56589 
L 546.665208 159.410596 
L 548.699385 158.232738 
L 550.733561 160.018045 
L 552.767738 165.722137 
L 554.801914 174.707935 
L 556.83609 171.796625 
L 558.870267 171.596612 
L 560.904443 176.308044 
L 562.938619 175.922832 
L 564.972796 171.396598 
L 567.006972 175.367239 
L 569.041148 177.411823 
L 571.075325 181.226897 
L 573.109501 182.901086 
L 575.143677 187.612518 
L 577.177854 183.493719 
L 579.21203 188.390348 
L 581.246206 183.427047 
L 583.280383 192.086897 
L 585.314559 184.19747 
L 587.348735 190.227511 
L 589.382912 194.598179 
L 591.417088 194.257415 
L 593.451265 194.561139 
L 595.485441 201.680143 
L 597.519617 207.562025 
L 599.553794 210.236281 
L 601.58797 212.317905 
L 603.622146 213.451315 
L 605.656323 210.599269 
L 607.690499 206.495286 
L 609.724675 210.006636 
L 611.758852 210.88077 
L 613.793028 212.947577 
L 615.827204 207.33238 
L 617.861381 211.532666 
L 619.895557 210.391847 
L 621.929733 207.82871 
L 623.96391 211.688232 
L 625.998086 211.414139 
L 628.032262 210.628901 
L 630.066439 207.96946 
L 632.100615 203.850661 
L 634.134792 203.909924 
L 636.168968 207.799078 
L 638.203144 209.147318 
L 640.237321 210.006636 
L 642.271497 208.46579 
L 644.305673 210.969665 
L 646.33985 214.006909 
L 648.374026 212.658669 
L 650.408202 215.377372 
L 652.442379 221.325926 
L 654.476555 215.866295 
L 656.510731 220.022133 
L 658.544908 227.726362 
L 660.579084 223.385325 
L 662.61326 231.593292 
L 664.647437 241.327289 
L 668.715789 231.42291 
L 670.749966 235.78617 
L 672.784142 232.59336 
L 674.818319 244.601586 
L 676.852495 250.453836 
L 678.886671 245.290522 
L 680.920848 248.750016 
L 682.955024 265.247437 
L 684.9892 270.38112 
L 687.023377 280.263275 
L 689.057553 294.29386 
L 691.091729 311.265387 
L 693.125906 313.613695 
L 695.160082 313.124773 
L 697.194258 324.866314 
L 699.228435 322.073531 
L 701.262611 316.310175 
L 703.296787 329.118455 
L 705.330964 334.24473 
L 707.36514 332.800188 
L 709.399316 326.33308 
L 713.467669 330.05926 
L 715.501846 332.511279 
L 717.536022 336.496736 
L 719.570198 339.422861 
L 721.604375 347.215985 
L 723.638551 349.64578 
L 725.672727 348.61608 
L 727.706904 348.023447 
L 729.74108 348.164197 
L 731.775256 371.71395 
L 733.809433 380.744195 
L 735.843609 374.528957 
L 737.877785 375.351235 
L 739.911962 365.335738 
L 741.946138 364.920895 
L 743.980314 365.187579 
L 746.014491 363.513391 
L 748.048667 374.158561 
L 750.082843 395.900783 
L 752.11702 400.06403 
L 754.151196 400.56036 
L 756.185373 401.612283 
L 758.219549 400.338122 
L 760.253725 411.30924 
L 762.287902 411.101819 
L 764.322078 410.761055 
L 766.356254 411.279609 
L 768.390431 411.257385 
L 770.424607 409.116498 
L 772.458783 411.909281 
L 774.49296 406.538545 
L 776.527136 412.116703 
L 778.561312 410.412883 
L 780.595489 410.390659 
L 782.629665 408.183101 
L 784.663841 411.087003 
L 786.698018 405.24216 
L 788.732194 404.731014 
L 790.76637 405.901464 
L 792.800547 417.013333 
L 794.834723 414.035352 
L 796.8689 415.909554 
L 798.903076 412.664888 
L 800.937252 413.990904 
L 802.971429 414.213142 
L 805.005605 413.635325 
L 807.039781 418.028217 
L 809.073958 414.427971 
L 811.108134 424.132336 
L 813.14231 424.51014 
L 815.176487 426.006538 
L 817.210663 433.636687 
L 819.244839 434.118202 
L 821.279016 432.903304 
L 823.313192 433.59224 
L 825.347368 433.584832 
L 827.381545 432.110658 
L 829.415721 435.103454 
L 831.449897 435.903509 
L 833.484074 431.829157 
L 835.51825 431.843973 
L 837.552427 432.406974 
L 839.586603 432.666251 
L 841.620779 433.977451 
L 843.654956 433.91078 
L 845.689132 434.481189 
L 847.723308 433.688543 
L 849.757485 433.103318 
L 851.791661 431.266156 
L 853.825837 453.99363 
L 855.860014 448.815499 
L 857.89419 449.474804 
L 859.928366 454.082525 
L 861.962543 454.067709 
L 863.996719 455.890055 
L 866.030895 453.556563 
L 868.065072 453.63805 
L 870.099248 454.186236 
L 872.133424 455.060369 
L 874.167601 455.171488 
L 876.201777 456.238227 
L 878.235954 456.349346 
L 880.27013 455.904871 
L 882.304306 455.964135 
L 884.338483 456.453057 
L 888.406835 456.253043 
L 890.441012 465.853697 
L 894.509364 465.861105 
L 896.543541 464.10543 
L 898.577717 464.349891 
L 900.611893 467.713083 
L 902.64607 465.172169 
L 904.680246 465.668499 
L 906.714422 465.653684 
L 908.748599 467.394543 
L 910.782775 469.305784 
L 912.816951 465.394407 
L 914.851128 465.579605 
L 916.885304 463.305376 
L 918.919481 463.557245 
L 920.953657 464.090614 
L 922.987833 463.579468 
L 925.02201 464.935116 
L 927.056186 465.083274 
L 929.090362 466.913029 
L 931.124539 466.542633 
L 933.158715 466.631528 
L 935.192891 467.098227 
L 939.261244 467.268608 
L 941.29542 467.150082 
L 943.329597 469.46135 
L 945.363773 471.965225 
L 947.397949 473.098635 
L 949.432126 473.943137 
L 951.466302 465.49071 
L 955.534655 465.646276 
L 957.568831 464.661023 
L 959.603008 464.349891 
L 961.637184 456.853084 
L 963.67136 456.904939 
L 965.705537 454.623302 
L 967.739713 456.238227 
L 969.773889 456.297491 
L 971.808066 467.735307 
L 973.842242 472.624529 
L 975.876418 472.824543 
L 977.910595 473.172714 
L 979.944771 477.254474 
L 981.978947 478.736056 
L 984.013124 479.062005 
L 986.0473 476.758144 
L 988.081476 480.469508 
L 990.115653 483.454896 
L 992.149829 483.15858 
L 994.184005 482.988198 
L 996.218182 483.469712 
L 996.218182 483.469712 
" style="fill:none;stroke:#2ca02c;stroke-linecap:square;stroke-width:1.5;"/>
   </g>
   <g id="line2d_18">
    <path clip-path="url(#p37f1a6684e)" d="M 184.581818 88.887273 
L 247.641285 88.887273 
L 249.675461 89.976236 
L 253.743814 90.057723 
L 255.77799 90.405895 
L 259.846343 90.583685 
L 261.880519 90.887409 
L 263.914696 91.865253 
L 265.948872 93.169046 
L 267.983049 95.287709 
L 270.017225 98.184202 
L 272.051401 99.169455 
L 274.085578 99.776904 
L 276.119754 100.058404 
L 278.15393 101.028841 
L 280.188107 103.177135 
L 282.222283 105.547667 
L 284.256459 109.259031 
L 286.290636 110.836916 
L 288.324812 114.926084 
L 290.358988 118.741159 
L 292.393165 121.608021 
L 294.427341 123.200722 
L 296.461517 123.067379 
L 300.52987 128.089944 
L 302.564046 131.171635 
L 304.598223 133.756996 
L 306.632399 137.82394 
L 308.666576 134.608906 
L 310.700752 137.283163 
L 312.734928 141.364922 
L 314.769105 150.13589 
L 316.803281 157.188223 
L 318.837457 160.551415 
L 320.871634 165.344334 
L 322.90581 171.715138 
L 324.939986 174.3005 
L 326.974163 173.196721 
L 329.008339 176.700663 
L 331.042515 178.900813 
L 335.110868 182.893678 
L 337.145044 188.760744 
L 339.179221 191.946146 
L 341.213397 198.005818 
L 343.247573 202.606132 
L 345.28175 203.613608 
L 347.315926 204.228465 
L 349.350103 202.93208 
L 351.384279 203.272844 
L 353.418455 210.414071 
L 355.452632 212.947577 
L 357.486808 212.969801 
L 359.520984 215.503307 
L 361.555161 215.681097 
L 363.589337 215.332925 
L 365.623513 221.325926 
L 367.65769 222.192652 
L 369.691866 221.074057 
L 371.726042 221.318518 
L 373.760219 220.333266 
L 375.794395 221.792624 
L 377.828571 225.948463 
L 379.862748 223.985366 
L 381.896924 225.578067 
L 383.9311 231.734042 
L 387.999453 233.289704 
L 390.03363 233.711955 
L 392.067806 235.141682 
L 394.101982 237.030699 
L 396.136159 236.867725 
L 398.170335 238.927125 
L 400.204511 239.756811 
L 402.238688 239.504942 
L 404.272864 239.942009 
L 406.30704 239.682732 
L 408.341217 241.423591 
L 410.375393 245.305337 
L 412.409569 248.905583 
L 414.443746 250.016769 
L 416.477922 250.564955 
L 418.512098 248.616674 
L 420.546275 250.276046 
L 422.580451 250.772377 
L 424.614627 251.15018 
L 426.648804 252.098393 
L 428.68298 253.802213 
L 430.717157 254.135569 
L 432.751333 254.987479 
L 434.785509 256.957983 
L 436.819686 257.950643 
L 438.853862 257.135773 
L 440.888038 257.965459 
L 442.922215 258.232144 
L 444.956391 258.306223 
L 446.990567 259.017383 
L 451.05892 259.824845 
L 453.093096 260.173017 
L 455.127273 265.891925 
L 457.161449 270.447791 
L 459.195625 269.632921 
L 461.229802 269.825526 
L 463.263978 274.788828 
L 465.298154 275.588882 
L 467.332331 280.626262 
L 469.366507 280.478104 
L 471.400684 279.078009 
L 473.43486 280.152156 
L 475.469036 282.211556 
L 477.503213 280.307722 
L 479.537389 282.218963 
L 481.571565 281.870792 
L 483.605742 282.048582 
L 485.639918 280.915171 
L 487.674094 281.374462 
L 489.708271 283.567203 
L 491.742447 285.493261 
L 493.776623 285.989591 
L 495.8108 284.922851 
L 497.844976 287.108185 
L 499.879152 285.856248 
L 501.913329 290.360259 
L 503.947505 288.915716 
L 505.981681 293.804938 
L 508.015858 293.227121 
L 510.050034 293.190081 
L 512.084211 293.523437 
L 514.118387 299.427543 
L 516.152563 300.420204 
L 518.18674 302.412932 
L 520.220916 306.731745 
L 522.255092 303.724132 
L 524.289269 305.109412 
L 526.323445 303.857475 
L 528.357621 304.613082 
L 530.391798 304.657529 
L 532.425974 307.531799 
L 534.46015 318.799234 
L 536.494327 318.59922 
L 538.528503 320.577133 
L 540.562679 322.029083 
L 542.596856 325.703408 
L 544.631032 328.977705 
L 546.665208 326.947937 
L 548.699385 324.184786 
L 550.733561 326.555318 
L 552.767738 322.236505 
L 554.801914 324.073667 
L 556.83609 324.577405 
L 558.870267 327.096095 
L 560.904443 332.148291 
L 562.938619 329.696272 
L 564.972796 331.037104 
L 567.006972 331.429724 
L 569.041148 327.799847 
L 571.075325 326.481238 
L 573.109501 324.569997 
L 575.143677 330.20001 
L 577.177854 331.451948 
L 579.21203 329.459219 
L 581.246206 329.637009 
L 583.280383 334.99293 
L 585.314559 340.03031 
L 587.348735 336.644894 
L 589.382912 333.933598 
L 591.417088 334.437336 
L 593.451265 334.704021 
L 595.485441 334.770692 
L 597.519617 335.304062 
L 599.553794 335.704089 
L 601.58797 334.970706 
L 603.622146 338.1487 
L 605.656323 337.622738 
L 607.690499 340.341442 
L 609.724675 347.667867 
L 611.758852 345.445494 
L 613.793028 343.586108 
L 615.827204 355.653596 
L 617.861381 355.372096 
L 619.895557 355.416543 
L 621.929733 355.823978 
L 623.96391 353.497894 
L 628.032262 353.638644 
L 630.066439 360.646529 
L 632.100615 360.439108 
L 634.134792 359.735356 
L 636.168968 359.742764 
L 638.203144 353.823842 
L 640.237321 362.27627 
L 642.271497 363.617102 
L 644.305673 363.039285 
L 646.33985 361.631782 
L 648.374026 365.461672 
L 650.408202 365.43204 
L 652.442379 362.876311 
L 654.476555 365.098684 
L 656.510731 363.868971 
L 658.544908 371.306515 
L 660.579084 370.928711 
L 662.61326 370.921303 
L 664.647437 375.410498 
L 666.681613 375.04751 
L 668.715789 375.351235 
L 670.749966 375.254932 
L 672.784142 375.536433 
L 674.818319 375.980907 
L 676.852495 373.121453 
L 678.886671 372.025082 
L 680.920848 372.276951 
L 682.955024 374.721562 
L 684.9892 373.802981 
L 687.023377 372.506597 
L 689.057553 373.936324 
L 691.091729 373.002927 
L 693.125906 370.462013 
L 695.160082 363.157811 
L 697.194258 369.061917 
L 699.228435 373.625191 
L 701.262611 374.817865 
L 703.296787 371.928779 
L 705.330964 379.477442 
L 707.36514 379.277428 
L 709.399316 380.055259 
L 711.433493 378.914441 
L 713.467669 380.166378 
L 715.501846 380.210825 
L 717.536022 383.685136 
L 719.570198 384.618533 
L 721.604375 386.351984 
L 723.638551 387.522434 
L 725.672727 385.937141 
L 727.706904 385.87047 
L 729.74108 390.930074 
L 731.775256 391.737536 
L 735.843609 394.722925 
L 737.877785 394.915531 
L 739.911962 394.167332 
L 741.946138 395.374821 
L 743.980314 399.441765 
L 746.014491 401.167809 
L 748.048667 404.760646 
L 750.082843 412.227821 
L 752.11702 413.138995 
L 754.151196 414.872446 
L 756.185373 418.317125 
L 760.253725 424.539771 
L 762.287902 433.644095 
L 764.322078 433.214436 
L 766.356254 431.629143 
L 768.390431 430.814273 
L 770.424607 431.695814 
L 772.458783 432.184737 
L 774.49296 433.169989 
L 776.527136 433.570016 
L 778.561312 432.584764 
L 780.595489 434.910848 
L 782.629665 434.992335 
L 784.663841 439.555609 
L 786.698018 439.785254 
L 788.732194 444.467055 
L 790.76637 444.467055 
L 792.800547 443.592921 
L 794.834723 444.178146 
L 796.8689 443.807751 
L 798.903076 443.807751 
L 800.937252 443.978133 
L 802.971429 448.111748 
L 805.005605 447.867287 
L 807.039781 449.05996 
L 809.073958 445.481939 
L 811.108134 446.007901 
L 821.279016 446.052348 
L 823.313192 437.333236 
L 825.347368 433.644095 
L 827.381545 436.718379 
L 829.415721 437.199893 
L 831.449897 433.392226 
L 833.484074 425.206483 
L 835.51825 425.117588 
L 837.552427 429.40677 
L 839.586603 429.05119 
L 841.620779 428.532636 
L 843.654956 438.155514 
L 845.689132 441.3261 
L 847.723308 441.074231 
L 849.757485 439.444491 
L 851.791661 439.851926 
L 853.825837 439.503754 
L 855.860014 438.533317 
L 857.89419 444.029988 
L 859.928366 444.052212 
L 863.996719 442.570629 
L 866.030895 442.592853 
L 868.065072 443.007696 
L 870.099248 444.289265 
L 872.133424 446.393112 
L 874.167601 446.207914 
L 876.201777 446.378296 
L 878.235954 444.37816 
L 880.27013 439.866742 
L 882.304306 448.178419 
L 884.338483 449.541475 
L 888.406835 449.519251 
L 890.441012 449.045145 
L 892.475188 449.73408 
L 894.509364 449.793344 
L 896.543541 450.363753 
L 898.577717 449.837791 
L 900.611893 449.459988 
L 902.64607 446.711652 
L 904.680246 447.096864 
L 906.714422 442.140971 
L 908.748599 444.578174 
L 910.782775 449.459988 
L 912.816951 452.297218 
L 916.885304 452.312034 
L 918.919481 452.186099 
L 920.953657 452.78614 
L 922.987833 452.512048 
L 925.02201 452.512048 
L 927.056186 451.704585 
L 929.090362 451.867559 
L 931.124539 451.541611 
L 933.158715 451.919415 
L 935.192891 454.415881 
L 937.227068 454.941843 
L 939.261244 458.260587 
L 941.29542 458.230956 
L 943.329597 460.134789 
L 945.363773 459.327327 
L 947.397949 460.186644 
L 951.466302 459.505117 
L 953.500478 459.305103 
L 955.534655 459.327327 
L 957.568831 461.431174 
L 959.603008 460.949659 
L 961.637184 461.008923 
L 963.67136 460.742238 
L 967.739713 461.483029 
L 971.808066 461.5497 
L 973.842242 461.786754 
L 975.876418 460.216276 
L 977.910595 461.127449 
L 979.944771 461.853425 
L 981.978947 461.475621 
L 984.013124 461.253384 
L 986.0473 463.816521 
L 988.081476 463.957272 
L 990.115653 461.934912 
L 994.184005 461.971951 
L 996.218182 461.171897 
L 996.218182 461.171897 
" style="fill:none;stroke:#d62728;stroke-dasharray:5.55,2.4;stroke-dashoffset:0;stroke-width:1.5;"/>
   </g>
   <g id="line2d_19">
    <path clip-path="url(#p37f1a6684e)" d="M 184.581818 88.887273 
L 257.812167 88.976168 
L 267.983049 89.205813 
L 270.017225 89.316932 
L 274.085578 89.376195 
L 280.188107 89.687327 
L 284.256459 90.294776 
L 286.290636 90.302184 
L 288.324812 90.805922 
L 292.393165 90.865185 
L 294.427341 91.117054 
L 296.461517 91.109646 
L 298.495694 90.95408 
L 302.564046 91.66524 
L 304.598223 91.554121 
L 306.632399 92.494926 
L 308.666576 93.080151 
L 310.700752 93.383875 
L 312.734928 93.435731 
L 314.769105 93.754271 
L 318.837457 93.435731 
L 320.871634 93.813534 
L 322.90581 95.028432 
L 324.939986 95.576617 
L 326.974163 95.917381 
L 329.008339 95.954421 
L 331.042515 96.16925 
L 333.076692 97.221174 
L 335.110868 97.369332 
L 337.145044 98.347177 
L 339.179221 98.539782 
L 341.213397 98.532374 
L 343.247573 98.76202 
L 345.28175 99.458363 
L 347.315926 100.013957 
L 349.350103 99.991733 
L 351.384279 100.095444 
L 353.418455 101.38442 
L 357.486808 102.073356 
L 359.520984 103.154911 
L 361.555161 103.94015 
L 363.589337 103.732729 
L 365.623513 103.154911 
L 367.65769 101.732592 
L 369.691866 101.577026 
L 371.726042 103.014161 
L 373.760219 103.347517 
L 375.794395 104.406849 
L 377.828571 104.169795 
L 379.862748 104.532783 
L 383.9311 106.67367 
L 385.965277 108.073765 
L 387.999453 106.658854 
L 390.03363 109.340518 
L 392.067806 112.955579 
L 394.101982 112.333315 
L 396.136159 114.703846 
L 398.170335 114.76311 
L 400.204511 114.096398 
L 402.238688 115.837257 
L 404.272864 116.60768 
L 406.30704 116.978076 
L 408.341217 117.592932 
L 410.375393 118.570777 
L 414.443746 120.919085 
L 416.477922 120.667216 
L 418.512098 121.104283 
L 420.546275 119.919017 
L 422.580451 121.541349 
L 424.614627 122.282141 
L 426.648804 123.289617 
L 428.68298 121.459862 
L 430.717157 120.711663 
L 432.751333 121.267257 
L 434.785509 123.393327 
L 436.819686 123.956329 
L 438.853862 124.223014 
L 442.922215 125.482359 
L 444.956391 124.16375 
L 446.990567 126.378716 
L 449.024744 126.40094 
L 451.05892 128.415892 
L 453.093096 129.41596 
L 455.127273 132.030953 
L 457.161449 133.401417 
L 459.195625 130.690121 
L 461.229802 133.838484 
L 463.263978 139.683326 
L 465.298154 138.409165 
L 467.332331 142.157569 
L 469.366507 149.039519 
L 471.400684 150.432207 
L 473.43486 148.669124 
L 475.469036 149.380283 
L 477.503213 149.254349 
L 479.537389 149.646968 
L 481.571565 153.469451 
L 483.605742 152.743475 
L 485.639918 149.750679 
L 487.674094 151.373012 
L 489.708271 150.839642 
L 491.742447 150.165522 
L 493.776623 150.217377 
L 495.8108 152.33604 
L 497.844976 153.958373 
L 499.879152 150.306272 
L 501.913329 149.861797 
L 503.947505 152.713844 
L 505.981681 150.180338 
L 508.015858 150.032179 
L 510.050034 147.002343 
L 512.084211 148.861729 
L 514.118387 152.091579 
L 518.18674 157.580842 
L 520.220916 164.951714 
L 522.255092 164.270187 
L 526.323445 167.66301 
L 528.357621 172.092942 
L 530.391798 184.664169 
L 532.425974 191.027565 
L 534.46015 194.361126 
L 536.494327 202.272776 
L 538.528503 204.235873 
L 540.562679 208.036131 
L 542.596856 208.68062 
L 544.631032 214.273593 
L 546.665208 220.236963 
L 548.699385 213.732816 
L 550.733561 227.074466 
L 552.767738 236.008408 
L 554.801914 229.067194 
L 556.83609 233.171177 
L 558.870267 240.497602 
L 560.904443 244.342309 
L 562.938619 263.380643 
L 564.972796 263.699183 
L 567.006972 265.225213 
L 569.041148 263.588064 
L 571.075325 267.892061 
L 573.109501 267.86243 
L 575.143677 264.45479 
L 579.21203 268.936577 
L 581.246206 277.989046 
L 583.280383 272.751652 
L 585.314559 274.88513 
L 587.348735 276.729701 
L 589.382912 267.692048 
L 591.417088 267.50685 
L 593.451265 269.344012 
L 595.485441 268.840274 
L 597.519617 270.818187 
L 599.553794 269.292157 
L 601.58797 264.551093 
L 603.622146 262.899129 
L 605.656323 259.647055 
L 607.690499 259.765582 
L 609.724675 271.277477 
L 611.758852 280.285498 
L 613.793028 290.352851 
L 615.827204 291.649236 
L 617.861381 299.50903 
L 619.895557 311.620967 
L 621.929733 305.005701 
L 623.96391 304.561226 
L 628.032262 295.953233 
L 630.066439 300.435019 
L 632.100615 305.939098 
L 634.134792 300.983205 
L 636.168968 300.390572 
L 638.203144 298.797871 
L 640.237321 298.501554 
L 642.271497 295.693956 
L 644.305673 301.635101 
L 646.33985 308.843 
L 648.374026 310.835728 
L 650.408202 315.680503 
L 652.442379 316.310175 
L 654.476555 311.087597 
L 656.510731 313.650735 
L 658.544908 314.761921 
L 660.579084 311.295019 
L 662.61326 306.716929 
L 664.647437 303.435224 
L 666.681613 300.597993 
L 668.715789 302.3833 
L 670.749966 306.553955 
L 672.784142 308.072577 
L 674.818319 323.192125 
L 676.852495 322.369847 
L 678.886671 332.926122 
L 680.920848 336.407841 
L 682.955024 337.170856 
L 684.9892 341.148904 
L 687.023377 343.208304 
L 689.057553 342.526776 
L 691.091729 342.33417 
L 693.125906 344.097254 
L 695.160082 343.312015 
L 697.194258 349.556885 
L 699.228435 353.038603 
L 701.262611 355.17949 
L 703.296787 356.112887 
L 705.330964 353.349736 
L 707.36514 357.594469 
L 709.399316 358.742696 
L 711.433493 370.439789 
L 713.467669 378.944072 
L 715.501846 377.10691 
L 717.536022 381.433131 
L 719.570198 380.951616 
L 721.604375 380.773826 
L 723.638551 382.581357 
L 725.672727 384.855586 
L 727.706904 388.026172 
L 729.74108 390.05594 
L 731.775256 397.463852 
L 733.809433 395.856336 
L 735.843609 399.286199 
L 737.877785 400.538136 
L 739.911962 401.975271 
L 741.946138 402.078982 
L 746.014491 405.10141 
L 748.048667 408.012719 
L 750.082843 411.52407 
L 752.11702 412.776007 
L 754.151196 412.842678 
L 756.185373 413.887194 
L 758.219549 414.079799 
L 762.287902 415.798435 
L 764.322078 416.405884 
L 766.356254 416.376252 
L 768.390431 419.976497 
L 770.424607 421.739581 
L 772.458783 421.754396 
L 774.49296 421.95441 
L 776.527136 428.599307 
L 778.561312 429.829021 
L 782.629665 430.021626 
L 784.663841 431.310603 
L 786.698018 430.955023 
L 788.732194 430.073482 
L 790.76637 430.414246 
L 792.800547 426.399157 
L 794.834723 426.465828 
L 796.8689 427.784437 
L 798.903076 427.814068 
L 800.937252 431.495801 
L 802.971429 437.036919 
L 805.005605 435.925732 
L 807.039781 434.436742 
L 809.073958 433.41445 
L 811.108134 433.829293 
L 813.14231 431.592104 
L 815.176487 430.310535 
L 817.210663 449.363685 
L 819.244839 449.815568 
L 821.279016 449.815568 
L 823.313192 447.919142 
L 825.347368 447.904326 
L 827.381545 452.141652 
L 829.415721 450.067437 
L 831.449897 448.963658 
L 833.484074 454.164012 
L 835.51825 453.512116 
L 837.552427 453.85288 
L 841.620779 454.13438 
L 845.689132 454.615895 
L 847.723308 455.30483 
L 849.757485 455.445581 
L 853.825837 455.475212 
L 855.860014 455.052961 
L 857.89419 455.371502 
L 859.928366 456.756781 
L 861.962543 455.964135 
L 863.996719 456.364162 
L 866.030895 456.638255 
L 868.065072 457.060506 
L 872.133424 457.193848 
L 874.167601 459.38659 
L 876.201777 459.231024 
L 878.235954 458.71247 
L 882.304306 458.801365 
L 884.338483 461.290423 
L 886.372659 461.690451 
L 888.406835 461.875648 
L 890.441012 461.58674 
L 892.475188 457.616099 
L 894.509364 459.334735 
L 896.543541 459.179168 
L 898.577717 463.416494 
L 900.611893 463.038691 
L 902.64607 464.023943 
L 904.680246 464.060983 
L 906.714422 452.060165 
L 908.748599 454.097341 
L 910.782775 454.097341 
L 912.816951 455.675226 
L 914.851128 455.334462 
L 916.885304 455.675226 
L 918.919481 461.186713 
L 922.987833 461.186713 
L 925.02201 460.490369 
L 927.056186 461.58674 
L 929.090362 461.58674 
L 931.124539 461.860833 
L 933.158715 461.557108 
L 937.227068 461.44599 
L 939.261244 458.290219 
L 941.29542 458.201324 
L 943.329597 458.245772 
L 945.363773 461.105226 
L 947.397949 460.497777 
L 949.432126 463.46835 
L 953.500478 463.668363 
L 955.534655 461.105226 
L 957.568831 462.060846 
L 959.603008 462.283084 
L 961.637184 469.587285 
L 963.67136 479.484256 
L 965.705537 477.476711 
L 967.739713 482.669658 
L 969.773889 482.410381 
L 973.842242 482.48446 
L 975.876418 481.706629 
L 977.910595 478.365661 
L 979.944771 469.135402 
L 981.978947 469.276153 
L 984.013124 456.764189 
L 988.081476 456.816044 
L 990.115653 455.067777 
L 992.149829 455.067777 
L 994.184005 453.889919 
L 996.218182 454.282539 
L 996.218182 454.282539 
" style="fill:none;stroke:#9467bd;stroke-dasharray:5.55,2.4;stroke-dashoffset:0;stroke-width:1.5;"/>
   </g>
   <g id="line2d_20">
    <path clip-path="url(#p37f1a6684e)" d="M 184.581818 88.887273 
L 259.846343 88.976168 
L 272.051401 89.183589 
L 276.119754 89.32434 
L 278.15393 89.2873 
L 282.222283 89.383603 
L 286.290636 89.435458 
L 288.324812 89.576209 
L 290.358988 89.516945 
L 292.393165 89.761406 
L 294.427341 89.813262 
L 296.461517 89.64288 
L 300.52987 89.991052 
L 302.564046 89.976236 
L 308.666576 90.383671 
L 310.700752 90.872593 
L 312.734928 90.872593 
L 314.769105 90.731843 
L 318.837457 90.99112 
L 320.871634 91.376331 
L 322.90581 91.428187 
L 324.939986 91.702279 
L 329.008339 91.80599 
L 331.042515 91.376331 
L 333.076692 91.887477 
L 335.110868 91.672648 
L 337.145044 91.776358 
L 339.179221 92.243057 
L 341.213397 92.961624 
L 343.247573 92.739387 
L 345.28175 93.109783 
L 349.350103 93.413507 
L 351.384279 93.783903 
L 353.418455 93.9691 
L 355.452632 93.82835 
L 357.486808 95.465499 
L 359.520984 94.524694 
L 361.555161 94.450615 
L 363.589337 95.70996 
L 365.623513 95.435867 
L 367.65769 96.658173 
L 369.691866 97.636017 
L 371.726042 97.436003 
L 373.760219 99.273166 
L 375.794395 100.78438 
L 377.828571 100.406576 
L 379.862748 101.451092 
L 383.9311 104.762428 
L 385.965277 105.562483 
L 387.999453 106.895907 
L 390.03363 105.799536 
L 392.067806 104.962442 
L 394.101982 105.243943 
L 396.136159 106.488472 
L 398.170335 106.577367 
L 400.204511 107.192224 
L 402.238688 108.451569 
L 404.272864 111.733274 
L 406.30704 111.518444 
L 408.341217 113.607476 
L 410.375393 112.362946 
L 412.409569 112.607407 
L 414.443746 113.074106 
L 416.477922 112.725934 
L 418.512098 112.555552 
L 420.546275 113.037066 
L 422.580451 114.740886 
L 424.614627 118.45225 
L 426.648804 118.644856 
L 428.68298 117.644788 
L 430.717157 117.185497 
L 432.751333 116.918812 
L 434.785509 116.459522 
L 436.819686 115.689099 
L 438.853862 118.496698 
L 440.888038 118.533737 
L 442.922215 119.785674 
L 444.956391 119.104146 
L 446.990567 118.696711 
L 449.024744 120.33386 
L 451.05892 122.133982 
L 453.093096 122.304364 
L 455.127273 124.282277 
L 457.161449 124.430435 
L 459.195625 123.082195 
L 461.229802 122.659944 
L 463.263978 124.319316 
L 465.298154 123.615565 
L 467.332331 123.178498 
L 469.366507 124.830462 
L 471.400684 127.223218 
L 473.43486 127.549166 
L 477.503213 131.823531 
L 479.537389 133.49772 
L 481.571565 136.327542 
L 483.605742 136.638674 
L 485.639918 138.549916 
L 487.674094 138.549916 
L 491.742447 139.068469 
L 493.776623 138.85364 
L 495.8108 137.631335 
L 497.844976 137.179452 
L 499.879152 137.949875 
L 501.913329 138.846232 
L 503.947505 140.868592 
L 505.981681 139.8463 
L 508.015858 139.157364 
L 510.050034 138.631403 
L 512.084211 142.616859 
L 514.118387 141.824213 
L 516.152563 143.802125 
L 518.18674 143.25394 
L 520.220916 144.817009 
L 522.255092 144.713299 
L 524.289269 148.832098 
L 526.323445 150.209969 
L 528.357621 152.661988 
L 530.391798 153.447227 
L 532.425974 159.855071 
L 534.46015 158.314225 
L 536.494327 158.766108 
L 538.528503 158.462383 
L 540.562679 156.06222 
L 542.596856 162.151524 
L 544.631032 159.521715 
L 546.665208 162.107076 
L 548.699385 162.699709 
L 550.733561 162.395985 
L 552.767738 170.589136 
L 554.801914 169.86316 
L 556.83609 173.959736 
L 558.870267 179.404551 
L 560.904443 183.834482 
L 562.938619 178.530417 
L 564.972796 175.307976 
L 567.006972 174.819053 
L 569.041148 179.12305 
L 571.075325 181.923241 
L 573.109501 178.160022 
L 575.143677 173.418958 
L 577.177854 178.108166 
L 579.21203 183.108507 
L 581.246206 174.848685 
L 583.280383 173.94492 
L 587.348735 186.271686 
L 589.382912 193.45736 
L 591.417088 190.58309 
L 593.451265 194.175928 
L 595.485441 194.435205 
L 597.519617 197.67987 
L 599.553794 199.798533 
L 601.58797 201.028247 
L 603.622146 205.102598 
L 605.656323 208.110211 
L 607.690499 204.161793 
L 609.724675 207.147182 
L 611.758852 211.814167 
L 613.793028 214.53287 
L 615.827204 214.495831 
L 617.861381 216.103348 
L 619.895557 214.518055 
L 621.929733 215.592202 
L 623.96391 219.222079 
L 625.998086 215.725544 
L 628.032262 212.747564 
L 630.066439 217.296022 
L 632.100615 211.265981 
L 634.134792 210.710388 
L 636.168968 213.473539 
L 638.203144 211.851206 
L 640.237321 212.777195 
L 642.271497 212.140115 
L 644.305673 219.422092 
L 646.33985 217.466404 
L 648.374026 223.207535 
L 650.408202 220.296226 
L 652.442379 226.237372 
L 654.476555 222.69639 
L 656.510731 230.800645 
L 660.579084 228.133797 
L 662.61326 226.155884 
L 664.647437 233.141546 
L 666.681613 234.889813 
L 668.715789 237.652964 
L 670.749966 245.327561 
L 672.784142 249.876019 
L 674.818319 264.506646 
L 676.852495 255.01711 
L 678.886671 264.980752 
L 680.920848 257.85434 
L 682.955024 253.839252 
L 684.9892 267.477218 
L 687.023377 280.359578 
L 689.057553 298.242277 
L 691.091729 311.561703 
L 693.125906 313.421089 
L 695.160082 324.095891 
L 697.194258 328.39248 
L 699.228435 325.007064 
L 701.262611 322.280952 
L 703.296787 320.317856 
L 705.330964 333.992861 
L 707.36514 332.800188 
L 709.399316 335.022561 
L 711.433493 336.363393 
L 713.467669 330.05926 
L 715.501846 334.822548 
L 717.536022 336.496736 
L 719.570198 339.422861 
L 721.604375 347.215985 
L 723.638551 341.615603 
L 727.706904 341.000746 
L 729.74108 361.291018 
L 731.775256 360.92803 
L 733.809433 372.469557 
L 735.843609 373.410362 
L 737.877785 373.343691 
L 739.911962 362.557771 
L 741.946138 385.366732 
L 743.980314 388.478055 
L 746.014491 388.352121 
L 748.048667 393.256158 
L 750.082843 398.915803 
L 752.11702 393.900647 
L 754.151196 395.597059 
L 756.185373 395.278518 
L 758.219549 391.959774 
L 760.253725 397.456445 
L 762.287902 397.323102 
L 764.322078 406.175557 
L 766.356254 406.145926 
L 768.390431 408.709063 
L 770.424607 405.716267 
L 772.458783 406.790414 
L 774.49296 408.457194 
L 776.527136 405.886649 
L 778.561312 403.560564 
L 780.595489 410.864766 
L 782.629665 408.183101 
L 784.663841 409.472078 
L 786.698018 412.568585 
L 788.732194 412.368572 
L 790.76637 409.78321 
L 792.800547 407.590468 
L 794.834723 401.634507 
L 796.8689 410.472146 
L 798.903076 410.820318 
L 800.937252 407.12377 
L 802.971429 410.968476 
L 807.039781 413.294561 
L 809.073958 415.791027 
L 811.108134 415.665093 
L 813.14231 419.480167 
L 815.176487 426.006538 
L 817.210663 423.354505 
L 819.244839 422.517411 
L 821.279016 424.258271 
L 823.313192 424.391613 
L 825.347368 424.702745 
L 827.381545 424.273086 
L 829.415721 433.570016 
L 831.449897 428.273359 
L 833.484074 428.55486 
L 835.51825 429.125269 
L 837.552427 432.74033 
L 839.586603 432.666251 
L 841.620779 433.977451 
L 843.654956 433.91078 
L 845.689132 434.481189 
L 847.723308 456.19378 
L 849.757485 458.082797 
L 851.791661 458.090205 
L 853.825837 456.253043 
L 855.860014 455.964135 
L 857.89419 455.97895 
L 859.928366 453.85288 
L 861.962543 454.067709 
L 863.996719 453.134312 
L 866.030895 453.63805 
L 868.065072 455.16408 
L 870.099248 455.445581 
L 872.133424 455.038146 
L 874.167601 455.712266 
L 876.201777 455.608555 
L 878.235954 455.771529 
L 880.27013 456.823452 
L 884.338483 456.756781 
L 886.372659 456.178964 
L 888.406835 456.253043 
L 890.441012 465.853697 
L 892.475188 464.74251 
L 894.509364 464.757326 
L 896.543541 464.10543 
L 898.577717 467.505662 
L 900.611893 468.039031 
L 902.64607 468.157558 
L 904.680246 468.15015 
L 906.714422 467.727899 
L 908.748599 468.890941 
L 910.782775 464.972156 
L 912.816951 464.668431 
L 914.851128 464.846221 
L 916.885304 462.171965 
L 918.919481 462.690519 
L 920.953657 464.090614 
L 922.987833 463.320191 
L 925.02201 463.127586 
L 927.056186 464.883261 
L 929.090362 464.942524 
L 931.124539 466.44633 
L 933.158715 466.48337 
L 935.192891 466.342619 
L 937.227068 465.253656 
L 939.261244 465.386999 
L 941.29542 467.150082 
L 943.329597 467.105634 
L 945.363773 469.416903 
L 947.397949 471.513342 
L 949.432126 472.172646 
L 953.500478 472.394884 
L 955.534655 472.172646 
L 957.568831 473.22457 
L 959.603008 464.349891 
L 965.705537 464.6388 
L 967.739713 460.727422 
L 969.773889 456.297491 
L 971.808066 467.735307 
L 973.842242 467.676044 
L 977.910595 468.305716 
L 979.944771 462.386794 
L 981.978947 466.824134 
L 984.013124 479.062005 
L 986.0473 480.825088 
L 988.081476 480.484324 
L 990.115653 475.358049 
L 992.149829 483.462304 
L 996.218182 483.469712 
L 996.218182 483.469712 
" style="fill:none;stroke:#8c564b;stroke-dasharray:5.55,2.4;stroke-dashoffset:0;stroke-width:1.5;"/>
   </g>
   <g id="patch_3">
    <path d="M 144 504 
L 144 69.12 
" style="fill:none;stroke:#000000;stroke-linecap:square;stroke-linejoin:miter;stroke-width:0.8;"/>
   </g>
   <g id="patch_4">
    <path d="M 1036.8 504 
L 1036.8 69.12 
" style="fill:none;stroke:#000000;stroke-linecap:square;stroke-linejoin:miter;stroke-width:0.8;"/>
   </g>
   <g id="patch_5">
    <path d="M 144 504 
L 1036.8 504 
" style="fill:none;stroke:#000000;stroke-linecap:square;stroke-linejoin:miter;stroke-width:0.8;"/>
   </g>
   <g id="patch_6">
    <path d="M 144 69.12 
L 1036.8 69.12 
" style="fill:none;stroke:#000000;stroke-linecap:square;stroke-linejoin:miter;stroke-width:0.8;"/>
   </g>
   <g id="legend_1">
    <g id="patch_7">
     <path d="M 905.367188 166.579375 
L 1029.8 166.579375 
Q 1031.8 166.579375 1031.8 164.579375 
L 1031.8 76.12 
Q 1031.8 74.12 1029.8 74.12 
L 905.367188 74.12 
Q 903.367188 74.12 903.367188 76.12 
L 903.367188 164.579375 
Q 903.367188 166.579375 905.367188 166.579375 
z
" style="fill:#ffffff;opacity:0.8;stroke:#cccccc;stroke-linejoin:miter;"/>
    </g>
    <g id="line2d_21">
     <path d="M 907.367188 82.218438 
L 927.367188 82.218438 
" style="fill:none;stroke:#1f77b4;stroke-linecap:square;stroke-width:1.5;"/>
    </g>
    <g id="line2d_22"/>
    <g id="text_17">
     <!-- taylorfo -->
     <defs>
      <path d="M 18.3125 70.21875 
L 18.3125 54.6875 
L 36.8125 54.6875 
L 36.8125 47.703125 
L 18.3125 47.703125 
L 18.3125 18.015625 
Q 18.3125 11.328125 20.140625 9.421875 
Q 21.96875 7.515625 27.59375 7.515625 
L 36.8125 7.515625 
L 36.8125 0 
L 27.59375 0 
Q 17.1875 0 13.234375 3.875 
Q 9.28125 7.765625 9.28125 18.015625 
L 9.28125 47.703125 
L 2.6875 47.703125 
L 2.6875 54.6875 
L 9.28125 54.6875 
L 9.28125 70.21875 
z
" id="DejaVuSans-116"/>
      <path d="M 9.421875 75.984375 
L 18.40625 75.984375 
L 18.40625 0 
L 9.421875 0 
z
" id="DejaVuSans-108"/>
     </defs>
     <g transform="translate(935.367188 85.718438)scale(0.1 -0.1)">
      <use xlink:href="#DejaVuSans-116"/>
      <use x="39.208984" xlink:href="#DejaVuSans-97"/>
      <use x="100.488281" xlink:href="#DejaVuSans-121"/>
      <use x="159.667969" xlink:href="#DejaVuSans-108"/>
      <use x="187.451172" xlink:href="#DejaVuSans-111"/>
      <use x="248.632812" xlink:href="#DejaVuSans-114"/>
      <use x="289.746094" xlink:href="#DejaVuSans-102"/>
      <use x="324.951172" xlink:href="#DejaVuSans-111"/>
     </g>
    </g>
    <g id="line2d_23">
     <path d="M 907.367188 96.896563 
L 927.367188 96.896563 
" style="fill:none;stroke:#ff7f0e;stroke-linecap:square;stroke-width:1.5;"/>
    </g>
    <g id="line2d_24"/>
    <g id="text_18">
     <!-- taylorfo_abs -->
     <defs>
      <path d="M 50.984375 -16.609375 
L 50.984375 -23.578125 
L -0.984375 -23.578125 
L -0.984375 -16.609375 
z
" id="DejaVuSans-95"/>
     </defs>
     <g transform="translate(935.367188 100.396563)scale(0.1 -0.1)">
      <use xlink:href="#DejaVuSans-116"/>
      <use x="39.208984" xlink:href="#DejaVuSans-97"/>
      <use x="100.488281" xlink:href="#DejaVuSans-121"/>
      <use x="159.667969" xlink:href="#DejaVuSans-108"/>
      <use x="187.451172" xlink:href="#DejaVuSans-111"/>
      <use x="248.632812" xlink:href="#DejaVuSans-114"/>
      <use x="289.746094" xlink:href="#DejaVuSans-102"/>
      <use x="324.951172" xlink:href="#DejaVuSans-111"/>
      <use x="386.132812" xlink:href="#DejaVuSans-95"/>
      <use x="436.132812" xlink:href="#DejaVuSans-97"/>
      <use x="497.412109" xlink:href="#DejaVuSans-98"/>
      <use x="560.888672" xlink:href="#DejaVuSans-115"/>
     </g>
    </g>
    <g id="line2d_25">
     <path d="M 907.367188 111.852813 
L 927.367188 111.852813 
" style="fill:none;stroke:#2ca02c;stroke-linecap:square;stroke-width:1.5;"/>
    </g>
    <g id="line2d_26"/>
    <g id="text_19">
     <!-- taylorfo_sq -->
     <defs>
      <path d="M 14.796875 27.296875 
Q 14.796875 17.390625 18.875 11.75 
Q 22.953125 6.109375 30.078125 6.109375 
Q 37.203125 6.109375 41.296875 11.75 
Q 45.40625 17.390625 45.40625 27.296875 
Q 45.40625 37.203125 41.296875 42.84375 
Q 37.203125 48.484375 30.078125 48.484375 
Q 22.953125 48.484375 18.875 42.84375 
Q 14.796875 37.203125 14.796875 27.296875 
z
M 45.40625 8.203125 
Q 42.578125 3.328125 38.25 0.953125 
Q 33.9375 -1.421875 27.875 -1.421875 
Q 17.96875 -1.421875 11.734375 6.484375 
Q 5.515625 14.40625 5.515625 27.296875 
Q 5.515625 40.1875 11.734375 48.09375 
Q 17.96875 56 27.875 56 
Q 33.9375 56 38.25 53.625 
Q 42.578125 51.265625 45.40625 46.390625 
L 45.40625 54.6875 
L 54.390625 54.6875 
L 54.390625 -20.796875 
L 45.40625 -20.796875 
z
" id="DejaVuSans-113"/>
     </defs>
     <g transform="translate(935.367188 115.352813)scale(0.1 -0.1)">
      <use xlink:href="#DejaVuSans-116"/>
      <use x="39.208984" xlink:href="#DejaVuSans-97"/>
      <use x="100.488281" xlink:href="#DejaVuSans-121"/>
      <use x="159.667969" xlink:href="#DejaVuSans-108"/>
      <use x="187.451172" xlink:href="#DejaVuSans-111"/>
      <use x="248.632812" xlink:href="#DejaVuSans-114"/>
      <use x="289.746094" xlink:href="#DejaVuSans-102"/>
      <use x="324.951172" xlink:href="#DejaVuSans-111"/>
      <use x="386.132812" xlink:href="#DejaVuSans-95"/>
      <use x="436.132812" xlink:href="#DejaVuSans-115"/>
      <use x="488.232422" xlink:href="#DejaVuSans-113"/>
     </g>
    </g>
    <g id="line2d_27">
     <path d="M 907.367188 126.809063 
L 927.367188 126.809063 
" style="fill:none;stroke:#d62728;stroke-dasharray:5.55,2.4;stroke-dashoffset:0;stroke-width:1.5;"/>
    </g>
    <g id="line2d_28"/>
    <g id="text_20">
     <!-- taylorfo_norm -->
     <g transform="translate(935.367188 130.309063)scale(0.1 -0.1)">
      <use xlink:href="#DejaVuSans-116"/>
      <use x="39.208984" xlink:href="#DejaVuSans-97"/>
      <use x="100.488281" xlink:href="#DejaVuSans-121"/>
      <use x="159.667969" xlink:href="#DejaVuSans-108"/>
      <use x="187.451172" xlink:href="#DejaVuSans-111"/>
      <use x="248.632812" xlink:href="#DejaVuSans-114"/>
      <use x="289.746094" xlink:href="#DejaVuSans-102"/>
      <use x="324.951172" xlink:href="#DejaVuSans-111"/>
      <use x="386.132812" xlink:href="#DejaVuSans-95"/>
      <use x="436.132812" xlink:href="#DejaVuSans-110"/>
      <use x="499.511719" xlink:href="#DejaVuSans-111"/>
      <use x="560.693359" xlink:href="#DejaVuSans-114"/>
      <use x="600.056641" xlink:href="#DejaVuSans-109"/>
     </g>
    </g>
    <g id="line2d_29">
     <path d="M 907.367188 141.765313 
L 927.367188 141.765313 
" style="fill:none;stroke:#9467bd;stroke-dasharray:5.55,2.4;stroke-dashoffset:0;stroke-width:1.5;"/>
    </g>
    <g id="line2d_30"/>
    <g id="text_21">
     <!-- taylorfo_abs_norm -->
     <g transform="translate(935.367188 145.265313)scale(0.1 -0.1)">
      <use xlink:href="#DejaVuSans-116"/>
      <use x="39.208984" xlink:href="#DejaVuSans-97"/>
      <use x="100.488281" xlink:href="#DejaVuSans-121"/>
      <use x="159.667969" xlink:href="#DejaVuSans-108"/>
      <use x="187.451172" xlink:href="#DejaVuSans-111"/>
      <use x="248.632812" xlink:href="#DejaVuSans-114"/>
      <use x="289.746094" xlink:href="#DejaVuSans-102"/>
      <use x="324.951172" xlink:href="#DejaVuSans-111"/>
      <use x="386.132812" xlink:href="#DejaVuSans-95"/>
      <use x="436.132812" xlink:href="#DejaVuSans-97"/>
      <use x="497.412109" xlink:href="#DejaVuSans-98"/>
      <use x="560.888672" xlink:href="#DejaVuSans-115"/>
      <use x="612.988281" xlink:href="#DejaVuSans-95"/>
      <use x="662.988281" xlink:href="#DejaVuSans-110"/>
      <use x="726.367188" xlink:href="#DejaVuSans-111"/>
      <use x="787.548828" xlink:href="#DejaVuSans-114"/>
      <use x="826.912109" xlink:href="#DejaVuSans-109"/>
     </g>
    </g>
    <g id="line2d_31">
     <path d="M 907.367188 156.721563 
L 927.367188 156.721563 
" style="fill:none;stroke:#8c564b;stroke-dasharray:5.55,2.4;stroke-dashoffset:0;stroke-width:1.5;"/>
    </g>
    <g id="line2d_32"/>
    <g id="text_22">
     <!-- taylorfo_sq_norm -->
     <g transform="translate(935.367188 160.221563)scale(0.1 -0.1)">
      <use xlink:href="#DejaVuSans-116"/>
      <use x="39.208984" xlink:href="#DejaVuSans-97"/>
      <use x="100.488281" xlink:href="#DejaVuSans-121"/>
      <use x="159.667969" xlink:href="#DejaVuSans-108"/>
      <use x="187.451172" xlink:href="#DejaVuSans-111"/>
      <use x="248.632812" xlink:href="#DejaVuSans-114"/>
      <use x="289.746094" xlink:href="#DejaVuSans-102"/>
      <use x="324.951172" xlink:href="#DejaVuSans-111"/>
      <use x="386.132812" xlink:href="#DejaVuSans-95"/>
      <use x="436.132812" xlink:href="#DejaVuSans-115"/>
      <use x="488.232422" xlink:href="#DejaVuSans-113"/>
      <use x="551.708984" xlink:href="#DejaVuSans-95"/>
      <use x="601.708984" xlink:href="#DejaVuSans-110"/>
      <use x="665.087891" xlink:href="#DejaVuSans-111"/>
      <use x="726.269531" xlink:href="#DejaVuSans-114"/>
      <use x="765.632812" xlink:href="#DejaVuSans-109"/>
     </g>
    </g>
   </g>
  </g>
 </g>
 <defs>
  <clipPath id="p37f1a6684e">
   <rect height="434.88" width="892.8" x="144" y="69.12"/>
  </clipPath>
 </defs>
</svg>
