<?xml version="1.0" encoding="utf-8" standalone="no"?>
<!DOCTYPE svg PUBLIC "-//W3C//DTD SVG 1.1//EN"
  "http://www.w3.org/Graphics/SVG/1.1/DTD/svg11.dtd">
<!-- Created with matplotlib (https://matplotlib.org/) -->
<svg height="576pt" version="1.1" viewBox="0 0 1152 576" width="1152pt" xmlns="http://www.w3.org/2000/svg" xmlns:xlink="http://www.w3.org/1999/xlink">
 <defs>
  <style type="text/css">
*{stroke-linecap:butt;stroke-linejoin:round;}
  </style>
 </defs>
 <g id="figure_1">
  <g id="patch_1">
   <path d="M 0 576 
L 1152 576 
L 1152 0 
L 0 0 
z
" style="fill:#ffffff;"/>
  </g>
  <g id="axes_1">
   <g id="patch_2">
    <path d="M 144 504 
L 1036.8 504 
L 1036.8 69.12 
L 144 69.12 
z
" style="fill:#ffffff;"/>
   </g>
   <g id="matplotlib.axis_1">
    <g id="xtick_1">
     <g id="line2d_1">
      <defs>
       <path d="M 0 0 
L 0 3.5 
" id="m67eb4b9eb6" style="stroke:#000000;stroke-width:0.8;"/>
      </defs>
      <g>
       <use style="stroke:#000000;stroke-width:0.8;" x="182.547642" xlink:href="#m67eb4b9eb6" y="504"/>
      </g>
     </g>
     <g id="text_1">
      <!-- 0 -->
      <defs>
       <path d="M 31.78125 66.40625 
Q 24.171875 66.40625 20.328125 58.90625 
Q 16.5 51.421875 16.5 36.375 
Q 16.5 21.390625 20.328125 13.890625 
Q 24.171875 6.390625 31.78125 6.390625 
Q 39.453125 6.390625 43.28125 13.890625 
Q 47.125 21.390625 47.125 36.375 
Q 47.125 51.421875 43.28125 58.90625 
Q 39.453125 66.40625 31.78125 66.40625 
z
M 31.78125 74.21875 
Q 44.046875 74.21875 50.515625 64.515625 
Q 56.984375 54.828125 56.984375 36.375 
Q 56.984375 17.96875 50.515625 8.265625 
Q 44.046875 -1.421875 31.78125 -1.421875 
Q 19.53125 -1.421875 13.0625 8.265625 
Q 6.59375 17.96875 6.59375 36.375 
Q 6.59375 54.828125 13.0625 64.515625 
Q 19.53125 74.21875 31.78125 74.21875 
z
" id="DejaVuSans-48"/>
      </defs>
      <g transform="translate(179.366392 518.598438)scale(0.1 -0.1)">
       <use xlink:href="#DejaVuSans-48"/>
      </g>
     </g>
    </g>
    <g id="xtick_2">
     <g id="line2d_2">
      <g>
       <use style="stroke:#000000;stroke-width:0.8;" x="284.256459" xlink:href="#m67eb4b9eb6" y="504"/>
      </g>
     </g>
     <g id="text_2">
      <!-- 50 -->
      <defs>
       <path d="M 10.796875 72.90625 
L 49.515625 72.90625 
L 49.515625 64.59375 
L 19.828125 64.59375 
L 19.828125 46.734375 
Q 21.96875 47.46875 24.109375 47.828125 
Q 26.265625 48.1875 28.421875 48.1875 
Q 40.625 48.1875 47.75 41.5 
Q 54.890625 34.8125 54.890625 23.390625 
Q 54.890625 11.625 47.5625 5.09375 
Q 40.234375 -1.421875 26.90625 -1.421875 
Q 22.3125 -1.421875 17.546875 -0.640625 
Q 12.796875 0.140625 7.71875 1.703125 
L 7.71875 11.625 
Q 12.109375 9.234375 16.796875 8.0625 
Q 21.484375 6.890625 26.703125 6.890625 
Q 35.15625 6.890625 40.078125 11.328125 
Q 45.015625 15.765625 45.015625 23.390625 
Q 45.015625 31 40.078125 35.4375 
Q 35.15625 39.890625 26.703125 39.890625 
Q 22.75 39.890625 18.8125 39.015625 
Q 14.890625 38.140625 10.796875 36.28125 
z
" id="DejaVuSans-53"/>
      </defs>
      <g transform="translate(277.893959 518.598438)scale(0.1 -0.1)">
       <use xlink:href="#DejaVuSans-53"/>
       <use x="63.623047" xlink:href="#DejaVuSans-48"/>
      </g>
     </g>
    </g>
    <g id="xtick_3">
     <g id="line2d_3">
      <g>
       <use style="stroke:#000000;stroke-width:0.8;" x="385.965277" xlink:href="#m67eb4b9eb6" y="504"/>
      </g>
     </g>
     <g id="text_3">
      <!-- 100 -->
      <defs>
       <path d="M 12.40625 8.296875 
L 28.515625 8.296875 
L 28.515625 63.921875 
L 10.984375 60.40625 
L 10.984375 69.390625 
L 28.421875 72.90625 
L 38.28125 72.90625 
L 38.28125 8.296875 
L 54.390625 8.296875 
L 54.390625 0 
L 12.40625 0 
z
" id="DejaVuSans-49"/>
      </defs>
      <g transform="translate(376.421527 518.598438)scale(0.1 -0.1)">
       <use xlink:href="#DejaVuSans-49"/>
       <use x="63.623047" xlink:href="#DejaVuSans-48"/>
       <use x="127.246094" xlink:href="#DejaVuSans-48"/>
      </g>
     </g>
    </g>
    <g id="xtick_4">
     <g id="line2d_4">
      <g>
       <use style="stroke:#000000;stroke-width:0.8;" x="487.674094" xlink:href="#m67eb4b9eb6" y="504"/>
      </g>
     </g>
     <g id="text_4">
      <!-- 150 -->
      <g transform="translate(478.130344 518.598438)scale(0.1 -0.1)">
       <use xlink:href="#DejaVuSans-49"/>
       <use x="63.623047" xlink:href="#DejaVuSans-53"/>
       <use x="127.246094" xlink:href="#DejaVuSans-48"/>
      </g>
     </g>
    </g>
    <g id="xtick_5">
     <g id="line2d_5">
      <g>
       <use style="stroke:#000000;stroke-width:0.8;" x="589.382912" xlink:href="#m67eb4b9eb6" y="504"/>
      </g>
     </g>
     <g id="text_5">
      <!-- 200 -->
      <defs>
       <path d="M 19.1875 8.296875 
L 53.609375 8.296875 
L 53.609375 0 
L 7.328125 0 
L 7.328125 8.296875 
Q 12.9375 14.109375 22.625 23.890625 
Q 32.328125 33.6875 34.8125 36.53125 
Q 39.546875 41.84375 41.421875 45.53125 
Q 43.3125 49.21875 43.3125 52.78125 
Q 43.3125 58.59375 39.234375 62.25 
Q 35.15625 65.921875 28.609375 65.921875 
Q 23.96875 65.921875 18.8125 64.3125 
Q 13.671875 62.703125 7.8125 59.421875 
L 7.8125 69.390625 
Q 13.765625 71.78125 18.9375 73 
Q 24.125 74.21875 28.421875 74.21875 
Q 39.75 74.21875 46.484375 68.546875 
Q 53.21875 62.890625 53.21875 53.421875 
Q 53.21875 48.921875 51.53125 44.890625 
Q 49.859375 40.875 45.40625 35.40625 
Q 44.1875 33.984375 37.640625 27.21875 
Q 31.109375 20.453125 19.1875 8.296875 
z
" id="DejaVuSans-50"/>
      </defs>
      <g transform="translate(579.839162 518.598438)scale(0.1 -0.1)">
       <use xlink:href="#DejaVuSans-50"/>
       <use x="63.623047" xlink:href="#DejaVuSans-48"/>
       <use x="127.246094" xlink:href="#DejaVuSans-48"/>
      </g>
     </g>
    </g>
    <g id="xtick_6">
     <g id="line2d_6">
      <g>
       <use style="stroke:#000000;stroke-width:0.8;" x="691.091729" xlink:href="#m67eb4b9eb6" y="504"/>
      </g>
     </g>
     <g id="text_6">
      <!-- 250 -->
      <g transform="translate(681.547979 518.598438)scale(0.1 -0.1)">
       <use xlink:href="#DejaVuSans-50"/>
       <use x="63.623047" xlink:href="#DejaVuSans-53"/>
       <use x="127.246094" xlink:href="#DejaVuSans-48"/>
      </g>
     </g>
    </g>
    <g id="xtick_7">
     <g id="line2d_7">
      <g>
       <use style="stroke:#000000;stroke-width:0.8;" x="792.800547" xlink:href="#m67eb4b9eb6" y="504"/>
      </g>
     </g>
     <g id="text_7">
      <!-- 300 -->
      <defs>
       <path d="M 40.578125 39.3125 
Q 47.65625 37.796875 51.625 33 
Q 55.609375 28.21875 55.609375 21.1875 
Q 55.609375 10.40625 48.1875 4.484375 
Q 40.765625 -1.421875 27.09375 -1.421875 
Q 22.515625 -1.421875 17.65625 -0.515625 
Q 12.796875 0.390625 7.625 2.203125 
L 7.625 11.71875 
Q 11.71875 9.328125 16.59375 8.109375 
Q 21.484375 6.890625 26.8125 6.890625 
Q 36.078125 6.890625 40.9375 10.546875 
Q 45.796875 14.203125 45.796875 21.1875 
Q 45.796875 27.640625 41.28125 31.265625 
Q 36.765625 34.90625 28.71875 34.90625 
L 20.21875 34.90625 
L 20.21875 43.015625 
L 29.109375 43.015625 
Q 36.375 43.015625 40.234375 45.921875 
Q 44.09375 48.828125 44.09375 54.296875 
Q 44.09375 59.90625 40.109375 62.90625 
Q 36.140625 65.921875 28.71875 65.921875 
Q 24.65625 65.921875 20.015625 65.03125 
Q 15.375 64.15625 9.8125 62.3125 
L 9.8125 71.09375 
Q 15.4375 72.65625 20.34375 73.4375 
Q 25.25 74.21875 29.59375 74.21875 
Q 40.828125 74.21875 47.359375 69.109375 
Q 53.90625 64.015625 53.90625 55.328125 
Q 53.90625 49.265625 50.4375 45.09375 
Q 46.96875 40.921875 40.578125 39.3125 
z
" id="DejaVuSans-51"/>
      </defs>
      <g transform="translate(783.256797 518.598438)scale(0.1 -0.1)">
       <use xlink:href="#DejaVuSans-51"/>
       <use x="63.623047" xlink:href="#DejaVuSans-48"/>
       <use x="127.246094" xlink:href="#DejaVuSans-48"/>
      </g>
     </g>
    </g>
    <g id="xtick_8">
     <g id="line2d_8">
      <g>
       <use style="stroke:#000000;stroke-width:0.8;" x="894.509364" xlink:href="#m67eb4b9eb6" y="504"/>
      </g>
     </g>
     <g id="text_8">
      <!-- 350 -->
      <g transform="translate(884.965614 518.598438)scale(0.1 -0.1)">
       <use xlink:href="#DejaVuSans-51"/>
       <use x="63.623047" xlink:href="#DejaVuSans-53"/>
       <use x="127.246094" xlink:href="#DejaVuSans-48"/>
      </g>
     </g>
    </g>
    <g id="xtick_9">
     <g id="line2d_9">
      <g>
       <use style="stroke:#000000;stroke-width:0.8;" x="996.218182" xlink:href="#m67eb4b9eb6" y="504"/>
      </g>
     </g>
     <g id="text_9">
      <!-- 400 -->
      <defs>
       <path d="M 37.796875 64.3125 
L 12.890625 25.390625 
L 37.796875 25.390625 
z
M 35.203125 72.90625 
L 47.609375 72.90625 
L 47.609375 25.390625 
L 58.015625 25.390625 
L 58.015625 17.1875 
L 47.609375 17.1875 
L 47.609375 0 
L 37.796875 0 
L 37.796875 17.1875 
L 4.890625 17.1875 
L 4.890625 26.703125 
z
" id="DejaVuSans-52"/>
      </defs>
      <g transform="translate(986.674432 518.598438)scale(0.1 -0.1)">
       <use xlink:href="#DejaVuSans-52"/>
       <use x="63.623047" xlink:href="#DejaVuSans-48"/>
       <use x="127.246094" xlink:href="#DejaVuSans-48"/>
      </g>
     </g>
    </g>
    <g id="text_10">
     <!-- Number of Neurons pruned -->
     <defs>
      <path d="M 9.8125 72.90625 
L 23.09375 72.90625 
L 55.421875 11.921875 
L 55.421875 72.90625 
L 64.984375 72.90625 
L 64.984375 0 
L 51.703125 0 
L 19.390625 60.984375 
L 19.390625 0 
L 9.8125 0 
z
" id="DejaVuSans-78"/>
      <path d="M 8.5 21.578125 
L 8.5 54.6875 
L 17.484375 54.6875 
L 17.484375 21.921875 
Q 17.484375 14.15625 20.5 10.265625 
Q 23.53125 6.390625 29.59375 6.390625 
Q 36.859375 6.390625 41.078125 11.03125 
Q 45.3125 15.671875 45.3125 23.6875 
L 45.3125 54.6875 
L 54.296875 54.6875 
L 54.296875 0 
L 45.3125 0 
L 45.3125 8.40625 
Q 42.046875 3.421875 37.71875 1 
Q 33.40625 -1.421875 27.6875 -1.421875 
Q 18.265625 -1.421875 13.375 4.4375 
Q 8.5 10.296875 8.5 21.578125 
z
M 31.109375 56 
z
" id="DejaVuSans-117"/>
      <path d="M 52 44.1875 
Q 55.375 50.25 60.0625 53.125 
Q 64.75 56 71.09375 56 
Q 79.640625 56 84.28125 50.015625 
Q 88.921875 44.046875 88.921875 33.015625 
L 88.921875 0 
L 79.890625 0 
L 79.890625 32.71875 
Q 79.890625 40.578125 77.09375 44.375 
Q 74.3125 48.1875 68.609375 48.1875 
Q 61.625 48.1875 57.5625 43.546875 
Q 53.515625 38.921875 53.515625 30.90625 
L 53.515625 0 
L 44.484375 0 
L 44.484375 32.71875 
Q 44.484375 40.625 41.703125 44.40625 
Q 38.921875 48.1875 33.109375 48.1875 
Q 26.21875 48.1875 22.15625 43.53125 
Q 18.109375 38.875 18.109375 30.90625 
L 18.109375 0 
L 9.078125 0 
L 9.078125 54.6875 
L 18.109375 54.6875 
L 18.109375 46.1875 
Q 21.1875 51.21875 25.484375 53.609375 
Q 29.78125 56 35.6875 56 
Q 41.65625 56 45.828125 52.96875 
Q 50 49.953125 52 44.1875 
z
" id="DejaVuSans-109"/>
      <path d="M 48.6875 27.296875 
Q 48.6875 37.203125 44.609375 42.84375 
Q 40.53125 48.484375 33.40625 48.484375 
Q 26.265625 48.484375 22.1875 42.84375 
Q 18.109375 37.203125 18.109375 27.296875 
Q 18.109375 17.390625 22.1875 11.75 
Q 26.265625 6.109375 33.40625 6.109375 
Q 40.53125 6.109375 44.609375 11.75 
Q 48.6875 17.390625 48.6875 27.296875 
z
M 18.109375 46.390625 
Q 20.953125 51.265625 25.265625 53.625 
Q 29.59375 56 35.59375 56 
Q 45.5625 56 51.78125 48.09375 
Q 58.015625 40.1875 58.015625 27.296875 
Q 58.015625 14.40625 51.78125 6.484375 
Q 45.5625 -1.421875 35.59375 -1.421875 
Q 29.59375 -1.421875 25.265625 0.953125 
Q 20.953125 3.328125 18.109375 8.203125 
L 18.109375 0 
L 9.078125 0 
L 9.078125 75.984375 
L 18.109375 75.984375 
z
" id="DejaVuSans-98"/>
      <path d="M 56.203125 29.59375 
L 56.203125 25.203125 
L 14.890625 25.203125 
Q 15.484375 15.921875 20.484375 11.0625 
Q 25.484375 6.203125 34.421875 6.203125 
Q 39.59375 6.203125 44.453125 7.46875 
Q 49.3125 8.734375 54.109375 11.28125 
L 54.109375 2.78125 
Q 49.265625 0.734375 44.1875 -0.34375 
Q 39.109375 -1.421875 33.890625 -1.421875 
Q 20.796875 -1.421875 13.15625 6.1875 
Q 5.515625 13.8125 5.515625 26.8125 
Q 5.515625 40.234375 12.765625 48.109375 
Q 20.015625 56 32.328125 56 
Q 43.359375 56 49.78125 48.890625 
Q 56.203125 41.796875 56.203125 29.59375 
z
M 47.21875 32.234375 
Q 47.125 39.59375 43.09375 43.984375 
Q 39.0625 48.390625 32.421875 48.390625 
Q 24.90625 48.390625 20.390625 44.140625 
Q 15.875 39.890625 15.1875 32.171875 
z
" id="DejaVuSans-101"/>
      <path d="M 41.109375 46.296875 
Q 39.59375 47.171875 37.8125 47.578125 
Q 36.03125 48 33.890625 48 
Q 26.265625 48 22.1875 43.046875 
Q 18.109375 38.09375 18.109375 28.8125 
L 18.109375 0 
L 9.078125 0 
L 9.078125 54.6875 
L 18.109375 54.6875 
L 18.109375 46.1875 
Q 20.953125 51.171875 25.484375 53.578125 
Q 30.03125 56 36.53125 56 
Q 37.453125 56 38.578125 55.875 
Q 39.703125 55.765625 41.0625 55.515625 
z
" id="DejaVuSans-114"/>
      <path id="DejaVuSans-32"/>
      <path d="M 30.609375 48.390625 
Q 23.390625 48.390625 19.1875 42.75 
Q 14.984375 37.109375 14.984375 27.296875 
Q 14.984375 17.484375 19.15625 11.84375 
Q 23.34375 6.203125 30.609375 6.203125 
Q 37.796875 6.203125 41.984375 11.859375 
Q 46.1875 17.53125 46.1875 27.296875 
Q 46.1875 37.015625 41.984375 42.703125 
Q 37.796875 48.390625 30.609375 48.390625 
z
M 30.609375 56 
Q 42.328125 56 49.015625 48.375 
Q 55.71875 40.765625 55.71875 27.296875 
Q 55.71875 13.875 49.015625 6.21875 
Q 42.328125 -1.421875 30.609375 -1.421875 
Q 18.84375 -1.421875 12.171875 6.21875 
Q 5.515625 13.875 5.515625 27.296875 
Q 5.515625 40.765625 12.171875 48.375 
Q 18.84375 56 30.609375 56 
z
" id="DejaVuSans-111"/>
      <path d="M 37.109375 75.984375 
L 37.109375 68.5 
L 28.515625 68.5 
Q 23.6875 68.5 21.796875 66.546875 
Q 19.921875 64.59375 19.921875 59.515625 
L 19.921875 54.6875 
L 34.71875 54.6875 
L 34.71875 47.703125 
L 19.921875 47.703125 
L 19.921875 0 
L 10.890625 0 
L 10.890625 47.703125 
L 2.296875 47.703125 
L 2.296875 54.6875 
L 10.890625 54.6875 
L 10.890625 58.5 
Q 10.890625 67.625 15.140625 71.796875 
Q 19.390625 75.984375 28.609375 75.984375 
z
" id="DejaVuSans-102"/>
      <path d="M 54.890625 33.015625 
L 54.890625 0 
L 45.90625 0 
L 45.90625 32.71875 
Q 45.90625 40.484375 42.875 44.328125 
Q 39.84375 48.1875 33.796875 48.1875 
Q 26.515625 48.1875 22.3125 43.546875 
Q 18.109375 38.921875 18.109375 30.90625 
L 18.109375 0 
L 9.078125 0 
L 9.078125 54.6875 
L 18.109375 54.6875 
L 18.109375 46.1875 
Q 21.34375 51.125 25.703125 53.5625 
Q 30.078125 56 35.796875 56 
Q 45.21875 56 50.046875 50.171875 
Q 54.890625 44.34375 54.890625 33.015625 
z
" id="DejaVuSans-110"/>
      <path d="M 44.28125 53.078125 
L 44.28125 44.578125 
Q 40.484375 46.53125 36.375 47.5 
Q 32.28125 48.484375 27.875 48.484375 
Q 21.1875 48.484375 17.84375 46.4375 
Q 14.5 44.390625 14.5 40.28125 
Q 14.5 37.15625 16.890625 35.375 
Q 19.28125 33.59375 26.515625 31.984375 
L 29.59375 31.296875 
Q 39.15625 29.25 43.1875 25.515625 
Q 47.21875 21.78125 47.21875 15.09375 
Q 47.21875 7.46875 41.1875 3.015625 
Q 35.15625 -1.421875 24.609375 -1.421875 
Q 20.21875 -1.421875 15.453125 -0.5625 
Q 10.6875 0.296875 5.421875 2 
L 5.421875 11.28125 
Q 10.40625 8.6875 15.234375 7.390625 
Q 20.0625 6.109375 24.8125 6.109375 
Q 31.15625 6.109375 34.5625 8.28125 
Q 37.984375 10.453125 37.984375 14.40625 
Q 37.984375 18.0625 35.515625 20.015625 
Q 33.0625 21.96875 24.703125 23.78125 
L 21.578125 24.515625 
Q 13.234375 26.265625 9.515625 29.90625 
Q 5.8125 33.546875 5.8125 39.890625 
Q 5.8125 47.609375 11.28125 51.796875 
Q 16.75 56 26.8125 56 
Q 31.78125 56 36.171875 55.265625 
Q 40.578125 54.546875 44.28125 53.078125 
z
" id="DejaVuSans-115"/>
      <path d="M 18.109375 8.203125 
L 18.109375 -20.796875 
L 9.078125 -20.796875 
L 9.078125 54.6875 
L 18.109375 54.6875 
L 18.109375 46.390625 
Q 20.953125 51.265625 25.265625 53.625 
Q 29.59375 56 35.59375 56 
Q 45.5625 56 51.78125 48.09375 
Q 58.015625 40.1875 58.015625 27.296875 
Q 58.015625 14.40625 51.78125 6.484375 
Q 45.5625 -1.421875 35.59375 -1.421875 
Q 29.59375 -1.421875 25.265625 0.953125 
Q 20.953125 3.328125 18.109375 8.203125 
z
M 48.6875 27.296875 
Q 48.6875 37.203125 44.609375 42.84375 
Q 40.53125 48.484375 33.40625 48.484375 
Q 26.265625 48.484375 22.1875 42.84375 
Q 18.109375 37.203125 18.109375 27.296875 
Q 18.109375 17.390625 22.1875 11.75 
Q 26.265625 6.109375 33.40625 6.109375 
Q 40.53125 6.109375 44.609375 11.75 
Q 48.6875 17.390625 48.6875 27.296875 
z
" id="DejaVuSans-112"/>
      <path d="M 45.40625 46.390625 
L 45.40625 75.984375 
L 54.390625 75.984375 
L 54.390625 0 
L 45.40625 0 
L 45.40625 8.203125 
Q 42.578125 3.328125 38.25 0.953125 
Q 33.9375 -1.421875 27.875 -1.421875 
Q 17.96875 -1.421875 11.734375 6.484375 
Q 5.515625 14.40625 5.515625 27.296875 
Q 5.515625 40.1875 11.734375 48.09375 
Q 17.96875 56 27.875 56 
Q 33.9375 56 38.25 53.625 
Q 42.578125 51.265625 45.40625 46.390625 
z
M 14.796875 27.296875 
Q 14.796875 17.390625 18.875 11.75 
Q 22.953125 6.109375 30.078125 6.109375 
Q 37.203125 6.109375 41.296875 11.75 
Q 45.40625 17.390625 45.40625 27.296875 
Q 45.40625 37.203125 41.296875 42.84375 
Q 37.203125 48.484375 30.078125 48.484375 
Q 22.953125 48.484375 18.875 42.84375 
Q 14.796875 37.203125 14.796875 27.296875 
z
" id="DejaVuSans-100"/>
     </defs>
     <g transform="translate(522.147656 532.276562)scale(0.1 -0.1)">
      <use xlink:href="#DejaVuSans-78"/>
      <use x="74.804688" xlink:href="#DejaVuSans-117"/>
      <use x="138.183594" xlink:href="#DejaVuSans-109"/>
      <use x="235.595703" xlink:href="#DejaVuSans-98"/>
      <use x="299.072266" xlink:href="#DejaVuSans-101"/>
      <use x="360.595703" xlink:href="#DejaVuSans-114"/>
      <use x="401.708984" xlink:href="#DejaVuSans-32"/>
      <use x="433.496094" xlink:href="#DejaVuSans-111"/>
      <use x="494.677734" xlink:href="#DejaVuSans-102"/>
      <use x="529.882812" xlink:href="#DejaVuSans-32"/>
      <use x="561.669922" xlink:href="#DejaVuSans-78"/>
      <use x="636.474609" xlink:href="#DejaVuSans-101"/>
      <use x="697.998047" xlink:href="#DejaVuSans-117"/>
      <use x="761.376953" xlink:href="#DejaVuSans-114"/>
      <use x="800.240234" xlink:href="#DejaVuSans-111"/>
      <use x="861.421875" xlink:href="#DejaVuSans-110"/>
      <use x="924.800781" xlink:href="#DejaVuSans-115"/>
      <use x="976.900391" xlink:href="#DejaVuSans-32"/>
      <use x="1008.6875" xlink:href="#DejaVuSans-112"/>
      <use x="1072.164062" xlink:href="#DejaVuSans-114"/>
      <use x="1113.277344" xlink:href="#DejaVuSans-117"/>
      <use x="1176.65625" xlink:href="#DejaVuSans-110"/>
      <use x="1240.035156" xlink:href="#DejaVuSans-101"/>
      <use x="1301.558594" xlink:href="#DejaVuSans-100"/>
     </g>
    </g>
   </g>
   <g id="matplotlib.axis_2">
    <g id="ytick_1">
     <g id="line2d_10">
      <defs>
       <path d="M 0 0 
L -3.5 0 
" id="m48d0138992" style="stroke:#000000;stroke-width:0.8;"/>
      </defs>
      <g>
       <use style="stroke:#000000;stroke-width:0.8;" x="144" xlink:href="#m48d0138992" y="484.232727"/>
      </g>
     </g>
     <g id="text_11">
      <!-- 0 -->
      <g transform="translate(130.6375 488.031946)scale(0.1 -0.1)">
       <use xlink:href="#DejaVuSans-48"/>
      </g>
     </g>
    </g>
    <g id="ytick_2">
     <g id="line2d_11">
      <g>
       <use style="stroke:#000000;stroke-width:0.8;" x="144" xlink:href="#m48d0138992" y="423.201683"/>
      </g>
     </g>
     <g id="text_12">
      <!-- 5 -->
      <g transform="translate(130.6375 427.000902)scale(0.1 -0.1)">
       <use xlink:href="#DejaVuSans-53"/>
      </g>
     </g>
    </g>
    <g id="ytick_3">
     <g id="line2d_12">
      <g>
       <use style="stroke:#000000;stroke-width:0.8;" x="144" xlink:href="#m48d0138992" y="362.170639"/>
      </g>
     </g>
     <g id="text_13">
      <!-- 10 -->
      <g transform="translate(124.275 365.969857)scale(0.1 -0.1)">
       <use xlink:href="#DejaVuSans-49"/>
       <use x="63.623047" xlink:href="#DejaVuSans-48"/>
      </g>
     </g>
    </g>
    <g id="ytick_4">
     <g id="line2d_13">
      <g>
       <use style="stroke:#000000;stroke-width:0.8;" x="144" xlink:href="#m48d0138992" y="301.139594"/>
      </g>
     </g>
     <g id="text_14">
      <!-- 15 -->
      <g transform="translate(124.275 304.938813)scale(0.1 -0.1)">
       <use xlink:href="#DejaVuSans-49"/>
       <use x="63.623047" xlink:href="#DejaVuSans-53"/>
      </g>
     </g>
    </g>
    <g id="ytick_5">
     <g id="line2d_14">
      <g>
       <use style="stroke:#000000;stroke-width:0.8;" x="144" xlink:href="#m48d0138992" y="240.10855"/>
      </g>
     </g>
     <g id="text_15">
      <!-- 20 -->
      <g transform="translate(124.275 243.907769)scale(0.1 -0.1)">
       <use xlink:href="#DejaVuSans-50"/>
       <use x="63.623047" xlink:href="#DejaVuSans-48"/>
      </g>
     </g>
    </g>
    <g id="ytick_6">
     <g id="line2d_15">
      <g>
       <use style="stroke:#000000;stroke-width:0.8;" x="144" xlink:href="#m48d0138992" y="179.077506"/>
      </g>
     </g>
     <g id="text_16">
      <!-- 25 -->
      <g transform="translate(124.275 182.876725)scale(0.1 -0.1)">
       <use xlink:href="#DejaVuSans-50"/>
       <use x="63.623047" xlink:href="#DejaVuSans-53"/>
      </g>
     </g>
    </g>
    <g id="ytick_7">
     <g id="line2d_16">
      <g>
       <use style="stroke:#000000;stroke-width:0.8;" x="144" xlink:href="#m48d0138992" y="118.046461"/>
      </g>
     </g>
     <g id="text_17">
      <!-- 30 -->
      <g transform="translate(124.275 121.84568)scale(0.1 -0.1)">
       <use xlink:href="#DejaVuSans-51"/>
       <use x="63.623047" xlink:href="#DejaVuSans-48"/>
      </g>
     </g>
    </g>
    <g id="text_18">
     <!-- Squared Deviation -->
     <defs>
      <path d="M 53.515625 70.515625 
L 53.515625 60.890625 
Q 47.90625 63.578125 42.921875 64.890625 
Q 37.9375 66.21875 33.296875 66.21875 
Q 25.25 66.21875 20.875 63.09375 
Q 16.5 59.96875 16.5 54.203125 
Q 16.5 49.359375 19.40625 46.890625 
Q 22.3125 44.4375 30.421875 42.921875 
L 36.375 41.703125 
Q 47.40625 39.59375 52.65625 34.296875 
Q 57.90625 29 57.90625 20.125 
Q 57.90625 9.515625 50.796875 4.046875 
Q 43.703125 -1.421875 29.984375 -1.421875 
Q 24.8125 -1.421875 18.96875 -0.25 
Q 13.140625 0.921875 6.890625 3.21875 
L 6.890625 13.375 
Q 12.890625 10.015625 18.65625 8.296875 
Q 24.421875 6.59375 29.984375 6.59375 
Q 38.421875 6.59375 43.015625 9.90625 
Q 47.609375 13.234375 47.609375 19.390625 
Q 47.609375 24.75 44.3125 27.78125 
Q 41.015625 30.8125 33.5 32.328125 
L 27.484375 33.5 
Q 16.453125 35.6875 11.515625 40.375 
Q 6.59375 45.0625 6.59375 53.421875 
Q 6.59375 63.09375 13.40625 68.65625 
Q 20.21875 74.21875 32.171875 74.21875 
Q 37.3125 74.21875 42.625 73.28125 
Q 47.953125 72.359375 53.515625 70.515625 
z
" id="DejaVuSans-83"/>
      <path d="M 14.796875 27.296875 
Q 14.796875 17.390625 18.875 11.75 
Q 22.953125 6.109375 30.078125 6.109375 
Q 37.203125 6.109375 41.296875 11.75 
Q 45.40625 17.390625 45.40625 27.296875 
Q 45.40625 37.203125 41.296875 42.84375 
Q 37.203125 48.484375 30.078125 48.484375 
Q 22.953125 48.484375 18.875 42.84375 
Q 14.796875 37.203125 14.796875 27.296875 
z
M 45.40625 8.203125 
Q 42.578125 3.328125 38.25 0.953125 
Q 33.9375 -1.421875 27.875 -1.421875 
Q 17.96875 -1.421875 11.734375 6.484375 
Q 5.515625 14.40625 5.515625 27.296875 
Q 5.515625 40.1875 11.734375 48.09375 
Q 17.96875 56 27.875 56 
Q 33.9375 56 38.25 53.625 
Q 42.578125 51.265625 45.40625 46.390625 
L 45.40625 54.6875 
L 54.390625 54.6875 
L 54.390625 -20.796875 
L 45.40625 -20.796875 
z
" id="DejaVuSans-113"/>
      <path d="M 34.28125 27.484375 
Q 23.390625 27.484375 19.1875 25 
Q 14.984375 22.515625 14.984375 16.5 
Q 14.984375 11.71875 18.140625 8.90625 
Q 21.296875 6.109375 26.703125 6.109375 
Q 34.1875 6.109375 38.703125 11.40625 
Q 43.21875 16.703125 43.21875 25.484375 
L 43.21875 27.484375 
z
M 52.203125 31.203125 
L 52.203125 0 
L 43.21875 0 
L 43.21875 8.296875 
Q 40.140625 3.328125 35.546875 0.953125 
Q 30.953125 -1.421875 24.3125 -1.421875 
Q 15.921875 -1.421875 10.953125 3.296875 
Q 6 8.015625 6 15.921875 
Q 6 25.140625 12.171875 29.828125 
Q 18.359375 34.515625 30.609375 34.515625 
L 43.21875 34.515625 
L 43.21875 35.40625 
Q 43.21875 41.609375 39.140625 45 
Q 35.0625 48.390625 27.6875 48.390625 
Q 23 48.390625 18.546875 47.265625 
Q 14.109375 46.140625 10.015625 43.890625 
L 10.015625 52.203125 
Q 14.9375 54.109375 19.578125 55.046875 
Q 24.21875 56 28.609375 56 
Q 40.484375 56 46.34375 49.84375 
Q 52.203125 43.703125 52.203125 31.203125 
z
" id="DejaVuSans-97"/>
      <path d="M 19.671875 64.796875 
L 19.671875 8.109375 
L 31.59375 8.109375 
Q 46.6875 8.109375 53.6875 14.9375 
Q 60.6875 21.78125 60.6875 36.53125 
Q 60.6875 51.171875 53.6875 57.984375 
Q 46.6875 64.796875 31.59375 64.796875 
z
M 9.8125 72.90625 
L 30.078125 72.90625 
Q 51.265625 72.90625 61.171875 64.09375 
Q 71.09375 55.28125 71.09375 36.53125 
Q 71.09375 17.671875 61.125 8.828125 
Q 51.171875 0 30.078125 0 
L 9.8125 0 
z
" id="DejaVuSans-68"/>
      <path d="M 2.984375 54.6875 
L 12.5 54.6875 
L 29.59375 8.796875 
L 46.6875 54.6875 
L 56.203125 54.6875 
L 35.6875 0 
L 23.484375 0 
z
" id="DejaVuSans-118"/>
      <path d="M 9.421875 54.6875 
L 18.40625 54.6875 
L 18.40625 0 
L 9.421875 0 
z
M 9.421875 75.984375 
L 18.40625 75.984375 
L 18.40625 64.59375 
L 9.421875 64.59375 
z
" id="DejaVuSans-105"/>
      <path d="M 18.3125 70.21875 
L 18.3125 54.6875 
L 36.8125 54.6875 
L 36.8125 47.703125 
L 18.3125 47.703125 
L 18.3125 18.015625 
Q 18.3125 11.328125 20.140625 9.421875 
Q 21.96875 7.515625 27.59375 7.515625 
L 36.8125 7.515625 
L 36.8125 0 
L 27.59375 0 
Q 17.1875 0 13.234375 3.875 
Q 9.28125 7.765625 9.28125 18.015625 
L 9.28125 47.703125 
L 2.6875 47.703125 
L 2.6875 54.6875 
L 9.28125 54.6875 
L 9.28125 70.21875 
z
" id="DejaVuSans-116"/>
     </defs>
     <g transform="translate(118.195312 332.840469)rotate(-90)scale(0.1 -0.1)">
      <use xlink:href="#DejaVuSans-83"/>
      <use x="63.476562" xlink:href="#DejaVuSans-113"/>
      <use x="126.953125" xlink:href="#DejaVuSans-117"/>
      <use x="190.332031" xlink:href="#DejaVuSans-97"/>
      <use x="251.611328" xlink:href="#DejaVuSans-114"/>
      <use x="290.474609" xlink:href="#DejaVuSans-101"/>
      <use x="351.998047" xlink:href="#DejaVuSans-100"/>
      <use x="415.474609" xlink:href="#DejaVuSans-32"/>
      <use x="447.261719" xlink:href="#DejaVuSans-68"/>
      <use x="524.263672" xlink:href="#DejaVuSans-101"/>
      <use x="585.787109" xlink:href="#DejaVuSans-118"/>
      <use x="644.966797" xlink:href="#DejaVuSans-105"/>
      <use x="672.75" xlink:href="#DejaVuSans-97"/>
      <use x="734.029297" xlink:href="#DejaVuSans-116"/>
      <use x="773.238281" xlink:href="#DejaVuSans-105"/>
      <use x="801.021484" xlink:href="#DejaVuSans-111"/>
      <use x="862.203125" xlink:href="#DejaVuSans-110"/>
     </g>
    </g>
   </g>
   <g id="line2d_17">
    <path clip-path="url(#p4a8a1db854)" d="M 184.581818 484.232727 
L 265.948872 484.232726 
L 267.983049 480.877522 
L 270.017225 480.198332 
L 272.051401 480.332498 
L 274.085578 477.328327 
L 276.119754 473.480652 
L 278.15393 470.446074 
L 282.222283 471.09487 
L 284.256459 469.445734 
L 286.290636 462.537081 
L 288.324812 461.134451 
L 290.358988 457.33093 
L 292.393165 455.773514 
L 294.427341 454.48193 
L 296.461517 448.220048 
L 298.495694 450.046965 
L 300.52987 448.744077 
L 302.564046 446.775391 
L 304.598223 445.084587 
L 306.632399 441.791952 
L 308.666576 438.796839 
L 310.700752 438.046381 
L 312.734928 436.013441 
L 314.769105 425.901591 
L 316.803281 422.20463 
L 318.837457 407.038406 
L 320.871634 405.558581 
L 322.90581 387.358994 
L 324.939986 382.209953 
L 326.974163 384.476209 
L 329.008339 365.390097 
L 331.042515 360.255852 
L 333.076692 356.40046 
L 335.110868 353.287328 
L 337.145044 347.992767 
L 339.179221 350.597116 
L 341.213397 348.381102 
L 343.247573 347.15142 
L 345.28175 344.432397 
L 347.315926 337.124394 
L 349.350103 334.351137 
L 351.384279 327.59636 
L 353.418455 326.966666 
L 355.452632 326.189972 
L 357.486808 320.666146 
L 359.520984 318.914295 
L 361.555161 316.539128 
L 363.589337 309.459528 
L 365.623513 301.022803 
L 367.65769 302.235629 
L 369.691866 298.929133 
L 371.726042 295.928765 
L 373.760219 289.030586 
L 375.794395 286.850227 
L 377.828571 285.402933 
L 379.862748 281.415674 
L 381.896924 279.453114 
L 383.9311 280.950393 
L 385.965277 279.038494 
L 387.999453 277.613154 
L 390.03363 274.329509 
L 392.067806 276.684083 
L 394.101982 282.753429 
L 396.136159 273.378273 
L 398.170335 274.589982 
L 400.204511 270.863662 
L 402.238688 267.906819 
L 404.272864 262.177383 
L 406.30704 255.251114 
L 408.341217 247.89635 
L 410.375393 232.034434 
L 412.409569 227.267571 
L 414.443746 223.652584 
L 416.477922 224.450836 
L 418.512098 219.562327 
L 420.546275 217.798894 
L 422.580451 217.920656 
L 424.614627 217.126128 
L 426.648804 213.319161 
L 428.68298 211.245921 
L 430.717157 220.329802 
L 434.785509 218.444979 
L 436.819686 220.641285 
L 438.853862 227.832194 
L 440.888038 224.622002 
L 442.922215 228.078559 
L 444.956391 214.993497 
L 446.990567 209.140575 
L 449.024744 205.961021 
L 451.05892 210.88713 
L 453.093096 208.311451 
L 455.127273 208.912859 
L 457.161449 204.658585 
L 459.195625 216.184182 
L 461.229802 215.269941 
L 463.263978 213.6597 
L 465.298154 215.273666 
L 467.332331 211.543296 
L 469.366507 215.291733 
L 471.400684 215.923732 
L 473.43486 220.808563 
L 475.469036 222.699951 
L 477.503213 222.747795 
L 479.537389 225.982014 
L 481.571565 224.964612 
L 483.605742 215.443901 
L 485.639918 207.368248 
L 487.674094 207.387525 
L 489.708271 204.958008 
L 491.742447 206.148833 
L 493.776623 204.407051 
L 495.8108 200.87632 
L 499.879152 202.985576 
L 501.913329 195.849076 
L 503.947505 188.094313 
L 505.981681 189.747439 
L 508.015858 185.692128 
L 510.050034 183.862063 
L 514.118387 182.89467 
L 516.152563 177.60856 
L 518.18674 175.234825 
L 520.220916 177.411272 
L 522.255092 169.621936 
L 524.289269 163.938993 
L 526.323445 164.449137 
L 528.357621 167.6455 
L 530.391798 170.108356 
L 532.425974 174.374015 
L 534.46015 175.004222 
L 536.494327 174.54376 
L 538.528503 168.791415 
L 540.562679 165.359886 
L 542.596856 163.769527 
L 544.631032 162.472049 
L 546.665208 162.241818 
L 548.699385 159.176181 
L 550.733561 157.311472 
L 552.767738 154.776374 
L 556.83609 155.812423 
L 558.870267 157.221303 
L 560.904443 157.77943 
L 562.938619 157.674291 
L 564.972796 155.572927 
L 567.006972 158.111844 
L 569.041148 158.875034 
L 571.075325 158.402304 
L 573.109501 157.556953 
L 575.143677 153.533095 
L 577.177854 146.207619 
L 579.21203 145.593872 
L 581.246206 146.716529 
L 583.280383 147.492804 
L 585.314559 147.970238 
L 587.348735 147.006105 
L 589.382912 146.269362 
L 591.417088 147.69079 
L 593.451265 148.048976 
L 595.485441 144.9002 
L 597.519617 146.644473 
L 599.553794 143.151923 
L 601.58797 141.710472 
L 603.622146 141.434703 
L 605.656323 140.918203 
L 607.690499 139.180286 
L 611.758852 134.245028 
L 613.793028 134.53905 
L 615.827204 134.439568 
L 617.861381 134.524918 
L 619.895557 132.889859 
L 621.929733 131.003545 
L 623.96391 130.745726 
L 628.032262 129.741874 
L 630.066439 127.326396 
L 632.100615 126.991422 
L 634.134792 124.966653 
L 636.168968 122.278688 
L 638.203144 121.968323 
L 640.237321 119.244714 
L 642.271497 117.246719 
L 644.305673 115.94391 
L 646.33985 112.719679 
L 648.374026 112.849147 
L 650.408202 112.35381 
L 652.442379 111.982377 
L 654.476555 112.13238 
L 656.510731 109.957073 
L 658.544908 109.081572 
L 660.579084 109.951788 
L 662.61326 111.961167 
L 664.647437 112.722356 
L 668.715789 112.372202 
L 670.749966 110.520928 
L 672.784142 109.626452 
L 674.818319 107.530978 
L 676.852495 108.070736 
L 678.886671 107.87601 
L 680.920848 106.256968 
L 682.955024 104.830627 
L 684.9892 104.505781 
L 687.023377 104.802969 
L 689.057553 101.940928 
L 691.091729 101.601111 
L 693.125906 100.695997 
L 695.160082 100.304332 
L 697.194258 100.3366 
L 701.262611 99.412208 
L 703.296787 99.400102 
L 705.330964 99.797401 
L 707.36514 97.473139 
L 709.399316 97.241884 
L 711.433493 95.613693 
L 713.467669 95.289195 
L 715.501846 95.287496 
L 717.536022 95.767281 
L 719.570198 95.658044 
L 721.604375 95.285214 
L 723.638551 95.285214 
L 725.672727 94.145352 
L 727.706904 94.202368 
L 729.74108 93.582918 
L 731.775256 93.168879 
L 735.843609 92.705811 
L 737.877785 92.176157 
L 739.911962 92.545634 
L 741.946138 92.079399 
L 743.980314 91.966064 
L 746.014491 91.567113 
L 748.048667 91.508164 
L 750.082843 91.846537 
L 752.11702 91.77469 
L 754.151196 91.149908 
L 756.185373 91.109166 
L 758.219549 91.643522 
L 760.253725 91.590348 
L 762.287902 91.239449 
L 764.322078 91.330386 
L 768.390431 91.093194 
L 780.595489 90.474605 
L 782.629665 90.608148 
L 788.732194 90.418264 
L 790.76637 90.493742 
L 794.834723 90.397264 
L 996.218182 90.397264 
L 996.218182 90.397264 
" style="fill:none;stroke:#1f77b4;stroke-linecap:square;stroke-width:1.5;"/>
   </g>
   <g id="line2d_18">
    <path clip-path="url(#p4a8a1db854)" d="M 184.581818 484.232727 
L 265.948872 484.232726 
L 270.017225 483.802943 
L 274.085578 482.956189 
L 278.15393 482.060812 
L 280.188107 481.879769 
L 282.222283 480.107696 
L 284.256459 478.735378 
L 286.290636 478.539284 
L 288.324812 478.193398 
L 290.358988 478.139933 
L 294.427341 475.954599 
L 298.495694 474.492889 
L 300.52987 473.866051 
L 302.564046 472.190725 
L 304.598223 470.859918 
L 306.632399 469.68815 
L 308.666576 469.145938 
L 310.700752 469.51058 
L 312.734928 468.801213 
L 314.769105 468.996961 
L 316.803281 467.24745 
L 318.837457 465.028632 
L 320.871634 463.84593 
L 322.90581 459.998299 
L 324.939986 458.78034 
L 326.974163 459.458253 
L 329.008339 457.350865 
L 331.042515 456.976737 
L 335.110868 452.544266 
L 339.179221 444.154316 
L 341.213397 443.728631 
L 343.247573 443.436143 
L 345.28175 441.098771 
L 347.315926 436.706461 
L 349.350103 437.321439 
L 351.384279 436.297725 
L 353.418455 434.768896 
L 355.452632 432.562148 
L 357.486808 429.800311 
L 359.520984 425.281338 
L 361.555161 422.113506 
L 363.589337 423.360923 
L 365.623513 419.891206 
L 367.65769 412.615494 
L 369.691866 409.328449 
L 371.726042 405.358797 
L 373.760219 401.860613 
L 375.794395 398.648936 
L 377.828571 391.289946 
L 379.862748 387.00756 
L 381.896924 380.741589 
L 383.9311 378.867324 
L 385.965277 381.529459 
L 387.999453 381.028965 
L 392.067806 373.473141 
L 394.101982 366.529633 
L 396.136159 363.751452 
L 398.170335 362.243289 
L 400.204511 360.109411 
L 402.238688 356.547075 
L 404.272864 351.221572 
L 406.30704 344.959921 
L 408.341217 341.54839 
L 410.375393 334.118916 
L 412.409569 332.295916 
L 414.443746 328.25738 
L 416.477922 325.765597 
L 418.512098 323.816609 
L 420.546275 314.64597 
L 422.580451 314.040826 
L 424.614627 313.953823 
L 426.648804 311.500046 
L 428.68298 309.439203 
L 430.717157 302.561454 
L 432.751333 299.807066 
L 434.785509 299.255563 
L 436.819686 292.176987 
L 438.853862 283.283781 
L 440.888038 281.771648 
L 442.922215 282.062248 
L 444.956391 284.414494 
L 446.990567 280.766353 
L 449.024744 281.115413 
L 451.05892 272.094066 
L 453.093096 262.309971 
L 455.127273 262.922204 
L 457.161449 256.13651 
L 459.195625 254.55863 
L 461.229802 244.195756 
L 465.298154 232.730341 
L 467.332331 229.411634 
L 469.366507 233.841171 
L 471.400684 232.965554 
L 473.43486 230.489404 
L 475.469036 227.508721 
L 477.503213 230.751391 
L 479.537389 228.91781 
L 481.571565 228.514901 
L 483.605742 220.938497 
L 485.639918 226.88799 
L 487.674094 228.540603 
L 489.708271 231.649265 
L 491.742447 233.312751 
L 495.8108 223.27561 
L 497.844976 220.802719 
L 499.879152 218.65854 
L 501.913329 214.59103 
L 503.947505 214.962998 
L 505.981681 210.287818 
L 508.015858 207.124398 
L 510.050034 203.483381 
L 512.084211 214.128263 
L 514.118387 212.62826 
L 516.152563 211.81683 
L 518.18674 208.323791 
L 520.220916 202.709109 
L 522.255092 203.386135 
L 524.289269 206.857336 
L 526.323445 208.089253 
L 528.357621 208.59644 
L 530.391798 208.733498 
L 532.425974 207.64276 
L 534.46015 205.850621 
L 536.494327 205.341128 
L 538.528503 203.713915 
L 540.562679 202.852383 
L 542.596856 202.976706 
L 544.631032 200.722569 
L 546.665208 203.489365 
L 548.699385 202.357791 
L 550.733561 200.897832 
L 552.767738 199.063669 
L 554.801914 195.950467 
L 558.870267 190.4399 
L 560.904443 183.89482 
L 562.938619 183.783069 
L 564.972796 182.511876 
L 567.006972 178.406906 
L 571.075325 171.810001 
L 573.109501 167.46586 
L 575.143677 167.59009 
L 577.177854 165.617891 
L 579.21203 166.369953 
L 581.246206 172.363611 
L 583.280383 171.265563 
L 585.314559 168.224208 
L 587.348735 166.698665 
L 589.382912 165.973702 
L 591.417088 163.534034 
L 593.451265 158.40235 
L 595.485441 157.811559 
L 599.553794 157.609359 
L 603.622146 152.926845 
L 605.656323 152.288001 
L 607.690499 149.652815 
L 609.724675 149.706386 
L 611.758852 142.944974 
L 613.793028 142.865025 
L 615.827204 141.712358 
L 617.861381 137.382815 
L 619.895557 135.346312 
L 623.96391 133.650395 
L 625.998086 129.680365 
L 628.032262 123.610623 
L 630.066439 120.735335 
L 632.100615 118.940774 
L 634.134792 115.570637 
L 636.168968 117.023752 
L 638.203144 116.164176 
L 640.237321 115.815093 
L 642.271497 117.071968 
L 644.305673 117.273818 
L 648.374026 116.979564 
L 650.408202 116.450492 
L 652.442379 113.114509 
L 654.476555 112.848239 
L 656.510731 111.976719 
L 658.544908 112.074176 
L 660.579084 110.594241 
L 662.61326 106.127151 
L 664.647437 105.773854 
L 668.715789 105.789196 
L 670.749966 106.265838 
L 672.784142 106.302879 
L 674.818319 105.557639 
L 676.852495 105.614515 
L 678.886671 106.745088 
L 680.920848 108.549381 
L 682.955024 108.109803 
L 687.023377 106.8191 
L 689.057553 106.244838 
L 691.091729 104.030815 
L 693.125906 103.505864 
L 695.160082 103.627346 
L 697.194258 103.626904 
L 699.228435 101.602182 
L 701.262611 101.541138 
L 703.296787 102.319741 
L 707.36514 101.231099 
L 709.399316 100.647571 
L 711.433493 100.660027 
L 713.467669 97.128038 
L 715.501846 97.380339 
L 717.536022 96.939155 
L 719.570198 95.353406 
L 721.604375 95.019363 
L 723.638551 94.801448 
L 725.672727 94.217827 
L 727.706904 94.217082 
L 729.74108 93.767493 
L 731.775256 93.633159 
L 733.809433 92.739755 
L 737.877785 92.739755 
L 739.911962 92.605002 
L 741.946138 92.790695 
L 743.980314 92.800101 
L 746.014491 92.303739 
L 748.048667 92.334564 
L 750.082843 92.106405 
L 752.11702 91.72985 
L 754.151196 91.958614 
L 756.185373 91.805701 
L 758.219549 91.250205 
L 760.253725 91.301005 
L 762.287902 91.19419 
L 764.322078 90.908386 
L 766.356254 90.456352 
L 768.390431 90.770792 
L 770.424607 90.629613 
L 774.49296 90.721622 
L 776.527136 90.49649 
L 778.561312 90.694289 
L 782.629665 90.683673 
L 784.663841 90.361317 
L 786.698018 90.304697 
L 790.76637 90.397264 
L 996.218182 90.397264 
L 996.218182 90.397264 
" style="fill:none;stroke:#ff7f0e;stroke-linecap:square;stroke-width:1.5;"/>
   </g>
   <g id="line2d_19">
    <path clip-path="url(#p4a8a1db854)" d="M 184.581818 484.232727 
L 265.948872 484.232726 
L 272.051401 483.558572 
L 274.085578 482.956189 
L 276.119754 482.049456 
L 278.15393 481.298653 
L 280.188107 481.423199 
L 282.222283 481.434214 
L 284.256459 480.983968 
L 286.290636 480.970434 
L 288.324812 480.473888 
L 290.358988 480.117504 
L 294.427341 478.372652 
L 296.461517 477.953185 
L 300.52987 473.651229 
L 302.564046 473.76066 
L 304.598223 472.727636 
L 306.632399 472.693372 
L 308.666576 470.969156 
L 310.700752 470.798271 
L 312.734928 468.763094 
L 314.769105 468.393367 
L 316.803281 466.872093 
L 320.871634 464.229055 
L 322.90581 462.292889 
L 324.939986 460.186206 
L 326.974163 457.15936 
L 329.008339 454.826947 
L 331.042515 451.51186 
L 333.076692 451.693211 
L 335.110868 450.642427 
L 337.145044 448.35007 
L 339.179221 447.225931 
L 341.213397 445.236068 
L 343.247573 443.684795 
L 345.28175 444.402037 
L 347.315926 443.926632 
L 349.350103 441.868524 
L 351.384279 438.387737 
L 353.418455 435.600881 
L 355.452632 431.642389 
L 357.486808 429.862141 
L 359.520984 429.210788 
L 363.589337 425.44436 
L 365.623513 422.640785 
L 367.65769 422.294706 
L 369.691866 419.952424 
L 371.726042 416.877695 
L 373.760219 412.104645 
L 375.794395 408.47559 
L 377.828571 402.323623 
L 379.862748 399.710386 
L 381.896924 396.883267 
L 383.9311 394.949739 
L 385.965277 386.68092 
L 387.999453 386.642785 
L 390.03363 381.178956 
L 392.067806 380.699008 
L 394.101982 377.438737 
L 396.136159 376.636852 
L 398.170335 377.554085 
L 400.204511 373.656402 
L 402.238688 369.262788 
L 404.272864 365.828895 
L 408.341217 357.647754 
L 410.375393 351.068555 
L 412.409569 345.072382 
L 414.443746 343.597988 
L 416.477922 336.687109 
L 418.512098 336.276482 
L 420.546275 333.028702 
L 422.580451 332.045873 
L 424.614627 333.096649 
L 426.648804 329.704535 
L 428.68298 327.432878 
L 430.717157 322.921878 
L 432.751333 319.972997 
L 434.785509 314.553345 
L 436.819686 310.223289 
L 438.853862 310.849107 
L 440.888038 310.16015 
L 442.922215 307.775007 
L 444.956391 308.470157 
L 446.990567 309.869725 
L 449.024744 302.177798 
L 451.05892 298.259254 
L 453.093096 295.55597 
L 455.127273 289.464762 
L 457.161449 285.929933 
L 459.195625 282.804159 
L 461.229802 283.869683 
L 463.263978 283.660523 
L 465.298154 280.923131 
L 467.332331 278.945414 
L 469.366507 276.055994 
L 471.400684 275.112908 
L 473.43486 276.052386 
L 475.469036 271.450798 
L 477.503213 268.850884 
L 479.537389 263.586006 
L 481.571565 263.66535 
L 483.605742 258.338636 
L 485.639918 253.851408 
L 487.674094 255.743448 
L 489.708271 252.792239 
L 491.742447 248.002188 
L 493.776623 248.075594 
L 495.8108 243.336227 
L 497.844976 243.731058 
L 499.879152 239.60248 
L 501.913329 237.877368 
L 503.947505 234.324146 
L 505.981681 233.993572 
L 508.015858 232.92246 
L 510.050034 235.289746 
L 512.084211 238.828906 
L 514.118387 239.365777 
L 516.152563 237.53194 
L 518.18674 233.089738 
L 520.220916 230.909961 
L 522.255092 230.808384 
L 524.289269 227.279701 
L 526.323445 222.43999 
L 528.357621 219.02087 
L 530.391798 221.926424 
L 532.425974 217.499121 
L 534.46015 217.887317 
L 536.494327 216.774322 
L 538.528503 215.216883 
L 540.562679 209.551564 
L 542.596856 207.335608 
L 544.631032 204.703378 
L 546.665208 202.454642 
L 548.699385 200.927096 
L 550.733561 197.167484 
L 554.801914 195.703707 
L 556.83609 195.884976 
L 558.870267 195.175682 
L 560.904443 190.070493 
L 564.972796 188.601337 
L 567.006972 185.608687 
L 569.041148 180.979488 
L 571.075325 179.359515 
L 573.109501 178.897423 
L 575.143677 174.972396 
L 577.177854 172.953029 
L 579.21203 171.524732 
L 581.246206 167.82975 
L 583.280383 167.724145 
L 585.314559 166.502192 
L 587.348735 166.045502 
L 589.382912 157.686863 
L 591.417088 157.215948 
L 593.451265 157.699365 
L 595.485441 157.204797 
L 597.519617 153.348589 
L 599.553794 146.828746 
L 601.58797 149.070219 
L 603.622146 149.18211 
L 605.656323 149.41255 
L 607.690499 144.065209 
L 609.724675 142.759397 
L 611.758852 142.489238 
L 613.793028 141.790793 
L 615.827204 140.506935 
L 617.861381 139.954908 
L 619.895557 137.984339 
L 621.929733 136.178509 
L 623.96391 134.832327 
L 625.998086 130.973326 
L 628.032262 129.372676 
L 630.066439 126.9399 
L 632.100615 122.431182 
L 634.134792 119.862581 
L 636.168968 116.777504 
L 638.203144 116.055498 
L 640.237321 115.684065 
L 642.271497 113.192083 
L 644.305673 113.037122 
L 646.33985 113.090413 
L 648.374026 112.212188 
L 650.408202 111.609361 
L 652.442379 109.961031 
L 654.476555 108.730394 
L 656.510731 108.730394 
L 658.544908 108.980903 
L 660.579084 108.822147 
L 662.61326 106.143215 
L 664.647437 104.812817 
L 666.681613 106.09877 
L 668.715789 105.714765 
L 670.749966 110.15457 
L 672.784142 109.412286 
L 674.818319 108.33121 
L 680.920848 108.005502 
L 682.955024 108.625465 
L 684.9892 108.952104 
L 687.023377 108.951452 
L 689.057553 108.229912 
L 691.091729 104.464782 
L 693.125906 103.994263 
L 695.160082 103.994263 
L 697.194258 102.452655 
L 699.228435 102.348308 
L 701.262611 101.310325 
L 703.296787 98.598427 
L 705.330964 98.217239 
L 707.36514 98.613537 
L 713.467669 98.49671 
L 715.501846 98.228251 
L 717.536022 98.228251 
L 719.570198 99.022313 
L 721.604375 98.469401 
L 723.638551 98.448168 
L 725.672727 97.896653 
L 727.706904 98.375739 
L 729.74108 98.610347 
L 731.775256 99.260087 
L 733.809433 97.840312 
L 735.843609 97.215599 
L 739.911962 96.356512 
L 741.946138 95.670965 
L 743.980314 95.483782 
L 746.014491 95.61027 
L 748.048667 94.982298 
L 750.082843 94.746224 
L 752.11702 93.005117 
L 756.185373 91.482508 
L 758.219549 91.237214 
L 762.287902 90.320528 
L 766.356254 90.359595 
L 768.390431 90.207659 
L 770.424607 90.397636 
L 772.458783 90.372399 
L 774.49296 90.830859 
L 776.527136 90.605726 
L 780.595489 90.550037 
L 782.629665 90.247797 
L 788.732194 90.397264 
L 996.218182 90.397264 
L 996.218182 90.397264 
" style="fill:none;stroke:#2ca02c;stroke-linecap:square;stroke-width:1.5;"/>
   </g>
   <g id="line2d_20">
    <path clip-path="url(#p4a8a1db854)" d="M 184.581818 484.232727 
L 265.948872 484.232726 
L 267.983049 484.037 
L 270.017225 483.569312 
L 272.051401 483.34162 
L 276.119754 482.542657 
L 278.15393 482.060812 
L 280.188107 481.879769 
L 282.222283 480.51226 
L 284.256459 480.300843 
L 286.290636 478.539284 
L 288.324812 478.193398 
L 290.358988 477.403881 
L 292.393165 477.087724 
L 296.461517 475.214842 
L 298.495694 474.577484 
L 300.52987 472.954215 
L 302.564046 472.190725 
L 304.598223 470.859918 
L 306.632399 471.724224 
L 308.666576 470.90153 
L 310.700752 469.51058 
L 312.734928 468.801213 
L 314.769105 466.160219 
L 316.803281 464.424046 
L 318.837457 463.602087 
L 320.871634 462.03244 
L 322.90581 462.399543 
L 324.939986 458.78034 
L 326.974163 459.458253 
L 329.008339 459.078197 
L 331.042515 456.939029 
L 333.076692 454.091572 
L 335.110868 451.914923 
L 337.145044 451.570078 
L 339.179221 447.172416 
L 341.213397 443.728631 
L 343.247573 443.436143 
L 345.28175 444.000961 
L 347.315926 442.581616 
L 349.350103 441.470318 
L 351.384279 437.8954 
L 353.418455 435.081613 
L 355.452632 432.562148 
L 357.486808 427.149421 
L 359.520984 425.780825 
L 361.555161 423.818113 
L 363.589337 419.652861 
L 369.691866 409.121791 
L 371.726042 406.231358 
L 373.760219 400.045989 
L 375.794395 396.162245 
L 377.828571 398.89434 
L 379.862748 395.017325 
L 381.896924 393.02582 
L 385.965277 385.337042 
L 387.999453 377.905321 
L 390.03363 377.386877 
L 392.067806 373.473141 
L 394.101982 366.529633 
L 396.136159 364.314376 
L 398.170335 360.973097 
L 400.204511 359.152472 
L 402.238688 354.19732 
L 404.272864 351.221572 
L 406.30704 344.959921 
L 408.341217 342.104294 
L 410.375393 332.905077 
L 412.409569 330.973458 
L 414.443746 328.07398 
L 416.477922 326.675018 
L 418.512098 326.80763 
L 420.546275 318.381195 
L 422.580451 316.073545 
L 424.614627 314.046623 
L 426.648804 313.660709 
L 428.68298 307.769361 
L 430.717157 304.982578 
L 432.751333 302.779659 
L 434.785509 295.407597 
L 436.819686 292.176987 
L 438.853862 292.253676 
L 440.888038 292.771468 
L 442.922215 290.473724 
L 444.956391 292.854921 
L 446.990567 284.683837 
L 449.024744 274.908496 
L 451.05892 265.764828 
L 453.093096 254.724953 
L 455.127273 255.770571 
L 457.161449 254.242118 
L 459.195625 247.813724 
L 461.229802 241.902878 
L 463.263978 246.667669 
L 465.298154 243.582429 
L 467.332331 242.349254 
L 469.366507 235.739731 
L 471.400684 231.518959 
L 473.43486 230.489404 
L 475.469036 227.508721 
L 477.503213 226.137045 
L 479.537389 228.91781 
L 481.571565 228.514901 
L 483.605742 234.162223 
L 485.639918 236.842552 
L 487.674094 230.188677 
L 489.708271 231.649265 
L 491.742447 226.887268 
L 493.776623 228.389786 
L 495.8108 223.27561 
L 497.844976 220.802719 
L 499.879152 216.712346 
L 501.913329 214.59103 
L 503.947505 211.785633 
L 505.981681 207.033763 
L 508.015858 207.124398 
L 510.050034 203.483381 
L 512.084211 214.128263 
L 514.118387 213.214092 
L 516.152563 207.450292 
L 518.18674 206.239235 
L 520.220916 209.701706 
L 522.255092 209.594099 
L 524.289269 206.857336 
L 526.323445 208.089253 
L 528.357621 208.59644 
L 530.391798 208.733498 
L 532.425974 206.408352 
L 534.46015 205.486405 
L 536.494327 205.334004 
L 538.528503 205.33724 
L 540.562679 204.641869 
L 542.596856 202.976706 
L 544.631032 200.722569 
L 546.665208 203.489365 
L 548.699385 202.357791 
L 550.733561 200.407873 
L 554.801914 194.57183 
L 556.83609 193.12407 
L 558.870267 190.4399 
L 560.904443 183.89482 
L 562.938619 183.783069 
L 564.972796 182.511876 
L 567.006972 178.406906 
L 569.041148 183.236442 
L 571.075325 180.204749 
L 573.109501 177.607745 
L 575.143677 173.656922 
L 577.177854 173.638785 
L 579.21203 172.227834 
L 581.246206 171.055121 
L 583.280383 167.771872 
L 585.314559 168.224208 
L 587.348735 167.527183 
L 589.382912 165.973702 
L 591.417088 161.103702 
L 593.451265 161.093738 
L 595.485441 158.277794 
L 597.519617 157.751493 
L 599.553794 154.503305 
L 601.58797 154.585209 
L 603.622146 151.727988 
L 605.656323 151.765704 
L 607.690499 149.652815 
L 609.724675 143.149897 
L 611.758852 141.198675 
L 613.793028 136.851671 
L 617.861381 134.917304 
L 619.895557 134.955719 
L 621.929733 131.03146 
L 623.96391 130.39073 
L 625.998086 126.310764 
L 628.032262 125.844878 
L 630.066439 122.46515 
L 632.100615 117.510684 
L 634.134792 118.969084 
L 636.168968 119.943554 
L 638.203144 118.021876 
L 642.271497 116.882806 
L 644.305673 117.163231 
L 646.33985 113.771071 
L 648.374026 113.428647 
L 650.408202 113.302182 
L 652.442379 113.407949 
L 654.476555 113.195226 
L 656.510731 112.322077 
L 658.544908 107.963106 
L 660.579084 106.552271 
L 664.647437 105.644106 
L 666.681613 105.791827 
L 668.715789 106.268446 
L 670.749966 107.401254 
L 674.818319 107.434616 
L 676.852495 107.513633 
L 678.886671 109.258721 
L 682.955024 107.940081 
L 684.9892 107.500619 
L 689.057553 106.098491 
L 691.091729 106.92978 
L 695.160082 105.763913 
L 697.194258 103.729017 
L 699.228435 103.742171 
L 701.262611 101.532687 
L 703.296787 101.015139 
L 705.330964 97.715849 
L 707.36514 97.715849 
L 709.399316 97.834817 
L 711.433493 97.241512 
L 713.467669 97.502357 
L 715.501846 97.158792 
L 717.536022 96.939155 
L 719.570198 95.353406 
L 723.638551 94.801448 
L 725.672727 94.217827 
L 727.706904 93.76761 
L 729.74108 93.633252 
L 731.775256 93.633159 
L 733.809433 92.739755 
L 735.843609 92.970521 
L 741.946138 93.000042 
L 743.980314 92.800101 
L 746.014491 92.303739 
L 748.048667 92.334564 
L 750.082843 91.952701 
L 754.151196 91.49643 
L 756.185373 91.805701 
L 758.219549 91.83918 
L 760.253725 91.301005 
L 762.287902 91.19419 
L 764.322078 90.908386 
L 766.356254 91.264127 
L 768.390431 91.269063 
L 772.458783 90.746021 
L 774.49296 90.721622 
L 776.527136 90.49649 
L 778.561312 90.694289 
L 780.595489 90.360991 
L 996.218182 90.397264 
L 996.218182 90.397264 
" style="fill:none;stroke:#d62728;stroke-dasharray:5.55,2.4;stroke-dashoffset:0;stroke-width:1.5;"/>
   </g>
   <g id="line2d_21">
    <path clip-path="url(#p4a8a1db854)" d="M 184.581818 484.232727 
L 265.948872 484.232726 
L 270.017225 483.794717 
L 276.119754 482.049456 
L 280.188107 482.123146 
L 282.222283 481.434214 
L 284.256459 481.452042 
L 290.358988 480.117504 
L 292.393165 479.300673 
L 294.427341 478.194866 
L 296.461517 477.326869 
L 298.495694 475.94782 
L 300.52987 476.133932 
L 302.564046 475.251519 
L 304.598223 472.575442 
L 306.632399 472.693893 
L 308.666576 471.57899 
L 312.734928 469.878784 
L 314.769105 468.354039 
L 316.803281 466.287347 
L 318.837457 465.431598 
L 320.871634 463.29518 
L 322.90581 461.658403 
L 324.939986 457.728016 
L 326.974163 457.186745 
L 329.008339 454.451867 
L 331.042515 452.263768 
L 333.076692 451.466222 
L 335.110868 451.761754 
L 337.145044 450.933795 
L 339.179221 449.478329 
L 341.213397 446.455436 
L 343.247573 444.623511 
L 345.28175 443.255613 
L 347.315926 440.704365 
L 349.350103 439.760301 
L 351.384279 439.380661 
L 353.418455 437.712405 
L 355.452632 436.891037 
L 357.486808 433.073322 
L 359.520984 431.379902 
L 361.555161 427.44856 
L 363.589337 425.44436 
L 365.623513 424.944891 
L 367.65769 422.92759 
L 369.691866 420.694865 
L 373.760219 411.289147 
L 375.794395 408.566975 
L 377.828571 406.097961 
L 379.862748 399.710386 
L 381.896924 399.662752 
L 383.9311 391.475028 
L 385.965277 388.825216 
L 387.999453 387.165699 
L 390.03363 382.918921 
L 392.067806 382.107003 
L 394.101982 375.981723 
L 396.136159 373.757723 
L 398.170335 369.981231 
L 400.204511 368.948604 
L 402.238688 362.148184 
L 404.272864 359.367162 
L 406.30704 359.930284 
L 408.341217 353.465315 
L 410.375393 347.571639 
L 412.409569 342.500231 
L 414.443746 342.367352 
L 416.477922 341.770193 
L 418.512098 338.58064 
L 420.546275 339.416515 
L 422.580451 335.603681 
L 424.614627 333.670049 
L 426.648804 333.226664 
L 428.68298 328.888832 
L 430.717157 329.638811 
L 432.751333 327.285017 
L 434.785509 323.422512 
L 436.819686 320.166606 
L 440.888038 309.927393 
L 442.922215 312.095424 
L 444.956391 305.344919 
L 446.990567 305.15961 
L 451.05892 300.464408 
L 453.093096 297.022029 
L 455.127273 294.185388 
L 457.161449 291.634493 
L 459.195625 284.810186 
L 461.229802 281.990983 
L 463.263978 281.756632 
L 465.298154 280.163828 
L 467.332331 279.934203 
L 469.366507 277.1719 
L 471.400684 276.264527 
L 473.43486 276.889239 
L 475.469036 275.871977 
L 477.503213 270.316873 
L 479.537389 271.72992 
L 481.571565 267.700312 
L 483.605742 265.425617 
L 485.639918 260.354302 
L 487.674094 255.985296 
L 489.708271 252.951811 
L 491.742447 247.999813 
L 493.776623 242.686161 
L 495.8108 239.660335 
L 497.844976 239.51422 
L 499.879152 239.932635 
L 501.913329 237.796814 
L 503.947505 239.61887 
L 505.981681 237.83325 
L 508.015858 235.67126 
L 510.050034 239.63561 
L 512.084211 240.358337 
L 514.118387 239.365777 
L 516.152563 234.797063 
L 518.18674 232.503393 
L 520.220916 230.909961 
L 522.255092 230.808384 
L 524.289269 227.279701 
L 526.323445 229.424159 
L 528.357621 225.34438 
L 530.391798 220.224034 
L 534.46015 214.183138 
L 536.494327 214.238827 
L 538.528503 213.165573 
L 540.562679 210.43966 
L 542.596856 209.125582 
L 544.631032 204.703378 
L 546.665208 203.158535 
L 548.699385 199.379738 
L 550.733561 198.343735 
L 552.767738 197.57796 
L 554.801914 191.638012 
L 556.83609 186.383402 
L 558.870267 187.475467 
L 560.904443 187.027415 
L 562.938619 183.277651 
L 564.972796 181.343517 
L 567.006972 181.028612 
L 569.041148 180.195181 
L 571.075325 180.249357 
L 573.109501 178.815961 
L 575.143677 177.740077 
L 577.177854 173.619206 
L 579.21203 176.891699 
L 581.246206 174.939197 
L 583.280383 174.607715 
L 585.314559 166.852462 
L 587.348735 165.874872 
L 589.382912 163.98062 
L 591.417088 156.975963 
L 593.451265 156.785613 
L 595.485441 152.883285 
L 597.519617 153.086696 
L 599.553794 153.098709 
L 601.58797 153.470468 
L 603.622146 152.336962 
L 605.656323 149.54132 
L 607.690499 144.514659 
L 609.724675 141.547525 
L 611.758852 141.253363 
L 613.793028 140.564231 
L 615.827204 136.087898 
L 617.861381 135.720888 
L 619.895557 134.554951 
L 621.929733 133.07348 
L 623.96391 132.322163 
L 625.998086 128.468609 
L 628.032262 126.519273 
L 630.066439 124.201879 
L 632.100615 121.50977 
L 634.134792 119.862581 
L 636.168968 119.072687 
L 638.203144 116.508975 
L 640.237321 116.165969 
L 642.271497 113.192083 
L 644.305673 115.203721 
L 646.33985 114.869515 
L 648.374026 114.998239 
L 650.408202 113.992245 
L 652.442379 113.763132 
L 654.476555 112.735859 
L 656.510731 112.129539 
L 658.544908 110.62176 
L 660.579084 110.288066 
L 662.61326 108.852413 
L 664.647437 106.01349 
L 666.681613 109.605616 
L 668.715789 109.998328 
L 670.749966 108.965328 
L 672.784142 109.624148 
L 674.818319 109.698928 
L 676.852495 109.091909 
L 678.886671 109.091909 
L 680.920848 108.942745 
L 682.955024 108.991659 
L 684.9892 108.637315 
L 687.023377 108.951452 
L 689.057553 108.229912 
L 691.091729 104.464782 
L 693.125906 104.464782 
L 695.160082 105.815341 
L 697.194258 106.02725 
L 699.228435 104.339248 
L 701.262611 101.622065 
L 703.296787 101.284157 
L 705.330964 101.239247 
L 707.36514 99.9803 
L 709.399316 99.854091 
L 711.433493 99.175901 
L 713.467669 99.88615 
L 715.501846 99.358917 
L 721.604375 99.328069 
L 725.672727 98.43988 
L 727.706904 97.78106 
L 729.74108 96.273933 
L 731.775256 96.207441 
L 733.809433 96.832223 
L 735.843609 96.941809 
L 737.877785 96.539039 
L 739.911962 95.536142 
L 741.946138 96.136735 
L 743.980314 95.778642 
L 746.014491 95.61027 
L 748.048667 93.005816 
L 750.082843 92.860027 
L 752.11702 92.510525 
L 754.151196 91.823116 
L 762.287902 90.43349 
L 768.390431 90.207659 
L 770.424607 90.397636 
L 772.458783 90.855816 
L 774.49296 90.830859 
L 776.527136 90.605726 
L 780.595489 90.550037 
L 782.629665 90.247797 
L 788.732194 90.397264 
L 996.218182 90.397264 
L 996.218182 90.397264 
" style="fill:none;stroke:#9467bd;stroke-dasharray:5.55,2.4;stroke-dashoffset:0;stroke-width:1.5;"/>
   </g>
   <g id="line2d_22">
    <path clip-path="url(#p4a8a1db854)" d="M 184.581818 484.232727 
L 265.948872 484.232726 
L 267.983049 483.261795 
L 270.017225 483.440323 
L 272.051401 479.220033 
L 274.085578 478.420412 
L 276.119754 478.680558 
L 278.15393 473.988535 
L 280.188107 471.816701 
L 282.222283 467.145482 
L 284.256459 468.004694 
L 286.290636 469.507968 
L 288.324812 463.448117 
L 290.358988 463.033815 
L 292.393165 459.954781 
L 294.427341 450.685585 
L 296.461517 443.592147 
L 298.495694 444.967807 
L 300.52987 449.466673 
L 302.564046 448.21011 
L 304.598223 439.413892 
L 306.632399 440.332536 
L 308.666576 437.853223 
L 310.700752 431.41217 
L 312.734928 429.171495 
L 314.769105 427.832413 
L 316.803281 424.409242 
L 318.837457 416.076154 
L 320.871634 415.184042 
L 322.90581 409.516977 
L 324.939986 409.1839 
L 326.974163 387.529577 
L 329.008339 377.393268 
L 331.042515 374.000002 
L 333.076692 367.543694 
L 335.110868 371.097544 
L 337.145044 363.870211 
L 339.179221 360.982258 
L 341.213397 362.519151 
L 343.247573 355.383477 
L 345.28175 352.715383 
L 347.315926 355.769624 
L 349.350103 354.897185 
L 351.384279 340.803848 
L 355.452632 334.649711 
L 357.486808 315.227146 
L 359.520984 313.054237 
L 361.555161 308.98625 
L 365.623513 301.628692 
L 367.65769 291.448637 
L 369.691866 279.586307 
L 371.726042 272.212499 
L 373.760219 263.207379 
L 375.794395 259.256882 
L 377.828571 257.95207 
L 379.862748 247.912601 
L 383.9311 234.827981 
L 385.965277 232.105792 
L 387.999453 220.050587 
L 390.03363 217.982329 
L 392.067806 205.186795 
L 394.101982 190.660446 
L 396.136159 190.409145 
L 398.170335 188.282776 
L 400.204511 181.301703 
L 402.238688 180.917047 
L 406.30704 177.168609 
L 408.341217 171.113558 
L 410.375393 173.085151 
L 412.409569 168.803731 
L 414.443746 145.159416 
L 416.477922 141.71315 
L 418.512098 133.799723 
L 420.546275 132.358412 
L 424.614627 132.382764 
L 426.648804 126.045727 
L 428.68298 122.917998 
L 430.717157 122.827061 
L 432.751333 122.60435 
L 434.785509 122.851809 
L 436.819686 123.285124 
L 438.853862 122.595386 
L 440.888038 122.460912 
L 442.922215 122.563421 
L 444.956391 122.406713 
L 446.990567 122.525006 
L 449.024744 122.291935 
L 451.05892 115.242205 
L 453.093096 114.331782 
L 455.127273 114.381186 
L 457.161449 114.002466 
L 461.229802 112.269508 
L 463.263978 111.119192 
L 465.298154 112.458088 
L 467.332331 112.351621 
L 469.366507 114.506301 
L 471.400684 110.252958 
L 473.43486 107.204246 
L 475.469036 107.670085 
L 477.503213 107.637375 
L 479.537389 104.745068 
L 481.571565 104.374892 
L 483.605742 104.489181 
L 485.639918 104.195252 
L 487.674094 103.681662 
L 489.708271 103.00019 
L 491.742447 102.553534 
L 493.776623 101.897229 
L 497.844976 102.270128 
L 499.879152 101.873551 
L 501.913329 101.70043 
L 503.947505 98.805819 
L 508.015858 97.474885 
L 510.050034 97.511065 
L 512.084211 97.154928 
L 514.118387 97.443083 
L 520.220916 97.371911 
L 524.289269 96.98602 
L 528.357621 96.749061 
L 530.391798 96.724662 
L 532.425974 97.434981 
L 534.46015 98.007124 
L 536.494327 97.973179 
L 538.528503 97.449695 
L 540.562679 97.841778 
L 544.631032 97.823549 
L 546.665208 97.371818 
L 548.699385 96.013599 
L 554.801914 96.021747 
L 556.83609 95.837428 
L 558.870267 95.331591 
L 562.938619 95.591179 
L 564.972796 95.46376 
L 567.006972 96.479648 
L 569.041148 95.91563 
L 571.075325 95.858591 
L 573.109501 95.346607 
L 575.143677 95.670197 
L 577.177854 95.305236 
L 579.21203 96.052572 
L 583.280383 95.984311 
L 585.314559 97.382481 
L 589.382912 97.198697 
L 597.519617 97.853885 
L 599.553794 97.009302 
L 607.690499 96.861371 
L 609.724675 96.041793 
L 613.793028 95.723698 
L 615.827204 96.360051 
L 619.895557 96.322428 
L 621.929733 96.101254 
L 623.96391 94.881071 
L 625.998086 94.966071 
L 628.032262 94.925538 
L 630.066439 95.121289 
L 632.100615 94.730486 
L 634.134792 95.129787 
L 636.168968 95.671757 
L 638.203144 95.654016 
L 640.237321 95.469254 
L 642.271497 95.455285 
L 644.305673 95.018804 
L 646.33985 95.066391 
L 648.374026 94.486123 
L 650.408202 93.622915 
L 654.476555 93.570485 
L 656.510731 92.825338 
L 658.544908 92.665906 
L 672.784142 92.546612 
L 674.818319 92.027527 
L 676.852495 91.250764 
L 680.920848 91.550443 
L 682.955024 91.37518 
L 684.9892 91.349244 
L 689.057553 90.623933 
L 691.091729 90.814515 
L 697.194258 90.711424 
L 699.228435 90.621046 
L 701.262611 90.812885 
L 703.296787 90.766322 
L 705.330964 90.183586 
L 709.399316 89.756045 
L 711.433493 90.064944 
L 719.570198 90.025971 
L 721.604375 89.645225 
L 725.672727 89.717491 
L 729.74108 89.638753 
L 731.775256 89.249533 
L 735.843609 89.183087 
L 737.877785 89.521414 
L 739.911962 89.328736 
L 748.048667 89.411619 
L 754.151196 88.887273 
L 756.185373 89.343078 
L 760.253725 89.343078 
L 762.287902 89.566301 
L 766.356254 89.516339 
L 770.424607 89.892381 
L 774.49296 89.986392 
L 780.595489 89.889401 
L 782.629665 90.182003 
L 784.663841 90.179908 
L 786.698018 90.397264 
L 996.218182 90.397264 
L 996.218182 90.397264 
" style="fill:none;stroke:#8c564b;stroke-dasharray:5.55,2.4;stroke-dashoffset:0;stroke-width:1.5;"/>
   </g>
   <g id="patch_3">
    <path d="M 144 504 
L 144 69.12 
" style="fill:none;stroke:#000000;stroke-linecap:square;stroke-linejoin:miter;stroke-width:0.8;"/>
   </g>
   <g id="patch_4">
    <path d="M 1036.8 504 
L 1036.8 69.12 
" style="fill:none;stroke:#000000;stroke-linecap:square;stroke-linejoin:miter;stroke-width:0.8;"/>
   </g>
   <g id="patch_5">
    <path d="M 144 504 
L 1036.8 504 
" style="fill:none;stroke:#000000;stroke-linecap:square;stroke-linejoin:miter;stroke-width:0.8;"/>
   </g>
   <g id="patch_6">
    <path d="M 144 69.12 
L 1036.8 69.12 
" style="fill:none;stroke:#000000;stroke-linecap:square;stroke-linejoin:miter;stroke-width:0.8;"/>
   </g>
   <g id="legend_1">
    <g id="patch_7">
     <path d="M 151 166.579375 
L 275.432813 166.579375 
Q 277.432813 166.579375 277.432813 164.579375 
L 277.432813 76.12 
Q 277.432813 74.12 275.432813 74.12 
L 151 74.12 
Q 149 74.12 149 76.12 
L 149 164.579375 
Q 149 166.579375 151 166.579375 
z
" style="fill:#ffffff;opacity:0.8;stroke:#cccccc;stroke-linejoin:miter;"/>
    </g>
    <g id="line2d_23">
     <path d="M 153 82.218438 
L 173 82.218438 
" style="fill:none;stroke:#1f77b4;stroke-linecap:square;stroke-width:1.5;"/>
    </g>
    <g id="line2d_24"/>
    <g id="text_19">
     <!-- taylorfo -->
     <defs>
      <path d="M 32.171875 -5.078125 
Q 28.375 -14.84375 24.75 -17.8125 
Q 21.140625 -20.796875 15.09375 -20.796875 
L 7.90625 -20.796875 
L 7.90625 -13.28125 
L 13.1875 -13.28125 
Q 16.890625 -13.28125 18.9375 -11.515625 
Q 21 -9.765625 23.484375 -3.21875 
L 25.09375 0.875 
L 2.984375 54.6875 
L 12.5 54.6875 
L 29.59375 11.921875 
L 46.6875 54.6875 
L 56.203125 54.6875 
z
" id="DejaVuSans-121"/>
      <path d="M 9.421875 75.984375 
L 18.40625 75.984375 
L 18.40625 0 
L 9.421875 0 
z
" id="DejaVuSans-108"/>
     </defs>
     <g transform="translate(181 85.718438)scale(0.1 -0.1)">
      <use xlink:href="#DejaVuSans-116"/>
      <use x="39.208984" xlink:href="#DejaVuSans-97"/>
      <use x="100.488281" xlink:href="#DejaVuSans-121"/>
      <use x="159.667969" xlink:href="#DejaVuSans-108"/>
      <use x="187.451172" xlink:href="#DejaVuSans-111"/>
      <use x="248.632812" xlink:href="#DejaVuSans-114"/>
      <use x="289.746094" xlink:href="#DejaVuSans-102"/>
      <use x="324.951172" xlink:href="#DejaVuSans-111"/>
     </g>
    </g>
    <g id="line2d_25">
     <path d="M 153 96.896563 
L 173 96.896563 
" style="fill:none;stroke:#ff7f0e;stroke-linecap:square;stroke-width:1.5;"/>
    </g>
    <g id="line2d_26"/>
    <g id="text_20">
     <!-- taylorfo_abs -->
     <defs>
      <path d="M 50.984375 -16.609375 
L 50.984375 -23.578125 
L -0.984375 -23.578125 
L -0.984375 -16.609375 
z
" id="DejaVuSans-95"/>
     </defs>
     <g transform="translate(181 100.396563)scale(0.1 -0.1)">
      <use xlink:href="#DejaVuSans-116"/>
      <use x="39.208984" xlink:href="#DejaVuSans-97"/>
      <use x="100.488281" xlink:href="#DejaVuSans-121"/>
      <use x="159.667969" xlink:href="#DejaVuSans-108"/>
      <use x="187.451172" xlink:href="#DejaVuSans-111"/>
      <use x="248.632812" xlink:href="#DejaVuSans-114"/>
      <use x="289.746094" xlink:href="#DejaVuSans-102"/>
      <use x="324.951172" xlink:href="#DejaVuSans-111"/>
      <use x="386.132812" xlink:href="#DejaVuSans-95"/>
      <use x="436.132812" xlink:href="#DejaVuSans-97"/>
      <use x="497.412109" xlink:href="#DejaVuSans-98"/>
      <use x="560.888672" xlink:href="#DejaVuSans-115"/>
     </g>
    </g>
    <g id="line2d_27">
     <path d="M 153 111.852813 
L 173 111.852813 
" style="fill:none;stroke:#2ca02c;stroke-linecap:square;stroke-width:1.5;"/>
    </g>
    <g id="line2d_28"/>
    <g id="text_21">
     <!-- taylorfo_sq -->
     <g transform="translate(181 115.352813)scale(0.1 -0.1)">
      <use xlink:href="#DejaVuSans-116"/>
      <use x="39.208984" xlink:href="#DejaVuSans-97"/>
      <use x="100.488281" xlink:href="#DejaVuSans-121"/>
      <use x="159.667969" xlink:href="#DejaVuSans-108"/>
      <use x="187.451172" xlink:href="#DejaVuSans-111"/>
      <use x="248.632812" xlink:href="#DejaVuSans-114"/>
      <use x="289.746094" xlink:href="#DejaVuSans-102"/>
      <use x="324.951172" xlink:href="#DejaVuSans-111"/>
      <use x="386.132812" xlink:href="#DejaVuSans-95"/>
      <use x="436.132812" xlink:href="#DejaVuSans-115"/>
      <use x="488.232422" xlink:href="#DejaVuSans-113"/>
     </g>
    </g>
    <g id="line2d_29">
     <path d="M 153 126.809063 
L 173 126.809063 
" style="fill:none;stroke:#d62728;stroke-dasharray:5.55,2.4;stroke-dashoffset:0;stroke-width:1.5;"/>
    </g>
    <g id="line2d_30"/>
    <g id="text_22">
     <!-- taylorfo_abs_norm -->
     <g transform="translate(181 130.309063)scale(0.1 -0.1)">
      <use xlink:href="#DejaVuSans-116"/>
      <use x="39.208984" xlink:href="#DejaVuSans-97"/>
      <use x="100.488281" xlink:href="#DejaVuSans-121"/>
      <use x="159.667969" xlink:href="#DejaVuSans-108"/>
      <use x="187.451172" xlink:href="#DejaVuSans-111"/>
      <use x="248.632812" xlink:href="#DejaVuSans-114"/>
      <use x="289.746094" xlink:href="#DejaVuSans-102"/>
      <use x="324.951172" xlink:href="#DejaVuSans-111"/>
      <use x="386.132812" xlink:href="#DejaVuSans-95"/>
      <use x="436.132812" xlink:href="#DejaVuSans-97"/>
      <use x="497.412109" xlink:href="#DejaVuSans-98"/>
      <use x="560.888672" xlink:href="#DejaVuSans-115"/>
      <use x="612.988281" xlink:href="#DejaVuSans-95"/>
      <use x="662.988281" xlink:href="#DejaVuSans-110"/>
      <use x="726.367188" xlink:href="#DejaVuSans-111"/>
      <use x="787.548828" xlink:href="#DejaVuSans-114"/>
      <use x="826.912109" xlink:href="#DejaVuSans-109"/>
     </g>
    </g>
    <g id="line2d_31">
     <path d="M 153 141.765313 
L 173 141.765313 
" style="fill:none;stroke:#9467bd;stroke-dasharray:5.55,2.4;stroke-dashoffset:0;stroke-width:1.5;"/>
    </g>
    <g id="line2d_32"/>
    <g id="text_23">
     <!-- taylorfo_sq_norm -->
     <g transform="translate(181 145.265313)scale(0.1 -0.1)">
      <use xlink:href="#DejaVuSans-116"/>
      <use x="39.208984" xlink:href="#DejaVuSans-97"/>
      <use x="100.488281" xlink:href="#DejaVuSans-121"/>
      <use x="159.667969" xlink:href="#DejaVuSans-108"/>
      <use x="187.451172" xlink:href="#DejaVuSans-111"/>
      <use x="248.632812" xlink:href="#DejaVuSans-114"/>
      <use x="289.746094" xlink:href="#DejaVuSans-102"/>
      <use x="324.951172" xlink:href="#DejaVuSans-111"/>
      <use x="386.132812" xlink:href="#DejaVuSans-95"/>
      <use x="436.132812" xlink:href="#DejaVuSans-115"/>
      <use x="488.232422" xlink:href="#DejaVuSans-113"/>
      <use x="551.708984" xlink:href="#DejaVuSans-95"/>
      <use x="601.708984" xlink:href="#DejaVuSans-110"/>
      <use x="665.087891" xlink:href="#DejaVuSans-111"/>
      <use x="726.269531" xlink:href="#DejaVuSans-114"/>
      <use x="765.632812" xlink:href="#DejaVuSans-109"/>
     </g>
    </g>
    <g id="line2d_33">
     <path d="M 153 156.721563 
L 173 156.721563 
" style="fill:none;stroke:#8c564b;stroke-dasharray:5.55,2.4;stroke-dashoffset:0;stroke-width:1.5;"/>
    </g>
    <g id="line2d_34"/>
    <g id="text_24">
     <!-- Molchanov_group -->
     <defs>
      <path d="M 9.8125 72.90625 
L 24.515625 72.90625 
L 43.109375 23.296875 
L 61.8125 72.90625 
L 76.515625 72.90625 
L 76.515625 0 
L 66.890625 0 
L 66.890625 64.015625 
L 48.09375 14.015625 
L 38.1875 14.015625 
L 19.390625 64.015625 
L 19.390625 0 
L 9.8125 0 
z
" id="DejaVuSans-77"/>
      <path d="M 48.78125 52.59375 
L 48.78125 44.1875 
Q 44.96875 46.296875 41.140625 47.34375 
Q 37.3125 48.390625 33.40625 48.390625 
Q 24.65625 48.390625 19.8125 42.84375 
Q 14.984375 37.3125 14.984375 27.296875 
Q 14.984375 17.28125 19.8125 11.734375 
Q 24.65625 6.203125 33.40625 6.203125 
Q 37.3125 6.203125 41.140625 7.25 
Q 44.96875 8.296875 48.78125 10.40625 
L 48.78125 2.09375 
Q 45.015625 0.34375 40.984375 -0.53125 
Q 36.96875 -1.421875 32.421875 -1.421875 
Q 20.0625 -1.421875 12.78125 6.34375 
Q 5.515625 14.109375 5.515625 27.296875 
Q 5.515625 40.671875 12.859375 48.328125 
Q 20.21875 56 33.015625 56 
Q 37.15625 56 41.109375 55.140625 
Q 45.0625 54.296875 48.78125 52.59375 
z
" id="DejaVuSans-99"/>
      <path d="M 54.890625 33.015625 
L 54.890625 0 
L 45.90625 0 
L 45.90625 32.71875 
Q 45.90625 40.484375 42.875 44.328125 
Q 39.84375 48.1875 33.796875 48.1875 
Q 26.515625 48.1875 22.3125 43.546875 
Q 18.109375 38.921875 18.109375 30.90625 
L 18.109375 0 
L 9.078125 0 
L 9.078125 75.984375 
L 18.109375 75.984375 
L 18.109375 46.1875 
Q 21.34375 51.125 25.703125 53.5625 
Q 30.078125 56 35.796875 56 
Q 45.21875 56 50.046875 50.171875 
Q 54.890625 44.34375 54.890625 33.015625 
z
" id="DejaVuSans-104"/>
      <path d="M 45.40625 27.984375 
Q 45.40625 37.75 41.375 43.109375 
Q 37.359375 48.484375 30.078125 48.484375 
Q 22.859375 48.484375 18.828125 43.109375 
Q 14.796875 37.75 14.796875 27.984375 
Q 14.796875 18.265625 18.828125 12.890625 
Q 22.859375 7.515625 30.078125 7.515625 
Q 37.359375 7.515625 41.375 12.890625 
Q 45.40625 18.265625 45.40625 27.984375 
z
M 54.390625 6.78125 
Q 54.390625 -7.171875 48.1875 -13.984375 
Q 42 -20.796875 29.203125 -20.796875 
Q 24.46875 -20.796875 20.265625 -20.09375 
Q 16.0625 -19.390625 12.109375 -17.921875 
L 12.109375 -9.1875 
Q 16.0625 -11.328125 19.921875 -12.34375 
Q 23.78125 -13.375 27.78125 -13.375 
Q 36.625 -13.375 41.015625 -8.765625 
Q 45.40625 -4.15625 45.40625 5.171875 
L 45.40625 9.625 
Q 42.625 4.78125 38.28125 2.390625 
Q 33.9375 0 27.875 0 
Q 17.828125 0 11.671875 7.65625 
Q 5.515625 15.328125 5.515625 27.984375 
Q 5.515625 40.671875 11.671875 48.328125 
Q 17.828125 56 27.875 56 
Q 33.9375 56 38.28125 53.609375 
Q 42.625 51.21875 45.40625 46.390625 
L 45.40625 54.6875 
L 54.390625 54.6875 
z
" id="DejaVuSans-103"/>
     </defs>
     <g transform="translate(181 160.221563)scale(0.1 -0.1)">
      <use xlink:href="#DejaVuSans-77"/>
      <use x="86.279297" xlink:href="#DejaVuSans-111"/>
      <use x="147.460938" xlink:href="#DejaVuSans-108"/>
      <use x="175.244141" xlink:href="#DejaVuSans-99"/>
      <use x="230.224609" xlink:href="#DejaVuSans-104"/>
      <use x="293.603516" xlink:href="#DejaVuSans-97"/>
      <use x="354.882812" xlink:href="#DejaVuSans-110"/>
      <use x="418.261719" xlink:href="#DejaVuSans-111"/>
      <use x="479.443359" xlink:href="#DejaVuSans-118"/>
      <use x="538.623047" xlink:href="#DejaVuSans-95"/>
      <use x="588.623047" xlink:href="#DejaVuSans-103"/>
      <use x="652.099609" xlink:href="#DejaVuSans-114"/>
      <use x="690.962891" xlink:href="#DejaVuSans-111"/>
      <use x="752.144531" xlink:href="#DejaVuSans-117"/>
      <use x="815.523438" xlink:href="#DejaVuSans-112"/>
     </g>
    </g>
   </g>
  </g>
 </g>
 <defs>
  <clipPath id="p4a8a1db854">
   <rect height="434.88" width="892.8" x="144" y="69.12"/>
  </clipPath>
 </defs>
</svg>
