<?xml version="1.0" encoding="utf-8" standalone="no"?>
<!DOCTYPE svg PUBLIC "-//W3C//DTD SVG 1.1//EN"
  "http://www.w3.org/Graphics/SVG/1.1/DTD/svg11.dtd">
<!-- Created with matplotlib (https://matplotlib.org/) -->
<svg height="576pt" version="1.1" viewBox="0 0 1152 576" width="1152pt" xmlns="http://www.w3.org/2000/svg" xmlns:xlink="http://www.w3.org/1999/xlink">
 <defs>
  <style type="text/css">
*{stroke-linecap:butt;stroke-linejoin:round;}
  </style>
 </defs>
 <g id="figure_1">
  <g id="patch_1">
   <path d="M 0 576 
L 1152 576 
L 1152 0 
L 0 0 
z
" style="fill:#ffffff;"/>
  </g>
  <g id="axes_1">
   <g id="patch_2">
    <path d="M 144 504 
L 1036.8 504 
L 1036.8 69.12 
L 144 69.12 
z
" style="fill:#ffffff;"/>
   </g>
   <g id="matplotlib.axis_1">
    <g id="xtick_1">
     <g id="line2d_1">
      <defs>
       <path d="M 0 0 
L 0 3.5 
" id="mfa539da1f4" style="stroke:#000000;stroke-width:0.8;"/>
      </defs>
      <g>
       <use style="stroke:#000000;stroke-width:0.8;" x="182.547642" xlink:href="#mfa539da1f4" y="504"/>
      </g>
     </g>
     <g id="text_1">
      <!-- 0 -->
      <defs>
       <path d="M 31.78125 66.40625 
Q 24.171875 66.40625 20.328125 58.90625 
Q 16.5 51.421875 16.5 36.375 
Q 16.5 21.390625 20.328125 13.890625 
Q 24.171875 6.390625 31.78125 6.390625 
Q 39.453125 6.390625 43.28125 13.890625 
Q 47.125 21.390625 47.125 36.375 
Q 47.125 51.421875 43.28125 58.90625 
Q 39.453125 66.40625 31.78125 66.40625 
z
M 31.78125 74.21875 
Q 44.046875 74.21875 50.515625 64.515625 
Q 56.984375 54.828125 56.984375 36.375 
Q 56.984375 17.96875 50.515625 8.265625 
Q 44.046875 -1.421875 31.78125 -1.421875 
Q 19.53125 -1.421875 13.0625 8.265625 
Q 6.59375 17.96875 6.59375 36.375 
Q 6.59375 54.828125 13.0625 64.515625 
Q 19.53125 74.21875 31.78125 74.21875 
z
" id="DejaVuSans-48"/>
      </defs>
      <g transform="translate(179.366392 518.598438)scale(0.1 -0.1)">
       <use xlink:href="#DejaVuSans-48"/>
      </g>
     </g>
    </g>
    <g id="xtick_2">
     <g id="line2d_2">
      <g>
       <use style="stroke:#000000;stroke-width:0.8;" x="284.256459" xlink:href="#mfa539da1f4" y="504"/>
      </g>
     </g>
     <g id="text_2">
      <!-- 50 -->
      <defs>
       <path d="M 10.796875 72.90625 
L 49.515625 72.90625 
L 49.515625 64.59375 
L 19.828125 64.59375 
L 19.828125 46.734375 
Q 21.96875 47.46875 24.109375 47.828125 
Q 26.265625 48.1875 28.421875 48.1875 
Q 40.625 48.1875 47.75 41.5 
Q 54.890625 34.8125 54.890625 23.390625 
Q 54.890625 11.625 47.5625 5.09375 
Q 40.234375 -1.421875 26.90625 -1.421875 
Q 22.3125 -1.421875 17.546875 -0.640625 
Q 12.796875 0.140625 7.71875 1.703125 
L 7.71875 11.625 
Q 12.109375 9.234375 16.796875 8.0625 
Q 21.484375 6.890625 26.703125 6.890625 
Q 35.15625 6.890625 40.078125 11.328125 
Q 45.015625 15.765625 45.015625 23.390625 
Q 45.015625 31 40.078125 35.4375 
Q 35.15625 39.890625 26.703125 39.890625 
Q 22.75 39.890625 18.8125 39.015625 
Q 14.890625 38.140625 10.796875 36.28125 
z
" id="DejaVuSans-53"/>
      </defs>
      <g transform="translate(277.893959 518.598438)scale(0.1 -0.1)">
       <use xlink:href="#DejaVuSans-53"/>
       <use x="63.623047" xlink:href="#DejaVuSans-48"/>
      </g>
     </g>
    </g>
    <g id="xtick_3">
     <g id="line2d_3">
      <g>
       <use style="stroke:#000000;stroke-width:0.8;" x="385.965277" xlink:href="#mfa539da1f4" y="504"/>
      </g>
     </g>
     <g id="text_3">
      <!-- 100 -->
      <defs>
       <path d="M 12.40625 8.296875 
L 28.515625 8.296875 
L 28.515625 63.921875 
L 10.984375 60.40625 
L 10.984375 69.390625 
L 28.421875 72.90625 
L 38.28125 72.90625 
L 38.28125 8.296875 
L 54.390625 8.296875 
L 54.390625 0 
L 12.40625 0 
z
" id="DejaVuSans-49"/>
      </defs>
      <g transform="translate(376.421527 518.598438)scale(0.1 -0.1)">
       <use xlink:href="#DejaVuSans-49"/>
       <use x="63.623047" xlink:href="#DejaVuSans-48"/>
       <use x="127.246094" xlink:href="#DejaVuSans-48"/>
      </g>
     </g>
    </g>
    <g id="xtick_4">
     <g id="line2d_4">
      <g>
       <use style="stroke:#000000;stroke-width:0.8;" x="487.674094" xlink:href="#mfa539da1f4" y="504"/>
      </g>
     </g>
     <g id="text_4">
      <!-- 150 -->
      <g transform="translate(478.130344 518.598438)scale(0.1 -0.1)">
       <use xlink:href="#DejaVuSans-49"/>
       <use x="63.623047" xlink:href="#DejaVuSans-53"/>
       <use x="127.246094" xlink:href="#DejaVuSans-48"/>
      </g>
     </g>
    </g>
    <g id="xtick_5">
     <g id="line2d_5">
      <g>
       <use style="stroke:#000000;stroke-width:0.8;" x="589.382912" xlink:href="#mfa539da1f4" y="504"/>
      </g>
     </g>
     <g id="text_5">
      <!-- 200 -->
      <defs>
       <path d="M 19.1875 8.296875 
L 53.609375 8.296875 
L 53.609375 0 
L 7.328125 0 
L 7.328125 8.296875 
Q 12.9375 14.109375 22.625 23.890625 
Q 32.328125 33.6875 34.8125 36.53125 
Q 39.546875 41.84375 41.421875 45.53125 
Q 43.3125 49.21875 43.3125 52.78125 
Q 43.3125 58.59375 39.234375 62.25 
Q 35.15625 65.921875 28.609375 65.921875 
Q 23.96875 65.921875 18.8125 64.3125 
Q 13.671875 62.703125 7.8125 59.421875 
L 7.8125 69.390625 
Q 13.765625 71.78125 18.9375 73 
Q 24.125 74.21875 28.421875 74.21875 
Q 39.75 74.21875 46.484375 68.546875 
Q 53.21875 62.890625 53.21875 53.421875 
Q 53.21875 48.921875 51.53125 44.890625 
Q 49.859375 40.875 45.40625 35.40625 
Q 44.1875 33.984375 37.640625 27.21875 
Q 31.109375 20.453125 19.1875 8.296875 
z
" id="DejaVuSans-50"/>
      </defs>
      <g transform="translate(579.839162 518.598438)scale(0.1 -0.1)">
       <use xlink:href="#DejaVuSans-50"/>
       <use x="63.623047" xlink:href="#DejaVuSans-48"/>
       <use x="127.246094" xlink:href="#DejaVuSans-48"/>
      </g>
     </g>
    </g>
    <g id="xtick_6">
     <g id="line2d_6">
      <g>
       <use style="stroke:#000000;stroke-width:0.8;" x="691.091729" xlink:href="#mfa539da1f4" y="504"/>
      </g>
     </g>
     <g id="text_6">
      <!-- 250 -->
      <g transform="translate(681.547979 518.598438)scale(0.1 -0.1)">
       <use xlink:href="#DejaVuSans-50"/>
       <use x="63.623047" xlink:href="#DejaVuSans-53"/>
       <use x="127.246094" xlink:href="#DejaVuSans-48"/>
      </g>
     </g>
    </g>
    <g id="xtick_7">
     <g id="line2d_7">
      <g>
       <use style="stroke:#000000;stroke-width:0.8;" x="792.800547" xlink:href="#mfa539da1f4" y="504"/>
      </g>
     </g>
     <g id="text_7">
      <!-- 300 -->
      <defs>
       <path d="M 40.578125 39.3125 
Q 47.65625 37.796875 51.625 33 
Q 55.609375 28.21875 55.609375 21.1875 
Q 55.609375 10.40625 48.1875 4.484375 
Q 40.765625 -1.421875 27.09375 -1.421875 
Q 22.515625 -1.421875 17.65625 -0.515625 
Q 12.796875 0.390625 7.625 2.203125 
L 7.625 11.71875 
Q 11.71875 9.328125 16.59375 8.109375 
Q 21.484375 6.890625 26.8125 6.890625 
Q 36.078125 6.890625 40.9375 10.546875 
Q 45.796875 14.203125 45.796875 21.1875 
Q 45.796875 27.640625 41.28125 31.265625 
Q 36.765625 34.90625 28.71875 34.90625 
L 20.21875 34.90625 
L 20.21875 43.015625 
L 29.109375 43.015625 
Q 36.375 43.015625 40.234375 45.921875 
Q 44.09375 48.828125 44.09375 54.296875 
Q 44.09375 59.90625 40.109375 62.90625 
Q 36.140625 65.921875 28.71875 65.921875 
Q 24.65625 65.921875 20.015625 65.03125 
Q 15.375 64.15625 9.8125 62.3125 
L 9.8125 71.09375 
Q 15.4375 72.65625 20.34375 73.4375 
Q 25.25 74.21875 29.59375 74.21875 
Q 40.828125 74.21875 47.359375 69.109375 
Q 53.90625 64.015625 53.90625 55.328125 
Q 53.90625 49.265625 50.4375 45.09375 
Q 46.96875 40.921875 40.578125 39.3125 
z
" id="DejaVuSans-51"/>
      </defs>
      <g transform="translate(783.256797 518.598438)scale(0.1 -0.1)">
       <use xlink:href="#DejaVuSans-51"/>
       <use x="63.623047" xlink:href="#DejaVuSans-48"/>
       <use x="127.246094" xlink:href="#DejaVuSans-48"/>
      </g>
     </g>
    </g>
    <g id="xtick_8">
     <g id="line2d_8">
      <g>
       <use style="stroke:#000000;stroke-width:0.8;" x="894.509364" xlink:href="#mfa539da1f4" y="504"/>
      </g>
     </g>
     <g id="text_8">
      <!-- 350 -->
      <g transform="translate(884.965614 518.598438)scale(0.1 -0.1)">
       <use xlink:href="#DejaVuSans-51"/>
       <use x="63.623047" xlink:href="#DejaVuSans-53"/>
       <use x="127.246094" xlink:href="#DejaVuSans-48"/>
      </g>
     </g>
    </g>
    <g id="xtick_9">
     <g id="line2d_9">
      <g>
       <use style="stroke:#000000;stroke-width:0.8;" x="996.218182" xlink:href="#mfa539da1f4" y="504"/>
      </g>
     </g>
     <g id="text_9">
      <!-- 400 -->
      <defs>
       <path d="M 37.796875 64.3125 
L 12.890625 25.390625 
L 37.796875 25.390625 
z
M 35.203125 72.90625 
L 47.609375 72.90625 
L 47.609375 25.390625 
L 58.015625 25.390625 
L 58.015625 17.1875 
L 47.609375 17.1875 
L 47.609375 0 
L 37.796875 0 
L 37.796875 17.1875 
L 4.890625 17.1875 
L 4.890625 26.703125 
z
" id="DejaVuSans-52"/>
      </defs>
      <g transform="translate(986.674432 518.598438)scale(0.1 -0.1)">
       <use xlink:href="#DejaVuSans-52"/>
       <use x="63.623047" xlink:href="#DejaVuSans-48"/>
       <use x="127.246094" xlink:href="#DejaVuSans-48"/>
      </g>
     </g>
    </g>
    <g id="text_10">
     <!-- Number of Neurons pruned -->
     <defs>
      <path d="M 9.8125 72.90625 
L 23.09375 72.90625 
L 55.421875 11.921875 
L 55.421875 72.90625 
L 64.984375 72.90625 
L 64.984375 0 
L 51.703125 0 
L 19.390625 60.984375 
L 19.390625 0 
L 9.8125 0 
z
" id="DejaVuSans-78"/>
      <path d="M 8.5 21.578125 
L 8.5 54.6875 
L 17.484375 54.6875 
L 17.484375 21.921875 
Q 17.484375 14.15625 20.5 10.265625 
Q 23.53125 6.390625 29.59375 6.390625 
Q 36.859375 6.390625 41.078125 11.03125 
Q 45.3125 15.671875 45.3125 23.6875 
L 45.3125 54.6875 
L 54.296875 54.6875 
L 54.296875 0 
L 45.3125 0 
L 45.3125 8.40625 
Q 42.046875 3.421875 37.71875 1 
Q 33.40625 -1.421875 27.6875 -1.421875 
Q 18.265625 -1.421875 13.375 4.4375 
Q 8.5 10.296875 8.5 21.578125 
z
M 31.109375 56 
z
" id="DejaVuSans-117"/>
      <path d="M 52 44.1875 
Q 55.375 50.25 60.0625 53.125 
Q 64.75 56 71.09375 56 
Q 79.640625 56 84.28125 50.015625 
Q 88.921875 44.046875 88.921875 33.015625 
L 88.921875 0 
L 79.890625 0 
L 79.890625 32.71875 
Q 79.890625 40.578125 77.09375 44.375 
Q 74.3125 48.1875 68.609375 48.1875 
Q 61.625 48.1875 57.5625 43.546875 
Q 53.515625 38.921875 53.515625 30.90625 
L 53.515625 0 
L 44.484375 0 
L 44.484375 32.71875 
Q 44.484375 40.625 41.703125 44.40625 
Q 38.921875 48.1875 33.109375 48.1875 
Q 26.21875 48.1875 22.15625 43.53125 
Q 18.109375 38.875 18.109375 30.90625 
L 18.109375 0 
L 9.078125 0 
L 9.078125 54.6875 
L 18.109375 54.6875 
L 18.109375 46.1875 
Q 21.1875 51.21875 25.484375 53.609375 
Q 29.78125 56 35.6875 56 
Q 41.65625 56 45.828125 52.96875 
Q 50 49.953125 52 44.1875 
z
" id="DejaVuSans-109"/>
      <path d="M 48.6875 27.296875 
Q 48.6875 37.203125 44.609375 42.84375 
Q 40.53125 48.484375 33.40625 48.484375 
Q 26.265625 48.484375 22.1875 42.84375 
Q 18.109375 37.203125 18.109375 27.296875 
Q 18.109375 17.390625 22.1875 11.75 
Q 26.265625 6.109375 33.40625 6.109375 
Q 40.53125 6.109375 44.609375 11.75 
Q 48.6875 17.390625 48.6875 27.296875 
z
M 18.109375 46.390625 
Q 20.953125 51.265625 25.265625 53.625 
Q 29.59375 56 35.59375 56 
Q 45.5625 56 51.78125 48.09375 
Q 58.015625 40.1875 58.015625 27.296875 
Q 58.015625 14.40625 51.78125 6.484375 
Q 45.5625 -1.421875 35.59375 -1.421875 
Q 29.59375 -1.421875 25.265625 0.953125 
Q 20.953125 3.328125 18.109375 8.203125 
L 18.109375 0 
L 9.078125 0 
L 9.078125 75.984375 
L 18.109375 75.984375 
z
" id="DejaVuSans-98"/>
      <path d="M 56.203125 29.59375 
L 56.203125 25.203125 
L 14.890625 25.203125 
Q 15.484375 15.921875 20.484375 11.0625 
Q 25.484375 6.203125 34.421875 6.203125 
Q 39.59375 6.203125 44.453125 7.46875 
Q 49.3125 8.734375 54.109375 11.28125 
L 54.109375 2.78125 
Q 49.265625 0.734375 44.1875 -0.34375 
Q 39.109375 -1.421875 33.890625 -1.421875 
Q 20.796875 -1.421875 13.15625 6.1875 
Q 5.515625 13.8125 5.515625 26.8125 
Q 5.515625 40.234375 12.765625 48.109375 
Q 20.015625 56 32.328125 56 
Q 43.359375 56 49.78125 48.890625 
Q 56.203125 41.796875 56.203125 29.59375 
z
M 47.21875 32.234375 
Q 47.125 39.59375 43.09375 43.984375 
Q 39.0625 48.390625 32.421875 48.390625 
Q 24.90625 48.390625 20.390625 44.140625 
Q 15.875 39.890625 15.1875 32.171875 
z
" id="DejaVuSans-101"/>
      <path d="M 41.109375 46.296875 
Q 39.59375 47.171875 37.8125 47.578125 
Q 36.03125 48 33.890625 48 
Q 26.265625 48 22.1875 43.046875 
Q 18.109375 38.09375 18.109375 28.8125 
L 18.109375 0 
L 9.078125 0 
L 9.078125 54.6875 
L 18.109375 54.6875 
L 18.109375 46.1875 
Q 20.953125 51.171875 25.484375 53.578125 
Q 30.03125 56 36.53125 56 
Q 37.453125 56 38.578125 55.875 
Q 39.703125 55.765625 41.0625 55.515625 
z
" id="DejaVuSans-114"/>
      <path id="DejaVuSans-32"/>
      <path d="M 30.609375 48.390625 
Q 23.390625 48.390625 19.1875 42.75 
Q 14.984375 37.109375 14.984375 27.296875 
Q 14.984375 17.484375 19.15625 11.84375 
Q 23.34375 6.203125 30.609375 6.203125 
Q 37.796875 6.203125 41.984375 11.859375 
Q 46.1875 17.53125 46.1875 27.296875 
Q 46.1875 37.015625 41.984375 42.703125 
Q 37.796875 48.390625 30.609375 48.390625 
z
M 30.609375 56 
Q 42.328125 56 49.015625 48.375 
Q 55.71875 40.765625 55.71875 27.296875 
Q 55.71875 13.875 49.015625 6.21875 
Q 42.328125 -1.421875 30.609375 -1.421875 
Q 18.84375 -1.421875 12.171875 6.21875 
Q 5.515625 13.875 5.515625 27.296875 
Q 5.515625 40.765625 12.171875 48.375 
Q 18.84375 56 30.609375 56 
z
" id="DejaVuSans-111"/>
      <path d="M 37.109375 75.984375 
L 37.109375 68.5 
L 28.515625 68.5 
Q 23.6875 68.5 21.796875 66.546875 
Q 19.921875 64.59375 19.921875 59.515625 
L 19.921875 54.6875 
L 34.71875 54.6875 
L 34.71875 47.703125 
L 19.921875 47.703125 
L 19.921875 0 
L 10.890625 0 
L 10.890625 47.703125 
L 2.296875 47.703125 
L 2.296875 54.6875 
L 10.890625 54.6875 
L 10.890625 58.5 
Q 10.890625 67.625 15.140625 71.796875 
Q 19.390625 75.984375 28.609375 75.984375 
z
" id="DejaVuSans-102"/>
      <path d="M 54.890625 33.015625 
L 54.890625 0 
L 45.90625 0 
L 45.90625 32.71875 
Q 45.90625 40.484375 42.875 44.328125 
Q 39.84375 48.1875 33.796875 48.1875 
Q 26.515625 48.1875 22.3125 43.546875 
Q 18.109375 38.921875 18.109375 30.90625 
L 18.109375 0 
L 9.078125 0 
L 9.078125 54.6875 
L 18.109375 54.6875 
L 18.109375 46.1875 
Q 21.34375 51.125 25.703125 53.5625 
Q 30.078125 56 35.796875 56 
Q 45.21875 56 50.046875 50.171875 
Q 54.890625 44.34375 54.890625 33.015625 
z
" id="DejaVuSans-110"/>
      <path d="M 44.28125 53.078125 
L 44.28125 44.578125 
Q 40.484375 46.53125 36.375 47.5 
Q 32.28125 48.484375 27.875 48.484375 
Q 21.1875 48.484375 17.84375 46.4375 
Q 14.5 44.390625 14.5 40.28125 
Q 14.5 37.15625 16.890625 35.375 
Q 19.28125 33.59375 26.515625 31.984375 
L 29.59375 31.296875 
Q 39.15625 29.25 43.1875 25.515625 
Q 47.21875 21.78125 47.21875 15.09375 
Q 47.21875 7.46875 41.1875 3.015625 
Q 35.15625 -1.421875 24.609375 -1.421875 
Q 20.21875 -1.421875 15.453125 -0.5625 
Q 10.6875 0.296875 5.421875 2 
L 5.421875 11.28125 
Q 10.40625 8.6875 15.234375 7.390625 
Q 20.0625 6.109375 24.8125 6.109375 
Q 31.15625 6.109375 34.5625 8.28125 
Q 37.984375 10.453125 37.984375 14.40625 
Q 37.984375 18.0625 35.515625 20.015625 
Q 33.0625 21.96875 24.703125 23.78125 
L 21.578125 24.515625 
Q 13.234375 26.265625 9.515625 29.90625 
Q 5.8125 33.546875 5.8125 39.890625 
Q 5.8125 47.609375 11.28125 51.796875 
Q 16.75 56 26.8125 56 
Q 31.78125 56 36.171875 55.265625 
Q 40.578125 54.546875 44.28125 53.078125 
z
" id="DejaVuSans-115"/>
      <path d="M 18.109375 8.203125 
L 18.109375 -20.796875 
L 9.078125 -20.796875 
L 9.078125 54.6875 
L 18.109375 54.6875 
L 18.109375 46.390625 
Q 20.953125 51.265625 25.265625 53.625 
Q 29.59375 56 35.59375 56 
Q 45.5625 56 51.78125 48.09375 
Q 58.015625 40.1875 58.015625 27.296875 
Q 58.015625 14.40625 51.78125 6.484375 
Q 45.5625 -1.421875 35.59375 -1.421875 
Q 29.59375 -1.421875 25.265625 0.953125 
Q 20.953125 3.328125 18.109375 8.203125 
z
M 48.6875 27.296875 
Q 48.6875 37.203125 44.609375 42.84375 
Q 40.53125 48.484375 33.40625 48.484375 
Q 26.265625 48.484375 22.1875 42.84375 
Q 18.109375 37.203125 18.109375 27.296875 
Q 18.109375 17.390625 22.1875 11.75 
Q 26.265625 6.109375 33.40625 6.109375 
Q 40.53125 6.109375 44.609375 11.75 
Q 48.6875 17.390625 48.6875 27.296875 
z
" id="DejaVuSans-112"/>
      <path d="M 45.40625 46.390625 
L 45.40625 75.984375 
L 54.390625 75.984375 
L 54.390625 0 
L 45.40625 0 
L 45.40625 8.203125 
Q 42.578125 3.328125 38.25 0.953125 
Q 33.9375 -1.421875 27.875 -1.421875 
Q 17.96875 -1.421875 11.734375 6.484375 
Q 5.515625 14.40625 5.515625 27.296875 
Q 5.515625 40.1875 11.734375 48.09375 
Q 17.96875 56 27.875 56 
Q 33.9375 56 38.25 53.625 
Q 42.578125 51.265625 45.40625 46.390625 
z
M 14.796875 27.296875 
Q 14.796875 17.390625 18.875 11.75 
Q 22.953125 6.109375 30.078125 6.109375 
Q 37.203125 6.109375 41.296875 11.75 
Q 45.40625 17.390625 45.40625 27.296875 
Q 45.40625 37.203125 41.296875 42.84375 
Q 37.203125 48.484375 30.078125 48.484375 
Q 22.953125 48.484375 18.875 42.84375 
Q 14.796875 37.203125 14.796875 27.296875 
z
" id="DejaVuSans-100"/>
     </defs>
     <g transform="translate(522.147656 532.276562)scale(0.1 -0.1)">
      <use xlink:href="#DejaVuSans-78"/>
      <use x="74.804688" xlink:href="#DejaVuSans-117"/>
      <use x="138.183594" xlink:href="#DejaVuSans-109"/>
      <use x="235.595703" xlink:href="#DejaVuSans-98"/>
      <use x="299.072266" xlink:href="#DejaVuSans-101"/>
      <use x="360.595703" xlink:href="#DejaVuSans-114"/>
      <use x="401.708984" xlink:href="#DejaVuSans-32"/>
      <use x="433.496094" xlink:href="#DejaVuSans-111"/>
      <use x="494.677734" xlink:href="#DejaVuSans-102"/>
      <use x="529.882812" xlink:href="#DejaVuSans-32"/>
      <use x="561.669922" xlink:href="#DejaVuSans-78"/>
      <use x="636.474609" xlink:href="#DejaVuSans-101"/>
      <use x="697.998047" xlink:href="#DejaVuSans-117"/>
      <use x="761.376953" xlink:href="#DejaVuSans-114"/>
      <use x="800.240234" xlink:href="#DejaVuSans-111"/>
      <use x="861.421875" xlink:href="#DejaVuSans-110"/>
      <use x="924.800781" xlink:href="#DejaVuSans-115"/>
      <use x="976.900391" xlink:href="#DejaVuSans-32"/>
      <use x="1008.6875" xlink:href="#DejaVuSans-112"/>
      <use x="1072.164062" xlink:href="#DejaVuSans-114"/>
      <use x="1113.277344" xlink:href="#DejaVuSans-117"/>
      <use x="1176.65625" xlink:href="#DejaVuSans-110"/>
      <use x="1240.035156" xlink:href="#DejaVuSans-101"/>
      <use x="1301.558594" xlink:href="#DejaVuSans-100"/>
     </g>
    </g>
   </g>
   <g id="matplotlib.axis_2">
    <g id="ytick_1">
     <g id="line2d_10">
      <defs>
       <path d="M 0 0 
L -3.5 0 
" id="mbb03beadd0" style="stroke:#000000;stroke-width:0.8;"/>
      </defs>
      <g>
       <use style="stroke:#000000;stroke-width:0.8;" x="144" xlink:href="#mbb03beadd0" y="484.232727"/>
      </g>
     </g>
     <g id="text_11">
      <!-- 0 -->
      <g transform="translate(130.6375 488.031946)scale(0.1 -0.1)">
       <use xlink:href="#DejaVuSans-48"/>
      </g>
     </g>
    </g>
    <g id="ytick_2">
     <g id="line2d_11">
      <g>
       <use style="stroke:#000000;stroke-width:0.8;" x="144" xlink:href="#mbb03beadd0" y="427.02493"/>
      </g>
     </g>
     <g id="text_12">
      <!-- 5 -->
      <g transform="translate(130.6375 430.824149)scale(0.1 -0.1)">
       <use xlink:href="#DejaVuSans-53"/>
      </g>
     </g>
    </g>
    <g id="ytick_3">
     <g id="line2d_12">
      <g>
       <use style="stroke:#000000;stroke-width:0.8;" x="144" xlink:href="#mbb03beadd0" y="369.817134"/>
      </g>
     </g>
     <g id="text_13">
      <!-- 10 -->
      <g transform="translate(124.275 373.616352)scale(0.1 -0.1)">
       <use xlink:href="#DejaVuSans-49"/>
       <use x="63.623047" xlink:href="#DejaVuSans-48"/>
      </g>
     </g>
    </g>
    <g id="ytick_4">
     <g id="line2d_13">
      <g>
       <use style="stroke:#000000;stroke-width:0.8;" x="144" xlink:href="#mbb03beadd0" y="312.609337"/>
      </g>
     </g>
     <g id="text_14">
      <!-- 15 -->
      <g transform="translate(124.275 316.408555)scale(0.1 -0.1)">
       <use xlink:href="#DejaVuSans-49"/>
       <use x="63.623047" xlink:href="#DejaVuSans-53"/>
      </g>
     </g>
    </g>
    <g id="ytick_5">
     <g id="line2d_14">
      <g>
       <use style="stroke:#000000;stroke-width:0.8;" x="144" xlink:href="#mbb03beadd0" y="255.40154"/>
      </g>
     </g>
     <g id="text_15">
      <!-- 20 -->
      <g transform="translate(124.275 259.200759)scale(0.1 -0.1)">
       <use xlink:href="#DejaVuSans-50"/>
       <use x="63.623047" xlink:href="#DejaVuSans-48"/>
      </g>
     </g>
    </g>
    <g id="ytick_6">
     <g id="line2d_15">
      <g>
       <use style="stroke:#000000;stroke-width:0.8;" x="144" xlink:href="#mbb03beadd0" y="198.193743"/>
      </g>
     </g>
     <g id="text_16">
      <!-- 25 -->
      <g transform="translate(124.275 201.992962)scale(0.1 -0.1)">
       <use xlink:href="#DejaVuSans-50"/>
       <use x="63.623047" xlink:href="#DejaVuSans-53"/>
      </g>
     </g>
    </g>
    <g id="ytick_7">
     <g id="line2d_16">
      <g>
       <use style="stroke:#000000;stroke-width:0.8;" x="144" xlink:href="#mbb03beadd0" y="140.985946"/>
      </g>
     </g>
     <g id="text_17">
      <!-- 30 -->
      <g transform="translate(124.275 144.785165)scale(0.1 -0.1)">
       <use xlink:href="#DejaVuSans-51"/>
       <use x="63.623047" xlink:href="#DejaVuSans-48"/>
      </g>
     </g>
    </g>
    <g id="ytick_8">
     <g id="line2d_17">
      <g>
       <use style="stroke:#000000;stroke-width:0.8;" x="144" xlink:href="#mbb03beadd0" y="83.778149"/>
      </g>
     </g>
     <g id="text_18">
      <!-- 35 -->
      <g transform="translate(124.275 87.577368)scale(0.1 -0.1)">
       <use xlink:href="#DejaVuSans-51"/>
       <use x="63.623047" xlink:href="#DejaVuSans-53"/>
      </g>
     </g>
    </g>
    <g id="text_19">
     <!-- Squared Deviation -->
     <defs>
      <path d="M 53.515625 70.515625 
L 53.515625 60.890625 
Q 47.90625 63.578125 42.921875 64.890625 
Q 37.9375 66.21875 33.296875 66.21875 
Q 25.25 66.21875 20.875 63.09375 
Q 16.5 59.96875 16.5 54.203125 
Q 16.5 49.359375 19.40625 46.890625 
Q 22.3125 44.4375 30.421875 42.921875 
L 36.375 41.703125 
Q 47.40625 39.59375 52.65625 34.296875 
Q 57.90625 29 57.90625 20.125 
Q 57.90625 9.515625 50.796875 4.046875 
Q 43.703125 -1.421875 29.984375 -1.421875 
Q 24.8125 -1.421875 18.96875 -0.25 
Q 13.140625 0.921875 6.890625 3.21875 
L 6.890625 13.375 
Q 12.890625 10.015625 18.65625 8.296875 
Q 24.421875 6.59375 29.984375 6.59375 
Q 38.421875 6.59375 43.015625 9.90625 
Q 47.609375 13.234375 47.609375 19.390625 
Q 47.609375 24.75 44.3125 27.78125 
Q 41.015625 30.8125 33.5 32.328125 
L 27.484375 33.5 
Q 16.453125 35.6875 11.515625 40.375 
Q 6.59375 45.0625 6.59375 53.421875 
Q 6.59375 63.09375 13.40625 68.65625 
Q 20.21875 74.21875 32.171875 74.21875 
Q 37.3125 74.21875 42.625 73.28125 
Q 47.953125 72.359375 53.515625 70.515625 
z
" id="DejaVuSans-83"/>
      <path d="M 14.796875 27.296875 
Q 14.796875 17.390625 18.875 11.75 
Q 22.953125 6.109375 30.078125 6.109375 
Q 37.203125 6.109375 41.296875 11.75 
Q 45.40625 17.390625 45.40625 27.296875 
Q 45.40625 37.203125 41.296875 42.84375 
Q 37.203125 48.484375 30.078125 48.484375 
Q 22.953125 48.484375 18.875 42.84375 
Q 14.796875 37.203125 14.796875 27.296875 
z
M 45.40625 8.203125 
Q 42.578125 3.328125 38.25 0.953125 
Q 33.9375 -1.421875 27.875 -1.421875 
Q 17.96875 -1.421875 11.734375 6.484375 
Q 5.515625 14.40625 5.515625 27.296875 
Q 5.515625 40.1875 11.734375 48.09375 
Q 17.96875 56 27.875 56 
Q 33.9375 56 38.25 53.625 
Q 42.578125 51.265625 45.40625 46.390625 
L 45.40625 54.6875 
L 54.390625 54.6875 
L 54.390625 -20.796875 
L 45.40625 -20.796875 
z
" id="DejaVuSans-113"/>
      <path d="M 34.28125 27.484375 
Q 23.390625 27.484375 19.1875 25 
Q 14.984375 22.515625 14.984375 16.5 
Q 14.984375 11.71875 18.140625 8.90625 
Q 21.296875 6.109375 26.703125 6.109375 
Q 34.1875 6.109375 38.703125 11.40625 
Q 43.21875 16.703125 43.21875 25.484375 
L 43.21875 27.484375 
z
M 52.203125 31.203125 
L 52.203125 0 
L 43.21875 0 
L 43.21875 8.296875 
Q 40.140625 3.328125 35.546875 0.953125 
Q 30.953125 -1.421875 24.3125 -1.421875 
Q 15.921875 -1.421875 10.953125 3.296875 
Q 6 8.015625 6 15.921875 
Q 6 25.140625 12.171875 29.828125 
Q 18.359375 34.515625 30.609375 34.515625 
L 43.21875 34.515625 
L 43.21875 35.40625 
Q 43.21875 41.609375 39.140625 45 
Q 35.0625 48.390625 27.6875 48.390625 
Q 23 48.390625 18.546875 47.265625 
Q 14.109375 46.140625 10.015625 43.890625 
L 10.015625 52.203125 
Q 14.9375 54.109375 19.578125 55.046875 
Q 24.21875 56 28.609375 56 
Q 40.484375 56 46.34375 49.84375 
Q 52.203125 43.703125 52.203125 31.203125 
z
" id="DejaVuSans-97"/>
      <path d="M 19.671875 64.796875 
L 19.671875 8.109375 
L 31.59375 8.109375 
Q 46.6875 8.109375 53.6875 14.9375 
Q 60.6875 21.78125 60.6875 36.53125 
Q 60.6875 51.171875 53.6875 57.984375 
Q 46.6875 64.796875 31.59375 64.796875 
z
M 9.8125 72.90625 
L 30.078125 72.90625 
Q 51.265625 72.90625 61.171875 64.09375 
Q 71.09375 55.28125 71.09375 36.53125 
Q 71.09375 17.671875 61.125 8.828125 
Q 51.171875 0 30.078125 0 
L 9.8125 0 
z
" id="DejaVuSans-68"/>
      <path d="M 2.984375 54.6875 
L 12.5 54.6875 
L 29.59375 8.796875 
L 46.6875 54.6875 
L 56.203125 54.6875 
L 35.6875 0 
L 23.484375 0 
z
" id="DejaVuSans-118"/>
      <path d="M 9.421875 54.6875 
L 18.40625 54.6875 
L 18.40625 0 
L 9.421875 0 
z
M 9.421875 75.984375 
L 18.40625 75.984375 
L 18.40625 64.59375 
L 9.421875 64.59375 
z
" id="DejaVuSans-105"/>
      <path d="M 18.3125 70.21875 
L 18.3125 54.6875 
L 36.8125 54.6875 
L 36.8125 47.703125 
L 18.3125 47.703125 
L 18.3125 18.015625 
Q 18.3125 11.328125 20.140625 9.421875 
Q 21.96875 7.515625 27.59375 7.515625 
L 36.8125 7.515625 
L 36.8125 0 
L 27.59375 0 
Q 17.1875 0 13.234375 3.875 
Q 9.28125 7.765625 9.28125 18.015625 
L 9.28125 47.703125 
L 2.6875 47.703125 
L 2.6875 54.6875 
L 9.28125 54.6875 
L 9.28125 70.21875 
z
" id="DejaVuSans-116"/>
     </defs>
     <g transform="translate(118.195312 332.840469)rotate(-90)scale(0.1 -0.1)">
      <use xlink:href="#DejaVuSans-83"/>
      <use x="63.476562" xlink:href="#DejaVuSans-113"/>
      <use x="126.953125" xlink:href="#DejaVuSans-117"/>
      <use x="190.332031" xlink:href="#DejaVuSans-97"/>
      <use x="251.611328" xlink:href="#DejaVuSans-114"/>
      <use x="290.474609" xlink:href="#DejaVuSans-101"/>
      <use x="351.998047" xlink:href="#DejaVuSans-100"/>
      <use x="415.474609" xlink:href="#DejaVuSans-32"/>
      <use x="447.261719" xlink:href="#DejaVuSans-68"/>
      <use x="524.263672" xlink:href="#DejaVuSans-101"/>
      <use x="585.787109" xlink:href="#DejaVuSans-118"/>
      <use x="644.966797" xlink:href="#DejaVuSans-105"/>
      <use x="672.75" xlink:href="#DejaVuSans-97"/>
      <use x="734.029297" xlink:href="#DejaVuSans-116"/>
      <use x="773.238281" xlink:href="#DejaVuSans-105"/>
      <use x="801.021484" xlink:href="#DejaVuSans-111"/>
      <use x="862.203125" xlink:href="#DejaVuSans-110"/>
     </g>
    </g>
   </g>
   <g id="line2d_18">
    <path clip-path="url(#pb3ad4497b4)" d="M 184.581818 484.232727 
L 430.717157 484.232727 
L 436.819686 483.884601 
L 440.888038 483.870369 
L 442.922215 483.433617 
L 446.990567 483.288062 
L 449.024744 482.971824 
L 451.05892 482.918294 
L 453.093096 482.112518 
L 455.127273 481.854751 
L 457.161449 481.790051 
L 461.229802 481.261913 
L 465.298154 481.109084 
L 467.332331 480.627327 
L 471.400684 480.473991 
L 473.43486 478.480587 
L 479.537389 477.896882 
L 481.571565 477.379333 
L 483.605742 477.093303 
L 489.708271 476.869216 
L 491.742447 476.819576 
L 495.8108 476.50485 
L 497.844976 475.806456 
L 499.879152 474.524653 
L 501.913329 474.554744 
L 505.981681 473.781835 
L 508.015858 473.178932 
L 510.050034 472.404477 
L 512.084211 471.327094 
L 514.118387 471.320261 
L 516.152563 470.848669 
L 518.18674 470.554913 
L 520.220916 470.427659 
L 522.255092 469.623426 
L 524.289269 469.177035 
L 528.357621 468.624827 
L 534.46015 467.723417 
L 536.494327 467.570306 
L 538.528503 466.869427 
L 540.562679 466.292751 
L 544.631032 465.871508 
L 546.665208 465.40797 
L 548.699385 464.406126 
L 550.733561 464.470444 
L 552.767738 464.322884 
L 554.801914 463.389343 
L 556.83609 463.219731 
L 558.870267 461.923904 
L 560.904443 460.181391 
L 562.938619 459.877039 
L 564.972796 459.267142 
L 567.006972 459.000759 
L 569.041148 457.857521 
L 571.075325 457.425408 
L 573.109501 456.695032 
L 577.177854 455.821638 
L 579.21203 454.370182 
L 581.246206 453.486259 
L 583.280383 449.932068 
L 585.314559 448.693954 
L 587.348735 439.893586 
L 589.382912 438.429609 
L 591.417088 437.889854 
L 593.451265 438.288768 
L 595.485441 437.076035 
L 597.519617 436.418414 
L 599.553794 433.733132 
L 601.58797 433.289649 
L 603.622146 432.558905 
L 605.656323 431.202243 
L 607.690499 430.637861 
L 609.724675 426.65473 
L 611.758852 424.278839 
L 613.793028 421.148607 
L 615.827204 421.321145 
L 617.861381 421.269294 
L 621.929733 419.250821 
L 623.96391 416.504238 
L 625.998086 415.629347 
L 628.032262 413.766548 
L 630.066439 410.546275 
L 632.100615 401.919768 
L 634.134792 398.650081 
L 636.168968 398.598928 
L 638.203144 398.115515 
L 640.237321 397.356864 
L 642.271497 395.305722 
L 644.305673 394.008964 
L 646.33985 393.906821 
L 648.374026 393.535355 
L 650.408202 393.368496 
L 652.442379 390.566864 
L 654.476555 387.163583 
L 656.510731 384.533262 
L 658.544908 383.985308 
L 660.579084 380.353069 
L 662.61326 377.551613 
L 664.647437 376.687431 
L 668.715789 376.561938 
L 670.749966 376.456401 
L 672.784142 371.863175 
L 674.818319 370.960312 
L 676.852495 372.959062 
L 678.886671 370.138292 
L 680.920848 367.8958 
L 682.955024 368.007087 
L 684.9892 367.25405 
L 687.023377 367.593387 
L 689.057553 367.482068 
L 691.091729 366.895759 
L 693.125906 367.443583 
L 695.160082 365.90639 
L 697.194258 365.625855 
L 699.228435 364.88805 
L 701.262611 364.000583 
L 703.296787 365.750857 
L 705.330964 365.079264 
L 707.36514 364.644691 
L 709.399316 364.691828 
L 711.433493 363.231256 
L 713.467669 362.836662 
L 715.501846 361.677892 
L 717.536022 359.719372 
L 719.570198 358.758481 
L 721.604375 358.298342 
L 723.638551 357.563135 
L 725.672727 354.280491 
L 727.706904 351.979099 
L 729.74108 351.057882 
L 731.775256 350.588949 
L 733.809433 349.881642 
L 735.843609 349.300298 
L 737.877785 348.228263 
L 739.911962 348.388652 
L 741.946138 345.804443 
L 743.980314 342.890554 
L 746.014491 340.323062 
L 748.048667 340.492835 
L 750.082843 339.743508 
L 752.11702 338.270594 
L 754.151196 337.479171 
L 756.185373 337.040866 
L 758.219549 331.583196 
L 760.253725 330.621683 
L 762.287902 329.977587 
L 764.322078 328.132983 
L 766.356254 326.079042 
L 768.390431 324.386284 
L 774.49296 322.373446 
L 776.527136 322.262356 
L 778.561312 321.842404 
L 780.595489 319.38657 
L 782.629665 317.672032 
L 784.663841 316.520866 
L 788.732194 314.652628 
L 790.76637 313.204069 
L 792.800547 312.768601 
L 794.834723 311.18774 
L 796.8689 310.050541 
L 798.903076 308.607482 
L 800.937252 306.538374 
L 802.971429 306.17909 
L 805.005605 304.427311 
L 807.039781 301.382767 
L 809.073958 300.948478 
L 811.108134 300.151282 
L 813.14231 297.946674 
L 815.176487 297.49389 
L 817.210663 294.905153 
L 819.244839 294.95611 
L 821.279016 294.127293 
L 823.313192 293.049453 
L 825.347368 292.663425 
L 827.381545 291.037761 
L 829.415721 290.396927 
L 831.449897 290.188757 
L 833.484074 289.811219 
L 835.51825 288.591791 
L 837.552427 286.599936 
L 839.586603 286.466095 
L 841.620779 284.416999 
L 843.654956 283.634665 
L 845.689132 283.645795 
L 847.723308 281.802031 
L 849.757485 281.875684 
L 851.791661 277.823254 
L 853.825837 276.816906 
L 855.860014 275.212454 
L 857.89419 274.646692 
L 859.928366 274.554708 
L 861.962543 272.940959 
L 863.996719 272.029585 
L 868.065072 266.159798 
L 870.099248 265.28201 
L 872.133424 265.131518 
L 874.167601 261.029157 
L 876.201777 257.745247 
L 878.235954 256.724453 
L 882.304306 253.440499 
L 884.338483 251.017422 
L 886.372659 248.981288 
L 888.406835 247.281295 
L 890.441012 246.809546 
L 892.475188 244.771121 
L 894.509364 243.833058 
L 896.543541 243.686079 
L 898.577717 241.509951 
L 900.611893 240.255825 
L 902.64607 233.615029 
L 904.680246 233.45906 
L 906.714422 230.189575 
L 908.748599 226.641083 
L 910.782775 226.75513 
L 914.851128 226.544669 
L 916.885304 225.854668 
L 920.953657 225.398348 
L 922.987833 222.496276 
L 925.02201 222.193372 
L 927.056186 221.037427 
L 929.090362 220.916179 
L 931.124539 218.880111 
L 933.158715 216.683185 
L 937.227068 214.993427 
L 939.261244 210.668165 
L 941.29542 209.599556 
L 943.329597 207.716228 
L 945.363773 203.642062 
L 947.397949 200.434227 
L 949.432126 200.372097 
L 951.466302 197.283831 
L 953.500478 195.43686 
L 955.534655 195.729878 
L 957.568831 196.486352 
L 959.603008 195.360545 
L 961.637184 194.737257 
L 965.705537 190.745517 
L 967.739713 189.723827 
L 969.773889 189.255374 
L 971.808066 188.378808 
L 973.842242 188.175395 
L 975.876418 185.126061 
L 977.910595 182.825127 
L 979.944771 182.581015 
L 981.978947 180.579143 
L 984.013124 180.004608 
L 986.0473 179.131468 
L 988.081476 179.907103 
L 990.115653 179.829696 
L 992.149829 179.565681 
L 994.184005 177.994509 
L 996.218182 177.326244 
L 996.218182 177.326244 
" style="fill:none;stroke:#1f77b4;stroke-linecap:square;stroke-width:1.5;"/>
   </g>
   <g id="line2d_19">
    <path clip-path="url(#pb3ad4497b4)" d="M 184.581818 484.232727 
L 436.819686 484.185551 
L 440.888038 484.113271 
L 446.990567 483.982189 
L 469.366507 483.428263 
L 473.43486 483.288599 
L 479.537389 483.130278 
L 485.639918 482.977492 
L 493.776623 482.420085 
L 497.844976 482.01415 
L 501.913329 481.864701 
L 505.981681 481.323015 
L 508.015858 480.690112 
L 512.084211 480.421005 
L 514.118387 480.03984 
L 516.152563 479.958091 
L 520.220916 479.565428 
L 524.289269 478.482094 
L 526.323445 478.26583 
L 532.425974 478.083088 
L 534.46015 477.893611 
L 540.562679 476.621261 
L 544.631032 476.548961 
L 548.699385 476.156135 
L 550.733561 475.889996 
L 552.767738 475.781548 
L 554.801914 475.198382 
L 560.904443 474.640661 
L 562.938619 474.159226 
L 567.006972 472.763086 
L 569.041148 472.663878 
L 577.177854 471.095366 
L 579.21203 470.790254 
L 581.246206 470.643187 
L 583.280383 469.978459 
L 585.314559 469.510769 
L 587.348735 468.271558 
L 589.382912 467.496381 
L 591.417088 467.122878 
L 593.451265 466.200852 
L 597.519617 465.387144 
L 601.58797 464.140191 
L 603.622146 463.590495 
L 607.690499 462.814311 
L 609.724675 461.716975 
L 615.827204 460.412402 
L 617.861381 459.894623 
L 619.895557 459.569626 
L 621.929733 458.864831 
L 623.96391 457.952023 
L 630.066439 457.071048 
L 632.100615 456.523773 
L 636.168968 454.395404 
L 640.237321 453.503892 
L 642.271497 453.313909 
L 644.305673 452.824832 
L 646.33985 451.546711 
L 648.374026 451.38219 
L 650.408202 451.397908 
L 652.442379 450.578205 
L 656.510731 449.201566 
L 658.544908 448.853898 
L 660.579084 448.640714 
L 662.61326 448.253985 
L 664.647437 447.478231 
L 666.681613 447.045248 
L 668.715789 446.843218 
L 670.749966 446.198759 
L 672.784142 445.822415 
L 674.818319 444.622115 
L 676.852495 443.914803 
L 678.886671 442.522409 
L 682.955024 440.716064 
L 684.9892 440.195778 
L 687.023377 440.113655 
L 689.057553 438.718661 
L 691.091729 437.696158 
L 693.125906 437.524504 
L 695.160082 436.904527 
L 697.194258 435.762451 
L 699.228435 435.033158 
L 701.262611 434.78282 
L 703.296787 434.01209 
L 705.330964 433.057196 
L 711.433493 431.986688 
L 715.501846 430.740614 
L 717.536022 429.974276 
L 719.570198 429.650084 
L 723.638551 427.133724 
L 725.672727 426.256274 
L 727.706904 425.551188 
L 729.74108 424.378134 
L 731.775256 423.906221 
L 735.843609 421.629358 
L 737.877785 420.630566 
L 739.911962 420.011119 
L 741.946138 418.746637 
L 743.980314 418.308682 
L 746.014491 417.317921 
L 748.048667 416.487587 
L 750.082843 416.183079 
L 752.11702 416.136029 
L 756.185373 414.729888 
L 762.287902 415.624633 
L 764.322078 414.00467 
L 766.356254 413.283904 
L 768.390431 412.190494 
L 770.424607 411.942998 
L 772.458783 410.764478 
L 774.49296 409.976202 
L 776.527136 409.590458 
L 778.561312 408.073702 
L 780.595489 407.388066 
L 782.629665 406.329206 
L 784.663841 405.101589 
L 786.698018 404.399384 
L 788.732194 402.348099 
L 790.76637 400.71255 
L 792.800547 398.884739 
L 794.834723 397.712798 
L 796.8689 397.155061 
L 798.903076 396.308976 
L 802.971429 394.20081 
L 805.005605 392.596746 
L 807.039781 391.522692 
L 811.108134 389.812627 
L 813.14231 388.407911 
L 815.176487 387.173327 
L 817.210663 385.485849 
L 819.244839 384.899202 
L 821.279016 384.023683 
L 823.313192 383.378529 
L 825.347368 381.595226 
L 827.381545 381.380084 
L 829.415721 379.591511 
L 831.449897 378.266175 
L 833.484074 376.137992 
L 835.51825 375.384639 
L 837.552427 374.387261 
L 839.586603 373.577135 
L 843.654956 371.512642 
L 845.689132 369.89251 
L 847.723308 369.584445 
L 849.757485 369.000624 
L 851.791661 367.655081 
L 853.825837 365.817112 
L 855.860014 363.43026 
L 857.89419 363.113979 
L 859.928366 362.134037 
L 861.962543 360.24726 
L 863.996719 359.047855 
L 866.030895 358.109671 
L 868.065072 356.678549 
L 874.167601 351.798295 
L 876.201777 351.273385 
L 878.235954 350.628569 
L 880.27013 349.769668 
L 882.304306 349.950778 
L 884.338483 348.802045 
L 886.372659 347.833102 
L 888.406835 345.463513 
L 890.441012 343.704139 
L 892.475188 340.697044 
L 894.509364 338.870728 
L 898.577717 336.655875 
L 900.611893 336.439346 
L 902.64607 334.164687 
L 904.680246 331.678911 
L 906.714422 331.486498 
L 908.748599 329.856884 
L 910.782775 327.794344 
L 912.816951 326.595485 
L 914.851128 325.012321 
L 916.885304 322.140725 
L 920.953657 319.8478 
L 922.987833 318.476647 
L 925.02201 315.830101 
L 927.056186 315.386581 
L 929.090362 312.47507 
L 931.124539 310.46363 
L 933.158715 310.177486 
L 935.192891 306.639818 
L 937.227068 305.463698 
L 941.29542 302.448812 
L 943.329597 301.159266 
L 945.363773 297.949337 
L 947.397949 297.527912 
L 949.432126 296.249453 
L 951.466302 295.378342 
L 953.500478 295.062323 
L 955.534655 293.607031 
L 957.568831 291.353977 
L 959.603008 290.229676 
L 961.637184 287.741259 
L 963.67136 285.025251 
L 965.705537 282.781449 
L 967.739713 281.651299 
L 969.773889 280.275182 
L 971.808066 278.320514 
L 973.842242 276.112698 
L 975.876418 272.876145 
L 977.910595 272.420785 
L 979.944771 270.866374 
L 984.013124 269.211663 
L 986.0473 268.774089 
L 988.081476 265.205018 
L 990.115653 264.755769 
L 992.149829 263.735716 
L 994.184005 260.164899 
L 996.218182 259.116957 
L 996.218182 259.116957 
" style="fill:none;stroke:#ff7f0e;stroke-linecap:square;stroke-width:1.5;"/>
   </g>
   <g id="line2d_20">
    <path clip-path="url(#pb3ad4497b4)" d="M 184.581818 484.232727 
L 444.956391 484.148807 
L 449.024744 484.073693 
L 457.161449 483.921396 
L 479.537389 483.083702 
L 481.571565 482.963366 
L 483.605742 482.690864 
L 487.674094 482.587015 
L 503.947505 481.7333 
L 505.981681 481.391805 
L 510.050034 481.111346 
L 512.084211 481.059777 
L 514.118387 480.83429 
L 516.152563 480.746534 
L 518.18674 480.515742 
L 520.220916 480.056369 
L 522.255092 479.849795 
L 524.289269 479.452977 
L 526.323445 479.200651 
L 530.391798 478.911868 
L 532.425974 478.501728 
L 534.46015 478.275758 
L 538.528503 477.580833 
L 540.562679 477.38797 
L 542.596856 476.717964 
L 546.665208 476.158626 
L 548.699385 475.572144 
L 550.733561 475.197418 
L 552.767738 474.946695 
L 554.801914 474.574791 
L 558.870267 474.118949 
L 560.904443 473.662304 
L 562.938619 472.738026 
L 567.006972 471.951233 
L 569.041148 471.965706 
L 571.075325 471.589485 
L 573.109501 470.738194 
L 575.143677 470.105958 
L 577.177854 469.887281 
L 579.21203 469.026323 
L 581.246206 468.560542 
L 585.314559 468.371853 
L 587.348735 467.950881 
L 589.382912 467.408411 
L 591.417088 467.211163 
L 593.451265 466.881016 
L 597.519617 465.905495 
L 599.553794 465.783365 
L 601.58797 465.918796 
L 603.622146 464.912786 
L 605.656323 464.580963 
L 607.690499 464.031182 
L 611.758852 463.423735 
L 613.793028 462.632951 
L 615.827204 461.481215 
L 617.861381 461.324051 
L 619.895557 460.367719 
L 621.929733 460.068378 
L 623.96391 459.535628 
L 625.998086 459.441844 
L 630.066439 458.59574 
L 632.100615 457.938304 
L 636.168968 457.518655 
L 638.203144 456.367713 
L 642.271497 455.916909 
L 644.305673 454.939172 
L 648.374026 454.096652 
L 650.408202 453.127736 
L 652.442379 452.777553 
L 654.476555 451.883681 
L 656.510731 451.578816 
L 658.544908 450.957964 
L 662.61326 450.255619 
L 664.647437 449.664425 
L 666.681613 448.30417 
L 668.715789 447.20323 
L 670.749966 446.955542 
L 672.784142 446.026376 
L 674.818319 444.597548 
L 676.852495 443.392643 
L 678.886671 442.871075 
L 680.920848 442.210574 
L 682.955024 441.691428 
L 684.9892 441.507026 
L 687.023377 440.749753 
L 689.057553 440.547208 
L 691.091729 440.000871 
L 693.125906 438.951908 
L 695.160082 438.759538 
L 697.194258 437.845935 
L 699.228435 437.842656 
L 701.262611 437.271836 
L 703.296787 435.942213 
L 705.330964 435.352707 
L 707.36514 433.97366 
L 709.399316 433.591975 
L 711.433493 432.777583 
L 713.467669 431.841587 
L 717.536022 430.379852 
L 719.570198 428.970329 
L 723.638551 427.612494 
L 725.672727 426.33966 
L 727.706904 425.545312 
L 729.74108 424.219802 
L 731.775256 423.138967 
L 733.809433 422.90169 
L 735.843609 422.186314 
L 737.877785 421.971336 
L 739.911962 421.348517 
L 741.946138 419.935186 
L 743.980314 419.26398 
L 746.014491 417.745915 
L 748.048667 416.080309 
L 754.151196 413.17091 
L 756.185373 412.649743 
L 758.219549 410.792602 
L 760.253725 409.254787 
L 762.287902 407.504726 
L 766.356254 406.433509 
L 768.390431 405.552633 
L 772.458783 404.166095 
L 774.49296 403.144973 
L 780.595489 400.638837 
L 782.629665 399.583305 
L 784.663841 398.711535 
L 786.698018 398.04842 
L 788.732194 395.897355 
L 792.800547 393.598025 
L 794.834723 392.621668 
L 796.8689 391.4627 
L 798.903076 390.033509 
L 800.937252 389.733355 
L 802.971429 388.212202 
L 805.005605 388.79886 
L 807.039781 387.07173 
L 809.073958 386.053237 
L 811.108134 384.237942 
L 813.14231 383.045105 
L 815.176487 382.159395 
L 817.210663 382.039947 
L 819.244839 380.353397 
L 821.279016 379.871424 
L 823.313192 377.879886 
L 825.347368 374.696875 
L 827.381545 373.740458 
L 829.415721 372.190302 
L 831.449897 370.148135 
L 833.484074 366.934222 
L 835.51825 365.94087 
L 837.552427 365.768086 
L 839.586603 365.124743 
L 841.620779 363.405895 
L 843.654956 362.975937 
L 845.689132 359.904016 
L 847.723308 358.92737 
L 849.757485 357.039502 
L 853.825837 354.287027 
L 855.860014 351.467261 
L 857.89419 351.431657 
L 859.928366 350.227658 
L 861.962543 349.469198 
L 863.996719 348.518673 
L 866.030895 347.274563 
L 868.065072 344.560159 
L 870.099248 342.569897 
L 872.133424 341.761288 
L 874.167601 339.395921 
L 876.201777 336.303061 
L 878.235954 335.847604 
L 880.27013 334.065152 
L 882.304306 333.490082 
L 884.338483 332.433061 
L 886.372659 329.783395 
L 888.406835 328.60507 
L 890.441012 326.77822 
L 892.475188 324.065048 
L 894.509364 322.346636 
L 896.543541 321.804421 
L 898.577717 319.91149 
L 900.611893 317.576076 
L 902.64607 316.687245 
L 904.680246 313.540755 
L 906.714422 310.883363 
L 908.748599 310.222212 
L 910.782775 307.168088 
L 912.816951 304.993509 
L 914.851128 304.417752 
L 916.885304 301.930056 
L 918.919481 300.439957 
L 920.953657 299.216994 
L 922.987833 295.938387 
L 927.056186 290.057797 
L 929.090362 286.621606 
L 931.124539 285.322022 
L 933.158715 284.794254 
L 935.192891 283.763268 
L 937.227068 280.556721 
L 939.261244 279.728602 
L 941.29542 278.316869 
L 943.329597 277.959692 
L 945.363773 274.63554 
L 947.397949 271.675376 
L 949.432126 269.081969 
L 951.466302 267.875438 
L 953.500478 266.497619 
L 955.534655 266.006753 
L 957.568831 263.034411 
L 959.603008 261.035966 
L 961.637184 260.429678 
L 963.67136 257.519793 
L 965.705537 256.087089 
L 967.739713 254.151734 
L 969.773889 249.834394 
L 971.808066 247.478531 
L 973.842242 245.593261 
L 975.876418 244.314234 
L 977.910595 242.598288 
L 979.944771 241.291764 
L 981.978947 236.736401 
L 984.013124 236.227356 
L 986.0473 232.232627 
L 988.081476 230.189182 
L 990.115653 227.257366 
L 994.184005 223.960755 
L 996.218182 221.518386 
L 996.218182 221.518386 
" style="fill:none;stroke:#2ca02c;stroke-linecap:square;stroke-width:1.5;"/>
   </g>
   <g id="line2d_21">
    <path clip-path="url(#pb3ad4497b4)" d="M 184.581818 484.232727 
L 438.853862 484.184154 
L 442.922215 484.104232 
L 446.990567 484.057201 
L 451.05892 483.909945 
L 459.195625 483.732785 
L 465.298154 483.612512 
L 475.469036 483.277143 
L 487.674094 482.82158 
L 497.844976 482.123508 
L 518.18674 480.32479 
L 520.220916 479.565428 
L 524.289269 478.482094 
L 526.323445 478.26583 
L 528.357621 478.212302 
L 532.425974 477.922013 
L 536.494327 477.010084 
L 540.562679 476.952973 
L 546.665208 476.223268 
L 548.699385 476.052903 
L 550.733561 475.561776 
L 552.767738 475.499641 
L 556.83609 475.047094 
L 558.870267 474.344984 
L 562.938619 474.058385 
L 564.972796 473.45083 
L 567.006972 473.307028 
L 571.075325 472.540739 
L 573.109501 471.846326 
L 575.143677 471.747465 
L 577.177854 471.432652 
L 579.21203 470.940901 
L 581.246206 470.597244 
L 583.280383 469.93278 
L 585.314559 469.105036 
L 587.348735 468.612284 
L 589.382912 468.30192 
L 591.417088 467.79996 
L 593.451265 466.934131 
L 597.519617 465.941335 
L 599.553794 465.286671 
L 603.622146 464.551474 
L 605.656323 464.160213 
L 607.690499 462.803874 
L 611.758852 461.943761 
L 615.827204 459.754197 
L 617.861381 459.340574 
L 619.895557 458.803825 
L 621.929733 458.516088 
L 623.96391 457.974533 
L 625.998086 458.026865 
L 628.032262 457.11695 
L 630.066439 456.990349 
L 632.100615 456.612412 
L 634.134792 455.9094 
L 638.203144 455.101088 
L 640.237321 454.929073 
L 642.271497 454.528285 
L 644.305673 454.339744 
L 646.33985 453.23935 
L 648.374026 452.490332 
L 650.408202 451.212088 
L 654.476555 450.169604 
L 656.510731 449.409502 
L 658.544908 449.24919 
L 660.579084 448.8822 
L 662.61326 448.316639 
L 664.647437 447.125819 
L 666.681613 446.277783 
L 668.715789 445.938863 
L 670.749966 445.742374 
L 672.784142 445.076771 
L 674.818319 444.622115 
L 676.852495 443.218056 
L 678.886671 442.343206 
L 680.920848 442.124184 
L 682.955024 441.445152 
L 684.9892 440.499454 
L 687.023377 439.115597 
L 689.057553 439.03214 
L 691.091729 438.247807 
L 693.125906 437.968286 
L 695.160082 437.176552 
L 699.228435 435.19485 
L 701.262611 434.840946 
L 703.296787 434.284033 
L 705.330964 434.016613 
L 707.36514 433.270151 
L 709.399316 432.324176 
L 715.501846 430.440477 
L 717.536022 429.974276 
L 719.570198 428.746048 
L 723.638551 428.10312 
L 725.672727 426.797949 
L 727.706904 425.874643 
L 729.74108 425.161652 
L 731.775256 425.3634 
L 733.809433 425.155645 
L 735.843609 424.176718 
L 737.877785 423.350885 
L 739.911962 422.048655 
L 741.946138 421.601495 
L 743.980314 421.633444 
L 746.014491 421.023403 
L 750.082843 418.623392 
L 752.11702 417.52141 
L 754.151196 417.777623 
L 756.185373 416.85171 
L 758.219549 416.152281 
L 760.253725 416.475366 
L 762.287902 414.939488 
L 764.322078 414.159041 
L 766.356254 412.399607 
L 768.390431 412.010093 
L 770.424607 410.987744 
L 774.49296 409.525431 
L 776.527136 409.198254 
L 782.629665 405.64082 
L 784.663841 404.791255 
L 786.698018 403.065581 
L 790.76637 401.964161 
L 794.834723 400.362721 
L 796.8689 398.386852 
L 798.903076 396.681659 
L 800.937252 395.48999 
L 802.971429 393.92997 
L 809.073958 390.644162 
L 811.108134 388.929361 
L 813.14231 388.143765 
L 815.176487 386.336413 
L 817.210663 385.66099 
L 819.244839 384.36182 
L 821.279016 383.531039 
L 823.313192 383.260761 
L 827.381545 380.735682 
L 829.415721 378.787201 
L 831.449897 378.422068 
L 833.484074 377.487922 
L 835.51825 375.795916 
L 837.552427 375.186584 
L 839.586603 374.973755 
L 841.620779 372.523376 
L 843.654956 372.025407 
L 845.689132 371.078451 
L 847.723308 369.03995 
L 849.757485 368.145019 
L 851.791661 367.859454 
L 853.825837 366.894657 
L 855.860014 365.154455 
L 857.89419 363.85725 
L 859.928366 362.735578 
L 861.962543 361.234709 
L 866.030895 359.785266 
L 868.065072 358.594285 
L 870.099248 356.864874 
L 874.167601 354.705942 
L 876.201777 353.021836 
L 878.235954 351.945666 
L 880.27013 349.516597 
L 882.304306 347.710948 
L 884.338483 348.097183 
L 886.372659 347.007678 
L 888.406835 345.411716 
L 890.441012 343.964302 
L 892.475188 340.943077 
L 894.509364 339.396314 
L 896.543541 339.329219 
L 898.577717 336.87704 
L 900.611893 336.444104 
L 902.64607 336.224717 
L 906.714422 333.959059 
L 908.748599 331.0557 
L 910.782775 329.850315 
L 912.816951 328.001009 
L 914.851128 326.337013 
L 916.885304 324.382541 
L 918.919481 322.0012 
L 920.953657 320.797102 
L 922.987833 318.587377 
L 925.02201 318.041998 
L 929.090362 314.731595 
L 931.124539 311.702862 
L 933.158715 310.575451 
L 935.192891 307.674721 
L 937.227068 306.446782 
L 939.261244 303.87557 
L 941.29542 302.827332 
L 943.329597 299.066677 
L 945.363773 296.523768 
L 947.397949 296.160044 
L 949.432126 294.97514 
L 951.466302 294.059598 
L 953.500478 292.610133 
L 955.534655 292.062789 
L 957.568831 290.819378 
L 959.603008 289.822785 
L 961.637184 288.965816 
L 963.67136 288.445184 
L 965.705537 285.86031 
L 967.739713 283.655549 
L 969.773889 282.34824 
L 971.808066 280.076527 
L 973.842242 276.620848 
L 975.876418 275.535261 
L 977.910595 275.483737 
L 979.944771 272.290196 
L 981.978947 268.638634 
L 984.013124 266.363058 
L 986.0473 264.365245 
L 988.081476 262.043317 
L 990.115653 261.182813 
L 992.149829 260.828931 
L 994.184005 259.05511 
L 996.218182 258.542487 
L 996.218182 258.542487 
" style="fill:none;stroke:#d62728;stroke-dasharray:5.55,2.4;stroke-dashoffset:0;stroke-width:1.5;"/>
   </g>
   <g id="line2d_22">
    <path clip-path="url(#pb3ad4497b4)" d="M 184.581818 484.232727 
L 449.024744 484.132012 
L 463.263978 483.773593 
L 475.469036 483.33173 
L 477.503213 483.32954 
L 487.674094 482.666226 
L 495.8108 482.129861 
L 499.879152 481.987422 
L 505.981681 481.234753 
L 508.015858 480.893778 
L 510.050034 480.411112 
L 512.084211 480.314099 
L 516.152563 479.852528 
L 518.18674 479.813803 
L 520.220916 479.397213 
L 526.323445 479.116938 
L 528.357621 478.885914 
L 530.391798 478.475654 
L 532.425974 477.829898 
L 536.494327 477.319015 
L 538.528503 477.119854 
L 540.562679 476.307085 
L 542.596856 475.939674 
L 546.665208 475.409609 
L 554.801914 474.075901 
L 556.83609 473.435814 
L 558.870267 473.289612 
L 562.938619 472.643302 
L 564.972796 471.783308 
L 569.041148 471.946953 
L 571.075325 471.518935 
L 573.109501 471.264907 
L 575.143677 470.83457 
L 577.177854 469.948269 
L 579.21203 469.524878 
L 583.280383 469.218942 
L 585.314559 469.111733 
L 587.348735 468.857041 
L 589.382912 468.325982 
L 591.417088 468.029739 
L 593.451265 467.594891 
L 595.485441 467.00703 
L 597.519617 466.273048 
L 599.553794 466.087236 
L 601.58797 465.788533 
L 603.622146 464.869109 
L 605.656323 464.789794 
L 607.690499 464.317294 
L 609.724675 463.9889 
L 611.758852 463.300404 
L 613.793028 462.879269 
L 615.827204 461.950071 
L 617.861381 461.351277 
L 619.895557 460.536332 
L 621.929733 460.255216 
L 623.96391 459.127941 
L 625.998086 458.558139 
L 632.100615 457.846735 
L 634.134792 457.261514 
L 636.168968 457.01672 
L 638.203144 456.34418 
L 642.271497 455.866684 
L 648.374026 454.833131 
L 650.408202 453.584487 
L 652.442379 453.072922 
L 654.476555 451.727395 
L 656.510731 450.525325 
L 658.544908 449.963641 
L 660.579084 449.724384 
L 662.61326 449.14595 
L 664.647437 448.141245 
L 666.681613 448.154876 
L 670.749966 447.289309 
L 672.784142 447.263958 
L 674.818319 446.810577 
L 676.852495 446.591801 
L 678.886671 445.968406 
L 680.920848 445.723066 
L 682.955024 444.682385 
L 684.9892 443.862387 
L 687.023377 443.349014 
L 689.057553 442.133266 
L 691.091729 441.494273 
L 693.125906 440.737415 
L 695.160082 439.527943 
L 697.194258 438.776653 
L 699.228435 437.876133 
L 701.262611 437.130019 
L 703.296787 435.771257 
L 705.330964 435.177746 
L 707.36514 433.822268 
L 709.399316 432.865262 
L 711.433493 431.75783 
L 713.467669 430.361128 
L 715.501846 430.207352 
L 717.536022 429.457758 
L 719.570198 428.348596 
L 721.604375 428.097757 
L 723.638551 426.35475 
L 725.672727 425.628288 
L 727.706904 424.672205 
L 729.74108 424.005341 
L 731.775256 422.990314 
L 733.809433 422.442217 
L 735.843609 422.275025 
L 737.877785 421.702678 
L 739.911962 420.002073 
L 741.946138 418.090484 
L 746.014491 416.887729 
L 748.048667 415.557063 
L 750.082843 414.520387 
L 752.11702 413.797837 
L 754.151196 412.502148 
L 756.185373 411.65447 
L 758.219549 411.495779 
L 760.253725 409.737016 
L 762.287902 409.175782 
L 766.356254 405.320998 
L 768.390431 404.245204 
L 770.424607 403.327332 
L 772.458783 402.092055 
L 774.49296 401.451614 
L 776.527136 400.1652 
L 778.561312 398.461994 
L 780.595489 397.387973 
L 782.629665 397.07335 
L 784.663841 396.1725 
L 786.698018 395.433021 
L 788.732194 396.021812 
L 790.76637 395.028094 
L 792.800547 394.867799 
L 794.834723 393.697669 
L 796.8689 392.301458 
L 798.903076 391.583316 
L 800.937252 390.484733 
L 802.971429 388.55478 
L 805.005605 388.258412 
L 811.108134 385.644186 
L 813.14231 385.26333 
L 815.176487 383.266718 
L 817.210663 381.800101 
L 819.244839 381.134323 
L 821.279016 378.037699 
L 823.313192 377.374933 
L 825.347368 375.575307 
L 827.381545 374.668385 
L 829.415721 374.10331 
L 831.449897 373.078173 
L 833.484074 372.37415 
L 835.51825 369.679474 
L 837.552427 368.819657 
L 839.586603 367.048095 
L 841.620779 366.345164 
L 843.654956 365.776586 
L 845.689132 364.11426 
L 847.723308 362.696613 
L 849.757485 360.98621 
L 851.791661 359.93087 
L 853.825837 359.390673 
L 855.860014 356.168904 
L 857.89419 353.156168 
L 859.928366 352.7511 
L 861.962543 351.46114 
L 863.996719 350.464427 
L 866.030895 348.153061 
L 868.065072 346.398532 
L 870.099248 345.820527 
L 872.133424 343.713272 
L 874.167601 342.736658 
L 876.201777 339.553658 
L 878.235954 336.854628 
L 880.27013 335.962818 
L 882.304306 333.959158 
L 884.338483 333.924393 
L 886.372659 332.738453 
L 890.441012 327.491713 
L 892.475188 326.01964 
L 894.509364 322.749795 
L 896.543541 322.015057 
L 898.577717 319.318035 
L 900.611893 318.114941 
L 902.64607 316.274866 
L 904.680246 315.584832 
L 906.714422 313.821934 
L 910.782775 307.661169 
L 912.816951 307.196142 
L 914.851128 305.86271 
L 916.885304 303.812796 
L 918.919481 302.05747 
L 922.987833 297.625723 
L 925.02201 294.125438 
L 927.056186 293.510312 
L 929.090362 293.170483 
L 931.124539 292.068725 
L 935.192891 286.513277 
L 937.227068 285.435044 
L 939.261244 284.050023 
L 941.29542 281.444941 
L 943.329597 280.589325 
L 945.363773 279.253296 
L 947.397949 275.985863 
L 949.432126 273.955054 
L 951.466302 269.90245 
L 953.500478 268.48812 
L 955.534655 267.886197 
L 957.568831 266.925067 
L 959.603008 266.933054 
L 961.637184 263.966146 
L 963.67136 263.96189 
L 965.705537 262.189357 
L 967.739713 259.293178 
L 969.773889 257.963543 
L 971.808066 254.842084 
L 973.842242 253.617201 
L 975.876418 249.139723 
L 977.910595 247.573527 
L 979.944771 246.982996 
L 981.978947 245.370578 
L 984.013124 243.539669 
L 986.0473 241.054941 
L 988.081476 237.464876 
L 990.115653 235.859158 
L 992.149829 234.471976 
L 994.184005 230.178053 
L 996.218182 226.577229 
L 996.218182 226.577229 
" style="fill:none;stroke:#9467bd;stroke-dasharray:5.55,2.4;stroke-dashoffset:0;stroke-width:1.5;"/>
   </g>
   <g id="line2d_23">
    <path clip-path="url(#pb3ad4497b4)" d="M 184.581818 484.232727 
L 444.956391 484.137273 
L 455.127273 483.625291 
L 459.195625 483.332098 
L 463.263978 483.216753 
L 465.298154 483.045166 
L 467.332331 482.375387 
L 471.400684 482.199239 
L 475.469036 482.014038 
L 477.503213 481.742847 
L 479.537389 481.703839 
L 481.571565 481.212165 
L 483.605742 480.911747 
L 491.742447 480.446018 
L 493.776623 479.949587 
L 497.844976 479.420565 
L 499.879152 478.9916 
L 501.913329 478.401082 
L 508.015858 478.12486 
L 510.050034 477.519326 
L 512.084211 477.176214 
L 514.118387 477.047518 
L 516.152563 476.454939 
L 518.18674 476.100445 
L 520.220916 476.078812 
L 522.255092 474.733756 
L 524.289269 473.949101 
L 526.323445 472.70729 
L 530.391798 471.424748 
L 532.425974 471.275159 
L 534.46015 470.273266 
L 536.494327 470.073247 
L 538.528503 468.741685 
L 540.562679 468.040694 
L 542.596856 466.210133 
L 544.631032 465.308859 
L 546.665208 463.737891 
L 548.699385 462.520006 
L 556.83609 462.096851 
L 558.870267 460.012538 
L 560.904443 459.991506 
L 564.972796 459.107457 
L 567.006972 458.231559 
L 569.041148 457.004592 
L 573.109501 455.786994 
L 575.143677 454.02741 
L 577.177854 454.140519 
L 579.21203 453.01262 
L 581.246206 453.002908 
L 583.280383 452.486766 
L 585.314559 451.57806 
L 587.348735 450.367206 
L 593.451265 448.068579 
L 595.485441 444.219505 
L 597.519617 442.015533 
L 599.553794 439.30025 
L 601.58797 436.803661 
L 603.622146 435.462892 
L 605.656323 433.943217 
L 607.690499 431.40882 
L 609.724675 430.427841 
L 611.758852 429.149158 
L 613.793028 429.124007 
L 615.827204 427.582564 
L 617.861381 426.325535 
L 623.96391 425.29223 
L 625.998086 424.535036 
L 628.032262 422.678899 
L 630.066439 421.828395 
L 632.100615 419.703938 
L 634.134792 418.612502 
L 636.168968 414.330865 
L 638.203144 414.144529 
L 640.237321 413.698553 
L 642.271497 412.083424 
L 644.305673 412.022483 
L 646.33985 410.756518 
L 648.374026 410.127654 
L 650.408202 405.367055 
L 652.442379 403.797591 
L 654.476555 402.532973 
L 658.544908 401.350797 
L 660.579084 399.144766 
L 662.61326 397.910471 
L 664.647437 395.399823 
L 668.715789 394.35224 
L 670.749966 392.934823 
L 672.784142 391.759963 
L 674.818319 387.81272 
L 676.852495 385.644088 
L 678.886671 381.155688 
L 680.920848 380.384113 
L 682.955024 377.669217 
L 684.9892 374.004594 
L 687.023377 372.719402 
L 689.057553 370.296171 
L 691.091729 369.137051 
L 693.125906 364.883042 
L 695.160082 364.270982 
L 697.194258 361.957543 
L 699.228435 360.228372 
L 701.262611 358.854841 
L 703.296787 358.727067 
L 705.330964 356.842887 
L 707.36514 355.61964 
L 709.399316 355.34276 
L 713.467669 352.85932 
L 715.501846 350.864039 
L 717.536022 351.411579 
L 719.570198 348.189494 
L 721.604375 347.771267 
L 723.638551 346.791467 
L 725.672727 346.572898 
L 727.706904 345.089651 
L 729.74108 341.699278 
L 731.775256 337.742073 
L 733.809433 334.809973 
L 735.843609 334.183946 
L 737.877785 332.702358 
L 739.911962 331.980768 
L 741.946138 327.057915 
L 743.980314 326.320973 
L 746.014491 325.101992 
L 748.048667 324.191109 
L 750.082843 320.344132 
L 752.11702 313.823167 
L 754.151196 313.241594 
L 756.185373 309.916493 
L 758.219549 308.653452 
L 760.253725 307.846098 
L 762.287902 304.367657 
L 764.322078 300.645727 
L 766.356254 300.336538 
L 770.424607 299.510186 
L 772.458783 297.070981 
L 774.49296 290.285783 
L 776.527136 288.603597 
L 778.561312 285.635445 
L 780.595489 285.030205 
L 782.629665 284.931761 
L 786.698018 276.313994 
L 788.732194 276.788296 
L 790.76637 272.495224 
L 792.800547 270.515153 
L 794.834723 270.474148 
L 796.8689 269.29865 
L 798.903076 266.686192 
L 800.937252 265.691235 
L 802.971429 264.395405 
L 805.005605 258.933556 
L 807.039781 257.364675 
L 809.073958 257.088352 
L 811.108134 256.175974 
L 813.14231 252.667767 
L 815.176487 248.242403 
L 817.210663 244.81767 
L 819.244839 244.108683 
L 821.279016 242.803272 
L 823.313192 242.09878 
L 825.347368 237.809963 
L 827.381545 236.485741 
L 829.415721 236.257298 
L 831.449897 234.552852 
L 833.484074 233.28561 
L 835.51825 230.208103 
L 839.586603 228.946142 
L 841.620779 223.413564 
L 843.654956 220.357334 
L 845.689132 219.390901 
L 847.723308 219.075536 
L 849.757485 215.683384 
L 851.791661 214.462559 
L 853.825837 213.683935 
L 855.860014 210.988964 
L 857.89419 208.614573 
L 859.928366 206.604998 
L 861.962543 205.342077 
L 863.996719 205.079742 
L 866.030895 202.658432 
L 868.065072 200.918503 
L 870.099248 196.837856 
L 872.133424 195.482274 
L 874.167601 196.520505 
L 876.201777 193.594319 
L 878.235954 188.145388 
L 880.27013 183.9194 
L 882.304306 183.922237 
L 884.338483 183.55382 
L 886.372659 182.842804 
L 888.406835 183.577542 
L 890.441012 182.97503 
L 892.475188 180.190759 
L 894.509364 173.836914 
L 896.543541 171.900992 
L 898.577717 170.711374 
L 900.611893 168.509713 
L 902.64607 165.530191 
L 904.680246 164.466143 
L 906.714422 162.528868 
L 908.748599 160.754327 
L 910.782775 159.790535 
L 912.816951 157.191039 
L 916.885304 155.284076 
L 918.919481 154.169028 
L 920.953657 152.454959 
L 922.987833 152.250019 
L 927.056186 150.817903 
L 929.090362 148.128846 
L 931.124539 146.400701 
L 933.158715 144.875685 
L 935.192891 141.720772 
L 937.227068 139.19458 
L 939.261244 135.656279 
L 941.29542 134.404793 
L 943.329597 133.662395 
L 945.363773 131.39365 
L 947.397949 130.728745 
L 949.432126 124.798508 
L 951.466302 121.493561 
L 953.500478 121.090598 
L 955.534655 119.183439 
L 957.568831 118.129757 
L 959.603008 118.012262 
L 961.637184 117.324399 
L 963.67136 116.273664 
L 965.705537 111.970989 
L 967.739713 111.585769 
L 969.773889 106.231005 
L 971.808066 105.576183 
L 973.842242 104.176846 
L 975.876418 103.265734 
L 977.910595 102.655736 
L 979.944771 99.789105 
L 981.978947 98.688656 
L 984.013124 98.400723 
L 986.0473 95.67066 
L 992.149829 91.95712 
L 994.184005 90.142185 
L 996.218182 88.887273 
L 996.218182 88.887273 
" style="fill:none;stroke:#8c564b;stroke-dasharray:5.55,2.4;stroke-dashoffset:0;stroke-width:1.5;"/>
   </g>
   <g id="patch_3">
    <path d="M 144 504 
L 144 69.12 
" style="fill:none;stroke:#000000;stroke-linecap:square;stroke-linejoin:miter;stroke-width:0.8;"/>
   </g>
   <g id="patch_4">
    <path d="M 1036.8 504 
L 1036.8 69.12 
" style="fill:none;stroke:#000000;stroke-linecap:square;stroke-linejoin:miter;stroke-width:0.8;"/>
   </g>
   <g id="patch_5">
    <path d="M 144 504 
L 1036.8 504 
" style="fill:none;stroke:#000000;stroke-linecap:square;stroke-linejoin:miter;stroke-width:0.8;"/>
   </g>
   <g id="patch_6">
    <path d="M 144 69.12 
L 1036.8 69.12 
" style="fill:none;stroke:#000000;stroke-linecap:square;stroke-linejoin:miter;stroke-width:0.8;"/>
   </g>
   <g id="legend_1">
    <g id="patch_7">
     <path d="M 151 166.579375 
L 275.432813 166.579375 
Q 277.432813 166.579375 277.432813 164.579375 
L 277.432813 76.12 
Q 277.432813 74.12 275.432813 74.12 
L 151 74.12 
Q 149 74.12 149 76.12 
L 149 164.579375 
Q 149 166.579375 151 166.579375 
z
" style="fill:#ffffff;opacity:0.8;stroke:#cccccc;stroke-linejoin:miter;"/>
    </g>
    <g id="line2d_24">
     <path d="M 153 82.218438 
L 173 82.218438 
" style="fill:none;stroke:#1f77b4;stroke-linecap:square;stroke-width:1.5;"/>
    </g>
    <g id="line2d_25"/>
    <g id="text_20">
     <!-- taylorfo -->
     <defs>
      <path d="M 32.171875 -5.078125 
Q 28.375 -14.84375 24.75 -17.8125 
Q 21.140625 -20.796875 15.09375 -20.796875 
L 7.90625 -20.796875 
L 7.90625 -13.28125 
L 13.1875 -13.28125 
Q 16.890625 -13.28125 18.9375 -11.515625 
Q 21 -9.765625 23.484375 -3.21875 
L 25.09375 0.875 
L 2.984375 54.6875 
L 12.5 54.6875 
L 29.59375 11.921875 
L 46.6875 54.6875 
L 56.203125 54.6875 
z
" id="DejaVuSans-121"/>
      <path d="M 9.421875 75.984375 
L 18.40625 75.984375 
L 18.40625 0 
L 9.421875 0 
z
" id="DejaVuSans-108"/>
     </defs>
     <g transform="translate(181 85.718438)scale(0.1 -0.1)">
      <use xlink:href="#DejaVuSans-116"/>
      <use x="39.208984" xlink:href="#DejaVuSans-97"/>
      <use x="100.488281" xlink:href="#DejaVuSans-121"/>
      <use x="159.667969" xlink:href="#DejaVuSans-108"/>
      <use x="187.451172" xlink:href="#DejaVuSans-111"/>
      <use x="248.632812" xlink:href="#DejaVuSans-114"/>
      <use x="289.746094" xlink:href="#DejaVuSans-102"/>
      <use x="324.951172" xlink:href="#DejaVuSans-111"/>
     </g>
    </g>
    <g id="line2d_26">
     <path d="M 153 96.896563 
L 173 96.896563 
" style="fill:none;stroke:#ff7f0e;stroke-linecap:square;stroke-width:1.5;"/>
    </g>
    <g id="line2d_27"/>
    <g id="text_21">
     <!-- taylorfo_abs -->
     <defs>
      <path d="M 50.984375 -16.609375 
L 50.984375 -23.578125 
L -0.984375 -23.578125 
L -0.984375 -16.609375 
z
" id="DejaVuSans-95"/>
     </defs>
     <g transform="translate(181 100.396563)scale(0.1 -0.1)">
      <use xlink:href="#DejaVuSans-116"/>
      <use x="39.208984" xlink:href="#DejaVuSans-97"/>
      <use x="100.488281" xlink:href="#DejaVuSans-121"/>
      <use x="159.667969" xlink:href="#DejaVuSans-108"/>
      <use x="187.451172" xlink:href="#DejaVuSans-111"/>
      <use x="248.632812" xlink:href="#DejaVuSans-114"/>
      <use x="289.746094" xlink:href="#DejaVuSans-102"/>
      <use x="324.951172" xlink:href="#DejaVuSans-111"/>
      <use x="386.132812" xlink:href="#DejaVuSans-95"/>
      <use x="436.132812" xlink:href="#DejaVuSans-97"/>
      <use x="497.412109" xlink:href="#DejaVuSans-98"/>
      <use x="560.888672" xlink:href="#DejaVuSans-115"/>
     </g>
    </g>
    <g id="line2d_28">
     <path d="M 153 111.852813 
L 173 111.852813 
" style="fill:none;stroke:#2ca02c;stroke-linecap:square;stroke-width:1.5;"/>
    </g>
    <g id="line2d_29"/>
    <g id="text_22">
     <!-- taylorfo_sq -->
     <g transform="translate(181 115.352813)scale(0.1 -0.1)">
      <use xlink:href="#DejaVuSans-116"/>
      <use x="39.208984" xlink:href="#DejaVuSans-97"/>
      <use x="100.488281" xlink:href="#DejaVuSans-121"/>
      <use x="159.667969" xlink:href="#DejaVuSans-108"/>
      <use x="187.451172" xlink:href="#DejaVuSans-111"/>
      <use x="248.632812" xlink:href="#DejaVuSans-114"/>
      <use x="289.746094" xlink:href="#DejaVuSans-102"/>
      <use x="324.951172" xlink:href="#DejaVuSans-111"/>
      <use x="386.132812" xlink:href="#DejaVuSans-95"/>
      <use x="436.132812" xlink:href="#DejaVuSans-115"/>
      <use x="488.232422" xlink:href="#DejaVuSans-113"/>
     </g>
    </g>
    <g id="line2d_30">
     <path d="M 153 126.809063 
L 173 126.809063 
" style="fill:none;stroke:#d62728;stroke-dasharray:5.55,2.4;stroke-dashoffset:0;stroke-width:1.5;"/>
    </g>
    <g id="line2d_31"/>
    <g id="text_23">
     <!-- taylorfo_abs_norm -->
     <g transform="translate(181 130.309063)scale(0.1 -0.1)">
      <use xlink:href="#DejaVuSans-116"/>
      <use x="39.208984" xlink:href="#DejaVuSans-97"/>
      <use x="100.488281" xlink:href="#DejaVuSans-121"/>
      <use x="159.667969" xlink:href="#DejaVuSans-108"/>
      <use x="187.451172" xlink:href="#DejaVuSans-111"/>
      <use x="248.632812" xlink:href="#DejaVuSans-114"/>
      <use x="289.746094" xlink:href="#DejaVuSans-102"/>
      <use x="324.951172" xlink:href="#DejaVuSans-111"/>
      <use x="386.132812" xlink:href="#DejaVuSans-95"/>
      <use x="436.132812" xlink:href="#DejaVuSans-97"/>
      <use x="497.412109" xlink:href="#DejaVuSans-98"/>
      <use x="560.888672" xlink:href="#DejaVuSans-115"/>
      <use x="612.988281" xlink:href="#DejaVuSans-95"/>
      <use x="662.988281" xlink:href="#DejaVuSans-110"/>
      <use x="726.367188" xlink:href="#DejaVuSans-111"/>
      <use x="787.548828" xlink:href="#DejaVuSans-114"/>
      <use x="826.912109" xlink:href="#DejaVuSans-109"/>
     </g>
    </g>
    <g id="line2d_32">
     <path d="M 153 141.765313 
L 173 141.765313 
" style="fill:none;stroke:#9467bd;stroke-dasharray:5.55,2.4;stroke-dashoffset:0;stroke-width:1.5;"/>
    </g>
    <g id="line2d_33"/>
    <g id="text_24">
     <!-- taylorfo_sq_norm -->
     <g transform="translate(181 145.265313)scale(0.1 -0.1)">
      <use xlink:href="#DejaVuSans-116"/>
      <use x="39.208984" xlink:href="#DejaVuSans-97"/>
      <use x="100.488281" xlink:href="#DejaVuSans-121"/>
      <use x="159.667969" xlink:href="#DejaVuSans-108"/>
      <use x="187.451172" xlink:href="#DejaVuSans-111"/>
      <use x="248.632812" xlink:href="#DejaVuSans-114"/>
      <use x="289.746094" xlink:href="#DejaVuSans-102"/>
      <use x="324.951172" xlink:href="#DejaVuSans-111"/>
      <use x="386.132812" xlink:href="#DejaVuSans-95"/>
      <use x="436.132812" xlink:href="#DejaVuSans-115"/>
      <use x="488.232422" xlink:href="#DejaVuSans-113"/>
      <use x="551.708984" xlink:href="#DejaVuSans-95"/>
      <use x="601.708984" xlink:href="#DejaVuSans-110"/>
      <use x="665.087891" xlink:href="#DejaVuSans-111"/>
      <use x="726.269531" xlink:href="#DejaVuSans-114"/>
      <use x="765.632812" xlink:href="#DejaVuSans-109"/>
     </g>
    </g>
    <g id="line2d_34">
     <path d="M 153 156.721563 
L 173 156.721563 
" style="fill:none;stroke:#8c564b;stroke-dasharray:5.55,2.4;stroke-dashoffset:0;stroke-width:1.5;"/>
    </g>
    <g id="line2d_35"/>
    <g id="text_25">
     <!-- Molchanov_group -->
     <defs>
      <path d="M 9.8125 72.90625 
L 24.515625 72.90625 
L 43.109375 23.296875 
L 61.8125 72.90625 
L 76.515625 72.90625 
L 76.515625 0 
L 66.890625 0 
L 66.890625 64.015625 
L 48.09375 14.015625 
L 38.1875 14.015625 
L 19.390625 64.015625 
L 19.390625 0 
L 9.8125 0 
z
" id="DejaVuSans-77"/>
      <path d="M 48.78125 52.59375 
L 48.78125 44.1875 
Q 44.96875 46.296875 41.140625 47.34375 
Q 37.3125 48.390625 33.40625 48.390625 
Q 24.65625 48.390625 19.8125 42.84375 
Q 14.984375 37.3125 14.984375 27.296875 
Q 14.984375 17.28125 19.8125 11.734375 
Q 24.65625 6.203125 33.40625 6.203125 
Q 37.3125 6.203125 41.140625 7.25 
Q 44.96875 8.296875 48.78125 10.40625 
L 48.78125 2.09375 
Q 45.015625 0.34375 40.984375 -0.53125 
Q 36.96875 -1.421875 32.421875 -1.421875 
Q 20.0625 -1.421875 12.78125 6.34375 
Q 5.515625 14.109375 5.515625 27.296875 
Q 5.515625 40.671875 12.859375 48.328125 
Q 20.21875 56 33.015625 56 
Q 37.15625 56 41.109375 55.140625 
Q 45.0625 54.296875 48.78125 52.59375 
z
" id="DejaVuSans-99"/>
      <path d="M 54.890625 33.015625 
L 54.890625 0 
L 45.90625 0 
L 45.90625 32.71875 
Q 45.90625 40.484375 42.875 44.328125 
Q 39.84375 48.1875 33.796875 48.1875 
Q 26.515625 48.1875 22.3125 43.546875 
Q 18.109375 38.921875 18.109375 30.90625 
L 18.109375 0 
L 9.078125 0 
L 9.078125 75.984375 
L 18.109375 75.984375 
L 18.109375 46.1875 
Q 21.34375 51.125 25.703125 53.5625 
Q 30.078125 56 35.796875 56 
Q 45.21875 56 50.046875 50.171875 
Q 54.890625 44.34375 54.890625 33.015625 
z
" id="DejaVuSans-104"/>
      <path d="M 45.40625 27.984375 
Q 45.40625 37.75 41.375 43.109375 
Q 37.359375 48.484375 30.078125 48.484375 
Q 22.859375 48.484375 18.828125 43.109375 
Q 14.796875 37.75 14.796875 27.984375 
Q 14.796875 18.265625 18.828125 12.890625 
Q 22.859375 7.515625 30.078125 7.515625 
Q 37.359375 7.515625 41.375 12.890625 
Q 45.40625 18.265625 45.40625 27.984375 
z
M 54.390625 6.78125 
Q 54.390625 -7.171875 48.1875 -13.984375 
Q 42 -20.796875 29.203125 -20.796875 
Q 24.46875 -20.796875 20.265625 -20.09375 
Q 16.0625 -19.390625 12.109375 -17.921875 
L 12.109375 -9.1875 
Q 16.0625 -11.328125 19.921875 -12.34375 
Q 23.78125 -13.375 27.78125 -13.375 
Q 36.625 -13.375 41.015625 -8.765625 
Q 45.40625 -4.15625 45.40625 5.171875 
L 45.40625 9.625 
Q 42.625 4.78125 38.28125 2.390625 
Q 33.9375 0 27.875 0 
Q 17.828125 0 11.671875 7.65625 
Q 5.515625 15.328125 5.515625 27.984375 
Q 5.515625 40.671875 11.671875 48.328125 
Q 17.828125 56 27.875 56 
Q 33.9375 56 38.28125 53.609375 
Q 42.625 51.21875 45.40625 46.390625 
L 45.40625 54.6875 
L 54.390625 54.6875 
z
" id="DejaVuSans-103"/>
     </defs>
     <g transform="translate(181 160.221563)scale(0.1 -0.1)">
      <use xlink:href="#DejaVuSans-77"/>
      <use x="86.279297" xlink:href="#DejaVuSans-111"/>
      <use x="147.460938" xlink:href="#DejaVuSans-108"/>
      <use x="175.244141" xlink:href="#DejaVuSans-99"/>
      <use x="230.224609" xlink:href="#DejaVuSans-104"/>
      <use x="293.603516" xlink:href="#DejaVuSans-97"/>
      <use x="354.882812" xlink:href="#DejaVuSans-110"/>
      <use x="418.261719" xlink:href="#DejaVuSans-111"/>
      <use x="479.443359" xlink:href="#DejaVuSans-118"/>
      <use x="538.623047" xlink:href="#DejaVuSans-95"/>
      <use x="588.623047" xlink:href="#DejaVuSans-103"/>
      <use x="652.099609" xlink:href="#DejaVuSans-114"/>
      <use x="690.962891" xlink:href="#DejaVuSans-111"/>
      <use x="752.144531" xlink:href="#DejaVuSans-117"/>
      <use x="815.523438" xlink:href="#DejaVuSans-112"/>
     </g>
    </g>
   </g>
  </g>
 </g>
 <defs>
  <clipPath id="pb3ad4497b4">
   <rect height="434.88" width="892.8" x="144" y="69.12"/>
  </clipPath>
 </defs>
</svg>
