<?xml version="1.0" encoding="utf-8" standalone="no"?>
<!DOCTYPE svg PUBLIC "-//W3C//DTD SVG 1.1//EN"
  "http://www.w3.org/Graphics/SVG/1.1/DTD/svg11.dtd">
<!-- Created with matplotlib (https://matplotlib.org/) -->
<svg height="576pt" version="1.1" viewBox="0 0 1152 576" width="1152pt" xmlns="http://www.w3.org/2000/svg" xmlns:xlink="http://www.w3.org/1999/xlink">
 <defs>
  <style type="text/css">
*{stroke-linecap:butt;stroke-linejoin:round;}
  </style>
 </defs>
 <g id="figure_1">
  <g id="patch_1">
   <path d="M 0 576 
L 1152 576 
L 1152 0 
L 0 0 
z
" style="fill:#ffffff;"/>
  </g>
  <g id="axes_1">
   <g id="patch_2">
    <path d="M 144 504 
L 1036.8 504 
L 1036.8 69.12 
L 144 69.12 
z
" style="fill:#ffffff;"/>
   </g>
   <g id="matplotlib.axis_1">
    <g id="xtick_1">
     <g id="line2d_1">
      <defs>
       <path d="M 0 0 
L 0 3.5 
" id="m9d1bb3803b" style="stroke:#000000;stroke-width:0.8;"/>
      </defs>
      <g>
       <use style="stroke:#000000;stroke-width:0.8;" x="182.547642" xlink:href="#m9d1bb3803b" y="504"/>
      </g>
     </g>
     <g id="text_1">
      <!-- 0 -->
      <defs>
       <path d="M 31.78125 66.40625 
Q 24.171875 66.40625 20.328125 58.90625 
Q 16.5 51.421875 16.5 36.375 
Q 16.5 21.390625 20.328125 13.890625 
Q 24.171875 6.390625 31.78125 6.390625 
Q 39.453125 6.390625 43.28125 13.890625 
Q 47.125 21.390625 47.125 36.375 
Q 47.125 51.421875 43.28125 58.90625 
Q 39.453125 66.40625 31.78125 66.40625 
z
M 31.78125 74.21875 
Q 44.046875 74.21875 50.515625 64.515625 
Q 56.984375 54.828125 56.984375 36.375 
Q 56.984375 17.96875 50.515625 8.265625 
Q 44.046875 -1.421875 31.78125 -1.421875 
Q 19.53125 -1.421875 13.0625 8.265625 
Q 6.59375 17.96875 6.59375 36.375 
Q 6.59375 54.828125 13.0625 64.515625 
Q 19.53125 74.21875 31.78125 74.21875 
z
" id="DejaVuSans-48"/>
      </defs>
      <g transform="translate(179.366392 518.598438)scale(0.1 -0.1)">
       <use xlink:href="#DejaVuSans-48"/>
      </g>
     </g>
    </g>
    <g id="xtick_2">
     <g id="line2d_2">
      <g>
       <use style="stroke:#000000;stroke-width:0.8;" x="284.256459" xlink:href="#m9d1bb3803b" y="504"/>
      </g>
     </g>
     <g id="text_2">
      <!-- 50 -->
      <defs>
       <path d="M 10.796875 72.90625 
L 49.515625 72.90625 
L 49.515625 64.59375 
L 19.828125 64.59375 
L 19.828125 46.734375 
Q 21.96875 47.46875 24.109375 47.828125 
Q 26.265625 48.1875 28.421875 48.1875 
Q 40.625 48.1875 47.75 41.5 
Q 54.890625 34.8125 54.890625 23.390625 
Q 54.890625 11.625 47.5625 5.09375 
Q 40.234375 -1.421875 26.90625 -1.421875 
Q 22.3125 -1.421875 17.546875 -0.640625 
Q 12.796875 0.140625 7.71875 1.703125 
L 7.71875 11.625 
Q 12.109375 9.234375 16.796875 8.0625 
Q 21.484375 6.890625 26.703125 6.890625 
Q 35.15625 6.890625 40.078125 11.328125 
Q 45.015625 15.765625 45.015625 23.390625 
Q 45.015625 31 40.078125 35.4375 
Q 35.15625 39.890625 26.703125 39.890625 
Q 22.75 39.890625 18.8125 39.015625 
Q 14.890625 38.140625 10.796875 36.28125 
z
" id="DejaVuSans-53"/>
      </defs>
      <g transform="translate(277.893959 518.598438)scale(0.1 -0.1)">
       <use xlink:href="#DejaVuSans-53"/>
       <use x="63.623047" xlink:href="#DejaVuSans-48"/>
      </g>
     </g>
    </g>
    <g id="xtick_3">
     <g id="line2d_3">
      <g>
       <use style="stroke:#000000;stroke-width:0.8;" x="385.965277" xlink:href="#m9d1bb3803b" y="504"/>
      </g>
     </g>
     <g id="text_3">
      <!-- 100 -->
      <defs>
       <path d="M 12.40625 8.296875 
L 28.515625 8.296875 
L 28.515625 63.921875 
L 10.984375 60.40625 
L 10.984375 69.390625 
L 28.421875 72.90625 
L 38.28125 72.90625 
L 38.28125 8.296875 
L 54.390625 8.296875 
L 54.390625 0 
L 12.40625 0 
z
" id="DejaVuSans-49"/>
      </defs>
      <g transform="translate(376.421527 518.598438)scale(0.1 -0.1)">
       <use xlink:href="#DejaVuSans-49"/>
       <use x="63.623047" xlink:href="#DejaVuSans-48"/>
       <use x="127.246094" xlink:href="#DejaVuSans-48"/>
      </g>
     </g>
    </g>
    <g id="xtick_4">
     <g id="line2d_4">
      <g>
       <use style="stroke:#000000;stroke-width:0.8;" x="487.674094" xlink:href="#m9d1bb3803b" y="504"/>
      </g>
     </g>
     <g id="text_4">
      <!-- 150 -->
      <g transform="translate(478.130344 518.598438)scale(0.1 -0.1)">
       <use xlink:href="#DejaVuSans-49"/>
       <use x="63.623047" xlink:href="#DejaVuSans-53"/>
       <use x="127.246094" xlink:href="#DejaVuSans-48"/>
      </g>
     </g>
    </g>
    <g id="xtick_5">
     <g id="line2d_5">
      <g>
       <use style="stroke:#000000;stroke-width:0.8;" x="589.382912" xlink:href="#m9d1bb3803b" y="504"/>
      </g>
     </g>
     <g id="text_5">
      <!-- 200 -->
      <defs>
       <path d="M 19.1875 8.296875 
L 53.609375 8.296875 
L 53.609375 0 
L 7.328125 0 
L 7.328125 8.296875 
Q 12.9375 14.109375 22.625 23.890625 
Q 32.328125 33.6875 34.8125 36.53125 
Q 39.546875 41.84375 41.421875 45.53125 
Q 43.3125 49.21875 43.3125 52.78125 
Q 43.3125 58.59375 39.234375 62.25 
Q 35.15625 65.921875 28.609375 65.921875 
Q 23.96875 65.921875 18.8125 64.3125 
Q 13.671875 62.703125 7.8125 59.421875 
L 7.8125 69.390625 
Q 13.765625 71.78125 18.9375 73 
Q 24.125 74.21875 28.421875 74.21875 
Q 39.75 74.21875 46.484375 68.546875 
Q 53.21875 62.890625 53.21875 53.421875 
Q 53.21875 48.921875 51.53125 44.890625 
Q 49.859375 40.875 45.40625 35.40625 
Q 44.1875 33.984375 37.640625 27.21875 
Q 31.109375 20.453125 19.1875 8.296875 
z
" id="DejaVuSans-50"/>
      </defs>
      <g transform="translate(579.839162 518.598438)scale(0.1 -0.1)">
       <use xlink:href="#DejaVuSans-50"/>
       <use x="63.623047" xlink:href="#DejaVuSans-48"/>
       <use x="127.246094" xlink:href="#DejaVuSans-48"/>
      </g>
     </g>
    </g>
    <g id="xtick_6">
     <g id="line2d_6">
      <g>
       <use style="stroke:#000000;stroke-width:0.8;" x="691.091729" xlink:href="#m9d1bb3803b" y="504"/>
      </g>
     </g>
     <g id="text_6">
      <!-- 250 -->
      <g transform="translate(681.547979 518.598438)scale(0.1 -0.1)">
       <use xlink:href="#DejaVuSans-50"/>
       <use x="63.623047" xlink:href="#DejaVuSans-53"/>
       <use x="127.246094" xlink:href="#DejaVuSans-48"/>
      </g>
     </g>
    </g>
    <g id="xtick_7">
     <g id="line2d_7">
      <g>
       <use style="stroke:#000000;stroke-width:0.8;" x="792.800547" xlink:href="#m9d1bb3803b" y="504"/>
      </g>
     </g>
     <g id="text_7">
      <!-- 300 -->
      <defs>
       <path d="M 40.578125 39.3125 
Q 47.65625 37.796875 51.625 33 
Q 55.609375 28.21875 55.609375 21.1875 
Q 55.609375 10.40625 48.1875 4.484375 
Q 40.765625 -1.421875 27.09375 -1.421875 
Q 22.515625 -1.421875 17.65625 -0.515625 
Q 12.796875 0.390625 7.625 2.203125 
L 7.625 11.71875 
Q 11.71875 9.328125 16.59375 8.109375 
Q 21.484375 6.890625 26.8125 6.890625 
Q 36.078125 6.890625 40.9375 10.546875 
Q 45.796875 14.203125 45.796875 21.1875 
Q 45.796875 27.640625 41.28125 31.265625 
Q 36.765625 34.90625 28.71875 34.90625 
L 20.21875 34.90625 
L 20.21875 43.015625 
L 29.109375 43.015625 
Q 36.375 43.015625 40.234375 45.921875 
Q 44.09375 48.828125 44.09375 54.296875 
Q 44.09375 59.90625 40.109375 62.90625 
Q 36.140625 65.921875 28.71875 65.921875 
Q 24.65625 65.921875 20.015625 65.03125 
Q 15.375 64.15625 9.8125 62.3125 
L 9.8125 71.09375 
Q 15.4375 72.65625 20.34375 73.4375 
Q 25.25 74.21875 29.59375 74.21875 
Q 40.828125 74.21875 47.359375 69.109375 
Q 53.90625 64.015625 53.90625 55.328125 
Q 53.90625 49.265625 50.4375 45.09375 
Q 46.96875 40.921875 40.578125 39.3125 
z
" id="DejaVuSans-51"/>
      </defs>
      <g transform="translate(783.256797 518.598438)scale(0.1 -0.1)">
       <use xlink:href="#DejaVuSans-51"/>
       <use x="63.623047" xlink:href="#DejaVuSans-48"/>
       <use x="127.246094" xlink:href="#DejaVuSans-48"/>
      </g>
     </g>
    </g>
    <g id="xtick_8">
     <g id="line2d_8">
      <g>
       <use style="stroke:#000000;stroke-width:0.8;" x="894.509364" xlink:href="#m9d1bb3803b" y="504"/>
      </g>
     </g>
     <g id="text_8">
      <!-- 350 -->
      <g transform="translate(884.965614 518.598438)scale(0.1 -0.1)">
       <use xlink:href="#DejaVuSans-51"/>
       <use x="63.623047" xlink:href="#DejaVuSans-53"/>
       <use x="127.246094" xlink:href="#DejaVuSans-48"/>
      </g>
     </g>
    </g>
    <g id="xtick_9">
     <g id="line2d_9">
      <g>
       <use style="stroke:#000000;stroke-width:0.8;" x="996.218182" xlink:href="#m9d1bb3803b" y="504"/>
      </g>
     </g>
     <g id="text_9">
      <!-- 400 -->
      <defs>
       <path d="M 37.796875 64.3125 
L 12.890625 25.390625 
L 37.796875 25.390625 
z
M 35.203125 72.90625 
L 47.609375 72.90625 
L 47.609375 25.390625 
L 58.015625 25.390625 
L 58.015625 17.1875 
L 47.609375 17.1875 
L 47.609375 0 
L 37.796875 0 
L 37.796875 17.1875 
L 4.890625 17.1875 
L 4.890625 26.703125 
z
" id="DejaVuSans-52"/>
      </defs>
      <g transform="translate(986.674432 518.598438)scale(0.1 -0.1)">
       <use xlink:href="#DejaVuSans-52"/>
       <use x="63.623047" xlink:href="#DejaVuSans-48"/>
       <use x="127.246094" xlink:href="#DejaVuSans-48"/>
      </g>
     </g>
    </g>
    <g id="text_10">
     <!-- Number of Neurons pruned -->
     <defs>
      <path d="M 9.8125 72.90625 
L 23.09375 72.90625 
L 55.421875 11.921875 
L 55.421875 72.90625 
L 64.984375 72.90625 
L 64.984375 0 
L 51.703125 0 
L 19.390625 60.984375 
L 19.390625 0 
L 9.8125 0 
z
" id="DejaVuSans-78"/>
      <path d="M 8.5 21.578125 
L 8.5 54.6875 
L 17.484375 54.6875 
L 17.484375 21.921875 
Q 17.484375 14.15625 20.5 10.265625 
Q 23.53125 6.390625 29.59375 6.390625 
Q 36.859375 6.390625 41.078125 11.03125 
Q 45.3125 15.671875 45.3125 23.6875 
L 45.3125 54.6875 
L 54.296875 54.6875 
L 54.296875 0 
L 45.3125 0 
L 45.3125 8.40625 
Q 42.046875 3.421875 37.71875 1 
Q 33.40625 -1.421875 27.6875 -1.421875 
Q 18.265625 -1.421875 13.375 4.4375 
Q 8.5 10.296875 8.5 21.578125 
z
M 31.109375 56 
z
" id="DejaVuSans-117"/>
      <path d="M 52 44.1875 
Q 55.375 50.25 60.0625 53.125 
Q 64.75 56 71.09375 56 
Q 79.640625 56 84.28125 50.015625 
Q 88.921875 44.046875 88.921875 33.015625 
L 88.921875 0 
L 79.890625 0 
L 79.890625 32.71875 
Q 79.890625 40.578125 77.09375 44.375 
Q 74.3125 48.1875 68.609375 48.1875 
Q 61.625 48.1875 57.5625 43.546875 
Q 53.515625 38.921875 53.515625 30.90625 
L 53.515625 0 
L 44.484375 0 
L 44.484375 32.71875 
Q 44.484375 40.625 41.703125 44.40625 
Q 38.921875 48.1875 33.109375 48.1875 
Q 26.21875 48.1875 22.15625 43.53125 
Q 18.109375 38.875 18.109375 30.90625 
L 18.109375 0 
L 9.078125 0 
L 9.078125 54.6875 
L 18.109375 54.6875 
L 18.109375 46.1875 
Q 21.1875 51.21875 25.484375 53.609375 
Q 29.78125 56 35.6875 56 
Q 41.65625 56 45.828125 52.96875 
Q 50 49.953125 52 44.1875 
z
" id="DejaVuSans-109"/>
      <path d="M 48.6875 27.296875 
Q 48.6875 37.203125 44.609375 42.84375 
Q 40.53125 48.484375 33.40625 48.484375 
Q 26.265625 48.484375 22.1875 42.84375 
Q 18.109375 37.203125 18.109375 27.296875 
Q 18.109375 17.390625 22.1875 11.75 
Q 26.265625 6.109375 33.40625 6.109375 
Q 40.53125 6.109375 44.609375 11.75 
Q 48.6875 17.390625 48.6875 27.296875 
z
M 18.109375 46.390625 
Q 20.953125 51.265625 25.265625 53.625 
Q 29.59375 56 35.59375 56 
Q 45.5625 56 51.78125 48.09375 
Q 58.015625 40.1875 58.015625 27.296875 
Q 58.015625 14.40625 51.78125 6.484375 
Q 45.5625 -1.421875 35.59375 -1.421875 
Q 29.59375 -1.421875 25.265625 0.953125 
Q 20.953125 3.328125 18.109375 8.203125 
L 18.109375 0 
L 9.078125 0 
L 9.078125 75.984375 
L 18.109375 75.984375 
z
" id="DejaVuSans-98"/>
      <path d="M 56.203125 29.59375 
L 56.203125 25.203125 
L 14.890625 25.203125 
Q 15.484375 15.921875 20.484375 11.0625 
Q 25.484375 6.203125 34.421875 6.203125 
Q 39.59375 6.203125 44.453125 7.46875 
Q 49.3125 8.734375 54.109375 11.28125 
L 54.109375 2.78125 
Q 49.265625 0.734375 44.1875 -0.34375 
Q 39.109375 -1.421875 33.890625 -1.421875 
Q 20.796875 -1.421875 13.15625 6.1875 
Q 5.515625 13.8125 5.515625 26.8125 
Q 5.515625 40.234375 12.765625 48.109375 
Q 20.015625 56 32.328125 56 
Q 43.359375 56 49.78125 48.890625 
Q 56.203125 41.796875 56.203125 29.59375 
z
M 47.21875 32.234375 
Q 47.125 39.59375 43.09375 43.984375 
Q 39.0625 48.390625 32.421875 48.390625 
Q 24.90625 48.390625 20.390625 44.140625 
Q 15.875 39.890625 15.1875 32.171875 
z
" id="DejaVuSans-101"/>
      <path d="M 41.109375 46.296875 
Q 39.59375 47.171875 37.8125 47.578125 
Q 36.03125 48 33.890625 48 
Q 26.265625 48 22.1875 43.046875 
Q 18.109375 38.09375 18.109375 28.8125 
L 18.109375 0 
L 9.078125 0 
L 9.078125 54.6875 
L 18.109375 54.6875 
L 18.109375 46.1875 
Q 20.953125 51.171875 25.484375 53.578125 
Q 30.03125 56 36.53125 56 
Q 37.453125 56 38.578125 55.875 
Q 39.703125 55.765625 41.0625 55.515625 
z
" id="DejaVuSans-114"/>
      <path id="DejaVuSans-32"/>
      <path d="M 30.609375 48.390625 
Q 23.390625 48.390625 19.1875 42.75 
Q 14.984375 37.109375 14.984375 27.296875 
Q 14.984375 17.484375 19.15625 11.84375 
Q 23.34375 6.203125 30.609375 6.203125 
Q 37.796875 6.203125 41.984375 11.859375 
Q 46.1875 17.53125 46.1875 27.296875 
Q 46.1875 37.015625 41.984375 42.703125 
Q 37.796875 48.390625 30.609375 48.390625 
z
M 30.609375 56 
Q 42.328125 56 49.015625 48.375 
Q 55.71875 40.765625 55.71875 27.296875 
Q 55.71875 13.875 49.015625 6.21875 
Q 42.328125 -1.421875 30.609375 -1.421875 
Q 18.84375 -1.421875 12.171875 6.21875 
Q 5.515625 13.875 5.515625 27.296875 
Q 5.515625 40.765625 12.171875 48.375 
Q 18.84375 56 30.609375 56 
z
" id="DejaVuSans-111"/>
      <path d="M 37.109375 75.984375 
L 37.109375 68.5 
L 28.515625 68.5 
Q 23.6875 68.5 21.796875 66.546875 
Q 19.921875 64.59375 19.921875 59.515625 
L 19.921875 54.6875 
L 34.71875 54.6875 
L 34.71875 47.703125 
L 19.921875 47.703125 
L 19.921875 0 
L 10.890625 0 
L 10.890625 47.703125 
L 2.296875 47.703125 
L 2.296875 54.6875 
L 10.890625 54.6875 
L 10.890625 58.5 
Q 10.890625 67.625 15.140625 71.796875 
Q 19.390625 75.984375 28.609375 75.984375 
z
" id="DejaVuSans-102"/>
      <path d="M 54.890625 33.015625 
L 54.890625 0 
L 45.90625 0 
L 45.90625 32.71875 
Q 45.90625 40.484375 42.875 44.328125 
Q 39.84375 48.1875 33.796875 48.1875 
Q 26.515625 48.1875 22.3125 43.546875 
Q 18.109375 38.921875 18.109375 30.90625 
L 18.109375 0 
L 9.078125 0 
L 9.078125 54.6875 
L 18.109375 54.6875 
L 18.109375 46.1875 
Q 21.34375 51.125 25.703125 53.5625 
Q 30.078125 56 35.796875 56 
Q 45.21875 56 50.046875 50.171875 
Q 54.890625 44.34375 54.890625 33.015625 
z
" id="DejaVuSans-110"/>
      <path d="M 44.28125 53.078125 
L 44.28125 44.578125 
Q 40.484375 46.53125 36.375 47.5 
Q 32.28125 48.484375 27.875 48.484375 
Q 21.1875 48.484375 17.84375 46.4375 
Q 14.5 44.390625 14.5 40.28125 
Q 14.5 37.15625 16.890625 35.375 
Q 19.28125 33.59375 26.515625 31.984375 
L 29.59375 31.296875 
Q 39.15625 29.25 43.1875 25.515625 
Q 47.21875 21.78125 47.21875 15.09375 
Q 47.21875 7.46875 41.1875 3.015625 
Q 35.15625 -1.421875 24.609375 -1.421875 
Q 20.21875 -1.421875 15.453125 -0.5625 
Q 10.6875 0.296875 5.421875 2 
L 5.421875 11.28125 
Q 10.40625 8.6875 15.234375 7.390625 
Q 20.0625 6.109375 24.8125 6.109375 
Q 31.15625 6.109375 34.5625 8.28125 
Q 37.984375 10.453125 37.984375 14.40625 
Q 37.984375 18.0625 35.515625 20.015625 
Q 33.0625 21.96875 24.703125 23.78125 
L 21.578125 24.515625 
Q 13.234375 26.265625 9.515625 29.90625 
Q 5.8125 33.546875 5.8125 39.890625 
Q 5.8125 47.609375 11.28125 51.796875 
Q 16.75 56 26.8125 56 
Q 31.78125 56 36.171875 55.265625 
Q 40.578125 54.546875 44.28125 53.078125 
z
" id="DejaVuSans-115"/>
      <path d="M 18.109375 8.203125 
L 18.109375 -20.796875 
L 9.078125 -20.796875 
L 9.078125 54.6875 
L 18.109375 54.6875 
L 18.109375 46.390625 
Q 20.953125 51.265625 25.265625 53.625 
Q 29.59375 56 35.59375 56 
Q 45.5625 56 51.78125 48.09375 
Q 58.015625 40.1875 58.015625 27.296875 
Q 58.015625 14.40625 51.78125 6.484375 
Q 45.5625 -1.421875 35.59375 -1.421875 
Q 29.59375 -1.421875 25.265625 0.953125 
Q 20.953125 3.328125 18.109375 8.203125 
z
M 48.6875 27.296875 
Q 48.6875 37.203125 44.609375 42.84375 
Q 40.53125 48.484375 33.40625 48.484375 
Q 26.265625 48.484375 22.1875 42.84375 
Q 18.109375 37.203125 18.109375 27.296875 
Q 18.109375 17.390625 22.1875 11.75 
Q 26.265625 6.109375 33.40625 6.109375 
Q 40.53125 6.109375 44.609375 11.75 
Q 48.6875 17.390625 48.6875 27.296875 
z
" id="DejaVuSans-112"/>
      <path d="M 45.40625 46.390625 
L 45.40625 75.984375 
L 54.390625 75.984375 
L 54.390625 0 
L 45.40625 0 
L 45.40625 8.203125 
Q 42.578125 3.328125 38.25 0.953125 
Q 33.9375 -1.421875 27.875 -1.421875 
Q 17.96875 -1.421875 11.734375 6.484375 
Q 5.515625 14.40625 5.515625 27.296875 
Q 5.515625 40.1875 11.734375 48.09375 
Q 17.96875 56 27.875 56 
Q 33.9375 56 38.25 53.625 
Q 42.578125 51.265625 45.40625 46.390625 
z
M 14.796875 27.296875 
Q 14.796875 17.390625 18.875 11.75 
Q 22.953125 6.109375 30.078125 6.109375 
Q 37.203125 6.109375 41.296875 11.75 
Q 45.40625 17.390625 45.40625 27.296875 
Q 45.40625 37.203125 41.296875 42.84375 
Q 37.203125 48.484375 30.078125 48.484375 
Q 22.953125 48.484375 18.875 42.84375 
Q 14.796875 37.203125 14.796875 27.296875 
z
" id="DejaVuSans-100"/>
     </defs>
     <g transform="translate(522.147656 532.276562)scale(0.1 -0.1)">
      <use xlink:href="#DejaVuSans-78"/>
      <use x="74.804688" xlink:href="#DejaVuSans-117"/>
      <use x="138.183594" xlink:href="#DejaVuSans-109"/>
      <use x="235.595703" xlink:href="#DejaVuSans-98"/>
      <use x="299.072266" xlink:href="#DejaVuSans-101"/>
      <use x="360.595703" xlink:href="#DejaVuSans-114"/>
      <use x="401.708984" xlink:href="#DejaVuSans-32"/>
      <use x="433.496094" xlink:href="#DejaVuSans-111"/>
      <use x="494.677734" xlink:href="#DejaVuSans-102"/>
      <use x="529.882812" xlink:href="#DejaVuSans-32"/>
      <use x="561.669922" xlink:href="#DejaVuSans-78"/>
      <use x="636.474609" xlink:href="#DejaVuSans-101"/>
      <use x="697.998047" xlink:href="#DejaVuSans-117"/>
      <use x="761.376953" xlink:href="#DejaVuSans-114"/>
      <use x="800.240234" xlink:href="#DejaVuSans-111"/>
      <use x="861.421875" xlink:href="#DejaVuSans-110"/>
      <use x="924.800781" xlink:href="#DejaVuSans-115"/>
      <use x="976.900391" xlink:href="#DejaVuSans-32"/>
      <use x="1008.6875" xlink:href="#DejaVuSans-112"/>
      <use x="1072.164062" xlink:href="#DejaVuSans-114"/>
      <use x="1113.277344" xlink:href="#DejaVuSans-117"/>
      <use x="1176.65625" xlink:href="#DejaVuSans-110"/>
      <use x="1240.035156" xlink:href="#DejaVuSans-101"/>
      <use x="1301.558594" xlink:href="#DejaVuSans-100"/>
     </g>
    </g>
   </g>
   <g id="matplotlib.axis_2">
    <g id="ytick_1">
     <g id="line2d_10">
      <defs>
       <path d="M 0 0 
L -3.5 0 
" id="m9cd9f6183f" style="stroke:#000000;stroke-width:0.8;"/>
      </defs>
      <g>
       <use style="stroke:#000000;stroke-width:0.8;" x="144" xlink:href="#m9cd9f6183f" y="484.232727"/>
      </g>
     </g>
     <g id="text_11">
      <!-- 0 -->
      <g transform="translate(130.6375 488.031946)scale(0.1 -0.1)">
       <use xlink:href="#DejaVuSans-48"/>
      </g>
     </g>
    </g>
    <g id="ytick_2">
     <g id="line2d_11">
      <g>
       <use style="stroke:#000000;stroke-width:0.8;" x="144" xlink:href="#m9cd9f6183f" y="429.186166"/>
      </g>
     </g>
     <g id="text_12">
      <!-- 5 -->
      <g transform="translate(130.6375 432.985384)scale(0.1 -0.1)">
       <use xlink:href="#DejaVuSans-53"/>
      </g>
     </g>
    </g>
    <g id="ytick_3">
     <g id="line2d_12">
      <g>
       <use style="stroke:#000000;stroke-width:0.8;" x="144" xlink:href="#m9cd9f6183f" y="374.139604"/>
      </g>
     </g>
     <g id="text_13">
      <!-- 10 -->
      <g transform="translate(124.275 377.938823)scale(0.1 -0.1)">
       <use xlink:href="#DejaVuSans-49"/>
       <use x="63.623047" xlink:href="#DejaVuSans-48"/>
      </g>
     </g>
    </g>
    <g id="ytick_4">
     <g id="line2d_13">
      <g>
       <use style="stroke:#000000;stroke-width:0.8;" x="144" xlink:href="#m9cd9f6183f" y="319.093042"/>
      </g>
     </g>
     <g id="text_14">
      <!-- 15 -->
      <g transform="translate(124.275 322.892261)scale(0.1 -0.1)">
       <use xlink:href="#DejaVuSans-49"/>
       <use x="63.623047" xlink:href="#DejaVuSans-53"/>
      </g>
     </g>
    </g>
    <g id="ytick_5">
     <g id="line2d_14">
      <g>
       <use style="stroke:#000000;stroke-width:0.8;" x="144" xlink:href="#m9cd9f6183f" y="264.04648"/>
      </g>
     </g>
     <g id="text_15">
      <!-- 20 -->
      <g transform="translate(124.275 267.845699)scale(0.1 -0.1)">
       <use xlink:href="#DejaVuSans-50"/>
       <use x="63.623047" xlink:href="#DejaVuSans-48"/>
      </g>
     </g>
    </g>
    <g id="ytick_6">
     <g id="line2d_15">
      <g>
       <use style="stroke:#000000;stroke-width:0.8;" x="144" xlink:href="#m9cd9f6183f" y="208.999919"/>
      </g>
     </g>
     <g id="text_16">
      <!-- 25 -->
      <g transform="translate(124.275 212.799137)scale(0.1 -0.1)">
       <use xlink:href="#DejaVuSans-50"/>
       <use x="63.623047" xlink:href="#DejaVuSans-53"/>
      </g>
     </g>
    </g>
    <g id="ytick_7">
     <g id="line2d_16">
      <g>
       <use style="stroke:#000000;stroke-width:0.8;" x="144" xlink:href="#m9cd9f6183f" y="153.953357"/>
      </g>
     </g>
     <g id="text_17">
      <!-- 30 -->
      <g transform="translate(124.275 157.752576)scale(0.1 -0.1)">
       <use xlink:href="#DejaVuSans-51"/>
       <use x="63.623047" xlink:href="#DejaVuSans-48"/>
      </g>
     </g>
    </g>
    <g id="ytick_8">
     <g id="line2d_17">
      <g>
       <use style="stroke:#000000;stroke-width:0.8;" x="144" xlink:href="#m9cd9f6183f" y="98.906795"/>
      </g>
     </g>
     <g id="text_18">
      <!-- 35 -->
      <g transform="translate(124.275 102.706014)scale(0.1 -0.1)">
       <use xlink:href="#DejaVuSans-51"/>
       <use x="63.623047" xlink:href="#DejaVuSans-53"/>
      </g>
     </g>
    </g>
    <g id="text_19">
     <!-- Squared Deviation -->
     <defs>
      <path d="M 53.515625 70.515625 
L 53.515625 60.890625 
Q 47.90625 63.578125 42.921875 64.890625 
Q 37.9375 66.21875 33.296875 66.21875 
Q 25.25 66.21875 20.875 63.09375 
Q 16.5 59.96875 16.5 54.203125 
Q 16.5 49.359375 19.40625 46.890625 
Q 22.3125 44.4375 30.421875 42.921875 
L 36.375 41.703125 
Q 47.40625 39.59375 52.65625 34.296875 
Q 57.90625 29 57.90625 20.125 
Q 57.90625 9.515625 50.796875 4.046875 
Q 43.703125 -1.421875 29.984375 -1.421875 
Q 24.8125 -1.421875 18.96875 -0.25 
Q 13.140625 0.921875 6.890625 3.21875 
L 6.890625 13.375 
Q 12.890625 10.015625 18.65625 8.296875 
Q 24.421875 6.59375 29.984375 6.59375 
Q 38.421875 6.59375 43.015625 9.90625 
Q 47.609375 13.234375 47.609375 19.390625 
Q 47.609375 24.75 44.3125 27.78125 
Q 41.015625 30.8125 33.5 32.328125 
L 27.484375 33.5 
Q 16.453125 35.6875 11.515625 40.375 
Q 6.59375 45.0625 6.59375 53.421875 
Q 6.59375 63.09375 13.40625 68.65625 
Q 20.21875 74.21875 32.171875 74.21875 
Q 37.3125 74.21875 42.625 73.28125 
Q 47.953125 72.359375 53.515625 70.515625 
z
" id="DejaVuSans-83"/>
      <path d="M 14.796875 27.296875 
Q 14.796875 17.390625 18.875 11.75 
Q 22.953125 6.109375 30.078125 6.109375 
Q 37.203125 6.109375 41.296875 11.75 
Q 45.40625 17.390625 45.40625 27.296875 
Q 45.40625 37.203125 41.296875 42.84375 
Q 37.203125 48.484375 30.078125 48.484375 
Q 22.953125 48.484375 18.875 42.84375 
Q 14.796875 37.203125 14.796875 27.296875 
z
M 45.40625 8.203125 
Q 42.578125 3.328125 38.25 0.953125 
Q 33.9375 -1.421875 27.875 -1.421875 
Q 17.96875 -1.421875 11.734375 6.484375 
Q 5.515625 14.40625 5.515625 27.296875 
Q 5.515625 40.1875 11.734375 48.09375 
Q 17.96875 56 27.875 56 
Q 33.9375 56 38.25 53.625 
Q 42.578125 51.265625 45.40625 46.390625 
L 45.40625 54.6875 
L 54.390625 54.6875 
L 54.390625 -20.796875 
L 45.40625 -20.796875 
z
" id="DejaVuSans-113"/>
      <path d="M 34.28125 27.484375 
Q 23.390625 27.484375 19.1875 25 
Q 14.984375 22.515625 14.984375 16.5 
Q 14.984375 11.71875 18.140625 8.90625 
Q 21.296875 6.109375 26.703125 6.109375 
Q 34.1875 6.109375 38.703125 11.40625 
Q 43.21875 16.703125 43.21875 25.484375 
L 43.21875 27.484375 
z
M 52.203125 31.203125 
L 52.203125 0 
L 43.21875 0 
L 43.21875 8.296875 
Q 40.140625 3.328125 35.546875 0.953125 
Q 30.953125 -1.421875 24.3125 -1.421875 
Q 15.921875 -1.421875 10.953125 3.296875 
Q 6 8.015625 6 15.921875 
Q 6 25.140625 12.171875 29.828125 
Q 18.359375 34.515625 30.609375 34.515625 
L 43.21875 34.515625 
L 43.21875 35.40625 
Q 43.21875 41.609375 39.140625 45 
Q 35.0625 48.390625 27.6875 48.390625 
Q 23 48.390625 18.546875 47.265625 
Q 14.109375 46.140625 10.015625 43.890625 
L 10.015625 52.203125 
Q 14.9375 54.109375 19.578125 55.046875 
Q 24.21875 56 28.609375 56 
Q 40.484375 56 46.34375 49.84375 
Q 52.203125 43.703125 52.203125 31.203125 
z
" id="DejaVuSans-97"/>
      <path d="M 19.671875 64.796875 
L 19.671875 8.109375 
L 31.59375 8.109375 
Q 46.6875 8.109375 53.6875 14.9375 
Q 60.6875 21.78125 60.6875 36.53125 
Q 60.6875 51.171875 53.6875 57.984375 
Q 46.6875 64.796875 31.59375 64.796875 
z
M 9.8125 72.90625 
L 30.078125 72.90625 
Q 51.265625 72.90625 61.171875 64.09375 
Q 71.09375 55.28125 71.09375 36.53125 
Q 71.09375 17.671875 61.125 8.828125 
Q 51.171875 0 30.078125 0 
L 9.8125 0 
z
" id="DejaVuSans-68"/>
      <path d="M 2.984375 54.6875 
L 12.5 54.6875 
L 29.59375 8.796875 
L 46.6875 54.6875 
L 56.203125 54.6875 
L 35.6875 0 
L 23.484375 0 
z
" id="DejaVuSans-118"/>
      <path d="M 9.421875 54.6875 
L 18.40625 54.6875 
L 18.40625 0 
L 9.421875 0 
z
M 9.421875 75.984375 
L 18.40625 75.984375 
L 18.40625 64.59375 
L 9.421875 64.59375 
z
" id="DejaVuSans-105"/>
      <path d="M 18.3125 70.21875 
L 18.3125 54.6875 
L 36.8125 54.6875 
L 36.8125 47.703125 
L 18.3125 47.703125 
L 18.3125 18.015625 
Q 18.3125 11.328125 20.140625 9.421875 
Q 21.96875 7.515625 27.59375 7.515625 
L 36.8125 7.515625 
L 36.8125 0 
L 27.59375 0 
Q 17.1875 0 13.234375 3.875 
Q 9.28125 7.765625 9.28125 18.015625 
L 9.28125 47.703125 
L 2.6875 47.703125 
L 2.6875 54.6875 
L 9.28125 54.6875 
L 9.28125 70.21875 
z
" id="DejaVuSans-116"/>
     </defs>
     <g transform="translate(118.195312 332.840469)rotate(-90)scale(0.1 -0.1)">
      <use xlink:href="#DejaVuSans-83"/>
      <use x="63.476562" xlink:href="#DejaVuSans-113"/>
      <use x="126.953125" xlink:href="#DejaVuSans-117"/>
      <use x="190.332031" xlink:href="#DejaVuSans-97"/>
      <use x="251.611328" xlink:href="#DejaVuSans-114"/>
      <use x="290.474609" xlink:href="#DejaVuSans-101"/>
      <use x="351.998047" xlink:href="#DejaVuSans-100"/>
      <use x="415.474609" xlink:href="#DejaVuSans-32"/>
      <use x="447.261719" xlink:href="#DejaVuSans-68"/>
      <use x="524.263672" xlink:href="#DejaVuSans-101"/>
      <use x="585.787109" xlink:href="#DejaVuSans-118"/>
      <use x="644.966797" xlink:href="#DejaVuSans-105"/>
      <use x="672.75" xlink:href="#DejaVuSans-97"/>
      <use x="734.029297" xlink:href="#DejaVuSans-116"/>
      <use x="773.238281" xlink:href="#DejaVuSans-105"/>
      <use x="801.021484" xlink:href="#DejaVuSans-111"/>
      <use x="862.203125" xlink:href="#DejaVuSans-110"/>
     </g>
    </g>
   </g>
   <g id="line2d_18">
    <path clip-path="url(#p8905a284d5)" d="M 184.581818 484.232727 
L 457.161449 484.232727 
L 465.298154 483.528112 
L 467.332331 483.154468 
L 473.43486 482.996574 
L 475.469036 477.827296 
L 477.503213 477.566186 
L 479.537389 476.300607 
L 481.571565 473.14328 
L 483.605742 473.147647 
L 487.674094 472.223329 
L 489.708271 472.155195 
L 493.776623 471.120134 
L 497.844976 470.83217 
L 501.913329 469.78111 
L 503.947505 468.813616 
L 505.981681 468.25736 
L 508.015858 467.218165 
L 510.050034 466.980497 
L 512.084211 465.646234 
L 514.118387 465.535346 
L 516.152563 464.550187 
L 518.18674 464.110222 
L 520.220916 463.784425 
L 522.255092 462.859569 
L 524.289269 462.865143 
L 526.323445 462.686938 
L 528.357621 461.063936 
L 530.391798 461.213013 
L 532.425974 461.032603 
L 538.528503 459.918245 
L 540.562679 459.077466 
L 542.596856 459.041737 
L 544.631032 447.621892 
L 546.665208 447.184564 
L 548.699385 445.620408 
L 552.767738 444.53057 
L 554.801914 444.817673 
L 556.83609 441.753939 
L 558.870267 441.120004 
L 560.904443 439.526179 
L 562.938619 439.080557 
L 564.972796 438.291498 
L 569.041148 435.196043 
L 571.075325 434.243184 
L 573.109501 432.269872 
L 575.143677 431.99331 
L 577.177854 431.023737 
L 579.21203 431.268733 
L 585.314559 429.974248 
L 587.348735 429.105699 
L 589.382912 428.474607 
L 591.417088 428.223999 
L 595.485441 426.054409 
L 597.519617 425.88559 
L 599.553794 425.56154 
L 601.58797 424.314229 
L 603.622146 422.619826 
L 605.656323 419.82119 
L 607.690499 419.240185 
L 609.724675 416.66875 
L 611.758852 415.486985 
L 613.793028 415.292512 
L 615.827204 415.260993 
L 617.861381 413.430724 
L 619.895557 412.193356 
L 621.929733 404.949512 
L 623.96391 404.230625 
L 628.032262 399.215377 
L 630.066439 398.389146 
L 632.100615 397.902655 
L 634.134792 396.932919 
L 636.168968 394.997122 
L 638.203144 394.161808 
L 640.237321 393.683365 
L 646.33985 391.210382 
L 648.374026 389.127793 
L 650.408202 385.875279 
L 652.442379 385.711731 
L 654.476555 383.369957 
L 656.510731 381.777665 
L 658.544908 380.837243 
L 660.579084 380.260579 
L 662.61326 380.505591 
L 664.647437 379.731898 
L 666.681613 379.713104 
L 668.715789 378.928838 
L 670.749966 378.363146 
L 672.784142 376.889507 
L 674.818319 376.802446 
L 676.852495 373.495766 
L 678.886671 371.503083 
L 680.920848 370.344947 
L 682.955024 366.737031 
L 684.9892 366.880095 
L 687.023377 361.380583 
L 689.057553 360.153058 
L 691.091729 359.128757 
L 693.125906 359.45076 
L 697.194258 352.797827 
L 699.228435 351.374637 
L 701.262611 352.935126 
L 703.296787 350.759924 
L 705.330964 346.874658 
L 707.36514 347.065829 
L 709.399316 344.716233 
L 711.433493 343.30685 
L 713.467669 342.048929 
L 715.501846 341.564533 
L 717.536022 339.121325 
L 719.570198 339.03206 
L 721.604375 338.320827 
L 723.638551 336.227845 
L 725.672727 334.862033 
L 727.706904 333.960248 
L 729.74108 327.372558 
L 731.775256 324.684338 
L 733.809433 305.719582 
L 735.843609 303.504629 
L 737.877785 303.064771 
L 739.911962 301.983973 
L 741.946138 301.548042 
L 743.980314 297.693099 
L 746.014491 297.238563 
L 748.048667 286.990513 
L 750.082843 285.940562 
L 752.11702 283.819389 
L 754.151196 284.067383 
L 756.185373 281.383594 
L 758.219549 280.1275 
L 760.253725 280.021436 
L 762.287902 280.026833 
L 764.322078 278.937971 
L 766.356254 276.40237 
L 768.390431 274.046579 
L 770.424607 273.303586 
L 774.49296 265.752595 
L 776.527136 263.845713 
L 780.595489 259.199479 
L 782.629665 257.211416 
L 786.698018 258.215023 
L 788.732194 254.39605 
L 790.76637 254.455539 
L 792.800547 252.751209 
L 794.834723 249.815332 
L 796.8689 249.695556 
L 798.903076 247.855701 
L 800.937252 245.539451 
L 802.971429 245.427424 
L 805.005605 243.653819 
L 807.039781 238.631858 
L 809.073958 237.509084 
L 811.108134 237.298069 
L 813.14231 235.205118 
L 815.176487 234.643699 
L 817.210663 233.193137 
L 819.244839 231.249066 
L 821.279016 231.981266 
L 823.313192 230.751231 
L 825.347368 230.208501 
L 827.381545 225.767634 
L 829.415721 223.985693 
L 831.449897 214.964024 
L 833.484074 214.116311 
L 835.51825 212.495051 
L 837.552427 212.002781 
L 839.586603 211.393864 
L 841.620779 209.678971 
L 843.654956 209.165052 
L 845.689132 209.89028 
L 847.723308 209.298813 
L 849.757485 206.562885 
L 851.791661 203.005869 
L 853.825837 202.796429 
L 855.860014 204.43474 
L 857.89419 203.446609 
L 859.928366 201.036453 
L 861.962543 199.939465 
L 863.996719 197.891955 
L 866.030895 193.497747 
L 868.065072 191.997061 
L 870.099248 189.045477 
L 872.133424 186.732986 
L 874.167601 186.079089 
L 876.201777 187.226348 
L 878.235954 184.006297 
L 880.27013 183.712589 
L 882.304306 182.774498 
L 884.338483 180.979097 
L 886.372659 178.856055 
L 888.406835 176.486657 
L 890.441012 175.878412 
L 892.475188 175.407644 
L 896.543541 172.766945 
L 898.577717 170.797528 
L 900.611893 170.173093 
L 902.64607 167.827298 
L 904.680246 167.050833 
L 906.714422 166.417578 
L 908.748599 167.544972 
L 910.782775 166.448194 
L 912.816951 166.535275 
L 914.851128 166.162613 
L 916.885304 164.485938 
L 918.919481 159.768981 
L 920.953657 159.301931 
L 922.987833 159.997068 
L 925.02201 157.521774 
L 927.056186 155.783259 
L 929.090362 154.652001 
L 931.124539 152.248061 
L 933.158715 151.363411 
L 935.192891 147.740586 
L 937.227068 145.953479 
L 939.261244 145.725729 
L 941.29542 145.108412 
L 943.329597 142.629108 
L 945.363773 143.413258 
L 949.432126 130.978204 
L 951.466302 130.591242 
L 953.500478 129.983207 
L 955.534655 128.3517 
L 959.603008 124.657291 
L 961.637184 124.093814 
L 963.67136 120.910301 
L 965.705537 118.641235 
L 967.739713 119.317011 
L 969.773889 118.090609 
L 971.808066 114.387339 
L 973.842242 107.633812 
L 977.910595 101.855082 
L 979.944771 99.156847 
L 981.978947 96.104784 
L 984.013124 94.610356 
L 986.0473 92.255574 
L 988.081476 91.88961 
L 992.149829 89.847833 
L 994.184005 90.154244 
L 996.218182 88.887273 
L 996.218182 88.887273 
" style="fill:none;stroke:#1f77b4;stroke-linecap:square;stroke-width:1.5;"/>
   </g>
   <g id="line2d_19">
    <path clip-path="url(#p8905a284d5)" d="M 184.581818 484.232727 
L 469.366507 484.152599 
L 473.43486 484.021362 
L 479.537389 483.913625 
L 485.639918 483.592987 
L 487.674094 483.593389 
L 489.708271 483.319863 
L 491.742447 483.290148 
L 495.8108 482.61879 
L 499.879152 482.576317 
L 501.913329 482.370653 
L 503.947505 481.865386 
L 505.981681 481.818505 
L 508.015858 481.328216 
L 512.084211 481.223391 
L 514.118387 480.969158 
L 520.220916 480.665346 
L 522.255092 480.239116 
L 526.323445 480.037013 
L 532.425974 478.915931 
L 536.494327 478.478979 
L 538.528503 478.070862 
L 540.562679 478.005347 
L 542.596856 477.743058 
L 544.631032 476.687195 
L 546.665208 476.643485 
L 550.733561 476.730429 
L 552.767738 476.600161 
L 554.801914 476.215621 
L 556.83609 476.146003 
L 564.972796 474.501248 
L 567.006972 473.805159 
L 569.041148 473.681869 
L 571.075325 471.948959 
L 575.143677 471.361123 
L 579.21203 470.825102 
L 585.314559 470.005137 
L 589.382912 469.8104 
L 591.417088 469.517554 
L 593.451265 469.586879 
L 595.485441 469.291786 
L 597.519617 468.595837 
L 599.553794 467.462396 
L 601.58797 467.211312 
L 603.622146 466.809344 
L 605.656323 466.645732 
L 607.690499 466.106577 
L 609.724675 465.449305 
L 611.758852 465.315576 
L 613.793028 464.639674 
L 615.827204 464.291326 
L 617.861381 462.956452 
L 621.929733 462.989337 
L 623.96391 462.065855 
L 625.998086 462.401036 
L 628.032262 461.685799 
L 630.066439 461.423708 
L 634.134792 461.214643 
L 636.168968 460.460153 
L 638.203144 460.477828 
L 640.237321 460.177622 
L 642.271497 458.842116 
L 650.408202 457.456957 
L 654.476555 456.223502 
L 656.510731 455.265549 
L 658.544908 454.117443 
L 662.61326 452.959984 
L 664.647437 453.17743 
L 666.681613 452.29394 
L 668.715789 451.752917 
L 670.749966 450.373941 
L 674.818319 448.974078 
L 676.852495 447.777971 
L 678.886671 447.127781 
L 680.920848 444.803764 
L 682.955024 445.168009 
L 687.023377 443.34884 
L 689.057553 441.63254 
L 693.125906 441.195253 
L 695.160082 438.848696 
L 697.194258 437.622982 
L 699.228435 435.849157 
L 701.262611 435.772522 
L 703.296787 433.703478 
L 707.36514 433.429567 
L 709.399316 432.288409 
L 711.433493 431.442822 
L 713.467669 429.772247 
L 717.536022 429.560198 
L 719.570198 429.225947 
L 721.604375 428.73216 
L 723.638551 428.07671 
L 725.672727 427.932077 
L 729.74108 426.529029 
L 731.775256 424.524965 
L 735.843609 421.917265 
L 737.877785 421.349347 
L 739.911962 420.384541 
L 741.946138 419.997978 
L 743.980314 417.636381 
L 746.014491 416.365987 
L 748.048667 415.798647 
L 750.082843 415.621319 
L 752.11702 414.107215 
L 754.151196 413.52338 
L 756.185373 414.172148 
L 758.219549 413.7551 
L 760.253725 412.769499 
L 762.287902 412.108033 
L 764.322078 409.54034 
L 766.356254 407.936111 
L 768.390431 406.753627 
L 770.424607 405.760173 
L 774.49296 404.078952 
L 776.527136 404.103216 
L 778.561312 403.255072 
L 780.595489 403.358569 
L 782.629665 400.666816 
L 784.663841 399.508171 
L 786.698018 397.79225 
L 790.76637 396.393313 
L 792.800547 395.390992 
L 794.834723 393.876941 
L 796.8689 393.035359 
L 798.903076 392.86589 
L 800.937252 391.563095 
L 802.971429 391.04675 
L 805.005605 391.281199 
L 807.039781 391.060357 
L 811.108134 390.361009 
L 813.14231 388.934753 
L 815.176487 387.940932 
L 817.210663 384.530119 
L 819.244839 384.467659 
L 821.279016 383.812859 
L 823.313192 383.396951 
L 825.347368 380.95116 
L 827.381545 381.213181 
L 829.415721 378.618122 
L 831.449897 375.773673 
L 835.51825 373.797421 
L 837.552427 372.93315 
L 839.586603 372.938411 
L 841.620779 372.456167 
L 843.654956 369.718874 
L 845.689132 368.857102 
L 847.723308 367.281557 
L 849.757485 365.299604 
L 851.791661 363.527154 
L 853.825837 362.490338 
L 855.860014 359.669345 
L 857.89419 358.238836 
L 859.928366 357.60387 
L 861.962543 355.814296 
L 863.996719 353.484964 
L 866.030895 351.400864 
L 868.065072 350.873022 
L 870.099248 349.086902 
L 872.133424 349.747004 
L 874.167601 349.885217 
L 876.201777 349.080708 
L 878.235954 348.00411 
L 880.27013 346.335782 
L 882.304306 344.363971 
L 884.338483 342.565011 
L 886.372659 341.511816 
L 888.406835 339.670397 
L 890.441012 339.566769 
L 892.475188 338.109518 
L 894.509364 333.573611 
L 896.543541 331.657248 
L 898.577717 329.273624 
L 902.64607 327.262063 
L 904.680246 324.274761 
L 908.748599 321.552041 
L 910.782775 319.640171 
L 912.816951 318.364958 
L 914.851128 316.594461 
L 916.885304 313.450436 
L 918.919481 314.199844 
L 920.953657 312.263784 
L 922.987833 309.425341 
L 929.090362 305.862372 
L 931.124539 305.713534 
L 933.158715 300.969279 
L 935.192891 298.139046 
L 937.227068 294.390944 
L 939.261244 293.100475 
L 941.29542 290.899444 
L 943.329597 290.223562 
L 945.363773 288.967279 
L 949.432126 285.812303 
L 951.466302 283.529357 
L 953.500478 282.929448 
L 955.534655 281.376706 
L 957.568831 280.965827 
L 959.603008 275.432256 
L 961.637184 273.281852 
L 963.67136 270.484797 
L 965.705537 271.14367 
L 967.739713 270.883896 
L 969.773889 268.329732 
L 971.808066 267.296727 
L 973.842242 266.511905 
L 975.876418 266.830285 
L 979.944771 264.492575 
L 981.978947 262.524334 
L 984.013124 261.31282 
L 986.0473 259.947596 
L 988.081476 259.180497 
L 990.115653 255.160315 
L 992.149829 255.039363 
L 994.184005 254.272117 
L 996.218182 252.349926 
L 996.218182 252.349926 
" style="fill:none;stroke:#ff7f0e;stroke-linecap:square;stroke-width:1.5;"/>
   </g>
   <g id="line2d_20">
    <path clip-path="url(#p8905a284d5)" d="M 184.581818 484.232727 
L 471.400684 484.143952 
L 483.605742 483.947188 
L 493.776623 483.478975 
L 497.844976 483.370345 
L 505.981681 482.958409 
L 508.015858 482.940212 
L 512.084211 482.610257 
L 518.18674 482.35178 
L 520.220916 482.158591 
L 522.255092 482.164314 
L 524.289269 481.95379 
L 526.323445 481.893022 
L 532.425974 480.984271 
L 536.494327 480.732366 
L 544.631032 479.674752 
L 548.699385 479.123901 
L 550.733561 479.019145 
L 552.767738 478.742668 
L 556.83609 478.773647 
L 558.870267 478.411551 
L 560.904443 477.860744 
L 569.041148 477.052957 
L 573.109501 475.933515 
L 575.143677 475.633402 
L 577.177854 475.577971 
L 579.21203 475.395836 
L 581.246206 474.899199 
L 583.280383 474.670648 
L 587.348735 474.015879 
L 589.382912 473.40299 
L 593.451265 472.960914 
L 595.485441 472.294559 
L 597.519617 471.832694 
L 601.58797 471.405566 
L 603.622146 470.833743 
L 605.656323 470.45891 
L 607.690499 470.37006 
L 609.724675 469.909651 
L 611.758852 468.966976 
L 613.793028 468.666862 
L 615.827204 468.484534 
L 617.861381 468.003934 
L 619.895557 467.406966 
L 623.96391 466.593672 
L 625.998086 466.660494 
L 628.032262 466.512712 
L 630.066439 465.83486 
L 632.100615 465.358152 
L 634.134792 464.657482 
L 636.168968 464.660308 
L 638.203144 464.099346 
L 640.237321 463.005856 
L 644.305673 461.904694 
L 646.33985 461.580995 
L 648.374026 460.552843 
L 650.408202 459.991792 
L 652.442379 459.123537 
L 654.476555 457.762665 
L 656.510731 455.310226 
L 660.579084 454.165354 
L 662.61326 453.748828 
L 664.647437 453.006955 
L 666.681613 452.869564 
L 670.749966 451.632251 
L 672.784142 450.976701 
L 674.818319 450.793249 
L 676.852495 450.249871 
L 680.920848 448.336707 
L 682.955024 447.531603 
L 684.9892 447.56793 
L 687.023377 446.553 
L 689.057553 445.392129 
L 691.091729 444.722424 
L 695.160082 442.914439 
L 699.228435 442.564461 
L 701.262611 441.455861 
L 705.330964 440.285827 
L 707.36514 438.681542 
L 709.399316 438.049164 
L 711.433493 437.608141 
L 713.467669 436.528335 
L 715.501846 435.978414 
L 717.536022 434.836137 
L 719.570198 434.204363 
L 721.604375 432.582715 
L 723.638551 431.576929 
L 725.672727 431.170391 
L 727.706904 430.524548 
L 731.775256 430.046977 
L 733.809433 429.392167 
L 735.843609 429.027416 
L 737.877785 427.534831 
L 739.911962 425.221037 
L 741.946138 424.216496 
L 743.980314 424.043572 
L 746.014491 422.454897 
L 748.048667 421.491025 
L 750.082843 421.296158 
L 752.11702 420.684574 
L 754.151196 418.515456 
L 756.185373 417.34743 
L 758.219549 415.482849 
L 760.253725 414.062745 
L 762.287902 413.61063 
L 764.322078 412.961148 
L 766.356254 412.085192 
L 768.390431 411.589084 
L 770.424607 410.602061 
L 774.49296 407.093363 
L 776.527136 406.330978 
L 778.561312 405.804039 
L 780.595489 406.221685 
L 782.629665 404.503307 
L 784.663841 401.619628 
L 786.698018 399.995801 
L 788.732194 399.33593 
L 790.76637 397.576547 
L 792.800547 396.483114 
L 794.834723 396.382614 
L 796.8689 394.887624 
L 798.903076 394.379028 
L 800.937252 392.520022 
L 802.971429 391.626469 
L 807.039781 386.813065 
L 809.073958 386.493666 
L 811.108134 385.134837 
L 813.14231 383.529116 
L 815.176487 381.648503 
L 817.210663 381.220058 
L 821.279016 377.730364 
L 823.313192 377.675453 
L 825.347368 376.694703 
L 827.381545 376.419337 
L 829.415721 375.05382 
L 831.449897 375.001281 
L 833.484074 373.784528 
L 835.51825 372.132526 
L 837.552427 369.179693 
L 841.620779 367.532731 
L 843.654956 367.545855 
L 845.689132 367.687711 
L 847.723308 366.735971 
L 849.757485 364.534279 
L 851.791661 362.119083 
L 853.825837 361.596575 
L 855.860014 358.282923 
L 857.89419 357.062715 
L 859.928366 356.881036 
L 861.962543 356.084916 
L 863.996719 352.038927 
L 866.030895 350.263233 
L 870.099248 349.637664 
L 872.133424 346.768615 
L 874.167601 344.888936 
L 876.201777 344.062568 
L 878.235954 342.840775 
L 880.27013 342.256069 
L 884.338483 338.310853 
L 886.372659 337.706524 
L 888.406835 336.706644 
L 890.441012 336.288426 
L 892.475188 334.607719 
L 894.509364 331.381347 
L 896.543541 330.225564 
L 898.577717 326.492801 
L 900.611893 323.67081 
L 902.64607 320.378986 
L 904.680246 319.099573 
L 906.714422 318.122466 
L 908.748599 316.839567 
L 910.782775 317.641504 
L 912.816951 315.767148 
L 914.851128 315.576082 
L 916.885304 313.346734 
L 918.919481 309.792627 
L 920.953657 310.468456 
L 922.987833 308.376576 
L 925.02201 305.183152 
L 927.056186 304.406266 
L 929.090362 301.977758 
L 931.124539 301.91157 
L 933.158715 300.48713 
L 935.192891 300.19483 
L 937.227068 298.011648 
L 941.29542 291.40045 
L 943.329597 290.829582 
L 945.363773 285.548855 
L 947.397949 284.860143 
L 949.432126 283.756498 
L 951.466302 281.575143 
L 953.500478 281.61609 
L 955.534655 278.264315 
L 957.568831 275.214983 
L 959.603008 273.279122 
L 961.637184 273.906225 
L 963.67136 273.083017 
L 965.705537 271.045586 
L 967.739713 270.33598 
L 969.773889 269.273115 
L 971.808066 267.72281 
L 973.842242 267.730012 
L 977.910595 262.181133 
L 979.944771 263.62718 
L 981.978947 260.730004 
L 984.013124 258.627309 
L 986.0473 256.890348 
L 988.081476 256.197289 
L 990.115653 255.292942 
L 992.149829 253.785936 
L 994.184005 250.314049 
L 996.218182 246.259052 
L 996.218182 246.259052 
" style="fill:none;stroke:#2ca02c;stroke-linecap:square;stroke-width:1.5;"/>
   </g>
   <g id="line2d_21">
    <path clip-path="url(#p8905a284d5)" d="M 184.581818 484.232727 
L 469.366507 484.152599 
L 473.43486 484.021362 
L 479.537389 483.913625 
L 483.605742 483.788922 
L 493.776623 483.503375 
L 497.844976 482.85346 
L 501.913329 482.368961 
L 503.947505 482.336606 
L 505.981681 481.771286 
L 508.015858 481.557764 
L 512.084211 481.465879 
L 514.118387 480.969158 
L 522.255092 480.556699 
L 530.391798 479.182603 
L 540.562679 478.768599 
L 542.596856 478.32837 
L 544.631032 478.067799 
L 548.699385 478.072056 
L 550.733561 477.923187 
L 554.801914 477.247704 
L 556.83609 476.86314 
L 558.870267 475.817853 
L 560.904443 475.70193 
L 567.006972 474.717985 
L 573.109501 473.086398 
L 575.143677 472.851052 
L 577.177854 471.127625 
L 581.246206 470.539755 
L 583.280383 470.353554 
L 585.314559 470.005137 
L 587.348735 469.918763 
L 589.382912 469.63248 
L 591.417088 469.509593 
L 595.485441 468.906023 
L 597.519617 468.790347 
L 599.553794 468.387033 
L 601.58797 467.350132 
L 603.622146 466.568866 
L 605.656323 466.645732 
L 607.690499 465.983235 
L 609.724675 465.449305 
L 611.758852 465.493327 
L 613.793028 465.350639 
L 615.827204 464.085504 
L 617.861381 463.724175 
L 619.895557 463.764455 
L 621.929733 463.528354 
L 623.96391 462.730829 
L 625.998086 462.448986 
L 628.032262 461.736531 
L 630.066439 461.75701 
L 632.100615 461.442761 
L 634.134792 461.759 
L 636.168968 461.129116 
L 640.237321 460.638271 
L 642.271497 460.478516 
L 646.33985 459.43761 
L 648.374026 458.07203 
L 650.408202 457.772621 
L 652.442379 457.231461 
L 654.476555 457.427121 
L 656.510731 456.560112 
L 660.579084 455.310793 
L 662.61326 454.371652 
L 664.647437 453.800456 
L 666.681613 452.460924 
L 668.715789 451.590487 
L 670.749966 450.84206 
L 672.784142 450.23234 
L 674.818319 449.288857 
L 676.852495 448.753566 
L 678.886671 447.820948 
L 680.920848 448.131743 
L 682.955024 447.044441 
L 687.023377 444.386659 
L 689.057553 444.243695 
L 691.091729 441.950331 
L 697.194258 441.402648 
L 699.228435 439.731362 
L 701.262611 438.937546 
L 703.296787 437.708173 
L 705.330964 437.557324 
L 707.36514 435.745203 
L 709.399316 435.613616 
L 711.433493 435.262619 
L 713.467669 432.871782 
L 715.501846 432.226122 
L 717.536022 430.860578 
L 719.570198 430.787309 
L 721.604375 428.788793 
L 723.638551 427.152577 
L 725.672727 427.088673 
L 727.706904 426.637372 
L 729.74108 425.758974 
L 731.775256 425.452578 
L 735.843609 424.480852 
L 737.877785 423.241542 
L 739.911962 422.336932 
L 741.946138 421.744909 
L 743.980314 421.47263 
L 746.014491 420.707536 
L 748.048667 419.525063 
L 750.082843 418.600904 
L 752.11702 417.914612 
L 754.151196 418.340196 
L 756.185373 416.521597 
L 758.219549 415.662833 
L 760.253725 415.252284 
L 762.287902 412.966666 
L 764.322078 412.255826 
L 768.390431 410.646951 
L 770.424607 409.570038 
L 772.458783 408.014525 
L 774.49296 407.822135 
L 776.527136 406.626517 
L 778.561312 406.032141 
L 780.595489 405.986207 
L 782.629665 405.567679 
L 784.663841 403.934765 
L 786.698018 403.35954 
L 788.732194 401.875181 
L 790.76637 400.818122 
L 792.800547 398.030784 
L 794.834723 396.32049 
L 796.8689 396.334522 
L 800.937252 396.688107 
L 802.971429 395.815311 
L 807.039781 394.398389 
L 809.073958 391.838198 
L 811.108134 390.478318 
L 813.14231 389.999991 
L 815.176487 388.877857 
L 817.210663 387.914368 
L 819.244839 387.604723 
L 821.279016 386.228454 
L 823.313192 386.172493 
L 825.347368 385.156728 
L 827.381545 384.584327 
L 829.415721 381.375846 
L 831.449897 380.470681 
L 833.484074 377.790021 
L 835.51825 377.96538 
L 837.552427 375.95845 
L 839.586603 375.193985 
L 841.620779 373.561554 
L 845.689132 371.651228 
L 847.723308 371.153719 
L 849.757485 370.395176 
L 851.791661 369.036399 
L 855.860014 364.869763 
L 857.89419 363.248398 
L 859.928366 363.409069 
L 861.962543 360.658001 
L 863.996719 358.192923 
L 866.030895 357.236279 
L 868.065072 355.802369 
L 870.099248 355.127453 
L 872.133424 353.104501 
L 874.167601 350.778833 
L 876.201777 351.337983 
L 878.235954 349.849886 
L 880.27013 349.284195 
L 882.304306 347.71982 
L 884.338483 345.899924 
L 886.372659 345.738277 
L 888.406835 346.284776 
L 890.441012 343.52177 
L 892.475188 341.292937 
L 894.509364 339.424283 
L 896.543541 337.772785 
L 898.577717 335.663539 
L 900.611893 332.813284 
L 904.680246 330.561667 
L 906.714422 327.920894 
L 908.748599 326.644694 
L 910.782775 324.57775 
L 912.816951 319.800065 
L 914.851128 319.566497 
L 916.885304 318.217212 
L 918.919481 317.567631 
L 920.953657 316.368233 
L 922.987833 314.796992 
L 925.02201 313.524015 
L 927.056186 312.528671 
L 929.090362 310.947455 
L 931.124539 309.004865 
L 933.158715 306.566392 
L 935.192891 304.944419 
L 937.227068 304.525182 
L 939.261244 301.748306 
L 941.29542 299.486463 
L 943.329597 298.72644 
L 945.363773 295.35249 
L 947.397949 293.125421 
L 949.432126 289.511626 
L 953.500478 284.017889 
L 957.568831 281.331013 
L 959.603008 279.104175 
L 961.637184 277.867001 
L 963.67136 272.959356 
L 965.705537 272.824209 
L 967.739713 270.868673 
L 969.773889 271.107742 
L 971.808066 270.107284 
L 973.842242 267.758885 
L 975.876418 266.793643 
L 977.910595 265.395241 
L 979.944771 263.261658 
L 981.978947 263.820829 
L 984.013124 261.076943 
L 986.0473 259.026682 
L 988.081476 257.820459 
L 990.115653 255.913787 
L 992.149829 255.202774 
L 994.184005 254.030507 
L 996.218182 253.324471 
L 996.218182 253.324471 
" style="fill:none;stroke:#d62728;stroke-dasharray:5.55,2.4;stroke-dashoffset:0;stroke-width:1.5;"/>
   </g>
   <g id="line2d_22">
    <path clip-path="url(#p8905a284d5)" d="M 184.581818 484.232727 
L 473.43486 484.134721 
L 481.571565 483.983654 
L 485.639918 483.84057 
L 489.708271 483.726128 
L 495.8108 483.624228 
L 503.947505 483.236258 
L 508.015858 483.215187 
L 520.220916 482.419006 
L 524.289269 482.287482 
L 526.323445 481.988916 
L 530.391798 481.84282 
L 532.425974 481.511914 
L 536.494327 481.03942 
L 538.528503 481.026747 
L 546.665208 480.010027 
L 548.699385 479.612402 
L 554.801914 478.89111 
L 556.83609 478.31739 
L 558.870267 478.176915 
L 560.904443 478.15619 
L 562.938619 477.634692 
L 564.972796 477.616504 
L 567.006972 477.431122 
L 569.041148 476.858676 
L 573.109501 475.979191 
L 579.21203 475.447065 
L 581.246206 474.774067 
L 583.280383 474.544212 
L 587.348735 473.364577 
L 591.417088 473.025175 
L 593.451265 472.568432 
L 597.519617 472.028637 
L 599.553794 471.228628 
L 601.58797 470.635241 
L 603.622146 470.438123 
L 609.724675 469.337013 
L 611.758852 468.765058 
L 615.827204 467.490543 
L 619.895557 465.497763 
L 621.929733 465.523821 
L 623.96391 465.379047 
L 625.998086 465.058953 
L 628.032262 464.864925 
L 632.100615 463.783658 
L 636.168968 463.65385 
L 642.271497 462.2968 
L 648.374026 461.082499 
L 650.408202 460.969127 
L 652.442379 460.724879 
L 654.476555 460.357336 
L 656.510731 459.719178 
L 660.579084 457.545495 
L 662.61326 456.092172 
L 664.647437 455.336962 
L 666.681613 454.949425 
L 668.715789 454.785033 
L 670.749966 454.076298 
L 672.784142 453.505872 
L 674.818319 453.331271 
L 676.852495 452.752809 
L 678.886671 452.802269 
L 680.920848 451.789785 
L 682.955024 451.348838 
L 684.9892 450.41739 
L 689.057553 447.882812 
L 691.091729 447.529256 
L 693.125906 446.857204 
L 695.160082 444.343029 
L 699.228435 442.900567 
L 701.262611 441.852658 
L 703.296787 441.259918 
L 705.330964 440.021405 
L 707.36514 439.248887 
L 709.399316 439.061354 
L 713.467669 437.778938 
L 715.501846 436.814777 
L 719.570198 435.563371 
L 721.604375 434.112835 
L 723.638551 433.188178 
L 725.672727 431.440402 
L 727.706904 430.943465 
L 729.74108 429.760047 
L 731.775256 428.415685 
L 733.809433 427.278254 
L 735.843609 426.603107 
L 737.877785 425.648542 
L 739.911962 424.234476 
L 741.946138 423.446378 
L 743.980314 423.682171 
L 748.048667 419.717394 
L 750.082843 418.984716 
L 754.151196 418.007505 
L 756.185373 415.678125 
L 758.219549 413.976367 
L 760.253725 412.883753 
L 762.287902 411.188347 
L 764.322078 410.895301 
L 766.356254 410.062859 
L 768.390431 409.423635 
L 770.424607 408.988571 
L 772.458783 407.470551 
L 774.49296 406.926897 
L 776.527136 404.16745 
L 778.561312 403.255544 
L 780.595489 401.94099 
L 782.629665 400.146314 
L 784.663841 399.600801 
L 786.698018 399.469277 
L 788.732194 398.71307 
L 790.76637 398.466935 
L 792.800547 397.271217 
L 794.834723 396.609263 
L 796.8689 394.975136 
L 798.903076 392.616773 
L 800.937252 390.883318 
L 802.971429 390.030533 
L 805.005605 389.342588 
L 807.039781 389.087004 
L 809.073958 387.370043 
L 811.108134 386.174047 
L 813.14231 384.543989 
L 815.176487 383.203869 
L 817.210663 382.399307 
L 819.244839 382.294398 
L 821.279016 380.113327 
L 823.313192 377.336294 
L 825.347368 375.652448 
L 827.381545 374.538945 
L 829.415721 374.286615 
L 831.449897 374.325042 
L 833.484074 373.871987 
L 835.51825 373.584065 
L 839.586603 369.310829 
L 841.620779 368.090811 
L 843.654956 367.502178 
L 845.689132 364.941767 
L 847.723308 363.550809 
L 849.757485 363.160645 
L 851.791661 362.137488 
L 853.825837 358.95407 
L 855.860014 357.357263 
L 857.89419 356.412042 
L 859.928366 355.15746 
L 861.962543 355.107568 
L 863.996719 353.402975 
L 866.030895 351.976981 
L 868.065072 352.487132 
L 870.099248 350.797217 
L 872.133424 347.922614 
L 874.167601 347.461747 
L 876.201777 347.497834 
L 878.235954 347.246848 
L 880.27013 346.691141 
L 882.304306 345.607298 
L 884.338483 345.564713 
L 886.372659 345.038005 
L 888.406835 342.949118 
L 890.441012 341.823624 
L 892.475188 340.865836 
L 894.509364 340.363928 
L 896.543541 339.606855 
L 898.577717 337.35612 
L 900.611893 335.437877 
L 902.64607 334.988182 
L 904.680246 334.037974 
L 906.714422 332.901688 
L 908.748599 330.222067 
L 910.782775 328.133337 
L 912.816951 324.816714 
L 914.851128 322.740834 
L 916.885304 321.185636 
L 918.919481 320.028467 
L 920.953657 317.484581 
L 922.987833 316.245779 
L 925.02201 311.450309 
L 927.056186 310.638167 
L 929.090362 306.426122 
L 931.124539 305.776845 
L 933.158715 304.52831 
L 935.192891 300.97182 
L 937.227068 300.331384 
L 939.261244 297.082271 
L 941.29542 296.455337 
L 943.329597 293.345844 
L 945.363773 292.913923 
L 947.397949 294.871938 
L 949.432126 294.584488 
L 951.466302 291.96191 
L 953.500478 290.344535 
L 955.534655 289.973196 
L 957.568831 287.30314 
L 959.603008 284.321655 
L 961.637184 282.597061 
L 963.67136 283.079168 
L 965.705537 281.518342 
L 967.739713 281.890164 
L 969.773889 280.323585 
L 971.808066 277.586313 
L 973.842242 275.065872 
L 975.876418 271.466944 
L 977.910595 270.370187 
L 979.944771 269.709466 
L 981.978947 268.640553 
L 984.013124 264.821329 
L 986.0473 262.267227 
L 988.081476 260.022204 
L 990.115653 256.53102 
L 994.184005 251.62791 
L 996.218182 248.957666 
L 996.218182 248.957666 
" style="fill:none;stroke:#9467bd;stroke-dasharray:5.55,2.4;stroke-dashoffset:0;stroke-width:1.5;"/>
   </g>
   <g id="line2d_23">
    <path clip-path="url(#p8905a284d5)" d="M 184.581818 484.232727 
L 463.263978 484.182131 
L 467.332331 483.920647 
L 469.366507 483.741333 
L 473.43486 483.640806 
L 475.469036 483.457465 
L 477.503213 483.419649 
L 479.537389 482.967641 
L 491.742447 482.60543 
L 499.879152 481.637774 
L 501.913329 480.921918 
L 503.947505 480.553157 
L 508.015858 480.122707 
L 510.050034 479.821138 
L 512.084211 479.670319 
L 514.118387 479.238439 
L 516.152563 478.19625 
L 518.18674 477.82688 
L 520.220916 477.052264 
L 522.255092 476.665781 
L 524.289269 476.497762 
L 526.323445 476.161777 
L 528.357621 475.642475 
L 532.425974 475.025144 
L 536.494327 474.635838 
L 538.528503 474.093594 
L 540.562679 474.089121 
L 546.665208 473.540616 
L 548.699385 472.753372 
L 550.733561 472.629585 
L 554.801914 471.033259 
L 556.83609 469.766527 
L 558.870267 469.442305 
L 560.904443 468.722984 
L 562.938619 468.421591 
L 564.972796 467.223443 
L 567.006972 467.261093 
L 569.041148 466.660103 
L 571.075325 463.813091 
L 573.109501 463.047645 
L 577.177854 462.640814 
L 579.21203 462.513253 
L 581.246206 462.249763 
L 583.280383 461.393693 
L 585.314559 461.092216 
L 587.348735 460.501746 
L 593.451265 459.193111 
L 595.485441 458.671729 
L 597.519617 457.772695 
L 599.553794 457.100033 
L 601.58797 455.791939 
L 603.622146 454.177249 
L 607.690499 449.193526 
L 609.724675 448.820851 
L 611.758852 447.720614 
L 613.793028 447.230021 
L 615.827204 446.920898 
L 619.895557 444.731222 
L 621.929733 444.419957 
L 623.96391 442.956862 
L 625.998086 439.659116 
L 628.032262 439.079854 
L 630.066439 437.191135 
L 632.100615 436.7999 
L 634.134792 436.615453 
L 636.168968 435.989133 
L 642.271497 433.486752 
L 644.305673 433.060186 
L 646.33985 432.107333 
L 650.408202 429.50862 
L 652.442379 428.700064 
L 654.476555 427.477573 
L 656.510731 426.509947 
L 658.544908 424.874828 
L 660.579084 422.341521 
L 662.61326 421.676243 
L 664.647437 421.419147 
L 668.715789 418.146715 
L 670.749966 417.049391 
L 672.784142 416.450832 
L 674.818319 415.464291 
L 676.852495 412.916915 
L 678.886671 412.816935 
L 680.920848 412.545051 
L 682.955024 411.92924 
L 687.023377 406.755223 
L 689.057553 404.698463 
L 691.091729 403.791544 
L 693.125906 402.716358 
L 695.160082 399.528141 
L 697.194258 398.07908 
L 699.228435 397.547475 
L 701.262611 393.631383 
L 703.296787 392.21823 
L 705.330964 391.995183 
L 707.36514 391.492603 
L 709.399316 390.861815 
L 711.433493 388.981265 
L 713.467669 387.694156 
L 717.536022 384.52426 
L 719.570198 381.086874 
L 721.604375 379.968048 
L 725.672727 378.920386 
L 727.706904 378.625492 
L 729.74108 376.67845 
L 731.775256 376.061605 
L 733.809433 375.249999 
L 735.843609 374.963452 
L 737.877785 373.983112 
L 739.911962 372.33784 
L 741.946138 371.244674 
L 743.980314 369.702065 
L 746.014491 367.186895 
L 748.048667 365.777354 
L 750.082843 364.648385 
L 752.11702 362.906688 
L 754.151196 362.502517 
L 758.219549 361.210999 
L 760.253725 358.287291 
L 762.287902 357.182386 
L 764.322078 354.863522 
L 766.356254 350.275118 
L 768.390431 348.558767 
L 770.424607 347.059813 
L 772.458783 346.17467 
L 776.527136 341.171523 
L 778.561312 339.633828 
L 780.595489 338.423248 
L 782.629665 337.497934 
L 786.698018 332.027201 
L 788.732194 331.414903 
L 794.834723 327.987775 
L 800.937252 319.546622 
L 802.971429 318.621256 
L 805.005605 317.335502 
L 807.039781 313.90641 
L 809.073958 311.386914 
L 813.14231 309.657585 
L 815.176487 303.422419 
L 817.210663 300.763388 
L 819.244839 298.695425 
L 823.313192 296.561674 
L 825.347368 295.252033 
L 827.381545 293.432841 
L 829.415721 292.524672 
L 831.449897 289.507762 
L 835.51825 286.822293 
L 837.552427 285.542387 
L 839.586603 275.433746 
L 841.620779 274.32374 
L 843.654956 272.876474 
L 845.689132 270.447084 
L 847.723308 268.555593 
L 849.757485 265.020521 
L 851.791661 263.886072 
L 853.825837 261.574085 
L 855.860014 260.800307 
L 857.89419 258.528658 
L 859.928366 257.662613 
L 861.962543 257.211227 
L 863.996719 255.956498 
L 866.030895 256.029783 
L 868.065072 255.296092 
L 870.099248 251.40942 
L 872.133424 250.77585 
L 874.167601 248.899919 
L 876.201777 248.492736 
L 878.235954 247.517981 
L 880.27013 244.405947 
L 882.304306 243.547041 
L 884.338483 239.855866 
L 886.372659 237.299917 
L 888.406835 237.269007 
L 890.441012 234.599875 
L 892.475188 228.449743 
L 894.509364 227.748306 
L 896.543541 226.353054 
L 898.577717 225.509372 
L 900.611893 222.351016 
L 902.64607 211.696348 
L 904.680246 210.884186 
L 906.714422 209.21717 
L 908.748599 206.05434 
L 910.782775 196.795471 
L 912.816951 195.438941 
L 914.851128 193.65133 
L 916.885304 190.652269 
L 918.919481 190.396485 
L 920.953657 188.588149 
L 922.987833 188.185962 
L 925.02201 186.328175 
L 927.056186 185.179551 
L 929.090362 183.590063 
L 933.158715 182.263623 
L 935.192891 176.753129 
L 937.227068 176.384982 
L 939.261244 173.868615 
L 941.29542 173.050741 
L 943.329597 172.81184 
L 945.363773 168.95908 
L 947.397949 165.961657 
L 949.432126 165.991412 
L 951.466302 163.06007 
L 953.500478 161.186576 
L 955.534655 158.029584 
L 959.603008 155.424351 
L 961.637184 154.399304 
L 963.67136 151.878906 
L 965.705537 148.753222 
L 967.739713 145.339187 
L 969.773889 141.44611 
L 971.808066 140.016714 
L 973.842242 138.129591 
L 975.876418 134.682882 
L 979.944771 133.514982 
L 984.013124 127.828499 
L 986.0473 126.55758 
L 988.081476 125.625158 
L 990.115653 122.140903 
L 992.149829 121.215327 
L 994.184005 120.020128 
L 996.218182 114.751832 
L 996.218182 114.751832 
" style="fill:none;stroke:#8c564b;stroke-dasharray:5.55,2.4;stroke-dashoffset:0;stroke-width:1.5;"/>
   </g>
   <g id="patch_3">
    <path d="M 144 504 
L 144 69.12 
" style="fill:none;stroke:#000000;stroke-linecap:square;stroke-linejoin:miter;stroke-width:0.8;"/>
   </g>
   <g id="patch_4">
    <path d="M 1036.8 504 
L 1036.8 69.12 
" style="fill:none;stroke:#000000;stroke-linecap:square;stroke-linejoin:miter;stroke-width:0.8;"/>
   </g>
   <g id="patch_5">
    <path d="M 144 504 
L 1036.8 504 
" style="fill:none;stroke:#000000;stroke-linecap:square;stroke-linejoin:miter;stroke-width:0.8;"/>
   </g>
   <g id="patch_6">
    <path d="M 144 69.12 
L 1036.8 69.12 
" style="fill:none;stroke:#000000;stroke-linecap:square;stroke-linejoin:miter;stroke-width:0.8;"/>
   </g>
   <g id="legend_1">
    <g id="patch_7">
     <path d="M 151 166.579375 
L 275.432813 166.579375 
Q 277.432813 166.579375 277.432813 164.579375 
L 277.432813 76.12 
Q 277.432813 74.12 275.432813 74.12 
L 151 74.12 
Q 149 74.12 149 76.12 
L 149 164.579375 
Q 149 166.579375 151 166.579375 
z
" style="fill:#ffffff;opacity:0.8;stroke:#cccccc;stroke-linejoin:miter;"/>
    </g>
    <g id="line2d_24">
     <path d="M 153 82.218438 
L 173 82.218438 
" style="fill:none;stroke:#1f77b4;stroke-linecap:square;stroke-width:1.5;"/>
    </g>
    <g id="line2d_25"/>
    <g id="text_20">
     <!-- taylorfo -->
     <defs>
      <path d="M 32.171875 -5.078125 
Q 28.375 -14.84375 24.75 -17.8125 
Q 21.140625 -20.796875 15.09375 -20.796875 
L 7.90625 -20.796875 
L 7.90625 -13.28125 
L 13.1875 -13.28125 
Q 16.890625 -13.28125 18.9375 -11.515625 
Q 21 -9.765625 23.484375 -3.21875 
L 25.09375 0.875 
L 2.984375 54.6875 
L 12.5 54.6875 
L 29.59375 11.921875 
L 46.6875 54.6875 
L 56.203125 54.6875 
z
" id="DejaVuSans-121"/>
      <path d="M 9.421875 75.984375 
L 18.40625 75.984375 
L 18.40625 0 
L 9.421875 0 
z
" id="DejaVuSans-108"/>
     </defs>
     <g transform="translate(181 85.718438)scale(0.1 -0.1)">
      <use xlink:href="#DejaVuSans-116"/>
      <use x="39.208984" xlink:href="#DejaVuSans-97"/>
      <use x="100.488281" xlink:href="#DejaVuSans-121"/>
      <use x="159.667969" xlink:href="#DejaVuSans-108"/>
      <use x="187.451172" xlink:href="#DejaVuSans-111"/>
      <use x="248.632812" xlink:href="#DejaVuSans-114"/>
      <use x="289.746094" xlink:href="#DejaVuSans-102"/>
      <use x="324.951172" xlink:href="#DejaVuSans-111"/>
     </g>
    </g>
    <g id="line2d_26">
     <path d="M 153 96.896563 
L 173 96.896563 
" style="fill:none;stroke:#ff7f0e;stroke-linecap:square;stroke-width:1.5;"/>
    </g>
    <g id="line2d_27"/>
    <g id="text_21">
     <!-- taylorfo_abs -->
     <defs>
      <path d="M 50.984375 -16.609375 
L 50.984375 -23.578125 
L -0.984375 -23.578125 
L -0.984375 -16.609375 
z
" id="DejaVuSans-95"/>
     </defs>
     <g transform="translate(181 100.396563)scale(0.1 -0.1)">
      <use xlink:href="#DejaVuSans-116"/>
      <use x="39.208984" xlink:href="#DejaVuSans-97"/>
      <use x="100.488281" xlink:href="#DejaVuSans-121"/>
      <use x="159.667969" xlink:href="#DejaVuSans-108"/>
      <use x="187.451172" xlink:href="#DejaVuSans-111"/>
      <use x="248.632812" xlink:href="#DejaVuSans-114"/>
      <use x="289.746094" xlink:href="#DejaVuSans-102"/>
      <use x="324.951172" xlink:href="#DejaVuSans-111"/>
      <use x="386.132812" xlink:href="#DejaVuSans-95"/>
      <use x="436.132812" xlink:href="#DejaVuSans-97"/>
      <use x="497.412109" xlink:href="#DejaVuSans-98"/>
      <use x="560.888672" xlink:href="#DejaVuSans-115"/>
     </g>
    </g>
    <g id="line2d_28">
     <path d="M 153 111.852813 
L 173 111.852813 
" style="fill:none;stroke:#2ca02c;stroke-linecap:square;stroke-width:1.5;"/>
    </g>
    <g id="line2d_29"/>
    <g id="text_22">
     <!-- taylorfo_sq -->
     <g transform="translate(181 115.352813)scale(0.1 -0.1)">
      <use xlink:href="#DejaVuSans-116"/>
      <use x="39.208984" xlink:href="#DejaVuSans-97"/>
      <use x="100.488281" xlink:href="#DejaVuSans-121"/>
      <use x="159.667969" xlink:href="#DejaVuSans-108"/>
      <use x="187.451172" xlink:href="#DejaVuSans-111"/>
      <use x="248.632812" xlink:href="#DejaVuSans-114"/>
      <use x="289.746094" xlink:href="#DejaVuSans-102"/>
      <use x="324.951172" xlink:href="#DejaVuSans-111"/>
      <use x="386.132812" xlink:href="#DejaVuSans-95"/>
      <use x="436.132812" xlink:href="#DejaVuSans-115"/>
      <use x="488.232422" xlink:href="#DejaVuSans-113"/>
     </g>
    </g>
    <g id="line2d_30">
     <path d="M 153 126.809063 
L 173 126.809063 
" style="fill:none;stroke:#d62728;stroke-dasharray:5.55,2.4;stroke-dashoffset:0;stroke-width:1.5;"/>
    </g>
    <g id="line2d_31"/>
    <g id="text_23">
     <!-- taylorfo_abs_norm -->
     <g transform="translate(181 130.309063)scale(0.1 -0.1)">
      <use xlink:href="#DejaVuSans-116"/>
      <use x="39.208984" xlink:href="#DejaVuSans-97"/>
      <use x="100.488281" xlink:href="#DejaVuSans-121"/>
      <use x="159.667969" xlink:href="#DejaVuSans-108"/>
      <use x="187.451172" xlink:href="#DejaVuSans-111"/>
      <use x="248.632812" xlink:href="#DejaVuSans-114"/>
      <use x="289.746094" xlink:href="#DejaVuSans-102"/>
      <use x="324.951172" xlink:href="#DejaVuSans-111"/>
      <use x="386.132812" xlink:href="#DejaVuSans-95"/>
      <use x="436.132812" xlink:href="#DejaVuSans-97"/>
      <use x="497.412109" xlink:href="#DejaVuSans-98"/>
      <use x="560.888672" xlink:href="#DejaVuSans-115"/>
      <use x="612.988281" xlink:href="#DejaVuSans-95"/>
      <use x="662.988281" xlink:href="#DejaVuSans-110"/>
      <use x="726.367188" xlink:href="#DejaVuSans-111"/>
      <use x="787.548828" xlink:href="#DejaVuSans-114"/>
      <use x="826.912109" xlink:href="#DejaVuSans-109"/>
     </g>
    </g>
    <g id="line2d_32">
     <path d="M 153 141.765313 
L 173 141.765313 
" style="fill:none;stroke:#9467bd;stroke-dasharray:5.55,2.4;stroke-dashoffset:0;stroke-width:1.5;"/>
    </g>
    <g id="line2d_33"/>
    <g id="text_24">
     <!-- taylorfo_sq_norm -->
     <g transform="translate(181 145.265313)scale(0.1 -0.1)">
      <use xlink:href="#DejaVuSans-116"/>
      <use x="39.208984" xlink:href="#DejaVuSans-97"/>
      <use x="100.488281" xlink:href="#DejaVuSans-121"/>
      <use x="159.667969" xlink:href="#DejaVuSans-108"/>
      <use x="187.451172" xlink:href="#DejaVuSans-111"/>
      <use x="248.632812" xlink:href="#DejaVuSans-114"/>
      <use x="289.746094" xlink:href="#DejaVuSans-102"/>
      <use x="324.951172" xlink:href="#DejaVuSans-111"/>
      <use x="386.132812" xlink:href="#DejaVuSans-95"/>
      <use x="436.132812" xlink:href="#DejaVuSans-115"/>
      <use x="488.232422" xlink:href="#DejaVuSans-113"/>
      <use x="551.708984" xlink:href="#DejaVuSans-95"/>
      <use x="601.708984" xlink:href="#DejaVuSans-110"/>
      <use x="665.087891" xlink:href="#DejaVuSans-111"/>
      <use x="726.269531" xlink:href="#DejaVuSans-114"/>
      <use x="765.632812" xlink:href="#DejaVuSans-109"/>
     </g>
    </g>
    <g id="line2d_34">
     <path d="M 153 156.721563 
L 173 156.721563 
" style="fill:none;stroke:#8c564b;stroke-dasharray:5.55,2.4;stroke-dashoffset:0;stroke-width:1.5;"/>
    </g>
    <g id="line2d_35"/>
    <g id="text_25">
     <!-- Molchanov_group -->
     <defs>
      <path d="M 9.8125 72.90625 
L 24.515625 72.90625 
L 43.109375 23.296875 
L 61.8125 72.90625 
L 76.515625 72.90625 
L 76.515625 0 
L 66.890625 0 
L 66.890625 64.015625 
L 48.09375 14.015625 
L 38.1875 14.015625 
L 19.390625 64.015625 
L 19.390625 0 
L 9.8125 0 
z
" id="DejaVuSans-77"/>
      <path d="M 48.78125 52.59375 
L 48.78125 44.1875 
Q 44.96875 46.296875 41.140625 47.34375 
Q 37.3125 48.390625 33.40625 48.390625 
Q 24.65625 48.390625 19.8125 42.84375 
Q 14.984375 37.3125 14.984375 27.296875 
Q 14.984375 17.28125 19.8125 11.734375 
Q 24.65625 6.203125 33.40625 6.203125 
Q 37.3125 6.203125 41.140625 7.25 
Q 44.96875 8.296875 48.78125 10.40625 
L 48.78125 2.09375 
Q 45.015625 0.34375 40.984375 -0.53125 
Q 36.96875 -1.421875 32.421875 -1.421875 
Q 20.0625 -1.421875 12.78125 6.34375 
Q 5.515625 14.109375 5.515625 27.296875 
Q 5.515625 40.671875 12.859375 48.328125 
Q 20.21875 56 33.015625 56 
Q 37.15625 56 41.109375 55.140625 
Q 45.0625 54.296875 48.78125 52.59375 
z
" id="DejaVuSans-99"/>
      <path d="M 54.890625 33.015625 
L 54.890625 0 
L 45.90625 0 
L 45.90625 32.71875 
Q 45.90625 40.484375 42.875 44.328125 
Q 39.84375 48.1875 33.796875 48.1875 
Q 26.515625 48.1875 22.3125 43.546875 
Q 18.109375 38.921875 18.109375 30.90625 
L 18.109375 0 
L 9.078125 0 
L 9.078125 75.984375 
L 18.109375 75.984375 
L 18.109375 46.1875 
Q 21.34375 51.125 25.703125 53.5625 
Q 30.078125 56 35.796875 56 
Q 45.21875 56 50.046875 50.171875 
Q 54.890625 44.34375 54.890625 33.015625 
z
" id="DejaVuSans-104"/>
      <path d="M 45.40625 27.984375 
Q 45.40625 37.75 41.375 43.109375 
Q 37.359375 48.484375 30.078125 48.484375 
Q 22.859375 48.484375 18.828125 43.109375 
Q 14.796875 37.75 14.796875 27.984375 
Q 14.796875 18.265625 18.828125 12.890625 
Q 22.859375 7.515625 30.078125 7.515625 
Q 37.359375 7.515625 41.375 12.890625 
Q 45.40625 18.265625 45.40625 27.984375 
z
M 54.390625 6.78125 
Q 54.390625 -7.171875 48.1875 -13.984375 
Q 42 -20.796875 29.203125 -20.796875 
Q 24.46875 -20.796875 20.265625 -20.09375 
Q 16.0625 -19.390625 12.109375 -17.921875 
L 12.109375 -9.1875 
Q 16.0625 -11.328125 19.921875 -12.34375 
Q 23.78125 -13.375 27.78125 -13.375 
Q 36.625 -13.375 41.015625 -8.765625 
Q 45.40625 -4.15625 45.40625 5.171875 
L 45.40625 9.625 
Q 42.625 4.78125 38.28125 2.390625 
Q 33.9375 0 27.875 0 
Q 17.828125 0 11.671875 7.65625 
Q 5.515625 15.328125 5.515625 27.984375 
Q 5.515625 40.671875 11.671875 48.328125 
Q 17.828125 56 27.875 56 
Q 33.9375 56 38.28125 53.609375 
Q 42.625 51.21875 45.40625 46.390625 
L 45.40625 54.6875 
L 54.390625 54.6875 
z
" id="DejaVuSans-103"/>
     </defs>
     <g transform="translate(181 160.221563)scale(0.1 -0.1)">
      <use xlink:href="#DejaVuSans-77"/>
      <use x="86.279297" xlink:href="#DejaVuSans-111"/>
      <use x="147.460938" xlink:href="#DejaVuSans-108"/>
      <use x="175.244141" xlink:href="#DejaVuSans-99"/>
      <use x="230.224609" xlink:href="#DejaVuSans-104"/>
      <use x="293.603516" xlink:href="#DejaVuSans-97"/>
      <use x="354.882812" xlink:href="#DejaVuSans-110"/>
      <use x="418.261719" xlink:href="#DejaVuSans-111"/>
      <use x="479.443359" xlink:href="#DejaVuSans-118"/>
      <use x="538.623047" xlink:href="#DejaVuSans-95"/>
      <use x="588.623047" xlink:href="#DejaVuSans-103"/>
      <use x="652.099609" xlink:href="#DejaVuSans-114"/>
      <use x="690.962891" xlink:href="#DejaVuSans-111"/>
      <use x="752.144531" xlink:href="#DejaVuSans-117"/>
      <use x="815.523438" xlink:href="#DejaVuSans-112"/>
     </g>
    </g>
   </g>
  </g>
 </g>
 <defs>
  <clipPath id="p8905a284d5">
   <rect height="434.88" width="892.8" x="144" y="69.12"/>
  </clipPath>
 </defs>
</svg>
