<?xml version="1.0" encoding="utf-8" standalone="no"?>
<!DOCTYPE svg PUBLIC "-//W3C//DTD SVG 1.1//EN"
  "http://www.w3.org/Graphics/SVG/1.1/DTD/svg11.dtd">
<!-- Created with matplotlib (https://matplotlib.org/) -->
<svg height="576pt" version="1.1" viewBox="0 0 1152 576" width="1152pt" xmlns="http://www.w3.org/2000/svg" xmlns:xlink="http://www.w3.org/1999/xlink">
 <defs>
  <style type="text/css">
*{stroke-linecap:butt;stroke-linejoin:round;}
  </style>
 </defs>
 <g id="figure_1">
  <g id="patch_1">
   <path d="M 0 576 
L 1152 576 
L 1152 0 
L 0 0 
z
" style="fill:#ffffff;"/>
  </g>
  <g id="axes_1">
   <g id="patch_2">
    <path d="M 144 504 
L 1036.8 504 
L 1036.8 69.12 
L 144 69.12 
z
" style="fill:#ffffff;"/>
   </g>
   <g id="matplotlib.axis_1">
    <g id="xtick_1">
     <g id="line2d_1">
      <defs>
       <path d="M 0 0 
L 0 3.5 
" id="me38ff824b6" style="stroke:#000000;stroke-width:0.8;"/>
      </defs>
      <g>
       <use style="stroke:#000000;stroke-width:0.8;" x="182.547642" xlink:href="#me38ff824b6" y="504"/>
      </g>
     </g>
     <g id="text_1">
      <!-- 0 -->
      <defs>
       <path d="M 31.78125 66.40625 
Q 24.171875 66.40625 20.328125 58.90625 
Q 16.5 51.421875 16.5 36.375 
Q 16.5 21.390625 20.328125 13.890625 
Q 24.171875 6.390625 31.78125 6.390625 
Q 39.453125 6.390625 43.28125 13.890625 
Q 47.125 21.390625 47.125 36.375 
Q 47.125 51.421875 43.28125 58.90625 
Q 39.453125 66.40625 31.78125 66.40625 
z
M 31.78125 74.21875 
Q 44.046875 74.21875 50.515625 64.515625 
Q 56.984375 54.828125 56.984375 36.375 
Q 56.984375 17.96875 50.515625 8.265625 
Q 44.046875 -1.421875 31.78125 -1.421875 
Q 19.53125 -1.421875 13.0625 8.265625 
Q 6.59375 17.96875 6.59375 36.375 
Q 6.59375 54.828125 13.0625 64.515625 
Q 19.53125 74.21875 31.78125 74.21875 
z
" id="DejaVuSans-48"/>
      </defs>
      <g transform="translate(179.366392 518.598438)scale(0.1 -0.1)">
       <use xlink:href="#DejaVuSans-48"/>
      </g>
     </g>
    </g>
    <g id="xtick_2">
     <g id="line2d_2">
      <g>
       <use style="stroke:#000000;stroke-width:0.8;" x="284.256459" xlink:href="#me38ff824b6" y="504"/>
      </g>
     </g>
     <g id="text_2">
      <!-- 50 -->
      <defs>
       <path d="M 10.796875 72.90625 
L 49.515625 72.90625 
L 49.515625 64.59375 
L 19.828125 64.59375 
L 19.828125 46.734375 
Q 21.96875 47.46875 24.109375 47.828125 
Q 26.265625 48.1875 28.421875 48.1875 
Q 40.625 48.1875 47.75 41.5 
Q 54.890625 34.8125 54.890625 23.390625 
Q 54.890625 11.625 47.5625 5.09375 
Q 40.234375 -1.421875 26.90625 -1.421875 
Q 22.3125 -1.421875 17.546875 -0.640625 
Q 12.796875 0.140625 7.71875 1.703125 
L 7.71875 11.625 
Q 12.109375 9.234375 16.796875 8.0625 
Q 21.484375 6.890625 26.703125 6.890625 
Q 35.15625 6.890625 40.078125 11.328125 
Q 45.015625 15.765625 45.015625 23.390625 
Q 45.015625 31 40.078125 35.4375 
Q 35.15625 39.890625 26.703125 39.890625 
Q 22.75 39.890625 18.8125 39.015625 
Q 14.890625 38.140625 10.796875 36.28125 
z
" id="DejaVuSans-53"/>
      </defs>
      <g transform="translate(277.893959 518.598438)scale(0.1 -0.1)">
       <use xlink:href="#DejaVuSans-53"/>
       <use x="63.623047" xlink:href="#DejaVuSans-48"/>
      </g>
     </g>
    </g>
    <g id="xtick_3">
     <g id="line2d_3">
      <g>
       <use style="stroke:#000000;stroke-width:0.8;" x="385.965277" xlink:href="#me38ff824b6" y="504"/>
      </g>
     </g>
     <g id="text_3">
      <!-- 100 -->
      <defs>
       <path d="M 12.40625 8.296875 
L 28.515625 8.296875 
L 28.515625 63.921875 
L 10.984375 60.40625 
L 10.984375 69.390625 
L 28.421875 72.90625 
L 38.28125 72.90625 
L 38.28125 8.296875 
L 54.390625 8.296875 
L 54.390625 0 
L 12.40625 0 
z
" id="DejaVuSans-49"/>
      </defs>
      <g transform="translate(376.421527 518.598438)scale(0.1 -0.1)">
       <use xlink:href="#DejaVuSans-49"/>
       <use x="63.623047" xlink:href="#DejaVuSans-48"/>
       <use x="127.246094" xlink:href="#DejaVuSans-48"/>
      </g>
     </g>
    </g>
    <g id="xtick_4">
     <g id="line2d_4">
      <g>
       <use style="stroke:#000000;stroke-width:0.8;" x="487.674094" xlink:href="#me38ff824b6" y="504"/>
      </g>
     </g>
     <g id="text_4">
      <!-- 150 -->
      <g transform="translate(478.130344 518.598438)scale(0.1 -0.1)">
       <use xlink:href="#DejaVuSans-49"/>
       <use x="63.623047" xlink:href="#DejaVuSans-53"/>
       <use x="127.246094" xlink:href="#DejaVuSans-48"/>
      </g>
     </g>
    </g>
    <g id="xtick_5">
     <g id="line2d_5">
      <g>
       <use style="stroke:#000000;stroke-width:0.8;" x="589.382912" xlink:href="#me38ff824b6" y="504"/>
      </g>
     </g>
     <g id="text_5">
      <!-- 200 -->
      <defs>
       <path d="M 19.1875 8.296875 
L 53.609375 8.296875 
L 53.609375 0 
L 7.328125 0 
L 7.328125 8.296875 
Q 12.9375 14.109375 22.625 23.890625 
Q 32.328125 33.6875 34.8125 36.53125 
Q 39.546875 41.84375 41.421875 45.53125 
Q 43.3125 49.21875 43.3125 52.78125 
Q 43.3125 58.59375 39.234375 62.25 
Q 35.15625 65.921875 28.609375 65.921875 
Q 23.96875 65.921875 18.8125 64.3125 
Q 13.671875 62.703125 7.8125 59.421875 
L 7.8125 69.390625 
Q 13.765625 71.78125 18.9375 73 
Q 24.125 74.21875 28.421875 74.21875 
Q 39.75 74.21875 46.484375 68.546875 
Q 53.21875 62.890625 53.21875 53.421875 
Q 53.21875 48.921875 51.53125 44.890625 
Q 49.859375 40.875 45.40625 35.40625 
Q 44.1875 33.984375 37.640625 27.21875 
Q 31.109375 20.453125 19.1875 8.296875 
z
" id="DejaVuSans-50"/>
      </defs>
      <g transform="translate(579.839162 518.598438)scale(0.1 -0.1)">
       <use xlink:href="#DejaVuSans-50"/>
       <use x="63.623047" xlink:href="#DejaVuSans-48"/>
       <use x="127.246094" xlink:href="#DejaVuSans-48"/>
      </g>
     </g>
    </g>
    <g id="xtick_6">
     <g id="line2d_6">
      <g>
       <use style="stroke:#000000;stroke-width:0.8;" x="691.091729" xlink:href="#me38ff824b6" y="504"/>
      </g>
     </g>
     <g id="text_6">
      <!-- 250 -->
      <g transform="translate(681.547979 518.598438)scale(0.1 -0.1)">
       <use xlink:href="#DejaVuSans-50"/>
       <use x="63.623047" xlink:href="#DejaVuSans-53"/>
       <use x="127.246094" xlink:href="#DejaVuSans-48"/>
      </g>
     </g>
    </g>
    <g id="xtick_7">
     <g id="line2d_7">
      <g>
       <use style="stroke:#000000;stroke-width:0.8;" x="792.800547" xlink:href="#me38ff824b6" y="504"/>
      </g>
     </g>
     <g id="text_7">
      <!-- 300 -->
      <defs>
       <path d="M 40.578125 39.3125 
Q 47.65625 37.796875 51.625 33 
Q 55.609375 28.21875 55.609375 21.1875 
Q 55.609375 10.40625 48.1875 4.484375 
Q 40.765625 -1.421875 27.09375 -1.421875 
Q 22.515625 -1.421875 17.65625 -0.515625 
Q 12.796875 0.390625 7.625 2.203125 
L 7.625 11.71875 
Q 11.71875 9.328125 16.59375 8.109375 
Q 21.484375 6.890625 26.8125 6.890625 
Q 36.078125 6.890625 40.9375 10.546875 
Q 45.796875 14.203125 45.796875 21.1875 
Q 45.796875 27.640625 41.28125 31.265625 
Q 36.765625 34.90625 28.71875 34.90625 
L 20.21875 34.90625 
L 20.21875 43.015625 
L 29.109375 43.015625 
Q 36.375 43.015625 40.234375 45.921875 
Q 44.09375 48.828125 44.09375 54.296875 
Q 44.09375 59.90625 40.109375 62.90625 
Q 36.140625 65.921875 28.71875 65.921875 
Q 24.65625 65.921875 20.015625 65.03125 
Q 15.375 64.15625 9.8125 62.3125 
L 9.8125 71.09375 
Q 15.4375 72.65625 20.34375 73.4375 
Q 25.25 74.21875 29.59375 74.21875 
Q 40.828125 74.21875 47.359375 69.109375 
Q 53.90625 64.015625 53.90625 55.328125 
Q 53.90625 49.265625 50.4375 45.09375 
Q 46.96875 40.921875 40.578125 39.3125 
z
" id="DejaVuSans-51"/>
      </defs>
      <g transform="translate(783.256797 518.598438)scale(0.1 -0.1)">
       <use xlink:href="#DejaVuSans-51"/>
       <use x="63.623047" xlink:href="#DejaVuSans-48"/>
       <use x="127.246094" xlink:href="#DejaVuSans-48"/>
      </g>
     </g>
    </g>
    <g id="xtick_8">
     <g id="line2d_8">
      <g>
       <use style="stroke:#000000;stroke-width:0.8;" x="894.509364" xlink:href="#me38ff824b6" y="504"/>
      </g>
     </g>
     <g id="text_8">
      <!-- 350 -->
      <g transform="translate(884.965614 518.598438)scale(0.1 -0.1)">
       <use xlink:href="#DejaVuSans-51"/>
       <use x="63.623047" xlink:href="#DejaVuSans-53"/>
       <use x="127.246094" xlink:href="#DejaVuSans-48"/>
      </g>
     </g>
    </g>
    <g id="xtick_9">
     <g id="line2d_9">
      <g>
       <use style="stroke:#000000;stroke-width:0.8;" x="996.218182" xlink:href="#me38ff824b6" y="504"/>
      </g>
     </g>
     <g id="text_9">
      <!-- 400 -->
      <defs>
       <path d="M 37.796875 64.3125 
L 12.890625 25.390625 
L 37.796875 25.390625 
z
M 35.203125 72.90625 
L 47.609375 72.90625 
L 47.609375 25.390625 
L 58.015625 25.390625 
L 58.015625 17.1875 
L 47.609375 17.1875 
L 47.609375 0 
L 37.796875 0 
L 37.796875 17.1875 
L 4.890625 17.1875 
L 4.890625 26.703125 
z
" id="DejaVuSans-52"/>
      </defs>
      <g transform="translate(986.674432 518.598438)scale(0.1 -0.1)">
       <use xlink:href="#DejaVuSans-52"/>
       <use x="63.623047" xlink:href="#DejaVuSans-48"/>
       <use x="127.246094" xlink:href="#DejaVuSans-48"/>
      </g>
     </g>
    </g>
    <g id="text_10">
     <!-- Number of Neurons pruned -->
     <defs>
      <path d="M 9.8125 72.90625 
L 23.09375 72.90625 
L 55.421875 11.921875 
L 55.421875 72.90625 
L 64.984375 72.90625 
L 64.984375 0 
L 51.703125 0 
L 19.390625 60.984375 
L 19.390625 0 
L 9.8125 0 
z
" id="DejaVuSans-78"/>
      <path d="M 8.5 21.578125 
L 8.5 54.6875 
L 17.484375 54.6875 
L 17.484375 21.921875 
Q 17.484375 14.15625 20.5 10.265625 
Q 23.53125 6.390625 29.59375 6.390625 
Q 36.859375 6.390625 41.078125 11.03125 
Q 45.3125 15.671875 45.3125 23.6875 
L 45.3125 54.6875 
L 54.296875 54.6875 
L 54.296875 0 
L 45.3125 0 
L 45.3125 8.40625 
Q 42.046875 3.421875 37.71875 1 
Q 33.40625 -1.421875 27.6875 -1.421875 
Q 18.265625 -1.421875 13.375 4.4375 
Q 8.5 10.296875 8.5 21.578125 
z
M 31.109375 56 
z
" id="DejaVuSans-117"/>
      <path d="M 52 44.1875 
Q 55.375 50.25 60.0625 53.125 
Q 64.75 56 71.09375 56 
Q 79.640625 56 84.28125 50.015625 
Q 88.921875 44.046875 88.921875 33.015625 
L 88.921875 0 
L 79.890625 0 
L 79.890625 32.71875 
Q 79.890625 40.578125 77.09375 44.375 
Q 74.3125 48.1875 68.609375 48.1875 
Q 61.625 48.1875 57.5625 43.546875 
Q 53.515625 38.921875 53.515625 30.90625 
L 53.515625 0 
L 44.484375 0 
L 44.484375 32.71875 
Q 44.484375 40.625 41.703125 44.40625 
Q 38.921875 48.1875 33.109375 48.1875 
Q 26.21875 48.1875 22.15625 43.53125 
Q 18.109375 38.875 18.109375 30.90625 
L 18.109375 0 
L 9.078125 0 
L 9.078125 54.6875 
L 18.109375 54.6875 
L 18.109375 46.1875 
Q 21.1875 51.21875 25.484375 53.609375 
Q 29.78125 56 35.6875 56 
Q 41.65625 56 45.828125 52.96875 
Q 50 49.953125 52 44.1875 
z
" id="DejaVuSans-109"/>
      <path d="M 48.6875 27.296875 
Q 48.6875 37.203125 44.609375 42.84375 
Q 40.53125 48.484375 33.40625 48.484375 
Q 26.265625 48.484375 22.1875 42.84375 
Q 18.109375 37.203125 18.109375 27.296875 
Q 18.109375 17.390625 22.1875 11.75 
Q 26.265625 6.109375 33.40625 6.109375 
Q 40.53125 6.109375 44.609375 11.75 
Q 48.6875 17.390625 48.6875 27.296875 
z
M 18.109375 46.390625 
Q 20.953125 51.265625 25.265625 53.625 
Q 29.59375 56 35.59375 56 
Q 45.5625 56 51.78125 48.09375 
Q 58.015625 40.1875 58.015625 27.296875 
Q 58.015625 14.40625 51.78125 6.484375 
Q 45.5625 -1.421875 35.59375 -1.421875 
Q 29.59375 -1.421875 25.265625 0.953125 
Q 20.953125 3.328125 18.109375 8.203125 
L 18.109375 0 
L 9.078125 0 
L 9.078125 75.984375 
L 18.109375 75.984375 
z
" id="DejaVuSans-98"/>
      <path d="M 56.203125 29.59375 
L 56.203125 25.203125 
L 14.890625 25.203125 
Q 15.484375 15.921875 20.484375 11.0625 
Q 25.484375 6.203125 34.421875 6.203125 
Q 39.59375 6.203125 44.453125 7.46875 
Q 49.3125 8.734375 54.109375 11.28125 
L 54.109375 2.78125 
Q 49.265625 0.734375 44.1875 -0.34375 
Q 39.109375 -1.421875 33.890625 -1.421875 
Q 20.796875 -1.421875 13.15625 6.1875 
Q 5.515625 13.8125 5.515625 26.8125 
Q 5.515625 40.234375 12.765625 48.109375 
Q 20.015625 56 32.328125 56 
Q 43.359375 56 49.78125 48.890625 
Q 56.203125 41.796875 56.203125 29.59375 
z
M 47.21875 32.234375 
Q 47.125 39.59375 43.09375 43.984375 
Q 39.0625 48.390625 32.421875 48.390625 
Q 24.90625 48.390625 20.390625 44.140625 
Q 15.875 39.890625 15.1875 32.171875 
z
" id="DejaVuSans-101"/>
      <path d="M 41.109375 46.296875 
Q 39.59375 47.171875 37.8125 47.578125 
Q 36.03125 48 33.890625 48 
Q 26.265625 48 22.1875 43.046875 
Q 18.109375 38.09375 18.109375 28.8125 
L 18.109375 0 
L 9.078125 0 
L 9.078125 54.6875 
L 18.109375 54.6875 
L 18.109375 46.1875 
Q 20.953125 51.171875 25.484375 53.578125 
Q 30.03125 56 36.53125 56 
Q 37.453125 56 38.578125 55.875 
Q 39.703125 55.765625 41.0625 55.515625 
z
" id="DejaVuSans-114"/>
      <path id="DejaVuSans-32"/>
      <path d="M 30.609375 48.390625 
Q 23.390625 48.390625 19.1875 42.75 
Q 14.984375 37.109375 14.984375 27.296875 
Q 14.984375 17.484375 19.15625 11.84375 
Q 23.34375 6.203125 30.609375 6.203125 
Q 37.796875 6.203125 41.984375 11.859375 
Q 46.1875 17.53125 46.1875 27.296875 
Q 46.1875 37.015625 41.984375 42.703125 
Q 37.796875 48.390625 30.609375 48.390625 
z
M 30.609375 56 
Q 42.328125 56 49.015625 48.375 
Q 55.71875 40.765625 55.71875 27.296875 
Q 55.71875 13.875 49.015625 6.21875 
Q 42.328125 -1.421875 30.609375 -1.421875 
Q 18.84375 -1.421875 12.171875 6.21875 
Q 5.515625 13.875 5.515625 27.296875 
Q 5.515625 40.765625 12.171875 48.375 
Q 18.84375 56 30.609375 56 
z
" id="DejaVuSans-111"/>
      <path d="M 37.109375 75.984375 
L 37.109375 68.5 
L 28.515625 68.5 
Q 23.6875 68.5 21.796875 66.546875 
Q 19.921875 64.59375 19.921875 59.515625 
L 19.921875 54.6875 
L 34.71875 54.6875 
L 34.71875 47.703125 
L 19.921875 47.703125 
L 19.921875 0 
L 10.890625 0 
L 10.890625 47.703125 
L 2.296875 47.703125 
L 2.296875 54.6875 
L 10.890625 54.6875 
L 10.890625 58.5 
Q 10.890625 67.625 15.140625 71.796875 
Q 19.390625 75.984375 28.609375 75.984375 
z
" id="DejaVuSans-102"/>
      <path d="M 54.890625 33.015625 
L 54.890625 0 
L 45.90625 0 
L 45.90625 32.71875 
Q 45.90625 40.484375 42.875 44.328125 
Q 39.84375 48.1875 33.796875 48.1875 
Q 26.515625 48.1875 22.3125 43.546875 
Q 18.109375 38.921875 18.109375 30.90625 
L 18.109375 0 
L 9.078125 0 
L 9.078125 54.6875 
L 18.109375 54.6875 
L 18.109375 46.1875 
Q 21.34375 51.125 25.703125 53.5625 
Q 30.078125 56 35.796875 56 
Q 45.21875 56 50.046875 50.171875 
Q 54.890625 44.34375 54.890625 33.015625 
z
" id="DejaVuSans-110"/>
      <path d="M 44.28125 53.078125 
L 44.28125 44.578125 
Q 40.484375 46.53125 36.375 47.5 
Q 32.28125 48.484375 27.875 48.484375 
Q 21.1875 48.484375 17.84375 46.4375 
Q 14.5 44.390625 14.5 40.28125 
Q 14.5 37.15625 16.890625 35.375 
Q 19.28125 33.59375 26.515625 31.984375 
L 29.59375 31.296875 
Q 39.15625 29.25 43.1875 25.515625 
Q 47.21875 21.78125 47.21875 15.09375 
Q 47.21875 7.46875 41.1875 3.015625 
Q 35.15625 -1.421875 24.609375 -1.421875 
Q 20.21875 -1.421875 15.453125 -0.5625 
Q 10.6875 0.296875 5.421875 2 
L 5.421875 11.28125 
Q 10.40625 8.6875 15.234375 7.390625 
Q 20.0625 6.109375 24.8125 6.109375 
Q 31.15625 6.109375 34.5625 8.28125 
Q 37.984375 10.453125 37.984375 14.40625 
Q 37.984375 18.0625 35.515625 20.015625 
Q 33.0625 21.96875 24.703125 23.78125 
L 21.578125 24.515625 
Q 13.234375 26.265625 9.515625 29.90625 
Q 5.8125 33.546875 5.8125 39.890625 
Q 5.8125 47.609375 11.28125 51.796875 
Q 16.75 56 26.8125 56 
Q 31.78125 56 36.171875 55.265625 
Q 40.578125 54.546875 44.28125 53.078125 
z
" id="DejaVuSans-115"/>
      <path d="M 18.109375 8.203125 
L 18.109375 -20.796875 
L 9.078125 -20.796875 
L 9.078125 54.6875 
L 18.109375 54.6875 
L 18.109375 46.390625 
Q 20.953125 51.265625 25.265625 53.625 
Q 29.59375 56 35.59375 56 
Q 45.5625 56 51.78125 48.09375 
Q 58.015625 40.1875 58.015625 27.296875 
Q 58.015625 14.40625 51.78125 6.484375 
Q 45.5625 -1.421875 35.59375 -1.421875 
Q 29.59375 -1.421875 25.265625 0.953125 
Q 20.953125 3.328125 18.109375 8.203125 
z
M 48.6875 27.296875 
Q 48.6875 37.203125 44.609375 42.84375 
Q 40.53125 48.484375 33.40625 48.484375 
Q 26.265625 48.484375 22.1875 42.84375 
Q 18.109375 37.203125 18.109375 27.296875 
Q 18.109375 17.390625 22.1875 11.75 
Q 26.265625 6.109375 33.40625 6.109375 
Q 40.53125 6.109375 44.609375 11.75 
Q 48.6875 17.390625 48.6875 27.296875 
z
" id="DejaVuSans-112"/>
      <path d="M 45.40625 46.390625 
L 45.40625 75.984375 
L 54.390625 75.984375 
L 54.390625 0 
L 45.40625 0 
L 45.40625 8.203125 
Q 42.578125 3.328125 38.25 0.953125 
Q 33.9375 -1.421875 27.875 -1.421875 
Q 17.96875 -1.421875 11.734375 6.484375 
Q 5.515625 14.40625 5.515625 27.296875 
Q 5.515625 40.1875 11.734375 48.09375 
Q 17.96875 56 27.875 56 
Q 33.9375 56 38.25 53.625 
Q 42.578125 51.265625 45.40625 46.390625 
z
M 14.796875 27.296875 
Q 14.796875 17.390625 18.875 11.75 
Q 22.953125 6.109375 30.078125 6.109375 
Q 37.203125 6.109375 41.296875 11.75 
Q 45.40625 17.390625 45.40625 27.296875 
Q 45.40625 37.203125 41.296875 42.84375 
Q 37.203125 48.484375 30.078125 48.484375 
Q 22.953125 48.484375 18.875 42.84375 
Q 14.796875 37.203125 14.796875 27.296875 
z
" id="DejaVuSans-100"/>
     </defs>
     <g transform="translate(522.147656 532.276562)scale(0.1 -0.1)">
      <use xlink:href="#DejaVuSans-78"/>
      <use x="74.804688" xlink:href="#DejaVuSans-117"/>
      <use x="138.183594" xlink:href="#DejaVuSans-109"/>
      <use x="235.595703" xlink:href="#DejaVuSans-98"/>
      <use x="299.072266" xlink:href="#DejaVuSans-101"/>
      <use x="360.595703" xlink:href="#DejaVuSans-114"/>
      <use x="401.708984" xlink:href="#DejaVuSans-32"/>
      <use x="433.496094" xlink:href="#DejaVuSans-111"/>
      <use x="494.677734" xlink:href="#DejaVuSans-102"/>
      <use x="529.882812" xlink:href="#DejaVuSans-32"/>
      <use x="561.669922" xlink:href="#DejaVuSans-78"/>
      <use x="636.474609" xlink:href="#DejaVuSans-101"/>
      <use x="697.998047" xlink:href="#DejaVuSans-117"/>
      <use x="761.376953" xlink:href="#DejaVuSans-114"/>
      <use x="800.240234" xlink:href="#DejaVuSans-111"/>
      <use x="861.421875" xlink:href="#DejaVuSans-110"/>
      <use x="924.800781" xlink:href="#DejaVuSans-115"/>
      <use x="976.900391" xlink:href="#DejaVuSans-32"/>
      <use x="1008.6875" xlink:href="#DejaVuSans-112"/>
      <use x="1072.164062" xlink:href="#DejaVuSans-114"/>
      <use x="1113.277344" xlink:href="#DejaVuSans-117"/>
      <use x="1176.65625" xlink:href="#DejaVuSans-110"/>
      <use x="1240.035156" xlink:href="#DejaVuSans-101"/>
      <use x="1301.558594" xlink:href="#DejaVuSans-100"/>
     </g>
    </g>
   </g>
   <g id="matplotlib.axis_2">
    <g id="ytick_1">
     <g id="line2d_10">
      <defs>
       <path d="M 0 0 
L -3.5 0 
" id="mea0b4d303f" style="stroke:#000000;stroke-width:0.8;"/>
      </defs>
      <g>
       <use style="stroke:#000000;stroke-width:0.8;" x="144" xlink:href="#mea0b4d303f" y="490.288754"/>
      </g>
     </g>
     <g id="text_11">
      <!-- 0.0 -->
      <defs>
       <path d="M 10.6875 12.40625 
L 21 12.40625 
L 21 0 
L 10.6875 0 
z
" id="DejaVuSans-46"/>
      </defs>
      <g transform="translate(121.096875 494.087973)scale(0.1 -0.1)">
       <use xlink:href="#DejaVuSans-48"/>
       <use x="63.623047" xlink:href="#DejaVuSans-46"/>
       <use x="95.410156" xlink:href="#DejaVuSans-48"/>
      </g>
     </g>
    </g>
    <g id="ytick_2">
     <g id="line2d_11">
      <g>
       <use style="stroke:#000000;stroke-width:0.8;" x="144" xlink:href="#mea0b4d303f" y="414.927229"/>
      </g>
     </g>
     <g id="text_12">
      <!-- 0.2 -->
      <g transform="translate(121.096875 418.726447)scale(0.1 -0.1)">
       <use xlink:href="#DejaVuSans-48"/>
       <use x="63.623047" xlink:href="#DejaVuSans-46"/>
       <use x="95.410156" xlink:href="#DejaVuSans-50"/>
      </g>
     </g>
    </g>
    <g id="ytick_3">
     <g id="line2d_12">
      <g>
       <use style="stroke:#000000;stroke-width:0.8;" x="144" xlink:href="#mea0b4d303f" y="339.565703"/>
      </g>
     </g>
     <g id="text_13">
      <!-- 0.4 -->
      <g transform="translate(121.096875 343.364922)scale(0.1 -0.1)">
       <use xlink:href="#DejaVuSans-48"/>
       <use x="63.623047" xlink:href="#DejaVuSans-46"/>
       <use x="95.410156" xlink:href="#DejaVuSans-52"/>
      </g>
     </g>
    </g>
    <g id="ytick_4">
     <g id="line2d_13">
      <g>
       <use style="stroke:#000000;stroke-width:0.8;" x="144" xlink:href="#mea0b4d303f" y="264.204178"/>
      </g>
     </g>
     <g id="text_14">
      <!-- 0.6 -->
      <defs>
       <path d="M 33.015625 40.375 
Q 26.375 40.375 22.484375 35.828125 
Q 18.609375 31.296875 18.609375 23.390625 
Q 18.609375 15.53125 22.484375 10.953125 
Q 26.375 6.390625 33.015625 6.390625 
Q 39.65625 6.390625 43.53125 10.953125 
Q 47.40625 15.53125 47.40625 23.390625 
Q 47.40625 31.296875 43.53125 35.828125 
Q 39.65625 40.375 33.015625 40.375 
z
M 52.59375 71.296875 
L 52.59375 62.3125 
Q 48.875 64.0625 45.09375 64.984375 
Q 41.3125 65.921875 37.59375 65.921875 
Q 27.828125 65.921875 22.671875 59.328125 
Q 17.53125 52.734375 16.796875 39.40625 
Q 19.671875 43.65625 24.015625 45.921875 
Q 28.375 48.1875 33.59375 48.1875 
Q 44.578125 48.1875 50.953125 41.515625 
Q 57.328125 34.859375 57.328125 23.390625 
Q 57.328125 12.15625 50.6875 5.359375 
Q 44.046875 -1.421875 33.015625 -1.421875 
Q 20.359375 -1.421875 13.671875 8.265625 
Q 6.984375 17.96875 6.984375 36.375 
Q 6.984375 53.65625 15.1875 63.9375 
Q 23.390625 74.21875 37.203125 74.21875 
Q 40.921875 74.21875 44.703125 73.484375 
Q 48.484375 72.75 52.59375 71.296875 
z
" id="DejaVuSans-54"/>
      </defs>
      <g transform="translate(121.096875 268.003397)scale(0.1 -0.1)">
       <use xlink:href="#DejaVuSans-48"/>
       <use x="63.623047" xlink:href="#DejaVuSans-46"/>
       <use x="95.410156" xlink:href="#DejaVuSans-54"/>
      </g>
     </g>
    </g>
    <g id="ytick_5">
     <g id="line2d_14">
      <g>
       <use style="stroke:#000000;stroke-width:0.8;" x="144" xlink:href="#mea0b4d303f" y="188.842653"/>
      </g>
     </g>
     <g id="text_15">
      <!-- 0.8 -->
      <defs>
       <path d="M 31.78125 34.625 
Q 24.75 34.625 20.71875 30.859375 
Q 16.703125 27.09375 16.703125 20.515625 
Q 16.703125 13.921875 20.71875 10.15625 
Q 24.75 6.390625 31.78125 6.390625 
Q 38.8125 6.390625 42.859375 10.171875 
Q 46.921875 13.96875 46.921875 20.515625 
Q 46.921875 27.09375 42.890625 30.859375 
Q 38.875 34.625 31.78125 34.625 
z
M 21.921875 38.8125 
Q 15.578125 40.375 12.03125 44.71875 
Q 8.5 49.078125 8.5 55.328125 
Q 8.5 64.0625 14.71875 69.140625 
Q 20.953125 74.21875 31.78125 74.21875 
Q 42.671875 74.21875 48.875 69.140625 
Q 55.078125 64.0625 55.078125 55.328125 
Q 55.078125 49.078125 51.53125 44.71875 
Q 48 40.375 41.703125 38.8125 
Q 48.828125 37.15625 52.796875 32.3125 
Q 56.78125 27.484375 56.78125 20.515625 
Q 56.78125 9.90625 50.3125 4.234375 
Q 43.84375 -1.421875 31.78125 -1.421875 
Q 19.734375 -1.421875 13.25 4.234375 
Q 6.78125 9.90625 6.78125 20.515625 
Q 6.78125 27.484375 10.78125 32.3125 
Q 14.796875 37.15625 21.921875 38.8125 
z
M 18.3125 54.390625 
Q 18.3125 48.734375 21.84375 45.5625 
Q 25.390625 42.390625 31.78125 42.390625 
Q 38.140625 42.390625 41.71875 45.5625 
Q 45.3125 48.734375 45.3125 54.390625 
Q 45.3125 60.0625 41.71875 63.234375 
Q 38.140625 66.40625 31.78125 66.40625 
Q 25.390625 66.40625 21.84375 63.234375 
Q 18.3125 60.0625 18.3125 54.390625 
z
" id="DejaVuSans-56"/>
      </defs>
      <g transform="translate(121.096875 192.641871)scale(0.1 -0.1)">
       <use xlink:href="#DejaVuSans-48"/>
       <use x="63.623047" xlink:href="#DejaVuSans-46"/>
       <use x="95.410156" xlink:href="#DejaVuSans-56"/>
      </g>
     </g>
    </g>
    <g id="ytick_6">
     <g id="line2d_15">
      <g>
       <use style="stroke:#000000;stroke-width:0.8;" x="144" xlink:href="#mea0b4d303f" y="113.481127"/>
      </g>
     </g>
     <g id="text_16">
      <!-- 1.0 -->
      <g transform="translate(121.096875 117.280346)scale(0.1 -0.1)">
       <use xlink:href="#DejaVuSans-49"/>
       <use x="63.623047" xlink:href="#DejaVuSans-46"/>
       <use x="95.410156" xlink:href="#DejaVuSans-48"/>
      </g>
     </g>
    </g>
    <g id="text_17">
     <!-- Loss -->
     <defs>
      <path d="M 9.8125 72.90625 
L 19.671875 72.90625 
L 19.671875 8.296875 
L 55.171875 8.296875 
L 55.171875 0 
L 9.8125 0 
z
" id="DejaVuSans-76"/>
     </defs>
     <g transform="translate(115.017187 297.527188)rotate(-90)scale(0.1 -0.1)">
      <use xlink:href="#DejaVuSans-76"/>
      <use x="53.962891" xlink:href="#DejaVuSans-111"/>
      <use x="115.144531" xlink:href="#DejaVuSans-115"/>
      <use x="167.244141" xlink:href="#DejaVuSans-115"/>
     </g>
    </g>
   </g>
   <g id="line2d_16">
    <path clip-path="url(#p812c8e6933)" d="M 184.581818 484.232727 
L 463.263978 484.144763 
L 471.400684 483.931212 
L 473.43486 483.945151 
L 475.469036 482.935318 
L 479.537389 482.768518 
L 481.571565 481.982957 
L 483.605742 482.025589 
L 485.639918 481.907971 
L 487.674094 481.661582 
L 491.742447 481.530767 
L 495.8108 481.271677 
L 497.844976 481.258378 
L 499.879152 480.991361 
L 503.947505 480.708117 
L 505.981681 480.481796 
L 508.015858 479.910715 
L 510.050034 479.912571 
L 512.084211 479.329905 
L 514.118387 479.298797 
L 518.18674 478.792359 
L 522.255092 478.225758 
L 526.323445 478.264041 
L 528.357621 477.144297 
L 530.391798 477.335958 
L 534.46015 477.253057 
L 536.494327 477.435667 
L 538.528503 477.466689 
L 540.562679 477.157106 
L 542.596856 477.102903 
L 544.631032 475.618221 
L 546.665208 475.571211 
L 548.699385 476.810215 
L 550.733561 477.210874 
L 552.767738 477.117691 
L 554.801914 477.301203 
L 556.83609 476.247734 
L 558.870267 476.058542 
L 560.904443 475.69142 
L 564.972796 475.443529 
L 569.041148 474.181132 
L 571.075325 474.190896 
L 573.109501 473.584107 
L 577.177854 473.207818 
L 579.21203 473.601019 
L 581.246206 473.218458 
L 583.280383 472.989426 
L 589.382912 472.688 
L 603.622146 471.864198 
L 605.656323 471.250708 
L 607.690499 471.005414 
L 611.758852 469.494876 
L 613.793028 469.376547 
L 615.827204 469.447155 
L 617.861381 469.091647 
L 619.895557 469.129043 
L 621.929733 464.80969 
L 623.96391 464.623377 
L 625.998086 463.748561 
L 628.032262 463.030991 
L 630.066439 462.642762 
L 632.100615 462.51857 
L 634.134792 462.112965 
L 636.168968 460.488521 
L 638.203144 460.172502 
L 640.237321 460.132261 
L 642.271497 459.634396 
L 644.305673 459.451603 
L 646.33985 459.034663 
L 648.374026 457.846514 
L 650.408202 456.517651 
L 652.442379 456.347035 
L 654.476555 455.483024 
L 658.544908 454.048362 
L 660.579084 453.697952 
L 662.61326 453.805893 
L 664.647437 453.050555 
L 666.681613 453.112897 
L 668.715789 453.024412 
L 670.749966 452.514262 
L 672.784142 451.223392 
L 674.818319 451.17628 
L 676.852495 450.055552 
L 678.886671 449.498346 
L 680.920848 449.185564 
L 682.955024 447.173099 
L 684.9892 447.183371 
L 687.023377 445.343044 
L 691.091729 445.074263 
L 693.125906 445.727713 
L 695.160082 443.516697 
L 697.194258 441.008338 
L 699.228435 440.411101 
L 701.262611 442.667162 
L 703.296787 442.047898 
L 705.330964 439.372597 
L 707.36514 439.575625 
L 709.399316 437.070247 
L 711.433493 435.505843 
L 713.467669 435.251107 
L 715.501846 436.086055 
L 717.536022 435.389508 
L 719.570198 435.169518 
L 721.604375 434.790227 
L 723.638551 433.912337 
L 725.672727 432.758082 
L 727.706904 432.135443 
L 729.74108 427.816737 
L 731.775256 426.449825 
L 733.809433 410.937772 
L 735.843609 410.105957 
L 737.877785 409.826106 
L 739.911962 410.122919 
L 741.946138 408.573192 
L 743.980314 405.540129 
L 746.014491 405.152983 
L 748.048667 394.650563 
L 750.082843 391.369154 
L 752.11702 386.85226 
L 754.151196 387.090858 
L 756.185373 383.441248 
L 760.253725 383.794356 
L 762.287902 384.413946 
L 764.322078 382.522745 
L 766.356254 377.465464 
L 768.390431 376.28341 
L 770.424607 375.603067 
L 772.458783 372.10489 
L 774.49296 365.514379 
L 778.561312 361.080675 
L 780.595489 358.39324 
L 782.629665 354.081828 
L 784.663841 355.080578 
L 786.698018 355.182477 
L 788.732194 349.493546 
L 790.76637 349.608482 
L 792.800547 349.441855 
L 794.834723 350.301492 
L 798.903076 350.961374 
L 800.937252 350.026139 
L 802.971429 349.631638 
L 805.005605 350.505918 
L 807.039781 348.862232 
L 809.073958 347.657719 
L 811.108134 347.558571 
L 813.14231 345.767439 
L 815.176487 346.192866 
L 817.210663 343.062553 
L 819.244839 340.422036 
L 821.279016 341.283998 
L 823.313192 340.989363 
L 825.347368 339.854642 
L 827.381545 336.037922 
L 829.415721 335.4163 
L 831.449897 323.200058 
L 833.484074 322.927086 
L 837.552427 318.8454 
L 839.586603 323.31002 
L 841.620779 322.804457 
L 843.654956 319.90889 
L 845.689132 321.451924 
L 847.723308 323.383923 
L 849.757485 317.35975 
L 851.791661 303.250792 
L 853.825837 302.02401 
L 855.860014 305.126035 
L 857.89419 302.125684 
L 859.928366 301.619739 
L 861.962543 301.316693 
L 863.996719 291.646403 
L 866.030895 291.596632 
L 868.065072 285.207493 
L 870.099248 281.634189 
L 872.133424 274.038908 
L 874.167601 270.071462 
L 876.201777 271.580021 
L 878.235954 262.533138 
L 880.27013 268.820671 
L 882.304306 264.341486 
L 884.338483 263.738247 
L 886.372659 256.942546 
L 888.406835 248.22164 
L 890.441012 247.008244 
L 892.475188 247.387495 
L 894.509364 247.075016 
L 896.543541 245.473251 
L 898.577717 241.073842 
L 900.611893 237.945977 
L 902.64607 238.514449 
L 906.714422 236.223267 
L 908.748599 237.519157 
L 910.782775 235.341171 
L 912.816951 236.163907 
L 914.851128 235.209176 
L 916.885304 234.856922 
L 918.919481 231.370379 
L 920.953657 230.795573 
L 922.987833 237.432935 
L 925.02201 236.707314 
L 927.056186 235.766239 
L 929.090362 235.287403 
L 931.124539 227.951326 
L 933.158715 226.680075 
L 935.192891 223.572782 
L 937.227068 227.564058 
L 939.261244 225.872768 
L 941.29542 225.703985 
L 943.329597 224.128048 
L 945.363773 224.973581 
L 947.397949 216.948739 
L 949.432126 211.513926 
L 953.500478 210.325078 
L 955.534655 210.569796 
L 957.568831 205.406855 
L 959.603008 195.055413 
L 961.637184 195.707435 
L 965.705537 189.70927 
L 967.739713 190.679654 
L 969.773889 189.719848 
L 973.842242 171.407507 
L 975.876418 164.623283 
L 977.910595 159.613538 
L 979.944771 155.9729 
L 981.978947 155.538129 
L 984.013124 154.502253 
L 986.0473 143.080976 
L 988.081476 146.072467 
L 990.115653 145.726277 
L 992.149829 139.57011 
L 994.184005 140.232822 
L 996.218182 135.677791 
L 996.218182 135.677791 
" style="fill:none;stroke:#1f77b4;stroke-linecap:square;stroke-width:1.5;"/>
   </g>
   <g id="line2d_17">
    <path clip-path="url(#p812c8e6933)" d="M 184.581818 484.232727 
L 475.469036 484.145493 
L 487.674094 483.992421 
L 489.708271 483.542891 
L 505.981681 483.337531 
L 510.050034 483.209789 
L 520.220916 483.108715 
L 522.255092 482.964204 
L 528.357621 482.912879 
L 538.528503 482.508879 
L 542.596856 482.432821 
L 544.631032 482.226976 
L 552.767738 482.275352 
L 556.83609 482.050633 
L 564.972796 481.551209 
L 567.006972 481.32023 
L 569.041148 481.251674 
L 571.075325 480.993294 
L 585.314559 480.356502 
L 595.485441 480.331143 
L 597.519617 480.189805 
L 599.553794 479.896442 
L 605.656323 479.676892 
L 607.690499 479.527419 
L 619.895557 479.469881 
L 621.929733 479.488622 
L 623.96391 479.084651 
L 625.998086 479.17458 
L 628.032262 478.935779 
L 632.100615 478.854635 
L 634.134792 478.974465 
L 636.168968 478.858573 
L 638.203144 478.881666 
L 644.305673 478.479171 
L 646.33985 478.479672 
L 656.510731 477.993306 
L 660.579084 477.328855 
L 662.61326 477.161723 
L 664.647437 477.272764 
L 666.681613 477.164174 
L 674.818319 476.130313 
L 676.852495 475.506223 
L 678.886671 475.457764 
L 680.920848 474.80435 
L 682.955024 475.06304 
L 684.9892 474.770379 
L 687.023377 474.699299 
L 689.057553 473.94667 
L 691.091729 473.648605 
L 693.125906 473.660295 
L 695.160082 473.076678 
L 697.194258 472.875388 
L 699.228435 472.393699 
L 701.262611 472.115662 
L 703.296787 471.697974 
L 707.36514 471.591456 
L 711.433493 470.724176 
L 713.467669 470.139143 
L 715.501846 470.308591 
L 717.536022 470.29432 
L 719.570198 470.487258 
L 721.604375 470.327624 
L 723.638551 469.814508 
L 727.706904 469.569264 
L 731.775256 468.76387 
L 733.809433 468.054549 
L 735.843609 467.663077 
L 737.877785 468.22 
L 743.980314 467.918307 
L 748.048667 466.874132 
L 750.082843 466.942774 
L 752.11702 466.294582 
L 754.151196 465.858191 
L 756.185373 466.136113 
L 760.253725 466.010351 
L 762.287902 465.409319 
L 764.322078 464.053476 
L 768.390431 463.098384 
L 770.424607 462.197831 
L 772.458783 461.883356 
L 774.49296 461.362395 
L 776.527136 462.117988 
L 778.561312 462.441219 
L 780.595489 462.373945 
L 782.629665 461.284483 
L 786.698018 461.096258 
L 788.732194 460.674026 
L 792.800547 460.683677 
L 794.834723 460.057684 
L 798.903076 459.696252 
L 800.937252 458.9848 
L 802.971429 459.278497 
L 807.039781 458.859162 
L 809.073958 458.209844 
L 811.108134 457.863592 
L 813.14231 457.754363 
L 815.176487 456.843457 
L 817.210663 454.998357 
L 819.244839 454.692172 
L 823.313192 453.875438 
L 825.347368 452.669614 
L 829.415721 451.500135 
L 833.484074 450.060344 
L 835.51825 449.923546 
L 837.552427 449.444724 
L 839.586603 449.630057 
L 841.620779 449.377065 
L 843.654956 448.057977 
L 845.689132 447.359661 
L 847.723308 446.434597 
L 849.757485 443.877397 
L 853.825837 442.803856 
L 855.860014 441.030253 
L 857.89419 438.7245 
L 859.928366 438.097746 
L 861.962543 436.784517 
L 863.996719 436.428445 
L 866.030895 435.861708 
L 868.065072 432.43553 
L 870.099248 431.861336 
L 874.167601 431.238597 
L 876.201777 431.451367 
L 878.235954 431.034569 
L 880.27013 429.405364 
L 882.304306 429.103581 
L 884.338483 429.101689 
L 886.372659 428.393446 
L 888.406835 426.407051 
L 890.441012 426.487197 
L 892.475188 424.352468 
L 894.509364 422.021454 
L 896.543541 417.941156 
L 898.577717 417.675707 
L 900.611893 412.561295 
L 902.64607 410.678179 
L 904.680246 409.464042 
L 906.714422 408.857249 
L 908.748599 406.879826 
L 910.782775 406.412219 
L 912.816951 405.508809 
L 916.885304 401.898806 
L 918.919481 402.667572 
L 920.953657 399.871972 
L 922.987833 395.921501 
L 925.02201 394.930824 
L 927.056186 392.942059 
L 931.124539 391.30803 
L 933.158715 389.298962 
L 935.192891 388.393261 
L 937.227068 386.426147 
L 939.261244 386.267201 
L 941.29542 382.52937 
L 943.329597 384.270474 
L 945.363773 382.479982 
L 947.397949 378.165021 
L 953.500478 376.961293 
L 955.534655 375.415126 
L 957.568831 375.119402 
L 959.603008 371.292508 
L 961.637184 368.203891 
L 963.67136 359.858766 
L 965.705537 361.899502 
L 967.739713 362.204412 
L 969.773889 357.34199 
L 971.808066 356.332492 
L 973.842242 358.464863 
L 975.876418 360.215546 
L 977.910595 358.937871 
L 979.944771 356.34343 
L 981.978947 349.604765 
L 984.013124 349.802566 
L 986.0473 347.799663 
L 988.081476 346.352935 
L 990.115653 344.44882 
L 992.149829 341.92105 
L 994.184005 339.151806 
L 996.218182 339.728296 
L 996.218182 339.728296 
" style="fill:none;stroke:#ff7f0e;stroke-linecap:square;stroke-width:1.5;"/>
   </g>
   <g id="line2d_18">
    <path clip-path="url(#p812c8e6933)" d="M 184.581818 484.232727 
L 477.503213 484.125861 
L 508.015858 483.866599 
L 514.118387 483.826227 
L 550.733561 483.406424 
L 554.801914 483.365367 
L 558.870267 483.289251 
L 562.938619 483.208455 
L 571.075325 483.11477 
L 575.143677 482.938532 
L 581.246206 482.819449 
L 585.314559 482.645938 
L 591.417088 482.431946 
L 593.451265 482.43343 
L 601.58797 482.092483 
L 615.827204 481.49162 
L 617.861381 481.487438 
L 619.895557 481.321871 
L 630.066439 481.233032 
L 632.100615 481.28963 
L 634.134792 481.10816 
L 638.203144 481.105485 
L 650.408202 480.083959 
L 652.442379 479.759908 
L 654.476555 479.669855 
L 656.510731 479.350023 
L 664.647437 478.739459 
L 676.852495 478.612318 
L 691.091729 477.352854 
L 693.125906 477.153757 
L 697.194258 476.932779 
L 699.228435 476.850454 
L 701.262611 476.457942 
L 705.330964 476.268147 
L 709.399316 475.796078 
L 711.433493 475.974246 
L 713.467669 475.571019 
L 715.501846 475.42612 
L 717.536022 474.866154 
L 719.570198 474.945325 
L 721.604375 474.471217 
L 727.706904 474.419727 
L 729.74108 474.695431 
L 733.809433 474.532119 
L 735.843609 474.161821 
L 741.946138 473.569462 
L 743.980314 473.833638 
L 746.014491 473.731215 
L 748.048667 473.368787 
L 750.082843 473.287957 
L 756.185373 472.733188 
L 758.219549 472.134924 
L 770.424607 469.608618 
L 776.527136 469.261842 
L 778.561312 468.841222 
L 780.595489 468.895363 
L 782.629665 468.174449 
L 784.663841 467.129537 
L 786.698018 466.73565 
L 790.76637 466.391601 
L 792.800547 465.437904 
L 794.834723 465.216574 
L 796.8689 464.810594 
L 798.903076 464.605073 
L 800.937252 463.606653 
L 802.971429 463.296019 
L 805.005605 462.394731 
L 807.039781 460.916824 
L 809.073958 460.284915 
L 811.108134 459.377291 
L 813.14231 458.076743 
L 815.176487 457.277261 
L 817.210663 457.521565 
L 819.244839 457.070432 
L 821.279016 456.290964 
L 823.313192 455.880439 
L 825.347368 455.752627 
L 827.381545 455.925919 
L 829.415721 456.40884 
L 831.449897 456.63702 
L 833.484074 455.690148 
L 835.51825 455.78534 
L 837.552427 454.511629 
L 839.586603 454.014224 
L 841.620779 454.298249 
L 843.654956 454.392692 
L 847.723308 454.030384 
L 851.791661 453.34837 
L 853.825837 453.096173 
L 855.860014 451.564167 
L 857.89419 450.549439 
L 859.928366 450.391012 
L 861.962543 450.694476 
L 866.030895 447.502574 
L 868.065072 447.071739 
L 870.099248 446.269433 
L 872.133424 445.134454 
L 874.167601 443.149558 
L 876.201777 442.454246 
L 878.235954 441.624637 
L 880.27013 441.275347 
L 882.304306 440.507755 
L 884.338483 440.371724 
L 886.372659 439.925325 
L 888.406835 438.871189 
L 890.441012 438.838145 
L 892.475188 438.109863 
L 894.509364 433.497162 
L 896.543541 432.636245 
L 898.577717 430.052921 
L 900.611893 428.763887 
L 902.64607 427.664692 
L 904.680246 425.809937 
L 906.714422 424.731174 
L 908.748599 419.660384 
L 910.782775 419.611591 
L 912.816951 415.755556 
L 914.851128 415.67117 
L 916.885304 413.724831 
L 918.919481 412.179955 
L 920.953657 413.134388 
L 922.987833 409.676071 
L 925.02201 407.681006 
L 927.056186 405.4396 
L 929.090362 403.431031 
L 931.124539 403.373574 
L 933.158715 403.022842 
L 935.192891 402.218478 
L 937.227068 400.386289 
L 939.261244 396.591607 
L 941.29542 395.04923 
L 943.329597 394.835978 
L 945.363773 383.925362 
L 947.397949 381.499805 
L 951.466302 378.683262 
L 953.500478 379.020929 
L 955.534655 378.987465 
L 957.568831 376.775194 
L 959.603008 371.908752 
L 961.637184 371.903305 
L 963.67136 371.159919 
L 965.705537 368.176187 
L 967.739713 367.662438 
L 969.773889 365.97856 
L 971.808066 365.404406 
L 973.842242 363.585154 
L 975.876418 359.581044 
L 977.910595 357.530279 
L 979.944771 365.209817 
L 981.978947 358.551669 
L 984.013124 358.043973 
L 988.081476 350.642348 
L 990.115653 349.374668 
L 992.149829 349.110398 
L 994.184005 346.484671 
L 996.218182 341.386491 
L 996.218182 341.386491 
" style="fill:none;stroke:#2ca02c;stroke-linecap:square;stroke-width:1.5;"/>
   </g>
   <g id="line2d_19">
    <path clip-path="url(#p812c8e6933)" d="M 184.581818 484.232727 
L 477.503213 484.127673 
L 495.8108 483.905825 
L 497.844976 483.454984 
L 528.357621 482.861925 
L 532.425974 482.787883 
L 542.596856 482.655862 
L 556.83609 482.186754 
L 558.870267 481.991101 
L 564.972796 481.718808 
L 569.041148 481.50686 
L 581.246206 480.486702 
L 589.382912 480.299476 
L 595.485441 479.957465 
L 599.553794 479.952376 
L 603.622146 479.481735 
L 605.656323 479.676892 
L 607.690499 479.652173 
L 609.724675 479.502297 
L 613.793028 479.706613 
L 621.929733 479.534067 
L 628.032262 479.201939 
L 634.134792 479.247657 
L 638.203144 478.905055 
L 640.237321 478.856696 
L 642.271497 478.942337 
L 646.33985 478.769196 
L 648.374026 478.563318 
L 650.408202 478.539604 
L 652.442379 478.31849 
L 654.476555 478.400227 
L 656.510731 478.021929 
L 660.579084 477.666953 
L 664.647437 477.701019 
L 668.715789 477.177025 
L 672.784142 476.687749 
L 674.818319 476.546559 
L 676.852495 476.276861 
L 678.886671 476.2149 
L 680.920848 476.413983 
L 682.955024 476.281512 
L 684.9892 475.765942 
L 687.023377 475.085284 
L 689.057553 475.114635 
L 691.091729 474.474662 
L 693.125906 474.225987 
L 697.194258 474.089604 
L 703.296787 472.781666 
L 705.330964 472.759794 
L 709.399316 472.166106 
L 711.433493 472.315418 
L 713.467669 471.722645 
L 715.501846 471.62066 
L 717.536022 471.221904 
L 719.570198 471.152196 
L 721.604375 470.258713 
L 723.638551 469.719627 
L 725.672727 469.88131 
L 731.775256 469.537747 
L 733.809433 469.180075 
L 735.843609 469.028503 
L 737.877785 468.506782 
L 739.911962 468.499563 
L 741.946138 468.156787 
L 743.980314 468.164097 
L 752.11702 465.743774 
L 756.185373 466.027718 
L 758.219549 465.85517 
L 760.253725 465.195659 
L 762.287902 464.704209 
L 764.322078 465.237551 
L 766.356254 464.811318 
L 768.390431 465.113735 
L 770.424607 465.047606 
L 772.458783 464.35993 
L 774.49296 464.278868 
L 776.527136 463.834502 
L 778.561312 463.27151 
L 780.595489 463.889727 
L 782.629665 463.787185 
L 784.663841 463.262745 
L 786.698018 463.496894 
L 788.732194 462.894191 
L 790.76637 462.840866 
L 792.800547 461.730994 
L 796.8689 461.527101 
L 800.937252 461.229954 
L 807.039781 459.666207 
L 809.073958 458.317091 
L 811.108134 458.191567 
L 813.14231 457.735553 
L 815.176487 456.630308 
L 817.210663 456.437897 
L 819.244839 456.082476 
L 821.279016 455.205509 
L 823.313192 455.260532 
L 825.347368 454.448753 
L 827.381545 454.551348 
L 829.415721 453.039261 
L 831.449897 452.638331 
L 835.51825 451.08202 
L 837.552427 448.747057 
L 843.654956 447.692553 
L 845.689132 447.442489 
L 847.723308 447.054237 
L 849.757485 444.200299 
L 853.825837 439.130433 
L 855.860014 438.502702 
L 857.89419 438.304412 
L 859.928366 437.944129 
L 863.996719 435.801499 
L 866.030895 431.813885 
L 868.065072 430.489477 
L 870.099248 429.813975 
L 874.167601 429.23963 
L 876.201777 429.685596 
L 878.235954 427.313016 
L 880.27013 427.896047 
L 882.304306 426.879856 
L 884.338483 424.641853 
L 886.372659 424.658653 
L 888.406835 424.405489 
L 890.441012 423.130128 
L 892.475188 422.844797 
L 894.509364 422.834628 
L 896.543541 421.355126 
L 898.577717 416.557079 
L 902.64607 414.663329 
L 904.680246 412.432389 
L 906.714422 410.804205 
L 908.748599 408.818046 
L 912.816951 403.037232 
L 914.851128 401.880153 
L 916.885304 401.492301 
L 918.919481 402.819185 
L 920.953657 401.87405 
L 922.987833 401.387426 
L 925.02201 399.705446 
L 927.056186 399.385225 
L 929.090362 395.405561 
L 935.192891 393.992433 
L 937.227068 393.834139 
L 939.261244 390.05222 
L 941.29542 383.960286 
L 943.329597 383.12704 
L 945.363773 381.92293 
L 947.397949 378.359273 
L 951.466302 375.029531 
L 953.500478 373.950319 
L 955.534655 371.246781 
L 957.568831 371.004319 
L 959.603008 366.779398 
L 961.637184 365.919032 
L 963.67136 364.289124 
L 965.705537 364.926772 
L 967.739713 364.211751 
L 969.773889 365.787116 
L 971.808066 364.449979 
L 973.842242 360.27329 
L 975.876418 361.692471 
L 977.910595 359.708119 
L 979.944771 354.580507 
L 981.978947 356.34078 
L 984.013124 346.971806 
L 986.0473 345.966834 
L 988.081476 344.552841 
L 990.115653 342.449611 
L 992.149829 340.94925 
L 994.184005 339.835541 
L 996.218182 337.314913 
L 996.218182 337.314913 
" style="fill:none;stroke:#d62728;stroke-dasharray:5.55,2.4;stroke-dashoffset:0;stroke-width:1.5;"/>
   </g>
   <g id="line2d_20">
    <path clip-path="url(#p812c8e6933)" d="M 184.581818 484.232727 
L 479.537389 484.132771 
L 530.391798 483.748497 
L 538.528503 483.61088 
L 558.870267 483.254071 
L 564.972796 483.214564 
L 571.075325 482.987014 
L 577.177854 482.791237 
L 579.21203 482.778928 
L 583.280383 482.558056 
L 591.417088 482.286902 
L 595.485441 482.030757 
L 599.553794 481.981491 
L 601.58797 481.74483 
L 605.656323 481.79846 
L 611.758852 481.709859 
L 617.861381 481.181914 
L 619.895557 480.862641 
L 625.998086 480.924025 
L 634.134792 480.81474 
L 636.168968 480.801304 
L 648.374026 480.025839 
L 650.408202 480.08091 
L 652.442379 480.005673 
L 654.476555 480.044014 
L 656.510731 479.850942 
L 660.579084 479.658541 
L 664.647437 479.432151 
L 672.784142 478.933196 
L 676.852495 478.679954 
L 678.886671 478.699376 
L 680.920848 478.536503 
L 684.9892 478.596262 
L 687.023377 478.239892 
L 689.057553 477.667724 
L 693.125906 477.664629 
L 695.160082 477.357106 
L 701.262611 476.748075 
L 703.296787 476.529598 
L 705.330964 476.015507 
L 707.36514 475.917126 
L 711.433493 476.380256 
L 717.536022 476.277423 
L 723.638551 475.769417 
L 725.672727 475.187328 
L 729.74108 474.761822 
L 731.775256 474.714442 
L 733.809433 474.473595 
L 735.843609 474.488547 
L 737.877785 474.007932 
L 739.911962 473.804079 
L 741.946138 473.344693 
L 743.980314 473.340102 
L 748.048667 472.855886 
L 750.082843 472.541989 
L 752.11702 472.56301 
L 756.185373 472.215785 
L 762.287902 470.54226 
L 764.322078 470.82561 
L 766.356254 470.301084 
L 768.390431 470.507654 
L 770.424607 470.37507 
L 772.458783 469.586682 
L 774.49296 469.030342 
L 778.561312 467.43646 
L 780.595489 467.370301 
L 782.629665 466.40168 
L 784.663841 465.991025 
L 788.732194 465.810417 
L 790.76637 465.957406 
L 792.800547 465.357889 
L 796.8689 464.862815 
L 798.903076 463.557666 
L 800.937252 463.514154 
L 802.971429 463.071379 
L 805.005605 462.876535 
L 809.073958 461.720767 
L 811.108134 460.556001 
L 813.14231 460.574856 
L 815.176487 459.510425 
L 817.210663 459.228126 
L 819.244839 459.305608 
L 821.279016 459.08934 
L 823.313192 457.931669 
L 825.347368 457.277907 
L 827.381545 456.180694 
L 829.415721 456.135135 
L 831.449897 456.207991 
L 833.484074 456.477872 
L 835.51825 456.307635 
L 837.552427 455.999875 
L 839.586603 455.548847 
L 841.620779 454.947171 
L 843.654956 454.592996 
L 845.689132 453.545879 
L 847.723308 451.860104 
L 849.757485 451.398115 
L 851.791661 450.572794 
L 855.860014 448.041657 
L 857.89419 448.159398 
L 859.928366 447.955379 
L 861.962543 447.864761 
L 863.996719 446.046211 
L 866.030895 446.38579 
L 868.065072 446.328454 
L 870.099248 445.568837 
L 872.133424 444.418241 
L 874.167601 443.095728 
L 876.201777 442.754838 
L 878.235954 442.710795 
L 880.27013 440.911464 
L 884.338483 439.692993 
L 886.372659 439.441963 
L 888.406835 438.024157 
L 890.441012 436.929083 
L 892.475188 435.982478 
L 894.509364 434.516098 
L 896.543541 434.174164 
L 898.577717 431.125317 
L 900.611893 430.680209 
L 902.64607 430.660254 
L 904.680246 430.010843 
L 906.714422 428.610607 
L 908.748599 422.738799 
L 910.782775 422.126385 
L 912.816951 419.933239 
L 914.851128 419.653714 
L 916.885304 417.347338 
L 918.919481 416.24716 
L 920.953657 412.749444 
L 922.987833 412.520924 
L 925.02201 403.93505 
L 927.056186 401.14547 
L 929.090362 398.819532 
L 931.124539 398.432999 
L 933.158715 395.136238 
L 935.192891 384.829794 
L 937.227068 383.983757 
L 939.261244 374.428751 
L 941.29542 371.770446 
L 943.329597 370.677511 
L 945.363773 369.35357 
L 947.397949 379.20896 
L 949.432126 378.850911 
L 953.500478 377.578323 
L 955.534655 376.579033 
L 957.568831 369.492841 
L 959.603008 368.403208 
L 961.637184 365.34819 
L 963.67136 364.165361 
L 965.705537 352.520321 
L 967.739713 351.902213 
L 969.773889 347.464848 
L 971.808066 348.692371 
L 973.842242 348.102147 
L 975.876418 347.260657 
L 977.910595 346.998757 
L 979.944771 344.263855 
L 981.978947 342.268509 
L 984.013124 337.808662 
L 986.0473 336.301675 
L 988.081476 335.461432 
L 990.115653 326.434539 
L 992.149829 321.883068 
L 994.184005 320.399709 
L 996.218182 320.126096 
L 996.218182 320.126096 
" style="fill:none;stroke:#9467bd;stroke-dasharray:5.55,2.4;stroke-dashoffset:0;stroke-width:1.5;"/>
   </g>
   <g id="line2d_21">
    <path clip-path="url(#p812c8e6933)" d="M 184.581818 484.232727 
L 465.298154 484.145269 
L 471.400684 484.004068 
L 477.503213 484.052434 
L 479.537389 483.838144 
L 499.879152 483.617951 
L 503.947505 483.448727 
L 512.084211 483.517878 
L 516.152563 483.33505 
L 520.220916 483.253106 
L 524.289269 483.164193 
L 528.357621 482.953264 
L 546.665208 482.660743 
L 548.699385 482.472029 
L 550.733561 482.421152 
L 552.767738 482.226395 
L 558.870267 481.338719 
L 560.904443 481.071292 
L 562.938619 481.163545 
L 564.972796 480.688703 
L 567.006972 480.75372 
L 569.041148 480.562703 
L 571.075325 479.514256 
L 573.109501 479.595794 
L 577.177854 479.518017 
L 579.21203 479.344687 
L 581.246206 479.311373 
L 583.280383 479.160905 
L 591.417088 479.217223 
L 595.485441 478.965611 
L 597.519617 478.580535 
L 601.58797 478.23493 
L 603.622146 477.764803 
L 605.656323 476.611482 
L 607.690499 476.056667 
L 609.724675 476.083767 
L 611.758852 475.490444 
L 621.929733 475.026874 
L 623.96391 474.586405 
L 625.998086 473.122342 
L 628.032262 472.845372 
L 630.066439 471.778454 
L 632.100615 471.766824 
L 636.168968 472.00877 
L 638.203144 471.946399 
L 642.271497 471.209451 
L 644.305673 471.27019 
L 646.33985 471.860331 
L 648.374026 471.275417 
L 652.442379 470.496618 
L 656.510731 468.93291 
L 658.544908 468.020484 
L 660.579084 467.900703 
L 662.61326 467.283514 
L 664.647437 467.467916 
L 666.681613 466.35751 
L 670.749966 463.523432 
L 672.784142 463.408139 
L 674.818319 463.608964 
L 676.852495 461.785486 
L 678.886671 462.016901 
L 680.920848 462.416281 
L 682.955024 462.429664 
L 687.023377 456.571304 
L 689.057553 455.932503 
L 691.091729 456.23828 
L 693.125906 455.011361 
L 695.160082 452.052225 
L 699.228435 451.420931 
L 701.262611 445.67682 
L 703.296787 444.810299 
L 705.330964 445.671775 
L 707.36514 445.664596 
L 709.399316 445.375531 
L 713.467669 445.422991 
L 715.501846 444.156035 
L 717.536022 442.733086 
L 719.570198 437.842022 
L 721.604375 437.501665 
L 723.638551 436.033742 
L 725.672727 435.664418 
L 727.706904 433.365706 
L 729.74108 430.215298 
L 731.775256 429.850281 
L 733.809433 428.997398 
L 735.843609 427.427104 
L 737.877785 427.513781 
L 739.911962 424.744476 
L 741.946138 425.431635 
L 746.014491 424.144819 
L 748.048667 422.514036 
L 750.082843 421.443162 
L 752.11702 419.678262 
L 754.151196 421.845675 
L 756.185373 421.509777 
L 758.219549 421.448215 
L 760.253725 417.687206 
L 762.287902 417.109767 
L 764.322078 414.50673 
L 766.356254 405.299661 
L 768.390431 403.27254 
L 770.424607 399.020303 
L 772.458783 399.498067 
L 774.49296 394.065258 
L 776.527136 391.2631 
L 778.561312 389.597583 
L 780.595489 389.038286 
L 782.629665 389.606242 
L 784.663841 385.767444 
L 786.698018 379.471377 
L 788.732194 378.653121 
L 790.76637 380.423479 
L 792.800547 378.602812 
L 794.834723 379.227321 
L 796.8689 374.971372 
L 798.903076 372.751824 
L 800.937252 369.268212 
L 802.971429 368.953488 
L 805.005605 369.174702 
L 807.039781 357.393557 
L 809.073958 355.267486 
L 811.108134 354.947293 
L 813.14231 354.191273 
L 815.176487 345.989114 
L 817.210663 347.738225 
L 819.244839 344.321576 
L 821.279016 341.922453 
L 823.313192 339.809813 
L 825.347368 337.064635 
L 827.381545 336.913797 
L 829.415721 335.427631 
L 831.449897 332.38546 
L 833.484074 330.329496 
L 835.51825 329.9049 
L 837.552427 324.14576 
L 839.586603 307.411804 
L 841.620779 306.175713 
L 843.654956 306.766015 
L 845.689132 304.182366 
L 847.723308 304.146049 
L 849.757485 290.192196 
L 851.791661 287.759272 
L 853.825837 285.921592 
L 855.860014 285.326888 
L 857.89419 285.66807 
L 859.928366 283.858666 
L 861.962543 284.943796 
L 863.996719 288.095693 
L 866.030895 290.362596 
L 868.065072 288.530104 
L 870.099248 268.79929 
L 872.133424 266.182311 
L 874.167601 266.709772 
L 876.201777 266.06049 
L 878.235954 261.578251 
L 880.27013 259.164508 
L 882.304306 255.752822 
L 884.338483 255.80924 
L 886.372659 256.985758 
L 888.406835 257.926653 
L 890.441012 259.030177 
L 892.475188 251.735853 
L 894.509364 250.508398 
L 896.543541 249.074045 
L 898.577717 244.930001 
L 900.611893 233.230024 
L 902.64607 219.050116 
L 904.680246 217.750475 
L 906.714422 216.318212 
L 908.748599 216.443738 
L 910.782775 200.479558 
L 912.816951 196.099263 
L 914.851128 191.082712 
L 916.885304 188.62825 
L 918.919481 188.619648 
L 920.953657 186.481078 
L 922.987833 185.740858 
L 925.02201 186.688065 
L 927.056186 188.968129 
L 929.090362 185.189388 
L 931.124539 179.42022 
L 933.158715 179.47327 
L 935.192891 171.502174 
L 937.227068 174.168295 
L 939.261244 166.41701 
L 941.29542 167.435907 
L 943.329597 171.30754 
L 945.363773 167.075095 
L 947.397949 166.362838 
L 949.432126 170.280827 
L 951.466302 169.46146 
L 953.500478 165.24878 
L 955.534655 163.031781 
L 957.568831 161.593633 
L 959.603008 161.330812 
L 961.637184 159.369718 
L 963.67136 164.392669 
L 965.705537 163.496019 
L 967.739713 157.542773 
L 969.773889 154.162149 
L 971.808066 152.777477 
L 973.842242 150.506958 
L 975.876418 146.723523 
L 977.910595 150.008335 
L 979.944771 148.494453 
L 981.978947 138.089288 
L 984.013124 129.75509 
L 986.0473 126.507179 
L 988.081476 122.24127 
L 990.115653 114.76125 
L 992.149829 117.74113 
L 994.184005 116.023092 
L 996.218182 88.887273 
L 996.218182 88.887273 
" style="fill:none;stroke:#8c564b;stroke-dasharray:5.55,2.4;stroke-dashoffset:0;stroke-width:1.5;"/>
   </g>
   <g id="patch_3">
    <path d="M 144 504 
L 144 69.12 
" style="fill:none;stroke:#000000;stroke-linecap:square;stroke-linejoin:miter;stroke-width:0.8;"/>
   </g>
   <g id="patch_4">
    <path d="M 1036.8 504 
L 1036.8 69.12 
" style="fill:none;stroke:#000000;stroke-linecap:square;stroke-linejoin:miter;stroke-width:0.8;"/>
   </g>
   <g id="patch_5">
    <path d="M 144 504 
L 1036.8 504 
" style="fill:none;stroke:#000000;stroke-linecap:square;stroke-linejoin:miter;stroke-width:0.8;"/>
   </g>
   <g id="patch_6">
    <path d="M 144 69.12 
L 1036.8 69.12 
" style="fill:none;stroke:#000000;stroke-linecap:square;stroke-linejoin:miter;stroke-width:0.8;"/>
   </g>
   <g id="legend_1">
    <g id="patch_7">
     <path d="M 151 166.579375 
L 275.432813 166.579375 
Q 277.432813 166.579375 277.432813 164.579375 
L 277.432813 76.12 
Q 277.432813 74.12 275.432813 74.12 
L 151 74.12 
Q 149 74.12 149 76.12 
L 149 164.579375 
Q 149 166.579375 151 166.579375 
z
" style="fill:#ffffff;opacity:0.8;stroke:#cccccc;stroke-linejoin:miter;"/>
    </g>
    <g id="line2d_22">
     <path d="M 153 82.218438 
L 173 82.218438 
" style="fill:none;stroke:#1f77b4;stroke-linecap:square;stroke-width:1.5;"/>
    </g>
    <g id="line2d_23"/>
    <g id="text_18">
     <!-- taylorfo -->
     <defs>
      <path d="M 18.3125 70.21875 
L 18.3125 54.6875 
L 36.8125 54.6875 
L 36.8125 47.703125 
L 18.3125 47.703125 
L 18.3125 18.015625 
Q 18.3125 11.328125 20.140625 9.421875 
Q 21.96875 7.515625 27.59375 7.515625 
L 36.8125 7.515625 
L 36.8125 0 
L 27.59375 0 
Q 17.1875 0 13.234375 3.875 
Q 9.28125 7.765625 9.28125 18.015625 
L 9.28125 47.703125 
L 2.6875 47.703125 
L 2.6875 54.6875 
L 9.28125 54.6875 
L 9.28125 70.21875 
z
" id="DejaVuSans-116"/>
      <path d="M 34.28125 27.484375 
Q 23.390625 27.484375 19.1875 25 
Q 14.984375 22.515625 14.984375 16.5 
Q 14.984375 11.71875 18.140625 8.90625 
Q 21.296875 6.109375 26.703125 6.109375 
Q 34.1875 6.109375 38.703125 11.40625 
Q 43.21875 16.703125 43.21875 25.484375 
L 43.21875 27.484375 
z
M 52.203125 31.203125 
L 52.203125 0 
L 43.21875 0 
L 43.21875 8.296875 
Q 40.140625 3.328125 35.546875 0.953125 
Q 30.953125 -1.421875 24.3125 -1.421875 
Q 15.921875 -1.421875 10.953125 3.296875 
Q 6 8.015625 6 15.921875 
Q 6 25.140625 12.171875 29.828125 
Q 18.359375 34.515625 30.609375 34.515625 
L 43.21875 34.515625 
L 43.21875 35.40625 
Q 43.21875 41.609375 39.140625 45 
Q 35.0625 48.390625 27.6875 48.390625 
Q 23 48.390625 18.546875 47.265625 
Q 14.109375 46.140625 10.015625 43.890625 
L 10.015625 52.203125 
Q 14.9375 54.109375 19.578125 55.046875 
Q 24.21875 56 28.609375 56 
Q 40.484375 56 46.34375 49.84375 
Q 52.203125 43.703125 52.203125 31.203125 
z
" id="DejaVuSans-97"/>
      <path d="M 32.171875 -5.078125 
Q 28.375 -14.84375 24.75 -17.8125 
Q 21.140625 -20.796875 15.09375 -20.796875 
L 7.90625 -20.796875 
L 7.90625 -13.28125 
L 13.1875 -13.28125 
Q 16.890625 -13.28125 18.9375 -11.515625 
Q 21 -9.765625 23.484375 -3.21875 
L 25.09375 0.875 
L 2.984375 54.6875 
L 12.5 54.6875 
L 29.59375 11.921875 
L 46.6875 54.6875 
L 56.203125 54.6875 
z
" id="DejaVuSans-121"/>
      <path d="M 9.421875 75.984375 
L 18.40625 75.984375 
L 18.40625 0 
L 9.421875 0 
z
" id="DejaVuSans-108"/>
     </defs>
     <g transform="translate(181 85.718438)scale(0.1 -0.1)">
      <use xlink:href="#DejaVuSans-116"/>
      <use x="39.208984" xlink:href="#DejaVuSans-97"/>
      <use x="100.488281" xlink:href="#DejaVuSans-121"/>
      <use x="159.667969" xlink:href="#DejaVuSans-108"/>
      <use x="187.451172" xlink:href="#DejaVuSans-111"/>
      <use x="248.632812" xlink:href="#DejaVuSans-114"/>
      <use x="289.746094" xlink:href="#DejaVuSans-102"/>
      <use x="324.951172" xlink:href="#DejaVuSans-111"/>
     </g>
    </g>
    <g id="line2d_24">
     <path d="M 153 96.896563 
L 173 96.896563 
" style="fill:none;stroke:#ff7f0e;stroke-linecap:square;stroke-width:1.5;"/>
    </g>
    <g id="line2d_25"/>
    <g id="text_19">
     <!-- taylorfo_abs -->
     <defs>
      <path d="M 50.984375 -16.609375 
L 50.984375 -23.578125 
L -0.984375 -23.578125 
L -0.984375 -16.609375 
z
" id="DejaVuSans-95"/>
     </defs>
     <g transform="translate(181 100.396563)scale(0.1 -0.1)">
      <use xlink:href="#DejaVuSans-116"/>
      <use x="39.208984" xlink:href="#DejaVuSans-97"/>
      <use x="100.488281" xlink:href="#DejaVuSans-121"/>
      <use x="159.667969" xlink:href="#DejaVuSans-108"/>
      <use x="187.451172" xlink:href="#DejaVuSans-111"/>
      <use x="248.632812" xlink:href="#DejaVuSans-114"/>
      <use x="289.746094" xlink:href="#DejaVuSans-102"/>
      <use x="324.951172" xlink:href="#DejaVuSans-111"/>
      <use x="386.132812" xlink:href="#DejaVuSans-95"/>
      <use x="436.132812" xlink:href="#DejaVuSans-97"/>
      <use x="497.412109" xlink:href="#DejaVuSans-98"/>
      <use x="560.888672" xlink:href="#DejaVuSans-115"/>
     </g>
    </g>
    <g id="line2d_26">
     <path d="M 153 111.852813 
L 173 111.852813 
" style="fill:none;stroke:#2ca02c;stroke-linecap:square;stroke-width:1.5;"/>
    </g>
    <g id="line2d_27"/>
    <g id="text_20">
     <!-- taylorfo_sq -->
     <defs>
      <path d="M 14.796875 27.296875 
Q 14.796875 17.390625 18.875 11.75 
Q 22.953125 6.109375 30.078125 6.109375 
Q 37.203125 6.109375 41.296875 11.75 
Q 45.40625 17.390625 45.40625 27.296875 
Q 45.40625 37.203125 41.296875 42.84375 
Q 37.203125 48.484375 30.078125 48.484375 
Q 22.953125 48.484375 18.875 42.84375 
Q 14.796875 37.203125 14.796875 27.296875 
z
M 45.40625 8.203125 
Q 42.578125 3.328125 38.25 0.953125 
Q 33.9375 -1.421875 27.875 -1.421875 
Q 17.96875 -1.421875 11.734375 6.484375 
Q 5.515625 14.40625 5.515625 27.296875 
Q 5.515625 40.1875 11.734375 48.09375 
Q 17.96875 56 27.875 56 
Q 33.9375 56 38.25 53.625 
Q 42.578125 51.265625 45.40625 46.390625 
L 45.40625 54.6875 
L 54.390625 54.6875 
L 54.390625 -20.796875 
L 45.40625 -20.796875 
z
" id="DejaVuSans-113"/>
     </defs>
     <g transform="translate(181 115.352813)scale(0.1 -0.1)">
      <use xlink:href="#DejaVuSans-116"/>
      <use x="39.208984" xlink:href="#DejaVuSans-97"/>
      <use x="100.488281" xlink:href="#DejaVuSans-121"/>
      <use x="159.667969" xlink:href="#DejaVuSans-108"/>
      <use x="187.451172" xlink:href="#DejaVuSans-111"/>
      <use x="248.632812" xlink:href="#DejaVuSans-114"/>
      <use x="289.746094" xlink:href="#DejaVuSans-102"/>
      <use x="324.951172" xlink:href="#DejaVuSans-111"/>
      <use x="386.132812" xlink:href="#DejaVuSans-95"/>
      <use x="436.132812" xlink:href="#DejaVuSans-115"/>
      <use x="488.232422" xlink:href="#DejaVuSans-113"/>
     </g>
    </g>
    <g id="line2d_28">
     <path d="M 153 126.809063 
L 173 126.809063 
" style="fill:none;stroke:#d62728;stroke-dasharray:5.55,2.4;stroke-dashoffset:0;stroke-width:1.5;"/>
    </g>
    <g id="line2d_29"/>
    <g id="text_21">
     <!-- taylorfo_abs_norm -->
     <g transform="translate(181 130.309063)scale(0.1 -0.1)">
      <use xlink:href="#DejaVuSans-116"/>
      <use x="39.208984" xlink:href="#DejaVuSans-97"/>
      <use x="100.488281" xlink:href="#DejaVuSans-121"/>
      <use x="159.667969" xlink:href="#DejaVuSans-108"/>
      <use x="187.451172" xlink:href="#DejaVuSans-111"/>
      <use x="248.632812" xlink:href="#DejaVuSans-114"/>
      <use x="289.746094" xlink:href="#DejaVuSans-102"/>
      <use x="324.951172" xlink:href="#DejaVuSans-111"/>
      <use x="386.132812" xlink:href="#DejaVuSans-95"/>
      <use x="436.132812" xlink:href="#DejaVuSans-97"/>
      <use x="497.412109" xlink:href="#DejaVuSans-98"/>
      <use x="560.888672" xlink:href="#DejaVuSans-115"/>
      <use x="612.988281" xlink:href="#DejaVuSans-95"/>
      <use x="662.988281" xlink:href="#DejaVuSans-110"/>
      <use x="726.367188" xlink:href="#DejaVuSans-111"/>
      <use x="787.548828" xlink:href="#DejaVuSans-114"/>
      <use x="826.912109" xlink:href="#DejaVuSans-109"/>
     </g>
    </g>
    <g id="line2d_30">
     <path d="M 153 141.765313 
L 173 141.765313 
" style="fill:none;stroke:#9467bd;stroke-dasharray:5.55,2.4;stroke-dashoffset:0;stroke-width:1.5;"/>
    </g>
    <g id="line2d_31"/>
    <g id="text_22">
     <!-- taylorfo_sq_norm -->
     <g transform="translate(181 145.265313)scale(0.1 -0.1)">
      <use xlink:href="#DejaVuSans-116"/>
      <use x="39.208984" xlink:href="#DejaVuSans-97"/>
      <use x="100.488281" xlink:href="#DejaVuSans-121"/>
      <use x="159.667969" xlink:href="#DejaVuSans-108"/>
      <use x="187.451172" xlink:href="#DejaVuSans-111"/>
      <use x="248.632812" xlink:href="#DejaVuSans-114"/>
      <use x="289.746094" xlink:href="#DejaVuSans-102"/>
      <use x="324.951172" xlink:href="#DejaVuSans-111"/>
      <use x="386.132812" xlink:href="#DejaVuSans-95"/>
      <use x="436.132812" xlink:href="#DejaVuSans-115"/>
      <use x="488.232422" xlink:href="#DejaVuSans-113"/>
      <use x="551.708984" xlink:href="#DejaVuSans-95"/>
      <use x="601.708984" xlink:href="#DejaVuSans-110"/>
      <use x="665.087891" xlink:href="#DejaVuSans-111"/>
      <use x="726.269531" xlink:href="#DejaVuSans-114"/>
      <use x="765.632812" xlink:href="#DejaVuSans-109"/>
     </g>
    </g>
    <g id="line2d_32">
     <path d="M 153 156.721563 
L 173 156.721563 
" style="fill:none;stroke:#8c564b;stroke-dasharray:5.55,2.4;stroke-dashoffset:0;stroke-width:1.5;"/>
    </g>
    <g id="line2d_33"/>
    <g id="text_23">
     <!-- Molchanov_group -->
     <defs>
      <path d="M 9.8125 72.90625 
L 24.515625 72.90625 
L 43.109375 23.296875 
L 61.8125 72.90625 
L 76.515625 72.90625 
L 76.515625 0 
L 66.890625 0 
L 66.890625 64.015625 
L 48.09375 14.015625 
L 38.1875 14.015625 
L 19.390625 64.015625 
L 19.390625 0 
L 9.8125 0 
z
" id="DejaVuSans-77"/>
      <path d="M 48.78125 52.59375 
L 48.78125 44.1875 
Q 44.96875 46.296875 41.140625 47.34375 
Q 37.3125 48.390625 33.40625 48.390625 
Q 24.65625 48.390625 19.8125 42.84375 
Q 14.984375 37.3125 14.984375 27.296875 
Q 14.984375 17.28125 19.8125 11.734375 
Q 24.65625 6.203125 33.40625 6.203125 
Q 37.3125 6.203125 41.140625 7.25 
Q 44.96875 8.296875 48.78125 10.40625 
L 48.78125 2.09375 
Q 45.015625 0.34375 40.984375 -0.53125 
Q 36.96875 -1.421875 32.421875 -1.421875 
Q 20.0625 -1.421875 12.78125 6.34375 
Q 5.515625 14.109375 5.515625 27.296875 
Q 5.515625 40.671875 12.859375 48.328125 
Q 20.21875 56 33.015625 56 
Q 37.15625 56 41.109375 55.140625 
Q 45.0625 54.296875 48.78125 52.59375 
z
" id="DejaVuSans-99"/>
      <path d="M 54.890625 33.015625 
L 54.890625 0 
L 45.90625 0 
L 45.90625 32.71875 
Q 45.90625 40.484375 42.875 44.328125 
Q 39.84375 48.1875 33.796875 48.1875 
Q 26.515625 48.1875 22.3125 43.546875 
Q 18.109375 38.921875 18.109375 30.90625 
L 18.109375 0 
L 9.078125 0 
L 9.078125 75.984375 
L 18.109375 75.984375 
L 18.109375 46.1875 
Q 21.34375 51.125 25.703125 53.5625 
Q 30.078125 56 35.796875 56 
Q 45.21875 56 50.046875 50.171875 
Q 54.890625 44.34375 54.890625 33.015625 
z
" id="DejaVuSans-104"/>
      <path d="M 2.984375 54.6875 
L 12.5 54.6875 
L 29.59375 8.796875 
L 46.6875 54.6875 
L 56.203125 54.6875 
L 35.6875 0 
L 23.484375 0 
z
" id="DejaVuSans-118"/>
      <path d="M 45.40625 27.984375 
Q 45.40625 37.75 41.375 43.109375 
Q 37.359375 48.484375 30.078125 48.484375 
Q 22.859375 48.484375 18.828125 43.109375 
Q 14.796875 37.75 14.796875 27.984375 
Q 14.796875 18.265625 18.828125 12.890625 
Q 22.859375 7.515625 30.078125 7.515625 
Q 37.359375 7.515625 41.375 12.890625 
Q 45.40625 18.265625 45.40625 27.984375 
z
M 54.390625 6.78125 
Q 54.390625 -7.171875 48.1875 -13.984375 
Q 42 -20.796875 29.203125 -20.796875 
Q 24.46875 -20.796875 20.265625 -20.09375 
Q 16.0625 -19.390625 12.109375 -17.921875 
L 12.109375 -9.1875 
Q 16.0625 -11.328125 19.921875 -12.34375 
Q 23.78125 -13.375 27.78125 -13.375 
Q 36.625 -13.375 41.015625 -8.765625 
Q 45.40625 -4.15625 45.40625 5.171875 
L 45.40625 9.625 
Q 42.625 4.78125 38.28125 2.390625 
Q 33.9375 0 27.875 0 
Q 17.828125 0 11.671875 7.65625 
Q 5.515625 15.328125 5.515625 27.984375 
Q 5.515625 40.671875 11.671875 48.328125 
Q 17.828125 56 27.875 56 
Q 33.9375 56 38.28125 53.609375 
Q 42.625 51.21875 45.40625 46.390625 
L 45.40625 54.6875 
L 54.390625 54.6875 
z
" id="DejaVuSans-103"/>
     </defs>
     <g transform="translate(181 160.221563)scale(0.1 -0.1)">
      <use xlink:href="#DejaVuSans-77"/>
      <use x="86.279297" xlink:href="#DejaVuSans-111"/>
      <use x="147.460938" xlink:href="#DejaVuSans-108"/>
      <use x="175.244141" xlink:href="#DejaVuSans-99"/>
      <use x="230.224609" xlink:href="#DejaVuSans-104"/>
      <use x="293.603516" xlink:href="#DejaVuSans-97"/>
      <use x="354.882812" xlink:href="#DejaVuSans-110"/>
      <use x="418.261719" xlink:href="#DejaVuSans-111"/>
      <use x="479.443359" xlink:href="#DejaVuSans-118"/>
      <use x="538.623047" xlink:href="#DejaVuSans-95"/>
      <use x="588.623047" xlink:href="#DejaVuSans-103"/>
      <use x="652.099609" xlink:href="#DejaVuSans-114"/>
      <use x="690.962891" xlink:href="#DejaVuSans-111"/>
      <use x="752.144531" xlink:href="#DejaVuSans-117"/>
      <use x="815.523438" xlink:href="#DejaVuSans-112"/>
     </g>
    </g>
   </g>
  </g>
 </g>
 <defs>
  <clipPath id="p812c8e6933">
   <rect height="434.88" width="892.8" x="144" y="69.12"/>
  </clipPath>
 </defs>
</svg>
