<?xml version="1.0" encoding="utf-8" standalone="no"?>
<!DOCTYPE svg PUBLIC "-//W3C//DTD SVG 1.1//EN"
  "http://www.w3.org/Graphics/SVG/1.1/DTD/svg11.dtd">
<!-- Created with matplotlib (https://matplotlib.org/) -->
<svg height="576pt" version="1.1" viewBox="0 0 1152 576" width="1152pt" xmlns="http://www.w3.org/2000/svg" xmlns:xlink="http://www.w3.org/1999/xlink">
 <defs>
  <style type="text/css">
*{stroke-linecap:butt;stroke-linejoin:round;}
  </style>
 </defs>
 <g id="figure_1">
  <g id="patch_1">
   <path d="M 0 576 
L 1152 576 
L 1152 0 
L 0 0 
z
" style="fill:#ffffff;"/>
  </g>
  <g id="axes_1">
   <g id="patch_2">
    <path d="M 144 504 
L 1036.8 504 
L 1036.8 69.12 
L 144 69.12 
z
" style="fill:#ffffff;"/>
   </g>
   <g id="matplotlib.axis_1">
    <g id="xtick_1">
     <g id="line2d_1">
      <defs>
       <path d="M 0 0 
L 0 3.5 
" id="mfbebfe6b16" style="stroke:#000000;stroke-width:0.8;"/>
      </defs>
      <g>
       <use style="stroke:#000000;stroke-width:0.8;" x="182.547642" xlink:href="#mfbebfe6b16" y="504"/>
      </g>
     </g>
     <g id="text_1">
      <!-- 0 -->
      <defs>
       <path d="M 31.78125 66.40625 
Q 24.171875 66.40625 20.328125 58.90625 
Q 16.5 51.421875 16.5 36.375 
Q 16.5 21.390625 20.328125 13.890625 
Q 24.171875 6.390625 31.78125 6.390625 
Q 39.453125 6.390625 43.28125 13.890625 
Q 47.125 21.390625 47.125 36.375 
Q 47.125 51.421875 43.28125 58.90625 
Q 39.453125 66.40625 31.78125 66.40625 
z
M 31.78125 74.21875 
Q 44.046875 74.21875 50.515625 64.515625 
Q 56.984375 54.828125 56.984375 36.375 
Q 56.984375 17.96875 50.515625 8.265625 
Q 44.046875 -1.421875 31.78125 -1.421875 
Q 19.53125 -1.421875 13.0625 8.265625 
Q 6.59375 17.96875 6.59375 36.375 
Q 6.59375 54.828125 13.0625 64.515625 
Q 19.53125 74.21875 31.78125 74.21875 
z
" id="DejaVuSans-48"/>
      </defs>
      <g transform="translate(179.366392 518.598438)scale(0.1 -0.1)">
       <use xlink:href="#DejaVuSans-48"/>
      </g>
     </g>
    </g>
    <g id="xtick_2">
     <g id="line2d_2">
      <g>
       <use style="stroke:#000000;stroke-width:0.8;" x="284.256459" xlink:href="#mfbebfe6b16" y="504"/>
      </g>
     </g>
     <g id="text_2">
      <!-- 50 -->
      <defs>
       <path d="M 10.796875 72.90625 
L 49.515625 72.90625 
L 49.515625 64.59375 
L 19.828125 64.59375 
L 19.828125 46.734375 
Q 21.96875 47.46875 24.109375 47.828125 
Q 26.265625 48.1875 28.421875 48.1875 
Q 40.625 48.1875 47.75 41.5 
Q 54.890625 34.8125 54.890625 23.390625 
Q 54.890625 11.625 47.5625 5.09375 
Q 40.234375 -1.421875 26.90625 -1.421875 
Q 22.3125 -1.421875 17.546875 -0.640625 
Q 12.796875 0.140625 7.71875 1.703125 
L 7.71875 11.625 
Q 12.109375 9.234375 16.796875 8.0625 
Q 21.484375 6.890625 26.703125 6.890625 
Q 35.15625 6.890625 40.078125 11.328125 
Q 45.015625 15.765625 45.015625 23.390625 
Q 45.015625 31 40.078125 35.4375 
Q 35.15625 39.890625 26.703125 39.890625 
Q 22.75 39.890625 18.8125 39.015625 
Q 14.890625 38.140625 10.796875 36.28125 
z
" id="DejaVuSans-53"/>
      </defs>
      <g transform="translate(277.893959 518.598438)scale(0.1 -0.1)">
       <use xlink:href="#DejaVuSans-53"/>
       <use x="63.623047" xlink:href="#DejaVuSans-48"/>
      </g>
     </g>
    </g>
    <g id="xtick_3">
     <g id="line2d_3">
      <g>
       <use style="stroke:#000000;stroke-width:0.8;" x="385.965277" xlink:href="#mfbebfe6b16" y="504"/>
      </g>
     </g>
     <g id="text_3">
      <!-- 100 -->
      <defs>
       <path d="M 12.40625 8.296875 
L 28.515625 8.296875 
L 28.515625 63.921875 
L 10.984375 60.40625 
L 10.984375 69.390625 
L 28.421875 72.90625 
L 38.28125 72.90625 
L 38.28125 8.296875 
L 54.390625 8.296875 
L 54.390625 0 
L 12.40625 0 
z
" id="DejaVuSans-49"/>
      </defs>
      <g transform="translate(376.421527 518.598438)scale(0.1 -0.1)">
       <use xlink:href="#DejaVuSans-49"/>
       <use x="63.623047" xlink:href="#DejaVuSans-48"/>
       <use x="127.246094" xlink:href="#DejaVuSans-48"/>
      </g>
     </g>
    </g>
    <g id="xtick_4">
     <g id="line2d_4">
      <g>
       <use style="stroke:#000000;stroke-width:0.8;" x="487.674094" xlink:href="#mfbebfe6b16" y="504"/>
      </g>
     </g>
     <g id="text_4">
      <!-- 150 -->
      <g transform="translate(478.130344 518.598438)scale(0.1 -0.1)">
       <use xlink:href="#DejaVuSans-49"/>
       <use x="63.623047" xlink:href="#DejaVuSans-53"/>
       <use x="127.246094" xlink:href="#DejaVuSans-48"/>
      </g>
     </g>
    </g>
    <g id="xtick_5">
     <g id="line2d_5">
      <g>
       <use style="stroke:#000000;stroke-width:0.8;" x="589.382912" xlink:href="#mfbebfe6b16" y="504"/>
      </g>
     </g>
     <g id="text_5">
      <!-- 200 -->
      <defs>
       <path d="M 19.1875 8.296875 
L 53.609375 8.296875 
L 53.609375 0 
L 7.328125 0 
L 7.328125 8.296875 
Q 12.9375 14.109375 22.625 23.890625 
Q 32.328125 33.6875 34.8125 36.53125 
Q 39.546875 41.84375 41.421875 45.53125 
Q 43.3125 49.21875 43.3125 52.78125 
Q 43.3125 58.59375 39.234375 62.25 
Q 35.15625 65.921875 28.609375 65.921875 
Q 23.96875 65.921875 18.8125 64.3125 
Q 13.671875 62.703125 7.8125 59.421875 
L 7.8125 69.390625 
Q 13.765625 71.78125 18.9375 73 
Q 24.125 74.21875 28.421875 74.21875 
Q 39.75 74.21875 46.484375 68.546875 
Q 53.21875 62.890625 53.21875 53.421875 
Q 53.21875 48.921875 51.53125 44.890625 
Q 49.859375 40.875 45.40625 35.40625 
Q 44.1875 33.984375 37.640625 27.21875 
Q 31.109375 20.453125 19.1875 8.296875 
z
" id="DejaVuSans-50"/>
      </defs>
      <g transform="translate(579.839162 518.598438)scale(0.1 -0.1)">
       <use xlink:href="#DejaVuSans-50"/>
       <use x="63.623047" xlink:href="#DejaVuSans-48"/>
       <use x="127.246094" xlink:href="#DejaVuSans-48"/>
      </g>
     </g>
    </g>
    <g id="xtick_6">
     <g id="line2d_6">
      <g>
       <use style="stroke:#000000;stroke-width:0.8;" x="691.091729" xlink:href="#mfbebfe6b16" y="504"/>
      </g>
     </g>
     <g id="text_6">
      <!-- 250 -->
      <g transform="translate(681.547979 518.598438)scale(0.1 -0.1)">
       <use xlink:href="#DejaVuSans-50"/>
       <use x="63.623047" xlink:href="#DejaVuSans-53"/>
       <use x="127.246094" xlink:href="#DejaVuSans-48"/>
      </g>
     </g>
    </g>
    <g id="xtick_7">
     <g id="line2d_7">
      <g>
       <use style="stroke:#000000;stroke-width:0.8;" x="792.800547" xlink:href="#mfbebfe6b16" y="504"/>
      </g>
     </g>
     <g id="text_7">
      <!-- 300 -->
      <defs>
       <path d="M 40.578125 39.3125 
Q 47.65625 37.796875 51.625 33 
Q 55.609375 28.21875 55.609375 21.1875 
Q 55.609375 10.40625 48.1875 4.484375 
Q 40.765625 -1.421875 27.09375 -1.421875 
Q 22.515625 -1.421875 17.65625 -0.515625 
Q 12.796875 0.390625 7.625 2.203125 
L 7.625 11.71875 
Q 11.71875 9.328125 16.59375 8.109375 
Q 21.484375 6.890625 26.8125 6.890625 
Q 36.078125 6.890625 40.9375 10.546875 
Q 45.796875 14.203125 45.796875 21.1875 
Q 45.796875 27.640625 41.28125 31.265625 
Q 36.765625 34.90625 28.71875 34.90625 
L 20.21875 34.90625 
L 20.21875 43.015625 
L 29.109375 43.015625 
Q 36.375 43.015625 40.234375 45.921875 
Q 44.09375 48.828125 44.09375 54.296875 
Q 44.09375 59.90625 40.109375 62.90625 
Q 36.140625 65.921875 28.71875 65.921875 
Q 24.65625 65.921875 20.015625 65.03125 
Q 15.375 64.15625 9.8125 62.3125 
L 9.8125 71.09375 
Q 15.4375 72.65625 20.34375 73.4375 
Q 25.25 74.21875 29.59375 74.21875 
Q 40.828125 74.21875 47.359375 69.109375 
Q 53.90625 64.015625 53.90625 55.328125 
Q 53.90625 49.265625 50.4375 45.09375 
Q 46.96875 40.921875 40.578125 39.3125 
z
" id="DejaVuSans-51"/>
      </defs>
      <g transform="translate(783.256797 518.598438)scale(0.1 -0.1)">
       <use xlink:href="#DejaVuSans-51"/>
       <use x="63.623047" xlink:href="#DejaVuSans-48"/>
       <use x="127.246094" xlink:href="#DejaVuSans-48"/>
      </g>
     </g>
    </g>
    <g id="xtick_8">
     <g id="line2d_8">
      <g>
       <use style="stroke:#000000;stroke-width:0.8;" x="894.509364" xlink:href="#mfbebfe6b16" y="504"/>
      </g>
     </g>
     <g id="text_8">
      <!-- 350 -->
      <g transform="translate(884.965614 518.598438)scale(0.1 -0.1)">
       <use xlink:href="#DejaVuSans-51"/>
       <use x="63.623047" xlink:href="#DejaVuSans-53"/>
       <use x="127.246094" xlink:href="#DejaVuSans-48"/>
      </g>
     </g>
    </g>
    <g id="xtick_9">
     <g id="line2d_9">
      <g>
       <use style="stroke:#000000;stroke-width:0.8;" x="996.218182" xlink:href="#mfbebfe6b16" y="504"/>
      </g>
     </g>
     <g id="text_9">
      <!-- 400 -->
      <defs>
       <path d="M 37.796875 64.3125 
L 12.890625 25.390625 
L 37.796875 25.390625 
z
M 35.203125 72.90625 
L 47.609375 72.90625 
L 47.609375 25.390625 
L 58.015625 25.390625 
L 58.015625 17.1875 
L 47.609375 17.1875 
L 47.609375 0 
L 37.796875 0 
L 37.796875 17.1875 
L 4.890625 17.1875 
L 4.890625 26.703125 
z
" id="DejaVuSans-52"/>
      </defs>
      <g transform="translate(986.674432 518.598438)scale(0.1 -0.1)">
       <use xlink:href="#DejaVuSans-52"/>
       <use x="63.623047" xlink:href="#DejaVuSans-48"/>
       <use x="127.246094" xlink:href="#DejaVuSans-48"/>
      </g>
     </g>
    </g>
    <g id="text_10">
     <!-- Number of Neurons pruned -->
     <defs>
      <path d="M 9.8125 72.90625 
L 23.09375 72.90625 
L 55.421875 11.921875 
L 55.421875 72.90625 
L 64.984375 72.90625 
L 64.984375 0 
L 51.703125 0 
L 19.390625 60.984375 
L 19.390625 0 
L 9.8125 0 
z
" id="DejaVuSans-78"/>
      <path d="M 8.5 21.578125 
L 8.5 54.6875 
L 17.484375 54.6875 
L 17.484375 21.921875 
Q 17.484375 14.15625 20.5 10.265625 
Q 23.53125 6.390625 29.59375 6.390625 
Q 36.859375 6.390625 41.078125 11.03125 
Q 45.3125 15.671875 45.3125 23.6875 
L 45.3125 54.6875 
L 54.296875 54.6875 
L 54.296875 0 
L 45.3125 0 
L 45.3125 8.40625 
Q 42.046875 3.421875 37.71875 1 
Q 33.40625 -1.421875 27.6875 -1.421875 
Q 18.265625 -1.421875 13.375 4.4375 
Q 8.5 10.296875 8.5 21.578125 
z
M 31.109375 56 
z
" id="DejaVuSans-117"/>
      <path d="M 52 44.1875 
Q 55.375 50.25 60.0625 53.125 
Q 64.75 56 71.09375 56 
Q 79.640625 56 84.28125 50.015625 
Q 88.921875 44.046875 88.921875 33.015625 
L 88.921875 0 
L 79.890625 0 
L 79.890625 32.71875 
Q 79.890625 40.578125 77.09375 44.375 
Q 74.3125 48.1875 68.609375 48.1875 
Q 61.625 48.1875 57.5625 43.546875 
Q 53.515625 38.921875 53.515625 30.90625 
L 53.515625 0 
L 44.484375 0 
L 44.484375 32.71875 
Q 44.484375 40.625 41.703125 44.40625 
Q 38.921875 48.1875 33.109375 48.1875 
Q 26.21875 48.1875 22.15625 43.53125 
Q 18.109375 38.875 18.109375 30.90625 
L 18.109375 0 
L 9.078125 0 
L 9.078125 54.6875 
L 18.109375 54.6875 
L 18.109375 46.1875 
Q 21.1875 51.21875 25.484375 53.609375 
Q 29.78125 56 35.6875 56 
Q 41.65625 56 45.828125 52.96875 
Q 50 49.953125 52 44.1875 
z
" id="DejaVuSans-109"/>
      <path d="M 48.6875 27.296875 
Q 48.6875 37.203125 44.609375 42.84375 
Q 40.53125 48.484375 33.40625 48.484375 
Q 26.265625 48.484375 22.1875 42.84375 
Q 18.109375 37.203125 18.109375 27.296875 
Q 18.109375 17.390625 22.1875 11.75 
Q 26.265625 6.109375 33.40625 6.109375 
Q 40.53125 6.109375 44.609375 11.75 
Q 48.6875 17.390625 48.6875 27.296875 
z
M 18.109375 46.390625 
Q 20.953125 51.265625 25.265625 53.625 
Q 29.59375 56 35.59375 56 
Q 45.5625 56 51.78125 48.09375 
Q 58.015625 40.1875 58.015625 27.296875 
Q 58.015625 14.40625 51.78125 6.484375 
Q 45.5625 -1.421875 35.59375 -1.421875 
Q 29.59375 -1.421875 25.265625 0.953125 
Q 20.953125 3.328125 18.109375 8.203125 
L 18.109375 0 
L 9.078125 0 
L 9.078125 75.984375 
L 18.109375 75.984375 
z
" id="DejaVuSans-98"/>
      <path d="M 56.203125 29.59375 
L 56.203125 25.203125 
L 14.890625 25.203125 
Q 15.484375 15.921875 20.484375 11.0625 
Q 25.484375 6.203125 34.421875 6.203125 
Q 39.59375 6.203125 44.453125 7.46875 
Q 49.3125 8.734375 54.109375 11.28125 
L 54.109375 2.78125 
Q 49.265625 0.734375 44.1875 -0.34375 
Q 39.109375 -1.421875 33.890625 -1.421875 
Q 20.796875 -1.421875 13.15625 6.1875 
Q 5.515625 13.8125 5.515625 26.8125 
Q 5.515625 40.234375 12.765625 48.109375 
Q 20.015625 56 32.328125 56 
Q 43.359375 56 49.78125 48.890625 
Q 56.203125 41.796875 56.203125 29.59375 
z
M 47.21875 32.234375 
Q 47.125 39.59375 43.09375 43.984375 
Q 39.0625 48.390625 32.421875 48.390625 
Q 24.90625 48.390625 20.390625 44.140625 
Q 15.875 39.890625 15.1875 32.171875 
z
" id="DejaVuSans-101"/>
      <path d="M 41.109375 46.296875 
Q 39.59375 47.171875 37.8125 47.578125 
Q 36.03125 48 33.890625 48 
Q 26.265625 48 22.1875 43.046875 
Q 18.109375 38.09375 18.109375 28.8125 
L 18.109375 0 
L 9.078125 0 
L 9.078125 54.6875 
L 18.109375 54.6875 
L 18.109375 46.1875 
Q 20.953125 51.171875 25.484375 53.578125 
Q 30.03125 56 36.53125 56 
Q 37.453125 56 38.578125 55.875 
Q 39.703125 55.765625 41.0625 55.515625 
z
" id="DejaVuSans-114"/>
      <path id="DejaVuSans-32"/>
      <path d="M 30.609375 48.390625 
Q 23.390625 48.390625 19.1875 42.75 
Q 14.984375 37.109375 14.984375 27.296875 
Q 14.984375 17.484375 19.15625 11.84375 
Q 23.34375 6.203125 30.609375 6.203125 
Q 37.796875 6.203125 41.984375 11.859375 
Q 46.1875 17.53125 46.1875 27.296875 
Q 46.1875 37.015625 41.984375 42.703125 
Q 37.796875 48.390625 30.609375 48.390625 
z
M 30.609375 56 
Q 42.328125 56 49.015625 48.375 
Q 55.71875 40.765625 55.71875 27.296875 
Q 55.71875 13.875 49.015625 6.21875 
Q 42.328125 -1.421875 30.609375 -1.421875 
Q 18.84375 -1.421875 12.171875 6.21875 
Q 5.515625 13.875 5.515625 27.296875 
Q 5.515625 40.765625 12.171875 48.375 
Q 18.84375 56 30.609375 56 
z
" id="DejaVuSans-111"/>
      <path d="M 37.109375 75.984375 
L 37.109375 68.5 
L 28.515625 68.5 
Q 23.6875 68.5 21.796875 66.546875 
Q 19.921875 64.59375 19.921875 59.515625 
L 19.921875 54.6875 
L 34.71875 54.6875 
L 34.71875 47.703125 
L 19.921875 47.703125 
L 19.921875 0 
L 10.890625 0 
L 10.890625 47.703125 
L 2.296875 47.703125 
L 2.296875 54.6875 
L 10.890625 54.6875 
L 10.890625 58.5 
Q 10.890625 67.625 15.140625 71.796875 
Q 19.390625 75.984375 28.609375 75.984375 
z
" id="DejaVuSans-102"/>
      <path d="M 54.890625 33.015625 
L 54.890625 0 
L 45.90625 0 
L 45.90625 32.71875 
Q 45.90625 40.484375 42.875 44.328125 
Q 39.84375 48.1875 33.796875 48.1875 
Q 26.515625 48.1875 22.3125 43.546875 
Q 18.109375 38.921875 18.109375 30.90625 
L 18.109375 0 
L 9.078125 0 
L 9.078125 54.6875 
L 18.109375 54.6875 
L 18.109375 46.1875 
Q 21.34375 51.125 25.703125 53.5625 
Q 30.078125 56 35.796875 56 
Q 45.21875 56 50.046875 50.171875 
Q 54.890625 44.34375 54.890625 33.015625 
z
" id="DejaVuSans-110"/>
      <path d="M 44.28125 53.078125 
L 44.28125 44.578125 
Q 40.484375 46.53125 36.375 47.5 
Q 32.28125 48.484375 27.875 48.484375 
Q 21.1875 48.484375 17.84375 46.4375 
Q 14.5 44.390625 14.5 40.28125 
Q 14.5 37.15625 16.890625 35.375 
Q 19.28125 33.59375 26.515625 31.984375 
L 29.59375 31.296875 
Q 39.15625 29.25 43.1875 25.515625 
Q 47.21875 21.78125 47.21875 15.09375 
Q 47.21875 7.46875 41.1875 3.015625 
Q 35.15625 -1.421875 24.609375 -1.421875 
Q 20.21875 -1.421875 15.453125 -0.5625 
Q 10.6875 0.296875 5.421875 2 
L 5.421875 11.28125 
Q 10.40625 8.6875 15.234375 7.390625 
Q 20.0625 6.109375 24.8125 6.109375 
Q 31.15625 6.109375 34.5625 8.28125 
Q 37.984375 10.453125 37.984375 14.40625 
Q 37.984375 18.0625 35.515625 20.015625 
Q 33.0625 21.96875 24.703125 23.78125 
L 21.578125 24.515625 
Q 13.234375 26.265625 9.515625 29.90625 
Q 5.8125 33.546875 5.8125 39.890625 
Q 5.8125 47.609375 11.28125 51.796875 
Q 16.75 56 26.8125 56 
Q 31.78125 56 36.171875 55.265625 
Q 40.578125 54.546875 44.28125 53.078125 
z
" id="DejaVuSans-115"/>
      <path d="M 18.109375 8.203125 
L 18.109375 -20.796875 
L 9.078125 -20.796875 
L 9.078125 54.6875 
L 18.109375 54.6875 
L 18.109375 46.390625 
Q 20.953125 51.265625 25.265625 53.625 
Q 29.59375 56 35.59375 56 
Q 45.5625 56 51.78125 48.09375 
Q 58.015625 40.1875 58.015625 27.296875 
Q 58.015625 14.40625 51.78125 6.484375 
Q 45.5625 -1.421875 35.59375 -1.421875 
Q 29.59375 -1.421875 25.265625 0.953125 
Q 20.953125 3.328125 18.109375 8.203125 
z
M 48.6875 27.296875 
Q 48.6875 37.203125 44.609375 42.84375 
Q 40.53125 48.484375 33.40625 48.484375 
Q 26.265625 48.484375 22.1875 42.84375 
Q 18.109375 37.203125 18.109375 27.296875 
Q 18.109375 17.390625 22.1875 11.75 
Q 26.265625 6.109375 33.40625 6.109375 
Q 40.53125 6.109375 44.609375 11.75 
Q 48.6875 17.390625 48.6875 27.296875 
z
" id="DejaVuSans-112"/>
      <path d="M 45.40625 46.390625 
L 45.40625 75.984375 
L 54.390625 75.984375 
L 54.390625 0 
L 45.40625 0 
L 45.40625 8.203125 
Q 42.578125 3.328125 38.25 0.953125 
Q 33.9375 -1.421875 27.875 -1.421875 
Q 17.96875 -1.421875 11.734375 6.484375 
Q 5.515625 14.40625 5.515625 27.296875 
Q 5.515625 40.1875 11.734375 48.09375 
Q 17.96875 56 27.875 56 
Q 33.9375 56 38.25 53.625 
Q 42.578125 51.265625 45.40625 46.390625 
z
M 14.796875 27.296875 
Q 14.796875 17.390625 18.875 11.75 
Q 22.953125 6.109375 30.078125 6.109375 
Q 37.203125 6.109375 41.296875 11.75 
Q 45.40625 17.390625 45.40625 27.296875 
Q 45.40625 37.203125 41.296875 42.84375 
Q 37.203125 48.484375 30.078125 48.484375 
Q 22.953125 48.484375 18.875 42.84375 
Q 14.796875 37.203125 14.796875 27.296875 
z
" id="DejaVuSans-100"/>
     </defs>
     <g transform="translate(522.147656 532.276562)scale(0.1 -0.1)">
      <use xlink:href="#DejaVuSans-78"/>
      <use x="74.804688" xlink:href="#DejaVuSans-117"/>
      <use x="138.183594" xlink:href="#DejaVuSans-109"/>
      <use x="235.595703" xlink:href="#DejaVuSans-98"/>
      <use x="299.072266" xlink:href="#DejaVuSans-101"/>
      <use x="360.595703" xlink:href="#DejaVuSans-114"/>
      <use x="401.708984" xlink:href="#DejaVuSans-32"/>
      <use x="433.496094" xlink:href="#DejaVuSans-111"/>
      <use x="494.677734" xlink:href="#DejaVuSans-102"/>
      <use x="529.882812" xlink:href="#DejaVuSans-32"/>
      <use x="561.669922" xlink:href="#DejaVuSans-78"/>
      <use x="636.474609" xlink:href="#DejaVuSans-101"/>
      <use x="697.998047" xlink:href="#DejaVuSans-117"/>
      <use x="761.376953" xlink:href="#DejaVuSans-114"/>
      <use x="800.240234" xlink:href="#DejaVuSans-111"/>
      <use x="861.421875" xlink:href="#DejaVuSans-110"/>
      <use x="924.800781" xlink:href="#DejaVuSans-115"/>
      <use x="976.900391" xlink:href="#DejaVuSans-32"/>
      <use x="1008.6875" xlink:href="#DejaVuSans-112"/>
      <use x="1072.164062" xlink:href="#DejaVuSans-114"/>
      <use x="1113.277344" xlink:href="#DejaVuSans-117"/>
      <use x="1176.65625" xlink:href="#DejaVuSans-110"/>
      <use x="1240.035156" xlink:href="#DejaVuSans-101"/>
      <use x="1301.558594" xlink:href="#DejaVuSans-100"/>
     </g>
    </g>
   </g>
   <g id="matplotlib.axis_2">
    <g id="ytick_1">
     <g id="line2d_10">
      <defs>
       <path d="M 0 0 
L -3.5 0 
" id="m9ec3d5dc34" style="stroke:#000000;stroke-width:0.8;"/>
      </defs>
      <g>
       <use style="stroke:#000000;stroke-width:0.8;" x="144" xlink:href="#m9ec3d5dc34" y="484.232727"/>
      </g>
     </g>
     <g id="text_11">
      <!-- 0 -->
      <g transform="translate(130.6375 488.031946)scale(0.1 -0.1)">
       <use xlink:href="#DejaVuSans-48"/>
      </g>
     </g>
    </g>
    <g id="ytick_2">
     <g id="line2d_11">
      <g>
       <use style="stroke:#000000;stroke-width:0.8;" x="144" xlink:href="#m9ec3d5dc34" y="426.008191"/>
      </g>
     </g>
     <g id="text_12">
      <!-- 5 -->
      <g transform="translate(130.6375 429.80741)scale(0.1 -0.1)">
       <use xlink:href="#DejaVuSans-53"/>
      </g>
     </g>
    </g>
    <g id="ytick_3">
     <g id="line2d_12">
      <g>
       <use style="stroke:#000000;stroke-width:0.8;" x="144" xlink:href="#m9ec3d5dc34" y="367.783655"/>
      </g>
     </g>
     <g id="text_13">
      <!-- 10 -->
      <g transform="translate(124.275 371.582873)scale(0.1 -0.1)">
       <use xlink:href="#DejaVuSans-49"/>
       <use x="63.623047" xlink:href="#DejaVuSans-48"/>
      </g>
     </g>
    </g>
    <g id="ytick_4">
     <g id="line2d_13">
      <g>
       <use style="stroke:#000000;stroke-width:0.8;" x="144" xlink:href="#m9ec3d5dc34" y="309.559118"/>
      </g>
     </g>
     <g id="text_14">
      <!-- 15 -->
      <g transform="translate(124.275 313.358337)scale(0.1 -0.1)">
       <use xlink:href="#DejaVuSans-49"/>
       <use x="63.623047" xlink:href="#DejaVuSans-53"/>
      </g>
     </g>
    </g>
    <g id="ytick_5">
     <g id="line2d_14">
      <g>
       <use style="stroke:#000000;stroke-width:0.8;" x="144" xlink:href="#m9ec3d5dc34" y="251.334582"/>
      </g>
     </g>
     <g id="text_15">
      <!-- 20 -->
      <g transform="translate(124.275 255.133801)scale(0.1 -0.1)">
       <use xlink:href="#DejaVuSans-50"/>
       <use x="63.623047" xlink:href="#DejaVuSans-48"/>
      </g>
     </g>
    </g>
    <g id="ytick_6">
     <g id="line2d_15">
      <g>
       <use style="stroke:#000000;stroke-width:0.8;" x="144" xlink:href="#m9ec3d5dc34" y="193.110046"/>
      </g>
     </g>
     <g id="text_16">
      <!-- 25 -->
      <g transform="translate(124.275 196.909264)scale(0.1 -0.1)">
       <use xlink:href="#DejaVuSans-50"/>
       <use x="63.623047" xlink:href="#DejaVuSans-53"/>
      </g>
     </g>
    </g>
    <g id="ytick_7">
     <g id="line2d_16">
      <g>
       <use style="stroke:#000000;stroke-width:0.8;" x="144" xlink:href="#m9ec3d5dc34" y="134.885509"/>
      </g>
     </g>
     <g id="text_17">
      <!-- 30 -->
      <g transform="translate(124.275 138.684728)scale(0.1 -0.1)">
       <use xlink:href="#DejaVuSans-51"/>
       <use x="63.623047" xlink:href="#DejaVuSans-48"/>
      </g>
     </g>
    </g>
    <g id="ytick_8">
     <g id="line2d_17">
      <g>
       <use style="stroke:#000000;stroke-width:0.8;" x="144" xlink:href="#m9ec3d5dc34" y="76.660973"/>
      </g>
     </g>
     <g id="text_18">
      <!-- 35 -->
      <g transform="translate(124.275 80.460192)scale(0.1 -0.1)">
       <use xlink:href="#DejaVuSans-51"/>
       <use x="63.623047" xlink:href="#DejaVuSans-53"/>
      </g>
     </g>
    </g>
    <g id="text_19">
     <!-- Squared Deviation -->
     <defs>
      <path d="M 53.515625 70.515625 
L 53.515625 60.890625 
Q 47.90625 63.578125 42.921875 64.890625 
Q 37.9375 66.21875 33.296875 66.21875 
Q 25.25 66.21875 20.875 63.09375 
Q 16.5 59.96875 16.5 54.203125 
Q 16.5 49.359375 19.40625 46.890625 
Q 22.3125 44.4375 30.421875 42.921875 
L 36.375 41.703125 
Q 47.40625 39.59375 52.65625 34.296875 
Q 57.90625 29 57.90625 20.125 
Q 57.90625 9.515625 50.796875 4.046875 
Q 43.703125 -1.421875 29.984375 -1.421875 
Q 24.8125 -1.421875 18.96875 -0.25 
Q 13.140625 0.921875 6.890625 3.21875 
L 6.890625 13.375 
Q 12.890625 10.015625 18.65625 8.296875 
Q 24.421875 6.59375 29.984375 6.59375 
Q 38.421875 6.59375 43.015625 9.90625 
Q 47.609375 13.234375 47.609375 19.390625 
Q 47.609375 24.75 44.3125 27.78125 
Q 41.015625 30.8125 33.5 32.328125 
L 27.484375 33.5 
Q 16.453125 35.6875 11.515625 40.375 
Q 6.59375 45.0625 6.59375 53.421875 
Q 6.59375 63.09375 13.40625 68.65625 
Q 20.21875 74.21875 32.171875 74.21875 
Q 37.3125 74.21875 42.625 73.28125 
Q 47.953125 72.359375 53.515625 70.515625 
z
" id="DejaVuSans-83"/>
      <path d="M 14.796875 27.296875 
Q 14.796875 17.390625 18.875 11.75 
Q 22.953125 6.109375 30.078125 6.109375 
Q 37.203125 6.109375 41.296875 11.75 
Q 45.40625 17.390625 45.40625 27.296875 
Q 45.40625 37.203125 41.296875 42.84375 
Q 37.203125 48.484375 30.078125 48.484375 
Q 22.953125 48.484375 18.875 42.84375 
Q 14.796875 37.203125 14.796875 27.296875 
z
M 45.40625 8.203125 
Q 42.578125 3.328125 38.25 0.953125 
Q 33.9375 -1.421875 27.875 -1.421875 
Q 17.96875 -1.421875 11.734375 6.484375 
Q 5.515625 14.40625 5.515625 27.296875 
Q 5.515625 40.1875 11.734375 48.09375 
Q 17.96875 56 27.875 56 
Q 33.9375 56 38.25 53.625 
Q 42.578125 51.265625 45.40625 46.390625 
L 45.40625 54.6875 
L 54.390625 54.6875 
L 54.390625 -20.796875 
L 45.40625 -20.796875 
z
" id="DejaVuSans-113"/>
      <path d="M 34.28125 27.484375 
Q 23.390625 27.484375 19.1875 25 
Q 14.984375 22.515625 14.984375 16.5 
Q 14.984375 11.71875 18.140625 8.90625 
Q 21.296875 6.109375 26.703125 6.109375 
Q 34.1875 6.109375 38.703125 11.40625 
Q 43.21875 16.703125 43.21875 25.484375 
L 43.21875 27.484375 
z
M 52.203125 31.203125 
L 52.203125 0 
L 43.21875 0 
L 43.21875 8.296875 
Q 40.140625 3.328125 35.546875 0.953125 
Q 30.953125 -1.421875 24.3125 -1.421875 
Q 15.921875 -1.421875 10.953125 3.296875 
Q 6 8.015625 6 15.921875 
Q 6 25.140625 12.171875 29.828125 
Q 18.359375 34.515625 30.609375 34.515625 
L 43.21875 34.515625 
L 43.21875 35.40625 
Q 43.21875 41.609375 39.140625 45 
Q 35.0625 48.390625 27.6875 48.390625 
Q 23 48.390625 18.546875 47.265625 
Q 14.109375 46.140625 10.015625 43.890625 
L 10.015625 52.203125 
Q 14.9375 54.109375 19.578125 55.046875 
Q 24.21875 56 28.609375 56 
Q 40.484375 56 46.34375 49.84375 
Q 52.203125 43.703125 52.203125 31.203125 
z
" id="DejaVuSans-97"/>
      <path d="M 19.671875 64.796875 
L 19.671875 8.109375 
L 31.59375 8.109375 
Q 46.6875 8.109375 53.6875 14.9375 
Q 60.6875 21.78125 60.6875 36.53125 
Q 60.6875 51.171875 53.6875 57.984375 
Q 46.6875 64.796875 31.59375 64.796875 
z
M 9.8125 72.90625 
L 30.078125 72.90625 
Q 51.265625 72.90625 61.171875 64.09375 
Q 71.09375 55.28125 71.09375 36.53125 
Q 71.09375 17.671875 61.125 8.828125 
Q 51.171875 0 30.078125 0 
L 9.8125 0 
z
" id="DejaVuSans-68"/>
      <path d="M 2.984375 54.6875 
L 12.5 54.6875 
L 29.59375 8.796875 
L 46.6875 54.6875 
L 56.203125 54.6875 
L 35.6875 0 
L 23.484375 0 
z
" id="DejaVuSans-118"/>
      <path d="M 9.421875 54.6875 
L 18.40625 54.6875 
L 18.40625 0 
L 9.421875 0 
z
M 9.421875 75.984375 
L 18.40625 75.984375 
L 18.40625 64.59375 
L 9.421875 64.59375 
z
" id="DejaVuSans-105"/>
      <path d="M 18.3125 70.21875 
L 18.3125 54.6875 
L 36.8125 54.6875 
L 36.8125 47.703125 
L 18.3125 47.703125 
L 18.3125 18.015625 
Q 18.3125 11.328125 20.140625 9.421875 
Q 21.96875 7.515625 27.59375 7.515625 
L 36.8125 7.515625 
L 36.8125 0 
L 27.59375 0 
Q 17.1875 0 13.234375 3.875 
Q 9.28125 7.765625 9.28125 18.015625 
L 9.28125 47.703125 
L 2.6875 47.703125 
L 2.6875 54.6875 
L 9.28125 54.6875 
L 9.28125 70.21875 
z
" id="DejaVuSans-116"/>
     </defs>
     <g transform="translate(118.195312 332.840469)rotate(-90)scale(0.1 -0.1)">
      <use xlink:href="#DejaVuSans-83"/>
      <use x="63.476562" xlink:href="#DejaVuSans-113"/>
      <use x="126.953125" xlink:href="#DejaVuSans-117"/>
      <use x="190.332031" xlink:href="#DejaVuSans-97"/>
      <use x="251.611328" xlink:href="#DejaVuSans-114"/>
      <use x="290.474609" xlink:href="#DejaVuSans-101"/>
      <use x="351.998047" xlink:href="#DejaVuSans-100"/>
      <use x="415.474609" xlink:href="#DejaVuSans-32"/>
      <use x="447.261719" xlink:href="#DejaVuSans-68"/>
      <use x="524.263672" xlink:href="#DejaVuSans-101"/>
      <use x="585.787109" xlink:href="#DejaVuSans-118"/>
      <use x="644.966797" xlink:href="#DejaVuSans-105"/>
      <use x="672.75" xlink:href="#DejaVuSans-97"/>
      <use x="734.029297" xlink:href="#DejaVuSans-116"/>
      <use x="773.238281" xlink:href="#DejaVuSans-105"/>
      <use x="801.021484" xlink:href="#DejaVuSans-111"/>
      <use x="862.203125" xlink:href="#DejaVuSans-110"/>
     </g>
    </g>
   </g>
   <g id="line2d_18">
    <path clip-path="url(#p25183edaab)" d="M 184.581818 484.232727 
L 247.641285 484.232727 
L 249.675461 481.537002 
L 251.709638 480.29802 
L 253.743814 480.732873 
L 255.77799 476.92371 
L 259.846343 474.145182 
L 261.880519 467.395388 
L 263.914696 462.07109 
L 265.948872 459.127505 
L 267.983049 455.090025 
L 270.017225 456.680067 
L 274.085578 446.2298 
L 276.119754 437.924132 
L 278.15393 433.082423 
L 280.188107 424.37579 
L 282.222283 422.464886 
L 284.256459 418.115582 
L 286.290636 418.671937 
L 288.324812 401.981641 
L 290.358988 406.479281 
L 292.393165 411.750605 
L 294.427341 400.046722 
L 296.461517 397.722923 
L 298.495694 393.032337 
L 300.52987 385.990816 
L 302.564046 382.677783 
L 304.598223 374.779277 
L 306.632399 370.637277 
L 308.666576 363.29089 
L 310.700752 358.708682 
L 312.734928 342.638009 
L 314.769105 340.68275 
L 316.803281 340.747361 
L 318.837457 332.089165 
L 320.871634 331.040999 
L 322.90581 332.847223 
L 324.939986 325.973105 
L 326.974163 332.883404 
L 329.008339 319.389462 
L 331.042515 304.191355 
L 333.076692 296.870588 
L 335.110868 290.636077 
L 337.145044 288.187948 
L 339.179221 285.08553 
L 341.213397 274.897124 
L 343.247573 273.089801 
L 345.28175 281.123483 
L 347.315926 278.097692 
L 349.350103 281.351233 
L 351.384279 285.59005 
L 353.418455 290.189616 
L 355.452632 288.761966 
L 357.486808 281.762801 
L 359.520984 279.074839 
L 361.555161 269.953978 
L 363.589337 265.240581 
L 365.623513 261.11002 
L 367.65769 239.00227 
L 369.691866 240.015553 
L 371.726042 236.219444 
L 373.760219 222.815078 
L 375.794395 228.843382 
L 377.828571 227.305411 
L 379.862748 211.717026 
L 381.896924 202.255094 
L 383.9311 195.632226 
L 385.965277 190.599637 
L 387.999453 189.392585 
L 390.03363 191.450714 
L 392.067806 180.122379 
L 394.101982 184.484577 
L 396.136159 184.394267 
L 398.170335 185.254917 
L 400.204511 181.536813 
L 402.238688 169.521583 
L 404.272864 171.4502 
L 406.30704 163.296468 
L 408.341217 157.648126 
L 410.375393 154.888089 
L 412.409569 149.564914 
L 414.443746 145.849342 
L 416.477922 133.947321 
L 418.512098 138.240399 
L 420.546275 130.73316 
L 422.580451 146.06552 
L 424.614627 141.270498 
L 426.648804 131.723521 
L 428.68298 134.165787 
L 430.717157 136.077057 
L 432.751333 140.840207 
L 434.785509 140.744056 
L 436.819686 136.92136 
L 438.853862 135.826807 
L 440.888038 133.923644 
L 442.922215 131.748575 
L 444.956391 119.279044 
L 446.990567 126.955552 
L 449.024744 124.445699 
L 451.05892 124.96901 
L 453.093096 121.793917 
L 455.127273 120.567543 
L 457.161449 122.008963 
L 459.195625 121.793806 
L 461.229802 120.415887 
L 463.263978 127.2112 
L 465.298154 122.859085 
L 467.332331 124.655458 
L 469.366507 121.624137 
L 471.400684 122.131079 
L 473.43486 114.071988 
L 475.469036 113.926529 
L 477.503213 113.397776 
L 479.537389 113.350511 
L 481.571565 105.840718 
L 483.605742 102.29617 
L 485.639918 106.160022 
L 487.674094 100.476297 
L 489.708271 94.435422 
L 491.742447 95.936257 
L 493.776623 100.238552 
L 495.8108 96.214381 
L 497.844976 96.022124 
L 499.879152 94.171867 
L 501.913329 90.740061 
L 503.947505 92.171376 
L 505.981681 91.604243 
L 508.015858 91.972455 
L 510.050034 94.785421 
L 512.084211 94.781556 
L 514.118387 92.439328 
L 516.152563 93.904359 
L 518.18674 99.906144 
L 520.220916 98.557498 
L 522.255092 95.054928 
L 524.289269 88.887273 
L 526.323445 96.314153 
L 528.357621 94.568376 
L 530.391798 95.677011 
L 532.425974 104.848113 
L 534.46015 99.022594 
L 536.494327 98.275819 
L 538.528503 90.944713 
L 540.562679 96.474027 
L 542.596856 98.832469 
L 544.631032 104.170547 
L 546.665208 103.495825 
L 548.699385 105.600485 
L 550.733561 106.705521 
L 552.767738 106.705521 
L 554.801914 106.261748 
L 556.83609 106.775708 
L 558.870267 109.025494 
L 560.904443 110.611708 
L 562.938619 105.545002 
L 564.972796 108.757986 
L 567.006972 107.34826 
L 571.075325 105.027577 
L 573.109501 104.993417 
L 575.143677 102.28884 
L 577.177854 102.908702 
L 579.21203 107.476417 
L 581.246206 105.833877 
L 583.280383 110.711523 
L 585.314559 107.427065 
L 587.348735 118.81648 
L 589.382912 117.532268 
L 591.417088 123.490697 
L 593.451265 121.419109 
L 595.485441 119.854506 
L 597.519617 120.308497 
L 599.553794 123.447252 
L 601.58797 122.878609 
L 603.622146 122.519969 
L 605.656323 122.661231 
L 607.690499 121.283089 
L 609.724675 121.487896 
L 613.793028 124.380799 
L 615.827204 122.099317 
L 619.895557 122.060271 
L 621.929733 120.943062 
L 623.96391 119.639927 
L 625.998086 119.174675 
L 628.032262 118.998209 
L 630.066439 119.55879 
L 632.100615 121.639263 
L 634.134792 121.731549 
L 636.168968 121.547621 
L 638.203144 121.522745 
L 640.237321 120.743075 
L 642.271497 120.104867 
L 644.305673 120.227205 
L 646.33985 121.635309 
L 648.374026 121.741833 
L 650.408202 122.440432 
L 652.442379 122.128502 
L 654.476555 121.939021 
L 656.510731 121.352964 
L 658.544908 121.158175 
L 660.579084 120.602303 
L 662.61326 120.298013 
L 664.647437 119.491025 
L 666.681613 118.911654 
L 668.715789 118.185424 
L 672.784142 117.45282 
L 674.818319 117.348206 
L 676.852495 116.023082 
L 678.886671 116.064394 
L 680.920848 116.282416 
L 682.955024 115.876779 
L 684.9892 115.721414 
L 687.023377 114.331433 
L 689.057553 115.038695 
L 691.091729 114.873202 
L 693.125906 114.511741 
L 695.160082 114.453171 
L 697.194258 114.74118 
L 699.228435 114.344782 
L 701.262611 114.076919 
L 703.296787 114.57482 
L 709.399316 113.967286 
L 713.467669 113.523356 
L 715.501846 113.667949 
L 717.536022 114.247698 
L 719.570198 113.783624 
L 721.604375 114.058906 
L 723.638551 113.733583 
L 727.706904 113.712549 
L 729.74108 113.315485 
L 731.775256 113.151457 
L 733.809433 113.184907 
L 750.082843 112.228328 
L 752.11702 112.2397 
L 754.151196 111.932079 
L 762.287902 111.687692 
L 768.390431 111.588765 
L 770.424607 111.591297 
L 772.458783 111.41894 
L 786.698018 111.625035 
L 996.218182 111.625035 
L 996.218182 111.625035 
" style="fill:none;stroke:#1f77b4;stroke-linecap:square;stroke-width:1.5;"/>
   </g>
   <g id="line2d_19">
    <path clip-path="url(#p25183edaab)" d="M 184.581818 484.232727 
L 249.675461 484.183361 
L 251.709638 484.01537 
L 257.812167 482.874527 
L 259.846343 482.257066 
L 261.880519 481.297977 
L 263.914696 479.954895 
L 265.948872 479.514838 
L 267.983049 478.765398 
L 270.017225 478.348329 
L 272.051401 476.999299 
L 274.085578 475.027626 
L 276.119754 473.783218 
L 278.15393 473.212026 
L 280.188107 471.998386 
L 282.222283 471.516976 
L 284.256459 469.212335 
L 286.290636 469.601897 
L 288.324812 468.474101 
L 290.358988 467.743879 
L 294.427341 465.132704 
L 296.461517 464.761991 
L 298.495694 464.597966 
L 300.52987 462.535924 
L 302.564046 461.237228 
L 304.598223 457.72457 
L 306.632399 455.551067 
L 308.666576 452.068951 
L 310.700752 451.822016 
L 312.734928 448.888309 
L 314.769105 443.682457 
L 316.803281 445.351426 
L 318.837457 439.261828 
L 320.871634 436.463044 
L 322.90581 433.451352 
L 324.939986 428.939419 
L 326.974163 429.738145 
L 329.008339 426.950266 
L 331.042515 422.008297 
L 333.076692 413.278453 
L 335.110868 412.79103 
L 337.145044 411.30928 
L 339.179221 406.417102 
L 341.213397 406.940385 
L 343.247573 401.442183 
L 345.28175 399.006913 
L 347.315926 395.934269 
L 349.350103 386.014859 
L 351.384279 380.73132 
L 353.418455 375.923693 
L 355.452632 364.960994 
L 357.486808 363.614825 
L 359.520984 354.393915 
L 361.555161 353.62665 
L 363.589337 354.822896 
L 365.623513 357.680939 
L 367.65769 356.167466 
L 369.691866 353.528034 
L 371.726042 346.144998 
L 373.760219 342.364692 
L 375.794395 338.971867 
L 377.828571 331.172121 
L 379.862748 332.769162 
L 381.896924 323.170656 
L 383.9311 322.4307 
L 385.965277 317.384695 
L 387.999453 318.461713 
L 390.03363 311.383255 
L 392.067806 309.920501 
L 394.101982 300.310078 
L 396.136159 295.908345 
L 398.170335 287.941385 
L 400.204511 288.531617 
L 402.238688 278.025418 
L 404.272864 308.934681 
L 406.30704 303.528804 
L 408.341217 315.8058 
L 410.375393 317.10938 
L 412.409569 314.865591 
L 414.443746 318.827493 
L 416.477922 313.43683 
L 418.512098 311.874982 
L 420.546275 311.219916 
L 422.580451 310.859544 
L 424.614627 309.593356 
L 426.648804 306.391822 
L 428.68298 300.078141 
L 430.717157 296.888245 
L 432.751333 289.858341 
L 434.785509 280.326933 
L 436.819686 276.234198 
L 438.853862 275.747668 
L 440.888038 274.151504 
L 442.922215 270.667836 
L 444.956391 268.232655 
L 446.990567 271.170158 
L 449.024744 271.986164 
L 451.05892 269.036379 
L 453.093096 263.1988 
L 455.127273 267.459894 
L 457.161449 279.916876 
L 459.195625 276.178426 
L 461.229802 271.784578 
L 463.263978 276.501062 
L 465.298154 275.290834 
L 467.332331 272.889126 
L 469.366507 269.994335 
L 473.43486 261.063399 
L 477.503213 262.467128 
L 479.537389 260.622313 
L 481.571565 263.835964 
L 483.605742 262.06098 
L 485.639918 262.657853 
L 487.674094 258.760463 
L 489.708271 254.615976 
L 493.776623 250.285095 
L 495.8108 254.405949 
L 497.844976 247.428951 
L 499.879152 247.781749 
L 501.913329 244.343768 
L 503.947505 242.797535 
L 505.981681 248.956883 
L 508.015858 240.261028 
L 510.050034 235.467783 
L 512.084211 235.466384 
L 514.118387 234.852052 
L 516.152563 232.062963 
L 518.18674 233.567863 
L 520.220916 232.766271 
L 522.255092 230.139255 
L 524.289269 227.752894 
L 526.323445 227.696589 
L 528.357621 222.156881 
L 530.391798 223.485003 
L 532.425974 224.274312 
L 534.46015 221.421833 
L 536.494327 221.310179 
L 538.528503 219.808678 
L 540.562679 216.346332 
L 542.596856 215.114582 
L 544.631032 211.201111 
L 546.665208 204.575711 
L 550.733561 199.464895 
L 552.767738 197.479418 
L 554.801914 195.963502 
L 556.83609 196.850583 
L 558.870267 196.040862 
L 560.904443 195.557775 
L 562.938619 187.731232 
L 564.972796 184.898832 
L 567.006972 183.139174 
L 569.041148 181.818247 
L 571.075325 178.843742 
L 573.109501 180.470312 
L 575.143677 179.167865 
L 577.177854 176.849336 
L 579.21203 174.309031 
L 581.246206 173.559858 
L 583.280383 176.968698 
L 585.314559 178.273854 
L 587.348735 175.025777 
L 589.382912 172.896307 
L 591.417088 172.726616 
L 593.451265 171.530937 
L 595.485441 166.619552 
L 597.519617 165.035071 
L 599.553794 161.922413 
L 601.58797 161.925612 
L 603.622146 160.987379 
L 605.656323 160.899268 
L 607.690499 160.281383 
L 609.724675 159.103073 
L 611.758852 158.906751 
L 613.793028 158.884185 
L 615.827204 158.353411 
L 617.861381 158.186007 
L 619.895557 158.600951 
L 621.929733 157.812975 
L 623.96391 158.59089 
L 625.998086 157.146804 
L 628.032262 157.135521 
L 630.066439 154.874651 
L 634.134792 148.742866 
L 636.168968 148.249007 
L 638.203144 148.164272 
L 640.237321 145.223705 
L 642.271497 144.24436 
L 644.305673 144.063252 
L 646.33985 143.63627 
L 648.374026 142.374202 
L 650.408202 142.85458 
L 652.442379 139.465641 
L 654.476555 133.071345 
L 656.510731 129.332518 
L 658.544908 128.065942 
L 662.61326 126.164956 
L 664.647437 125.753032 
L 666.681613 124.97072 
L 670.749966 125.059297 
L 672.784142 123.209551 
L 676.852495 123.721779 
L 678.886671 122.407294 
L 680.920848 119.211456 
L 682.955024 119.131164 
L 684.9892 118.863212 
L 687.023377 118.470878 
L 689.057553 118.852417 
L 691.091729 119.105688 
L 693.125906 118.290504 
L 695.160082 117.965803 
L 697.194258 118.020508 
L 699.228435 116.883488 
L 703.296787 116.84313 
L 705.330964 116.893438 
L 707.36514 116.507946 
L 709.399316 114.852146 
L 711.433493 114.164674 
L 713.467669 113.943453 
L 715.501846 112.411923 
L 717.536022 112.398019 
L 719.570198 112.641673 
L 721.604375 112.724319 
L 723.638551 113.105347 
L 727.706904 113.027942 
L 739.911962 113.081937 
L 741.946138 112.66626 
L 743.980314 112.811964 
L 746.014491 112.811964 
L 750.082843 112.126624 
L 760.253725 112.015303 
L 762.287902 112.308665 
L 766.356254 112.315705 
L 770.424607 112.295782 
L 772.458783 112.291873 
L 774.49296 112.053106 
L 780.595489 112.098594 
L 786.698018 112.031362 
L 788.732194 111.801856 
L 790.76637 111.86729 
L 792.800547 111.625035 
L 996.218182 111.625035 
L 996.218182 111.625035 
" style="fill:none;stroke:#ff7f0e;stroke-linecap:square;stroke-width:1.5;"/>
   </g>
   <g id="line2d_20">
    <path clip-path="url(#p25183edaab)" d="M 184.581818 484.232727 
L 249.675461 484.183361 
L 251.709638 483.897603 
L 255.77799 482.910561 
L 257.812167 482.796251 
L 259.846343 482.273466 
L 261.880519 482.235192 
L 263.914696 481.829551 
L 265.948872 480.793006 
L 267.983049 479.255117 
L 270.017225 478.704773 
L 272.051401 478.025126 
L 276.119754 475.125026 
L 278.15393 475.30948 
L 280.188107 474.109421 
L 282.222283 473.192023 
L 284.256459 472.797004 
L 286.290636 471.595111 
L 288.324812 471.390653 
L 290.358988 470.401896 
L 292.393165 469.873348 
L 294.427341 467.414218 
L 296.461517 466.561636 
L 298.495694 465.107359 
L 300.52987 463.070296 
L 302.564046 462.42816 
L 304.598223 460.193903 
L 306.632399 456.978914 
L 308.666576 452.776374 
L 310.700752 453.452546 
L 312.734928 449.541909 
L 314.769105 447.589188 
L 316.803281 444.350531 
L 318.837457 446.804971 
L 320.871634 443.816767 
L 322.90581 438.287838 
L 324.939986 435.704892 
L 326.974163 434.01718 
L 329.008339 434.951337 
L 331.042515 432.838547 
L 333.076692 429.856579 
L 335.110868 427.767599 
L 337.145044 427.615549 
L 339.179221 421.758935 
L 341.213397 423.234927 
L 343.247573 420.379577 
L 345.28175 422.11095 
L 347.315926 421.925195 
L 351.384279 407.460847 
L 353.418455 404.555584 
L 355.452632 400.556007 
L 357.486808 399.982144 
L 359.520984 399.778997 
L 361.555161 402.758573 
L 365.623513 394.686299 
L 367.65769 397.126455 
L 369.691866 395.446706 
L 371.726042 389.541439 
L 373.760219 386.253527 
L 375.794395 382.471799 
L 377.828571 376.924428 
L 379.862748 369.235692 
L 381.896924 360.438722 
L 383.9311 360.902519 
L 385.965277 353.852569 
L 387.999453 353.610703 
L 390.03363 351.353632 
L 392.067806 349.414609 
L 394.101982 345.515264 
L 396.136159 346.998663 
L 398.170335 341.36086 
L 400.204511 349.545609 
L 402.238688 346.947211 
L 404.272864 350.945284 
L 406.30704 343.433692 
L 408.341217 340.558935 
L 410.375393 333.766632 
L 412.409569 328.45665 
L 414.443746 329.843798 
L 416.477922 325.87651 
L 418.512098 320.978274 
L 420.546275 316.810421 
L 422.580451 309.578842 
L 424.614627 299.466397 
L 426.648804 294.832649 
L 428.68298 292.287702 
L 430.717157 284.500805 
L 432.751333 282.001013 
L 434.785509 286.00073 
L 436.819686 286.406212 
L 438.853862 285.325163 
L 440.888038 284.719183 
L 442.922215 276.677972 
L 444.956391 270.563889 
L 446.990567 286.57366 
L 449.024744 284.997574 
L 451.05892 287.702284 
L 453.093096 285.169909 
L 455.127273 283.245823 
L 457.161449 280.690393 
L 459.195625 284.316899 
L 461.229802 279.856418 
L 463.263978 273.999249 
L 465.298154 273.596476 
L 467.332331 269.654486 
L 469.366507 261.426748 
L 471.400684 258.556877 
L 473.43486 257.739361 
L 475.469036 255.646539 
L 477.503213 251.366721 
L 479.537389 260.501219 
L 481.571565 257.479738 
L 483.605742 256.053954 
L 485.639918 250.998087 
L 487.674094 249.608062 
L 489.708271 252.147234 
L 491.742447 250.864755 
L 493.776623 257.705889 
L 495.8108 252.956466 
L 497.844976 251.89574 
L 499.879152 247.728087 
L 501.913329 246.624717 
L 503.947505 244.288397 
L 505.981681 244.996902 
L 508.015858 244.044588 
L 510.050034 238.379409 
L 512.084211 238.071144 
L 514.118387 237.379008 
L 516.152563 232.471155 
L 518.18674 230.251043 
L 520.220916 226.42104 
L 522.255092 228.228829 
L 524.289269 222.864431 
L 526.323445 220.07452 
L 528.357621 213.955884 
L 530.391798 210.368846 
L 532.425974 207.42588 
L 534.46015 205.036898 
L 536.494327 204.047669 
L 538.528503 203.627061 
L 540.562679 200.259178 
L 542.596856 197.873239 
L 544.631032 194.197047 
L 546.665208 193.065602 
L 548.699385 191.073506 
L 550.733561 188.806595 
L 552.767738 189.972867 
L 554.801914 188.325219 
L 556.83609 188.049781 
L 558.870267 185.904675 
L 560.904443 184.454859 
L 562.938619 183.666794 
L 564.972796 183.204851 
L 567.006972 183.821248 
L 569.041148 182.292739 
L 571.075325 182.829798 
L 573.109501 179.377003 
L 575.143677 177.58796 
L 577.177854 174.859617 
L 579.21203 174.952725 
L 581.246206 180.60169 
L 583.280383 180.334071 
L 585.314559 178.806072 
L 587.348735 179.290358 
L 589.382912 179.299154 
L 591.417088 173.225984 
L 593.451265 168.709753 
L 595.485441 168.960092 
L 597.519617 167.902964 
L 599.553794 166.134621 
L 603.622146 164.794749 
L 605.656323 163.52282 
L 607.690499 163.484306 
L 609.724675 164.37714 
L 611.758852 163.447569 
L 613.793028 159.89096 
L 615.827204 159.756917 
L 617.861381 159.318852 
L 619.895557 158.603772 
L 621.929733 157.248108 
L 623.96391 156.12699 
L 625.998086 154.755601 
L 628.032262 155.053049 
L 630.066439 151.650673 
L 632.100615 150.249409 
L 634.134792 150.53191 
L 636.168968 145.636939 
L 638.203144 145.750903 
L 640.237321 145.233367 
L 642.271497 138.323245 
L 644.305673 137.833229 
L 646.33985 136.477364 
L 648.374026 134.933885 
L 650.408202 130.407104 
L 652.442379 129.761277 
L 654.476555 130.103992 
L 656.510731 130.026631 
L 658.544908 131.299804 
L 660.579084 129.817715 
L 662.61326 126.838035 
L 664.647437 126.081531 
L 666.681613 124.327381 
L 670.749966 124.453584 
L 672.784142 123.592512 
L 674.818319 123.729842 
L 676.852495 123.496627 
L 678.886671 122.269186 
L 680.920848 122.26119 
L 682.955024 121.933269 
L 684.9892 120.500022 
L 687.023377 117.449932 
L 689.057553 115.708687 
L 691.091729 115.553099 
L 693.125906 115.535397 
L 695.160082 114.774452 
L 697.194258 114.842217 
L 699.228435 113.989497 
L 701.262611 114.453038 
L 703.296787 114.33512 
L 711.433493 114.244833 
L 715.501846 114.020792 
L 719.570198 114.021947 
L 721.604375 113.883795 
L 723.638551 113.239612 
L 725.672727 113.143928 
L 727.706904 112.440064 
L 729.74108 112.852565 
L 731.775256 112.625881 
L 733.809433 112.617507 
L 735.843609 112.392355 
L 739.911962 112.312352 
L 741.946138 112.443285 
L 746.014491 112.397553 
L 748.048667 112.16576 
L 760.253725 112.186394 
L 762.287902 112.242498 
L 764.322078 112.121182 
L 770.424607 112.113742 
L 772.458783 111.846456 
L 776.527136 111.789618 
L 778.561312 112.046087 
L 780.595489 112.046087 
L 782.629665 111.816627 
L 788.732194 111.86729 
L 790.76637 111.625035 
L 996.218182 111.625035 
L 996.218182 111.625035 
" style="fill:none;stroke:#2ca02c;stroke-linecap:square;stroke-width:1.5;"/>
   </g>
   <g id="line2d_21">
    <path clip-path="url(#p25183edaab)" d="M 184.581818 484.232727 
L 249.675461 484.183361 
L 251.709638 484.01537 
L 257.812167 482.874527 
L 259.846343 482.257066 
L 261.880519 481.297977 
L 263.914696 481.03452 
L 265.948872 480.404975 
L 267.983049 478.765398 
L 270.017225 478.348329 
L 272.051401 476.999299 
L 274.085578 476.093565 
L 276.119754 474.307589 
L 280.188107 471.998386 
L 282.222283 471.516976 
L 284.256459 469.212335 
L 286.290636 467.860147 
L 288.324812 468.474101 
L 290.358988 467.83107 
L 292.393165 466.708401 
L 294.427341 466.077363 
L 296.461517 464.761991 
L 298.495694 462.673744 
L 300.52987 462.535924 
L 302.564046 461.237228 
L 304.598223 459.073785 
L 306.632399 455.964079 
L 308.666576 452.068951 
L 310.700752 451.822016 
L 312.734928 453.108638 
L 314.769105 448.310034 
L 318.837457 442.578631 
L 320.871634 436.528916 
L 322.90581 431.905562 
L 324.939986 428.939419 
L 326.974163 429.738145 
L 329.008339 428.886512 
L 331.042515 423.86274 
L 333.076692 423.212972 
L 335.110868 414.688457 
L 337.145044 411.30928 
L 339.179221 412.188665 
L 341.213397 409.120795 
L 345.28175 399.006913 
L 349.350103 387.784279 
L 351.384279 378.8961 
L 353.418455 375.923693 
L 355.452632 364.960994 
L 357.486808 363.614825 
L 359.520984 366.668534 
L 361.555161 366.213144 
L 363.589337 366.752269 
L 365.623513 365.612739 
L 367.65769 356.167466 
L 369.691866 353.528034 
L 371.726042 354.450786 
L 373.760219 351.285655 
L 375.794395 343.580839 
L 377.828571 333.86949 
L 379.862748 328.12543 
L 381.896924 320.01753 
L 383.9311 319.943391 
L 385.965277 320.888375 
L 387.999453 318.461713 
L 390.03363 310.943002 
L 392.067806 306.662329 
L 394.101982 300.128604 
L 396.136159 297.30521 
L 400.204511 277.743984 
L 402.238688 278.559279 
L 404.272864 267.45945 
L 406.30704 278.082544 
L 408.341217 307.497703 
L 410.375393 318.497361 
L 412.409569 316.246242 
L 414.443746 317.587347 
L 416.477922 313.43683 
L 418.512098 308.399621 
L 420.546275 308.527422 
L 422.580451 306.863981 
L 424.614627 306.841004 
L 426.648804 300.612724 
L 428.68298 297.265942 
L 430.717157 290.282347 
L 432.751333 289.032761 
L 434.785509 279.892799 
L 436.819686 276.234198 
L 438.853862 273.750065 
L 440.888038 273.335454 
L 442.922215 271.831376 
L 444.956391 268.232655 
L 446.990567 271.170158 
L 449.024744 271.986164 
L 451.05892 266.396369 
L 453.093096 264.511686 
L 455.127273 258.67786 
L 457.161449 255.689517 
L 459.195625 269.222862 
L 461.229802 265.11851 
L 463.263978 269.984207 
L 465.298154 273.502013 
L 467.332331 268.98696 
L 469.366507 266.287425 
L 471.400684 265.496917 
L 473.43486 263.825191 
L 475.469036 259.035278 
L 477.503213 259.740874 
L 479.537389 263.428705 
L 481.571565 261.639306 
L 483.605742 254.799882 
L 485.639918 249.786349 
L 487.674094 250.962216 
L 489.708271 249.344086 
L 491.742447 244.743343 
L 493.776623 243.016667 
L 495.8108 240.510989 
L 497.844976 231.182012 
L 499.879152 228.734838 
L 501.913329 233.35717 
L 503.947505 234.151232 
L 505.981681 234.100013 
L 508.015858 235.64738 
L 510.050034 234.937853 
L 512.084211 229.77915 
L 514.118387 236.000111 
L 516.152563 235.534038 
L 518.18674 233.110074 
L 520.220916 232.140746 
L 522.255092 231.584607 
L 524.289269 228.59391 
L 526.323445 229.85691 
L 528.357621 227.541091 
L 530.391798 222.605985 
L 532.425974 220.581284 
L 534.46015 221.421833 
L 536.494327 217.51869 
L 538.528503 217.898052 
L 540.562679 216.327608 
L 542.596856 210.023023 
L 544.631032 208.696166 
L 546.665208 207.766595 
L 548.699385 206.165767 
L 552.767738 201.016681 
L 554.801914 194.336531 
L 556.83609 189.86972 
L 558.870267 188.017642 
L 560.904443 186.357977 
L 562.938619 185.362507 
L 564.972796 184.898832 
L 567.006972 183.502677 
L 569.041148 181.818247 
L 571.075325 183.441642 
L 573.109501 182.161805 
L 575.143677 179.167865 
L 577.177854 182.402683 
L 579.21203 180.31719 
L 581.246206 179.570016 
L 583.280383 180.888899 
L 585.314559 180.530904 
L 587.348735 179.146565 
L 589.382912 176.847848 
L 591.417088 172.108709 
L 593.451265 170.257608 
L 595.485441 166.619552 
L 599.553794 164.664327 
L 601.58797 162.995066 
L 603.622146 162.005971 
L 607.690499 162.076735 
L 609.724675 161.823508 
L 611.758852 161.198383 
L 613.793028 161.143077 
L 615.827204 158.353411 
L 617.861381 157.562148 
L 619.895557 158.507088 
L 621.929733 158.715715 
L 623.96391 158.59089 
L 625.998086 155.370065 
L 628.032262 153.174851 
L 630.066439 152.941104 
L 632.100615 151.796021 
L 634.134792 149.030031 
L 636.168968 145.942805 
L 638.203144 144.754877 
L 640.237321 144.198406 
L 642.271497 142.931874 
L 644.305673 142.923567 
L 646.33985 136.834138 
L 648.374026 136.890954 
L 650.408202 132.480713 
L 652.442379 132.431005 
L 654.476555 132.710241 
L 656.510731 131.686429 
L 658.544908 128.312572 
L 660.579084 127.075958 
L 662.61326 127.270903 
L 664.647437 126.835925 
L 666.681613 126.134438 
L 668.715789 125.066671 
L 670.749966 123.221279 
L 672.784142 123.209551 
L 674.818319 121.889247 
L 676.852495 122.185962 
L 678.886671 122.670515 
L 680.920848 122.024689 
L 682.955024 119.180095 
L 684.9892 118.783097 
L 687.023377 118.932288 
L 691.091729 118.709135 
L 693.125906 118.002961 
L 695.160082 116.668531 
L 697.194258 116.976152 
L 699.228435 117.16219 
L 701.262611 115.221757 
L 705.330964 115.196814 
L 707.36514 115.047402 
L 709.399316 112.960021 
L 711.433493 112.954269 
L 713.467669 112.748996 
L 715.501846 112.735114 
L 717.536022 112.398019 
L 719.570198 112.769452 
L 721.604375 112.84006 
L 723.638551 113.105347 
L 725.672727 113.110145 
L 727.706904 113.233438 
L 739.911962 113.264799 
L 741.946138 112.861338 
L 748.048667 112.750795 
L 750.082843 113.000379 
L 754.151196 112.381183 
L 758.219549 112.268108 
L 760.253725 112.200964 
L 762.287902 112.256358 
L 764.322078 112.186327 
L 768.390431 112.296404 
L 770.424607 112.295782 
L 772.458783 112.056282 
L 784.663841 112.030895 
L 786.698018 111.824334 
L 790.76637 111.86729 
L 792.800547 111.625035 
L 996.218182 111.625035 
L 996.218182 111.625035 
" style="fill:none;stroke:#d62728;stroke-dasharray:5.55,2.4;stroke-dashoffset:0;stroke-width:1.5;"/>
   </g>
   <g id="line2d_22">
    <path clip-path="url(#p25183edaab)" d="M 184.581818 484.232727 
L 249.675461 484.183361 
L 251.709638 483.897603 
L 255.77799 482.910561 
L 259.846343 482.056125 
L 261.880519 481.938025 
L 263.914696 481.554267 
L 265.948872 480.241612 
L 267.983049 478.648137 
L 270.017225 478.704773 
L 272.051401 477.317441 
L 274.085578 476.633339 
L 276.119754 475.125026 
L 278.15393 475.30948 
L 280.188107 474.109421 
L 282.222283 473.192023 
L 284.256459 471.898238 
L 286.290636 471.595111 
L 288.324812 470.917491 
L 290.358988 470.401896 
L 292.393165 469.224858 
L 294.427341 468.639071 
L 296.461517 466.942548 
L 298.495694 465.6636 
L 300.52987 463.070296 
L 302.564046 460.784052 
L 304.598223 460.193903 
L 306.632399 456.978914 
L 308.666576 452.776374 
L 310.700752 449.996175 
L 312.734928 449.541909 
L 314.769105 451.555257 
L 316.803281 448.759963 
L 318.837457 447.233275 
L 320.871634 444.921048 
L 322.90581 443.152067 
L 324.939986 439.818125 
L 326.974163 440.46773 
L 329.008339 434.951337 
L 331.042515 432.838547 
L 333.076692 433.831336 
L 335.110868 433.818509 
L 337.145044 431.799688 
L 341.213397 426.653812 
L 343.247573 427.404607 
L 345.28175 420.42707 
L 347.315926 414.73812 
L 349.350103 414.62731 
L 351.384279 407.460847 
L 353.418455 404.555584 
L 355.452632 407.147962 
L 357.486808 405.289588 
L 359.520984 404.518398 
L 361.555161 399.944635 
L 363.589337 393.619543 
L 365.623513 390.417615 
L 367.65769 393.186342 
L 369.691866 389.264292 
L 371.726042 388.992053 
L 373.760219 387.259181 
L 375.794395 385.136607 
L 377.828571 382.479817 
L 379.862748 381.195683 
L 381.896924 376.856729 
L 383.9311 381.541884 
L 387.999453 368.834952 
L 390.03363 365.548716 
L 392.067806 358.251537 
L 394.101982 355.489245 
L 396.136159 351.459244 
L 398.170335 352.198334 
L 400.204511 349.853974 
L 402.238688 343.437123 
L 404.272864 338.241928 
L 406.30704 333.747219 
L 408.341217 338.96728 
L 410.375393 332.322235 
L 412.409569 326.108914 
L 414.443746 316.242888 
L 416.477922 312.412786 
L 418.512098 309.123807 
L 420.546275 301.682712 
L 424.614627 293.721638 
L 426.648804 291.44371 
L 428.68298 292.508834 
L 430.717157 289.697489 
L 432.751333 293.299542 
L 434.785509 291.4412 
L 436.819686 284.505181 
L 438.853862 285.325163 
L 440.888038 298.980767 
L 442.922215 301.06626 
L 444.956391 295.648944 
L 446.990567 289.461143 
L 449.024744 286.282142 
L 451.05892 285.29027 
L 453.093096 289.279125 
L 455.127273 286.659216 
L 457.161449 279.741832 
L 459.195625 279.499733 
L 461.229802 278.034636 
L 463.263978 270.219753 
L 465.298154 269.493324 
L 467.332331 266.322696 
L 469.366507 263.665562 
L 471.400684 260.216143 
L 473.43486 256.098797 
L 475.469036 265.318141 
L 477.503213 262.402406 
L 479.537389 257.477317 
L 481.571565 256.886485 
L 483.605742 263.933847 
L 485.639918 262.644904 
L 487.674094 258.763483 
L 489.708271 257.546437 
L 491.742447 256.733385 
L 493.776623 252.053527 
L 495.8108 247.872192 
L 497.844976 248.827171 
L 499.879152 247.858243 
L 501.913329 242.879915 
L 503.947505 243.981709 
L 505.981681 244.22343 
L 510.050034 236.594342 
L 512.084211 237.648893 
L 514.118387 232.954642 
L 518.18674 231.353325 
L 520.220916 229.240913 
L 522.255092 228.228829 
L 524.289269 224.659471 
L 526.323445 219.480356 
L 528.357621 213.477617 
L 530.391798 210.773773 
L 532.425974 209.063112 
L 534.46015 206.906034 
L 536.494327 204.941613 
L 538.528503 203.73334 
L 540.562679 200.020234 
L 542.596856 200.226484 
L 544.631032 199.498988 
L 548.699385 195.225478 
L 550.733561 197.947735 
L 552.767738 195.106183 
L 554.801914 191.308764 
L 556.83609 191.369178 
L 558.870267 190.936265 
L 560.904443 188.360756 
L 564.972796 185.718503 
L 567.006972 181.893853 
L 569.041148 172.550261 
L 571.075325 181.578303 
L 573.109501 178.458649 
L 575.143677 176.352367 
L 579.21203 176.204754 
L 581.246206 176.494162 
L 583.280383 177.073422 
L 585.314559 177.172127 
L 589.382912 174.082791 
L 591.417088 169.885798 
L 593.451265 168.834911 
L 595.485441 168.852347 
L 597.519617 168.03563 
L 599.553794 166.37119 
L 601.58797 165.444573 
L 603.622146 161.976386 
L 605.656323 161.197405 
L 607.690499 160.851004 
L 609.724675 159.314232 
L 611.758852 160.243225 
L 615.827204 158.829568 
L 619.895557 158.603772 
L 625.998086 154.433898 
L 628.032262 150.93064 
L 630.066439 144.380735 
L 632.100615 144.43644 
L 634.134792 139.097073 
L 636.168968 138.802201 
L 638.203144 138.267807 
L 640.237321 138.295682 
L 644.305673 135.129896 
L 646.33985 134.762927 
L 648.374026 134.933885 
L 650.408202 130.407104 
L 652.442379 129.761277 
L 654.476555 131.06699 
L 656.510731 131.419743 
L 658.544908 131.608558 
L 660.579084 130.035804 
L 662.61326 129.944584 
L 664.647437 126.946357 
L 666.681613 126.807739 
L 668.715789 125.381133 
L 670.749966 123.517439 
L 672.784142 122.05514 
L 674.818319 122.045456 
L 676.852495 121.903373 
L 678.886671 121.578494 
L 680.920848 121.584113 
L 682.955024 120.856506 
L 684.9892 117.778276 
L 687.023377 116.952652 
L 689.057553 115.052133 
L 691.091729 114.905452 
L 693.125906 114.973417 
L 695.160082 114.067901 
L 705.330964 113.801348 
L 707.36514 113.825314 
L 709.399316 114.276595 
L 713.467669 114.234349 
L 715.501846 112.907448 
L 719.570198 112.913667 
L 721.604375 112.842703 
L 723.638551 113.252561 
L 727.706904 113.211738 
L 729.74108 112.852565 
L 731.775256 112.844214 
L 735.843609 112.392355 
L 739.911962 112.34338 
L 741.946138 112.474025 
L 748.048667 112.389224 
L 750.082843 112.514982 
L 752.11702 112.496191 
L 754.151196 112.206828 
L 758.219549 112.142305 
L 760.253725 112.186394 
L 762.287902 112.006485 
L 764.322078 112.121182 
L 770.424607 112.113742 
L 772.458783 112.368834 
L 774.49296 112.102414 
L 778.561312 112.046087 
L 782.629665 112.031362 
L 784.663841 111.801856 
L 788.732194 111.86729 
L 790.76637 111.625035 
L 996.218182 111.625035 
L 996.218182 111.625035 
" style="fill:none;stroke:#9467bd;stroke-dasharray:5.55,2.4;stroke-dashoffset:0;stroke-width:1.5;"/>
   </g>
   <g id="line2d_23">
    <path clip-path="url(#p25183edaab)" d="M 184.581818 484.232727 
L 247.641285 484.232727 
L 249.675461 483.322356 
L 251.709638 481.489213 
L 253.743814 479.063981 
L 255.77799 478.444675 
L 257.812167 475.398235 
L 259.846343 473.80141 
L 261.880519 475.130678 
L 263.914696 475.530226 
L 265.948872 476.722916 
L 272.051401 470.688683 
L 274.085578 466.964133 
L 276.119754 469.656248 
L 278.15393 467.412074 
L 280.188107 467.53706 
L 282.222283 459.730062 
L 284.256459 456.277991 
L 286.290636 450.789437 
L 288.324812 448.048459 
L 290.358988 442.175387 
L 292.393165 430.42751 
L 294.427341 428.791761 
L 296.461517 426.170453 
L 298.495694 420.941585 
L 300.52987 397.531249 
L 302.564046 397.093927 
L 306.632399 383.579546 
L 308.666576 373.563752 
L 310.700752 374.149287 
L 312.734928 374.412497 
L 314.769105 376.238322 
L 316.803281 370.202843 
L 318.837457 369.325035 
L 320.871634 370.206919 
L 322.90581 357.957742 
L 324.939986 339.035934 
L 329.008339 319.488056 
L 331.042515 323.054027 
L 333.076692 325.76329 
L 335.110868 315.819882 
L 337.145044 316.300392 
L 339.179221 309.629571 
L 341.213397 311.843776 
L 343.247573 290.257404 
L 345.28175 286.83275 
L 347.315926 284.412339 
L 349.350103 273.80377 
L 351.384279 276.414528 
L 353.418455 270.502765 
L 355.452632 270.824267 
L 357.486808 268.227769 
L 359.520984 265.207198 
L 361.555161 264.391636 
L 363.589337 266.809581 
L 365.623513 257.030789 
L 367.65769 255.141885 
L 369.691866 239.841086 
L 371.726042 237.362217 
L 373.760219 227.963964 
L 375.794395 224.222361 
L 377.828571 222.48207 
L 379.862748 221.301339 
L 381.896924 219.961489 
L 383.9311 216.428201 
L 387.999453 205.01271 
L 390.03363 201.261934 
L 392.067806 198.818846 
L 394.101982 185.353822 
L 396.136159 184.551232 
L 398.170335 184.285789 
L 400.204511 182.558137 
L 404.272864 179.887476 
L 406.30704 171.889887 
L 408.341217 162.870774 
L 412.409569 152.400157 
L 414.443746 149.819917 
L 416.477922 142.418557 
L 418.512098 140.332132 
L 420.546275 132.264468 
L 422.580451 132.446908 
L 424.614627 132.747111 
L 426.648804 132.348892 
L 428.68298 132.348403 
L 430.717157 131.566135 
L 432.751333 131.575397 
L 434.785509 131.447884 
L 436.819686 130.599495 
L 438.853862 130.535438 
L 442.922215 130.798215 
L 444.956391 130.808321 
L 446.990567 130.670059 
L 449.024744 130.415966 
L 451.05892 130.380406 
L 455.127273 130.131 
L 457.161449 129.241387 
L 459.195625 129.101059 
L 461.229802 121.939799 
L 463.263978 122.134655 
L 465.298154 122.009652 
L 467.332331 121.738679 
L 469.366507 121.810265 
L 471.400684 120.762266 
L 473.43486 115.998783 
L 475.469036 115.913627 
L 477.503213 115.688497 
L 479.537389 115.637168 
L 481.571565 114.804725 
L 483.605742 110.224483 
L 487.674094 111.118294 
L 489.708271 111.163293 
L 491.742447 110.890943 
L 493.776623 112.933391 
L 495.8108 113.829112 
L 497.844976 113.689338 
L 499.879152 114.536973 
L 501.913329 114.985411 
L 503.947505 118.206502 
L 505.981681 117.690565 
L 508.015858 117.044939 
L 510.050034 117.056844 
L 512.084211 116.859189 
L 514.118387 116.774099 
L 516.152563 116.92751 
L 520.220916 116.88753 
L 522.255092 116.639212 
L 524.289269 116.225157 
L 526.323445 116.083807 
L 528.357621 116.692363 
L 530.391798 116.440047 
L 532.425974 116.591748 
L 536.494327 116.607984 
L 538.528503 115.991254 
L 540.562679 115.644941 
L 542.596856 115.617422 
L 546.665208 116.523893 
L 548.699385 116.388962 
L 550.733561 116.418014 
L 552.767738 116.245035 
L 554.801914 115.453061 
L 556.83609 115.310845 
L 558.870267 115.4637 
L 560.904443 115.375679 
L 562.938619 115.116833 
L 564.972796 115.059129 
L 569.041148 114.787556 
L 573.109501 114.582927 
L 575.143677 114.725344 
L 579.21203 114.516117 
L 581.246206 114.425297 
L 583.280383 114.108591 
L 585.314559 114.634079 
L 587.348735 114.597897 
L 589.382912 114.165096 
L 591.417088 113.120939 
L 593.451265 113.145349 
L 595.485441 113.402973 
L 597.519617 113.470717 
L 599.553794 112.955357 
L 601.58797 113.69749 
L 609.724675 113.963887 
L 611.758852 114.698046 
L 613.793028 112.341426 
L 615.827204 111.596006 
L 617.861381 111.710347 
L 619.895557 111.48233 
L 621.929733 111.478599 
L 623.96391 111.358216 
L 628.032262 111.701352 
L 630.066439 111.674144 
L 632.100615 111.916465 
L 636.168968 111.793194 
L 638.203144 112.093796 
L 644.305673 111.893032 
L 646.33985 112.089043 
L 648.374026 112.044133 
L 650.408202 112.503077 
L 652.442379 112.465962 
L 654.476555 112.047287 
L 656.510731 112.047287 
L 658.544908 112.279746 
L 660.579084 112.287875 
L 662.61326 112.138973 
L 664.647437 112.495836 
L 666.681613 112.052417 
L 670.749966 112.041001 
L 674.818319 112.027563 
L 684.9892 111.975079 
L 687.023377 111.863558 
L 689.057553 112.334363 
L 691.091729 112.314151 
L 693.125906 112.481488 
L 695.160082 112.288253 
L 697.194258 112.36357 
L 699.228435 112.265042 
L 701.262611 112.387935 
L 711.433493 112.051796 
L 713.467669 112.062812 
L 715.501846 111.862137 
L 717.536022 111.464873 
L 719.570198 111.220197 
L 721.604375 111.210558 
L 723.638551 111.512315 
L 725.672727 111.677209 
L 729.74108 111.577837 
L 735.843609 111.582946 
L 737.877785 111.239432 
L 741.946138 111.525997 
L 746.014491 111.561979 
L 750.082843 111.832707 
L 754.151196 112.015414 
L 764.322078 111.963529 
L 766.356254 111.734735 
L 774.49296 111.66959 
L 776.527136 111.478643 
L 778.561312 111.660684 
L 780.595489 111.567443 
L 784.663841 111.625035 
L 996.218182 111.625035 
L 996.218182 111.625035 
" style="fill:none;stroke:#8c564b;stroke-dasharray:5.55,2.4;stroke-dashoffset:0;stroke-width:1.5;"/>
   </g>
   <g id="patch_3">
    <path d="M 144 504 
L 144 69.12 
" style="fill:none;stroke:#000000;stroke-linecap:square;stroke-linejoin:miter;stroke-width:0.8;"/>
   </g>
   <g id="patch_4">
    <path d="M 1036.8 504 
L 1036.8 69.12 
" style="fill:none;stroke:#000000;stroke-linecap:square;stroke-linejoin:miter;stroke-width:0.8;"/>
   </g>
   <g id="patch_5">
    <path d="M 144 504 
L 1036.8 504 
" style="fill:none;stroke:#000000;stroke-linecap:square;stroke-linejoin:miter;stroke-width:0.8;"/>
   </g>
   <g id="patch_6">
    <path d="M 144 69.12 
L 1036.8 69.12 
" style="fill:none;stroke:#000000;stroke-linecap:square;stroke-linejoin:miter;stroke-width:0.8;"/>
   </g>
   <g id="legend_1">
    <g id="patch_7">
     <path d="M 151 166.579375 
L 275.432813 166.579375 
Q 277.432813 166.579375 277.432813 164.579375 
L 277.432813 76.12 
Q 277.432813 74.12 275.432813 74.12 
L 151 74.12 
Q 149 74.12 149 76.12 
L 149 164.579375 
Q 149 166.579375 151 166.579375 
z
" style="fill:#ffffff;opacity:0.8;stroke:#cccccc;stroke-linejoin:miter;"/>
    </g>
    <g id="line2d_24">
     <path d="M 153 82.218438 
L 173 82.218438 
" style="fill:none;stroke:#1f77b4;stroke-linecap:square;stroke-width:1.5;"/>
    </g>
    <g id="line2d_25"/>
    <g id="text_20">
     <!-- taylorfo -->
     <defs>
      <path d="M 32.171875 -5.078125 
Q 28.375 -14.84375 24.75 -17.8125 
Q 21.140625 -20.796875 15.09375 -20.796875 
L 7.90625 -20.796875 
L 7.90625 -13.28125 
L 13.1875 -13.28125 
Q 16.890625 -13.28125 18.9375 -11.515625 
Q 21 -9.765625 23.484375 -3.21875 
L 25.09375 0.875 
L 2.984375 54.6875 
L 12.5 54.6875 
L 29.59375 11.921875 
L 46.6875 54.6875 
L 56.203125 54.6875 
z
" id="DejaVuSans-121"/>
      <path d="M 9.421875 75.984375 
L 18.40625 75.984375 
L 18.40625 0 
L 9.421875 0 
z
" id="DejaVuSans-108"/>
     </defs>
     <g transform="translate(181 85.718438)scale(0.1 -0.1)">
      <use xlink:href="#DejaVuSans-116"/>
      <use x="39.208984" xlink:href="#DejaVuSans-97"/>
      <use x="100.488281" xlink:href="#DejaVuSans-121"/>
      <use x="159.667969" xlink:href="#DejaVuSans-108"/>
      <use x="187.451172" xlink:href="#DejaVuSans-111"/>
      <use x="248.632812" xlink:href="#DejaVuSans-114"/>
      <use x="289.746094" xlink:href="#DejaVuSans-102"/>
      <use x="324.951172" xlink:href="#DejaVuSans-111"/>
     </g>
    </g>
    <g id="line2d_26">
     <path d="M 153 96.896563 
L 173 96.896563 
" style="fill:none;stroke:#ff7f0e;stroke-linecap:square;stroke-width:1.5;"/>
    </g>
    <g id="line2d_27"/>
    <g id="text_21">
     <!-- taylorfo_abs -->
     <defs>
      <path d="M 50.984375 -16.609375 
L 50.984375 -23.578125 
L -0.984375 -23.578125 
L -0.984375 -16.609375 
z
" id="DejaVuSans-95"/>
     </defs>
     <g transform="translate(181 100.396563)scale(0.1 -0.1)">
      <use xlink:href="#DejaVuSans-116"/>
      <use x="39.208984" xlink:href="#DejaVuSans-97"/>
      <use x="100.488281" xlink:href="#DejaVuSans-121"/>
      <use x="159.667969" xlink:href="#DejaVuSans-108"/>
      <use x="187.451172" xlink:href="#DejaVuSans-111"/>
      <use x="248.632812" xlink:href="#DejaVuSans-114"/>
      <use x="289.746094" xlink:href="#DejaVuSans-102"/>
      <use x="324.951172" xlink:href="#DejaVuSans-111"/>
      <use x="386.132812" xlink:href="#DejaVuSans-95"/>
      <use x="436.132812" xlink:href="#DejaVuSans-97"/>
      <use x="497.412109" xlink:href="#DejaVuSans-98"/>
      <use x="560.888672" xlink:href="#DejaVuSans-115"/>
     </g>
    </g>
    <g id="line2d_28">
     <path d="M 153 111.852813 
L 173 111.852813 
" style="fill:none;stroke:#2ca02c;stroke-linecap:square;stroke-width:1.5;"/>
    </g>
    <g id="line2d_29"/>
    <g id="text_22">
     <!-- taylorfo_sq -->
     <g transform="translate(181 115.352813)scale(0.1 -0.1)">
      <use xlink:href="#DejaVuSans-116"/>
      <use x="39.208984" xlink:href="#DejaVuSans-97"/>
      <use x="100.488281" xlink:href="#DejaVuSans-121"/>
      <use x="159.667969" xlink:href="#DejaVuSans-108"/>
      <use x="187.451172" xlink:href="#DejaVuSans-111"/>
      <use x="248.632812" xlink:href="#DejaVuSans-114"/>
      <use x="289.746094" xlink:href="#DejaVuSans-102"/>
      <use x="324.951172" xlink:href="#DejaVuSans-111"/>
      <use x="386.132812" xlink:href="#DejaVuSans-95"/>
      <use x="436.132812" xlink:href="#DejaVuSans-115"/>
      <use x="488.232422" xlink:href="#DejaVuSans-113"/>
     </g>
    </g>
    <g id="line2d_30">
     <path d="M 153 126.809063 
L 173 126.809063 
" style="fill:none;stroke:#d62728;stroke-dasharray:5.55,2.4;stroke-dashoffset:0;stroke-width:1.5;"/>
    </g>
    <g id="line2d_31"/>
    <g id="text_23">
     <!-- taylorfo_abs_norm -->
     <g transform="translate(181 130.309063)scale(0.1 -0.1)">
      <use xlink:href="#DejaVuSans-116"/>
      <use x="39.208984" xlink:href="#DejaVuSans-97"/>
      <use x="100.488281" xlink:href="#DejaVuSans-121"/>
      <use x="159.667969" xlink:href="#DejaVuSans-108"/>
      <use x="187.451172" xlink:href="#DejaVuSans-111"/>
      <use x="248.632812" xlink:href="#DejaVuSans-114"/>
      <use x="289.746094" xlink:href="#DejaVuSans-102"/>
      <use x="324.951172" xlink:href="#DejaVuSans-111"/>
      <use x="386.132812" xlink:href="#DejaVuSans-95"/>
      <use x="436.132812" xlink:href="#DejaVuSans-97"/>
      <use x="497.412109" xlink:href="#DejaVuSans-98"/>
      <use x="560.888672" xlink:href="#DejaVuSans-115"/>
      <use x="612.988281" xlink:href="#DejaVuSans-95"/>
      <use x="662.988281" xlink:href="#DejaVuSans-110"/>
      <use x="726.367188" xlink:href="#DejaVuSans-111"/>
      <use x="787.548828" xlink:href="#DejaVuSans-114"/>
      <use x="826.912109" xlink:href="#DejaVuSans-109"/>
     </g>
    </g>
    <g id="line2d_32">
     <path d="M 153 141.765313 
L 173 141.765313 
" style="fill:none;stroke:#9467bd;stroke-dasharray:5.55,2.4;stroke-dashoffset:0;stroke-width:1.5;"/>
    </g>
    <g id="line2d_33"/>
    <g id="text_24">
     <!-- taylorfo_sq_norm -->
     <g transform="translate(181 145.265313)scale(0.1 -0.1)">
      <use xlink:href="#DejaVuSans-116"/>
      <use x="39.208984" xlink:href="#DejaVuSans-97"/>
      <use x="100.488281" xlink:href="#DejaVuSans-121"/>
      <use x="159.667969" xlink:href="#DejaVuSans-108"/>
      <use x="187.451172" xlink:href="#DejaVuSans-111"/>
      <use x="248.632812" xlink:href="#DejaVuSans-114"/>
      <use x="289.746094" xlink:href="#DejaVuSans-102"/>
      <use x="324.951172" xlink:href="#DejaVuSans-111"/>
      <use x="386.132812" xlink:href="#DejaVuSans-95"/>
      <use x="436.132812" xlink:href="#DejaVuSans-115"/>
      <use x="488.232422" xlink:href="#DejaVuSans-113"/>
      <use x="551.708984" xlink:href="#DejaVuSans-95"/>
      <use x="601.708984" xlink:href="#DejaVuSans-110"/>
      <use x="665.087891" xlink:href="#DejaVuSans-111"/>
      <use x="726.269531" xlink:href="#DejaVuSans-114"/>
      <use x="765.632812" xlink:href="#DejaVuSans-109"/>
     </g>
    </g>
    <g id="line2d_34">
     <path d="M 153 156.721563 
L 173 156.721563 
" style="fill:none;stroke:#8c564b;stroke-dasharray:5.55,2.4;stroke-dashoffset:0;stroke-width:1.5;"/>
    </g>
    <g id="line2d_35"/>
    <g id="text_25">
     <!-- Molchanov_group -->
     <defs>
      <path d="M 9.8125 72.90625 
L 24.515625 72.90625 
L 43.109375 23.296875 
L 61.8125 72.90625 
L 76.515625 72.90625 
L 76.515625 0 
L 66.890625 0 
L 66.890625 64.015625 
L 48.09375 14.015625 
L 38.1875 14.015625 
L 19.390625 64.015625 
L 19.390625 0 
L 9.8125 0 
z
" id="DejaVuSans-77"/>
      <path d="M 48.78125 52.59375 
L 48.78125 44.1875 
Q 44.96875 46.296875 41.140625 47.34375 
Q 37.3125 48.390625 33.40625 48.390625 
Q 24.65625 48.390625 19.8125 42.84375 
Q 14.984375 37.3125 14.984375 27.296875 
Q 14.984375 17.28125 19.8125 11.734375 
Q 24.65625 6.203125 33.40625 6.203125 
Q 37.3125 6.203125 41.140625 7.25 
Q 44.96875 8.296875 48.78125 10.40625 
L 48.78125 2.09375 
Q 45.015625 0.34375 40.984375 -0.53125 
Q 36.96875 -1.421875 32.421875 -1.421875 
Q 20.0625 -1.421875 12.78125 6.34375 
Q 5.515625 14.109375 5.515625 27.296875 
Q 5.515625 40.671875 12.859375 48.328125 
Q 20.21875 56 33.015625 56 
Q 37.15625 56 41.109375 55.140625 
Q 45.0625 54.296875 48.78125 52.59375 
z
" id="DejaVuSans-99"/>
      <path d="M 54.890625 33.015625 
L 54.890625 0 
L 45.90625 0 
L 45.90625 32.71875 
Q 45.90625 40.484375 42.875 44.328125 
Q 39.84375 48.1875 33.796875 48.1875 
Q 26.515625 48.1875 22.3125 43.546875 
Q 18.109375 38.921875 18.109375 30.90625 
L 18.109375 0 
L 9.078125 0 
L 9.078125 75.984375 
L 18.109375 75.984375 
L 18.109375 46.1875 
Q 21.34375 51.125 25.703125 53.5625 
Q 30.078125 56 35.796875 56 
Q 45.21875 56 50.046875 50.171875 
Q 54.890625 44.34375 54.890625 33.015625 
z
" id="DejaVuSans-104"/>
      <path d="M 45.40625 27.984375 
Q 45.40625 37.75 41.375 43.109375 
Q 37.359375 48.484375 30.078125 48.484375 
Q 22.859375 48.484375 18.828125 43.109375 
Q 14.796875 37.75 14.796875 27.984375 
Q 14.796875 18.265625 18.828125 12.890625 
Q 22.859375 7.515625 30.078125 7.515625 
Q 37.359375 7.515625 41.375 12.890625 
Q 45.40625 18.265625 45.40625 27.984375 
z
M 54.390625 6.78125 
Q 54.390625 -7.171875 48.1875 -13.984375 
Q 42 -20.796875 29.203125 -20.796875 
Q 24.46875 -20.796875 20.265625 -20.09375 
Q 16.0625 -19.390625 12.109375 -17.921875 
L 12.109375 -9.1875 
Q 16.0625 -11.328125 19.921875 -12.34375 
Q 23.78125 -13.375 27.78125 -13.375 
Q 36.625 -13.375 41.015625 -8.765625 
Q 45.40625 -4.15625 45.40625 5.171875 
L 45.40625 9.625 
Q 42.625 4.78125 38.28125 2.390625 
Q 33.9375 0 27.875 0 
Q 17.828125 0 11.671875 7.65625 
Q 5.515625 15.328125 5.515625 27.984375 
Q 5.515625 40.671875 11.671875 48.328125 
Q 17.828125 56 27.875 56 
Q 33.9375 56 38.28125 53.609375 
Q 42.625 51.21875 45.40625 46.390625 
L 45.40625 54.6875 
L 54.390625 54.6875 
z
" id="DejaVuSans-103"/>
     </defs>
     <g transform="translate(181 160.221563)scale(0.1 -0.1)">
      <use xlink:href="#DejaVuSans-77"/>
      <use x="86.279297" xlink:href="#DejaVuSans-111"/>
      <use x="147.460938" xlink:href="#DejaVuSans-108"/>
      <use x="175.244141" xlink:href="#DejaVuSans-99"/>
      <use x="230.224609" xlink:href="#DejaVuSans-104"/>
      <use x="293.603516" xlink:href="#DejaVuSans-97"/>
      <use x="354.882812" xlink:href="#DejaVuSans-110"/>
      <use x="418.261719" xlink:href="#DejaVuSans-111"/>
      <use x="479.443359" xlink:href="#DejaVuSans-118"/>
      <use x="538.623047" xlink:href="#DejaVuSans-95"/>
      <use x="588.623047" xlink:href="#DejaVuSans-103"/>
      <use x="652.099609" xlink:href="#DejaVuSans-114"/>
      <use x="690.962891" xlink:href="#DejaVuSans-111"/>
      <use x="752.144531" xlink:href="#DejaVuSans-117"/>
      <use x="815.523438" xlink:href="#DejaVuSans-112"/>
     </g>
    </g>
   </g>
  </g>
 </g>
 <defs>
  <clipPath id="p25183edaab">
   <rect height="434.88" width="892.8" x="144" y="69.12"/>
  </clipPath>
 </defs>
</svg>
