<?xml version="1.0" encoding="utf-8" standalone="no"?>
<!DOCTYPE svg PUBLIC "-//W3C//DTD SVG 1.1//EN"
  "http://www.w3.org/Graphics/SVG/1.1/DTD/svg11.dtd">
<!-- Created with matplotlib (https://matplotlib.org/) -->
<svg height="576pt" version="1.1" viewBox="0 0 1152 576" width="1152pt" xmlns="http://www.w3.org/2000/svg" xmlns:xlink="http://www.w3.org/1999/xlink">
 <defs>
  <style type="text/css">
*{stroke-linecap:butt;stroke-linejoin:round;}
  </style>
 </defs>
 <g id="figure_1">
  <g id="patch_1">
   <path d="M 0 576 
L 1152 576 
L 1152 0 
L 0 0 
z
" style="fill:#ffffff;"/>
  </g>
  <g id="axes_1">
   <g id="patch_2">
    <path d="M 144 504 
L 1036.8 504 
L 1036.8 69.12 
L 144 69.12 
z
" style="fill:#ffffff;"/>
   </g>
   <g id="matplotlib.axis_1">
    <g id="xtick_1">
     <g id="line2d_1">
      <defs>
       <path d="M 0 0 
L 0 3.5 
" id="m09f71cd5f7" style="stroke:#000000;stroke-width:0.8;"/>
      </defs>
      <g>
       <use style="stroke:#000000;stroke-width:0.8;" x="182.547642" xlink:href="#m09f71cd5f7" y="504"/>
      </g>
     </g>
     <g id="text_1">
      <!-- 0 -->
      <defs>
       <path d="M 31.78125 66.40625 
Q 24.171875 66.40625 20.328125 58.90625 
Q 16.5 51.421875 16.5 36.375 
Q 16.5 21.390625 20.328125 13.890625 
Q 24.171875 6.390625 31.78125 6.390625 
Q 39.453125 6.390625 43.28125 13.890625 
Q 47.125 21.390625 47.125 36.375 
Q 47.125 51.421875 43.28125 58.90625 
Q 39.453125 66.40625 31.78125 66.40625 
z
M 31.78125 74.21875 
Q 44.046875 74.21875 50.515625 64.515625 
Q 56.984375 54.828125 56.984375 36.375 
Q 56.984375 17.96875 50.515625 8.265625 
Q 44.046875 -1.421875 31.78125 -1.421875 
Q 19.53125 -1.421875 13.0625 8.265625 
Q 6.59375 17.96875 6.59375 36.375 
Q 6.59375 54.828125 13.0625 64.515625 
Q 19.53125 74.21875 31.78125 74.21875 
z
" id="DejaVuSans-48"/>
      </defs>
      <g transform="translate(179.366392 518.598438)scale(0.1 -0.1)">
       <use xlink:href="#DejaVuSans-48"/>
      </g>
     </g>
    </g>
    <g id="xtick_2">
     <g id="line2d_2">
      <g>
       <use style="stroke:#000000;stroke-width:0.8;" x="284.256459" xlink:href="#m09f71cd5f7" y="504"/>
      </g>
     </g>
     <g id="text_2">
      <!-- 50 -->
      <defs>
       <path d="M 10.796875 72.90625 
L 49.515625 72.90625 
L 49.515625 64.59375 
L 19.828125 64.59375 
L 19.828125 46.734375 
Q 21.96875 47.46875 24.109375 47.828125 
Q 26.265625 48.1875 28.421875 48.1875 
Q 40.625 48.1875 47.75 41.5 
Q 54.890625 34.8125 54.890625 23.390625 
Q 54.890625 11.625 47.5625 5.09375 
Q 40.234375 -1.421875 26.90625 -1.421875 
Q 22.3125 -1.421875 17.546875 -0.640625 
Q 12.796875 0.140625 7.71875 1.703125 
L 7.71875 11.625 
Q 12.109375 9.234375 16.796875 8.0625 
Q 21.484375 6.890625 26.703125 6.890625 
Q 35.15625 6.890625 40.078125 11.328125 
Q 45.015625 15.765625 45.015625 23.390625 
Q 45.015625 31 40.078125 35.4375 
Q 35.15625 39.890625 26.703125 39.890625 
Q 22.75 39.890625 18.8125 39.015625 
Q 14.890625 38.140625 10.796875 36.28125 
z
" id="DejaVuSans-53"/>
      </defs>
      <g transform="translate(277.893959 518.598438)scale(0.1 -0.1)">
       <use xlink:href="#DejaVuSans-53"/>
       <use x="63.623047" xlink:href="#DejaVuSans-48"/>
      </g>
     </g>
    </g>
    <g id="xtick_3">
     <g id="line2d_3">
      <g>
       <use style="stroke:#000000;stroke-width:0.8;" x="385.965277" xlink:href="#m09f71cd5f7" y="504"/>
      </g>
     </g>
     <g id="text_3">
      <!-- 100 -->
      <defs>
       <path d="M 12.40625 8.296875 
L 28.515625 8.296875 
L 28.515625 63.921875 
L 10.984375 60.40625 
L 10.984375 69.390625 
L 28.421875 72.90625 
L 38.28125 72.90625 
L 38.28125 8.296875 
L 54.390625 8.296875 
L 54.390625 0 
L 12.40625 0 
z
" id="DejaVuSans-49"/>
      </defs>
      <g transform="translate(376.421527 518.598438)scale(0.1 -0.1)">
       <use xlink:href="#DejaVuSans-49"/>
       <use x="63.623047" xlink:href="#DejaVuSans-48"/>
       <use x="127.246094" xlink:href="#DejaVuSans-48"/>
      </g>
     </g>
    </g>
    <g id="xtick_4">
     <g id="line2d_4">
      <g>
       <use style="stroke:#000000;stroke-width:0.8;" x="487.674094" xlink:href="#m09f71cd5f7" y="504"/>
      </g>
     </g>
     <g id="text_4">
      <!-- 150 -->
      <g transform="translate(478.130344 518.598438)scale(0.1 -0.1)">
       <use xlink:href="#DejaVuSans-49"/>
       <use x="63.623047" xlink:href="#DejaVuSans-53"/>
       <use x="127.246094" xlink:href="#DejaVuSans-48"/>
      </g>
     </g>
    </g>
    <g id="xtick_5">
     <g id="line2d_5">
      <g>
       <use style="stroke:#000000;stroke-width:0.8;" x="589.382912" xlink:href="#m09f71cd5f7" y="504"/>
      </g>
     </g>
     <g id="text_5">
      <!-- 200 -->
      <defs>
       <path d="M 19.1875 8.296875 
L 53.609375 8.296875 
L 53.609375 0 
L 7.328125 0 
L 7.328125 8.296875 
Q 12.9375 14.109375 22.625 23.890625 
Q 32.328125 33.6875 34.8125 36.53125 
Q 39.546875 41.84375 41.421875 45.53125 
Q 43.3125 49.21875 43.3125 52.78125 
Q 43.3125 58.59375 39.234375 62.25 
Q 35.15625 65.921875 28.609375 65.921875 
Q 23.96875 65.921875 18.8125 64.3125 
Q 13.671875 62.703125 7.8125 59.421875 
L 7.8125 69.390625 
Q 13.765625 71.78125 18.9375 73 
Q 24.125 74.21875 28.421875 74.21875 
Q 39.75 74.21875 46.484375 68.546875 
Q 53.21875 62.890625 53.21875 53.421875 
Q 53.21875 48.921875 51.53125 44.890625 
Q 49.859375 40.875 45.40625 35.40625 
Q 44.1875 33.984375 37.640625 27.21875 
Q 31.109375 20.453125 19.1875 8.296875 
z
" id="DejaVuSans-50"/>
      </defs>
      <g transform="translate(579.839162 518.598438)scale(0.1 -0.1)">
       <use xlink:href="#DejaVuSans-50"/>
       <use x="63.623047" xlink:href="#DejaVuSans-48"/>
       <use x="127.246094" xlink:href="#DejaVuSans-48"/>
      </g>
     </g>
    </g>
    <g id="xtick_6">
     <g id="line2d_6">
      <g>
       <use style="stroke:#000000;stroke-width:0.8;" x="691.091729" xlink:href="#m09f71cd5f7" y="504"/>
      </g>
     </g>
     <g id="text_6">
      <!-- 250 -->
      <g transform="translate(681.547979 518.598438)scale(0.1 -0.1)">
       <use xlink:href="#DejaVuSans-50"/>
       <use x="63.623047" xlink:href="#DejaVuSans-53"/>
       <use x="127.246094" xlink:href="#DejaVuSans-48"/>
      </g>
     </g>
    </g>
    <g id="xtick_7">
     <g id="line2d_7">
      <g>
       <use style="stroke:#000000;stroke-width:0.8;" x="792.800547" xlink:href="#m09f71cd5f7" y="504"/>
      </g>
     </g>
     <g id="text_7">
      <!-- 300 -->
      <defs>
       <path d="M 40.578125 39.3125 
Q 47.65625 37.796875 51.625 33 
Q 55.609375 28.21875 55.609375 21.1875 
Q 55.609375 10.40625 48.1875 4.484375 
Q 40.765625 -1.421875 27.09375 -1.421875 
Q 22.515625 -1.421875 17.65625 -0.515625 
Q 12.796875 0.390625 7.625 2.203125 
L 7.625 11.71875 
Q 11.71875 9.328125 16.59375 8.109375 
Q 21.484375 6.890625 26.8125 6.890625 
Q 36.078125 6.890625 40.9375 10.546875 
Q 45.796875 14.203125 45.796875 21.1875 
Q 45.796875 27.640625 41.28125 31.265625 
Q 36.765625 34.90625 28.71875 34.90625 
L 20.21875 34.90625 
L 20.21875 43.015625 
L 29.109375 43.015625 
Q 36.375 43.015625 40.234375 45.921875 
Q 44.09375 48.828125 44.09375 54.296875 
Q 44.09375 59.90625 40.109375 62.90625 
Q 36.140625 65.921875 28.71875 65.921875 
Q 24.65625 65.921875 20.015625 65.03125 
Q 15.375 64.15625 9.8125 62.3125 
L 9.8125 71.09375 
Q 15.4375 72.65625 20.34375 73.4375 
Q 25.25 74.21875 29.59375 74.21875 
Q 40.828125 74.21875 47.359375 69.109375 
Q 53.90625 64.015625 53.90625 55.328125 
Q 53.90625 49.265625 50.4375 45.09375 
Q 46.96875 40.921875 40.578125 39.3125 
z
" id="DejaVuSans-51"/>
      </defs>
      <g transform="translate(783.256797 518.598438)scale(0.1 -0.1)">
       <use xlink:href="#DejaVuSans-51"/>
       <use x="63.623047" xlink:href="#DejaVuSans-48"/>
       <use x="127.246094" xlink:href="#DejaVuSans-48"/>
      </g>
     </g>
    </g>
    <g id="xtick_8">
     <g id="line2d_8">
      <g>
       <use style="stroke:#000000;stroke-width:0.8;" x="894.509364" xlink:href="#m09f71cd5f7" y="504"/>
      </g>
     </g>
     <g id="text_8">
      <!-- 350 -->
      <g transform="translate(884.965614 518.598438)scale(0.1 -0.1)">
       <use xlink:href="#DejaVuSans-51"/>
       <use x="63.623047" xlink:href="#DejaVuSans-53"/>
       <use x="127.246094" xlink:href="#DejaVuSans-48"/>
      </g>
     </g>
    </g>
    <g id="xtick_9">
     <g id="line2d_9">
      <g>
       <use style="stroke:#000000;stroke-width:0.8;" x="996.218182" xlink:href="#m09f71cd5f7" y="504"/>
      </g>
     </g>
     <g id="text_9">
      <!-- 400 -->
      <defs>
       <path d="M 37.796875 64.3125 
L 12.890625 25.390625 
L 37.796875 25.390625 
z
M 35.203125 72.90625 
L 47.609375 72.90625 
L 47.609375 25.390625 
L 58.015625 25.390625 
L 58.015625 17.1875 
L 47.609375 17.1875 
L 47.609375 0 
L 37.796875 0 
L 37.796875 17.1875 
L 4.890625 17.1875 
L 4.890625 26.703125 
z
" id="DejaVuSans-52"/>
      </defs>
      <g transform="translate(986.674432 518.598438)scale(0.1 -0.1)">
       <use xlink:href="#DejaVuSans-52"/>
       <use x="63.623047" xlink:href="#DejaVuSans-48"/>
       <use x="127.246094" xlink:href="#DejaVuSans-48"/>
      </g>
     </g>
    </g>
    <g id="text_10">
     <!-- Number of Neurons pruned -->
     <defs>
      <path d="M 9.8125 72.90625 
L 23.09375 72.90625 
L 55.421875 11.921875 
L 55.421875 72.90625 
L 64.984375 72.90625 
L 64.984375 0 
L 51.703125 0 
L 19.390625 60.984375 
L 19.390625 0 
L 9.8125 0 
z
" id="DejaVuSans-78"/>
      <path d="M 8.5 21.578125 
L 8.5 54.6875 
L 17.484375 54.6875 
L 17.484375 21.921875 
Q 17.484375 14.15625 20.5 10.265625 
Q 23.53125 6.390625 29.59375 6.390625 
Q 36.859375 6.390625 41.078125 11.03125 
Q 45.3125 15.671875 45.3125 23.6875 
L 45.3125 54.6875 
L 54.296875 54.6875 
L 54.296875 0 
L 45.3125 0 
L 45.3125 8.40625 
Q 42.046875 3.421875 37.71875 1 
Q 33.40625 -1.421875 27.6875 -1.421875 
Q 18.265625 -1.421875 13.375 4.4375 
Q 8.5 10.296875 8.5 21.578125 
z
M 31.109375 56 
z
" id="DejaVuSans-117"/>
      <path d="M 52 44.1875 
Q 55.375 50.25 60.0625 53.125 
Q 64.75 56 71.09375 56 
Q 79.640625 56 84.28125 50.015625 
Q 88.921875 44.046875 88.921875 33.015625 
L 88.921875 0 
L 79.890625 0 
L 79.890625 32.71875 
Q 79.890625 40.578125 77.09375 44.375 
Q 74.3125 48.1875 68.609375 48.1875 
Q 61.625 48.1875 57.5625 43.546875 
Q 53.515625 38.921875 53.515625 30.90625 
L 53.515625 0 
L 44.484375 0 
L 44.484375 32.71875 
Q 44.484375 40.625 41.703125 44.40625 
Q 38.921875 48.1875 33.109375 48.1875 
Q 26.21875 48.1875 22.15625 43.53125 
Q 18.109375 38.875 18.109375 30.90625 
L 18.109375 0 
L 9.078125 0 
L 9.078125 54.6875 
L 18.109375 54.6875 
L 18.109375 46.1875 
Q 21.1875 51.21875 25.484375 53.609375 
Q 29.78125 56 35.6875 56 
Q 41.65625 56 45.828125 52.96875 
Q 50 49.953125 52 44.1875 
z
" id="DejaVuSans-109"/>
      <path d="M 48.6875 27.296875 
Q 48.6875 37.203125 44.609375 42.84375 
Q 40.53125 48.484375 33.40625 48.484375 
Q 26.265625 48.484375 22.1875 42.84375 
Q 18.109375 37.203125 18.109375 27.296875 
Q 18.109375 17.390625 22.1875 11.75 
Q 26.265625 6.109375 33.40625 6.109375 
Q 40.53125 6.109375 44.609375 11.75 
Q 48.6875 17.390625 48.6875 27.296875 
z
M 18.109375 46.390625 
Q 20.953125 51.265625 25.265625 53.625 
Q 29.59375 56 35.59375 56 
Q 45.5625 56 51.78125 48.09375 
Q 58.015625 40.1875 58.015625 27.296875 
Q 58.015625 14.40625 51.78125 6.484375 
Q 45.5625 -1.421875 35.59375 -1.421875 
Q 29.59375 -1.421875 25.265625 0.953125 
Q 20.953125 3.328125 18.109375 8.203125 
L 18.109375 0 
L 9.078125 0 
L 9.078125 75.984375 
L 18.109375 75.984375 
z
" id="DejaVuSans-98"/>
      <path d="M 56.203125 29.59375 
L 56.203125 25.203125 
L 14.890625 25.203125 
Q 15.484375 15.921875 20.484375 11.0625 
Q 25.484375 6.203125 34.421875 6.203125 
Q 39.59375 6.203125 44.453125 7.46875 
Q 49.3125 8.734375 54.109375 11.28125 
L 54.109375 2.78125 
Q 49.265625 0.734375 44.1875 -0.34375 
Q 39.109375 -1.421875 33.890625 -1.421875 
Q 20.796875 -1.421875 13.15625 6.1875 
Q 5.515625 13.8125 5.515625 26.8125 
Q 5.515625 40.234375 12.765625 48.109375 
Q 20.015625 56 32.328125 56 
Q 43.359375 56 49.78125 48.890625 
Q 56.203125 41.796875 56.203125 29.59375 
z
M 47.21875 32.234375 
Q 47.125 39.59375 43.09375 43.984375 
Q 39.0625 48.390625 32.421875 48.390625 
Q 24.90625 48.390625 20.390625 44.140625 
Q 15.875 39.890625 15.1875 32.171875 
z
" id="DejaVuSans-101"/>
      <path d="M 41.109375 46.296875 
Q 39.59375 47.171875 37.8125 47.578125 
Q 36.03125 48 33.890625 48 
Q 26.265625 48 22.1875 43.046875 
Q 18.109375 38.09375 18.109375 28.8125 
L 18.109375 0 
L 9.078125 0 
L 9.078125 54.6875 
L 18.109375 54.6875 
L 18.109375 46.1875 
Q 20.953125 51.171875 25.484375 53.578125 
Q 30.03125 56 36.53125 56 
Q 37.453125 56 38.578125 55.875 
Q 39.703125 55.765625 41.0625 55.515625 
z
" id="DejaVuSans-114"/>
      <path id="DejaVuSans-32"/>
      <path d="M 30.609375 48.390625 
Q 23.390625 48.390625 19.1875 42.75 
Q 14.984375 37.109375 14.984375 27.296875 
Q 14.984375 17.484375 19.15625 11.84375 
Q 23.34375 6.203125 30.609375 6.203125 
Q 37.796875 6.203125 41.984375 11.859375 
Q 46.1875 17.53125 46.1875 27.296875 
Q 46.1875 37.015625 41.984375 42.703125 
Q 37.796875 48.390625 30.609375 48.390625 
z
M 30.609375 56 
Q 42.328125 56 49.015625 48.375 
Q 55.71875 40.765625 55.71875 27.296875 
Q 55.71875 13.875 49.015625 6.21875 
Q 42.328125 -1.421875 30.609375 -1.421875 
Q 18.84375 -1.421875 12.171875 6.21875 
Q 5.515625 13.875 5.515625 27.296875 
Q 5.515625 40.765625 12.171875 48.375 
Q 18.84375 56 30.609375 56 
z
" id="DejaVuSans-111"/>
      <path d="M 37.109375 75.984375 
L 37.109375 68.5 
L 28.515625 68.5 
Q 23.6875 68.5 21.796875 66.546875 
Q 19.921875 64.59375 19.921875 59.515625 
L 19.921875 54.6875 
L 34.71875 54.6875 
L 34.71875 47.703125 
L 19.921875 47.703125 
L 19.921875 0 
L 10.890625 0 
L 10.890625 47.703125 
L 2.296875 47.703125 
L 2.296875 54.6875 
L 10.890625 54.6875 
L 10.890625 58.5 
Q 10.890625 67.625 15.140625 71.796875 
Q 19.390625 75.984375 28.609375 75.984375 
z
" id="DejaVuSans-102"/>
      <path d="M 54.890625 33.015625 
L 54.890625 0 
L 45.90625 0 
L 45.90625 32.71875 
Q 45.90625 40.484375 42.875 44.328125 
Q 39.84375 48.1875 33.796875 48.1875 
Q 26.515625 48.1875 22.3125 43.546875 
Q 18.109375 38.921875 18.109375 30.90625 
L 18.109375 0 
L 9.078125 0 
L 9.078125 54.6875 
L 18.109375 54.6875 
L 18.109375 46.1875 
Q 21.34375 51.125 25.703125 53.5625 
Q 30.078125 56 35.796875 56 
Q 45.21875 56 50.046875 50.171875 
Q 54.890625 44.34375 54.890625 33.015625 
z
" id="DejaVuSans-110"/>
      <path d="M 44.28125 53.078125 
L 44.28125 44.578125 
Q 40.484375 46.53125 36.375 47.5 
Q 32.28125 48.484375 27.875 48.484375 
Q 21.1875 48.484375 17.84375 46.4375 
Q 14.5 44.390625 14.5 40.28125 
Q 14.5 37.15625 16.890625 35.375 
Q 19.28125 33.59375 26.515625 31.984375 
L 29.59375 31.296875 
Q 39.15625 29.25 43.1875 25.515625 
Q 47.21875 21.78125 47.21875 15.09375 
Q 47.21875 7.46875 41.1875 3.015625 
Q 35.15625 -1.421875 24.609375 -1.421875 
Q 20.21875 -1.421875 15.453125 -0.5625 
Q 10.6875 0.296875 5.421875 2 
L 5.421875 11.28125 
Q 10.40625 8.6875 15.234375 7.390625 
Q 20.0625 6.109375 24.8125 6.109375 
Q 31.15625 6.109375 34.5625 8.28125 
Q 37.984375 10.453125 37.984375 14.40625 
Q 37.984375 18.0625 35.515625 20.015625 
Q 33.0625 21.96875 24.703125 23.78125 
L 21.578125 24.515625 
Q 13.234375 26.265625 9.515625 29.90625 
Q 5.8125 33.546875 5.8125 39.890625 
Q 5.8125 47.609375 11.28125 51.796875 
Q 16.75 56 26.8125 56 
Q 31.78125 56 36.171875 55.265625 
Q 40.578125 54.546875 44.28125 53.078125 
z
" id="DejaVuSans-115"/>
      <path d="M 18.109375 8.203125 
L 18.109375 -20.796875 
L 9.078125 -20.796875 
L 9.078125 54.6875 
L 18.109375 54.6875 
L 18.109375 46.390625 
Q 20.953125 51.265625 25.265625 53.625 
Q 29.59375 56 35.59375 56 
Q 45.5625 56 51.78125 48.09375 
Q 58.015625 40.1875 58.015625 27.296875 
Q 58.015625 14.40625 51.78125 6.484375 
Q 45.5625 -1.421875 35.59375 -1.421875 
Q 29.59375 -1.421875 25.265625 0.953125 
Q 20.953125 3.328125 18.109375 8.203125 
z
M 48.6875 27.296875 
Q 48.6875 37.203125 44.609375 42.84375 
Q 40.53125 48.484375 33.40625 48.484375 
Q 26.265625 48.484375 22.1875 42.84375 
Q 18.109375 37.203125 18.109375 27.296875 
Q 18.109375 17.390625 22.1875 11.75 
Q 26.265625 6.109375 33.40625 6.109375 
Q 40.53125 6.109375 44.609375 11.75 
Q 48.6875 17.390625 48.6875 27.296875 
z
" id="DejaVuSans-112"/>
      <path d="M 45.40625 46.390625 
L 45.40625 75.984375 
L 54.390625 75.984375 
L 54.390625 0 
L 45.40625 0 
L 45.40625 8.203125 
Q 42.578125 3.328125 38.25 0.953125 
Q 33.9375 -1.421875 27.875 -1.421875 
Q 17.96875 -1.421875 11.734375 6.484375 
Q 5.515625 14.40625 5.515625 27.296875 
Q 5.515625 40.1875 11.734375 48.09375 
Q 17.96875 56 27.875 56 
Q 33.9375 56 38.25 53.625 
Q 42.578125 51.265625 45.40625 46.390625 
z
M 14.796875 27.296875 
Q 14.796875 17.390625 18.875 11.75 
Q 22.953125 6.109375 30.078125 6.109375 
Q 37.203125 6.109375 41.296875 11.75 
Q 45.40625 17.390625 45.40625 27.296875 
Q 45.40625 37.203125 41.296875 42.84375 
Q 37.203125 48.484375 30.078125 48.484375 
Q 22.953125 48.484375 18.875 42.84375 
Q 14.796875 37.203125 14.796875 27.296875 
z
" id="DejaVuSans-100"/>
     </defs>
     <g transform="translate(522.147656 532.276562)scale(0.1 -0.1)">
      <use xlink:href="#DejaVuSans-78"/>
      <use x="74.804688" xlink:href="#DejaVuSans-117"/>
      <use x="138.183594" xlink:href="#DejaVuSans-109"/>
      <use x="235.595703" xlink:href="#DejaVuSans-98"/>
      <use x="299.072266" xlink:href="#DejaVuSans-101"/>
      <use x="360.595703" xlink:href="#DejaVuSans-114"/>
      <use x="401.708984" xlink:href="#DejaVuSans-32"/>
      <use x="433.496094" xlink:href="#DejaVuSans-111"/>
      <use x="494.677734" xlink:href="#DejaVuSans-102"/>
      <use x="529.882812" xlink:href="#DejaVuSans-32"/>
      <use x="561.669922" xlink:href="#DejaVuSans-78"/>
      <use x="636.474609" xlink:href="#DejaVuSans-101"/>
      <use x="697.998047" xlink:href="#DejaVuSans-117"/>
      <use x="761.376953" xlink:href="#DejaVuSans-114"/>
      <use x="800.240234" xlink:href="#DejaVuSans-111"/>
      <use x="861.421875" xlink:href="#DejaVuSans-110"/>
      <use x="924.800781" xlink:href="#DejaVuSans-115"/>
      <use x="976.900391" xlink:href="#DejaVuSans-32"/>
      <use x="1008.6875" xlink:href="#DejaVuSans-112"/>
      <use x="1072.164062" xlink:href="#DejaVuSans-114"/>
      <use x="1113.277344" xlink:href="#DejaVuSans-117"/>
      <use x="1176.65625" xlink:href="#DejaVuSans-110"/>
      <use x="1240.035156" xlink:href="#DejaVuSans-101"/>
      <use x="1301.558594" xlink:href="#DejaVuSans-100"/>
     </g>
    </g>
   </g>
   <g id="matplotlib.axis_2">
    <g id="ytick_1">
     <g id="line2d_10">
      <defs>
       <path d="M 0 0 
L -3.5 0 
" id="m44da2864c0" style="stroke:#000000;stroke-width:0.8;"/>
      </defs>
      <g>
       <use style="stroke:#000000;stroke-width:0.8;" x="144" xlink:href="#m44da2864c0" y="484.232727"/>
      </g>
     </g>
     <g id="text_11">
      <!-- 0 -->
      <g transform="translate(130.6375 488.031946)scale(0.1 -0.1)">
       <use xlink:href="#DejaVuSans-48"/>
      </g>
     </g>
    </g>
    <g id="ytick_2">
     <g id="line2d_11">
      <g>
       <use style="stroke:#000000;stroke-width:0.8;" x="144" xlink:href="#m44da2864c0" y="422.396443"/>
      </g>
     </g>
     <g id="text_12">
      <!-- 5 -->
      <g transform="translate(130.6375 426.195662)scale(0.1 -0.1)">
       <use xlink:href="#DejaVuSans-53"/>
      </g>
     </g>
    </g>
    <g id="ytick_3">
     <g id="line2d_12">
      <g>
       <use style="stroke:#000000;stroke-width:0.8;" x="144" xlink:href="#m44da2864c0" y="360.560159"/>
      </g>
     </g>
     <g id="text_13">
      <!-- 10 -->
      <g transform="translate(124.275 364.359378)scale(0.1 -0.1)">
       <use xlink:href="#DejaVuSans-49"/>
       <use x="63.623047" xlink:href="#DejaVuSans-48"/>
      </g>
     </g>
    </g>
    <g id="ytick_4">
     <g id="line2d_13">
      <g>
       <use style="stroke:#000000;stroke-width:0.8;" x="144" xlink:href="#m44da2864c0" y="298.723875"/>
      </g>
     </g>
     <g id="text_14">
      <!-- 15 -->
      <g transform="translate(124.275 302.523094)scale(0.1 -0.1)">
       <use xlink:href="#DejaVuSans-49"/>
       <use x="63.623047" xlink:href="#DejaVuSans-53"/>
      </g>
     </g>
    </g>
    <g id="ytick_5">
     <g id="line2d_14">
      <g>
       <use style="stroke:#000000;stroke-width:0.8;" x="144" xlink:href="#m44da2864c0" y="236.887591"/>
      </g>
     </g>
     <g id="text_15">
      <!-- 20 -->
      <g transform="translate(124.275 240.68681)scale(0.1 -0.1)">
       <use xlink:href="#DejaVuSans-50"/>
       <use x="63.623047" xlink:href="#DejaVuSans-48"/>
      </g>
     </g>
    </g>
    <g id="ytick_6">
     <g id="line2d_15">
      <g>
       <use style="stroke:#000000;stroke-width:0.8;" x="144" xlink:href="#m44da2864c0" y="175.051307"/>
      </g>
     </g>
     <g id="text_16">
      <!-- 25 -->
      <g transform="translate(124.275 178.850526)scale(0.1 -0.1)">
       <use xlink:href="#DejaVuSans-50"/>
       <use x="63.623047" xlink:href="#DejaVuSans-53"/>
      </g>
     </g>
    </g>
    <g id="ytick_7">
     <g id="line2d_16">
      <g>
       <use style="stroke:#000000;stroke-width:0.8;" x="144" xlink:href="#m44da2864c0" y="113.215023"/>
      </g>
     </g>
     <g id="text_17">
      <!-- 30 -->
      <g transform="translate(124.275 117.014242)scale(0.1 -0.1)">
       <use xlink:href="#DejaVuSans-51"/>
       <use x="63.623047" xlink:href="#DejaVuSans-48"/>
      </g>
     </g>
    </g>
    <g id="text_18">
     <!-- Squared Deviation -->
     <defs>
      <path d="M 53.515625 70.515625 
L 53.515625 60.890625 
Q 47.90625 63.578125 42.921875 64.890625 
Q 37.9375 66.21875 33.296875 66.21875 
Q 25.25 66.21875 20.875 63.09375 
Q 16.5 59.96875 16.5 54.203125 
Q 16.5 49.359375 19.40625 46.890625 
Q 22.3125 44.4375 30.421875 42.921875 
L 36.375 41.703125 
Q 47.40625 39.59375 52.65625 34.296875 
Q 57.90625 29 57.90625 20.125 
Q 57.90625 9.515625 50.796875 4.046875 
Q 43.703125 -1.421875 29.984375 -1.421875 
Q 24.8125 -1.421875 18.96875 -0.25 
Q 13.140625 0.921875 6.890625 3.21875 
L 6.890625 13.375 
Q 12.890625 10.015625 18.65625 8.296875 
Q 24.421875 6.59375 29.984375 6.59375 
Q 38.421875 6.59375 43.015625 9.90625 
Q 47.609375 13.234375 47.609375 19.390625 
Q 47.609375 24.75 44.3125 27.78125 
Q 41.015625 30.8125 33.5 32.328125 
L 27.484375 33.5 
Q 16.453125 35.6875 11.515625 40.375 
Q 6.59375 45.0625 6.59375 53.421875 
Q 6.59375 63.09375 13.40625 68.65625 
Q 20.21875 74.21875 32.171875 74.21875 
Q 37.3125 74.21875 42.625 73.28125 
Q 47.953125 72.359375 53.515625 70.515625 
z
" id="DejaVuSans-83"/>
      <path d="M 14.796875 27.296875 
Q 14.796875 17.390625 18.875 11.75 
Q 22.953125 6.109375 30.078125 6.109375 
Q 37.203125 6.109375 41.296875 11.75 
Q 45.40625 17.390625 45.40625 27.296875 
Q 45.40625 37.203125 41.296875 42.84375 
Q 37.203125 48.484375 30.078125 48.484375 
Q 22.953125 48.484375 18.875 42.84375 
Q 14.796875 37.203125 14.796875 27.296875 
z
M 45.40625 8.203125 
Q 42.578125 3.328125 38.25 0.953125 
Q 33.9375 -1.421875 27.875 -1.421875 
Q 17.96875 -1.421875 11.734375 6.484375 
Q 5.515625 14.40625 5.515625 27.296875 
Q 5.515625 40.1875 11.734375 48.09375 
Q 17.96875 56 27.875 56 
Q 33.9375 56 38.25 53.625 
Q 42.578125 51.265625 45.40625 46.390625 
L 45.40625 54.6875 
L 54.390625 54.6875 
L 54.390625 -20.796875 
L 45.40625 -20.796875 
z
" id="DejaVuSans-113"/>
      <path d="M 34.28125 27.484375 
Q 23.390625 27.484375 19.1875 25 
Q 14.984375 22.515625 14.984375 16.5 
Q 14.984375 11.71875 18.140625 8.90625 
Q 21.296875 6.109375 26.703125 6.109375 
Q 34.1875 6.109375 38.703125 11.40625 
Q 43.21875 16.703125 43.21875 25.484375 
L 43.21875 27.484375 
z
M 52.203125 31.203125 
L 52.203125 0 
L 43.21875 0 
L 43.21875 8.296875 
Q 40.140625 3.328125 35.546875 0.953125 
Q 30.953125 -1.421875 24.3125 -1.421875 
Q 15.921875 -1.421875 10.953125 3.296875 
Q 6 8.015625 6 15.921875 
Q 6 25.140625 12.171875 29.828125 
Q 18.359375 34.515625 30.609375 34.515625 
L 43.21875 34.515625 
L 43.21875 35.40625 
Q 43.21875 41.609375 39.140625 45 
Q 35.0625 48.390625 27.6875 48.390625 
Q 23 48.390625 18.546875 47.265625 
Q 14.109375 46.140625 10.015625 43.890625 
L 10.015625 52.203125 
Q 14.9375 54.109375 19.578125 55.046875 
Q 24.21875 56 28.609375 56 
Q 40.484375 56 46.34375 49.84375 
Q 52.203125 43.703125 52.203125 31.203125 
z
" id="DejaVuSans-97"/>
      <path d="M 19.671875 64.796875 
L 19.671875 8.109375 
L 31.59375 8.109375 
Q 46.6875 8.109375 53.6875 14.9375 
Q 60.6875 21.78125 60.6875 36.53125 
Q 60.6875 51.171875 53.6875 57.984375 
Q 46.6875 64.796875 31.59375 64.796875 
z
M 9.8125 72.90625 
L 30.078125 72.90625 
Q 51.265625 72.90625 61.171875 64.09375 
Q 71.09375 55.28125 71.09375 36.53125 
Q 71.09375 17.671875 61.125 8.828125 
Q 51.171875 0 30.078125 0 
L 9.8125 0 
z
" id="DejaVuSans-68"/>
      <path d="M 2.984375 54.6875 
L 12.5 54.6875 
L 29.59375 8.796875 
L 46.6875 54.6875 
L 56.203125 54.6875 
L 35.6875 0 
L 23.484375 0 
z
" id="DejaVuSans-118"/>
      <path d="M 9.421875 54.6875 
L 18.40625 54.6875 
L 18.40625 0 
L 9.421875 0 
z
M 9.421875 75.984375 
L 18.40625 75.984375 
L 18.40625 64.59375 
L 9.421875 64.59375 
z
" id="DejaVuSans-105"/>
      <path d="M 18.3125 70.21875 
L 18.3125 54.6875 
L 36.8125 54.6875 
L 36.8125 47.703125 
L 18.3125 47.703125 
L 18.3125 18.015625 
Q 18.3125 11.328125 20.140625 9.421875 
Q 21.96875 7.515625 27.59375 7.515625 
L 36.8125 7.515625 
L 36.8125 0 
L 27.59375 0 
Q 17.1875 0 13.234375 3.875 
Q 9.28125 7.765625 9.28125 18.015625 
L 9.28125 47.703125 
L 2.6875 47.703125 
L 2.6875 54.6875 
L 9.28125 54.6875 
L 9.28125 70.21875 
z
" id="DejaVuSans-116"/>
     </defs>
     <g transform="translate(118.195312 332.840469)rotate(-90)scale(0.1 -0.1)">
      <use xlink:href="#DejaVuSans-83"/>
      <use x="63.476562" xlink:href="#DejaVuSans-113"/>
      <use x="126.953125" xlink:href="#DejaVuSans-117"/>
      <use x="190.332031" xlink:href="#DejaVuSans-97"/>
      <use x="251.611328" xlink:href="#DejaVuSans-114"/>
      <use x="290.474609" xlink:href="#DejaVuSans-101"/>
      <use x="351.998047" xlink:href="#DejaVuSans-100"/>
      <use x="415.474609" xlink:href="#DejaVuSans-32"/>
      <use x="447.261719" xlink:href="#DejaVuSans-68"/>
      <use x="524.263672" xlink:href="#DejaVuSans-101"/>
      <use x="585.787109" xlink:href="#DejaVuSans-118"/>
      <use x="644.966797" xlink:href="#DejaVuSans-105"/>
      <use x="672.75" xlink:href="#DejaVuSans-97"/>
      <use x="734.029297" xlink:href="#DejaVuSans-116"/>
      <use x="773.238281" xlink:href="#DejaVuSans-105"/>
      <use x="801.021484" xlink:href="#DejaVuSans-111"/>
      <use x="862.203125" xlink:href="#DejaVuSans-110"/>
     </g>
    </g>
   </g>
   <g id="line2d_17">
    <path clip-path="url(#pe02206e425)" d="M 184.581818 484.232727 
L 247.641285 484.232727 
L 251.709638 483.870558 
L 253.743814 482.787559 
L 255.77799 482.70108 
L 257.812167 481.005187 
L 261.880519 480.569103 
L 263.914696 479.978292 
L 265.948872 479.179881 
L 267.983049 479.020232 
L 270.017225 478.064516 
L 272.051401 475.605565 
L 274.085578 475.677919 
L 276.119754 474.551584 
L 278.15393 473.208132 
L 280.188107 473.176743 
L 282.222283 470.776847 
L 284.256459 470.53708 
L 286.290636 471.143625 
L 288.324812 469.189853 
L 290.358988 468.302704 
L 292.393165 467.59335 
L 294.427341 467.231871 
L 296.461517 466.301076 
L 298.495694 466.265073 
L 300.52987 465.735384 
L 302.564046 462.436576 
L 304.598223 459.755386 
L 306.632399 459.75518 
L 308.666576 458.677643 
L 310.700752 458.007769 
L 312.734928 455.757779 
L 314.769105 454.549007 
L 316.803281 451.716046 
L 318.837457 450.793835 
L 320.871634 448.246324 
L 322.90581 446.580913 
L 324.939986 446.770885 
L 326.974163 446.368559 
L 329.008339 445.41816 
L 331.042515 444.270052 
L 335.110868 441.056653 
L 337.145044 437.467569 
L 339.179221 435.443605 
L 341.213397 434.324856 
L 343.247573 430.50762 
L 345.28175 430.264556 
L 347.315926 429.382104 
L 349.350103 428.048206 
L 351.384279 427.414125 
L 353.418455 424.270728 
L 355.452632 422.239195 
L 359.520984 412.489302 
L 361.555161 408.733231 
L 363.589337 406.249774 
L 365.623513 400.971007 
L 367.65769 398.487622 
L 369.691866 391.293903 
L 371.726042 392.019201 
L 373.760219 393.170906 
L 375.794395 390.505133 
L 377.828571 390.450997 
L 379.862748 389.1595 
L 381.896924 383.472932 
L 383.9311 381.724929 
L 385.965277 379.805389 
L 387.999453 375.295884 
L 390.03363 372.440687 
L 392.067806 372.270766 
L 394.101982 368.68602 
L 396.136159 364.140176 
L 398.170335 357.356948 
L 400.204511 358.253942 
L 402.238688 353.97261 
L 404.272864 353.230699 
L 406.30704 352.636277 
L 408.341217 353.32549 
L 410.375393 350.032677 
L 412.409569 346.185153 
L 414.443746 344.189575 
L 416.477922 344.115259 
L 418.512098 342.683438 
L 420.546275 340.11232 
L 422.580451 339.004868 
L 424.614627 335.352575 
L 426.648804 329.9605 
L 428.68298 328.096747 
L 430.717157 322.160729 
L 432.751333 322.870713 
L 434.785509 318.797268 
L 436.819686 319.22184 
L 438.853862 319.836691 
L 440.888038 318.680563 
L 442.922215 312.620173 
L 444.956391 303.407854 
L 446.990567 304.529153 
L 449.024744 294.459456 
L 451.05892 294.997998 
L 453.093096 288.404245 
L 455.127273 290.236542 
L 457.161449 286.429956 
L 459.195625 281.565429 
L 461.229802 276.249274 
L 463.263978 278.038286 
L 465.298154 276.24333 
L 467.332331 273.806833 
L 469.366507 269.75503 
L 471.400684 267.951181 
L 473.43486 267.174878 
L 475.469036 268.002156 
L 477.503213 264.900128 
L 479.537389 266.471676 
L 481.571565 262.108834 
L 483.605742 262.961187 
L 485.639918 260.030955 
L 487.674094 256.892576 
L 489.708271 251.290079 
L 491.742447 245.339365 
L 493.776623 243.558161 
L 495.8108 242.01407 
L 497.844976 238.704343 
L 499.879152 238.867789 
L 501.913329 236.584972 
L 503.947505 232.934814 
L 505.981681 231.655365 
L 508.015858 227.042317 
L 510.050034 226.244997 
L 512.084211 225.967334 
L 514.118387 222.279647 
L 516.152563 221.579559 
L 518.18674 223.25893 
L 520.220916 222.783241 
L 522.255092 224.281358 
L 524.289269 217.482324 
L 526.323445 217.109954 
L 528.357621 214.409947 
L 530.391798 212.594351 
L 532.425974 209.13486 
L 534.46015 208.919118 
L 536.494327 208.547903 
L 538.528503 205.550113 
L 540.562679 203.457232 
L 542.596856 199.603315 
L 544.631032 198.528002 
L 546.665208 197.787224 
L 548.699385 196.860967 
L 550.733561 196.597387 
L 554.801914 194.488442 
L 556.83609 194.109467 
L 558.870267 192.896938 
L 562.938619 192.419787 
L 564.972796 191.744254 
L 567.006972 191.282954 
L 569.041148 190.149991 
L 571.075325 190.407933 
L 573.109501 189.896719 
L 575.143677 190.237292 
L 577.177854 188.386006 
L 581.246206 187.672425 
L 583.280383 186.035419 
L 585.314559 184.876791 
L 587.348735 184.741557 
L 591.417088 179.600571 
L 593.451265 177.371064 
L 595.485441 175.628121 
L 597.519617 174.992572 
L 599.553794 173.81795 
L 603.622146 173.700219 
L 605.656323 172.730418 
L 609.724675 173.101892 
L 611.758852 172.921533 
L 613.793028 172.865157 
L 615.827204 171.527962 
L 617.861381 167.338708 
L 619.895557 166.721676 
L 621.929733 166.782841 
L 623.96391 166.416698 
L 625.998086 166.61305 
L 628.032262 166.325386 
L 630.066439 166.346404 
L 632.100615 164.882279 
L 634.134792 164.362243 
L 636.168968 163.293251 
L 642.271497 161.669431 
L 644.305673 159.915637 
L 646.33985 159.190545 
L 648.374026 157.881751 
L 650.408202 157.252146 
L 652.442379 156.222854 
L 654.476555 155.944343 
L 656.510731 155.928185 
L 658.544908 155.15266 
L 660.579084 155.025658 
L 662.61326 153.846461 
L 666.681613 153.585098 
L 668.715789 153.3377 
L 670.749966 151.743602 
L 672.784142 151.83673 
L 674.818319 151.430438 
L 676.852495 151.185069 
L 678.886671 149.751562 
L 680.920848 149.267381 
L 682.955024 149.358127 
L 684.9892 150.028092 
L 687.023377 149.51183 
L 689.057553 148.218086 
L 691.091729 149.013897 
L 693.125906 146.569356 
L 697.194258 145.829379 
L 699.228435 144.942634 
L 701.262611 144.899231 
L 703.296787 145.468426 
L 705.330964 145.292478 
L 707.36514 143.886428 
L 711.433493 143.205659 
L 713.467669 142.528853 
L 715.501846 142.469598 
L 717.536022 141.498287 
L 719.570198 140.664263 
L 721.604375 140.352114 
L 723.638551 140.165174 
L 725.672727 140.259906 
L 727.706904 139.438926 
L 731.775256 137.562022 
L 733.809433 137.424783 
L 735.843609 136.719199 
L 737.877785 136.52714 
L 739.911962 136.01661 
L 746.014491 135.916901 
L 750.082843 134.589189 
L 754.151196 134.406188 
L 756.185373 133.348331 
L 758.219549 132.755713 
L 762.287902 132.368104 
L 764.322078 130.606761 
L 766.356254 130.083211 
L 768.390431 130.373304 
L 772.458783 129.643235 
L 774.49296 128.949398 
L 776.527136 127.748286 
L 778.561312 126.058512 
L 780.595489 125.027144 
L 782.629665 123.766731 
L 786.698018 123.494117 
L 788.732194 122.874183 
L 790.76637 122.75355 
L 792.800547 122.453031 
L 794.834723 121.726335 
L 796.8689 120.60651 
L 798.903076 118.015011 
L 800.937252 118.127836 
L 802.971429 117.648679 
L 805.005605 116.505006 
L 809.073958 116.380458 
L 811.108134 115.959801 
L 813.14231 115.250584 
L 815.176487 115.100371 
L 817.210663 113.673139 
L 819.244839 113.65941 
L 821.279016 113.370024 
L 825.347368 112.971565 
L 827.381545 112.648683 
L 829.415721 112.115862 
L 831.449897 111.075153 
L 833.484074 109.813372 
L 835.51825 109.850925 
L 837.552427 110.16364 
L 839.586603 109.537856 
L 841.620779 109.492118 
L 845.689132 109.224764 
L 847.723308 108.183371 
L 849.757485 108.114186 
L 851.791661 107.641421 
L 853.825837 106.883069 
L 855.860014 106.334963 
L 857.89419 106.281204 
L 859.928366 105.724182 
L 861.962543 105.610602 
L 863.996719 105.060915 
L 866.030895 104.263076 
L 868.065072 102.715211 
L 870.099248 103.097041 
L 872.133424 103.15797 
L 874.167601 102.69693 
L 876.201777 102.371665 
L 882.304306 102.091007 
L 884.338483 101.798555 
L 886.372659 101.872364 
L 888.406835 101.261818 
L 890.441012 101.080775 
L 892.475188 101.70663 
L 894.509364 101.119838 
L 896.543541 100.97222 
L 898.577717 100.583856 
L 900.611893 99.54336 
L 902.64607 99.595869 
L 904.680246 99.086165 
L 906.714422 99.086165 
L 908.748599 98.522136 
L 910.782775 97.450691 
L 912.816951 98.689474 
L 914.851128 98.403249 
L 918.919481 98.316348 
L 920.953657 98.415326 
L 922.987833 99.302921 
L 925.02201 98.854241 
L 927.056186 99.246284 
L 929.090362 98.639891 
L 931.124539 98.372749 
L 933.158715 97.89772 
L 939.261244 98.025877 
L 943.329597 97.885478 
L 945.363773 97.886869 
L 947.397949 96.92273 
L 949.432126 96.699534 
L 953.500478 96.544132 
L 955.534655 96.366603 
L 957.568831 96.365211 
L 959.603008 96.182093 
L 967.739713 94.164907 
L 969.773889 94.238693 
L 973.842242 94.235084 
L 975.876418 94.466182 
L 977.910595 94.340242 
L 981.978947 94.784676 
L 984.013124 94.785903 
L 986.0473 94.641705 
L 988.081476 93.825467 
L 990.115653 93.586631 
L 992.149829 93.152411 
L 996.218182 93.158167 
L 996.218182 93.158167 
" style="fill:none;stroke:#1f77b4;stroke-linecap:square;stroke-width:1.5;"/>
   </g>
   <g id="line2d_18">
    <path clip-path="url(#pe02206e425)" d="M 184.581818 484.232727 
L 249.675461 484.18212 
L 251.709638 484.035272 
L 257.812167 483.904512 
L 263.914696 483.556216 
L 265.948872 483.125942 
L 267.983049 482.420992 
L 276.119754 481.826648 
L 278.15393 481.9475 
L 280.188107 481.379667 
L 282.222283 481.21263 
L 284.256459 480.884313 
L 286.290636 480.004879 
L 288.324812 479.339002 
L 290.358988 479.180537 
L 292.393165 478.124235 
L 294.427341 477.838434 
L 296.461517 477.340916 
L 298.495694 476.687763 
L 300.52987 476.776099 
L 302.564046 476.159619 
L 304.598223 475.112104 
L 306.632399 473.827687 
L 308.666576 473.624994 
L 310.700752 473.208483 
L 312.734928 472.544862 
L 314.769105 471.553096 
L 316.803281 471.624474 
L 318.837457 470.764584 
L 320.871634 470.275989 
L 322.90581 469.00112 
L 324.939986 466.899861 
L 326.974163 467.476052 
L 329.008339 467.308551 
L 331.042515 467.00911 
L 333.076692 465.514971 
L 335.110868 464.314346 
L 337.145044 464.454021 
L 339.179221 464.362864 
L 343.247573 461.858057 
L 345.28175 462.420324 
L 347.315926 462.008 
L 349.350103 461.213063 
L 351.384279 459.49221 
L 355.452632 457.647329 
L 357.486808 457.235037 
L 359.520984 456.997697 
L 361.555161 454.574913 
L 363.589337 454.640313 
L 365.623513 454.904922 
L 367.65769 454.908416 
L 369.691866 453.908147 
L 371.726042 452.006608 
L 373.760219 452.542174 
L 375.794395 452.934858 
L 377.828571 452.387722 
L 379.862748 452.039131 
L 381.896924 451.97326 
L 383.9311 452.240932 
L 385.965277 451.108393 
L 390.03363 447.142008 
L 392.067806 444.76435 
L 394.101982 444.421312 
L 396.136159 442.629177 
L 398.170335 441.156811 
L 400.204511 440.791027 
L 402.238688 439.312418 
L 404.272864 436.872816 
L 406.30704 437.594865 
L 408.341217 435.995061 
L 410.375393 436.024635 
L 412.409569 435.643389 
L 414.443746 435.664192 
L 416.477922 434.043691 
L 420.546275 432.542939 
L 422.580451 429.850322 
L 424.614627 429.147338 
L 426.648804 427.4417 
L 428.68298 428.863454 
L 430.717157 428.013495 
L 434.785509 426.921888 
L 436.819686 423.486529 
L 438.853862 421.731025 
L 440.888038 419.091376 
L 442.922215 418.679576 
L 444.956391 418.697946 
L 446.990567 417.447564 
L 449.024744 413.58325 
L 451.05892 412.16803 
L 453.093096 411.06046 
L 455.127273 410.100955 
L 457.161449 408.402883 
L 459.195625 408.745237 
L 461.229802 406.837993 
L 463.263978 407.958632 
L 465.298154 404.621289 
L 467.332331 400.640548 
L 469.366507 397.157781 
L 471.400684 393.953938 
L 473.43486 392.412141 
L 477.503213 388.87456 
L 479.537389 388.873151 
L 481.571565 387.145576 
L 483.605742 388.085507 
L 485.639918 387.515758 
L 487.674094 387.867082 
L 489.708271 386.421268 
L 491.742447 385.202252 
L 493.776623 385.408547 
L 495.8108 384.924048 
L 497.844976 383.017552 
L 501.913329 381.184441 
L 503.947505 380.916568 
L 508.015858 377.061826 
L 510.050034 373.737227 
L 512.084211 372.629491 
L 514.118387 371.311356 
L 516.152563 368.748034 
L 518.18674 367.331039 
L 520.220916 364.059892 
L 522.255092 363.109293 
L 524.289269 360.626031 
L 526.323445 355.774572 
L 528.357621 354.340971 
L 530.391798 352.257407 
L 532.425974 349.792674 
L 534.46015 347.583466 
L 536.494327 342.113854 
L 538.528503 341.426775 
L 540.562679 341.121467 
L 542.596856 337.66259 
L 544.631032 335.944804 
L 548.699385 334.798088 
L 550.733561 333.130734 
L 552.767738 329.359979 
L 554.801914 328.818407 
L 556.83609 326.778754 
L 558.870267 324.538998 
L 560.904443 319.014213 
L 562.938619 314.289815 
L 564.972796 308.880709 
L 567.006972 309.742768 
L 569.041148 305.933693 
L 571.075325 306.215696 
L 575.143677 303.775696 
L 577.177854 305.276973 
L 579.21203 304.781446 
L 581.246206 304.634182 
L 583.280383 305.059533 
L 585.314559 305.085492 
L 587.348735 306.116317 
L 589.382912 305.047915 
L 591.417088 306.797381 
L 593.451265 304.02695 
L 595.485441 304.221262 
L 597.519617 302.809622 
L 599.553794 301.965253 
L 601.58797 298.79641 
L 603.622146 296.947931 
L 605.656323 291.272934 
L 607.690499 287.555171 
L 609.724675 283.17939 
L 611.758852 281.650183 
L 613.793028 274.284149 
L 615.827204 270.190996 
L 617.861381 268.640843 
L 619.895557 264.999295 
L 621.929733 264.18591 
L 623.96391 264.026687 
L 625.998086 261.126837 
L 630.066439 260.390092 
L 632.100615 258.424991 
L 634.134792 256.88793 
L 636.168968 255.047046 
L 638.203144 253.643733 
L 640.237321 247.994387 
L 642.271497 246.8405 
L 644.305673 243.098347 
L 646.33985 241.877774 
L 650.408202 241.534465 
L 652.442379 241.256119 
L 654.476555 240.10327 
L 656.510731 236.773351 
L 658.544908 235.916682 
L 660.579084 228.811562 
L 662.61326 222.383602 
L 664.647437 221.526201 
L 666.681613 221.987572 
L 668.715789 219.759645 
L 670.749966 218.247989 
L 672.784142 217.603948 
L 674.818319 216.445579 
L 676.852495 214.033967 
L 678.886671 211.156433 
L 680.920848 211.567159 
L 682.955024 210.550817 
L 684.9892 208.601615 
L 687.023377 207.868031 
L 689.057553 204.613455 
L 691.091729 199.077099 
L 693.125906 192.133633 
L 695.160082 192.958599 
L 697.194258 190.967857 
L 699.228435 187.437411 
L 701.262611 179.70606 
L 703.296787 179.988534 
L 705.330964 175.484325 
L 707.36514 173.869869 
L 713.467669 167.406384 
L 715.501846 166.887316 
L 717.536022 162.864457 
L 719.570198 162.141252 
L 721.604375 162.814 
L 723.638551 160.144188 
L 725.672727 160.129916 
L 727.706904 158.96282 
L 729.74108 159.03368 
L 731.775256 155.652692 
L 733.809433 150.223383 
L 735.843609 150.633802 
L 737.877785 148.177207 
L 739.911962 145.984428 
L 741.946138 145.546032 
L 743.980314 142.30042 
L 746.014491 142.154335 
L 748.048667 142.834491 
L 750.082843 141.908305 
L 752.11702 141.976241 
L 754.151196 139.578169 
L 756.185373 138.975432 
L 758.219549 137.93503 
L 760.253725 139.495326 
L 762.287902 136.943551 
L 766.356254 137.125962 
L 768.390431 134.128455 
L 770.424607 134.751456 
L 776.527136 134.623086 
L 778.561312 133.250886 
L 780.595489 128.979898 
L 782.629665 128.79567 
L 784.663841 128.731721 
L 786.698018 128.189701 
L 788.732194 128.454413 
L 790.76637 126.326054 
L 792.800547 124.466088 
L 794.834723 123.404409 
L 796.8689 123.116651 
L 798.903076 123.229664 
L 800.937252 121.315821 
L 802.971429 121.477592 
L 805.005605 120.802248 
L 807.039781 120.339958 
L 809.073958 120.051633 
L 811.108134 117.642664 
L 813.14231 117.084131 
L 815.176487 117.356651 
L 817.210663 116.421761 
L 819.244839 116.529444 
L 821.279016 116.123318 
L 823.313192 115.478356 
L 825.347368 116.440491 
L 827.381545 116.477997 
L 829.415721 115.997448 
L 831.449897 113.051271 
L 833.484074 112.418528 
L 835.51825 110.020976 
L 837.552427 109.598597 
L 843.654956 109.61978 
L 845.689132 108.818213 
L 847.723308 108.838334 
L 849.757485 108.969747 
L 851.791661 108.966751 
L 853.825837 108.786274 
L 855.860014 108.997369 
L 857.89419 107.460166 
L 859.928366 107.574241 
L 861.962543 107.158703 
L 863.996719 107.161298 
L 866.030895 107.815435 
L 868.065072 107.539849 
L 870.099248 107.802461 
L 872.133424 107.714735 
L 874.167601 107.186656 
L 876.201777 104.145982 
L 878.235954 104.179595 
L 880.27013 103.500548 
L 882.304306 103.05635 
L 884.338483 102.477862 
L 886.372659 101.657235 
L 890.441012 101.705474 
L 892.475188 101.434063 
L 896.543541 101.388867 
L 898.577717 100.946957 
L 902.64607 100.554418 
L 904.680246 100.129067 
L 906.714422 98.273157 
L 908.748599 98.113604 
L 910.782775 98.158304 
L 912.816951 98.079471 
L 916.885304 98.219635 
L 918.919481 97.812919 
L 920.953657 97.225821 
L 922.987833 95.781274 
L 927.056186 95.780071 
L 929.090362 96.038957 
L 931.124539 96.041433 
L 933.158715 95.665383 
L 937.227068 95.526469 
L 939.261244 95.318865 
L 943.329597 95.272679 
L 947.397949 95.50281 
L 949.432126 95.972932 
L 951.466302 95.960878 
L 953.500478 95.622027 
L 955.534655 95.620446 
L 959.603008 95.277302 
L 965.705537 95.117017 
L 967.739713 95.200214 
L 969.773889 94.854027 
L 973.842242 94.736154 
L 977.910595 94.217439 
L 979.944771 93.732551 
L 981.978947 93.769113 
L 984.013124 93.641687 
L 986.0473 93.005123 
L 990.115653 93.058905 
L 992.149829 93.082046 
L 994.184005 92.892983 
L 996.218182 92.905673 
L 996.218182 92.905673 
" style="fill:none;stroke:#ff7f0e;stroke-linecap:square;stroke-width:1.5;"/>
   </g>
   <g id="line2d_19">
    <path clip-path="url(#pe02206e425)" d="M 184.581818 484.232727 
L 249.675461 484.18212 
L 251.709638 484.035272 
L 255.77799 483.943016 
L 261.880519 483.750435 
L 263.914696 483.495139 
L 265.948872 483.363364 
L 267.983049 483.108175 
L 270.017225 483.193409 
L 272.051401 483.033054 
L 274.085578 482.644709 
L 276.119754 482.567578 
L 278.15393 482.262795 
L 280.188107 482.119523 
L 284.256459 481.519796 
L 286.290636 480.531806 
L 288.324812 480.246851 
L 290.358988 479.498519 
L 292.393165 479.291356 
L 294.427341 479.472191 
L 296.461517 479.533123 
L 298.495694 479.054712 
L 300.52987 478.262993 
L 302.564046 477.351253 
L 306.632399 476.188781 
L 308.666576 476.248015 
L 310.700752 475.419068 
L 312.734928 474.444993 
L 314.769105 473.673589 
L 316.803281 472.383324 
L 318.837457 472.246543 
L 320.871634 472.837116 
L 322.90581 473.142843 
L 326.974163 470.199897 
L 329.008339 469.004743 
L 331.042515 468.589806 
L 333.076692 468.593058 
L 335.110868 467.147958 
L 337.145044 467.117782 
L 339.179221 464.809966 
L 341.213397 463.819545 
L 343.247573 463.924131 
L 345.28175 464.273535 
L 347.315926 463.071321 
L 349.350103 463.190595 
L 351.384279 462.004943 
L 353.418455 460.371198 
L 355.452632 459.954918 
L 357.486808 458.995182 
L 359.520984 458.295693 
L 361.555161 455.816237 
L 363.589337 454.101716 
L 365.623513 452.081252 
L 367.65769 448.863654 
L 369.691866 448.741075 
L 371.726042 449.36397 
L 373.760219 450.321513 
L 375.794395 450.886931 
L 377.828571 446.769195 
L 379.862748 444.369638 
L 381.896924 442.824105 
L 383.9311 440.597149 
L 387.999453 438.785801 
L 390.03363 437.956689 
L 392.067806 437.644375 
L 394.101982 437.581246 
L 396.136159 435.643652 
L 398.170335 432.8528 
L 400.204511 431.231137 
L 402.238688 431.422966 
L 404.272864 430.598318 
L 406.30704 430.603573 
L 408.341217 429.951818 
L 410.375393 430.82451 
L 412.409569 428.938431 
L 414.443746 428.273148 
L 416.477922 428.720884 
L 418.512098 426.211433 
L 420.546275 425.557278 
L 422.580451 424.032707 
L 424.614627 424.936831 
L 428.68298 421.483143 
L 430.717157 418.769614 
L 432.751333 417.351458 
L 434.785509 417.914991 
L 436.819686 415.92465 
L 438.853862 416.744863 
L 440.888038 412.472141 
L 442.922215 413.038747 
L 444.956391 413.165389 
L 446.990567 410.761408 
L 449.024744 410.63515 
L 451.05892 410.256723 
L 453.093096 409.131986 
L 455.127273 405.429702 
L 457.161449 405.195054 
L 459.195625 406.462697 
L 461.229802 405.080065 
L 463.263978 403.131706 
L 465.298154 399.501999 
L 467.332331 397.891518 
L 469.366507 395.737236 
L 471.400684 391.410095 
L 473.43486 391.047242 
L 475.469036 390.828133 
L 477.503213 388.429637 
L 479.537389 382.193907 
L 481.571565 379.989687 
L 483.605742 379.432924 
L 485.639918 378.17744 
L 487.674094 376.260472 
L 489.708271 377.121647 
L 491.742447 375.736862 
L 493.776623 374.960512 
L 495.8108 375.989296 
L 497.844976 374.950817 
L 499.879152 370.440297 
L 501.913329 369.049274 
L 503.947505 369.552561 
L 505.981681 367.129616 
L 508.015858 365.449678 
L 510.050034 365.551227 
L 512.084211 360.048403 
L 514.118387 360.130928 
L 516.152563 358.068193 
L 518.18674 357.286146 
L 520.220916 357.698228 
L 522.255092 356.362343 
L 524.289269 354.550521 
L 526.323445 351.031209 
L 528.357621 350.036959 
L 530.391798 350.781063 
L 532.425974 347.335667 
L 534.46015 345.421647 
L 536.494327 345.335406 
L 538.528503 341.467431 
L 540.562679 343.001425 
L 542.596856 343.757631 
L 544.631032 342.057985 
L 546.665208 340.571828 
L 548.699385 337.989706 
L 550.733561 337.281232 
L 552.767738 329.995293 
L 554.801914 323.629548 
L 556.83609 324.158607 
L 558.870267 324.437095 
L 560.904443 320.199614 
L 562.938619 317.501365 
L 564.972796 315.60565 
L 567.006972 313.9372 
L 569.041148 305.099468 
L 571.075325 303.428647 
L 573.109501 301.396979 
L 575.143677 292.856854 
L 577.177854 293.903165 
L 579.21203 289.157632 
L 581.246206 289.251467 
L 583.280383 283.211046 
L 585.314559 286.600997 
L 587.348735 280.675358 
L 589.382912 277.052516 
L 591.417088 277.116866 
L 593.451265 272.349265 
L 595.485441 269.830585 
L 597.519617 267.847297 
L 599.553794 265.060036 
L 603.622146 263.845856 
L 605.656323 265.843062 
L 607.690499 265.473262 
L 609.724675 262.722587 
L 611.758852 261.688389 
L 613.793028 259.288572 
L 615.827204 260.052043 
L 619.895557 254.575273 
L 621.929733 256.010266 
L 623.96391 253.732874 
L 625.998086 253.766252 
L 628.032262 252.03916 
L 630.066439 250.652642 
L 632.100615 248.733892 
L 634.134792 248.960178 
L 636.168968 245.121358 
L 638.203144 244.181538 
L 640.237321 244.291674 
L 642.271497 243.278871 
L 644.305673 241.698972 
L 646.33985 241.697793 
L 648.374026 242.164212 
L 650.408202 239.839761 
L 652.442379 236.683526 
L 654.476555 238.31138 
L 656.510731 238.355019 
L 658.544908 235.982588 
L 660.579084 234.946645 
L 662.61326 234.709555 
L 664.647437 231.90281 
L 666.681613 227.347767 
L 668.715789 223.220481 
L 670.749966 221.541769 
L 672.784142 220.241727 
L 674.818319 215.807364 
L 676.852495 214.22914 
L 678.886671 213.814876 
L 680.920848 212.077287 
L 682.955024 209.493785 
L 684.9892 210.118484 
L 687.023377 207.146595 
L 689.057553 202.159926 
L 691.091729 196.87906 
L 693.125906 194.494033 
L 695.160082 194.424989 
L 697.194258 188.361568 
L 699.228435 187.953225 
L 701.262611 185.19828 
L 703.296787 181.556166 
L 705.330964 175.250915 
L 707.36514 175.016302 
L 709.399316 173.969531 
L 711.433493 174.003758 
L 713.467669 173.636011 
L 715.501846 170.505888 
L 717.536022 169.486693 
L 719.570198 169.76202 
L 721.604375 165.580433 
L 723.638551 163.040711 
L 727.706904 162.587125 
L 729.74108 162.112639 
L 731.775256 157.126159 
L 733.809433 154.868464 
L 735.843609 153.557618 
L 737.877785 153.498481 
L 739.911962 150.33366 
L 741.946138 149.888471 
L 743.980314 149.624301 
L 746.014491 148.930959 
L 748.048667 147.846022 
L 750.082843 142.678169 
L 752.11702 141.114688 
L 754.151196 141.141839 
L 756.185373 140.846391 
L 758.219549 139.777918 
L 760.253725 136.172697 
L 762.287902 132.795059 
L 764.322078 133.039437 
L 766.356254 132.412049 
L 770.424607 131.846511 
L 772.458783 131.278802 
L 774.49296 130.232786 
L 776.527136 127.013051 
L 778.561312 126.629782 
L 782.629665 126.678587 
L 786.698018 127.178242 
L 788.732194 126.509197 
L 790.76637 125.040142 
L 792.800547 125.511302 
L 794.834723 125.810878 
L 796.8689 124.992776 
L 798.903076 124.979 
L 800.937252 125.650711 
L 802.971429 125.572562 
L 805.005605 124.863156 
L 807.039781 123.664073 
L 809.073958 123.346853 
L 811.108134 122.233231 
L 813.14231 122.247479 
L 815.176487 118.935535 
L 817.210663 116.10105 
L 821.279016 116.05491 
L 823.313192 113.53715 
L 825.347368 113.502357 
L 827.381545 113.355517 
L 829.415721 112.382532 
L 831.449897 112.476155 
L 833.484074 112.711759 
L 835.51825 112.250459 
L 837.552427 112.296834 
L 839.586603 111.818975 
L 841.620779 108.447399 
L 843.654956 108.147941 
L 845.689132 107.273132 
L 847.723308 107.18649 
L 851.791661 105.96797 
L 853.825837 104.427182 
L 857.89419 104.482592 
L 859.928366 105.060514 
L 861.962543 105.036218 
L 863.996719 104.768015 
L 866.030895 104.348844 
L 868.065072 103.72273 
L 870.099248 103.410345 
L 872.133424 102.703935 
L 888.406835 101.931312 
L 890.441012 100.61865 
L 892.475188 100.097576 
L 894.509364 100.092622 
L 896.543541 100.494479 
L 898.577717 100.44039 
L 900.611893 99.829609 
L 902.64607 99.785828 
L 904.680246 99.145207 
L 906.714422 99.13589 
L 908.748599 98.925431 
L 910.782775 98.26141 
L 914.851128 98.363691 
L 916.885304 97.453899 
L 918.919481 97.775649 
L 925.02201 97.654946 
L 929.090362 96.954669 
L 931.124539 96.940775 
L 933.158715 97.12262 
L 935.192891 96.997435 
L 939.261244 96.997671 
L 941.29542 96.803843 
L 943.329597 96.163458 
L 949.432126 95.880488 
L 951.466302 95.405506 
L 953.500478 95.411333 
L 957.568831 95.117442 
L 959.603008 95.101684 
L 961.637184 94.852211 
L 963.67136 94.803476 
L 965.705537 94.036467 
L 967.739713 93.760951 
L 969.773889 93.80485 
L 971.808066 93.318499 
L 973.842242 93.188714 
L 977.910595 93.187818 
L 981.978947 92.741143 
L 984.013124 92.754423 
L 986.0473 92.363912 
L 990.115653 92.316169 
L 994.184005 92.28055 
L 996.218182 91.635141 
L 996.218182 91.635141 
" style="fill:none;stroke:#2ca02c;stroke-linecap:square;stroke-width:1.5;"/>
   </g>
   <g id="line2d_20">
    <path clip-path="url(#pe02206e425)" d="M 184.581818 484.232727 
L 247.641285 484.232727 
L 249.675461 482.350038 
L 251.709638 481.991824 
L 253.743814 481.819153 
L 255.77799 481.257586 
L 257.812167 480.906342 
L 259.846343 480.295379 
L 261.880519 479.141113 
L 263.914696 476.572556 
L 265.948872 473.71508 
L 267.983049 468.717182 
L 270.017225 463.415195 
L 272.051401 461.646344 
L 274.085578 459.377549 
L 276.119754 458.329283 
L 278.15393 456.285729 
L 282.222283 447.636155 
L 284.256459 441.634558 
L 286.290636 438.732612 
L 288.324812 432.918919 
L 290.358988 427.822297 
L 292.393165 424.60531 
L 294.427341 423.653024 
L 296.461517 422.495032 
L 298.495694 417.143512 
L 300.52987 414.189184 
L 302.564046 409.225173 
L 304.598223 405.602047 
L 306.632399 400.999915 
L 308.666576 403.161646 
L 310.700752 399.851583 
L 312.734928 394.944462 
L 314.769105 387.025946 
L 316.803281 377.77181 
L 318.837457 376.458911 
L 322.90581 361.598474 
L 324.939986 355.965818 
L 326.974163 356.651576 
L 331.042515 352.168006 
L 333.076692 348.85841 
L 335.110868 346.384807 
L 337.145044 339.470154 
L 339.179221 333.432787 
L 343.247573 319.093813 
L 345.28175 317.700866 
L 347.315926 314.959792 
L 349.350103 317.583277 
L 351.384279 316.163817 
L 353.418455 305.194672 
L 355.452632 303.092874 
L 357.486808 303.280216 
L 359.520984 297.975843 
L 361.555161 297.69443 
L 363.589337 299.129648 
L 365.623513 289.509633 
L 367.65769 289.166006 
L 369.691866 289.787661 
L 371.726042 287.676699 
L 373.760219 288.164525 
L 375.794395 285.528751 
L 377.828571 280.199669 
L 379.862748 283.009905 
L 381.896924 278.401127 
L 383.9311 268.709038 
L 385.965277 264.063697 
L 387.999453 263.14289 
L 390.03363 263.220072 
L 392.067806 260.7 
L 394.101982 253.987254 
L 396.136159 254.017566 
L 398.170335 247.766946 
L 400.204511 244.114169 
L 402.238688 244.244379 
L 404.272864 243.497514 
L 406.30704 243.86203 
L 408.341217 240.106195 
L 410.375393 235.016208 
L 412.409569 228.817884 
L 414.443746 225.608079 
L 416.477922 224.3872 
L 418.512098 227.850229 
L 420.546275 224.688357 
L 422.580451 222.657938 
L 424.614627 221.296589 
L 426.648804 218.690206 
L 428.68298 216.669978 
L 430.717157 218.699028 
L 432.751333 214.591085 
L 434.785509 209.95801 
L 436.819686 206.561761 
L 438.853862 207.459404 
L 440.888038 203.403049 
L 442.922215 203.856824 
L 444.956391 202.775944 
L 446.990567 200.320175 
L 449.024744 201.104758 
L 451.05892 199.901712 
L 453.093096 196.62869 
L 455.127273 187.434675 
L 457.161449 183.702735 
L 459.195625 184.818173 
L 461.229802 183.572479 
L 463.263978 174.026356 
L 465.298154 169.886167 
L 467.332331 161.812331 
L 469.366507 160.475255 
L 471.400684 162.133137 
L 475.469036 163.313302 
L 477.503213 165.668631 
L 479.537389 164.426286 
L 481.571565 164.47653 
L 483.605742 164.355732 
L 485.639918 163.780192 
L 487.674094 164.217998 
L 489.708271 162.990632 
L 491.742447 159.752002 
L 493.776623 158.439434 
L 495.8108 160.166927 
L 497.844976 161.107313 
L 499.879152 164.344551 
L 501.913329 164.137278 
L 503.947505 163.759623 
L 505.981681 160.119325 
L 508.015858 163.156484 
L 510.050034 163.512202 
L 512.084211 161.669997 
L 514.118387 160.268594 
L 516.152563 161.5705 
L 518.18674 158.320736 
L 520.220916 159.779035 
L 522.255092 162.583374 
L 524.289269 158.956357 
L 526.323445 159.555886 
L 528.357621 158.988296 
L 530.391798 158.756961 
L 532.425974 159.049131 
L 534.46015 152.008149 
L 536.494327 151.884567 
L 538.528503 150.356234 
L 540.562679 149.80742 
L 542.596856 150.296413 
L 544.631032 147.493277 
L 548.699385 150.086899 
L 550.733561 149.477532 
L 552.767738 151.760137 
L 554.801914 151.20118 
L 556.83609 151.452022 
L 558.870267 151.248758 
L 560.904443 149.213434 
L 562.938619 150.560229 
L 564.972796 150.40636 
L 567.006972 149.799518 
L 569.041148 151.740394 
L 571.075325 154.530391 
L 573.109501 154.365624 
L 575.143677 152.640844 
L 577.177854 151.166717 
L 579.21203 152.505516 
L 581.246206 152.346056 
L 585.314559 144.048529 
L 587.348735 147.92344 
L 589.382912 148.969385 
L 591.417088 149.080912 
L 593.451265 149.565306 
L 595.485441 146.448228 
L 599.553794 142.963427 
L 601.58797 143.13961 
L 603.622146 141.943759 
L 605.656323 141.595543 
L 607.690499 139.97302 
L 609.724675 139.027044 
L 611.758852 139.826888 
L 613.793028 143.261187 
L 615.827204 119.112049 
L 617.861381 117.159356 
L 619.895557 116.906273 
L 621.929733 116.263387 
L 625.998086 115.627224 
L 628.032262 115.554713 
L 630.066439 113.86199 
L 632.100615 113.43855 
L 634.134792 115.068786 
L 636.168968 114.442672 
L 638.203144 120.103717 
L 640.237321 115.888445 
L 642.271497 114.102995 
L 644.305673 113.660212 
L 646.33985 115.600215 
L 648.374026 115.281438 
L 650.408202 113.423689 
L 652.442379 114.73562 
L 654.476555 113.037519 
L 656.510731 114.163665 
L 660.579084 112.71959 
L 662.61326 112.496725 
L 664.647437 111.348145 
L 666.681613 115.578066 
L 668.715789 113.292772 
L 670.749966 115.223292 
L 672.784142 115.051448 
L 674.818319 114.448451 
L 676.852495 119.613026 
L 678.886671 124.386358 
L 680.920848 124.510529 
L 682.955024 123.82884 
L 684.9892 124.232112 
L 687.023377 121.65972 
L 689.057553 122.997858 
L 691.091729 122.429985 
L 693.125906 122.580669 
L 695.160082 125.414164 
L 697.194258 124.510812 
L 699.228435 126.456571 
L 701.262611 126.264983 
L 703.296787 125.425297 
L 705.330964 124.214491 
L 707.36514 125.475022 
L 709.399316 125.344011 
L 711.433493 124.221308 
L 713.467669 124.009411 
L 715.501846 123.068129 
L 717.536022 119.590333 
L 719.570198 119.195506 
L 721.604375 117.910301 
L 723.638551 114.736846 
L 725.672727 114.649663 
L 727.706904 114.777702 
L 729.74108 111.110442 
L 731.775256 110.898144 
L 733.809433 108.69817 
L 737.877785 107.499701 
L 739.911962 110.545517 
L 741.946138 112.641677 
L 743.980314 110.061218 
L 748.048667 111.480478 
L 750.082843 111.185879 
L 752.11702 109.270125 
L 754.151196 109.304258 
L 756.185373 108.689466 
L 758.219549 109.356271 
L 760.253725 108.80557 
L 762.287902 105.412599 
L 764.322078 105.283191 
L 766.356254 105.32282 
L 768.390431 105.649311 
L 772.458783 104.978379 
L 774.49296 104.101541 
L 776.527136 103.941798 
L 778.561312 101.472229 
L 780.595489 101.97021 
L 782.629665 101.919423 
L 784.663841 102.013495 
L 786.698018 101.366953 
L 788.732194 100.403049 
L 790.76637 100.403049 
L 792.800547 101.322748 
L 794.834723 100.910182 
L 796.8689 102.297078 
L 800.937252 102.268842 
L 802.971429 102.102471 
L 805.005605 101.584205 
L 807.039781 100.57619 
L 809.073958 101.190911 
L 817.210663 101.07042 
L 819.244839 100.433219 
L 821.279016 100.42494 
L 823.313192 101.456637 
L 825.347368 101.691014 
L 827.381545 100.634549 
L 829.415721 100.097411 
L 831.449897 100.521889 
L 833.484074 100.626151 
L 835.51825 100.349857 
L 837.552427 100.20573 
L 839.586603 101.110356 
L 841.620779 100.873974 
L 845.689132 101.018714 
L 849.757485 100.730696 
L 851.791661 100.768461 
L 855.860014 100.451099 
L 857.89419 97.664523 
L 861.962543 97.333314 
L 866.030895 96.967666 
L 872.133424 96.775631 
L 874.167601 96.379388 
L 880.27013 96.249132 
L 882.304306 94.988907 
L 884.338483 94.082842 
L 890.441012 93.979477 
L 892.475188 93.786309 
L 894.509364 93.341168 
L 896.543541 93.547215 
L 898.577717 93.272996 
L 900.611893 92.502166 
L 902.64607 92.521343 
L 904.680246 92.187304 
L 906.714422 92.232075 
L 908.748599 90.559945 
L 910.782775 90.823737 
L 912.816951 90.216707 
L 918.919481 90.185546 
L 920.953657 90.904246 
L 922.987833 90.401052 
L 925.02201 90.401052 
L 927.056186 90.225953 
L 933.158715 90.03012 
L 935.192891 90.857422 
L 937.227068 90.971945 
L 939.261244 90.618398 
L 943.329597 90.563602 
L 949.432126 90.448796 
L 951.466302 89.84568 
L 953.500478 89.364236 
L 957.568831 89.379285 
L 961.637184 88.887273 
L 963.67136 89.116673 
L 965.705537 89.538745 
L 967.739713 90.888913 
L 973.842242 90.89422 
L 975.876418 91.521207 
L 977.910595 91.658022 
L 979.944771 91.274611 
L 992.149829 90.175403 
L 994.184005 90.275372 
L 996.218182 90.678337 
L 996.218182 90.678337 
" style="fill:none;stroke:#d62728;stroke-dasharray:5.55,2.4;stroke-dashoffset:0;stroke-width:1.5;"/>
   </g>
   <g id="line2d_21">
    <path clip-path="url(#pe02206e425)" d="M 184.581818 484.232727 
L 249.675461 484.18212 
L 251.709638 484.035272 
L 257.812167 483.92113 
L 261.880519 483.782958 
L 265.948872 483.125942 
L 267.983049 482.952304 
L 270.017225 482.24906 
L 274.085578 482.064492 
L 276.119754 481.826648 
L 278.15393 481.9475 
L 282.222283 480.723438 
L 284.256459 479.82819 
L 286.290636 479.585325 
L 288.324812 478.531807 
L 290.358988 478.293627 
L 292.393165 477.81333 
L 294.427341 476.877324 
L 296.461517 476.607247 
L 298.495694 476.695894 
L 300.52987 475.980505 
L 304.598223 475.601255 
L 306.632399 474.301655 
L 308.666576 473.32507 
L 310.700752 472.650629 
L 312.734928 471.718174 
L 314.769105 471.34468 
L 316.803281 470.792902 
L 318.837457 471.328262 
L 320.871634 471.143228 
L 322.90581 469.119897 
L 324.939986 467.850766 
L 326.974163 467.064545 
L 329.008339 467.149542 
L 331.042515 466.875569 
L 333.076692 465.726622 
L 335.110868 465.937524 
L 337.145044 464.454021 
L 339.179221 464.362864 
L 341.213397 463.127115 
L 343.247573 463.679409 
L 345.28175 462.420324 
L 347.315926 461.581092 
L 349.350103 459.908951 
L 351.384279 459.768098 
L 353.418455 459.311807 
L 355.452632 458.680312 
L 357.486808 457.801581 
L 359.520984 455.460426 
L 361.555161 454.574913 
L 363.589337 454.972497 
L 365.623513 454.967042 
L 367.65769 455.391745 
L 369.691866 455.643274 
L 371.726042 454.739813 
L 373.760219 454.169501 
L 375.794395 452.349685 
L 377.828571 452.544666 
L 379.862748 452.604221 
L 381.896924 452.289027 
L 383.9311 451.180725 
L 385.965277 449.198498 
L 387.999453 449.163097 
L 390.03363 447.142008 
L 392.067806 444.76435 
L 394.101982 444.421312 
L 396.136159 442.866276 
L 398.170335 442.430157 
L 400.204511 443.027027 
L 402.238688 441.656203 
L 404.272864 439.95434 
L 406.30704 439.764368 
L 408.341217 439.318147 
L 412.409569 436.067416 
L 414.443746 434.007825 
L 416.477922 434.043691 
L 418.512098 433.405641 
L 420.546275 432.640531 
L 422.580451 429.970429 
L 426.648804 428.278019 
L 428.68298 429.663971 
L 430.717157 428.013495 
L 432.751333 427.455753 
L 434.785509 426.254164 
L 436.819686 425.52893 
L 438.853862 425.45038 
L 440.888038 422.900067 
L 442.922215 419.383297 
L 444.956391 418.68305 
L 446.990567 414.738735 
L 449.024744 414.330781 
L 451.05892 412.735072 
L 453.093096 411.657377 
L 455.127273 410.100955 
L 457.161449 408.402883 
L 459.195625 409.611307 
L 461.229802 405.841006 
L 463.263978 402.458002 
L 465.298154 402.725444 
L 467.332331 399.57099 
L 469.366507 396.100543 
L 471.400684 394.550336 
L 473.43486 392.626197 
L 475.469036 391.031844 
L 477.503213 389.255783 
L 479.537389 389.257741 
L 481.571565 387.145576 
L 483.605742 386.434359 
L 485.639918 387.515758 
L 487.674094 385.994413 
L 489.708271 385.268147 
L 493.776623 386.148323 
L 495.8108 385.142349 
L 497.844976 383.959707 
L 499.879152 382.088277 
L 501.913329 381.845219 
L 503.947505 380.916568 
L 505.981681 380.361763 
L 508.015858 376.973286 
L 510.050034 374.791346 
L 512.084211 373.452842 
L 514.118387 371.907831 
L 516.152563 369.844625 
L 518.18674 367.331039 
L 520.220916 364.059892 
L 522.255092 362.722556 
L 524.289269 360.250216 
L 526.323445 355.281605 
L 528.357621 354.872483 
L 530.391798 349.593032 
L 532.425974 346.877079 
L 534.46015 344.460668 
L 536.494327 342.451715 
L 538.528503 342.156043 
L 540.562679 338.733291 
L 544.631032 335.260957 
L 546.665208 334.168612 
L 548.699385 333.583649 
L 550.733561 328.940502 
L 552.767738 325.247 
L 554.801914 324.977995 
L 556.83609 322.889371 
L 558.870267 322.293604 
L 562.938619 311.401264 
L 564.972796 312.207961 
L 567.006972 309.742768 
L 569.041148 305.933693 
L 571.075325 305.891364 
L 573.109501 305.721395 
L 575.143677 305.819029 
L 579.21203 303.221704 
L 581.246206 304.634182 
L 585.314559 302.671876 
L 587.348735 301.054117 
L 589.382912 301.518071 
L 591.417088 302.48983 
L 593.451265 302.922659 
L 595.485441 299.981092 
L 597.519617 299.984619 
L 599.553794 301.965253 
L 601.58797 300.240308 
L 605.656323 293.275022 
L 607.690499 291.458423 
L 609.724675 287.189393 
L 611.758852 280.05415 
L 613.793028 276.05705 
L 615.827204 274.426059 
L 617.861381 268.508864 
L 619.895557 264.565476 
L 621.929733 261.746983 
L 623.96391 260.825421 
L 625.998086 259.198652 
L 628.032262 258.842062 
L 630.066439 257.185972 
L 632.100615 257.036184 
L 634.134792 255.558071 
L 636.168968 255.004303 
L 638.203144 249.275229 
L 640.237321 248.269125 
L 642.271497 244.726838 
L 646.33985 242.023435 
L 648.374026 238.943061 
L 650.408202 237.90365 
L 652.442379 237.591454 
L 654.476555 231.581131 
L 656.510731 231.63154 
L 658.544908 230.817896 
L 660.579084 229.059691 
L 662.61326 226.733258 
L 664.647437 219.432683 
L 666.681613 218.04331 
L 670.749966 216.922188 
L 672.784142 214.438254 
L 674.818319 215.200451 
L 676.852495 213.121345 
L 678.886671 210.550982 
L 680.920848 210.864523 
L 682.955024 209.803623 
L 684.9892 206.524703 
L 687.023377 200.899041 
L 689.057553 199.459212 
L 691.091729 199.077099 
L 693.125906 192.133633 
L 695.160082 183.77336 
L 697.194258 184.905734 
L 699.228435 185.744453 
L 701.262611 182.074008 
L 705.330964 178.021239 
L 707.36514 173.869869 
L 711.433493 169.497143 
L 713.467669 165.495325 
L 715.501846 162.318473 
L 717.536022 160.094557 
L 719.570198 159.645122 
L 721.604375 159.375079 
L 723.638551 160.167021 
L 725.672727 159.578295 
L 727.706904 156.860362 
L 729.74108 154.739858 
L 731.775256 149.05756 
L 733.809433 148.005293 
L 735.843609 145.669849 
L 737.877785 145.990773 
L 739.911962 142.859589 
L 741.946138 142.732918 
L 743.980314 142.284899 
L 746.014491 142.154335 
L 748.048667 142.368355 
L 750.082843 141.481327 
L 752.11702 139.075896 
L 754.151196 138.793445 
L 756.185373 139.189263 
L 758.219549 137.93503 
L 760.253725 135.71267 
L 762.287902 135.751049 
L 764.322078 136.98292 
L 766.356254 137.125962 
L 768.390431 134.128455 
L 770.424607 134.751456 
L 774.49296 134.679227 
L 776.527136 130.246586 
L 778.561312 129.013417 
L 780.595489 128.828034 
L 782.629665 128.2992 
L 784.663841 126.40602 
L 786.698018 126.0491 
L 788.732194 125.114588 
L 790.76637 125.161553 
L 792.800547 123.226031 
L 794.834723 123.311069 
L 798.903076 123.229664 
L 800.937252 121.315821 
L 802.971429 121.477592 
L 805.005605 120.802248 
L 807.039781 120.499087 
L 809.073958 119.896137 
L 811.108134 119.454958 
L 813.14231 117.084131 
L 815.176487 117.156053 
L 817.210663 116.253504 
L 819.244839 115.846858 
L 821.279016 115.201873 
L 823.313192 115.478356 
L 825.347368 115.519495 
L 827.381545 112.86735 
L 829.415721 113.629736 
L 831.449897 113.098023 
L 833.484074 110.360653 
L 837.552427 109.598597 
L 841.620779 109.613883 
L 843.654956 109.785089 
L 845.689132 109.790703 
L 847.723308 108.949814 
L 853.825837 108.956561 
L 855.860014 108.775848 
L 857.89419 108.986613 
L 859.928366 109.840405 
L 861.962543 109.961108 
L 863.996719 108.367646 
L 866.030895 107.815435 
L 868.065072 107.539849 
L 870.099248 107.802461 
L 872.133424 107.714735 
L 874.167601 104.459263 
L 876.201777 104.488442 
L 878.235954 104.179595 
L 882.304306 102.917955 
L 884.338483 102.477862 
L 886.372659 101.657235 
L 890.441012 101.594419 
L 892.475188 101.656669 
L 894.509364 101.377993 
L 896.543541 101.388867 
L 898.577717 100.927826 
L 902.64607 100.568925 
L 904.680246 100.129067 
L 906.714422 98.273157 
L 908.748599 98.113604 
L 910.782775 98.158304 
L 912.816951 98.079471 
L 916.885304 98.219635 
L 918.919481 97.590572 
L 922.987833 97.626592 
L 925.02201 97.240328 
L 927.056186 95.780071 
L 929.090362 95.782548 
L 931.124539 95.411121 
L 933.158715 95.35597 
L 935.192891 95.610232 
L 937.227068 95.539915 
L 939.261244 95.660783 
L 947.397949 95.711735 
L 951.466302 95.201134 
L 955.534655 94.871577 
L 957.568831 95.292635 
L 969.773889 95.138058 
L 971.808066 94.852163 
L 973.842242 94.816427 
L 975.876418 94.452689 
L 977.910595 94.217439 
L 979.944771 93.732551 
L 981.978947 93.769113 
L 984.013124 93.641687 
L 986.0473 93.707405 
L 988.081476 93.071478 
L 992.149829 93.082046 
L 994.184005 92.892983 
L 996.218182 92.905673 
L 996.218182 92.905673 
" style="fill:none;stroke:#9467bd;stroke-dasharray:5.55,2.4;stroke-dashoffset:0;stroke-width:1.5;"/>
   </g>
   <g id="line2d_22">
    <path clip-path="url(#pe02206e425)" d="M 184.581818 484.232727 
L 249.675461 484.18212 
L 251.709638 484.035272 
L 255.77799 483.943016 
L 261.880519 483.750435 
L 263.914696 483.495139 
L 265.948872 483.563816 
L 270.017225 483.193409 
L 272.051401 483.033054 
L 274.085578 482.644709 
L 278.15393 482.466232 
L 282.222283 481.80239 
L 284.256459 481.569403 
L 286.290636 481.555784 
L 288.324812 480.535743 
L 290.358988 480.377225 
L 292.393165 479.63043 
L 294.427341 479.360613 
L 296.461517 479.511096 
L 298.495694 478.785971 
L 300.52987 478.262993 
L 302.564046 478.267883 
L 304.598223 477.72657 
L 306.632399 476.852566 
L 308.666576 476.248015 
L 310.700752 475.075217 
L 312.734928 475.346302 
L 314.769105 475.75164 
L 316.803281 474.968444 
L 318.837457 474.787114 
L 324.939986 471.813541 
L 326.974163 471.766184 
L 329.008339 470.170291 
L 331.042515 470.159622 
L 333.076692 468.751428 
L 335.110868 469.032344 
L 337.145044 468.698852 
L 339.179221 467.629 
L 341.213397 465.46951 
L 343.247573 465.407003 
L 345.28175 464.020694 
L 347.315926 463.073955 
L 349.350103 461.879528 
L 353.418455 461.102932 
L 355.452632 460.045155 
L 357.486808 458.406026 
L 359.520984 459.231541 
L 361.555161 459.398569 
L 363.589337 457.775412 
L 365.623513 458.048932 
L 367.65769 457.444375 
L 369.691866 454.762732 
L 371.726042 455.272828 
L 373.760219 453.514095 
L 375.794395 449.671253 
L 377.828571 448.152048 
L 379.862748 447.291339 
L 381.896924 444.304801 
L 383.9311 441.910026 
L 385.965277 441.105496 
L 387.999453 438.730952 
L 390.03363 438.812492 
L 392.067806 437.901831 
L 394.101982 438.56523 
L 396.136159 437.803581 
L 398.170335 437.502342 
L 400.204511 435.967512 
L 402.238688 433.837703 
L 404.272864 431.878128 
L 406.30704 432.050631 
L 408.341217 429.476895 
L 410.375393 429.646132 
L 412.409569 428.742403 
L 414.443746 428.036141 
L 416.477922 428.505372 
L 418.512098 428.035079 
L 420.546275 426.202953 
L 422.580451 424.765106 
L 424.614627 422.180642 
L 426.648804 420.463328 
L 428.68298 418.57407 
L 430.717157 419.244254 
L 434.785509 419.398795 
L 436.819686 419.988948 
L 438.853862 417.410017 
L 440.888038 416.803906 
L 442.922215 415.761723 
L 444.956391 412.920863 
L 446.990567 413.538455 
L 451.05892 405.714677 
L 453.093096 403.927204 
L 455.127273 402.659384 
L 457.161449 402.388645 
L 459.195625 403.753474 
L 461.229802 400.139011 
L 463.263978 398.28825 
L 465.298154 399.409679 
L 467.332331 398.613709 
L 469.366507 398.218263 
L 471.400684 395.70476 
L 473.43486 394.205836 
L 475.469036 390.230024 
L 477.503213 388.055951 
L 479.537389 386.253617 
L 481.571565 379.756985 
L 483.605742 378.934106 
L 485.639918 377.885802 
L 487.674094 377.632813 
L 489.708271 376.374145 
L 491.742447 374.455891 
L 493.776623 375.093387 
L 495.8108 376.157023 
L 499.879152 373.69406 
L 501.913329 369.019682 
L 503.947505 366.469735 
L 505.981681 367.129616 
L 508.015858 367.28477 
L 510.050034 365.551227 
L 512.084211 360.048403 
L 514.118387 360.130928 
L 516.152563 359.471636 
L 518.18674 360.036998 
L 520.220916 358.594775 
L 522.255092 358.746297 
L 524.289269 356.414403 
L 526.323445 355.360367 
L 528.357621 351.964507 
L 530.391798 350.749844 
L 532.425974 346.875157 
L 534.46015 344.619549 
L 538.528503 340.34895 
L 540.562679 340.961536 
L 542.596856 333.051936 
L 544.631032 334.49732 
L 546.665208 330.427791 
L 548.699385 330.230555 
L 550.733561 330.939937 
L 552.767738 324.75507 
L 554.801914 325.398085 
L 556.83609 323.18647 
L 558.870267 318.576784 
L 560.904443 317.231062 
L 562.938619 316.083792 
L 564.972796 316.711605 
L 567.006972 313.823962 
L 569.041148 312.177237 
L 571.075325 304.237361 
L 573.109501 305.255437 
L 575.143677 305.597354 
L 577.177854 300.558307 
L 579.21203 290.816788 
L 581.246206 294.558175 
L 583.280383 290.169243 
L 585.314559 285.070564 
L 587.348735 279.040427 
L 589.382912 276.617375 
L 591.417088 278.496732 
L 593.451265 275.011647 
L 595.485441 274.883726 
L 597.519617 274.151958 
L 599.553794 271.364131 
L 601.58797 270.741202 
L 603.622146 267.677812 
L 605.656323 264.929567 
L 607.690499 264.58897 
L 609.724675 262.100507 
L 611.758852 260.41604 
L 613.793028 258.567231 
L 615.827204 258.74608 
L 617.861381 254.85645 
L 619.895557 253.240744 
L 621.929733 252.267522 
L 623.96391 249.74495 
L 625.998086 247.66601 
L 628.032262 249.12412 
L 630.066439 245.176721 
L 632.100615 245.990294 
L 634.134792 244.392492 
L 636.168968 244.296769 
L 638.203144 243.270001 
L 640.237321 242.413025 
L 642.271497 243.024467 
L 644.305673 239.613758 
L 646.33985 238.378773 
L 648.374026 236.08586 
L 650.408202 234.84677 
L 652.442379 231.805058 
L 654.476555 233.636341 
L 656.510731 229.075896 
L 658.544908 227.904978 
L 660.579084 222.748613 
L 662.61326 225.250569 
L 664.647437 223.457028 
L 666.681613 222.451915 
L 668.715789 222.01543 
L 670.749966 219.140702 
L 672.784142 217.041712 
L 674.818319 212.135999 
L 676.852495 209.008425 
L 678.886671 208.329897 
L 680.920848 209.303047 
L 682.955024 208.726564 
L 684.9892 203.716024 
L 687.023377 200.452036 
L 689.057553 197.689755 
L 691.091729 193.17453 
L 693.125906 191.133615 
L 695.160082 185.216538 
L 697.194258 178.954171 
L 699.228435 178.516766 
L 701.262611 175.951852 
L 703.296787 175.650224 
L 705.330964 175.080958 
L 709.399316 174.987075 
L 711.433493 174.584794 
L 713.467669 173.636011 
L 715.501846 172.428011 
L 717.536022 169.486693 
L 719.570198 169.76202 
L 721.604375 165.580433 
L 723.638551 163.976427 
L 727.706904 163.55025 
L 729.74108 158.387964 
L 731.775256 157.788057 
L 733.809433 155.372152 
L 735.843609 155.294074 
L 737.877785 155.027687 
L 739.911962 151.801182 
L 741.946138 146.716361 
L 743.980314 145.052298 
L 746.014491 144.496219 
L 748.048667 142.735088 
L 750.082843 142.846238 
L 754.151196 141.476963 
L 756.185373 141.105913 
L 758.219549 140.98278 
L 760.253725 139.972666 
L 762.287902 140.123162 
L 764.322078 136.775647 
L 766.356254 136.731041 
L 768.390431 133.477691 
L 770.424607 132.410705 
L 772.458783 132.084497 
L 774.49296 131.475272 
L 776.527136 131.587036 
L 778.561312 131.130147 
L 780.595489 127.913006 
L 782.629665 126.678587 
L 784.663841 125.208989 
L 786.698018 125.487005 
L 788.732194 124.840983 
L 792.800547 124.893868 
L 794.834723 125.07267 
L 796.8689 125.797715 
L 798.903076 125.721052 
L 800.937252 125.392722 
L 802.971429 124.211542 
L 805.005605 124.933615 
L 807.039781 124.915688 
L 811.108134 123.329255 
L 813.14231 119.952537 
L 815.176487 118.935535 
L 817.210663 118.72871 
L 825.347368 118.569133 
L 829.415721 113.446452 
L 831.449897 113.647474 
L 833.484074 113.256492 
L 835.51825 113.283289 
L 837.552427 112.296622 
L 839.586603 111.818975 
L 841.620779 108.447399 
L 843.654956 108.147941 
L 845.689132 107.273132 
L 847.723308 105.524739 
L 849.757485 106.139389 
L 853.825837 105.003996 
L 857.89419 104.950803 
L 859.928366 105.061505 
L 861.962543 105.036218 
L 863.996719 104.426758 
L 866.030895 104.340069 
L 868.065072 104.07899 
L 870.099248 103.402962 
L 872.133424 103.097866 
L 876.201777 102.901726 
L 878.235954 102.457316 
L 884.338483 102.121012 
L 886.372659 101.925934 
L 888.406835 101.931312 
L 890.441012 100.61865 
L 892.475188 101.054215 
L 894.509364 101.067825 
L 898.577717 99.863293 
L 900.611893 99.216067 
L 906.714422 99.178514 
L 908.748599 98.601465 
L 910.782775 98.587854 
L 912.816951 98.883349 
L 914.851128 98.917246 
L 916.885304 98.006841 
L 918.919481 97.969784 
L 920.953657 97.738143 
L 922.987833 97.875452 
L 927.056186 97.831884 
L 929.090362 97.711063 
L 931.124539 97.183715 
L 933.158715 97.189541 
L 935.192891 96.995949 
L 939.261244 97.03395 
L 941.29542 96.803843 
L 943.329597 96.712083 
L 945.363773 96.071745 
L 947.397949 95.955948 
L 951.466302 95.971281 
L 957.568831 95.654131 
L 959.603008 95.101684 
L 963.67136 95.094183 
L 967.739713 94.565773 
L 969.773889 93.80485 
L 971.808066 93.318499 
L 977.910595 93.329633 
L 984.013124 92.754423 
L 988.081476 92.690993 
L 992.149829 91.633159 
L 996.218182 91.635141 
L 996.218182 91.635141 
" style="fill:none;stroke:#8c564b;stroke-dasharray:5.55,2.4;stroke-dashoffset:0;stroke-width:1.5;"/>
   </g>
   <g id="patch_3">
    <path d="M 144 504 
L 144 69.12 
" style="fill:none;stroke:#000000;stroke-linecap:square;stroke-linejoin:miter;stroke-width:0.8;"/>
   </g>
   <g id="patch_4">
    <path d="M 1036.8 504 
L 1036.8 69.12 
" style="fill:none;stroke:#000000;stroke-linecap:square;stroke-linejoin:miter;stroke-width:0.8;"/>
   </g>
   <g id="patch_5">
    <path d="M 144 504 
L 1036.8 504 
" style="fill:none;stroke:#000000;stroke-linecap:square;stroke-linejoin:miter;stroke-width:0.8;"/>
   </g>
   <g id="patch_6">
    <path d="M 144 69.12 
L 1036.8 69.12 
" style="fill:none;stroke:#000000;stroke-linecap:square;stroke-linejoin:miter;stroke-width:0.8;"/>
   </g>
   <g id="legend_1">
    <g id="patch_7">
     <path d="M 151 166.579375 
L 275.432813 166.579375 
Q 277.432813 166.579375 277.432813 164.579375 
L 277.432813 76.12 
Q 277.432813 74.12 275.432813 74.12 
L 151 74.12 
Q 149 74.12 149 76.12 
L 149 164.579375 
Q 149 166.579375 151 166.579375 
z
" style="fill:#ffffff;opacity:0.8;stroke:#cccccc;stroke-linejoin:miter;"/>
    </g>
    <g id="line2d_23">
     <path d="M 153 82.218438 
L 173 82.218438 
" style="fill:none;stroke:#1f77b4;stroke-linecap:square;stroke-width:1.5;"/>
    </g>
    <g id="line2d_24"/>
    <g id="text_19">
     <!-- taylorfo -->
     <defs>
      <path d="M 32.171875 -5.078125 
Q 28.375 -14.84375 24.75 -17.8125 
Q 21.140625 -20.796875 15.09375 -20.796875 
L 7.90625 -20.796875 
L 7.90625 -13.28125 
L 13.1875 -13.28125 
Q 16.890625 -13.28125 18.9375 -11.515625 
Q 21 -9.765625 23.484375 -3.21875 
L 25.09375 0.875 
L 2.984375 54.6875 
L 12.5 54.6875 
L 29.59375 11.921875 
L 46.6875 54.6875 
L 56.203125 54.6875 
z
" id="DejaVuSans-121"/>
      <path d="M 9.421875 75.984375 
L 18.40625 75.984375 
L 18.40625 0 
L 9.421875 0 
z
" id="DejaVuSans-108"/>
     </defs>
     <g transform="translate(181 85.718438)scale(0.1 -0.1)">
      <use xlink:href="#DejaVuSans-116"/>
      <use x="39.208984" xlink:href="#DejaVuSans-97"/>
      <use x="100.488281" xlink:href="#DejaVuSans-121"/>
      <use x="159.667969" xlink:href="#DejaVuSans-108"/>
      <use x="187.451172" xlink:href="#DejaVuSans-111"/>
      <use x="248.632812" xlink:href="#DejaVuSans-114"/>
      <use x="289.746094" xlink:href="#DejaVuSans-102"/>
      <use x="324.951172" xlink:href="#DejaVuSans-111"/>
     </g>
    </g>
    <g id="line2d_25">
     <path d="M 153 96.896563 
L 173 96.896563 
" style="fill:none;stroke:#ff7f0e;stroke-linecap:square;stroke-width:1.5;"/>
    </g>
    <g id="line2d_26"/>
    <g id="text_20">
     <!-- taylorfo_abs -->
     <defs>
      <path d="M 50.984375 -16.609375 
L 50.984375 -23.578125 
L -0.984375 -23.578125 
L -0.984375 -16.609375 
z
" id="DejaVuSans-95"/>
     </defs>
     <g transform="translate(181 100.396563)scale(0.1 -0.1)">
      <use xlink:href="#DejaVuSans-116"/>
      <use x="39.208984" xlink:href="#DejaVuSans-97"/>
      <use x="100.488281" xlink:href="#DejaVuSans-121"/>
      <use x="159.667969" xlink:href="#DejaVuSans-108"/>
      <use x="187.451172" xlink:href="#DejaVuSans-111"/>
      <use x="248.632812" xlink:href="#DejaVuSans-114"/>
      <use x="289.746094" xlink:href="#DejaVuSans-102"/>
      <use x="324.951172" xlink:href="#DejaVuSans-111"/>
      <use x="386.132812" xlink:href="#DejaVuSans-95"/>
      <use x="436.132812" xlink:href="#DejaVuSans-97"/>
      <use x="497.412109" xlink:href="#DejaVuSans-98"/>
      <use x="560.888672" xlink:href="#DejaVuSans-115"/>
     </g>
    </g>
    <g id="line2d_27">
     <path d="M 153 111.852813 
L 173 111.852813 
" style="fill:none;stroke:#2ca02c;stroke-linecap:square;stroke-width:1.5;"/>
    </g>
    <g id="line2d_28"/>
    <g id="text_21">
     <!-- taylorfo_sq -->
     <g transform="translate(181 115.352813)scale(0.1 -0.1)">
      <use xlink:href="#DejaVuSans-116"/>
      <use x="39.208984" xlink:href="#DejaVuSans-97"/>
      <use x="100.488281" xlink:href="#DejaVuSans-121"/>
      <use x="159.667969" xlink:href="#DejaVuSans-108"/>
      <use x="187.451172" xlink:href="#DejaVuSans-111"/>
      <use x="248.632812" xlink:href="#DejaVuSans-114"/>
      <use x="289.746094" xlink:href="#DejaVuSans-102"/>
      <use x="324.951172" xlink:href="#DejaVuSans-111"/>
      <use x="386.132812" xlink:href="#DejaVuSans-95"/>
      <use x="436.132812" xlink:href="#DejaVuSans-115"/>
      <use x="488.232422" xlink:href="#DejaVuSans-113"/>
     </g>
    </g>
    <g id="line2d_29">
     <path d="M 153 126.809063 
L 173 126.809063 
" style="fill:none;stroke:#d62728;stroke-dasharray:5.55,2.4;stroke-dashoffset:0;stroke-width:1.5;"/>
    </g>
    <g id="line2d_30"/>
    <g id="text_22">
     <!-- taylorfo_norm -->
     <g transform="translate(181 130.309063)scale(0.1 -0.1)">
      <use xlink:href="#DejaVuSans-116"/>
      <use x="39.208984" xlink:href="#DejaVuSans-97"/>
      <use x="100.488281" xlink:href="#DejaVuSans-121"/>
      <use x="159.667969" xlink:href="#DejaVuSans-108"/>
      <use x="187.451172" xlink:href="#DejaVuSans-111"/>
      <use x="248.632812" xlink:href="#DejaVuSans-114"/>
      <use x="289.746094" xlink:href="#DejaVuSans-102"/>
      <use x="324.951172" xlink:href="#DejaVuSans-111"/>
      <use x="386.132812" xlink:href="#DejaVuSans-95"/>
      <use x="436.132812" xlink:href="#DejaVuSans-110"/>
      <use x="499.511719" xlink:href="#DejaVuSans-111"/>
      <use x="560.693359" xlink:href="#DejaVuSans-114"/>
      <use x="600.056641" xlink:href="#DejaVuSans-109"/>
     </g>
    </g>
    <g id="line2d_31">
     <path d="M 153 141.765313 
L 173 141.765313 
" style="fill:none;stroke:#9467bd;stroke-dasharray:5.55,2.4;stroke-dashoffset:0;stroke-width:1.5;"/>
    </g>
    <g id="line2d_32"/>
    <g id="text_23">
     <!-- taylorfo_abs_norm -->
     <g transform="translate(181 145.265313)scale(0.1 -0.1)">
      <use xlink:href="#DejaVuSans-116"/>
      <use x="39.208984" xlink:href="#DejaVuSans-97"/>
      <use x="100.488281" xlink:href="#DejaVuSans-121"/>
      <use x="159.667969" xlink:href="#DejaVuSans-108"/>
      <use x="187.451172" xlink:href="#DejaVuSans-111"/>
      <use x="248.632812" xlink:href="#DejaVuSans-114"/>
      <use x="289.746094" xlink:href="#DejaVuSans-102"/>
      <use x="324.951172" xlink:href="#DejaVuSans-111"/>
      <use x="386.132812" xlink:href="#DejaVuSans-95"/>
      <use x="436.132812" xlink:href="#DejaVuSans-97"/>
      <use x="497.412109" xlink:href="#DejaVuSans-98"/>
      <use x="560.888672" xlink:href="#DejaVuSans-115"/>
      <use x="612.988281" xlink:href="#DejaVuSans-95"/>
      <use x="662.988281" xlink:href="#DejaVuSans-110"/>
      <use x="726.367188" xlink:href="#DejaVuSans-111"/>
      <use x="787.548828" xlink:href="#DejaVuSans-114"/>
      <use x="826.912109" xlink:href="#DejaVuSans-109"/>
     </g>
    </g>
    <g id="line2d_33">
     <path d="M 153 156.721563 
L 173 156.721563 
" style="fill:none;stroke:#8c564b;stroke-dasharray:5.55,2.4;stroke-dashoffset:0;stroke-width:1.5;"/>
    </g>
    <g id="line2d_34"/>
    <g id="text_24">
     <!-- taylorfo_sq_norm -->
     <g transform="translate(181 160.221563)scale(0.1 -0.1)">
      <use xlink:href="#DejaVuSans-116"/>
      <use x="39.208984" xlink:href="#DejaVuSans-97"/>
      <use x="100.488281" xlink:href="#DejaVuSans-121"/>
      <use x="159.667969" xlink:href="#DejaVuSans-108"/>
      <use x="187.451172" xlink:href="#DejaVuSans-111"/>
      <use x="248.632812" xlink:href="#DejaVuSans-114"/>
      <use x="289.746094" xlink:href="#DejaVuSans-102"/>
      <use x="324.951172" xlink:href="#DejaVuSans-111"/>
      <use x="386.132812" xlink:href="#DejaVuSans-95"/>
      <use x="436.132812" xlink:href="#DejaVuSans-115"/>
      <use x="488.232422" xlink:href="#DejaVuSans-113"/>
      <use x="551.708984" xlink:href="#DejaVuSans-95"/>
      <use x="601.708984" xlink:href="#DejaVuSans-110"/>
      <use x="665.087891" xlink:href="#DejaVuSans-111"/>
      <use x="726.269531" xlink:href="#DejaVuSans-114"/>
      <use x="765.632812" xlink:href="#DejaVuSans-109"/>
     </g>
    </g>
   </g>
  </g>
 </g>
 <defs>
  <clipPath id="pe02206e425">
   <rect height="434.88" width="892.8" x="144" y="69.12"/>
  </clipPath>
 </defs>
</svg>
