<?xml version="1.0" encoding="utf-8" standalone="no"?>
<!DOCTYPE svg PUBLIC "-//W3C//DTD SVG 1.1//EN"
  "http://www.w3.org/Graphics/SVG/1.1/DTD/svg11.dtd">
<!-- Created with matplotlib (https://matplotlib.org/) -->
<svg height="576pt" version="1.1" viewBox="0 0 1152 576" width="1152pt" xmlns="http://www.w3.org/2000/svg" xmlns:xlink="http://www.w3.org/1999/xlink">
 <defs>
  <style type="text/css">
*{stroke-linecap:butt;stroke-linejoin:round;}
  </style>
 </defs>
 <g id="figure_1">
  <g id="patch_1">
   <path d="M 0 576 
L 1152 576 
L 1152 0 
L 0 0 
z
" style="fill:#ffffff;"/>
  </g>
  <g id="axes_1">
   <g id="patch_2">
    <path d="M 144 504 
L 1036.8 504 
L 1036.8 69.12 
L 144 69.12 
z
" style="fill:#ffffff;"/>
   </g>
   <g id="matplotlib.axis_1">
    <g id="xtick_1">
     <g id="line2d_1">
      <defs>
       <path d="M 0 0 
L 0 3.5 
" id="mac633857b4" style="stroke:#000000;stroke-width:0.8;"/>
      </defs>
      <g>
       <use style="stroke:#000000;stroke-width:0.8;" x="182.547642" xlink:href="#mac633857b4" y="504"/>
      </g>
     </g>
     <g id="text_1">
      <!-- 0 -->
      <defs>
       <path d="M 31.78125 66.40625 
Q 24.171875 66.40625 20.328125 58.90625 
Q 16.5 51.421875 16.5 36.375 
Q 16.5 21.390625 20.328125 13.890625 
Q 24.171875 6.390625 31.78125 6.390625 
Q 39.453125 6.390625 43.28125 13.890625 
Q 47.125 21.390625 47.125 36.375 
Q 47.125 51.421875 43.28125 58.90625 
Q 39.453125 66.40625 31.78125 66.40625 
z
M 31.78125 74.21875 
Q 44.046875 74.21875 50.515625 64.515625 
Q 56.984375 54.828125 56.984375 36.375 
Q 56.984375 17.96875 50.515625 8.265625 
Q 44.046875 -1.421875 31.78125 -1.421875 
Q 19.53125 -1.421875 13.0625 8.265625 
Q 6.59375 17.96875 6.59375 36.375 
Q 6.59375 54.828125 13.0625 64.515625 
Q 19.53125 74.21875 31.78125 74.21875 
z
" id="DejaVuSans-48"/>
      </defs>
      <g transform="translate(179.366392 518.598438)scale(0.1 -0.1)">
       <use xlink:href="#DejaVuSans-48"/>
      </g>
     </g>
    </g>
    <g id="xtick_2">
     <g id="line2d_2">
      <g>
       <use style="stroke:#000000;stroke-width:0.8;" x="284.256459" xlink:href="#mac633857b4" y="504"/>
      </g>
     </g>
     <g id="text_2">
      <!-- 50 -->
      <defs>
       <path d="M 10.796875 72.90625 
L 49.515625 72.90625 
L 49.515625 64.59375 
L 19.828125 64.59375 
L 19.828125 46.734375 
Q 21.96875 47.46875 24.109375 47.828125 
Q 26.265625 48.1875 28.421875 48.1875 
Q 40.625 48.1875 47.75 41.5 
Q 54.890625 34.8125 54.890625 23.390625 
Q 54.890625 11.625 47.5625 5.09375 
Q 40.234375 -1.421875 26.90625 -1.421875 
Q 22.3125 -1.421875 17.546875 -0.640625 
Q 12.796875 0.140625 7.71875 1.703125 
L 7.71875 11.625 
Q 12.109375 9.234375 16.796875 8.0625 
Q 21.484375 6.890625 26.703125 6.890625 
Q 35.15625 6.890625 40.078125 11.328125 
Q 45.015625 15.765625 45.015625 23.390625 
Q 45.015625 31 40.078125 35.4375 
Q 35.15625 39.890625 26.703125 39.890625 
Q 22.75 39.890625 18.8125 39.015625 
Q 14.890625 38.140625 10.796875 36.28125 
z
" id="DejaVuSans-53"/>
      </defs>
      <g transform="translate(277.893959 518.598438)scale(0.1 -0.1)">
       <use xlink:href="#DejaVuSans-53"/>
       <use x="63.623047" xlink:href="#DejaVuSans-48"/>
      </g>
     </g>
    </g>
    <g id="xtick_3">
     <g id="line2d_3">
      <g>
       <use style="stroke:#000000;stroke-width:0.8;" x="385.965277" xlink:href="#mac633857b4" y="504"/>
      </g>
     </g>
     <g id="text_3">
      <!-- 100 -->
      <defs>
       <path d="M 12.40625 8.296875 
L 28.515625 8.296875 
L 28.515625 63.921875 
L 10.984375 60.40625 
L 10.984375 69.390625 
L 28.421875 72.90625 
L 38.28125 72.90625 
L 38.28125 8.296875 
L 54.390625 8.296875 
L 54.390625 0 
L 12.40625 0 
z
" id="DejaVuSans-49"/>
      </defs>
      <g transform="translate(376.421527 518.598438)scale(0.1 -0.1)">
       <use xlink:href="#DejaVuSans-49"/>
       <use x="63.623047" xlink:href="#DejaVuSans-48"/>
       <use x="127.246094" xlink:href="#DejaVuSans-48"/>
      </g>
     </g>
    </g>
    <g id="xtick_4">
     <g id="line2d_4">
      <g>
       <use style="stroke:#000000;stroke-width:0.8;" x="487.674094" xlink:href="#mac633857b4" y="504"/>
      </g>
     </g>
     <g id="text_4">
      <!-- 150 -->
      <g transform="translate(478.130344 518.598438)scale(0.1 -0.1)">
       <use xlink:href="#DejaVuSans-49"/>
       <use x="63.623047" xlink:href="#DejaVuSans-53"/>
       <use x="127.246094" xlink:href="#DejaVuSans-48"/>
      </g>
     </g>
    </g>
    <g id="xtick_5">
     <g id="line2d_5">
      <g>
       <use style="stroke:#000000;stroke-width:0.8;" x="589.382912" xlink:href="#mac633857b4" y="504"/>
      </g>
     </g>
     <g id="text_5">
      <!-- 200 -->
      <defs>
       <path d="M 19.1875 8.296875 
L 53.609375 8.296875 
L 53.609375 0 
L 7.328125 0 
L 7.328125 8.296875 
Q 12.9375 14.109375 22.625 23.890625 
Q 32.328125 33.6875 34.8125 36.53125 
Q 39.546875 41.84375 41.421875 45.53125 
Q 43.3125 49.21875 43.3125 52.78125 
Q 43.3125 58.59375 39.234375 62.25 
Q 35.15625 65.921875 28.609375 65.921875 
Q 23.96875 65.921875 18.8125 64.3125 
Q 13.671875 62.703125 7.8125 59.421875 
L 7.8125 69.390625 
Q 13.765625 71.78125 18.9375 73 
Q 24.125 74.21875 28.421875 74.21875 
Q 39.75 74.21875 46.484375 68.546875 
Q 53.21875 62.890625 53.21875 53.421875 
Q 53.21875 48.921875 51.53125 44.890625 
Q 49.859375 40.875 45.40625 35.40625 
Q 44.1875 33.984375 37.640625 27.21875 
Q 31.109375 20.453125 19.1875 8.296875 
z
" id="DejaVuSans-50"/>
      </defs>
      <g transform="translate(579.839162 518.598438)scale(0.1 -0.1)">
       <use xlink:href="#DejaVuSans-50"/>
       <use x="63.623047" xlink:href="#DejaVuSans-48"/>
       <use x="127.246094" xlink:href="#DejaVuSans-48"/>
      </g>
     </g>
    </g>
    <g id="xtick_6">
     <g id="line2d_6">
      <g>
       <use style="stroke:#000000;stroke-width:0.8;" x="691.091729" xlink:href="#mac633857b4" y="504"/>
      </g>
     </g>
     <g id="text_6">
      <!-- 250 -->
      <g transform="translate(681.547979 518.598438)scale(0.1 -0.1)">
       <use xlink:href="#DejaVuSans-50"/>
       <use x="63.623047" xlink:href="#DejaVuSans-53"/>
       <use x="127.246094" xlink:href="#DejaVuSans-48"/>
      </g>
     </g>
    </g>
    <g id="xtick_7">
     <g id="line2d_7">
      <g>
       <use style="stroke:#000000;stroke-width:0.8;" x="792.800547" xlink:href="#mac633857b4" y="504"/>
      </g>
     </g>
     <g id="text_7">
      <!-- 300 -->
      <defs>
       <path d="M 40.578125 39.3125 
Q 47.65625 37.796875 51.625 33 
Q 55.609375 28.21875 55.609375 21.1875 
Q 55.609375 10.40625 48.1875 4.484375 
Q 40.765625 -1.421875 27.09375 -1.421875 
Q 22.515625 -1.421875 17.65625 -0.515625 
Q 12.796875 0.390625 7.625 2.203125 
L 7.625 11.71875 
Q 11.71875 9.328125 16.59375 8.109375 
Q 21.484375 6.890625 26.8125 6.890625 
Q 36.078125 6.890625 40.9375 10.546875 
Q 45.796875 14.203125 45.796875 21.1875 
Q 45.796875 27.640625 41.28125 31.265625 
Q 36.765625 34.90625 28.71875 34.90625 
L 20.21875 34.90625 
L 20.21875 43.015625 
L 29.109375 43.015625 
Q 36.375 43.015625 40.234375 45.921875 
Q 44.09375 48.828125 44.09375 54.296875 
Q 44.09375 59.90625 40.109375 62.90625 
Q 36.140625 65.921875 28.71875 65.921875 
Q 24.65625 65.921875 20.015625 65.03125 
Q 15.375 64.15625 9.8125 62.3125 
L 9.8125 71.09375 
Q 15.4375 72.65625 20.34375 73.4375 
Q 25.25 74.21875 29.59375 74.21875 
Q 40.828125 74.21875 47.359375 69.109375 
Q 53.90625 64.015625 53.90625 55.328125 
Q 53.90625 49.265625 50.4375 45.09375 
Q 46.96875 40.921875 40.578125 39.3125 
z
" id="DejaVuSans-51"/>
      </defs>
      <g transform="translate(783.256797 518.598438)scale(0.1 -0.1)">
       <use xlink:href="#DejaVuSans-51"/>
       <use x="63.623047" xlink:href="#DejaVuSans-48"/>
       <use x="127.246094" xlink:href="#DejaVuSans-48"/>
      </g>
     </g>
    </g>
    <g id="xtick_8">
     <g id="line2d_8">
      <g>
       <use style="stroke:#000000;stroke-width:0.8;" x="894.509364" xlink:href="#mac633857b4" y="504"/>
      </g>
     </g>
     <g id="text_8">
      <!-- 350 -->
      <g transform="translate(884.965614 518.598438)scale(0.1 -0.1)">
       <use xlink:href="#DejaVuSans-51"/>
       <use x="63.623047" xlink:href="#DejaVuSans-53"/>
       <use x="127.246094" xlink:href="#DejaVuSans-48"/>
      </g>
     </g>
    </g>
    <g id="xtick_9">
     <g id="line2d_9">
      <g>
       <use style="stroke:#000000;stroke-width:0.8;" x="996.218182" xlink:href="#mac633857b4" y="504"/>
      </g>
     </g>
     <g id="text_9">
      <!-- 400 -->
      <defs>
       <path d="M 37.796875 64.3125 
L 12.890625 25.390625 
L 37.796875 25.390625 
z
M 35.203125 72.90625 
L 47.609375 72.90625 
L 47.609375 25.390625 
L 58.015625 25.390625 
L 58.015625 17.1875 
L 47.609375 17.1875 
L 47.609375 0 
L 37.796875 0 
L 37.796875 17.1875 
L 4.890625 17.1875 
L 4.890625 26.703125 
z
" id="DejaVuSans-52"/>
      </defs>
      <g transform="translate(986.674432 518.598438)scale(0.1 -0.1)">
       <use xlink:href="#DejaVuSans-52"/>
       <use x="63.623047" xlink:href="#DejaVuSans-48"/>
       <use x="127.246094" xlink:href="#DejaVuSans-48"/>
      </g>
     </g>
    </g>
    <g id="text_10">
     <!-- Number of Neurons pruned -->
     <defs>
      <path d="M 9.8125 72.90625 
L 23.09375 72.90625 
L 55.421875 11.921875 
L 55.421875 72.90625 
L 64.984375 72.90625 
L 64.984375 0 
L 51.703125 0 
L 19.390625 60.984375 
L 19.390625 0 
L 9.8125 0 
z
" id="DejaVuSans-78"/>
      <path d="M 8.5 21.578125 
L 8.5 54.6875 
L 17.484375 54.6875 
L 17.484375 21.921875 
Q 17.484375 14.15625 20.5 10.265625 
Q 23.53125 6.390625 29.59375 6.390625 
Q 36.859375 6.390625 41.078125 11.03125 
Q 45.3125 15.671875 45.3125 23.6875 
L 45.3125 54.6875 
L 54.296875 54.6875 
L 54.296875 0 
L 45.3125 0 
L 45.3125 8.40625 
Q 42.046875 3.421875 37.71875 1 
Q 33.40625 -1.421875 27.6875 -1.421875 
Q 18.265625 -1.421875 13.375 4.4375 
Q 8.5 10.296875 8.5 21.578125 
z
M 31.109375 56 
z
" id="DejaVuSans-117"/>
      <path d="M 52 44.1875 
Q 55.375 50.25 60.0625 53.125 
Q 64.75 56 71.09375 56 
Q 79.640625 56 84.28125 50.015625 
Q 88.921875 44.046875 88.921875 33.015625 
L 88.921875 0 
L 79.890625 0 
L 79.890625 32.71875 
Q 79.890625 40.578125 77.09375 44.375 
Q 74.3125 48.1875 68.609375 48.1875 
Q 61.625 48.1875 57.5625 43.546875 
Q 53.515625 38.921875 53.515625 30.90625 
L 53.515625 0 
L 44.484375 0 
L 44.484375 32.71875 
Q 44.484375 40.625 41.703125 44.40625 
Q 38.921875 48.1875 33.109375 48.1875 
Q 26.21875 48.1875 22.15625 43.53125 
Q 18.109375 38.875 18.109375 30.90625 
L 18.109375 0 
L 9.078125 0 
L 9.078125 54.6875 
L 18.109375 54.6875 
L 18.109375 46.1875 
Q 21.1875 51.21875 25.484375 53.609375 
Q 29.78125 56 35.6875 56 
Q 41.65625 56 45.828125 52.96875 
Q 50 49.953125 52 44.1875 
z
" id="DejaVuSans-109"/>
      <path d="M 48.6875 27.296875 
Q 48.6875 37.203125 44.609375 42.84375 
Q 40.53125 48.484375 33.40625 48.484375 
Q 26.265625 48.484375 22.1875 42.84375 
Q 18.109375 37.203125 18.109375 27.296875 
Q 18.109375 17.390625 22.1875 11.75 
Q 26.265625 6.109375 33.40625 6.109375 
Q 40.53125 6.109375 44.609375 11.75 
Q 48.6875 17.390625 48.6875 27.296875 
z
M 18.109375 46.390625 
Q 20.953125 51.265625 25.265625 53.625 
Q 29.59375 56 35.59375 56 
Q 45.5625 56 51.78125 48.09375 
Q 58.015625 40.1875 58.015625 27.296875 
Q 58.015625 14.40625 51.78125 6.484375 
Q 45.5625 -1.421875 35.59375 -1.421875 
Q 29.59375 -1.421875 25.265625 0.953125 
Q 20.953125 3.328125 18.109375 8.203125 
L 18.109375 0 
L 9.078125 0 
L 9.078125 75.984375 
L 18.109375 75.984375 
z
" id="DejaVuSans-98"/>
      <path d="M 56.203125 29.59375 
L 56.203125 25.203125 
L 14.890625 25.203125 
Q 15.484375 15.921875 20.484375 11.0625 
Q 25.484375 6.203125 34.421875 6.203125 
Q 39.59375 6.203125 44.453125 7.46875 
Q 49.3125 8.734375 54.109375 11.28125 
L 54.109375 2.78125 
Q 49.265625 0.734375 44.1875 -0.34375 
Q 39.109375 -1.421875 33.890625 -1.421875 
Q 20.796875 -1.421875 13.15625 6.1875 
Q 5.515625 13.8125 5.515625 26.8125 
Q 5.515625 40.234375 12.765625 48.109375 
Q 20.015625 56 32.328125 56 
Q 43.359375 56 49.78125 48.890625 
Q 56.203125 41.796875 56.203125 29.59375 
z
M 47.21875 32.234375 
Q 47.125 39.59375 43.09375 43.984375 
Q 39.0625 48.390625 32.421875 48.390625 
Q 24.90625 48.390625 20.390625 44.140625 
Q 15.875 39.890625 15.1875 32.171875 
z
" id="DejaVuSans-101"/>
      <path d="M 41.109375 46.296875 
Q 39.59375 47.171875 37.8125 47.578125 
Q 36.03125 48 33.890625 48 
Q 26.265625 48 22.1875 43.046875 
Q 18.109375 38.09375 18.109375 28.8125 
L 18.109375 0 
L 9.078125 0 
L 9.078125 54.6875 
L 18.109375 54.6875 
L 18.109375 46.1875 
Q 20.953125 51.171875 25.484375 53.578125 
Q 30.03125 56 36.53125 56 
Q 37.453125 56 38.578125 55.875 
Q 39.703125 55.765625 41.0625 55.515625 
z
" id="DejaVuSans-114"/>
      <path id="DejaVuSans-32"/>
      <path d="M 30.609375 48.390625 
Q 23.390625 48.390625 19.1875 42.75 
Q 14.984375 37.109375 14.984375 27.296875 
Q 14.984375 17.484375 19.15625 11.84375 
Q 23.34375 6.203125 30.609375 6.203125 
Q 37.796875 6.203125 41.984375 11.859375 
Q 46.1875 17.53125 46.1875 27.296875 
Q 46.1875 37.015625 41.984375 42.703125 
Q 37.796875 48.390625 30.609375 48.390625 
z
M 30.609375 56 
Q 42.328125 56 49.015625 48.375 
Q 55.71875 40.765625 55.71875 27.296875 
Q 55.71875 13.875 49.015625 6.21875 
Q 42.328125 -1.421875 30.609375 -1.421875 
Q 18.84375 -1.421875 12.171875 6.21875 
Q 5.515625 13.875 5.515625 27.296875 
Q 5.515625 40.765625 12.171875 48.375 
Q 18.84375 56 30.609375 56 
z
" id="DejaVuSans-111"/>
      <path d="M 37.109375 75.984375 
L 37.109375 68.5 
L 28.515625 68.5 
Q 23.6875 68.5 21.796875 66.546875 
Q 19.921875 64.59375 19.921875 59.515625 
L 19.921875 54.6875 
L 34.71875 54.6875 
L 34.71875 47.703125 
L 19.921875 47.703125 
L 19.921875 0 
L 10.890625 0 
L 10.890625 47.703125 
L 2.296875 47.703125 
L 2.296875 54.6875 
L 10.890625 54.6875 
L 10.890625 58.5 
Q 10.890625 67.625 15.140625 71.796875 
Q 19.390625 75.984375 28.609375 75.984375 
z
" id="DejaVuSans-102"/>
      <path d="M 54.890625 33.015625 
L 54.890625 0 
L 45.90625 0 
L 45.90625 32.71875 
Q 45.90625 40.484375 42.875 44.328125 
Q 39.84375 48.1875 33.796875 48.1875 
Q 26.515625 48.1875 22.3125 43.546875 
Q 18.109375 38.921875 18.109375 30.90625 
L 18.109375 0 
L 9.078125 0 
L 9.078125 54.6875 
L 18.109375 54.6875 
L 18.109375 46.1875 
Q 21.34375 51.125 25.703125 53.5625 
Q 30.078125 56 35.796875 56 
Q 45.21875 56 50.046875 50.171875 
Q 54.890625 44.34375 54.890625 33.015625 
z
" id="DejaVuSans-110"/>
      <path d="M 44.28125 53.078125 
L 44.28125 44.578125 
Q 40.484375 46.53125 36.375 47.5 
Q 32.28125 48.484375 27.875 48.484375 
Q 21.1875 48.484375 17.84375 46.4375 
Q 14.5 44.390625 14.5 40.28125 
Q 14.5 37.15625 16.890625 35.375 
Q 19.28125 33.59375 26.515625 31.984375 
L 29.59375 31.296875 
Q 39.15625 29.25 43.1875 25.515625 
Q 47.21875 21.78125 47.21875 15.09375 
Q 47.21875 7.46875 41.1875 3.015625 
Q 35.15625 -1.421875 24.609375 -1.421875 
Q 20.21875 -1.421875 15.453125 -0.5625 
Q 10.6875 0.296875 5.421875 2 
L 5.421875 11.28125 
Q 10.40625 8.6875 15.234375 7.390625 
Q 20.0625 6.109375 24.8125 6.109375 
Q 31.15625 6.109375 34.5625 8.28125 
Q 37.984375 10.453125 37.984375 14.40625 
Q 37.984375 18.0625 35.515625 20.015625 
Q 33.0625 21.96875 24.703125 23.78125 
L 21.578125 24.515625 
Q 13.234375 26.265625 9.515625 29.90625 
Q 5.8125 33.546875 5.8125 39.890625 
Q 5.8125 47.609375 11.28125 51.796875 
Q 16.75 56 26.8125 56 
Q 31.78125 56 36.171875 55.265625 
Q 40.578125 54.546875 44.28125 53.078125 
z
" id="DejaVuSans-115"/>
      <path d="M 18.109375 8.203125 
L 18.109375 -20.796875 
L 9.078125 -20.796875 
L 9.078125 54.6875 
L 18.109375 54.6875 
L 18.109375 46.390625 
Q 20.953125 51.265625 25.265625 53.625 
Q 29.59375 56 35.59375 56 
Q 45.5625 56 51.78125 48.09375 
Q 58.015625 40.1875 58.015625 27.296875 
Q 58.015625 14.40625 51.78125 6.484375 
Q 45.5625 -1.421875 35.59375 -1.421875 
Q 29.59375 -1.421875 25.265625 0.953125 
Q 20.953125 3.328125 18.109375 8.203125 
z
M 48.6875 27.296875 
Q 48.6875 37.203125 44.609375 42.84375 
Q 40.53125 48.484375 33.40625 48.484375 
Q 26.265625 48.484375 22.1875 42.84375 
Q 18.109375 37.203125 18.109375 27.296875 
Q 18.109375 17.390625 22.1875 11.75 
Q 26.265625 6.109375 33.40625 6.109375 
Q 40.53125 6.109375 44.609375 11.75 
Q 48.6875 17.390625 48.6875 27.296875 
z
" id="DejaVuSans-112"/>
      <path d="M 45.40625 46.390625 
L 45.40625 75.984375 
L 54.390625 75.984375 
L 54.390625 0 
L 45.40625 0 
L 45.40625 8.203125 
Q 42.578125 3.328125 38.25 0.953125 
Q 33.9375 -1.421875 27.875 -1.421875 
Q 17.96875 -1.421875 11.734375 6.484375 
Q 5.515625 14.40625 5.515625 27.296875 
Q 5.515625 40.1875 11.734375 48.09375 
Q 17.96875 56 27.875 56 
Q 33.9375 56 38.25 53.625 
Q 42.578125 51.265625 45.40625 46.390625 
z
M 14.796875 27.296875 
Q 14.796875 17.390625 18.875 11.75 
Q 22.953125 6.109375 30.078125 6.109375 
Q 37.203125 6.109375 41.296875 11.75 
Q 45.40625 17.390625 45.40625 27.296875 
Q 45.40625 37.203125 41.296875 42.84375 
Q 37.203125 48.484375 30.078125 48.484375 
Q 22.953125 48.484375 18.875 42.84375 
Q 14.796875 37.203125 14.796875 27.296875 
z
" id="DejaVuSans-100"/>
     </defs>
     <g transform="translate(522.147656 532.276562)scale(0.1 -0.1)">
      <use xlink:href="#DejaVuSans-78"/>
      <use x="74.804688" xlink:href="#DejaVuSans-117"/>
      <use x="138.183594" xlink:href="#DejaVuSans-109"/>
      <use x="235.595703" xlink:href="#DejaVuSans-98"/>
      <use x="299.072266" xlink:href="#DejaVuSans-101"/>
      <use x="360.595703" xlink:href="#DejaVuSans-114"/>
      <use x="401.708984" xlink:href="#DejaVuSans-32"/>
      <use x="433.496094" xlink:href="#DejaVuSans-111"/>
      <use x="494.677734" xlink:href="#DejaVuSans-102"/>
      <use x="529.882812" xlink:href="#DejaVuSans-32"/>
      <use x="561.669922" xlink:href="#DejaVuSans-78"/>
      <use x="636.474609" xlink:href="#DejaVuSans-101"/>
      <use x="697.998047" xlink:href="#DejaVuSans-117"/>
      <use x="761.376953" xlink:href="#DejaVuSans-114"/>
      <use x="800.240234" xlink:href="#DejaVuSans-111"/>
      <use x="861.421875" xlink:href="#DejaVuSans-110"/>
      <use x="924.800781" xlink:href="#DejaVuSans-115"/>
      <use x="976.900391" xlink:href="#DejaVuSans-32"/>
      <use x="1008.6875" xlink:href="#DejaVuSans-112"/>
      <use x="1072.164062" xlink:href="#DejaVuSans-114"/>
      <use x="1113.277344" xlink:href="#DejaVuSans-117"/>
      <use x="1176.65625" xlink:href="#DejaVuSans-110"/>
      <use x="1240.035156" xlink:href="#DejaVuSans-101"/>
      <use x="1301.558594" xlink:href="#DejaVuSans-100"/>
     </g>
    </g>
   </g>
   <g id="matplotlib.axis_2">
    <g id="ytick_1">
     <g id="line2d_10">
      <defs>
       <path d="M 0 0 
L -3.5 0 
" id="m99b82172f3" style="stroke:#000000;stroke-width:0.8;"/>
      </defs>
      <g>
       <use style="stroke:#000000;stroke-width:0.8;" x="144" xlink:href="#m99b82172f3" y="496.8806"/>
      </g>
     </g>
     <g id="text_11">
      <!-- 0 -->
      <g transform="translate(130.6375 500.679819)scale(0.1 -0.1)">
       <use xlink:href="#DejaVuSans-48"/>
      </g>
     </g>
    </g>
    <g id="ytick_2">
     <g id="line2d_11">
      <g>
       <use style="stroke:#000000;stroke-width:0.8;" x="144" xlink:href="#m99b82172f3" y="411.362898"/>
      </g>
     </g>
     <g id="text_12">
      <!-- 1 -->
      <g transform="translate(130.6375 415.162117)scale(0.1 -0.1)">
       <use xlink:href="#DejaVuSans-49"/>
      </g>
     </g>
    </g>
    <g id="ytick_3">
     <g id="line2d_12">
      <g>
       <use style="stroke:#000000;stroke-width:0.8;" x="144" xlink:href="#m99b82172f3" y="325.845196"/>
      </g>
     </g>
     <g id="text_13">
      <!-- 2 -->
      <g transform="translate(130.6375 329.644415)scale(0.1 -0.1)">
       <use xlink:href="#DejaVuSans-50"/>
      </g>
     </g>
    </g>
    <g id="ytick_4">
     <g id="line2d_13">
      <g>
       <use style="stroke:#000000;stroke-width:0.8;" x="144" xlink:href="#m99b82172f3" y="240.327494"/>
      </g>
     </g>
     <g id="text_14">
      <!-- 3 -->
      <g transform="translate(130.6375 244.126713)scale(0.1 -0.1)">
       <use xlink:href="#DejaVuSans-51"/>
      </g>
     </g>
    </g>
    <g id="ytick_5">
     <g id="line2d_14">
      <g>
       <use style="stroke:#000000;stroke-width:0.8;" x="144" xlink:href="#m99b82172f3" y="154.809792"/>
      </g>
     </g>
     <g id="text_15">
      <!-- 4 -->
      <g transform="translate(130.6375 158.60901)scale(0.1 -0.1)">
       <use xlink:href="#DejaVuSans-52"/>
      </g>
     </g>
    </g>
    <g id="ytick_6">
     <g id="line2d_15">
      <g>
       <use style="stroke:#000000;stroke-width:0.8;" x="144" xlink:href="#m99b82172f3" y="69.292089"/>
      </g>
     </g>
     <g id="text_16">
      <!-- 5 -->
      <g transform="translate(130.6375 73.091308)scale(0.1 -0.1)">
       <use xlink:href="#DejaVuSans-53"/>
      </g>
     </g>
    </g>
    <g id="text_17">
     <!-- Loss -->
     <defs>
      <path d="M 9.8125 72.90625 
L 19.671875 72.90625 
L 19.671875 8.296875 
L 55.171875 8.296875 
L 55.171875 0 
L 9.8125 0 
z
" id="DejaVuSans-76"/>
     </defs>
     <g transform="translate(124.557812 297.527188)rotate(-90)scale(0.1 -0.1)">
      <use xlink:href="#DejaVuSans-76"/>
      <use x="53.962891" xlink:href="#DejaVuSans-111"/>
      <use x="115.144531" xlink:href="#DejaVuSans-115"/>
      <use x="167.244141" xlink:href="#DejaVuSans-115"/>
     </g>
    </g>
   </g>
   <g id="line2d_16">
    <path clip-path="url(#p0826dd9cb7)" d="M 184.581818 484.232727 
L 247.641285 484.232727 
L 249.675461 483.461679 
L 251.709638 483.117056 
L 253.743814 483.061894 
L 255.77799 481.870337 
L 257.812167 481.795662 
L 259.846343 481.021187 
L 261.880519 478.783742 
L 263.914696 478.259989 
L 265.948872 477.237616 
L 267.983049 475.121496 
L 270.017225 475.503443 
L 272.051401 473.204942 
L 274.085578 469.996632 
L 276.119754 467.464776 
L 278.15393 464.414157 
L 280.188107 458.871976 
L 282.222283 454.300459 
L 284.256459 450.216642 
L 286.290636 451.666245 
L 288.324812 435.629846 
L 290.358988 440.809944 
L 292.393165 444.140198 
L 294.427341 434.408707 
L 296.461517 432.532669 
L 300.52987 421.854409 
L 302.564046 425.137662 
L 304.598223 416.022297 
L 306.632399 414.134249 
L 308.666576 410.868985 
L 310.700752 404.637838 
L 312.734928 390.964796 
L 314.769105 390.244411 
L 316.803281 388.448058 
L 318.837457 378.268509 
L 320.871634 376.68783 
L 322.90581 369.618064 
L 324.939986 361.426443 
L 326.974163 371.356258 
L 329.008339 360.498784 
L 331.042515 357.960301 
L 333.076692 345.816485 
L 335.110868 337.850143 
L 337.145044 347.344387 
L 339.179221 329.896421 
L 341.213397 317.235917 
L 343.247573 314.979383 
L 345.28175 331.171804 
L 347.315926 330.925148 
L 349.350103 318.407469 
L 351.384279 326.491528 
L 353.418455 335.539874 
L 355.452632 324.776832 
L 357.486808 307.131164 
L 359.520984 296.612617 
L 361.555161 283.866388 
L 365.623513 270.370841 
L 367.65769 241.050814 
L 369.691866 245.550872 
L 371.726042 252.621108 
L 373.760219 220.582839 
L 375.794395 240.548674 
L 377.828571 225.543321 
L 379.862748 228.190467 
L 381.896924 211.000127 
L 383.9311 199.551474 
L 385.965277 195.997588 
L 387.999453 206.402976 
L 390.03363 193.727741 
L 392.067806 172.48696 
L 394.101982 180.388272 
L 396.136159 181.332752 
L 398.170335 178.432905 
L 400.204511 181.990726 
L 402.238688 162.216487 
L 404.272864 170.060913 
L 406.30704 169.732446 
L 408.341217 168.933523 
L 410.375393 169.387362 
L 412.409569 134.140026 
L 414.443746 131.372707 
L 416.477922 122.430292 
L 418.512098 126.538718 
L 420.546275 119.341112 
L 422.580451 140.998114 
L 424.614627 121.850836 
L 426.648804 116.646297 
L 428.68298 109.818466 
L 430.717157 126.420706 
L 434.785509 108.964411 
L 436.819686 89.747607 
L 438.853862 88.887273 
L 440.888038 99.703316 
L 442.922215 96.862964 
L 444.956391 114.158879 
L 446.990567 129.700849 
L 449.024744 129.318678 
L 451.05892 129.916076 
L 453.093096 117.132616 
L 455.127273 114.996214 
L 457.161449 121.337726 
L 459.195625 122.860337 
L 461.229802 122.453861 
L 463.263978 133.648692 
L 465.298154 128.108875 
L 467.332331 132.503319 
L 469.366507 134.659415 
L 471.400684 140.019768 
L 473.43486 129.569177 
L 475.469036 128.446232 
L 477.503213 126.569097 
L 479.537389 125.327774 
L 481.571565 128.450269 
L 483.605742 130.427024 
L 485.639918 134.676583 
L 487.674094 133.021893 
L 489.708271 124.826041 
L 491.742447 124.382376 
L 493.776623 129.820614 
L 495.8108 125.759164 
L 497.844976 125.683195 
L 499.879152 122.391634 
L 501.913329 116.874368 
L 503.947505 123.971742 
L 505.981681 131.89279 
L 508.015858 126.73853 
L 510.050034 144.868478 
L 512.084211 144.251996 
L 514.118387 140.806865 
L 516.152563 139.727797 
L 518.18674 149.569245 
L 520.220916 150.100461 
L 522.255092 153.917079 
L 524.289269 165.429937 
L 526.323445 149.839359 
L 528.357621 148.291344 
L 530.391798 149.117221 
L 532.425974 170.396618 
L 534.46015 156.464931 
L 536.494327 155.400889 
L 538.528503 166.985394 
L 540.562679 168.116862 
L 542.596856 172.796445 
L 544.631032 176.858711 
L 546.665208 175.528287 
L 548.699385 178.902403 
L 550.733561 176.316465 
L 552.767738 176.316465 
L 554.801914 174.33971 
L 556.83609 174.102096 
L 558.870267 173.566314 
L 560.904443 182.516681 
L 562.938619 170.479948 
L 564.972796 175.625624 
L 567.006972 177.162588 
L 569.041148 173.683306 
L 571.075325 171.68553 
L 573.109501 174.843257 
L 575.143677 181.274052 
L 577.177854 181.389801 
L 579.21203 194.885653 
L 581.246206 194.082958 
L 583.280383 210.995233 
L 585.314559 206.83871 
L 587.348735 242.961917 
L 589.382912 249.447926 
L 591.417088 268.434354 
L 593.451265 264.65046 
L 595.485441 261.351906 
L 597.519617 262.360122 
L 599.553794 270.969442 
L 603.622146 269.141119 
L 605.656323 269.635879 
L 607.690499 272.430376 
L 609.724675 281.559371 
L 611.758852 285.758834 
L 613.793028 292.247433 
L 615.827204 291.663145 
L 617.861381 292.198315 
L 619.895557 292.184818 
L 621.929733 290.847686 
L 623.96391 287.895093 
L 625.998086 286.790579 
L 630.066439 292.151625 
L 632.100615 299.003555 
L 634.134792 299.547248 
L 636.168968 300.778357 
L 638.203144 301.660793 
L 640.237321 300.3529 
L 642.271497 301.242085 
L 644.305673 299.137572 
L 646.33985 298.709219 
L 648.374026 298.048289 
L 650.408202 302.732113 
L 652.442379 303.851225 
L 654.476555 303.946483 
L 656.510731 303.088778 
L 658.544908 304.295828 
L 660.579084 304.467402 
L 662.61326 304.074465 
L 664.647437 302.960491 
L 666.681613 303.931905 
L 668.715789 303.287021 
L 670.749966 303.333018 
L 674.818319 303.194516 
L 676.852495 302.726486 
L 678.886671 302.990034 
L 680.920848 304.655694 
L 682.955024 304.731969 
L 687.023377 304.395632 
L 691.091729 305.254356 
L 693.125906 304.494866 
L 697.194258 304.394042 
L 701.262611 303.848065 
L 703.296787 304.007568 
L 707.36514 303.746772 
L 713.467669 302.765246 
L 717.536022 303.149599 
L 719.570198 302.788102 
L 721.604375 302.714701 
L 723.638551 302.195617 
L 727.706904 302.183568 
L 729.74108 302.446667 
L 731.775256 302.297664 
L 733.809433 302.36452 
L 739.911962 301.681631 
L 746.014491 301.306759 
L 748.048667 301.202326 
L 752.11702 301.330165 
L 754.151196 300.882626 
L 756.185373 300.625806 
L 764.322078 300.202653 
L 768.390431 300.158042 
L 776.527136 299.853491 
L 780.595489 299.920428 
L 786.698018 299.876735 
L 996.218182 299.876735 
L 996.218182 299.876735 
" style="fill:none;stroke:#1f77b4;stroke-linecap:square;stroke-width:1.5;"/>
   </g>
   <g id="line2d_17">
    <path clip-path="url(#p0826dd9cb7)" d="M 184.581818 484.232727 
L 249.675461 484.192018 
L 261.880519 483.392801 
L 263.914696 482.675434 
L 265.948872 482.166264 
L 267.983049 481.89383 
L 270.017225 481.75127 
L 272.051401 481.339984 
L 276.119754 479.012097 
L 278.15393 478.605119 
L 280.188107 478.881882 
L 282.222283 479.723776 
L 284.256459 479.076411 
L 286.290636 478.994889 
L 288.324812 478.468934 
L 290.358988 478.457186 
L 292.393165 477.321092 
L 294.427341 476.554624 
L 296.461517 476.104312 
L 298.495694 475.398208 
L 300.52987 474.04016 
L 302.564046 472.867998 
L 304.598223 471.967209 
L 306.632399 470.1125 
L 308.666576 467.973379 
L 310.700752 466.856561 
L 312.734928 464.781432 
L 314.769105 460.171581 
L 316.803281 463.515978 
L 318.837457 457.562066 
L 320.871634 452.464546 
L 322.90581 450.417031 
L 324.939986 449.798872 
L 326.974163 449.544417 
L 329.008339 447.270696 
L 331.042515 441.673077 
L 333.076692 433.728331 
L 335.110868 432.154707 
L 337.145044 429.83612 
L 339.179221 426.849222 
L 341.213397 426.628883 
L 343.247573 421.015713 
L 345.28175 424.120648 
L 347.315926 421.121888 
L 349.350103 413.448984 
L 351.384279 407.219118 
L 353.418455 406.757918 
L 355.452632 392.910814 
L 357.486808 388.073695 
L 359.520984 372.674346 
L 361.555161 365.299876 
L 363.589337 364.474845 
L 365.623513 373.07291 
L 367.65769 379.129251 
L 369.691866 373.124678 
L 371.726042 367.814911 
L 373.760219 363.413505 
L 375.794395 358.129561 
L 377.828571 344.976183 
L 379.862748 343.699148 
L 381.896924 340.136505 
L 383.9311 345.27794 
L 385.965277 337.947959 
L 390.03363 332.953865 
L 392.067806 326.603086 
L 394.101982 317.809541 
L 396.136159 312.099681 
L 398.170335 297.422795 
L 400.204511 296.722596 
L 402.238688 300.387826 
L 404.272864 338.629227 
L 406.30704 329.520488 
L 408.341217 347.335864 
L 410.375393 350.539171 
L 412.409569 349.817482 
L 414.443746 350.651667 
L 416.477922 342.710587 
L 418.512098 344.685894 
L 420.546275 343.817333 
L 422.580451 348.375092 
L 424.614627 344.628265 
L 426.648804 351.960662 
L 428.68298 336.766467 
L 430.717157 329.818647 
L 432.751333 326.143854 
L 434.785509 305.780556 
L 436.819686 290.698948 
L 438.853862 287.01339 
L 440.888038 284.031314 
L 442.922215 290.95583 
L 444.956391 282.949698 
L 446.990567 284.899906 
L 449.024744 286.641964 
L 451.05892 284.747254 
L 453.093096 278.448457 
L 455.127273 282.042468 
L 457.161449 298.67364 
L 459.195625 306.002021 
L 461.229802 296.919105 
L 463.263978 304.552383 
L 465.298154 303.27858 
L 467.332331 295.710954 
L 469.366507 283.760548 
L 471.400684 282.000243 
L 473.43486 281.603942 
L 475.469036 292.769554 
L 477.503213 300.219657 
L 479.537389 303.762961 
L 481.571565 315.523586 
L 483.605742 312.725909 
L 485.639918 305.565431 
L 487.674094 291.855515 
L 489.708271 296.427975 
L 491.742447 292.604893 
L 493.776623 293.891949 
L 495.8108 294.016668 
L 497.844976 288.835475 
L 499.879152 294.102098 
L 501.913329 288.077595 
L 503.947505 283.052499 
L 505.981681 301.889028 
L 508.015858 283.29048 
L 510.050034 295.069842 
L 512.084211 295.067416 
L 514.118387 301.369414 
L 516.152563 295.972158 
L 518.18674 293.406874 
L 520.220916 291.392216 
L 522.255092 296.442981 
L 524.289269 293.985657 
L 526.323445 298.260641 
L 528.357621 294.326275 
L 530.391798 294.039239 
L 532.425974 290.663308 
L 534.46015 281.093197 
L 536.494327 275.671352 
L 538.528503 278.192534 
L 540.562679 288.227291 
L 542.596856 290.424696 
L 544.631032 282.865471 
L 546.665208 276.54496 
L 548.699385 271.155207 
L 550.733561 263.046049 
L 552.767738 260.148159 
L 554.801914 259.451977 
L 556.83609 254.375786 
L 558.870267 256.45365 
L 560.904443 252.835825 
L 562.938619 245.149392 
L 564.972796 245.386782 
L 567.006972 253.683437 
L 569.041148 250.651428 
L 571.075325 264.759603 
L 573.109501 266.948669 
L 575.143677 265.857306 
L 577.177854 260.861326 
L 581.246206 268.393271 
L 583.280383 274.393267 
L 585.314559 289.443169 
L 587.348735 293.081893 
L 589.382912 292.562076 
L 591.417088 294.84854 
L 593.451265 296.356572 
L 595.485441 297.169258 
L 597.519617 293.474871 
L 599.553794 293.902877 
L 601.58797 293.896169 
L 605.656323 293.248451 
L 607.690499 292.779504 
L 609.724675 298.456824 
L 611.758852 298.68096 
L 613.793028 298.43305 
L 615.827204 297.819565 
L 617.861381 297.088028 
L 619.895557 298.99334 
L 621.929733 295.956091 
L 623.96391 297.46182 
L 630.066439 299.955518 
L 632.100615 303.801109 
L 634.134792 301.208606 
L 636.168968 294.7175 
L 638.203144 294.382651 
L 640.237321 294.718295 
L 642.271497 298.768327 
L 644.305673 297.096347 
L 646.33985 298.549675 
L 648.374026 298.69774 
L 650.408202 298.560726 
L 652.442379 300.479434 
L 654.476555 301.70414 
L 656.510731 301.432824 
L 658.544908 301.648621 
L 662.61326 299.210075 
L 664.647437 299.892597 
L 666.681613 302.197881 
L 670.749966 302.09985 
L 672.784142 301.174169 
L 674.818319 300.861707 
L 676.852495 301.237681 
L 678.886671 301.992788 
L 680.920848 301.812732 
L 682.955024 301.805963 
L 684.9892 302.007896 
L 689.057553 302.065739 
L 691.091729 302.360809 
L 693.125906 302.078666 
L 697.194258 301.879343 
L 699.228435 301.415799 
L 701.262611 301.373736 
L 703.296787 302.031425 
L 705.330964 302.02435 
L 707.36514 302.238679 
L 709.399316 301.39751 
L 713.467669 301.071102 
L 715.501846 300.448402 
L 717.536022 300.437412 
L 719.570198 300.559277 
L 729.74108 300.474928 
L 735.843609 300.235948 
L 737.877785 300.351799 
L 748.048667 300.33981 
L 750.082843 299.8508 
L 754.151196 299.907094 
L 762.287902 299.805577 
L 768.390431 299.878386 
L 774.49296 299.82146 
L 788.732194 299.881913 
L 790.76637 299.808431 
L 794.834723 299.876735 
L 996.218182 299.876735 
L 996.218182 299.876735 
" style="fill:none;stroke:#ff7f0e;stroke-linecap:square;stroke-width:1.5;"/>
   </g>
   <g id="line2d_18">
    <path clip-path="url(#p0826dd9cb7)" d="M 184.581818 484.232727 
L 251.709638 484.143362 
L 267.983049 483.42587 
L 270.017225 483.371204 
L 272.051401 483.025358 
L 274.085578 482.79517 
L 276.119754 481.892333 
L 278.15393 481.767564 
L 280.188107 481.356112 
L 282.222283 481.107946 
L 284.256459 480.611694 
L 286.290636 480.414478 
L 292.393165 479.227065 
L 294.427341 477.789719 
L 298.495694 476.376357 
L 300.52987 475.194991 
L 302.564046 473.844675 
L 306.632399 473.027522 
L 308.666576 470.826615 
L 310.700752 470.828911 
L 312.734928 469.315805 
L 316.803281 464.865674 
L 318.837457 468.245565 
L 320.871634 467.945513 
L 322.90581 466.215926 
L 324.939986 463.815979 
L 326.974163 464.72528 
L 329.008339 463.064155 
L 331.042515 463.898295 
L 333.076692 461.835796 
L 335.110868 463.101298 
L 337.145044 461.322763 
L 339.179221 457.269705 
L 341.213397 461.256934 
L 343.247573 463.565671 
L 345.28175 462.449717 
L 347.315926 459.760419 
L 349.350103 456.004213 
L 353.418455 452.521854 
L 355.452632 448.717994 
L 357.486808 447.434139 
L 359.520984 446.636164 
L 361.555161 446.733323 
L 363.589337 441.232837 
L 365.623513 439.060664 
L 367.65769 442.886462 
L 369.691866 440.653789 
L 371.726042 437.086095 
L 373.760219 439.96303 
L 375.794395 435.759291 
L 377.828571 437.934043 
L 379.862748 431.64119 
L 381.896924 421.91811 
L 383.9311 424.898743 
L 385.965277 414.111607 
L 387.999453 412.007227 
L 390.03363 411.698282 
L 392.067806 407.505226 
L 394.101982 404.307088 
L 396.136159 403.303531 
L 398.170335 394.324466 
L 400.204511 407.08718 
L 402.238688 404.75373 
L 404.272864 408.325181 
L 406.30704 398.908863 
L 408.341217 397.026499 
L 410.375393 391.360893 
L 412.409569 398.455249 
L 414.443746 404.734982 
L 416.477922 400.779963 
L 418.512098 396.031485 
L 420.546275 389.109855 
L 422.580451 384.881103 
L 424.614627 376.674313 
L 426.648804 369.087338 
L 428.68298 366.343304 
L 430.717157 352.399729 
L 432.751333 359.867499 
L 434.785509 360.713072 
L 436.819686 360.359078 
L 438.853862 367.609002 
L 440.888038 366.753602 
L 442.922215 361.942387 
L 444.956391 352.957827 
L 446.990567 367.712028 
L 449.024744 362.354316 
L 451.05892 362.658225 
L 453.093096 359.931796 
L 455.127273 360.041917 
L 457.161449 359.856041 
L 459.195625 371.867553 
L 461.229802 372.548974 
L 463.263978 359.254932 
L 465.298154 358.456978 
L 467.332331 351.880921 
L 469.366507 336.077838 
L 471.400684 332.262983 
L 473.43486 339.954146 
L 475.469036 342.582727 
L 477.503213 336.534154 
L 479.537389 346.489792 
L 481.571565 347.310347 
L 483.605742 343.73226 
L 485.639918 340.59854 
L 487.674094 338.360979 
L 489.708271 335.485639 
L 491.742447 330.408888 
L 493.776623 345.129773 
L 495.8108 336.474639 
L 497.844976 333.688644 
L 499.879152 326.415232 
L 501.913329 321.114069 
L 503.947505 335.129515 
L 505.981681 331.252902 
L 508.015858 326.346725 
L 510.050034 321.817184 
L 512.084211 324.887789 
L 514.118387 323.398964 
L 516.152563 325.851384 
L 518.18674 330.246184 
L 520.220916 326.568211 
L 522.255092 326.691218 
L 524.289269 321.615435 
L 526.323445 326.142386 
L 530.391798 314.334724 
L 532.425974 316.008192 
L 534.46015 315.058962 
L 536.494327 316.48762 
L 538.528503 309.444991 
L 540.562679 310.664396 
L 542.596856 307.59636 
L 544.631032 318.213427 
L 546.665208 313.587976 
L 548.699385 309.673144 
L 550.733561 311.660338 
L 552.767738 322.422779 
L 554.801914 321.651605 
L 556.83609 317.659845 
L 558.870267 313.041388 
L 560.904443 310.694287 
L 562.938619 305.846596 
L 564.972796 304.924034 
L 567.006972 305.846535 
L 569.041148 304.801659 
L 571.075325 305.642665 
L 573.109501 310.978632 
L 575.143677 309.269176 
L 577.177854 304.04751 
L 579.21203 306.745078 
L 581.246206 311.286465 
L 583.280383 313.435426 
L 585.314559 313.406514 
L 587.348735 315.179563 
L 589.382912 315.175546 
L 591.417088 310.110019 
L 593.451265 310.050871 
L 595.485441 312.053744 
L 597.519617 311.12741 
L 599.553794 315.439767 
L 601.58797 311.832381 
L 603.622146 309.326469 
L 605.656323 309.843657 
L 607.690499 308.276721 
L 609.724675 309.775599 
L 611.758852 309.656119 
L 617.861381 308.776089 
L 619.895557 308.017923 
L 621.929733 308.254395 
L 623.96391 306.909781 
L 625.998086 307.202139 
L 628.032262 307.865454 
L 630.066439 311.384577 
L 632.100615 314.60184 
L 634.134792 315.247907 
L 636.168968 314.632852 
L 638.203144 313.75276 
L 642.271497 314.147614 
L 644.305673 312.779593 
L 648.374026 311.817966 
L 650.408202 310.971597 
L 652.442379 311.223279 
L 656.510731 310.475737 
L 658.544908 311.325347 
L 660.579084 310.993352 
L 662.61326 309.448722 
L 664.647437 309.272785 
L 666.681613 307.820374 
L 674.818319 306.778904 
L 676.852495 306.505059 
L 678.886671 304.725893 
L 680.920848 305.015173 
L 682.955024 304.710846 
L 684.9892 304.545328 
L 689.057553 302.446402 
L 691.091729 302.228729 
L 693.125906 302.222266 
L 695.160082 301.566188 
L 697.194258 301.594488 
L 699.228435 301.144972 
L 701.262611 301.279478 
L 705.330964 301.200756 
L 707.36514 301.171274 
L 709.399316 301.325802 
L 715.501846 301.231442 
L 719.570198 301.161691 
L 721.604375 300.871209 
L 725.672727 300.725978 
L 727.706904 300.343133 
L 729.74108 300.461491 
L 733.809433 300.436229 
L 735.843609 300.118813 
L 741.946138 300.041906 
L 750.082843 300.14644 
L 754.151196 300.099954 
L 756.185373 300.090411 
L 758.219549 299.918736 
L 764.322078 299.932152 
L 772.458783 299.859649 
L 780.595489 299.854694 
L 784.663841 299.881913 
L 788.732194 299.808431 
L 792.800547 299.876735 
L 996.218182 299.876735 
L 996.218182 299.876735 
" style="fill:none;stroke:#2ca02c;stroke-linecap:square;stroke-width:1.5;"/>
   </g>
   <g id="line2d_19">
    <path clip-path="url(#p0826dd9cb7)" d="M 184.581818 484.232727 
L 249.675461 484.192018 
L 261.880519 483.392801 
L 265.948872 482.916302 
L 267.983049 481.89383 
L 270.017225 481.75127 
L 274.085578 481.027045 
L 276.119754 479.900279 
L 278.15393 478.605119 
L 280.188107 478.881882 
L 282.222283 479.723776 
L 286.290636 478.445004 
L 288.324812 478.468934 
L 290.358988 478.02463 
L 292.393165 477.306376 
L 294.427341 477.279074 
L 296.461517 476.104312 
L 298.495694 474.792812 
L 300.52987 474.04016 
L 302.564046 472.867998 
L 306.632399 469.153952 
L 310.700752 466.856561 
L 312.734928 469.320876 
L 314.769105 465.519876 
L 316.803281 463.515978 
L 318.837457 462.118619 
L 320.871634 456.038189 
L 322.90581 454.904264 
L 324.939986 449.798872 
L 326.974163 449.544417 
L 329.008339 448.022653 
L 331.042515 442.207381 
L 333.076692 440.402215 
L 335.110868 432.830955 
L 337.145044 429.83612 
L 339.179221 429.495282 
L 341.213397 431.35215 
L 343.247573 428.561211 
L 345.28175 424.120648 
L 347.315926 423.394442 
L 349.350103 417.036563 
L 351.384279 410.178491 
L 353.418455 406.757918 
L 355.452632 392.910814 
L 357.486808 388.073695 
L 359.520984 394.993338 
L 361.555161 388.683204 
L 363.589337 388.884627 
L 365.623513 394.895909 
L 367.65769 379.129251 
L 369.691866 373.124678 
L 371.726042 371.079905 
L 373.760219 367.618922 
L 375.794395 361.68414 
L 377.828571 357.730018 
L 379.862748 349.66644 
L 381.896924 336.209327 
L 383.9311 342.378603 
L 385.965277 339.36105 
L 387.999453 335.405786 
L 390.03363 322.038466 
L 392.067806 316.448738 
L 394.101982 314.420847 
L 396.136159 306.022614 
L 398.170335 289.738912 
L 400.204511 280.700994 
L 402.238688 280.287709 
L 404.272864 283.635706 
L 406.30704 290.754019 
L 408.341217 328.342707 
L 410.375393 347.749608 
L 412.409569 346.33772 
L 414.443746 350.883123 
L 416.477922 342.710587 
L 418.512098 342.355166 
L 420.546275 346.093908 
L 422.580451 348.168633 
L 424.614627 347.649172 
L 426.648804 333.501126 
L 428.68298 321.442026 
L 430.717157 316.646246 
L 432.751333 317.467046 
L 434.785509 297.793936 
L 436.819686 290.698948 
L 438.853862 283.005686 
L 440.888038 278.176386 
L 442.922215 275.287223 
L 444.956391 282.949698 
L 446.990567 284.899906 
L 449.024744 286.641964 
L 451.05892 280.32553 
L 453.093096 267.713134 
L 455.127273 257.502624 
L 457.161449 256.31631 
L 459.195625 274.06639 
L 461.229802 280.822737 
L 463.263978 289.307235 
L 465.298154 293.083178 
L 467.332331 291.314024 
L 469.366507 282.553825 
L 471.400684 282.000243 
L 473.43486 285.715345 
L 475.469036 285.105897 
L 477.503213 296.903405 
L 479.537389 309.558986 
L 481.571565 306.62935 
L 483.605742 301.676554 
L 485.639918 287.09199 
L 487.674094 293.880388 
L 489.708271 296.148441 
L 491.742447 299.947546 
L 493.776623 297.130906 
L 495.8108 291.505782 
L 497.844976 271.340706 
L 499.879152 264.758257 
L 501.913329 265.215521 
L 503.947505 273.125498 
L 505.981681 273.033462 
L 508.015858 272.469747 
L 510.050034 261.67813 
L 512.084211 274.491664 
L 514.118387 294.378696 
L 516.152563 300.527144 
L 518.18674 297.796913 
L 520.220916 295.802725 
L 522.255092 299.128642 
L 524.289269 287.935769 
L 526.323445 284.631811 
L 528.357621 280.437976 
L 530.391798 278.180382 
L 532.425974 284.828239 
L 534.46015 281.093197 
L 536.494327 292.158618 
L 538.528503 286.508395 
L 540.562679 279.767728 
L 542.596856 272.258558 
L 544.631032 274.229115 
L 546.665208 268.077526 
L 548.699385 266.245187 
L 550.733561 267.199983 
L 552.767738 262.05443 
L 554.801914 257.260036 
L 556.83609 248.662358 
L 558.870267 246.041452 
L 560.904443 246.982935 
L 562.938619 248.637789 
L 567.006972 242.144623 
L 569.041148 250.651428 
L 571.075325 252.866082 
L 573.109501 252.776554 
L 575.143677 265.857306 
L 577.177854 272.089696 
L 579.21203 266.793488 
L 581.246206 271.433496 
L 583.280383 286.364367 
L 585.314559 289.596025 
L 587.348735 291.584382 
L 589.382912 293.736727 
L 591.417088 294.094758 
L 593.451265 293.940923 
L 595.485441 297.169258 
L 597.519617 296.375412 
L 599.553794 295.719293 
L 601.58797 292.231855 
L 603.622146 297.757379 
L 605.656323 297.745023 
L 607.690499 297.253954 
L 609.724675 297.62224 
L 611.758852 296.91358 
L 613.793028 296.449913 
L 615.827204 297.819565 
L 617.861381 294.621406 
L 619.895557 296.517727 
L 621.929733 297.859711 
L 623.96391 297.46182 
L 625.998086 294.624669 
L 628.032262 295.337489 
L 632.100615 297.204408 
L 634.134792 297.533772 
L 636.168968 301.181733 
L 638.203144 304.249096 
L 640.237321 304.907009 
L 642.271497 304.807266 
L 644.305673 304.437756 
L 646.33985 305.354813 
L 648.374026 304.924849 
L 650.408202 304.756028 
L 652.442379 301.405604 
L 654.476555 300.987365 
L 656.510731 299.625746 
L 658.544908 300.127744 
L 664.647437 300.939777 
L 666.681613 303.131412 
L 670.749966 301.17945 
L 672.784142 301.174169 
L 674.818319 301.929541 
L 676.852495 301.670906 
L 678.886671 301.782516 
L 680.920848 301.703896 
L 682.955024 301.873104 
L 684.9892 301.832999 
L 687.023377 302.067289 
L 689.057553 302.890944 
L 691.091729 302.861359 
L 693.125906 302.560458 
L 695.160082 301.679551 
L 699.228435 302.035441 
L 701.262611 301.346048 
L 707.36514 301.358567 
L 709.399316 300.800153 
L 715.501846 300.679368 
L 717.536022 300.437412 
L 719.570198 300.367172 
L 725.672727 300.556117 
L 729.74108 300.662609 
L 737.877785 300.388295 
L 750.082843 300.311408 
L 752.11702 299.824335 
L 762.287902 299.867091 
L 778.561312 299.845927 
L 784.663841 299.851228 
L 807.039781 299.876735 
L 996.218182 299.876735 
L 996.218182 299.876735 
" style="fill:none;stroke:#d62728;stroke-dasharray:5.55,2.4;stroke-dashoffset:0;stroke-width:1.5;"/>
   </g>
   <g id="line2d_20">
    <path clip-path="url(#p0826dd9cb7)" d="M 184.581818 484.232727 
L 251.709638 484.143362 
L 261.880519 483.749852 
L 263.914696 483.685006 
L 265.948872 483.480442 
L 270.017225 483.371204 
L 272.051401 483.147313 
L 274.085578 482.79517 
L 276.119754 481.892333 
L 278.15393 481.767564 
L 280.188107 481.356112 
L 284.256459 480.915195 
L 286.290636 480.414478 
L 288.324812 480.19893 
L 292.393165 479.17151 
L 294.427341 478.681611 
L 298.495694 477.020227 
L 300.52987 475.194991 
L 302.564046 474.851209 
L 304.598223 473.478725 
L 306.632399 473.027522 
L 308.666576 470.826615 
L 310.700752 469.612202 
L 312.734928 469.315805 
L 314.769105 471.784615 
L 316.803281 470.532009 
L 318.837457 470.852175 
L 320.871634 468.650544 
L 322.90581 466.626675 
L 324.939986 466.324548 
L 329.008339 463.064155 
L 331.042515 463.898295 
L 333.076692 467.176758 
L 335.110868 464.807881 
L 337.145044 465.678217 
L 339.179221 467.609966 
L 341.213397 465.813554 
L 343.247573 464.434161 
L 345.28175 461.027958 
L 347.315926 457.246253 
L 349.350103 456.004213 
L 353.418455 452.521854 
L 355.452632 452.473201 
L 357.486808 449.694918 
L 359.520984 448.289264 
L 361.555161 445.701502 
L 363.589337 441.880499 
L 365.623513 437.187597 
L 367.65769 440.962535 
L 369.691866 442.255468 
L 371.726042 441.657551 
L 373.760219 439.949232 
L 375.794395 436.197996 
L 379.862748 433.020216 
L 381.896924 437.955024 
L 383.9311 441.031786 
L 385.965277 434.62975 
L 387.999453 429.117719 
L 390.03363 425.862415 
L 392.067806 417.859091 
L 394.101982 415.868553 
L 396.136159 412.475047 
L 398.170335 412.012497 
L 400.204511 411.824093 
L 402.238688 405.391681 
L 404.272864 396.804126 
L 406.30704 403.621079 
L 408.341217 408.172477 
L 410.375393 404.26317 
L 412.409569 394.484194 
L 414.443746 386.025997 
L 416.477922 389.171807 
L 418.512098 385.680637 
L 420.546275 380.578533 
L 422.580451 373.318373 
L 424.614627 367.654093 
L 426.648804 370.495118 
L 428.68298 375.222676 
L 430.717157 372.842953 
L 432.751333 373.921358 
L 434.785509 380.197044 
L 436.819686 367.536316 
L 438.853862 367.609002 
L 440.888038 379.530823 
L 442.922215 378.530875 
L 444.956391 369.955635 
L 446.990567 367.762195 
L 449.024744 364.236049 
L 451.05892 359.207711 
L 453.093096 371.438507 
L 455.127273 371.312584 
L 457.161449 356.058568 
L 459.195625 356.865055 
L 461.229802 358.031316 
L 463.263978 342.614983 
L 465.298154 340.789983 
L 467.332331 336.831814 
L 469.366507 339.19438 
L 471.400684 341.919249 
L 473.43486 334.771198 
L 475.469036 345.245654 
L 477.503213 346.101381 
L 479.537389 343.299768 
L 481.571565 350.077024 
L 483.605742 363.835588 
L 485.639918 357.208059 
L 487.674094 353.455278 
L 489.708271 350.218483 
L 491.742447 345.224776 
L 493.776623 336.199051 
L 495.8108 329.172764 
L 497.844976 325.222373 
L 499.879152 322.796428 
L 501.913329 319.688959 
L 503.947505 314.448657 
L 505.981681 318.534187 
L 508.015858 330.956894 
L 510.050034 327.131396 
L 512.084211 326.740834 
L 514.118387 329.700605 
L 516.152563 324.604566 
L 518.18674 323.110581 
L 520.220916 327.823888 
L 522.255092 326.691218 
L 524.289269 328.921102 
L 526.323445 323.673542 
L 528.357621 317.485152 
L 530.391798 316.516592 
L 532.425974 311.523508 
L 534.46015 305.771666 
L 536.494327 305.616954 
L 538.528503 299.663037 
L 540.562679 292.656558 
L 542.596856 289.101286 
L 544.631032 290.879799 
L 546.665208 296.347356 
L 548.699385 292.311515 
L 550.733561 305.651554 
L 552.767738 303.017029 
L 554.801914 314.378356 
L 556.83609 314.442153 
L 558.870267 314.114482 
L 560.904443 315.90745 
L 562.938619 311.902763 
L 564.972796 311.601149 
L 567.006972 314.769213 
L 569.041148 305.302699 
L 571.075325 312.681929 
L 573.109501 313.873871 
L 575.143677 309.681177 
L 577.177854 308.720651 
L 579.21203 309.486788 
L 581.246206 312.144108 
L 585.314559 316.755368 
L 587.348735 315.470147 
L 591.417088 316.366652 
L 593.451265 315.474062 
L 595.485441 315.463745 
L 597.519617 310.953696 
L 599.553794 315.667614 
L 601.58797 311.832381 
L 603.622146 311.279043 
L 607.690499 310.620152 
L 609.724675 310.973697 
L 611.758852 312.582105 
L 613.793028 310.364943 
L 615.827204 309.680994 
L 617.861381 309.397994 
L 619.895557 308.017923 
L 621.929733 308.254395 
L 623.96391 308.637484 
L 625.998086 313.523996 
L 628.032262 315.715243 
L 630.066439 317.093866 
L 632.100615 317.16062 
L 634.134792 315.431877 
L 636.168968 315.472695 
L 638.203144 314.718465 
L 640.237321 314.777043 
L 642.271497 313.833664 
L 644.305673 313.285444 
L 646.33985 312.301246 
L 648.374026 311.817966 
L 650.408202 310.971597 
L 652.442379 311.223279 
L 654.476555 312.015087 
L 658.544908 311.408881 
L 662.61326 310.703584 
L 664.647437 309.158851 
L 666.681613 309.031726 
L 668.715789 306.743284 
L 670.749966 305.347228 
L 674.818319 304.937756 
L 678.886671 304.391942 
L 680.920848 304.70791 
L 682.955024 304.615813 
L 684.9892 303.624275 
L 687.023377 302.880036 
L 689.057553 301.755194 
L 693.125906 301.777724 
L 695.160082 301.215355 
L 701.262611 301.119241 
L 703.296787 301.300336 
L 713.467669 301.241555 
L 715.501846 300.569533 
L 719.570198 300.586231 
L 721.604375 300.547023 
L 723.638551 300.663648 
L 727.706904 300.550143 
L 731.775256 300.454885 
L 733.809433 300.436229 
L 735.843609 300.118813 
L 741.946138 300.082562 
L 748.048667 300.030407 
L 752.11702 299.812672 
L 756.185373 299.93937 
L 772.458783 299.879691 
L 792.800547 299.876735 
L 996.218182 299.876735 
L 996.218182 299.876735 
" style="fill:none;stroke:#9467bd;stroke-dasharray:5.55,2.4;stroke-dashoffset:0;stroke-width:1.5;"/>
   </g>
   <g id="line2d_21">
    <path clip-path="url(#p0826dd9cb7)" d="M 184.581818 484.232727 
L 247.641285 484.232727 
L 249.675461 483.982809 
L 251.709638 483.440519 
L 253.743814 482.745308 
L 255.77799 482.598736 
L 257.812167 482.105235 
L 259.846343 481.754622 
L 261.880519 482.142227 
L 263.914696 482.286617 
L 265.948872 482.726006 
L 267.983049 482.188268 
L 270.017225 481.818743 
L 272.051401 481.628019 
L 274.085578 481.604738 
L 276.119754 482.176364 
L 278.15393 482.17429 
L 280.188107 482.033686 
L 282.222283 481.067688 
L 284.256459 480.640798 
L 286.290636 479.442295 
L 288.324812 479.670512 
L 290.358988 478.869934 
L 292.393165 475.723077 
L 294.427341 474.606758 
L 296.461517 474.408245 
L 298.495694 473.082827 
L 300.52987 464.399625 
L 302.564046 464.77362 
L 304.598223 463.840102 
L 306.632399 460.344648 
L 308.666576 457.15292 
L 310.700752 456.771694 
L 312.734928 457.60331 
L 314.769105 456.643727 
L 316.803281 453.830314 
L 318.837457 452.877959 
L 320.871634 452.778904 
L 322.90581 447.942407 
L 324.939986 438.58613 
L 326.974163 434.074149 
L 329.008339 426.677853 
L 331.042515 432.7817 
L 333.076692 434.292154 
L 335.110868 429.876903 
L 337.145044 430.770544 
L 339.179221 425.012392 
L 341.213397 427.81348 
L 343.247573 405.873545 
L 345.28175 403.421736 
L 347.315926 399.552188 
L 349.350103 384.267383 
L 351.384279 386.66928 
L 353.418455 376.806566 
L 355.452632 388.374994 
L 357.486808 392.284087 
L 359.520984 386.79819 
L 361.555161 384.198723 
L 363.589337 391.81042 
L 365.623513 375.545648 
L 367.65769 379.617507 
L 369.691866 368.871612 
L 371.726042 363.549398 
L 373.760219 351.371359 
L 375.794395 355.346777 
L 377.828571 369.941964 
L 379.862748 370.220264 
L 381.896924 369.354393 
L 383.9311 368.331273 
L 385.965277 359.094348 
L 387.999453 354.277812 
L 390.03363 356.93659 
L 392.067806 361.196445 
L 394.101982 354.794796 
L 396.136159 358.827415 
L 398.170335 357.173082 
L 400.204511 355.685642 
L 402.238688 353.071353 
L 404.272864 347.695526 
L 406.30704 337.83323 
L 408.341217 337.2247 
L 410.375393 339.646679 
L 412.409569 336.745588 
L 414.443746 330.695058 
L 416.477922 325.061279 
L 418.512098 323.16816 
L 420.546275 318.210328 
L 422.580451 318.47985 
L 424.614627 318.358515 
L 426.648804 317.871544 
L 428.68298 317.871707 
L 430.717157 316.59405 
L 432.751333 316.802548 
L 434.785509 316.63228 
L 436.819686 315.694854 
L 438.853862 315.438829 
L 440.888038 315.932712 
L 442.922215 315.551295 
L 446.990567 315.264055 
L 449.024744 314.87438 
L 453.093096 314.733839 
L 455.127273 314.555618 
L 457.161449 313.955162 
L 459.195625 313.852972 
L 461.229802 308.336807 
L 463.263978 308.564226 
L 467.332331 308.335441 
L 469.366507 308.553155 
L 473.43486 299.041458 
L 475.469036 298.5363 
L 479.537389 298.5258 
L 481.571565 298.181776 
L 483.605742 294.513406 
L 485.639918 294.630174 
L 487.674094 297.052775 
L 489.708271 296.641142 
L 491.742447 296.34701 
L 493.776623 297.844216 
L 495.8108 297.597182 
L 497.844976 297.533854 
L 501.913329 298.353778 
L 503.947505 299.969831 
L 505.981681 300.016399 
L 514.118387 299.745837 
L 516.152563 299.945935 
L 520.220916 299.904056 
L 522.255092 299.283496 
L 526.323445 299.220025 
L 528.357621 299.912782 
L 530.391798 299.743146 
L 532.425974 300.290754 
L 536.494327 300.231891 
L 538.528503 299.97189 
L 540.562679 300.027104 
L 542.596856 299.883239 
L 544.631032 300.101748 
L 552.767738 299.586436 
L 554.801914 298.796708 
L 556.83609 298.828882 
L 560.904443 299.623095 
L 562.938619 299.22973 
L 564.972796 299.16157 
L 569.041148 299.1726 
L 571.075325 299.026309 
L 577.177854 299.111821 
L 579.21203 299.909908 
L 581.246206 300.314283 
L 583.280383 299.474541 
L 585.314559 299.997621 
L 587.348735 299.954335 
L 589.382912 300.128906 
L 591.417088 298.753647 
L 599.553794 299.021925 
L 601.58797 299.190033 
L 605.656323 299.141405 
L 607.690499 299.583847 
L 609.724675 299.559319 
L 611.758852 300.005614 
L 613.793028 298.40004 
L 615.827204 298.407197 
L 617.861381 298.610965 
L 623.96391 298.521375 
L 628.032262 298.929828 
L 636.168968 298.893923 
L 638.203144 299.198066 
L 642.271497 299.179043 
L 644.305673 299.352859 
L 646.33985 299.672926 
L 656.510731 299.62336 
L 658.544908 299.850902 
L 660.579084 299.868966 
L 662.61326 299.758071 
L 664.647437 300.154372 
L 666.681613 299.867131 
L 676.852495 300.037584 
L 678.886671 300.242901 
L 699.228435 299.987529 
L 701.262611 300.093184 
L 711.433493 299.968159 
L 713.467669 299.812163 
L 715.501846 299.838464 
L 717.536022 299.716538 
L 735.843609 299.750099 
L 739.911962 299.727732 
L 746.014491 299.875491 
L 752.11702 299.788206 
L 756.185373 299.801397 
L 758.219549 299.730178 
L 762.287902 299.82515 
L 774.49296 299.817443 
L 780.595489 299.89798 
L 792.800547 299.876735 
L 996.218182 299.876735 
L 996.218182 299.876735 
" style="fill:none;stroke:#8c564b;stroke-dasharray:5.55,2.4;stroke-dashoffset:0;stroke-width:1.5;"/>
   </g>
   <g id="patch_3">
    <path d="M 144 504 
L 144 69.12 
" style="fill:none;stroke:#000000;stroke-linecap:square;stroke-linejoin:miter;stroke-width:0.8;"/>
   </g>
   <g id="patch_4">
    <path d="M 1036.8 504 
L 1036.8 69.12 
" style="fill:none;stroke:#000000;stroke-linecap:square;stroke-linejoin:miter;stroke-width:0.8;"/>
   </g>
   <g id="patch_5">
    <path d="M 144 504 
L 1036.8 504 
" style="fill:none;stroke:#000000;stroke-linecap:square;stroke-linejoin:miter;stroke-width:0.8;"/>
   </g>
   <g id="patch_6">
    <path d="M 144 69.12 
L 1036.8 69.12 
" style="fill:none;stroke:#000000;stroke-linecap:square;stroke-linejoin:miter;stroke-width:0.8;"/>
   </g>
   <g id="legend_1">
    <g id="patch_7">
     <path d="M 905.367188 166.579375 
L 1029.8 166.579375 
Q 1031.8 166.579375 1031.8 164.579375 
L 1031.8 76.12 
Q 1031.8 74.12 1029.8 74.12 
L 905.367188 74.12 
Q 903.367188 74.12 903.367188 76.12 
L 903.367188 164.579375 
Q 903.367188 166.579375 905.367188 166.579375 
z
" style="fill:#ffffff;opacity:0.8;stroke:#cccccc;stroke-linejoin:miter;"/>
    </g>
    <g id="line2d_22">
     <path d="M 907.367188 82.218438 
L 927.367188 82.218438 
" style="fill:none;stroke:#1f77b4;stroke-linecap:square;stroke-width:1.5;"/>
    </g>
    <g id="line2d_23"/>
    <g id="text_18">
     <!-- taylorfo -->
     <defs>
      <path d="M 18.3125 70.21875 
L 18.3125 54.6875 
L 36.8125 54.6875 
L 36.8125 47.703125 
L 18.3125 47.703125 
L 18.3125 18.015625 
Q 18.3125 11.328125 20.140625 9.421875 
Q 21.96875 7.515625 27.59375 7.515625 
L 36.8125 7.515625 
L 36.8125 0 
L 27.59375 0 
Q 17.1875 0 13.234375 3.875 
Q 9.28125 7.765625 9.28125 18.015625 
L 9.28125 47.703125 
L 2.6875 47.703125 
L 2.6875 54.6875 
L 9.28125 54.6875 
L 9.28125 70.21875 
z
" id="DejaVuSans-116"/>
      <path d="M 34.28125 27.484375 
Q 23.390625 27.484375 19.1875 25 
Q 14.984375 22.515625 14.984375 16.5 
Q 14.984375 11.71875 18.140625 8.90625 
Q 21.296875 6.109375 26.703125 6.109375 
Q 34.1875 6.109375 38.703125 11.40625 
Q 43.21875 16.703125 43.21875 25.484375 
L 43.21875 27.484375 
z
M 52.203125 31.203125 
L 52.203125 0 
L 43.21875 0 
L 43.21875 8.296875 
Q 40.140625 3.328125 35.546875 0.953125 
Q 30.953125 -1.421875 24.3125 -1.421875 
Q 15.921875 -1.421875 10.953125 3.296875 
Q 6 8.015625 6 15.921875 
Q 6 25.140625 12.171875 29.828125 
Q 18.359375 34.515625 30.609375 34.515625 
L 43.21875 34.515625 
L 43.21875 35.40625 
Q 43.21875 41.609375 39.140625 45 
Q 35.0625 48.390625 27.6875 48.390625 
Q 23 48.390625 18.546875 47.265625 
Q 14.109375 46.140625 10.015625 43.890625 
L 10.015625 52.203125 
Q 14.9375 54.109375 19.578125 55.046875 
Q 24.21875 56 28.609375 56 
Q 40.484375 56 46.34375 49.84375 
Q 52.203125 43.703125 52.203125 31.203125 
z
" id="DejaVuSans-97"/>
      <path d="M 32.171875 -5.078125 
Q 28.375 -14.84375 24.75 -17.8125 
Q 21.140625 -20.796875 15.09375 -20.796875 
L 7.90625 -20.796875 
L 7.90625 -13.28125 
L 13.1875 -13.28125 
Q 16.890625 -13.28125 18.9375 -11.515625 
Q 21 -9.765625 23.484375 -3.21875 
L 25.09375 0.875 
L 2.984375 54.6875 
L 12.5 54.6875 
L 29.59375 11.921875 
L 46.6875 54.6875 
L 56.203125 54.6875 
z
" id="DejaVuSans-121"/>
      <path d="M 9.421875 75.984375 
L 18.40625 75.984375 
L 18.40625 0 
L 9.421875 0 
z
" id="DejaVuSans-108"/>
     </defs>
     <g transform="translate(935.367188 85.718438)scale(0.1 -0.1)">
      <use xlink:href="#DejaVuSans-116"/>
      <use x="39.208984" xlink:href="#DejaVuSans-97"/>
      <use x="100.488281" xlink:href="#DejaVuSans-121"/>
      <use x="159.667969" xlink:href="#DejaVuSans-108"/>
      <use x="187.451172" xlink:href="#DejaVuSans-111"/>
      <use x="248.632812" xlink:href="#DejaVuSans-114"/>
      <use x="289.746094" xlink:href="#DejaVuSans-102"/>
      <use x="324.951172" xlink:href="#DejaVuSans-111"/>
     </g>
    </g>
    <g id="line2d_24">
     <path d="M 907.367188 96.896563 
L 927.367188 96.896563 
" style="fill:none;stroke:#ff7f0e;stroke-linecap:square;stroke-width:1.5;"/>
    </g>
    <g id="line2d_25"/>
    <g id="text_19">
     <!-- taylorfo_abs -->
     <defs>
      <path d="M 50.984375 -16.609375 
L 50.984375 -23.578125 
L -0.984375 -23.578125 
L -0.984375 -16.609375 
z
" id="DejaVuSans-95"/>
     </defs>
     <g transform="translate(935.367188 100.396563)scale(0.1 -0.1)">
      <use xlink:href="#DejaVuSans-116"/>
      <use x="39.208984" xlink:href="#DejaVuSans-97"/>
      <use x="100.488281" xlink:href="#DejaVuSans-121"/>
      <use x="159.667969" xlink:href="#DejaVuSans-108"/>
      <use x="187.451172" xlink:href="#DejaVuSans-111"/>
      <use x="248.632812" xlink:href="#DejaVuSans-114"/>
      <use x="289.746094" xlink:href="#DejaVuSans-102"/>
      <use x="324.951172" xlink:href="#DejaVuSans-111"/>
      <use x="386.132812" xlink:href="#DejaVuSans-95"/>
      <use x="436.132812" xlink:href="#DejaVuSans-97"/>
      <use x="497.412109" xlink:href="#DejaVuSans-98"/>
      <use x="560.888672" xlink:href="#DejaVuSans-115"/>
     </g>
    </g>
    <g id="line2d_26">
     <path d="M 907.367188 111.852813 
L 927.367188 111.852813 
" style="fill:none;stroke:#2ca02c;stroke-linecap:square;stroke-width:1.5;"/>
    </g>
    <g id="line2d_27"/>
    <g id="text_20">
     <!-- taylorfo_sq -->
     <defs>
      <path d="M 14.796875 27.296875 
Q 14.796875 17.390625 18.875 11.75 
Q 22.953125 6.109375 30.078125 6.109375 
Q 37.203125 6.109375 41.296875 11.75 
Q 45.40625 17.390625 45.40625 27.296875 
Q 45.40625 37.203125 41.296875 42.84375 
Q 37.203125 48.484375 30.078125 48.484375 
Q 22.953125 48.484375 18.875 42.84375 
Q 14.796875 37.203125 14.796875 27.296875 
z
M 45.40625 8.203125 
Q 42.578125 3.328125 38.25 0.953125 
Q 33.9375 -1.421875 27.875 -1.421875 
Q 17.96875 -1.421875 11.734375 6.484375 
Q 5.515625 14.40625 5.515625 27.296875 
Q 5.515625 40.1875 11.734375 48.09375 
Q 17.96875 56 27.875 56 
Q 33.9375 56 38.25 53.625 
Q 42.578125 51.265625 45.40625 46.390625 
L 45.40625 54.6875 
L 54.390625 54.6875 
L 54.390625 -20.796875 
L 45.40625 -20.796875 
z
" id="DejaVuSans-113"/>
     </defs>
     <g transform="translate(935.367188 115.352813)scale(0.1 -0.1)">
      <use xlink:href="#DejaVuSans-116"/>
      <use x="39.208984" xlink:href="#DejaVuSans-97"/>
      <use x="100.488281" xlink:href="#DejaVuSans-121"/>
      <use x="159.667969" xlink:href="#DejaVuSans-108"/>
      <use x="187.451172" xlink:href="#DejaVuSans-111"/>
      <use x="248.632812" xlink:href="#DejaVuSans-114"/>
      <use x="289.746094" xlink:href="#DejaVuSans-102"/>
      <use x="324.951172" xlink:href="#DejaVuSans-111"/>
      <use x="386.132812" xlink:href="#DejaVuSans-95"/>
      <use x="436.132812" xlink:href="#DejaVuSans-115"/>
      <use x="488.232422" xlink:href="#DejaVuSans-113"/>
     </g>
    </g>
    <g id="line2d_28">
     <path d="M 907.367188 126.809063 
L 927.367188 126.809063 
" style="fill:none;stroke:#d62728;stroke-dasharray:5.55,2.4;stroke-dashoffset:0;stroke-width:1.5;"/>
    </g>
    <g id="line2d_29"/>
    <g id="text_21">
     <!-- taylorfo_abs_norm -->
     <g transform="translate(935.367188 130.309063)scale(0.1 -0.1)">
      <use xlink:href="#DejaVuSans-116"/>
      <use x="39.208984" xlink:href="#DejaVuSans-97"/>
      <use x="100.488281" xlink:href="#DejaVuSans-121"/>
      <use x="159.667969" xlink:href="#DejaVuSans-108"/>
      <use x="187.451172" xlink:href="#DejaVuSans-111"/>
      <use x="248.632812" xlink:href="#DejaVuSans-114"/>
      <use x="289.746094" xlink:href="#DejaVuSans-102"/>
      <use x="324.951172" xlink:href="#DejaVuSans-111"/>
      <use x="386.132812" xlink:href="#DejaVuSans-95"/>
      <use x="436.132812" xlink:href="#DejaVuSans-97"/>
      <use x="497.412109" xlink:href="#DejaVuSans-98"/>
      <use x="560.888672" xlink:href="#DejaVuSans-115"/>
      <use x="612.988281" xlink:href="#DejaVuSans-95"/>
      <use x="662.988281" xlink:href="#DejaVuSans-110"/>
      <use x="726.367188" xlink:href="#DejaVuSans-111"/>
      <use x="787.548828" xlink:href="#DejaVuSans-114"/>
      <use x="826.912109" xlink:href="#DejaVuSans-109"/>
     </g>
    </g>
    <g id="line2d_30">
     <path d="M 907.367188 141.765313 
L 927.367188 141.765313 
" style="fill:none;stroke:#9467bd;stroke-dasharray:5.55,2.4;stroke-dashoffset:0;stroke-width:1.5;"/>
    </g>
    <g id="line2d_31"/>
    <g id="text_22">
     <!-- taylorfo_sq_norm -->
     <g transform="translate(935.367188 145.265313)scale(0.1 -0.1)">
      <use xlink:href="#DejaVuSans-116"/>
      <use x="39.208984" xlink:href="#DejaVuSans-97"/>
      <use x="100.488281" xlink:href="#DejaVuSans-121"/>
      <use x="159.667969" xlink:href="#DejaVuSans-108"/>
      <use x="187.451172" xlink:href="#DejaVuSans-111"/>
      <use x="248.632812" xlink:href="#DejaVuSans-114"/>
      <use x="289.746094" xlink:href="#DejaVuSans-102"/>
      <use x="324.951172" xlink:href="#DejaVuSans-111"/>
      <use x="386.132812" xlink:href="#DejaVuSans-95"/>
      <use x="436.132812" xlink:href="#DejaVuSans-115"/>
      <use x="488.232422" xlink:href="#DejaVuSans-113"/>
      <use x="551.708984" xlink:href="#DejaVuSans-95"/>
      <use x="601.708984" xlink:href="#DejaVuSans-110"/>
      <use x="665.087891" xlink:href="#DejaVuSans-111"/>
      <use x="726.269531" xlink:href="#DejaVuSans-114"/>
      <use x="765.632812" xlink:href="#DejaVuSans-109"/>
     </g>
    </g>
    <g id="line2d_32">
     <path d="M 907.367188 156.721563 
L 927.367188 156.721563 
" style="fill:none;stroke:#8c564b;stroke-dasharray:5.55,2.4;stroke-dashoffset:0;stroke-width:1.5;"/>
    </g>
    <g id="line2d_33"/>
    <g id="text_23">
     <!-- Molchanov_group -->
     <defs>
      <path d="M 9.8125 72.90625 
L 24.515625 72.90625 
L 43.109375 23.296875 
L 61.8125 72.90625 
L 76.515625 72.90625 
L 76.515625 0 
L 66.890625 0 
L 66.890625 64.015625 
L 48.09375 14.015625 
L 38.1875 14.015625 
L 19.390625 64.015625 
L 19.390625 0 
L 9.8125 0 
z
" id="DejaVuSans-77"/>
      <path d="M 48.78125 52.59375 
L 48.78125 44.1875 
Q 44.96875 46.296875 41.140625 47.34375 
Q 37.3125 48.390625 33.40625 48.390625 
Q 24.65625 48.390625 19.8125 42.84375 
Q 14.984375 37.3125 14.984375 27.296875 
Q 14.984375 17.28125 19.8125 11.734375 
Q 24.65625 6.203125 33.40625 6.203125 
Q 37.3125 6.203125 41.140625 7.25 
Q 44.96875 8.296875 48.78125 10.40625 
L 48.78125 2.09375 
Q 45.015625 0.34375 40.984375 -0.53125 
Q 36.96875 -1.421875 32.421875 -1.421875 
Q 20.0625 -1.421875 12.78125 6.34375 
Q 5.515625 14.109375 5.515625 27.296875 
Q 5.515625 40.671875 12.859375 48.328125 
Q 20.21875 56 33.015625 56 
Q 37.15625 56 41.109375 55.140625 
Q 45.0625 54.296875 48.78125 52.59375 
z
" id="DejaVuSans-99"/>
      <path d="M 54.890625 33.015625 
L 54.890625 0 
L 45.90625 0 
L 45.90625 32.71875 
Q 45.90625 40.484375 42.875 44.328125 
Q 39.84375 48.1875 33.796875 48.1875 
Q 26.515625 48.1875 22.3125 43.546875 
Q 18.109375 38.921875 18.109375 30.90625 
L 18.109375 0 
L 9.078125 0 
L 9.078125 75.984375 
L 18.109375 75.984375 
L 18.109375 46.1875 
Q 21.34375 51.125 25.703125 53.5625 
Q 30.078125 56 35.796875 56 
Q 45.21875 56 50.046875 50.171875 
Q 54.890625 44.34375 54.890625 33.015625 
z
" id="DejaVuSans-104"/>
      <path d="M 2.984375 54.6875 
L 12.5 54.6875 
L 29.59375 8.796875 
L 46.6875 54.6875 
L 56.203125 54.6875 
L 35.6875 0 
L 23.484375 0 
z
" id="DejaVuSans-118"/>
      <path d="M 45.40625 27.984375 
Q 45.40625 37.75 41.375 43.109375 
Q 37.359375 48.484375 30.078125 48.484375 
Q 22.859375 48.484375 18.828125 43.109375 
Q 14.796875 37.75 14.796875 27.984375 
Q 14.796875 18.265625 18.828125 12.890625 
Q 22.859375 7.515625 30.078125 7.515625 
Q 37.359375 7.515625 41.375 12.890625 
Q 45.40625 18.265625 45.40625 27.984375 
z
M 54.390625 6.78125 
Q 54.390625 -7.171875 48.1875 -13.984375 
Q 42 -20.796875 29.203125 -20.796875 
Q 24.46875 -20.796875 20.265625 -20.09375 
Q 16.0625 -19.390625 12.109375 -17.921875 
L 12.109375 -9.1875 
Q 16.0625 -11.328125 19.921875 -12.34375 
Q 23.78125 -13.375 27.78125 -13.375 
Q 36.625 -13.375 41.015625 -8.765625 
Q 45.40625 -4.15625 45.40625 5.171875 
L 45.40625 9.625 
Q 42.625 4.78125 38.28125 2.390625 
Q 33.9375 0 27.875 0 
Q 17.828125 0 11.671875 7.65625 
Q 5.515625 15.328125 5.515625 27.984375 
Q 5.515625 40.671875 11.671875 48.328125 
Q 17.828125 56 27.875 56 
Q 33.9375 56 38.28125 53.609375 
Q 42.625 51.21875 45.40625 46.390625 
L 45.40625 54.6875 
L 54.390625 54.6875 
z
" id="DejaVuSans-103"/>
     </defs>
     <g transform="translate(935.367188 160.221563)scale(0.1 -0.1)">
      <use xlink:href="#DejaVuSans-77"/>
      <use x="86.279297" xlink:href="#DejaVuSans-111"/>
      <use x="147.460938" xlink:href="#DejaVuSans-108"/>
      <use x="175.244141" xlink:href="#DejaVuSans-99"/>
      <use x="230.224609" xlink:href="#DejaVuSans-104"/>
      <use x="293.603516" xlink:href="#DejaVuSans-97"/>
      <use x="354.882812" xlink:href="#DejaVuSans-110"/>
      <use x="418.261719" xlink:href="#DejaVuSans-111"/>
      <use x="479.443359" xlink:href="#DejaVuSans-118"/>
      <use x="538.623047" xlink:href="#DejaVuSans-95"/>
      <use x="588.623047" xlink:href="#DejaVuSans-103"/>
      <use x="652.099609" xlink:href="#DejaVuSans-114"/>
      <use x="690.962891" xlink:href="#DejaVuSans-111"/>
      <use x="752.144531" xlink:href="#DejaVuSans-117"/>
      <use x="815.523438" xlink:href="#DejaVuSans-112"/>
     </g>
    </g>
   </g>
  </g>
 </g>
 <defs>
  <clipPath id="p0826dd9cb7">
   <rect height="434.88" width="892.8" x="144" y="69.12"/>
  </clipPath>
 </defs>
</svg>
