<?xml version="1.0" encoding="utf-8" standalone="no"?>
<!DOCTYPE svg PUBLIC "-//W3C//DTD SVG 1.1//EN"
  "http://www.w3.org/Graphics/SVG/1.1/DTD/svg11.dtd">
<!-- Created with matplotlib (https://matplotlib.org/) -->
<svg height="576pt" version="1.1" viewBox="0 0 1152 576" width="1152pt" xmlns="http://www.w3.org/2000/svg" xmlns:xlink="http://www.w3.org/1999/xlink">
 <defs>
  <style type="text/css">
*{stroke-linecap:butt;stroke-linejoin:round;}
  </style>
 </defs>
 <g id="figure_1">
  <g id="patch_1">
   <path d="M 0 576 
L 1152 576 
L 1152 0 
L 0 0 
z
" style="fill:#ffffff;"/>
  </g>
  <g id="axes_1">
   <g id="patch_2">
    <path d="M 144 504 
L 1036.8 504 
L 1036.8 69.12 
L 144 69.12 
z
" style="fill:#ffffff;"/>
   </g>
   <g id="matplotlib.axis_1">
    <g id="xtick_1">
     <g id="line2d_1">
      <defs>
       <path d="M 0 0 
L 0 3.5 
" id="m5ef4b90144" style="stroke:#000000;stroke-width:0.8;"/>
      </defs>
      <g>
       <use style="stroke:#000000;stroke-width:0.8;" x="182.547642" xlink:href="#m5ef4b90144" y="504"/>
      </g>
     </g>
     <g id="text_1">
      <!-- 0 -->
      <defs>
       <path d="M 31.78125 66.40625 
Q 24.171875 66.40625 20.328125 58.90625 
Q 16.5 51.421875 16.5 36.375 
Q 16.5 21.390625 20.328125 13.890625 
Q 24.171875 6.390625 31.78125 6.390625 
Q 39.453125 6.390625 43.28125 13.890625 
Q 47.125 21.390625 47.125 36.375 
Q 47.125 51.421875 43.28125 58.90625 
Q 39.453125 66.40625 31.78125 66.40625 
z
M 31.78125 74.21875 
Q 44.046875 74.21875 50.515625 64.515625 
Q 56.984375 54.828125 56.984375 36.375 
Q 56.984375 17.96875 50.515625 8.265625 
Q 44.046875 -1.421875 31.78125 -1.421875 
Q 19.53125 -1.421875 13.0625 8.265625 
Q 6.59375 17.96875 6.59375 36.375 
Q 6.59375 54.828125 13.0625 64.515625 
Q 19.53125 74.21875 31.78125 74.21875 
z
" id="DejaVuSans-48"/>
      </defs>
      <g transform="translate(179.366392 518.598438)scale(0.1 -0.1)">
       <use xlink:href="#DejaVuSans-48"/>
      </g>
     </g>
    </g>
    <g id="xtick_2">
     <g id="line2d_2">
      <g>
       <use style="stroke:#000000;stroke-width:0.8;" x="284.256459" xlink:href="#m5ef4b90144" y="504"/>
      </g>
     </g>
     <g id="text_2">
      <!-- 50 -->
      <defs>
       <path d="M 10.796875 72.90625 
L 49.515625 72.90625 
L 49.515625 64.59375 
L 19.828125 64.59375 
L 19.828125 46.734375 
Q 21.96875 47.46875 24.109375 47.828125 
Q 26.265625 48.1875 28.421875 48.1875 
Q 40.625 48.1875 47.75 41.5 
Q 54.890625 34.8125 54.890625 23.390625 
Q 54.890625 11.625 47.5625 5.09375 
Q 40.234375 -1.421875 26.90625 -1.421875 
Q 22.3125 -1.421875 17.546875 -0.640625 
Q 12.796875 0.140625 7.71875 1.703125 
L 7.71875 11.625 
Q 12.109375 9.234375 16.796875 8.0625 
Q 21.484375 6.890625 26.703125 6.890625 
Q 35.15625 6.890625 40.078125 11.328125 
Q 45.015625 15.765625 45.015625 23.390625 
Q 45.015625 31 40.078125 35.4375 
Q 35.15625 39.890625 26.703125 39.890625 
Q 22.75 39.890625 18.8125 39.015625 
Q 14.890625 38.140625 10.796875 36.28125 
z
" id="DejaVuSans-53"/>
      </defs>
      <g transform="translate(277.893959 518.598438)scale(0.1 -0.1)">
       <use xlink:href="#DejaVuSans-53"/>
       <use x="63.623047" xlink:href="#DejaVuSans-48"/>
      </g>
     </g>
    </g>
    <g id="xtick_3">
     <g id="line2d_3">
      <g>
       <use style="stroke:#000000;stroke-width:0.8;" x="385.965277" xlink:href="#m5ef4b90144" y="504"/>
      </g>
     </g>
     <g id="text_3">
      <!-- 100 -->
      <defs>
       <path d="M 12.40625 8.296875 
L 28.515625 8.296875 
L 28.515625 63.921875 
L 10.984375 60.40625 
L 10.984375 69.390625 
L 28.421875 72.90625 
L 38.28125 72.90625 
L 38.28125 8.296875 
L 54.390625 8.296875 
L 54.390625 0 
L 12.40625 0 
z
" id="DejaVuSans-49"/>
      </defs>
      <g transform="translate(376.421527 518.598438)scale(0.1 -0.1)">
       <use xlink:href="#DejaVuSans-49"/>
       <use x="63.623047" xlink:href="#DejaVuSans-48"/>
       <use x="127.246094" xlink:href="#DejaVuSans-48"/>
      </g>
     </g>
    </g>
    <g id="xtick_4">
     <g id="line2d_4">
      <g>
       <use style="stroke:#000000;stroke-width:0.8;" x="487.674094" xlink:href="#m5ef4b90144" y="504"/>
      </g>
     </g>
     <g id="text_4">
      <!-- 150 -->
      <g transform="translate(478.130344 518.598438)scale(0.1 -0.1)">
       <use xlink:href="#DejaVuSans-49"/>
       <use x="63.623047" xlink:href="#DejaVuSans-53"/>
       <use x="127.246094" xlink:href="#DejaVuSans-48"/>
      </g>
     </g>
    </g>
    <g id="xtick_5">
     <g id="line2d_5">
      <g>
       <use style="stroke:#000000;stroke-width:0.8;" x="589.382912" xlink:href="#m5ef4b90144" y="504"/>
      </g>
     </g>
     <g id="text_5">
      <!-- 200 -->
      <defs>
       <path d="M 19.1875 8.296875 
L 53.609375 8.296875 
L 53.609375 0 
L 7.328125 0 
L 7.328125 8.296875 
Q 12.9375 14.109375 22.625 23.890625 
Q 32.328125 33.6875 34.8125 36.53125 
Q 39.546875 41.84375 41.421875 45.53125 
Q 43.3125 49.21875 43.3125 52.78125 
Q 43.3125 58.59375 39.234375 62.25 
Q 35.15625 65.921875 28.609375 65.921875 
Q 23.96875 65.921875 18.8125 64.3125 
Q 13.671875 62.703125 7.8125 59.421875 
L 7.8125 69.390625 
Q 13.765625 71.78125 18.9375 73 
Q 24.125 74.21875 28.421875 74.21875 
Q 39.75 74.21875 46.484375 68.546875 
Q 53.21875 62.890625 53.21875 53.421875 
Q 53.21875 48.921875 51.53125 44.890625 
Q 49.859375 40.875 45.40625 35.40625 
Q 44.1875 33.984375 37.640625 27.21875 
Q 31.109375 20.453125 19.1875 8.296875 
z
" id="DejaVuSans-50"/>
      </defs>
      <g transform="translate(579.839162 518.598438)scale(0.1 -0.1)">
       <use xlink:href="#DejaVuSans-50"/>
       <use x="63.623047" xlink:href="#DejaVuSans-48"/>
       <use x="127.246094" xlink:href="#DejaVuSans-48"/>
      </g>
     </g>
    </g>
    <g id="xtick_6">
     <g id="line2d_6">
      <g>
       <use style="stroke:#000000;stroke-width:0.8;" x="691.091729" xlink:href="#m5ef4b90144" y="504"/>
      </g>
     </g>
     <g id="text_6">
      <!-- 250 -->
      <g transform="translate(681.547979 518.598438)scale(0.1 -0.1)">
       <use xlink:href="#DejaVuSans-50"/>
       <use x="63.623047" xlink:href="#DejaVuSans-53"/>
       <use x="127.246094" xlink:href="#DejaVuSans-48"/>
      </g>
     </g>
    </g>
    <g id="xtick_7">
     <g id="line2d_7">
      <g>
       <use style="stroke:#000000;stroke-width:0.8;" x="792.800547" xlink:href="#m5ef4b90144" y="504"/>
      </g>
     </g>
     <g id="text_7">
      <!-- 300 -->
      <defs>
       <path d="M 40.578125 39.3125 
Q 47.65625 37.796875 51.625 33 
Q 55.609375 28.21875 55.609375 21.1875 
Q 55.609375 10.40625 48.1875 4.484375 
Q 40.765625 -1.421875 27.09375 -1.421875 
Q 22.515625 -1.421875 17.65625 -0.515625 
Q 12.796875 0.390625 7.625 2.203125 
L 7.625 11.71875 
Q 11.71875 9.328125 16.59375 8.109375 
Q 21.484375 6.890625 26.8125 6.890625 
Q 36.078125 6.890625 40.9375 10.546875 
Q 45.796875 14.203125 45.796875 21.1875 
Q 45.796875 27.640625 41.28125 31.265625 
Q 36.765625 34.90625 28.71875 34.90625 
L 20.21875 34.90625 
L 20.21875 43.015625 
L 29.109375 43.015625 
Q 36.375 43.015625 40.234375 45.921875 
Q 44.09375 48.828125 44.09375 54.296875 
Q 44.09375 59.90625 40.109375 62.90625 
Q 36.140625 65.921875 28.71875 65.921875 
Q 24.65625 65.921875 20.015625 65.03125 
Q 15.375 64.15625 9.8125 62.3125 
L 9.8125 71.09375 
Q 15.4375 72.65625 20.34375 73.4375 
Q 25.25 74.21875 29.59375 74.21875 
Q 40.828125 74.21875 47.359375 69.109375 
Q 53.90625 64.015625 53.90625 55.328125 
Q 53.90625 49.265625 50.4375 45.09375 
Q 46.96875 40.921875 40.578125 39.3125 
z
" id="DejaVuSans-51"/>
      </defs>
      <g transform="translate(783.256797 518.598438)scale(0.1 -0.1)">
       <use xlink:href="#DejaVuSans-51"/>
       <use x="63.623047" xlink:href="#DejaVuSans-48"/>
       <use x="127.246094" xlink:href="#DejaVuSans-48"/>
      </g>
     </g>
    </g>
    <g id="xtick_8">
     <g id="line2d_8">
      <g>
       <use style="stroke:#000000;stroke-width:0.8;" x="894.509364" xlink:href="#m5ef4b90144" y="504"/>
      </g>
     </g>
     <g id="text_8">
      <!-- 350 -->
      <g transform="translate(884.965614 518.598438)scale(0.1 -0.1)">
       <use xlink:href="#DejaVuSans-51"/>
       <use x="63.623047" xlink:href="#DejaVuSans-53"/>
       <use x="127.246094" xlink:href="#DejaVuSans-48"/>
      </g>
     </g>
    </g>
    <g id="xtick_9">
     <g id="line2d_9">
      <g>
       <use style="stroke:#000000;stroke-width:0.8;" x="996.218182" xlink:href="#m5ef4b90144" y="504"/>
      </g>
     </g>
     <g id="text_9">
      <!-- 400 -->
      <defs>
       <path d="M 37.796875 64.3125 
L 12.890625 25.390625 
L 37.796875 25.390625 
z
M 35.203125 72.90625 
L 47.609375 72.90625 
L 47.609375 25.390625 
L 58.015625 25.390625 
L 58.015625 17.1875 
L 47.609375 17.1875 
L 47.609375 0 
L 37.796875 0 
L 37.796875 17.1875 
L 4.890625 17.1875 
L 4.890625 26.703125 
z
" id="DejaVuSans-52"/>
      </defs>
      <g transform="translate(986.674432 518.598438)scale(0.1 -0.1)">
       <use xlink:href="#DejaVuSans-52"/>
       <use x="63.623047" xlink:href="#DejaVuSans-48"/>
       <use x="127.246094" xlink:href="#DejaVuSans-48"/>
      </g>
     </g>
    </g>
    <g id="text_10">
     <!-- Number of Neurons pruned -->
     <defs>
      <path d="M 9.8125 72.90625 
L 23.09375 72.90625 
L 55.421875 11.921875 
L 55.421875 72.90625 
L 64.984375 72.90625 
L 64.984375 0 
L 51.703125 0 
L 19.390625 60.984375 
L 19.390625 0 
L 9.8125 0 
z
" id="DejaVuSans-78"/>
      <path d="M 8.5 21.578125 
L 8.5 54.6875 
L 17.484375 54.6875 
L 17.484375 21.921875 
Q 17.484375 14.15625 20.5 10.265625 
Q 23.53125 6.390625 29.59375 6.390625 
Q 36.859375 6.390625 41.078125 11.03125 
Q 45.3125 15.671875 45.3125 23.6875 
L 45.3125 54.6875 
L 54.296875 54.6875 
L 54.296875 0 
L 45.3125 0 
L 45.3125 8.40625 
Q 42.046875 3.421875 37.71875 1 
Q 33.40625 -1.421875 27.6875 -1.421875 
Q 18.265625 -1.421875 13.375 4.4375 
Q 8.5 10.296875 8.5 21.578125 
z
M 31.109375 56 
z
" id="DejaVuSans-117"/>
      <path d="M 52 44.1875 
Q 55.375 50.25 60.0625 53.125 
Q 64.75 56 71.09375 56 
Q 79.640625 56 84.28125 50.015625 
Q 88.921875 44.046875 88.921875 33.015625 
L 88.921875 0 
L 79.890625 0 
L 79.890625 32.71875 
Q 79.890625 40.578125 77.09375 44.375 
Q 74.3125 48.1875 68.609375 48.1875 
Q 61.625 48.1875 57.5625 43.546875 
Q 53.515625 38.921875 53.515625 30.90625 
L 53.515625 0 
L 44.484375 0 
L 44.484375 32.71875 
Q 44.484375 40.625 41.703125 44.40625 
Q 38.921875 48.1875 33.109375 48.1875 
Q 26.21875 48.1875 22.15625 43.53125 
Q 18.109375 38.875 18.109375 30.90625 
L 18.109375 0 
L 9.078125 0 
L 9.078125 54.6875 
L 18.109375 54.6875 
L 18.109375 46.1875 
Q 21.1875 51.21875 25.484375 53.609375 
Q 29.78125 56 35.6875 56 
Q 41.65625 56 45.828125 52.96875 
Q 50 49.953125 52 44.1875 
z
" id="DejaVuSans-109"/>
      <path d="M 48.6875 27.296875 
Q 48.6875 37.203125 44.609375 42.84375 
Q 40.53125 48.484375 33.40625 48.484375 
Q 26.265625 48.484375 22.1875 42.84375 
Q 18.109375 37.203125 18.109375 27.296875 
Q 18.109375 17.390625 22.1875 11.75 
Q 26.265625 6.109375 33.40625 6.109375 
Q 40.53125 6.109375 44.609375 11.75 
Q 48.6875 17.390625 48.6875 27.296875 
z
M 18.109375 46.390625 
Q 20.953125 51.265625 25.265625 53.625 
Q 29.59375 56 35.59375 56 
Q 45.5625 56 51.78125 48.09375 
Q 58.015625 40.1875 58.015625 27.296875 
Q 58.015625 14.40625 51.78125 6.484375 
Q 45.5625 -1.421875 35.59375 -1.421875 
Q 29.59375 -1.421875 25.265625 0.953125 
Q 20.953125 3.328125 18.109375 8.203125 
L 18.109375 0 
L 9.078125 0 
L 9.078125 75.984375 
L 18.109375 75.984375 
z
" id="DejaVuSans-98"/>
      <path d="M 56.203125 29.59375 
L 56.203125 25.203125 
L 14.890625 25.203125 
Q 15.484375 15.921875 20.484375 11.0625 
Q 25.484375 6.203125 34.421875 6.203125 
Q 39.59375 6.203125 44.453125 7.46875 
Q 49.3125 8.734375 54.109375 11.28125 
L 54.109375 2.78125 
Q 49.265625 0.734375 44.1875 -0.34375 
Q 39.109375 -1.421875 33.890625 -1.421875 
Q 20.796875 -1.421875 13.15625 6.1875 
Q 5.515625 13.8125 5.515625 26.8125 
Q 5.515625 40.234375 12.765625 48.109375 
Q 20.015625 56 32.328125 56 
Q 43.359375 56 49.78125 48.890625 
Q 56.203125 41.796875 56.203125 29.59375 
z
M 47.21875 32.234375 
Q 47.125 39.59375 43.09375 43.984375 
Q 39.0625 48.390625 32.421875 48.390625 
Q 24.90625 48.390625 20.390625 44.140625 
Q 15.875 39.890625 15.1875 32.171875 
z
" id="DejaVuSans-101"/>
      <path d="M 41.109375 46.296875 
Q 39.59375 47.171875 37.8125 47.578125 
Q 36.03125 48 33.890625 48 
Q 26.265625 48 22.1875 43.046875 
Q 18.109375 38.09375 18.109375 28.8125 
L 18.109375 0 
L 9.078125 0 
L 9.078125 54.6875 
L 18.109375 54.6875 
L 18.109375 46.1875 
Q 20.953125 51.171875 25.484375 53.578125 
Q 30.03125 56 36.53125 56 
Q 37.453125 56 38.578125 55.875 
Q 39.703125 55.765625 41.0625 55.515625 
z
" id="DejaVuSans-114"/>
      <path id="DejaVuSans-32"/>
      <path d="M 30.609375 48.390625 
Q 23.390625 48.390625 19.1875 42.75 
Q 14.984375 37.109375 14.984375 27.296875 
Q 14.984375 17.484375 19.15625 11.84375 
Q 23.34375 6.203125 30.609375 6.203125 
Q 37.796875 6.203125 41.984375 11.859375 
Q 46.1875 17.53125 46.1875 27.296875 
Q 46.1875 37.015625 41.984375 42.703125 
Q 37.796875 48.390625 30.609375 48.390625 
z
M 30.609375 56 
Q 42.328125 56 49.015625 48.375 
Q 55.71875 40.765625 55.71875 27.296875 
Q 55.71875 13.875 49.015625 6.21875 
Q 42.328125 -1.421875 30.609375 -1.421875 
Q 18.84375 -1.421875 12.171875 6.21875 
Q 5.515625 13.875 5.515625 27.296875 
Q 5.515625 40.765625 12.171875 48.375 
Q 18.84375 56 30.609375 56 
z
" id="DejaVuSans-111"/>
      <path d="M 37.109375 75.984375 
L 37.109375 68.5 
L 28.515625 68.5 
Q 23.6875 68.5 21.796875 66.546875 
Q 19.921875 64.59375 19.921875 59.515625 
L 19.921875 54.6875 
L 34.71875 54.6875 
L 34.71875 47.703125 
L 19.921875 47.703125 
L 19.921875 0 
L 10.890625 0 
L 10.890625 47.703125 
L 2.296875 47.703125 
L 2.296875 54.6875 
L 10.890625 54.6875 
L 10.890625 58.5 
Q 10.890625 67.625 15.140625 71.796875 
Q 19.390625 75.984375 28.609375 75.984375 
z
" id="DejaVuSans-102"/>
      <path d="M 54.890625 33.015625 
L 54.890625 0 
L 45.90625 0 
L 45.90625 32.71875 
Q 45.90625 40.484375 42.875 44.328125 
Q 39.84375 48.1875 33.796875 48.1875 
Q 26.515625 48.1875 22.3125 43.546875 
Q 18.109375 38.921875 18.109375 30.90625 
L 18.109375 0 
L 9.078125 0 
L 9.078125 54.6875 
L 18.109375 54.6875 
L 18.109375 46.1875 
Q 21.34375 51.125 25.703125 53.5625 
Q 30.078125 56 35.796875 56 
Q 45.21875 56 50.046875 50.171875 
Q 54.890625 44.34375 54.890625 33.015625 
z
" id="DejaVuSans-110"/>
      <path d="M 44.28125 53.078125 
L 44.28125 44.578125 
Q 40.484375 46.53125 36.375 47.5 
Q 32.28125 48.484375 27.875 48.484375 
Q 21.1875 48.484375 17.84375 46.4375 
Q 14.5 44.390625 14.5 40.28125 
Q 14.5 37.15625 16.890625 35.375 
Q 19.28125 33.59375 26.515625 31.984375 
L 29.59375 31.296875 
Q 39.15625 29.25 43.1875 25.515625 
Q 47.21875 21.78125 47.21875 15.09375 
Q 47.21875 7.46875 41.1875 3.015625 
Q 35.15625 -1.421875 24.609375 -1.421875 
Q 20.21875 -1.421875 15.453125 -0.5625 
Q 10.6875 0.296875 5.421875 2 
L 5.421875 11.28125 
Q 10.40625 8.6875 15.234375 7.390625 
Q 20.0625 6.109375 24.8125 6.109375 
Q 31.15625 6.109375 34.5625 8.28125 
Q 37.984375 10.453125 37.984375 14.40625 
Q 37.984375 18.0625 35.515625 20.015625 
Q 33.0625 21.96875 24.703125 23.78125 
L 21.578125 24.515625 
Q 13.234375 26.265625 9.515625 29.90625 
Q 5.8125 33.546875 5.8125 39.890625 
Q 5.8125 47.609375 11.28125 51.796875 
Q 16.75 56 26.8125 56 
Q 31.78125 56 36.171875 55.265625 
Q 40.578125 54.546875 44.28125 53.078125 
z
" id="DejaVuSans-115"/>
      <path d="M 18.109375 8.203125 
L 18.109375 -20.796875 
L 9.078125 -20.796875 
L 9.078125 54.6875 
L 18.109375 54.6875 
L 18.109375 46.390625 
Q 20.953125 51.265625 25.265625 53.625 
Q 29.59375 56 35.59375 56 
Q 45.5625 56 51.78125 48.09375 
Q 58.015625 40.1875 58.015625 27.296875 
Q 58.015625 14.40625 51.78125 6.484375 
Q 45.5625 -1.421875 35.59375 -1.421875 
Q 29.59375 -1.421875 25.265625 0.953125 
Q 20.953125 3.328125 18.109375 8.203125 
z
M 48.6875 27.296875 
Q 48.6875 37.203125 44.609375 42.84375 
Q 40.53125 48.484375 33.40625 48.484375 
Q 26.265625 48.484375 22.1875 42.84375 
Q 18.109375 37.203125 18.109375 27.296875 
Q 18.109375 17.390625 22.1875 11.75 
Q 26.265625 6.109375 33.40625 6.109375 
Q 40.53125 6.109375 44.609375 11.75 
Q 48.6875 17.390625 48.6875 27.296875 
z
" id="DejaVuSans-112"/>
      <path d="M 45.40625 46.390625 
L 45.40625 75.984375 
L 54.390625 75.984375 
L 54.390625 0 
L 45.40625 0 
L 45.40625 8.203125 
Q 42.578125 3.328125 38.25 0.953125 
Q 33.9375 -1.421875 27.875 -1.421875 
Q 17.96875 -1.421875 11.734375 6.484375 
Q 5.515625 14.40625 5.515625 27.296875 
Q 5.515625 40.1875 11.734375 48.09375 
Q 17.96875 56 27.875 56 
Q 33.9375 56 38.25 53.625 
Q 42.578125 51.265625 45.40625 46.390625 
z
M 14.796875 27.296875 
Q 14.796875 17.390625 18.875 11.75 
Q 22.953125 6.109375 30.078125 6.109375 
Q 37.203125 6.109375 41.296875 11.75 
Q 45.40625 17.390625 45.40625 27.296875 
Q 45.40625 37.203125 41.296875 42.84375 
Q 37.203125 48.484375 30.078125 48.484375 
Q 22.953125 48.484375 18.875 42.84375 
Q 14.796875 37.203125 14.796875 27.296875 
z
" id="DejaVuSans-100"/>
     </defs>
     <g transform="translate(522.147656 532.276562)scale(0.1 -0.1)">
      <use xlink:href="#DejaVuSans-78"/>
      <use x="74.804688" xlink:href="#DejaVuSans-117"/>
      <use x="138.183594" xlink:href="#DejaVuSans-109"/>
      <use x="235.595703" xlink:href="#DejaVuSans-98"/>
      <use x="299.072266" xlink:href="#DejaVuSans-101"/>
      <use x="360.595703" xlink:href="#DejaVuSans-114"/>
      <use x="401.708984" xlink:href="#DejaVuSans-32"/>
      <use x="433.496094" xlink:href="#DejaVuSans-111"/>
      <use x="494.677734" xlink:href="#DejaVuSans-102"/>
      <use x="529.882812" xlink:href="#DejaVuSans-32"/>
      <use x="561.669922" xlink:href="#DejaVuSans-78"/>
      <use x="636.474609" xlink:href="#DejaVuSans-101"/>
      <use x="697.998047" xlink:href="#DejaVuSans-117"/>
      <use x="761.376953" xlink:href="#DejaVuSans-114"/>
      <use x="800.240234" xlink:href="#DejaVuSans-111"/>
      <use x="861.421875" xlink:href="#DejaVuSans-110"/>
      <use x="924.800781" xlink:href="#DejaVuSans-115"/>
      <use x="976.900391" xlink:href="#DejaVuSans-32"/>
      <use x="1008.6875" xlink:href="#DejaVuSans-112"/>
      <use x="1072.164062" xlink:href="#DejaVuSans-114"/>
      <use x="1113.277344" xlink:href="#DejaVuSans-117"/>
      <use x="1176.65625" xlink:href="#DejaVuSans-110"/>
      <use x="1240.035156" xlink:href="#DejaVuSans-101"/>
      <use x="1301.558594" xlink:href="#DejaVuSans-100"/>
     </g>
    </g>
   </g>
   <g id="matplotlib.axis_2">
    <g id="ytick_1">
     <g id="line2d_10">
      <defs>
       <path d="M 0 0 
L -3.5 0 
" id="m47976a273d" style="stroke:#000000;stroke-width:0.8;"/>
      </defs>
      <g>
       <use style="stroke:#000000;stroke-width:0.8;" x="144" xlink:href="#m47976a273d" y="435.032506"/>
      </g>
     </g>
     <g id="text_11">
      <!-- 0.75 -->
      <defs>
       <path d="M 10.6875 12.40625 
L 21 12.40625 
L 21 0 
L 10.6875 0 
z
" id="DejaVuSans-46"/>
       <path d="M 8.203125 72.90625 
L 55.078125 72.90625 
L 55.078125 68.703125 
L 28.609375 0 
L 18.3125 0 
L 43.21875 64.59375 
L 8.203125 64.59375 
z
" id="DejaVuSans-55"/>
      </defs>
      <g transform="translate(114.734375 438.831725)scale(0.1 -0.1)">
       <use xlink:href="#DejaVuSans-48"/>
       <use x="63.623047" xlink:href="#DejaVuSans-46"/>
       <use x="95.410156" xlink:href="#DejaVuSans-55"/>
       <use x="159.033203" xlink:href="#DejaVuSans-53"/>
      </g>
     </g>
    </g>
    <g id="ytick_2">
     <g id="line2d_11">
      <g>
       <use style="stroke:#000000;stroke-width:0.8;" x="144" xlink:href="#m47976a273d" y="364.342533"/>
      </g>
     </g>
     <g id="text_12">
      <!-- 0.80 -->
      <defs>
       <path d="M 31.78125 34.625 
Q 24.75 34.625 20.71875 30.859375 
Q 16.703125 27.09375 16.703125 20.515625 
Q 16.703125 13.921875 20.71875 10.15625 
Q 24.75 6.390625 31.78125 6.390625 
Q 38.8125 6.390625 42.859375 10.171875 
Q 46.921875 13.96875 46.921875 20.515625 
Q 46.921875 27.09375 42.890625 30.859375 
Q 38.875 34.625 31.78125 34.625 
z
M 21.921875 38.8125 
Q 15.578125 40.375 12.03125 44.71875 
Q 8.5 49.078125 8.5 55.328125 
Q 8.5 64.0625 14.71875 69.140625 
Q 20.953125 74.21875 31.78125 74.21875 
Q 42.671875 74.21875 48.875 69.140625 
Q 55.078125 64.0625 55.078125 55.328125 
Q 55.078125 49.078125 51.53125 44.71875 
Q 48 40.375 41.703125 38.8125 
Q 48.828125 37.15625 52.796875 32.3125 
Q 56.78125 27.484375 56.78125 20.515625 
Q 56.78125 9.90625 50.3125 4.234375 
Q 43.84375 -1.421875 31.78125 -1.421875 
Q 19.734375 -1.421875 13.25 4.234375 
Q 6.78125 9.90625 6.78125 20.515625 
Q 6.78125 27.484375 10.78125 32.3125 
Q 14.796875 37.15625 21.921875 38.8125 
z
M 18.3125 54.390625 
Q 18.3125 48.734375 21.84375 45.5625 
Q 25.390625 42.390625 31.78125 42.390625 
Q 38.140625 42.390625 41.71875 45.5625 
Q 45.3125 48.734375 45.3125 54.390625 
Q 45.3125 60.0625 41.71875 63.234375 
Q 38.140625 66.40625 31.78125 66.40625 
Q 25.390625 66.40625 21.84375 63.234375 
Q 18.3125 60.0625 18.3125 54.390625 
z
" id="DejaVuSans-56"/>
      </defs>
      <g transform="translate(114.734375 368.141752)scale(0.1 -0.1)">
       <use xlink:href="#DejaVuSans-48"/>
       <use x="63.623047" xlink:href="#DejaVuSans-46"/>
       <use x="95.410156" xlink:href="#DejaVuSans-56"/>
       <use x="159.033203" xlink:href="#DejaVuSans-48"/>
      </g>
     </g>
    </g>
    <g id="ytick_3">
     <g id="line2d_12">
      <g>
       <use style="stroke:#000000;stroke-width:0.8;" x="144" xlink:href="#m47976a273d" y="293.652561"/>
      </g>
     </g>
     <g id="text_13">
      <!-- 0.85 -->
      <g transform="translate(114.734375 297.451779)scale(0.1 -0.1)">
       <use xlink:href="#DejaVuSans-48"/>
       <use x="63.623047" xlink:href="#DejaVuSans-46"/>
       <use x="95.410156" xlink:href="#DejaVuSans-56"/>
       <use x="159.033203" xlink:href="#DejaVuSans-53"/>
      </g>
     </g>
    </g>
    <g id="ytick_4">
     <g id="line2d_13">
      <g>
       <use style="stroke:#000000;stroke-width:0.8;" x="144" xlink:href="#m47976a273d" y="222.962588"/>
      </g>
     </g>
     <g id="text_14">
      <!-- 0.90 -->
      <defs>
       <path d="M 10.984375 1.515625 
L 10.984375 10.5 
Q 14.703125 8.734375 18.5 7.8125 
Q 22.3125 6.890625 25.984375 6.890625 
Q 35.75 6.890625 40.890625 13.453125 
Q 46.046875 20.015625 46.78125 33.40625 
Q 43.953125 29.203125 39.59375 26.953125 
Q 35.25 24.703125 29.984375 24.703125 
Q 19.046875 24.703125 12.671875 31.3125 
Q 6.296875 37.9375 6.296875 49.421875 
Q 6.296875 60.640625 12.9375 67.421875 
Q 19.578125 74.21875 30.609375 74.21875 
Q 43.265625 74.21875 49.921875 64.515625 
Q 56.59375 54.828125 56.59375 36.375 
Q 56.59375 19.140625 48.40625 8.859375 
Q 40.234375 -1.421875 26.421875 -1.421875 
Q 22.703125 -1.421875 18.890625 -0.6875 
Q 15.09375 0.046875 10.984375 1.515625 
z
M 30.609375 32.421875 
Q 37.25 32.421875 41.125 36.953125 
Q 45.015625 41.5 45.015625 49.421875 
Q 45.015625 57.28125 41.125 61.84375 
Q 37.25 66.40625 30.609375 66.40625 
Q 23.96875 66.40625 20.09375 61.84375 
Q 16.21875 57.28125 16.21875 49.421875 
Q 16.21875 41.5 20.09375 36.953125 
Q 23.96875 32.421875 30.609375 32.421875 
z
" id="DejaVuSans-57"/>
      </defs>
      <g transform="translate(114.734375 226.761807)scale(0.1 -0.1)">
       <use xlink:href="#DejaVuSans-48"/>
       <use x="63.623047" xlink:href="#DejaVuSans-46"/>
       <use x="95.410156" xlink:href="#DejaVuSans-57"/>
       <use x="159.033203" xlink:href="#DejaVuSans-48"/>
      </g>
     </g>
    </g>
    <g id="ytick_5">
     <g id="line2d_14">
      <g>
       <use style="stroke:#000000;stroke-width:0.8;" x="144" xlink:href="#m47976a273d" y="152.272615"/>
      </g>
     </g>
     <g id="text_15">
      <!-- 0.95 -->
      <g transform="translate(114.734375 156.071834)scale(0.1 -0.1)">
       <use xlink:href="#DejaVuSans-48"/>
       <use x="63.623047" xlink:href="#DejaVuSans-46"/>
       <use x="95.410156" xlink:href="#DejaVuSans-57"/>
       <use x="159.033203" xlink:href="#DejaVuSans-53"/>
      </g>
     </g>
    </g>
    <g id="ytick_6">
     <g id="line2d_15">
      <g>
       <use style="stroke:#000000;stroke-width:0.8;" x="144" xlink:href="#m47976a273d" y="81.582642"/>
      </g>
     </g>
     <g id="text_16">
      <!-- 1.00 -->
      <g transform="translate(114.734375 85.381861)scale(0.1 -0.1)">
       <use xlink:href="#DejaVuSans-49"/>
       <use x="63.623047" xlink:href="#DejaVuSans-46"/>
       <use x="95.410156" xlink:href="#DejaVuSans-48"/>
       <use x="159.033203" xlink:href="#DejaVuSans-48"/>
      </g>
     </g>
    </g>
    <g id="text_17">
     <!-- Accuracy -->
     <defs>
      <path d="M 34.1875 63.1875 
L 20.796875 26.90625 
L 47.609375 26.90625 
z
M 28.609375 72.90625 
L 39.796875 72.90625 
L 67.578125 0 
L 57.328125 0 
L 50.6875 18.703125 
L 17.828125 18.703125 
L 11.1875 0 
L 0.78125 0 
z
" id="DejaVuSans-65"/>
      <path d="M 48.78125 52.59375 
L 48.78125 44.1875 
Q 44.96875 46.296875 41.140625 47.34375 
Q 37.3125 48.390625 33.40625 48.390625 
Q 24.65625 48.390625 19.8125 42.84375 
Q 14.984375 37.3125 14.984375 27.296875 
Q 14.984375 17.28125 19.8125 11.734375 
Q 24.65625 6.203125 33.40625 6.203125 
Q 37.3125 6.203125 41.140625 7.25 
Q 44.96875 8.296875 48.78125 10.40625 
L 48.78125 2.09375 
Q 45.015625 0.34375 40.984375 -0.53125 
Q 36.96875 -1.421875 32.421875 -1.421875 
Q 20.0625 -1.421875 12.78125 6.34375 
Q 5.515625 14.109375 5.515625 27.296875 
Q 5.515625 40.671875 12.859375 48.328125 
Q 20.21875 56 33.015625 56 
Q 37.15625 56 41.109375 55.140625 
Q 45.0625 54.296875 48.78125 52.59375 
z
" id="DejaVuSans-99"/>
      <path d="M 34.28125 27.484375 
Q 23.390625 27.484375 19.1875 25 
Q 14.984375 22.515625 14.984375 16.5 
Q 14.984375 11.71875 18.140625 8.90625 
Q 21.296875 6.109375 26.703125 6.109375 
Q 34.1875 6.109375 38.703125 11.40625 
Q 43.21875 16.703125 43.21875 25.484375 
L 43.21875 27.484375 
z
M 52.203125 31.203125 
L 52.203125 0 
L 43.21875 0 
L 43.21875 8.296875 
Q 40.140625 3.328125 35.546875 0.953125 
Q 30.953125 -1.421875 24.3125 -1.421875 
Q 15.921875 -1.421875 10.953125 3.296875 
Q 6 8.015625 6 15.921875 
Q 6 25.140625 12.171875 29.828125 
Q 18.359375 34.515625 30.609375 34.515625 
L 43.21875 34.515625 
L 43.21875 35.40625 
Q 43.21875 41.609375 39.140625 45 
Q 35.0625 48.390625 27.6875 48.390625 
Q 23 48.390625 18.546875 47.265625 
Q 14.109375 46.140625 10.015625 43.890625 
L 10.015625 52.203125 
Q 14.9375 54.109375 19.578125 55.046875 
Q 24.21875 56 28.609375 56 
Q 40.484375 56 46.34375 49.84375 
Q 52.203125 43.703125 52.203125 31.203125 
z
" id="DejaVuSans-97"/>
      <path d="M 32.171875 -5.078125 
Q 28.375 -14.84375 24.75 -17.8125 
Q 21.140625 -20.796875 15.09375 -20.796875 
L 7.90625 -20.796875 
L 7.90625 -13.28125 
L 13.1875 -13.28125 
Q 16.890625 -13.28125 18.9375 -11.515625 
Q 21 -9.765625 23.484375 -3.21875 
L 25.09375 0.875 
L 2.984375 54.6875 
L 12.5 54.6875 
L 29.59375 11.921875 
L 46.6875 54.6875 
L 56.203125 54.6875 
z
" id="DejaVuSans-121"/>
     </defs>
     <g transform="translate(108.654687 309.388125)rotate(-90)scale(0.1 -0.1)">
      <use xlink:href="#DejaVuSans-65"/>
      <use x="66.658203" xlink:href="#DejaVuSans-99"/>
      <use x="121.638672" xlink:href="#DejaVuSans-99"/>
      <use x="176.619141" xlink:href="#DejaVuSans-117"/>
      <use x="239.998047" xlink:href="#DejaVuSans-114"/>
      <use x="281.111328" xlink:href="#DejaVuSans-97"/>
      <use x="342.390625" xlink:href="#DejaVuSans-99"/>
      <use x="397.371094" xlink:href="#DejaVuSans-121"/>
     </g>
    </g>
   </g>
   <g id="line2d_16">
    <path clip-path="url(#pe5f49e7d24)" d="M 184.581818 89.122906 
L 430.717157 89.122906 
L 434.785509 89.476356 
L 442.922215 89.358539 
L 446.990567 89.594172 
L 451.05892 89.523482 
L 453.093096 90.725212 
L 457.161449 90.772339 
L 471.400684 90.843029 
L 473.43486 92.091885 
L 475.469036 92.280391 
L 483.605742 92.421771 
L 485.639918 92.704531 
L 489.708271 92.633841 
L 491.742447 92.492461 
L 493.776623 92.822348 
L 497.844976 92.916601 
L 499.879152 93.812007 
L 501.913329 93.552811 
L 505.981681 93.647064 
L 508.015858 94.118331 
L 510.050034 94.707414 
L 512.084211 95.649947 
L 516.152563 95.508567 
L 518.18674 94.660287 
L 520.220916 94.707414 
L 522.255092 94.990174 
L 528.357621 95.0373 
L 530.391798 95.437877 
L 536.494327 95.060864 
L 538.528503 95.437877 
L 540.562679 95.626383 
L 544.631032 95.838453 
L 546.665208 95.720637 
L 548.699385 96.498226 
L 552.767738 96.757423 
L 554.801914 96.215467 
L 556.83609 96.191903 
L 558.870267 95.95627 
L 560.904443 96.30972 
L 562.938619 96.30972 
L 569.041148 97.063746 
L 573.109501 97.134436 
L 581.246206 97.605703 
L 583.280383 100.244795 
L 585.314559 100.810315 
L 587.348735 105.687923 
L 589.382912 106.394823 
L 591.417088 106.795399 
L 593.451265 106.771836 
L 595.485441 107.997129 
L 597.519617 109.458055 
L 599.553794 112.82761 
L 601.58797 111.036798 
L 603.622146 110.801164 
L 605.656323 109.340238 
L 609.724675 109.575871 
L 611.758852 111.578754 
L 613.793028 113.275313 
L 615.827204 114.217846 
L 617.861381 114.24141 
L 619.895557 115.419576 
L 621.929733 116.055786 
L 623.96391 116.856939 
L 625.998086 116.362109 
L 628.032262 117.281078 
L 630.066439 117.398895 
L 632.100615 122.135123 
L 634.134792 125.928818 
L 636.168968 124.774216 
L 638.203144 124.892032 
L 640.237321 125.151229 
L 642.271497 126.235142 
L 644.305673 126.188015 
L 646.33985 126.305832 
L 648.374026 126.565028 
L 650.408202 126.588592 
L 652.442379 128.025954 
L 654.476555 132.078846 
L 656.510731 137.616227 
L 658.544908 134.105292 
L 660.579084 134.199545 
L 662.61326 136.697258 
L 664.647437 139.642673 
L 666.681613 140.019686 
L 668.715789 139.90187 
L 670.749966 139.948996 
L 672.784142 146.193277 
L 674.818319 146.523164 
L 676.852495 143.483495 
L 678.886671 145.533504 
L 680.920848 149.18582 
L 682.955024 149.209383 
L 684.9892 149.916283 
L 687.023377 151.872038 
L 689.057553 151.848475 
L 691.091729 152.107672 
L 693.125906 150.740999 
L 695.160082 151.754222 
L 697.194258 151.966292 
L 699.228435 152.602502 
L 701.262611 153.356528 
L 703.296787 150.363986 
L 705.330964 150.693872 
L 707.36514 149.515706 
L 709.399316 149.327199 
L 711.433493 153.238711 
L 713.467669 153.427218 
L 715.501846 152.885261 
L 719.570198 154.699637 
L 721.604375 153.545035 
L 723.638551 155.901367 
L 725.672727 157.26804 
L 727.706904 161.226678 
L 729.74108 161.344495 
L 731.775256 161.155988 
L 733.809433 161.910015 
L 735.843609 162.357718 
L 737.877785 164.878993 
L 739.911962 164.14853 
L 741.946138 170.086488 
L 746.014491 175.623869 
L 748.048667 175.317546 
L 752.11702 179.276185 
L 754.151196 179.912394 
L 756.185373 177.273302 
L 758.219549 180.501477 
L 760.253725 181.302631 
L 762.287902 181.72677 
L 764.322078 183.729653 
L 766.356254 188.277374 
L 768.390431 189.172781 
L 770.424607 193.885446 
L 772.458783 194.121079 
L 774.49296 193.508432 
L 776.527136 190.138877 
L 778.561312 188.866458 
L 780.595489 191.764746 
L 782.629665 193.602686 
L 784.663841 194.380275 
L 786.698018 195.746948 
L 788.732194 198.998687 
L 790.76637 197.632014 
L 792.800547 198.338914 
L 794.834723 196.430285 
L 796.8689 196.171088 
L 798.903076 193.814756 
L 800.937252 198.056154 
L 802.971429 197.796957 
L 805.005605 199.776277 
L 807.039781 195.464188 
L 809.073958 194.969359 
L 811.108134 195.959018 
L 813.14231 203.593535 
L 815.176487 202.627439 
L 817.210663 205.949868 
L 819.244839 205.949868 
L 821.279016 204.465378 
L 823.313192 206.091248 
L 825.347368 206.044121 
L 827.381545 210.144139 
L 829.415721 209.814253 
L 831.449897 208.683213 
L 833.484074 206.821711 
L 835.51825 204.583195 
L 837.552427 205.572854 
L 839.586603 205.572854 
L 841.620779 207.74068 
L 843.654956 207.787807 
L 845.689132 209.390113 
L 847.723308 207.198724 
L 851.791661 209.130916 
L 853.825837 206.798147 
L 855.860014 206.444697 
L 857.89419 207.622864 
L 859.928366 214.220595 
L 861.962543 217.849346 
L 863.996719 216.81256 
L 866.030895 225.578117 
L 868.065072 228.028703 
L 870.099248 229.678135 
L 872.133424 228.311462 
L 874.167601 234.17873 
L 876.201777 237.359779 
L 878.235954 239.527605 
L 880.27013 242.096007 
L 882.304306 240.163815 
L 884.338483 239.127028 
L 886.372659 243.46268 
L 888.406835 246.525912 
L 890.441012 251.05007 
L 892.475188 257.553548 
L 894.509364 254.702386 
L 896.543541 252.60525 
L 898.577717 251.356394 
L 900.611893 252.864446 
L 902.64607 249.518454 
L 904.680246 249.542018 
L 906.714422 254.655259 
L 908.748599 258.166194 
L 910.782775 257.200098 
L 912.816951 255.291469 
L 914.851128 254.089739 
L 916.885304 252.581686 
L 918.919481 255.032272 
L 920.953657 253.830543 
L 922.987833 253.948359 
L 925.02201 256.375382 
L 927.056186 257.388605 
L 929.090362 256.775958 
L 931.124539 258.236884 
L 933.158715 257.011591 
L 935.192891 254.584569 
L 937.227068 251.47421 
L 939.261244 247.939712 
L 941.29542 251.780533 
L 943.329597 249.518454 
L 945.363773 258.425391 
L 947.397949 271.408782 
L 949.432126 271.126023 
L 951.466302 277.582373 
L 953.500478 285.92379 
L 955.534655 284.132978 
L 957.568831 287.667476 
L 959.603008 285.381834 
L 961.637184 283.897344 
L 963.67136 292.356578 
L 965.705537 293.087041 
L 967.739713 298.153156 
L 971.808066 295.726133 
L 973.842242 293.676124 
L 975.876418 308.285385 
L 979.944771 305.787673 
L 981.978947 311.914137 
L 984.013124 313.233683 
L 986.0473 323.790052 
L 988.081476 319.006698 
L 990.115653 319.360147 
L 992.149829 319.148077 
L 994.184005 317.239448 
L 996.218182 320.632567 
L 996.218182 320.632567 
" style="fill:none;stroke:#1f77b4;stroke-linecap:square;stroke-width:1.5;"/>
   </g>
   <g id="line2d_17">
    <path clip-path="url(#pe5f49e7d24)" d="M 184.581818 89.122906 
L 465.298154 89.075779 
L 469.366507 89.005089 
L 475.469036 89.052216 
L 489.708271 89.146469 
L 493.776623 89.099343 
L 497.844976 89.217159 
L 501.913329 89.311413 
L 503.947505 89.499919 
L 508.015858 89.429229 
L 510.050034 89.759116 
L 512.084211 89.759116 
L 514.118387 90.112566 
L 522.255092 90.253946 
L 526.323445 90.395325 
L 528.357621 90.418889 
L 530.391798 90.324636 
L 532.425974 90.395325 
L 534.46015 90.324636 
L 540.562679 90.819465 
L 542.596856 90.890155 
L 544.631032 90.701649 
L 550.733561 90.960845 
L 552.767738 90.890155 
L 554.801914 91.314295 
L 558.870267 91.549928 
L 560.904443 91.314295 
L 564.972796 91.667745 
L 567.006972 92.068322 
L 569.041148 91.903378 
L 573.109501 92.115448 
L 575.143677 92.421771 
L 579.21203 92.280391 
L 581.246206 92.303955 
L 583.280383 92.704531 
L 585.314559 92.845911 
L 587.348735 93.199361 
L 589.382912 93.859134 
L 591.417088 93.741318 
L 593.451265 94.495344 
L 599.553794 94.518907 
L 605.656323 95.10799 
L 607.690499 95.155117 
L 609.724675 96.050523 
L 613.793028 96.922366 
L 619.895557 97.535013 
L 623.96391 98.807432 
L 625.998086 98.736742 
L 628.032262 98.972376 
L 630.066439 99.066629 
L 632.100615 99.679275 
L 634.134792 99.844219 
L 636.168968 100.951695 
L 638.203144 101.305145 
L 640.237321 101.446525 
L 644.305673 101.163765 
L 646.33985 101.988481 
L 650.408202 102.271241 
L 652.442379 103.190211 
L 654.476555 103.260901 
L 656.510731 103.001704 
L 660.579084 103.378717 
L 662.61326 103.520097 
L 664.647437 104.10918 
L 666.681613 104.46263 
L 668.715789 104.509757 
L 670.749966 104.863207 
L 672.784142 104.768953 
L 674.818319 105.216656 
L 676.852495 105.80574 
L 678.886671 107.078159 
L 680.920848 107.195976 
L 684.9892 108.704028 
L 687.023377 109.528745 
L 689.057553 110.494841 
L 691.091729 111.154614 
L 693.125906 110.683348 
L 695.160082 110.377024 
L 697.194258 111.248867 
L 699.228435 111.814387 
L 701.262611 111.366684 
L 703.296787 111.225304 
L 705.330964 111.814387 
L 707.36514 113.157497 
L 709.399316 114.02934 
L 711.433493 113.911523 
L 713.467669 114.17072 
L 715.501846 114.830493 
L 717.536022 115.325323 
L 719.570198 115.537392 
L 723.638551 117.587402 
L 725.672727 118.223611 
L 727.706904 118.129358 
L 729.74108 119.189708 
L 731.775256 118.364991 
L 735.843609 121.54604 
L 737.877785 121.923053 
L 739.911962 122.842023 
L 741.946138 123.10122 
L 743.980314 122.771333 
L 746.014491 123.548923 
L 748.048667 123.431106 
L 750.082843 123.643176 
L 752.11702 122.700643 
L 754.151196 124.350076 
L 756.185373 123.407543 
L 758.219549 121.8288 
L 760.253725 122.300067 
L 762.287902 122.370757 
L 764.322078 122.32363 
L 766.356254 123.03053 
L 768.390431 123.360416 
L 770.424607 123.973063 
L 772.458783 125.811002 
L 774.49296 125.975945 
L 776.527136 126.541465 
L 778.561312 127.295491 
L 782.629665 127.601814 
L 784.663841 126.282268 
L 786.698018 125.811002 
L 788.732194 127.978828 
L 790.76637 129.204121 
L 792.800547 131.136313 
L 794.834723 131.04206 
L 796.8689 130.170217 
L 798.903076 129.816767 
L 800.937252 129.227684 
L 802.971429 130.68861 
L 805.005605 130.90068 
L 807.039781 131.81965 
L 809.073958 133.351266 
L 811.108134 134.058165 
L 813.14231 133.704715 
L 815.176487 133.916785 
L 817.210663 133.751842 
L 819.244839 134.812192 
L 821.279016 133.798969 
L 823.313192 135.801851 
L 825.347368 135.589781 
L 827.381545 135.990358 
L 829.415721 137.309904 
L 831.449897 137.545537 
L 833.484074 138.370254 
L 835.51825 138.393817 
L 837.552427 139.925433 
L 839.586603 141.150726 
L 841.620779 142.163949 
L 843.654956 144.496718 
L 845.689132 144.119705 
L 847.723308 142.800159 
L 849.757485 145.227181 
L 851.791661 146.193277 
L 855.860014 146.028334 
L 857.89419 146.947304 
L 859.928366 146.85305 
L 861.962543 148.855933 
L 863.996719 149.397889 
L 868.065072 151.118012 
L 870.099248 153.804231 
L 872.133424 155.170904 
L 874.167601 154.793891 
L 876.201777 158.257699 
L 878.235954 157.90425 
L 880.27013 158.611149 
L 882.304306 157.173786 
L 884.338483 158.187009 
L 886.372659 160.543342 
L 888.406835 161.721508 
L 890.441012 167.070383 
L 892.475188 171.523851 
L 894.509364 172.79627 
L 896.543541 172.419257 
L 898.577717 169.638785 
L 900.611893 169.426715 
L 902.64607 171.335344 
L 904.680246 172.772707 
L 906.714422 171.429598 
L 908.748599 171.311781 
L 910.782775 175.317546 
L 912.816951 177.650315 
L 914.851128 178.357215 
L 916.885304 181.208377 
L 918.919481 182.268727 
L 920.953657 184.648623 
L 922.987833 187.664728 
L 925.02201 190.186004 
L 927.056186 188.018178 
L 929.090362 192.660153 
L 931.124539 195.299245 
L 933.158715 193.296363 
L 935.192891 194.262459 
L 937.227068 191.458423 
L 939.261244 197.396381 
L 941.29542 199.3757 
L 943.329597 198.433167 
L 945.363773 203.169395 
L 947.397949 203.782042 
L 949.432126 202.792382 
L 951.466302 204.677448 
L 953.500478 205.384348 
L 955.534655 204.206182 
L 957.568831 206.114811 
L 959.603008 207.198724 
L 961.637184 213.183808 
L 963.67136 220.794762 
L 965.705537 226.30858 
L 967.739713 228.499969 
L 969.773889 229.819515 
L 971.808066 229.678135 
L 973.842242 230.526415 
L 975.876418 230.337908 
L 977.910595 234.3908 
L 979.944771 234.555743 
L 981.978947 233.61321 
L 984.013124 233.306887 
L 986.0473 233.778154 
L 988.081476 237.194836 
L 990.115653 239.433351 
L 992.149829 238.325875 
L 994.184005 245.324183 
L 996.218182 245.017859 
L 996.218182 245.017859 
" style="fill:none;stroke:#ff7f0e;stroke-linecap:square;stroke-width:1.5;"/>
   </g>
   <g id="line2d_18">
    <path clip-path="url(#pe5f49e7d24)" d="M 184.581818 89.122906 
L 453.093096 89.028653 
L 457.161449 89.028653 
L 461.229802 89.052216 
L 469.366507 88.957963 
L 471.400684 88.887273 
L 479.537389 89.264286 
L 483.605742 89.382103 
L 485.639918 89.170033 
L 493.776623 89.028653 
L 495.8108 89.217159 
L 505.981681 89.287849 
L 508.015858 89.240723 
L 516.152563 89.452793 
L 524.289269 89.334976 
L 526.323445 89.358539 
L 528.357621 89.688426 
L 532.425974 89.994749 
L 534.46015 89.947622 
L 538.528503 90.301072 
L 540.562679 90.206819 
L 542.596856 90.466015 
L 548.699385 90.913719 
L 550.733561 91.055099 
L 552.767738 91.337858 
L 558.870267 91.597055 
L 560.904443 91.408548 
L 562.938619 91.714872 
L 564.972796 91.809125 
L 567.006972 92.162575 
L 571.075325 92.139011 
L 575.143677 92.398208 
L 577.177854 92.657405 
L 579.21203 93.128671 
L 581.246206 93.387868 
L 583.280383 93.128671 
L 585.314559 92.987291 
L 591.417088 93.246488 
L 593.451265 93.387868 
L 595.485441 93.694191 
L 599.553794 93.552811 
L 601.58797 93.552811 
L 603.622146 94.306837 
L 605.656323 94.283274 
L 607.690499 94.424654 
L 609.724675 94.165457 
L 611.758852 94.283274 
L 613.793028 94.259711 
L 615.827204 94.68385 
L 617.861381 94.495344 
L 619.895557 94.542471 
L 623.96391 94.990174 
L 625.998086 94.848794 
L 638.203144 94.96661 
L 640.237321 95.155117 
L 642.271497 95.508567 
L 644.305673 95.508567 
L 648.374026 95.791327 
L 650.408202 96.474663 
L 652.442379 96.4511 
L 654.476555 96.686733 
L 658.544908 96.922366 
L 660.579084 97.205126 
L 662.61326 97.346506 
L 664.647437 96.922366 
L 670.749966 98.642489 
L 672.784142 98.854559 
L 674.818319 99.396515 
L 676.852495 100.598245 
L 678.886671 100.174105 
L 680.920848 100.503992 
L 682.955024 100.456865 
L 684.9892 100.174105 
L 687.023377 100.904568 
L 691.091729 101.163765 
L 693.125906 101.894228 
L 695.160082 101.564341 
L 697.194258 101.752848 
L 699.228435 101.470088 
L 701.262611 101.635031 
L 703.296787 102.695381 
L 705.330964 103.61435 
L 707.36514 104.698263 
L 709.399316 104.81608 
L 711.433493 105.287346 
L 713.467669 105.405163 
L 715.501846 105.87643 
L 721.604375 106.818962 
L 723.638551 106.630456 
L 725.672727 107.926439 
L 727.706904 107.761495 
L 729.74108 108.798282 
L 731.775256 108.916098 
L 733.809433 108.303452 
L 735.843609 109.057478 
L 737.877785 109.010352 
L 739.911962 110.000011 
L 741.946138 111.602317 
L 746.014491 112.167837 
L 750.082843 112.379907 
L 752.11702 113.204623 
L 754.151196 113.133933 
L 756.185373 113.723017 
L 760.253725 113.53451 
L 762.287902 114.005776 
L 766.356254 114.500606 
L 768.390431 115.678772 
L 770.424607 116.668432 
L 772.458783 118.082231 
L 774.49296 118.412118 
L 780.595489 119.024764 
L 782.629665 118.506371 
L 784.663841 120.179367 
L 788.732194 120.462127 
L 792.800547 121.993743 
L 794.834723 123.572486 
L 796.8689 123.454669 
L 798.903076 124.373639 
L 800.937252 124.373639 
L 802.971429 126.070198 
L 805.005605 124.397202 
L 807.039781 124.067316 
L 809.073958 124.467892 
L 811.108134 124.397202 
L 813.14231 125.104102 
L 815.176487 125.009849 
L 817.210663 124.750652 
L 819.244839 124.373639 
L 821.279016 124.844906 
L 823.313192 124.750652 
L 825.347368 125.104102 
L 827.381545 126.329395 
L 829.415721 128.426531 
L 831.449897 129.369064 
L 833.484074 130.68861 
L 835.51825 132.338043 
L 837.552427 132.974252 
L 839.586603 133.916785 
L 841.620779 134.317362 
L 843.654956 135.165642 
L 845.689132 138.440944 
L 847.723308 138.48807 
L 849.757485 140.655896 
L 851.791661 139.76049 
L 853.825837 139.030027 
L 855.860014 141.339233 
L 857.89419 141.362796 
L 859.928366 141.244979 
L 861.962543 138.935773 
L 863.996719 139.948996 
L 868.065072 141.669119 
L 870.099248 142.069696 
L 872.133424 143.342115 
L 874.167601 143.106482 
L 876.201777 143.059355 
L 878.235954 141.975442 
L 880.27013 143.200735 
L 882.304306 142.069696 
L 886.372659 145.368561 
L 888.406835 146.358221 
L 890.441012 146.122587 
L 892.475188 149.468579 
L 894.509364 150.363986 
L 896.543541 150.552492 
L 898.577717 150.905942 
L 900.611893 151.471462 
L 902.64607 151.282955 
L 904.680246 153.191585 
L 906.714422 156.63183 
L 908.748599 155.78355 
L 910.782775 159.482992 
L 912.816951 164.242784 
L 914.851128 163.394504 
L 916.885304 165.585893 
L 918.919481 164.57267 
L 920.953657 163.276687 
L 922.987833 164.313474 
L 927.056186 168.224986 
L 929.090362 170.581318 
L 931.124539 169.685912 
L 935.192891 172.93765 
L 937.227068 176.448586 
L 939.261244 178.922735 
L 941.29542 179.252621 
L 943.329597 177.202612 
L 945.363773 183.470456 
L 947.397949 188.984274 
L 949.432126 190.94003 
L 951.466302 193.131419 
L 953.500478 193.838319 
L 955.534655 193.178546 
L 957.568831 194.969359 
L 959.603008 195.817638 
L 961.637184 192.895786 
L 963.67136 199.16363 
L 965.705537 200.883753 
L 967.739713 204.323998 
L 969.773889 213.089555 
L 971.808066 219.074639 
L 973.842242 220.323495 
L 975.876418 220.158552 
L 977.910595 223.292474 
L 979.944771 222.444195 
L 981.978947 233.165507 
L 984.013124 226.426396 
L 986.0473 227.392493 
L 988.081476 227.15686 
L 990.115653 228.735602 
L 992.149829 231.610328 
L 994.184005 235.87529 
L 996.218182 234.67356 
L 996.218182 234.67356 
" style="fill:none;stroke:#2ca02c;stroke-linecap:square;stroke-width:1.5;"/>
   </g>
   <g id="line2d_19">
    <path clip-path="url(#pe5f49e7d24)" d="M 184.581818 89.122906 
L 465.298154 89.075779 
L 471.400684 88.934399 
L 473.43486 89.005089 
L 475.469036 88.910836 
L 483.605742 89.099343 
L 491.742447 89.099343 
L 495.8108 89.146469 
L 505.981681 89.476356 
L 508.015858 89.806242 
L 520.220916 90.183256 
L 524.289269 90.371762 
L 532.425974 90.466015 
L 534.46015 90.701649 
L 536.494327 90.772339 
L 540.562679 90.466015 
L 544.631032 90.890155 
L 550.733561 90.937282 
L 552.767738 90.843029 
L 554.801914 90.960845 
L 556.83609 90.913719 
L 558.870267 91.220042 
L 571.075325 91.856252 
L 573.109501 92.186138 
L 577.177854 92.115448 
L 579.21203 92.351081 
L 581.246206 92.351081 
L 583.280383 92.633841 
L 585.314559 93.105108 
L 587.348735 93.411431 
L 589.382912 93.364304 
L 591.417088 93.529248 
L 593.451265 94.212584 
L 595.485441 94.471781 
L 599.553794 94.730977 
L 601.58797 94.566034 
L 603.622146 94.801667 
L 605.656323 94.872357 
L 611.758852 95.791327 
L 613.793028 96.922366 
L 615.827204 97.322943 
L 617.861381 97.487886 
L 619.895557 98.171222 
L 623.96391 98.666052 
L 625.998086 98.548236 
L 628.032262 99.019502 
L 630.066439 99.184445 
L 632.100615 99.585022 
L 634.134792 100.197668 
L 636.168968 100.032725 
L 638.203144 100.386175 
L 642.271497 100.763188 
L 644.305673 100.409738 
L 646.33985 101.564341 
L 648.374026 102.012044 
L 650.408202 102.883887 
L 652.442379 103.119521 
L 656.510731 102.836761 
L 658.544908 102.860324 
L 660.579084 103.166647 
L 662.61326 103.143084 
L 666.681613 104.863207 
L 668.715789 104.698263 
L 672.784142 104.910333 
L 674.818319 105.216656 
L 676.852495 106.441949 
L 678.886671 106.559766 
L 680.920848 106.159189 
L 684.9892 107.384482 
L 687.023377 108.656902 
L 689.057553 109.481618 
L 691.091729 109.458055 
L 693.125906 108.892535 
L 695.160082 109.410928 
L 699.228435 110.871854 
L 703.296787 112.75692 
L 705.330964 112.591977 
L 707.36514 113.25175 
L 709.399316 113.793706 
L 711.433493 113.298877 
L 713.467669 113.74658 
L 715.501846 114.406353 
L 719.570198 116.338545 
L 721.604375 116.220729 
L 723.638551 116.267856 
L 725.672727 117.375332 
L 727.706904 118.035105 
L 729.74108 117.893725 
L 731.775256 118.200048 
L 733.809433 118.789131 
L 735.843609 120.085114 
L 737.877785 119.802354 
L 739.911962 120.250057 
L 741.946138 119.590284 
L 743.980314 118.600625 
L 748.048667 120.650634 
L 750.082843 122.60639 
L 752.11702 123.077656 
L 754.151196 123.195473 
L 756.185373 123.643176 
L 758.219549 125.221919 
L 760.253725 123.949499 
L 762.287902 123.949499 
L 764.322078 122.95984 
L 766.356254 125.009849 
L 770.424607 125.127665 
L 772.458783 125.669622 
L 774.49296 125.740312 
L 776.527136 125.928818 
L 778.561312 125.269045 
L 780.595489 125.693185 
L 782.629665 127.483998 
L 784.663841 127.766758 
L 786.698018 129.204121 
L 788.732194 129.156994 
L 792.800547 128.426531 
L 794.834723 127.931701 
L 796.8689 130.005274 
L 798.903076 130.806427 
L 800.937252 130.382287 
L 802.971429 130.570793 
L 805.005605 129.863894 
L 807.039781 130.97137 
L 809.073958 132.314479 
L 811.108134 132.173099 
L 813.14231 134.058165 
L 815.176487 135.236332 
L 817.210663 136.650131 
L 819.244839 135.896105 
L 821.279016 136.438061 
L 825.347368 136.555878 
L 827.381545 137.027144 
L 829.415721 138.888647 
L 831.449897 138.13462 
L 833.484074 139.61911 
L 835.51825 140.04325 
L 837.552427 141.881189 
L 839.586603 141.574866 
L 841.620779 142.517399 
L 843.654956 144.402465 
L 845.689132 144.520281 
L 849.757485 145.792701 
L 851.791661 146.735234 
L 853.825837 147.889837 
L 855.860014 147.300754 
L 857.89419 147.677767 
L 859.928366 150.670309 
L 861.962543 150.293296 
L 863.996719 151.259392 
L 866.030895 151.612842 
L 868.065072 152.154798 
L 870.099248 151.235829 
L 872.133424 152.272615 
L 876.201777 158.163446 
L 878.235954 158.422643 
L 880.27013 159.459429 
L 882.304306 165.161753 
L 886.372659 161.674381 
L 888.406835 162.664041 
L 890.441012 164.030714 
L 892.475188 168.484182 
L 894.509364 174.35145 
L 896.543541 172.584201 
L 898.577717 173.479607 
L 900.611893 176.283642 
L 902.64607 174.84628 
L 904.680246 172.277877 
L 906.714422 173.85662 
L 908.748599 178.710665 
L 910.782775 178.357215 
L 912.816951 179.488255 
L 914.851128 180.030211 
L 918.919481 184.837129 
L 920.953657 187.499785 
L 922.987833 191.976816 
L 925.02201 191.175663 
L 927.056186 191.034283 
L 929.090362 194.003262 
L 931.124539 197.985464 
L 933.158715 195.417062 
L 935.192891 197.679141 
L 937.227068 197.655578 
L 939.261244 203.240085 
L 941.29542 203.664225 
L 943.329597 204.748138 
L 945.363773 206.421134 
L 947.397949 207.363667 
L 949.432126 210.026323 
L 951.466302 211.157362 
L 953.500478 213.325188 
L 955.534655 213.702201 
L 957.568831 212.099895 
L 959.603008 212.099895 
L 961.637184 213.796455 
L 963.67136 216.24704 
L 965.705537 223.316038 
L 967.739713 224.352824 
L 969.773889 223.528108 
L 973.842242 237.124146 
L 975.876418 238.702888 
L 977.910595 240.540828 
L 979.944771 240.658644 
L 981.978947 244.593719 
L 984.013124 245.701196 
L 986.0473 246.573039 
L 988.081476 251.804097 
L 990.115653 248.740865 
L 992.149829 247.869022 
L 994.184005 251.851223 
L 996.218182 254.749512 
L 996.218182 254.749512 
" style="fill:none;stroke:#d62728;stroke-dasharray:5.55,2.4;stroke-dashoffset:0;stroke-width:1.5;"/>
   </g>
   <g id="line2d_20">
    <path clip-path="url(#pe5f49e7d24)" d="M 184.581818 89.122906 
L 449.024744 89.028653 
L 453.093096 89.028653 
L 461.229802 89.122906 
L 465.298154 88.981526 
L 469.366507 89.075779 
L 479.537389 89.028653 
L 483.605742 89.099343 
L 493.776623 89.170033 
L 503.947505 89.358539 
L 512.084211 89.264286 
L 514.118387 89.358539 
L 518.18674 89.405666 
L 520.220916 89.617736 
L 522.255092 89.617736 
L 524.289269 89.759116 
L 526.323445 89.664862 
L 528.357621 89.735552 
L 534.46015 90.418889 
L 538.528503 90.230382 
L 540.562679 90.442452 
L 542.596856 90.324636 
L 544.631032 90.536705 
L 546.665208 90.536705 
L 554.801914 91.055099 
L 558.870267 91.644182 
L 560.904443 91.573492 
L 564.972796 91.997632 
L 569.041148 91.950505 
L 571.075325 92.233265 
L 575.143677 92.563151 
L 577.177854 93.034418 
L 581.246206 93.010854 
L 583.280383 92.728095 
L 585.314559 92.728095 
L 587.348735 92.940165 
L 589.382912 93.293614 
L 591.417088 93.081544 
L 595.485441 93.246488 
L 597.519617 93.222924 
L 599.553794 93.034418 
L 601.58797 93.364304 
L 603.622146 93.976951 
L 605.656323 93.859134 
L 607.690499 93.976951 
L 609.724675 93.694191 
L 611.758852 93.929824 
L 617.861381 93.882697 
L 619.895557 94.283274 
L 621.929733 94.024077 
L 630.066439 94.636724 
L 632.100615 94.613161 
L 634.134792 94.82523 
L 640.237321 94.919484 
L 642.271497 95.24937 
L 646.33985 95.437877 
L 648.374026 95.579257 
L 656.510731 97.370069 
L 658.544908 97.299379 
L 660.579084 97.535013 
L 662.61326 97.511449 
L 664.647437 97.888463 
L 666.681613 97.535013 
L 668.715789 97.417196 
L 670.749966 97.629266 
L 672.784142 97.487886 
L 674.818319 97.652829 
L 676.852495 98.289039 
L 678.886671 98.453982 
L 680.920848 98.453982 
L 682.955024 98.948812 
L 684.9892 99.325825 
L 687.023377 99.372952 
L 689.057553 100.150542 
L 691.091729 100.668935 
L 693.125906 100.409738 
L 695.160082 101.564341 
L 697.194258 102.483311 
L 699.228435 102.860324 
L 701.262611 102.530437 
L 703.296787 103.944237 
L 705.330964 103.802857 
L 707.36514 104.981023 
L 709.399316 105.59367 
L 711.433493 106.394823 
L 713.467669 107.902875 
L 715.501846 107.337356 
L 719.570198 107.950002 
L 721.604375 107.832185 
L 723.638551 108.114945 
L 727.706904 107.690805 
L 729.74108 108.044255 
L 731.775256 107.950002 
L 733.809433 108.468395 
L 735.843609 107.384482 
L 737.877785 108.939662 
L 739.911962 109.198858 
L 741.946138 109.787941 
L 743.980314 109.764378 
L 746.014491 110.683348 
L 748.048667 111.979331 
L 750.082843 112.002894 
L 752.11702 112.497724 
L 754.151196 112.285654 
L 756.185373 113.6052 
L 760.253725 113.53451 
L 762.287902 113.982213 
L 764.322078 113.81727 
L 766.356254 114.618423 
L 768.390431 114.971873 
L 772.458783 114.689113 
L 774.49296 115.985096 
L 776.527136 116.479925 
L 778.561312 116.644869 
L 780.595489 116.267856 
L 782.629665 116.550615 
L 784.663841 117.610965 
L 786.698018 118.176485 
L 788.732194 116.904065 
L 792.800547 119.472468 
L 794.834723 118.435681 
L 796.8689 120.202931 
L 798.903076 120.179367 
L 800.937252 120.532817 
L 802.971429 120.485691 
L 805.005605 120.085114 
L 807.039781 120.98052 
L 809.073958 121.451787 
L 811.108134 123.006966 
L 815.176487 124.703526 
L 817.210663 126.989168 
L 821.279016 127.366181 
L 823.313192 128.968487 
L 825.347368 130.40585 
L 827.381545 130.90068 
L 829.415721 131.772523 
L 831.449897 133.068506 
L 833.484074 131.584016 
L 835.51825 134.246672 
L 837.552427 133.822532 
L 839.586603 132.974252 
L 841.620779 133.304139 
L 843.654956 134.340925 
L 845.689132 137.121398 
L 847.723308 136.815074 
L 849.757485 137.239214 
L 851.791661 137.333467 
L 853.825837 136.367371 
L 855.860014 137.898987 
L 857.89419 137.404157 
L 859.928366 135.754725 
L 861.962543 136.508751 
L 863.996719 138.13462 
L 866.030895 137.804734 
L 868.065072 138.20531 
L 870.099248 137.828297 
L 874.167601 137.898987 
L 876.201777 140.302446 
L 878.235954 143.483495 
L 880.27013 144.826605 
L 882.304306 146.546727 
L 884.338483 146.381784 
L 886.372659 146.028334 
L 888.406835 146.947304 
L 890.441012 148.384667 
L 892.475188 147.371444 
L 894.509364 149.327199 
L 896.543541 149.232946 
L 898.577717 151.919165 
L 900.611893 153.450781 
L 902.64607 153.662851 
L 904.680246 152.484685 
L 906.714422 152.296178 
L 908.748599 156.608267 
L 910.782775 157.574363 
L 912.816951 156.608267 
L 914.851128 157.103096 
L 916.885304 161.203115 
L 918.919481 162.451971 
L 920.953657 167.164636 
L 922.987833 167.282453 
L 925.02201 169.049702 
L 927.056186 170.510628 
L 929.090362 168.672689 
L 931.124539 170.746261 
L 933.158715 172.372131 
L 935.192891 174.964096 
L 937.227068 174.42214 
L 939.261244 174.657773 
L 941.29542 174.186507 
L 943.329597 174.752026 
L 945.363773 176.966979 
L 947.397949 179.959521 
L 949.432126 180.501477 
L 951.466302 186.345182 
L 953.500478 189.267034 
L 955.534655 184.978509 
L 957.568831 187.829671 
L 959.603008 189.879681 
L 961.637184 196.925114 
L 963.67136 193.225673 
L 965.705537 194.380275 
L 967.739713 196.147525 
L 969.773889 195.275682 
L 971.808066 201.402146 
L 973.842242 203.546409 
L 975.876418 213.278062 
L 977.910595 213.395878 
L 979.944771 211.487249 
L 981.978947 215.422324 
L 984.013124 213.678638 
L 986.0473 216.129224 
L 988.081476 224.447077 
L 990.115653 227.510309 
L 994.184005 227.463183 
L 996.218182 229.819515 
L 996.218182 229.819515 
" style="fill:none;stroke:#9467bd;stroke-dasharray:5.55,2.4;stroke-dashoffset:0;stroke-width:1.5;"/>
   </g>
   <g id="line2d_21">
    <path clip-path="url(#pe5f49e7d24)" d="M 184.581818 89.122906 
L 440.888038 89.028653 
L 442.922215 89.405666 
L 444.956391 89.334976 
L 463.263978 89.664862 
L 465.298154 89.641299 
L 467.332331 89.876932 
L 469.366507 89.829806 
L 471.400684 89.900496 
L 473.43486 89.806242 
L 475.469036 89.876932 
L 477.503213 90.065439 
L 481.571565 89.947622 
L 483.605742 90.301072 
L 485.639918 89.924059 
L 491.742447 90.018312 
L 493.776623 90.277509 
L 503.947505 90.819465 
L 508.015858 90.654522 
L 510.050034 90.937282 
L 514.118387 91.267168 
L 516.152563 91.172915 
L 518.18674 91.384985 
L 520.220916 91.337858 
L 526.323445 93.081544 
L 528.357621 92.963728 
L 530.391798 93.034418 
L 532.425974 92.987291 
L 534.46015 93.293614 
L 536.494327 93.387868 
L 538.528503 94.377527 
L 540.562679 94.542471 
L 542.596856 95.155117 
L 544.631032 95.367187 
L 546.665208 96.356847 
L 548.699385 96.545353 
L 552.767738 96.66317 
L 554.801914 97.040183 
L 556.83609 97.040183 
L 558.870267 97.770646 
L 560.904443 97.558576 
L 562.938619 97.652829 
L 564.972796 97.959153 
L 567.006972 97.652829 
L 571.075325 97.841336 
L 573.109501 97.652829 
L 575.143677 98.477546 
L 577.177854 98.453982 
L 579.21203 99.137319 
L 581.246206 98.595362 
L 583.280383 99.349389 
L 585.314559 99.325825 
L 587.348735 100.409738 
L 589.382912 100.928131 
L 591.417088 100.621808 
L 593.451265 101.328708 
L 595.485441 101.894228 
L 597.519617 103.237337 
L 599.553794 104.156307 
L 601.58797 105.923556 
L 603.622146 106.606893 
L 605.656323 106.842526 
L 607.690499 108.138509 
L 609.724675 108.421269 
L 611.758852 109.128168 
L 613.793028 108.845408 
L 617.861381 110.659784 
L 619.895557 110.494841 
L 623.96391 110.424151 
L 625.998086 111.720134 
L 628.032262 113.18106 
L 632.100615 114.3121 
L 634.134792 113.840833 
L 636.168968 116.456362 
L 638.203144 116.715559 
L 642.271497 116.691995 
L 644.305673 116.338545 
L 646.33985 117.351768 
L 648.374026 117.917288 
L 650.408202 119.920171 
L 652.442379 120.509254 
L 654.476555 120.90983 
L 656.510731 121.004084 
L 658.544908 121.216154 
L 660.579084 122.512136 
L 662.61326 122.936276 
L 664.647437 125.198355 
L 666.681613 124.915596 
L 668.715789 124.491456 
L 670.749966 125.245482 
L 672.784142 125.693185 
L 674.818319 127.460435 
L 676.852495 128.167334 
L 678.886671 132.196663 
L 680.920848 133.280576 
L 682.955024 135.118515 
L 684.9892 138.111057 
L 687.023377 139.571983 
L 689.057553 138.70014 
L 691.091729 139.077153 
L 693.125906 141.292106 
L 695.160082 141.881189 
L 697.194258 143.365678 
L 699.228435 144.614535 
L 701.262611 146.92374 
L 703.296787 146.593854 
L 705.330964 148.384667 
L 709.399316 148.54961 
L 711.433493 148.219723 
L 715.501846 152.060545 
L 717.536022 149.939846 
L 719.570198 152.272615 
L 721.604375 152.885261 
L 725.672727 152.932388 
L 727.706904 155.759987 
L 729.74108 158.304826 
L 731.775256 165.515203 
L 733.809433 169.638785 
L 739.911962 171.406034 
L 741.946138 175.317546 
L 743.980314 173.102594 
L 746.014491 174.162943 
L 748.048667 175.411799 
L 750.082843 178.380778 
L 752.11702 184.719313 
L 754.151196 186.156675 
L 756.185373 192.165323 
L 758.219549 192.730843 
L 760.253725 193.649812 
L 762.287902 197.679141 
L 764.322078 200.57743 
L 766.356254 199.87053 
L 768.390431 201.732033 
L 770.424607 201.755596 
L 772.458783 204.441815 
L 774.49296 213.254498 
L 776.527136 216.294167 
L 778.561312 218.08498 
L 780.595489 218.29705 
L 782.629665 217.048193 
L 784.663841 225.059724 
L 786.698018 230.149402 
L 788.732194 227.298239 
L 790.76637 232.906311 
L 792.800547 231.445385 
L 794.834723 228.052266 
L 796.8689 227.793069 
L 798.903076 225.366047 
L 800.937252 227.251113 
L 802.971429 227.981576 
L 805.005605 239.504041 
L 807.039781 240.093125 
L 809.073958 238.702888 
L 811.108134 238.349439 
L 813.14231 245.277056 
L 815.176487 253.618473 
L 817.210663 253.783416 
L 819.244839 256.375382 
L 821.279016 261.017356 
L 823.313192 261.582876 
L 827.381545 271.950739 
L 829.415721 270.819699 
L 831.449897 272.092119 
L 833.484074 272.869709 
L 835.51825 272.657639 
L 837.552427 271.667979 
L 839.586603 271.550162 
L 841.620779 274.754775 
L 843.654956 279.231806 
L 845.689132 281.918025 
L 847.723308 280.692732 
L 849.757485 291.225538 
L 851.791661 292.874971 
L 853.825837 293.039914 
L 855.860014 296.1974 
L 857.89419 298.318099 
L 859.928366 297.045679 
L 861.962543 300.485925 
L 863.996719 300.226728 
L 866.030895 304.868703 
L 868.065072 301.852597 
L 870.099248 312.6446 
L 872.133424 313.657823 
L 874.167601 313.21012 
L 876.201777 319.430837 
L 878.235954 335.006195 
L 880.27013 344.525778 
L 882.304306 339.50679 
L 884.338483 340.661393 
L 886.372659 341.109096 
L 888.406835 330.482036 
L 890.441012 329.751573 
L 894.509364 339.4361 
L 896.543541 339.553916 
L 898.577717 343.441865 
L 900.611893 339.601043 
L 902.64607 346.858547 
L 904.680246 349.945342 
L 906.714422 351.359142 
L 908.748599 346.38728 
L 910.782775 347.329813 
L 912.816951 351.241325 
L 914.851128 353.456278 
L 916.885304 355.03502 
L 918.919481 348.22522 
L 920.953657 352.207421 
L 922.987833 350.746495 
L 925.02201 352.560871 
L 927.056186 352.749378 
L 929.090362 359.040785 
L 931.124539 353.856854 
L 933.158715 358.145379 
L 935.192891 364.436787 
L 937.227068 371.199461 
L 939.261244 390.05012 
L 941.29542 394.315082 
L 943.329597 401.549022 
L 945.363773 411.586999 
L 947.397949 409.843313 
L 949.432126 418.467489 
L 951.466302 431.757204 
L 953.500478 431.144558 
L 955.534655 436.257799 
L 957.568831 435.385956 
L 959.603008 435.291703 
L 961.637184 437.294585 
L 963.67136 436.799756 
L 965.705537 447.521068 
L 967.739713 451.00844 
L 969.773889 453.482589 
L 971.808066 455.579725 
L 975.876418 451.903846 
L 977.910595 451.64465 
L 979.944771 462.201019 
L 981.978947 466.277474 
L 984.013124 459.632617 
L 986.0473 465.547011 
L 988.081476 470.071169 
L 990.115653 475.797057 
L 992.149829 473.205092 
L 994.184005 481.687888 
L 996.218182 484.232727 
L 996.218182 484.232727 
" style="fill:none;stroke:#8c564b;stroke-dasharray:5.55,2.4;stroke-dashoffset:0;stroke-width:1.5;"/>
   </g>
   <g id="patch_3">
    <path d="M 144 504 
L 144 69.12 
" style="fill:none;stroke:#000000;stroke-linecap:square;stroke-linejoin:miter;stroke-width:0.8;"/>
   </g>
   <g id="patch_4">
    <path d="M 1036.8 504 
L 1036.8 69.12 
" style="fill:none;stroke:#000000;stroke-linecap:square;stroke-linejoin:miter;stroke-width:0.8;"/>
   </g>
   <g id="patch_5">
    <path d="M 144 504 
L 1036.8 504 
" style="fill:none;stroke:#000000;stroke-linecap:square;stroke-linejoin:miter;stroke-width:0.8;"/>
   </g>
   <g id="patch_6">
    <path d="M 144 69.12 
L 1036.8 69.12 
" style="fill:none;stroke:#000000;stroke-linecap:square;stroke-linejoin:miter;stroke-width:0.8;"/>
   </g>
   <g id="legend_1">
    <g id="patch_7">
     <path d="M 151 499 
L 275.432813 499 
Q 277.432813 499 277.432813 497 
L 277.432813 408.540625 
Q 277.432813 406.540625 275.432813 406.540625 
L 151 406.540625 
Q 149 406.540625 149 408.540625 
L 149 497 
Q 149 499 151 499 
z
" style="fill:#ffffff;opacity:0.8;stroke:#cccccc;stroke-linejoin:miter;"/>
    </g>
    <g id="line2d_22">
     <path d="M 153 414.639063 
L 173 414.639063 
" style="fill:none;stroke:#1f77b4;stroke-linecap:square;stroke-width:1.5;"/>
    </g>
    <g id="line2d_23"/>
    <g id="text_18">
     <!-- taylorfo -->
     <defs>
      <path d="M 18.3125 70.21875 
L 18.3125 54.6875 
L 36.8125 54.6875 
L 36.8125 47.703125 
L 18.3125 47.703125 
L 18.3125 18.015625 
Q 18.3125 11.328125 20.140625 9.421875 
Q 21.96875 7.515625 27.59375 7.515625 
L 36.8125 7.515625 
L 36.8125 0 
L 27.59375 0 
Q 17.1875 0 13.234375 3.875 
Q 9.28125 7.765625 9.28125 18.015625 
L 9.28125 47.703125 
L 2.6875 47.703125 
L 2.6875 54.6875 
L 9.28125 54.6875 
L 9.28125 70.21875 
z
" id="DejaVuSans-116"/>
      <path d="M 9.421875 75.984375 
L 18.40625 75.984375 
L 18.40625 0 
L 9.421875 0 
z
" id="DejaVuSans-108"/>
     </defs>
     <g transform="translate(181 418.139063)scale(0.1 -0.1)">
      <use xlink:href="#DejaVuSans-116"/>
      <use x="39.208984" xlink:href="#DejaVuSans-97"/>
      <use x="100.488281" xlink:href="#DejaVuSans-121"/>
      <use x="159.667969" xlink:href="#DejaVuSans-108"/>
      <use x="187.451172" xlink:href="#DejaVuSans-111"/>
      <use x="248.632812" xlink:href="#DejaVuSans-114"/>
      <use x="289.746094" xlink:href="#DejaVuSans-102"/>
      <use x="324.951172" xlink:href="#DejaVuSans-111"/>
     </g>
    </g>
    <g id="line2d_24">
     <path d="M 153 429.317188 
L 173 429.317188 
" style="fill:none;stroke:#ff7f0e;stroke-linecap:square;stroke-width:1.5;"/>
    </g>
    <g id="line2d_25"/>
    <g id="text_19">
     <!-- taylorfo_abs -->
     <defs>
      <path d="M 50.984375 -16.609375 
L 50.984375 -23.578125 
L -0.984375 -23.578125 
L -0.984375 -16.609375 
z
" id="DejaVuSans-95"/>
     </defs>
     <g transform="translate(181 432.817188)scale(0.1 -0.1)">
      <use xlink:href="#DejaVuSans-116"/>
      <use x="39.208984" xlink:href="#DejaVuSans-97"/>
      <use x="100.488281" xlink:href="#DejaVuSans-121"/>
      <use x="159.667969" xlink:href="#DejaVuSans-108"/>
      <use x="187.451172" xlink:href="#DejaVuSans-111"/>
      <use x="248.632812" xlink:href="#DejaVuSans-114"/>
      <use x="289.746094" xlink:href="#DejaVuSans-102"/>
      <use x="324.951172" xlink:href="#DejaVuSans-111"/>
      <use x="386.132812" xlink:href="#DejaVuSans-95"/>
      <use x="436.132812" xlink:href="#DejaVuSans-97"/>
      <use x="497.412109" xlink:href="#DejaVuSans-98"/>
      <use x="560.888672" xlink:href="#DejaVuSans-115"/>
     </g>
    </g>
    <g id="line2d_26">
     <path d="M 153 444.273438 
L 173 444.273438 
" style="fill:none;stroke:#2ca02c;stroke-linecap:square;stroke-width:1.5;"/>
    </g>
    <g id="line2d_27"/>
    <g id="text_20">
     <!-- taylorfo_sq -->
     <defs>
      <path d="M 14.796875 27.296875 
Q 14.796875 17.390625 18.875 11.75 
Q 22.953125 6.109375 30.078125 6.109375 
Q 37.203125 6.109375 41.296875 11.75 
Q 45.40625 17.390625 45.40625 27.296875 
Q 45.40625 37.203125 41.296875 42.84375 
Q 37.203125 48.484375 30.078125 48.484375 
Q 22.953125 48.484375 18.875 42.84375 
Q 14.796875 37.203125 14.796875 27.296875 
z
M 45.40625 8.203125 
Q 42.578125 3.328125 38.25 0.953125 
Q 33.9375 -1.421875 27.875 -1.421875 
Q 17.96875 -1.421875 11.734375 6.484375 
Q 5.515625 14.40625 5.515625 27.296875 
Q 5.515625 40.1875 11.734375 48.09375 
Q 17.96875 56 27.875 56 
Q 33.9375 56 38.25 53.625 
Q 42.578125 51.265625 45.40625 46.390625 
L 45.40625 54.6875 
L 54.390625 54.6875 
L 54.390625 -20.796875 
L 45.40625 -20.796875 
z
" id="DejaVuSans-113"/>
     </defs>
     <g transform="translate(181 447.773438)scale(0.1 -0.1)">
      <use xlink:href="#DejaVuSans-116"/>
      <use x="39.208984" xlink:href="#DejaVuSans-97"/>
      <use x="100.488281" xlink:href="#DejaVuSans-121"/>
      <use x="159.667969" xlink:href="#DejaVuSans-108"/>
      <use x="187.451172" xlink:href="#DejaVuSans-111"/>
      <use x="248.632812" xlink:href="#DejaVuSans-114"/>
      <use x="289.746094" xlink:href="#DejaVuSans-102"/>
      <use x="324.951172" xlink:href="#DejaVuSans-111"/>
      <use x="386.132812" xlink:href="#DejaVuSans-95"/>
      <use x="436.132812" xlink:href="#DejaVuSans-115"/>
      <use x="488.232422" xlink:href="#DejaVuSans-113"/>
     </g>
    </g>
    <g id="line2d_28">
     <path d="M 153 459.229688 
L 173 459.229688 
" style="fill:none;stroke:#d62728;stroke-dasharray:5.55,2.4;stroke-dashoffset:0;stroke-width:1.5;"/>
    </g>
    <g id="line2d_29"/>
    <g id="text_21">
     <!-- taylorfo_abs_norm -->
     <g transform="translate(181 462.729688)scale(0.1 -0.1)">
      <use xlink:href="#DejaVuSans-116"/>
      <use x="39.208984" xlink:href="#DejaVuSans-97"/>
      <use x="100.488281" xlink:href="#DejaVuSans-121"/>
      <use x="159.667969" xlink:href="#DejaVuSans-108"/>
      <use x="187.451172" xlink:href="#DejaVuSans-111"/>
      <use x="248.632812" xlink:href="#DejaVuSans-114"/>
      <use x="289.746094" xlink:href="#DejaVuSans-102"/>
      <use x="324.951172" xlink:href="#DejaVuSans-111"/>
      <use x="386.132812" xlink:href="#DejaVuSans-95"/>
      <use x="436.132812" xlink:href="#DejaVuSans-97"/>
      <use x="497.412109" xlink:href="#DejaVuSans-98"/>
      <use x="560.888672" xlink:href="#DejaVuSans-115"/>
      <use x="612.988281" xlink:href="#DejaVuSans-95"/>
      <use x="662.988281" xlink:href="#DejaVuSans-110"/>
      <use x="726.367188" xlink:href="#DejaVuSans-111"/>
      <use x="787.548828" xlink:href="#DejaVuSans-114"/>
      <use x="826.912109" xlink:href="#DejaVuSans-109"/>
     </g>
    </g>
    <g id="line2d_30">
     <path d="M 153 474.185938 
L 173 474.185938 
" style="fill:none;stroke:#9467bd;stroke-dasharray:5.55,2.4;stroke-dashoffset:0;stroke-width:1.5;"/>
    </g>
    <g id="line2d_31"/>
    <g id="text_22">
     <!-- taylorfo_sq_norm -->
     <g transform="translate(181 477.685938)scale(0.1 -0.1)">
      <use xlink:href="#DejaVuSans-116"/>
      <use x="39.208984" xlink:href="#DejaVuSans-97"/>
      <use x="100.488281" xlink:href="#DejaVuSans-121"/>
      <use x="159.667969" xlink:href="#DejaVuSans-108"/>
      <use x="187.451172" xlink:href="#DejaVuSans-111"/>
      <use x="248.632812" xlink:href="#DejaVuSans-114"/>
      <use x="289.746094" xlink:href="#DejaVuSans-102"/>
      <use x="324.951172" xlink:href="#DejaVuSans-111"/>
      <use x="386.132812" xlink:href="#DejaVuSans-95"/>
      <use x="436.132812" xlink:href="#DejaVuSans-115"/>
      <use x="488.232422" xlink:href="#DejaVuSans-113"/>
      <use x="551.708984" xlink:href="#DejaVuSans-95"/>
      <use x="601.708984" xlink:href="#DejaVuSans-110"/>
      <use x="665.087891" xlink:href="#DejaVuSans-111"/>
      <use x="726.269531" xlink:href="#DejaVuSans-114"/>
      <use x="765.632812" xlink:href="#DejaVuSans-109"/>
     </g>
    </g>
    <g id="line2d_32">
     <path d="M 153 489.142188 
L 173 489.142188 
" style="fill:none;stroke:#8c564b;stroke-dasharray:5.55,2.4;stroke-dashoffset:0;stroke-width:1.5;"/>
    </g>
    <g id="line2d_33"/>
    <g id="text_23">
     <!-- Molchanov_group -->
     <defs>
      <path d="M 9.8125 72.90625 
L 24.515625 72.90625 
L 43.109375 23.296875 
L 61.8125 72.90625 
L 76.515625 72.90625 
L 76.515625 0 
L 66.890625 0 
L 66.890625 64.015625 
L 48.09375 14.015625 
L 38.1875 14.015625 
L 19.390625 64.015625 
L 19.390625 0 
L 9.8125 0 
z
" id="DejaVuSans-77"/>
      <path d="M 54.890625 33.015625 
L 54.890625 0 
L 45.90625 0 
L 45.90625 32.71875 
Q 45.90625 40.484375 42.875 44.328125 
Q 39.84375 48.1875 33.796875 48.1875 
Q 26.515625 48.1875 22.3125 43.546875 
Q 18.109375 38.921875 18.109375 30.90625 
L 18.109375 0 
L 9.078125 0 
L 9.078125 75.984375 
L 18.109375 75.984375 
L 18.109375 46.1875 
Q 21.34375 51.125 25.703125 53.5625 
Q 30.078125 56 35.796875 56 
Q 45.21875 56 50.046875 50.171875 
Q 54.890625 44.34375 54.890625 33.015625 
z
" id="DejaVuSans-104"/>
      <path d="M 2.984375 54.6875 
L 12.5 54.6875 
L 29.59375 8.796875 
L 46.6875 54.6875 
L 56.203125 54.6875 
L 35.6875 0 
L 23.484375 0 
z
" id="DejaVuSans-118"/>
      <path d="M 45.40625 27.984375 
Q 45.40625 37.75 41.375 43.109375 
Q 37.359375 48.484375 30.078125 48.484375 
Q 22.859375 48.484375 18.828125 43.109375 
Q 14.796875 37.75 14.796875 27.984375 
Q 14.796875 18.265625 18.828125 12.890625 
Q 22.859375 7.515625 30.078125 7.515625 
Q 37.359375 7.515625 41.375 12.890625 
Q 45.40625 18.265625 45.40625 27.984375 
z
M 54.390625 6.78125 
Q 54.390625 -7.171875 48.1875 -13.984375 
Q 42 -20.796875 29.203125 -20.796875 
Q 24.46875 -20.796875 20.265625 -20.09375 
Q 16.0625 -19.390625 12.109375 -17.921875 
L 12.109375 -9.1875 
Q 16.0625 -11.328125 19.921875 -12.34375 
Q 23.78125 -13.375 27.78125 -13.375 
Q 36.625 -13.375 41.015625 -8.765625 
Q 45.40625 -4.15625 45.40625 5.171875 
L 45.40625 9.625 
Q 42.625 4.78125 38.28125 2.390625 
Q 33.9375 0 27.875 0 
Q 17.828125 0 11.671875 7.65625 
Q 5.515625 15.328125 5.515625 27.984375 
Q 5.515625 40.671875 11.671875 48.328125 
Q 17.828125 56 27.875 56 
Q 33.9375 56 38.28125 53.609375 
Q 42.625 51.21875 45.40625 46.390625 
L 45.40625 54.6875 
L 54.390625 54.6875 
z
" id="DejaVuSans-103"/>
     </defs>
     <g transform="translate(181 492.642188)scale(0.1 -0.1)">
      <use xlink:href="#DejaVuSans-77"/>
      <use x="86.279297" xlink:href="#DejaVuSans-111"/>
      <use x="147.460938" xlink:href="#DejaVuSans-108"/>
      <use x="175.244141" xlink:href="#DejaVuSans-99"/>
      <use x="230.224609" xlink:href="#DejaVuSans-104"/>
      <use x="293.603516" xlink:href="#DejaVuSans-97"/>
      <use x="354.882812" xlink:href="#DejaVuSans-110"/>
      <use x="418.261719" xlink:href="#DejaVuSans-111"/>
      <use x="479.443359" xlink:href="#DejaVuSans-118"/>
      <use x="538.623047" xlink:href="#DejaVuSans-95"/>
      <use x="588.623047" xlink:href="#DejaVuSans-103"/>
      <use x="652.099609" xlink:href="#DejaVuSans-114"/>
      <use x="690.962891" xlink:href="#DejaVuSans-111"/>
      <use x="752.144531" xlink:href="#DejaVuSans-117"/>
      <use x="815.523438" xlink:href="#DejaVuSans-112"/>
     </g>
    </g>
   </g>
  </g>
 </g>
 <defs>
  <clipPath id="pe5f49e7d24">
   <rect height="434.88" width="892.8" x="144" y="69.12"/>
  </clipPath>
 </defs>
</svg>
