<?xml version="1.0" encoding="utf-8" standalone="no"?>
<!DOCTYPE svg PUBLIC "-//W3C//DTD SVG 1.1//EN"
  "http://www.w3.org/Graphics/SVG/1.1/DTD/svg11.dtd">
<!-- Created with matplotlib (https://matplotlib.org/) -->
<svg height="576pt" version="1.1" viewBox="0 0 1152 576" width="1152pt" xmlns="http://www.w3.org/2000/svg" xmlns:xlink="http://www.w3.org/1999/xlink">
 <defs>
  <style type="text/css">
*{stroke-linecap:butt;stroke-linejoin:round;}
  </style>
 </defs>
 <g id="figure_1">
  <g id="patch_1">
   <path d="M 0 576 
L 1152 576 
L 1152 0 
L 0 0 
z
" style="fill:#ffffff;"/>
  </g>
  <g id="axes_1">
   <g id="patch_2">
    <path d="M 144 504 
L 1036.8 504 
L 1036.8 69.12 
L 144 69.12 
z
" style="fill:#ffffff;"/>
   </g>
   <g id="matplotlib.axis_1">
    <g id="xtick_1">
     <g id="line2d_1">
      <defs>
       <path d="M 0 0 
L 0 3.5 
" id="md6933ab15c" style="stroke:#000000;stroke-width:0.8;"/>
      </defs>
      <g>
       <use style="stroke:#000000;stroke-width:0.8;" x="182.547642" xlink:href="#md6933ab15c" y="504"/>
      </g>
     </g>
     <g id="text_1">
      <!-- 0 -->
      <defs>
       <path d="M 31.78125 66.40625 
Q 24.171875 66.40625 20.328125 58.90625 
Q 16.5 51.421875 16.5 36.375 
Q 16.5 21.390625 20.328125 13.890625 
Q 24.171875 6.390625 31.78125 6.390625 
Q 39.453125 6.390625 43.28125 13.890625 
Q 47.125 21.390625 47.125 36.375 
Q 47.125 51.421875 43.28125 58.90625 
Q 39.453125 66.40625 31.78125 66.40625 
z
M 31.78125 74.21875 
Q 44.046875 74.21875 50.515625 64.515625 
Q 56.984375 54.828125 56.984375 36.375 
Q 56.984375 17.96875 50.515625 8.265625 
Q 44.046875 -1.421875 31.78125 -1.421875 
Q 19.53125 -1.421875 13.0625 8.265625 
Q 6.59375 17.96875 6.59375 36.375 
Q 6.59375 54.828125 13.0625 64.515625 
Q 19.53125 74.21875 31.78125 74.21875 
z
" id="DejaVuSans-48"/>
      </defs>
      <g transform="translate(179.366392 518.598438)scale(0.1 -0.1)">
       <use xlink:href="#DejaVuSans-48"/>
      </g>
     </g>
    </g>
    <g id="xtick_2">
     <g id="line2d_2">
      <g>
       <use style="stroke:#000000;stroke-width:0.8;" x="284.256459" xlink:href="#md6933ab15c" y="504"/>
      </g>
     </g>
     <g id="text_2">
      <!-- 50 -->
      <defs>
       <path d="M 10.796875 72.90625 
L 49.515625 72.90625 
L 49.515625 64.59375 
L 19.828125 64.59375 
L 19.828125 46.734375 
Q 21.96875 47.46875 24.109375 47.828125 
Q 26.265625 48.1875 28.421875 48.1875 
Q 40.625 48.1875 47.75 41.5 
Q 54.890625 34.8125 54.890625 23.390625 
Q 54.890625 11.625 47.5625 5.09375 
Q 40.234375 -1.421875 26.90625 -1.421875 
Q 22.3125 -1.421875 17.546875 -0.640625 
Q 12.796875 0.140625 7.71875 1.703125 
L 7.71875 11.625 
Q 12.109375 9.234375 16.796875 8.0625 
Q 21.484375 6.890625 26.703125 6.890625 
Q 35.15625 6.890625 40.078125 11.328125 
Q 45.015625 15.765625 45.015625 23.390625 
Q 45.015625 31 40.078125 35.4375 
Q 35.15625 39.890625 26.703125 39.890625 
Q 22.75 39.890625 18.8125 39.015625 
Q 14.890625 38.140625 10.796875 36.28125 
z
" id="DejaVuSans-53"/>
      </defs>
      <g transform="translate(277.893959 518.598438)scale(0.1 -0.1)">
       <use xlink:href="#DejaVuSans-53"/>
       <use x="63.623047" xlink:href="#DejaVuSans-48"/>
      </g>
     </g>
    </g>
    <g id="xtick_3">
     <g id="line2d_3">
      <g>
       <use style="stroke:#000000;stroke-width:0.8;" x="385.965277" xlink:href="#md6933ab15c" y="504"/>
      </g>
     </g>
     <g id="text_3">
      <!-- 100 -->
      <defs>
       <path d="M 12.40625 8.296875 
L 28.515625 8.296875 
L 28.515625 63.921875 
L 10.984375 60.40625 
L 10.984375 69.390625 
L 28.421875 72.90625 
L 38.28125 72.90625 
L 38.28125 8.296875 
L 54.390625 8.296875 
L 54.390625 0 
L 12.40625 0 
z
" id="DejaVuSans-49"/>
      </defs>
      <g transform="translate(376.421527 518.598438)scale(0.1 -0.1)">
       <use xlink:href="#DejaVuSans-49"/>
       <use x="63.623047" xlink:href="#DejaVuSans-48"/>
       <use x="127.246094" xlink:href="#DejaVuSans-48"/>
      </g>
     </g>
    </g>
    <g id="xtick_4">
     <g id="line2d_4">
      <g>
       <use style="stroke:#000000;stroke-width:0.8;" x="487.674094" xlink:href="#md6933ab15c" y="504"/>
      </g>
     </g>
     <g id="text_4">
      <!-- 150 -->
      <g transform="translate(478.130344 518.598438)scale(0.1 -0.1)">
       <use xlink:href="#DejaVuSans-49"/>
       <use x="63.623047" xlink:href="#DejaVuSans-53"/>
       <use x="127.246094" xlink:href="#DejaVuSans-48"/>
      </g>
     </g>
    </g>
    <g id="xtick_5">
     <g id="line2d_5">
      <g>
       <use style="stroke:#000000;stroke-width:0.8;" x="589.382912" xlink:href="#md6933ab15c" y="504"/>
      </g>
     </g>
     <g id="text_5">
      <!-- 200 -->
      <defs>
       <path d="M 19.1875 8.296875 
L 53.609375 8.296875 
L 53.609375 0 
L 7.328125 0 
L 7.328125 8.296875 
Q 12.9375 14.109375 22.625 23.890625 
Q 32.328125 33.6875 34.8125 36.53125 
Q 39.546875 41.84375 41.421875 45.53125 
Q 43.3125 49.21875 43.3125 52.78125 
Q 43.3125 58.59375 39.234375 62.25 
Q 35.15625 65.921875 28.609375 65.921875 
Q 23.96875 65.921875 18.8125 64.3125 
Q 13.671875 62.703125 7.8125 59.421875 
L 7.8125 69.390625 
Q 13.765625 71.78125 18.9375 73 
Q 24.125 74.21875 28.421875 74.21875 
Q 39.75 74.21875 46.484375 68.546875 
Q 53.21875 62.890625 53.21875 53.421875 
Q 53.21875 48.921875 51.53125 44.890625 
Q 49.859375 40.875 45.40625 35.40625 
Q 44.1875 33.984375 37.640625 27.21875 
Q 31.109375 20.453125 19.1875 8.296875 
z
" id="DejaVuSans-50"/>
      </defs>
      <g transform="translate(579.839162 518.598438)scale(0.1 -0.1)">
       <use xlink:href="#DejaVuSans-50"/>
       <use x="63.623047" xlink:href="#DejaVuSans-48"/>
       <use x="127.246094" xlink:href="#DejaVuSans-48"/>
      </g>
     </g>
    </g>
    <g id="xtick_6">
     <g id="line2d_6">
      <g>
       <use style="stroke:#000000;stroke-width:0.8;" x="691.091729" xlink:href="#md6933ab15c" y="504"/>
      </g>
     </g>
     <g id="text_6">
      <!-- 250 -->
      <g transform="translate(681.547979 518.598438)scale(0.1 -0.1)">
       <use xlink:href="#DejaVuSans-50"/>
       <use x="63.623047" xlink:href="#DejaVuSans-53"/>
       <use x="127.246094" xlink:href="#DejaVuSans-48"/>
      </g>
     </g>
    </g>
    <g id="xtick_7">
     <g id="line2d_7">
      <g>
       <use style="stroke:#000000;stroke-width:0.8;" x="792.800547" xlink:href="#md6933ab15c" y="504"/>
      </g>
     </g>
     <g id="text_7">
      <!-- 300 -->
      <defs>
       <path d="M 40.578125 39.3125 
Q 47.65625 37.796875 51.625 33 
Q 55.609375 28.21875 55.609375 21.1875 
Q 55.609375 10.40625 48.1875 4.484375 
Q 40.765625 -1.421875 27.09375 -1.421875 
Q 22.515625 -1.421875 17.65625 -0.515625 
Q 12.796875 0.390625 7.625 2.203125 
L 7.625 11.71875 
Q 11.71875 9.328125 16.59375 8.109375 
Q 21.484375 6.890625 26.8125 6.890625 
Q 36.078125 6.890625 40.9375 10.546875 
Q 45.796875 14.203125 45.796875 21.1875 
Q 45.796875 27.640625 41.28125 31.265625 
Q 36.765625 34.90625 28.71875 34.90625 
L 20.21875 34.90625 
L 20.21875 43.015625 
L 29.109375 43.015625 
Q 36.375 43.015625 40.234375 45.921875 
Q 44.09375 48.828125 44.09375 54.296875 
Q 44.09375 59.90625 40.109375 62.90625 
Q 36.140625 65.921875 28.71875 65.921875 
Q 24.65625 65.921875 20.015625 65.03125 
Q 15.375 64.15625 9.8125 62.3125 
L 9.8125 71.09375 
Q 15.4375 72.65625 20.34375 73.4375 
Q 25.25 74.21875 29.59375 74.21875 
Q 40.828125 74.21875 47.359375 69.109375 
Q 53.90625 64.015625 53.90625 55.328125 
Q 53.90625 49.265625 50.4375 45.09375 
Q 46.96875 40.921875 40.578125 39.3125 
z
" id="DejaVuSans-51"/>
      </defs>
      <g transform="translate(783.256797 518.598438)scale(0.1 -0.1)">
       <use xlink:href="#DejaVuSans-51"/>
       <use x="63.623047" xlink:href="#DejaVuSans-48"/>
       <use x="127.246094" xlink:href="#DejaVuSans-48"/>
      </g>
     </g>
    </g>
    <g id="xtick_8">
     <g id="line2d_8">
      <g>
       <use style="stroke:#000000;stroke-width:0.8;" x="894.509364" xlink:href="#md6933ab15c" y="504"/>
      </g>
     </g>
     <g id="text_8">
      <!-- 350 -->
      <g transform="translate(884.965614 518.598438)scale(0.1 -0.1)">
       <use xlink:href="#DejaVuSans-51"/>
       <use x="63.623047" xlink:href="#DejaVuSans-53"/>
       <use x="127.246094" xlink:href="#DejaVuSans-48"/>
      </g>
     </g>
    </g>
    <g id="xtick_9">
     <g id="line2d_9">
      <g>
       <use style="stroke:#000000;stroke-width:0.8;" x="996.218182" xlink:href="#md6933ab15c" y="504"/>
      </g>
     </g>
     <g id="text_9">
      <!-- 400 -->
      <defs>
       <path d="M 37.796875 64.3125 
L 12.890625 25.390625 
L 37.796875 25.390625 
z
M 35.203125 72.90625 
L 47.609375 72.90625 
L 47.609375 25.390625 
L 58.015625 25.390625 
L 58.015625 17.1875 
L 47.609375 17.1875 
L 47.609375 0 
L 37.796875 0 
L 37.796875 17.1875 
L 4.890625 17.1875 
L 4.890625 26.703125 
z
" id="DejaVuSans-52"/>
      </defs>
      <g transform="translate(986.674432 518.598438)scale(0.1 -0.1)">
       <use xlink:href="#DejaVuSans-52"/>
       <use x="63.623047" xlink:href="#DejaVuSans-48"/>
       <use x="127.246094" xlink:href="#DejaVuSans-48"/>
      </g>
     </g>
    </g>
    <g id="text_10">
     <!-- Number of Neurons pruned -->
     <defs>
      <path d="M 9.8125 72.90625 
L 23.09375 72.90625 
L 55.421875 11.921875 
L 55.421875 72.90625 
L 64.984375 72.90625 
L 64.984375 0 
L 51.703125 0 
L 19.390625 60.984375 
L 19.390625 0 
L 9.8125 0 
z
" id="DejaVuSans-78"/>
      <path d="M 8.5 21.578125 
L 8.5 54.6875 
L 17.484375 54.6875 
L 17.484375 21.921875 
Q 17.484375 14.15625 20.5 10.265625 
Q 23.53125 6.390625 29.59375 6.390625 
Q 36.859375 6.390625 41.078125 11.03125 
Q 45.3125 15.671875 45.3125 23.6875 
L 45.3125 54.6875 
L 54.296875 54.6875 
L 54.296875 0 
L 45.3125 0 
L 45.3125 8.40625 
Q 42.046875 3.421875 37.71875 1 
Q 33.40625 -1.421875 27.6875 -1.421875 
Q 18.265625 -1.421875 13.375 4.4375 
Q 8.5 10.296875 8.5 21.578125 
z
M 31.109375 56 
z
" id="DejaVuSans-117"/>
      <path d="M 52 44.1875 
Q 55.375 50.25 60.0625 53.125 
Q 64.75 56 71.09375 56 
Q 79.640625 56 84.28125 50.015625 
Q 88.921875 44.046875 88.921875 33.015625 
L 88.921875 0 
L 79.890625 0 
L 79.890625 32.71875 
Q 79.890625 40.578125 77.09375 44.375 
Q 74.3125 48.1875 68.609375 48.1875 
Q 61.625 48.1875 57.5625 43.546875 
Q 53.515625 38.921875 53.515625 30.90625 
L 53.515625 0 
L 44.484375 0 
L 44.484375 32.71875 
Q 44.484375 40.625 41.703125 44.40625 
Q 38.921875 48.1875 33.109375 48.1875 
Q 26.21875 48.1875 22.15625 43.53125 
Q 18.109375 38.875 18.109375 30.90625 
L 18.109375 0 
L 9.078125 0 
L 9.078125 54.6875 
L 18.109375 54.6875 
L 18.109375 46.1875 
Q 21.1875 51.21875 25.484375 53.609375 
Q 29.78125 56 35.6875 56 
Q 41.65625 56 45.828125 52.96875 
Q 50 49.953125 52 44.1875 
z
" id="DejaVuSans-109"/>
      <path d="M 48.6875 27.296875 
Q 48.6875 37.203125 44.609375 42.84375 
Q 40.53125 48.484375 33.40625 48.484375 
Q 26.265625 48.484375 22.1875 42.84375 
Q 18.109375 37.203125 18.109375 27.296875 
Q 18.109375 17.390625 22.1875 11.75 
Q 26.265625 6.109375 33.40625 6.109375 
Q 40.53125 6.109375 44.609375 11.75 
Q 48.6875 17.390625 48.6875 27.296875 
z
M 18.109375 46.390625 
Q 20.953125 51.265625 25.265625 53.625 
Q 29.59375 56 35.59375 56 
Q 45.5625 56 51.78125 48.09375 
Q 58.015625 40.1875 58.015625 27.296875 
Q 58.015625 14.40625 51.78125 6.484375 
Q 45.5625 -1.421875 35.59375 -1.421875 
Q 29.59375 -1.421875 25.265625 0.953125 
Q 20.953125 3.328125 18.109375 8.203125 
L 18.109375 0 
L 9.078125 0 
L 9.078125 75.984375 
L 18.109375 75.984375 
z
" id="DejaVuSans-98"/>
      <path d="M 56.203125 29.59375 
L 56.203125 25.203125 
L 14.890625 25.203125 
Q 15.484375 15.921875 20.484375 11.0625 
Q 25.484375 6.203125 34.421875 6.203125 
Q 39.59375 6.203125 44.453125 7.46875 
Q 49.3125 8.734375 54.109375 11.28125 
L 54.109375 2.78125 
Q 49.265625 0.734375 44.1875 -0.34375 
Q 39.109375 -1.421875 33.890625 -1.421875 
Q 20.796875 -1.421875 13.15625 6.1875 
Q 5.515625 13.8125 5.515625 26.8125 
Q 5.515625 40.234375 12.765625 48.109375 
Q 20.015625 56 32.328125 56 
Q 43.359375 56 49.78125 48.890625 
Q 56.203125 41.796875 56.203125 29.59375 
z
M 47.21875 32.234375 
Q 47.125 39.59375 43.09375 43.984375 
Q 39.0625 48.390625 32.421875 48.390625 
Q 24.90625 48.390625 20.390625 44.140625 
Q 15.875 39.890625 15.1875 32.171875 
z
" id="DejaVuSans-101"/>
      <path d="M 41.109375 46.296875 
Q 39.59375 47.171875 37.8125 47.578125 
Q 36.03125 48 33.890625 48 
Q 26.265625 48 22.1875 43.046875 
Q 18.109375 38.09375 18.109375 28.8125 
L 18.109375 0 
L 9.078125 0 
L 9.078125 54.6875 
L 18.109375 54.6875 
L 18.109375 46.1875 
Q 20.953125 51.171875 25.484375 53.578125 
Q 30.03125 56 36.53125 56 
Q 37.453125 56 38.578125 55.875 
Q 39.703125 55.765625 41.0625 55.515625 
z
" id="DejaVuSans-114"/>
      <path id="DejaVuSans-32"/>
      <path d="M 30.609375 48.390625 
Q 23.390625 48.390625 19.1875 42.75 
Q 14.984375 37.109375 14.984375 27.296875 
Q 14.984375 17.484375 19.15625 11.84375 
Q 23.34375 6.203125 30.609375 6.203125 
Q 37.796875 6.203125 41.984375 11.859375 
Q 46.1875 17.53125 46.1875 27.296875 
Q 46.1875 37.015625 41.984375 42.703125 
Q 37.796875 48.390625 30.609375 48.390625 
z
M 30.609375 56 
Q 42.328125 56 49.015625 48.375 
Q 55.71875 40.765625 55.71875 27.296875 
Q 55.71875 13.875 49.015625 6.21875 
Q 42.328125 -1.421875 30.609375 -1.421875 
Q 18.84375 -1.421875 12.171875 6.21875 
Q 5.515625 13.875 5.515625 27.296875 
Q 5.515625 40.765625 12.171875 48.375 
Q 18.84375 56 30.609375 56 
z
" id="DejaVuSans-111"/>
      <path d="M 37.109375 75.984375 
L 37.109375 68.5 
L 28.515625 68.5 
Q 23.6875 68.5 21.796875 66.546875 
Q 19.921875 64.59375 19.921875 59.515625 
L 19.921875 54.6875 
L 34.71875 54.6875 
L 34.71875 47.703125 
L 19.921875 47.703125 
L 19.921875 0 
L 10.890625 0 
L 10.890625 47.703125 
L 2.296875 47.703125 
L 2.296875 54.6875 
L 10.890625 54.6875 
L 10.890625 58.5 
Q 10.890625 67.625 15.140625 71.796875 
Q 19.390625 75.984375 28.609375 75.984375 
z
" id="DejaVuSans-102"/>
      <path d="M 54.890625 33.015625 
L 54.890625 0 
L 45.90625 0 
L 45.90625 32.71875 
Q 45.90625 40.484375 42.875 44.328125 
Q 39.84375 48.1875 33.796875 48.1875 
Q 26.515625 48.1875 22.3125 43.546875 
Q 18.109375 38.921875 18.109375 30.90625 
L 18.109375 0 
L 9.078125 0 
L 9.078125 54.6875 
L 18.109375 54.6875 
L 18.109375 46.1875 
Q 21.34375 51.125 25.703125 53.5625 
Q 30.078125 56 35.796875 56 
Q 45.21875 56 50.046875 50.171875 
Q 54.890625 44.34375 54.890625 33.015625 
z
" id="DejaVuSans-110"/>
      <path d="M 44.28125 53.078125 
L 44.28125 44.578125 
Q 40.484375 46.53125 36.375 47.5 
Q 32.28125 48.484375 27.875 48.484375 
Q 21.1875 48.484375 17.84375 46.4375 
Q 14.5 44.390625 14.5 40.28125 
Q 14.5 37.15625 16.890625 35.375 
Q 19.28125 33.59375 26.515625 31.984375 
L 29.59375 31.296875 
Q 39.15625 29.25 43.1875 25.515625 
Q 47.21875 21.78125 47.21875 15.09375 
Q 47.21875 7.46875 41.1875 3.015625 
Q 35.15625 -1.421875 24.609375 -1.421875 
Q 20.21875 -1.421875 15.453125 -0.5625 
Q 10.6875 0.296875 5.421875 2 
L 5.421875 11.28125 
Q 10.40625 8.6875 15.234375 7.390625 
Q 20.0625 6.109375 24.8125 6.109375 
Q 31.15625 6.109375 34.5625 8.28125 
Q 37.984375 10.453125 37.984375 14.40625 
Q 37.984375 18.0625 35.515625 20.015625 
Q 33.0625 21.96875 24.703125 23.78125 
L 21.578125 24.515625 
Q 13.234375 26.265625 9.515625 29.90625 
Q 5.8125 33.546875 5.8125 39.890625 
Q 5.8125 47.609375 11.28125 51.796875 
Q 16.75 56 26.8125 56 
Q 31.78125 56 36.171875 55.265625 
Q 40.578125 54.546875 44.28125 53.078125 
z
" id="DejaVuSans-115"/>
      <path d="M 18.109375 8.203125 
L 18.109375 -20.796875 
L 9.078125 -20.796875 
L 9.078125 54.6875 
L 18.109375 54.6875 
L 18.109375 46.390625 
Q 20.953125 51.265625 25.265625 53.625 
Q 29.59375 56 35.59375 56 
Q 45.5625 56 51.78125 48.09375 
Q 58.015625 40.1875 58.015625 27.296875 
Q 58.015625 14.40625 51.78125 6.484375 
Q 45.5625 -1.421875 35.59375 -1.421875 
Q 29.59375 -1.421875 25.265625 0.953125 
Q 20.953125 3.328125 18.109375 8.203125 
z
M 48.6875 27.296875 
Q 48.6875 37.203125 44.609375 42.84375 
Q 40.53125 48.484375 33.40625 48.484375 
Q 26.265625 48.484375 22.1875 42.84375 
Q 18.109375 37.203125 18.109375 27.296875 
Q 18.109375 17.390625 22.1875 11.75 
Q 26.265625 6.109375 33.40625 6.109375 
Q 40.53125 6.109375 44.609375 11.75 
Q 48.6875 17.390625 48.6875 27.296875 
z
" id="DejaVuSans-112"/>
      <path d="M 45.40625 46.390625 
L 45.40625 75.984375 
L 54.390625 75.984375 
L 54.390625 0 
L 45.40625 0 
L 45.40625 8.203125 
Q 42.578125 3.328125 38.25 0.953125 
Q 33.9375 -1.421875 27.875 -1.421875 
Q 17.96875 -1.421875 11.734375 6.484375 
Q 5.515625 14.40625 5.515625 27.296875 
Q 5.515625 40.1875 11.734375 48.09375 
Q 17.96875 56 27.875 56 
Q 33.9375 56 38.25 53.625 
Q 42.578125 51.265625 45.40625 46.390625 
z
M 14.796875 27.296875 
Q 14.796875 17.390625 18.875 11.75 
Q 22.953125 6.109375 30.078125 6.109375 
Q 37.203125 6.109375 41.296875 11.75 
Q 45.40625 17.390625 45.40625 27.296875 
Q 45.40625 37.203125 41.296875 42.84375 
Q 37.203125 48.484375 30.078125 48.484375 
Q 22.953125 48.484375 18.875 42.84375 
Q 14.796875 37.203125 14.796875 27.296875 
z
" id="DejaVuSans-100"/>
     </defs>
     <g transform="translate(522.147656 532.276562)scale(0.1 -0.1)">
      <use xlink:href="#DejaVuSans-78"/>
      <use x="74.804688" xlink:href="#DejaVuSans-117"/>
      <use x="138.183594" xlink:href="#DejaVuSans-109"/>
      <use x="235.595703" xlink:href="#DejaVuSans-98"/>
      <use x="299.072266" xlink:href="#DejaVuSans-101"/>
      <use x="360.595703" xlink:href="#DejaVuSans-114"/>
      <use x="401.708984" xlink:href="#DejaVuSans-32"/>
      <use x="433.496094" xlink:href="#DejaVuSans-111"/>
      <use x="494.677734" xlink:href="#DejaVuSans-102"/>
      <use x="529.882812" xlink:href="#DejaVuSans-32"/>
      <use x="561.669922" xlink:href="#DejaVuSans-78"/>
      <use x="636.474609" xlink:href="#DejaVuSans-101"/>
      <use x="697.998047" xlink:href="#DejaVuSans-117"/>
      <use x="761.376953" xlink:href="#DejaVuSans-114"/>
      <use x="800.240234" xlink:href="#DejaVuSans-111"/>
      <use x="861.421875" xlink:href="#DejaVuSans-110"/>
      <use x="924.800781" xlink:href="#DejaVuSans-115"/>
      <use x="976.900391" xlink:href="#DejaVuSans-32"/>
      <use x="1008.6875" xlink:href="#DejaVuSans-112"/>
      <use x="1072.164062" xlink:href="#DejaVuSans-114"/>
      <use x="1113.277344" xlink:href="#DejaVuSans-117"/>
      <use x="1176.65625" xlink:href="#DejaVuSans-110"/>
      <use x="1240.035156" xlink:href="#DejaVuSans-101"/>
      <use x="1301.558594" xlink:href="#DejaVuSans-100"/>
     </g>
    </g>
   </g>
   <g id="matplotlib.axis_2">
    <g id="ytick_1">
     <g id="line2d_10">
      <defs>
       <path d="M 0 0 
L -3.5 0 
" id="m6beba5e24b" style="stroke:#000000;stroke-width:0.8;"/>
      </defs>
      <g>
       <use style="stroke:#000000;stroke-width:0.8;" x="144" xlink:href="#m6beba5e24b" y="436.891664"/>
      </g>
     </g>
     <g id="text_11">
      <!-- 0.2 -->
      <defs>
       <path d="M 10.6875 12.40625 
L 21 12.40625 
L 21 0 
L 10.6875 0 
z
" id="DejaVuSans-46"/>
      </defs>
      <g transform="translate(121.096875 440.690882)scale(0.1 -0.1)">
       <use xlink:href="#DejaVuSans-48"/>
       <use x="63.623047" xlink:href="#DejaVuSans-46"/>
       <use x="95.410156" xlink:href="#DejaVuSans-50"/>
      </g>
     </g>
    </g>
    <g id="ytick_2">
     <g id="line2d_11">
      <g>
       <use style="stroke:#000000;stroke-width:0.8;" x="144" xlink:href="#m6beba5e24b" y="346.989343"/>
      </g>
     </g>
     <g id="text_12">
      <!-- 0.4 -->
      <g transform="translate(121.096875 350.788562)scale(0.1 -0.1)">
       <use xlink:href="#DejaVuSans-48"/>
       <use x="63.623047" xlink:href="#DejaVuSans-46"/>
       <use x="95.410156" xlink:href="#DejaVuSans-52"/>
      </g>
     </g>
    </g>
    <g id="ytick_3">
     <g id="line2d_12">
      <g>
       <use style="stroke:#000000;stroke-width:0.8;" x="144" xlink:href="#m6beba5e24b" y="257.087023"/>
      </g>
     </g>
     <g id="text_13">
      <!-- 0.6 -->
      <defs>
       <path d="M 33.015625 40.375 
Q 26.375 40.375 22.484375 35.828125 
Q 18.609375 31.296875 18.609375 23.390625 
Q 18.609375 15.53125 22.484375 10.953125 
Q 26.375 6.390625 33.015625 6.390625 
Q 39.65625 6.390625 43.53125 10.953125 
Q 47.40625 15.53125 47.40625 23.390625 
Q 47.40625 31.296875 43.53125 35.828125 
Q 39.65625 40.375 33.015625 40.375 
z
M 52.59375 71.296875 
L 52.59375 62.3125 
Q 48.875 64.0625 45.09375 64.984375 
Q 41.3125 65.921875 37.59375 65.921875 
Q 27.828125 65.921875 22.671875 59.328125 
Q 17.53125 52.734375 16.796875 39.40625 
Q 19.671875 43.65625 24.015625 45.921875 
Q 28.375 48.1875 33.59375 48.1875 
Q 44.578125 48.1875 50.953125 41.515625 
Q 57.328125 34.859375 57.328125 23.390625 
Q 57.328125 12.15625 50.6875 5.359375 
Q 44.046875 -1.421875 33.015625 -1.421875 
Q 20.359375 -1.421875 13.671875 8.265625 
Q 6.984375 17.96875 6.984375 36.375 
Q 6.984375 53.65625 15.1875 63.9375 
Q 23.390625 74.21875 37.203125 74.21875 
Q 40.921875 74.21875 44.703125 73.484375 
Q 48.484375 72.75 52.59375 71.296875 
z
" id="DejaVuSans-54"/>
      </defs>
      <g transform="translate(121.096875 260.886241)scale(0.1 -0.1)">
       <use xlink:href="#DejaVuSans-48"/>
       <use x="63.623047" xlink:href="#DejaVuSans-46"/>
       <use x="95.410156" xlink:href="#DejaVuSans-54"/>
      </g>
     </g>
    </g>
    <g id="ytick_4">
     <g id="line2d_13">
      <g>
       <use style="stroke:#000000;stroke-width:0.8;" x="144" xlink:href="#m6beba5e24b" y="167.184702"/>
      </g>
     </g>
     <g id="text_14">
      <!-- 0.8 -->
      <defs>
       <path d="M 31.78125 34.625 
Q 24.75 34.625 20.71875 30.859375 
Q 16.703125 27.09375 16.703125 20.515625 
Q 16.703125 13.921875 20.71875 10.15625 
Q 24.75 6.390625 31.78125 6.390625 
Q 38.8125 6.390625 42.859375 10.171875 
Q 46.921875 13.96875 46.921875 20.515625 
Q 46.921875 27.09375 42.890625 30.859375 
Q 38.875 34.625 31.78125 34.625 
z
M 21.921875 38.8125 
Q 15.578125 40.375 12.03125 44.71875 
Q 8.5 49.078125 8.5 55.328125 
Q 8.5 64.0625 14.71875 69.140625 
Q 20.953125 74.21875 31.78125 74.21875 
Q 42.671875 74.21875 48.875 69.140625 
Q 55.078125 64.0625 55.078125 55.328125 
Q 55.078125 49.078125 51.53125 44.71875 
Q 48 40.375 41.703125 38.8125 
Q 48.828125 37.15625 52.796875 32.3125 
Q 56.78125 27.484375 56.78125 20.515625 
Q 56.78125 9.90625 50.3125 4.234375 
Q 43.84375 -1.421875 31.78125 -1.421875 
Q 19.734375 -1.421875 13.25 4.234375 
Q 6.78125 9.90625 6.78125 20.515625 
Q 6.78125 27.484375 10.78125 32.3125 
Q 14.796875 37.15625 21.921875 38.8125 
z
M 18.3125 54.390625 
Q 18.3125 48.734375 21.84375 45.5625 
Q 25.390625 42.390625 31.78125 42.390625 
Q 38.140625 42.390625 41.71875 45.5625 
Q 45.3125 48.734375 45.3125 54.390625 
Q 45.3125 60.0625 41.71875 63.234375 
Q 38.140625 66.40625 31.78125 66.40625 
Q 25.390625 66.40625 21.84375 63.234375 
Q 18.3125 60.0625 18.3125 54.390625 
z
" id="DejaVuSans-56"/>
      </defs>
      <g transform="translate(121.096875 170.983921)scale(0.1 -0.1)">
       <use xlink:href="#DejaVuSans-48"/>
       <use x="63.623047" xlink:href="#DejaVuSans-46"/>
       <use x="95.410156" xlink:href="#DejaVuSans-56"/>
      </g>
     </g>
    </g>
    <g id="ytick_5">
     <g id="line2d_14">
      <g>
       <use style="stroke:#000000;stroke-width:0.8;" x="144" xlink:href="#m6beba5e24b" y="77.282382"/>
      </g>
     </g>
     <g id="text_15">
      <!-- 1.0 -->
      <g transform="translate(121.096875 81.0816)scale(0.1 -0.1)">
       <use xlink:href="#DejaVuSans-49"/>
       <use x="63.623047" xlink:href="#DejaVuSans-46"/>
       <use x="95.410156" xlink:href="#DejaVuSans-48"/>
      </g>
     </g>
    </g>
    <g id="text_16">
     <!-- Accuracy -->
     <defs>
      <path d="M 34.1875 63.1875 
L 20.796875 26.90625 
L 47.609375 26.90625 
z
M 28.609375 72.90625 
L 39.796875 72.90625 
L 67.578125 0 
L 57.328125 0 
L 50.6875 18.703125 
L 17.828125 18.703125 
L 11.1875 0 
L 0.78125 0 
z
" id="DejaVuSans-65"/>
      <path d="M 48.78125 52.59375 
L 48.78125 44.1875 
Q 44.96875 46.296875 41.140625 47.34375 
Q 37.3125 48.390625 33.40625 48.390625 
Q 24.65625 48.390625 19.8125 42.84375 
Q 14.984375 37.3125 14.984375 27.296875 
Q 14.984375 17.28125 19.8125 11.734375 
Q 24.65625 6.203125 33.40625 6.203125 
Q 37.3125 6.203125 41.140625 7.25 
Q 44.96875 8.296875 48.78125 10.40625 
L 48.78125 2.09375 
Q 45.015625 0.34375 40.984375 -0.53125 
Q 36.96875 -1.421875 32.421875 -1.421875 
Q 20.0625 -1.421875 12.78125 6.34375 
Q 5.515625 14.109375 5.515625 27.296875 
Q 5.515625 40.671875 12.859375 48.328125 
Q 20.21875 56 33.015625 56 
Q 37.15625 56 41.109375 55.140625 
Q 45.0625 54.296875 48.78125 52.59375 
z
" id="DejaVuSans-99"/>
      <path d="M 34.28125 27.484375 
Q 23.390625 27.484375 19.1875 25 
Q 14.984375 22.515625 14.984375 16.5 
Q 14.984375 11.71875 18.140625 8.90625 
Q 21.296875 6.109375 26.703125 6.109375 
Q 34.1875 6.109375 38.703125 11.40625 
Q 43.21875 16.703125 43.21875 25.484375 
L 43.21875 27.484375 
z
M 52.203125 31.203125 
L 52.203125 0 
L 43.21875 0 
L 43.21875 8.296875 
Q 40.140625 3.328125 35.546875 0.953125 
Q 30.953125 -1.421875 24.3125 -1.421875 
Q 15.921875 -1.421875 10.953125 3.296875 
Q 6 8.015625 6 15.921875 
Q 6 25.140625 12.171875 29.828125 
Q 18.359375 34.515625 30.609375 34.515625 
L 43.21875 34.515625 
L 43.21875 35.40625 
Q 43.21875 41.609375 39.140625 45 
Q 35.0625 48.390625 27.6875 48.390625 
Q 23 48.390625 18.546875 47.265625 
Q 14.109375 46.140625 10.015625 43.890625 
L 10.015625 52.203125 
Q 14.9375 54.109375 19.578125 55.046875 
Q 24.21875 56 28.609375 56 
Q 40.484375 56 46.34375 49.84375 
Q 52.203125 43.703125 52.203125 31.203125 
z
" id="DejaVuSans-97"/>
      <path d="M 32.171875 -5.078125 
Q 28.375 -14.84375 24.75 -17.8125 
Q 21.140625 -20.796875 15.09375 -20.796875 
L 7.90625 -20.796875 
L 7.90625 -13.28125 
L 13.1875 -13.28125 
Q 16.890625 -13.28125 18.9375 -11.515625 
Q 21 -9.765625 23.484375 -3.21875 
L 25.09375 0.875 
L 2.984375 54.6875 
L 12.5 54.6875 
L 29.59375 11.921875 
L 46.6875 54.6875 
L 56.203125 54.6875 
z
" id="DejaVuSans-121"/>
     </defs>
     <g transform="translate(115.017187 309.388125)rotate(-90)scale(0.1 -0.1)">
      <use xlink:href="#DejaVuSans-65"/>
      <use x="66.658203" xlink:href="#DejaVuSans-99"/>
      <use x="121.638672" xlink:href="#DejaVuSans-99"/>
      <use x="176.619141" xlink:href="#DejaVuSans-117"/>
      <use x="239.998047" xlink:href="#DejaVuSans-114"/>
      <use x="281.111328" xlink:href="#DejaVuSans-97"/>
      <use x="342.390625" xlink:href="#DejaVuSans-99"/>
      <use x="397.371094" xlink:href="#DejaVuSans-121"/>
     </g>
    </g>
   </g>
   <g id="line2d_15">
    <path clip-path="url(#p2deb8144c7)" d="M 184.581818 88.887273 
L 300.52987 88.887273 
L 302.564046 90.063495 
L 304.598223 90.303234 
L 306.632399 90.08597 
L 308.666576 90.310726 
L 310.700752 90.288251 
L 312.734928 89.80128 
L 314.769105 92.595743 
L 316.803281 92.243626 
L 318.837457 91.756655 
L 320.871634 93.682063 
L 322.90581 93.652096 
L 326.974163 93.86936 
L 329.008339 93.457307 
L 331.042515 94.760891 
L 333.076692 94.858285 
L 335.110868 95.36024 
L 337.145044 96.154377 
L 339.179221 96.671315 
L 341.213397 97.405518 
L 343.247573 98.334508 
L 345.28175 100.454705 
L 347.315926 101.578484 
L 349.350103 105.71399 
L 351.384279 106.725391 
L 353.418455 102.64982 
L 355.452632 102.432556 
L 359.520984 111.557641 
L 361.555161 111.287934 
L 363.589337 111.153081 
L 365.623513 115.423441 
L 367.65769 111.033211 
L 369.691866 112.299335 
L 371.726042 111.647544 
L 373.760219 109.879465 
L 375.794395 116.165135 
L 377.828571 114.232235 
L 379.862748 119.873606 
L 381.896924 118.80227 
L 383.9311 125.956996 
L 385.965277 128.361883 
L 387.999453 126.848528 
L 390.03363 124.188917 
L 392.067806 122.757972 
L 394.101982 125.822143 
L 396.136159 150.657659 
L 398.170335 147.660915 
L 400.204511 153.002611 
L 402.238688 153.167432 
L 404.272864 154.500983 
L 406.30704 160.914015 
L 408.341217 162.247566 
L 410.375393 161.85799 
L 412.409569 157.759942 
L 414.443746 159.258314 
L 416.477922 158.808803 
L 418.512098 165.828675 
L 420.546275 164.974603 
L 422.580451 161.992843 
L 424.614627 160.636816 
L 426.648804 157.902287 
L 428.68298 161.745612 
L 430.717157 156.838443 
L 432.751333 156.733557 
L 434.785509 157.744958 
L 436.819686 155.17525 
L 438.853862 156.733557 
L 440.888038 156.800984 
L 442.922215 156.418899 
L 444.956391 153.68437 
L 446.990567 148.777202 
L 449.024744 148.634857 
L 451.05892 149.945932 
L 453.093096 147.92313 
L 455.127273 149.526388 
L 457.161449 147.248862 
L 459.195625 150.605216 
L 461.229802 152.103588 
L 463.263978 157.115642 
L 465.298154 161.723136 
L 467.332331 159.063526 
L 469.366507 162.165156 
L 471.400684 161.932908 
L 473.43486 163.513691 
L 475.469036 164.405222 
L 477.503213 178.834544 
L 479.537389 178.032915 
L 481.571565 174.579168 
L 483.605742 188.101975 
L 485.639918 194.245301 
L 487.674094 186.34888 
L 489.708271 186.940737 
L 491.742447 190.0124 
L 493.776623 188.154418 
L 497.844976 202.50133 
L 499.879152 206.232277 
L 501.913329 217.612412 
L 503.947505 228.23587 
L 505.981681 226.145641 
L 508.015858 225.403946 
L 510.050034 234.221866 
L 512.084211 236.01242 
L 514.118387 235.877567 
L 516.152563 236.506883 
L 518.18674 230.798086 
L 520.220916 232.378868 
L 522.255092 229.614372 
L 524.289269 235.128381 
L 526.323445 237.900369 
L 528.357621 242.717635 
L 530.391798 251.985066 
L 532.425974 254.966826 
L 534.46015 259.034906 
L 536.494327 251.985066 
L 538.528503 260.885396 
L 540.562679 257.956078 
L 542.596856 259.978881 
L 544.631032 261.349891 
L 546.665208 261.38735 
L 548.699385 269.186377 
L 550.733561 271.718625 
L 552.767738 276.296152 
L 554.801914 274.213415 
L 556.83609 267.635562 
L 558.870267 282.424493 
L 560.904443 287.758698 
L 562.938619 288.957395 
L 564.972796 288.485408 
L 567.006972 290.006256 
L 569.041148 296.127105 
L 571.075325 296.479223 
L 573.109501 300.240136 
L 575.143677 300.524827 
L 577.177854 298.689321 
L 579.21203 296.703979 
L 581.246206 299.296162 
L 583.280383 289.511793 
L 585.314559 285.705928 
L 587.348735 286.934593 
L 589.382912 285.18899 
L 591.417088 286.545016 
L 593.451265 284.462279 
L 595.485441 294.486388 
L 597.519617 299.633296 
L 599.553794 298.074989 
L 601.58797 303.191929 
L 603.622146 300.097791 
L 605.656323 298.584435 
L 607.690499 287.616352 
L 609.724675 290.290946 
L 611.758852 287.638828 
L 613.793028 293.504954 
L 615.827204 292.96554 
L 617.861381 295.003326 
L 619.895557 298.576944 
L 621.929733 312.669132 
L 623.96391 308.174016 
L 625.998086 312.549262 
L 628.032262 307.499749 
L 630.066439 306.585742 
L 632.100615 316.669786 
L 634.134792 321.756758 
L 636.168968 332.125493 
L 638.203144 334.522888 
L 640.237321 348.577617 
L 644.305673 359.320945 
L 646.33985 358.204658 
L 648.374026 359.935277 
L 650.408202 362.976972 
L 652.442379 362.205311 
L 654.476555 360.901727 
L 656.510731 356.099445 
L 658.544908 356.301725 
L 660.579084 355.155471 
L 662.61326 360.115082 
L 664.647437 361.4786 
L 666.681613 358.796515 
L 668.715789 364.250589 
L 670.749966 364.512804 
L 672.784142 368.281209 
L 674.818319 364.647657 
L 676.852495 353.739509 
L 678.886671 357.545374 
L 680.920848 355.155471 
L 682.955024 358.901401 
L 684.9892 355.320291 
L 687.023377 363.291631 
L 689.057553 357.620293 
L 691.091729 359.673062 
L 693.125906 365.659058 
L 695.160082 370.633653 
L 697.194258 378.140497 
L 699.228435 380.627795 
L 701.262611 371.480234 
L 703.296787 370.813458 
L 705.330964 364.775019 
L 707.36514 369.247659 
L 709.399316 371.375348 
L 711.433493 369.487399 
L 715.501846 372.371765 
L 717.536022 374.064925 
L 719.570198 376.799454 
L 721.604375 380.987404 
L 723.638551 380.957437 
L 725.672727 378.500106 
L 727.706904 375.443428 
L 729.74108 379.369162 
L 731.775256 383.579588 
L 733.809433 381.09229 
L 735.843609 376.237565 
L 737.877785 378.088054 
L 739.911962 376.432353 
L 741.946138 378.185448 
L 743.980314 376.282516 
L 746.014491 379.998478 
L 748.048667 379.878609 
L 750.082843 378.934634 
L 752.11702 381.519326 
L 754.151196 382.575678 
L 756.185373 382.193593 
L 758.219549 382.658089 
L 760.253725 382.395874 
L 762.287902 384.463627 
L 764.322078 384.538546 
L 766.356254 383.272421 
L 768.390431 383.579588 
L 770.424607 382.148642 
L 772.458783 383.781868 
L 774.49296 386.216722 
L 776.527136 386.546364 
L 778.561312 389.745388 
L 780.595489 391.60337 
L 782.629665 390.412164 
L 784.663841 395.821287 
L 786.698018 399.012819 
L 788.732194 399.012819 
L 790.76637 399.492298 
L 792.800547 397.829105 
L 794.834723 401.575035 
L 796.8689 404.234646 
L 798.903076 401.530084 
L 800.937252 400.855817 
L 802.971429 400.945719 
L 805.005605 407.403703 
L 807.039781 406.512171 
L 809.073958 405.290998 
L 811.108134 407.171455 
L 813.14231 410.362987 
L 815.176487 414.176344 
L 817.210663 415.285139 
L 819.244839 412.917712 
L 821.279016 412.086115 
L 823.313192 412.415757 
L 825.347368 412.003705 
L 827.381545 410.265593 
L 829.415721 411.276994 
L 831.449897 413.164943 
L 833.484074 412.91022 
L 835.51825 416.386443 
L 837.552427 418.506639 
L 839.586603 418.948659 
L 841.620779 417.839864 
L 843.654956 419.43563 
L 845.689132 412.827809 
L 847.723308 416.94084 
L 849.757485 419.031069 
L 851.791661 427.436936 
L 853.825837 429.781888 
L 855.860014 430.178957 
L 857.89419 432.314137 
L 859.928366 433.887428 
L 861.962543 432.448991 
L 863.996719 432.141824 
L 866.030895 429.647035 
L 868.065072 426.373092 
L 870.099248 424.852245 
L 872.133424 427.414461 
L 874.167601 428.403386 
L 876.201777 423.90827 
L 878.235954 422.477325 
L 880.27013 425.51902 
L 882.304306 424.582538 
L 884.338483 424.612505 
L 886.372659 425.766251 
L 888.406835 425.346707 
L 890.441012 426.313157 
L 892.475188 424.417717 
L 896.543541 424.327814 
L 898.577717 425.901105 
L 900.611893 428.590683 
L 902.64607 432.748665 
L 904.680246 433.984822 
L 906.714422 433.505343 
L 908.748599 435.295897 
L 910.782775 434.50176 
L 912.816951 440.367887 
L 914.851128 437.738244 
L 916.885304 442.31577 
L 918.919481 444.720657 
L 920.953657 446.481245 
L 922.987833 443.934012 
L 925.02201 442.323262 
L 927.056186 442.652904 
L 929.090362 443.769191 
L 931.124539 445.050299 
L 933.158715 447.634991 
L 935.192891 448.848672 
L 937.227068 450.661702 
L 939.261244 451.74053 
L 941.29542 456.677666 
L 943.329597 454.789717 
L 945.363773 453.486134 
L 947.397949 454.707307 
L 949.432126 449.328151 
L 951.466302 450.564308 
L 953.500478 452.137599 
L 955.534655 449.702744 
L 957.568831 444.061374 
L 959.603008 443.626846 
L 961.637184 448.339226 
L 963.67136 448.511539 
L 965.705537 454.055515 
L 967.739713 453.815775 
L 969.773889 451.635644 
L 971.808066 454.827177 
L 973.842242 452.257469 
L 977.910595 455.696232 
L 981.978947 458.116103 
L 984.013124 457.906331 
L 986.0473 458.445745 
L 988.081476 459.23239 
L 990.115653 460.678319 
L 992.149829 464.499168 
L 994.184005 465.016106 
L 996.218182 464.027181 
L 996.218182 464.027181 
" style="fill:none;stroke:#1f77b4;stroke-linecap:square;stroke-width:1.5;"/>
   </g>
   <g id="line2d_16">
    <path clip-path="url(#p2deb8144c7)" d="M 184.581818 88.887273 
L 300.52987 88.887273 
L 302.564046 89.164472 
L 308.666576 89.726361 
L 314.769105 91.367078 
L 322.90581 93.322454 
L 324.939986 94.603562 
L 326.974163 94.4762 
L 329.008339 95.352748 
L 333.076692 95.435158 
L 335.110868 94.461217 
L 337.145044 95.300305 
L 339.179221 96.536462 
L 341.213397 96.948514 
L 343.247573 96.723758 
L 345.28175 97.892489 
L 347.315926 98.431902 
L 349.350103 99.907799 
L 351.384279 101.166431 
L 353.418455 101.331252 
L 355.452632 101.668386 
L 357.486808 102.132881 
L 359.520984 102.380113 
L 361.555161 102.425064 
L 363.589337 103.37653 
L 365.623513 103.084348 
L 367.65769 101.975552 
L 369.691866 101.518549 
L 371.726042 103.241677 
L 373.760219 102.942002 
L 375.794395 104.298029 
L 377.828571 105.863828 
L 379.862748 106.35829 
L 383.9311 108.463503 
L 385.965277 110.808455 
L 387.999453 113.595427 
L 390.03363 114.591845 
L 392.067806 113.100964 
L 394.101982 115.753083 
L 396.136159 114.464483 
L 398.170335 117.116601 
L 400.204511 121.304551 
L 402.238688 123.289894 
L 404.272864 124.368722 
L 406.30704 130.939083 
L 408.341217 134.482733 
L 410.375393 134.729964 
L 412.409569 135.329313 
L 414.443746 134.917261 
L 416.477922 137.404558 
L 418.512098 144.327037 
L 420.546275 146.43225 
L 424.614627 153.294794 
L 426.648804 153.182416 
L 428.68298 157.63258 
L 430.717157 163.760922 
L 432.751333 169.22998 
L 434.785509 169.75441 
L 438.853862 179.666141 
L 440.888038 183.65181 
L 442.922215 194.972011 
L 444.956391 195.968428 
L 446.990567 199.804261 
L 449.024744 205.205892 
L 451.05892 201.21273 
L 453.093096 209.38635 
L 455.127273 207.550844 
L 457.161449 204.928693 
L 459.195625 201.842047 
L 461.229802 207.910453 
L 463.263978 206.771691 
L 465.298154 212.188305 
L 467.332331 210.510129 
L 471.400684 213.147263 
L 475.469036 202.905891 
L 477.503213 209.513711 
L 479.537389 210.525112 
L 481.571565 210.9971 
L 483.605742 206.389606 
L 485.639918 205.333253 
L 487.674094 209.835861 
L 489.708271 206.134882 
L 491.742447 207.588303 
L 493.776623 211.386676 
L 495.8108 207.843027 
L 497.844976 205.355729 
L 499.879152 205.438139 
L 501.913329 209.14661 
L 503.947505 216.586027 
L 505.981681 214.09873 
L 508.015858 214.106222 
L 510.050034 216.750848 
L 512.084211 221.575606 
L 514.118387 222.826747 
L 516.152563 225.029353 
L 518.18674 231.757044 
L 520.220916 242.500371 
L 522.255092 250.381808 
L 524.289269 262.571064 
L 526.323445 264.301684 
L 528.357621 268.422207 
L 530.391798 269.995497 
L 532.425974 269.343706 
L 534.46015 268.377256 
L 536.494327 276.431005 
L 538.528503 278.01928 
L 540.562679 272.894847 
L 542.596856 269.073999 
L 544.631032 276.273676 
L 546.665208 282.027425 
L 548.699385 278.311462 
L 550.733561 279.113091 
L 552.767738 283.323516 
L 554.801914 282.903972 
L 556.83609 285.099087 
L 558.870267 291.085083 
L 562.938619 307.874342 
L 564.972796 314.294866 
L 567.006972 315.823205 
L 569.041148 317.538841 
L 571.075325 319.411806 
L 573.109501 326.881191 
L 575.143677 329.25611 
L 577.177854 326.911158 
L 579.21203 328.439498 
L 581.246206 330.252528 
L 583.280383 328.784123 
L 585.314559 328.312136 
L 587.348735 335.414419 
L 589.382912 336.358394 
L 591.417088 342.913771 
L 593.451265 341.894878 
L 595.485441 351.829085 
L 597.519617 351.297163 
L 599.553794 347.506281 
L 601.58797 344.427127 
L 603.622146 338.740805 
L 607.690499 332.03559 
L 609.724675 336.231032 
L 611.758852 332.147968 
L 613.793028 333.511487 
L 615.827204 337.18999 
L 617.861381 348.083155 
L 619.895557 344.92159 
L 621.929733 341.295529 
L 623.96391 349.866217 
L 625.998086 347.289018 
L 628.032262 341.602696 
L 630.066439 340.786083 
L 632.100615 335.93885 
L 634.134792 332.118001 
L 636.168968 333.0395 
L 638.203144 336.792922 
L 642.271497 353.132668 
L 644.305673 355.964591 
L 646.33985 359.365896 
L 648.374026 354.353842 
L 650.408202 353.394883 
L 652.442379 350.128432 
L 654.476555 353.072733 
L 656.510731 355.335275 
L 658.544908 361.658405 
L 660.579084 369.622252 
L 662.61326 365.883814 
L 664.647437 366.295866 
L 666.681613 367.554499 
L 668.715789 367.929092 
L 670.749966 366.985118 
L 672.784142 371.734957 
L 674.818319 379.211833 
L 676.852495 376.334959 
L 678.886671 383.961672 
L 680.920848 384.343757 
L 682.955024 382.613138 
L 684.9892 395.214446 
L 687.023377 402.234319 
L 689.057553 395.836271 
L 691.091729 391.56591 
L 693.125906 392.599787 
L 695.160082 394.809886 
L 699.228435 396.180896 
L 701.262611 394.98969 
L 703.296787 392.914445 
L 705.330964 389.685454 
L 707.36514 396.173404 
L 709.399316 403.095883 
L 711.433493 406.047676 
L 713.467669 406.22748 
L 715.501846 407.51608 
L 717.536022 407.883182 
L 719.570198 410.65517 
L 721.604375 416.079276 
L 725.672727 423.271462 
L 727.706904 424.649964 
L 729.74108 429.167556 
L 731.775256 431.212834 
L 733.809433 431.370163 
L 735.843609 425.062017 
L 737.877785 424.177977 
L 739.911962 424.387749 
L 741.946138 423.076674 
L 746.014491 422.567227 
L 750.082843 420.237259 
L 752.11702 418.626509 
L 754.151196 419.098496 
L 756.185373 422.642146 
L 758.219549 425.421626 
L 760.253725 427.257132 
L 762.287902 434.172118 
L 764.322078 429.459738 
L 766.356254 436.726843 
L 768.390431 436.247364 
L 770.424607 439.940851 
L 772.458783 444.735641 
L 774.49296 444.780592 
L 776.527136 447.79232 
L 778.561312 448.047043 
L 780.595489 445.926847 
L 784.663841 449.388086 
L 786.698018 454.182877 
L 790.76637 457.793953 
L 792.800547 460.933043 
L 794.834723 461.030437 
L 796.8689 462.558776 
L 798.903076 461.60731 
L 800.937252 463.637604 
L 802.971429 463.907311 
L 805.005605 466.387117 
L 807.039781 467.293632 
L 809.073958 467.316107 
L 811.108134 468.57474 
L 813.14231 469.6236 
L 815.176487 469.166597 
L 817.210663 468.559756 
L 819.244839 468.732069 
L 821.279016 464.079624 
L 823.313192 464.214477 
L 825.347368 463.570177 
L 827.381545 462.356496 
L 831.449897 458.812846 
L 833.484074 458.790371 
L 835.51825 457.951282 
L 837.552427 456.587764 
L 839.586603 455.763659 
L 841.620779 459.239882 
L 843.654956 458.235973 
L 845.689132 459.524573 
L 847.723308 462.214151 
L 849.757485 463.914803 
L 851.791661 464.102099 
L 853.825837 462.13174 
L 855.860014 460.977994 
L 857.89419 460.8806 
L 859.928366 458.408286 
L 861.962543 461.315127 
L 863.996719 463.150633 
L 866.030895 464.012197 
L 868.065072 464.289396 
L 870.099248 463.869852 
L 872.133424 463.967246 
L 874.167601 464.761383 
L 876.201777 468.522297 
L 878.235954 468.89689 
L 880.27013 469.046727 
L 882.304306 467.435977 
L 884.338483 467.683208 
L 886.372659 469.42132 
L 888.406835 469.436304 
L 890.441012 469.631092 
L 892.475188 468.387443 
L 894.509364 469.136629 
L 896.543541 469.728486 
L 900.611893 469.121646 
L 902.64607 468.956825 
L 904.680246 467.383534 
L 906.714422 470.050636 
L 908.748599 470.605034 
L 910.782775 470.620018 
L 912.816951 469.938258 
L 914.851128 474.410899 
L 916.885304 474.306013 
L 918.919481 475.534678 
L 920.953657 475.347381 
L 922.987833 474.98028 
L 925.02201 473.886469 
L 927.056186 473.511876 
L 929.090362 477.977024 
L 931.124539 477.145428 
L 933.158715 475.249987 
L 935.192891 476.868229 
L 937.227068 478.681259 
L 939.261244 477.63989 
L 941.29542 477.812203 
L 943.329597 478.546405 
L 945.363773 478.501454 
L 947.397949 479.737611 
L 949.432126 481.475723 
L 951.466302 479.602758 
L 953.500478 475.804385 
L 957.568831 472.905035 
L 959.603008 483.835659 
L 961.637184 484.225235 
L 963.67136 484.232727 
L 965.705537 484.007971 
L 967.739713 482.71188 
L 969.773889 481.895267 
L 971.808066 479.407969 
L 973.842242 479.939891 
L 975.876418 479.805038 
L 977.910595 477.340216 
L 979.944771 478.20178 
L 981.978947 478.089402 
L 984.013124 479.063344 
L 986.0473 478.628816 
L 988.081476 478.733702 
L 990.115653 471.616435 
L 992.149829 471.601451 
L 994.184005 471.856174 
L 996.218182 473.174742 
L 996.218182 473.174742 
" style="fill:none;stroke:#ff7f0e;stroke-linecap:square;stroke-width:1.5;"/>
   </g>
   <g id="line2d_17">
    <path clip-path="url(#p2deb8144c7)" d="M 184.581818 88.887273 
L 300.52987 88.887273 
L 302.564046 89.164472 
L 312.734928 89.943625 
L 314.769105 90.280759 
L 316.803281 90.865124 
L 318.837457 90.288251 
L 320.871634 90.625384 
L 322.90581 90.542974 
L 331.042515 91.49444 
L 333.076692 91.419521 
L 335.110868 91.651769 
L 337.145044 92.303561 
L 339.179221 92.348512 
L 341.213397 93.037763 
L 343.247573 93.1876 
L 345.28175 94.116591 
L 347.315926 93.959262 
L 349.350103 94.970663 
L 353.418455 95.712357 
L 355.452632 95.64493 
L 357.486808 96.20682 
L 361.555161 97.735159 
L 363.589337 97.952423 
L 365.623513 98.716593 
L 367.65769 97.929948 
L 369.691866 97.450469 
L 371.726042 98.13972 
L 373.760219 98.709101 
L 375.794395 99.098678 
L 377.828571 99.877831 
L 379.862748 99.742978 
L 381.896924 101.031578 
L 383.9311 102.065455 
L 385.965277 102.462523 
L 387.999453 103.384022 
L 390.03363 104.957313 
L 392.067806 107.070017 
L 394.101982 108.980441 
L 396.136159 108.29119 
L 398.170335 106.208453 
L 400.204511 108.500962 
L 402.238688 107.467086 
L 404.272864 109.070344 
L 406.30704 107.197379 
L 408.341217 108.643308 
L 410.375393 107.601939 
L 412.409569 108.740702 
L 414.443746 107.437118 
L 416.477922 109.90194 
L 420.546275 115.850477 
L 422.580451 114.539402 
L 426.648804 122.390871 
L 428.68298 126.863511 
L 430.717157 129.493154 
L 432.751333 129.433219 
L 434.785509 127.14071 
L 436.819686 126.930938 
L 438.853862 123.851784 
L 440.888038 123.087614 
L 442.922215 121.154714 
L 444.956391 125.544944 
L 446.990567 122.608135 
L 449.024744 123.866767 
L 453.093096 127.717583 
L 455.127273 130.534523 
L 457.161449 129.942666 
L 459.195625 129.732894 
L 461.229802 127.305531 
L 463.263978 127.552762 
L 465.298154 126.37654 
L 467.332331 127.432893 
L 469.366507 131.545924 
L 471.400684 133.711071 
L 473.43486 132.070354 
L 475.469036 127.672632 
L 477.503213 133.920843 
L 479.537389 133.366446 
L 481.571565 135.112049 
L 483.605742 138.423451 
L 485.639918 135.119541 
L 487.674094 141.337785 
L 489.708271 141.412703 
L 491.742447 138.033875 
L 493.776623 136.213353 
L 495.8108 137.029965 
L 497.844976 141.15798 
L 499.879152 142.761238 
L 501.913329 141.83974 
L 503.947505 144.072314 
L 505.981681 144.252118 
L 508.015858 147.099025 
L 510.050034 147.061566 
L 512.084211 151.421829 
L 514.118387 152.927692 
L 516.152563 147.983065 
L 518.18674 150.717594 
L 520.220916 152.343327 
L 522.255092 149.473945 
L 524.289269 150.46287 
L 526.323445 152.590559 
L 528.357621 150.665151 
L 530.391798 153.549517 
L 532.425974 158.082092 
L 534.46015 158.381766 
L 536.494327 163.768414 
L 540.562679 171.694802 
L 542.596856 172.758646 
L 544.631032 172.945942 
L 546.665208 184.798065 
L 548.699385 189.428035 
L 550.733561 192.087645 
L 554.801914 211.206872 
L 556.83609 204.359312 
L 558.870267 206.794166 
L 560.904443 214.892867 
L 562.938619 215.050196 
L 564.972796 211.454103 
L 567.006972 218.106875 
L 569.041148 218.706224 
L 571.075325 235.330661 
L 573.109501 246.553467 
L 575.143677 248.224152 
L 577.177854 254.412429 
L 579.21203 261.012757 
L 581.246206 260.106242 
L 583.280383 270.392566 
L 585.314559 274.415695 
L 587.348735 277.315045 
L 589.382912 276.438497 
L 591.417088 278.50625 
L 593.451265 274.258366 
L 595.485441 268.67693 
L 597.519617 269.860644 
L 599.553794 270.707224 
L 601.58797 270.152827 
L 603.622146 271.119276 
L 605.656323 262.758361 
L 607.690499 264.541423 
L 609.724675 271.89843 
L 611.758852 268.572044 
L 613.793028 277.966837 
L 615.827204 279.352831 
L 619.895557 290.051207 
L 621.929733 299.977921 
L 623.96391 299.378573 
L 625.998086 304.458054 
L 628.032262 305.454471 
L 630.066439 299.798117 
L 632.100615 298.704305 
L 634.134792 295.42287 
L 636.168968 298.157399 
L 638.203144 298.11994 
L 640.237321 297.782806 
L 642.271497 286.350228 
L 644.305673 287.114398 
L 646.33985 290.418308 
L 648.374026 300.674664 
L 650.408202 304.330692 
L 652.442379 310.196818 
L 654.476555 308.076622 
L 656.510731 316.272717 
L 658.544908 316.257733 
L 662.61326 314.691934 
L 666.681613 331.458717 
L 668.715789 333.908555 
L 670.749966 339.047971 
L 672.784142 331.818327 
L 674.818319 328.791615 
L 676.852495 336.995202 
L 678.886671 340.920936 
L 680.920848 339.774682 
L 682.955024 348.487715 
L 684.9892 347.13918 
L 687.023377 346.382502 
L 689.057553 349.057096 
L 691.091729 352.765567 
L 693.125906 357.44798 
L 695.160082 360.75189 
L 697.194258 358.114755 
L 699.228435 362.392607 
L 701.262611 364.947332 
L 703.296787 364.745051 
L 705.330964 363.381533 
L 707.36514 370.528767 
L 709.399316 369.33007 
L 711.433493 374.791636 
L 713.467669 371.997172 
L 715.501846 367.389678 
L 717.536022 370.289028 
L 719.570198 372.124534 
L 721.604375 372.761342 
L 723.638551 380.140824 
L 725.672727 388.78643 
L 727.706904 392.390015 
L 729.74108 390.95907 
L 731.775256 393.438875 
L 733.809433 390.532034 
L 735.843609 390.27731 
L 737.877785 395.596531 
L 739.911962 397.476988 
L 741.946138 395.544088 
L 743.980314 396.008583 
L 746.014491 398.600767 
L 748.048667 398.862982 
L 750.082843 403.725199 
L 752.11702 404.549304 
L 754.151196 407.860706 
L 756.185373 411.441815 
L 758.219549 411.988721 
L 760.253725 411.142141 
L 762.287902 409.171781 
L 764.322078 408.16038 
L 766.356254 405.253539 
L 768.390431 407.291325 
L 770.424607 410.198166 
L 772.458783 419.990027 
L 774.49296 412.767874 
L 776.527136 423.286446 
L 778.561312 421.353546 
L 780.595489 427.77407 
L 782.629665 426.013483 
L 784.663841 428.613158 
L 786.698018 434.674073 
L 788.732194 432.1643 
L 790.76637 432.194267 
L 792.800547 431.752248 
L 794.834723 432.733681 
L 796.8689 436.11251 
L 798.903076 437.940524 
L 800.937252 440.487756 
L 802.971429 441.06463 
L 805.005605 444.106325 
L 807.039781 446.893297 
L 809.073958 449.425546 
L 811.108134 445.889388 
L 813.14231 448.848672 
L 815.176487 443.84411 
L 817.210663 441.236942 
L 819.244839 441.132056 
L 821.279016 438.914466 
L 825.347368 440.457789 
L 827.381545 441.58906 
L 829.415721 443.005021 
L 831.449897 444.89297 
L 835.51825 443.934012 
L 837.552427 445.582221 
L 839.586603 445.851928 
L 841.620779 446.234013 
L 843.654956 446.481245 
L 845.689132 443.889061 
L 847.723308 447.020658 
L 849.757485 447.073101 
L 851.791661 448.039551 
L 853.825837 448.077011 
L 855.860014 449.957468 
L 857.89419 447.732385 
L 859.928366 444.510885 
L 861.962543 449.994927 
L 863.996719 445.080267 
L 866.030895 446.376358 
L 868.065072 446.885805 
L 870.099248 448.623916 
L 872.133424 453.35128 
L 874.167601 450.646719 
L 876.201777 449.343135 
L 878.235954 450.324569 
L 880.27013 451.830433 
L 882.304306 452.092648 
L 884.338483 452.137599 
L 886.372659 443.874077 
L 888.406835 445.447368 
L 890.441012 451.822941 
L 892.475188 453.658446 
L 894.509364 452.976687 
L 896.543541 454.684831 
L 898.577717 455.006981 
L 900.611893 447.3503 
L 902.64607 449.732712 
L 904.680246 455.141835 
L 906.714422 453.718381 
L 908.748599 461.150306 
L 910.782775 457.09721 
L 912.816951 448.11447 
L 914.851128 448.43662 
L 916.885304 448.309258 
L 918.919481 449.043461 
L 920.953657 458.003725 
L 922.987833 451.073755 
L 925.02201 454.332714 
L 927.056186 456.730109 
L 929.090362 453.343788 
L 931.124539 453.733365 
L 935.192891 453.950629 
L 937.227068 457.846396 
L 939.261244 457.786461 
L 941.29542 456.280597 
L 943.329597 457.29949 
L 945.363773 461.247701 
L 947.397949 457.883855 
L 949.432126 459.112521 
L 951.466302 457.704051 
L 953.500478 456.437927 
L 955.534655 460.431088 
L 957.568831 459.666918 
L 959.603008 459.060078 
L 961.637184 459.067569 
L 963.67136 459.202423 
L 965.705537 459.659426 
L 967.739713 462.97832 
L 969.773889 472.305686 
L 971.808066 471.166923 
L 973.842242 470.987119 
L 975.876418 472.313178 
L 977.910595 471.069529 
L 979.944771 470.177998 
L 981.978947 469.668551 
L 984.013124 469.893307 
L 986.0473 471.976044 
L 990.115653 471.841191 
L 992.149829 471.563992 
L 994.184005 471.496565 
L 996.218182 472.163341 
L 996.218182 472.163341 
" style="fill:none;stroke:#2ca02c;stroke-linecap:square;stroke-width:1.5;"/>
   </g>
   <g id="line2d_18">
    <path clip-path="url(#p2deb8144c7)" d="M 184.581818 88.887273 
L 300.52987 88.887273 
L 302.564046 89.164472 
L 308.666576 89.726361 
L 322.90581 93.322454 
L 326.974163 93.22506 
L 329.008339 94.461217 
L 331.042515 95.397699 
L 333.076692 95.435158 
L 335.110868 94.461217 
L 339.179221 95.375224 
L 341.213397 96.32669 
L 343.247573 97.510404 
L 345.28175 98.911381 
L 347.315926 100.020177 
L 349.350103 101.293793 
L 353.418455 101.863174 
L 355.452632 101.668386 
L 357.486808 101.945585 
L 359.520984 102.837116 
L 361.555161 102.912035 
L 363.589337 103.37653 
L 365.623513 103.084348 
L 367.65769 101.975552 
L 369.691866 101.518549 
L 371.726042 103.241677 
L 373.760219 102.942002 
L 375.794395 104.013338 
L 377.828571 104.530277 
L 379.862748 106.238421 
L 381.896924 104.642654 
L 383.9311 105.459267 
L 385.965277 107.032558 
L 387.999453 108.043959 
L 394.101982 115.753083 
L 396.136159 114.464483 
L 398.170335 117.116601 
L 400.204511 121.304551 
L 402.238688 122.353412 
L 404.272864 123.27491 
L 406.30704 125.072957 
L 408.341217 124.548527 
L 410.375393 124.76579 
L 412.409569 128.02475 
L 414.443746 130.317259 
L 416.477922 137.404558 
L 418.512098 139.112702 
L 420.546275 143.982411 
L 422.580451 148.267755 
L 424.614627 152.980135 
L 426.648804 153.72183 
L 428.68298 162.839423 
L 430.717157 165.326721 
L 432.751333 166.09089 
L 434.785509 169.75441 
L 436.819686 168.308481 
L 438.853862 171.837147 
L 440.888038 175.672979 
L 442.922215 179.94334 
L 444.956391 185.487316 
L 449.024744 181.396761 
L 451.05892 182.295784 
L 453.093096 177.066465 
L 455.127273 174.773956 
L 457.161449 180.924773 
L 459.195625 179.164186 
L 461.229802 174.38438 
L 463.263978 170.361251 
L 465.298154 178.699691 
L 467.332331 185.801974 
L 469.366507 187.083082 
L 471.400684 186.049206 
L 473.43486 190.431944 
L 475.469036 197.039764 
L 477.503213 198.643022 
L 479.537389 205.056055 
L 481.571565 203.842373 
L 483.605742 204.906217 
L 485.639918 205.333253 
L 487.674094 209.056708 
L 489.708271 205.655403 
L 491.742447 206.846609 
L 493.776623 203.767455 
L 495.8108 207.843027 
L 497.844976 204.831299 
L 499.879152 204.846282 
L 501.913329 208.509802 
L 503.947505 214.638144 
L 505.981681 212.495472 
L 508.015858 216.998079 
L 510.050034 219.590263 
L 512.084211 221.066159 
L 514.118387 228.820235 
L 516.152563 231.277565 
L 518.18674 231.757044 
L 520.220916 242.500371 
L 522.255092 245.871708 
L 524.289269 248.299071 
L 526.323445 244.06617 
L 528.357621 243.339459 
L 530.391798 245.31731 
L 532.425974 252.899073 
L 534.46015 262.840771 
L 536.494327 259.259662 
L 538.528503 259.072365 
L 540.562679 261.140119 
L 542.596856 268.467158 
L 544.631032 264.174322 
L 546.665208 272.317974 
L 548.699385 272.602665 
L 550.733561 276.955435 
L 552.767738 283.323516 
L 554.801914 285.788338 
L 556.83609 295.370427 
L 558.870267 294.17173 
L 560.904443 299.550885 
L 562.938619 297.048604 
L 564.972796 299.123849 
L 567.006972 306.877924 
L 569.041148 309.440141 
L 573.109501 306.293559 
L 575.143677 303.319291 
L 577.177854 311.155777 
L 579.21203 305.057402 
L 581.246206 312.451868 
L 583.280383 313.163595 
L 585.314559 315.418645 
L 587.348735 320.460667 
L 589.382912 324.798454 
L 591.417088 323.015391 
L 593.451265 322.161319 
L 595.485441 317.126789 
L 597.519617 318.153174 
L 599.553794 326.83624 
L 601.58797 336.418329 
L 603.622146 335.49683 
L 605.656323 333.878588 
L 607.690499 329.398456 
L 609.724675 326.214415 
L 611.758852 325.809855 
L 613.793028 332.972073 
L 615.827204 329.653179 
L 617.861381 333.301715 
L 619.895557 334.492921 
L 621.929733 337.886733 
L 623.96391 336.02126 
L 625.998086 332.260346 
L 628.032262 331.788359 
L 630.066439 339.714747 
L 632.100615 333.736243 
L 634.134792 329.308553 
L 636.168968 337.332336 
L 638.203144 338.148948 
L 640.237321 335.624191 
L 642.271497 339.512467 
L 644.305673 348.150581 
L 646.33985 344.127453 
L 648.374026 347.910842 
L 650.408202 350.667846 
L 652.442379 350.128432 
L 654.476555 351.746674 
L 656.510731 347.865891 
L 658.544908 351.859052 
L 660.579084 357.65026 
L 662.61326 354.009216 
L 664.647437 362.257754 
L 666.681613 363.014432 
L 668.715789 364.685117 
L 670.749966 363.314106 
L 672.784142 368.44603 
L 674.818319 367.359711 
L 678.886671 368.992936 
L 680.920848 368.88805 
L 682.955024 374.439518 
L 684.9892 381.29457 
L 687.023377 393.483827 
L 689.057553 387.572749 
L 691.091729 388.38187 
L 693.125906 393.281546 
L 695.160082 400.14409 
L 697.194258 398.593275 
L 699.228435 401.425198 
L 701.262611 399.387412 
L 703.296787 405.171128 
L 705.330964 407.815755 
L 707.36514 406.519663 
L 709.399316 406.249956 
L 711.433493 407.471129 
L 713.467669 402.751257 
L 715.501846 400.308911 
L 717.536022 401.912169 
L 719.570198 406.856797 
L 721.604375 409.344094 
L 723.638551 409.883508 
L 725.672727 412.280903 
L 727.706904 411.801424 
L 729.74108 415.727159 
L 731.775256 419.360711 
L 733.809433 417.854847 
L 735.843609 419.165923 
L 737.877785 418.918691 
L 739.911962 417.667551 
L 741.946138 417.457779 
L 743.980314 421.33107 
L 746.014491 421.24866 
L 748.048667 421.428465 
L 750.082843 428.9428 
L 752.11702 427.556806 
L 754.151196 427.998826 
L 756.185373 427.33205 
L 758.219549 428.980259 
L 760.253725 425.264297 
L 762.287902 426.934982 
L 764.322078 433.97733 
L 766.356254 433.820001 
L 768.390431 436.247364 
L 770.424607 436.651924 
L 772.458783 441.843783 
L 774.49296 445.042807 
L 778.561312 452.032713 
L 780.595489 451.088738 
L 782.629665 453.501117 
L 784.663841 454.092974 
L 786.698018 456.512845 
L 788.732194 457.838904 
L 790.76637 460.333694 
L 792.800547 464.38679 
L 794.834723 465.428159 
L 796.8689 465.907638 
L 798.903076 465.922621 
L 800.937252 466.604381 
L 802.971429 469.009268 
L 805.005605 468.956825 
L 807.039781 469.129137 
L 809.073958 466.357149 
L 811.108134 466.499495 
L 813.14231 464.978647 
L 815.176487 463.794933 
L 817.210663 464.221969 
L 819.244839 465.1135 
L 821.279016 463.435324 
L 823.313192 462.783532 
L 825.347368 463.210568 
L 827.381545 462.806008 
L 829.415721 464.079624 
L 831.449897 463.307962 
L 833.484074 462.69363 
L 835.51825 465.915129 
L 837.552427 464.296888 
L 839.586603 463.263011 
L 841.620779 463.869852 
L 843.654956 461.682229 
L 845.689132 462.513825 
L 847.723308 462.416431 
L 849.757485 462.993304 
L 851.791661 463.277995 
L 853.825837 465.7578 
L 855.860014 465.053566 
L 857.89419 464.034673 
L 859.928366 464.641513 
L 861.962543 467.031417 
L 863.996719 468.821971 
L 866.030895 468.484837 
L 868.065072 469.226532 
L 870.099248 469.129137 
L 872.133424 469.263991 
L 874.167601 472.60536 
L 876.201777 470.020669 
L 878.235954 465.585488 
L 880.27013 466.701775 
L 884.338483 466.529462 
L 886.372659 467.068876 
L 890.441012 467.271156 
L 892.475188 467.16627 
L 894.509364 467.885489 
L 896.543541 467.098843 
L 898.577717 473.459433 
L 900.611893 474.598195 
L 902.64607 477.085493 
L 904.680246 472.657804 
L 908.748599 466.926531 
L 910.782775 472.755198 
L 914.851128 471.211875 
L 916.885304 472.058455 
L 918.919481 473.961387 
L 920.953657 473.227185 
L 922.987833 473.362038 
L 925.02201 478.096894 
L 927.056186 477.774744 
L 929.090362 476.606014 
L 931.124539 477.018066 
L 935.192891 476.868229 
L 937.227068 478.681259 
L 939.261244 476.958131 
L 941.29542 474.800475 
L 943.329597 475.796893 
L 945.363773 475.796893 
L 947.397949 469.74347 
L 949.432126 470.545099 
L 951.466302 470.552591 
L 953.500478 471.721321 
L 955.534655 475.924254 
L 957.568831 478.164321 
L 959.603008 478.621324 
L 961.637184 476.67344 
L 963.67136 476.553571 
L 965.705537 475.369857 
L 967.739713 475.647056 
L 969.773889 477.587447 
L 971.808066 478.748686 
L 973.842242 478.72621 
L 975.876418 480.389403 
L 977.910595 479.9324 
L 979.944771 480.509273 
L 981.978947 480.966276 
L 984.013124 478.628816 
L 988.081476 478.831096 
L 990.115653 481.011227 
L 992.149829 481.438263 
L 994.184005 481.430772 
L 996.218182 481.153573 
L 996.218182 481.153573 
" style="fill:none;stroke:#d62728;stroke-dasharray:5.55,2.4;stroke-dashoffset:0;stroke-width:1.5;"/>
   </g>
   <g id="line2d_19">
    <path clip-path="url(#p2deb8144c7)" d="M 184.581818 88.887273 
L 300.52987 88.887273 
L 304.598223 89.381735 
L 308.666576 89.726361 
L 310.700752 89.703885 
L 314.769105 90.280759 
L 316.803281 90.692811 
L 318.837457 90.617892 
L 320.871634 89.981084 
L 322.90581 90.168381 
L 324.939986 90.775221 
L 326.974163 91.104863 
L 329.008339 91.951443 
L 331.042515 91.973919 
L 333.076692 92.131248 
L 335.110868 91.973919 
L 339.179221 92.475874 
L 341.213397 93.247535 
L 343.247573 93.532226 
L 345.28175 94.528643 
L 347.315926 94.438741 
L 349.350103 94.603562 
L 351.384279 95.053074 
L 353.418455 95.098025 
L 355.452632 95.989556 
L 357.486808 95.989556 
L 359.520984 95.757308 
L 361.555161 96.558937 
L 367.65769 98.356984 
L 369.691866 97.450469 
L 375.794395 99.098678 
L 377.828571 99.877831 
L 379.862748 99.742978 
L 381.896924 99.825388 
L 383.9311 101.226366 
L 385.965277 102.462523 
L 390.03363 99.300958 
L 392.067806 100.140047 
L 394.101982 102.013012 
L 396.136159 101.181415 
L 398.170335 102.537442 
L 400.204511 101.698353 
L 402.238688 103.391514 
L 406.30704 101.795748 
L 408.341217 103.29412 
L 410.375393 105.017247 
L 412.409569 105.916271 
L 414.443746 108.426044 
L 416.477922 109.924416 
L 420.546275 106.650473 
L 422.580451 109.961875 
L 424.614627 112.876209 
L 426.648804 111.235491 
L 428.68298 110.928325 
L 430.717157 112.471648 
L 432.751333 114.831584 
L 434.785509 115.438425 
L 436.819686 112.80129 
L 438.853862 112.546567 
L 440.888038 116.075233 
L 442.922215 119.843638 
L 444.956391 124.990546 
L 446.990567 126.114325 
L 449.024744 125.485009 
L 451.05892 127.328007 
L 453.093096 124.301295 
L 455.127273 122.121164 
L 457.161449 124.368722 
L 459.195625 127.275564 
L 461.229802 126.526378 
L 463.263978 122.443314 
L 465.298154 120.705202 
L 467.332331 119.671326 
L 469.366507 121.851457 
L 471.400684 119.821163 
L 473.43486 120.41302 
L 475.469036 119.229306 
L 477.503213 122.293477 
L 479.537389 123.574585 
L 481.571565 124.346246 
L 483.605742 126.960905 
L 485.639918 126.37654 
L 487.674094 131.545924 
L 489.708271 137.861562 
L 491.742447 142.079479 
L 493.776623 145.405865 
L 495.8108 145.525735 
L 497.844976 143.840066 
L 499.879152 142.36417 
L 501.913329 143.225734 
L 503.947505 138.341041 
L 505.981681 139.876872 
L 508.015858 138.206187 
L 512.084211 141.292834 
L 514.118387 140.603583 
L 518.18674 140.895765 
L 522.255092 146.267429 
L 524.289269 150.994792 
L 526.323445 148.574922 
L 528.357621 148.942023 
L 530.391798 150.717594 
L 532.425974 153.332253 
L 534.46015 158.606522 
L 536.494327 159.235839 
L 538.528503 163.199033 
L 540.562679 167.851478 
L 542.596856 179.756043 
L 544.631032 184.41598 
L 546.665208 192.357352 
L 548.699385 195.136832 
L 550.733561 190.484387 
L 552.767738 193.376245 
L 554.801914 191.256048 
L 556.83609 190.229664 
L 558.870267 198.493185 
L 560.904443 202.636184 
L 562.938619 193.383737 
L 564.972796 201.639766 
L 567.006972 197.309471 
L 569.041148 203.939767 
L 571.075325 211.454103 
L 575.143677 212.083419 
L 577.177854 210.03065 
L 579.21203 208.547261 
L 581.246206 217.972021 
L 583.280383 212.413061 
L 585.314559 228.31828 
L 587.348735 238.125125 
L 589.382912 234.154439 
L 591.417088 237.21861 
L 593.451265 234.064537 
L 595.485441 231.809487 
L 597.519617 232.071702 
L 599.553794 240.44011 
L 601.58797 241.563889 
L 603.622146 241.773661 
L 605.656323 245.227408 
L 607.690499 240.222846 
L 609.724675 253.6108 
L 611.758852 255.701028 
L 613.793028 256.525133 
L 615.827204 261.574647 
L 617.861381 261.005265 
L 619.895557 266.8639 
L 621.929733 265.822531 
L 623.96391 273.381818 
L 625.998086 273.786379 
L 628.032262 280.611463 
L 630.066439 289.182151 
L 632.100615 292.755768 
L 634.134792 278.041755 
L 636.168968 287.601369 
L 638.203144 285.06912 
L 642.271497 285.174006 
L 644.305673 288.650229 
L 646.33985 284.267491 
L 648.374026 294.718636 
L 650.408202 298.134924 
L 652.442379 298.696813 
L 654.476555 307.604635 
L 656.510731 309.192909 
L 658.544908 308.323853 
L 660.579084 315.148938 
L 662.61326 306.503331 
L 664.647437 307.814407 
L 666.681613 316.310176 
L 668.715789 328.821583 
L 670.749966 324.835913 
L 672.784142 323.045358 
L 674.818319 328.12484 
L 676.852495 336.395853 
L 678.886671 342.434292 
L 680.920848 350.218335 
L 682.955024 354.233972 
L 684.9892 358.519316 
L 687.023377 354.533646 
L 689.057553 357.710195 
L 691.091729 365.336908 
L 693.125906 363.965898 
L 695.160082 358.017361 
L 697.194258 360.744398 
L 699.228435 360.085114 
L 701.262611 364.123227 
L 703.296787 362.849611 
L 705.330964 362.145376 
L 707.36514 366.887723 
L 709.399316 366.355801 
L 711.433493 363.171761 
L 713.467669 366.760362 
L 715.501846 369.77209 
L 717.536022 365.591632 
L 719.570198 365.966225 
L 721.604375 371.540168 
L 723.638551 381.032355 
L 725.672727 385.047992 
L 727.706904 382.658089 
L 729.74108 385.422585 
L 733.809433 383.032682 
L 735.843609 390.816724 
L 737.877785 391.992946 
L 739.911962 395.484153 
L 741.946138 393.633664 
L 743.980314 394.02324 
L 746.014491 393.29653 
L 748.048667 394.225521 
L 752.11702 403.552886 
L 754.151196 404.848978 
L 756.185373 407.613475 
L 758.219549 408.744745 
L 760.253725 411.996213 
L 762.287902 414.715758 
L 764.322078 414.992957 
L 768.390431 412.213477 
L 770.424607 405.515754 
L 772.458783 413.502077 
L 774.49296 411.127157 
L 776.527136 422.222602 
L 778.561312 430.119022 
L 780.595489 427.77407 
L 782.629665 430.283843 
L 784.663841 428.613158 
L 786.698018 434.674073 
L 788.732194 429.901758 
L 790.76637 427.159737 
L 792.800547 421.525859 
L 794.834723 418.821297 
L 796.8689 420.881559 
L 798.903076 420.259734 
L 800.937252 423.009247 
L 802.971429 426.912506 
L 805.005605 426.230747 
L 807.039781 424.103059 
L 809.073958 427.646708 
L 811.108134 427.526839 
L 813.14231 429.774397 
L 815.176487 432.905994 
L 817.210663 433.497851 
L 819.244839 435.595572 
L 821.279016 436.43466 
L 823.313192 437.453553 
L 825.347368 440.045737 
L 827.381545 440.015769 
L 829.415721 440.315444 
L 831.449897 441.034662 
L 833.484074 441.574076 
L 835.51825 441.117073 
L 837.552427 445.13271 
L 839.586603 444.982872 
L 841.620779 447.020658 
L 843.654956 447.777336 
L 845.689132 442.210884 
L 847.723308 442.885152 
L 849.757485 446.121635 
L 851.791661 451.94281 
L 853.825837 452.632062 
L 855.860014 449.470497 
L 857.89419 450.122288 
L 859.928366 449.118379 
L 861.962543 449.020985 
L 863.996719 447.073101 
L 866.030895 445.986782 
L 868.065072 446.616098 
L 870.099248 448.818705 
L 872.133424 454.295255 
L 874.167601 454.549978 
L 876.201777 448.301766 
L 878.235954 449.627826 
L 880.27013 448.226848 
L 882.304306 441.574076 
L 884.338483 439.094271 
L 886.372659 437.086452 
L 888.406835 436.022608 
L 890.441012 433.65518 
L 892.475188 434.94378 
L 894.509364 431.302736 
L 896.543541 439.296551 
L 898.577717 444.825543 
L 900.611893 445.619681 
L 902.64607 448.017076 
L 904.680246 440.427822 
L 906.714422 435.745409 
L 908.748599 436.239872 
L 910.782775 432.224235 
L 912.816951 437.363651 
L 914.851128 436.696875 
L 916.885304 436.397201 
L 918.919481 437.273749 
L 920.953657 436.164953 
L 922.987833 436.217396 
L 925.02201 447.020658 
L 927.056186 446.74346 
L 929.090362 447.485154 
L 931.124539 449.575383 
L 933.158715 459.120012 
L 935.192891 462.925877 
L 937.227068 462.940861 
L 939.261244 459.944117 
L 941.29542 465.87767 
L 943.329597 466.551938 
L 945.363773 458.206005 
L 947.397949 465.645423 
L 949.432126 466.634348 
L 951.466302 466.851612 
L 955.534655 466.611872 
L 957.568831 467.458453 
L 959.603008 466.259755 
L 961.637184 462.65617 
L 963.67136 460.850632 
L 965.705537 459.659426 
L 967.739713 462.079297 
L 969.773889 464.686464 
L 971.808066 465.458126 
L 973.842242 462.363988 
L 975.876418 471.721321 
L 977.910595 470.717412 
L 979.944771 470.747379 
L 981.978947 470.642493 
L 984.013124 470.282884 
L 986.0473 469.735978 
L 988.081476 469.683535 
L 990.115653 471.301777 
L 992.149829 471.054545 
L 994.184005 471.848683 
L 996.218182 473.639237 
L 996.218182 473.639237 
" style="fill:none;stroke:#9467bd;stroke-dasharray:5.55,2.4;stroke-dashoffset:0;stroke-width:1.5;"/>
   </g>
   <g id="line2d_20">
    <path clip-path="url(#p2deb8144c7)" d="M 184.581818 88.887273 
L 302.564046 88.924732 
L 304.598223 89.112029 
L 306.632399 89.044602 
L 310.700752 89.831247 
L 312.734928 89.464146 
L 314.769105 89.509097 
L 318.837457 91.726688 
L 320.871634 91.869033 
L 322.90581 92.715613 
L 324.939986 93.284995 
L 326.974163 93.150141 
L 329.008339 93.389881 
L 331.042515 93.502259 
L 333.076692 92.438414 
L 335.110868 92.086297 
L 337.145044 91.187274 
L 339.179221 90.700303 
L 343.247573 90.153397 
L 349.350103 93.255027 
L 351.384279 93.22506 
L 353.418455 92.438414 
L 355.452632 92.760564 
L 357.486808 94.243953 
L 359.520984 92.872942 
L 361.555161 93.1876 
L 363.589337 91.973919 
L 365.623513 92.745581 
L 367.65769 92.588252 
L 369.691866 92.730597 
L 371.726042 92.528317 
L 373.760219 92.895418 
L 375.794395 92.947861 
L 377.828571 93.472291 
L 379.862748 96.626364 
L 381.896924 96.558937 
L 383.9311 99.031251 
L 385.965277 99.862848 
L 387.999453 99.95275 
L 390.03363 100.39477 
L 392.067806 101.398679 
L 394.101982 101.855682 
L 396.136159 101.481089 
L 398.170335 103.826042 
L 400.204511 104.275553 
L 402.238688 105.002264 
L 404.272864 106.890212 
L 406.30704 111.272951 
L 408.341217 112.059596 
L 410.375393 112.336795 
L 412.409569 109.827022 
L 414.443746 114.869043 
L 416.477922 117.71595 
L 418.512098 116.240054 
L 420.546275 117.805852 
L 422.580451 121.813998 
L 424.614627 128.10716 
L 426.648804 129.088594 
L 428.68298 129.19348 
L 430.717157 132.886967 
L 432.751333 132.385012 
L 434.785509 134.999671 
L 436.819686 147.241371 
L 438.853862 151.399353 
L 440.888038 157.729975 
L 442.922215 165.521509 
L 444.956391 166.038447 
L 446.990567 169.896755 
L 449.024744 178.924447 
L 451.05892 179.134219 
L 453.093096 181.471679 
L 455.127273 184.356045 
L 457.161449 185.90686 
L 459.195625 178.287639 
L 461.229802 178.519886 
L 463.263978 170.773303 
L 465.298154 173.125747 
L 467.332331 172.953434 
L 469.366507 175.141057 
L 471.400684 173.800014 
L 473.43486 175.126074 
L 475.469036 183.434546 
L 477.503213 187.457675 
L 479.537389 192.664518 
L 481.571565 198.852794 
L 483.605742 203.123155 
L 485.639918 213.004918 
L 487.674094 213.844006 
L 489.708271 212.345634 
L 491.742447 213.244658 
L 493.776623 212.143354 
L 495.8108 217.065506 
L 497.844976 225.119256 
L 499.879152 239.713399 
L 501.913329 252.427086 
L 503.947505 256.772364 
L 505.981681 270.984423 
L 508.015858 270.834586 
L 510.050034 270.916996 
L 512.084211 269.40364 
L 514.118387 275.576933 
L 516.152563 274.737845 
L 518.18674 272.999733 
L 522.255092 272.520254 
L 524.289269 288.964887 
L 526.323445 291.002673 
L 528.357621 291.422217 
L 530.391798 290.253487 
L 532.425974 292.88313 
L 534.46015 291.729383 
L 536.494327 291.819286 
L 538.528503 300.764567 
L 540.562679 301.813427 
L 542.596856 295.977268 
L 544.631032 293.092902 
L 546.665208 296.112122 
L 548.699385 298.149907 
L 550.733561 302.232971 
L 552.767738 299.363589 
L 554.801914 301.753492 
L 556.83609 299.49095 
L 558.870267 301.760984 
L 560.904443 302.547629 
L 562.938619 307.881834 
L 564.972796 309.67988 
L 567.006972 311.73265 
L 569.041148 311.882487 
L 571.075325 313.470761 
L 573.109501 314.721902 
L 575.143677 317.426463 
L 577.177854 319.351871 
L 579.21203 319.659038 
L 581.246206 322.520928 
L 583.280383 329.1737 
L 585.314559 332.560021 
L 587.348735 331.181518 
L 589.382912 334.163279 
L 591.417088 333.631357 
L 593.451265 333.64634 
L 597.519617 347.978269 
L 599.553794 349.678921 
L 601.58797 354.571105 
L 605.656323 355.350259 
L 607.690499 356.623875 
L 609.724675 363.216712 
L 611.758852 363.216712 
L 613.793028 367.329743 
L 615.827204 363.471435 
L 617.861381 361.695864 
L 619.895557 363.254171 
L 621.929733 368.386095 
L 623.96391 372.926163 
L 625.998086 373.368182 
L 628.032262 391.490992 
L 630.066439 391.033988 
L 632.100615 391.431057 
L 634.134792 394.135618 
L 636.168968 394.315423 
L 638.203144 395.079593 
L 640.237321 401.23041 
L 642.271497 400.421289 
L 644.305673 389.880242 
L 646.33985 393.543761 
L 648.374026 399.334969 
L 650.408202 397.993926 
L 652.442379 407.650934 
L 654.476555 410.767548 
L 656.510731 416.820971 
L 658.544908 416.334 
L 660.579084 415.172761 
L 662.61326 417.023251 
L 664.647437 414.573413 
L 666.681613 414.933022 
L 668.715789 419.712829 
L 670.749966 420.064946 
L 672.784142 423.526185 
L 674.818319 421.900452 
L 676.852495 421.038888 
L 678.886671 421.316087 
L 680.920848 422.230094 
L 682.955024 422.290028 
L 684.9892 421.211201 
L 687.023377 421.840517 
L 689.057553 424.859736 
L 691.091729 427.354526 
L 693.125906 422.642146 
L 695.160082 426.125861 
L 697.194258 427.744103 
L 699.228435 421.615761 
L 701.262611 422.01283 
L 703.296787 424.597521 
L 705.330964 425.369183 
L 707.36514 425.369183 
L 709.399316 422.102732 
L 711.433493 424.312831 
L 713.467669 423.810876 
L 715.501846 432.051922 
L 717.536022 432.411531 
L 719.570198 432.456483 
L 721.604375 436.105018 
L 723.638551 426.388076 
L 725.672727 433.220652 
L 729.74108 433.385473 
L 731.775256 432.24671 
L 733.809433 440.517724 
L 735.843609 442.825217 
L 737.877785 440.794923 
L 739.911962 442.203392 
L 741.946138 441.221959 
L 743.980314 441.26691 
L 746.014491 440.817398 
L 748.048667 437.341175 
L 750.082843 426.118369 
L 752.11702 427.309575 
L 754.151196 427.6542 
L 756.185373 424.867228 
L 758.219549 417.375368 
L 760.253725 417.690026 
L 762.287902 432.24671 
L 764.322078 433.138242 
L 768.390431 433.722607 
L 770.424607 436.457136 
L 772.458783 436.457136 
L 774.49296 437.498504 
L 776.527136 437.498504 
L 778.561312 434.651597 
L 780.595489 430.950619 
L 782.629665 430.576026 
L 784.663841 430.635961 
L 786.698018 427.819021 
L 788.732194 428.291008 
L 790.76637 429.175048 
L 792.800547 440.195574 
L 794.834723 440.18059 
L 796.8689 440.997203 
L 798.903076 435.198503 
L 800.937252 433.595245 
L 802.971429 438.502414 
L 805.005605 437.992967 
L 807.039781 439.993294 
L 809.073958 445.13271 
L 811.108134 448.668868 
L 813.14231 447.87473 
L 815.176487 450.474406 
L 817.210663 450.12978 
L 819.244839 447.3503 
L 821.279016 446.960724 
L 823.313192 447.87473 
L 825.347368 446.833362 
L 827.381545 447.769844 
L 829.415721 446.74346 
L 833.484074 443.304696 
L 839.586603 444.503393 
L 841.620779 444.795576 
L 845.689132 446.031733 
L 847.723308 446.024241 
L 849.757485 444.705674 
L 851.791661 443.574403 
L 853.825837 443.417074 
L 855.860014 448.668868 
L 857.89419 449.537923 
L 859.928366 453.156492 
L 861.962543 452.077664 
L 863.996719 456.69265 
L 866.030895 456.557796 
L 870.099248 454.52001 
L 872.133424 458.018709 
L 874.167601 457.689067 
L 876.201777 458.430761 
L 878.235954 458.618058 
L 880.27013 458.161054 
L 882.304306 457.426852 
L 884.338483 457.501771 
L 886.372659 456.782552 
L 888.406835 456.715125 
L 890.441012 456.790044 
L 892.475188 457.022292 
L 894.509364 458.086136 
L 896.543541 456.827503 
L 898.577717 453.568544 
L 900.611893 456.265614 
L 902.64607 434.164627 
L 904.680246 441.281894 
L 906.714422 447.530105 
L 908.748599 445.559746 
L 910.782775 445.866912 
L 912.816951 445.275055 
L 914.851128 446.466261 
L 916.885304 442.413165 
L 918.919481 449.358119 
L 920.953657 448.219356 
L 922.987833 451.283527 
L 925.02201 451.276035 
L 927.056186 454.917079 
L 929.090362 453.463658 
L 931.124539 453.883202 
L 933.158715 455.980923 
L 935.192891 456.640207 
L 937.227068 458.220989 
L 939.261244 460.423596 
L 941.29542 460.446072 
L 943.329597 461.127831 
L 945.363773 461.449981 
L 947.397949 461.427505 
L 949.432126 460.895583 
L 951.466302 462.408939 
L 955.534655 462.925877 
L 957.568831 463.98223 
L 959.603008 464.094607 
L 961.637184 463.630112 
L 963.67136 463.600145 
L 965.705537 463.060731 
L 967.739713 463.083206 
L 969.773889 462.910894 
L 971.808066 463.045747 
L 973.842242 462.933369 
L 975.876418 464.873761 
L 977.910595 465.443142 
L 979.944771 465.458126 
L 981.978947 466.806661 
L 984.013124 467.60829 
L 986.0473 467.668225 
L 988.081476 466.814153 
L 990.115653 465.817735 
L 992.149829 467.428485 
L 994.184005 467.675717 
L 996.218182 468.035326 
L 996.218182 468.035326 
" style="fill:none;stroke:#8c564b;stroke-dasharray:5.55,2.4;stroke-dashoffset:0;stroke-width:1.5;"/>
   </g>
   <g id="patch_3">
    <path d="M 144 504 
L 144 69.12 
" style="fill:none;stroke:#000000;stroke-linecap:square;stroke-linejoin:miter;stroke-width:0.8;"/>
   </g>
   <g id="patch_4">
    <path d="M 1036.8 504 
L 1036.8 69.12 
" style="fill:none;stroke:#000000;stroke-linecap:square;stroke-linejoin:miter;stroke-width:0.8;"/>
   </g>
   <g id="patch_5">
    <path d="M 144 504 
L 1036.8 504 
" style="fill:none;stroke:#000000;stroke-linecap:square;stroke-linejoin:miter;stroke-width:0.8;"/>
   </g>
   <g id="patch_6">
    <path d="M 144 69.12 
L 1036.8 69.12 
" style="fill:none;stroke:#000000;stroke-linecap:square;stroke-linejoin:miter;stroke-width:0.8;"/>
   </g>
   <g id="legend_1">
    <g id="patch_7">
     <path d="M 905.367188 166.579375 
L 1029.8 166.579375 
Q 1031.8 166.579375 1031.8 164.579375 
L 1031.8 76.12 
Q 1031.8 74.12 1029.8 74.12 
L 905.367188 74.12 
Q 903.367188 74.12 903.367188 76.12 
L 903.367188 164.579375 
Q 903.367188 166.579375 905.367188 166.579375 
z
" style="fill:#ffffff;opacity:0.8;stroke:#cccccc;stroke-linejoin:miter;"/>
    </g>
    <g id="line2d_21">
     <path d="M 907.367188 82.218438 
L 927.367188 82.218438 
" style="fill:none;stroke:#1f77b4;stroke-linecap:square;stroke-width:1.5;"/>
    </g>
    <g id="line2d_22"/>
    <g id="text_17">
     <!-- taylorfo -->
     <defs>
      <path d="M 18.3125 70.21875 
L 18.3125 54.6875 
L 36.8125 54.6875 
L 36.8125 47.703125 
L 18.3125 47.703125 
L 18.3125 18.015625 
Q 18.3125 11.328125 20.140625 9.421875 
Q 21.96875 7.515625 27.59375 7.515625 
L 36.8125 7.515625 
L 36.8125 0 
L 27.59375 0 
Q 17.1875 0 13.234375 3.875 
Q 9.28125 7.765625 9.28125 18.015625 
L 9.28125 47.703125 
L 2.6875 47.703125 
L 2.6875 54.6875 
L 9.28125 54.6875 
L 9.28125 70.21875 
z
" id="DejaVuSans-116"/>
      <path d="M 9.421875 75.984375 
L 18.40625 75.984375 
L 18.40625 0 
L 9.421875 0 
z
" id="DejaVuSans-108"/>
     </defs>
     <g transform="translate(935.367188 85.718438)scale(0.1 -0.1)">
      <use xlink:href="#DejaVuSans-116"/>
      <use x="39.208984" xlink:href="#DejaVuSans-97"/>
      <use x="100.488281" xlink:href="#DejaVuSans-121"/>
      <use x="159.667969" xlink:href="#DejaVuSans-108"/>
      <use x="187.451172" xlink:href="#DejaVuSans-111"/>
      <use x="248.632812" xlink:href="#DejaVuSans-114"/>
      <use x="289.746094" xlink:href="#DejaVuSans-102"/>
      <use x="324.951172" xlink:href="#DejaVuSans-111"/>
     </g>
    </g>
    <g id="line2d_23">
     <path d="M 907.367188 96.896563 
L 927.367188 96.896563 
" style="fill:none;stroke:#ff7f0e;stroke-linecap:square;stroke-width:1.5;"/>
    </g>
    <g id="line2d_24"/>
    <g id="text_18">
     <!-- taylorfo_abs -->
     <defs>
      <path d="M 50.984375 -16.609375 
L 50.984375 -23.578125 
L -0.984375 -23.578125 
L -0.984375 -16.609375 
z
" id="DejaVuSans-95"/>
     </defs>
     <g transform="translate(935.367188 100.396563)scale(0.1 -0.1)">
      <use xlink:href="#DejaVuSans-116"/>
      <use x="39.208984" xlink:href="#DejaVuSans-97"/>
      <use x="100.488281" xlink:href="#DejaVuSans-121"/>
      <use x="159.667969" xlink:href="#DejaVuSans-108"/>
      <use x="187.451172" xlink:href="#DejaVuSans-111"/>
      <use x="248.632812" xlink:href="#DejaVuSans-114"/>
      <use x="289.746094" xlink:href="#DejaVuSans-102"/>
      <use x="324.951172" xlink:href="#DejaVuSans-111"/>
      <use x="386.132812" xlink:href="#DejaVuSans-95"/>
      <use x="436.132812" xlink:href="#DejaVuSans-97"/>
      <use x="497.412109" xlink:href="#DejaVuSans-98"/>
      <use x="560.888672" xlink:href="#DejaVuSans-115"/>
     </g>
    </g>
    <g id="line2d_25">
     <path d="M 907.367188 111.852813 
L 927.367188 111.852813 
" style="fill:none;stroke:#2ca02c;stroke-linecap:square;stroke-width:1.5;"/>
    </g>
    <g id="line2d_26"/>
    <g id="text_19">
     <!-- taylorfo_sq -->
     <defs>
      <path d="M 14.796875 27.296875 
Q 14.796875 17.390625 18.875 11.75 
Q 22.953125 6.109375 30.078125 6.109375 
Q 37.203125 6.109375 41.296875 11.75 
Q 45.40625 17.390625 45.40625 27.296875 
Q 45.40625 37.203125 41.296875 42.84375 
Q 37.203125 48.484375 30.078125 48.484375 
Q 22.953125 48.484375 18.875 42.84375 
Q 14.796875 37.203125 14.796875 27.296875 
z
M 45.40625 8.203125 
Q 42.578125 3.328125 38.25 0.953125 
Q 33.9375 -1.421875 27.875 -1.421875 
Q 17.96875 -1.421875 11.734375 6.484375 
Q 5.515625 14.40625 5.515625 27.296875 
Q 5.515625 40.1875 11.734375 48.09375 
Q 17.96875 56 27.875 56 
Q 33.9375 56 38.25 53.625 
Q 42.578125 51.265625 45.40625 46.390625 
L 45.40625 54.6875 
L 54.390625 54.6875 
L 54.390625 -20.796875 
L 45.40625 -20.796875 
z
" id="DejaVuSans-113"/>
     </defs>
     <g transform="translate(935.367188 115.352813)scale(0.1 -0.1)">
      <use xlink:href="#DejaVuSans-116"/>
      <use x="39.208984" xlink:href="#DejaVuSans-97"/>
      <use x="100.488281" xlink:href="#DejaVuSans-121"/>
      <use x="159.667969" xlink:href="#DejaVuSans-108"/>
      <use x="187.451172" xlink:href="#DejaVuSans-111"/>
      <use x="248.632812" xlink:href="#DejaVuSans-114"/>
      <use x="289.746094" xlink:href="#DejaVuSans-102"/>
      <use x="324.951172" xlink:href="#DejaVuSans-111"/>
      <use x="386.132812" xlink:href="#DejaVuSans-95"/>
      <use x="436.132812" xlink:href="#DejaVuSans-115"/>
      <use x="488.232422" xlink:href="#DejaVuSans-113"/>
     </g>
    </g>
    <g id="line2d_27">
     <path d="M 907.367188 126.809063 
L 927.367188 126.809063 
" style="fill:none;stroke:#d62728;stroke-dasharray:5.55,2.4;stroke-dashoffset:0;stroke-width:1.5;"/>
    </g>
    <g id="line2d_28"/>
    <g id="text_20">
     <!-- taylorfo_abs_norm -->
     <g transform="translate(935.367188 130.309063)scale(0.1 -0.1)">
      <use xlink:href="#DejaVuSans-116"/>
      <use x="39.208984" xlink:href="#DejaVuSans-97"/>
      <use x="100.488281" xlink:href="#DejaVuSans-121"/>
      <use x="159.667969" xlink:href="#DejaVuSans-108"/>
      <use x="187.451172" xlink:href="#DejaVuSans-111"/>
      <use x="248.632812" xlink:href="#DejaVuSans-114"/>
      <use x="289.746094" xlink:href="#DejaVuSans-102"/>
      <use x="324.951172" xlink:href="#DejaVuSans-111"/>
      <use x="386.132812" xlink:href="#DejaVuSans-95"/>
      <use x="436.132812" xlink:href="#DejaVuSans-97"/>
      <use x="497.412109" xlink:href="#DejaVuSans-98"/>
      <use x="560.888672" xlink:href="#DejaVuSans-115"/>
      <use x="612.988281" xlink:href="#DejaVuSans-95"/>
      <use x="662.988281" xlink:href="#DejaVuSans-110"/>
      <use x="726.367188" xlink:href="#DejaVuSans-111"/>
      <use x="787.548828" xlink:href="#DejaVuSans-114"/>
      <use x="826.912109" xlink:href="#DejaVuSans-109"/>
     </g>
    </g>
    <g id="line2d_29">
     <path d="M 907.367188 141.765313 
L 927.367188 141.765313 
" style="fill:none;stroke:#9467bd;stroke-dasharray:5.55,2.4;stroke-dashoffset:0;stroke-width:1.5;"/>
    </g>
    <g id="line2d_30"/>
    <g id="text_21">
     <!-- taylorfo_sq_norm -->
     <g transform="translate(935.367188 145.265313)scale(0.1 -0.1)">
      <use xlink:href="#DejaVuSans-116"/>
      <use x="39.208984" xlink:href="#DejaVuSans-97"/>
      <use x="100.488281" xlink:href="#DejaVuSans-121"/>
      <use x="159.667969" xlink:href="#DejaVuSans-108"/>
      <use x="187.451172" xlink:href="#DejaVuSans-111"/>
      <use x="248.632812" xlink:href="#DejaVuSans-114"/>
      <use x="289.746094" xlink:href="#DejaVuSans-102"/>
      <use x="324.951172" xlink:href="#DejaVuSans-111"/>
      <use x="386.132812" xlink:href="#DejaVuSans-95"/>
      <use x="436.132812" xlink:href="#DejaVuSans-115"/>
      <use x="488.232422" xlink:href="#DejaVuSans-113"/>
      <use x="551.708984" xlink:href="#DejaVuSans-95"/>
      <use x="601.708984" xlink:href="#DejaVuSans-110"/>
      <use x="665.087891" xlink:href="#DejaVuSans-111"/>
      <use x="726.269531" xlink:href="#DejaVuSans-114"/>
      <use x="765.632812" xlink:href="#DejaVuSans-109"/>
     </g>
    </g>
    <g id="line2d_31">
     <path d="M 907.367188 156.721563 
L 927.367188 156.721563 
" style="fill:none;stroke:#8c564b;stroke-dasharray:5.55,2.4;stroke-dashoffset:0;stroke-width:1.5;"/>
    </g>
    <g id="line2d_32"/>
    <g id="text_22">
     <!-- Molchanov_group -->
     <defs>
      <path d="M 9.8125 72.90625 
L 24.515625 72.90625 
L 43.109375 23.296875 
L 61.8125 72.90625 
L 76.515625 72.90625 
L 76.515625 0 
L 66.890625 0 
L 66.890625 64.015625 
L 48.09375 14.015625 
L 38.1875 14.015625 
L 19.390625 64.015625 
L 19.390625 0 
L 9.8125 0 
z
" id="DejaVuSans-77"/>
      <path d="M 54.890625 33.015625 
L 54.890625 0 
L 45.90625 0 
L 45.90625 32.71875 
Q 45.90625 40.484375 42.875 44.328125 
Q 39.84375 48.1875 33.796875 48.1875 
Q 26.515625 48.1875 22.3125 43.546875 
Q 18.109375 38.921875 18.109375 30.90625 
L 18.109375 0 
L 9.078125 0 
L 9.078125 75.984375 
L 18.109375 75.984375 
L 18.109375 46.1875 
Q 21.34375 51.125 25.703125 53.5625 
Q 30.078125 56 35.796875 56 
Q 45.21875 56 50.046875 50.171875 
Q 54.890625 44.34375 54.890625 33.015625 
z
" id="DejaVuSans-104"/>
      <path d="M 2.984375 54.6875 
L 12.5 54.6875 
L 29.59375 8.796875 
L 46.6875 54.6875 
L 56.203125 54.6875 
L 35.6875 0 
L 23.484375 0 
z
" id="DejaVuSans-118"/>
      <path d="M 45.40625 27.984375 
Q 45.40625 37.75 41.375 43.109375 
Q 37.359375 48.484375 30.078125 48.484375 
Q 22.859375 48.484375 18.828125 43.109375 
Q 14.796875 37.75 14.796875 27.984375 
Q 14.796875 18.265625 18.828125 12.890625 
Q 22.859375 7.515625 30.078125 7.515625 
Q 37.359375 7.515625 41.375 12.890625 
Q 45.40625 18.265625 45.40625 27.984375 
z
M 54.390625 6.78125 
Q 54.390625 -7.171875 48.1875 -13.984375 
Q 42 -20.796875 29.203125 -20.796875 
Q 24.46875 -20.796875 20.265625 -20.09375 
Q 16.0625 -19.390625 12.109375 -17.921875 
L 12.109375 -9.1875 
Q 16.0625 -11.328125 19.921875 -12.34375 
Q 23.78125 -13.375 27.78125 -13.375 
Q 36.625 -13.375 41.015625 -8.765625 
Q 45.40625 -4.15625 45.40625 5.171875 
L 45.40625 9.625 
Q 42.625 4.78125 38.28125 2.390625 
Q 33.9375 0 27.875 0 
Q 17.828125 0 11.671875 7.65625 
Q 5.515625 15.328125 5.515625 27.984375 
Q 5.515625 40.671875 11.671875 48.328125 
Q 17.828125 56 27.875 56 
Q 33.9375 56 38.28125 53.609375 
Q 42.625 51.21875 45.40625 46.390625 
L 45.40625 54.6875 
L 54.390625 54.6875 
z
" id="DejaVuSans-103"/>
     </defs>
     <g transform="translate(935.367188 160.221563)scale(0.1 -0.1)">
      <use xlink:href="#DejaVuSans-77"/>
      <use x="86.279297" xlink:href="#DejaVuSans-111"/>
      <use x="147.460938" xlink:href="#DejaVuSans-108"/>
      <use x="175.244141" xlink:href="#DejaVuSans-99"/>
      <use x="230.224609" xlink:href="#DejaVuSans-104"/>
      <use x="293.603516" xlink:href="#DejaVuSans-97"/>
      <use x="354.882812" xlink:href="#DejaVuSans-110"/>
      <use x="418.261719" xlink:href="#DejaVuSans-111"/>
      <use x="479.443359" xlink:href="#DejaVuSans-118"/>
      <use x="538.623047" xlink:href="#DejaVuSans-95"/>
      <use x="588.623047" xlink:href="#DejaVuSans-103"/>
      <use x="652.099609" xlink:href="#DejaVuSans-114"/>
      <use x="690.962891" xlink:href="#DejaVuSans-111"/>
      <use x="752.144531" xlink:href="#DejaVuSans-117"/>
      <use x="815.523438" xlink:href="#DejaVuSans-112"/>
     </g>
    </g>
   </g>
  </g>
 </g>
 <defs>
  <clipPath id="p2deb8144c7">
   <rect height="434.88" width="892.8" x="144" y="69.12"/>
  </clipPath>
 </defs>
</svg>
