<?xml version="1.0" encoding="utf-8" standalone="no"?>
<!DOCTYPE svg PUBLIC "-//W3C//DTD SVG 1.1//EN"
  "http://www.w3.org/Graphics/SVG/1.1/DTD/svg11.dtd">
<!-- Created with matplotlib (https://matplotlib.org/) -->
<svg height="576pt" version="1.1" viewBox="0 0 1152 576" width="1152pt" xmlns="http://www.w3.org/2000/svg" xmlns:xlink="http://www.w3.org/1999/xlink">
 <defs>
  <style type="text/css">
*{stroke-linecap:butt;stroke-linejoin:round;}
  </style>
 </defs>
 <g id="figure_1">
  <g id="patch_1">
   <path d="M 0 576 
L 1152 576 
L 1152 0 
L 0 0 
z
" style="fill:#ffffff;"/>
  </g>
  <g id="axes_1">
   <g id="patch_2">
    <path d="M 144 504 
L 1036.8 504 
L 1036.8 69.12 
L 144 69.12 
z
" style="fill:#ffffff;"/>
   </g>
   <g id="matplotlib.axis_1">
    <g id="xtick_1">
     <g id="line2d_1">
      <defs>
       <path d="M 0 0 
L 0 3.5 
" id="m158e2f2bd9" style="stroke:#000000;stroke-width:0.8;"/>
      </defs>
      <g>
       <use style="stroke:#000000;stroke-width:0.8;" x="182.547642" xlink:href="#m158e2f2bd9" y="504"/>
      </g>
     </g>
     <g id="text_1">
      <!-- 0 -->
      <defs>
       <path d="M 31.78125 66.40625 
Q 24.171875 66.40625 20.328125 58.90625 
Q 16.5 51.421875 16.5 36.375 
Q 16.5 21.390625 20.328125 13.890625 
Q 24.171875 6.390625 31.78125 6.390625 
Q 39.453125 6.390625 43.28125 13.890625 
Q 47.125 21.390625 47.125 36.375 
Q 47.125 51.421875 43.28125 58.90625 
Q 39.453125 66.40625 31.78125 66.40625 
z
M 31.78125 74.21875 
Q 44.046875 74.21875 50.515625 64.515625 
Q 56.984375 54.828125 56.984375 36.375 
Q 56.984375 17.96875 50.515625 8.265625 
Q 44.046875 -1.421875 31.78125 -1.421875 
Q 19.53125 -1.421875 13.0625 8.265625 
Q 6.59375 17.96875 6.59375 36.375 
Q 6.59375 54.828125 13.0625 64.515625 
Q 19.53125 74.21875 31.78125 74.21875 
z
" id="DejaVuSans-48"/>
      </defs>
      <g transform="translate(179.366392 518.598438)scale(0.1 -0.1)">
       <use xlink:href="#DejaVuSans-48"/>
      </g>
     </g>
    </g>
    <g id="xtick_2">
     <g id="line2d_2">
      <g>
       <use style="stroke:#000000;stroke-width:0.8;" x="284.256459" xlink:href="#m158e2f2bd9" y="504"/>
      </g>
     </g>
     <g id="text_2">
      <!-- 50 -->
      <defs>
       <path d="M 10.796875 72.90625 
L 49.515625 72.90625 
L 49.515625 64.59375 
L 19.828125 64.59375 
L 19.828125 46.734375 
Q 21.96875 47.46875 24.109375 47.828125 
Q 26.265625 48.1875 28.421875 48.1875 
Q 40.625 48.1875 47.75 41.5 
Q 54.890625 34.8125 54.890625 23.390625 
Q 54.890625 11.625 47.5625 5.09375 
Q 40.234375 -1.421875 26.90625 -1.421875 
Q 22.3125 -1.421875 17.546875 -0.640625 
Q 12.796875 0.140625 7.71875 1.703125 
L 7.71875 11.625 
Q 12.109375 9.234375 16.796875 8.0625 
Q 21.484375 6.890625 26.703125 6.890625 
Q 35.15625 6.890625 40.078125 11.328125 
Q 45.015625 15.765625 45.015625 23.390625 
Q 45.015625 31 40.078125 35.4375 
Q 35.15625 39.890625 26.703125 39.890625 
Q 22.75 39.890625 18.8125 39.015625 
Q 14.890625 38.140625 10.796875 36.28125 
z
" id="DejaVuSans-53"/>
      </defs>
      <g transform="translate(277.893959 518.598438)scale(0.1 -0.1)">
       <use xlink:href="#DejaVuSans-53"/>
       <use x="63.623047" xlink:href="#DejaVuSans-48"/>
      </g>
     </g>
    </g>
    <g id="xtick_3">
     <g id="line2d_3">
      <g>
       <use style="stroke:#000000;stroke-width:0.8;" x="385.965277" xlink:href="#m158e2f2bd9" y="504"/>
      </g>
     </g>
     <g id="text_3">
      <!-- 100 -->
      <defs>
       <path d="M 12.40625 8.296875 
L 28.515625 8.296875 
L 28.515625 63.921875 
L 10.984375 60.40625 
L 10.984375 69.390625 
L 28.421875 72.90625 
L 38.28125 72.90625 
L 38.28125 8.296875 
L 54.390625 8.296875 
L 54.390625 0 
L 12.40625 0 
z
" id="DejaVuSans-49"/>
      </defs>
      <g transform="translate(376.421527 518.598438)scale(0.1 -0.1)">
       <use xlink:href="#DejaVuSans-49"/>
       <use x="63.623047" xlink:href="#DejaVuSans-48"/>
       <use x="127.246094" xlink:href="#DejaVuSans-48"/>
      </g>
     </g>
    </g>
    <g id="xtick_4">
     <g id="line2d_4">
      <g>
       <use style="stroke:#000000;stroke-width:0.8;" x="487.674094" xlink:href="#m158e2f2bd9" y="504"/>
      </g>
     </g>
     <g id="text_4">
      <!-- 150 -->
      <g transform="translate(478.130344 518.598438)scale(0.1 -0.1)">
       <use xlink:href="#DejaVuSans-49"/>
       <use x="63.623047" xlink:href="#DejaVuSans-53"/>
       <use x="127.246094" xlink:href="#DejaVuSans-48"/>
      </g>
     </g>
    </g>
    <g id="xtick_5">
     <g id="line2d_5">
      <g>
       <use style="stroke:#000000;stroke-width:0.8;" x="589.382912" xlink:href="#m158e2f2bd9" y="504"/>
      </g>
     </g>
     <g id="text_5">
      <!-- 200 -->
      <defs>
       <path d="M 19.1875 8.296875 
L 53.609375 8.296875 
L 53.609375 0 
L 7.328125 0 
L 7.328125 8.296875 
Q 12.9375 14.109375 22.625 23.890625 
Q 32.328125 33.6875 34.8125 36.53125 
Q 39.546875 41.84375 41.421875 45.53125 
Q 43.3125 49.21875 43.3125 52.78125 
Q 43.3125 58.59375 39.234375 62.25 
Q 35.15625 65.921875 28.609375 65.921875 
Q 23.96875 65.921875 18.8125 64.3125 
Q 13.671875 62.703125 7.8125 59.421875 
L 7.8125 69.390625 
Q 13.765625 71.78125 18.9375 73 
Q 24.125 74.21875 28.421875 74.21875 
Q 39.75 74.21875 46.484375 68.546875 
Q 53.21875 62.890625 53.21875 53.421875 
Q 53.21875 48.921875 51.53125 44.890625 
Q 49.859375 40.875 45.40625 35.40625 
Q 44.1875 33.984375 37.640625 27.21875 
Q 31.109375 20.453125 19.1875 8.296875 
z
" id="DejaVuSans-50"/>
      </defs>
      <g transform="translate(579.839162 518.598438)scale(0.1 -0.1)">
       <use xlink:href="#DejaVuSans-50"/>
       <use x="63.623047" xlink:href="#DejaVuSans-48"/>
       <use x="127.246094" xlink:href="#DejaVuSans-48"/>
      </g>
     </g>
    </g>
    <g id="xtick_6">
     <g id="line2d_6">
      <g>
       <use style="stroke:#000000;stroke-width:0.8;" x="691.091729" xlink:href="#m158e2f2bd9" y="504"/>
      </g>
     </g>
     <g id="text_6">
      <!-- 250 -->
      <g transform="translate(681.547979 518.598438)scale(0.1 -0.1)">
       <use xlink:href="#DejaVuSans-50"/>
       <use x="63.623047" xlink:href="#DejaVuSans-53"/>
       <use x="127.246094" xlink:href="#DejaVuSans-48"/>
      </g>
     </g>
    </g>
    <g id="xtick_7">
     <g id="line2d_7">
      <g>
       <use style="stroke:#000000;stroke-width:0.8;" x="792.800547" xlink:href="#m158e2f2bd9" y="504"/>
      </g>
     </g>
     <g id="text_7">
      <!-- 300 -->
      <defs>
       <path d="M 40.578125 39.3125 
Q 47.65625 37.796875 51.625 33 
Q 55.609375 28.21875 55.609375 21.1875 
Q 55.609375 10.40625 48.1875 4.484375 
Q 40.765625 -1.421875 27.09375 -1.421875 
Q 22.515625 -1.421875 17.65625 -0.515625 
Q 12.796875 0.390625 7.625 2.203125 
L 7.625 11.71875 
Q 11.71875 9.328125 16.59375 8.109375 
Q 21.484375 6.890625 26.8125 6.890625 
Q 36.078125 6.890625 40.9375 10.546875 
Q 45.796875 14.203125 45.796875 21.1875 
Q 45.796875 27.640625 41.28125 31.265625 
Q 36.765625 34.90625 28.71875 34.90625 
L 20.21875 34.90625 
L 20.21875 43.015625 
L 29.109375 43.015625 
Q 36.375 43.015625 40.234375 45.921875 
Q 44.09375 48.828125 44.09375 54.296875 
Q 44.09375 59.90625 40.109375 62.90625 
Q 36.140625 65.921875 28.71875 65.921875 
Q 24.65625 65.921875 20.015625 65.03125 
Q 15.375 64.15625 9.8125 62.3125 
L 9.8125 71.09375 
Q 15.4375 72.65625 20.34375 73.4375 
Q 25.25 74.21875 29.59375 74.21875 
Q 40.828125 74.21875 47.359375 69.109375 
Q 53.90625 64.015625 53.90625 55.328125 
Q 53.90625 49.265625 50.4375 45.09375 
Q 46.96875 40.921875 40.578125 39.3125 
z
" id="DejaVuSans-51"/>
      </defs>
      <g transform="translate(783.256797 518.598438)scale(0.1 -0.1)">
       <use xlink:href="#DejaVuSans-51"/>
       <use x="63.623047" xlink:href="#DejaVuSans-48"/>
       <use x="127.246094" xlink:href="#DejaVuSans-48"/>
      </g>
     </g>
    </g>
    <g id="xtick_8">
     <g id="line2d_8">
      <g>
       <use style="stroke:#000000;stroke-width:0.8;" x="894.509364" xlink:href="#m158e2f2bd9" y="504"/>
      </g>
     </g>
     <g id="text_8">
      <!-- 350 -->
      <g transform="translate(884.965614 518.598438)scale(0.1 -0.1)">
       <use xlink:href="#DejaVuSans-51"/>
       <use x="63.623047" xlink:href="#DejaVuSans-53"/>
       <use x="127.246094" xlink:href="#DejaVuSans-48"/>
      </g>
     </g>
    </g>
    <g id="xtick_9">
     <g id="line2d_9">
      <g>
       <use style="stroke:#000000;stroke-width:0.8;" x="996.218182" xlink:href="#m158e2f2bd9" y="504"/>
      </g>
     </g>
     <g id="text_9">
      <!-- 400 -->
      <defs>
       <path d="M 37.796875 64.3125 
L 12.890625 25.390625 
L 37.796875 25.390625 
z
M 35.203125 72.90625 
L 47.609375 72.90625 
L 47.609375 25.390625 
L 58.015625 25.390625 
L 58.015625 17.1875 
L 47.609375 17.1875 
L 47.609375 0 
L 37.796875 0 
L 37.796875 17.1875 
L 4.890625 17.1875 
L 4.890625 26.703125 
z
" id="DejaVuSans-52"/>
      </defs>
      <g transform="translate(986.674432 518.598438)scale(0.1 -0.1)">
       <use xlink:href="#DejaVuSans-52"/>
       <use x="63.623047" xlink:href="#DejaVuSans-48"/>
       <use x="127.246094" xlink:href="#DejaVuSans-48"/>
      </g>
     </g>
    </g>
    <g id="text_10">
     <!-- Number of Neurons pruned -->
     <defs>
      <path d="M 9.8125 72.90625 
L 23.09375 72.90625 
L 55.421875 11.921875 
L 55.421875 72.90625 
L 64.984375 72.90625 
L 64.984375 0 
L 51.703125 0 
L 19.390625 60.984375 
L 19.390625 0 
L 9.8125 0 
z
" id="DejaVuSans-78"/>
      <path d="M 8.5 21.578125 
L 8.5 54.6875 
L 17.484375 54.6875 
L 17.484375 21.921875 
Q 17.484375 14.15625 20.5 10.265625 
Q 23.53125 6.390625 29.59375 6.390625 
Q 36.859375 6.390625 41.078125 11.03125 
Q 45.3125 15.671875 45.3125 23.6875 
L 45.3125 54.6875 
L 54.296875 54.6875 
L 54.296875 0 
L 45.3125 0 
L 45.3125 8.40625 
Q 42.046875 3.421875 37.71875 1 
Q 33.40625 -1.421875 27.6875 -1.421875 
Q 18.265625 -1.421875 13.375 4.4375 
Q 8.5 10.296875 8.5 21.578125 
z
M 31.109375 56 
z
" id="DejaVuSans-117"/>
      <path d="M 52 44.1875 
Q 55.375 50.25 60.0625 53.125 
Q 64.75 56 71.09375 56 
Q 79.640625 56 84.28125 50.015625 
Q 88.921875 44.046875 88.921875 33.015625 
L 88.921875 0 
L 79.890625 0 
L 79.890625 32.71875 
Q 79.890625 40.578125 77.09375 44.375 
Q 74.3125 48.1875 68.609375 48.1875 
Q 61.625 48.1875 57.5625 43.546875 
Q 53.515625 38.921875 53.515625 30.90625 
L 53.515625 0 
L 44.484375 0 
L 44.484375 32.71875 
Q 44.484375 40.625 41.703125 44.40625 
Q 38.921875 48.1875 33.109375 48.1875 
Q 26.21875 48.1875 22.15625 43.53125 
Q 18.109375 38.875 18.109375 30.90625 
L 18.109375 0 
L 9.078125 0 
L 9.078125 54.6875 
L 18.109375 54.6875 
L 18.109375 46.1875 
Q 21.1875 51.21875 25.484375 53.609375 
Q 29.78125 56 35.6875 56 
Q 41.65625 56 45.828125 52.96875 
Q 50 49.953125 52 44.1875 
z
" id="DejaVuSans-109"/>
      <path d="M 48.6875 27.296875 
Q 48.6875 37.203125 44.609375 42.84375 
Q 40.53125 48.484375 33.40625 48.484375 
Q 26.265625 48.484375 22.1875 42.84375 
Q 18.109375 37.203125 18.109375 27.296875 
Q 18.109375 17.390625 22.1875 11.75 
Q 26.265625 6.109375 33.40625 6.109375 
Q 40.53125 6.109375 44.609375 11.75 
Q 48.6875 17.390625 48.6875 27.296875 
z
M 18.109375 46.390625 
Q 20.953125 51.265625 25.265625 53.625 
Q 29.59375 56 35.59375 56 
Q 45.5625 56 51.78125 48.09375 
Q 58.015625 40.1875 58.015625 27.296875 
Q 58.015625 14.40625 51.78125 6.484375 
Q 45.5625 -1.421875 35.59375 -1.421875 
Q 29.59375 -1.421875 25.265625 0.953125 
Q 20.953125 3.328125 18.109375 8.203125 
L 18.109375 0 
L 9.078125 0 
L 9.078125 75.984375 
L 18.109375 75.984375 
z
" id="DejaVuSans-98"/>
      <path d="M 56.203125 29.59375 
L 56.203125 25.203125 
L 14.890625 25.203125 
Q 15.484375 15.921875 20.484375 11.0625 
Q 25.484375 6.203125 34.421875 6.203125 
Q 39.59375 6.203125 44.453125 7.46875 
Q 49.3125 8.734375 54.109375 11.28125 
L 54.109375 2.78125 
Q 49.265625 0.734375 44.1875 -0.34375 
Q 39.109375 -1.421875 33.890625 -1.421875 
Q 20.796875 -1.421875 13.15625 6.1875 
Q 5.515625 13.8125 5.515625 26.8125 
Q 5.515625 40.234375 12.765625 48.109375 
Q 20.015625 56 32.328125 56 
Q 43.359375 56 49.78125 48.890625 
Q 56.203125 41.796875 56.203125 29.59375 
z
M 47.21875 32.234375 
Q 47.125 39.59375 43.09375 43.984375 
Q 39.0625 48.390625 32.421875 48.390625 
Q 24.90625 48.390625 20.390625 44.140625 
Q 15.875 39.890625 15.1875 32.171875 
z
" id="DejaVuSans-101"/>
      <path d="M 41.109375 46.296875 
Q 39.59375 47.171875 37.8125 47.578125 
Q 36.03125 48 33.890625 48 
Q 26.265625 48 22.1875 43.046875 
Q 18.109375 38.09375 18.109375 28.8125 
L 18.109375 0 
L 9.078125 0 
L 9.078125 54.6875 
L 18.109375 54.6875 
L 18.109375 46.1875 
Q 20.953125 51.171875 25.484375 53.578125 
Q 30.03125 56 36.53125 56 
Q 37.453125 56 38.578125 55.875 
Q 39.703125 55.765625 41.0625 55.515625 
z
" id="DejaVuSans-114"/>
      <path id="DejaVuSans-32"/>
      <path d="M 30.609375 48.390625 
Q 23.390625 48.390625 19.1875 42.75 
Q 14.984375 37.109375 14.984375 27.296875 
Q 14.984375 17.484375 19.15625 11.84375 
Q 23.34375 6.203125 30.609375 6.203125 
Q 37.796875 6.203125 41.984375 11.859375 
Q 46.1875 17.53125 46.1875 27.296875 
Q 46.1875 37.015625 41.984375 42.703125 
Q 37.796875 48.390625 30.609375 48.390625 
z
M 30.609375 56 
Q 42.328125 56 49.015625 48.375 
Q 55.71875 40.765625 55.71875 27.296875 
Q 55.71875 13.875 49.015625 6.21875 
Q 42.328125 -1.421875 30.609375 -1.421875 
Q 18.84375 -1.421875 12.171875 6.21875 
Q 5.515625 13.875 5.515625 27.296875 
Q 5.515625 40.765625 12.171875 48.375 
Q 18.84375 56 30.609375 56 
z
" id="DejaVuSans-111"/>
      <path d="M 37.109375 75.984375 
L 37.109375 68.5 
L 28.515625 68.5 
Q 23.6875 68.5 21.796875 66.546875 
Q 19.921875 64.59375 19.921875 59.515625 
L 19.921875 54.6875 
L 34.71875 54.6875 
L 34.71875 47.703125 
L 19.921875 47.703125 
L 19.921875 0 
L 10.890625 0 
L 10.890625 47.703125 
L 2.296875 47.703125 
L 2.296875 54.6875 
L 10.890625 54.6875 
L 10.890625 58.5 
Q 10.890625 67.625 15.140625 71.796875 
Q 19.390625 75.984375 28.609375 75.984375 
z
" id="DejaVuSans-102"/>
      <path d="M 54.890625 33.015625 
L 54.890625 0 
L 45.90625 0 
L 45.90625 32.71875 
Q 45.90625 40.484375 42.875 44.328125 
Q 39.84375 48.1875 33.796875 48.1875 
Q 26.515625 48.1875 22.3125 43.546875 
Q 18.109375 38.921875 18.109375 30.90625 
L 18.109375 0 
L 9.078125 0 
L 9.078125 54.6875 
L 18.109375 54.6875 
L 18.109375 46.1875 
Q 21.34375 51.125 25.703125 53.5625 
Q 30.078125 56 35.796875 56 
Q 45.21875 56 50.046875 50.171875 
Q 54.890625 44.34375 54.890625 33.015625 
z
" id="DejaVuSans-110"/>
      <path d="M 44.28125 53.078125 
L 44.28125 44.578125 
Q 40.484375 46.53125 36.375 47.5 
Q 32.28125 48.484375 27.875 48.484375 
Q 21.1875 48.484375 17.84375 46.4375 
Q 14.5 44.390625 14.5 40.28125 
Q 14.5 37.15625 16.890625 35.375 
Q 19.28125 33.59375 26.515625 31.984375 
L 29.59375 31.296875 
Q 39.15625 29.25 43.1875 25.515625 
Q 47.21875 21.78125 47.21875 15.09375 
Q 47.21875 7.46875 41.1875 3.015625 
Q 35.15625 -1.421875 24.609375 -1.421875 
Q 20.21875 -1.421875 15.453125 -0.5625 
Q 10.6875 0.296875 5.421875 2 
L 5.421875 11.28125 
Q 10.40625 8.6875 15.234375 7.390625 
Q 20.0625 6.109375 24.8125 6.109375 
Q 31.15625 6.109375 34.5625 8.28125 
Q 37.984375 10.453125 37.984375 14.40625 
Q 37.984375 18.0625 35.515625 20.015625 
Q 33.0625 21.96875 24.703125 23.78125 
L 21.578125 24.515625 
Q 13.234375 26.265625 9.515625 29.90625 
Q 5.8125 33.546875 5.8125 39.890625 
Q 5.8125 47.609375 11.28125 51.796875 
Q 16.75 56 26.8125 56 
Q 31.78125 56 36.171875 55.265625 
Q 40.578125 54.546875 44.28125 53.078125 
z
" id="DejaVuSans-115"/>
      <path d="M 18.109375 8.203125 
L 18.109375 -20.796875 
L 9.078125 -20.796875 
L 9.078125 54.6875 
L 18.109375 54.6875 
L 18.109375 46.390625 
Q 20.953125 51.265625 25.265625 53.625 
Q 29.59375 56 35.59375 56 
Q 45.5625 56 51.78125 48.09375 
Q 58.015625 40.1875 58.015625 27.296875 
Q 58.015625 14.40625 51.78125 6.484375 
Q 45.5625 -1.421875 35.59375 -1.421875 
Q 29.59375 -1.421875 25.265625 0.953125 
Q 20.953125 3.328125 18.109375 8.203125 
z
M 48.6875 27.296875 
Q 48.6875 37.203125 44.609375 42.84375 
Q 40.53125 48.484375 33.40625 48.484375 
Q 26.265625 48.484375 22.1875 42.84375 
Q 18.109375 37.203125 18.109375 27.296875 
Q 18.109375 17.390625 22.1875 11.75 
Q 26.265625 6.109375 33.40625 6.109375 
Q 40.53125 6.109375 44.609375 11.75 
Q 48.6875 17.390625 48.6875 27.296875 
z
" id="DejaVuSans-112"/>
      <path d="M 45.40625 46.390625 
L 45.40625 75.984375 
L 54.390625 75.984375 
L 54.390625 0 
L 45.40625 0 
L 45.40625 8.203125 
Q 42.578125 3.328125 38.25 0.953125 
Q 33.9375 -1.421875 27.875 -1.421875 
Q 17.96875 -1.421875 11.734375 6.484375 
Q 5.515625 14.40625 5.515625 27.296875 
Q 5.515625 40.1875 11.734375 48.09375 
Q 17.96875 56 27.875 56 
Q 33.9375 56 38.25 53.625 
Q 42.578125 51.265625 45.40625 46.390625 
z
M 14.796875 27.296875 
Q 14.796875 17.390625 18.875 11.75 
Q 22.953125 6.109375 30.078125 6.109375 
Q 37.203125 6.109375 41.296875 11.75 
Q 45.40625 17.390625 45.40625 27.296875 
Q 45.40625 37.203125 41.296875 42.84375 
Q 37.203125 48.484375 30.078125 48.484375 
Q 22.953125 48.484375 18.875 42.84375 
Q 14.796875 37.203125 14.796875 27.296875 
z
" id="DejaVuSans-100"/>
     </defs>
     <g transform="translate(522.147656 532.276562)scale(0.1 -0.1)">
      <use xlink:href="#DejaVuSans-78"/>
      <use x="74.804688" xlink:href="#DejaVuSans-117"/>
      <use x="138.183594" xlink:href="#DejaVuSans-109"/>
      <use x="235.595703" xlink:href="#DejaVuSans-98"/>
      <use x="299.072266" xlink:href="#DejaVuSans-101"/>
      <use x="360.595703" xlink:href="#DejaVuSans-114"/>
      <use x="401.708984" xlink:href="#DejaVuSans-32"/>
      <use x="433.496094" xlink:href="#DejaVuSans-111"/>
      <use x="494.677734" xlink:href="#DejaVuSans-102"/>
      <use x="529.882812" xlink:href="#DejaVuSans-32"/>
      <use x="561.669922" xlink:href="#DejaVuSans-78"/>
      <use x="636.474609" xlink:href="#DejaVuSans-101"/>
      <use x="697.998047" xlink:href="#DejaVuSans-117"/>
      <use x="761.376953" xlink:href="#DejaVuSans-114"/>
      <use x="800.240234" xlink:href="#DejaVuSans-111"/>
      <use x="861.421875" xlink:href="#DejaVuSans-110"/>
      <use x="924.800781" xlink:href="#DejaVuSans-115"/>
      <use x="976.900391" xlink:href="#DejaVuSans-32"/>
      <use x="1008.6875" xlink:href="#DejaVuSans-112"/>
      <use x="1072.164062" xlink:href="#DejaVuSans-114"/>
      <use x="1113.277344" xlink:href="#DejaVuSans-117"/>
      <use x="1176.65625" xlink:href="#DejaVuSans-110"/>
      <use x="1240.035156" xlink:href="#DejaVuSans-101"/>
      <use x="1301.558594" xlink:href="#DejaVuSans-100"/>
     </g>
    </g>
   </g>
   <g id="matplotlib.axis_2">
    <g id="ytick_1">
     <g id="line2d_10">
      <defs>
       <path d="M 0 0 
L -3.5 0 
" id="m983cbf9da7" style="stroke:#000000;stroke-width:0.8;"/>
      </defs>
      <g>
       <use style="stroke:#000000;stroke-width:0.8;" x="144" xlink:href="#m983cbf9da7" y="484.232727"/>
      </g>
     </g>
     <g id="text_11">
      <!-- 0 -->
      <g transform="translate(130.6375 488.031946)scale(0.1 -0.1)">
       <use xlink:href="#DejaVuSans-48"/>
      </g>
     </g>
    </g>
    <g id="ytick_2">
     <g id="line2d_11">
      <g>
       <use style="stroke:#000000;stroke-width:0.8;" x="144" xlink:href="#m983cbf9da7" y="416.297588"/>
      </g>
     </g>
     <g id="text_12">
      <!-- 10 -->
      <g transform="translate(124.275 420.096807)scale(0.1 -0.1)">
       <use xlink:href="#DejaVuSans-49"/>
       <use x="63.623047" xlink:href="#DejaVuSans-48"/>
      </g>
     </g>
    </g>
    <g id="ytick_3">
     <g id="line2d_12">
      <g>
       <use style="stroke:#000000;stroke-width:0.8;" x="144" xlink:href="#m983cbf9da7" y="348.36245"/>
      </g>
     </g>
     <g id="text_13">
      <!-- 20 -->
      <g transform="translate(124.275 352.161668)scale(0.1 -0.1)">
       <use xlink:href="#DejaVuSans-50"/>
       <use x="63.623047" xlink:href="#DejaVuSans-48"/>
      </g>
     </g>
    </g>
    <g id="ytick_4">
     <g id="line2d_13">
      <g>
       <use style="stroke:#000000;stroke-width:0.8;" x="144" xlink:href="#m983cbf9da7" y="280.427311"/>
      </g>
     </g>
     <g id="text_14">
      <!-- 30 -->
      <g transform="translate(124.275 284.226529)scale(0.1 -0.1)">
       <use xlink:href="#DejaVuSans-51"/>
       <use x="63.623047" xlink:href="#DejaVuSans-48"/>
      </g>
     </g>
    </g>
    <g id="ytick_5">
     <g id="line2d_14">
      <g>
       <use style="stroke:#000000;stroke-width:0.8;" x="144" xlink:href="#m983cbf9da7" y="212.492172"/>
      </g>
     </g>
     <g id="text_15">
      <!-- 40 -->
      <g transform="translate(124.275 216.291391)scale(0.1 -0.1)">
       <use xlink:href="#DejaVuSans-52"/>
       <use x="63.623047" xlink:href="#DejaVuSans-48"/>
      </g>
     </g>
    </g>
    <g id="ytick_6">
     <g id="line2d_15">
      <g>
       <use style="stroke:#000000;stroke-width:0.8;" x="144" xlink:href="#m983cbf9da7" y="144.557033"/>
      </g>
     </g>
     <g id="text_16">
      <!-- 50 -->
      <g transform="translate(124.275 148.356252)scale(0.1 -0.1)">
       <use xlink:href="#DejaVuSans-53"/>
       <use x="63.623047" xlink:href="#DejaVuSans-48"/>
      </g>
     </g>
    </g>
    <g id="ytick_7">
     <g id="line2d_16">
      <g>
       <use style="stroke:#000000;stroke-width:0.8;" x="144" xlink:href="#m983cbf9da7" y="76.621894"/>
      </g>
     </g>
     <g id="text_17">
      <!-- 60 -->
      <defs>
       <path d="M 33.015625 40.375 
Q 26.375 40.375 22.484375 35.828125 
Q 18.609375 31.296875 18.609375 23.390625 
Q 18.609375 15.53125 22.484375 10.953125 
Q 26.375 6.390625 33.015625 6.390625 
Q 39.65625 6.390625 43.53125 10.953125 
Q 47.40625 15.53125 47.40625 23.390625 
Q 47.40625 31.296875 43.53125 35.828125 
Q 39.65625 40.375 33.015625 40.375 
z
M 52.59375 71.296875 
L 52.59375 62.3125 
Q 48.875 64.0625 45.09375 64.984375 
Q 41.3125 65.921875 37.59375 65.921875 
Q 27.828125 65.921875 22.671875 59.328125 
Q 17.53125 52.734375 16.796875 39.40625 
Q 19.671875 43.65625 24.015625 45.921875 
Q 28.375 48.1875 33.59375 48.1875 
Q 44.578125 48.1875 50.953125 41.515625 
Q 57.328125 34.859375 57.328125 23.390625 
Q 57.328125 12.15625 50.6875 5.359375 
Q 44.046875 -1.421875 33.015625 -1.421875 
Q 20.359375 -1.421875 13.671875 8.265625 
Q 6.984375 17.96875 6.984375 36.375 
Q 6.984375 53.65625 15.1875 63.9375 
Q 23.390625 74.21875 37.203125 74.21875 
Q 40.921875 74.21875 44.703125 73.484375 
Q 48.484375 72.75 52.59375 71.296875 
z
" id="DejaVuSans-54"/>
      </defs>
      <g transform="translate(124.275 80.421113)scale(0.1 -0.1)">
       <use xlink:href="#DejaVuSans-54"/>
       <use x="63.623047" xlink:href="#DejaVuSans-48"/>
      </g>
     </g>
    </g>
    <g id="text_18">
     <!-- Squared Deviation -->
     <defs>
      <path d="M 53.515625 70.515625 
L 53.515625 60.890625 
Q 47.90625 63.578125 42.921875 64.890625 
Q 37.9375 66.21875 33.296875 66.21875 
Q 25.25 66.21875 20.875 63.09375 
Q 16.5 59.96875 16.5 54.203125 
Q 16.5 49.359375 19.40625 46.890625 
Q 22.3125 44.4375 30.421875 42.921875 
L 36.375 41.703125 
Q 47.40625 39.59375 52.65625 34.296875 
Q 57.90625 29 57.90625 20.125 
Q 57.90625 9.515625 50.796875 4.046875 
Q 43.703125 -1.421875 29.984375 -1.421875 
Q 24.8125 -1.421875 18.96875 -0.25 
Q 13.140625 0.921875 6.890625 3.21875 
L 6.890625 13.375 
Q 12.890625 10.015625 18.65625 8.296875 
Q 24.421875 6.59375 29.984375 6.59375 
Q 38.421875 6.59375 43.015625 9.90625 
Q 47.609375 13.234375 47.609375 19.390625 
Q 47.609375 24.75 44.3125 27.78125 
Q 41.015625 30.8125 33.5 32.328125 
L 27.484375 33.5 
Q 16.453125 35.6875 11.515625 40.375 
Q 6.59375 45.0625 6.59375 53.421875 
Q 6.59375 63.09375 13.40625 68.65625 
Q 20.21875 74.21875 32.171875 74.21875 
Q 37.3125 74.21875 42.625 73.28125 
Q 47.953125 72.359375 53.515625 70.515625 
z
" id="DejaVuSans-83"/>
      <path d="M 14.796875 27.296875 
Q 14.796875 17.390625 18.875 11.75 
Q 22.953125 6.109375 30.078125 6.109375 
Q 37.203125 6.109375 41.296875 11.75 
Q 45.40625 17.390625 45.40625 27.296875 
Q 45.40625 37.203125 41.296875 42.84375 
Q 37.203125 48.484375 30.078125 48.484375 
Q 22.953125 48.484375 18.875 42.84375 
Q 14.796875 37.203125 14.796875 27.296875 
z
M 45.40625 8.203125 
Q 42.578125 3.328125 38.25 0.953125 
Q 33.9375 -1.421875 27.875 -1.421875 
Q 17.96875 -1.421875 11.734375 6.484375 
Q 5.515625 14.40625 5.515625 27.296875 
Q 5.515625 40.1875 11.734375 48.09375 
Q 17.96875 56 27.875 56 
Q 33.9375 56 38.25 53.625 
Q 42.578125 51.265625 45.40625 46.390625 
L 45.40625 54.6875 
L 54.390625 54.6875 
L 54.390625 -20.796875 
L 45.40625 -20.796875 
z
" id="DejaVuSans-113"/>
      <path d="M 34.28125 27.484375 
Q 23.390625 27.484375 19.1875 25 
Q 14.984375 22.515625 14.984375 16.5 
Q 14.984375 11.71875 18.140625 8.90625 
Q 21.296875 6.109375 26.703125 6.109375 
Q 34.1875 6.109375 38.703125 11.40625 
Q 43.21875 16.703125 43.21875 25.484375 
L 43.21875 27.484375 
z
M 52.203125 31.203125 
L 52.203125 0 
L 43.21875 0 
L 43.21875 8.296875 
Q 40.140625 3.328125 35.546875 0.953125 
Q 30.953125 -1.421875 24.3125 -1.421875 
Q 15.921875 -1.421875 10.953125 3.296875 
Q 6 8.015625 6 15.921875 
Q 6 25.140625 12.171875 29.828125 
Q 18.359375 34.515625 30.609375 34.515625 
L 43.21875 34.515625 
L 43.21875 35.40625 
Q 43.21875 41.609375 39.140625 45 
Q 35.0625 48.390625 27.6875 48.390625 
Q 23 48.390625 18.546875 47.265625 
Q 14.109375 46.140625 10.015625 43.890625 
L 10.015625 52.203125 
Q 14.9375 54.109375 19.578125 55.046875 
Q 24.21875 56 28.609375 56 
Q 40.484375 56 46.34375 49.84375 
Q 52.203125 43.703125 52.203125 31.203125 
z
" id="DejaVuSans-97"/>
      <path d="M 19.671875 64.796875 
L 19.671875 8.109375 
L 31.59375 8.109375 
Q 46.6875 8.109375 53.6875 14.9375 
Q 60.6875 21.78125 60.6875 36.53125 
Q 60.6875 51.171875 53.6875 57.984375 
Q 46.6875 64.796875 31.59375 64.796875 
z
M 9.8125 72.90625 
L 30.078125 72.90625 
Q 51.265625 72.90625 61.171875 64.09375 
Q 71.09375 55.28125 71.09375 36.53125 
Q 71.09375 17.671875 61.125 8.828125 
Q 51.171875 0 30.078125 0 
L 9.8125 0 
z
" id="DejaVuSans-68"/>
      <path d="M 2.984375 54.6875 
L 12.5 54.6875 
L 29.59375 8.796875 
L 46.6875 54.6875 
L 56.203125 54.6875 
L 35.6875 0 
L 23.484375 0 
z
" id="DejaVuSans-118"/>
      <path d="M 9.421875 54.6875 
L 18.40625 54.6875 
L 18.40625 0 
L 9.421875 0 
z
M 9.421875 75.984375 
L 18.40625 75.984375 
L 18.40625 64.59375 
L 9.421875 64.59375 
z
" id="DejaVuSans-105"/>
      <path d="M 18.3125 70.21875 
L 18.3125 54.6875 
L 36.8125 54.6875 
L 36.8125 47.703125 
L 18.3125 47.703125 
L 18.3125 18.015625 
Q 18.3125 11.328125 20.140625 9.421875 
Q 21.96875 7.515625 27.59375 7.515625 
L 36.8125 7.515625 
L 36.8125 0 
L 27.59375 0 
Q 17.1875 0 13.234375 3.875 
Q 9.28125 7.765625 9.28125 18.015625 
L 9.28125 47.703125 
L 2.6875 47.703125 
L 2.6875 54.6875 
L 9.28125 54.6875 
L 9.28125 70.21875 
z
" id="DejaVuSans-116"/>
     </defs>
     <g transform="translate(118.195312 332.840469)rotate(-90)scale(0.1 -0.1)">
      <use xlink:href="#DejaVuSans-83"/>
      <use x="63.476562" xlink:href="#DejaVuSans-113"/>
      <use x="126.953125" xlink:href="#DejaVuSans-117"/>
      <use x="190.332031" xlink:href="#DejaVuSans-97"/>
      <use x="251.611328" xlink:href="#DejaVuSans-114"/>
      <use x="290.474609" xlink:href="#DejaVuSans-101"/>
      <use x="351.998047" xlink:href="#DejaVuSans-100"/>
      <use x="415.474609" xlink:href="#DejaVuSans-32"/>
      <use x="447.261719" xlink:href="#DejaVuSans-68"/>
      <use x="524.263672" xlink:href="#DejaVuSans-101"/>
      <use x="585.787109" xlink:href="#DejaVuSans-118"/>
      <use x="644.966797" xlink:href="#DejaVuSans-105"/>
      <use x="672.75" xlink:href="#DejaVuSans-97"/>
      <use x="734.029297" xlink:href="#DejaVuSans-116"/>
      <use x="773.238281" xlink:href="#DejaVuSans-105"/>
      <use x="801.021484" xlink:href="#DejaVuSans-111"/>
      <use x="862.203125" xlink:href="#DejaVuSans-110"/>
     </g>
    </g>
   </g>
   <g id="line2d_17">
    <path clip-path="url(#p8496fae8c5)" d="M 184.581818 484.232727 
L 300.52987 484.232727 
L 302.564046 481.14592 
L 304.598223 480.739204 
L 306.632399 481.121641 
L 308.666576 479.956869 
L 310.700752 479.913892 
L 312.734928 478.819619 
L 314.769105 475.337871 
L 316.803281 475.688229 
L 318.837457 475.368583 
L 320.871634 473.656893 
L 322.90581 472.653624 
L 329.008339 471.052929 
L 331.042515 469.936182 
L 333.076692 468.998934 
L 335.110868 469.115699 
L 337.145044 466.686712 
L 339.179221 466.259076 
L 341.213397 464.994136 
L 343.247573 464.247422 
L 345.28175 461.189655 
L 347.315926 460.40561 
L 349.350103 455.617427 
L 351.384279 455.194915 
L 353.418455 458.149506 
L 355.452632 455.691412 
L 359.520984 444.862305 
L 361.555161 443.500342 
L 363.589337 443.062517 
L 365.623513 440.794131 
L 367.65769 442.02095 
L 369.691866 438.726513 
L 371.726042 439.647319 
L 373.760219 439.834135 
L 375.794395 436.742899 
L 377.828571 436.62043 
L 379.862748 433.467674 
L 381.896924 433.612275 
L 383.9311 431.912866 
L 385.965277 429.775034 
L 387.999453 430.267724 
L 390.03363 431.450199 
L 392.067806 431.551313 
L 394.101982 429.264815 
L 396.136159 416.475626 
L 398.170335 415.449209 
L 400.204511 410.921493 
L 402.238688 410.844208 
L 404.272864 410.133548 
L 406.30704 405.604284 
L 408.341217 404.544981 
L 410.375393 404.525117 
L 412.409569 395.563538 
L 414.443746 394.655365 
L 416.477922 393.940313 
L 418.512098 391.59892 
L 420.546275 390.619935 
L 422.580451 389.33169 
L 424.614627 389.120689 
L 426.648804 389.116154 
L 428.68298 387.64428 
L 430.717157 387.570966 
L 432.751333 387.803257 
L 434.785509 386.25231 
L 436.819686 385.489185 
L 438.853862 385.254335 
L 440.888038 381.503214 
L 442.922215 380.18207 
L 444.956391 379.14633 
L 446.990567 380.299123 
L 449.024744 377.25916 
L 451.05892 372.665593 
L 453.093096 373.483373 
L 455.127273 373.277957 
L 457.161449 372.75767 
L 459.195625 368.78246 
L 461.229802 365.518428 
L 463.263978 364.222655 
L 465.298154 360.592519 
L 467.332331 361.309281 
L 469.366507 359.470378 
L 471.400684 355.952869 
L 473.43486 355.192841 
L 475.469036 354.78399 
L 477.503213 354.069417 
L 479.537389 352.388596 
L 481.571565 351.713674 
L 483.605742 346.424602 
L 485.639918 345.809492 
L 487.674094 344.531458 
L 489.708271 344.216562 
L 491.742447 340.359266 
L 493.776623 337.531257 
L 495.8108 335.328374 
L 497.844976 334.532532 
L 499.879152 334.47268 
L 501.913329 328.593325 
L 503.947505 325.797956 
L 505.981681 325.89725 
L 508.015858 325.344324 
L 510.050034 321.434563 
L 512.084211 319.206542 
L 514.118387 313.189176 
L 516.152563 309.793663 
L 518.18674 309.770339 
L 520.220916 311.046442 
L 522.255092 308.723559 
L 524.289269 307.236636 
L 526.323445 300.373967 
L 528.357621 297.464196 
L 530.391798 298.357791 
L 532.425974 296.527271 
L 534.46015 295.702817 
L 536.494327 294.488004 
L 538.528503 290.678586 
L 540.562679 289.675823 
L 544.631032 286.966039 
L 546.665208 285.011463 
L 548.699385 283.49418 
L 550.733561 282.663741 
L 552.767738 282.63719 
L 554.801914 282.443941 
L 556.83609 281.776573 
L 558.870267 278.99696 
L 560.904443 275.828801 
L 562.938619 275.488159 
L 564.972796 275.411476 
L 569.041148 273.525005 
L 571.075325 273.723697 
L 573.109501 270.865082 
L 575.143677 269.642649 
L 577.177854 269.247947 
L 579.21203 266.746936 
L 581.246206 265.726862 
L 583.280383 262.32443 
L 585.314559 261.280462 
L 587.348735 260.382656 
L 591.417088 258.272666 
L 593.451265 253.563149 
L 595.485441 246.351053 
L 597.519617 244.723734 
L 599.553794 239.733607 
L 601.58797 238.531712 
L 603.622146 236.925125 
L 605.656323 237.440915 
L 607.690499 236.334025 
L 609.724675 236.886019 
L 611.758852 235.511969 
L 613.793028 231.832218 
L 615.827204 231.959825 
L 617.861381 231.914188 
L 619.895557 231.727676 
L 621.929733 227.170722 
L 623.96391 227.53084 
L 625.998086 225.025306 
L 628.032262 224.243445 
L 630.066439 224.652387 
L 632.100615 222.703149 
L 634.134792 222.037932 
L 636.168968 223.754192 
L 638.203144 223.20523 
L 640.237321 220.253618 
L 642.271497 219.617297 
L 644.305673 220.610911 
L 646.33985 217.94346 
L 648.374026 218.885218 
L 650.408202 216.968349 
L 652.442379 216.854607 
L 654.476555 217.342383 
L 656.510731 218.47283 
L 658.544908 218.16602 
L 660.579084 216.772482 
L 662.61326 216.195169 
L 664.647437 216.105684 
L 666.681613 214.74086 
L 668.715789 214.551756 
L 670.749966 213.744628 
L 672.784142 213.775 
L 674.818319 212.851642 
L 676.852495 212.373403 
L 678.886671 210.362616 
L 680.920848 208.130385 
L 682.955024 208.147852 
L 684.9892 206.360895 
L 687.023377 203.032787 
L 689.057553 202.455993 
L 691.091729 202.325147 
L 693.125906 202.033238 
L 695.160082 201.397901 
L 697.194258 198.965241 
L 699.228435 197.241129 
L 701.262611 194.206744 
L 703.296787 192.150348 
L 705.330964 190.874179 
L 707.36514 189.740649 
L 709.399316 189.214285 
L 715.501846 186.100004 
L 717.536022 184.726032 
L 719.570198 183.541759 
L 721.604375 182.156721 
L 723.638551 181.410856 
L 725.672727 181.083132 
L 727.706904 181.059731 
L 731.775256 180.608366 
L 733.809433 178.833356 
L 735.843609 178.110633 
L 737.877785 177.929486 
L 739.911962 175.222332 
L 741.946138 174.695217 
L 743.980314 172.236824 
L 746.014491 171.339277 
L 748.048667 170.96361 
L 750.082843 168.182028 
L 752.11702 167.715943 
L 754.151196 167.002601 
L 756.185373 165.53137 
L 758.219549 165.454427 
L 760.253725 162.774485 
L 762.287902 162.780808 
L 764.322078 161.7534 
L 766.356254 160.981801 
L 768.390431 160.577368 
L 770.424607 158.451571 
L 772.458783 158.548467 
L 774.49296 157.903568 
L 776.527136 158.301366 
L 778.561312 157.696557 
L 780.595489 157.913675 
L 784.663841 157.483793 
L 786.698018 158.024099 
L 788.732194 158.02441 
L 790.76637 157.006176 
L 792.800547 156.528326 
L 794.834723 155.313214 
L 796.8689 155.955989 
L 798.903076 154.308741 
L 800.937252 152.459977 
L 805.005605 152.214637 
L 807.039781 150.604656 
L 809.073958 149.864336 
L 811.108134 149.874365 
L 813.14231 148.621391 
L 815.176487 147.688341 
L 817.210663 146.483802 
L 819.244839 144.643953 
L 821.279016 141.546413 
L 823.313192 141.558385 
L 825.347368 141.051769 
L 827.381545 139.710709 
L 829.415721 139.775627 
L 831.449897 135.615771 
L 833.484074 135.278951 
L 835.51825 136.565278 
L 837.552427 136.846665 
L 839.586603 136.88572 
L 841.620779 135.885108 
L 843.654956 135.415421 
L 845.689132 135.939322 
L 851.791661 131.495462 
L 853.825837 129.643769 
L 855.860014 128.895571 
L 857.89419 128.592182 
L 861.962543 127.801898 
L 863.996719 126.938767 
L 866.030895 127.613235 
L 868.065072 126.643385 
L 870.099248 124.042847 
L 872.133424 123.915473 
L 874.167601 124.106702 
L 876.201777 124.565453 
L 878.235954 123.601122 
L 880.27013 120.968164 
L 882.304306 119.085165 
L 884.338483 117.958554 
L 888.406835 119.773266 
L 890.441012 118.407664 
L 892.475188 119.273724 
L 894.509364 120.412464 
L 896.543541 119.458163 
L 898.577717 119.346494 
L 900.611893 119.793143 
L 902.64607 119.924922 
L 904.680246 119.136037 
L 906.714422 119.202276 
L 908.748599 119.431574 
L 910.782775 119.354269 
L 912.816951 117.857614 
L 914.851128 117.657368 
L 916.885304 117.022212 
L 918.919481 116.838059 
L 920.953657 118.636237 
L 922.987833 116.49831 
L 925.02201 115.662675 
L 927.056186 115.618101 
L 929.090362 115.790074 
L 931.124539 115.288667 
L 933.158715 115.676047 
L 935.192891 115.377452 
L 937.227068 115.408213 
L 939.261244 115.063956 
L 941.29542 114.377333 
L 943.329597 113.426478 
L 945.363773 113.086626 
L 947.397949 112.568685 
L 949.432126 109.896854 
L 953.500478 110.032131 
L 957.568831 108.834823 
L 959.603008 108.843168 
L 961.637184 108.498781 
L 963.67136 108.379545 
L 965.705537 108.706336 
L 971.808066 108.568622 
L 973.842242 107.776913 
L 975.876418 107.563864 
L 977.910595 107.178894 
L 986.0473 107.19237 
L 988.081476 106.829894 
L 994.184005 106.977274 
L 996.218182 106.14765 
L 996.218182 106.14765 
" style="fill:none;stroke:#1f77b4;stroke-linecap:square;stroke-width:1.5;"/>
   </g>
   <g id="line2d_18">
    <path clip-path="url(#p8496fae8c5)" d="M 184.581818 484.232727 
L 302.564046 484.175819 
L 306.632399 483.93275 
L 308.666576 483.925093 
L 316.803281 483.073938 
L 318.837457 482.563033 
L 320.871634 482.434941 
L 322.90581 482.002417 
L 324.939986 480.317322 
L 326.974163 480.41636 
L 329.008339 480.048198 
L 331.042515 478.895898 
L 335.110868 478.891046 
L 339.179221 477.701924 
L 341.213397 477.39281 
L 343.247573 477.443653 
L 345.28175 477.109832 
L 351.384279 475.655548 
L 355.452632 474.258088 
L 357.486808 474.266498 
L 359.520984 472.888964 
L 361.555161 472.837318 
L 363.589337 472.232356 
L 365.623513 472.455253 
L 367.65769 472.179766 
L 371.726042 470.417895 
L 373.760219 470.131032 
L 375.794395 468.417963 
L 379.862748 467.138876 
L 381.896924 466.854361 
L 383.9311 466.099229 
L 385.965277 464.924382 
L 387.999453 464.000145 
L 390.03363 463.433147 
L 392.067806 463.697077 
L 394.101982 462.47668 
L 396.136159 462.142395 
L 398.170335 461.281362 
L 400.204511 459.325821 
L 402.238688 458.161067 
L 404.272864 456.507974 
L 406.30704 452.464535 
L 408.341217 451.882551 
L 410.375393 450.099712 
L 412.409569 448.689958 
L 414.443746 448.837389 
L 416.477922 447.188609 
L 418.512098 444.462929 
L 420.546275 443.144429 
L 422.580451 441.109833 
L 424.614627 439.920844 
L 426.648804 439.087971 
L 428.68298 438.384928 
L 430.717157 434.824601 
L 438.853862 425.422667 
L 440.888038 421.683065 
L 442.922215 416.453384 
L 444.956391 415.048994 
L 446.990567 413.39243 
L 449.024744 411.143315 
L 451.05892 412.260668 
L 453.093096 407.591805 
L 455.127273 406.762687 
L 457.161449 407.134149 
L 459.195625 407.820358 
L 461.229802 405.431002 
L 463.263978 405.385223 
L 465.298154 403.222528 
L 467.332331 403.669384 
L 469.366507 403.368217 
L 471.400684 400.475278 
L 473.43486 402.158839 
L 475.469036 402.385701 
L 477.503213 399.340399 
L 479.537389 397.677408 
L 481.571565 396.204854 
L 483.605742 396.114909 
L 485.639918 394.602861 
L 487.674094 392.540711 
L 489.708271 393.962633 
L 493.776623 389.704143 
L 495.8108 388.219701 
L 497.844976 388.547023 
L 499.879152 385.645856 
L 501.913329 384.131158 
L 503.947505 381.420687 
L 505.981681 382.524111 
L 508.015858 381.598945 
L 510.050034 379.282605 
L 512.084211 376.099325 
L 514.118387 373.55889 
L 516.152563 372.520728 
L 518.18674 368.650046 
L 522.255092 358.540942 
L 524.289269 352.739086 
L 526.323445 352.367682 
L 528.357621 353.925004 
L 530.391798 351.895184 
L 532.425974 349.38045 
L 534.46015 346.50433 
L 536.494327 343.250651 
L 540.562679 343.65831 
L 542.596856 345.664522 
L 544.631032 342.068671 
L 546.665208 336.27656 
L 548.699385 338.109127 
L 550.733561 334.653258 
L 552.767738 333.100056 
L 554.801914 332.135803 
L 556.83609 330.369695 
L 558.870267 324.347522 
L 560.904443 326.223588 
L 562.938619 325.138816 
L 564.972796 323.844754 
L 567.006972 318.051191 
L 569.041148 311.766962 
L 571.075325 305.059617 
L 573.109501 300.908598 
L 575.143677 297.785518 
L 577.177854 293.115198 
L 579.21203 287.516025 
L 581.246206 286.071265 
L 583.280383 283.891823 
L 585.314559 281.369587 
L 587.348735 279.862359 
L 589.382912 274.739624 
L 591.417088 268.352435 
L 593.451265 271.71409 
L 595.485441 259.912995 
L 597.519617 264.509211 
L 599.553794 263.616121 
L 601.58797 262.425888 
L 603.622146 266.356317 
L 605.656323 266.560865 
L 607.690499 266.114502 
L 609.724675 262.915426 
L 611.758852 258.098879 
L 613.793028 253.961673 
L 615.827204 255.356351 
L 617.861381 254.020241 
L 619.895557 253.52635 
L 621.929733 259.141188 
L 623.96391 254.207375 
L 625.998086 253.295756 
L 628.032262 254.032396 
L 630.066439 250.74145 
L 632.100615 247.166734 
L 634.134792 246.084282 
L 636.168968 243.248226 
L 638.203144 238.573928 
L 640.237321 235.986036 
L 642.271497 230.523527 
L 644.305673 229.181612 
L 646.33985 225.288605 
L 648.374026 224.868753 
L 650.408202 227.09904 
L 652.442379 226.044914 
L 654.476555 215.498257 
L 656.510731 216.056989 
L 658.544908 214.689548 
L 660.579084 207.392968 
L 662.61326 204.353866 
L 664.647437 196.342882 
L 666.681613 192.377287 
L 668.715789 195.362225 
L 670.749966 197.523449 
L 672.784142 195.086047 
L 674.818319 191.759624 
L 676.852495 192.212725 
L 678.886671 192.500436 
L 680.920848 190.246902 
L 682.955024 192.232654 
L 684.9892 185.783501 
L 687.023377 181.573577 
L 689.057553 181.499901 
L 691.091729 179.803232 
L 693.125906 179.302603 
L 695.160082 180.514838 
L 697.194258 183.000572 
L 699.228435 182.392342 
L 701.262611 182.659709 
L 703.296787 183.534632 
L 705.330964 184.640667 
L 707.36514 184.316183 
L 709.399316 185.522484 
L 711.433493 185.128002 
L 715.501846 186.382505 
L 717.536022 185.625963 
L 719.570198 183.64415 
L 721.604375 177.911345 
L 723.638551 178.118019 
L 725.672727 179.189768 
L 727.706904 175.596185 
L 729.74108 173.977522 
L 731.775256 171.792067 
L 733.809433 170.877235 
L 735.843609 171.182619 
L 737.877785 170.698705 
L 739.911962 170.595977 
L 741.946138 168.868936 
L 743.980314 169.638099 
L 746.014491 166.495778 
L 748.048667 162.782389 
L 750.082843 164.32481 
L 752.11702 160.532665 
L 754.151196 159.32696 
L 756.185373 159.739219 
L 758.219549 160.02242 
L 760.253725 159.757956 
L 762.287902 155.061448 
L 764.322078 151.866544 
L 766.356254 146.400122 
L 768.390431 145.588147 
L 770.424607 145.299892 
L 772.458783 145.755326 
L 774.49296 144.560739 
L 778.561312 144.672615 
L 780.595489 147.017785 
L 782.629665 145.955236 
L 784.663841 145.461784 
L 786.698018 142.405372 
L 788.732194 141.146956 
L 790.76637 140.48122 
L 792.800547 141.506114 
L 794.834723 141.809737 
L 796.8689 139.996062 
L 798.903076 138.474347 
L 800.937252 139.500615 
L 802.971429 139.329367 
L 805.005605 139.601762 
L 807.039781 138.630642 
L 809.073958 138.327512 
L 811.108134 137.069277 
L 813.14231 138.509255 
L 815.176487 137.906156 
L 817.210663 138.096866 
L 819.244839 138.069008 
L 821.279016 138.491788 
L 823.313192 137.643221 
L 825.347368 137.158114 
L 827.381545 135.008967 
L 831.449897 132.923312 
L 835.51825 131.534438 
L 837.552427 128.983165 
L 839.586603 128.648081 
L 841.620779 127.848545 
L 843.654956 127.519759 
L 845.689132 127.648558 
L 847.723308 127.618963 
L 849.757485 127.983045 
L 851.791661 128.158077 
L 853.825837 127.279137 
L 855.860014 127.033849 
L 857.89419 125.892751 
L 859.928366 126.183624 
L 861.962543 125.261872 
L 863.996719 124.516939 
L 868.065072 123.309965 
L 870.099248 121.526481 
L 872.133424 122.647961 
L 874.167601 120.981121 
L 876.201777 118.562482 
L 878.235954 118.123271 
L 880.27013 117.973792 
L 882.304306 116.015588 
L 884.338483 115.708337 
L 886.372659 115.162408 
L 888.406835 115.144837 
L 890.441012 114.763055 
L 892.475188 115.171737 
L 894.509364 113.499611 
L 896.543541 113.496242 
L 898.577717 111.152627 
L 900.611893 111.371507 
L 902.64607 111.055082 
L 906.714422 109.695752 
L 908.748599 108.495153 
L 910.782775 108.324009 
L 912.816951 108.786284 
L 914.851128 107.144116 
L 916.885304 107.033769 
L 920.953657 105.861443 
L 922.987833 105.791031 
L 925.02201 105.09469 
L 927.056186 104.007236 
L 929.090362 102.461421 
L 931.124539 102.591593 
L 935.192891 99.577577 
L 937.227068 99.636923 
L 939.261244 97.996361 
L 941.29542 97.730342 
L 947.397949 97.556684 
L 949.432126 97.315206 
L 951.466302 97.289213 
L 953.500478 95.680787 
L 955.534655 94.558348 
L 957.568831 93.884293 
L 959.603008 96.144695 
L 961.637184 96.265382 
L 965.705537 96.33061 
L 967.739713 95.610401 
L 969.773889 95.584589 
L 971.808066 94.986078 
L 973.842242 94.888974 
L 975.876418 94.669627 
L 977.910595 95.052239 
L 981.978947 94.99209 
L 984.013124 95.398985 
L 986.0473 95.303695 
L 988.081476 95.420183 
L 990.115653 95.917289 
L 992.149829 95.736478 
L 996.218182 95.61802 
L 996.218182 95.61802 
" style="fill:none;stroke:#ff7f0e;stroke-linecap:square;stroke-width:1.5;"/>
   </g>
   <g id="line2d_19">
    <path clip-path="url(#p8496fae8c5)" d="M 184.581818 484.232727 
L 302.564046 484.175819 
L 304.598223 484.014201 
L 310.700752 483.880243 
L 312.734928 483.768955 
L 314.769105 483.39196 
L 318.837457 483.11925 
L 320.871634 482.781416 
L 322.90581 481.89641 
L 324.939986 481.230248 
L 326.974163 481.363173 
L 329.008339 481.211651 
L 333.076692 481.299255 
L 337.145044 480.638842 
L 339.179221 479.676717 
L 341.213397 479.017756 
L 343.247573 478.11313 
L 345.28175 477.818699 
L 347.315926 477.813978 
L 351.384279 477.217935 
L 353.418455 477.297095 
L 355.452632 476.554535 
L 359.520984 476.199321 
L 365.623513 474.573843 
L 367.65769 474.308917 
L 369.691866 473.749418 
L 371.726042 472.022717 
L 373.760219 471.414753 
L 381.896924 467.859521 
L 385.965277 465.981088 
L 387.999453 465.550634 
L 390.03363 465.006338 
L 392.067806 463.851238 
L 394.101982 461.551135 
L 396.136159 461.294451 
L 398.170335 460.669665 
L 400.204511 459.287907 
L 402.238688 458.710753 
L 404.272864 455.618794 
L 406.30704 456.007493 
L 408.341217 455.725416 
L 410.375393 455.137439 
L 414.443746 452.55117 
L 418.512098 449.68145 
L 420.546275 447.59666 
L 422.580451 448.536533 
L 424.614627 445.809516 
L 426.648804 441.990454 
L 428.68298 440.287194 
L 430.717157 437.678658 
L 432.751333 435.75047 
L 434.785509 437.131047 
L 436.819686 434.803561 
L 438.853862 434.629161 
L 440.888038 434.594312 
L 442.922215 434.999742 
L 444.956391 433.425957 
L 446.990567 432.001272 
L 449.024744 431.545528 
L 451.05892 430.889076 
L 453.093096 430.587608 
L 455.127273 429.63353 
L 457.161449 430.597838 
L 459.195625 427.075532 
L 461.229802 427.656466 
L 463.263978 426.847595 
L 465.298154 425.812529 
L 467.332331 421.515724 
L 469.366507 421.14364 
L 471.400684 420.657613 
L 473.43486 418.448323 
L 475.469036 417.648658 
L 477.503213 415.909489 
L 479.537389 414.643557 
L 481.571565 412.27634 
L 483.605742 409.217452 
L 485.639918 409.264443 
L 487.674094 406.031989 
L 489.708271 404.142337 
L 491.742447 404.22533 
L 493.776623 401.441007 
L 495.8108 399.005244 
L 497.844976 396.813939 
L 499.879152 395.971793 
L 501.913329 391.41833 
L 503.947505 390.180653 
L 505.981681 383.306426 
L 508.015858 384.160137 
L 510.050034 382.087356 
L 512.084211 378.287922 
L 514.118387 376.123543 
L 516.152563 376.951527 
L 518.18674 375.740438 
L 520.220916 372.143571 
L 522.255092 373.66456 
L 524.289269 372.572221 
L 526.323445 369.899237 
L 528.357621 368.218623 
L 530.391798 365.560138 
L 532.425974 361.010868 
L 534.46015 358.619361 
L 536.494327 352.079 
L 538.528503 351.920516 
L 540.562679 350.101541 
L 542.596856 351.528794 
L 544.631032 350.094816 
L 546.665208 347.342363 
L 548.699385 346.40006 
L 550.733561 345.789887 
L 552.767738 343.145435 
L 554.801914 338.949881 
L 556.83609 335.886756 
L 558.870267 330.15539 
L 560.904443 328.242667 
L 562.938619 325.877892 
L 564.972796 326.729893 
L 567.006972 320.634975 
L 569.041148 321.818172 
L 571.075325 317.50311 
L 575.143677 309.238352 
L 577.177854 307.140814 
L 579.21203 303.550419 
L 581.246206 301.476192 
L 583.280383 297.26264 
L 585.314559 295.163263 
L 587.348735 285.681371 
L 589.382912 284.208468 
L 591.417088 283.53304 
L 593.451265 282.185929 
L 595.485441 280.590576 
L 597.519617 276.788247 
L 599.553794 273.863056 
L 601.58797 274.850697 
L 603.622146 276.241889 
L 605.656323 274.798115 
L 607.690499 271.101351 
L 609.724675 271.134444 
L 611.758852 269.973703 
L 613.793028 266.594814 
L 615.827204 268.335538 
L 617.861381 266.298785 
L 619.895557 258.085766 
L 621.929733 253.787367 
L 623.96391 255.549186 
L 625.998086 254.3447 
L 628.032262 254.281285 
L 630.066439 253.195827 
L 632.100615 251.878065 
L 634.134792 252.61442 
L 636.168968 245.140761 
L 638.203144 245.224053 
L 640.237321 241.195302 
L 642.271497 236.15705 
L 644.305673 235.446767 
L 646.33985 235.434172 
L 648.374026 232.104717 
L 650.408202 228.111677 
L 652.442379 227.887718 
L 654.476555 227.876367 
L 656.510731 221.110427 
L 658.544908 220.390554 
L 662.61326 216.600534 
L 664.647437 212.75008 
L 666.681613 207.573467 
L 668.715789 206.871917 
L 670.749966 207.094451 
L 672.784142 206.88065 
L 674.818319 207.973002 
L 676.852495 207.219854 
L 678.886671 205.537776 
L 680.920848 204.749488 
L 682.955024 201.622923 
L 684.9892 203.112606 
L 687.023377 202.809632 
L 689.057553 200.8634 
L 691.091729 200.445233 
L 693.125906 198.463938 
L 695.160082 197.719161 
L 697.194258 197.645458 
L 699.228435 196.921336 
L 701.262611 190.975586 
L 705.330964 187.591734 
L 707.36514 183.502705 
L 709.399316 184.891189 
L 711.433493 179.801937 
L 713.467669 179.985753 
L 715.501846 182.239831 
L 717.536022 180.450257 
L 719.570198 177.297518 
L 721.604375 173.426228 
L 723.638551 172.205285 
L 727.706904 169.017923 
L 729.74108 171.3902 
L 731.775256 169.768168 
L 733.809433 169.578183 
L 735.843609 168.567309 
L 737.877785 165.84186 
L 739.911962 165.780207 
L 743.980314 164.906969 
L 746.014491 167.456688 
L 748.048667 168.556425 
L 750.082843 167.685545 
L 752.11702 168.009925 
L 754.151196 165.839605 
L 756.185373 164.625452 
L 758.219549 164.586216 
L 760.253725 163.421069 
L 762.287902 161.422437 
L 764.322078 159.227394 
L 766.356254 158.792537 
L 768.390431 159.794315 
L 770.424607 159.612857 
L 772.458783 156.577409 
L 774.49296 155.395987 
L 776.527136 153.122473 
L 778.561312 152.715267 
L 780.595489 151.157064 
L 782.629665 149.88626 
L 784.663841 149.599768 
L 786.698018 149.040622 
L 788.732194 148.301779 
L 790.76637 146.24178 
L 792.800547 146.917648 
L 794.834723 146.25155 
L 796.8689 146.159396 
L 798.903076 145.905064 
L 800.937252 144.872628 
L 802.971429 144.529848 
L 805.005605 143.636188 
L 807.039781 143.606852 
L 809.073958 142.669318 
L 811.108134 139.294693 
L 813.14231 140.253037 
L 815.176487 138.958417 
L 817.210663 137.07674 
L 819.244839 137.10491 
L 821.279016 135.033353 
L 823.313192 133.717327 
L 825.347368 133.298045 
L 827.381545 132.646952 
L 829.415721 130.086815 
L 831.449897 129.653954 
L 833.484074 128.995034 
L 835.51825 130.655524 
L 837.552427 129.870449 
L 841.620779 129.855807 
L 843.654956 129.484546 
L 845.689132 130.576846 
L 851.791661 130.053877 
L 853.825837 127.739054 
L 857.89419 127.015838 
L 859.928366 124.491128 
L 861.962543 123.814223 
L 863.996719 122.919734 
L 870.099248 122.448362 
L 872.133424 122.629484 
L 874.167601 122.42141 
L 876.201777 122.391167 
L 878.235954 120.507288 
L 880.27013 120.235748 
L 882.304306 120.192366 
L 884.338483 120.35812 
L 886.372659 117.400263 
L 888.406835 117.114859 
L 890.441012 114.723171 
L 892.475188 114.441862 
L 894.509364 112.631737 
L 896.543541 112.512864 
L 898.577717 111.478744 
L 900.611893 109.754009 
L 902.64607 108.626491 
L 904.680246 108.23017 
L 906.714422 107.651043 
L 910.782775 104.506907 
L 912.816951 103.520212 
L 914.851128 103.502564 
L 916.885304 103.312709 
L 918.919481 103.57041 
L 920.953657 102.332804 
L 922.987833 100.42871 
L 925.02201 100.073387 
L 927.056186 97.72236 
L 929.090362 96.412943 
L 931.124539 96.645013 
L 933.158715 96.438988 
L 937.227068 96.284326 
L 939.261244 95.645127 
L 941.29542 95.613252 
L 943.329597 95.468101 
L 945.363773 94.599527 
L 947.397949 95.124698 
L 949.432126 94.539689 
L 955.534655 93.900438 
L 957.568831 93.87556 
L 961.637184 92.945178 
L 963.67136 91.930313 
L 965.705537 92.028946 
L 967.739713 91.878586 
L 969.773889 90.474242 
L 973.842242 90.307659 
L 975.876418 89.924736 
L 977.910595 90.3251 
L 979.944771 90.39279 
L 981.978947 90.343603 
L 984.013124 89.536915 
L 986.0473 89.051497 
L 990.115653 88.924306 
L 994.184005 88.968517 
L 996.218182 88.887273 
L 996.218182 88.887273 
" style="fill:none;stroke:#2ca02c;stroke-linecap:square;stroke-width:1.5;"/>
   </g>
   <g id="line2d_20">
    <path clip-path="url(#p8496fae8c5)" d="M 184.581818 484.232727 
L 302.564046 484.175819 
L 306.632399 483.93275 
L 308.666576 483.925093 
L 316.803281 483.073938 
L 320.871634 482.116504 
L 322.90581 482.002417 
L 324.939986 482.035772 
L 326.974163 481.00496 
L 329.008339 479.385566 
L 331.042515 478.895898 
L 335.110868 478.891046 
L 339.179221 478.183012 
L 347.315926 475.918774 
L 349.350103 475.57043 
L 353.418455 474.191317 
L 355.452632 474.258088 
L 357.486808 472.767482 
L 359.520984 472.144644 
L 365.623513 472.455253 
L 367.65769 472.179766 
L 371.726042 470.417895 
L 373.760219 470.131032 
L 377.828571 468.586826 
L 379.862748 468.048039 
L 381.896924 468.325531 
L 383.9311 468.171645 
L 385.965277 466.328478 
L 390.03363 465.032527 
L 394.101982 462.47668 
L 396.136159 462.142395 
L 398.170335 461.281362 
L 402.238688 457.500482 
L 404.272864 456.50569 
L 406.30704 455.380676 
L 408.341217 455.27568 
L 410.375393 453.342361 
L 412.409569 452.751647 
L 414.443746 451.109984 
L 416.477922 447.188609 
L 418.512098 445.401264 
L 420.546275 442.223212 
L 422.580451 441.474975 
L 424.614627 439.138007 
L 426.648804 437.802299 
L 428.68298 434.808118 
L 430.717157 433.691747 
L 432.751333 431.37921 
L 434.785509 430.227581 
L 436.819686 430.197581 
L 438.853862 426.736554 
L 440.888038 424.936686 
L 442.922215 422.940069 
L 444.956391 420.123216 
L 446.990567 419.155905 
L 449.024744 419.502605 
L 451.05892 418.113499 
L 453.093096 419.859989 
L 455.127273 419.788625 
L 457.161449 417.884823 
L 461.229802 417.475596 
L 463.263978 417.329635 
L 467.332331 410.030924 
L 469.366507 409.684943 
L 471.400684 409.482785 
L 473.43486 407.829097 
L 475.469036 405.037985 
L 477.503213 401.666625 
L 479.537389 399.338203 
L 481.571565 397.846284 
L 485.639918 394.602861 
L 487.674094 392.57823 
L 489.708271 393.846468 
L 491.742447 391.590951 
L 495.8108 388.219701 
L 497.844976 389.502627 
L 499.879152 386.609188 
L 501.913329 385.178605 
L 503.947505 381.799379 
L 505.981681 382.045302 
L 508.015858 378.748318 
L 510.050034 377.874743 
L 512.084211 374.723597 
L 514.118387 372.107199 
L 516.152563 369.845527 
L 518.18674 368.650046 
L 520.220916 363.529333 
L 522.255092 365.204154 
L 524.289269 364.628254 
L 526.323445 364.659611 
L 528.357621 361.608356 
L 530.391798 361.78156 
L 532.425974 358.265632 
L 534.46015 352.834622 
L 536.494327 354.592969 
L 538.528503 351.900846 
L 540.562679 349.680665 
L 542.596856 345.261618 
L 544.631032 347.05977 
L 546.665208 343.826085 
L 548.699385 341.079734 
L 550.733561 339.502937 
L 552.767738 333.100056 
L 554.801914 331.288234 
L 556.83609 332.750888 
L 558.870267 331.916807 
L 560.904443 326.223588 
L 562.938619 324.383505 
L 564.972796 318.084803 
L 567.006972 317.354836 
L 569.041148 310.329369 
L 571.075325 305.15834 
L 573.109501 302.999112 
L 575.143677 302.787592 
L 577.177854 296.309544 
L 579.21203 301.368126 
L 581.246206 296.515622 
L 585.314559 285.323301 
L 587.348735 282.062832 
L 589.382912 278.471815 
L 591.417088 276.041824 
L 595.485441 281.564133 
L 597.519617 282.377611 
L 599.553794 272.314428 
L 601.58797 270.588126 
L 603.622146 274.066114 
L 605.656323 273.298791 
L 607.690499 273.778002 
L 609.724675 269.295774 
L 611.758852 268.682361 
L 615.827204 265.922652 
L 617.861381 263.201763 
L 619.895557 259.160158 
L 621.929733 260.278373 
L 623.96391 259.732444 
L 625.998086 258.505592 
L 628.032262 255.474551 
L 630.066439 250.672697 
L 632.100615 250.258547 
L 634.134792 246.436547 
L 638.203144 241.180763 
L 640.237321 240.136433 
L 642.271497 235.453479 
L 644.305673 230.016314 
L 646.33985 229.020575 
L 648.374026 225.081516 
L 650.408202 223.847486 
L 652.442379 226.044914 
L 654.476555 226.608725 
L 656.510731 223.52238 
L 658.544908 212.811862 
L 660.579084 211.677346 
L 662.61326 212.581838 
L 664.647437 205.145472 
L 666.681613 197.247453 
L 668.715789 193.148705 
L 670.749966 195.398455 
L 672.784142 193.02286 
L 674.818319 195.236044 
L 676.852495 197.25546 
L 678.886671 194.826455 
L 680.920848 197.628147 
L 682.955024 198.089748 
L 684.9892 195.044065 
L 687.023377 188.67683 
L 689.057553 188.658974 
L 691.091729 188.151114 
L 693.125906 189.425442 
L 695.160082 184.779806 
L 697.194258 183.251587 
L 699.228435 184.151388 
L 701.262611 184.66228 
L 703.296787 183.724047 
L 705.330964 181.048276 
L 709.399316 183.839136 
L 711.433493 184.464055 
L 713.467669 184.534233 
L 715.501846 185.740301 
L 717.536022 184.885721 
L 719.570198 179.049515 
L 721.604375 180.515615 
L 723.638551 179.784522 
L 725.672727 177.537778 
L 727.706904 176.565958 
L 729.74108 176.707506 
L 731.775256 176.33666 
L 735.843609 169.289462 
L 737.877785 165.864743 
L 739.911962 164.224337 
L 741.946138 164.716699 
L 743.980314 163.391655 
L 746.014491 162.890248 
L 748.048667 162.782389 
L 750.082843 156.92063 
L 752.11702 153.12452 
L 754.151196 151.977539 
L 756.185373 153.586147 
L 758.219549 153.31396 
L 760.253725 149.457234 
L 762.287902 150.098739 
L 764.322078 145.872644 
L 766.356254 145.101771 
L 768.390431 145.588147 
L 770.424607 144.49082 
L 772.458783 141.167221 
L 774.49296 140.810991 
L 776.527136 139.905333 
L 778.561312 140.284627 
L 780.595489 138.442316 
L 782.629665 138.280268 
L 784.663841 138.981767 
L 786.698018 137.065467 
L 788.732194 136.540322 
L 790.76637 135.469402 
L 792.800547 136.100359 
L 794.834723 135.60709 
L 796.8689 135.373464 
L 798.903076 136.559447 
L 800.937252 135.798888 
L 802.971429 135.36372 
L 805.005605 134.604094 
L 807.039781 134.038132 
L 809.073958 136.251912 
L 811.108134 136.594718 
L 813.14231 135.381679 
L 815.176487 133.321395 
L 817.210663 133.305457 
L 819.244839 134.613786 
L 821.279016 133.657152 
L 823.313192 133.694341 
L 825.347368 133.491736 
L 827.381545 130.878032 
L 829.415721 131.128269 
L 831.449897 130.455589 
L 833.484074 130.050119 
L 835.51825 129.292514 
L 837.552427 127.905352 
L 839.586603 127.373598 
L 841.620779 127.860155 
L 845.689132 126.164006 
L 847.723308 125.442475 
L 849.757485 123.741297 
L 851.791661 123.917158 
L 853.825837 123.15818 
L 855.860014 122.904703 
L 857.89419 122.458417 
L 859.928366 122.590067 
L 863.996719 121.138012 
L 866.030895 121.39465 
L 868.065072 121.082346 
L 870.099248 120.112781 
L 872.133424 121.306279 
L 874.167601 118.862502 
L 876.201777 116.679639 
L 878.235954 116.527387 
L 880.27013 116.129071 
L 882.304306 116.113936 
L 884.338483 116.546383 
L 888.406835 115.817388 
L 890.441012 116.042799 
L 892.475188 115.908299 
L 894.509364 115.96723 
L 896.543541 115.571194 
L 898.577717 113.961653 
L 900.611893 113.445604 
L 902.64607 113.066775 
L 904.680246 110.72741 
L 906.714422 110.422051 
L 908.748599 111.011363 
L 910.782775 108.821684 
L 912.816951 107.298829 
L 914.851128 106.41297 
L 916.885304 105.2125 
L 918.919481 104.638246 
L 920.953657 103.639707 
L 922.987833 103.482091 
L 925.02201 102.037914 
L 927.056186 101.96898 
L 929.090362 101.130183 
L 931.124539 99.529116 
L 933.158715 99.429705 
L 937.227068 99.636923 
L 941.29542 96.650171 
L 945.363773 96.60215 
L 947.397949 95.118867 
L 949.432126 95.161472 
L 951.466302 94.946039 
L 953.500478 94.869641 
L 955.534655 94.627282 
L 957.568831 93.909042 
L 959.603008 94.354291 
L 963.67136 94.39319 
L 965.705537 94.636041 
L 967.739713 94.498717 
L 969.773889 95.875436 
L 971.808066 95.993091 
L 977.910595 95.646371 
L 979.944771 96.063787 
L 981.978947 95.844104 
L 984.013124 95.310536 
L 986.0473 95.261401 
L 988.081476 95.030963 
L 990.115653 94.476974 
L 994.184005 94.566925 
L 996.218182 94.524347 
L 996.218182 94.524347 
" style="fill:none;stroke:#d62728;stroke-dasharray:5.55,2.4;stroke-dashoffset:0;stroke-width:1.5;"/>
   </g>
   <g id="line2d_21">
    <path clip-path="url(#p8496fae8c5)" d="M 184.581818 484.232727 
L 302.564046 484.175819 
L 312.734928 483.768955 
L 316.803281 483.056184 
L 318.837457 482.151598 
L 320.871634 482.02964 
L 322.90581 481.344372 
L 326.974163 481.069585 
L 329.008339 480.374323 
L 331.042515 480.616238 
L 335.110868 480.739719 
L 337.145044 479.630272 
L 341.213397 479.162998 
L 343.247573 478.317737 
L 345.28175 477.968104 
L 349.350103 478.134037 
L 351.384279 477.72706 
L 355.452632 476.173811 
L 357.486808 475.940628 
L 359.520984 475.387084 
L 361.555161 475.29099 
L 363.589337 474.857843 
L 365.623513 474.577741 
L 367.65769 474.099105 
L 369.691866 473.749418 
L 371.726042 473.220505 
L 373.760219 472.448313 
L 375.794395 470.549392 
L 379.862748 468.724397 
L 387.999453 465.207797 
L 390.03363 465.417276 
L 392.067806 465.000614 
L 394.101982 462.594871 
L 396.136159 461.939712 
L 398.170335 461.632265 
L 402.238688 460.183261 
L 404.272864 458.707486 
L 406.30704 458.269216 
L 408.341217 454.847525 
L 410.375393 453.951987 
L 412.409569 452.845981 
L 414.443746 450.856436 
L 416.477922 450.572706 
L 418.512098 449.971497 
L 420.546275 450.706737 
L 422.580451 446.940478 
L 424.614627 445.615874 
L 426.648804 446.511584 
L 428.68298 446.215668 
L 430.717157 444.290065 
L 432.751333 442.998714 
L 434.785509 440.225289 
L 438.853862 436.846647 
L 440.888038 435.652128 
L 442.922215 434.299053 
L 444.956391 431.687183 
L 446.990567 431.121963 
L 449.024744 432.279375 
L 451.05892 431.618077 
L 455.127273 431.770358 
L 457.161449 431.41096 
L 459.195625 430.481868 
L 461.229802 427.260352 
L 463.263978 426.857727 
L 465.298154 426.993899 
L 467.332331 425.963465 
L 469.366507 425.516681 
L 471.400684 423.468972 
L 473.43486 421.970238 
L 475.469036 420.839097 
L 477.503213 420.763334 
L 479.537389 418.586866 
L 481.571565 414.529168 
L 483.605742 411.821094 
L 485.639918 410.527777 
L 487.674094 407.608417 
L 489.708271 406.14829 
L 491.742447 404.124319 
L 493.776623 404.337297 
L 495.8108 402.493735 
L 497.844976 398.540604 
L 499.879152 395.543401 
L 501.913329 392.978218 
L 503.947505 393.530898 
L 505.981681 391.13542 
L 508.015858 391.672021 
L 510.050034 390.444716 
L 512.084211 389.639861 
L 514.118387 383.411499 
L 516.152563 380.607572 
L 518.18674 378.262201 
L 520.220916 377.100099 
L 522.255092 374.259974 
L 524.289269 370.679647 
L 526.323445 368.998593 
L 528.357621 367.009044 
L 530.391798 365.914943 
L 532.425974 363.231114 
L 534.46015 356.787247 
L 536.494327 358.413957 
L 538.528503 356.590149 
L 540.562679 356.209326 
L 542.596856 353.467277 
L 544.631032 348.82742 
L 546.665208 344.894335 
L 548.699385 338.786758 
L 550.733561 335.092157 
L 552.767738 334.533685 
L 554.801914 335.489956 
L 558.870267 330.950429 
L 560.904443 330.096407 
L 562.938619 328.535444 
L 567.006972 324.739411 
L 569.041148 318.575157 
L 571.075325 316.236622 
L 573.109501 315.055122 
L 575.143677 316.661644 
L 577.177854 315.131947 
L 579.21203 313.012797 
L 581.246206 312.22377 
L 583.280383 314.591214 
L 585.314559 310.997799 
L 587.348735 307.630547 
L 589.382912 308.423811 
L 591.417088 303.717196 
L 593.451265 300.596371 
L 595.485441 298.902774 
L 597.519617 295.314906 
L 599.553794 285.395228 
L 601.58797 284.329297 
L 603.622146 285.424526 
L 605.656323 280.964002 
L 607.690499 279.596288 
L 609.724675 276.294821 
L 611.758852 275.816466 
L 613.793028 277.589143 
L 615.827204 275.212162 
L 617.861381 272.391992 
L 619.895557 270.568703 
L 621.929733 269.050487 
L 623.96391 267.878783 
L 625.998086 267.40732 
L 628.032262 259.218649 
L 630.066439 255.336708 
L 632.100615 247.64404 
L 634.134792 242.242587 
L 636.168968 238.925701 
L 638.203144 240.028522 
L 640.237321 237.401135 
L 642.271497 233.231095 
L 644.305673 233.233686 
L 646.33985 233.668103 
L 648.374026 231.128025 
L 650.408202 227.328986 
L 652.442379 226.313007 
L 654.476555 220.729214 
L 656.510731 220.882062 
L 658.544908 219.057969 
L 660.579084 219.062167 
L 662.61326 218.270639 
L 664.647437 217.607495 
L 666.681613 212.304364 
L 668.715789 208.235911 
L 670.749966 208.30894 
L 672.784142 207.640017 
L 674.818319 205.9561 
L 676.852495 202.994562 
L 678.886671 203.235522 
L 680.920848 198.160082 
L 682.955024 196.094252 
L 684.9892 195.344292 
L 687.023377 195.010193 
L 689.057553 188.865492 
L 691.091729 188.22575 
L 693.125906 189.84602 
L 695.160082 193.059867 
L 697.194258 192.411987 
L 699.228435 192.153561 
L 703.296787 188.904547 
L 705.330964 184.982333 
L 707.36514 184.212755 
L 709.399316 182.354143 
L 711.433493 182.080634 
L 713.467669 180.254053 
L 715.501846 176.552793 
L 717.536022 179.53273 
L 719.570198 180.00931 
L 721.604375 175.679969 
L 725.672727 172.403588 
L 727.706904 172.103334 
L 729.74108 170.668358 
L 731.775256 171.16891 
L 733.809433 173.842789 
L 735.843609 172.128731 
L 737.877785 171.27112 
L 741.946138 166.536983 
L 743.980314 165.363802 
L 746.014491 166.613251 
L 748.048667 165.803816 
L 750.082843 163.336041 
L 752.11702 162.570817 
L 756.185373 162.298785 
L 758.219549 162.558534 
L 760.253725 162.140599 
L 762.287902 161.032206 
L 764.322078 162.387934 
L 766.356254 160.3751 
L 768.390431 159.916349 
L 772.458783 157.098849 
L 774.49296 156.77325 
L 776.527136 154.186292 
L 778.561312 151.419015 
L 782.629665 150.835145 
L 784.663841 149.599768 
L 786.698018 149.040622 
L 788.732194 145.200067 
L 790.76637 143.23287 
L 792.800547 141.671998 
L 794.834723 139.065343 
L 796.8689 138.576298 
L 798.903076 136.788641 
L 800.937252 136.116919 
L 802.971429 135.00254 
L 805.005605 135.741641 
L 807.039781 135.029543 
L 811.108134 135.195893 
L 813.14231 135.157202 
L 815.176487 134.637757 
L 817.210663 134.278106 
L 819.244839 134.073091 
L 823.313192 133.248003 
L 825.347368 134.146975 
L 827.381545 135.983845 
L 829.415721 135.949611 
L 831.449897 135.292142 
L 835.51825 134.283471 
L 839.586603 134.305343 
L 841.620779 133.745108 
L 843.654956 133.523404 
L 845.689132 132.798374 
L 847.723308 130.021846 
L 849.757485 128.393983 
L 851.791661 127.576332 
L 853.825837 127.275198 
L 855.860014 124.53311 
L 857.89419 124.547467 
L 859.928366 124.135079 
L 861.962543 122.294633 
L 863.996719 122.136084 
L 866.030895 120.022052 
L 868.065072 120.018579 
L 870.099248 119.574056 
L 872.133424 119.747843 
L 874.167601 118.15367 
L 876.201777 115.253266 
L 878.235954 115.105161 
L 880.27013 115.274387 
L 882.304306 113.603298 
L 884.338483 114.118751 
L 886.372659 113.325098 
L 888.406835 113.320615 
L 890.441012 111.292102 
L 892.475188 111.256262 
L 894.509364 109.606422 
L 896.543541 107.280248 
L 898.577717 106.914066 
L 902.64607 106.603291 
L 904.680246 104.735713 
L 906.714422 103.672023 
L 908.748599 103.59731 
L 910.782775 101.981393 
L 912.816951 99.742035 
L 916.885304 99.664912 
L 918.919481 99.041573 
L 920.953657 98.118215 
L 922.987833 98.417483 
L 925.02201 97.942872 
L 927.056186 97.315854 
L 929.090362 97.439677 
L 931.124539 96.478612 
L 933.158715 94.835485 
L 935.192891 94.7368 
L 939.261244 94.331304 
L 941.29542 93.722168 
L 943.329597 93.372572 
L 945.363773 93.845576 
L 951.466302 93.570175 
L 953.500478 93.748031 
L 955.534655 93.3656 
L 957.568831 93.575876 
L 959.603008 93.534205 
L 961.637184 93.343495 
L 963.67136 92.265448 
L 965.705537 92.028946 
L 967.739713 92.439132 
L 971.808066 92.238678 
L 973.842242 92.15689 
L 975.876418 90.812591 
L 977.910595 90.400047 
L 979.944771 90.303072 
L 981.978947 89.496047 
L 988.081476 89.416357 
L 996.218182 89.140801 
L 996.218182 89.140801 
" style="fill:none;stroke:#9467bd;stroke-dasharray:5.55,2.4;stroke-dashoffset:0;stroke-width:1.5;"/>
   </g>
   <g id="line2d_22">
    <path clip-path="url(#p8496fae8c5)" d="M 184.581818 484.232727 
L 300.52987 484.232727 
L 302.564046 483.992353 
L 304.598223 483.910539 
L 310.700752 483.240018 
L 312.734928 483.099561 
L 314.769105 482.048655 
L 316.803281 480.651192 
L 318.837457 479.815131 
L 320.871634 479.537134 
L 322.90581 477.978242 
L 324.939986 475.579018 
L 326.974163 473.845743 
L 329.008339 474.690915 
L 331.042515 475.119503 
L 333.076692 475.211932 
L 335.110868 475.548561 
L 337.145044 476.138722 
L 339.179221 476.881718 
L 341.213397 476.76264 
L 343.247573 477.040787 
L 345.28175 474.704604 
L 347.315926 473.658322 
L 349.350103 473.069768 
L 351.384279 471.860874 
L 353.418455 469.741442 
L 355.452632 469.589741 
L 357.486808 468.305287 
L 359.520984 468.949012 
L 361.555161 466.460981 
L 363.589337 466.357014 
L 365.623513 463.679587 
L 367.65769 464.21001 
L 369.691866 463.7688 
L 371.726042 463.838528 
L 373.760219 461.733497 
L 375.794395 460.713625 
L 377.828571 460.074772 
L 379.862748 457.855302 
L 381.896924 457.313862 
L 383.9311 453.802706 
L 385.965277 453.083196 
L 387.999453 451.198303 
L 390.03363 450.359956 
L 392.067806 448.052437 
L 394.101982 446.65451 
L 400.204511 441.195635 
L 402.238688 440.812171 
L 404.272864 439.344762 
L 406.30704 437.20636 
L 408.341217 436.561168 
L 410.375393 434.311314 
L 412.409569 432.993578 
L 414.443746 429.120241 
L 416.477922 428.073073 
L 418.512098 428.280783 
L 420.546275 427.832372 
L 422.580451 423.577796 
L 424.614627 420.164078 
L 428.68298 415.531879 
L 430.717157 407.782599 
L 432.751333 408.209487 
L 434.785509 405.413535 
L 436.819686 399.822286 
L 438.853862 393.464951 
L 440.888038 385.112689 
L 442.922215 380.59672 
L 444.956391 380.291419 
L 446.990567 377.009635 
L 449.024744 372.401258 
L 451.05892 372.880741 
L 453.093096 372.570213 
L 455.127273 367.9964 
L 457.161449 367.057039 
L 459.195625 367.392485 
L 461.229802 366.175974 
L 463.263978 367.623403 
L 465.298154 365.275214 
L 467.332331 365.985316 
L 469.366507 365.81666 
L 471.400684 365.948024 
L 473.43486 364.234654 
L 475.469036 359.9131 
L 477.503213 357.787082 
L 479.537389 350.25571 
L 481.571565 346.488535 
L 483.605742 340.14658 
L 485.639918 336.567847 
L 487.674094 335.537886 
L 489.708271 335.494607 
L 491.742447 335.130045 
L 493.776623 333.13359 
L 495.8108 331.658432 
L 497.844976 323.665382 
L 499.879152 318.859538 
L 501.913329 313.502127 
L 503.947505 311.943574 
L 505.981681 302.962455 
L 508.015858 300.445467 
L 510.050034 296.622353 
L 512.084211 295.507184 
L 514.118387 292.23491 
L 516.152563 291.431358 
L 518.18674 292.712592 
L 520.220916 290.628401 
L 522.255092 288.184818 
L 524.289269 282.609111 
L 526.323445 280.374819 
L 528.357621 275.118492 
L 530.391798 272.702612 
L 532.425974 268.451068 
L 534.46015 263.801337 
L 536.494327 257.555334 
L 538.528503 251.873582 
L 540.562679 249.209836 
L 542.596856 245.068743 
L 544.631032 238.36956 
L 546.665208 230.825516 
L 548.699385 228.38021 
L 550.733561 226.980375 
L 552.767738 223.610129 
L 554.801914 218.212226 
L 556.83609 215.709466 
L 558.870267 212.619027 
L 560.904443 211.597579 
L 562.938619 199.187827 
L 564.972796 196.431616 
L 567.006972 194.512777 
L 569.041148 193.738457 
L 571.075325 193.175216 
L 573.109501 190.407758 
L 575.143677 183.542847 
L 577.177854 182.531066 
L 579.21203 182.850704 
L 581.246206 178.327284 
L 583.280383 170.338587 
L 585.314559 168.196644 
L 587.348735 168.624789 
L 589.382912 167.491388 
L 591.417088 167.649367 
L 593.451265 167.022686 
L 595.485441 163.599806 
L 597.519617 162.51554 
L 599.553794 156.100466 
L 601.58797 154.543144 
L 603.622146 154.611638 
L 605.656323 150.274237 
L 607.690499 147.976336 
L 609.724675 146.819896 
L 611.758852 146.819352 
L 613.793028 141.819507 
L 615.827204 141.617705 
L 617.861381 141.836922 
L 619.895557 142.365411 
L 621.929733 141.641262 
L 623.96391 140.269026 
L 625.998086 140.14891 
L 628.032262 138.693771 
L 632.100615 138.300612 
L 634.134792 138.595216 
L 638.203144 137.566641 
L 640.237321 132.541425 
L 642.271497 126.119043 
L 644.305673 126.425438 
L 646.33985 122.477517 
L 648.374026 122.845513 
L 650.408202 122.430636 
L 652.442379 122.423354 
L 654.476555 121.878124 
L 656.510731 122.237542 
L 658.544908 121.688062 
L 660.579084 121.950661 
L 662.61326 121.077189 
L 664.647437 117.180036 
L 666.681613 116.9964 
L 670.749966 118.103912 
L 674.818319 118.538562 
L 676.852495 118.385559 
L 678.886671 118.375789 
L 680.920848 118.111013 
L 682.955024 118.140453 
L 684.9892 114.847927 
L 687.023377 115.069916 
L 689.057553 115.125479 
L 691.091729 114.660715 
L 693.125906 117.241817 
L 695.160082 115.872873 
L 697.194258 115.238495 
L 701.262611 115.171737 
L 703.296787 112.838566 
L 705.330964 112.696006 
L 709.399316 112.750169 
L 711.433493 111.874935 
L 713.467669 111.76534 
L 715.501846 111.483538 
L 721.604375 111.208396 
L 723.638551 111.850756 
L 725.672727 111.899581 
L 727.706904 111.402631 
L 729.74108 111.273158 
L 731.775256 111.559314 
L 733.809433 112.748252 
L 735.843609 112.554406 
L 737.877785 112.010498 
L 739.911962 112.459349 
L 741.946138 113.131434 
L 748.048667 112.966561 
L 750.082843 113.239163 
L 752.11702 112.942201 
L 754.151196 112.873707 
L 756.185373 112.380541 
L 760.253725 112.29033 
L 762.287902 111.159442 
L 764.322078 110.862739 
L 766.356254 111.313845 
L 768.390431 111.08136 
L 772.458783 111.114687 
L 774.49296 110.365815 
L 776.527136 110.32036 
L 780.595489 109.226143 
L 782.629665 110.035708 
L 788.732194 109.861195 
L 790.76637 110.007408 
L 794.834723 109.880424 
L 800.937252 109.979446 
L 802.971429 109.80711 
L 805.005605 110.011036 
L 807.039781 109.748075 
L 809.073958 109.713193 
L 811.108134 109.525386 
L 813.14231 109.496205 
L 815.176487 108.797505 
L 817.210663 108.609154 
L 819.244839 108.183289 
L 821.279016 107.257598 
L 823.313192 106.585695 
L 825.347368 106.518445 
L 827.381545 105.430551 
L 829.415721 105.076912 
L 831.449897 105.023579 
L 833.484074 105.105108 
L 835.51825 104.550263 
L 837.552427 104.534403 
L 843.654956 104.052743 
L 849.757485 103.904638 
L 851.791661 104.39599 
L 853.825837 103.632554 
L 857.89419 103.608531 
L 859.928366 103.299207 
L 861.962543 103.55201 
L 863.996719 103.261086 
L 866.030895 103.487792 
L 868.065072 102.920301 
L 874.167601 102.772662 
L 876.201777 103.763789 
L 878.235954 103.750209 
L 880.27013 103.330461 
L 882.304306 103.595055 
L 884.338483 103.554135 
L 886.372659 103.310662 
L 888.406835 103.233953 
L 890.441012 102.757709 
L 892.475188 102.671748 
L 894.509364 103.523711 
L 898.577717 101.271524 
L 900.611893 99.788916 
L 902.64607 99.38552 
L 904.680246 98.707526 
L 906.714422 97.810083 
L 908.748599 97.815111 
L 910.782775 97.075024 
L 912.816951 97.070178 
L 914.851128 96.890379 
L 916.885304 96.867029 
L 918.919481 96.652244 
L 920.953657 96.892737 
L 922.987833 96.480737 
L 925.02201 96.399804 
L 927.056186 96.682953 
L 929.090362 96.354012 
L 931.124539 97.206829 
L 933.158715 97.164743 
L 935.192891 97.492026 
L 939.261244 97.321996 
L 941.29542 97.329434 
L 943.329597 97.730938 
L 945.363773 97.35877 
L 947.397949 96.268595 
L 949.432126 96.072547 
L 953.500478 96.209405 
L 955.534655 96.185667 
L 957.568831 96.556694 
L 959.603008 96.551174 
L 961.637184 95.529882 
L 967.739713 95.221595 
L 969.773889 95.763197 
L 973.842242 95.751794 
L 975.876418 94.5917 
L 977.910595 94.000782 
L 979.944771 93.821812 
L 981.978947 94.16524 
L 984.013124 94.020633 
L 986.0473 93.54978 
L 990.115653 92.81441 
L 992.149829 90.054208 
L 994.184005 90.056204 
L 996.218182 89.733508 
L 996.218182 89.733508 
" style="fill:none;stroke:#8c564b;stroke-dasharray:5.55,2.4;stroke-dashoffset:0;stroke-width:1.5;"/>
   </g>
   <g id="patch_3">
    <path d="M 144 504 
L 144 69.12 
" style="fill:none;stroke:#000000;stroke-linecap:square;stroke-linejoin:miter;stroke-width:0.8;"/>
   </g>
   <g id="patch_4">
    <path d="M 1036.8 504 
L 1036.8 69.12 
" style="fill:none;stroke:#000000;stroke-linecap:square;stroke-linejoin:miter;stroke-width:0.8;"/>
   </g>
   <g id="patch_5">
    <path d="M 144 504 
L 1036.8 504 
" style="fill:none;stroke:#000000;stroke-linecap:square;stroke-linejoin:miter;stroke-width:0.8;"/>
   </g>
   <g id="patch_6">
    <path d="M 144 69.12 
L 1036.8 69.12 
" style="fill:none;stroke:#000000;stroke-linecap:square;stroke-linejoin:miter;stroke-width:0.8;"/>
   </g>
   <g id="legend_1">
    <g id="patch_7">
     <path d="M 151 166.579375 
L 275.432813 166.579375 
Q 277.432813 166.579375 277.432813 164.579375 
L 277.432813 76.12 
Q 277.432813 74.12 275.432813 74.12 
L 151 74.12 
Q 149 74.12 149 76.12 
L 149 164.579375 
Q 149 166.579375 151 166.579375 
z
" style="fill:#ffffff;opacity:0.8;stroke:#cccccc;stroke-linejoin:miter;"/>
    </g>
    <g id="line2d_23">
     <path d="M 153 82.218438 
L 173 82.218438 
" style="fill:none;stroke:#1f77b4;stroke-linecap:square;stroke-width:1.5;"/>
    </g>
    <g id="line2d_24"/>
    <g id="text_19">
     <!-- taylorfo -->
     <defs>
      <path d="M 32.171875 -5.078125 
Q 28.375 -14.84375 24.75 -17.8125 
Q 21.140625 -20.796875 15.09375 -20.796875 
L 7.90625 -20.796875 
L 7.90625 -13.28125 
L 13.1875 -13.28125 
Q 16.890625 -13.28125 18.9375 -11.515625 
Q 21 -9.765625 23.484375 -3.21875 
L 25.09375 0.875 
L 2.984375 54.6875 
L 12.5 54.6875 
L 29.59375 11.921875 
L 46.6875 54.6875 
L 56.203125 54.6875 
z
" id="DejaVuSans-121"/>
      <path d="M 9.421875 75.984375 
L 18.40625 75.984375 
L 18.40625 0 
L 9.421875 0 
z
" id="DejaVuSans-108"/>
     </defs>
     <g transform="translate(181 85.718438)scale(0.1 -0.1)">
      <use xlink:href="#DejaVuSans-116"/>
      <use x="39.208984" xlink:href="#DejaVuSans-97"/>
      <use x="100.488281" xlink:href="#DejaVuSans-121"/>
      <use x="159.667969" xlink:href="#DejaVuSans-108"/>
      <use x="187.451172" xlink:href="#DejaVuSans-111"/>
      <use x="248.632812" xlink:href="#DejaVuSans-114"/>
      <use x="289.746094" xlink:href="#DejaVuSans-102"/>
      <use x="324.951172" xlink:href="#DejaVuSans-111"/>
     </g>
    </g>
    <g id="line2d_25">
     <path d="M 153 96.896563 
L 173 96.896563 
" style="fill:none;stroke:#ff7f0e;stroke-linecap:square;stroke-width:1.5;"/>
    </g>
    <g id="line2d_26"/>
    <g id="text_20">
     <!-- taylorfo_abs -->
     <defs>
      <path d="M 50.984375 -16.609375 
L 50.984375 -23.578125 
L -0.984375 -23.578125 
L -0.984375 -16.609375 
z
" id="DejaVuSans-95"/>
     </defs>
     <g transform="translate(181 100.396563)scale(0.1 -0.1)">
      <use xlink:href="#DejaVuSans-116"/>
      <use x="39.208984" xlink:href="#DejaVuSans-97"/>
      <use x="100.488281" xlink:href="#DejaVuSans-121"/>
      <use x="159.667969" xlink:href="#DejaVuSans-108"/>
      <use x="187.451172" xlink:href="#DejaVuSans-111"/>
      <use x="248.632812" xlink:href="#DejaVuSans-114"/>
      <use x="289.746094" xlink:href="#DejaVuSans-102"/>
      <use x="324.951172" xlink:href="#DejaVuSans-111"/>
      <use x="386.132812" xlink:href="#DejaVuSans-95"/>
      <use x="436.132812" xlink:href="#DejaVuSans-97"/>
      <use x="497.412109" xlink:href="#DejaVuSans-98"/>
      <use x="560.888672" xlink:href="#DejaVuSans-115"/>
     </g>
    </g>
    <g id="line2d_27">
     <path d="M 153 111.852813 
L 173 111.852813 
" style="fill:none;stroke:#2ca02c;stroke-linecap:square;stroke-width:1.5;"/>
    </g>
    <g id="line2d_28"/>
    <g id="text_21">
     <!-- taylorfo_sq -->
     <g transform="translate(181 115.352813)scale(0.1 -0.1)">
      <use xlink:href="#DejaVuSans-116"/>
      <use x="39.208984" xlink:href="#DejaVuSans-97"/>
      <use x="100.488281" xlink:href="#DejaVuSans-121"/>
      <use x="159.667969" xlink:href="#DejaVuSans-108"/>
      <use x="187.451172" xlink:href="#DejaVuSans-111"/>
      <use x="248.632812" xlink:href="#DejaVuSans-114"/>
      <use x="289.746094" xlink:href="#DejaVuSans-102"/>
      <use x="324.951172" xlink:href="#DejaVuSans-111"/>
      <use x="386.132812" xlink:href="#DejaVuSans-95"/>
      <use x="436.132812" xlink:href="#DejaVuSans-115"/>
      <use x="488.232422" xlink:href="#DejaVuSans-113"/>
     </g>
    </g>
    <g id="line2d_29">
     <path d="M 153 126.809063 
L 173 126.809063 
" style="fill:none;stroke:#d62728;stroke-dasharray:5.55,2.4;stroke-dashoffset:0;stroke-width:1.5;"/>
    </g>
    <g id="line2d_30"/>
    <g id="text_22">
     <!-- taylorfo_abs_norm -->
     <g transform="translate(181 130.309063)scale(0.1 -0.1)">
      <use xlink:href="#DejaVuSans-116"/>
      <use x="39.208984" xlink:href="#DejaVuSans-97"/>
      <use x="100.488281" xlink:href="#DejaVuSans-121"/>
      <use x="159.667969" xlink:href="#DejaVuSans-108"/>
      <use x="187.451172" xlink:href="#DejaVuSans-111"/>
      <use x="248.632812" xlink:href="#DejaVuSans-114"/>
      <use x="289.746094" xlink:href="#DejaVuSans-102"/>
      <use x="324.951172" xlink:href="#DejaVuSans-111"/>
      <use x="386.132812" xlink:href="#DejaVuSans-95"/>
      <use x="436.132812" xlink:href="#DejaVuSans-97"/>
      <use x="497.412109" xlink:href="#DejaVuSans-98"/>
      <use x="560.888672" xlink:href="#DejaVuSans-115"/>
      <use x="612.988281" xlink:href="#DejaVuSans-95"/>
      <use x="662.988281" xlink:href="#DejaVuSans-110"/>
      <use x="726.367188" xlink:href="#DejaVuSans-111"/>
      <use x="787.548828" xlink:href="#DejaVuSans-114"/>
      <use x="826.912109" xlink:href="#DejaVuSans-109"/>
     </g>
    </g>
    <g id="line2d_31">
     <path d="M 153 141.765313 
L 173 141.765313 
" style="fill:none;stroke:#9467bd;stroke-dasharray:5.55,2.4;stroke-dashoffset:0;stroke-width:1.5;"/>
    </g>
    <g id="line2d_32"/>
    <g id="text_23">
     <!-- taylorfo_sq_norm -->
     <g transform="translate(181 145.265313)scale(0.1 -0.1)">
      <use xlink:href="#DejaVuSans-116"/>
      <use x="39.208984" xlink:href="#DejaVuSans-97"/>
      <use x="100.488281" xlink:href="#DejaVuSans-121"/>
      <use x="159.667969" xlink:href="#DejaVuSans-108"/>
      <use x="187.451172" xlink:href="#DejaVuSans-111"/>
      <use x="248.632812" xlink:href="#DejaVuSans-114"/>
      <use x="289.746094" xlink:href="#DejaVuSans-102"/>
      <use x="324.951172" xlink:href="#DejaVuSans-111"/>
      <use x="386.132812" xlink:href="#DejaVuSans-95"/>
      <use x="436.132812" xlink:href="#DejaVuSans-115"/>
      <use x="488.232422" xlink:href="#DejaVuSans-113"/>
      <use x="551.708984" xlink:href="#DejaVuSans-95"/>
      <use x="601.708984" xlink:href="#DejaVuSans-110"/>
      <use x="665.087891" xlink:href="#DejaVuSans-111"/>
      <use x="726.269531" xlink:href="#DejaVuSans-114"/>
      <use x="765.632812" xlink:href="#DejaVuSans-109"/>
     </g>
    </g>
    <g id="line2d_33">
     <path d="M 153 156.721563 
L 173 156.721563 
" style="fill:none;stroke:#8c564b;stroke-dasharray:5.55,2.4;stroke-dashoffset:0;stroke-width:1.5;"/>
    </g>
    <g id="line2d_34"/>
    <g id="text_24">
     <!-- Molchanov_group -->
     <defs>
      <path d="M 9.8125 72.90625 
L 24.515625 72.90625 
L 43.109375 23.296875 
L 61.8125 72.90625 
L 76.515625 72.90625 
L 76.515625 0 
L 66.890625 0 
L 66.890625 64.015625 
L 48.09375 14.015625 
L 38.1875 14.015625 
L 19.390625 64.015625 
L 19.390625 0 
L 9.8125 0 
z
" id="DejaVuSans-77"/>
      <path d="M 48.78125 52.59375 
L 48.78125 44.1875 
Q 44.96875 46.296875 41.140625 47.34375 
Q 37.3125 48.390625 33.40625 48.390625 
Q 24.65625 48.390625 19.8125 42.84375 
Q 14.984375 37.3125 14.984375 27.296875 
Q 14.984375 17.28125 19.8125 11.734375 
Q 24.65625 6.203125 33.40625 6.203125 
Q 37.3125 6.203125 41.140625 7.25 
Q 44.96875 8.296875 48.78125 10.40625 
L 48.78125 2.09375 
Q 45.015625 0.34375 40.984375 -0.53125 
Q 36.96875 -1.421875 32.421875 -1.421875 
Q 20.0625 -1.421875 12.78125 6.34375 
Q 5.515625 14.109375 5.515625 27.296875 
Q 5.515625 40.671875 12.859375 48.328125 
Q 20.21875 56 33.015625 56 
Q 37.15625 56 41.109375 55.140625 
Q 45.0625 54.296875 48.78125 52.59375 
z
" id="DejaVuSans-99"/>
      <path d="M 54.890625 33.015625 
L 54.890625 0 
L 45.90625 0 
L 45.90625 32.71875 
Q 45.90625 40.484375 42.875 44.328125 
Q 39.84375 48.1875 33.796875 48.1875 
Q 26.515625 48.1875 22.3125 43.546875 
Q 18.109375 38.921875 18.109375 30.90625 
L 18.109375 0 
L 9.078125 0 
L 9.078125 75.984375 
L 18.109375 75.984375 
L 18.109375 46.1875 
Q 21.34375 51.125 25.703125 53.5625 
Q 30.078125 56 35.796875 56 
Q 45.21875 56 50.046875 50.171875 
Q 54.890625 44.34375 54.890625 33.015625 
z
" id="DejaVuSans-104"/>
      <path d="M 45.40625 27.984375 
Q 45.40625 37.75 41.375 43.109375 
Q 37.359375 48.484375 30.078125 48.484375 
Q 22.859375 48.484375 18.828125 43.109375 
Q 14.796875 37.75 14.796875 27.984375 
Q 14.796875 18.265625 18.828125 12.890625 
Q 22.859375 7.515625 30.078125 7.515625 
Q 37.359375 7.515625 41.375 12.890625 
Q 45.40625 18.265625 45.40625 27.984375 
z
M 54.390625 6.78125 
Q 54.390625 -7.171875 48.1875 -13.984375 
Q 42 -20.796875 29.203125 -20.796875 
Q 24.46875 -20.796875 20.265625 -20.09375 
Q 16.0625 -19.390625 12.109375 -17.921875 
L 12.109375 -9.1875 
Q 16.0625 -11.328125 19.921875 -12.34375 
Q 23.78125 -13.375 27.78125 -13.375 
Q 36.625 -13.375 41.015625 -8.765625 
Q 45.40625 -4.15625 45.40625 5.171875 
L 45.40625 9.625 
Q 42.625 4.78125 38.28125 2.390625 
Q 33.9375 0 27.875 0 
Q 17.828125 0 11.671875 7.65625 
Q 5.515625 15.328125 5.515625 27.984375 
Q 5.515625 40.671875 11.671875 48.328125 
Q 17.828125 56 27.875 56 
Q 33.9375 56 38.28125 53.609375 
Q 42.625 51.21875 45.40625 46.390625 
L 45.40625 54.6875 
L 54.390625 54.6875 
z
" id="DejaVuSans-103"/>
     </defs>
     <g transform="translate(181 160.221563)scale(0.1 -0.1)">
      <use xlink:href="#DejaVuSans-77"/>
      <use x="86.279297" xlink:href="#DejaVuSans-111"/>
      <use x="147.460938" xlink:href="#DejaVuSans-108"/>
      <use x="175.244141" xlink:href="#DejaVuSans-99"/>
      <use x="230.224609" xlink:href="#DejaVuSans-104"/>
      <use x="293.603516" xlink:href="#DejaVuSans-97"/>
      <use x="354.882812" xlink:href="#DejaVuSans-110"/>
      <use x="418.261719" xlink:href="#DejaVuSans-111"/>
      <use x="479.443359" xlink:href="#DejaVuSans-118"/>
      <use x="538.623047" xlink:href="#DejaVuSans-95"/>
      <use x="588.623047" xlink:href="#DejaVuSans-103"/>
      <use x="652.099609" xlink:href="#DejaVuSans-114"/>
      <use x="690.962891" xlink:href="#DejaVuSans-111"/>
      <use x="752.144531" xlink:href="#DejaVuSans-117"/>
      <use x="815.523438" xlink:href="#DejaVuSans-112"/>
     </g>
    </g>
   </g>
  </g>
 </g>
 <defs>
  <clipPath id="p8496fae8c5">
   <rect height="434.88" width="892.8" x="144" y="69.12"/>
  </clipPath>
 </defs>
</svg>
