<?xml version="1.0" encoding="utf-8" standalone="no"?>
<!DOCTYPE svg PUBLIC "-//W3C//DTD SVG 1.1//EN"
  "http://www.w3.org/Graphics/SVG/1.1/DTD/svg11.dtd">
<!-- Created with matplotlib (https://matplotlib.org/) -->
<svg height="576pt" version="1.1" viewBox="0 0 1152 576" width="1152pt" xmlns="http://www.w3.org/2000/svg" xmlns:xlink="http://www.w3.org/1999/xlink">
 <defs>
  <style type="text/css">
*{stroke-linecap:butt;stroke-linejoin:round;}
  </style>
 </defs>
 <g id="figure_1">
  <g id="patch_1">
   <path d="M 0 576 
L 1152 576 
L 1152 0 
L 0 0 
z
" style="fill:#ffffff;"/>
  </g>
  <g id="axes_1">
   <g id="patch_2">
    <path d="M 144 504 
L 1036.8 504 
L 1036.8 69.12 
L 144 69.12 
z
" style="fill:#ffffff;"/>
   </g>
   <g id="matplotlib.axis_1">
    <g id="xtick_1">
     <g id="line2d_1">
      <defs>
       <path d="M 0 0 
L 0 3.5 
" id="m8b00bfac66" style="stroke:#000000;stroke-width:0.8;"/>
      </defs>
      <g>
       <use style="stroke:#000000;stroke-width:0.8;" x="182.547642" xlink:href="#m8b00bfac66" y="504"/>
      </g>
     </g>
     <g id="text_1">
      <!-- 0 -->
      <defs>
       <path d="M 31.78125 66.40625 
Q 24.171875 66.40625 20.328125 58.90625 
Q 16.5 51.421875 16.5 36.375 
Q 16.5 21.390625 20.328125 13.890625 
Q 24.171875 6.390625 31.78125 6.390625 
Q 39.453125 6.390625 43.28125 13.890625 
Q 47.125 21.390625 47.125 36.375 
Q 47.125 51.421875 43.28125 58.90625 
Q 39.453125 66.40625 31.78125 66.40625 
z
M 31.78125 74.21875 
Q 44.046875 74.21875 50.515625 64.515625 
Q 56.984375 54.828125 56.984375 36.375 
Q 56.984375 17.96875 50.515625 8.265625 
Q 44.046875 -1.421875 31.78125 -1.421875 
Q 19.53125 -1.421875 13.0625 8.265625 
Q 6.59375 17.96875 6.59375 36.375 
Q 6.59375 54.828125 13.0625 64.515625 
Q 19.53125 74.21875 31.78125 74.21875 
z
" id="DejaVuSans-48"/>
      </defs>
      <g transform="translate(179.366392 518.598438)scale(0.1 -0.1)">
       <use xlink:href="#DejaVuSans-48"/>
      </g>
     </g>
    </g>
    <g id="xtick_2">
     <g id="line2d_2">
      <g>
       <use style="stroke:#000000;stroke-width:0.8;" x="284.256459" xlink:href="#m8b00bfac66" y="504"/>
      </g>
     </g>
     <g id="text_2">
      <!-- 50 -->
      <defs>
       <path d="M 10.796875 72.90625 
L 49.515625 72.90625 
L 49.515625 64.59375 
L 19.828125 64.59375 
L 19.828125 46.734375 
Q 21.96875 47.46875 24.109375 47.828125 
Q 26.265625 48.1875 28.421875 48.1875 
Q 40.625 48.1875 47.75 41.5 
Q 54.890625 34.8125 54.890625 23.390625 
Q 54.890625 11.625 47.5625 5.09375 
Q 40.234375 -1.421875 26.90625 -1.421875 
Q 22.3125 -1.421875 17.546875 -0.640625 
Q 12.796875 0.140625 7.71875 1.703125 
L 7.71875 11.625 
Q 12.109375 9.234375 16.796875 8.0625 
Q 21.484375 6.890625 26.703125 6.890625 
Q 35.15625 6.890625 40.078125 11.328125 
Q 45.015625 15.765625 45.015625 23.390625 
Q 45.015625 31 40.078125 35.4375 
Q 35.15625 39.890625 26.703125 39.890625 
Q 22.75 39.890625 18.8125 39.015625 
Q 14.890625 38.140625 10.796875 36.28125 
z
" id="DejaVuSans-53"/>
      </defs>
      <g transform="translate(277.893959 518.598438)scale(0.1 -0.1)">
       <use xlink:href="#DejaVuSans-53"/>
       <use x="63.623047" xlink:href="#DejaVuSans-48"/>
      </g>
     </g>
    </g>
    <g id="xtick_3">
     <g id="line2d_3">
      <g>
       <use style="stroke:#000000;stroke-width:0.8;" x="385.965277" xlink:href="#m8b00bfac66" y="504"/>
      </g>
     </g>
     <g id="text_3">
      <!-- 100 -->
      <defs>
       <path d="M 12.40625 8.296875 
L 28.515625 8.296875 
L 28.515625 63.921875 
L 10.984375 60.40625 
L 10.984375 69.390625 
L 28.421875 72.90625 
L 38.28125 72.90625 
L 38.28125 8.296875 
L 54.390625 8.296875 
L 54.390625 0 
L 12.40625 0 
z
" id="DejaVuSans-49"/>
      </defs>
      <g transform="translate(376.421527 518.598438)scale(0.1 -0.1)">
       <use xlink:href="#DejaVuSans-49"/>
       <use x="63.623047" xlink:href="#DejaVuSans-48"/>
       <use x="127.246094" xlink:href="#DejaVuSans-48"/>
      </g>
     </g>
    </g>
    <g id="xtick_4">
     <g id="line2d_4">
      <g>
       <use style="stroke:#000000;stroke-width:0.8;" x="487.674094" xlink:href="#m8b00bfac66" y="504"/>
      </g>
     </g>
     <g id="text_4">
      <!-- 150 -->
      <g transform="translate(478.130344 518.598438)scale(0.1 -0.1)">
       <use xlink:href="#DejaVuSans-49"/>
       <use x="63.623047" xlink:href="#DejaVuSans-53"/>
       <use x="127.246094" xlink:href="#DejaVuSans-48"/>
      </g>
     </g>
    </g>
    <g id="xtick_5">
     <g id="line2d_5">
      <g>
       <use style="stroke:#000000;stroke-width:0.8;" x="589.382912" xlink:href="#m8b00bfac66" y="504"/>
      </g>
     </g>
     <g id="text_5">
      <!-- 200 -->
      <defs>
       <path d="M 19.1875 8.296875 
L 53.609375 8.296875 
L 53.609375 0 
L 7.328125 0 
L 7.328125 8.296875 
Q 12.9375 14.109375 22.625 23.890625 
Q 32.328125 33.6875 34.8125 36.53125 
Q 39.546875 41.84375 41.421875 45.53125 
Q 43.3125 49.21875 43.3125 52.78125 
Q 43.3125 58.59375 39.234375 62.25 
Q 35.15625 65.921875 28.609375 65.921875 
Q 23.96875 65.921875 18.8125 64.3125 
Q 13.671875 62.703125 7.8125 59.421875 
L 7.8125 69.390625 
Q 13.765625 71.78125 18.9375 73 
Q 24.125 74.21875 28.421875 74.21875 
Q 39.75 74.21875 46.484375 68.546875 
Q 53.21875 62.890625 53.21875 53.421875 
Q 53.21875 48.921875 51.53125 44.890625 
Q 49.859375 40.875 45.40625 35.40625 
Q 44.1875 33.984375 37.640625 27.21875 
Q 31.109375 20.453125 19.1875 8.296875 
z
" id="DejaVuSans-50"/>
      </defs>
      <g transform="translate(579.839162 518.598438)scale(0.1 -0.1)">
       <use xlink:href="#DejaVuSans-50"/>
       <use x="63.623047" xlink:href="#DejaVuSans-48"/>
       <use x="127.246094" xlink:href="#DejaVuSans-48"/>
      </g>
     </g>
    </g>
    <g id="xtick_6">
     <g id="line2d_6">
      <g>
       <use style="stroke:#000000;stroke-width:0.8;" x="691.091729" xlink:href="#m8b00bfac66" y="504"/>
      </g>
     </g>
     <g id="text_6">
      <!-- 250 -->
      <g transform="translate(681.547979 518.598438)scale(0.1 -0.1)">
       <use xlink:href="#DejaVuSans-50"/>
       <use x="63.623047" xlink:href="#DejaVuSans-53"/>
       <use x="127.246094" xlink:href="#DejaVuSans-48"/>
      </g>
     </g>
    </g>
    <g id="xtick_7">
     <g id="line2d_7">
      <g>
       <use style="stroke:#000000;stroke-width:0.8;" x="792.800547" xlink:href="#m8b00bfac66" y="504"/>
      </g>
     </g>
     <g id="text_7">
      <!-- 300 -->
      <defs>
       <path d="M 40.578125 39.3125 
Q 47.65625 37.796875 51.625 33 
Q 55.609375 28.21875 55.609375 21.1875 
Q 55.609375 10.40625 48.1875 4.484375 
Q 40.765625 -1.421875 27.09375 -1.421875 
Q 22.515625 -1.421875 17.65625 -0.515625 
Q 12.796875 0.390625 7.625 2.203125 
L 7.625 11.71875 
Q 11.71875 9.328125 16.59375 8.109375 
Q 21.484375 6.890625 26.8125 6.890625 
Q 36.078125 6.890625 40.9375 10.546875 
Q 45.796875 14.203125 45.796875 21.1875 
Q 45.796875 27.640625 41.28125 31.265625 
Q 36.765625 34.90625 28.71875 34.90625 
L 20.21875 34.90625 
L 20.21875 43.015625 
L 29.109375 43.015625 
Q 36.375 43.015625 40.234375 45.921875 
Q 44.09375 48.828125 44.09375 54.296875 
Q 44.09375 59.90625 40.109375 62.90625 
Q 36.140625 65.921875 28.71875 65.921875 
Q 24.65625 65.921875 20.015625 65.03125 
Q 15.375 64.15625 9.8125 62.3125 
L 9.8125 71.09375 
Q 15.4375 72.65625 20.34375 73.4375 
Q 25.25 74.21875 29.59375 74.21875 
Q 40.828125 74.21875 47.359375 69.109375 
Q 53.90625 64.015625 53.90625 55.328125 
Q 53.90625 49.265625 50.4375 45.09375 
Q 46.96875 40.921875 40.578125 39.3125 
z
" id="DejaVuSans-51"/>
      </defs>
      <g transform="translate(783.256797 518.598438)scale(0.1 -0.1)">
       <use xlink:href="#DejaVuSans-51"/>
       <use x="63.623047" xlink:href="#DejaVuSans-48"/>
       <use x="127.246094" xlink:href="#DejaVuSans-48"/>
      </g>
     </g>
    </g>
    <g id="xtick_8">
     <g id="line2d_8">
      <g>
       <use style="stroke:#000000;stroke-width:0.8;" x="894.509364" xlink:href="#m8b00bfac66" y="504"/>
      </g>
     </g>
     <g id="text_8">
      <!-- 350 -->
      <g transform="translate(884.965614 518.598438)scale(0.1 -0.1)">
       <use xlink:href="#DejaVuSans-51"/>
       <use x="63.623047" xlink:href="#DejaVuSans-53"/>
       <use x="127.246094" xlink:href="#DejaVuSans-48"/>
      </g>
     </g>
    </g>
    <g id="xtick_9">
     <g id="line2d_9">
      <g>
       <use style="stroke:#000000;stroke-width:0.8;" x="996.218182" xlink:href="#m8b00bfac66" y="504"/>
      </g>
     </g>
     <g id="text_9">
      <!-- 400 -->
      <defs>
       <path d="M 37.796875 64.3125 
L 12.890625 25.390625 
L 37.796875 25.390625 
z
M 35.203125 72.90625 
L 47.609375 72.90625 
L 47.609375 25.390625 
L 58.015625 25.390625 
L 58.015625 17.1875 
L 47.609375 17.1875 
L 47.609375 0 
L 37.796875 0 
L 37.796875 17.1875 
L 4.890625 17.1875 
L 4.890625 26.703125 
z
" id="DejaVuSans-52"/>
      </defs>
      <g transform="translate(986.674432 518.598438)scale(0.1 -0.1)">
       <use xlink:href="#DejaVuSans-52"/>
       <use x="63.623047" xlink:href="#DejaVuSans-48"/>
       <use x="127.246094" xlink:href="#DejaVuSans-48"/>
      </g>
     </g>
    </g>
    <g id="text_10">
     <!-- Number of Neurons pruned -->
     <defs>
      <path d="M 9.8125 72.90625 
L 23.09375 72.90625 
L 55.421875 11.921875 
L 55.421875 72.90625 
L 64.984375 72.90625 
L 64.984375 0 
L 51.703125 0 
L 19.390625 60.984375 
L 19.390625 0 
L 9.8125 0 
z
" id="DejaVuSans-78"/>
      <path d="M 8.5 21.578125 
L 8.5 54.6875 
L 17.484375 54.6875 
L 17.484375 21.921875 
Q 17.484375 14.15625 20.5 10.265625 
Q 23.53125 6.390625 29.59375 6.390625 
Q 36.859375 6.390625 41.078125 11.03125 
Q 45.3125 15.671875 45.3125 23.6875 
L 45.3125 54.6875 
L 54.296875 54.6875 
L 54.296875 0 
L 45.3125 0 
L 45.3125 8.40625 
Q 42.046875 3.421875 37.71875 1 
Q 33.40625 -1.421875 27.6875 -1.421875 
Q 18.265625 -1.421875 13.375 4.4375 
Q 8.5 10.296875 8.5 21.578125 
z
M 31.109375 56 
z
" id="DejaVuSans-117"/>
      <path d="M 52 44.1875 
Q 55.375 50.25 60.0625 53.125 
Q 64.75 56 71.09375 56 
Q 79.640625 56 84.28125 50.015625 
Q 88.921875 44.046875 88.921875 33.015625 
L 88.921875 0 
L 79.890625 0 
L 79.890625 32.71875 
Q 79.890625 40.578125 77.09375 44.375 
Q 74.3125 48.1875 68.609375 48.1875 
Q 61.625 48.1875 57.5625 43.546875 
Q 53.515625 38.921875 53.515625 30.90625 
L 53.515625 0 
L 44.484375 0 
L 44.484375 32.71875 
Q 44.484375 40.625 41.703125 44.40625 
Q 38.921875 48.1875 33.109375 48.1875 
Q 26.21875 48.1875 22.15625 43.53125 
Q 18.109375 38.875 18.109375 30.90625 
L 18.109375 0 
L 9.078125 0 
L 9.078125 54.6875 
L 18.109375 54.6875 
L 18.109375 46.1875 
Q 21.1875 51.21875 25.484375 53.609375 
Q 29.78125 56 35.6875 56 
Q 41.65625 56 45.828125 52.96875 
Q 50 49.953125 52 44.1875 
z
" id="DejaVuSans-109"/>
      <path d="M 48.6875 27.296875 
Q 48.6875 37.203125 44.609375 42.84375 
Q 40.53125 48.484375 33.40625 48.484375 
Q 26.265625 48.484375 22.1875 42.84375 
Q 18.109375 37.203125 18.109375 27.296875 
Q 18.109375 17.390625 22.1875 11.75 
Q 26.265625 6.109375 33.40625 6.109375 
Q 40.53125 6.109375 44.609375 11.75 
Q 48.6875 17.390625 48.6875 27.296875 
z
M 18.109375 46.390625 
Q 20.953125 51.265625 25.265625 53.625 
Q 29.59375 56 35.59375 56 
Q 45.5625 56 51.78125 48.09375 
Q 58.015625 40.1875 58.015625 27.296875 
Q 58.015625 14.40625 51.78125 6.484375 
Q 45.5625 -1.421875 35.59375 -1.421875 
Q 29.59375 -1.421875 25.265625 0.953125 
Q 20.953125 3.328125 18.109375 8.203125 
L 18.109375 0 
L 9.078125 0 
L 9.078125 75.984375 
L 18.109375 75.984375 
z
" id="DejaVuSans-98"/>
      <path d="M 56.203125 29.59375 
L 56.203125 25.203125 
L 14.890625 25.203125 
Q 15.484375 15.921875 20.484375 11.0625 
Q 25.484375 6.203125 34.421875 6.203125 
Q 39.59375 6.203125 44.453125 7.46875 
Q 49.3125 8.734375 54.109375 11.28125 
L 54.109375 2.78125 
Q 49.265625 0.734375 44.1875 -0.34375 
Q 39.109375 -1.421875 33.890625 -1.421875 
Q 20.796875 -1.421875 13.15625 6.1875 
Q 5.515625 13.8125 5.515625 26.8125 
Q 5.515625 40.234375 12.765625 48.109375 
Q 20.015625 56 32.328125 56 
Q 43.359375 56 49.78125 48.890625 
Q 56.203125 41.796875 56.203125 29.59375 
z
M 47.21875 32.234375 
Q 47.125 39.59375 43.09375 43.984375 
Q 39.0625 48.390625 32.421875 48.390625 
Q 24.90625 48.390625 20.390625 44.140625 
Q 15.875 39.890625 15.1875 32.171875 
z
" id="DejaVuSans-101"/>
      <path d="M 41.109375 46.296875 
Q 39.59375 47.171875 37.8125 47.578125 
Q 36.03125 48 33.890625 48 
Q 26.265625 48 22.1875 43.046875 
Q 18.109375 38.09375 18.109375 28.8125 
L 18.109375 0 
L 9.078125 0 
L 9.078125 54.6875 
L 18.109375 54.6875 
L 18.109375 46.1875 
Q 20.953125 51.171875 25.484375 53.578125 
Q 30.03125 56 36.53125 56 
Q 37.453125 56 38.578125 55.875 
Q 39.703125 55.765625 41.0625 55.515625 
z
" id="DejaVuSans-114"/>
      <path id="DejaVuSans-32"/>
      <path d="M 30.609375 48.390625 
Q 23.390625 48.390625 19.1875 42.75 
Q 14.984375 37.109375 14.984375 27.296875 
Q 14.984375 17.484375 19.15625 11.84375 
Q 23.34375 6.203125 30.609375 6.203125 
Q 37.796875 6.203125 41.984375 11.859375 
Q 46.1875 17.53125 46.1875 27.296875 
Q 46.1875 37.015625 41.984375 42.703125 
Q 37.796875 48.390625 30.609375 48.390625 
z
M 30.609375 56 
Q 42.328125 56 49.015625 48.375 
Q 55.71875 40.765625 55.71875 27.296875 
Q 55.71875 13.875 49.015625 6.21875 
Q 42.328125 -1.421875 30.609375 -1.421875 
Q 18.84375 -1.421875 12.171875 6.21875 
Q 5.515625 13.875 5.515625 27.296875 
Q 5.515625 40.765625 12.171875 48.375 
Q 18.84375 56 30.609375 56 
z
" id="DejaVuSans-111"/>
      <path d="M 37.109375 75.984375 
L 37.109375 68.5 
L 28.515625 68.5 
Q 23.6875 68.5 21.796875 66.546875 
Q 19.921875 64.59375 19.921875 59.515625 
L 19.921875 54.6875 
L 34.71875 54.6875 
L 34.71875 47.703125 
L 19.921875 47.703125 
L 19.921875 0 
L 10.890625 0 
L 10.890625 47.703125 
L 2.296875 47.703125 
L 2.296875 54.6875 
L 10.890625 54.6875 
L 10.890625 58.5 
Q 10.890625 67.625 15.140625 71.796875 
Q 19.390625 75.984375 28.609375 75.984375 
z
" id="DejaVuSans-102"/>
      <path d="M 54.890625 33.015625 
L 54.890625 0 
L 45.90625 0 
L 45.90625 32.71875 
Q 45.90625 40.484375 42.875 44.328125 
Q 39.84375 48.1875 33.796875 48.1875 
Q 26.515625 48.1875 22.3125 43.546875 
Q 18.109375 38.921875 18.109375 30.90625 
L 18.109375 0 
L 9.078125 0 
L 9.078125 54.6875 
L 18.109375 54.6875 
L 18.109375 46.1875 
Q 21.34375 51.125 25.703125 53.5625 
Q 30.078125 56 35.796875 56 
Q 45.21875 56 50.046875 50.171875 
Q 54.890625 44.34375 54.890625 33.015625 
z
" id="DejaVuSans-110"/>
      <path d="M 44.28125 53.078125 
L 44.28125 44.578125 
Q 40.484375 46.53125 36.375 47.5 
Q 32.28125 48.484375 27.875 48.484375 
Q 21.1875 48.484375 17.84375 46.4375 
Q 14.5 44.390625 14.5 40.28125 
Q 14.5 37.15625 16.890625 35.375 
Q 19.28125 33.59375 26.515625 31.984375 
L 29.59375 31.296875 
Q 39.15625 29.25 43.1875 25.515625 
Q 47.21875 21.78125 47.21875 15.09375 
Q 47.21875 7.46875 41.1875 3.015625 
Q 35.15625 -1.421875 24.609375 -1.421875 
Q 20.21875 -1.421875 15.453125 -0.5625 
Q 10.6875 0.296875 5.421875 2 
L 5.421875 11.28125 
Q 10.40625 8.6875 15.234375 7.390625 
Q 20.0625 6.109375 24.8125 6.109375 
Q 31.15625 6.109375 34.5625 8.28125 
Q 37.984375 10.453125 37.984375 14.40625 
Q 37.984375 18.0625 35.515625 20.015625 
Q 33.0625 21.96875 24.703125 23.78125 
L 21.578125 24.515625 
Q 13.234375 26.265625 9.515625 29.90625 
Q 5.8125 33.546875 5.8125 39.890625 
Q 5.8125 47.609375 11.28125 51.796875 
Q 16.75 56 26.8125 56 
Q 31.78125 56 36.171875 55.265625 
Q 40.578125 54.546875 44.28125 53.078125 
z
" id="DejaVuSans-115"/>
      <path d="M 18.109375 8.203125 
L 18.109375 -20.796875 
L 9.078125 -20.796875 
L 9.078125 54.6875 
L 18.109375 54.6875 
L 18.109375 46.390625 
Q 20.953125 51.265625 25.265625 53.625 
Q 29.59375 56 35.59375 56 
Q 45.5625 56 51.78125 48.09375 
Q 58.015625 40.1875 58.015625 27.296875 
Q 58.015625 14.40625 51.78125 6.484375 
Q 45.5625 -1.421875 35.59375 -1.421875 
Q 29.59375 -1.421875 25.265625 0.953125 
Q 20.953125 3.328125 18.109375 8.203125 
z
M 48.6875 27.296875 
Q 48.6875 37.203125 44.609375 42.84375 
Q 40.53125 48.484375 33.40625 48.484375 
Q 26.265625 48.484375 22.1875 42.84375 
Q 18.109375 37.203125 18.109375 27.296875 
Q 18.109375 17.390625 22.1875 11.75 
Q 26.265625 6.109375 33.40625 6.109375 
Q 40.53125 6.109375 44.609375 11.75 
Q 48.6875 17.390625 48.6875 27.296875 
z
" id="DejaVuSans-112"/>
      <path d="M 45.40625 46.390625 
L 45.40625 75.984375 
L 54.390625 75.984375 
L 54.390625 0 
L 45.40625 0 
L 45.40625 8.203125 
Q 42.578125 3.328125 38.25 0.953125 
Q 33.9375 -1.421875 27.875 -1.421875 
Q 17.96875 -1.421875 11.734375 6.484375 
Q 5.515625 14.40625 5.515625 27.296875 
Q 5.515625 40.1875 11.734375 48.09375 
Q 17.96875 56 27.875 56 
Q 33.9375 56 38.25 53.625 
Q 42.578125 51.265625 45.40625 46.390625 
z
M 14.796875 27.296875 
Q 14.796875 17.390625 18.875 11.75 
Q 22.953125 6.109375 30.078125 6.109375 
Q 37.203125 6.109375 41.296875 11.75 
Q 45.40625 17.390625 45.40625 27.296875 
Q 45.40625 37.203125 41.296875 42.84375 
Q 37.203125 48.484375 30.078125 48.484375 
Q 22.953125 48.484375 18.875 42.84375 
Q 14.796875 37.203125 14.796875 27.296875 
z
" id="DejaVuSans-100"/>
     </defs>
     <g transform="translate(522.147656 532.276562)scale(0.1 -0.1)">
      <use xlink:href="#DejaVuSans-78"/>
      <use x="74.804688" xlink:href="#DejaVuSans-117"/>
      <use x="138.183594" xlink:href="#DejaVuSans-109"/>
      <use x="235.595703" xlink:href="#DejaVuSans-98"/>
      <use x="299.072266" xlink:href="#DejaVuSans-101"/>
      <use x="360.595703" xlink:href="#DejaVuSans-114"/>
      <use x="401.708984" xlink:href="#DejaVuSans-32"/>
      <use x="433.496094" xlink:href="#DejaVuSans-111"/>
      <use x="494.677734" xlink:href="#DejaVuSans-102"/>
      <use x="529.882812" xlink:href="#DejaVuSans-32"/>
      <use x="561.669922" xlink:href="#DejaVuSans-78"/>
      <use x="636.474609" xlink:href="#DejaVuSans-101"/>
      <use x="697.998047" xlink:href="#DejaVuSans-117"/>
      <use x="761.376953" xlink:href="#DejaVuSans-114"/>
      <use x="800.240234" xlink:href="#DejaVuSans-111"/>
      <use x="861.421875" xlink:href="#DejaVuSans-110"/>
      <use x="924.800781" xlink:href="#DejaVuSans-115"/>
      <use x="976.900391" xlink:href="#DejaVuSans-32"/>
      <use x="1008.6875" xlink:href="#DejaVuSans-112"/>
      <use x="1072.164062" xlink:href="#DejaVuSans-114"/>
      <use x="1113.277344" xlink:href="#DejaVuSans-117"/>
      <use x="1176.65625" xlink:href="#DejaVuSans-110"/>
      <use x="1240.035156" xlink:href="#DejaVuSans-101"/>
      <use x="1301.558594" xlink:href="#DejaVuSans-100"/>
     </g>
    </g>
   </g>
   <g id="matplotlib.axis_2">
    <g id="ytick_1">
     <g id="line2d_10">
      <defs>
       <path d="M 0 0 
L -3.5 0 
" id="ma9d99b0332" style="stroke:#000000;stroke-width:0.8;"/>
      </defs>
      <g>
       <use style="stroke:#000000;stroke-width:0.8;" x="144" xlink:href="#ma9d99b0332" y="484.232727"/>
      </g>
     </g>
     <g id="text_11">
      <!-- 0 -->
      <g transform="translate(130.6375 488.031946)scale(0.1 -0.1)">
       <use xlink:href="#DejaVuSans-48"/>
      </g>
     </g>
    </g>
    <g id="ytick_2">
     <g id="line2d_11">
      <g>
       <use style="stroke:#000000;stroke-width:0.8;" x="144" xlink:href="#ma9d99b0332" y="420.353765"/>
      </g>
     </g>
     <g id="text_12">
      <!-- 5 -->
      <g transform="translate(130.6375 424.152984)scale(0.1 -0.1)">
       <use xlink:href="#DejaVuSans-53"/>
      </g>
     </g>
    </g>
    <g id="ytick_3">
     <g id="line2d_12">
      <g>
       <use style="stroke:#000000;stroke-width:0.8;" x="144" xlink:href="#ma9d99b0332" y="356.474803"/>
      </g>
     </g>
     <g id="text_13">
      <!-- 10 -->
      <g transform="translate(124.275 360.274022)scale(0.1 -0.1)">
       <use xlink:href="#DejaVuSans-49"/>
       <use x="63.623047" xlink:href="#DejaVuSans-48"/>
      </g>
     </g>
    </g>
    <g id="ytick_4">
     <g id="line2d_13">
      <g>
       <use style="stroke:#000000;stroke-width:0.8;" x="144" xlink:href="#ma9d99b0332" y="292.595841"/>
      </g>
     </g>
     <g id="text_14">
      <!-- 15 -->
      <g transform="translate(124.275 296.39506)scale(0.1 -0.1)">
       <use xlink:href="#DejaVuSans-49"/>
       <use x="63.623047" xlink:href="#DejaVuSans-53"/>
      </g>
     </g>
    </g>
    <g id="ytick_5">
     <g id="line2d_14">
      <g>
       <use style="stroke:#000000;stroke-width:0.8;" x="144" xlink:href="#ma9d99b0332" y="228.716879"/>
      </g>
     </g>
     <g id="text_15">
      <!-- 20 -->
      <g transform="translate(124.275 232.516098)scale(0.1 -0.1)">
       <use xlink:href="#DejaVuSans-50"/>
       <use x="63.623047" xlink:href="#DejaVuSans-48"/>
      </g>
     </g>
    </g>
    <g id="ytick_6">
     <g id="line2d_15">
      <g>
       <use style="stroke:#000000;stroke-width:0.8;" x="144" xlink:href="#ma9d99b0332" y="164.837917"/>
      </g>
     </g>
     <g id="text_16">
      <!-- 25 -->
      <g transform="translate(124.275 168.637136)scale(0.1 -0.1)">
       <use xlink:href="#DejaVuSans-50"/>
       <use x="63.623047" xlink:href="#DejaVuSans-53"/>
      </g>
     </g>
    </g>
    <g id="ytick_7">
     <g id="line2d_16">
      <g>
       <use style="stroke:#000000;stroke-width:0.8;" x="144" xlink:href="#ma9d99b0332" y="100.958955"/>
      </g>
     </g>
     <g id="text_17">
      <!-- 30 -->
      <g transform="translate(124.275 104.758174)scale(0.1 -0.1)">
       <use xlink:href="#DejaVuSans-51"/>
       <use x="63.623047" xlink:href="#DejaVuSans-48"/>
      </g>
     </g>
    </g>
    <g id="text_18">
     <!-- Squared Deviation -->
     <defs>
      <path d="M 53.515625 70.515625 
L 53.515625 60.890625 
Q 47.90625 63.578125 42.921875 64.890625 
Q 37.9375 66.21875 33.296875 66.21875 
Q 25.25 66.21875 20.875 63.09375 
Q 16.5 59.96875 16.5 54.203125 
Q 16.5 49.359375 19.40625 46.890625 
Q 22.3125 44.4375 30.421875 42.921875 
L 36.375 41.703125 
Q 47.40625 39.59375 52.65625 34.296875 
Q 57.90625 29 57.90625 20.125 
Q 57.90625 9.515625 50.796875 4.046875 
Q 43.703125 -1.421875 29.984375 -1.421875 
Q 24.8125 -1.421875 18.96875 -0.25 
Q 13.140625 0.921875 6.890625 3.21875 
L 6.890625 13.375 
Q 12.890625 10.015625 18.65625 8.296875 
Q 24.421875 6.59375 29.984375 6.59375 
Q 38.421875 6.59375 43.015625 9.90625 
Q 47.609375 13.234375 47.609375 19.390625 
Q 47.609375 24.75 44.3125 27.78125 
Q 41.015625 30.8125 33.5 32.328125 
L 27.484375 33.5 
Q 16.453125 35.6875 11.515625 40.375 
Q 6.59375 45.0625 6.59375 53.421875 
Q 6.59375 63.09375 13.40625 68.65625 
Q 20.21875 74.21875 32.171875 74.21875 
Q 37.3125 74.21875 42.625 73.28125 
Q 47.953125 72.359375 53.515625 70.515625 
z
" id="DejaVuSans-83"/>
      <path d="M 14.796875 27.296875 
Q 14.796875 17.390625 18.875 11.75 
Q 22.953125 6.109375 30.078125 6.109375 
Q 37.203125 6.109375 41.296875 11.75 
Q 45.40625 17.390625 45.40625 27.296875 
Q 45.40625 37.203125 41.296875 42.84375 
Q 37.203125 48.484375 30.078125 48.484375 
Q 22.953125 48.484375 18.875 42.84375 
Q 14.796875 37.203125 14.796875 27.296875 
z
M 45.40625 8.203125 
Q 42.578125 3.328125 38.25 0.953125 
Q 33.9375 -1.421875 27.875 -1.421875 
Q 17.96875 -1.421875 11.734375 6.484375 
Q 5.515625 14.40625 5.515625 27.296875 
Q 5.515625 40.1875 11.734375 48.09375 
Q 17.96875 56 27.875 56 
Q 33.9375 56 38.25 53.625 
Q 42.578125 51.265625 45.40625 46.390625 
L 45.40625 54.6875 
L 54.390625 54.6875 
L 54.390625 -20.796875 
L 45.40625 -20.796875 
z
" id="DejaVuSans-113"/>
      <path d="M 34.28125 27.484375 
Q 23.390625 27.484375 19.1875 25 
Q 14.984375 22.515625 14.984375 16.5 
Q 14.984375 11.71875 18.140625 8.90625 
Q 21.296875 6.109375 26.703125 6.109375 
Q 34.1875 6.109375 38.703125 11.40625 
Q 43.21875 16.703125 43.21875 25.484375 
L 43.21875 27.484375 
z
M 52.203125 31.203125 
L 52.203125 0 
L 43.21875 0 
L 43.21875 8.296875 
Q 40.140625 3.328125 35.546875 0.953125 
Q 30.953125 -1.421875 24.3125 -1.421875 
Q 15.921875 -1.421875 10.953125 3.296875 
Q 6 8.015625 6 15.921875 
Q 6 25.140625 12.171875 29.828125 
Q 18.359375 34.515625 30.609375 34.515625 
L 43.21875 34.515625 
L 43.21875 35.40625 
Q 43.21875 41.609375 39.140625 45 
Q 35.0625 48.390625 27.6875 48.390625 
Q 23 48.390625 18.546875 47.265625 
Q 14.109375 46.140625 10.015625 43.890625 
L 10.015625 52.203125 
Q 14.9375 54.109375 19.578125 55.046875 
Q 24.21875 56 28.609375 56 
Q 40.484375 56 46.34375 49.84375 
Q 52.203125 43.703125 52.203125 31.203125 
z
" id="DejaVuSans-97"/>
      <path d="M 19.671875 64.796875 
L 19.671875 8.109375 
L 31.59375 8.109375 
Q 46.6875 8.109375 53.6875 14.9375 
Q 60.6875 21.78125 60.6875 36.53125 
Q 60.6875 51.171875 53.6875 57.984375 
Q 46.6875 64.796875 31.59375 64.796875 
z
M 9.8125 72.90625 
L 30.078125 72.90625 
Q 51.265625 72.90625 61.171875 64.09375 
Q 71.09375 55.28125 71.09375 36.53125 
Q 71.09375 17.671875 61.125 8.828125 
Q 51.171875 0 30.078125 0 
L 9.8125 0 
z
" id="DejaVuSans-68"/>
      <path d="M 2.984375 54.6875 
L 12.5 54.6875 
L 29.59375 8.796875 
L 46.6875 54.6875 
L 56.203125 54.6875 
L 35.6875 0 
L 23.484375 0 
z
" id="DejaVuSans-118"/>
      <path d="M 9.421875 54.6875 
L 18.40625 54.6875 
L 18.40625 0 
L 9.421875 0 
z
M 9.421875 75.984375 
L 18.40625 75.984375 
L 18.40625 64.59375 
L 9.421875 64.59375 
z
" id="DejaVuSans-105"/>
      <path d="M 18.3125 70.21875 
L 18.3125 54.6875 
L 36.8125 54.6875 
L 36.8125 47.703125 
L 18.3125 47.703125 
L 18.3125 18.015625 
Q 18.3125 11.328125 20.140625 9.421875 
Q 21.96875 7.515625 27.59375 7.515625 
L 36.8125 7.515625 
L 36.8125 0 
L 27.59375 0 
Q 17.1875 0 13.234375 3.875 
Q 9.28125 7.765625 9.28125 18.015625 
L 9.28125 47.703125 
L 2.6875 47.703125 
L 2.6875 54.6875 
L 9.28125 54.6875 
L 9.28125 70.21875 
z
" id="DejaVuSans-116"/>
     </defs>
     <g transform="translate(118.195312 332.840469)rotate(-90)scale(0.1 -0.1)">
      <use xlink:href="#DejaVuSans-83"/>
      <use x="63.476562" xlink:href="#DejaVuSans-113"/>
      <use x="126.953125" xlink:href="#DejaVuSans-117"/>
      <use x="190.332031" xlink:href="#DejaVuSans-97"/>
      <use x="251.611328" xlink:href="#DejaVuSans-114"/>
      <use x="290.474609" xlink:href="#DejaVuSans-101"/>
      <use x="351.998047" xlink:href="#DejaVuSans-100"/>
      <use x="415.474609" xlink:href="#DejaVuSans-32"/>
      <use x="447.261719" xlink:href="#DejaVuSans-68"/>
      <use x="524.263672" xlink:href="#DejaVuSans-101"/>
      <use x="585.787109" xlink:href="#DejaVuSans-118"/>
      <use x="644.966797" xlink:href="#DejaVuSans-105"/>
      <use x="672.75" xlink:href="#DejaVuSans-97"/>
      <use x="734.029297" xlink:href="#DejaVuSans-116"/>
      <use x="773.238281" xlink:href="#DejaVuSans-105"/>
      <use x="801.021484" xlink:href="#DejaVuSans-111"/>
      <use x="862.203125" xlink:href="#DejaVuSans-110"/>
     </g>
    </g>
   </g>
   <g id="line2d_17">
    <path clip-path="url(#pa34c425c4d)" d="M 184.581818 484.232727 
L 267.983049 484.232727 
L 270.017225 484.066238 
L 274.085578 484.023574 
L 280.188107 483.464717 
L 282.222283 482.631995 
L 284.256459 482.93128 
L 288.324812 480.625002 
L 294.427341 479.865498 
L 296.461517 480.098754 
L 298.495694 479.454516 
L 300.52987 477.769891 
L 302.564046 477.037794 
L 304.598223 476.150536 
L 306.632399 473.665797 
L 308.666576 473.024474 
L 310.700752 472.75388 
L 312.734928 470.860697 
L 314.769105 469.696466 
L 316.803281 469.689029 
L 318.837457 469.848158 
L 320.871634 470.12989 
L 322.90581 468.193776 
L 329.008339 464.006127 
L 331.042515 462.971209 
L 333.076692 461.12699 
L 335.110868 462.033112 
L 337.145044 463.210198 
L 339.179221 461.212257 
L 341.213397 458.748791 
L 345.28175 454.18749 
L 347.315926 453.614796 
L 349.350103 451.59609 
L 351.384279 447.977001 
L 353.418455 445.704105 
L 355.452632 447.332306 
L 357.486808 446.542634 
L 359.520984 442.661868 
L 361.555161 440.430318 
L 363.589337 440.496714 
L 365.623513 436.2024 
L 367.65769 433.109771 
L 369.691866 432.801645 
L 371.726042 428.853194 
L 373.760219 427.693045 
L 375.794395 426.682795 
L 377.828571 426.082492 
L 379.862748 425.773154 
L 381.896924 423.60382 
L 383.9311 417.523477 
L 385.965277 412.815327 
L 387.999453 407.52998 
L 390.03363 405.606836 
L 392.067806 406.46988 
L 394.101982 402.245578 
L 396.136159 399.991402 
L 398.170335 396.928583 
L 400.204511 395.438097 
L 402.238688 390.908776 
L 404.272864 393.041954 
L 406.30704 395.594295 
L 408.341217 394.998799 
L 410.375393 391.217024 
L 412.409569 392.021274 
L 414.443746 392.508455 
L 416.477922 390.600425 
L 418.512098 392.670739 
L 420.546275 391.929011 
L 422.580451 393.232078 
L 424.614627 389.35684 
L 426.648804 388.765736 
L 428.68298 388.310715 
L 430.717157 382.597401 
L 432.751333 381.032178 
L 434.785509 382.14682 
L 436.819686 377.046578 
L 438.853862 374.740718 
L 440.888038 373.757668 
L 442.922215 372.904488 
L 444.956391 368.65552 
L 446.990567 369.646501 
L 449.024744 362.704211 
L 451.05892 362.052735 
L 453.093096 362.466149 
L 455.127273 360.191248 
L 457.161449 353.943991 
L 459.195625 351.04303 
L 461.229802 352.164611 
L 463.263978 350.193248 
L 465.298154 343.601101 
L 467.332331 339.473156 
L 469.366507 336.101712 
L 471.400684 328.581038 
L 473.43486 327.610245 
L 475.469036 322.976703 
L 477.503213 322.546561 
L 479.537389 322.361207 
L 481.571565 314.255216 
L 485.639918 312.76769 
L 487.674094 305.830286 
L 489.708271 302.620584 
L 491.742447 303.068052 
L 493.776623 300.480035 
L 495.8108 299.998684 
L 497.844976 295.696777 
L 499.879152 294.948524 
L 501.913329 292.353588 
L 503.947505 293.288401 
L 505.981681 291.35766 
L 508.015858 288.137723 
L 510.050034 286.150583 
L 512.084211 283.388714 
L 514.118387 275.267396 
L 516.152563 274.407185 
L 518.18674 272.278138 
L 520.220916 270.729778 
L 522.255092 265.93793 
L 524.289269 265.231505 
L 526.323445 264.323045 
L 528.357621 264.210344 
L 530.391798 261.183657 
L 532.425974 261.603589 
L 534.46015 259.283644 
L 536.494327 256.417298 
L 538.528503 255.139324 
L 540.562679 247.745691 
L 542.596856 245.535865 
L 544.631032 243.611143 
L 546.665208 242.260869 
L 548.699385 241.992798 
L 550.733561 241.217241 
L 552.767738 240.231073 
L 554.801914 240.106602 
L 556.83609 237.720985 
L 558.870267 237.97273 
L 560.904443 232.634822 
L 562.938619 228.848344 
L 564.972796 228.032775 
L 569.041148 225.912988 
L 571.075325 223.77066 
L 573.109501 222.946343 
L 577.177854 220.502902 
L 579.21203 218.298046 
L 581.246206 217.63736 
L 583.280383 215.384573 
L 585.314559 213.584297 
L 587.348735 212.920346 
L 589.382912 210.734814 
L 591.417088 209.043439 
L 593.451265 207.529242 
L 595.485441 204.630219 
L 597.519617 203.044088 
L 599.553794 202.125078 
L 601.58797 200.785185 
L 603.622146 198.696321 
L 605.656323 198.281141 
L 607.690499 198.990465 
L 609.724675 196.604069 
L 611.758852 195.837529 
L 615.827204 192.813814 
L 617.861381 192.282058 
L 619.895557 185.416576 
L 621.929733 185.490338 
L 623.96391 185.254919 
L 625.998086 182.014453 
L 628.032262 180.373641 
L 630.066439 180.347129 
L 632.100615 177.195946 
L 634.134792 175.354002 
L 636.168968 171.929582 
L 638.203144 170.508569 
L 640.237321 169.370686 
L 642.271497 169.38884 
L 644.305673 166.80906 
L 646.33985 165.897043 
L 648.374026 164.639197 
L 650.408202 161.394295 
L 652.442379 161.203982 
L 654.476555 161.18963 
L 656.510731 159.342665 
L 658.544908 158.321748 
L 660.579084 158.975563 
L 662.61326 158.93789 
L 664.647437 158.239336 
L 666.681613 158.50363 
L 668.715789 157.192808 
L 670.749966 157.402372 
L 672.784142 156.220383 
L 674.818319 155.486666 
L 676.852495 152.94434 
L 678.886671 152.726954 
L 680.920848 150.281904 
L 682.955024 148.526392 
L 684.9892 148.687976 
L 687.023377 148.664339 
L 689.057553 147.332098 
L 691.091729 148.996035 
L 693.125906 148.938185 
L 695.160082 148.203274 
L 697.194258 145.437324 
L 699.228435 145.443464 
L 701.262611 145.237166 
L 703.296787 145.931626 
L 705.330964 144.513878 
L 709.399316 143.22584 
L 711.433493 142.009688 
L 713.467669 141.77232 
L 715.501846 141.243366 
L 717.536022 141.050324 
L 719.570198 140.086159 
L 721.604375 139.722615 
L 723.638551 141.629086 
L 725.672727 141.032267 
L 727.706904 140.854357 
L 731.775256 136.816939 
L 733.809433 135.829796 
L 735.843609 135.721578 
L 737.877785 134.842092 
L 739.911962 134.490731 
L 741.946138 134.008272 
L 743.980314 133.786621 
L 746.014491 133.765275 
L 750.082843 131.303338 
L 752.11702 130.612241 
L 754.151196 126.912854 
L 756.185373 126.155938 
L 758.219549 125.874002 
L 760.253725 123.745856 
L 762.287902 120.762764 
L 764.322078 120.557415 
L 766.356254 120.550203 
L 770.424607 118.91056 
L 772.458783 117.719604 
L 774.49296 116.867971 
L 778.561312 116.185109 
L 780.595489 116.211159 
L 782.629665 115.070425 
L 788.732194 114.804766 
L 790.76637 114.904577 
L 792.800547 114.617693 
L 794.834723 114.508282 
L 796.8689 113.411775 
L 798.903076 112.94089 
L 800.937252 112.107021 
L 802.971429 110.646069 
L 805.005605 110.522621 
L 807.039781 110.752191 
L 809.073958 110.629206 
L 811.108134 108.769741 
L 813.14231 108.728267 
L 817.210663 107.662147 
L 819.244839 107.462696 
L 821.279016 107.402044 
L 825.347368 107.069179 
L 827.381545 106.100239 
L 829.415721 107.421758 
L 831.449897 106.959913 
L 833.484074 106.070047 
L 837.552427 105.854464 
L 839.586603 104.612993 
L 845.689132 104.355181 
L 847.723308 102.797488 
L 849.757485 102.71683 
L 853.825837 101.042854 
L 855.860014 100.604183 
L 857.89419 100.670658 
L 861.962543 100.473693 
L 863.996719 100.066189 
L 866.030895 100.388868 
L 870.099248 99.74636 
L 872.133424 99.123663 
L 874.167601 97.992067 
L 876.201777 98.015679 
L 878.235954 97.702454 
L 880.27013 96.85511 
L 882.304306 96.312729 
L 884.338483 96.052797 
L 890.441012 95.749319 
L 892.475188 94.961018 
L 894.509364 94.958167 
L 896.543541 94.708445 
L 898.577717 95.481711 
L 900.611893 95.705262 
L 902.64607 95.415114 
L 908.748599 95.105544 
L 910.782775 94.743608 
L 912.816951 94.701281 
L 914.851128 94.355988 
L 916.885304 94.354428 
L 918.919481 93.356587 
L 920.953657 92.172186 
L 922.987833 92.766178 
L 925.02201 92.546087 
L 929.090362 92.439283 
L 931.124539 92.10593 
L 935.192891 91.905772 
L 937.227068 91.936865 
L 939.261244 91.418634 
L 941.29542 91.720089 
L 945.363773 91.667893 
L 947.397949 91.592182 
L 949.432126 91.163745 
L 951.466302 90.365526 
L 953.500478 89.890913 
L 957.568831 89.985923 
L 959.603008 89.922811 
L 961.637184 90.681432 
L 963.67136 90.043237 
L 967.739713 89.960362 
L 973.842242 90.458198 
L 975.876418 90.500183 
L 979.944771 90.141391 
L 981.978947 90.101452 
L 984.013124 90.637911 
L 986.0473 90.714816 
L 988.081476 90.64778 
L 990.115653 90.288183 
L 992.149829 90.219027 
L 994.184005 90.39121 
L 996.218182 90.391113 
L 996.218182 90.391113 
" style="fill:none;stroke:#1f77b4;stroke-linecap:square;stroke-width:1.5;"/>
   </g>
   <g id="line2d_18">
    <path clip-path="url(#pa34c425c4d)" d="M 184.581818 484.232727 
L 272.051401 484.232437 
L 274.085578 484.093509 
L 280.188107 484.015834 
L 282.222283 483.70752 
L 300.52987 482.580602 
L 302.564046 482.190767 
L 306.632399 482.125431 
L 310.700752 481.556026 
L 314.769105 481.161354 
L 318.837457 480.295679 
L 320.871634 479.848807 
L 322.90581 479.671008 
L 326.974163 479.805495 
L 329.008339 479.337361 
L 331.042515 479.387015 
L 333.076692 478.833941 
L 343.247573 476.989577 
L 345.28175 476.921386 
L 347.315926 475.780769 
L 349.350103 475.053035 
L 351.384279 475.128309 
L 353.418455 474.970786 
L 361.555161 473.407188 
L 363.589337 472.787795 
L 365.623513 472.607179 
L 367.65769 471.389446 
L 369.691866 471.154656 
L 371.726042 470.752908 
L 373.760219 470.654793 
L 375.794395 469.571329 
L 377.828571 469.460291 
L 379.862748 467.650006 
L 381.896924 466.695148 
L 383.9311 465.552964 
L 385.965277 464.860954 
L 387.999453 464.81594 
L 390.03363 464.040596 
L 392.067806 463.872 
L 394.101982 463.074463 
L 396.136159 462.650576 
L 398.170335 462.411754 
L 400.204511 461.229046 
L 402.238688 460.944332 
L 404.272864 460.167995 
L 408.341217 459.182404 
L 410.375393 457.261067 
L 412.409569 456.644026 
L 414.443746 455.0498 
L 416.477922 454.843282 
L 418.512098 453.248733 
L 420.546275 453.000643 
L 422.580451 451.113201 
L 424.614627 450.496961 
L 426.648804 449.061631 
L 428.68298 448.953414 
L 430.717157 447.767623 
L 432.751333 447.419793 
L 434.785509 446.095188 
L 436.819686 445.918003 
L 438.853862 445.52476 
L 440.888038 443.26293 
L 444.956391 441.989686 
L 446.990567 441.209645 
L 449.024744 439.382428 
L 451.05892 437.119778 
L 453.093096 435.506996 
L 455.127273 435.215132 
L 457.161449 433.83 
L 459.195625 432.865812 
L 461.229802 432.420958 
L 463.263978 430.107458 
L 465.298154 428.918969 
L 467.332331 428.86104 
L 469.366507 426.378543 
L 471.400684 425.876827 
L 473.43486 426.060518 
L 475.469036 423.038108 
L 477.503213 422.410872 
L 479.537389 421.924184 
L 481.571565 422.227315 
L 483.605742 419.992597 
L 485.639918 416.847451 
L 487.674094 415.283593 
L 489.708271 415.370629 
L 491.742447 411.986758 
L 493.776623 409.129653 
L 495.8108 406.797104 
L 497.844976 406.245683 
L 499.879152 403.393196 
L 501.913329 398.959903 
L 503.947505 397.277257 
L 505.981681 395.166809 
L 508.015858 395.400814 
L 510.050034 393.007863 
L 512.084211 394.413787 
L 514.118387 393.797706 
L 516.152563 392.079976 
L 518.18674 391.492869 
L 520.220916 392.287542 
L 522.255092 388.196478 
L 524.289269 385.07182 
L 526.323445 380.895535 
L 528.357621 378.494067 
L 530.391798 376.949094 
L 532.425974 374.677763 
L 534.46015 371.934999 
L 536.494327 371.028416 
L 538.528503 369.154026 
L 540.562679 368.533607 
L 542.596856 370.055747 
L 548.699385 368.983414 
L 550.733561 368.717414 
L 552.767738 368.777359 
L 554.801914 365.515035 
L 556.83609 361.557433 
L 558.870267 358.651672 
L 560.904443 356.882588 
L 562.938619 357.762926 
L 564.972796 355.2018 
L 567.006972 354.747522 
L 569.041148 352.323392 
L 571.075325 349.610722 
L 575.143677 346.571948 
L 577.177854 345.496374 
L 579.21203 342.457784 
L 581.246206 342.213849 
L 583.280383 340.016097 
L 585.314559 338.442138 
L 587.348735 337.390469 
L 589.382912 333.843101 
L 591.417088 329.415699 
L 593.451265 326.381933 
L 595.485441 324.727768 
L 597.519617 325.106298 
L 599.553794 320.353 
L 601.58797 317.235665 
L 603.622146 313.169578 
L 605.656323 310.143281 
L 607.690499 304.656911 
L 609.724675 301.353113 
L 611.758852 295.815558 
L 613.793028 290.652173 
L 617.861381 287.613107 
L 619.895557 284.107482 
L 621.929733 281.277638 
L 623.96391 278.887977 
L 625.998086 277.762668 
L 628.032262 272.174258 
L 630.066439 267.595068 
L 632.100615 266.967059 
L 634.134792 263.745843 
L 636.168968 261.186947 
L 638.203144 259.253842 
L 640.237321 256.216092 
L 642.271497 250.912884 
L 644.305673 251.854386 
L 646.33985 248.456015 
L 648.374026 244.600065 
L 650.408202 244.411433 
L 652.442379 241.058826 
L 654.476555 240.001283 
L 656.510731 239.649679 
L 658.544908 232.391679 
L 660.579084 223.041013 
L 662.61326 222.281344 
L 664.647437 221.069236 
L 666.681613 216.989564 
L 668.715789 216.273318 
L 670.749966 217.086061 
L 672.784142 217.330836 
L 674.818319 210.51002 
L 676.852495 211.907056 
L 678.886671 210.421808 
L 680.920848 209.222372 
L 682.955024 208.203185 
L 687.023377 203.597361 
L 689.057553 202.939136 
L 691.091729 200.434628 
L 693.125906 199.999735 
L 695.160082 198.358435 
L 697.194258 196.279391 
L 699.228435 194.758908 
L 701.262611 194.750355 
L 703.296787 193.798009 
L 705.330964 191.767238 
L 707.36514 192.182516 
L 709.399316 190.231842 
L 711.433493 187.781601 
L 713.467669 187.544039 
L 715.501846 180.852738 
L 719.570198 180.631063 
L 721.604375 182.414379 
L 723.638551 181.058354 
L 725.672727 176.970958 
L 727.706904 176.541425 
L 729.74108 170.377494 
L 731.775256 166.637193 
L 733.809433 166.313441 
L 735.843609 166.281983 
L 737.877785 165.044313 
L 739.911962 163.030916 
L 741.946138 162.199386 
L 743.980314 158.972249 
L 746.014491 159.085657 
L 748.048667 159.036824 
L 750.082843 159.217463 
L 752.11702 155.58365 
L 754.151196 154.562002 
L 758.219549 153.836424 
L 760.253725 152.014193 
L 762.287902 151.857191 
L 764.322078 148.800361 
L 768.390431 139.561178 
L 770.424607 140.707175 
L 772.458783 140.430307 
L 774.49296 141.656036 
L 776.527136 139.983814 
L 778.561312 134.153114 
L 780.595489 130.978197 
L 782.629665 129.391775 
L 784.663841 129.346816 
L 786.698018 123.046425 
L 788.732194 120.019421 
L 790.76637 120.756233 
L 792.800547 120.652572 
L 794.834723 117.538015 
L 796.8689 115.885774 
L 798.903076 116.031153 
L 802.971429 112.120813 
L 805.005605 111.795307 
L 807.039781 111.991956 
L 811.108134 109.914228 
L 813.14231 110.332503 
L 815.176487 109.189088 
L 817.210663 109.230343 
L 819.244839 109.574856 
L 821.279016 110.628402 
L 825.347368 110.968017 
L 827.381545 111.448186 
L 829.415721 109.856183 
L 831.449897 110.611101 
L 833.484074 110.719245 
L 835.51825 108.199849 
L 837.552427 107.825729 
L 839.586603 107.862281 
L 841.620779 105.475324 
L 843.654956 104.223692 
L 845.689132 102.322046 
L 847.723308 102.346609 
L 849.757485 101.752032 
L 851.791661 102.284008 
L 853.825837 102.55822 
L 855.860014 102.21278 
L 857.89419 102.221553 
L 859.928366 99.030651 
L 861.962543 97.944549 
L 872.133424 97.679841 
L 880.27013 97.572769 
L 882.304306 96.881598 
L 886.372659 96.856133 
L 888.406835 96.512132 
L 890.441012 93.807491 
L 892.475188 93.624537 
L 894.509364 95.305799 
L 896.543541 95.10569 
L 898.577717 95.158154 
L 900.611893 95.022547 
L 902.64607 95.087146 
L 904.680246 94.618332 
L 906.714422 94.61246 
L 908.748599 94.949979 
L 910.782775 94.863035 
L 912.816951 95.648704 
L 914.851128 95.608887 
L 916.885304 95.300292 
L 918.919481 95.136101 
L 920.953657 94.097591 
L 922.987833 93.799401 
L 925.02201 93.754442 
L 927.056186 94.884113 
L 929.090362 93.85033 
L 931.124539 93.712943 
L 933.158715 93.713114 
L 935.192891 93.476185 
L 943.329597 93.590397 
L 947.397949 92.369395 
L 949.432126 92.41472 
L 953.500478 92.29076 
L 955.534655 92.32992 
L 957.568831 91.710902 
L 959.603008 91.580509 
L 963.67136 91.691383 
L 965.705537 91.562623 
L 967.739713 91.562696 
L 969.773889 91.184361 
L 971.808066 90.182962 
L 973.842242 89.978321 
L 984.013124 89.572571 
L 986.0473 90.528621 
L 988.081476 90.528621 
L 990.115653 90.783558 
L 996.218182 90.848693 
L 996.218182 90.848693 
" style="fill:none;stroke:#ff7f0e;stroke-linecap:square;stroke-width:1.5;"/>
   </g>
   <g id="line2d_19">
    <path clip-path="url(#pa34c425c4d)" d="M 184.581818 484.232727 
L 278.15393 484.153548 
L 294.427341 483.491909 
L 300.52987 483.043854 
L 304.598223 482.9052 
L 306.632399 482.701488 
L 308.666576 482.669236 
L 314.769105 482.079304 
L 318.837457 481.873418 
L 326.974163 480.344792 
L 329.008339 480.034736 
L 331.042515 479.97089 
L 333.076692 479.546938 
L 341.213397 478.346455 
L 343.247573 477.793473 
L 345.28175 477.606212 
L 349.350103 477.013859 
L 355.452632 476.38537 
L 359.520984 475.19826 
L 361.555161 475.053919 
L 363.589337 474.391048 
L 365.623513 473.403759 
L 367.65769 473.131999 
L 371.726042 472.172114 
L 373.760219 471.425187 
L 375.794395 470.83346 
L 377.828571 470.057603 
L 379.862748 469.939555 
L 381.896924 470.035755 
L 383.9311 469.738877 
L 385.965277 468.748272 
L 387.999453 468.512889 
L 392.067806 467.521688 
L 396.136159 465.752858 
L 398.170335 464.389319 
L 400.204511 462.257636 
L 402.238688 462.46941 
L 404.272864 461.324017 
L 406.30704 460.634703 
L 408.341217 460.842226 
L 410.375393 459.949726 
L 412.409569 458.661998 
L 414.443746 458.739603 
L 416.477922 456.966179 
L 418.512098 457.136422 
L 420.546275 456.739987 
L 422.580451 456.005116 
L 424.614627 456.079282 
L 426.648804 454.861366 
L 428.68298 452.817917 
L 432.751333 450.760247 
L 434.785509 449.344259 
L 436.819686 447.435891 
L 438.853862 444.732932 
L 440.888038 443.375202 
L 442.922215 440.358889 
L 444.956391 440.359386 
L 446.990567 440.540162 
L 449.024744 440.142225 
L 453.093096 439.740563 
L 455.127273 438.53328 
L 457.161449 438.330177 
L 459.195625 436.383649 
L 461.229802 436.342089 
L 463.263978 434.358339 
L 465.298154 432.794993 
L 467.332331 431.910353 
L 469.366507 432.752398 
L 471.400684 433.063819 
L 473.43486 430.955674 
L 475.469036 429.63756 
L 477.503213 429.141478 
L 479.537389 428.976477 
L 481.571565 428.235888 
L 485.639918 424.421345 
L 487.674094 423.114135 
L 489.708271 420.716079 
L 491.742447 420.837766 
L 493.776623 419.473451 
L 495.8108 419.593316 
L 497.844976 417.227475 
L 499.879152 415.482801 
L 501.913329 413.909195 
L 503.947505 413.243769 
L 505.981681 410.810002 
L 508.015858 409.961457 
L 510.050034 407.628658 
L 512.084211 404.176873 
L 514.118387 402.847842 
L 516.152563 401.829496 
L 518.18674 401.527962 
L 520.220916 400.19449 
L 522.255092 399.037929 
L 524.289269 396.72248 
L 526.323445 394.017833 
L 528.357621 390.8245 
L 530.391798 390.501552 
L 532.425974 387.445429 
L 534.46015 385.200056 
L 536.494327 382.548385 
L 538.528503 382.012571 
L 540.562679 379.626492 
L 542.596856 377.810097 
L 544.631032 375.29276 
L 546.665208 371.659776 
L 550.733561 363.906644 
L 552.767738 359.682994 
L 554.801914 359.43471 
L 556.83609 358.459909 
L 558.870267 355.231809 
L 560.904443 353.587172 
L 562.938619 350.654983 
L 564.972796 350.531377 
L 567.006972 349.868546 
L 569.041148 346.505631 
L 571.075325 343.905407 
L 573.109501 340.484935 
L 575.143677 338.723283 
L 577.177854 338.879188 
L 579.21203 338.503947 
L 581.246206 338.248681 
L 583.280383 335.992678 
L 585.314559 332.654094 
L 587.348735 328.342147 
L 589.382912 326.356408 
L 591.417088 322.305709 
L 593.451265 321.597639 
L 595.485441 320.597763 
L 597.519617 315.281835 
L 599.553794 313.516247 
L 601.58797 308.884801 
L 603.622146 308.215707 
L 607.690499 299.263785 
L 609.724675 296.259127 
L 611.758852 293.881857 
L 613.793028 291.148644 
L 615.827204 290.160076 
L 617.861381 288.463595 
L 619.895557 284.660291 
L 621.929733 282.780601 
L 623.96391 281.270608 
L 625.998086 276.365559 
L 628.032262 274.08682 
L 630.066439 272.889967 
L 632.100615 272.187611 
L 634.134792 264.629252 
L 636.168968 263.524729 
L 638.203144 263.237115 
L 640.237321 265.026498 
L 642.271497 262.761332 
L 644.305673 262.435045 
L 648.374026 253.984846 
L 650.408202 251.046273 
L 652.442379 249.864041 
L 654.476555 247.191444 
L 656.510731 245.884301 
L 658.544908 241.01394 
L 660.579084 237.350691 
L 662.61326 236.554835 
L 664.647437 234.025936 
L 666.681613 232.302638 
L 668.715789 222.353741 
L 670.749966 218.304431 
L 672.784142 218.669389 
L 674.818319 219.509155 
L 676.852495 217.546443 
L 678.886671 210.954149 
L 680.920848 210.454827 
L 682.955024 209.601561 
L 684.9892 209.082793 
L 687.023377 206.993733 
L 689.057553 206.652949 
L 691.091729 205.983197 
L 693.125906 205.477149 
L 695.160082 202.977125 
L 697.194258 201.654461 
L 699.228435 198.54195 
L 701.262611 192.524738 
L 703.296787 187.016645 
L 705.330964 185.561321 
L 707.36514 182.665417 
L 709.399316 177.912387 
L 711.433493 177.797224 
L 713.467669 172.71011 
L 715.501846 171.920737 
L 717.536022 169.253086 
L 719.570198 168.239601 
L 721.604375 166.328501 
L 723.638551 165.526554 
L 725.672727 163.535892 
L 727.706904 163.598883 
L 729.74108 161.777554 
L 731.775256 157.118925 
L 733.809433 155.329542 
L 737.877785 147.036077 
L 739.911962 148.050951 
L 741.946138 147.395089 
L 743.980314 147.459201 
L 746.014491 142.945731 
L 748.048667 142.478599 
L 752.11702 142.548242 
L 754.151196 137.410078 
L 758.219549 137.323182 
L 760.253725 137.864417 
L 764.322078 137.854036 
L 766.356254 136.684158 
L 768.390431 136.385116 
L 770.424607 135.739488 
L 772.458783 135.652714 
L 774.49296 134.726491 
L 776.527136 134.735044 
L 780.595489 134.038902 
L 782.629665 133.989118 
L 784.663841 128.391302 
L 786.698018 128.39118 
L 788.732194 127.819461 
L 790.76637 124.412123 
L 792.800547 122.837324 
L 794.834723 123.280893 
L 798.903076 123.338742 
L 800.937252 122.952608 
L 802.971429 124.309193 
L 805.005605 119.961621 
L 809.073958 119.529164 
L 811.108134 116.595465 
L 813.14231 114.384054 
L 815.176487 114.452284 
L 817.210663 114.295769 
L 819.244839 111.562106 
L 821.279016 109.81795 
L 823.313192 109.808227 
L 825.347368 107.463695 
L 827.381545 107.536921 
L 829.415721 107.32453 
L 831.449897 104.491129 
L 833.484074 103.998411 
L 835.51825 103.886903 
L 837.552427 100.051714 
L 839.586603 99.659659 
L 841.620779 99.387835 
L 843.654956 99.430503 
L 845.689132 97.917964 
L 847.723308 98.188521 
L 849.757485 100.17716 
L 851.791661 99.841663 
L 853.825837 99.915254 
L 855.860014 99.461036 
L 857.89419 99.370242 
L 859.928366 98.979308 
L 861.962543 99.066471 
L 863.996719 98.440217 
L 868.065072 97.748388 
L 870.099248 97.619531 
L 872.133424 97.111558 
L 874.167601 97.309644 
L 876.201777 97.2111 
L 878.235954 97.897446 
L 880.27013 98.184914 
L 882.304306 98.126943 
L 884.338483 97.760328 
L 886.372659 98.071457 
L 888.406835 97.906999 
L 892.475188 97.961241 
L 894.509364 97.862357 
L 896.543541 96.060083 
L 900.611893 95.798299 
L 902.64607 95.207719 
L 904.680246 95.391769 
L 906.714422 94.832965 
L 908.748599 94.593209 
L 912.816951 94.564674 
L 914.851128 94.426825 
L 916.885304 95.502838 
L 918.919481 95.419622 
L 920.953657 95.024009 
L 922.987833 95.249534 
L 925.02201 94.956973 
L 931.124539 94.957217 
L 933.158715 94.817467 
L 941.29542 94.797363 
L 943.329597 94.087405 
L 947.397949 94.072711 
L 949.432126 93.164106 
L 951.466302 92.990728 
L 953.500478 93.017094 
L 955.534655 92.715931 
L 957.568831 92.636126 
L 959.603008 91.996396 
L 961.637184 91.745212 
L 963.67136 91.354205 
L 969.773889 91.398652 
L 971.808066 91.638237 
L 975.876418 91.704932 
L 979.944771 92.130249 
L 981.978947 92.625989 
L 984.013124 92.533879 
L 986.0473 91.451457 
L 988.081476 91.136916 
L 996.218182 91.144641 
L 996.218182 91.144641 
" style="fill:none;stroke:#2ca02c;stroke-linecap:square;stroke-width:1.5;"/>
   </g>
   <g id="line2d_20">
    <path clip-path="url(#pa34c425c4d)" d="M 184.581818 484.232727 
L 272.051401 484.232437 
L 274.085578 484.093509 
L 280.188107 484.015834 
L 282.222283 483.70752 
L 298.495694 482.66596 
L 300.52987 482.296612 
L 304.598223 482.123609 
L 306.632399 481.785266 
L 308.666576 481.790089 
L 312.734928 481.381249 
L 318.837457 480.414662 
L 320.871634 480.434452 
L 322.90581 479.887212 
L 324.939986 479.972579 
L 326.974163 479.491727 
L 329.008339 479.53131 
L 331.042515 479.387015 
L 333.076692 478.833941 
L 335.110868 478.535381 
L 337.145044 478.081114 
L 339.179221 476.995849 
L 343.247573 476.258555 
L 345.28175 476.167217 
L 347.315926 475.443487 
L 349.350103 475.182799 
L 351.384279 474.732669 
L 353.418455 474.796557 
L 355.452632 474.599882 
L 357.486808 474.14235 
L 361.555161 473.715764 
L 363.589337 473.080576 
L 365.623513 472.098462 
L 369.691866 471.223848 
L 371.726042 471.055209 
L 373.760219 469.798016 
L 375.794395 468.870769 
L 379.862748 468.471442 
L 381.896924 468.466262 
L 383.9311 467.291561 
L 385.965277 466.414419 
L 387.999453 465.867379 
L 390.03363 465.646976 
L 392.067806 463.872 
L 394.101982 463.402276 
L 396.136159 462.650576 
L 398.170335 462.411754 
L 400.204511 461.684113 
L 402.238688 461.168573 
L 404.272864 459.988947 
L 406.30704 458.085999 
L 410.375393 457.261067 
L 412.409569 457.066267 
L 414.443746 455.472839 
L 416.477922 454.173738 
L 418.512098 453.248733 
L 420.546275 453.000643 
L 422.580451 451.536858 
L 424.614627 451.383285 
L 426.648804 450.966332 
L 428.68298 449.184153 
L 430.717157 446.919837 
L 432.751333 445.601793 
L 434.785509 445.562259 
L 436.819686 444.511693 
L 442.922215 443.092071 
L 444.956391 441.396026 
L 446.990567 440.137065 
L 449.024744 437.892703 
L 451.05892 436.55017 
L 453.093096 433.988303 
L 455.127273 432.408043 
L 457.161449 432.078095 
L 459.195625 431.310288 
L 461.229802 430.28856 
L 463.263978 430.041019 
L 465.298154 430.044954 
L 467.332331 426.914515 
L 469.366507 424.486827 
L 471.400684 423.758185 
L 473.43486 422.506869 
L 475.469036 422.77268 
L 479.537389 421.915436 
L 481.571565 422.227315 
L 483.605742 419.992597 
L 485.639918 417.291239 
L 487.674094 415.742422 
L 489.708271 415.855069 
L 491.742447 413.662397 
L 495.8108 406.797104 
L 497.844976 404.002283 
L 499.879152 402.229032 
L 501.913329 397.733589 
L 503.947505 399.252714 
L 505.981681 396.861809 
L 508.015858 394.685483 
L 510.050034 394.058716 
L 512.084211 392.31216 
L 514.118387 391.969955 
L 516.152563 387.686403 
L 518.18674 387.895565 
L 520.220916 388.777213 
L 522.255092 384.783798 
L 524.289269 382.268318 
L 526.323445 380.231681 
L 528.357621 378.610668 
L 530.391798 375.221642 
L 532.425974 374.677763 
L 534.46015 373.806319 
L 536.494327 371.085486 
L 538.528503 371.52072 
L 540.562679 371.19028 
L 542.596856 367.606567 
L 546.665208 366.13566 
L 548.699385 365.781144 
L 550.733561 362.518332 
L 552.767738 360.850752 
L 554.801914 361.985321 
L 556.83609 361.557433 
L 560.904443 355.947506 
L 562.938619 355.528622 
L 564.972796 353.171516 
L 567.006972 351.631417 
L 569.041148 352.323392 
L 571.075325 350.942476 
L 573.109501 348.236117 
L 575.143677 346.042178 
L 577.177854 343.160042 
L 579.21203 342.098101 
L 581.246206 340.409138 
L 583.280383 338.951269 
L 585.314559 335.391412 
L 587.348735 334.937304 
L 589.382912 333.843101 
L 591.417088 334.20656 
L 593.451265 328.900086 
L 595.485441 326.149658 
L 597.519617 321.519978 
L 599.553794 317.783041 
L 603.622146 312.141911 
L 605.656323 306.662157 
L 607.690499 303.346881 
L 609.724675 297.639422 
L 611.758852 294.246242 
L 613.793028 289.320102 
L 615.827204 287.43248 
L 617.861381 285.708793 
L 619.895557 280.359383 
L 621.929733 277.456534 
L 623.96391 276.898436 
L 625.998086 274.578223 
L 628.032262 271.631097 
L 630.066439 272.172625 
L 632.100615 267.667173 
L 634.134792 265.422622 
L 636.168968 260.401618 
L 638.203144 258.447971 
L 640.237321 255.23353 
L 642.271497 251.28408 
L 644.305673 248.087037 
L 646.33985 237.679365 
L 648.374026 236.795834 
L 650.408202 236.447982 
L 652.442379 234.153989 
L 654.476555 230.896514 
L 656.510731 229.872502 
L 658.544908 222.739094 
L 660.579084 222.054625 
L 662.61326 220.775384 
L 664.647437 216.539002 
L 666.681613 216.989564 
L 668.715789 209.861932 
L 670.749966 209.147197 
L 672.784142 210.196113 
L 674.818319 209.191327 
L 676.852495 209.563864 
L 678.886671 210.887357 
L 680.920848 208.814332 
L 682.955024 207.095884 
L 684.9892 206.43817 
L 687.023377 205.298557 
L 691.091729 200.434628 
L 693.125906 198.479593 
L 695.160082 198.463656 
L 697.194258 196.711995 
L 699.228435 194.500487 
L 701.262611 192.836745 
L 703.296787 192.736568 
L 705.330964 193.089464 
L 707.36514 192.182516 
L 709.399316 185.397155 
L 711.433493 182.964094 
L 713.467669 182.864917 
L 715.501846 184.721433 
L 717.536022 183.451671 
L 719.570198 183.193664 
L 721.604375 178.954577 
L 723.638551 178.307268 
L 725.672727 176.762685 
L 727.706904 173.256268 
L 729.74108 172.985419 
L 731.775256 172.447692 
L 733.809433 166.313441 
L 735.843609 166.281983 
L 737.877785 163.053871 
L 739.911962 162.143511 
L 741.946138 160.803642 
L 743.980314 158.972249 
L 746.014491 156.905462 
L 748.048667 156.818176 
L 750.082843 156.531171 
L 754.151196 154.562514 
L 756.185373 150.796261 
L 758.219549 151.84469 
L 760.253725 152.014193 
L 762.287902 151.857191 
L 764.322078 148.800361 
L 766.356254 149.646755 
L 768.390431 150.646789 
L 770.424607 150.575415 
L 772.458783 147.485884 
L 774.49296 142.630386 
L 776.527136 138.648381 
L 778.561312 134.955719 
L 780.595489 133.369711 
L 782.629665 133.404874 
L 784.663841 127.561697 
L 786.698018 127.526437 
L 788.732194 125.878144 
L 790.76637 125.257324 
L 792.800547 119.262481 
L 794.834723 120.038331 
L 796.8689 118.524695 
L 798.903076 115.201841 
L 802.971429 115.596381 
L 805.005605 114.533527 
L 807.039781 112.84086 
L 809.073958 110.905513 
L 813.14231 111.805298 
L 815.176487 110.769833 
L 817.210663 112.614482 
L 819.244839 110.582736 
L 821.279016 110.628402 
L 825.347368 110.968017 
L 827.381545 111.448186 
L 829.415721 109.856183 
L 831.449897 110.611101 
L 833.484074 110.719245 
L 835.51825 110.358527 
L 837.552427 110.376535 
L 841.620779 105.475324 
L 843.654956 105.003854 
L 845.689132 105.203671 
L 847.723308 102.943257 
L 849.757485 103.512198 
L 851.791661 103.170097 
L 853.825837 101.841511 
L 855.860014 98.613789 
L 857.89419 98.726759 
L 859.928366 97.828022 
L 861.962543 97.944549 
L 872.133424 97.672458 
L 880.27013 97.719098 
L 882.304306 97.030486 
L 886.372659 96.856133 
L 888.406835 96.512132 
L 890.441012 98.527381 
L 892.475188 95.582472 
L 894.509364 95.305799 
L 896.543541 95.169217 
L 898.577717 95.164271 
L 900.611893 94.9617 
L 902.64607 94.478997 
L 904.680246 94.769852 
L 908.748599 94.949979 
L 910.782775 94.863035 
L 912.816951 95.648704 
L 914.851128 95.608887 
L 916.885304 95.446841 
L 918.919481 95.136101 
L 920.953657 94.097591 
L 922.987833 93.799401 
L 925.02201 94.891302 
L 929.090362 94.884235 
L 933.158715 94.548055 
L 939.261244 94.507385 
L 941.29542 93.471409 
L 943.329597 92.723924 
L 945.363773 92.268342 
L 947.397949 92.369395 
L 949.432126 92.276871 
L 951.466302 92.315957 
L 953.500478 91.701277 
L 957.568831 91.710902 
L 959.603008 91.580509 
L 963.67136 91.691383 
L 965.705537 91.562623 
L 967.739713 91.184312 
L 971.808066 89.978321 
L 975.876418 89.902098 
L 981.978947 89.567039 
L 984.013124 90.378393 
L 986.0473 90.528621 
L 988.081476 90.528621 
L 990.115653 90.783558 
L 996.218182 90.848693 
L 996.218182 90.848693 
" style="fill:none;stroke:#d62728;stroke-dasharray:5.55,2.4;stroke-dashoffset:0;stroke-width:1.5;"/>
   </g>
   <g id="line2d_21">
    <path clip-path="url(#pa34c425c4d)" d="M 184.581818 484.232727 
L 278.15393 484.153548 
L 292.393165 483.563563 
L 310.700752 482.343179 
L 312.734928 482.336645 
L 316.803281 481.925068 
L 318.837457 481.873418 
L 322.90581 481.120143 
L 324.939986 480.810005 
L 326.974163 480.344792 
L 331.042515 479.611782 
L 333.076692 479.18115 
L 335.110868 478.89044 
L 337.145044 478.851527 
L 339.179221 478.448539 
L 341.213397 478.244732 
L 343.247573 477.698573 
L 345.28175 477.606212 
L 347.315926 477.304198 
L 351.384279 476.863597 
L 353.418455 476.581453 
L 355.452632 475.975193 
L 357.486808 475.778652 
L 361.555161 474.850981 
L 363.589337 474.670525 
L 367.65769 473.096585 
L 369.691866 472.751929 
L 373.760219 471.634313 
L 375.794395 470.83346 
L 377.828571 470.700499 
L 379.862748 469.939555 
L 381.896924 470.035755 
L 383.9311 469.689178 
L 385.965277 468.685494 
L 387.999453 468.273367 
L 390.03363 467.740664 
L 392.067806 466.781593 
L 394.101982 465.086797 
L 396.136159 463.744391 
L 398.170335 463.465534 
L 400.204511 462.257636 
L 402.238688 461.179326 
L 404.272864 459.293154 
L 406.30704 457.923587 
L 408.341217 458.171531 
L 410.375393 455.776594 
L 412.409569 456.089008 
L 414.443746 455.298066 
L 416.477922 453.434136 
L 418.512098 451.356593 
L 420.546275 451.97155 
L 422.580451 451.675176 
L 424.614627 450.790177 
L 426.648804 449.521332 
L 428.68298 450.226146 
L 430.717157 449.58516 
L 432.751333 448.36806 
L 434.785509 448.373951 
L 436.819686 445.823794 
L 438.853862 445.463356 
L 440.888038 445.435461 
L 442.922215 442.770199 
L 446.990567 442.117651 
L 449.024744 441.064197 
L 451.05892 439.057875 
L 453.093096 437.514273 
L 455.127273 437.578269 
L 457.161449 435.615174 
L 459.195625 435.155458 
L 461.229802 435.210633 
L 463.263978 434.253956 
L 465.298154 434.638107 
L 467.332331 434.190076 
L 469.366507 432.786628 
L 471.400684 430.259702 
L 473.43486 428.592726 
L 475.469036 427.813532 
L 477.503213 428.55381 
L 479.537389 426.673504 
L 481.571565 424.390702 
L 483.605742 423.765069 
L 485.639918 421.599574 
L 487.674094 418.618022 
L 489.708271 417.744116 
L 491.742447 417.049954 
L 493.776623 415.268899 
L 495.8108 413.904364 
L 497.844976 410.201067 
L 499.879152 409.644705 
L 501.913329 409.85673 
L 503.947505 408.246232 
L 505.981681 407.266831 
L 508.015858 405.543723 
L 510.050034 405.558624 
L 512.084211 404.621983 
L 514.118387 402.924808 
L 516.152563 401.661534 
L 518.18674 398.603133 
L 520.220916 398.426277 
L 522.255092 396.16847 
L 524.289269 393.414971 
L 526.323445 392.785512 
L 528.357621 390.746657 
L 530.391798 389.186582 
L 534.46015 383.699603 
L 536.494327 381.120049 
L 538.528503 379.956896 
L 540.562679 378.143097 
L 542.596856 375.623688 
L 544.631032 371.903162 
L 546.665208 371.561646 
L 548.699385 368.140614 
L 550.733561 366.38498 
L 552.767738 363.03414 
L 554.801914 358.783917 
L 556.83609 358.553664 
L 558.870267 354.353871 
L 560.904443 351.409645 
L 562.938619 351.538003 
L 564.972796 347.215699 
L 567.006972 346.081569 
L 569.041148 346.233137 
L 571.075325 345.304185 
L 573.109501 344.600221 
L 575.143677 342.554561 
L 577.177854 338.78419 
L 579.21203 336.12279 
L 581.246206 332.607393 
L 583.280383 330.274509 
L 585.314559 327.029108 
L 587.348735 325.37755 
L 589.382912 324.553281 
L 591.417088 322.305709 
L 593.451265 318.061407 
L 595.485441 316.145116 
L 597.519617 315.272454 
L 599.553794 310.833026 
L 601.58797 305.671066 
L 603.622146 304.808394 
L 605.656323 304.226903 
L 607.690499 301.178553 
L 609.724675 296.259127 
L 611.758852 293.587395 
L 613.793028 291.148644 
L 615.827204 290.160076 
L 617.861381 286.413829 
L 619.895557 285.636481 
L 621.929733 284.672804 
L 623.96391 279.548664 
L 625.998086 277.538239 
L 628.032262 269.976932 
L 630.066439 269.276233 
L 632.100615 267.322343 
L 634.134792 264.629252 
L 636.168968 264.88068 
L 638.203144 266.701692 
L 640.237321 262.911828 
L 642.271497 262.25811 
L 644.305673 259.331307 
L 646.33985 255.168175 
L 648.374026 253.984846 
L 650.408202 250.152995 
L 652.442379 247.328148 
L 654.476555 247.189446 
L 656.510731 242.277707 
L 658.544908 240.35184 
L 660.579084 230.521029 
L 662.61326 227.996369 
L 664.647437 226.285597 
L 666.681613 225.053752 
L 668.715789 222.353741 
L 670.749966 215.480436 
L 672.784142 215.95773 
L 674.818319 211.912173 
L 676.852495 210.004338 
L 678.886671 210.954149 
L 680.920848 210.081559 
L 682.955024 209.601561 
L 684.9892 203.087414 
L 687.023377 201.411415 
L 689.057553 200.646922 
L 691.091729 195.021277 
L 693.125906 194.497295 
L 697.194258 193.824229 
L 699.228435 190.800296 
L 701.262611 189.197961 
L 703.296787 187.924275 
L 705.330964 185.561321 
L 707.36514 182.665417 
L 709.399316 177.912387 
L 711.433493 176.756545 
L 713.467669 175.967074 
L 715.501846 173.497193 
L 717.536022 173.302908 
L 719.570198 168.239601 
L 721.604375 167.405903 
L 723.638551 165.526554 
L 725.672727 164.985318 
L 727.706904 161.312955 
L 729.74108 159.584224 
L 731.775256 157.595195 
L 733.809433 153.237753 
L 735.843609 152.987909 
L 737.877785 153.028141 
L 739.911962 148.652764 
L 741.946138 149.200018 
L 743.980314 148.549298 
L 746.014491 144.257016 
L 750.082843 144.442115 
L 752.11702 139.293667 
L 754.151196 138.944548 
L 756.185373 139.028374 
L 758.219549 139.925136 
L 760.253725 139.93135 
L 764.322078 139.614714 
L 766.356254 138.484458 
L 770.424607 138.409405 
L 772.458783 137.843509 
L 774.49296 137.617302 
L 776.527136 135.442541 
L 778.561312 135.102731 
L 780.595489 129.668326 
L 782.629665 128.842011 
L 784.663841 128.391302 
L 786.698018 127.817731 
L 788.732194 127.819461 
L 790.76637 126.124918 
L 794.834723 126.190857 
L 796.8689 126.646805 
L 798.903076 126.226142 
L 800.937252 122.952608 
L 802.971429 118.518091 
L 805.005605 118.239225 
L 807.039781 118.233011 
L 809.073958 118.055394 
L 811.108134 118.178086 
L 813.14231 118.03049 
L 815.176487 115.842667 
L 817.210663 113.476594 
L 819.244839 110.825611 
L 821.279016 111.555161 
L 823.313192 111.632115 
L 825.347368 109.451481 
L 827.381545 109.234169 
L 831.449897 109.040249 
L 833.484074 106.270863 
L 835.51825 104.328693 
L 839.586603 103.826788 
L 841.620779 103.343865 
L 843.654956 99.430503 
L 845.689132 97.917964 
L 847.723308 99.917057 
L 849.757485 100.17716 
L 851.791661 100.078543 
L 853.825837 99.70318 
L 855.860014 99.879994 
L 857.89419 99.232514 
L 863.996719 97.981174 
L 866.030895 98.095728 
L 868.065072 97.599598 
L 870.099248 97.77412 
L 872.133424 97.419641 
L 874.167601 97.651379 
L 876.201777 98.329367 
L 884.338483 98.013291 
L 886.372659 97.645263 
L 888.406835 97.545477 
L 890.441012 97.809551 
L 892.475188 97.954248 
L 894.509364 97.7277 
L 896.543541 97.739201 
L 898.577717 96.028478 
L 900.611893 95.440066 
L 902.64607 95.36265 
L 906.714422 95.426859 
L 908.748599 94.846976 
L 910.782775 94.607391 
L 912.816951 94.564674 
L 914.851128 95.75758 
L 916.885304 95.502838 
L 918.919481 95.419622 
L 920.953657 95.024009 
L 922.987833 95.249534 
L 925.02201 95.249704 
L 927.056186 94.957095 
L 929.090362 94.80962 
L 935.192891 94.796242 
L 937.227068 94.794902 
L 939.261244 94.023415 
L 945.363773 94.076293 
L 947.397949 93.167688 
L 949.432126 92.924179 
L 951.466302 92.944185 
L 953.500478 92.713543 
L 957.568831 92.636126 
L 959.603008 91.996396 
L 961.637184 91.745212 
L 963.67136 91.686973 
L 965.705537 91.30062 
L 971.808066 91.386297 
L 973.842242 91.49839 
L 975.876418 91.757152 
L 977.910595 91.668648 
L 979.944771 92.196383 
L 984.013124 92.533879 
L 986.0473 92.219557 
L 994.184005 92.22755 
L 996.218182 91.144641 
L 996.218182 91.144641 
" style="fill:none;stroke:#9467bd;stroke-dasharray:5.55,2.4;stroke-dashoffset:0;stroke-width:1.5;"/>
   </g>
   <g id="line2d_22">
    <path clip-path="url(#pa34c425c4d)" d="M 184.581818 484.232727 
L 274.085578 484.1535 
L 276.119754 484.094051 
L 280.188107 483.622281 
L 284.256459 483.042739 
L 286.290636 483.132714 
L 288.324812 483.018919 
L 290.358988 482.688296 
L 292.393165 482.799253 
L 298.495694 482.34602 
L 300.52987 481.45316 
L 302.564046 479.909342 
L 304.598223 479.454165 
L 306.632399 479.153026 
L 308.666576 479.091485 
L 310.700752 478.519876 
L 314.769105 478.29605 
L 316.803281 478.463697 
L 318.837457 478.301916 
L 326.974163 476.857191 
L 329.008339 475.700237 
L 331.042515 475.238148 
L 333.076692 475.365519 
L 335.110868 474.078608 
L 337.145044 473.359896 
L 339.179221 471.074374 
L 341.213397 470.165126 
L 343.247573 469.531392 
L 345.28175 468.347894 
L 347.315926 467.033823 
L 349.350103 465.309597 
L 351.384279 465.977493 
L 353.418455 464.217092 
L 355.452632 463.008462 
L 357.486808 459.817033 
L 359.520984 459.60174 
L 361.555161 458.911823 
L 363.589337 456.885381 
L 365.623513 453.915298 
L 367.65769 453.384322 
L 369.691866 453.12254 
L 371.726042 448.452791 
L 373.760219 448.250248 
L 375.794395 448.212176 
L 377.828571 447.750736 
L 379.862748 447.478815 
L 381.896924 446.078792 
L 383.9311 446.550816 
L 385.965277 445.818226 
L 387.999453 445.75168 
L 390.03363 444.607071 
L 392.067806 442.426279 
L 394.101982 441.101677 
L 396.136159 438.781687 
L 398.170335 438.246379 
L 402.238688 437.702195 
L 404.272864 436.811646 
L 406.30704 434.128142 
L 408.341217 433.783747 
L 410.375393 432.652404 
L 412.409569 431.931717 
L 414.443746 429.599948 
L 416.477922 429.172584 
L 418.512098 427.336884 
L 420.546275 427.536713 
L 422.580451 425.904698 
L 424.614627 422.972783 
L 426.648804 422.846527 
L 428.68298 421.372008 
L 430.717157 420.6025 
L 432.751333 419.453475 
L 434.785509 418.750401 
L 436.819686 415.259743 
L 438.853862 414.867353 
L 440.888038 412.172721 
L 442.922215 411.420357 
L 444.956391 410.340469 
L 446.990567 408.67747 
L 449.024744 407.952806 
L 451.05892 404.128454 
L 453.093096 400.920239 
L 455.127273 399.888277 
L 457.161449 397.73231 
L 459.195625 393.402361 
L 461.229802 392.494231 
L 467.332331 383.22131 
L 471.400684 379.220718 
L 473.43486 379.699742 
L 475.469036 379.361235 
L 477.503213 375.554934 
L 479.537389 374.448596 
L 481.571565 372.731122 
L 483.605742 372.236588 
L 485.639918 369.984179 
L 487.674094 366.8497 
L 489.708271 365.831452 
L 491.742447 363.32625 
L 493.776623 360.412776 
L 495.8108 356.816136 
L 497.844976 355.731851 
L 499.879152 352.712182 
L 501.913329 350.732668 
L 503.947505 350.561996 
L 505.981681 350.07532 
L 508.015858 348.455391 
L 510.050034 347.749405 
L 512.084211 346.267204 
L 514.118387 343.405536 
L 516.152563 340.066465 
L 518.18674 337.769535 
L 520.220916 336.072068 
L 522.255092 334.857682 
L 524.289269 335.148586 
L 526.323445 331.966664 
L 528.357621 329.023522 
L 530.391798 327.361181 
L 532.425974 321.657535 
L 534.46015 317.326752 
L 536.494327 315.63729 
L 538.528503 312.864943 
L 540.562679 309.700248 
L 542.596856 309.104806 
L 544.631032 309.310069 
L 546.665208 307.260937 
L 548.699385 306.504351 
L 550.733561 305.911236 
L 552.767738 303.763377 
L 554.801914 303.045231 
L 556.83609 300.632286 
L 558.870267 299.626124 
L 562.938619 292.849657 
L 564.972796 289.749306 
L 567.006972 289.683647 
L 569.041148 285.918235 
L 571.075325 279.126953 
L 573.109501 277.151789 
L 575.143677 274.034819 
L 577.177854 269.634709 
L 579.21203 267.774001 
L 581.246206 265.744229 
L 583.280383 260.2491 
L 585.314559 258.050458 
L 587.348735 251.948202 
L 589.382912 249.472083 
L 591.417088 246.244849 
L 593.451265 244.866698 
L 597.519617 242.522069 
L 599.553794 239.824762 
L 601.58797 237.54461 
L 603.622146 235.859571 
L 605.656323 235.029259 
L 607.690499 235.834496 
L 609.724675 230.853285 
L 611.758852 228.101907 
L 613.793028 222.431767 
L 615.827204 220.571887 
L 617.861381 212.74302 
L 619.895557 211.254118 
L 621.929733 210.783135 
L 623.96391 210.546718 
L 625.998086 209.096317 
L 628.032262 207.872245 
L 630.066439 205.278307 
L 634.134792 202.182659 
L 636.168968 196.988595 
L 638.203144 193.258821 
L 640.237321 191.954286 
L 642.271497 187.610758 
L 644.305673 179.999253 
L 646.33985 179.124324 
L 648.374026 177.001125 
L 650.408202 176.055578 
L 652.442379 174.956342 
L 654.476555 172.754728 
L 658.544908 170.226486 
L 660.579084 162.684819 
L 662.61326 162.782412 
L 664.647437 159.097403 
L 666.681613 157.001618 
L 668.715789 154.653528 
L 670.749966 150.582043 
L 672.784142 149.350807 
L 674.818319 148.554196 
L 678.886671 143.792784 
L 680.920848 143.122667 
L 682.955024 139.476767 
L 684.9892 137.563863 
L 687.023377 137.229097 
L 689.057553 134.304073 
L 691.091729 134.320765 
L 693.125906 132.439272 
L 695.160082 131.039946 
L 697.194258 129.432688 
L 699.228435 126.079984 
L 701.262611 127.714216 
L 703.296787 126.956667 
L 705.330964 127.455015 
L 707.36514 126.392794 
L 709.399316 126.752683 
L 711.433493 124.810758 
L 713.467669 123.754848 
L 715.501846 122.344557 
L 717.536022 122.073074 
L 719.570198 122.16499 
L 721.604375 121.007588 
L 723.638551 121.053229 
L 725.672727 119.749327 
L 727.706904 119.257583 
L 729.74108 118.637494 
L 731.775256 117.608535 
L 733.809433 119.069658 
L 735.843609 115.290978 
L 737.877785 112.06657 
L 739.911962 112.058773 
L 741.946138 112.206588 
L 743.980314 110.646678 
L 746.014491 110.61439 
L 748.048667 111.357416 
L 750.082843 110.930247 
L 752.11702 110.67665 
L 754.151196 110.652161 
L 756.185373 109.723744 
L 758.219549 106.920218 
L 760.253725 106.859761 
L 762.287902 105.959319 
L 764.322078 105.987586 
L 766.356254 105.859654 
L 770.424607 103.747153 
L 774.49296 103.678655 
L 776.527136 103.158352 
L 778.561312 103.133399 
L 780.595489 101.563327 
L 782.629665 101.321793 
L 784.663841 100.842428 
L 786.698018 100.831121 
L 790.76637 100.354193 
L 792.800547 100.255771 
L 794.834723 99.997617 
L 796.8689 100.125281 
L 800.937252 99.934846 
L 802.971429 99.904946 
L 805.005605 100.285158 
L 807.039781 99.51679 
L 809.073958 98.505328 
L 811.108134 99.687 
L 813.14231 99.880846 
L 815.176487 99.726427 
L 817.210663 99.738708 
L 819.244839 98.487442 
L 821.279016 98.738528 
L 825.347368 98.626899 
L 827.381545 98.048064 
L 829.415721 98.383708 
L 831.449897 98.344695 
L 833.484074 98.724736 
L 835.51825 98.62495 
L 839.586603 98.647295 
L 841.620779 98.062173 
L 843.654956 98.402471 
L 845.689132 97.22962 
L 847.723308 97.973474 
L 849.757485 97.26722 
L 851.791661 97.087799 
L 855.860014 96.975877 
L 857.89419 96.496804 
L 859.928366 95.104399 
L 863.996719 94.947567 
L 866.030895 96.025456 
L 868.065072 97.390156 
L 870.099248 96.917126 
L 872.133424 95.287523 
L 876.201777 95.356095 
L 878.235954 95.109053 
L 880.27013 94.615262 
L 882.304306 94.504632 
L 888.406835 94.513234 
L 890.441012 93.277977 
L 892.475188 93.099409 
L 894.509364 93.093975 
L 896.543541 93.2973 
L 898.577717 93.329466 
L 900.611893 93.082424 
L 902.64607 93.114371 
L 904.680246 92.936875 
L 906.714422 93.184038 
L 908.748599 92.990704 
L 910.782775 93.409831 
L 912.816951 92.650187 
L 916.885304 92.447982 
L 918.919481 91.377525 
L 920.953657 91.291823 
L 922.987833 91.431451 
L 925.02201 91.31468 
L 927.056186 91.0701 
L 931.124539 91.045439 
L 933.158715 90.965123 
L 935.192891 90.165369 
L 937.227068 89.965649 
L 939.261244 89.982195 
L 941.29542 90.849302 
L 943.329597 90.829369 
L 945.363773 90.972628 
L 947.397949 90.748711 
L 949.432126 90.803564 
L 951.466302 89.174936 
L 967.739713 88.88932 
L 969.773889 89.027681 
L 971.808066 88.912542 
L 973.842242 88.916831 
L 975.876418 89.090233 
L 990.115653 89.215362 
L 992.149829 89.529294 
L 996.218182 89.622476 
L 996.218182 89.622476 
" style="fill:none;stroke:#8c564b;stroke-dasharray:5.55,2.4;stroke-dashoffset:0;stroke-width:1.5;"/>
   </g>
   <g id="patch_3">
    <path d="M 144 504 
L 144 69.12 
" style="fill:none;stroke:#000000;stroke-linecap:square;stroke-linejoin:miter;stroke-width:0.8;"/>
   </g>
   <g id="patch_4">
    <path d="M 1036.8 504 
L 1036.8 69.12 
" style="fill:none;stroke:#000000;stroke-linecap:square;stroke-linejoin:miter;stroke-width:0.8;"/>
   </g>
   <g id="patch_5">
    <path d="M 144 504 
L 1036.8 504 
" style="fill:none;stroke:#000000;stroke-linecap:square;stroke-linejoin:miter;stroke-width:0.8;"/>
   </g>
   <g id="patch_6">
    <path d="M 144 69.12 
L 1036.8 69.12 
" style="fill:none;stroke:#000000;stroke-linecap:square;stroke-linejoin:miter;stroke-width:0.8;"/>
   </g>
   <g id="legend_1">
    <g id="patch_7">
     <path d="M 151 166.579375 
L 275.432813 166.579375 
Q 277.432813 166.579375 277.432813 164.579375 
L 277.432813 76.12 
Q 277.432813 74.12 275.432813 74.12 
L 151 74.12 
Q 149 74.12 149 76.12 
L 149 164.579375 
Q 149 166.579375 151 166.579375 
z
" style="fill:#ffffff;opacity:0.8;stroke:#cccccc;stroke-linejoin:miter;"/>
    </g>
    <g id="line2d_23">
     <path d="M 153 82.218438 
L 173 82.218438 
" style="fill:none;stroke:#1f77b4;stroke-linecap:square;stroke-width:1.5;"/>
    </g>
    <g id="line2d_24"/>
    <g id="text_19">
     <!-- taylorfo -->
     <defs>
      <path d="M 32.171875 -5.078125 
Q 28.375 -14.84375 24.75 -17.8125 
Q 21.140625 -20.796875 15.09375 -20.796875 
L 7.90625 -20.796875 
L 7.90625 -13.28125 
L 13.1875 -13.28125 
Q 16.890625 -13.28125 18.9375 -11.515625 
Q 21 -9.765625 23.484375 -3.21875 
L 25.09375 0.875 
L 2.984375 54.6875 
L 12.5 54.6875 
L 29.59375 11.921875 
L 46.6875 54.6875 
L 56.203125 54.6875 
z
" id="DejaVuSans-121"/>
      <path d="M 9.421875 75.984375 
L 18.40625 75.984375 
L 18.40625 0 
L 9.421875 0 
z
" id="DejaVuSans-108"/>
     </defs>
     <g transform="translate(181 85.718438)scale(0.1 -0.1)">
      <use xlink:href="#DejaVuSans-116"/>
      <use x="39.208984" xlink:href="#DejaVuSans-97"/>
      <use x="100.488281" xlink:href="#DejaVuSans-121"/>
      <use x="159.667969" xlink:href="#DejaVuSans-108"/>
      <use x="187.451172" xlink:href="#DejaVuSans-111"/>
      <use x="248.632812" xlink:href="#DejaVuSans-114"/>
      <use x="289.746094" xlink:href="#DejaVuSans-102"/>
      <use x="324.951172" xlink:href="#DejaVuSans-111"/>
     </g>
    </g>
    <g id="line2d_25">
     <path d="M 153 96.896563 
L 173 96.896563 
" style="fill:none;stroke:#ff7f0e;stroke-linecap:square;stroke-width:1.5;"/>
    </g>
    <g id="line2d_26"/>
    <g id="text_20">
     <!-- taylorfo_abs -->
     <defs>
      <path d="M 50.984375 -16.609375 
L 50.984375 -23.578125 
L -0.984375 -23.578125 
L -0.984375 -16.609375 
z
" id="DejaVuSans-95"/>
     </defs>
     <g transform="translate(181 100.396563)scale(0.1 -0.1)">
      <use xlink:href="#DejaVuSans-116"/>
      <use x="39.208984" xlink:href="#DejaVuSans-97"/>
      <use x="100.488281" xlink:href="#DejaVuSans-121"/>
      <use x="159.667969" xlink:href="#DejaVuSans-108"/>
      <use x="187.451172" xlink:href="#DejaVuSans-111"/>
      <use x="248.632812" xlink:href="#DejaVuSans-114"/>
      <use x="289.746094" xlink:href="#DejaVuSans-102"/>
      <use x="324.951172" xlink:href="#DejaVuSans-111"/>
      <use x="386.132812" xlink:href="#DejaVuSans-95"/>
      <use x="436.132812" xlink:href="#DejaVuSans-97"/>
      <use x="497.412109" xlink:href="#DejaVuSans-98"/>
      <use x="560.888672" xlink:href="#DejaVuSans-115"/>
     </g>
    </g>
    <g id="line2d_27">
     <path d="M 153 111.852813 
L 173 111.852813 
" style="fill:none;stroke:#2ca02c;stroke-linecap:square;stroke-width:1.5;"/>
    </g>
    <g id="line2d_28"/>
    <g id="text_21">
     <!-- taylorfo_sq -->
     <g transform="translate(181 115.352813)scale(0.1 -0.1)">
      <use xlink:href="#DejaVuSans-116"/>
      <use x="39.208984" xlink:href="#DejaVuSans-97"/>
      <use x="100.488281" xlink:href="#DejaVuSans-121"/>
      <use x="159.667969" xlink:href="#DejaVuSans-108"/>
      <use x="187.451172" xlink:href="#DejaVuSans-111"/>
      <use x="248.632812" xlink:href="#DejaVuSans-114"/>
      <use x="289.746094" xlink:href="#DejaVuSans-102"/>
      <use x="324.951172" xlink:href="#DejaVuSans-111"/>
      <use x="386.132812" xlink:href="#DejaVuSans-95"/>
      <use x="436.132812" xlink:href="#DejaVuSans-115"/>
      <use x="488.232422" xlink:href="#DejaVuSans-113"/>
     </g>
    </g>
    <g id="line2d_29">
     <path d="M 153 126.809063 
L 173 126.809063 
" style="fill:none;stroke:#d62728;stroke-dasharray:5.55,2.4;stroke-dashoffset:0;stroke-width:1.5;"/>
    </g>
    <g id="line2d_30"/>
    <g id="text_22">
     <!-- taylorfo_abs_norm -->
     <g transform="translate(181 130.309063)scale(0.1 -0.1)">
      <use xlink:href="#DejaVuSans-116"/>
      <use x="39.208984" xlink:href="#DejaVuSans-97"/>
      <use x="100.488281" xlink:href="#DejaVuSans-121"/>
      <use x="159.667969" xlink:href="#DejaVuSans-108"/>
      <use x="187.451172" xlink:href="#DejaVuSans-111"/>
      <use x="248.632812" xlink:href="#DejaVuSans-114"/>
      <use x="289.746094" xlink:href="#DejaVuSans-102"/>
      <use x="324.951172" xlink:href="#DejaVuSans-111"/>
      <use x="386.132812" xlink:href="#DejaVuSans-95"/>
      <use x="436.132812" xlink:href="#DejaVuSans-97"/>
      <use x="497.412109" xlink:href="#DejaVuSans-98"/>
      <use x="560.888672" xlink:href="#DejaVuSans-115"/>
      <use x="612.988281" xlink:href="#DejaVuSans-95"/>
      <use x="662.988281" xlink:href="#DejaVuSans-110"/>
      <use x="726.367188" xlink:href="#DejaVuSans-111"/>
      <use x="787.548828" xlink:href="#DejaVuSans-114"/>
      <use x="826.912109" xlink:href="#DejaVuSans-109"/>
     </g>
    </g>
    <g id="line2d_31">
     <path d="M 153 141.765313 
L 173 141.765313 
" style="fill:none;stroke:#9467bd;stroke-dasharray:5.55,2.4;stroke-dashoffset:0;stroke-width:1.5;"/>
    </g>
    <g id="line2d_32"/>
    <g id="text_23">
     <!-- taylorfo_sq_norm -->
     <g transform="translate(181 145.265313)scale(0.1 -0.1)">
      <use xlink:href="#DejaVuSans-116"/>
      <use x="39.208984" xlink:href="#DejaVuSans-97"/>
      <use x="100.488281" xlink:href="#DejaVuSans-121"/>
      <use x="159.667969" xlink:href="#DejaVuSans-108"/>
      <use x="187.451172" xlink:href="#DejaVuSans-111"/>
      <use x="248.632812" xlink:href="#DejaVuSans-114"/>
      <use x="289.746094" xlink:href="#DejaVuSans-102"/>
      <use x="324.951172" xlink:href="#DejaVuSans-111"/>
      <use x="386.132812" xlink:href="#DejaVuSans-95"/>
      <use x="436.132812" xlink:href="#DejaVuSans-115"/>
      <use x="488.232422" xlink:href="#DejaVuSans-113"/>
      <use x="551.708984" xlink:href="#DejaVuSans-95"/>
      <use x="601.708984" xlink:href="#DejaVuSans-110"/>
      <use x="665.087891" xlink:href="#DejaVuSans-111"/>
      <use x="726.269531" xlink:href="#DejaVuSans-114"/>
      <use x="765.632812" xlink:href="#DejaVuSans-109"/>
     </g>
    </g>
    <g id="line2d_33">
     <path d="M 153 156.721563 
L 173 156.721563 
" style="fill:none;stroke:#8c564b;stroke-dasharray:5.55,2.4;stroke-dashoffset:0;stroke-width:1.5;"/>
    </g>
    <g id="line2d_34"/>
    <g id="text_24">
     <!-- Molchanov_group -->
     <defs>
      <path d="M 9.8125 72.90625 
L 24.515625 72.90625 
L 43.109375 23.296875 
L 61.8125 72.90625 
L 76.515625 72.90625 
L 76.515625 0 
L 66.890625 0 
L 66.890625 64.015625 
L 48.09375 14.015625 
L 38.1875 14.015625 
L 19.390625 64.015625 
L 19.390625 0 
L 9.8125 0 
z
" id="DejaVuSans-77"/>
      <path d="M 48.78125 52.59375 
L 48.78125 44.1875 
Q 44.96875 46.296875 41.140625 47.34375 
Q 37.3125 48.390625 33.40625 48.390625 
Q 24.65625 48.390625 19.8125 42.84375 
Q 14.984375 37.3125 14.984375 27.296875 
Q 14.984375 17.28125 19.8125 11.734375 
Q 24.65625 6.203125 33.40625 6.203125 
Q 37.3125 6.203125 41.140625 7.25 
Q 44.96875 8.296875 48.78125 10.40625 
L 48.78125 2.09375 
Q 45.015625 0.34375 40.984375 -0.53125 
Q 36.96875 -1.421875 32.421875 -1.421875 
Q 20.0625 -1.421875 12.78125 6.34375 
Q 5.515625 14.109375 5.515625 27.296875 
Q 5.515625 40.671875 12.859375 48.328125 
Q 20.21875 56 33.015625 56 
Q 37.15625 56 41.109375 55.140625 
Q 45.0625 54.296875 48.78125 52.59375 
z
" id="DejaVuSans-99"/>
      <path d="M 54.890625 33.015625 
L 54.890625 0 
L 45.90625 0 
L 45.90625 32.71875 
Q 45.90625 40.484375 42.875 44.328125 
Q 39.84375 48.1875 33.796875 48.1875 
Q 26.515625 48.1875 22.3125 43.546875 
Q 18.109375 38.921875 18.109375 30.90625 
L 18.109375 0 
L 9.078125 0 
L 9.078125 75.984375 
L 18.109375 75.984375 
L 18.109375 46.1875 
Q 21.34375 51.125 25.703125 53.5625 
Q 30.078125 56 35.796875 56 
Q 45.21875 56 50.046875 50.171875 
Q 54.890625 44.34375 54.890625 33.015625 
z
" id="DejaVuSans-104"/>
      <path d="M 45.40625 27.984375 
Q 45.40625 37.75 41.375 43.109375 
Q 37.359375 48.484375 30.078125 48.484375 
Q 22.859375 48.484375 18.828125 43.109375 
Q 14.796875 37.75 14.796875 27.984375 
Q 14.796875 18.265625 18.828125 12.890625 
Q 22.859375 7.515625 30.078125 7.515625 
Q 37.359375 7.515625 41.375 12.890625 
Q 45.40625 18.265625 45.40625 27.984375 
z
M 54.390625 6.78125 
Q 54.390625 -7.171875 48.1875 -13.984375 
Q 42 -20.796875 29.203125 -20.796875 
Q 24.46875 -20.796875 20.265625 -20.09375 
Q 16.0625 -19.390625 12.109375 -17.921875 
L 12.109375 -9.1875 
Q 16.0625 -11.328125 19.921875 -12.34375 
Q 23.78125 -13.375 27.78125 -13.375 
Q 36.625 -13.375 41.015625 -8.765625 
Q 45.40625 -4.15625 45.40625 5.171875 
L 45.40625 9.625 
Q 42.625 4.78125 38.28125 2.390625 
Q 33.9375 0 27.875 0 
Q 17.828125 0 11.671875 7.65625 
Q 5.515625 15.328125 5.515625 27.984375 
Q 5.515625 40.671875 11.671875 48.328125 
Q 17.828125 56 27.875 56 
Q 33.9375 56 38.28125 53.609375 
Q 42.625 51.21875 45.40625 46.390625 
L 45.40625 54.6875 
L 54.390625 54.6875 
z
" id="DejaVuSans-103"/>
     </defs>
     <g transform="translate(181 160.221563)scale(0.1 -0.1)">
      <use xlink:href="#DejaVuSans-77"/>
      <use x="86.279297" xlink:href="#DejaVuSans-111"/>
      <use x="147.460938" xlink:href="#DejaVuSans-108"/>
      <use x="175.244141" xlink:href="#DejaVuSans-99"/>
      <use x="230.224609" xlink:href="#DejaVuSans-104"/>
      <use x="293.603516" xlink:href="#DejaVuSans-97"/>
      <use x="354.882812" xlink:href="#DejaVuSans-110"/>
      <use x="418.261719" xlink:href="#DejaVuSans-111"/>
      <use x="479.443359" xlink:href="#DejaVuSans-118"/>
      <use x="538.623047" xlink:href="#DejaVuSans-95"/>
      <use x="588.623047" xlink:href="#DejaVuSans-103"/>
      <use x="652.099609" xlink:href="#DejaVuSans-114"/>
      <use x="690.962891" xlink:href="#DejaVuSans-111"/>
      <use x="752.144531" xlink:href="#DejaVuSans-117"/>
      <use x="815.523438" xlink:href="#DejaVuSans-112"/>
     </g>
    </g>
   </g>
  </g>
 </g>
 <defs>
  <clipPath id="pa34c425c4d">
   <rect height="434.88" width="892.8" x="144" y="69.12"/>
  </clipPath>
 </defs>
</svg>
