<?xml version="1.0" encoding="utf-8" standalone="no"?>
<!DOCTYPE svg PUBLIC "-//W3C//DTD SVG 1.1//EN"
  "http://www.w3.org/Graphics/SVG/1.1/DTD/svg11.dtd">
<!-- Created with matplotlib (https://matplotlib.org/) -->
<svg height="576pt" version="1.1" viewBox="0 0 1152 576" width="1152pt" xmlns="http://www.w3.org/2000/svg" xmlns:xlink="http://www.w3.org/1999/xlink">
 <defs>
  <style type="text/css">
*{stroke-linecap:butt;stroke-linejoin:round;}
  </style>
 </defs>
 <g id="figure_1">
  <g id="patch_1">
   <path d="M 0 576 
L 1152 576 
L 1152 0 
L 0 0 
z
" style="fill:#ffffff;"/>
  </g>
  <g id="axes_1">
   <g id="patch_2">
    <path d="M 144 504 
L 1036.8 504 
L 1036.8 69.12 
L 144 69.12 
z
" style="fill:#ffffff;"/>
   </g>
   <g id="matplotlib.axis_1">
    <g id="xtick_1">
     <g id="line2d_1">
      <defs>
       <path d="M 0 0 
L 0 3.5 
" id="meb8ea0aaf7" style="stroke:#000000;stroke-width:0.8;"/>
      </defs>
      <g>
       <use style="stroke:#000000;stroke-width:0.8;" x="182.547642" xlink:href="#meb8ea0aaf7" y="504"/>
      </g>
     </g>
     <g id="text_1">
      <!-- 0 -->
      <defs>
       <path d="M 31.78125 66.40625 
Q 24.171875 66.40625 20.328125 58.90625 
Q 16.5 51.421875 16.5 36.375 
Q 16.5 21.390625 20.328125 13.890625 
Q 24.171875 6.390625 31.78125 6.390625 
Q 39.453125 6.390625 43.28125 13.890625 
Q 47.125 21.390625 47.125 36.375 
Q 47.125 51.421875 43.28125 58.90625 
Q 39.453125 66.40625 31.78125 66.40625 
z
M 31.78125 74.21875 
Q 44.046875 74.21875 50.515625 64.515625 
Q 56.984375 54.828125 56.984375 36.375 
Q 56.984375 17.96875 50.515625 8.265625 
Q 44.046875 -1.421875 31.78125 -1.421875 
Q 19.53125 -1.421875 13.0625 8.265625 
Q 6.59375 17.96875 6.59375 36.375 
Q 6.59375 54.828125 13.0625 64.515625 
Q 19.53125 74.21875 31.78125 74.21875 
z
" id="DejaVuSans-48"/>
      </defs>
      <g transform="translate(179.366392 518.598438)scale(0.1 -0.1)">
       <use xlink:href="#DejaVuSans-48"/>
      </g>
     </g>
    </g>
    <g id="xtick_2">
     <g id="line2d_2">
      <g>
       <use style="stroke:#000000;stroke-width:0.8;" x="284.256459" xlink:href="#meb8ea0aaf7" y="504"/>
      </g>
     </g>
     <g id="text_2">
      <!-- 50 -->
      <defs>
       <path d="M 10.796875 72.90625 
L 49.515625 72.90625 
L 49.515625 64.59375 
L 19.828125 64.59375 
L 19.828125 46.734375 
Q 21.96875 47.46875 24.109375 47.828125 
Q 26.265625 48.1875 28.421875 48.1875 
Q 40.625 48.1875 47.75 41.5 
Q 54.890625 34.8125 54.890625 23.390625 
Q 54.890625 11.625 47.5625 5.09375 
Q 40.234375 -1.421875 26.90625 -1.421875 
Q 22.3125 -1.421875 17.546875 -0.640625 
Q 12.796875 0.140625 7.71875 1.703125 
L 7.71875 11.625 
Q 12.109375 9.234375 16.796875 8.0625 
Q 21.484375 6.890625 26.703125 6.890625 
Q 35.15625 6.890625 40.078125 11.328125 
Q 45.015625 15.765625 45.015625 23.390625 
Q 45.015625 31 40.078125 35.4375 
Q 35.15625 39.890625 26.703125 39.890625 
Q 22.75 39.890625 18.8125 39.015625 
Q 14.890625 38.140625 10.796875 36.28125 
z
" id="DejaVuSans-53"/>
      </defs>
      <g transform="translate(277.893959 518.598438)scale(0.1 -0.1)">
       <use xlink:href="#DejaVuSans-53"/>
       <use x="63.623047" xlink:href="#DejaVuSans-48"/>
      </g>
     </g>
    </g>
    <g id="xtick_3">
     <g id="line2d_3">
      <g>
       <use style="stroke:#000000;stroke-width:0.8;" x="385.965277" xlink:href="#meb8ea0aaf7" y="504"/>
      </g>
     </g>
     <g id="text_3">
      <!-- 100 -->
      <defs>
       <path d="M 12.40625 8.296875 
L 28.515625 8.296875 
L 28.515625 63.921875 
L 10.984375 60.40625 
L 10.984375 69.390625 
L 28.421875 72.90625 
L 38.28125 72.90625 
L 38.28125 8.296875 
L 54.390625 8.296875 
L 54.390625 0 
L 12.40625 0 
z
" id="DejaVuSans-49"/>
      </defs>
      <g transform="translate(376.421527 518.598438)scale(0.1 -0.1)">
       <use xlink:href="#DejaVuSans-49"/>
       <use x="63.623047" xlink:href="#DejaVuSans-48"/>
       <use x="127.246094" xlink:href="#DejaVuSans-48"/>
      </g>
     </g>
    </g>
    <g id="xtick_4">
     <g id="line2d_4">
      <g>
       <use style="stroke:#000000;stroke-width:0.8;" x="487.674094" xlink:href="#meb8ea0aaf7" y="504"/>
      </g>
     </g>
     <g id="text_4">
      <!-- 150 -->
      <g transform="translate(478.130344 518.598438)scale(0.1 -0.1)">
       <use xlink:href="#DejaVuSans-49"/>
       <use x="63.623047" xlink:href="#DejaVuSans-53"/>
       <use x="127.246094" xlink:href="#DejaVuSans-48"/>
      </g>
     </g>
    </g>
    <g id="xtick_5">
     <g id="line2d_5">
      <g>
       <use style="stroke:#000000;stroke-width:0.8;" x="589.382912" xlink:href="#meb8ea0aaf7" y="504"/>
      </g>
     </g>
     <g id="text_5">
      <!-- 200 -->
      <defs>
       <path d="M 19.1875 8.296875 
L 53.609375 8.296875 
L 53.609375 0 
L 7.328125 0 
L 7.328125 8.296875 
Q 12.9375 14.109375 22.625 23.890625 
Q 32.328125 33.6875 34.8125 36.53125 
Q 39.546875 41.84375 41.421875 45.53125 
Q 43.3125 49.21875 43.3125 52.78125 
Q 43.3125 58.59375 39.234375 62.25 
Q 35.15625 65.921875 28.609375 65.921875 
Q 23.96875 65.921875 18.8125 64.3125 
Q 13.671875 62.703125 7.8125 59.421875 
L 7.8125 69.390625 
Q 13.765625 71.78125 18.9375 73 
Q 24.125 74.21875 28.421875 74.21875 
Q 39.75 74.21875 46.484375 68.546875 
Q 53.21875 62.890625 53.21875 53.421875 
Q 53.21875 48.921875 51.53125 44.890625 
Q 49.859375 40.875 45.40625 35.40625 
Q 44.1875 33.984375 37.640625 27.21875 
Q 31.109375 20.453125 19.1875 8.296875 
z
" id="DejaVuSans-50"/>
      </defs>
      <g transform="translate(579.839162 518.598438)scale(0.1 -0.1)">
       <use xlink:href="#DejaVuSans-50"/>
       <use x="63.623047" xlink:href="#DejaVuSans-48"/>
       <use x="127.246094" xlink:href="#DejaVuSans-48"/>
      </g>
     </g>
    </g>
    <g id="xtick_6">
     <g id="line2d_6">
      <g>
       <use style="stroke:#000000;stroke-width:0.8;" x="691.091729" xlink:href="#meb8ea0aaf7" y="504"/>
      </g>
     </g>
     <g id="text_6">
      <!-- 250 -->
      <g transform="translate(681.547979 518.598438)scale(0.1 -0.1)">
       <use xlink:href="#DejaVuSans-50"/>
       <use x="63.623047" xlink:href="#DejaVuSans-53"/>
       <use x="127.246094" xlink:href="#DejaVuSans-48"/>
      </g>
     </g>
    </g>
    <g id="xtick_7">
     <g id="line2d_7">
      <g>
       <use style="stroke:#000000;stroke-width:0.8;" x="792.800547" xlink:href="#meb8ea0aaf7" y="504"/>
      </g>
     </g>
     <g id="text_7">
      <!-- 300 -->
      <defs>
       <path d="M 40.578125 39.3125 
Q 47.65625 37.796875 51.625 33 
Q 55.609375 28.21875 55.609375 21.1875 
Q 55.609375 10.40625 48.1875 4.484375 
Q 40.765625 -1.421875 27.09375 -1.421875 
Q 22.515625 -1.421875 17.65625 -0.515625 
Q 12.796875 0.390625 7.625 2.203125 
L 7.625 11.71875 
Q 11.71875 9.328125 16.59375 8.109375 
Q 21.484375 6.890625 26.8125 6.890625 
Q 36.078125 6.890625 40.9375 10.546875 
Q 45.796875 14.203125 45.796875 21.1875 
Q 45.796875 27.640625 41.28125 31.265625 
Q 36.765625 34.90625 28.71875 34.90625 
L 20.21875 34.90625 
L 20.21875 43.015625 
L 29.109375 43.015625 
Q 36.375 43.015625 40.234375 45.921875 
Q 44.09375 48.828125 44.09375 54.296875 
Q 44.09375 59.90625 40.109375 62.90625 
Q 36.140625 65.921875 28.71875 65.921875 
Q 24.65625 65.921875 20.015625 65.03125 
Q 15.375 64.15625 9.8125 62.3125 
L 9.8125 71.09375 
Q 15.4375 72.65625 20.34375 73.4375 
Q 25.25 74.21875 29.59375 74.21875 
Q 40.828125 74.21875 47.359375 69.109375 
Q 53.90625 64.015625 53.90625 55.328125 
Q 53.90625 49.265625 50.4375 45.09375 
Q 46.96875 40.921875 40.578125 39.3125 
z
" id="DejaVuSans-51"/>
      </defs>
      <g transform="translate(783.256797 518.598438)scale(0.1 -0.1)">
       <use xlink:href="#DejaVuSans-51"/>
       <use x="63.623047" xlink:href="#DejaVuSans-48"/>
       <use x="127.246094" xlink:href="#DejaVuSans-48"/>
      </g>
     </g>
    </g>
    <g id="xtick_8">
     <g id="line2d_8">
      <g>
       <use style="stroke:#000000;stroke-width:0.8;" x="894.509364" xlink:href="#meb8ea0aaf7" y="504"/>
      </g>
     </g>
     <g id="text_8">
      <!-- 350 -->
      <g transform="translate(884.965614 518.598438)scale(0.1 -0.1)">
       <use xlink:href="#DejaVuSans-51"/>
       <use x="63.623047" xlink:href="#DejaVuSans-53"/>
       <use x="127.246094" xlink:href="#DejaVuSans-48"/>
      </g>
     </g>
    </g>
    <g id="xtick_9">
     <g id="line2d_9">
      <g>
       <use style="stroke:#000000;stroke-width:0.8;" x="996.218182" xlink:href="#meb8ea0aaf7" y="504"/>
      </g>
     </g>
     <g id="text_9">
      <!-- 400 -->
      <defs>
       <path d="M 37.796875 64.3125 
L 12.890625 25.390625 
L 37.796875 25.390625 
z
M 35.203125 72.90625 
L 47.609375 72.90625 
L 47.609375 25.390625 
L 58.015625 25.390625 
L 58.015625 17.1875 
L 47.609375 17.1875 
L 47.609375 0 
L 37.796875 0 
L 37.796875 17.1875 
L 4.890625 17.1875 
L 4.890625 26.703125 
z
" id="DejaVuSans-52"/>
      </defs>
      <g transform="translate(986.674432 518.598438)scale(0.1 -0.1)">
       <use xlink:href="#DejaVuSans-52"/>
       <use x="63.623047" xlink:href="#DejaVuSans-48"/>
       <use x="127.246094" xlink:href="#DejaVuSans-48"/>
      </g>
     </g>
    </g>
    <g id="text_10">
     <!-- Number of Neurons pruned -->
     <defs>
      <path d="M 9.8125 72.90625 
L 23.09375 72.90625 
L 55.421875 11.921875 
L 55.421875 72.90625 
L 64.984375 72.90625 
L 64.984375 0 
L 51.703125 0 
L 19.390625 60.984375 
L 19.390625 0 
L 9.8125 0 
z
" id="DejaVuSans-78"/>
      <path d="M 8.5 21.578125 
L 8.5 54.6875 
L 17.484375 54.6875 
L 17.484375 21.921875 
Q 17.484375 14.15625 20.5 10.265625 
Q 23.53125 6.390625 29.59375 6.390625 
Q 36.859375 6.390625 41.078125 11.03125 
Q 45.3125 15.671875 45.3125 23.6875 
L 45.3125 54.6875 
L 54.296875 54.6875 
L 54.296875 0 
L 45.3125 0 
L 45.3125 8.40625 
Q 42.046875 3.421875 37.71875 1 
Q 33.40625 -1.421875 27.6875 -1.421875 
Q 18.265625 -1.421875 13.375 4.4375 
Q 8.5 10.296875 8.5 21.578125 
z
M 31.109375 56 
z
" id="DejaVuSans-117"/>
      <path d="M 52 44.1875 
Q 55.375 50.25 60.0625 53.125 
Q 64.75 56 71.09375 56 
Q 79.640625 56 84.28125 50.015625 
Q 88.921875 44.046875 88.921875 33.015625 
L 88.921875 0 
L 79.890625 0 
L 79.890625 32.71875 
Q 79.890625 40.578125 77.09375 44.375 
Q 74.3125 48.1875 68.609375 48.1875 
Q 61.625 48.1875 57.5625 43.546875 
Q 53.515625 38.921875 53.515625 30.90625 
L 53.515625 0 
L 44.484375 0 
L 44.484375 32.71875 
Q 44.484375 40.625 41.703125 44.40625 
Q 38.921875 48.1875 33.109375 48.1875 
Q 26.21875 48.1875 22.15625 43.53125 
Q 18.109375 38.875 18.109375 30.90625 
L 18.109375 0 
L 9.078125 0 
L 9.078125 54.6875 
L 18.109375 54.6875 
L 18.109375 46.1875 
Q 21.1875 51.21875 25.484375 53.609375 
Q 29.78125 56 35.6875 56 
Q 41.65625 56 45.828125 52.96875 
Q 50 49.953125 52 44.1875 
z
" id="DejaVuSans-109"/>
      <path d="M 48.6875 27.296875 
Q 48.6875 37.203125 44.609375 42.84375 
Q 40.53125 48.484375 33.40625 48.484375 
Q 26.265625 48.484375 22.1875 42.84375 
Q 18.109375 37.203125 18.109375 27.296875 
Q 18.109375 17.390625 22.1875 11.75 
Q 26.265625 6.109375 33.40625 6.109375 
Q 40.53125 6.109375 44.609375 11.75 
Q 48.6875 17.390625 48.6875 27.296875 
z
M 18.109375 46.390625 
Q 20.953125 51.265625 25.265625 53.625 
Q 29.59375 56 35.59375 56 
Q 45.5625 56 51.78125 48.09375 
Q 58.015625 40.1875 58.015625 27.296875 
Q 58.015625 14.40625 51.78125 6.484375 
Q 45.5625 -1.421875 35.59375 -1.421875 
Q 29.59375 -1.421875 25.265625 0.953125 
Q 20.953125 3.328125 18.109375 8.203125 
L 18.109375 0 
L 9.078125 0 
L 9.078125 75.984375 
L 18.109375 75.984375 
z
" id="DejaVuSans-98"/>
      <path d="M 56.203125 29.59375 
L 56.203125 25.203125 
L 14.890625 25.203125 
Q 15.484375 15.921875 20.484375 11.0625 
Q 25.484375 6.203125 34.421875 6.203125 
Q 39.59375 6.203125 44.453125 7.46875 
Q 49.3125 8.734375 54.109375 11.28125 
L 54.109375 2.78125 
Q 49.265625 0.734375 44.1875 -0.34375 
Q 39.109375 -1.421875 33.890625 -1.421875 
Q 20.796875 -1.421875 13.15625 6.1875 
Q 5.515625 13.8125 5.515625 26.8125 
Q 5.515625 40.234375 12.765625 48.109375 
Q 20.015625 56 32.328125 56 
Q 43.359375 56 49.78125 48.890625 
Q 56.203125 41.796875 56.203125 29.59375 
z
M 47.21875 32.234375 
Q 47.125 39.59375 43.09375 43.984375 
Q 39.0625 48.390625 32.421875 48.390625 
Q 24.90625 48.390625 20.390625 44.140625 
Q 15.875 39.890625 15.1875 32.171875 
z
" id="DejaVuSans-101"/>
      <path d="M 41.109375 46.296875 
Q 39.59375 47.171875 37.8125 47.578125 
Q 36.03125 48 33.890625 48 
Q 26.265625 48 22.1875 43.046875 
Q 18.109375 38.09375 18.109375 28.8125 
L 18.109375 0 
L 9.078125 0 
L 9.078125 54.6875 
L 18.109375 54.6875 
L 18.109375 46.1875 
Q 20.953125 51.171875 25.484375 53.578125 
Q 30.03125 56 36.53125 56 
Q 37.453125 56 38.578125 55.875 
Q 39.703125 55.765625 41.0625 55.515625 
z
" id="DejaVuSans-114"/>
      <path id="DejaVuSans-32"/>
      <path d="M 30.609375 48.390625 
Q 23.390625 48.390625 19.1875 42.75 
Q 14.984375 37.109375 14.984375 27.296875 
Q 14.984375 17.484375 19.15625 11.84375 
Q 23.34375 6.203125 30.609375 6.203125 
Q 37.796875 6.203125 41.984375 11.859375 
Q 46.1875 17.53125 46.1875 27.296875 
Q 46.1875 37.015625 41.984375 42.703125 
Q 37.796875 48.390625 30.609375 48.390625 
z
M 30.609375 56 
Q 42.328125 56 49.015625 48.375 
Q 55.71875 40.765625 55.71875 27.296875 
Q 55.71875 13.875 49.015625 6.21875 
Q 42.328125 -1.421875 30.609375 -1.421875 
Q 18.84375 -1.421875 12.171875 6.21875 
Q 5.515625 13.875 5.515625 27.296875 
Q 5.515625 40.765625 12.171875 48.375 
Q 18.84375 56 30.609375 56 
z
" id="DejaVuSans-111"/>
      <path d="M 37.109375 75.984375 
L 37.109375 68.5 
L 28.515625 68.5 
Q 23.6875 68.5 21.796875 66.546875 
Q 19.921875 64.59375 19.921875 59.515625 
L 19.921875 54.6875 
L 34.71875 54.6875 
L 34.71875 47.703125 
L 19.921875 47.703125 
L 19.921875 0 
L 10.890625 0 
L 10.890625 47.703125 
L 2.296875 47.703125 
L 2.296875 54.6875 
L 10.890625 54.6875 
L 10.890625 58.5 
Q 10.890625 67.625 15.140625 71.796875 
Q 19.390625 75.984375 28.609375 75.984375 
z
" id="DejaVuSans-102"/>
      <path d="M 54.890625 33.015625 
L 54.890625 0 
L 45.90625 0 
L 45.90625 32.71875 
Q 45.90625 40.484375 42.875 44.328125 
Q 39.84375 48.1875 33.796875 48.1875 
Q 26.515625 48.1875 22.3125 43.546875 
Q 18.109375 38.921875 18.109375 30.90625 
L 18.109375 0 
L 9.078125 0 
L 9.078125 54.6875 
L 18.109375 54.6875 
L 18.109375 46.1875 
Q 21.34375 51.125 25.703125 53.5625 
Q 30.078125 56 35.796875 56 
Q 45.21875 56 50.046875 50.171875 
Q 54.890625 44.34375 54.890625 33.015625 
z
" id="DejaVuSans-110"/>
      <path d="M 44.28125 53.078125 
L 44.28125 44.578125 
Q 40.484375 46.53125 36.375 47.5 
Q 32.28125 48.484375 27.875 48.484375 
Q 21.1875 48.484375 17.84375 46.4375 
Q 14.5 44.390625 14.5 40.28125 
Q 14.5 37.15625 16.890625 35.375 
Q 19.28125 33.59375 26.515625 31.984375 
L 29.59375 31.296875 
Q 39.15625 29.25 43.1875 25.515625 
Q 47.21875 21.78125 47.21875 15.09375 
Q 47.21875 7.46875 41.1875 3.015625 
Q 35.15625 -1.421875 24.609375 -1.421875 
Q 20.21875 -1.421875 15.453125 -0.5625 
Q 10.6875 0.296875 5.421875 2 
L 5.421875 11.28125 
Q 10.40625 8.6875 15.234375 7.390625 
Q 20.0625 6.109375 24.8125 6.109375 
Q 31.15625 6.109375 34.5625 8.28125 
Q 37.984375 10.453125 37.984375 14.40625 
Q 37.984375 18.0625 35.515625 20.015625 
Q 33.0625 21.96875 24.703125 23.78125 
L 21.578125 24.515625 
Q 13.234375 26.265625 9.515625 29.90625 
Q 5.8125 33.546875 5.8125 39.890625 
Q 5.8125 47.609375 11.28125 51.796875 
Q 16.75 56 26.8125 56 
Q 31.78125 56 36.171875 55.265625 
Q 40.578125 54.546875 44.28125 53.078125 
z
" id="DejaVuSans-115"/>
      <path d="M 18.109375 8.203125 
L 18.109375 -20.796875 
L 9.078125 -20.796875 
L 9.078125 54.6875 
L 18.109375 54.6875 
L 18.109375 46.390625 
Q 20.953125 51.265625 25.265625 53.625 
Q 29.59375 56 35.59375 56 
Q 45.5625 56 51.78125 48.09375 
Q 58.015625 40.1875 58.015625 27.296875 
Q 58.015625 14.40625 51.78125 6.484375 
Q 45.5625 -1.421875 35.59375 -1.421875 
Q 29.59375 -1.421875 25.265625 0.953125 
Q 20.953125 3.328125 18.109375 8.203125 
z
M 48.6875 27.296875 
Q 48.6875 37.203125 44.609375 42.84375 
Q 40.53125 48.484375 33.40625 48.484375 
Q 26.265625 48.484375 22.1875 42.84375 
Q 18.109375 37.203125 18.109375 27.296875 
Q 18.109375 17.390625 22.1875 11.75 
Q 26.265625 6.109375 33.40625 6.109375 
Q 40.53125 6.109375 44.609375 11.75 
Q 48.6875 17.390625 48.6875 27.296875 
z
" id="DejaVuSans-112"/>
      <path d="M 45.40625 46.390625 
L 45.40625 75.984375 
L 54.390625 75.984375 
L 54.390625 0 
L 45.40625 0 
L 45.40625 8.203125 
Q 42.578125 3.328125 38.25 0.953125 
Q 33.9375 -1.421875 27.875 -1.421875 
Q 17.96875 -1.421875 11.734375 6.484375 
Q 5.515625 14.40625 5.515625 27.296875 
Q 5.515625 40.1875 11.734375 48.09375 
Q 17.96875 56 27.875 56 
Q 33.9375 56 38.25 53.625 
Q 42.578125 51.265625 45.40625 46.390625 
z
M 14.796875 27.296875 
Q 14.796875 17.390625 18.875 11.75 
Q 22.953125 6.109375 30.078125 6.109375 
Q 37.203125 6.109375 41.296875 11.75 
Q 45.40625 17.390625 45.40625 27.296875 
Q 45.40625 37.203125 41.296875 42.84375 
Q 37.203125 48.484375 30.078125 48.484375 
Q 22.953125 48.484375 18.875 42.84375 
Q 14.796875 37.203125 14.796875 27.296875 
z
" id="DejaVuSans-100"/>
     </defs>
     <g transform="translate(522.147656 532.276562)scale(0.1 -0.1)">
      <use xlink:href="#DejaVuSans-78"/>
      <use x="74.804688" xlink:href="#DejaVuSans-117"/>
      <use x="138.183594" xlink:href="#DejaVuSans-109"/>
      <use x="235.595703" xlink:href="#DejaVuSans-98"/>
      <use x="299.072266" xlink:href="#DejaVuSans-101"/>
      <use x="360.595703" xlink:href="#DejaVuSans-114"/>
      <use x="401.708984" xlink:href="#DejaVuSans-32"/>
      <use x="433.496094" xlink:href="#DejaVuSans-111"/>
      <use x="494.677734" xlink:href="#DejaVuSans-102"/>
      <use x="529.882812" xlink:href="#DejaVuSans-32"/>
      <use x="561.669922" xlink:href="#DejaVuSans-78"/>
      <use x="636.474609" xlink:href="#DejaVuSans-101"/>
      <use x="697.998047" xlink:href="#DejaVuSans-117"/>
      <use x="761.376953" xlink:href="#DejaVuSans-114"/>
      <use x="800.240234" xlink:href="#DejaVuSans-111"/>
      <use x="861.421875" xlink:href="#DejaVuSans-110"/>
      <use x="924.800781" xlink:href="#DejaVuSans-115"/>
      <use x="976.900391" xlink:href="#DejaVuSans-32"/>
      <use x="1008.6875" xlink:href="#DejaVuSans-112"/>
      <use x="1072.164062" xlink:href="#DejaVuSans-114"/>
      <use x="1113.277344" xlink:href="#DejaVuSans-117"/>
      <use x="1176.65625" xlink:href="#DejaVuSans-110"/>
      <use x="1240.035156" xlink:href="#DejaVuSans-101"/>
      <use x="1301.558594" xlink:href="#DejaVuSans-100"/>
     </g>
    </g>
   </g>
   <g id="matplotlib.axis_2">
    <g id="ytick_1">
     <g id="line2d_10">
      <defs>
       <path d="M 0 0 
L -3.5 0 
" id="ma0a4dc4d4a" style="stroke:#000000;stroke-width:0.8;"/>
      </defs>
      <g>
       <use style="stroke:#000000;stroke-width:0.8;" x="144" xlink:href="#ma0a4dc4d4a" y="496.48328"/>
      </g>
     </g>
     <g id="text_11">
      <!-- 0.0 -->
      <defs>
       <path d="M 10.6875 12.40625 
L 21 12.40625 
L 21 0 
L 10.6875 0 
z
" id="DejaVuSans-46"/>
      </defs>
      <g transform="translate(121.096875 500.282498)scale(0.1 -0.1)">
       <use xlink:href="#DejaVuSans-48"/>
       <use x="63.623047" xlink:href="#DejaVuSans-46"/>
       <use x="95.410156" xlink:href="#DejaVuSans-48"/>
      </g>
     </g>
    </g>
    <g id="ytick_2">
     <g id="line2d_11">
      <g>
       <use style="stroke:#000000;stroke-width:0.8;" x="144" xlink:href="#ma0a4dc4d4a" y="446.046565"/>
      </g>
     </g>
     <g id="text_12">
      <!-- 0.1 -->
      <g transform="translate(121.096875 449.845784)scale(0.1 -0.1)">
       <use xlink:href="#DejaVuSans-48"/>
       <use x="63.623047" xlink:href="#DejaVuSans-46"/>
       <use x="95.410156" xlink:href="#DejaVuSans-49"/>
      </g>
     </g>
    </g>
    <g id="ytick_3">
     <g id="line2d_12">
      <g>
       <use style="stroke:#000000;stroke-width:0.8;" x="144" xlink:href="#ma0a4dc4d4a" y="395.609851"/>
      </g>
     </g>
     <g id="text_13">
      <!-- 0.2 -->
      <g transform="translate(121.096875 399.40907)scale(0.1 -0.1)">
       <use xlink:href="#DejaVuSans-48"/>
       <use x="63.623047" xlink:href="#DejaVuSans-46"/>
       <use x="95.410156" xlink:href="#DejaVuSans-50"/>
      </g>
     </g>
    </g>
    <g id="ytick_4">
     <g id="line2d_13">
      <g>
       <use style="stroke:#000000;stroke-width:0.8;" x="144" xlink:href="#ma0a4dc4d4a" y="345.173136"/>
      </g>
     </g>
     <g id="text_14">
      <!-- 0.3 -->
      <g transform="translate(121.096875 348.972355)scale(0.1 -0.1)">
       <use xlink:href="#DejaVuSans-48"/>
       <use x="63.623047" xlink:href="#DejaVuSans-46"/>
       <use x="95.410156" xlink:href="#DejaVuSans-51"/>
      </g>
     </g>
    </g>
    <g id="ytick_5">
     <g id="line2d_14">
      <g>
       <use style="stroke:#000000;stroke-width:0.8;" x="144" xlink:href="#ma0a4dc4d4a" y="294.736422"/>
      </g>
     </g>
     <g id="text_15">
      <!-- 0.4 -->
      <g transform="translate(121.096875 298.535641)scale(0.1 -0.1)">
       <use xlink:href="#DejaVuSans-48"/>
       <use x="63.623047" xlink:href="#DejaVuSans-46"/>
       <use x="95.410156" xlink:href="#DejaVuSans-52"/>
      </g>
     </g>
    </g>
    <g id="ytick_6">
     <g id="line2d_15">
      <g>
       <use style="stroke:#000000;stroke-width:0.8;" x="144" xlink:href="#ma0a4dc4d4a" y="244.299708"/>
      </g>
     </g>
     <g id="text_16">
      <!-- 0.5 -->
      <g transform="translate(121.096875 248.098926)scale(0.1 -0.1)">
       <use xlink:href="#DejaVuSans-48"/>
       <use x="63.623047" xlink:href="#DejaVuSans-46"/>
       <use x="95.410156" xlink:href="#DejaVuSans-53"/>
      </g>
     </g>
    </g>
    <g id="ytick_7">
     <g id="line2d_16">
      <g>
       <use style="stroke:#000000;stroke-width:0.8;" x="144" xlink:href="#ma0a4dc4d4a" y="193.862993"/>
      </g>
     </g>
     <g id="text_17">
      <!-- 0.6 -->
      <defs>
       <path d="M 33.015625 40.375 
Q 26.375 40.375 22.484375 35.828125 
Q 18.609375 31.296875 18.609375 23.390625 
Q 18.609375 15.53125 22.484375 10.953125 
Q 26.375 6.390625 33.015625 6.390625 
Q 39.65625 6.390625 43.53125 10.953125 
Q 47.40625 15.53125 47.40625 23.390625 
Q 47.40625 31.296875 43.53125 35.828125 
Q 39.65625 40.375 33.015625 40.375 
z
M 52.59375 71.296875 
L 52.59375 62.3125 
Q 48.875 64.0625 45.09375 64.984375 
Q 41.3125 65.921875 37.59375 65.921875 
Q 27.828125 65.921875 22.671875 59.328125 
Q 17.53125 52.734375 16.796875 39.40625 
Q 19.671875 43.65625 24.015625 45.921875 
Q 28.375 48.1875 33.59375 48.1875 
Q 44.578125 48.1875 50.953125 41.515625 
Q 57.328125 34.859375 57.328125 23.390625 
Q 57.328125 12.15625 50.6875 5.359375 
Q 44.046875 -1.421875 33.015625 -1.421875 
Q 20.359375 -1.421875 13.671875 8.265625 
Q 6.984375 17.96875 6.984375 36.375 
Q 6.984375 53.65625 15.1875 63.9375 
Q 23.390625 74.21875 37.203125 74.21875 
Q 40.921875 74.21875 44.703125 73.484375 
Q 48.484375 72.75 52.59375 71.296875 
z
" id="DejaVuSans-54"/>
      </defs>
      <g transform="translate(121.096875 197.662212)scale(0.1 -0.1)">
       <use xlink:href="#DejaVuSans-48"/>
       <use x="63.623047" xlink:href="#DejaVuSans-46"/>
       <use x="95.410156" xlink:href="#DejaVuSans-54"/>
      </g>
     </g>
    </g>
    <g id="ytick_8">
     <g id="line2d_17">
      <g>
       <use style="stroke:#000000;stroke-width:0.8;" x="144" xlink:href="#ma0a4dc4d4a" y="143.426279"/>
      </g>
     </g>
     <g id="text_18">
      <!-- 0.7 -->
      <defs>
       <path d="M 8.203125 72.90625 
L 55.078125 72.90625 
L 55.078125 68.703125 
L 28.609375 0 
L 18.3125 0 
L 43.21875 64.59375 
L 8.203125 64.59375 
z
" id="DejaVuSans-55"/>
      </defs>
      <g transform="translate(121.096875 147.225498)scale(0.1 -0.1)">
       <use xlink:href="#DejaVuSans-48"/>
       <use x="63.623047" xlink:href="#DejaVuSans-46"/>
       <use x="95.410156" xlink:href="#DejaVuSans-55"/>
      </g>
     </g>
    </g>
    <g id="ytick_9">
     <g id="line2d_18">
      <g>
       <use style="stroke:#000000;stroke-width:0.8;" x="144" xlink:href="#ma0a4dc4d4a" y="92.989564"/>
      </g>
     </g>
     <g id="text_19">
      <!-- 0.8 -->
      <defs>
       <path d="M 31.78125 34.625 
Q 24.75 34.625 20.71875 30.859375 
Q 16.703125 27.09375 16.703125 20.515625 
Q 16.703125 13.921875 20.71875 10.15625 
Q 24.75 6.390625 31.78125 6.390625 
Q 38.8125 6.390625 42.859375 10.171875 
Q 46.921875 13.96875 46.921875 20.515625 
Q 46.921875 27.09375 42.890625 30.859375 
Q 38.875 34.625 31.78125 34.625 
z
M 21.921875 38.8125 
Q 15.578125 40.375 12.03125 44.71875 
Q 8.5 49.078125 8.5 55.328125 
Q 8.5 64.0625 14.71875 69.140625 
Q 20.953125 74.21875 31.78125 74.21875 
Q 42.671875 74.21875 48.875 69.140625 
Q 55.078125 64.0625 55.078125 55.328125 
Q 55.078125 49.078125 51.53125 44.71875 
Q 48 40.375 41.703125 38.8125 
Q 48.828125 37.15625 52.796875 32.3125 
Q 56.78125 27.484375 56.78125 20.515625 
Q 56.78125 9.90625 50.3125 4.234375 
Q 43.84375 -1.421875 31.78125 -1.421875 
Q 19.734375 -1.421875 13.25 4.234375 
Q 6.78125 9.90625 6.78125 20.515625 
Q 6.78125 27.484375 10.78125 32.3125 
Q 14.796875 37.15625 21.921875 38.8125 
z
M 18.3125 54.390625 
Q 18.3125 48.734375 21.84375 45.5625 
Q 25.390625 42.390625 31.78125 42.390625 
Q 38.140625 42.390625 41.71875 45.5625 
Q 45.3125 48.734375 45.3125 54.390625 
Q 45.3125 60.0625 41.71875 63.234375 
Q 38.140625 66.40625 31.78125 66.40625 
Q 25.390625 66.40625 21.84375 63.234375 
Q 18.3125 60.0625 18.3125 54.390625 
z
" id="DejaVuSans-56"/>
      </defs>
      <g transform="translate(121.096875 96.788783)scale(0.1 -0.1)">
       <use xlink:href="#DejaVuSans-48"/>
       <use x="63.623047" xlink:href="#DejaVuSans-46"/>
       <use x="95.410156" xlink:href="#DejaVuSans-56"/>
      </g>
     </g>
    </g>
    <g id="text_20">
     <!-- Loss -->
     <defs>
      <path d="M 9.8125 72.90625 
L 19.671875 72.90625 
L 19.671875 8.296875 
L 55.171875 8.296875 
L 55.171875 0 
L 9.8125 0 
z
" id="DejaVuSans-76"/>
     </defs>
     <g transform="translate(115.017187 297.527188)rotate(-90)scale(0.1 -0.1)">
      <use xlink:href="#DejaVuSans-76"/>
      <use x="53.962891" xlink:href="#DejaVuSans-111"/>
      <use x="115.144531" xlink:href="#DejaVuSans-115"/>
      <use x="167.244141" xlink:href="#DejaVuSans-115"/>
     </g>
    </g>
   </g>
   <g id="line2d_19">
    <path clip-path="url(#pad3b8ed150)" d="M 184.581818 484.232012 
L 432.751333 484.179415 
L 436.819686 484.052532 
L 440.888038 484.091971 
L 444.956391 483.954177 
L 451.05892 483.90789 
L 453.093096 483.107769 
L 459.195625 482.937256 
L 465.298154 482.902018 
L 469.366507 482.778469 
L 471.400684 482.762341 
L 473.43486 481.554206 
L 479.537389 481.412831 
L 483.605742 481.231827 
L 485.639918 481.034989 
L 495.8108 480.84112 
L 497.844976 480.689226 
L 499.879152 480.123337 
L 501.913329 480.168774 
L 505.981681 479.996814 
L 508.015858 479.478099 
L 510.050034 479.125755 
L 512.084211 478.597974 
L 514.118387 478.606972 
L 516.152563 478.496642 
L 518.18674 478.848676 
L 520.220916 478.829522 
L 522.255092 478.637467 
L 524.289269 478.65306 
L 532.425974 478.187642 
L 536.494327 478.1152 
L 540.562679 477.605285 
L 546.665208 477.581848 
L 548.699385 476.862786 
L 552.767738 476.708341 
L 554.801914 476.972525 
L 556.83609 476.941163 
L 558.870267 477.15761 
L 560.904443 476.750286 
L 567.006972 476.412572 
L 569.041148 476.120468 
L 573.109501 475.891684 
L 577.177854 475.496077 
L 581.246206 475.058119 
L 583.280383 472.38102 
L 585.314559 471.659233 
L 587.348735 467.244025 
L 589.382912 466.552391 
L 591.417088 466.148549 
L 593.451265 466.120886 
L 595.485441 464.875549 
L 597.519617 463.043818 
L 599.553794 460.282713 
L 601.58797 461.953518 
L 603.622146 462.070954 
L 605.656323 463.068116 
L 609.724675 462.728153 
L 611.758852 460.950565 
L 615.827204 458.732079 
L 617.861381 458.793377 
L 619.895557 457.718905 
L 621.929733 457.173268 
L 623.96391 456.388787 
L 625.998086 456.702994 
L 628.032262 455.573012 
L 630.066439 455.371949 
L 632.100615 450.598414 
L 634.134792 447.020135 
L 636.168968 448.281458 
L 638.203144 447.833694 
L 640.237321 447.596248 
L 642.271497 446.522324 
L 646.33985 445.950078 
L 648.374026 445.150386 
L 650.408202 445.310286 
L 652.442379 443.55588 
L 654.476555 439.160792 
L 656.510731 433.556078 
L 658.544908 436.95247 
L 660.579084 437.074547 
L 662.61326 434.076499 
L 664.647437 430.677029 
L 666.681613 430.454295 
L 668.715789 430.591884 
L 670.749966 430.410824 
L 672.784142 423.647658 
L 674.818319 422.754798 
L 676.852495 425.992986 
L 678.886671 423.29942 
L 680.920848 419.508621 
L 682.955024 420.143356 
L 684.9892 419.433164 
L 687.023377 417.391243 
L 689.057553 417.482746 
L 691.091729 417.01044 
L 693.125906 418.567368 
L 695.160082 416.956192 
L 697.194258 416.962903 
L 699.228435 416.047977 
L 701.262611 414.287044 
L 703.296787 417.908245 
L 705.330964 417.649616 
L 707.36514 418.630477 
L 709.399316 418.992972 
L 711.433493 414.628337 
L 713.467669 414.502277 
L 715.501846 414.942146 
L 717.536022 413.595912 
L 719.570198 411.437393 
L 721.604375 412.670885 
L 723.638551 410.279989 
L 725.672727 409.204371 
L 727.706904 405.578548 
L 729.74108 405.33961 
L 731.775256 405.445055 
L 733.809433 404.724243 
L 735.843609 402.587392 
L 737.877785 398.900993 
L 739.911962 399.846883 
L 741.946138 394.20969 
L 743.980314 391.215768 
L 746.014491 387.947112 
L 748.048667 388.284572 
L 752.11702 383.847449 
L 754.151196 383.06201 
L 756.185373 387.369797 
L 758.219549 383.244393 
L 760.253725 382.101029 
L 762.287902 381.804371 
L 764.322078 379.747606 
L 766.356254 374.779562 
L 768.390431 373.726867 
L 770.424607 368.99507 
L 772.458783 368.835377 
L 774.49296 368.903033 
L 776.527136 372.33178 
L 778.561312 373.524387 
L 780.595489 370.0607 
L 782.629665 367.659703 
L 784.663841 366.85422 
L 786.698018 365.659471 
L 788.732194 362.782147 
L 790.76637 363.714525 
L 792.800547 363.104238 
L 794.834723 365.349255 
L 796.8689 366.123548 
L 798.903076 368.017057 
L 800.937252 364.31468 
L 802.971429 364.507562 
L 805.005605 362.705638 
L 807.039781 366.771352 
L 809.073958 367.069423 
L 811.108134 366.200598 
L 813.14231 357.187673 
L 815.176487 358.130723 
L 817.210663 354.750481 
L 819.244839 354.878653 
L 821.279016 356.392923 
L 823.313192 355.148601 
L 825.347368 355.024713 
L 827.381545 352.076636 
L 829.415721 352.082468 
L 831.449897 353.011494 
L 833.484074 355.482777 
L 835.51825 357.693687 
L 837.552427 357.125504 
L 839.586603 357.06353 
L 841.620779 354.699645 
L 843.654956 354.632982 
L 845.689132 353.501364 
L 847.723308 354.531595 
L 849.757485 354.420815 
L 851.791661 352.088616 
L 853.825837 352.840377 
L 855.860014 351.730676 
L 857.89419 350.078268 
L 859.928366 342.952299 
L 861.962543 338.67084 
L 863.996719 339.422646 
L 866.030895 329.992587 
L 868.065072 327.406104 
L 870.099248 326.561179 
L 872.133424 327.662088 
L 874.167601 323.49144 
L 876.201777 320.037274 
L 878.235954 317.712546 
L 880.27013 314.448512 
L 882.304306 316.581891 
L 884.338483 317.375665 
L 886.372659 313.055305 
L 888.406835 309.615224 
L 890.441012 304.468878 
L 892.475188 298.547608 
L 894.509364 300.917926 
L 896.543541 302.988128 
L 898.577717 304.796741 
L 900.611893 303.094881 
L 902.64607 307.26631 
L 904.680246 306.576178 
L 906.714422 301.247878 
L 908.748599 297.262611 
L 910.782775 298.023992 
L 912.816951 299.328124 
L 914.851128 299.584754 
L 916.885304 300.257901 
L 918.919481 297.337873 
L 920.953657 297.894618 
L 922.987833 297.089781 
L 925.02201 295.022675 
L 927.056186 294.220725 
L 929.090362 294.645449 
L 931.124539 291.371209 
L 933.158715 291.999037 
L 935.192891 295.136703 
L 937.227068 297.990909 
L 939.261244 301.796461 
L 941.29542 298.041444 
L 943.329597 299.051067 
L 945.363773 292.485345 
L 947.397949 285.097906 
L 949.432126 285.298453 
L 953.500478 272.103396 
L 955.534655 273.330673 
L 957.568831 270.774238 
L 959.603008 272.977497 
L 961.637184 274.15514 
L 963.67136 265.155052 
L 965.705537 264.811121 
L 967.739713 259.917647 
L 969.773889 260.602248 
L 971.808066 262.022887 
L 973.842242 264.553228 
L 975.876418 252.375175 
L 977.910595 253.192788 
L 979.944771 254.559871 
L 981.978947 246.649027 
L 984.013124 245.067717 
L 986.0473 235.805032 
L 988.081476 241.578439 
L 990.115653 240.683054 
L 992.149829 240.636487 
L 994.184005 243.447402 
L 996.218182 239.812109 
L 996.218182 239.812109 
" style="fill:none;stroke:#1f77b4;stroke-linecap:square;stroke-width:1.5;"/>
   </g>
   <g id="line2d_20">
    <path clip-path="url(#pad3b8ed150)" d="M 184.581818 484.232012 
L 451.05892 484.129318 
L 475.469036 483.866667 
L 481.571565 483.780743 
L 485.639918 483.829268 
L 489.708271 483.7303 
L 493.776623 483.673827 
L 510.050034 482.986356 
L 516.152563 482.827917 
L 522.255092 482.379782 
L 524.289269 482.131595 
L 528.357621 482.056681 
L 530.391798 482.12491 
L 534.46015 482.01898 
L 540.562679 481.479517 
L 546.665208 481.429323 
L 550.733561 481.251856 
L 552.767738 481.273688 
L 556.83609 480.999216 
L 562.938619 480.868493 
L 567.006972 480.250631 
L 569.041148 480.266504 
L 573.109501 479.872725 
L 577.177854 479.485081 
L 579.21203 479.521488 
L 587.348735 478.636214 
L 589.382912 478.158663 
L 591.417088 478.140325 
L 593.451265 477.613237 
L 595.485441 477.472102 
L 597.519617 477.518079 
L 601.58797 477.234764 
L 607.690499 476.849859 
L 609.724675 476.015726 
L 619.895557 474.960227 
L 621.929733 474.303481 
L 623.96391 473.84754 
L 625.998086 473.842909 
L 628.032262 473.638347 
L 630.066439 473.587369 
L 632.100615 472.932494 
L 634.134792 472.55223 
L 636.168968 471.762705 
L 640.237321 471.230961 
L 642.271497 471.410823 
L 644.305673 471.44064 
L 646.33985 470.749076 
L 650.408202 470.459291 
L 652.442379 469.666626 
L 658.544908 469.63732 
L 662.61326 469.226084 
L 664.647437 468.667241 
L 670.749966 468.139048 
L 672.784142 468.151802 
L 674.818319 467.461226 
L 676.852495 467.088194 
L 678.886671 465.970009 
L 680.920848 465.846527 
L 682.955024 465.12213 
L 684.9892 464.567929 
L 687.023377 463.760673 
L 689.057553 462.453415 
L 691.091729 461.898639 
L 693.125906 462.33699 
L 695.160082 462.487352 
L 697.194258 461.719992 
L 699.228435 461.241338 
L 703.296787 461.661933 
L 705.330964 461.185711 
L 707.36514 460.185858 
L 709.399316 459.351737 
L 711.433493 459.255916 
L 715.501846 458.170047 
L 717.536022 457.602968 
L 719.570198 457.63291 
L 721.604375 456.357752 
L 723.638551 455.46039 
L 725.672727 454.823941 
L 727.706904 454.706509 
L 729.74108 453.779675 
L 731.775256 454.414203 
L 733.809433 452.876488 
L 735.843609 451.595914 
L 737.877785 451.256211 
L 739.911962 450.448116 
L 741.946138 449.962172 
L 743.980314 450.073806 
L 746.014491 449.209262 
L 750.082843 449.080131 
L 752.11702 449.688527 
L 754.151196 448.300032 
L 756.185373 449.053259 
L 758.219549 450.374797 
L 760.253725 450.192963 
L 762.287902 450.219576 
L 764.322078 450.066167 
L 766.356254 449.403985 
L 768.390431 449.105478 
L 770.424607 448.424063 
L 772.458783 446.693125 
L 774.49296 446.41004 
L 776.527136 445.924815 
L 778.561312 445.261588 
L 780.595489 445.259559 
L 782.629665 444.818375 
L 786.698018 445.561384 
L 788.732194 443.442852 
L 790.76637 442.150775 
L 792.800547 440.123754 
L 794.834723 439.95623 
L 796.8689 440.670153 
L 798.903076 440.547851 
L 800.937252 441.256206 
L 802.971429 439.756411 
L 805.005605 439.430619 
L 807.039781 438.16045 
L 809.073958 436.506935 
L 811.108134 435.725047 
L 813.14231 435.942629 
L 815.176487 435.641871 
L 817.210663 435.655854 
L 819.244839 434.796484 
L 821.279016 435.610362 
L 823.313192 434.066936 
L 825.347368 433.382109 
L 827.381545 433.032203 
L 829.415721 431.745161 
L 831.449897 431.44195 
L 833.484074 430.476233 
L 835.51825 430.294399 
L 837.552427 428.322644 
L 839.586603 427.164775 
L 841.620779 426.166252 
L 843.654956 423.458842 
L 845.689132 423.954154 
L 847.723308 425.041497 
L 849.757485 422.984898 
L 851.791661 422.086236 
L 853.825837 422.298996 
L 855.860014 422.035783 
L 857.89419 421.242085 
L 859.928366 421.259085 
L 861.962543 419.302767 
L 863.996719 418.615258 
L 866.030895 418.178756 
L 868.065072 417.271218 
L 870.099248 414.667577 
L 872.133424 413.502026 
L 874.167601 413.777527 
L 876.201777 411.314016 
L 878.235954 411.107065 
L 880.27013 410.380038 
L 882.304306 411.541357 
L 884.338483 410.238976 
L 886.372659 407.545538 
L 888.406835 406.531931 
L 890.441012 401.648897 
L 892.475188 397.605038 
L 894.509364 395.977613 
L 896.543541 396.613242 
L 898.577717 398.514981 
L 900.611893 398.709697 
L 902.64607 396.492691 
L 904.680246 394.752441 
L 906.714422 396.039662 
L 908.748599 395.591511 
L 910.782775 392.279151 
L 912.816951 390.102504 
L 914.851128 389.298051 
L 916.885304 386.524082 
L 918.919481 385.53391 
L 920.953657 383.213894 
L 922.987833 380.647756 
L 925.02201 377.81388 
L 927.056186 379.539182 
L 929.090362 375.402993 
L 931.124539 372.409041 
L 933.158715 373.931052 
L 935.192891 372.993354 
L 937.227068 375.35224 
L 939.261244 370.204098 
L 941.29542 367.713816 
L 943.329597 368.057958 
L 945.363773 363.919071 
L 947.397949 362.15943 
L 949.432126 363.26357 
L 951.466302 361.323358 
L 953.500478 360.567118 
L 955.534655 360.732628 
L 957.568831 359.043604 
L 959.603008 357.072338 
L 961.637184 352.510876 
L 963.67136 345.690704 
L 965.705537 339.821577 
L 967.739713 337.557952 
L 969.773889 335.598515 
L 971.808066 335.814981 
L 975.876418 334.329812 
L 977.910595 330.542568 
L 979.944771 330.23865 
L 981.978947 331.175356 
L 986.0473 331.51341 
L 988.081476 327.427238 
L 990.115653 326.248182 
L 992.149829 326.426544 
L 994.184005 318.694602 
L 996.218182 319.287557 
L 996.218182 319.287557 
" style="fill:none;stroke:#ff7f0e;stroke-linecap:square;stroke-width:1.5;"/>
   </g>
   <g id="line2d_21">
    <path clip-path="url(#pad3b8ed150)" d="M 184.581818 484.232012 
L 453.093096 484.134144 
L 479.537389 483.879671 
L 485.639918 483.702643 
L 491.742447 483.675708 
L 497.844976 483.562743 
L 510.050034 483.288488 
L 512.084211 483.324176 
L 516.152563 483.191959 
L 518.18674 483.218219 
L 522.255092 483.072313 
L 528.357621 482.890092 
L 542.596856 481.962603 
L 554.801914 481.154862 
L 560.904443 480.959002 
L 562.938619 480.709625 
L 567.006972 480.447748 
L 569.041148 480.467056 
L 571.075325 480.356288 
L 575.143677 479.727494 
L 577.177854 479.585881 
L 579.21203 479.228917 
L 581.246206 479.147393 
L 585.314559 479.335566 
L 589.382912 479.126009 
L 597.519617 478.774239 
L 601.58797 478.794215 
L 603.622146 478.205689 
L 607.690499 478.057533 
L 609.724675 478.257013 
L 613.793028 478.002629 
L 615.827204 477.602437 
L 617.861381 477.713389 
L 623.96391 477.440847 
L 628.032262 477.405149 
L 630.066439 477.293155 
L 632.100615 476.810405 
L 638.203144 476.513428 
L 642.271497 476.160457 
L 644.305673 476.193781 
L 648.374026 475.897903 
L 650.408202 475.432827 
L 652.442379 475.450928 
L 656.510731 474.985442 
L 662.61326 474.577263 
L 664.647437 474.805048 
L 668.715789 473.773327 
L 670.749966 473.320924 
L 672.784142 473.162931 
L 674.818319 472.551595 
L 676.852495 471.539383 
L 678.886671 471.727732 
L 680.920848 471.40097 
L 682.955024 471.402799 
L 684.9892 471.526574 
L 687.023377 471.033306 
L 689.057553 470.990082 
L 691.091729 470.763765 
L 693.125906 470.163024 
L 695.160082 470.386851 
L 697.194258 470.109134 
L 699.228435 470.318353 
L 701.262611 469.939606 
L 703.296787 468.961888 
L 705.330964 468.213891 
L 707.36514 467.046518 
L 709.399316 467.056296 
L 711.433493 466.425621 
L 713.467669 466.517119 
L 719.570198 465.427027 
L 721.604375 465.241836 
L 723.638551 465.418007 
L 725.672727 464.343147 
L 727.706904 464.439957 
L 729.74108 463.807364 
L 731.775256 463.622926 
L 733.809433 464.079092 
L 735.843609 463.429976 
L 737.877785 463.342975 
L 741.946138 460.886611 
L 748.048667 460.181105 
L 750.082843 460.235184 
L 752.11702 459.201041 
L 754.151196 459.079824 
L 756.185373 458.576708 
L 758.219549 458.429991 
L 760.253725 458.434827 
L 764.322078 457.673559 
L 766.356254 457.510311 
L 770.424607 455.203918 
L 772.458783 453.856421 
L 774.49296 453.381458 
L 778.561312 453.052317 
L 780.595489 452.563236 
L 782.629665 453.104667 
L 784.663841 451.551809 
L 786.698018 451.247098 
L 788.732194 451.091501 
L 790.76637 450.238001 
L 792.800547 449.853958 
L 794.834723 448.310686 
L 796.8689 448.750344 
L 798.903076 447.284784 
L 800.937252 447.059216 
L 802.971429 444.906785 
L 805.005605 446.389925 
L 807.039781 446.586805 
L 811.108134 446.119346 
L 813.14231 445.383853 
L 815.176487 445.284864 
L 819.244839 445.854874 
L 821.279016 445.337853 
L 823.313192 445.190554 
L 825.347368 444.661162 
L 827.381545 443.571606 
L 829.415721 441.414778 
L 837.552427 436.648541 
L 839.586603 435.621669 
L 841.620779 435.039664 
L 843.654956 434.239638 
L 845.689132 431.358248 
L 847.723308 431.285684 
L 849.757485 429.65632 
L 851.791661 429.739571 
L 853.825837 430.343093 
L 855.860014 428.10829 
L 857.89419 427.844393 
L 859.928366 428.005566 
L 861.962543 429.666797 
L 863.996719 428.816942 
L 868.065072 426.50133 
L 870.099248 426.10488 
L 872.133424 425.01801 
L 876.201777 424.467075 
L 878.235954 425.686393 
L 880.27013 424.11671 
L 882.304306 424.935864 
L 884.338483 423.587511 
L 886.372659 422.028778 
L 888.406835 420.878177 
L 890.441012 420.9364 
L 892.475188 417.614022 
L 894.509364 416.517916 
L 896.543541 416.310304 
L 898.577717 415.614256 
L 900.611893 415.06175 
L 902.64607 415.039406 
L 904.680246 413.146986 
L 906.714422 410.165999 
L 908.748599 410.377264 
L 912.816951 403.339641 
L 914.851128 403.930147 
L 916.885304 401.891232 
L 918.919481 402.302917 
L 920.953657 402.877797 
L 922.987833 401.507535 
L 929.090362 394.805449 
L 931.124539 395.090848 
L 935.192891 391.763787 
L 937.227068 388.476981 
L 939.261244 386.467219 
L 941.29542 385.823563 
L 943.329597 387.736207 
L 947.397949 377.151714 
L 949.432126 374.495267 
L 951.466302 372.452392 
L 953.500478 371.549123 
L 955.534655 372.115563 
L 957.568831 369.803574 
L 959.603008 368.665764 
L 961.637184 371.282046 
L 963.67136 365.686738 
L 965.705537 363.814092 
L 967.739713 360.694358 
L 969.773889 352.341683 
L 971.808066 347.904305 
L 973.842242 346.722979 
L 975.876418 346.508181 
L 977.910595 343.491698 
L 979.944771 343.741744 
L 981.978947 334.857922 
L 984.013124 340.219787 
L 986.0473 339.449312 
L 988.081476 339.139066 
L 990.115653 337.148183 
L 992.149829 334.262592 
L 994.184005 330.772652 
L 996.218182 331.243628 
L 996.218182 331.243628 
" style="fill:none;stroke:#2ca02c;stroke-linecap:square;stroke-width:1.5;"/>
   </g>
   <g id="line2d_22">
    <path clip-path="url(#pad3b8ed150)" d="M 184.581818 484.232012 
L 451.05892 484.129318 
L 479.537389 483.838554 
L 483.605742 483.809951 
L 489.708271 483.818658 
L 520.220916 482.619282 
L 522.255092 482.435497 
L 524.289269 482.131595 
L 532.425974 481.945157 
L 536.494327 481.58816 
L 540.562679 481.672535 
L 542.596856 481.624464 
L 544.631032 481.447789 
L 548.699385 481.401796 
L 554.801914 481.174819 
L 556.83609 481.18303 
L 558.870267 480.832513 
L 562.938619 480.712724 
L 571.075325 479.943464 
L 573.109501 479.660492 
L 575.143677 479.679744 
L 579.21203 479.281483 
L 581.246206 479.290418 
L 583.280383 479.073775 
L 585.314559 478.609263 
L 587.348735 478.447031 
L 589.382912 478.484292 
L 591.417088 478.308259 
L 593.451265 477.804862 
L 599.553794 477.426922 
L 601.58797 477.479874 
L 605.656323 477.250631 
L 609.724675 476.558723 
L 611.758852 476.391481 
L 613.793028 475.496915 
L 615.827204 475.094992 
L 617.861381 474.952699 
L 619.895557 474.322304 
L 623.96391 473.927443 
L 625.998086 473.842298 
L 628.032262 473.405054 
L 630.066439 473.378214 
L 632.100615 473.093158 
L 634.134792 472.370894 
L 636.168968 472.350726 
L 642.271497 471.755497 
L 644.305673 471.904437 
L 646.33985 471.08313 
L 648.374026 470.55336 
L 650.408202 469.812843 
L 652.442379 469.602617 
L 654.476555 469.792419 
L 656.510731 469.814639 
L 662.61326 469.482783 
L 664.647437 468.793989 
L 666.681613 467.963334 
L 668.715789 468.001842 
L 670.749966 467.917079 
L 674.818319 467.461226 
L 676.852495 466.358194 
L 678.886671 466.221688 
L 680.920848 466.592444 
L 682.955024 466.216966 
L 684.9892 465.719501 
L 687.023377 464.51299 
L 689.057553 463.612787 
L 693.125906 463.96502 
L 695.160082 463.484108 
L 699.228435 462.100175 
L 701.262611 461.086768 
L 703.296787 460.519817 
L 705.330964 460.466741 
L 709.399316 459.431211 
L 711.433493 459.589025 
L 713.467669 458.979949 
L 715.501846 458.518691 
L 719.570198 456.760245 
L 723.638551 456.837825 
L 725.672727 455.483312 
L 727.706904 454.806528 
L 729.74108 454.718177 
L 731.775256 454.373941 
L 733.809433 453.868634 
L 735.843609 452.922841 
L 737.877785 452.865369 
L 739.911962 452.359584 
L 743.980314 453.674854 
L 746.014491 452.950566 
L 748.048667 451.923883 
L 750.082843 450.289152 
L 752.11702 449.840494 
L 754.151196 449.862613 
L 756.185373 449.086523 
L 758.219549 447.628385 
L 760.253725 448.969899 
L 762.287902 448.860975 
L 764.322078 449.605246 
L 766.356254 447.69034 
L 768.390431 447.515481 
L 770.424607 447.138217 
L 772.458783 446.507176 
L 774.49296 446.286028 
L 776.527136 445.92929 
L 778.561312 446.293687 
L 780.595489 445.882178 
L 782.629665 444.042038 
L 784.663841 443.270465 
L 786.698018 441.85476 
L 788.732194 442.014374 
L 790.76637 442.667702 
L 792.800547 442.923396 
L 794.834723 442.789892 
L 796.8689 440.782317 
L 798.903076 439.947771 
L 800.937252 439.783693 
L 802.971429 439.4833 
L 805.005605 440.112435 
L 807.039781 438.849084 
L 809.073958 437.359601 
L 811.108134 437.282396 
L 813.14231 435.694146 
L 815.176487 434.40523 
L 817.210663 433.388332 
L 819.244839 433.749959 
L 821.279016 433.463635 
L 823.313192 433.050248 
L 827.381545 432.545398 
L 829.415721 430.46278 
L 831.449897 431.156701 
L 833.484074 429.596413 
L 835.51825 428.907302 
L 837.552427 427.31705 
L 839.586603 427.15523 
L 841.620779 426.615027 
L 843.654956 424.718602 
L 845.689132 424.818026 
L 847.723308 423.99552 
L 851.791661 422.517867 
L 853.825837 421.059499 
L 855.860014 421.437905 
L 857.89419 420.690894 
L 859.928366 417.825918 
L 861.962543 418.118691 
L 863.996719 417.671584 
L 868.065072 416.23196 
L 870.099248 416.736073 
L 872.133424 415.472571 
L 876.201777 410.089738 
L 878.235954 409.428503 
L 880.27013 408.302868 
L 882.304306 403.378768 
L 884.338483 404.83543 
L 886.372659 406.03063 
L 890.441012 404.124193 
L 892.475188 400.135567 
L 894.509364 395.416667 
L 896.543541 396.995563 
L 898.577717 395.4997 
L 900.611893 393.060186 
L 902.64607 394.032997 
L 904.680246 396.093061 
L 906.714422 394.468289 
L 908.748599 390.454974 
L 910.782775 390.920771 
L 912.816951 389.412342 
L 914.851128 388.296748 
L 918.919481 382.988455 
L 920.953657 380.764392 
L 922.987833 376.819927 
L 925.02201 377.88425 
L 927.056186 377.435617 
L 929.090362 374.547494 
L 931.124539 370.857096 
L 933.158715 373.013999 
L 935.192891 370.447388 
L 937.227068 370.615648 
L 939.261244 366.092704 
L 941.29542 365.437654 
L 943.329597 364.151199 
L 945.363773 362.136462 
L 947.397949 361.023935 
L 949.432126 358.099202 
L 951.466302 357.037616 
L 953.500478 354.497279 
L 955.534655 352.547928 
L 957.568831 353.964088 
L 959.603008 354.018652 
L 961.637184 352.123173 
L 963.67136 350.557542 
L 965.705537 344.153196 
L 967.739713 342.814507 
L 969.773889 343.108294 
L 971.808066 336.956865 
L 973.842242 329.635068 
L 975.876418 327.427013 
L 977.910595 324.574927 
L 979.944771 324.253948 
L 981.978947 319.6755 
L 984.013124 318.537209 
L 986.0473 318.179329 
L 988.081476 313.307004 
L 990.115653 314.973465 
L 992.149829 315.791124 
L 994.184005 310.72473 
L 996.218182 307.175912 
L 996.218182 307.175912 
" style="fill:none;stroke:#d62728;stroke-dasharray:5.55,2.4;stroke-dashoffset:0;stroke-width:1.5;"/>
   </g>
   <g id="line2d_23">
    <path clip-path="url(#pad3b8ed150)" d="M 184.581818 484.232012 
L 455.127273 484.124543 
L 481.571565 483.860886 
L 497.844976 483.525261 
L 501.913329 483.431385 
L 505.981681 483.312863 
L 514.118387 483.096703 
L 520.220916 482.870648 
L 528.357621 482.702566 
L 532.425974 482.32864 
L 534.46015 482.136864 
L 546.665208 481.686996 
L 554.801914 481.126061 
L 556.83609 480.890896 
L 562.938619 480.512097 
L 564.972796 480.179753 
L 569.041148 480.219858 
L 575.143677 479.762254 
L 577.177854 479.385154 
L 583.280383 479.480887 
L 587.348735 479.407925 
L 591.417088 479.275486 
L 593.451265 479.316437 
L 595.485441 479.140516 
L 597.519617 479.079793 
L 599.553794 479.132192 
L 601.58797 478.983555 
L 603.622146 478.447056 
L 605.656323 478.543476 
L 607.690499 478.467512 
L 609.724675 478.611173 
L 611.758852 478.277465 
L 617.861381 478.102604 
L 619.895557 477.886461 
L 621.929733 477.968361 
L 625.998086 477.778566 
L 636.168968 477.043302 
L 638.203144 476.616569 
L 640.237321 476.629639 
L 644.305673 476.340895 
L 646.33985 476.328524 
L 648.374026 476.119217 
L 656.510731 474.103704 
L 658.544908 474.206856 
L 662.61326 473.697368 
L 666.681613 473.894241 
L 668.715789 473.991968 
L 670.749966 473.83413 
L 672.784142 473.96804 
L 674.818319 473.821297 
L 676.852495 473.377847 
L 678.886671 473.197073 
L 680.920848 473.283272 
L 682.955024 472.750324 
L 687.023377 472.075115 
L 689.057553 471.212198 
L 691.091729 470.751195 
L 693.125906 470.723011 
L 695.160082 469.630829 
L 697.194258 469.047864 
L 699.228435 468.745539 
L 701.262611 468.808922 
L 703.296787 467.707815 
L 705.330964 468.036029 
L 707.36514 467.203091 
L 711.433493 465.783164 
L 713.467669 464.580176 
L 715.501846 464.914266 
L 717.536022 464.626326 
L 719.570198 464.153212 
L 721.604375 464.240585 
L 723.638551 464.117813 
L 727.706904 464.372105 
L 731.775256 464.097803 
L 733.809433 463.67873 
L 735.843609 464.289876 
L 737.877785 463.176222 
L 739.911962 462.821746 
L 741.946138 462.273926 
L 743.980314 462.026311 
L 746.014491 461.398412 
L 748.048667 460.093427 
L 750.082843 460.017282 
L 752.11702 459.735577 
L 754.151196 459.748842 
L 756.185373 458.760548 
L 758.219549 458.716698 
L 760.253725 458.502712 
L 762.287902 458.064031 
L 764.322078 458.028606 
L 766.356254 457.220466 
L 768.390431 456.815049 
L 772.458783 456.543294 
L 774.49296 455.457414 
L 776.527136 454.636309 
L 778.561312 454.357959 
L 780.595489 454.739841 
L 782.629665 454.572922 
L 784.663841 453.348618 
L 786.698018 452.806559 
L 788.732194 454.088392 
L 790.76637 452.697311 
L 792.800547 451.534222 
L 794.834723 452.028606 
L 796.8689 450.703333 
L 798.903076 450.691116 
L 800.937252 450.338951 
L 802.971429 450.208043 
L 805.005605 450.432096 
L 807.039781 449.179605 
L 809.073958 448.552698 
L 811.108134 447.156931 
L 813.14231 446.440374 
L 815.176487 445.355947 
L 817.210663 443.209156 
L 819.244839 443.085527 
L 821.279016 442.72269 
L 825.347368 439.663668 
L 827.381545 438.996304 
L 829.415721 438.024364 
L 831.449897 436.880316 
L 833.484074 437.93524 
L 835.51825 435.860757 
L 837.552427 436.01756 
L 839.586603 436.487044 
L 841.620779 436.115617 
L 843.654956 435.399604 
L 845.689132 432.823094 
L 847.723308 432.665025 
L 849.757485 432.003174 
L 851.791661 431.828585 
L 853.825837 432.184579 
L 855.860014 431.094772 
L 857.89419 431.154739 
L 859.928366 432.317952 
L 861.962543 431.299032 
L 863.996719 429.913393 
L 866.030895 429.93125 
L 868.065072 429.744524 
L 870.099248 430.336968 
L 872.133424 430.015884 
L 874.167601 429.941652 
L 876.201777 427.112864 
L 878.235954 424.055187 
L 880.27013 423.058897 
L 882.304306 421.39572 
L 884.338483 421.211639 
L 886.372659 421.449697 
L 890.441012 418.955018 
L 892.475188 419.417501 
L 894.509364 417.672794 
L 896.543541 417.741893 
L 898.577717 414.611562 
L 900.611893 413.333683 
L 902.64607 412.609377 
L 906.714422 413.09352 
L 908.748599 409.675963 
L 910.782775 408.725924 
L 912.816951 408.907337 
L 914.851128 408.490797 
L 916.885304 405.411279 
L 918.919481 404.222949 
L 920.953657 400.461814 
L 922.987833 400.02529 
L 925.02201 398.407094 
L 927.056186 396.603908 
L 929.090362 398.480815 
L 931.124539 396.694389 
L 933.158715 394.758716 
L 935.192891 391.87069 
L 937.227068 392.514601 
L 939.261244 391.498425 
L 941.29542 390.810329 
L 943.329597 390.426978 
L 945.363773 387.745053 
L 947.397949 384.434144 
L 949.432126 383.406896 
L 951.466302 377.026593 
L 953.500478 374.884338 
L 955.534655 378.717924 
L 957.568831 376.07097 
L 959.603008 374.242501 
L 961.637184 368.820391 
L 963.67136 371.164065 
L 965.705537 370.364302 
L 967.739713 368.565685 
L 969.773889 368.694939 
L 971.808066 363.521222 
L 973.842242 361.612621 
L 975.876418 353.531322 
L 977.910595 352.625911 
L 979.944771 354.578102 
L 981.978947 351.033133 
L 984.013124 352.561592 
L 986.0473 350.066724 
L 988.081476 342.706101 
L 990.115653 339.748751 
L 992.149829 339.685649 
L 994.184005 339.050606 
L 996.218182 336.827415 
L 996.218182 336.827415 
" style="fill:none;stroke:#9467bd;stroke-dasharray:5.55,2.4;stroke-dashoffset:0;stroke-width:1.5;"/>
   </g>
   <g id="line2d_24">
    <path clip-path="url(#pad3b8ed150)" d="M 184.581818 484.232012 
L 440.888038 484.213497 
L 446.990567 484.023715 
L 457.161449 483.89329 
L 463.263978 483.805579 
L 481.571565 483.342442 
L 483.605742 483.264913 
L 485.639918 483.388842 
L 491.742447 483.285698 
L 497.844976 482.973895 
L 499.879152 482.772991 
L 505.981681 482.721348 
L 512.084211 482.493414 
L 516.152563 482.279141 
L 518.18674 482.100261 
L 520.220916 482.141017 
L 522.255092 481.588575 
L 528.357621 480.861911 
L 530.391798 480.715653 
L 532.425974 480.686361 
L 534.46015 480.530495 
L 536.494327 480.499202 
L 538.528503 479.78367 
L 540.562679 479.616967 
L 542.596856 479.12981 
L 544.631032 478.938933 
L 546.665208 478.107273 
L 548.699385 477.726344 
L 552.767738 477.62557 
L 554.801914 477.479235 
L 556.83609 477.512911 
L 558.870267 476.939058 
L 560.904443 477.036033 
L 562.938619 477.002641 
L 564.972796 476.839044 
L 567.006972 476.87305 
L 573.109501 476.561382 
L 575.143677 475.952871 
L 577.177854 475.994137 
L 579.21203 475.542901 
L 581.246206 475.736987 
L 583.280383 475.239876 
L 585.314559 475.029262 
L 587.348735 474.331819 
L 589.382912 474.008913 
L 591.417088 474.052475 
L 593.451265 473.664447 
L 595.485441 472.78164 
L 597.519617 471.532181 
L 599.553794 470.564453 
L 601.58797 469.150512 
L 603.622146 468.562912 
L 605.656323 468.300469 
L 607.690499 467.199427 
L 609.724675 466.809557 
L 611.758852 466.24194 
L 613.793028 466.491036 
L 615.827204 465.453127 
L 617.861381 464.795165 
L 619.895557 464.943607 
L 621.929733 464.975906 
L 623.96391 464.865283 
L 625.998086 464.061066 
L 628.032262 463.013451 
L 630.066439 462.337632 
L 632.100615 461.528515 
L 634.134792 461.657093 
L 636.168968 458.667207 
L 638.203144 458.548434 
L 642.271497 458.653446 
L 644.305673 459.035448 
L 646.33985 458.217403 
L 648.374026 457.614726 
L 650.408202 455.510497 
L 652.442379 454.853542 
L 654.476555 454.515867 
L 658.544908 454.125707 
L 660.579084 452.67219 
L 662.61326 452.136354 
L 664.647437 450.447252 
L 668.715789 450.970879 
L 672.784142 449.731438 
L 674.818319 447.546998 
L 676.852495 447.01463 
L 678.886671 442.59253 
L 680.920848 441.870888 
L 682.955024 440.215907 
L 684.9892 437.214132 
L 687.023377 435.978111 
L 689.057553 436.310596 
L 691.091729 435.751472 
L 693.125906 433.093658 
L 695.160082 432.756874 
L 701.262611 427.609469 
L 703.296787 427.683716 
L 705.330964 425.737078 
L 707.36514 425.465147 
L 709.399316 425.483688 
L 711.433493 425.716831 
L 713.467669 424.043974 
L 715.501846 422.139597 
L 717.536022 424.48137 
L 719.570198 421.847959 
L 721.604375 421.275154 
L 723.638551 421.094725 
L 725.672727 421.237049 
L 727.706904 418.199439 
L 729.74108 415.443884 
L 731.775256 409.20731 
L 733.809433 405.383622 
L 739.911962 403.141514 
L 741.946138 399.061016 
L 743.980314 401.366383 
L 746.014491 400.317814 
L 748.048667 399.108432 
L 750.082843 396.156719 
L 752.11702 388.901968 
L 754.151196 387.921656 
L 756.185373 382.879989 
L 760.253725 381.298048 
L 762.287902 376.651517 
L 764.322078 373.63964 
L 766.356254 374.128894 
L 768.390431 372.875418 
L 770.424607 372.810272 
L 772.458783 370.12577 
L 774.49296 360.976992 
L 776.527136 357.997711 
L 778.561312 355.913364 
L 780.595489 355.582119 
L 782.629665 357.528538 
L 784.663841 349.625901 
L 786.698018 343.736949 
L 788.732194 346.168278 
L 790.76637 340.82869 
L 792.800547 341.386021 
L 794.834723 344.9015 
L 796.8689 344.714224 
L 798.903076 347.193955 
L 800.937252 345.630563 
L 802.971429 344.328371 
L 805.005605 333.807204 
L 807.039781 332.83089 
L 809.073958 334.068748 
L 811.108134 334.512172 
L 813.14231 326.06486 
L 815.176487 316.450863 
L 817.210663 316.416592 
L 819.244839 313.799535 
L 821.279016 309.044545 
L 823.313192 308.334045 
L 825.347368 302.598562 
L 827.381545 298.44744 
L 829.415721 299.624421 
L 831.449897 297.972961 
L 833.484074 296.732247 
L 835.51825 296.315488 
L 837.552427 297.165013 
L 839.586603 297.156881 
L 841.620779 293.327188 
L 843.654956 288.705 
L 845.689132 286.157869 
L 847.723308 287.142495 
L 849.757485 277.041724 
L 851.791661 274.785388 
L 853.825837 274.171164 
L 855.860014 270.949337 
L 857.89419 268.093929 
L 859.928366 269.314577 
L 861.962543 265.677931 
L 863.996719 265.516796 
L 866.030895 260.903626 
L 868.065072 263.818979 
L 870.099248 253.622849 
L 872.133424 252.602884 
L 874.167601 252.864174 
L 876.201777 246.699802 
L 878.235954 232.435583 
L 880.27013 222.938078 
L 882.304306 228.99696 
L 884.338483 228.164165 
L 886.372659 227.731594 
L 888.406835 237.385154 
L 890.441012 237.867358 
L 892.475188 232.321706 
L 894.509364 227.583626 
L 896.543541 227.368137 
L 898.577717 223.59648 
L 900.611893 227.357555 
L 902.64607 219.38152 
L 904.680246 216.029417 
L 906.714422 214.921218 
L 908.748599 218.782582 
L 910.782775 217.712383 
L 912.816951 214.429935 
L 914.851128 212.681012 
L 916.885304 212.030096 
L 918.919481 218.357136 
L 920.953657 214.934566 
L 922.987833 215.468538 
L 925.02201 213.924372 
L 927.056186 213.613434 
L 929.090362 207.935145 
L 931.124539 212.982239 
L 933.158715 207.692901 
L 937.227068 194.787798 
L 939.261244 179.113867 
L 941.29542 175.879068 
L 943.329597 169.044872 
L 945.363773 161.120334 
L 947.397949 162.342049 
L 949.432126 152.438158 
L 951.466302 140.495149 
L 953.500478 140.965479 
L 955.534655 136.433959 
L 957.568831 136.133633 
L 959.603008 136.834333 
L 961.637184 134.384349 
L 963.67136 134.827322 
L 965.705537 124.573352 
L 967.739713 122.540006 
L 969.773889 117.246308 
L 971.808066 114.581587 
L 975.876418 117.877293 
L 977.910595 118.675395 
L 979.944771 109.807522 
L 981.978947 105.771345 
L 984.013124 110.607519 
L 986.0473 103.187071 
L 990.115653 95.028406 
L 992.149829 96.977696 
L 994.184005 90.84928 
L 996.218182 88.887273 
L 996.218182 88.887273 
" style="fill:none;stroke:#8c564b;stroke-dasharray:5.55,2.4;stroke-dashoffset:0;stroke-width:1.5;"/>
   </g>
   <g id="patch_3">
    <path d="M 144 504 
L 144 69.12 
" style="fill:none;stroke:#000000;stroke-linecap:square;stroke-linejoin:miter;stroke-width:0.8;"/>
   </g>
   <g id="patch_4">
    <path d="M 1036.8 504 
L 1036.8 69.12 
" style="fill:none;stroke:#000000;stroke-linecap:square;stroke-linejoin:miter;stroke-width:0.8;"/>
   </g>
   <g id="patch_5">
    <path d="M 144 504 
L 1036.8 504 
" style="fill:none;stroke:#000000;stroke-linecap:square;stroke-linejoin:miter;stroke-width:0.8;"/>
   </g>
   <g id="patch_6">
    <path d="M 144 69.12 
L 1036.8 69.12 
" style="fill:none;stroke:#000000;stroke-linecap:square;stroke-linejoin:miter;stroke-width:0.8;"/>
   </g>
   <g id="legend_1">
    <g id="patch_7">
     <path d="M 151 166.579375 
L 275.432813 166.579375 
Q 277.432813 166.579375 277.432813 164.579375 
L 277.432813 76.12 
Q 277.432813 74.12 275.432813 74.12 
L 151 74.12 
Q 149 74.12 149 76.12 
L 149 164.579375 
Q 149 166.579375 151 166.579375 
z
" style="fill:#ffffff;opacity:0.8;stroke:#cccccc;stroke-linejoin:miter;"/>
    </g>
    <g id="line2d_25">
     <path d="M 153 82.218438 
L 173 82.218438 
" style="fill:none;stroke:#1f77b4;stroke-linecap:square;stroke-width:1.5;"/>
    </g>
    <g id="line2d_26"/>
    <g id="text_21">
     <!-- taylorfo -->
     <defs>
      <path d="M 18.3125 70.21875 
L 18.3125 54.6875 
L 36.8125 54.6875 
L 36.8125 47.703125 
L 18.3125 47.703125 
L 18.3125 18.015625 
Q 18.3125 11.328125 20.140625 9.421875 
Q 21.96875 7.515625 27.59375 7.515625 
L 36.8125 7.515625 
L 36.8125 0 
L 27.59375 0 
Q 17.1875 0 13.234375 3.875 
Q 9.28125 7.765625 9.28125 18.015625 
L 9.28125 47.703125 
L 2.6875 47.703125 
L 2.6875 54.6875 
L 9.28125 54.6875 
L 9.28125 70.21875 
z
" id="DejaVuSans-116"/>
      <path d="M 34.28125 27.484375 
Q 23.390625 27.484375 19.1875 25 
Q 14.984375 22.515625 14.984375 16.5 
Q 14.984375 11.71875 18.140625 8.90625 
Q 21.296875 6.109375 26.703125 6.109375 
Q 34.1875 6.109375 38.703125 11.40625 
Q 43.21875 16.703125 43.21875 25.484375 
L 43.21875 27.484375 
z
M 52.203125 31.203125 
L 52.203125 0 
L 43.21875 0 
L 43.21875 8.296875 
Q 40.140625 3.328125 35.546875 0.953125 
Q 30.953125 -1.421875 24.3125 -1.421875 
Q 15.921875 -1.421875 10.953125 3.296875 
Q 6 8.015625 6 15.921875 
Q 6 25.140625 12.171875 29.828125 
Q 18.359375 34.515625 30.609375 34.515625 
L 43.21875 34.515625 
L 43.21875 35.40625 
Q 43.21875 41.609375 39.140625 45 
Q 35.0625 48.390625 27.6875 48.390625 
Q 23 48.390625 18.546875 47.265625 
Q 14.109375 46.140625 10.015625 43.890625 
L 10.015625 52.203125 
Q 14.9375 54.109375 19.578125 55.046875 
Q 24.21875 56 28.609375 56 
Q 40.484375 56 46.34375 49.84375 
Q 52.203125 43.703125 52.203125 31.203125 
z
" id="DejaVuSans-97"/>
      <path d="M 32.171875 -5.078125 
Q 28.375 -14.84375 24.75 -17.8125 
Q 21.140625 -20.796875 15.09375 -20.796875 
L 7.90625 -20.796875 
L 7.90625 -13.28125 
L 13.1875 -13.28125 
Q 16.890625 -13.28125 18.9375 -11.515625 
Q 21 -9.765625 23.484375 -3.21875 
L 25.09375 0.875 
L 2.984375 54.6875 
L 12.5 54.6875 
L 29.59375 11.921875 
L 46.6875 54.6875 
L 56.203125 54.6875 
z
" id="DejaVuSans-121"/>
      <path d="M 9.421875 75.984375 
L 18.40625 75.984375 
L 18.40625 0 
L 9.421875 0 
z
" id="DejaVuSans-108"/>
     </defs>
     <g transform="translate(181 85.718438)scale(0.1 -0.1)">
      <use xlink:href="#DejaVuSans-116"/>
      <use x="39.208984" xlink:href="#DejaVuSans-97"/>
      <use x="100.488281" xlink:href="#DejaVuSans-121"/>
      <use x="159.667969" xlink:href="#DejaVuSans-108"/>
      <use x="187.451172" xlink:href="#DejaVuSans-111"/>
      <use x="248.632812" xlink:href="#DejaVuSans-114"/>
      <use x="289.746094" xlink:href="#DejaVuSans-102"/>
      <use x="324.951172" xlink:href="#DejaVuSans-111"/>
     </g>
    </g>
    <g id="line2d_27">
     <path d="M 153 96.896563 
L 173 96.896563 
" style="fill:none;stroke:#ff7f0e;stroke-linecap:square;stroke-width:1.5;"/>
    </g>
    <g id="line2d_28"/>
    <g id="text_22">
     <!-- taylorfo_abs -->
     <defs>
      <path d="M 50.984375 -16.609375 
L 50.984375 -23.578125 
L -0.984375 -23.578125 
L -0.984375 -16.609375 
z
" id="DejaVuSans-95"/>
     </defs>
     <g transform="translate(181 100.396563)scale(0.1 -0.1)">
      <use xlink:href="#DejaVuSans-116"/>
      <use x="39.208984" xlink:href="#DejaVuSans-97"/>
      <use x="100.488281" xlink:href="#DejaVuSans-121"/>
      <use x="159.667969" xlink:href="#DejaVuSans-108"/>
      <use x="187.451172" xlink:href="#DejaVuSans-111"/>
      <use x="248.632812" xlink:href="#DejaVuSans-114"/>
      <use x="289.746094" xlink:href="#DejaVuSans-102"/>
      <use x="324.951172" xlink:href="#DejaVuSans-111"/>
      <use x="386.132812" xlink:href="#DejaVuSans-95"/>
      <use x="436.132812" xlink:href="#DejaVuSans-97"/>
      <use x="497.412109" xlink:href="#DejaVuSans-98"/>
      <use x="560.888672" xlink:href="#DejaVuSans-115"/>
     </g>
    </g>
    <g id="line2d_29">
     <path d="M 153 111.852813 
L 173 111.852813 
" style="fill:none;stroke:#2ca02c;stroke-linecap:square;stroke-width:1.5;"/>
    </g>
    <g id="line2d_30"/>
    <g id="text_23">
     <!-- taylorfo_sq -->
     <defs>
      <path d="M 14.796875 27.296875 
Q 14.796875 17.390625 18.875 11.75 
Q 22.953125 6.109375 30.078125 6.109375 
Q 37.203125 6.109375 41.296875 11.75 
Q 45.40625 17.390625 45.40625 27.296875 
Q 45.40625 37.203125 41.296875 42.84375 
Q 37.203125 48.484375 30.078125 48.484375 
Q 22.953125 48.484375 18.875 42.84375 
Q 14.796875 37.203125 14.796875 27.296875 
z
M 45.40625 8.203125 
Q 42.578125 3.328125 38.25 0.953125 
Q 33.9375 -1.421875 27.875 -1.421875 
Q 17.96875 -1.421875 11.734375 6.484375 
Q 5.515625 14.40625 5.515625 27.296875 
Q 5.515625 40.1875 11.734375 48.09375 
Q 17.96875 56 27.875 56 
Q 33.9375 56 38.25 53.625 
Q 42.578125 51.265625 45.40625 46.390625 
L 45.40625 54.6875 
L 54.390625 54.6875 
L 54.390625 -20.796875 
L 45.40625 -20.796875 
z
" id="DejaVuSans-113"/>
     </defs>
     <g transform="translate(181 115.352813)scale(0.1 -0.1)">
      <use xlink:href="#DejaVuSans-116"/>
      <use x="39.208984" xlink:href="#DejaVuSans-97"/>
      <use x="100.488281" xlink:href="#DejaVuSans-121"/>
      <use x="159.667969" xlink:href="#DejaVuSans-108"/>
      <use x="187.451172" xlink:href="#DejaVuSans-111"/>
      <use x="248.632812" xlink:href="#DejaVuSans-114"/>
      <use x="289.746094" xlink:href="#DejaVuSans-102"/>
      <use x="324.951172" xlink:href="#DejaVuSans-111"/>
      <use x="386.132812" xlink:href="#DejaVuSans-95"/>
      <use x="436.132812" xlink:href="#DejaVuSans-115"/>
      <use x="488.232422" xlink:href="#DejaVuSans-113"/>
     </g>
    </g>
    <g id="line2d_31">
     <path d="M 153 126.809063 
L 173 126.809063 
" style="fill:none;stroke:#d62728;stroke-dasharray:5.55,2.4;stroke-dashoffset:0;stroke-width:1.5;"/>
    </g>
    <g id="line2d_32"/>
    <g id="text_24">
     <!-- taylorfo_abs_norm -->
     <g transform="translate(181 130.309063)scale(0.1 -0.1)">
      <use xlink:href="#DejaVuSans-116"/>
      <use x="39.208984" xlink:href="#DejaVuSans-97"/>
      <use x="100.488281" xlink:href="#DejaVuSans-121"/>
      <use x="159.667969" xlink:href="#DejaVuSans-108"/>
      <use x="187.451172" xlink:href="#DejaVuSans-111"/>
      <use x="248.632812" xlink:href="#DejaVuSans-114"/>
      <use x="289.746094" xlink:href="#DejaVuSans-102"/>
      <use x="324.951172" xlink:href="#DejaVuSans-111"/>
      <use x="386.132812" xlink:href="#DejaVuSans-95"/>
      <use x="436.132812" xlink:href="#DejaVuSans-97"/>
      <use x="497.412109" xlink:href="#DejaVuSans-98"/>
      <use x="560.888672" xlink:href="#DejaVuSans-115"/>
      <use x="612.988281" xlink:href="#DejaVuSans-95"/>
      <use x="662.988281" xlink:href="#DejaVuSans-110"/>
      <use x="726.367188" xlink:href="#DejaVuSans-111"/>
      <use x="787.548828" xlink:href="#DejaVuSans-114"/>
      <use x="826.912109" xlink:href="#DejaVuSans-109"/>
     </g>
    </g>
    <g id="line2d_33">
     <path d="M 153 141.765313 
L 173 141.765313 
" style="fill:none;stroke:#9467bd;stroke-dasharray:5.55,2.4;stroke-dashoffset:0;stroke-width:1.5;"/>
    </g>
    <g id="line2d_34"/>
    <g id="text_25">
     <!-- taylorfo_sq_norm -->
     <g transform="translate(181 145.265313)scale(0.1 -0.1)">
      <use xlink:href="#DejaVuSans-116"/>
      <use x="39.208984" xlink:href="#DejaVuSans-97"/>
      <use x="100.488281" xlink:href="#DejaVuSans-121"/>
      <use x="159.667969" xlink:href="#DejaVuSans-108"/>
      <use x="187.451172" xlink:href="#DejaVuSans-111"/>
      <use x="248.632812" xlink:href="#DejaVuSans-114"/>
      <use x="289.746094" xlink:href="#DejaVuSans-102"/>
      <use x="324.951172" xlink:href="#DejaVuSans-111"/>
      <use x="386.132812" xlink:href="#DejaVuSans-95"/>
      <use x="436.132812" xlink:href="#DejaVuSans-115"/>
      <use x="488.232422" xlink:href="#DejaVuSans-113"/>
      <use x="551.708984" xlink:href="#DejaVuSans-95"/>
      <use x="601.708984" xlink:href="#DejaVuSans-110"/>
      <use x="665.087891" xlink:href="#DejaVuSans-111"/>
      <use x="726.269531" xlink:href="#DejaVuSans-114"/>
      <use x="765.632812" xlink:href="#DejaVuSans-109"/>
     </g>
    </g>
    <g id="line2d_35">
     <path d="M 153 156.721563 
L 173 156.721563 
" style="fill:none;stroke:#8c564b;stroke-dasharray:5.55,2.4;stroke-dashoffset:0;stroke-width:1.5;"/>
    </g>
    <g id="line2d_36"/>
    <g id="text_26">
     <!-- Molchanov_group -->
     <defs>
      <path d="M 9.8125 72.90625 
L 24.515625 72.90625 
L 43.109375 23.296875 
L 61.8125 72.90625 
L 76.515625 72.90625 
L 76.515625 0 
L 66.890625 0 
L 66.890625 64.015625 
L 48.09375 14.015625 
L 38.1875 14.015625 
L 19.390625 64.015625 
L 19.390625 0 
L 9.8125 0 
z
" id="DejaVuSans-77"/>
      <path d="M 48.78125 52.59375 
L 48.78125 44.1875 
Q 44.96875 46.296875 41.140625 47.34375 
Q 37.3125 48.390625 33.40625 48.390625 
Q 24.65625 48.390625 19.8125 42.84375 
Q 14.984375 37.3125 14.984375 27.296875 
Q 14.984375 17.28125 19.8125 11.734375 
Q 24.65625 6.203125 33.40625 6.203125 
Q 37.3125 6.203125 41.140625 7.25 
Q 44.96875 8.296875 48.78125 10.40625 
L 48.78125 2.09375 
Q 45.015625 0.34375 40.984375 -0.53125 
Q 36.96875 -1.421875 32.421875 -1.421875 
Q 20.0625 -1.421875 12.78125 6.34375 
Q 5.515625 14.109375 5.515625 27.296875 
Q 5.515625 40.671875 12.859375 48.328125 
Q 20.21875 56 33.015625 56 
Q 37.15625 56 41.109375 55.140625 
Q 45.0625 54.296875 48.78125 52.59375 
z
" id="DejaVuSans-99"/>
      <path d="M 54.890625 33.015625 
L 54.890625 0 
L 45.90625 0 
L 45.90625 32.71875 
Q 45.90625 40.484375 42.875 44.328125 
Q 39.84375 48.1875 33.796875 48.1875 
Q 26.515625 48.1875 22.3125 43.546875 
Q 18.109375 38.921875 18.109375 30.90625 
L 18.109375 0 
L 9.078125 0 
L 9.078125 75.984375 
L 18.109375 75.984375 
L 18.109375 46.1875 
Q 21.34375 51.125 25.703125 53.5625 
Q 30.078125 56 35.796875 56 
Q 45.21875 56 50.046875 50.171875 
Q 54.890625 44.34375 54.890625 33.015625 
z
" id="DejaVuSans-104"/>
      <path d="M 2.984375 54.6875 
L 12.5 54.6875 
L 29.59375 8.796875 
L 46.6875 54.6875 
L 56.203125 54.6875 
L 35.6875 0 
L 23.484375 0 
z
" id="DejaVuSans-118"/>
      <path d="M 45.40625 27.984375 
Q 45.40625 37.75 41.375 43.109375 
Q 37.359375 48.484375 30.078125 48.484375 
Q 22.859375 48.484375 18.828125 43.109375 
Q 14.796875 37.75 14.796875 27.984375 
Q 14.796875 18.265625 18.828125 12.890625 
Q 22.859375 7.515625 30.078125 7.515625 
Q 37.359375 7.515625 41.375 12.890625 
Q 45.40625 18.265625 45.40625 27.984375 
z
M 54.390625 6.78125 
Q 54.390625 -7.171875 48.1875 -13.984375 
Q 42 -20.796875 29.203125 -20.796875 
Q 24.46875 -20.796875 20.265625 -20.09375 
Q 16.0625 -19.390625 12.109375 -17.921875 
L 12.109375 -9.1875 
Q 16.0625 -11.328125 19.921875 -12.34375 
Q 23.78125 -13.375 27.78125 -13.375 
Q 36.625 -13.375 41.015625 -8.765625 
Q 45.40625 -4.15625 45.40625 5.171875 
L 45.40625 9.625 
Q 42.625 4.78125 38.28125 2.390625 
Q 33.9375 0 27.875 0 
Q 17.828125 0 11.671875 7.65625 
Q 5.515625 15.328125 5.515625 27.984375 
Q 5.515625 40.671875 11.671875 48.328125 
Q 17.828125 56 27.875 56 
Q 33.9375 56 38.28125 53.609375 
Q 42.625 51.21875 45.40625 46.390625 
L 45.40625 54.6875 
L 54.390625 54.6875 
z
" id="DejaVuSans-103"/>
     </defs>
     <g transform="translate(181 160.221563)scale(0.1 -0.1)">
      <use xlink:href="#DejaVuSans-77"/>
      <use x="86.279297" xlink:href="#DejaVuSans-111"/>
      <use x="147.460938" xlink:href="#DejaVuSans-108"/>
      <use x="175.244141" xlink:href="#DejaVuSans-99"/>
      <use x="230.224609" xlink:href="#DejaVuSans-104"/>
      <use x="293.603516" xlink:href="#DejaVuSans-97"/>
      <use x="354.882812" xlink:href="#DejaVuSans-110"/>
      <use x="418.261719" xlink:href="#DejaVuSans-111"/>
      <use x="479.443359" xlink:href="#DejaVuSans-118"/>
      <use x="538.623047" xlink:href="#DejaVuSans-95"/>
      <use x="588.623047" xlink:href="#DejaVuSans-103"/>
      <use x="652.099609" xlink:href="#DejaVuSans-114"/>
      <use x="690.962891" xlink:href="#DejaVuSans-111"/>
      <use x="752.144531" xlink:href="#DejaVuSans-117"/>
      <use x="815.523438" xlink:href="#DejaVuSans-112"/>
     </g>
    </g>
   </g>
  </g>
 </g>
 <defs>
  <clipPath id="pad3b8ed150">
   <rect height="434.88" width="892.8" x="144" y="69.12"/>
  </clipPath>
 </defs>
</svg>
