<?xml version="1.0" encoding="utf-8" standalone="no"?>
<!DOCTYPE svg PUBLIC "-//W3C//DTD SVG 1.1//EN"
  "http://www.w3.org/Graphics/SVG/1.1/DTD/svg11.dtd">
<!-- Created with matplotlib (https://matplotlib.org/) -->
<svg height="576pt" version="1.1" viewBox="0 0 1152 576" width="1152pt" xmlns="http://www.w3.org/2000/svg" xmlns:xlink="http://www.w3.org/1999/xlink">
 <defs>
  <style type="text/css">
*{stroke-linecap:butt;stroke-linejoin:round;}
  </style>
 </defs>
 <g id="figure_1">
  <g id="patch_1">
   <path d="M 0 576 
L 1152 576 
L 1152 0 
L 0 0 
z
" style="fill:#ffffff;"/>
  </g>
  <g id="axes_1">
   <g id="patch_2">
    <path d="M 144 504 
L 1036.8 504 
L 1036.8 69.12 
L 144 69.12 
z
" style="fill:#ffffff;"/>
   </g>
   <g id="matplotlib.axis_1">
    <g id="xtick_1">
     <g id="line2d_1">
      <defs>
       <path d="M 0 0 
L 0 3.5 
" id="m7fedefd64a" style="stroke:#000000;stroke-width:0.8;"/>
      </defs>
      <g>
       <use style="stroke:#000000;stroke-width:0.8;" x="182.547642" xlink:href="#m7fedefd64a" y="504"/>
      </g>
     </g>
     <g id="text_1">
      <!-- 0 -->
      <defs>
       <path d="M 31.78125 66.40625 
Q 24.171875 66.40625 20.328125 58.90625 
Q 16.5 51.421875 16.5 36.375 
Q 16.5 21.390625 20.328125 13.890625 
Q 24.171875 6.390625 31.78125 6.390625 
Q 39.453125 6.390625 43.28125 13.890625 
Q 47.125 21.390625 47.125 36.375 
Q 47.125 51.421875 43.28125 58.90625 
Q 39.453125 66.40625 31.78125 66.40625 
z
M 31.78125 74.21875 
Q 44.046875 74.21875 50.515625 64.515625 
Q 56.984375 54.828125 56.984375 36.375 
Q 56.984375 17.96875 50.515625 8.265625 
Q 44.046875 -1.421875 31.78125 -1.421875 
Q 19.53125 -1.421875 13.0625 8.265625 
Q 6.59375 17.96875 6.59375 36.375 
Q 6.59375 54.828125 13.0625 64.515625 
Q 19.53125 74.21875 31.78125 74.21875 
z
" id="DejaVuSans-48"/>
      </defs>
      <g transform="translate(179.366392 518.598438)scale(0.1 -0.1)">
       <use xlink:href="#DejaVuSans-48"/>
      </g>
     </g>
    </g>
    <g id="xtick_2">
     <g id="line2d_2">
      <g>
       <use style="stroke:#000000;stroke-width:0.8;" x="284.256459" xlink:href="#m7fedefd64a" y="504"/>
      </g>
     </g>
     <g id="text_2">
      <!-- 50 -->
      <defs>
       <path d="M 10.796875 72.90625 
L 49.515625 72.90625 
L 49.515625 64.59375 
L 19.828125 64.59375 
L 19.828125 46.734375 
Q 21.96875 47.46875 24.109375 47.828125 
Q 26.265625 48.1875 28.421875 48.1875 
Q 40.625 48.1875 47.75 41.5 
Q 54.890625 34.8125 54.890625 23.390625 
Q 54.890625 11.625 47.5625 5.09375 
Q 40.234375 -1.421875 26.90625 -1.421875 
Q 22.3125 -1.421875 17.546875 -0.640625 
Q 12.796875 0.140625 7.71875 1.703125 
L 7.71875 11.625 
Q 12.109375 9.234375 16.796875 8.0625 
Q 21.484375 6.890625 26.703125 6.890625 
Q 35.15625 6.890625 40.078125 11.328125 
Q 45.015625 15.765625 45.015625 23.390625 
Q 45.015625 31 40.078125 35.4375 
Q 35.15625 39.890625 26.703125 39.890625 
Q 22.75 39.890625 18.8125 39.015625 
Q 14.890625 38.140625 10.796875 36.28125 
z
" id="DejaVuSans-53"/>
      </defs>
      <g transform="translate(277.893959 518.598438)scale(0.1 -0.1)">
       <use xlink:href="#DejaVuSans-53"/>
       <use x="63.623047" xlink:href="#DejaVuSans-48"/>
      </g>
     </g>
    </g>
    <g id="xtick_3">
     <g id="line2d_3">
      <g>
       <use style="stroke:#000000;stroke-width:0.8;" x="385.965277" xlink:href="#m7fedefd64a" y="504"/>
      </g>
     </g>
     <g id="text_3">
      <!-- 100 -->
      <defs>
       <path d="M 12.40625 8.296875 
L 28.515625 8.296875 
L 28.515625 63.921875 
L 10.984375 60.40625 
L 10.984375 69.390625 
L 28.421875 72.90625 
L 38.28125 72.90625 
L 38.28125 8.296875 
L 54.390625 8.296875 
L 54.390625 0 
L 12.40625 0 
z
" id="DejaVuSans-49"/>
      </defs>
      <g transform="translate(376.421527 518.598438)scale(0.1 -0.1)">
       <use xlink:href="#DejaVuSans-49"/>
       <use x="63.623047" xlink:href="#DejaVuSans-48"/>
       <use x="127.246094" xlink:href="#DejaVuSans-48"/>
      </g>
     </g>
    </g>
    <g id="xtick_4">
     <g id="line2d_4">
      <g>
       <use style="stroke:#000000;stroke-width:0.8;" x="487.674094" xlink:href="#m7fedefd64a" y="504"/>
      </g>
     </g>
     <g id="text_4">
      <!-- 150 -->
      <g transform="translate(478.130344 518.598438)scale(0.1 -0.1)">
       <use xlink:href="#DejaVuSans-49"/>
       <use x="63.623047" xlink:href="#DejaVuSans-53"/>
       <use x="127.246094" xlink:href="#DejaVuSans-48"/>
      </g>
     </g>
    </g>
    <g id="xtick_5">
     <g id="line2d_5">
      <g>
       <use style="stroke:#000000;stroke-width:0.8;" x="589.382912" xlink:href="#m7fedefd64a" y="504"/>
      </g>
     </g>
     <g id="text_5">
      <!-- 200 -->
      <defs>
       <path d="M 19.1875 8.296875 
L 53.609375 8.296875 
L 53.609375 0 
L 7.328125 0 
L 7.328125 8.296875 
Q 12.9375 14.109375 22.625 23.890625 
Q 32.328125 33.6875 34.8125 36.53125 
Q 39.546875 41.84375 41.421875 45.53125 
Q 43.3125 49.21875 43.3125 52.78125 
Q 43.3125 58.59375 39.234375 62.25 
Q 35.15625 65.921875 28.609375 65.921875 
Q 23.96875 65.921875 18.8125 64.3125 
Q 13.671875 62.703125 7.8125 59.421875 
L 7.8125 69.390625 
Q 13.765625 71.78125 18.9375 73 
Q 24.125 74.21875 28.421875 74.21875 
Q 39.75 74.21875 46.484375 68.546875 
Q 53.21875 62.890625 53.21875 53.421875 
Q 53.21875 48.921875 51.53125 44.890625 
Q 49.859375 40.875 45.40625 35.40625 
Q 44.1875 33.984375 37.640625 27.21875 
Q 31.109375 20.453125 19.1875 8.296875 
z
" id="DejaVuSans-50"/>
      </defs>
      <g transform="translate(579.839162 518.598438)scale(0.1 -0.1)">
       <use xlink:href="#DejaVuSans-50"/>
       <use x="63.623047" xlink:href="#DejaVuSans-48"/>
       <use x="127.246094" xlink:href="#DejaVuSans-48"/>
      </g>
     </g>
    </g>
    <g id="xtick_6">
     <g id="line2d_6">
      <g>
       <use style="stroke:#000000;stroke-width:0.8;" x="691.091729" xlink:href="#m7fedefd64a" y="504"/>
      </g>
     </g>
     <g id="text_6">
      <!-- 250 -->
      <g transform="translate(681.547979 518.598438)scale(0.1 -0.1)">
       <use xlink:href="#DejaVuSans-50"/>
       <use x="63.623047" xlink:href="#DejaVuSans-53"/>
       <use x="127.246094" xlink:href="#DejaVuSans-48"/>
      </g>
     </g>
    </g>
    <g id="xtick_7">
     <g id="line2d_7">
      <g>
       <use style="stroke:#000000;stroke-width:0.8;" x="792.800547" xlink:href="#m7fedefd64a" y="504"/>
      </g>
     </g>
     <g id="text_7">
      <!-- 300 -->
      <defs>
       <path d="M 40.578125 39.3125 
Q 47.65625 37.796875 51.625 33 
Q 55.609375 28.21875 55.609375 21.1875 
Q 55.609375 10.40625 48.1875 4.484375 
Q 40.765625 -1.421875 27.09375 -1.421875 
Q 22.515625 -1.421875 17.65625 -0.515625 
Q 12.796875 0.390625 7.625 2.203125 
L 7.625 11.71875 
Q 11.71875 9.328125 16.59375 8.109375 
Q 21.484375 6.890625 26.8125 6.890625 
Q 36.078125 6.890625 40.9375 10.546875 
Q 45.796875 14.203125 45.796875 21.1875 
Q 45.796875 27.640625 41.28125 31.265625 
Q 36.765625 34.90625 28.71875 34.90625 
L 20.21875 34.90625 
L 20.21875 43.015625 
L 29.109375 43.015625 
Q 36.375 43.015625 40.234375 45.921875 
Q 44.09375 48.828125 44.09375 54.296875 
Q 44.09375 59.90625 40.109375 62.90625 
Q 36.140625 65.921875 28.71875 65.921875 
Q 24.65625 65.921875 20.015625 65.03125 
Q 15.375 64.15625 9.8125 62.3125 
L 9.8125 71.09375 
Q 15.4375 72.65625 20.34375 73.4375 
Q 25.25 74.21875 29.59375 74.21875 
Q 40.828125 74.21875 47.359375 69.109375 
Q 53.90625 64.015625 53.90625 55.328125 
Q 53.90625 49.265625 50.4375 45.09375 
Q 46.96875 40.921875 40.578125 39.3125 
z
" id="DejaVuSans-51"/>
      </defs>
      <g transform="translate(783.256797 518.598438)scale(0.1 -0.1)">
       <use xlink:href="#DejaVuSans-51"/>
       <use x="63.623047" xlink:href="#DejaVuSans-48"/>
       <use x="127.246094" xlink:href="#DejaVuSans-48"/>
      </g>
     </g>
    </g>
    <g id="xtick_8">
     <g id="line2d_8">
      <g>
       <use style="stroke:#000000;stroke-width:0.8;" x="894.509364" xlink:href="#m7fedefd64a" y="504"/>
      </g>
     </g>
     <g id="text_8">
      <!-- 350 -->
      <g transform="translate(884.965614 518.598438)scale(0.1 -0.1)">
       <use xlink:href="#DejaVuSans-51"/>
       <use x="63.623047" xlink:href="#DejaVuSans-53"/>
       <use x="127.246094" xlink:href="#DejaVuSans-48"/>
      </g>
     </g>
    </g>
    <g id="xtick_9">
     <g id="line2d_9">
      <g>
       <use style="stroke:#000000;stroke-width:0.8;" x="996.218182" xlink:href="#m7fedefd64a" y="504"/>
      </g>
     </g>
     <g id="text_9">
      <!-- 400 -->
      <defs>
       <path d="M 37.796875 64.3125 
L 12.890625 25.390625 
L 37.796875 25.390625 
z
M 35.203125 72.90625 
L 47.609375 72.90625 
L 47.609375 25.390625 
L 58.015625 25.390625 
L 58.015625 17.1875 
L 47.609375 17.1875 
L 47.609375 0 
L 37.796875 0 
L 37.796875 17.1875 
L 4.890625 17.1875 
L 4.890625 26.703125 
z
" id="DejaVuSans-52"/>
      </defs>
      <g transform="translate(986.674432 518.598438)scale(0.1 -0.1)">
       <use xlink:href="#DejaVuSans-52"/>
       <use x="63.623047" xlink:href="#DejaVuSans-48"/>
       <use x="127.246094" xlink:href="#DejaVuSans-48"/>
      </g>
     </g>
    </g>
    <g id="text_10">
     <!-- Number of Neurons pruned -->
     <defs>
      <path d="M 9.8125 72.90625 
L 23.09375 72.90625 
L 55.421875 11.921875 
L 55.421875 72.90625 
L 64.984375 72.90625 
L 64.984375 0 
L 51.703125 0 
L 19.390625 60.984375 
L 19.390625 0 
L 9.8125 0 
z
" id="DejaVuSans-78"/>
      <path d="M 8.5 21.578125 
L 8.5 54.6875 
L 17.484375 54.6875 
L 17.484375 21.921875 
Q 17.484375 14.15625 20.5 10.265625 
Q 23.53125 6.390625 29.59375 6.390625 
Q 36.859375 6.390625 41.078125 11.03125 
Q 45.3125 15.671875 45.3125 23.6875 
L 45.3125 54.6875 
L 54.296875 54.6875 
L 54.296875 0 
L 45.3125 0 
L 45.3125 8.40625 
Q 42.046875 3.421875 37.71875 1 
Q 33.40625 -1.421875 27.6875 -1.421875 
Q 18.265625 -1.421875 13.375 4.4375 
Q 8.5 10.296875 8.5 21.578125 
z
M 31.109375 56 
z
" id="DejaVuSans-117"/>
      <path d="M 52 44.1875 
Q 55.375 50.25 60.0625 53.125 
Q 64.75 56 71.09375 56 
Q 79.640625 56 84.28125 50.015625 
Q 88.921875 44.046875 88.921875 33.015625 
L 88.921875 0 
L 79.890625 0 
L 79.890625 32.71875 
Q 79.890625 40.578125 77.09375 44.375 
Q 74.3125 48.1875 68.609375 48.1875 
Q 61.625 48.1875 57.5625 43.546875 
Q 53.515625 38.921875 53.515625 30.90625 
L 53.515625 0 
L 44.484375 0 
L 44.484375 32.71875 
Q 44.484375 40.625 41.703125 44.40625 
Q 38.921875 48.1875 33.109375 48.1875 
Q 26.21875 48.1875 22.15625 43.53125 
Q 18.109375 38.875 18.109375 30.90625 
L 18.109375 0 
L 9.078125 0 
L 9.078125 54.6875 
L 18.109375 54.6875 
L 18.109375 46.1875 
Q 21.1875 51.21875 25.484375 53.609375 
Q 29.78125 56 35.6875 56 
Q 41.65625 56 45.828125 52.96875 
Q 50 49.953125 52 44.1875 
z
" id="DejaVuSans-109"/>
      <path d="M 48.6875 27.296875 
Q 48.6875 37.203125 44.609375 42.84375 
Q 40.53125 48.484375 33.40625 48.484375 
Q 26.265625 48.484375 22.1875 42.84375 
Q 18.109375 37.203125 18.109375 27.296875 
Q 18.109375 17.390625 22.1875 11.75 
Q 26.265625 6.109375 33.40625 6.109375 
Q 40.53125 6.109375 44.609375 11.75 
Q 48.6875 17.390625 48.6875 27.296875 
z
M 18.109375 46.390625 
Q 20.953125 51.265625 25.265625 53.625 
Q 29.59375 56 35.59375 56 
Q 45.5625 56 51.78125 48.09375 
Q 58.015625 40.1875 58.015625 27.296875 
Q 58.015625 14.40625 51.78125 6.484375 
Q 45.5625 -1.421875 35.59375 -1.421875 
Q 29.59375 -1.421875 25.265625 0.953125 
Q 20.953125 3.328125 18.109375 8.203125 
L 18.109375 0 
L 9.078125 0 
L 9.078125 75.984375 
L 18.109375 75.984375 
z
" id="DejaVuSans-98"/>
      <path d="M 56.203125 29.59375 
L 56.203125 25.203125 
L 14.890625 25.203125 
Q 15.484375 15.921875 20.484375 11.0625 
Q 25.484375 6.203125 34.421875 6.203125 
Q 39.59375 6.203125 44.453125 7.46875 
Q 49.3125 8.734375 54.109375 11.28125 
L 54.109375 2.78125 
Q 49.265625 0.734375 44.1875 -0.34375 
Q 39.109375 -1.421875 33.890625 -1.421875 
Q 20.796875 -1.421875 13.15625 6.1875 
Q 5.515625 13.8125 5.515625 26.8125 
Q 5.515625 40.234375 12.765625 48.109375 
Q 20.015625 56 32.328125 56 
Q 43.359375 56 49.78125 48.890625 
Q 56.203125 41.796875 56.203125 29.59375 
z
M 47.21875 32.234375 
Q 47.125 39.59375 43.09375 43.984375 
Q 39.0625 48.390625 32.421875 48.390625 
Q 24.90625 48.390625 20.390625 44.140625 
Q 15.875 39.890625 15.1875 32.171875 
z
" id="DejaVuSans-101"/>
      <path d="M 41.109375 46.296875 
Q 39.59375 47.171875 37.8125 47.578125 
Q 36.03125 48 33.890625 48 
Q 26.265625 48 22.1875 43.046875 
Q 18.109375 38.09375 18.109375 28.8125 
L 18.109375 0 
L 9.078125 0 
L 9.078125 54.6875 
L 18.109375 54.6875 
L 18.109375 46.1875 
Q 20.953125 51.171875 25.484375 53.578125 
Q 30.03125 56 36.53125 56 
Q 37.453125 56 38.578125 55.875 
Q 39.703125 55.765625 41.0625 55.515625 
z
" id="DejaVuSans-114"/>
      <path id="DejaVuSans-32"/>
      <path d="M 30.609375 48.390625 
Q 23.390625 48.390625 19.1875 42.75 
Q 14.984375 37.109375 14.984375 27.296875 
Q 14.984375 17.484375 19.15625 11.84375 
Q 23.34375 6.203125 30.609375 6.203125 
Q 37.796875 6.203125 41.984375 11.859375 
Q 46.1875 17.53125 46.1875 27.296875 
Q 46.1875 37.015625 41.984375 42.703125 
Q 37.796875 48.390625 30.609375 48.390625 
z
M 30.609375 56 
Q 42.328125 56 49.015625 48.375 
Q 55.71875 40.765625 55.71875 27.296875 
Q 55.71875 13.875 49.015625 6.21875 
Q 42.328125 -1.421875 30.609375 -1.421875 
Q 18.84375 -1.421875 12.171875 6.21875 
Q 5.515625 13.875 5.515625 27.296875 
Q 5.515625 40.765625 12.171875 48.375 
Q 18.84375 56 30.609375 56 
z
" id="DejaVuSans-111"/>
      <path d="M 37.109375 75.984375 
L 37.109375 68.5 
L 28.515625 68.5 
Q 23.6875 68.5 21.796875 66.546875 
Q 19.921875 64.59375 19.921875 59.515625 
L 19.921875 54.6875 
L 34.71875 54.6875 
L 34.71875 47.703125 
L 19.921875 47.703125 
L 19.921875 0 
L 10.890625 0 
L 10.890625 47.703125 
L 2.296875 47.703125 
L 2.296875 54.6875 
L 10.890625 54.6875 
L 10.890625 58.5 
Q 10.890625 67.625 15.140625 71.796875 
Q 19.390625 75.984375 28.609375 75.984375 
z
" id="DejaVuSans-102"/>
      <path d="M 54.890625 33.015625 
L 54.890625 0 
L 45.90625 0 
L 45.90625 32.71875 
Q 45.90625 40.484375 42.875 44.328125 
Q 39.84375 48.1875 33.796875 48.1875 
Q 26.515625 48.1875 22.3125 43.546875 
Q 18.109375 38.921875 18.109375 30.90625 
L 18.109375 0 
L 9.078125 0 
L 9.078125 54.6875 
L 18.109375 54.6875 
L 18.109375 46.1875 
Q 21.34375 51.125 25.703125 53.5625 
Q 30.078125 56 35.796875 56 
Q 45.21875 56 50.046875 50.171875 
Q 54.890625 44.34375 54.890625 33.015625 
z
" id="DejaVuSans-110"/>
      <path d="M 44.28125 53.078125 
L 44.28125 44.578125 
Q 40.484375 46.53125 36.375 47.5 
Q 32.28125 48.484375 27.875 48.484375 
Q 21.1875 48.484375 17.84375 46.4375 
Q 14.5 44.390625 14.5 40.28125 
Q 14.5 37.15625 16.890625 35.375 
Q 19.28125 33.59375 26.515625 31.984375 
L 29.59375 31.296875 
Q 39.15625 29.25 43.1875 25.515625 
Q 47.21875 21.78125 47.21875 15.09375 
Q 47.21875 7.46875 41.1875 3.015625 
Q 35.15625 -1.421875 24.609375 -1.421875 
Q 20.21875 -1.421875 15.453125 -0.5625 
Q 10.6875 0.296875 5.421875 2 
L 5.421875 11.28125 
Q 10.40625 8.6875 15.234375 7.390625 
Q 20.0625 6.109375 24.8125 6.109375 
Q 31.15625 6.109375 34.5625 8.28125 
Q 37.984375 10.453125 37.984375 14.40625 
Q 37.984375 18.0625 35.515625 20.015625 
Q 33.0625 21.96875 24.703125 23.78125 
L 21.578125 24.515625 
Q 13.234375 26.265625 9.515625 29.90625 
Q 5.8125 33.546875 5.8125 39.890625 
Q 5.8125 47.609375 11.28125 51.796875 
Q 16.75 56 26.8125 56 
Q 31.78125 56 36.171875 55.265625 
Q 40.578125 54.546875 44.28125 53.078125 
z
" id="DejaVuSans-115"/>
      <path d="M 18.109375 8.203125 
L 18.109375 -20.796875 
L 9.078125 -20.796875 
L 9.078125 54.6875 
L 18.109375 54.6875 
L 18.109375 46.390625 
Q 20.953125 51.265625 25.265625 53.625 
Q 29.59375 56 35.59375 56 
Q 45.5625 56 51.78125 48.09375 
Q 58.015625 40.1875 58.015625 27.296875 
Q 58.015625 14.40625 51.78125 6.484375 
Q 45.5625 -1.421875 35.59375 -1.421875 
Q 29.59375 -1.421875 25.265625 0.953125 
Q 20.953125 3.328125 18.109375 8.203125 
z
M 48.6875 27.296875 
Q 48.6875 37.203125 44.609375 42.84375 
Q 40.53125 48.484375 33.40625 48.484375 
Q 26.265625 48.484375 22.1875 42.84375 
Q 18.109375 37.203125 18.109375 27.296875 
Q 18.109375 17.390625 22.1875 11.75 
Q 26.265625 6.109375 33.40625 6.109375 
Q 40.53125 6.109375 44.609375 11.75 
Q 48.6875 17.390625 48.6875 27.296875 
z
" id="DejaVuSans-112"/>
      <path d="M 45.40625 46.390625 
L 45.40625 75.984375 
L 54.390625 75.984375 
L 54.390625 0 
L 45.40625 0 
L 45.40625 8.203125 
Q 42.578125 3.328125 38.25 0.953125 
Q 33.9375 -1.421875 27.875 -1.421875 
Q 17.96875 -1.421875 11.734375 6.484375 
Q 5.515625 14.40625 5.515625 27.296875 
Q 5.515625 40.1875 11.734375 48.09375 
Q 17.96875 56 27.875 56 
Q 33.9375 56 38.25 53.625 
Q 42.578125 51.265625 45.40625 46.390625 
z
M 14.796875 27.296875 
Q 14.796875 17.390625 18.875 11.75 
Q 22.953125 6.109375 30.078125 6.109375 
Q 37.203125 6.109375 41.296875 11.75 
Q 45.40625 17.390625 45.40625 27.296875 
Q 45.40625 37.203125 41.296875 42.84375 
Q 37.203125 48.484375 30.078125 48.484375 
Q 22.953125 48.484375 18.875 42.84375 
Q 14.796875 37.203125 14.796875 27.296875 
z
" id="DejaVuSans-100"/>
     </defs>
     <g transform="translate(522.147656 532.276562)scale(0.1 -0.1)">
      <use xlink:href="#DejaVuSans-78"/>
      <use x="74.804688" xlink:href="#DejaVuSans-117"/>
      <use x="138.183594" xlink:href="#DejaVuSans-109"/>
      <use x="235.595703" xlink:href="#DejaVuSans-98"/>
      <use x="299.072266" xlink:href="#DejaVuSans-101"/>
      <use x="360.595703" xlink:href="#DejaVuSans-114"/>
      <use x="401.708984" xlink:href="#DejaVuSans-32"/>
      <use x="433.496094" xlink:href="#DejaVuSans-111"/>
      <use x="494.677734" xlink:href="#DejaVuSans-102"/>
      <use x="529.882812" xlink:href="#DejaVuSans-32"/>
      <use x="561.669922" xlink:href="#DejaVuSans-78"/>
      <use x="636.474609" xlink:href="#DejaVuSans-101"/>
      <use x="697.998047" xlink:href="#DejaVuSans-117"/>
      <use x="761.376953" xlink:href="#DejaVuSans-114"/>
      <use x="800.240234" xlink:href="#DejaVuSans-111"/>
      <use x="861.421875" xlink:href="#DejaVuSans-110"/>
      <use x="924.800781" xlink:href="#DejaVuSans-115"/>
      <use x="976.900391" xlink:href="#DejaVuSans-32"/>
      <use x="1008.6875" xlink:href="#DejaVuSans-112"/>
      <use x="1072.164062" xlink:href="#DejaVuSans-114"/>
      <use x="1113.277344" xlink:href="#DejaVuSans-117"/>
      <use x="1176.65625" xlink:href="#DejaVuSans-110"/>
      <use x="1240.035156" xlink:href="#DejaVuSans-101"/>
      <use x="1301.558594" xlink:href="#DejaVuSans-100"/>
     </g>
    </g>
   </g>
   <g id="matplotlib.axis_2">
    <g id="ytick_1">
     <g id="line2d_10">
      <defs>
       <path d="M 0 0 
L -3.5 0 
" id="m4dc06fedb3" style="stroke:#000000;stroke-width:0.8;"/>
      </defs>
      <g>
       <use style="stroke:#000000;stroke-width:0.8;" x="144" xlink:href="#m4dc06fedb3" y="495.773696"/>
      </g>
     </g>
     <g id="text_11">
      <!-- 0.0 -->
      <defs>
       <path d="M 10.6875 12.40625 
L 21 12.40625 
L 21 0 
L 10.6875 0 
z
" id="DejaVuSans-46"/>
      </defs>
      <g transform="translate(121.096875 499.572915)scale(0.1 -0.1)">
       <use xlink:href="#DejaVuSans-48"/>
       <use x="63.623047" xlink:href="#DejaVuSans-46"/>
       <use x="95.410156" xlink:href="#DejaVuSans-48"/>
      </g>
     </g>
    </g>
    <g id="ytick_2">
     <g id="line2d_11">
      <g>
       <use style="stroke:#000000;stroke-width:0.8;" x="144" xlink:href="#m4dc06fedb3" y="410.809507"/>
      </g>
     </g>
     <g id="text_12">
      <!-- 0.2 -->
      <g transform="translate(121.096875 414.608726)scale(0.1 -0.1)">
       <use xlink:href="#DejaVuSans-48"/>
       <use x="63.623047" xlink:href="#DejaVuSans-46"/>
       <use x="95.410156" xlink:href="#DejaVuSans-50"/>
      </g>
     </g>
    </g>
    <g id="ytick_3">
     <g id="line2d_12">
      <g>
       <use style="stroke:#000000;stroke-width:0.8;" x="144" xlink:href="#m4dc06fedb3" y="325.845317"/>
      </g>
     </g>
     <g id="text_13">
      <!-- 0.4 -->
      <g transform="translate(121.096875 329.644536)scale(0.1 -0.1)">
       <use xlink:href="#DejaVuSans-48"/>
       <use x="63.623047" xlink:href="#DejaVuSans-46"/>
       <use x="95.410156" xlink:href="#DejaVuSans-52"/>
      </g>
     </g>
    </g>
    <g id="ytick_4">
     <g id="line2d_13">
      <g>
       <use style="stroke:#000000;stroke-width:0.8;" x="144" xlink:href="#m4dc06fedb3" y="240.881128"/>
      </g>
     </g>
     <g id="text_14">
      <!-- 0.6 -->
      <defs>
       <path d="M 33.015625 40.375 
Q 26.375 40.375 22.484375 35.828125 
Q 18.609375 31.296875 18.609375 23.390625 
Q 18.609375 15.53125 22.484375 10.953125 
Q 26.375 6.390625 33.015625 6.390625 
Q 39.65625 6.390625 43.53125 10.953125 
Q 47.40625 15.53125 47.40625 23.390625 
Q 47.40625 31.296875 43.53125 35.828125 
Q 39.65625 40.375 33.015625 40.375 
z
M 52.59375 71.296875 
L 52.59375 62.3125 
Q 48.875 64.0625 45.09375 64.984375 
Q 41.3125 65.921875 37.59375 65.921875 
Q 27.828125 65.921875 22.671875 59.328125 
Q 17.53125 52.734375 16.796875 39.40625 
Q 19.671875 43.65625 24.015625 45.921875 
Q 28.375 48.1875 33.59375 48.1875 
Q 44.578125 48.1875 50.953125 41.515625 
Q 57.328125 34.859375 57.328125 23.390625 
Q 57.328125 12.15625 50.6875 5.359375 
Q 44.046875 -1.421875 33.015625 -1.421875 
Q 20.359375 -1.421875 13.671875 8.265625 
Q 6.984375 17.96875 6.984375 36.375 
Q 6.984375 53.65625 15.1875 63.9375 
Q 23.390625 74.21875 37.203125 74.21875 
Q 40.921875 74.21875 44.703125 73.484375 
Q 48.484375 72.75 52.59375 71.296875 
z
" id="DejaVuSans-54"/>
      </defs>
      <g transform="translate(121.096875 244.680346)scale(0.1 -0.1)">
       <use xlink:href="#DejaVuSans-48"/>
       <use x="63.623047" xlink:href="#DejaVuSans-46"/>
       <use x="95.410156" xlink:href="#DejaVuSans-54"/>
      </g>
     </g>
    </g>
    <g id="ytick_5">
     <g id="line2d_14">
      <g>
       <use style="stroke:#000000;stroke-width:0.8;" x="144" xlink:href="#m4dc06fedb3" y="155.916938"/>
      </g>
     </g>
     <g id="text_15">
      <!-- 0.8 -->
      <defs>
       <path d="M 31.78125 34.625 
Q 24.75 34.625 20.71875 30.859375 
Q 16.703125 27.09375 16.703125 20.515625 
Q 16.703125 13.921875 20.71875 10.15625 
Q 24.75 6.390625 31.78125 6.390625 
Q 38.8125 6.390625 42.859375 10.171875 
Q 46.921875 13.96875 46.921875 20.515625 
Q 46.921875 27.09375 42.890625 30.859375 
Q 38.875 34.625 31.78125 34.625 
z
M 21.921875 38.8125 
Q 15.578125 40.375 12.03125 44.71875 
Q 8.5 49.078125 8.5 55.328125 
Q 8.5 64.0625 14.71875 69.140625 
Q 20.953125 74.21875 31.78125 74.21875 
Q 42.671875 74.21875 48.875 69.140625 
Q 55.078125 64.0625 55.078125 55.328125 
Q 55.078125 49.078125 51.53125 44.71875 
Q 48 40.375 41.703125 38.8125 
Q 48.828125 37.15625 52.796875 32.3125 
Q 56.78125 27.484375 56.78125 20.515625 
Q 56.78125 9.90625 50.3125 4.234375 
Q 43.84375 -1.421875 31.78125 -1.421875 
Q 19.734375 -1.421875 13.25 4.234375 
Q 6.78125 9.90625 6.78125 20.515625 
Q 6.78125 27.484375 10.78125 32.3125 
Q 14.796875 37.15625 21.921875 38.8125 
z
M 18.3125 54.390625 
Q 18.3125 48.734375 21.84375 45.5625 
Q 25.390625 42.390625 31.78125 42.390625 
Q 38.140625 42.390625 41.71875 45.5625 
Q 45.3125 48.734375 45.3125 54.390625 
Q 45.3125 60.0625 41.71875 63.234375 
Q 38.140625 66.40625 31.78125 66.40625 
Q 25.390625 66.40625 21.84375 63.234375 
Q 18.3125 60.0625 18.3125 54.390625 
z
" id="DejaVuSans-56"/>
      </defs>
      <g transform="translate(121.096875 159.716157)scale(0.1 -0.1)">
       <use xlink:href="#DejaVuSans-48"/>
       <use x="63.623047" xlink:href="#DejaVuSans-46"/>
       <use x="95.410156" xlink:href="#DejaVuSans-56"/>
      </g>
     </g>
    </g>
    <g id="ytick_6">
     <g id="line2d_15">
      <g>
       <use style="stroke:#000000;stroke-width:0.8;" x="144" xlink:href="#m4dc06fedb3" y="70.952748"/>
      </g>
     </g>
     <g id="text_16">
      <!-- 1.0 -->
      <g transform="translate(121.096875 74.751967)scale(0.1 -0.1)">
       <use xlink:href="#DejaVuSans-49"/>
       <use x="63.623047" xlink:href="#DejaVuSans-46"/>
       <use x="95.410156" xlink:href="#DejaVuSans-48"/>
      </g>
     </g>
    </g>
    <g id="text_17">
     <!-- Accuracy -->
     <defs>
      <path d="M 34.1875 63.1875 
L 20.796875 26.90625 
L 47.609375 26.90625 
z
M 28.609375 72.90625 
L 39.796875 72.90625 
L 67.578125 0 
L 57.328125 0 
L 50.6875 18.703125 
L 17.828125 18.703125 
L 11.1875 0 
L 0.78125 0 
z
" id="DejaVuSans-65"/>
      <path d="M 48.78125 52.59375 
L 48.78125 44.1875 
Q 44.96875 46.296875 41.140625 47.34375 
Q 37.3125 48.390625 33.40625 48.390625 
Q 24.65625 48.390625 19.8125 42.84375 
Q 14.984375 37.3125 14.984375 27.296875 
Q 14.984375 17.28125 19.8125 11.734375 
Q 24.65625 6.203125 33.40625 6.203125 
Q 37.3125 6.203125 41.140625 7.25 
Q 44.96875 8.296875 48.78125 10.40625 
L 48.78125 2.09375 
Q 45.015625 0.34375 40.984375 -0.53125 
Q 36.96875 -1.421875 32.421875 -1.421875 
Q 20.0625 -1.421875 12.78125 6.34375 
Q 5.515625 14.109375 5.515625 27.296875 
Q 5.515625 40.671875 12.859375 48.328125 
Q 20.21875 56 33.015625 56 
Q 37.15625 56 41.109375 55.140625 
Q 45.0625 54.296875 48.78125 52.59375 
z
" id="DejaVuSans-99"/>
      <path d="M 34.28125 27.484375 
Q 23.390625 27.484375 19.1875 25 
Q 14.984375 22.515625 14.984375 16.5 
Q 14.984375 11.71875 18.140625 8.90625 
Q 21.296875 6.109375 26.703125 6.109375 
Q 34.1875 6.109375 38.703125 11.40625 
Q 43.21875 16.703125 43.21875 25.484375 
L 43.21875 27.484375 
z
M 52.203125 31.203125 
L 52.203125 0 
L 43.21875 0 
L 43.21875 8.296875 
Q 40.140625 3.328125 35.546875 0.953125 
Q 30.953125 -1.421875 24.3125 -1.421875 
Q 15.921875 -1.421875 10.953125 3.296875 
Q 6 8.015625 6 15.921875 
Q 6 25.140625 12.171875 29.828125 
Q 18.359375 34.515625 30.609375 34.515625 
L 43.21875 34.515625 
L 43.21875 35.40625 
Q 43.21875 41.609375 39.140625 45 
Q 35.0625 48.390625 27.6875 48.390625 
Q 23 48.390625 18.546875 47.265625 
Q 14.109375 46.140625 10.015625 43.890625 
L 10.015625 52.203125 
Q 14.9375 54.109375 19.578125 55.046875 
Q 24.21875 56 28.609375 56 
Q 40.484375 56 46.34375 49.84375 
Q 52.203125 43.703125 52.203125 31.203125 
z
" id="DejaVuSans-97"/>
      <path d="M 32.171875 -5.078125 
Q 28.375 -14.84375 24.75 -17.8125 
Q 21.140625 -20.796875 15.09375 -20.796875 
L 7.90625 -20.796875 
L 7.90625 -13.28125 
L 13.1875 -13.28125 
Q 16.890625 -13.28125 18.9375 -11.515625 
Q 21 -9.765625 23.484375 -3.21875 
L 25.09375 0.875 
L 2.984375 54.6875 
L 12.5 54.6875 
L 29.59375 11.921875 
L 46.6875 54.6875 
L 56.203125 54.6875 
z
" id="DejaVuSans-121"/>
     </defs>
     <g transform="translate(115.017187 309.388125)rotate(-90)scale(0.1 -0.1)">
      <use xlink:href="#DejaVuSans-65"/>
      <use x="66.658203" xlink:href="#DejaVuSans-99"/>
      <use x="121.638672" xlink:href="#DejaVuSans-99"/>
      <use x="176.619141" xlink:href="#DejaVuSans-117"/>
      <use x="239.998047" xlink:href="#DejaVuSans-114"/>
      <use x="281.111328" xlink:href="#DejaVuSans-97"/>
      <use x="342.390625" xlink:href="#DejaVuSans-99"/>
      <use x="397.371094" xlink:href="#DejaVuSans-121"/>
     </g>
    </g>
   </g>
   <g id="line2d_16">
    <path clip-path="url(#pa074d47f79)" d="M 184.581818 88.887273 
L 247.641285 88.887273 
L 249.675461 90.296262 
L 251.709638 90.714003 
L 253.743814 90.614878 
L 255.77799 92.377885 
L 257.812167 92.576135 
L 259.846343 93.90724 
L 261.880519 97.334129 
L 263.914696 98.261655 
L 265.948872 99.5786 
L 267.983049 103.416149 
L 270.017225 102.715195 
L 272.051401 106.396976 
L 274.085578 111.898407 
L 276.119754 115.339457 
L 278.15393 120.585996 
L 282.222283 138.91702 
L 284.256459 145.848682 
L 286.290636 143.016542 
L 288.324812 169.681137 
L 290.358988 160.611209 
L 292.393165 156.030224 
L 294.427341 171.238813 
L 296.461517 172.966419 
L 298.495694 181.016776 
L 300.52987 187.651063 
L 302.564046 182.510729 
L 304.598223 190.518604 
L 308.666576 195.70142 
L 310.700752 200.827593 
L 312.734928 211.575563 
L 314.769105 211.717169 
L 316.803281 214.57055 
L 318.837457 223.619236 
L 320.871634 229.623372 
L 322.90581 248.796958 
L 324.939986 261.138006 
L 326.974163 252.422097 
L 329.008339 258.37667 
L 331.042515 253.208015 
L 333.076692 274.555268 
L 335.110868 284.74389 
L 337.145044 271.121299 
L 339.179221 297.148662 
L 341.213397 306.22567 
L 343.247573 302.565129 
L 345.28175 288.411511 
L 347.315926 289.232832 
L 349.350103 302.997031 
L 351.384279 299.039115 
L 353.418455 295.860039 
L 355.452632 312.619225 
L 357.486808 338.384615 
L 359.520984 355.802274 
L 361.555161 367.591056 
L 363.589337 372.901318 
L 365.623513 381.298612 
L 367.65769 394.057401 
L 369.691866 386.998293 
L 371.726042 379.266551 
L 373.760219 407.446341 
L 375.794395 395.962015 
L 377.828571 399.339341 
L 379.862748 390.092405 
L 381.896924 398.341012 
L 383.9311 400.93242 
L 385.965277 405.775379 
L 387.999453 398.723351 
L 390.03363 412.459228 
L 392.067806 422.421279 
L 394.101982 422.173467 
L 396.136159 421.43003 
L 398.170335 424.488741 
L 400.204511 421.118495 
L 402.238688 427.965193 
L 404.272864 425.260499 
L 406.30704 420.339657 
L 408.341217 419.220962 
L 410.375393 418.845703 
L 412.409569 438.564475 
L 414.443746 438.635279 
L 416.477922 434.995979 
L 418.512098 434.457873 
L 420.546275 441.948882 
L 422.580451 437.615709 
L 424.614627 445.871396 
L 426.648804 445.680226 
L 428.68298 448.60441 
L 430.717157 445.382852 
L 432.751333 451.061292 
L 434.785509 450.742676 
L 436.819686 451.245381 
L 438.853862 451.500273 
L 440.888038 449.248722 
L 442.922215 450.905524 
L 444.956391 445.743949 
L 446.990567 445.276646 
L 449.024744 443.372032 
L 451.05892 443.456997 
L 453.093096 444.080067 
L 455.127273 446.735198 
L 457.161449 449.977998 
L 459.195625 448.774339 
L 461.229802 449.312445 
L 463.263978 447.896376 
L 465.298154 450.00632 
L 467.332331 449.970918 
L 469.366507 449.531936 
L 471.400684 448.937187 
L 473.43486 448.923026 
L 475.469036 449.121276 
L 477.503213 449.092955 
L 479.537389 451.096693 
L 481.571565 450.749756 
L 483.605742 450.579828 
L 485.639918 449.716025 
L 487.674094 448.137107 
L 489.708271 450.232891 
L 491.742447 452.604808 
L 493.776623 452.080862 
L 495.8108 450.877203 
L 499.879152 450.877203 
L 503.947505 449.482374 
L 505.981681 452.44196 
L 508.015858 453.560655 
L 510.050034 453.284521 
L 514.118387 453.312843 
L 516.152563 453.525253 
L 520.220916 453.532333 
L 522.255092 453.45445 
L 524.289269 452.930504 
L 526.323445 453.574816 
L 597.519617 453.553574 
L 599.553794 453.440289 
L 601.58797 453.553574 
L 605.656323 453.553574 
L 607.690499 453.242039 
L 609.724675 453.447369 
L 613.793028 451.556916 
L 615.827204 448.328277 
L 617.861381 447.429072 
L 619.895557 447.436153 
L 621.929733 446.947609 
L 623.96391 447.110457 
L 625.998086 447.110457 
L 628.032262 450.176248 
L 632.100615 442.954292 
L 634.134792 442.734801 
L 636.168968 435.378318 
L 638.203144 446.35994 
L 640.237321 446.388261 
L 642.271497 450.119605 
L 644.305673 445.319128 
L 646.33985 453.574816 
L 658.544908 453.496932 
L 660.579084 453.397807 
L 664.647437 453.504012 
L 668.715789 453.496932 
L 672.784142 453.312843 
L 674.818319 452.498602 
L 676.852495 451.932175 
L 678.886671 451.84013 
L 680.920848 451.415309 
L 682.955024 451.953416 
L 684.9892 451.932175 
L 687.023377 451.733925 
L 691.091729 452.25079 
L 693.125906 452.626049 
L 697.194258 451.280782 
L 699.228435 449.156678 
L 701.262611 449.277044 
L 703.296787 451.330345 
L 705.330964 451.889692 
L 707.36514 451.726844 
L 709.399316 453.185396 
L 711.433493 459.260336 
L 713.467669 460.279906 
L 715.501846 456.591044 
L 717.536022 456.732651 
L 719.570198 457.638936 
L 721.604375 453.787226 
L 723.638551 449.680624 
L 725.672727 450.863042 
L 727.706904 450.905524 
L 729.74108 451.818889 
L 731.775256 433.57991 
L 733.809433 439.909742 
L 735.843609 431.030984 
L 737.877785 428.1068 
L 739.911962 438.847689 
L 741.946138 435.066783 
L 743.980314 438.975136 
L 746.014491 446.706877 
L 748.048667 446.742279 
L 750.082843 461.490646 
L 752.11702 461.200352 
L 754.151196 451.790568 
L 756.185373 454.700591 
L 758.219549 451.394068 
L 760.253725 451.797648 
L 762.287902 447.138778 
L 764.322078 447.9955 
L 996.218182 448.037983 
L 996.218182 448.037983 
" style="fill:none;stroke:#1f77b4;stroke-linecap:square;stroke-width:1.5;"/>
   </g>
   <g id="line2d_17">
    <path clip-path="url(#pa074d47f79)" d="M 184.581818 88.887273 
L 249.675461 88.936835 
L 255.77799 89.23421 
L 259.846343 89.227129 
L 261.880519 89.595308 
L 265.948872 91.174225 
L 267.983049 91.66985 
L 270.017225 91.726493 
L 272.051401 92.236278 
L 274.085578 94.254177 
L 276.119754 95.670247 
L 278.15393 96.371202 
L 280.188107 95.896818 
L 282.222283 94.424106 
L 284.256459 95.578203 
L 286.290636 95.457837 
L 288.324812 96.413684 
L 290.358988 96.470327 
L 292.393165 98.941368 
L 294.427341 100.060064 
L 296.461517 100.491965 
L 298.495694 101.957597 
L 300.52987 104.789737 
L 302.564046 107.168734 
L 304.598223 108.655608 
L 306.632399 111.891327 
L 308.666576 115.530627 
L 310.700752 116.989178 
L 312.734928 121.301111 
L 314.769105 133.167776 
L 316.803281 123.283609 
L 320.871634 151.427997 
L 322.90581 155.010653 
L 324.939986 155.605403 
L 326.974163 155.916938 
L 329.008339 162.360056 
L 331.042515 174.063873 
L 333.076692 188.741437 
L 335.110868 192.423218 
L 339.179221 202.448992 
L 341.213397 203.992509 
L 343.247573 214.896246 
L 345.28175 210.074528 
L 347.315926 214.605952 
L 349.350103 226.019475 
L 351.384279 235.032759 
L 353.418455 233.347636 
L 355.452632 244.7824 
L 359.520984 263.049701 
L 361.555161 276.134186 
L 363.589337 281.359484 
L 365.623513 262.292103 
L 367.65769 253.491229 
L 369.691866 259.99807 
L 373.760219 270.441585 
L 375.794395 278.626469 
L 377.828571 291.661392 
L 379.862748 303.287325 
L 381.896924 299.619704 
L 383.9311 294.571415 
L 385.965277 304.845002 
L 390.03363 308.66839 
L 392.067806 316.761229 
L 394.101982 319.0057 
L 396.136159 323.45924 
L 398.170335 332.238872 
L 400.204511 336.083502 
L 402.238688 324.726622 
L 404.272864 319.926145 
L 406.30704 322.595437 
L 408.341217 310.983664 
L 410.375393 308.477221 
L 412.409569 307.507213 
L 414.443746 310.204826 
L 416.477922 325.533782 
L 418.512098 326.638316 
L 420.546275 327.31803 
L 422.580451 332.012301 
L 424.614627 342.052236 
L 426.648804 323.629168 
L 428.68298 339.807766 
L 430.717157 343.156771 
L 432.751333 340.770693 
L 434.785509 366.0617 
L 436.819686 379.556846 
L 438.853862 386.998293 
L 440.888038 393.356446 
L 442.922215 387.062016 
L 444.956391 399.707519 
L 446.990567 407.460502 
L 449.024744 406.157717 
L 451.05892 403.700836 
L 453.093096 412.961933 
L 455.127273 413.450477 
L 457.161449 405.570048 
L 459.195625 398.248967 
L 461.229802 404.125657 
L 463.263978 398.348092 
L 465.298154 398.199405 
L 467.332331 407.403859 
L 469.366507 418.534168 
L 471.400684 415.171002 
L 475.469036 403.070685 
L 477.503213 396.535523 
L 479.537389 400.111099 
L 481.571565 385.334411 
L 483.605742 385.560982 
L 485.639918 412.020246 
L 487.674094 431.300037 
L 489.708271 425.140133 
L 491.742447 429.374182 
L 493.776623 426.251748 
L 495.8108 432.185081 
L 497.844976 433.112607 
L 499.879152 430.74069 
L 501.913329 434.875613 
L 503.947505 438.04053 
L 505.981681 431.576171 
L 508.015858 449.503615 
L 510.050034 446.607752 
L 512.084211 446.607752 
L 514.118387 445.198763 
L 516.152563 448.972589 
L 518.18674 449.184999 
L 520.220916 449.595659 
L 522.255092 448.455723 
L 524.289269 449.19916 
L 528.357621 448.80266 
L 530.391798 449.41157 
L 532.425974 449.503615 
L 534.46015 451.599398 
L 536.494327 452.371156 
L 538.528503 452.215388 
L 540.562679 451.195818 
L 542.596856 448.285795 
L 544.631032 448.356598 
L 546.665208 445.942199 
L 548.699385 446.671475 
L 550.733561 446.338699 
L 552.767738 451.62772 
L 554.801914 452.725174 
L 556.83609 454.169565 
L 560.904443 454.06336 
L 562.938619 454.07044 
L 564.972796 453.440289 
L 567.006972 452.087942 
L 569.041148 452.23663 
L 571.075325 440.546973 
L 573.109501 448.257473 
L 575.143677 440.596536 
L 577.177854 446.317458 
L 579.21203 440.738143 
L 581.246206 433.870204 
L 583.280383 441.198365 
L 585.314559 430.9531 
L 587.348735 428.262567 
L 589.382912 446.508627 
L 591.417088 445.042995 
L 593.451265 449.836391 
L 595.485441 449.638141 
L 597.519617 451.408229 
L 599.553794 451.84013 
L 601.58797 451.896773 
L 603.622146 451.691443 
L 605.656323 450.586908 
L 607.690499 450.877203 
L 609.724675 447.131698 
L 611.758852 448.526527 
L 613.793028 448.19375 
L 617.861381 449.772668 
L 619.895557 448.271634 
L 621.929733 450.473623 
L 623.96391 449.531936 
L 625.998086 450.855961 
L 628.032262 450.537346 
L 630.066439 449.319526 
L 632.100615 445.94928 
L 634.134792 453.327003 
L 636.168968 451.408229 
L 638.203144 451.733925 
L 640.237321 452.215388 
L 642.271497 447.938858 
L 644.305673 450.169168 
L 646.33985 450.671872 
L 648.374026 453.87219 
L 650.408202 445.439494 
L 652.442379 448.179589 
L 654.476555 443.152542 
L 656.510731 451.691443 
L 658.544908 453.022548 
L 660.579084 451.44363 
L 662.61326 454.162485 
L 664.647437 446.282056 
L 666.681613 433.211731 
L 668.715789 429.876887 
L 670.749966 429.883967 
L 672.784142 442.798524 
L 674.818319 447.464474 
L 678.886671 446.35994 
L 680.920848 450.00632 
L 682.955024 450.891363 
L 684.9892 451.479032 
L 687.023377 447.499876 
L 689.057553 447.825572 
L 691.091729 422.130985 
L 693.125906 420.261773 
L 695.160082 414.009825 
L 697.194258 414.965672 
L 703.296787 414.802824 
L 705.330964 414.795743 
L 707.36514 413.032736 
L 709.399316 414.72494 
L 711.433493 413.407995 
L 713.467669 412.586674 
L 715.501846 421.776968 
L 719.570198 421.904414 
L 721.604375 421.769887 
L 723.638551 421.139736 
L 725.672727 422.010619 
L 731.775256 421.911494 
L 733.809433 448.037983 
L 996.218182 448.037983 
L 996.218182 448.037983 
" style="fill:none;stroke:#ff7f0e;stroke-linecap:square;stroke-width:1.5;"/>
   </g>
   <g id="line2d_18">
    <path clip-path="url(#pa074d47f79)" d="M 184.581818 88.887273 
L 249.675461 88.936835 
L 255.77799 89.135085 
L 257.812167 89.106764 
L 259.846343 89.23421 
L 261.880519 89.191728 
L 263.914696 89.319174 
L 265.948872 89.729834 
L 270.017225 89.751075 
L 272.051401 89.977646 
L 274.085578 90.437869 
L 276.119754 91.655689 
L 278.15393 91.485761 
L 282.222283 92.264599 
L 284.256459 92.958473 
L 286.290636 93.078839 
L 290.358988 94.317901 
L 292.393165 94.650677 
L 294.427341 96.958871 
L 296.461517 98.516548 
L 298.495694 99.698966 
L 300.52987 101.794749 
L 302.564046 104.308273 
L 304.598223 104.683532 
L 306.632399 105.639379 
L 308.666576 110.199124 
L 310.700752 110.036276 
L 312.734928 112.486076 
L 314.769105 117.817579 
L 316.803281 122.426887 
L 318.837457 114.234923 
L 320.871634 115.353618 
L 322.90581 118.362766 
L 324.939986 122.830466 
L 326.974163 120.394826 
L 329.008339 124.175733 
L 331.042515 121.952503 
L 333.076692 126.165311 
L 335.110868 123.361493 
L 337.145044 127.248604 
L 339.179221 137.161093 
L 341.213397 127.935398 
L 343.247573 121.725932 
L 345.28175 124.359822 
L 347.315926 129.648843 
L 349.350103 138.612565 
L 351.384279 143.483845 
L 353.418455 147.484242 
L 355.452632 156.285116 
L 357.486808 159.273023 
L 359.520984 160.285513 
L 361.555161 160.165147 
L 363.589337 174.078033 
L 365.623513 178.616537 
L 367.65769 169.560771 
L 369.691866 173.419561 
L 371.726042 181.901819 
L 373.760219 174.162998 
L 375.794395 183.919719 
L 377.828571 174.934756 
L 379.862748 186.928867 
L 381.896924 209.054958 
L 383.9311 203.723455 
L 385.965277 218.783358 
L 387.999453 220.978266 
L 390.03363 219.519714 
L 392.067806 232.632521 
L 394.101982 239.231406 
L 396.136159 248.457101 
L 398.170335 263.552405 
L 400.204511 239.656227 
L 402.238688 240.286378 
L 404.272864 234.076912 
L 406.30704 255.834825 
L 408.341217 267.467839 
L 410.375393 272.813502 
L 412.409569 259.58033 
L 414.443746 244.074365 
L 420.546275 267.680249 
L 422.580451 272.834743 
L 424.614627 279.808887 
L 426.648804 284.53856 
L 428.68298 287.97961 
L 430.717157 297.070778 
L 432.751333 273.833072 
L 434.785509 277.005069 
L 436.819686 284.658926 
L 438.853862 274.654393 
L 440.888038 273.224162 
L 442.922215 280.8851 
L 444.956391 294.139514 
L 446.990567 280.254949 
L 449.024744 288.015012 
L 451.05892 293.813818 
L 453.093096 299.201963 
L 455.127273 297.318591 
L 457.161449 292.100373 
L 459.195625 267.920981 
L 461.229802 260.968078 
L 463.263978 290.705544 
L 465.298154 292.985417 
L 467.332331 303.705065 
L 469.366507 328.889867 
L 471.400684 332.019382 
L 473.43486 325.675389 
L 475.469036 331.275945 
L 477.503213 346.59782 
L 479.537389 345.195911 
L 481.571565 340.657408 
L 483.605742 349.352076 
L 485.639918 348.990978 
L 487.674094 359.066315 
L 489.708271 363.753506 
L 491.742447 369.878008 
L 493.776623 357.182942 
L 495.8108 367.137913 
L 497.844976 370.833856 
L 499.879152 377.885883 
L 501.913329 373.651835 
L 503.947505 352.516992 
L 505.981681 368.214126 
L 508.015858 367.945073 
L 510.050034 380.732184 
L 512.084211 381.086201 
L 514.118387 387.635524 
L 516.152563 378.749686 
L 518.18674 368.68851 
L 520.220916 371.145391 
L 522.255092 378.693043 
L 524.289269 372.526059 
L 526.323445 362.670213 
L 528.357621 357.713969 
L 530.391798 364.765996 
L 532.425974 361.247063 
L 534.46015 359.661065 
L 536.494327 367.782225 
L 538.528503 395.537194 
L 540.562679 402.730828 
L 542.596856 404.472594 
L 544.631032 384.633456 
L 546.665208 389.136558 
L 548.699385 396.634648 
L 550.733561 392.145706 
L 552.767738 375.004181 
L 554.801914 374.77761 
L 556.83609 394.361856 
L 558.870267 401.052786 
L 560.904443 404.635442 
L 562.938619 414.052307 
L 564.972796 418.081025 
L 567.006972 427.781104 
L 569.041148 428.637826 
L 571.075325 426.039338 
L 573.109501 419.674104 
L 575.143677 420.268853 
L 577.177854 423.278002 
L 579.21203 421.323825 
L 581.246206 410.505052 
L 583.280383 407.0286 
L 585.314559 414.009825 
L 587.348735 413.174343 
L 589.382912 413.188504 
L 591.417088 422.761136 
L 593.451265 422.860261 
L 595.485441 418.137668 
L 597.519617 420.283014 
L 599.553794 407.800358 
L 601.58797 405.116906 
L 603.622146 404.274345 
L 605.656323 401.314759 
L 607.690499 410.625418 
L 609.724675 410.929873 
L 611.758852 410.951114 
L 613.793028 406.759547 
L 615.827204 404.762889 
L 617.861381 404.769969 
L 619.895557 412.147693 
L 621.929733 407.892403 
L 623.96391 410.632498 
L 625.998086 411.128122 
L 628.032262 412.006086 
L 630.066439 408.586277 
L 632.100615 405.59837 
L 634.134792 420.438782 
L 636.168968 416.374661 
L 638.203144 412.006086 
L 640.237321 411.333453 
L 642.271497 394.524704 
L 644.305673 408.919054 
L 646.33985 407.134806 
L 648.374026 409.081902 
L 650.408202 403.587551 
L 652.442379 395.692961 
L 654.476555 406.355967 
L 656.510731 407.382618 
L 658.544908 406.20728 
L 660.579084 406.058592 
L 662.61326 410.512132 
L 664.647437 415.694948 
L 666.681613 412.834487 
L 668.715789 417.790731 
L 670.749966 421.054772 
L 672.784142 406.632101 
L 674.818319 423.355885 
L 676.852495 424.191367 
L 678.886671 423.978956 
L 680.920848 398.482619 
L 682.955024 405.485084 
L 684.9892 411.07856 
L 687.023377 420.955647 
L 689.057553 418.888185 
L 691.091729 419.001471 
L 693.125906 418.930667 
L 695.160082 423.001868 
L 697.194258 418.279275 
L 699.228435 424.828598 
L 701.262611 426.209266 
L 703.296787 444.802263 
L 705.330964 446.296217 
L 707.36514 436.263362 
L 711.433493 436.263362 
L 713.467669 437.785637 
L 715.501846 440.823107 
L 717.536022 448.037983 
L 721.604375 448.037983 
L 723.638551 447.698126 
L 731.775256 447.683965 
L 733.809433 447.9955 
L 739.911962 448.023822 
L 741.946138 447.797251 
L 746.014491 447.797251 
L 748.048667 446.466145 
L 752.11702 446.36702 
L 754.151196 447.37951 
L 756.185373 447.37951 
L 758.219549 447.945938 
L 996.218182 448.037983 
L 996.218182 448.037983 
" style="fill:none;stroke:#2ca02c;stroke-linecap:square;stroke-width:1.5;"/>
   </g>
   <g id="line2d_19">
    <path clip-path="url(#pa074d47f79)" d="M 184.581818 88.887273 
L 249.675461 88.936835 
L 255.77799 89.23421 
L 259.846343 89.227129 
L 265.948872 90.267941 
L 267.983049 91.66985 
L 270.017225 91.726493 
L 274.085578 92.696501 
L 278.15393 96.371202 
L 280.188107 95.896818 
L 282.222283 94.424106 
L 286.290636 96.696898 
L 288.324812 96.413684 
L 290.358988 96.923469 
L 292.393165 97.921798 
L 294.427341 97.978441 
L 296.461517 100.491965 
L 298.495694 103.317024 
L 300.52987 104.789737 
L 302.564046 107.168734 
L 306.632399 113.434843 
L 308.666576 115.530627 
L 310.700752 116.989178 
L 312.734928 110.149561 
L 314.769105 119.127444 
L 316.803281 123.283609 
L 318.837457 125.308589 
L 320.871634 140.163161 
L 322.90581 141.869525 
L 324.939986 155.605403 
L 326.974163 155.916938 
L 329.008339 159.889014 
L 331.042515 172.761089 
L 333.076692 176.6482 
L 335.110868 191.148755 
L 337.145044 197.563552 
L 339.179221 199.609772 
L 341.213397 195.949232 
L 343.247573 200.834673 
L 345.28175 210.074528 
L 347.315926 209.862118 
L 349.350103 218.875402 
L 351.384279 229.248114 
L 353.418455 233.347636 
L 355.452632 244.7824 
L 357.486808 254.156782 
L 359.520984 240.038566 
L 361.555161 250.857339 
L 363.589337 252.372534 
L 365.623513 243.054795 
L 367.65769 253.491229 
L 369.691866 259.99807 
L 371.726042 271.262906 
L 373.760219 276.247471 
L 375.794395 281.770144 
L 377.828571 278.300773 
L 379.862748 287.922967 
L 381.896924 302.522647 
L 383.9311 298.437286 
L 385.965277 300.773801 
L 387.999453 306.735455 
L 390.03363 320.62002 
L 392.067806 324.754943 
L 394.101982 326.383424 
L 396.136159 331.198061 
L 398.170335 343.085967 
L 400.204511 343.071807 
L 402.238688 347.723596 
L 404.272864 337.888991 
L 406.30704 340.367113 
L 408.341217 340.71405 
L 410.375393 327.353432 
L 412.409569 327.148101 
L 414.443746 322.184777 
L 416.477922 325.533782 
L 418.512098 321.490902 
L 420.546275 316.237283 
L 422.580451 316.697506 
L 424.614627 318.439272 
L 426.648804 333.244282 
L 428.68298 344.431234 
L 430.717157 343.057646 
L 432.751333 354.393285 
L 434.785509 378.877132 
L 436.819686 379.556846 
L 438.853862 392.797099 
L 440.888038 401.14483 
L 442.922215 407.63751 
L 444.956391 399.707519 
L 446.990567 407.460502 
L 449.024744 406.157717 
L 451.05892 414.958591 
L 453.093096 428.913959 
L 455.127273 432.064715 
L 457.161449 429.558271 
L 463.263978 408.005689 
L 465.298154 410.101472 
L 467.332331 406.228521 
L 469.366507 414.788663 
L 471.400684 415.171002 
L 473.43486 419.610381 
L 477.503213 407.042761 
L 479.537389 392.570527 
L 481.571565 393.186518 
L 483.605742 401.158991 
L 485.639918 419.773229 
L 487.674094 414.370922 
L 489.708271 413.832816 
L 491.742447 407.892403 
L 493.776623 410.228918 
L 495.8108 420.190969 
L 497.844976 440.07967 
L 499.879152 441.318731 
L 501.913329 447.733527 
L 503.947505 447.025493 
L 505.981681 447.400751 
L 508.015858 447.953018 
L 510.050034 451.741005 
L 512.084211 451.03297 
L 514.118387 447.315787 
L 516.152563 446.16169 
L 520.220916 447.747688 
L 522.255092 447.506956 
L 524.289269 450.487783 
L 526.323445 450.197489 
L 528.357621 451.776407 
L 530.391798 451.818889 
L 532.425974 451.549836 
L 534.46015 451.599398 
L 536.494327 449.553177 
L 538.528503 451.64188 
L 540.562679 451.804728 
L 542.596856 452.44904 
L 544.631032 452.342835 
L 546.665208 453.950074 
L 548.699385 453.992556 
L 550.733561 453.758905 
L 552.767738 453.935913 
L 556.83609 453.610217 
L 558.870267 454.28285 
L 560.904443 453.489851 
L 562.938619 453.079191 
L 564.972796 453.440289 
L 567.006972 453.496932 
L 569.041148 452.23663 
L 571.075325 453.681021 
L 573.109501 452.04546 
L 575.143677 440.596536 
L 577.177854 446.069645 
L 579.21203 448.377839 
L 581.246206 445.75103 
L 583.280383 437.84936 
L 585.314559 433.735677 
L 587.348735 446.529868 
L 589.382912 442.11173 
L 591.417088 438.217538 
L 593.451265 447.967179 
L 595.485441 449.638141 
L 597.519617 450.027561 
L 599.553794 449.41157 
L 601.58797 451.245381 
L 603.622146 447.011332 
L 605.656323 447.110457 
L 607.690499 441.913481 
L 609.724675 444.604013 
L 611.758852 445.637744 
L 613.793028 444.54737 
L 615.827204 449.022151 
L 617.861381 451.054211 
L 619.895557 450.487783 
L 621.929733 449.156678 
L 623.96391 449.531936 
L 628.032262 446.791841 
L 630.066439 448.547768 
L 632.100615 447.506956 
L 634.134792 448.476964 
L 636.168968 453.560655 
L 638.203144 451.082533 
L 640.237321 447.634403 
L 642.271497 451.181658 
L 644.305673 450.997568 
L 648.374026 447.662724 
L 650.408202 450.395739 
L 652.442379 448.668134 
L 654.476555 447.478635 
L 656.510731 444.958031 
L 658.544908 449.546097 
L 660.579084 451.44363 
L 662.61326 448.958428 
L 664.647437 441.021357 
L 666.681613 441.941802 
L 668.715789 429.876887 
L 670.749966 442.798524 
L 672.784142 442.798524 
L 674.818319 444.150871 
L 676.852495 447.089216 
L 678.886671 445.680226 
L 680.920848 444.972191 
L 682.955024 450.728515 
L 684.9892 449.170838 
L 687.023377 448.682294 
L 689.057553 445.913878 
L 691.091729 445.531539 
L 693.125906 444.653576 
L 695.160082 449.631061 
L 697.194258 429.53703 
L 699.228435 414.151432 
L 701.262611 415.270127 
L 705.330964 415.270127 
L 707.36514 415.617064 
L 709.399316 421.883173 
L 717.536022 421.83361 
L 719.570198 421.175138 
L 721.604375 420.962727 
L 723.638551 421.139736 
L 725.672727 421.139736 
L 727.706904 421.486673 
L 731.775256 421.43003 
L 733.809433 422.336315 
L 735.843609 448.037983 
L 996.218182 448.037983 
L 996.218182 448.037983 
" style="fill:none;stroke:#d62728;stroke-dasharray:5.55,2.4;stroke-dashoffset:0;stroke-width:1.5;"/>
   </g>
   <g id="line2d_20">
    <path clip-path="url(#pa074d47f79)" d="M 184.581818 88.887273 
L 249.675461 88.936835 
L 259.846343 89.375817 
L 263.914696 89.340415 
L 265.948872 89.751075 
L 267.983049 89.83604 
L 270.017225 89.751075 
L 272.051401 90.190057 
L 274.085578 90.437869 
L 276.119754 91.655689 
L 278.15393 91.485761 
L 282.222283 92.264599 
L 284.256459 92.434528 
L 286.290636 93.078839 
L 288.324812 93.354973 
L 290.358988 94.317901 
L 292.393165 95.089659 
L 294.427341 95.585283 
L 296.461517 96.866826 
L 298.495694 98.672315 
L 300.52987 101.794749 
L 302.564046 102.269133 
L 304.598223 104.683532 
L 306.632399 105.639379 
L 308.666576 110.199124 
L 310.700752 112.082496 
L 312.734928 112.486076 
L 314.769105 106.510262 
L 316.803281 108.846777 
L 318.837457 107.579394 
L 320.871634 111.438185 
L 322.90581 116.040412 
L 324.939986 117.647651 
L 326.974163 121.095781 
L 329.008339 124.175733 
L 331.042515 121.952503 
L 333.076692 115.679314 
L 335.110868 120.196577 
L 337.145044 117.683053 
L 339.179221 112.925058 
L 341.213397 116.953777 
L 343.247573 119.693872 
L 347.315926 135.199836 
L 349.350103 138.612565 
L 351.384279 143.483845 
L 353.418455 147.484242 
L 355.452632 147.547965 
L 357.486808 153.438816 
L 359.520984 156.35592 
L 361.555161 162.388377 
L 363.589337 171.125528 
L 365.623513 182.206274 
L 367.65769 172.322107 
L 369.691866 167.896889 
L 371.726042 169.185512 
L 373.760219 173.299195 
L 375.794395 180.655678 
L 377.828571 183.74979 
L 379.862748 185.987181 
L 381.896924 169.666976 
L 383.9311 160.165147 
L 385.965277 174.856872 
L 390.03363 195.935071 
L 392.067806 220.156946 
L 394.101982 219.767526 
L 396.136159 226.592983 
L 398.170335 234.43093 
L 400.204511 233.390118 
L 404.272864 253.760283 
L 406.30704 241.865296 
L 408.341217 235.25933 
L 410.375393 243.132679 
L 412.409569 258.135938 
L 414.443746 265.945563 
L 416.477922 253.71072 
L 418.512098 258.829813 
L 420.546275 263.623209 
L 422.580451 271.078817 
L 424.614627 274.555268 
L 426.648804 272.806422 
L 428.68298 266.604036 
L 430.717157 269.202524 
L 432.751333 270.505308 
L 434.785509 262.469112 
L 436.819686 267.135062 
L 438.853862 274.654393 
L 440.888038 260.252963 
L 442.922215 263.24795 
L 444.956391 284.156221 
L 446.990567 285.926309 
L 449.024744 294.146594 
L 451.05892 304.243172 
L 453.093096 276.573168 
L 455.127273 272.516127 
L 457.161449 307.429329 
L 459.195625 300.455185 
L 461.229802 297.863777 
L 463.263978 323.480481 
L 465.298154 328.004824 
L 467.332331 330.405062 
L 469.366507 337.811107 
L 471.400684 328.082707 
L 473.43486 338.292571 
L 475.469036 332.58581 
L 477.503213 328.656216 
L 479.537389 328.918189 
L 481.571565 321.590027 
L 483.605742 305.956616 
L 485.639918 308.009918 
L 487.674094 321.774116 
L 491.742447 341.804424 
L 493.776623 350.768146 
L 495.8108 357.409514 
L 497.844976 365.325344 
L 499.879152 368.030037 
L 501.913329 378.997498 
L 503.947505 394.368936 
L 505.981681 396.620487 
L 508.015858 381.192406 
L 512.084211 386.403543 
L 514.118387 381.079121 
L 516.152563 387.628444 
L 518.18674 385.31317 
L 520.220916 375.358199 
L 522.255092 378.693043 
L 524.289269 372.115399 
L 526.323445 364.758916 
L 528.357621 359.97968 
L 530.391798 359.392011 
L 532.425974 367.060029 
L 534.46015 387.663845 
L 536.494327 382.304021 
L 538.528503 395.65756 
L 540.562679 401.208553 
L 542.596856 412.91237 
L 544.631032 421.543316 
L 546.665208 416.218894 
L 548.699385 422.485002 
L 550.733561 399.693359 
L 552.767738 406.178958 
L 554.801914 377.885883 
L 556.83609 388.16655 
L 558.870267 392.393519 
L 560.904443 385.185723 
L 564.972796 404.932817 
L 567.006972 394.029079 
L 569.041148 400.288108 
L 571.075325 394.347695 
L 573.109501 403.842443 
L 575.143677 409.683731 
L 577.177854 403.686676 
L 579.21203 403.099007 
L 581.246206 396.811657 
L 583.280383 389.108237 
L 585.314559 391.473073 
L 587.348735 389.653424 
L 589.382912 397.512611 
L 591.417088 396.967424 
L 593.451265 398.794154 
L 595.485441 398.90744 
L 597.519617 397.533852 
L 599.553794 385.157402 
L 601.58797 405.116906 
L 603.622146 402.235204 
L 605.656323 402.55382 
L 607.690499 402.475936 
L 609.724675 401.442205 
L 611.758852 403.460104 
L 613.793028 398.928681 
L 615.827204 404.897415 
L 617.861381 404.58588 
L 619.895557 412.147693 
L 621.929733 407.892403 
L 623.96391 407.885323 
L 625.998086 410.285561 
L 628.032262 405.357638 
L 630.066439 397.250638 
L 632.100615 411.418417 
L 634.134792 402.185642 
L 636.168968 400.281028 
L 638.203144 398.588824 
L 640.237321 395.799167 
L 642.271497 396.464719 
L 644.305673 391.048252 
L 646.33985 402.681266 
L 648.374026 409.081902 
L 650.408202 403.587551 
L 652.442379 395.692961 
L 654.476555 393.328125 
L 656.510731 408.756206 
L 658.544908 414.158512 
L 660.579084 413.52128 
L 662.61326 415.093118 
L 664.647437 410.186436 
L 666.681613 414.824065 
L 668.715789 422.322154 
L 670.749966 430.407913 
L 672.784142 434.79773 
L 674.818319 435.172988 
L 676.852495 436.589058 
L 678.886671 446.048404 
L 680.920848 441.198365 
L 682.955024 418.279275 
L 684.9892 430.592002 
L 687.023377 438.224619 
L 689.057553 430.74069 
L 691.091729 420.686594 
L 693.125906 418.151829 
L 695.160082 424.354215 
L 697.194258 424.354215 
L 699.228435 424.828598 
L 705.330964 425.253419 
L 707.36514 421.61412 
L 709.399316 424.736554 
L 711.433493 446.197092 
L 713.467669 447.846813 
L 715.501846 448.037983 
L 727.706904 448.037983 
L 729.74108 447.683965 
L 731.775256 447.9955 
L 743.980314 447.903456 
L 748.048667 447.797251 
L 750.082843 448.037983 
L 752.11702 448.037983 
L 754.151196 447.924697 
L 774.49296 448.037983 
L 996.218182 448.037983 
L 996.218182 448.037983 
" style="fill:none;stroke:#9467bd;stroke-dasharray:5.55,2.4;stroke-dashoffset:0;stroke-width:1.5;"/>
   </g>
   <g id="line2d_21">
    <path clip-path="url(#pa074d47f79)" d="M 184.581818 88.887273 
L 247.641285 88.887273 
L 249.675461 89.552826 
L 253.743814 91.747734 
L 255.77799 92.045108 
L 257.812167 92.632777 
L 259.846343 93.000956 
L 261.880519 92.519492 
L 263.914696 92.200876 
L 265.948872 91.407877 
L 270.017225 92.632777 
L 272.051401 92.597376 
L 274.085578 92.901831 
L 276.119754 91.613207 
L 278.15393 91.492841 
L 280.188107 91.712332 
L 282.222283 93.69483 
L 284.256459 94.339142 
L 286.290636 96.491568 
L 288.324812 96.208354 
L 290.358988 97.496977 
L 292.393165 103.147096 
L 294.427341 105.002147 
L 296.461517 105.157915 
L 298.495694 107.869689 
L 300.52987 123.474778 
L 302.564046 123.191564 
L 304.598223 125.896258 
L 306.632399 133.089892 
L 308.666576 138.336431 
L 310.700752 140.163161 
L 312.734928 138.407235 
L 314.769105 138.32227 
L 316.803281 141.96157 
L 318.837457 142.527998 
L 320.871634 142.719167 
L 322.90581 152.957352 
L 324.939986 166.863158 
L 326.974163 174.736506 
L 329.008339 186.624412 
L 331.042515 177.037619 
L 333.076692 173.093865 
L 335.110868 180.89641 
L 337.145044 178.793546 
L 339.179221 189.569837 
L 341.213397 184.408263 
L 343.247573 212.673017 
L 345.28175 218.634671 
L 347.315926 222.181926 
L 349.350103 240.385503 
L 351.384279 241.079377 
L 353.418455 257.505787 
L 355.452632 240.789083 
L 357.486808 230.961558 
L 359.520984 243.550419 
L 361.555161 248.796958 
L 363.589337 240.817404 
L 365.623513 274.413661 
L 367.65769 267.191705 
L 369.691866 280.099181 
L 371.726042 281.763063 
L 373.760219 297.261948 
L 375.794395 287.660994 
L 377.828571 255.714459 
L 379.862748 254.680728 
L 381.896924 255.997673 
L 383.9311 258.900616 
L 385.965277 289.303635 
L 387.999453 286.96004 
L 390.03363 281.947153 
L 392.067806 285.069587 
L 394.101982 282.655187 
L 396.136159 267.935142 
L 398.170335 273.443653 
L 400.204511 291.746356 
L 402.238688 321.271412 
L 404.272864 347.19965 
L 406.30704 370.543561 
L 408.341217 365.736004 
L 410.375393 356.545711 
L 412.409569 361.409911 
L 414.443746 367.626457 
L 416.477922 364.079202 
L 418.512098 376.342367 
L 420.546275 386.800043 
L 422.580451 384.293599 
L 424.614627 384.265278 
L 426.648804 384.860027 
L 428.68298 384.860027 
L 430.717157 400.53592 
L 432.751333 398.638387 
L 434.785509 399.247297 
L 436.819686 402.865355 
L 438.853862 406.150637 
L 440.888038 403.318497 
L 444.956391 403.276015 
L 446.990567 403.792881 
L 449.024744 408.614599 
L 451.05892 408.614599 
L 453.093096 409.407598 
L 455.127273 411.390095 
L 457.161449 410.809507 
L 459.195625 409.131464 
L 461.229802 427.080149 
L 463.263978 433.919766 
L 465.298154 435.243792 
L 467.332331 436.185478 
L 469.366507 435.980148 
L 471.400684 448.356598 
L 473.43486 458.276167 
L 475.469036 460.938379 
L 477.503213 459.663916 
L 479.537389 461.058745 
L 481.571565 463.374019 
L 483.605742 471.367733 
L 485.639918 469.89502 
L 487.674094 462.545618 
L 489.708271 459.522309 
L 491.742447 461.518967 
L 493.776623 460.449835 
L 495.8108 472.507669 
L 497.844976 472.592633 
L 499.879152 470.610136 
L 501.913329 469.420637 
L 503.947505 451.939255 
L 505.981681 451.974657 
L 508.015858 445.694387 
L 510.050034 446.551109 
L 512.084211 446.515707 
L 514.118387 446.614832 
L 516.152563 443.081738 
L 520.220916 443.138381 
L 522.255092 451.932175 
L 524.289269 459.047925 
L 526.323445 458.785952 
L 528.357621 450.678953 
L 530.391798 453.815547 
L 532.425974 464.308625 
L 534.46015 463.692634 
L 536.494327 463.706795 
L 538.528503 465.448561 
L 540.562679 466.170757 
L 542.596856 466.191998 
L 544.631032 458.686828 
L 546.665208 457.787623 
L 548.699385 457.51149 
L 550.733561 458.33989 
L 552.767738 458.52398 
L 554.801914 458.035435 
L 558.870267 458.410694 
L 560.904443 458.764711 
L 562.938619 458.970042 
L 564.972796 459.062086 
L 567.006972 458.948801 
L 569.041148 459.040845 
L 571.075325 466.730104 
L 575.143677 467.296532 
L 577.177854 467.091202 
L 579.21203 467.45938 
L 581.246206 461.292396 
L 583.280383 461.589771 
L 585.314559 469.746333 
L 587.348735 473.244025 
L 589.382912 466.227399 
L 591.417088 465.597248 
L 593.451265 466.928354 
L 595.485441 465.384838 
L 597.519617 462.425252 
L 599.553794 461.611012 
L 601.58797 460.003773 
L 603.622146 459.281577 
L 605.656323 459.309898 
L 607.690499 458.693908 
L 609.724675 458.587703 
L 611.758852 456.746812 
L 613.793028 458.835515 
L 615.827204 457.943391 
L 617.861381 458.93464 
L 619.895557 461.037504 
L 621.929733 461.037504 
L 623.96391 480.855401 
L 625.998086 482.703372 
L 628.032262 482.703372 
L 630.066439 482.915782 
L 632.100615 461.957949 
L 634.134792 462.404011 
L 636.168968 483.298121 
L 642.271497 483.701701 
L 644.305673 484.232727 
L 646.33985 479.757947 
L 648.374026 479.757947 
L 650.408202 479.609259 
L 652.442379 479.609259 
L 654.476555 475.148639 
L 656.510731 475.148639 
L 658.544908 459.968371 
L 660.579084 459.571871 
L 664.647437 459.571871 
L 666.681613 467.310693 
L 668.715789 467.310693 
L 670.749966 464.478553 
L 672.784142 463.515626 
L 674.818319 467.544344 
L 676.852495 467.615148 
L 678.886671 447.407831 
L 687.023377 447.549438 
L 689.057553 446.126288 
L 691.091729 446.16169 
L 693.125906 440.702741 
L 695.160082 441.715231 
L 697.194258 446.855564 
L 699.228435 446.112128 
L 701.262611 446.041324 
L 703.296787 446.664395 
L 705.330964 447.931777 
L 711.433493 448.030902 
L 713.467669 447.77601 
L 715.501846 447.832652 
L 717.536022 447.38659 
L 719.570198 437.920164 
L 721.604375 438.288342 
L 723.638551 416.14809 
L 725.672727 413.195584 
L 727.706904 447.917617 
L 737.877785 448.002581 
L 743.980314 448.037983 
L 746.014491 441.09924 
L 748.048667 448.037983 
L 750.082843 447.280385 
L 752.11702 447.287465 
L 754.151196 439.824778 
L 756.185373 439.824778 
L 758.219549 457.858427 
L 760.253725 457.936311 
L 762.287902 457.391124 
L 764.322078 457.391124 
L 766.356254 448.037983 
L 772.458783 448.037983 
L 774.49296 448.370759 
L 776.527136 448.073384 
L 784.663841 448.037983 
L 996.218182 448.037983 
L 996.218182 448.037983 
" style="fill:none;stroke:#8c564b;stroke-dasharray:5.55,2.4;stroke-dashoffset:0;stroke-width:1.5;"/>
   </g>
   <g id="patch_3">
    <path d="M 144 504 
L 144 69.12 
" style="fill:none;stroke:#000000;stroke-linecap:square;stroke-linejoin:miter;stroke-width:0.8;"/>
   </g>
   <g id="patch_4">
    <path d="M 1036.8 504 
L 1036.8 69.12 
" style="fill:none;stroke:#000000;stroke-linecap:square;stroke-linejoin:miter;stroke-width:0.8;"/>
   </g>
   <g id="patch_5">
    <path d="M 144 504 
L 1036.8 504 
" style="fill:none;stroke:#000000;stroke-linecap:square;stroke-linejoin:miter;stroke-width:0.8;"/>
   </g>
   <g id="patch_6">
    <path d="M 144 69.12 
L 1036.8 69.12 
" style="fill:none;stroke:#000000;stroke-linecap:square;stroke-linejoin:miter;stroke-width:0.8;"/>
   </g>
   <g id="legend_1">
    <g id="patch_7">
     <path d="M 905.367188 166.579375 
L 1029.8 166.579375 
Q 1031.8 166.579375 1031.8 164.579375 
L 1031.8 76.12 
Q 1031.8 74.12 1029.8 74.12 
L 905.367188 74.12 
Q 903.367188 74.12 903.367188 76.12 
L 903.367188 164.579375 
Q 903.367188 166.579375 905.367188 166.579375 
z
" style="fill:#ffffff;opacity:0.8;stroke:#cccccc;stroke-linejoin:miter;"/>
    </g>
    <g id="line2d_22">
     <path d="M 907.367188 82.218438 
L 927.367188 82.218438 
" style="fill:none;stroke:#1f77b4;stroke-linecap:square;stroke-width:1.5;"/>
    </g>
    <g id="line2d_23"/>
    <g id="text_18">
     <!-- taylorfo -->
     <defs>
      <path d="M 18.3125 70.21875 
L 18.3125 54.6875 
L 36.8125 54.6875 
L 36.8125 47.703125 
L 18.3125 47.703125 
L 18.3125 18.015625 
Q 18.3125 11.328125 20.140625 9.421875 
Q 21.96875 7.515625 27.59375 7.515625 
L 36.8125 7.515625 
L 36.8125 0 
L 27.59375 0 
Q 17.1875 0 13.234375 3.875 
Q 9.28125 7.765625 9.28125 18.015625 
L 9.28125 47.703125 
L 2.6875 47.703125 
L 2.6875 54.6875 
L 9.28125 54.6875 
L 9.28125 70.21875 
z
" id="DejaVuSans-116"/>
      <path d="M 9.421875 75.984375 
L 18.40625 75.984375 
L 18.40625 0 
L 9.421875 0 
z
" id="DejaVuSans-108"/>
     </defs>
     <g transform="translate(935.367188 85.718438)scale(0.1 -0.1)">
      <use xlink:href="#DejaVuSans-116"/>
      <use x="39.208984" xlink:href="#DejaVuSans-97"/>
      <use x="100.488281" xlink:href="#DejaVuSans-121"/>
      <use x="159.667969" xlink:href="#DejaVuSans-108"/>
      <use x="187.451172" xlink:href="#DejaVuSans-111"/>
      <use x="248.632812" xlink:href="#DejaVuSans-114"/>
      <use x="289.746094" xlink:href="#DejaVuSans-102"/>
      <use x="324.951172" xlink:href="#DejaVuSans-111"/>
     </g>
    </g>
    <g id="line2d_24">
     <path d="M 907.367188 96.896563 
L 927.367188 96.896563 
" style="fill:none;stroke:#ff7f0e;stroke-linecap:square;stroke-width:1.5;"/>
    </g>
    <g id="line2d_25"/>
    <g id="text_19">
     <!-- taylorfo_abs -->
     <defs>
      <path d="M 50.984375 -16.609375 
L 50.984375 -23.578125 
L -0.984375 -23.578125 
L -0.984375 -16.609375 
z
" id="DejaVuSans-95"/>
     </defs>
     <g transform="translate(935.367188 100.396563)scale(0.1 -0.1)">
      <use xlink:href="#DejaVuSans-116"/>
      <use x="39.208984" xlink:href="#DejaVuSans-97"/>
      <use x="100.488281" xlink:href="#DejaVuSans-121"/>
      <use x="159.667969" xlink:href="#DejaVuSans-108"/>
      <use x="187.451172" xlink:href="#DejaVuSans-111"/>
      <use x="248.632812" xlink:href="#DejaVuSans-114"/>
      <use x="289.746094" xlink:href="#DejaVuSans-102"/>
      <use x="324.951172" xlink:href="#DejaVuSans-111"/>
      <use x="386.132812" xlink:href="#DejaVuSans-95"/>
      <use x="436.132812" xlink:href="#DejaVuSans-97"/>
      <use x="497.412109" xlink:href="#DejaVuSans-98"/>
      <use x="560.888672" xlink:href="#DejaVuSans-115"/>
     </g>
    </g>
    <g id="line2d_26">
     <path d="M 907.367188 111.852813 
L 927.367188 111.852813 
" style="fill:none;stroke:#2ca02c;stroke-linecap:square;stroke-width:1.5;"/>
    </g>
    <g id="line2d_27"/>
    <g id="text_20">
     <!-- taylorfo_sq -->
     <defs>
      <path d="M 14.796875 27.296875 
Q 14.796875 17.390625 18.875 11.75 
Q 22.953125 6.109375 30.078125 6.109375 
Q 37.203125 6.109375 41.296875 11.75 
Q 45.40625 17.390625 45.40625 27.296875 
Q 45.40625 37.203125 41.296875 42.84375 
Q 37.203125 48.484375 30.078125 48.484375 
Q 22.953125 48.484375 18.875 42.84375 
Q 14.796875 37.203125 14.796875 27.296875 
z
M 45.40625 8.203125 
Q 42.578125 3.328125 38.25 0.953125 
Q 33.9375 -1.421875 27.875 -1.421875 
Q 17.96875 -1.421875 11.734375 6.484375 
Q 5.515625 14.40625 5.515625 27.296875 
Q 5.515625 40.1875 11.734375 48.09375 
Q 17.96875 56 27.875 56 
Q 33.9375 56 38.25 53.625 
Q 42.578125 51.265625 45.40625 46.390625 
L 45.40625 54.6875 
L 54.390625 54.6875 
L 54.390625 -20.796875 
L 45.40625 -20.796875 
z
" id="DejaVuSans-113"/>
     </defs>
     <g transform="translate(935.367188 115.352813)scale(0.1 -0.1)">
      <use xlink:href="#DejaVuSans-116"/>
      <use x="39.208984" xlink:href="#DejaVuSans-97"/>
      <use x="100.488281" xlink:href="#DejaVuSans-121"/>
      <use x="159.667969" xlink:href="#DejaVuSans-108"/>
      <use x="187.451172" xlink:href="#DejaVuSans-111"/>
      <use x="248.632812" xlink:href="#DejaVuSans-114"/>
      <use x="289.746094" xlink:href="#DejaVuSans-102"/>
      <use x="324.951172" xlink:href="#DejaVuSans-111"/>
      <use x="386.132812" xlink:href="#DejaVuSans-95"/>
      <use x="436.132812" xlink:href="#DejaVuSans-115"/>
      <use x="488.232422" xlink:href="#DejaVuSans-113"/>
     </g>
    </g>
    <g id="line2d_28">
     <path d="M 907.367188 126.809063 
L 927.367188 126.809063 
" style="fill:none;stroke:#d62728;stroke-dasharray:5.55,2.4;stroke-dashoffset:0;stroke-width:1.5;"/>
    </g>
    <g id="line2d_29"/>
    <g id="text_21">
     <!-- taylorfo_abs_norm -->
     <g transform="translate(935.367188 130.309063)scale(0.1 -0.1)">
      <use xlink:href="#DejaVuSans-116"/>
      <use x="39.208984" xlink:href="#DejaVuSans-97"/>
      <use x="100.488281" xlink:href="#DejaVuSans-121"/>
      <use x="159.667969" xlink:href="#DejaVuSans-108"/>
      <use x="187.451172" xlink:href="#DejaVuSans-111"/>
      <use x="248.632812" xlink:href="#DejaVuSans-114"/>
      <use x="289.746094" xlink:href="#DejaVuSans-102"/>
      <use x="324.951172" xlink:href="#DejaVuSans-111"/>
      <use x="386.132812" xlink:href="#DejaVuSans-95"/>
      <use x="436.132812" xlink:href="#DejaVuSans-97"/>
      <use x="497.412109" xlink:href="#DejaVuSans-98"/>
      <use x="560.888672" xlink:href="#DejaVuSans-115"/>
      <use x="612.988281" xlink:href="#DejaVuSans-95"/>
      <use x="662.988281" xlink:href="#DejaVuSans-110"/>
      <use x="726.367188" xlink:href="#DejaVuSans-111"/>
      <use x="787.548828" xlink:href="#DejaVuSans-114"/>
      <use x="826.912109" xlink:href="#DejaVuSans-109"/>
     </g>
    </g>
    <g id="line2d_30">
     <path d="M 907.367188 141.765313 
L 927.367188 141.765313 
" style="fill:none;stroke:#9467bd;stroke-dasharray:5.55,2.4;stroke-dashoffset:0;stroke-width:1.5;"/>
    </g>
    <g id="line2d_31"/>
    <g id="text_22">
     <!-- taylorfo_sq_norm -->
     <g transform="translate(935.367188 145.265313)scale(0.1 -0.1)">
      <use xlink:href="#DejaVuSans-116"/>
      <use x="39.208984" xlink:href="#DejaVuSans-97"/>
      <use x="100.488281" xlink:href="#DejaVuSans-121"/>
      <use x="159.667969" xlink:href="#DejaVuSans-108"/>
      <use x="187.451172" xlink:href="#DejaVuSans-111"/>
      <use x="248.632812" xlink:href="#DejaVuSans-114"/>
      <use x="289.746094" xlink:href="#DejaVuSans-102"/>
      <use x="324.951172" xlink:href="#DejaVuSans-111"/>
      <use x="386.132812" xlink:href="#DejaVuSans-95"/>
      <use x="436.132812" xlink:href="#DejaVuSans-115"/>
      <use x="488.232422" xlink:href="#DejaVuSans-113"/>
      <use x="551.708984" xlink:href="#DejaVuSans-95"/>
      <use x="601.708984" xlink:href="#DejaVuSans-110"/>
      <use x="665.087891" xlink:href="#DejaVuSans-111"/>
      <use x="726.269531" xlink:href="#DejaVuSans-114"/>
      <use x="765.632812" xlink:href="#DejaVuSans-109"/>
     </g>
    </g>
    <g id="line2d_32">
     <path d="M 907.367188 156.721563 
L 927.367188 156.721563 
" style="fill:none;stroke:#8c564b;stroke-dasharray:5.55,2.4;stroke-dashoffset:0;stroke-width:1.5;"/>
    </g>
    <g id="line2d_33"/>
    <g id="text_23">
     <!-- Molchanov_group -->
     <defs>
      <path d="M 9.8125 72.90625 
L 24.515625 72.90625 
L 43.109375 23.296875 
L 61.8125 72.90625 
L 76.515625 72.90625 
L 76.515625 0 
L 66.890625 0 
L 66.890625 64.015625 
L 48.09375 14.015625 
L 38.1875 14.015625 
L 19.390625 64.015625 
L 19.390625 0 
L 9.8125 0 
z
" id="DejaVuSans-77"/>
      <path d="M 54.890625 33.015625 
L 54.890625 0 
L 45.90625 0 
L 45.90625 32.71875 
Q 45.90625 40.484375 42.875 44.328125 
Q 39.84375 48.1875 33.796875 48.1875 
Q 26.515625 48.1875 22.3125 43.546875 
Q 18.109375 38.921875 18.109375 30.90625 
L 18.109375 0 
L 9.078125 0 
L 9.078125 75.984375 
L 18.109375 75.984375 
L 18.109375 46.1875 
Q 21.34375 51.125 25.703125 53.5625 
Q 30.078125 56 35.796875 56 
Q 45.21875 56 50.046875 50.171875 
Q 54.890625 44.34375 54.890625 33.015625 
z
" id="DejaVuSans-104"/>
      <path d="M 2.984375 54.6875 
L 12.5 54.6875 
L 29.59375 8.796875 
L 46.6875 54.6875 
L 56.203125 54.6875 
L 35.6875 0 
L 23.484375 0 
z
" id="DejaVuSans-118"/>
      <path d="M 45.40625 27.984375 
Q 45.40625 37.75 41.375 43.109375 
Q 37.359375 48.484375 30.078125 48.484375 
Q 22.859375 48.484375 18.828125 43.109375 
Q 14.796875 37.75 14.796875 27.984375 
Q 14.796875 18.265625 18.828125 12.890625 
Q 22.859375 7.515625 30.078125 7.515625 
Q 37.359375 7.515625 41.375 12.890625 
Q 45.40625 18.265625 45.40625 27.984375 
z
M 54.390625 6.78125 
Q 54.390625 -7.171875 48.1875 -13.984375 
Q 42 -20.796875 29.203125 -20.796875 
Q 24.46875 -20.796875 20.265625 -20.09375 
Q 16.0625 -19.390625 12.109375 -17.921875 
L 12.109375 -9.1875 
Q 16.0625 -11.328125 19.921875 -12.34375 
Q 23.78125 -13.375 27.78125 -13.375 
Q 36.625 -13.375 41.015625 -8.765625 
Q 45.40625 -4.15625 45.40625 5.171875 
L 45.40625 9.625 
Q 42.625 4.78125 38.28125 2.390625 
Q 33.9375 0 27.875 0 
Q 17.828125 0 11.671875 7.65625 
Q 5.515625 15.328125 5.515625 27.984375 
Q 5.515625 40.671875 11.671875 48.328125 
Q 17.828125 56 27.875 56 
Q 33.9375 56 38.28125 53.609375 
Q 42.625 51.21875 45.40625 46.390625 
L 45.40625 54.6875 
L 54.390625 54.6875 
z
" id="DejaVuSans-103"/>
     </defs>
     <g transform="translate(935.367188 160.221563)scale(0.1 -0.1)">
      <use xlink:href="#DejaVuSans-77"/>
      <use x="86.279297" xlink:href="#DejaVuSans-111"/>
      <use x="147.460938" xlink:href="#DejaVuSans-108"/>
      <use x="175.244141" xlink:href="#DejaVuSans-99"/>
      <use x="230.224609" xlink:href="#DejaVuSans-104"/>
      <use x="293.603516" xlink:href="#DejaVuSans-97"/>
      <use x="354.882812" xlink:href="#DejaVuSans-110"/>
      <use x="418.261719" xlink:href="#DejaVuSans-111"/>
      <use x="479.443359" xlink:href="#DejaVuSans-118"/>
      <use x="538.623047" xlink:href="#DejaVuSans-95"/>
      <use x="588.623047" xlink:href="#DejaVuSans-103"/>
      <use x="652.099609" xlink:href="#DejaVuSans-114"/>
      <use x="690.962891" xlink:href="#DejaVuSans-111"/>
      <use x="752.144531" xlink:href="#DejaVuSans-117"/>
      <use x="815.523438" xlink:href="#DejaVuSans-112"/>
     </g>
    </g>
   </g>
  </g>
 </g>
 <defs>
  <clipPath id="pa074d47f79">
   <rect height="434.88" width="892.8" x="144" y="69.12"/>
  </clipPath>
 </defs>
</svg>
