<?xml version="1.0" encoding="utf-8" standalone="no"?>
<!DOCTYPE svg PUBLIC "-//W3C//DTD SVG 1.1//EN"
  "http://www.w3.org/Graphics/SVG/1.1/DTD/svg11.dtd">
<!-- Created with matplotlib (https://matplotlib.org/) -->
<svg height="576pt" version="1.1" viewBox="0 0 1152 576" width="1152pt" xmlns="http://www.w3.org/2000/svg" xmlns:xlink="http://www.w3.org/1999/xlink">
 <defs>
  <style type="text/css">
*{stroke-linecap:butt;stroke-linejoin:round;}
  </style>
 </defs>
 <g id="figure_1">
  <g id="patch_1">
   <path d="M 0 576 
L 1152 576 
L 1152 0 
L 0 0 
z
" style="fill:#ffffff;"/>
  </g>
  <g id="axes_1">
   <g id="patch_2">
    <path d="M 144 504 
L 1036.8 504 
L 1036.8 69.12 
L 144 69.12 
z
" style="fill:#ffffff;"/>
   </g>
   <g id="matplotlib.axis_1">
    <g id="xtick_1">
     <g id="line2d_1">
      <defs>
       <path d="M 0 0 
L 0 3.5 
" id="me62af883a8" style="stroke:#000000;stroke-width:0.8;"/>
      </defs>
      <g>
       <use style="stroke:#000000;stroke-width:0.8;" x="182.547642" xlink:href="#me62af883a8" y="504"/>
      </g>
     </g>
     <g id="text_1">
      <!-- 0 -->
      <defs>
       <path d="M 31.78125 66.40625 
Q 24.171875 66.40625 20.328125 58.90625 
Q 16.5 51.421875 16.5 36.375 
Q 16.5 21.390625 20.328125 13.890625 
Q 24.171875 6.390625 31.78125 6.390625 
Q 39.453125 6.390625 43.28125 13.890625 
Q 47.125 21.390625 47.125 36.375 
Q 47.125 51.421875 43.28125 58.90625 
Q 39.453125 66.40625 31.78125 66.40625 
z
M 31.78125 74.21875 
Q 44.046875 74.21875 50.515625 64.515625 
Q 56.984375 54.828125 56.984375 36.375 
Q 56.984375 17.96875 50.515625 8.265625 
Q 44.046875 -1.421875 31.78125 -1.421875 
Q 19.53125 -1.421875 13.0625 8.265625 
Q 6.59375 17.96875 6.59375 36.375 
Q 6.59375 54.828125 13.0625 64.515625 
Q 19.53125 74.21875 31.78125 74.21875 
z
" id="DejaVuSans-48"/>
      </defs>
      <g transform="translate(179.366392 518.598438)scale(0.1 -0.1)">
       <use xlink:href="#DejaVuSans-48"/>
      </g>
     </g>
    </g>
    <g id="xtick_2">
     <g id="line2d_2">
      <g>
       <use style="stroke:#000000;stroke-width:0.8;" x="284.256459" xlink:href="#me62af883a8" y="504"/>
      </g>
     </g>
     <g id="text_2">
      <!-- 50 -->
      <defs>
       <path d="M 10.796875 72.90625 
L 49.515625 72.90625 
L 49.515625 64.59375 
L 19.828125 64.59375 
L 19.828125 46.734375 
Q 21.96875 47.46875 24.109375 47.828125 
Q 26.265625 48.1875 28.421875 48.1875 
Q 40.625 48.1875 47.75 41.5 
Q 54.890625 34.8125 54.890625 23.390625 
Q 54.890625 11.625 47.5625 5.09375 
Q 40.234375 -1.421875 26.90625 -1.421875 
Q 22.3125 -1.421875 17.546875 -0.640625 
Q 12.796875 0.140625 7.71875 1.703125 
L 7.71875 11.625 
Q 12.109375 9.234375 16.796875 8.0625 
Q 21.484375 6.890625 26.703125 6.890625 
Q 35.15625 6.890625 40.078125 11.328125 
Q 45.015625 15.765625 45.015625 23.390625 
Q 45.015625 31 40.078125 35.4375 
Q 35.15625 39.890625 26.703125 39.890625 
Q 22.75 39.890625 18.8125 39.015625 
Q 14.890625 38.140625 10.796875 36.28125 
z
" id="DejaVuSans-53"/>
      </defs>
      <g transform="translate(277.893959 518.598438)scale(0.1 -0.1)">
       <use xlink:href="#DejaVuSans-53"/>
       <use x="63.623047" xlink:href="#DejaVuSans-48"/>
      </g>
     </g>
    </g>
    <g id="xtick_3">
     <g id="line2d_3">
      <g>
       <use style="stroke:#000000;stroke-width:0.8;" x="385.965277" xlink:href="#me62af883a8" y="504"/>
      </g>
     </g>
     <g id="text_3">
      <!-- 100 -->
      <defs>
       <path d="M 12.40625 8.296875 
L 28.515625 8.296875 
L 28.515625 63.921875 
L 10.984375 60.40625 
L 10.984375 69.390625 
L 28.421875 72.90625 
L 38.28125 72.90625 
L 38.28125 8.296875 
L 54.390625 8.296875 
L 54.390625 0 
L 12.40625 0 
z
" id="DejaVuSans-49"/>
      </defs>
      <g transform="translate(376.421527 518.598438)scale(0.1 -0.1)">
       <use xlink:href="#DejaVuSans-49"/>
       <use x="63.623047" xlink:href="#DejaVuSans-48"/>
       <use x="127.246094" xlink:href="#DejaVuSans-48"/>
      </g>
     </g>
    </g>
    <g id="xtick_4">
     <g id="line2d_4">
      <g>
       <use style="stroke:#000000;stroke-width:0.8;" x="487.674094" xlink:href="#me62af883a8" y="504"/>
      </g>
     </g>
     <g id="text_4">
      <!-- 150 -->
      <g transform="translate(478.130344 518.598438)scale(0.1 -0.1)">
       <use xlink:href="#DejaVuSans-49"/>
       <use x="63.623047" xlink:href="#DejaVuSans-53"/>
       <use x="127.246094" xlink:href="#DejaVuSans-48"/>
      </g>
     </g>
    </g>
    <g id="xtick_5">
     <g id="line2d_5">
      <g>
       <use style="stroke:#000000;stroke-width:0.8;" x="589.382912" xlink:href="#me62af883a8" y="504"/>
      </g>
     </g>
     <g id="text_5">
      <!-- 200 -->
      <defs>
       <path d="M 19.1875 8.296875 
L 53.609375 8.296875 
L 53.609375 0 
L 7.328125 0 
L 7.328125 8.296875 
Q 12.9375 14.109375 22.625 23.890625 
Q 32.328125 33.6875 34.8125 36.53125 
Q 39.546875 41.84375 41.421875 45.53125 
Q 43.3125 49.21875 43.3125 52.78125 
Q 43.3125 58.59375 39.234375 62.25 
Q 35.15625 65.921875 28.609375 65.921875 
Q 23.96875 65.921875 18.8125 64.3125 
Q 13.671875 62.703125 7.8125 59.421875 
L 7.8125 69.390625 
Q 13.765625 71.78125 18.9375 73 
Q 24.125 74.21875 28.421875 74.21875 
Q 39.75 74.21875 46.484375 68.546875 
Q 53.21875 62.890625 53.21875 53.421875 
Q 53.21875 48.921875 51.53125 44.890625 
Q 49.859375 40.875 45.40625 35.40625 
Q 44.1875 33.984375 37.640625 27.21875 
Q 31.109375 20.453125 19.1875 8.296875 
z
" id="DejaVuSans-50"/>
      </defs>
      <g transform="translate(579.839162 518.598438)scale(0.1 -0.1)">
       <use xlink:href="#DejaVuSans-50"/>
       <use x="63.623047" xlink:href="#DejaVuSans-48"/>
       <use x="127.246094" xlink:href="#DejaVuSans-48"/>
      </g>
     </g>
    </g>
    <g id="xtick_6">
     <g id="line2d_6">
      <g>
       <use style="stroke:#000000;stroke-width:0.8;" x="691.091729" xlink:href="#me62af883a8" y="504"/>
      </g>
     </g>
     <g id="text_6">
      <!-- 250 -->
      <g transform="translate(681.547979 518.598438)scale(0.1 -0.1)">
       <use xlink:href="#DejaVuSans-50"/>
       <use x="63.623047" xlink:href="#DejaVuSans-53"/>
       <use x="127.246094" xlink:href="#DejaVuSans-48"/>
      </g>
     </g>
    </g>
    <g id="xtick_7">
     <g id="line2d_7">
      <g>
       <use style="stroke:#000000;stroke-width:0.8;" x="792.800547" xlink:href="#me62af883a8" y="504"/>
      </g>
     </g>
     <g id="text_7">
      <!-- 300 -->
      <defs>
       <path d="M 40.578125 39.3125 
Q 47.65625 37.796875 51.625 33 
Q 55.609375 28.21875 55.609375 21.1875 
Q 55.609375 10.40625 48.1875 4.484375 
Q 40.765625 -1.421875 27.09375 -1.421875 
Q 22.515625 -1.421875 17.65625 -0.515625 
Q 12.796875 0.390625 7.625 2.203125 
L 7.625 11.71875 
Q 11.71875 9.328125 16.59375 8.109375 
Q 21.484375 6.890625 26.8125 6.890625 
Q 36.078125 6.890625 40.9375 10.546875 
Q 45.796875 14.203125 45.796875 21.1875 
Q 45.796875 27.640625 41.28125 31.265625 
Q 36.765625 34.90625 28.71875 34.90625 
L 20.21875 34.90625 
L 20.21875 43.015625 
L 29.109375 43.015625 
Q 36.375 43.015625 40.234375 45.921875 
Q 44.09375 48.828125 44.09375 54.296875 
Q 44.09375 59.90625 40.109375 62.90625 
Q 36.140625 65.921875 28.71875 65.921875 
Q 24.65625 65.921875 20.015625 65.03125 
Q 15.375 64.15625 9.8125 62.3125 
L 9.8125 71.09375 
Q 15.4375 72.65625 20.34375 73.4375 
Q 25.25 74.21875 29.59375 74.21875 
Q 40.828125 74.21875 47.359375 69.109375 
Q 53.90625 64.015625 53.90625 55.328125 
Q 53.90625 49.265625 50.4375 45.09375 
Q 46.96875 40.921875 40.578125 39.3125 
z
" id="DejaVuSans-51"/>
      </defs>
      <g transform="translate(783.256797 518.598438)scale(0.1 -0.1)">
       <use xlink:href="#DejaVuSans-51"/>
       <use x="63.623047" xlink:href="#DejaVuSans-48"/>
       <use x="127.246094" xlink:href="#DejaVuSans-48"/>
      </g>
     </g>
    </g>
    <g id="xtick_8">
     <g id="line2d_8">
      <g>
       <use style="stroke:#000000;stroke-width:0.8;" x="894.509364" xlink:href="#me62af883a8" y="504"/>
      </g>
     </g>
     <g id="text_8">
      <!-- 350 -->
      <g transform="translate(884.965614 518.598438)scale(0.1 -0.1)">
       <use xlink:href="#DejaVuSans-51"/>
       <use x="63.623047" xlink:href="#DejaVuSans-53"/>
       <use x="127.246094" xlink:href="#DejaVuSans-48"/>
      </g>
     </g>
    </g>
    <g id="xtick_9">
     <g id="line2d_9">
      <g>
       <use style="stroke:#000000;stroke-width:0.8;" x="996.218182" xlink:href="#me62af883a8" y="504"/>
      </g>
     </g>
     <g id="text_9">
      <!-- 400 -->
      <defs>
       <path d="M 37.796875 64.3125 
L 12.890625 25.390625 
L 37.796875 25.390625 
z
M 35.203125 72.90625 
L 47.609375 72.90625 
L 47.609375 25.390625 
L 58.015625 25.390625 
L 58.015625 17.1875 
L 47.609375 17.1875 
L 47.609375 0 
L 37.796875 0 
L 37.796875 17.1875 
L 4.890625 17.1875 
L 4.890625 26.703125 
z
" id="DejaVuSans-52"/>
      </defs>
      <g transform="translate(986.674432 518.598438)scale(0.1 -0.1)">
       <use xlink:href="#DejaVuSans-52"/>
       <use x="63.623047" xlink:href="#DejaVuSans-48"/>
       <use x="127.246094" xlink:href="#DejaVuSans-48"/>
      </g>
     </g>
    </g>
    <g id="text_10">
     <!-- Number of Neurons pruned -->
     <defs>
      <path d="M 9.8125 72.90625 
L 23.09375 72.90625 
L 55.421875 11.921875 
L 55.421875 72.90625 
L 64.984375 72.90625 
L 64.984375 0 
L 51.703125 0 
L 19.390625 60.984375 
L 19.390625 0 
L 9.8125 0 
z
" id="DejaVuSans-78"/>
      <path d="M 8.5 21.578125 
L 8.5 54.6875 
L 17.484375 54.6875 
L 17.484375 21.921875 
Q 17.484375 14.15625 20.5 10.265625 
Q 23.53125 6.390625 29.59375 6.390625 
Q 36.859375 6.390625 41.078125 11.03125 
Q 45.3125 15.671875 45.3125 23.6875 
L 45.3125 54.6875 
L 54.296875 54.6875 
L 54.296875 0 
L 45.3125 0 
L 45.3125 8.40625 
Q 42.046875 3.421875 37.71875 1 
Q 33.40625 -1.421875 27.6875 -1.421875 
Q 18.265625 -1.421875 13.375 4.4375 
Q 8.5 10.296875 8.5 21.578125 
z
M 31.109375 56 
z
" id="DejaVuSans-117"/>
      <path d="M 52 44.1875 
Q 55.375 50.25 60.0625 53.125 
Q 64.75 56 71.09375 56 
Q 79.640625 56 84.28125 50.015625 
Q 88.921875 44.046875 88.921875 33.015625 
L 88.921875 0 
L 79.890625 0 
L 79.890625 32.71875 
Q 79.890625 40.578125 77.09375 44.375 
Q 74.3125 48.1875 68.609375 48.1875 
Q 61.625 48.1875 57.5625 43.546875 
Q 53.515625 38.921875 53.515625 30.90625 
L 53.515625 0 
L 44.484375 0 
L 44.484375 32.71875 
Q 44.484375 40.625 41.703125 44.40625 
Q 38.921875 48.1875 33.109375 48.1875 
Q 26.21875 48.1875 22.15625 43.53125 
Q 18.109375 38.875 18.109375 30.90625 
L 18.109375 0 
L 9.078125 0 
L 9.078125 54.6875 
L 18.109375 54.6875 
L 18.109375 46.1875 
Q 21.1875 51.21875 25.484375 53.609375 
Q 29.78125 56 35.6875 56 
Q 41.65625 56 45.828125 52.96875 
Q 50 49.953125 52 44.1875 
z
" id="DejaVuSans-109"/>
      <path d="M 48.6875 27.296875 
Q 48.6875 37.203125 44.609375 42.84375 
Q 40.53125 48.484375 33.40625 48.484375 
Q 26.265625 48.484375 22.1875 42.84375 
Q 18.109375 37.203125 18.109375 27.296875 
Q 18.109375 17.390625 22.1875 11.75 
Q 26.265625 6.109375 33.40625 6.109375 
Q 40.53125 6.109375 44.609375 11.75 
Q 48.6875 17.390625 48.6875 27.296875 
z
M 18.109375 46.390625 
Q 20.953125 51.265625 25.265625 53.625 
Q 29.59375 56 35.59375 56 
Q 45.5625 56 51.78125 48.09375 
Q 58.015625 40.1875 58.015625 27.296875 
Q 58.015625 14.40625 51.78125 6.484375 
Q 45.5625 -1.421875 35.59375 -1.421875 
Q 29.59375 -1.421875 25.265625 0.953125 
Q 20.953125 3.328125 18.109375 8.203125 
L 18.109375 0 
L 9.078125 0 
L 9.078125 75.984375 
L 18.109375 75.984375 
z
" id="DejaVuSans-98"/>
      <path d="M 56.203125 29.59375 
L 56.203125 25.203125 
L 14.890625 25.203125 
Q 15.484375 15.921875 20.484375 11.0625 
Q 25.484375 6.203125 34.421875 6.203125 
Q 39.59375 6.203125 44.453125 7.46875 
Q 49.3125 8.734375 54.109375 11.28125 
L 54.109375 2.78125 
Q 49.265625 0.734375 44.1875 -0.34375 
Q 39.109375 -1.421875 33.890625 -1.421875 
Q 20.796875 -1.421875 13.15625 6.1875 
Q 5.515625 13.8125 5.515625 26.8125 
Q 5.515625 40.234375 12.765625 48.109375 
Q 20.015625 56 32.328125 56 
Q 43.359375 56 49.78125 48.890625 
Q 56.203125 41.796875 56.203125 29.59375 
z
M 47.21875 32.234375 
Q 47.125 39.59375 43.09375 43.984375 
Q 39.0625 48.390625 32.421875 48.390625 
Q 24.90625 48.390625 20.390625 44.140625 
Q 15.875 39.890625 15.1875 32.171875 
z
" id="DejaVuSans-101"/>
      <path d="M 41.109375 46.296875 
Q 39.59375 47.171875 37.8125 47.578125 
Q 36.03125 48 33.890625 48 
Q 26.265625 48 22.1875 43.046875 
Q 18.109375 38.09375 18.109375 28.8125 
L 18.109375 0 
L 9.078125 0 
L 9.078125 54.6875 
L 18.109375 54.6875 
L 18.109375 46.1875 
Q 20.953125 51.171875 25.484375 53.578125 
Q 30.03125 56 36.53125 56 
Q 37.453125 56 38.578125 55.875 
Q 39.703125 55.765625 41.0625 55.515625 
z
" id="DejaVuSans-114"/>
      <path id="DejaVuSans-32"/>
      <path d="M 30.609375 48.390625 
Q 23.390625 48.390625 19.1875 42.75 
Q 14.984375 37.109375 14.984375 27.296875 
Q 14.984375 17.484375 19.15625 11.84375 
Q 23.34375 6.203125 30.609375 6.203125 
Q 37.796875 6.203125 41.984375 11.859375 
Q 46.1875 17.53125 46.1875 27.296875 
Q 46.1875 37.015625 41.984375 42.703125 
Q 37.796875 48.390625 30.609375 48.390625 
z
M 30.609375 56 
Q 42.328125 56 49.015625 48.375 
Q 55.71875 40.765625 55.71875 27.296875 
Q 55.71875 13.875 49.015625 6.21875 
Q 42.328125 -1.421875 30.609375 -1.421875 
Q 18.84375 -1.421875 12.171875 6.21875 
Q 5.515625 13.875 5.515625 27.296875 
Q 5.515625 40.765625 12.171875 48.375 
Q 18.84375 56 30.609375 56 
z
" id="DejaVuSans-111"/>
      <path d="M 37.109375 75.984375 
L 37.109375 68.5 
L 28.515625 68.5 
Q 23.6875 68.5 21.796875 66.546875 
Q 19.921875 64.59375 19.921875 59.515625 
L 19.921875 54.6875 
L 34.71875 54.6875 
L 34.71875 47.703125 
L 19.921875 47.703125 
L 19.921875 0 
L 10.890625 0 
L 10.890625 47.703125 
L 2.296875 47.703125 
L 2.296875 54.6875 
L 10.890625 54.6875 
L 10.890625 58.5 
Q 10.890625 67.625 15.140625 71.796875 
Q 19.390625 75.984375 28.609375 75.984375 
z
" id="DejaVuSans-102"/>
      <path d="M 54.890625 33.015625 
L 54.890625 0 
L 45.90625 0 
L 45.90625 32.71875 
Q 45.90625 40.484375 42.875 44.328125 
Q 39.84375 48.1875 33.796875 48.1875 
Q 26.515625 48.1875 22.3125 43.546875 
Q 18.109375 38.921875 18.109375 30.90625 
L 18.109375 0 
L 9.078125 0 
L 9.078125 54.6875 
L 18.109375 54.6875 
L 18.109375 46.1875 
Q 21.34375 51.125 25.703125 53.5625 
Q 30.078125 56 35.796875 56 
Q 45.21875 56 50.046875 50.171875 
Q 54.890625 44.34375 54.890625 33.015625 
z
" id="DejaVuSans-110"/>
      <path d="M 44.28125 53.078125 
L 44.28125 44.578125 
Q 40.484375 46.53125 36.375 47.5 
Q 32.28125 48.484375 27.875 48.484375 
Q 21.1875 48.484375 17.84375 46.4375 
Q 14.5 44.390625 14.5 40.28125 
Q 14.5 37.15625 16.890625 35.375 
Q 19.28125 33.59375 26.515625 31.984375 
L 29.59375 31.296875 
Q 39.15625 29.25 43.1875 25.515625 
Q 47.21875 21.78125 47.21875 15.09375 
Q 47.21875 7.46875 41.1875 3.015625 
Q 35.15625 -1.421875 24.609375 -1.421875 
Q 20.21875 -1.421875 15.453125 -0.5625 
Q 10.6875 0.296875 5.421875 2 
L 5.421875 11.28125 
Q 10.40625 8.6875 15.234375 7.390625 
Q 20.0625 6.109375 24.8125 6.109375 
Q 31.15625 6.109375 34.5625 8.28125 
Q 37.984375 10.453125 37.984375 14.40625 
Q 37.984375 18.0625 35.515625 20.015625 
Q 33.0625 21.96875 24.703125 23.78125 
L 21.578125 24.515625 
Q 13.234375 26.265625 9.515625 29.90625 
Q 5.8125 33.546875 5.8125 39.890625 
Q 5.8125 47.609375 11.28125 51.796875 
Q 16.75 56 26.8125 56 
Q 31.78125 56 36.171875 55.265625 
Q 40.578125 54.546875 44.28125 53.078125 
z
" id="DejaVuSans-115"/>
      <path d="M 18.109375 8.203125 
L 18.109375 -20.796875 
L 9.078125 -20.796875 
L 9.078125 54.6875 
L 18.109375 54.6875 
L 18.109375 46.390625 
Q 20.953125 51.265625 25.265625 53.625 
Q 29.59375 56 35.59375 56 
Q 45.5625 56 51.78125 48.09375 
Q 58.015625 40.1875 58.015625 27.296875 
Q 58.015625 14.40625 51.78125 6.484375 
Q 45.5625 -1.421875 35.59375 -1.421875 
Q 29.59375 -1.421875 25.265625 0.953125 
Q 20.953125 3.328125 18.109375 8.203125 
z
M 48.6875 27.296875 
Q 48.6875 37.203125 44.609375 42.84375 
Q 40.53125 48.484375 33.40625 48.484375 
Q 26.265625 48.484375 22.1875 42.84375 
Q 18.109375 37.203125 18.109375 27.296875 
Q 18.109375 17.390625 22.1875 11.75 
Q 26.265625 6.109375 33.40625 6.109375 
Q 40.53125 6.109375 44.609375 11.75 
Q 48.6875 17.390625 48.6875 27.296875 
z
" id="DejaVuSans-112"/>
      <path d="M 45.40625 46.390625 
L 45.40625 75.984375 
L 54.390625 75.984375 
L 54.390625 0 
L 45.40625 0 
L 45.40625 8.203125 
Q 42.578125 3.328125 38.25 0.953125 
Q 33.9375 -1.421875 27.875 -1.421875 
Q 17.96875 -1.421875 11.734375 6.484375 
Q 5.515625 14.40625 5.515625 27.296875 
Q 5.515625 40.1875 11.734375 48.09375 
Q 17.96875 56 27.875 56 
Q 33.9375 56 38.25 53.625 
Q 42.578125 51.265625 45.40625 46.390625 
z
M 14.796875 27.296875 
Q 14.796875 17.390625 18.875 11.75 
Q 22.953125 6.109375 30.078125 6.109375 
Q 37.203125 6.109375 41.296875 11.75 
Q 45.40625 17.390625 45.40625 27.296875 
Q 45.40625 37.203125 41.296875 42.84375 
Q 37.203125 48.484375 30.078125 48.484375 
Q 22.953125 48.484375 18.875 42.84375 
Q 14.796875 37.203125 14.796875 27.296875 
z
" id="DejaVuSans-100"/>
     </defs>
     <g transform="translate(522.147656 532.276562)scale(0.1 -0.1)">
      <use xlink:href="#DejaVuSans-78"/>
      <use x="74.804688" xlink:href="#DejaVuSans-117"/>
      <use x="138.183594" xlink:href="#DejaVuSans-109"/>
      <use x="235.595703" xlink:href="#DejaVuSans-98"/>
      <use x="299.072266" xlink:href="#DejaVuSans-101"/>
      <use x="360.595703" xlink:href="#DejaVuSans-114"/>
      <use x="401.708984" xlink:href="#DejaVuSans-32"/>
      <use x="433.496094" xlink:href="#DejaVuSans-111"/>
      <use x="494.677734" xlink:href="#DejaVuSans-102"/>
      <use x="529.882812" xlink:href="#DejaVuSans-32"/>
      <use x="561.669922" xlink:href="#DejaVuSans-78"/>
      <use x="636.474609" xlink:href="#DejaVuSans-101"/>
      <use x="697.998047" xlink:href="#DejaVuSans-117"/>
      <use x="761.376953" xlink:href="#DejaVuSans-114"/>
      <use x="800.240234" xlink:href="#DejaVuSans-111"/>
      <use x="861.421875" xlink:href="#DejaVuSans-110"/>
      <use x="924.800781" xlink:href="#DejaVuSans-115"/>
      <use x="976.900391" xlink:href="#DejaVuSans-32"/>
      <use x="1008.6875" xlink:href="#DejaVuSans-112"/>
      <use x="1072.164062" xlink:href="#DejaVuSans-114"/>
      <use x="1113.277344" xlink:href="#DejaVuSans-117"/>
      <use x="1176.65625" xlink:href="#DejaVuSans-110"/>
      <use x="1240.035156" xlink:href="#DejaVuSans-101"/>
      <use x="1301.558594" xlink:href="#DejaVuSans-100"/>
     </g>
    </g>
   </g>
   <g id="matplotlib.axis_2">
    <g id="ytick_1">
     <g id="line2d_10">
      <defs>
       <path d="M 0 0 
L -3.5 0 
" id="mde4d9de2a8" style="stroke:#000000;stroke-width:0.8;"/>
      </defs>
      <g>
       <use style="stroke:#000000;stroke-width:0.8;" x="144" xlink:href="#mde4d9de2a8" y="425.728233"/>
      </g>
     </g>
     <g id="text_11">
      <!-- 0.2 -->
      <defs>
       <path d="M 10.6875 12.40625 
L 21 12.40625 
L 21 0 
L 10.6875 0 
z
" id="DejaVuSans-46"/>
      </defs>
      <g transform="translate(121.096875 429.527452)scale(0.1 -0.1)">
       <use xlink:href="#DejaVuSans-48"/>
       <use x="63.623047" xlink:href="#DejaVuSans-46"/>
       <use x="95.410156" xlink:href="#DejaVuSans-50"/>
      </g>
     </g>
    </g>
    <g id="ytick_2">
     <g id="line2d_11">
      <g>
       <use style="stroke:#000000;stroke-width:0.8;" x="144" xlink:href="#mde4d9de2a8" y="338.070106"/>
      </g>
     </g>
     <g id="text_12">
      <!-- 0.4 -->
      <g transform="translate(121.096875 341.869325)scale(0.1 -0.1)">
       <use xlink:href="#DejaVuSans-48"/>
       <use x="63.623047" xlink:href="#DejaVuSans-46"/>
       <use x="95.410156" xlink:href="#DejaVuSans-52"/>
      </g>
     </g>
    </g>
    <g id="ytick_3">
     <g id="line2d_12">
      <g>
       <use style="stroke:#000000;stroke-width:0.8;" x="144" xlink:href="#mde4d9de2a8" y="250.41198"/>
      </g>
     </g>
     <g id="text_13">
      <!-- 0.6 -->
      <defs>
       <path d="M 33.015625 40.375 
Q 26.375 40.375 22.484375 35.828125 
Q 18.609375 31.296875 18.609375 23.390625 
Q 18.609375 15.53125 22.484375 10.953125 
Q 26.375 6.390625 33.015625 6.390625 
Q 39.65625 6.390625 43.53125 10.953125 
Q 47.40625 15.53125 47.40625 23.390625 
Q 47.40625 31.296875 43.53125 35.828125 
Q 39.65625 40.375 33.015625 40.375 
z
M 52.59375 71.296875 
L 52.59375 62.3125 
Q 48.875 64.0625 45.09375 64.984375 
Q 41.3125 65.921875 37.59375 65.921875 
Q 27.828125 65.921875 22.671875 59.328125 
Q 17.53125 52.734375 16.796875 39.40625 
Q 19.671875 43.65625 24.015625 45.921875 
Q 28.375 48.1875 33.59375 48.1875 
Q 44.578125 48.1875 50.953125 41.515625 
Q 57.328125 34.859375 57.328125 23.390625 
Q 57.328125 12.15625 50.6875 5.359375 
Q 44.046875 -1.421875 33.015625 -1.421875 
Q 20.359375 -1.421875 13.671875 8.265625 
Q 6.984375 17.96875 6.984375 36.375 
Q 6.984375 53.65625 15.1875 63.9375 
Q 23.390625 74.21875 37.203125 74.21875 
Q 40.921875 74.21875 44.703125 73.484375 
Q 48.484375 72.75 52.59375 71.296875 
z
" id="DejaVuSans-54"/>
      </defs>
      <g transform="translate(121.096875 254.211199)scale(0.1 -0.1)">
       <use xlink:href="#DejaVuSans-48"/>
       <use x="63.623047" xlink:href="#DejaVuSans-46"/>
       <use x="95.410156" xlink:href="#DejaVuSans-54"/>
      </g>
     </g>
    </g>
    <g id="ytick_4">
     <g id="line2d_13">
      <g>
       <use style="stroke:#000000;stroke-width:0.8;" x="144" xlink:href="#mde4d9de2a8" y="162.753854"/>
      </g>
     </g>
     <g id="text_14">
      <!-- 0.8 -->
      <defs>
       <path d="M 31.78125 34.625 
Q 24.75 34.625 20.71875 30.859375 
Q 16.703125 27.09375 16.703125 20.515625 
Q 16.703125 13.921875 20.71875 10.15625 
Q 24.75 6.390625 31.78125 6.390625 
Q 38.8125 6.390625 42.859375 10.171875 
Q 46.921875 13.96875 46.921875 20.515625 
Q 46.921875 27.09375 42.890625 30.859375 
Q 38.875 34.625 31.78125 34.625 
z
M 21.921875 38.8125 
Q 15.578125 40.375 12.03125 44.71875 
Q 8.5 49.078125 8.5 55.328125 
Q 8.5 64.0625 14.71875 69.140625 
Q 20.953125 74.21875 31.78125 74.21875 
Q 42.671875 74.21875 48.875 69.140625 
Q 55.078125 64.0625 55.078125 55.328125 
Q 55.078125 49.078125 51.53125 44.71875 
Q 48 40.375 41.703125 38.8125 
Q 48.828125 37.15625 52.796875 32.3125 
Q 56.78125 27.484375 56.78125 20.515625 
Q 56.78125 9.90625 50.3125 4.234375 
Q 43.84375 -1.421875 31.78125 -1.421875 
Q 19.734375 -1.421875 13.25 4.234375 
Q 6.78125 9.90625 6.78125 20.515625 
Q 6.78125 27.484375 10.78125 32.3125 
Q 14.796875 37.15625 21.921875 38.8125 
z
M 18.3125 54.390625 
Q 18.3125 48.734375 21.84375 45.5625 
Q 25.390625 42.390625 31.78125 42.390625 
Q 38.140625 42.390625 41.71875 45.5625 
Q 45.3125 48.734375 45.3125 54.390625 
Q 45.3125 60.0625 41.71875 63.234375 
Q 38.140625 66.40625 31.78125 66.40625 
Q 25.390625 66.40625 21.84375 63.234375 
Q 18.3125 60.0625 18.3125 54.390625 
z
" id="DejaVuSans-56"/>
      </defs>
      <g transform="translate(121.096875 166.553073)scale(0.1 -0.1)">
       <use xlink:href="#DejaVuSans-48"/>
       <use x="63.623047" xlink:href="#DejaVuSans-46"/>
       <use x="95.410156" xlink:href="#DejaVuSans-56"/>
      </g>
     </g>
    </g>
    <g id="ytick_5">
     <g id="line2d_14">
      <g>
       <use style="stroke:#000000;stroke-width:0.8;" x="144" xlink:href="#mde4d9de2a8" y="75.095728"/>
      </g>
     </g>
     <g id="text_15">
      <!-- 1.0 -->
      <g transform="translate(121.096875 78.894946)scale(0.1 -0.1)">
       <use xlink:href="#DejaVuSans-49"/>
       <use x="63.623047" xlink:href="#DejaVuSans-46"/>
       <use x="95.410156" xlink:href="#DejaVuSans-48"/>
      </g>
     </g>
    </g>
    <g id="text_16">
     <!-- Accuracy -->
     <defs>
      <path d="M 34.1875 63.1875 
L 20.796875 26.90625 
L 47.609375 26.90625 
z
M 28.609375 72.90625 
L 39.796875 72.90625 
L 67.578125 0 
L 57.328125 0 
L 50.6875 18.703125 
L 17.828125 18.703125 
L 11.1875 0 
L 0.78125 0 
z
" id="DejaVuSans-65"/>
      <path d="M 48.78125 52.59375 
L 48.78125 44.1875 
Q 44.96875 46.296875 41.140625 47.34375 
Q 37.3125 48.390625 33.40625 48.390625 
Q 24.65625 48.390625 19.8125 42.84375 
Q 14.984375 37.3125 14.984375 27.296875 
Q 14.984375 17.28125 19.8125 11.734375 
Q 24.65625 6.203125 33.40625 6.203125 
Q 37.3125 6.203125 41.140625 7.25 
Q 44.96875 8.296875 48.78125 10.40625 
L 48.78125 2.09375 
Q 45.015625 0.34375 40.984375 -0.53125 
Q 36.96875 -1.421875 32.421875 -1.421875 
Q 20.0625 -1.421875 12.78125 6.34375 
Q 5.515625 14.109375 5.515625 27.296875 
Q 5.515625 40.671875 12.859375 48.328125 
Q 20.21875 56 33.015625 56 
Q 37.15625 56 41.109375 55.140625 
Q 45.0625 54.296875 48.78125 52.59375 
z
" id="DejaVuSans-99"/>
      <path d="M 34.28125 27.484375 
Q 23.390625 27.484375 19.1875 25 
Q 14.984375 22.515625 14.984375 16.5 
Q 14.984375 11.71875 18.140625 8.90625 
Q 21.296875 6.109375 26.703125 6.109375 
Q 34.1875 6.109375 38.703125 11.40625 
Q 43.21875 16.703125 43.21875 25.484375 
L 43.21875 27.484375 
z
M 52.203125 31.203125 
L 52.203125 0 
L 43.21875 0 
L 43.21875 8.296875 
Q 40.140625 3.328125 35.546875 0.953125 
Q 30.953125 -1.421875 24.3125 -1.421875 
Q 15.921875 -1.421875 10.953125 3.296875 
Q 6 8.015625 6 15.921875 
Q 6 25.140625 12.171875 29.828125 
Q 18.359375 34.515625 30.609375 34.515625 
L 43.21875 34.515625 
L 43.21875 35.40625 
Q 43.21875 41.609375 39.140625 45 
Q 35.0625 48.390625 27.6875 48.390625 
Q 23 48.390625 18.546875 47.265625 
Q 14.109375 46.140625 10.015625 43.890625 
L 10.015625 52.203125 
Q 14.9375 54.109375 19.578125 55.046875 
Q 24.21875 56 28.609375 56 
Q 40.484375 56 46.34375 49.84375 
Q 52.203125 43.703125 52.203125 31.203125 
z
" id="DejaVuSans-97"/>
      <path d="M 32.171875 -5.078125 
Q 28.375 -14.84375 24.75 -17.8125 
Q 21.140625 -20.796875 15.09375 -20.796875 
L 7.90625 -20.796875 
L 7.90625 -13.28125 
L 13.1875 -13.28125 
Q 16.890625 -13.28125 18.9375 -11.515625 
Q 21 -9.765625 23.484375 -3.21875 
L 25.09375 0.875 
L 2.984375 54.6875 
L 12.5 54.6875 
L 29.59375 11.921875 
L 46.6875 54.6875 
L 56.203125 54.6875 
z
" id="DejaVuSans-121"/>
     </defs>
     <g transform="translate(115.017187 309.388125)rotate(-90)scale(0.1 -0.1)">
      <use xlink:href="#DejaVuSans-65"/>
      <use x="66.658203" xlink:href="#DejaVuSans-99"/>
      <use x="121.638672" xlink:href="#DejaVuSans-99"/>
      <use x="176.619141" xlink:href="#DejaVuSans-117"/>
      <use x="239.998047" xlink:href="#DejaVuSans-114"/>
      <use x="281.111328" xlink:href="#DejaVuSans-97"/>
      <use x="342.390625" xlink:href="#DejaVuSans-99"/>
      <use x="397.371094" xlink:href="#DejaVuSans-121"/>
     </g>
    </g>
   </g>
   <g id="line2d_15">
    <path clip-path="url(#pe547280214)" d="M 184.581818 88.938407 
L 278.15393 88.938407 
L 282.222283 89.084504 
L 292.393165 89.208686 
L 298.495694 89.47166 
L 300.52987 89.690806 
L 306.632399 89.654281 
L 308.666576 90.275193 
L 310.700752 90.019524 
L 312.734928 90.012219 
L 314.769105 90.275193 
L 316.803281 90.413985 
L 322.90581 90.063353 
L 331.042515 90.866885 
L 333.076692 92.203672 
L 335.110868 91.911478 
L 337.145044 92.189062 
L 339.179221 92.751535 
L 341.213397 92.525085 
L 343.247573 93.01451 
L 345.28175 92.780755 
L 347.315926 93.043729 
L 349.350103 93.43819 
L 351.384279 94.322077 
L 353.418455 93.891091 
L 355.452632 94.380515 
L 359.520984 94.110236 
L 361.555161 94.606965 
L 363.589337 94.570441 
L 365.623513 95.235182 
L 367.65769 95.447023 
L 371.726042 98.252083 
L 373.760219 98.544276 
L 375.794395 98.427399 
L 377.828571 97.813792 
L 379.862748 99.296675 
L 381.896924 98.982567 
L 383.9311 99.165188 
L 385.965277 99.121359 
L 387.999453 99.428162 
L 390.03363 99.866453 
L 392.067806 101.079057 
L 396.136159 101.342032 
L 398.170335 101.941029 
L 400.204511 102.927183 
L 402.238688 104.066738 
L 404.272864 103.533485 
L 406.30704 103.657667 
L 408.341217 102.773781 
L 410.375393 102.949097 
L 412.409569 102.437758 
L 414.443746 103.336254 
L 418.512098 102.883354 
L 420.546275 103.679582 
L 422.580451 104.921405 
L 424.614627 105.052892 
L 426.648804 105.527707 
L 428.68298 105.052892 
L 430.717157 105.724938 
L 432.751333 112.138591 
L 434.785509 122.723309 
L 436.819686 121.941691 
L 438.853862 122.759834 
L 440.888038 122.21197 
L 444.956391 122.518774 
L 446.990567 124.607959 
L 449.024744 123.804426 
L 451.05892 121.181987 
L 453.093096 122.474945 
L 455.127273 122.957064 
L 457.161449 124.344985 
L 459.195625 124.483777 
L 461.229802 123.621805 
L 463.263978 124.491082 
L 465.298154 124.746751 
L 467.332331 125.74021 
L 471.400684 125.886307 
L 473.43486 126.594877 
L 475.469036 127.551811 
L 477.503213 128.223857 
L 479.537389 127.215788 
L 481.571565 127.223093 
L 483.605742 127.887834 
L 485.639918 127.237703 
L 489.708271 127.296142 
L 491.742447 128.231162 
L 493.776623 128.114284 
L 495.8108 129.93319 
L 497.844976 128.764415 
L 499.879152 129.041999 
L 501.913329 132.5118 
L 503.947505 132.694421 
L 505.981681 133.636746 
L 508.015858 133.578307 
L 510.050034 133.695185 
L 512.084211 134.096951 
L 514.118387 134.937008 
L 516.152563 134.264963 
L 518.18674 134.6229 
L 520.220916 136.485635 
L 522.255092 136.208051 
L 524.289269 140.861237 
L 526.323445 142.884679 
L 528.357621 146.412918 
L 532.425974 145.886969 
L 534.46015 148.005374 
L 536.494327 147.610913 
L 538.528503 146.873123 
L 540.562679 148.144166 
L 542.596856 141.759733 
L 544.631032 142.088451 
L 546.665208 141.942354 
L 548.699385 140.9562 
L 550.733561 142.168804 
L 552.767738 145.119961 
L 554.801914 146.033066 
L 556.83609 146.727026 
L 558.870267 145.901579 
L 560.904443 147.099573 
L 562.938619 147.26028 
L 564.972796 148.173385 
L 569.041148 146.675893 
L 571.075325 147.851972 
L 573.109501 147.267585 
L 575.143677 145.302582 
L 577.177854 146.800075 
L 579.21203 147.136098 
L 581.246206 146.076895 
L 583.280383 147.479425 
L 585.314559 147.596303 
L 587.348735 150.700861 
L 589.382912 150.53285 
L 591.417088 149.37138 
L 593.451265 151.46787 
L 595.485441 150.700861 
L 597.519617 150.576679 
L 599.553794 148.472884 
L 601.58797 148.575152 
L 603.622146 149.166844 
L 605.656323 151.613967 
L 607.690499 155.558583 
L 609.724675 156.457078 
L 611.758852 168.239792 
L 613.793028 171.380874 
L 615.827204 171.81186 
L 617.861381 172.849148 
L 619.895557 174.120191 
L 621.929733 173.272829 
L 623.96391 177.473114 
L 625.998086 178.970607 
L 628.032262 182.842174 
L 630.066439 187.838688 
L 632.100615 189.708728 
L 634.134792 190.110494 
L 636.168968 190.147018 
L 638.203144 196.969742 
L 640.237321 199.804022 
L 642.271497 198.445321 
L 644.305673 198.978575 
L 646.33985 197.218107 
L 648.374026 196.012808 
L 650.408202 198.649857 
L 652.442379 192.112021 
L 654.476555 197.035486 
L 656.510731 198.584113 
L 658.544908 198.02164 
L 660.579084 199.446085 
L 662.61326 214.223784 
L 664.647437 217.342952 
L 666.681613 210.768593 
L 668.715789 212.938131 
L 670.749966 218.570166 
L 672.784142 221.009984 
L 674.818319 226.108765 
L 676.852495 223.917311 
L 678.886671 225.63395 
L 680.920848 226.802725 
L 682.955024 230.396708 
L 684.9892 235.846122 
L 687.023377 228.102987 
L 689.057553 236.540082 
L 691.091729 238.957985 
L 693.125906 240.426259 
L 695.160082 245.335114 
L 697.194258 267.037805 
L 699.228435 270.697532 
L 701.262611 269.039332 
L 703.296787 265.357691 
L 705.330964 264.510329 
L 707.36514 260.821383 
L 709.399316 261.924414 
L 711.433493 262.399229 
L 713.467669 251.507707 
L 715.501846 245.488515 
L 717.536022 240.484697 
L 719.570198 245.532344 
L 721.604375 259.382328 
L 723.638551 251.84373 
L 725.672727 252.29663 
L 727.706904 256.708756 
L 729.74108 262.11434 
L 731.775256 265.233508 
L 733.809433 265.182374 
L 735.843609 260.609542 
L 737.877785 262.457668 
L 739.911962 273.8167 
L 741.946138 273.319971 
L 743.980314 272.260768 
L 746.014491 289.748564 
L 748.048667 301.859995 
L 750.082843 310.08525 
L 752.11702 313.744976 
L 754.151196 319.048293 
L 756.185373 318.690356 
L 758.219549 337.018209 
L 760.253725 331.627234 
L 762.287902 330.692214 
L 764.322078 337.792522 
L 766.356254 303.02877 
L 768.390431 300.559733 
L 770.424607 292.641283 
L 772.458783 295.088405 
L 774.49296 319.471974 
L 776.527136 330.20279 
L 778.561312 334.885195 
L 780.595489 330.64108 
L 782.629665 332.255451 
L 784.663841 332.350414 
L 786.698018 339.53838 
L 788.732194 339.479941 
L 790.76637 347.478745 
L 792.800547 348.800922 
L 794.834723 360.715122 
L 796.8689 374.207169 
L 798.903076 374.455534 
L 800.937252 376.683511 
L 802.971429 379.130634 
L 805.005605 378.071431 
L 807.039781 374.813471 
L 809.073958 374.009938 
L 811.108134 372.366348 
L 813.14231 369.926531 
L 815.176487 372.950736 
L 817.210663 381.088332 
L 819.244839 378.15909 
L 821.279016 371.993801 
L 823.313192 373.24293 
L 825.347368 375.514736 
L 827.381545 378.692343 
L 829.415721 378.794611 
L 831.449897 381.606976 
L 833.484074 379.145244 
L 835.51825 377.129107 
L 837.552427 363.951168 
L 839.586603 365.930781 
L 841.620779 365.879647 
L 843.654956 366.171841 
L 845.689132 362.833527 
L 847.723308 359.823931 
L 849.757485 365.799294 
L 851.791661 365.536319 
L 853.825837 364.243362 
L 855.860014 364.053436 
L 857.89419 367.260263 
L 859.928366 378.283272 
L 861.962543 378.363625 
L 863.996719 390.146338 
L 866.030895 383.235956 
L 868.065072 384.360902 
L 870.099248 379.912252 
L 872.133424 379.744241 
L 874.167601 375.32481 
L 876.201777 375.690052 
L 878.235954 387.954885 
L 880.27013 387.414327 
L 882.304306 399.043638 
L 884.338483 394.594988 
L 886.372659 399.277393 
L 888.406835 397.860253 
L 890.441012 400.782191 
L 892.475188 400.913678 
L 894.509364 402.623012 
L 896.543541 408.503411 
L 898.577717 406.764858 
L 900.611893 414.595651 
L 902.64607 412.367673 
L 904.680246 411.60797 
L 906.714422 413.660631 
L 908.748599 413.22234 
L 910.782775 413.083548 
L 912.816951 411.374215 
L 914.851128 412.930146 
L 916.885304 412.805964 
L 918.919481 418.920118 
L 920.953657 412.30193 
L 922.987833 415.508756 
L 925.02201 419.694432 
L 927.056186 422.075811 
L 929.090362 433.420233 
L 931.124539 433.646684 
L 933.158715 433.054991 
L 935.192891 432.675139 
L 937.227068 432.521738 
L 939.261244 435.524028 
L 941.29542 432.046923 
L 943.329597 441.068405 
L 945.363773 441.185282 
L 947.397949 444.903448 
L 949.432126 447.109511 
L 953.500478 448.051836 
L 955.534655 450.162936 
L 957.568831 451.923403 
L 959.603008 449.768474 
L 961.637184 451.178309 
L 963.67136 449.804998 
L 965.705537 448.628918 
L 967.739713 450.615836 
L 969.773889 461.039848 
L 971.808066 466.043666 
L 973.842242 466.284726 
L 975.876418 467.132088 
L 977.910595 465.028293 
L 979.944771 465.050207 
L 981.978947 466.964076 
L 984.013124 466.927552 
L 986.0473 483.071257 
L 988.081476 468.037888 
L 990.115653 469.761832 
L 992.149829 469.761832 
L 994.184005 470.572669 
L 996.218182 470.572669 
L 996.218182 470.572669 
" style="fill:none;stroke:#1f77b4;stroke-linecap:square;stroke-width:1.5;"/>
   </g>
   <g id="line2d_16">
    <path clip-path="url(#pe547280214)" d="M 184.581818 88.938407 
L 286.290636 89.03337 
L 296.461517 89.106418 
L 300.52987 89.164857 
L 302.564046 89.289039 
L 304.598223 89.851512 
L 306.632399 89.873427 
L 308.666576 90.16562 
L 312.734928 90.19484 
L 314.769105 90.457814 
L 318.837457 90.801142 
L 320.871634 90.750008 
L 322.90581 90.976458 
L 329.008339 91.246737 
L 331.042515 91.458578 
L 335.110868 91.560846 
L 337.145044 91.663113 
L 339.179221 91.984527 
L 347.315926 92.590829 
L 351.384279 93.401666 
L 353.418455 94.051797 
L 355.452632 94.322077 
L 359.520984 94.336686 
L 361.555161 94.957598 
L 363.589337 94.848025 
L 365.623513 94.380515 
L 367.65769 95.001427 
L 371.726042 95.81957 
L 373.760219 96.199421 
L 375.794395 96.111763 
L 379.862748 97.010259 
L 381.896924 96.652322 
L 383.9311 96.506225 
L 385.965277 96.637712 
L 390.03363 97.580037 
L 392.067806 97.733439 
L 394.101982 98.756117 
L 396.136159 100.794168 
L 398.170335 100.786863 
L 400.204511 100.290134 
L 402.238688 100.911046 
L 404.272864 102.262442 
L 406.30704 102.160174 
L 408.341217 101.926419 
L 410.375393 102.912573 
L 412.409569 104.483114 
L 414.443746 104.782613 
L 418.512098 104.841052 
L 420.546275 104.67304 
L 422.580451 106.513861 
L 424.614627 105.549622 
L 426.648804 106.134009 
L 428.68298 107.156687 
L 430.717157 107.938306 
L 432.751333 109.932528 
L 434.785509 111.225485 
L 436.819686 113.577645 
L 438.853862 113.55573 
L 440.888038 115.732574 
L 442.922215 118.837133 
L 444.956391 120.173919 
L 449.024744 120.699868 
L 451.05892 123.716768 
L 453.093096 125.937441 
L 455.127273 126.426865 
L 457.161449 127.303447 
L 459.195625 128.574489 
L 461.229802 127.215788 
L 463.263978 127.639469 
L 465.298154 131.627914 
L 467.332331 131.284586 
L 469.366507 134.250353 
L 471.400684 136.734 
L 473.43486 144.206855 
L 475.469036 148.867346 
L 477.503213 150.29179 
L 479.537389 151.519004 
L 481.571565 151.94999 
L 483.605742 154.236406 
L 485.639918 167.246333 
L 487.674094 169.101763 
L 489.708271 171.278607 
L 491.742447 170.540817 
L 493.776623 174.704578 
L 495.8108 178.408134 
L 497.844976 176.530789 
L 499.879152 175.661513 
L 501.913329 175.004077 
L 503.947505 176.844898 
L 505.981681 177.078653 
L 508.015858 177.604601 
L 510.050034 176.596533 
L 512.084211 176.107108 
L 514.118387 177.611906 
L 518.18674 189.840215 
L 520.220916 188.167406 
L 522.255092 187.568408 
L 524.289269 186.655303 
L 526.323445 187.838688 
L 528.357621 185.508442 
L 530.391798 188.423075 
L 532.425974 191.067429 
L 534.46015 192.141241 
L 536.494327 193.675258 
L 538.528503 196.589891 
L 540.562679 195.063178 
L 542.596856 193.974756 
L 546.665208 199.467999 
L 548.699385 201.126199 
L 550.733561 203.200774 
L 552.767738 205.611373 
L 554.801914 204.165014 
L 556.83609 208.862028 
L 558.870267 213.113447 
L 560.904443 211.981197 
L 562.938619 214.62555 
L 564.972796 212.105379 
L 567.006972 216.115738 
L 569.041148 215.57518 
L 571.075325 222.025357 
L 573.109501 223.464411 
L 575.143677 221.104947 
L 577.177854 218.219533 
L 579.21203 219.673197 
L 581.246206 216.123043 
L 583.280383 217.956559 
L 585.314559 218.789311 
L 587.348735 220.644741 
L 589.382912 223.858873 
L 591.417088 223.946531 
L 593.451265 223.128388 
L 595.485441 232.003774 
L 597.519617 228.855386 
L 599.553794 229.242543 
L 601.58797 232.537027 
L 603.622146 234.370543 
L 605.656323 237.847649 
L 607.690499 235.312868 
L 611.758852 242.201336 
L 613.793028 239.483934 
L 615.827204 238.475865 
L 617.861381 242.362042 
L 619.895557 245.430077 
L 621.929733 241.295535 
L 623.96391 243.004868 
L 628.032262 241.573119 
L 630.066439 248.191308 
L 632.100615 245.590783 
L 634.134792 247.117496 
L 638.203144 252.588824 
L 640.237321 258.103981 
L 642.271497 266.687172 
L 644.305673 264.69295 
L 646.33985 259.930192 
L 648.374026 257.022864 
L 650.408202 252.961371 
L 652.442379 255.218567 
L 654.476555 254.64879 
L 656.510731 256.299684 
L 658.544908 250.18553 
L 662.61326 262.494192 
L 664.647437 260.295434 
L 666.681613 277.914717 
L 668.715789 280.705168 
L 670.749966 287.637464 
L 672.784142 291.435983 
L 674.818319 294.847345 
L 676.852495 301.063767 
L 678.886671 295.848109 
L 680.920848 292.159163 
L 682.955024 292.246821 
L 684.9892 306.432828 
L 687.023377 302.824235 
L 689.057553 306.038366 
L 691.091729 308.646195 
L 693.125906 308.595062 
L 695.160082 313.949512 
L 697.194258 310.143688 
L 699.228435 327.339291 
L 701.262611 327.470778 
L 703.296787 327.38312 
L 705.330964 324.877558 
L 707.36514 325.074789 
L 709.399316 324.797205 
L 711.433493 316.886059 
L 713.467669 314.855313 
L 715.501846 316.535427 
L 717.536022 315.929125 
L 719.570198 318.566173 
L 721.604375 316.637695 
L 723.638551 313.912988 
L 725.672727 317.930652 
L 727.706904 317.477752 
L 729.74108 322.751849 
L 731.775256 317.558105 
L 733.809433 322.532704 
L 735.843609 324.811815 
L 737.877785 323.321627 
L 739.911962 324.497707 
L 741.946138 317.769945 
L 743.980314 317.251301 
L 746.014491 325.49847 
L 748.048667 330.056693 
L 750.082843 334.001308 
L 752.11702 349.648284 
L 754.151196 357.026176 
L 756.185373 348.43568 
L 758.219549 352.044273 
L 762.287902 366.522473 
L 764.322078 382.242497 
L 766.356254 388.626931 
L 768.390431 382.242497 
L 770.424607 382.57852 
L 772.458783 383.681552 
L 774.49296 393.323945 
L 776.527136 387.575033 
L 778.561312 394.339319 
L 782.629665 396.121701 
L 784.663841 397.911387 
L 786.698018 404.346955 
L 788.732194 404.427308 
L 790.76637 407.422294 
L 792.800547 407.794841 
L 794.834723 411.856334 
L 796.8689 411.856334 
L 798.903076 412.959366 
L 800.937252 410.526853 
L 802.971429 417.349577 
L 805.005605 417.649075 
L 807.039781 417.137736 
L 809.073958 426.787435 
L 811.108134 421.19923 
L 813.14231 421.352631 
L 815.176487 423.872802 
L 817.210663 423.982375 
L 819.244839 424.23074 
L 821.279016 429.124985 
L 823.313192 428.862011 
L 825.347368 433.369099 
L 827.381545 433.748951 
L 829.415721 431.659766 
L 831.449897 431.69629 
L 833.484074 431.564803 
L 835.51825 434.895812 
L 837.552427 434.954251 
L 839.586603 439.563607 
L 841.620779 439.65857 
L 843.654956 437.350239 
L 847.723308 437.700872 
L 849.757485 437.350239 
L 851.791661 435.034604 
L 853.825837 438.891561 
L 855.860014 439.008439 
L 857.89419 442.112998 
L 859.928366 442.675471 
L 861.962543 442.894616 
L 863.996719 448.636223 
L 866.030895 447.255608 
L 868.065072 450.089887 
L 870.099248 450.082582 
L 872.133424 451.470503 
L 874.167601 450.528178 
L 878.235954 450.484349 
L 880.27013 451.017602 
L 882.304306 451.353625 
L 884.338483 452.011061 
L 886.372659 452.04028 
L 888.406835 445.202947 
L 890.441012 444.10722 
L 892.475188 444.10722 
L 894.509364 441.514 
L 896.543541 441.331379 
L 898.577717 438.876952 
L 900.611893 438.876952 
L 902.64607 439.497863 
L 906.714422 439.534388 
L 908.748599 442.01073 
L 910.782775 442.748519 
L 912.816951 442.602422 
L 914.851128 448.78232 
L 916.885304 450.009534 
L 918.919481 450.922639 
L 920.953657 453.24558 
L 922.987833 452.880337 
L 927.056186 451.492417 
L 929.090362 447.503972 
L 931.124539 444.202183 
L 933.158715 464.955244 
L 935.192891 464.22476 
L 937.227068 462.58117 
L 939.261244 462.004087 
L 941.29542 464.590002 
L 943.329597 464.429296 
L 947.397949 469.38198 
L 949.432126 468.154766 
L 955.534655 467.95023 
L 957.568831 465.108646 
L 959.603008 463.822994 
L 961.637184 451.748087 
L 963.67136 454.158685 
L 965.705537 453.23097 
L 967.739713 457.971814 
L 969.773889 457.774583 
L 971.808066 458.58542 
L 973.842242 466.766846 
L 975.876418 469.425809 
L 977.910595 469.294322 
L 979.944771 469.506162 
L 981.978947 468.841421 
L 986.0473 467.877182 
L 988.081476 467.804133 
L 990.115653 470.857558 
L 992.149829 466.964076 
L 994.184005 464.253979 
L 996.218182 464.838367 
L 996.218182 464.838367 
" style="fill:none;stroke:#ff7f0e;stroke-linecap:square;stroke-width:1.5;"/>
   </g>
   <g id="line2d_17">
    <path clip-path="url(#pe547280214)" d="M 184.581818 88.938407 
L 292.393165 89.047979 
L 296.461517 89.179466 
L 298.495694 89.099113 
L 308.666576 89.515489 
L 310.700752 89.47166 
L 314.769105 89.807683 
L 316.803281 90.041438 
L 326.974163 90.187535 
L 335.110868 90.720789 
L 339.179221 90.618521 
L 345.28175 91.275957 
L 347.315926 91.400139 
L 351.384279 92.203672 
L 353.418455 92.802669 
L 355.452632 92.481256 
L 357.486808 92.634658 
L 359.520984 93.233655 
L 361.555161 93.525849 
L 363.589337 93.956834 
L 365.623513 93.401666 
L 367.65769 94.16137 
L 369.691866 93.869176 
L 373.760219 94.40243 
L 375.794395 94.256333 
L 377.828571 94.526612 
L 381.896924 95.432413 
L 383.9311 95.191353 
L 387.999453 95.812265 
L 392.067806 97.127137 
L 394.101982 96.915296 
L 396.136159 96.959125 
L 398.170335 96.608493 
L 400.204511 97.850316 
L 402.238688 97.463159 
L 404.272864 97.280538 
L 406.30704 98.303216 
L 408.341217 97.835706 
L 410.375393 98.756117 
L 412.409569 99.976026 
L 414.443746 100.01255 
L 416.477922 99.632698 
L 418.512098 100.648071 
L 420.546275 101.480824 
L 422.580451 102.101735 
L 424.614627 103.76724 
L 426.648804 104.541553 
L 428.68298 105.841815 
L 430.717157 104.110567 
L 432.751333 104.263969 
L 434.785509 106.10479 
L 436.819686 106.353154 
L 438.853862 107.076334 
L 440.888038 108.544608 
L 442.922215 107.353918 
L 444.956391 107.96022 
L 446.990567 108.150146 
L 449.024744 108.055183 
L 451.05892 109.559981 
L 453.093096 109.413884 
L 455.127273 108.369291 
L 457.161449 110.53883 
L 459.195625 110.816414 
L 461.229802 109.976357 
L 463.263978 110.436562 
L 465.298154 109.698773 
L 467.332331 110.08593 
L 469.366507 111.71491 
L 471.400684 111.517679 
L 473.43486 112.803332 
L 475.469036 114.578409 
L 477.503213 115.798318 
L 479.537389 114.790249 
L 481.571565 115.126272 
L 483.605742 117.829064 
L 485.639918 118.457281 
L 487.674094 121.802899 
L 489.708271 120.407674 
L 491.742447 121.160073 
L 493.776623 120.553771 
L 495.8108 122.117007 
L 497.844976 122.723309 
L 499.879152 123.651025 
L 501.913329 123.694854 
L 503.947505 124.797885 
L 505.981681 125.448016 
L 508.015858 126.996643 
L 510.050034 128.180028 
L 512.084211 127.515287 
L 514.118387 128.618318 
L 516.152563 130.393396 
L 518.18674 130.364176 
L 520.220916 134.38184 
L 522.255092 134.484108 
L 524.289269 132.351094 
L 526.323445 133.94355 
L 528.357621 133.125407 
L 530.391798 134.264963 
L 532.425974 134.586376 
L 534.46015 131.175014 
L 536.494327 136.94584 
L 538.528503 142.030012 
L 540.562679 144.608622 
L 542.596856 147.581693 
L 544.631032 143.629773 
L 546.665208 141.467539 
L 548.699385 143.637077 
L 550.733561 144.615927 
L 552.767738 146.653978 
L 554.801914 146.770855 
L 556.83609 154.864622 
L 558.870267 150.277181 
L 560.904443 150.145693 
L 562.938619 153.827335 
L 564.972796 150.123779 
L 567.006972 154.798879 
L 569.041148 151.613967 
L 571.075325 149.364075 
L 573.109501 153.988041 
L 575.143677 149.239893 
L 577.177854 154.411722 
L 579.21203 159.101432 
L 581.246206 166.311313 
L 583.280383 166.676555 
L 585.314559 168.517376 
L 587.348735 172.403553 
L 589.382912 169.905296 
L 591.417088 170.796487 
L 593.451265 176.282425 
L 595.485441 176.377388 
L 597.519617 177.604601 
L 599.553794 187.04246 
L 601.58797 190.380773 
L 603.622146 193.047041 
L 605.656323 192.995907 
L 607.690499 196.779817 
L 609.724675 197.919372 
L 611.758852 207.927008 
L 613.793028 208.584444 
L 615.827204 206.020444 
L 617.861381 203.704809 
L 619.895557 198.02164 
L 621.929733 199.533743 
L 623.96391 192.827896 
L 625.998086 195.092398 
L 628.032262 199.292683 
L 630.066439 197.203497 
L 632.100615 205.750165 
L 634.134792 205.121948 
L 636.168968 215.027317 
L 638.203144 220.469425 
L 640.237321 225.159135 
L 642.271497 228.709289 
L 644.305673 226.883078 
L 646.33985 221.981528 
L 648.374026 222.719317 
L 650.408202 220.644741 
L 652.442379 217.993083 
L 654.476555 224.779283 
L 656.510731 224.465175 
L 658.544908 231.733494 
L 660.579084 235.605062 
L 662.61326 232.588161 
L 664.647437 230.228697 
L 666.681613 233.369779 
L 668.715789 233.296731 
L 670.749966 230.345574 
L 672.784142 228.431705 
L 674.818319 225.480548 
L 676.852495 227.883842 
L 678.886671 226.547055 
L 680.920848 227.292149 
L 682.955024 224.289859 
L 684.9892 235.283649 
L 687.023377 242.778418 
L 689.057553 246.387011 
L 691.091729 255.729906 
L 693.125906 255.766431 
L 695.160082 253.363137 
L 697.194258 247.738407 
L 699.228435 248.724561 
L 701.262611 253.71377 
L 703.296787 263.655662 
L 705.330964 272.450694 
L 707.36514 269.631024 
L 709.399316 261.208539 
L 711.433493 259.477291 
L 713.467669 266.468027 
L 715.501846 275.730569 
L 717.536022 281.52331 
L 719.570198 287.936963 
L 721.604375 288.024621 
L 723.638551 284.971196 
L 727.706904 286.169191 
L 729.74108 294.701248 
L 731.775256 300.698525 
L 733.809433 306.294036 
L 735.843609 323.85488 
L 737.877785 325.04557 
L 739.911962 315.593102 
L 741.946138 323.526162 
L 743.980314 327.353901 
L 746.014491 333.102813 
L 748.048667 335.615679 
L 750.082843 355.623646 
L 752.11702 370.503613 
L 754.151196 382.848799 
L 756.185373 383.250566 
L 758.219549 396.37737 
L 760.253725 396.552686 
L 762.287902 395.522703 
L 764.322078 397.370829 
L 766.356254 406.231605 
L 768.390431 405.216231 
L 770.424607 412.594124 
L 772.458783 417.985098 
L 774.49296 425.194979 
L 776.527136 431.769339 
L 778.561312 425.282637 
L 780.595489 425.611355 
L 782.629665 425.143845 
L 784.663841 424.866261 
L 786.698018 424.997748 
L 788.732194 425.297247 
L 790.76637 424.311093 
L 792.800547 435.889271 
L 794.834723 437.101875 
L 796.8689 442.383277 
L 798.903076 440.345225 
L 800.937252 439.519778 
L 802.971429 439.979983 
L 805.005605 440.221043 
L 807.039781 440.703163 
L 809.073958 429.453703 
L 811.108134 429.519447 
L 813.14231 429.82625 
L 815.176487 429.935823 
L 817.210663 432.317202 
L 819.244839 437.006912 
L 821.279016 431.097293 
L 823.313192 431.206866 
L 825.347368 433.953487 
L 827.381545 435.46559 
L 829.415721 436.488268 
L 833.484074 436.765852 
L 835.51825 436.393305 
L 837.552427 436.510182 
L 839.586603 433.895048 
L 843.654956 434.128803 
L 845.689132 432.061532 
L 847.723308 431.214171 
L 849.757485 428.964279 
L 851.791661 429.643629 
L 853.825837 429.256472 
L 857.89419 429.307606 
L 859.928366 429.482923 
L 861.962543 422.718637 
L 863.996719 421.476814 
L 866.030895 421.63752 
L 868.065072 422.083116 
L 870.099248 422.097725 
L 872.133424 421.498728 
L 874.167601 421.016609 
L 876.201777 416.911286 
L 882.304306 416.852848 
L 884.338483 418.101976 
L 886.372659 411.732152 
L 888.406835 410.914009 
L 890.441012 412.30193 
L 892.475188 416.166192 
L 894.509364 418.934728 
L 896.543541 418.927423 
L 898.577717 419.716346 
L 900.611893 421.082352 
L 902.64607 421.257668 
L 904.680246 422.696723 
L 906.714422 419.840529 
L 908.748599 422.645589 
L 910.782775 423.412597 
L 912.816951 411.914773 
L 914.851128 407.83867 
L 916.885304 408.430363 
L 920.953657 416.546044 
L 922.987833 420.118113 
L 925.02201 420.140027 
L 927.056186 420.71711 
L 929.090362 421.41107 
L 931.124539 428.014649 
L 933.158715 428.482159 
L 935.192891 428.489464 
L 937.227068 427.561749 
L 941.29542 427.430261 
L 943.329597 428.489464 
L 945.363773 428.730524 
L 947.397949 421.520643 
L 949.432126 423.237281 
L 951.466302 423.456426 
L 953.500478 424.106557 
L 955.534655 433.149954 
L 957.568831 436.042672 
L 959.603008 462.383939 
L 961.637184 462.288976 
L 963.67136 463.486971 
L 965.705537 467.577683 
L 967.739713 466.474652 
L 969.773889 465.977922 
L 971.808066 454.458184 
L 973.842242 454.399745 
L 975.876418 453.150617 
L 977.910595 453.201751 
L 979.944771 447.262912 
L 981.978947 455.027962 
L 984.013124 459.396258 
L 986.0473 459.56427 
L 988.081476 449.834218 
L 990.115653 448.497431 
L 992.149829 448.78232 
L 994.184005 448.54126 
L 996.218182 449.49089 
L 996.218182 449.49089 
" style="fill:none;stroke:#2ca02c;stroke-linecap:square;stroke-width:1.5;"/>
   </g>
   <g id="line2d_18">
    <path clip-path="url(#pe547280214)" d="M 184.581818 88.938407 
L 282.222283 89.047979 
L 286.290636 89.573928 
L 288.324812 90.224059 
L 290.358988 90.304412 
L 292.393165 90.618521 
L 294.427341 90.764618 
L 296.461517 92.232891 
L 298.495694 92.167148 
L 304.598223 92.430122 
L 306.632399 92.824584 
L 308.666576 93.474715 
L 312.734928 95.709997 
L 314.769105 95.929142 
L 316.803281 95.892618 
L 318.837457 97.127137 
L 320.871634 97.682305 
L 324.939986 99.793405 
L 326.974163 100.312049 
L 331.042515 100.728425 
L 333.076692 101.451604 
L 335.110868 102.854134 
L 337.145044 105.111331 
L 339.179221 106.638043 
L 341.213397 107.324699 
L 345.28175 114.030545 
L 347.315926 119.041668 
L 349.350103 125.696381 
L 351.384279 127.303447 
L 353.418455 129.312279 
L 355.452632 129.290364 
L 357.486808 130.108507 
L 359.520984 142.198023 
L 361.555161 141.913134 
L 363.589337 145.733568 
L 365.623513 152.848486 
L 367.65769 157.706207 
L 369.691866 160.978777 
L 371.726042 157.57472 
L 373.760219 163.929934 
L 375.794395 167.670014 
L 377.828571 167.874549 
L 379.862748 171.242082 
L 381.896924 194.595668 
L 383.9311 196.925913 
L 385.965277 198.452626 
L 387.999453 197.55413 
L 392.067806 204.654438 
L 394.101982 207.890484 
L 396.136159 207.766302 
L 398.170335 207.948923 
L 400.204511 211.184969 
L 402.238688 214.17265 
L 404.272864 214.136126 
L 406.30704 218.058827 
L 408.341217 220.695875 
L 410.375393 219.220297 
L 412.409569 221.966918 
L 414.443746 218.204924 
L 416.477922 222.222588 
L 418.512098 220.666656 
L 420.546275 220.783533 
L 422.580451 226.525141 
L 424.614627 239.125996 
L 426.648804 241.237096 
L 428.68298 241.777655 
L 430.717157 242.091763 
L 432.751333 237.606589 
L 434.785509 237.577369 
L 436.819686 242.040629 
L 438.853862 242.383957 
L 440.888038 247.468128 
L 442.922215 248.848744 
L 444.956391 247.767627 
L 446.990567 249.827593 
L 449.024744 249.02406 
L 451.05892 249.097108 
L 453.093096 250.514248 
L 455.127273 249.783764 
L 457.161449 256.0221 
L 459.195625 258.082066 
L 461.229802 256.635707 
L 463.263978 255.510761 
L 465.298154 256.065929 
L 467.332331 254.597656 
L 471.400684 253.69916 
L 473.43486 253.648026 
L 475.469036 257.716824 
L 477.503213 262.640289 
L 479.537389 264.868266 
L 483.605742 272.034318 
L 485.639918 269.923218 
L 487.674094 274.28421 
L 489.708271 274.386478 
L 491.742447 276.665589 
L 493.776623 276.219994 
L 495.8108 280.047732 
L 497.844976 285.51906 
L 499.879152 285.460621 
L 501.913329 287.498672 
L 503.947505 288.243767 
L 505.981681 285.606718 
L 508.015858 289.763174 
L 510.050034 295.395209 
L 512.084211 301.385181 
L 514.118387 297.944599 
L 516.152563 300.567038 
L 518.18674 297.148371 
L 520.220916 292.962696 
L 522.255092 297.214115 
L 524.289269 297.316383 
L 526.323445 295.855414 
L 528.357621 298.404804 
L 530.391798 298.15644 
L 532.425974 300.676611 
L 534.46015 299.800029 
L 536.494327 300.172577 
L 538.528503 299.127984 
L 540.562679 298.791961 
L 542.596856 297.951904 
L 544.631032 301.450924 
L 546.665208 301.801557 
L 548.699385 296.490935 
L 550.733561 295.628964 
L 552.767738 300.998024 
L 554.801914 304.182936 
L 556.83609 301.889215 
L 558.870267 303.021466 
L 560.904443 304.329033 
L 562.938619 311.655791 
L 564.972796 316.542732 
L 567.006972 324.059416 
L 569.041148 324.263952 
L 571.075325 331.692978 
L 573.109501 329.669536 
L 575.143677 330.180875 
L 577.177854 329.983644 
L 579.21203 331.955952 
L 581.246206 331.875599 
L 583.280383 334.191234 
L 585.314559 334.235063 
L 587.348735 334.39577 
L 589.382912 337.230049 
L 591.417088 335.922482 
L 593.451265 346.521811 
L 595.485441 346.11274 
L 597.519617 345.16311 
L 599.553794 345.455304 
L 601.58797 343.767885 
L 603.622146 346.814005 
L 605.656323 346.857834 
L 607.690499 349.407224 
L 609.724675 347.705196 
L 611.758852 348.574472 
L 613.793028 350.203452 
L 615.827204 351.291874 
L 617.861381 350.99968 
L 619.895557 352.811281 
L 621.929733 354.148068 
L 623.96391 354.586358 
L 625.998086 353.045036 
L 628.032262 350.744011 
L 630.066439 349.991612 
L 632.100615 350.685572 
L 634.134792 351.138472 
L 636.168968 356.923908 
L 638.203144 360.737037 
L 640.237321 363.63706 
L 642.271497 367.479408 
L 644.305673 366.21567 
L 646.33985 365.309869 
L 648.374026 369.437106 
L 650.408202 370.708149 
L 652.442379 371.35828 
L 654.476555 369.802348 
L 656.510731 370.299078 
L 658.544908 376.026075 
L 662.61326 376.895352 
L 664.647437 375.741186 
L 666.681613 379.378999 
L 668.715789 380.021825 
L 670.749966 381.000674 
L 674.818319 377.136411 
L 676.852495 377.158326 
L 678.886671 376.720035 
L 680.920848 380.065654 
L 682.955024 378.874964 
L 684.9892 380.650041 
L 687.023377 378.034907 
L 689.057553 379.276731 
L 691.091729 379.831899 
L 693.125906 379.802679 
L 695.160082 383.418577 
L 697.194258 382.615044 
L 701.262611 381.482794 
L 703.296787 381.270953 
L 705.330964 383.820344 
L 707.36514 384.609267 
L 709.399316 385.018338 
L 711.433493 382.410509 
L 713.467669 389.313586 
L 715.501846 386.201723 
L 721.604375 386.932207 
L 723.638551 389.722657 
L 725.672727 390.55541 
L 727.706904 390.730726 
L 729.74108 390.233996 
L 731.775256 390.233996 
L 733.809433 389.868754 
L 735.843609 390.0879 
L 737.877785 389.211318 
L 739.911962 393.937552 
L 741.946138 396.413894 
L 743.980314 398.02096 
L 746.014491 397.984436 
L 748.048667 398.780664 
L 750.082843 404.55149 
L 752.11702 404.770636 
L 754.151196 405.508425 
L 756.185373 400.248937 
L 758.219549 398.532299 
L 760.253725 398.313154 
L 762.287902 399.474624 
L 764.322078 399.613416 
L 766.356254 400.066316 
L 768.390431 400.380425 
L 770.424607 401.461541 
L 772.458783 401.388493 
L 774.49296 400.979422 
L 776.527136 397.283171 
L 778.561312 400.051707 
L 780.595489 399.321222 
L 782.629665 398.013655 
L 784.663841 401.870613 
L 786.698018 401.023251 
L 788.732194 401.936356 
L 790.76637 402.053234 
L 792.800547 399.927524 
L 794.834723 398.079399 
L 796.8689 397.743376 
L 798.903076 397.933302 
L 802.971429 402.097063 
L 805.005605 402.199331 
L 807.039781 403.704129 
L 809.073958 403.127046 
L 811.108134 405.990545 
L 813.14231 405.084744 
L 815.176487 405.771399 
L 817.210663 406.129337 
L 819.244839 407.546476 
L 821.279016 407.108186 
L 823.313192 406.881736 
L 825.347368 405.932106 
L 827.381545 409.562613 
L 829.415721 411.965907 
L 831.449897 414.982807 
L 833.484074 415.954352 
L 835.51825 415.384574 
L 837.552427 415.180038 
L 841.620779 415.625634 
L 843.654956 414.003958 
L 845.689132 412.784049 
L 847.723308 413.23695 
L 849.757485 411.030887 
L 851.791661 419.175788 
L 853.825837 419.153873 
L 855.860014 419.015081 
L 857.89419 419.884358 
L 861.962543 419.78209 
L 863.996719 442.697385 
L 866.030895 445.334434 
L 868.065072 444.384804 
L 870.099248 443.990342 
L 872.133424 444.530901 
L 874.167601 444.048781 
L 876.201777 443.39865 
L 878.235954 446.276759 
L 880.27013 428.796267 
L 882.304306 430.08192 
L 884.338483 428.248404 
L 886.372659 434.735105 
L 888.406835 436.407915 
L 890.441012 441.148758 
L 892.475188 442.814263 
L 894.509364 445.553579 
L 896.543541 457.321682 
L 898.577717 457.117147 
L 900.611893 457.292463 
L 902.64607 459.732281 
L 904.680246 459.498526 
L 906.714422 460.185181 
L 908.748599 462.36933 
L 910.782775 460.163267 
L 912.816951 460.630777 
L 914.851128 460.440851 
L 916.885304 464.319723 
L 918.919481 464.736099 
L 920.953657 459.08215 
L 922.987833 458.490458 
L 925.02201 456.649637 
L 927.056186 455.948372 
L 929.090362 456.795734 
L 931.124539 456.598503 
L 933.158715 456.803039 
L 935.192891 457.42395 
L 937.227068 455.751141 
L 939.261244 455.758446 
L 941.29542 456.057945 
L 943.329597 455.80958 
L 945.363773 461.587711 
L 947.397949 465.430059 
L 949.432126 465.977922 
L 951.466302 478.009 
L 953.500478 478.045525 
L 955.534655 477.957866 
L 957.568831 483.779827 
L 959.603008 483.728693 
L 961.637184 484.232727 
L 963.67136 478.724875 
L 965.705537 480.982072 
L 967.739713 481.033206 
L 969.773889 469.235883 
L 971.808066 469.681478 
L 975.876418 469.805661 
L 977.910595 473.531131 
L 979.944771 473.399644 
L 981.978947 461.332042 
L 984.013124 465.780692 
L 986.0473 465.890264 
L 988.081476 459.710366 
L 990.115653 478.593388 
L 992.149829 480.229673 
L 994.184005 480.478038 
L 996.218182 479.689114 
L 996.218182 479.689114 
" style="fill:none;stroke:#d62728;stroke-dasharray:5.55,2.4;stroke-dashoffset:0;stroke-width:1.5;"/>
   </g>
   <g id="line2d_19">
    <path clip-path="url(#pe547280214)" d="M 184.581818 88.938407 
L 288.324812 88.982236 
L 294.427341 89.150247 
L 298.495694 89.099113 
L 300.52987 89.208686 
L 302.564046 89.157552 
L 306.632399 89.50088 
L 308.666576 90.16562 
L 310.700752 90.202145 
L 312.734928 90.399375 
L 316.803281 90.596606 
L 320.871634 91.027592 
L 324.939986 90.925324 
L 326.974163 91.159079 
L 329.008339 91.246737 
L 333.076692 91.663113 
L 337.145044 91.655809 
L 339.179221 91.984527 
L 345.28175 92.53239 
L 347.315926 92.890327 
L 349.350103 92.963376 
L 351.384279 93.219045 
L 353.418455 93.197131 
L 355.452632 93.306703 
L 357.486808 93.233655 
L 359.520984 93.569678 
L 361.555161 94.212504 
L 363.589337 94.577746 
L 365.623513 95.198658 
L 367.65769 94.796891 
L 373.760219 96.024105 
L 375.794395 96.170202 
L 377.828571 96.557359 
L 379.862748 96.25786 
L 381.896924 96.411262 
L 383.9311 96.214031 
L 385.965277 96.637712 
L 387.999453 96.747285 
L 390.03363 97.302453 
L 392.067806 97.733439 
L 394.101982 98.756117 
L 396.136159 98.36896 
L 398.170335 98.38357 
L 400.204511 99.362419 
L 402.238688 99.640003 
L 404.272864 101.86798 
L 406.30704 101.787627 
L 408.341217 103.365473 
L 410.375393 103.124413 
L 412.409569 103.365473 
L 414.443746 103.014841 
L 416.477922 103.160938 
L 418.512098 104.67304 
L 420.546275 104.67304 
L 422.580451 105.418134 
L 424.614627 106.462727 
L 426.648804 105.250123 
L 428.68298 107.156687 
L 430.717157 107.938306 
L 432.751333 109.202044 
L 434.785509 111.225485 
L 436.819686 111.196266 
L 438.853862 112.270078 
L 442.922215 112.920209 
L 444.956391 115.192015 
L 446.990567 117.931332 
L 449.024744 120.188529 
L 451.05892 123.716768 
L 453.093096 125.937441 
L 455.127273 126.638706 
L 457.161449 125.097384 
L 459.195625 125.813258 
L 461.229802 127.215788 
L 463.263978 131.094661 
L 465.298154 133.519869 
L 467.332331 134.060427 
L 469.366507 142.066536 
L 471.400684 141.16804 
L 473.43486 154.638172 
L 475.469036 158.25407 
L 477.503213 158.159107 
L 479.537389 160.182549 
L 481.571565 161.234446 
L 483.605742 165.186367 
L 485.639918 167.187894 
L 487.674094 165.97529 
L 489.708271 169.415871 
L 491.742447 171.899518 
L 493.776623 170.277843 
L 495.8108 174.726493 
L 497.844976 176.852202 
L 499.879152 178.656499 
L 501.913329 177.611906 
L 503.947505 177.911405 
L 505.981681 177.078653 
L 508.015858 177.604601 
L 510.050034 184.193571 
L 512.084211 185.070152 
L 514.118387 189.964397 
L 516.152563 190.234676 
L 518.18674 189.840215 
L 520.220916 190.621833 
L 522.255092 189.029377 
L 524.289269 188.452295 
L 526.323445 191.352318 
L 528.357621 189.051292 
L 530.391798 188.423075 
L 532.425974 189.971702 
L 534.46015 190.694882 
L 536.494327 192.842506 
L 538.528503 198.189651 
L 540.562679 199.256159 
L 542.596856 197.597959 
L 544.631032 200.834005 
L 546.665208 202.565253 
L 548.699385 205.574849 
L 552.767738 204.165014 
L 554.801914 206.860501 
L 556.83609 209.051954 
L 558.870267 212.003111 
L 560.904443 210.651715 
L 562.938619 208.284946 
L 564.972796 207.35723 
L 567.006972 211.265322 
L 569.041148 208.518701 
L 571.075325 204.975851 
L 573.109501 202.134267 
L 575.143677 204.676353 
L 577.177854 205.479886 
L 579.21203 211.813185 
L 581.246206 214.662074 
L 583.280383 218.628605 
L 585.314559 221.017288 
L 587.348735 220.484035 
L 589.382912 221.733163 
L 591.417088 223.720081 
L 593.451265 220.001915 
L 595.485441 220.060354 
L 597.519617 228.855386 
L 599.553794 230.696207 
L 601.58797 234.428982 
L 603.622146 236.379375 
L 605.656323 233.815375 
L 607.690499 236.737312 
L 609.724675 238.928766 
L 611.758852 236.620435 
L 613.793028 239.483934 
L 615.827204 235.729244 
L 617.861381 239.761518 
L 619.895557 238.358988 
L 621.929733 237.423968 
L 623.96391 239.337837 
L 625.998086 238.731535 
L 628.032262 240.440868 
L 630.066439 238.51239 
L 632.100615 240.82072 
L 634.134792 245.985245 
L 636.168968 249.92986 
L 638.203144 255.649553 
L 640.237321 264.130477 
L 642.271497 259.637998 
L 644.305673 261.361941 
L 646.33985 263.443822 
L 648.374026 261.427685 
L 650.408202 266.497246 
L 652.442379 268.907845 
L 654.476555 285.226866 
L 656.510731 282.779743 
L 658.544908 291.435983 
L 660.579084 288.002707 
L 662.61326 283.115766 
L 664.647437 280.785521 
L 666.681613 277.914717 
L 668.715789 283.590581 
L 670.749966 284.993111 
L 672.784142 288.163413 
L 674.818319 283.510228 
L 676.852495 288.835459 
L 678.886671 283.970433 
L 680.920848 290.931949 
L 682.955024 291.187619 
L 684.9892 305.402845 
L 687.023377 308.565842 
L 689.057553 314.679996 
L 691.091729 312.992578 
L 693.125906 310.954526 
L 695.160082 313.949512 
L 697.194258 310.143688 
L 699.228435 309.237888 
L 701.262611 304.884201 
L 703.296787 302.597785 
L 705.330964 303.014161 
L 707.36514 302.553956 
L 709.399316 302.298286 
L 711.433493 300.384417 
L 713.467669 290.815072 
L 715.501846 316.535427 
L 717.536022 319.311267 
L 719.570198 319.727644 
L 721.604375 318.785319 
L 723.638551 322.94908 
L 725.672727 320.202458 
L 727.706904 321.415062 
L 729.74108 321.327404 
L 731.775256 322.532704 
L 733.809433 318.449296 
L 735.843609 331.430003 
L 737.877785 335.542631 
L 739.911962 339.027041 
L 741.946138 331.766026 
L 743.980314 330.765263 
L 746.014491 347.2596 
L 748.048667 341.612956 
L 750.082843 348.136181 
L 752.11702 353.651338 
L 754.151196 362.322188 
L 756.185373 377.560092 
L 758.219549 384.244025 
L 760.253725 377.282508 
L 762.287902 380.102178 
L 764.322078 387.005255 
L 766.356254 380.745004 
L 768.390431 380.93493 
L 770.424607 382.57852 
L 772.458783 383.681552 
L 774.49296 377.545483 
L 776.527136 387.575033 
L 778.561312 394.339319 
L 780.595489 395.267034 
L 782.629665 400.950202 
L 784.663841 402.265074 
L 786.698018 402.155502 
L 788.732194 403.879445 
L 790.76637 404.09859 
L 792.800547 406.750248 
L 794.834723 406.764858 
L 796.8689 407.378465 
L 798.903076 411.250032 
L 800.937252 412.360369 
L 802.971429 422.426443 
L 805.005605 422.389919 
L 807.039781 416.363423 
L 809.073958 414.318067 
L 811.108134 420.921646 
L 813.14231 423.251891 
L 815.176487 423.872802 
L 817.210663 424.953919 
L 819.244839 429.570581 
L 823.313192 429.607105 
L 825.347368 429.35874 
L 827.381545 429.417179 
L 829.415721 429.680153 
L 831.449897 433.456758 
L 833.484074 431.564803 
L 835.51825 434.895812 
L 837.552427 431.871606 
L 839.586603 436.933863 
L 845.689132 437.459812 
L 847.723308 437.123789 
L 849.757485 437.350239 
L 851.791661 439.906935 
L 853.825837 443.026103 
L 855.860014 443.1722 
L 857.89419 442.112998 
L 859.928366 442.675471 
L 863.996719 442.7193 
L 866.030895 440.6082 
L 868.065072 440.739687 
L 870.099248 441.221807 
L 874.167601 441.667402 
L 876.201777 441.258331 
L 878.235954 447.547801 
L 880.27013 447.577021 
L 882.304306 451.34632 
L 884.338483 452.011061 
L 886.372659 452.04028 
L 888.406835 445.202947 
L 890.441012 445.202947 
L 894.509364 439.395596 
L 896.543541 439.052268 
L 898.577717 440.162604 
L 900.611893 440.001898 
L 902.64607 440.001898 
L 904.680246 442.134912 
L 906.714422 442.142217 
L 908.748599 442.310228 
L 910.782775 445.436702 
L 912.816951 448.219847 
L 914.851128 448.78232 
L 916.885304 450.009534 
L 918.919481 450.922639 
L 920.953657 450.513568 
L 922.987833 448.07375 
L 925.02201 449.542024 
L 927.056186 448.826149 
L 929.090362 447.503972 
L 931.124539 467.533854 
L 933.158715 464.955244 
L 935.192891 464.22476 
L 937.227068 466.540395 
L 939.261244 466.496566 
L 941.29542 465.086732 
L 943.329597 468.359302 
L 945.363773 467.614207 
L 947.397949 466.993296 
L 949.432126 468.154766 
L 951.466302 468.089022 
L 953.500478 465.364316 
L 955.534655 465.079427 
L 957.568831 465.108646 
L 959.603008 463.822994 
L 961.637184 466.628054 
L 963.67136 470.010196 
L 965.705537 469.922538 
L 967.739713 458.746127 
L 969.773889 457.774583 
L 971.808066 458.337056 
L 973.842242 458.030252 
L 975.876418 461.069067 
L 977.910595 468.425045 
L 979.944771 469.301626 
L 981.978947 469.024042 
L 986.0473 467.877182 
L 988.081476 467.804133 
L 990.115653 463.03407 
L 992.149829 466.964076 
L 994.184005 467.577683 
L 996.218182 464.838367 
L 996.218182 464.838367 
" style="fill:none;stroke:#9467bd;stroke-dasharray:5.55,2.4;stroke-dashoffset:0;stroke-width:1.5;"/>
   </g>
   <g id="line2d_20">
    <path clip-path="url(#pe547280214)" d="M 184.581818 88.938407 
L 292.393165 89.047979 
L 294.427341 89.062589 
L 296.461517 88.960321 
L 298.495694 89.099113 
L 300.52987 89.113723 
L 306.632399 89.427831 
L 308.666576 89.515489 
L 310.700752 89.47166 
L 314.769105 89.807683 
L 316.803281 90.041438 
L 322.90581 90.056048 
L 331.042515 90.530863 
L 333.076692 90.501643 
L 335.110868 90.801142 
L 337.145044 90.830361 
L 339.179221 91.020287 
L 341.213397 90.947239 
L 345.28175 91.224823 
L 347.315926 91.334395 
L 349.350103 91.685028 
L 351.384279 91.641199 
L 355.452632 92.846498 
L 357.486808 92.525085 
L 359.520984 92.904937 
L 361.555161 92.926851 
L 363.589337 92.590829 
L 369.691866 93.891091 
L 371.726042 93.650031 
L 373.760219 93.964139 
L 375.794395 93.591592 
L 377.828571 93.854567 
L 379.862748 93.861871 
L 381.896924 94.365906 
L 383.9311 94.322077 
L 387.999453 94.957598 
L 390.03363 95.892618 
L 392.067806 96.25786 
L 396.136159 95.534681 
L 398.170335 95.541985 
L 400.204511 95.425108 
L 402.238688 95.54929 
L 404.272864 96.73998 
L 406.30704 96.27247 
L 410.375393 97.675 
L 412.409569 98.697678 
L 416.477922 101.071752 
L 418.512098 101.955638 
L 420.546275 103.255901 
L 422.580451 102.839524 
L 424.614627 104.556163 
L 426.648804 105.220904 
L 428.68298 105.461963 
L 430.717157 106.163228 
L 432.751333 104.263969 
L 434.785509 104.402761 
L 436.819686 105.629975 
L 438.853862 105.703023 
L 440.888038 107.697246 
L 444.956391 109.085166 
L 446.990567 107.828733 
L 449.024744 108.055183 
L 451.05892 107.850647 
L 453.093096 106.922932 
L 455.127273 108.369291 
L 457.161449 109.370055 
L 459.195625 109.691468 
L 461.229802 109.888699 
L 463.263978 111.95597 
L 465.298154 111.327753 
L 467.332331 112.540357 
L 469.366507 113.132049 
L 471.400684 112.956733 
L 473.43486 112.416175 
L 475.469036 113.920973 
L 477.503213 114.702591 
L 479.537389 116.484973 
L 481.571565 119.553007 
L 483.605742 119.509178 
L 485.639918 119.947469 
L 487.674094 121.912472 
L 489.708271 122.197361 
L 491.742447 121.0505 
L 493.776623 121.54723 
L 495.8108 119.618751 
L 497.844976 120.108175 
L 501.913329 122.401896 
L 503.947505 122.767139 
L 505.981681 122.942455 
L 508.015858 124.754056 
L 510.050034 128.019321 
L 512.084211 127.303447 
L 514.118387 130.65637 
L 516.152563 133.023139 
L 518.18674 133.541783 
L 520.220916 134.557157 
L 522.255092 132.599458 
L 524.289269 131.774011 
L 526.323445 137.479094 
L 528.357621 137.157681 
L 530.391798 133.68788 
L 532.425974 135.521396 
L 534.46015 141.109601 
L 536.494327 141.913134 
L 538.528503 142.030012 
L 540.562679 145.492508 
L 542.596856 147.581693 
L 546.665208 139.480621 
L 548.699385 140.437556 
L 550.733561 142.11767 
L 552.767738 139.648633 
L 554.801914 141.862 
L 556.83609 142.417169 
L 558.870267 142.227243 
L 560.904443 146.442137 
L 562.938619 143.008861 
L 564.972796 147.150707 
L 567.006972 155.259084 
L 569.041148 152.154525 
L 571.075325 147.808143 
L 573.109501 146.515186 
L 575.143677 148.326787 
L 577.177854 154.075699 
L 579.21203 161.146788 
L 581.246206 170.307062 
L 583.280383 176.282425 
L 585.314559 175.230527 
L 587.348735 174.346641 
L 591.417088 180.351223 
L 593.451265 184.748739 
L 595.485441 185.902904 
L 597.519617 189.285047 
L 599.553794 190.030141 
L 601.58797 190.928637 
L 603.622146 190.78254 
L 605.656323 200.724432 
L 607.690499 198.058164 
L 609.724675 197.364204 
L 611.758852 202.988934 
L 613.793028 200.936273 
L 617.861381 213.873151 
L 619.895557 216.035385 
L 621.929733 217.043453 
L 623.96391 221.448274 
L 625.998086 216.911966 
L 628.032262 215.041926 
L 632.100615 215.597094 
L 634.134792 215.553265 
L 636.168968 221.163385 
L 638.203144 218.39485 
L 640.237321 222.668183 
L 642.271497 223.705471 
L 644.305673 223.405972 
L 646.33985 230.170258 
L 648.374026 230.513585 
L 650.408202 226.006497 
L 652.442379 223.668947 
L 654.476555 226.006497 
L 656.510731 226.021107 
L 658.544908 225.305232 
L 660.579084 230.981095 
L 662.61326 228.789642 
L 664.647437 227.847317 
L 666.681613 228.979568 
L 668.715789 226.34252 
L 670.749966 228.124902 
L 672.784142 240.462783 
L 674.818319 242.091763 
L 676.852495 238.534304 
L 678.886671 238.147147 
L 680.920848 239.17713 
L 682.955024 237.979136 
L 684.9892 246.021769 
L 687.023377 253.114772 
L 689.057553 253.516539 
L 691.091729 257.672995 
L 693.125906 255.32814 
L 695.160082 253.363137 
L 697.194258 247.738407 
L 699.228435 250.353541 
L 701.262611 260.061679 
L 703.296787 263.655662 
L 705.330964 272.450694 
L 707.36514 266.365759 
L 709.399316 270.478386 
L 711.433493 273.466067 
L 713.467669 275.299583 
L 715.501846 281.457567 
L 717.536022 277.081965 
L 719.570198 277.710182 
L 721.604375 288.024621 
L 723.638551 284.971196 
L 725.672727 291.698958 
L 727.706904 288.338729 
L 729.74108 291.399459 
L 731.775256 296.447106 
L 733.809433 295.146844 
L 735.843609 305.446674 
L 737.877785 310.384748 
L 739.911962 311.422036 
L 741.946138 316.593866 
L 743.980314 334.330026 
L 746.014491 340.780204 
L 748.048667 344.849002 
L 750.082843 358.406792 
L 752.11702 368.750451 
L 754.151196 382.848799 
L 756.185373 383.250566 
L 758.219549 396.37737 
L 760.253725 404.478442 
L 762.287902 403.981713 
L 764.322078 406.085508 
L 766.356254 405.099354 
L 768.390431 405.216231 
L 770.424607 412.594124 
L 772.458783 417.985098 
L 774.49296 425.194979 
L 776.527136 425.246113 
L 778.561312 419.446067 
L 782.629665 418.868984 
L 784.663841 414.86593 
L 786.698018 422.886649 
L 788.732194 422.652894 
L 790.76637 431.630547 
L 792.800547 442.032644 
L 794.834723 442.207961 
L 796.8689 440.637419 
L 798.903076 440.798126 
L 800.937252 439.519778 
L 802.971429 439.979983 
L 805.005605 440.221043 
L 807.039781 426.962751 
L 809.073958 429.453703 
L 811.108134 429.519447 
L 813.14231 430.206102 
L 815.176487 430.344894 
L 817.210663 432.843151 
L 819.244839 434.238376 
L 821.279016 439.088792 
L 823.313192 432.258763 
L 825.347368 435.049214 
L 827.381545 436.057282 
L 829.415721 436.488268 
L 831.449897 436.678194 
L 833.484074 436.312952 
L 839.586603 436.663584 
L 841.620779 434.873897 
L 843.654956 434.954251 
L 845.689132 433.982706 
L 847.723308 431.214171 
L 849.757485 430.943891 
L 851.791661 431.637851 
L 853.825837 431.667071 
L 857.89419 431.849692 
L 859.928366 424.93931 
L 861.962543 425.297247 
L 863.996719 423.149623 
L 866.030895 420.118113 
L 868.065072 420.497965 
L 870.099248 420.709805 
L 872.133424 420.665976 
L 874.167601 419.431457 
L 876.201777 417.495674 
L 878.235954 416.852848 
L 880.27013 416.911286 
L 882.304306 416.852848 
L 886.372659 419.394933 
L 888.406835 418.825155 
L 890.441012 412.30193 
L 892.475188 412.594124 
L 894.509364 412.594124 
L 896.543541 412.404198 
L 898.577717 414.369201 
L 900.611893 420.26421 
L 902.64607 421.89319 
L 904.680246 420.71711 
L 906.714422 420.300734 
L 908.748599 422.645589 
L 910.782775 423.412597 
L 912.816951 411.914773 
L 914.851128 415.5745 
L 916.885304 411.549531 
L 918.919481 412.52838 
L 920.953657 416.546044 
L 922.987833 420.118113 
L 925.02201 419.599469 
L 927.056186 419.628688 
L 929.090362 420.541794 
L 931.124539 421.272278 
L 933.158715 422.294956 
L 935.192891 421.549862 
L 937.227068 421.476814 
L 939.261244 421.133486 
L 941.29542 421.66674 
L 943.329597 427.561749 
L 945.363773 420.600232 
L 947.397949 422.324176 
L 949.432126 423.237281 
L 951.466302 423.456426 
L 953.500478 432.470604 
L 955.534655 432.609396 
L 957.568831 433.244917 
L 959.603008 435.852746 
L 961.637184 437.898103 
L 963.67136 436.999607 
L 965.705537 462.880669 
L 967.739713 462.719962 
L 969.773889 466.628054 
L 971.808066 466.664578 
L 973.842242 466.160544 
L 975.876418 460.828008 
L 977.910595 447.883824 
L 979.944771 448.161408 
L 981.978947 447.547801 
L 984.013124 455.035266 
L 986.0473 459.56427 
L 988.081476 452.946081 
L 990.115653 448.497431 
L 992.149829 448.110274 
L 994.184005 448.54126 
L 996.218182 449.410537 
L 996.218182 449.410537 
" style="fill:none;stroke:#8c564b;stroke-dasharray:5.55,2.4;stroke-dashoffset:0;stroke-width:1.5;"/>
   </g>
   <g id="patch_3">
    <path d="M 144 504 
L 144 69.12 
" style="fill:none;stroke:#000000;stroke-linecap:square;stroke-linejoin:miter;stroke-width:0.8;"/>
   </g>
   <g id="patch_4">
    <path d="M 1036.8 504 
L 1036.8 69.12 
" style="fill:none;stroke:#000000;stroke-linecap:square;stroke-linejoin:miter;stroke-width:0.8;"/>
   </g>
   <g id="patch_5">
    <path d="M 144 504 
L 1036.8 504 
" style="fill:none;stroke:#000000;stroke-linecap:square;stroke-linejoin:miter;stroke-width:0.8;"/>
   </g>
   <g id="patch_6">
    <path d="M 144 69.12 
L 1036.8 69.12 
" style="fill:none;stroke:#000000;stroke-linecap:square;stroke-linejoin:miter;stroke-width:0.8;"/>
   </g>
   <g id="legend_1">
    <g id="patch_7">
     <path d="M 905.367188 166.579375 
L 1029.8 166.579375 
Q 1031.8 166.579375 1031.8 164.579375 
L 1031.8 76.12 
Q 1031.8 74.12 1029.8 74.12 
L 905.367188 74.12 
Q 903.367188 74.12 903.367188 76.12 
L 903.367188 164.579375 
Q 903.367188 166.579375 905.367188 166.579375 
z
" style="fill:#ffffff;opacity:0.8;stroke:#cccccc;stroke-linejoin:miter;"/>
    </g>
    <g id="line2d_21">
     <path d="M 907.367188 82.218438 
L 927.367188 82.218438 
" style="fill:none;stroke:#1f77b4;stroke-linecap:square;stroke-width:1.5;"/>
    </g>
    <g id="line2d_22"/>
    <g id="text_17">
     <!-- taylorfo -->
     <defs>
      <path d="M 18.3125 70.21875 
L 18.3125 54.6875 
L 36.8125 54.6875 
L 36.8125 47.703125 
L 18.3125 47.703125 
L 18.3125 18.015625 
Q 18.3125 11.328125 20.140625 9.421875 
Q 21.96875 7.515625 27.59375 7.515625 
L 36.8125 7.515625 
L 36.8125 0 
L 27.59375 0 
Q 17.1875 0 13.234375 3.875 
Q 9.28125 7.765625 9.28125 18.015625 
L 9.28125 47.703125 
L 2.6875 47.703125 
L 2.6875 54.6875 
L 9.28125 54.6875 
L 9.28125 70.21875 
z
" id="DejaVuSans-116"/>
      <path d="M 9.421875 75.984375 
L 18.40625 75.984375 
L 18.40625 0 
L 9.421875 0 
z
" id="DejaVuSans-108"/>
     </defs>
     <g transform="translate(935.367188 85.718438)scale(0.1 -0.1)">
      <use xlink:href="#DejaVuSans-116"/>
      <use x="39.208984" xlink:href="#DejaVuSans-97"/>
      <use x="100.488281" xlink:href="#DejaVuSans-121"/>
      <use x="159.667969" xlink:href="#DejaVuSans-108"/>
      <use x="187.451172" xlink:href="#DejaVuSans-111"/>
      <use x="248.632812" xlink:href="#DejaVuSans-114"/>
      <use x="289.746094" xlink:href="#DejaVuSans-102"/>
      <use x="324.951172" xlink:href="#DejaVuSans-111"/>
     </g>
    </g>
    <g id="line2d_23">
     <path d="M 907.367188 96.896563 
L 927.367188 96.896563 
" style="fill:none;stroke:#ff7f0e;stroke-linecap:square;stroke-width:1.5;"/>
    </g>
    <g id="line2d_24"/>
    <g id="text_18">
     <!-- taylorfo_abs -->
     <defs>
      <path d="M 50.984375 -16.609375 
L 50.984375 -23.578125 
L -0.984375 -23.578125 
L -0.984375 -16.609375 
z
" id="DejaVuSans-95"/>
     </defs>
     <g transform="translate(935.367188 100.396563)scale(0.1 -0.1)">
      <use xlink:href="#DejaVuSans-116"/>
      <use x="39.208984" xlink:href="#DejaVuSans-97"/>
      <use x="100.488281" xlink:href="#DejaVuSans-121"/>
      <use x="159.667969" xlink:href="#DejaVuSans-108"/>
      <use x="187.451172" xlink:href="#DejaVuSans-111"/>
      <use x="248.632812" xlink:href="#DejaVuSans-114"/>
      <use x="289.746094" xlink:href="#DejaVuSans-102"/>
      <use x="324.951172" xlink:href="#DejaVuSans-111"/>
      <use x="386.132812" xlink:href="#DejaVuSans-95"/>
      <use x="436.132812" xlink:href="#DejaVuSans-97"/>
      <use x="497.412109" xlink:href="#DejaVuSans-98"/>
      <use x="560.888672" xlink:href="#DejaVuSans-115"/>
     </g>
    </g>
    <g id="line2d_25">
     <path d="M 907.367188 111.852813 
L 927.367188 111.852813 
" style="fill:none;stroke:#2ca02c;stroke-linecap:square;stroke-width:1.5;"/>
    </g>
    <g id="line2d_26"/>
    <g id="text_19">
     <!-- taylorfo_sq -->
     <defs>
      <path d="M 14.796875 27.296875 
Q 14.796875 17.390625 18.875 11.75 
Q 22.953125 6.109375 30.078125 6.109375 
Q 37.203125 6.109375 41.296875 11.75 
Q 45.40625 17.390625 45.40625 27.296875 
Q 45.40625 37.203125 41.296875 42.84375 
Q 37.203125 48.484375 30.078125 48.484375 
Q 22.953125 48.484375 18.875 42.84375 
Q 14.796875 37.203125 14.796875 27.296875 
z
M 45.40625 8.203125 
Q 42.578125 3.328125 38.25 0.953125 
Q 33.9375 -1.421875 27.875 -1.421875 
Q 17.96875 -1.421875 11.734375 6.484375 
Q 5.515625 14.40625 5.515625 27.296875 
Q 5.515625 40.1875 11.734375 48.09375 
Q 17.96875 56 27.875 56 
Q 33.9375 56 38.25 53.625 
Q 42.578125 51.265625 45.40625 46.390625 
L 45.40625 54.6875 
L 54.390625 54.6875 
L 54.390625 -20.796875 
L 45.40625 -20.796875 
z
" id="DejaVuSans-113"/>
     </defs>
     <g transform="translate(935.367188 115.352813)scale(0.1 -0.1)">
      <use xlink:href="#DejaVuSans-116"/>
      <use x="39.208984" xlink:href="#DejaVuSans-97"/>
      <use x="100.488281" xlink:href="#DejaVuSans-121"/>
      <use x="159.667969" xlink:href="#DejaVuSans-108"/>
      <use x="187.451172" xlink:href="#DejaVuSans-111"/>
      <use x="248.632812" xlink:href="#DejaVuSans-114"/>
      <use x="289.746094" xlink:href="#DejaVuSans-102"/>
      <use x="324.951172" xlink:href="#DejaVuSans-111"/>
      <use x="386.132812" xlink:href="#DejaVuSans-95"/>
      <use x="436.132812" xlink:href="#DejaVuSans-115"/>
      <use x="488.232422" xlink:href="#DejaVuSans-113"/>
     </g>
    </g>
    <g id="line2d_27">
     <path d="M 907.367188 126.809063 
L 927.367188 126.809063 
" style="fill:none;stroke:#d62728;stroke-dasharray:5.55,2.4;stroke-dashoffset:0;stroke-width:1.5;"/>
    </g>
    <g id="line2d_28"/>
    <g id="text_20">
     <!-- taylorfo_norm -->
     <g transform="translate(935.367188 130.309063)scale(0.1 -0.1)">
      <use xlink:href="#DejaVuSans-116"/>
      <use x="39.208984" xlink:href="#DejaVuSans-97"/>
      <use x="100.488281" xlink:href="#DejaVuSans-121"/>
      <use x="159.667969" xlink:href="#DejaVuSans-108"/>
      <use x="187.451172" xlink:href="#DejaVuSans-111"/>
      <use x="248.632812" xlink:href="#DejaVuSans-114"/>
      <use x="289.746094" xlink:href="#DejaVuSans-102"/>
      <use x="324.951172" xlink:href="#DejaVuSans-111"/>
      <use x="386.132812" xlink:href="#DejaVuSans-95"/>
      <use x="436.132812" xlink:href="#DejaVuSans-110"/>
      <use x="499.511719" xlink:href="#DejaVuSans-111"/>
      <use x="560.693359" xlink:href="#DejaVuSans-114"/>
      <use x="600.056641" xlink:href="#DejaVuSans-109"/>
     </g>
    </g>
    <g id="line2d_29">
     <path d="M 907.367188 141.765313 
L 927.367188 141.765313 
" style="fill:none;stroke:#9467bd;stroke-dasharray:5.55,2.4;stroke-dashoffset:0;stroke-width:1.5;"/>
    </g>
    <g id="line2d_30"/>
    <g id="text_21">
     <!-- taylorfo_abs_norm -->
     <g transform="translate(935.367188 145.265313)scale(0.1 -0.1)">
      <use xlink:href="#DejaVuSans-116"/>
      <use x="39.208984" xlink:href="#DejaVuSans-97"/>
      <use x="100.488281" xlink:href="#DejaVuSans-121"/>
      <use x="159.667969" xlink:href="#DejaVuSans-108"/>
      <use x="187.451172" xlink:href="#DejaVuSans-111"/>
      <use x="248.632812" xlink:href="#DejaVuSans-114"/>
      <use x="289.746094" xlink:href="#DejaVuSans-102"/>
      <use x="324.951172" xlink:href="#DejaVuSans-111"/>
      <use x="386.132812" xlink:href="#DejaVuSans-95"/>
      <use x="436.132812" xlink:href="#DejaVuSans-97"/>
      <use x="497.412109" xlink:href="#DejaVuSans-98"/>
      <use x="560.888672" xlink:href="#DejaVuSans-115"/>
      <use x="612.988281" xlink:href="#DejaVuSans-95"/>
      <use x="662.988281" xlink:href="#DejaVuSans-110"/>
      <use x="726.367188" xlink:href="#DejaVuSans-111"/>
      <use x="787.548828" xlink:href="#DejaVuSans-114"/>
      <use x="826.912109" xlink:href="#DejaVuSans-109"/>
     </g>
    </g>
    <g id="line2d_31">
     <path d="M 907.367188 156.721563 
L 927.367188 156.721563 
" style="fill:none;stroke:#8c564b;stroke-dasharray:5.55,2.4;stroke-dashoffset:0;stroke-width:1.5;"/>
    </g>
    <g id="line2d_32"/>
    <g id="text_22">
     <!-- taylorfo_sq_norm -->
     <g transform="translate(935.367188 160.221563)scale(0.1 -0.1)">
      <use xlink:href="#DejaVuSans-116"/>
      <use x="39.208984" xlink:href="#DejaVuSans-97"/>
      <use x="100.488281" xlink:href="#DejaVuSans-121"/>
      <use x="159.667969" xlink:href="#DejaVuSans-108"/>
      <use x="187.451172" xlink:href="#DejaVuSans-111"/>
      <use x="248.632812" xlink:href="#DejaVuSans-114"/>
      <use x="289.746094" xlink:href="#DejaVuSans-102"/>
      <use x="324.951172" xlink:href="#DejaVuSans-111"/>
      <use x="386.132812" xlink:href="#DejaVuSans-95"/>
      <use x="436.132812" xlink:href="#DejaVuSans-115"/>
      <use x="488.232422" xlink:href="#DejaVuSans-113"/>
      <use x="551.708984" xlink:href="#DejaVuSans-95"/>
      <use x="601.708984" xlink:href="#DejaVuSans-110"/>
      <use x="665.087891" xlink:href="#DejaVuSans-111"/>
      <use x="726.269531" xlink:href="#DejaVuSans-114"/>
      <use x="765.632812" xlink:href="#DejaVuSans-109"/>
     </g>
    </g>
   </g>
  </g>
 </g>
 <defs>
  <clipPath id="pe547280214">
   <rect height="434.88" width="892.8" x="144" y="69.12"/>
  </clipPath>
 </defs>
</svg>
