<?xml version="1.0" encoding="utf-8" standalone="no"?>
<!DOCTYPE svg PUBLIC "-//W3C//DTD SVG 1.1//EN"
  "http://www.w3.org/Graphics/SVG/1.1/DTD/svg11.dtd">
<!-- Created with matplotlib (https://matplotlib.org/) -->
<svg height="576pt" version="1.1" viewBox="0 0 1152 576" width="1152pt" xmlns="http://www.w3.org/2000/svg" xmlns:xlink="http://www.w3.org/1999/xlink">
 <defs>
  <style type="text/css">
*{stroke-linecap:butt;stroke-linejoin:round;}
  </style>
 </defs>
 <g id="figure_1">
  <g id="patch_1">
   <path d="M 0 576 
L 1152 576 
L 1152 0 
L 0 0 
z
" style="fill:#ffffff;"/>
  </g>
  <g id="axes_1">
   <g id="patch_2">
    <path d="M 144 504 
L 1036.8 504 
L 1036.8 69.12 
L 144 69.12 
z
" style="fill:#ffffff;"/>
   </g>
   <g id="matplotlib.axis_1">
    <g id="xtick_1">
     <g id="line2d_1">
      <defs>
       <path d="M 0 0 
L 0 3.5 
" id="m15f3e68abe" style="stroke:#000000;stroke-width:0.8;"/>
      </defs>
      <g>
       <use style="stroke:#000000;stroke-width:0.8;" x="182.547642" xlink:href="#m15f3e68abe" y="504"/>
      </g>
     </g>
     <g id="text_1">
      <!-- 0 -->
      <defs>
       <path d="M 31.78125 66.40625 
Q 24.171875 66.40625 20.328125 58.90625 
Q 16.5 51.421875 16.5 36.375 
Q 16.5 21.390625 20.328125 13.890625 
Q 24.171875 6.390625 31.78125 6.390625 
Q 39.453125 6.390625 43.28125 13.890625 
Q 47.125 21.390625 47.125 36.375 
Q 47.125 51.421875 43.28125 58.90625 
Q 39.453125 66.40625 31.78125 66.40625 
z
M 31.78125 74.21875 
Q 44.046875 74.21875 50.515625 64.515625 
Q 56.984375 54.828125 56.984375 36.375 
Q 56.984375 17.96875 50.515625 8.265625 
Q 44.046875 -1.421875 31.78125 -1.421875 
Q 19.53125 -1.421875 13.0625 8.265625 
Q 6.59375 17.96875 6.59375 36.375 
Q 6.59375 54.828125 13.0625 64.515625 
Q 19.53125 74.21875 31.78125 74.21875 
z
" id="DejaVuSans-48"/>
      </defs>
      <g transform="translate(179.366392 518.598438)scale(0.1 -0.1)">
       <use xlink:href="#DejaVuSans-48"/>
      </g>
     </g>
    </g>
    <g id="xtick_2">
     <g id="line2d_2">
      <g>
       <use style="stroke:#000000;stroke-width:0.8;" x="284.256459" xlink:href="#m15f3e68abe" y="504"/>
      </g>
     </g>
     <g id="text_2">
      <!-- 50 -->
      <defs>
       <path d="M 10.796875 72.90625 
L 49.515625 72.90625 
L 49.515625 64.59375 
L 19.828125 64.59375 
L 19.828125 46.734375 
Q 21.96875 47.46875 24.109375 47.828125 
Q 26.265625 48.1875 28.421875 48.1875 
Q 40.625 48.1875 47.75 41.5 
Q 54.890625 34.8125 54.890625 23.390625 
Q 54.890625 11.625 47.5625 5.09375 
Q 40.234375 -1.421875 26.90625 -1.421875 
Q 22.3125 -1.421875 17.546875 -0.640625 
Q 12.796875 0.140625 7.71875 1.703125 
L 7.71875 11.625 
Q 12.109375 9.234375 16.796875 8.0625 
Q 21.484375 6.890625 26.703125 6.890625 
Q 35.15625 6.890625 40.078125 11.328125 
Q 45.015625 15.765625 45.015625 23.390625 
Q 45.015625 31 40.078125 35.4375 
Q 35.15625 39.890625 26.703125 39.890625 
Q 22.75 39.890625 18.8125 39.015625 
Q 14.890625 38.140625 10.796875 36.28125 
z
" id="DejaVuSans-53"/>
      </defs>
      <g transform="translate(277.893959 518.598438)scale(0.1 -0.1)">
       <use xlink:href="#DejaVuSans-53"/>
       <use x="63.623047" xlink:href="#DejaVuSans-48"/>
      </g>
     </g>
    </g>
    <g id="xtick_3">
     <g id="line2d_3">
      <g>
       <use style="stroke:#000000;stroke-width:0.8;" x="385.965277" xlink:href="#m15f3e68abe" y="504"/>
      </g>
     </g>
     <g id="text_3">
      <!-- 100 -->
      <defs>
       <path d="M 12.40625 8.296875 
L 28.515625 8.296875 
L 28.515625 63.921875 
L 10.984375 60.40625 
L 10.984375 69.390625 
L 28.421875 72.90625 
L 38.28125 72.90625 
L 38.28125 8.296875 
L 54.390625 8.296875 
L 54.390625 0 
L 12.40625 0 
z
" id="DejaVuSans-49"/>
      </defs>
      <g transform="translate(376.421527 518.598438)scale(0.1 -0.1)">
       <use xlink:href="#DejaVuSans-49"/>
       <use x="63.623047" xlink:href="#DejaVuSans-48"/>
       <use x="127.246094" xlink:href="#DejaVuSans-48"/>
      </g>
     </g>
    </g>
    <g id="xtick_4">
     <g id="line2d_4">
      <g>
       <use style="stroke:#000000;stroke-width:0.8;" x="487.674094" xlink:href="#m15f3e68abe" y="504"/>
      </g>
     </g>
     <g id="text_4">
      <!-- 150 -->
      <g transform="translate(478.130344 518.598438)scale(0.1 -0.1)">
       <use xlink:href="#DejaVuSans-49"/>
       <use x="63.623047" xlink:href="#DejaVuSans-53"/>
       <use x="127.246094" xlink:href="#DejaVuSans-48"/>
      </g>
     </g>
    </g>
    <g id="xtick_5">
     <g id="line2d_5">
      <g>
       <use style="stroke:#000000;stroke-width:0.8;" x="589.382912" xlink:href="#m15f3e68abe" y="504"/>
      </g>
     </g>
     <g id="text_5">
      <!-- 200 -->
      <defs>
       <path d="M 19.1875 8.296875 
L 53.609375 8.296875 
L 53.609375 0 
L 7.328125 0 
L 7.328125 8.296875 
Q 12.9375 14.109375 22.625 23.890625 
Q 32.328125 33.6875 34.8125 36.53125 
Q 39.546875 41.84375 41.421875 45.53125 
Q 43.3125 49.21875 43.3125 52.78125 
Q 43.3125 58.59375 39.234375 62.25 
Q 35.15625 65.921875 28.609375 65.921875 
Q 23.96875 65.921875 18.8125 64.3125 
Q 13.671875 62.703125 7.8125 59.421875 
L 7.8125 69.390625 
Q 13.765625 71.78125 18.9375 73 
Q 24.125 74.21875 28.421875 74.21875 
Q 39.75 74.21875 46.484375 68.546875 
Q 53.21875 62.890625 53.21875 53.421875 
Q 53.21875 48.921875 51.53125 44.890625 
Q 49.859375 40.875 45.40625 35.40625 
Q 44.1875 33.984375 37.640625 27.21875 
Q 31.109375 20.453125 19.1875 8.296875 
z
" id="DejaVuSans-50"/>
      </defs>
      <g transform="translate(579.839162 518.598438)scale(0.1 -0.1)">
       <use xlink:href="#DejaVuSans-50"/>
       <use x="63.623047" xlink:href="#DejaVuSans-48"/>
       <use x="127.246094" xlink:href="#DejaVuSans-48"/>
      </g>
     </g>
    </g>
    <g id="xtick_6">
     <g id="line2d_6">
      <g>
       <use style="stroke:#000000;stroke-width:0.8;" x="691.091729" xlink:href="#m15f3e68abe" y="504"/>
      </g>
     </g>
     <g id="text_6">
      <!-- 250 -->
      <g transform="translate(681.547979 518.598438)scale(0.1 -0.1)">
       <use xlink:href="#DejaVuSans-50"/>
       <use x="63.623047" xlink:href="#DejaVuSans-53"/>
       <use x="127.246094" xlink:href="#DejaVuSans-48"/>
      </g>
     </g>
    </g>
    <g id="xtick_7">
     <g id="line2d_7">
      <g>
       <use style="stroke:#000000;stroke-width:0.8;" x="792.800547" xlink:href="#m15f3e68abe" y="504"/>
      </g>
     </g>
     <g id="text_7">
      <!-- 300 -->
      <defs>
       <path d="M 40.578125 39.3125 
Q 47.65625 37.796875 51.625 33 
Q 55.609375 28.21875 55.609375 21.1875 
Q 55.609375 10.40625 48.1875 4.484375 
Q 40.765625 -1.421875 27.09375 -1.421875 
Q 22.515625 -1.421875 17.65625 -0.515625 
Q 12.796875 0.390625 7.625 2.203125 
L 7.625 11.71875 
Q 11.71875 9.328125 16.59375 8.109375 
Q 21.484375 6.890625 26.8125 6.890625 
Q 36.078125 6.890625 40.9375 10.546875 
Q 45.796875 14.203125 45.796875 21.1875 
Q 45.796875 27.640625 41.28125 31.265625 
Q 36.765625 34.90625 28.71875 34.90625 
L 20.21875 34.90625 
L 20.21875 43.015625 
L 29.109375 43.015625 
Q 36.375 43.015625 40.234375 45.921875 
Q 44.09375 48.828125 44.09375 54.296875 
Q 44.09375 59.90625 40.109375 62.90625 
Q 36.140625 65.921875 28.71875 65.921875 
Q 24.65625 65.921875 20.015625 65.03125 
Q 15.375 64.15625 9.8125 62.3125 
L 9.8125 71.09375 
Q 15.4375 72.65625 20.34375 73.4375 
Q 25.25 74.21875 29.59375 74.21875 
Q 40.828125 74.21875 47.359375 69.109375 
Q 53.90625 64.015625 53.90625 55.328125 
Q 53.90625 49.265625 50.4375 45.09375 
Q 46.96875 40.921875 40.578125 39.3125 
z
" id="DejaVuSans-51"/>
      </defs>
      <g transform="translate(783.256797 518.598438)scale(0.1 -0.1)">
       <use xlink:href="#DejaVuSans-51"/>
       <use x="63.623047" xlink:href="#DejaVuSans-48"/>
       <use x="127.246094" xlink:href="#DejaVuSans-48"/>
      </g>
     </g>
    </g>
    <g id="xtick_8">
     <g id="line2d_8">
      <g>
       <use style="stroke:#000000;stroke-width:0.8;" x="894.509364" xlink:href="#m15f3e68abe" y="504"/>
      </g>
     </g>
     <g id="text_8">
      <!-- 350 -->
      <g transform="translate(884.965614 518.598438)scale(0.1 -0.1)">
       <use xlink:href="#DejaVuSans-51"/>
       <use x="63.623047" xlink:href="#DejaVuSans-53"/>
       <use x="127.246094" xlink:href="#DejaVuSans-48"/>
      </g>
     </g>
    </g>
    <g id="xtick_9">
     <g id="line2d_9">
      <g>
       <use style="stroke:#000000;stroke-width:0.8;" x="996.218182" xlink:href="#m15f3e68abe" y="504"/>
      </g>
     </g>
     <g id="text_9">
      <!-- 400 -->
      <defs>
       <path d="M 37.796875 64.3125 
L 12.890625 25.390625 
L 37.796875 25.390625 
z
M 35.203125 72.90625 
L 47.609375 72.90625 
L 47.609375 25.390625 
L 58.015625 25.390625 
L 58.015625 17.1875 
L 47.609375 17.1875 
L 47.609375 0 
L 37.796875 0 
L 37.796875 17.1875 
L 4.890625 17.1875 
L 4.890625 26.703125 
z
" id="DejaVuSans-52"/>
      </defs>
      <g transform="translate(986.674432 518.598438)scale(0.1 -0.1)">
       <use xlink:href="#DejaVuSans-52"/>
       <use x="63.623047" xlink:href="#DejaVuSans-48"/>
       <use x="127.246094" xlink:href="#DejaVuSans-48"/>
      </g>
     </g>
    </g>
    <g id="text_10">
     <!-- Number of Neurons pruned -->
     <defs>
      <path d="M 9.8125 72.90625 
L 23.09375 72.90625 
L 55.421875 11.921875 
L 55.421875 72.90625 
L 64.984375 72.90625 
L 64.984375 0 
L 51.703125 0 
L 19.390625 60.984375 
L 19.390625 0 
L 9.8125 0 
z
" id="DejaVuSans-78"/>
      <path d="M 8.5 21.578125 
L 8.5 54.6875 
L 17.484375 54.6875 
L 17.484375 21.921875 
Q 17.484375 14.15625 20.5 10.265625 
Q 23.53125 6.390625 29.59375 6.390625 
Q 36.859375 6.390625 41.078125 11.03125 
Q 45.3125 15.671875 45.3125 23.6875 
L 45.3125 54.6875 
L 54.296875 54.6875 
L 54.296875 0 
L 45.3125 0 
L 45.3125 8.40625 
Q 42.046875 3.421875 37.71875 1 
Q 33.40625 -1.421875 27.6875 -1.421875 
Q 18.265625 -1.421875 13.375 4.4375 
Q 8.5 10.296875 8.5 21.578125 
z
M 31.109375 56 
z
" id="DejaVuSans-117"/>
      <path d="M 52 44.1875 
Q 55.375 50.25 60.0625 53.125 
Q 64.75 56 71.09375 56 
Q 79.640625 56 84.28125 50.015625 
Q 88.921875 44.046875 88.921875 33.015625 
L 88.921875 0 
L 79.890625 0 
L 79.890625 32.71875 
Q 79.890625 40.578125 77.09375 44.375 
Q 74.3125 48.1875 68.609375 48.1875 
Q 61.625 48.1875 57.5625 43.546875 
Q 53.515625 38.921875 53.515625 30.90625 
L 53.515625 0 
L 44.484375 0 
L 44.484375 32.71875 
Q 44.484375 40.625 41.703125 44.40625 
Q 38.921875 48.1875 33.109375 48.1875 
Q 26.21875 48.1875 22.15625 43.53125 
Q 18.109375 38.875 18.109375 30.90625 
L 18.109375 0 
L 9.078125 0 
L 9.078125 54.6875 
L 18.109375 54.6875 
L 18.109375 46.1875 
Q 21.1875 51.21875 25.484375 53.609375 
Q 29.78125 56 35.6875 56 
Q 41.65625 56 45.828125 52.96875 
Q 50 49.953125 52 44.1875 
z
" id="DejaVuSans-109"/>
      <path d="M 48.6875 27.296875 
Q 48.6875 37.203125 44.609375 42.84375 
Q 40.53125 48.484375 33.40625 48.484375 
Q 26.265625 48.484375 22.1875 42.84375 
Q 18.109375 37.203125 18.109375 27.296875 
Q 18.109375 17.390625 22.1875 11.75 
Q 26.265625 6.109375 33.40625 6.109375 
Q 40.53125 6.109375 44.609375 11.75 
Q 48.6875 17.390625 48.6875 27.296875 
z
M 18.109375 46.390625 
Q 20.953125 51.265625 25.265625 53.625 
Q 29.59375 56 35.59375 56 
Q 45.5625 56 51.78125 48.09375 
Q 58.015625 40.1875 58.015625 27.296875 
Q 58.015625 14.40625 51.78125 6.484375 
Q 45.5625 -1.421875 35.59375 -1.421875 
Q 29.59375 -1.421875 25.265625 0.953125 
Q 20.953125 3.328125 18.109375 8.203125 
L 18.109375 0 
L 9.078125 0 
L 9.078125 75.984375 
L 18.109375 75.984375 
z
" id="DejaVuSans-98"/>
      <path d="M 56.203125 29.59375 
L 56.203125 25.203125 
L 14.890625 25.203125 
Q 15.484375 15.921875 20.484375 11.0625 
Q 25.484375 6.203125 34.421875 6.203125 
Q 39.59375 6.203125 44.453125 7.46875 
Q 49.3125 8.734375 54.109375 11.28125 
L 54.109375 2.78125 
Q 49.265625 0.734375 44.1875 -0.34375 
Q 39.109375 -1.421875 33.890625 -1.421875 
Q 20.796875 -1.421875 13.15625 6.1875 
Q 5.515625 13.8125 5.515625 26.8125 
Q 5.515625 40.234375 12.765625 48.109375 
Q 20.015625 56 32.328125 56 
Q 43.359375 56 49.78125 48.890625 
Q 56.203125 41.796875 56.203125 29.59375 
z
M 47.21875 32.234375 
Q 47.125 39.59375 43.09375 43.984375 
Q 39.0625 48.390625 32.421875 48.390625 
Q 24.90625 48.390625 20.390625 44.140625 
Q 15.875 39.890625 15.1875 32.171875 
z
" id="DejaVuSans-101"/>
      <path d="M 41.109375 46.296875 
Q 39.59375 47.171875 37.8125 47.578125 
Q 36.03125 48 33.890625 48 
Q 26.265625 48 22.1875 43.046875 
Q 18.109375 38.09375 18.109375 28.8125 
L 18.109375 0 
L 9.078125 0 
L 9.078125 54.6875 
L 18.109375 54.6875 
L 18.109375 46.1875 
Q 20.953125 51.171875 25.484375 53.578125 
Q 30.03125 56 36.53125 56 
Q 37.453125 56 38.578125 55.875 
Q 39.703125 55.765625 41.0625 55.515625 
z
" id="DejaVuSans-114"/>
      <path id="DejaVuSans-32"/>
      <path d="M 30.609375 48.390625 
Q 23.390625 48.390625 19.1875 42.75 
Q 14.984375 37.109375 14.984375 27.296875 
Q 14.984375 17.484375 19.15625 11.84375 
Q 23.34375 6.203125 30.609375 6.203125 
Q 37.796875 6.203125 41.984375 11.859375 
Q 46.1875 17.53125 46.1875 27.296875 
Q 46.1875 37.015625 41.984375 42.703125 
Q 37.796875 48.390625 30.609375 48.390625 
z
M 30.609375 56 
Q 42.328125 56 49.015625 48.375 
Q 55.71875 40.765625 55.71875 27.296875 
Q 55.71875 13.875 49.015625 6.21875 
Q 42.328125 -1.421875 30.609375 -1.421875 
Q 18.84375 -1.421875 12.171875 6.21875 
Q 5.515625 13.875 5.515625 27.296875 
Q 5.515625 40.765625 12.171875 48.375 
Q 18.84375 56 30.609375 56 
z
" id="DejaVuSans-111"/>
      <path d="M 37.109375 75.984375 
L 37.109375 68.5 
L 28.515625 68.5 
Q 23.6875 68.5 21.796875 66.546875 
Q 19.921875 64.59375 19.921875 59.515625 
L 19.921875 54.6875 
L 34.71875 54.6875 
L 34.71875 47.703125 
L 19.921875 47.703125 
L 19.921875 0 
L 10.890625 0 
L 10.890625 47.703125 
L 2.296875 47.703125 
L 2.296875 54.6875 
L 10.890625 54.6875 
L 10.890625 58.5 
Q 10.890625 67.625 15.140625 71.796875 
Q 19.390625 75.984375 28.609375 75.984375 
z
" id="DejaVuSans-102"/>
      <path d="M 54.890625 33.015625 
L 54.890625 0 
L 45.90625 0 
L 45.90625 32.71875 
Q 45.90625 40.484375 42.875 44.328125 
Q 39.84375 48.1875 33.796875 48.1875 
Q 26.515625 48.1875 22.3125 43.546875 
Q 18.109375 38.921875 18.109375 30.90625 
L 18.109375 0 
L 9.078125 0 
L 9.078125 54.6875 
L 18.109375 54.6875 
L 18.109375 46.1875 
Q 21.34375 51.125 25.703125 53.5625 
Q 30.078125 56 35.796875 56 
Q 45.21875 56 50.046875 50.171875 
Q 54.890625 44.34375 54.890625 33.015625 
z
" id="DejaVuSans-110"/>
      <path d="M 44.28125 53.078125 
L 44.28125 44.578125 
Q 40.484375 46.53125 36.375 47.5 
Q 32.28125 48.484375 27.875 48.484375 
Q 21.1875 48.484375 17.84375 46.4375 
Q 14.5 44.390625 14.5 40.28125 
Q 14.5 37.15625 16.890625 35.375 
Q 19.28125 33.59375 26.515625 31.984375 
L 29.59375 31.296875 
Q 39.15625 29.25 43.1875 25.515625 
Q 47.21875 21.78125 47.21875 15.09375 
Q 47.21875 7.46875 41.1875 3.015625 
Q 35.15625 -1.421875 24.609375 -1.421875 
Q 20.21875 -1.421875 15.453125 -0.5625 
Q 10.6875 0.296875 5.421875 2 
L 5.421875 11.28125 
Q 10.40625 8.6875 15.234375 7.390625 
Q 20.0625 6.109375 24.8125 6.109375 
Q 31.15625 6.109375 34.5625 8.28125 
Q 37.984375 10.453125 37.984375 14.40625 
Q 37.984375 18.0625 35.515625 20.015625 
Q 33.0625 21.96875 24.703125 23.78125 
L 21.578125 24.515625 
Q 13.234375 26.265625 9.515625 29.90625 
Q 5.8125 33.546875 5.8125 39.890625 
Q 5.8125 47.609375 11.28125 51.796875 
Q 16.75 56 26.8125 56 
Q 31.78125 56 36.171875 55.265625 
Q 40.578125 54.546875 44.28125 53.078125 
z
" id="DejaVuSans-115"/>
      <path d="M 18.109375 8.203125 
L 18.109375 -20.796875 
L 9.078125 -20.796875 
L 9.078125 54.6875 
L 18.109375 54.6875 
L 18.109375 46.390625 
Q 20.953125 51.265625 25.265625 53.625 
Q 29.59375 56 35.59375 56 
Q 45.5625 56 51.78125 48.09375 
Q 58.015625 40.1875 58.015625 27.296875 
Q 58.015625 14.40625 51.78125 6.484375 
Q 45.5625 -1.421875 35.59375 -1.421875 
Q 29.59375 -1.421875 25.265625 0.953125 
Q 20.953125 3.328125 18.109375 8.203125 
z
M 48.6875 27.296875 
Q 48.6875 37.203125 44.609375 42.84375 
Q 40.53125 48.484375 33.40625 48.484375 
Q 26.265625 48.484375 22.1875 42.84375 
Q 18.109375 37.203125 18.109375 27.296875 
Q 18.109375 17.390625 22.1875 11.75 
Q 26.265625 6.109375 33.40625 6.109375 
Q 40.53125 6.109375 44.609375 11.75 
Q 48.6875 17.390625 48.6875 27.296875 
z
" id="DejaVuSans-112"/>
      <path d="M 45.40625 46.390625 
L 45.40625 75.984375 
L 54.390625 75.984375 
L 54.390625 0 
L 45.40625 0 
L 45.40625 8.203125 
Q 42.578125 3.328125 38.25 0.953125 
Q 33.9375 -1.421875 27.875 -1.421875 
Q 17.96875 -1.421875 11.734375 6.484375 
Q 5.515625 14.40625 5.515625 27.296875 
Q 5.515625 40.1875 11.734375 48.09375 
Q 17.96875 56 27.875 56 
Q 33.9375 56 38.25 53.625 
Q 42.578125 51.265625 45.40625 46.390625 
z
M 14.796875 27.296875 
Q 14.796875 17.390625 18.875 11.75 
Q 22.953125 6.109375 30.078125 6.109375 
Q 37.203125 6.109375 41.296875 11.75 
Q 45.40625 17.390625 45.40625 27.296875 
Q 45.40625 37.203125 41.296875 42.84375 
Q 37.203125 48.484375 30.078125 48.484375 
Q 22.953125 48.484375 18.875 42.84375 
Q 14.796875 37.203125 14.796875 27.296875 
z
" id="DejaVuSans-100"/>
     </defs>
     <g transform="translate(522.147656 532.276562)scale(0.1 -0.1)">
      <use xlink:href="#DejaVuSans-78"/>
      <use x="74.804688" xlink:href="#DejaVuSans-117"/>
      <use x="138.183594" xlink:href="#DejaVuSans-109"/>
      <use x="235.595703" xlink:href="#DejaVuSans-98"/>
      <use x="299.072266" xlink:href="#DejaVuSans-101"/>
      <use x="360.595703" xlink:href="#DejaVuSans-114"/>
      <use x="401.708984" xlink:href="#DejaVuSans-32"/>
      <use x="433.496094" xlink:href="#DejaVuSans-111"/>
      <use x="494.677734" xlink:href="#DejaVuSans-102"/>
      <use x="529.882812" xlink:href="#DejaVuSans-32"/>
      <use x="561.669922" xlink:href="#DejaVuSans-78"/>
      <use x="636.474609" xlink:href="#DejaVuSans-101"/>
      <use x="697.998047" xlink:href="#DejaVuSans-117"/>
      <use x="761.376953" xlink:href="#DejaVuSans-114"/>
      <use x="800.240234" xlink:href="#DejaVuSans-111"/>
      <use x="861.421875" xlink:href="#DejaVuSans-110"/>
      <use x="924.800781" xlink:href="#DejaVuSans-115"/>
      <use x="976.900391" xlink:href="#DejaVuSans-32"/>
      <use x="1008.6875" xlink:href="#DejaVuSans-112"/>
      <use x="1072.164062" xlink:href="#DejaVuSans-114"/>
      <use x="1113.277344" xlink:href="#DejaVuSans-117"/>
      <use x="1176.65625" xlink:href="#DejaVuSans-110"/>
      <use x="1240.035156" xlink:href="#DejaVuSans-101"/>
      <use x="1301.558594" xlink:href="#DejaVuSans-100"/>
     </g>
    </g>
   </g>
   <g id="matplotlib.axis_2">
    <g id="ytick_1">
     <g id="line2d_10">
      <defs>
       <path d="M 0 0 
L -3.5 0 
" id="m5205fc6357" style="stroke:#000000;stroke-width:0.8;"/>
      </defs>
      <g>
       <use style="stroke:#000000;stroke-width:0.8;" x="144" xlink:href="#m5205fc6357" y="444.041073"/>
      </g>
     </g>
     <g id="text_11">
      <!-- 0.2 -->
      <defs>
       <path d="M 10.6875 12.40625 
L 21 12.40625 
L 21 0 
L 10.6875 0 
z
" id="DejaVuSans-46"/>
      </defs>
      <g transform="translate(121.096875 447.840292)scale(0.1 -0.1)">
       <use xlink:href="#DejaVuSans-48"/>
       <use x="63.623047" xlink:href="#DejaVuSans-46"/>
       <use x="95.410156" xlink:href="#DejaVuSans-50"/>
      </g>
     </g>
    </g>
    <g id="ytick_2">
     <g id="line2d_11">
      <g>
       <use style="stroke:#000000;stroke-width:0.8;" x="144" xlink:href="#m5205fc6357" y="354.02617"/>
      </g>
     </g>
     <g id="text_12">
      <!-- 0.4 -->
      <g transform="translate(121.096875 357.825389)scale(0.1 -0.1)">
       <use xlink:href="#DejaVuSans-48"/>
       <use x="63.623047" xlink:href="#DejaVuSans-46"/>
       <use x="95.410156" xlink:href="#DejaVuSans-52"/>
      </g>
     </g>
    </g>
    <g id="ytick_3">
     <g id="line2d_12">
      <g>
       <use style="stroke:#000000;stroke-width:0.8;" x="144" xlink:href="#m5205fc6357" y="264.011267"/>
      </g>
     </g>
     <g id="text_13">
      <!-- 0.6 -->
      <defs>
       <path d="M 33.015625 40.375 
Q 26.375 40.375 22.484375 35.828125 
Q 18.609375 31.296875 18.609375 23.390625 
Q 18.609375 15.53125 22.484375 10.953125 
Q 26.375 6.390625 33.015625 6.390625 
Q 39.65625 6.390625 43.53125 10.953125 
Q 47.40625 15.53125 47.40625 23.390625 
Q 47.40625 31.296875 43.53125 35.828125 
Q 39.65625 40.375 33.015625 40.375 
z
M 52.59375 71.296875 
L 52.59375 62.3125 
Q 48.875 64.0625 45.09375 64.984375 
Q 41.3125 65.921875 37.59375 65.921875 
Q 27.828125 65.921875 22.671875 59.328125 
Q 17.53125 52.734375 16.796875 39.40625 
Q 19.671875 43.65625 24.015625 45.921875 
Q 28.375 48.1875 33.59375 48.1875 
Q 44.578125 48.1875 50.953125 41.515625 
Q 57.328125 34.859375 57.328125 23.390625 
Q 57.328125 12.15625 50.6875 5.359375 
Q 44.046875 -1.421875 33.015625 -1.421875 
Q 20.359375 -1.421875 13.671875 8.265625 
Q 6.984375 17.96875 6.984375 36.375 
Q 6.984375 53.65625 15.1875 63.9375 
Q 23.390625 74.21875 37.203125 74.21875 
Q 40.921875 74.21875 44.703125 73.484375 
Q 48.484375 72.75 52.59375 71.296875 
z
" id="DejaVuSans-54"/>
      </defs>
      <g transform="translate(121.096875 267.810486)scale(0.1 -0.1)">
       <use xlink:href="#DejaVuSans-48"/>
       <use x="63.623047" xlink:href="#DejaVuSans-46"/>
       <use x="95.410156" xlink:href="#DejaVuSans-54"/>
      </g>
     </g>
    </g>
    <g id="ytick_4">
     <g id="line2d_13">
      <g>
       <use style="stroke:#000000;stroke-width:0.8;" x="144" xlink:href="#m5205fc6357" y="173.996364"/>
      </g>
     </g>
     <g id="text_14">
      <!-- 0.8 -->
      <defs>
       <path d="M 31.78125 34.625 
Q 24.75 34.625 20.71875 30.859375 
Q 16.703125 27.09375 16.703125 20.515625 
Q 16.703125 13.921875 20.71875 10.15625 
Q 24.75 6.390625 31.78125 6.390625 
Q 38.8125 6.390625 42.859375 10.171875 
Q 46.921875 13.96875 46.921875 20.515625 
Q 46.921875 27.09375 42.890625 30.859375 
Q 38.875 34.625 31.78125 34.625 
z
M 21.921875 38.8125 
Q 15.578125 40.375 12.03125 44.71875 
Q 8.5 49.078125 8.5 55.328125 
Q 8.5 64.0625 14.71875 69.140625 
Q 20.953125 74.21875 31.78125 74.21875 
Q 42.671875 74.21875 48.875 69.140625 
Q 55.078125 64.0625 55.078125 55.328125 
Q 55.078125 49.078125 51.53125 44.71875 
Q 48 40.375 41.703125 38.8125 
Q 48.828125 37.15625 52.796875 32.3125 
Q 56.78125 27.484375 56.78125 20.515625 
Q 56.78125 9.90625 50.3125 4.234375 
Q 43.84375 -1.421875 31.78125 -1.421875 
Q 19.734375 -1.421875 13.25 4.234375 
Q 6.78125 9.90625 6.78125 20.515625 
Q 6.78125 27.484375 10.78125 32.3125 
Q 14.796875 37.15625 21.921875 38.8125 
z
M 18.3125 54.390625 
Q 18.3125 48.734375 21.84375 45.5625 
Q 25.390625 42.390625 31.78125 42.390625 
Q 38.140625 42.390625 41.71875 45.5625 
Q 45.3125 48.734375 45.3125 54.390625 
Q 45.3125 60.0625 41.71875 63.234375 
Q 38.140625 66.40625 31.78125 66.40625 
Q 25.390625 66.40625 21.84375 63.234375 
Q 18.3125 60.0625 18.3125 54.390625 
z
" id="DejaVuSans-56"/>
      </defs>
      <g transform="translate(121.096875 177.795582)scale(0.1 -0.1)">
       <use xlink:href="#DejaVuSans-48"/>
       <use x="63.623047" xlink:href="#DejaVuSans-46"/>
       <use x="95.410156" xlink:href="#DejaVuSans-56"/>
      </g>
     </g>
    </g>
    <g id="ytick_5">
     <g id="line2d_14">
      <g>
       <use style="stroke:#000000;stroke-width:0.8;" x="144" xlink:href="#m5205fc6357" y="83.981461"/>
      </g>
     </g>
     <g id="text_15">
      <!-- 1.0 -->
      <g transform="translate(121.096875 87.780679)scale(0.1 -0.1)">
       <use xlink:href="#DejaVuSans-49"/>
       <use x="63.623047" xlink:href="#DejaVuSans-46"/>
       <use x="95.410156" xlink:href="#DejaVuSans-48"/>
      </g>
     </g>
    </g>
    <g id="text_16">
     <!-- Accuracy -->
     <defs>
      <path d="M 34.1875 63.1875 
L 20.796875 26.90625 
L 47.609375 26.90625 
z
M 28.609375 72.90625 
L 39.796875 72.90625 
L 67.578125 0 
L 57.328125 0 
L 50.6875 18.703125 
L 17.828125 18.703125 
L 11.1875 0 
L 0.78125 0 
z
" id="DejaVuSans-65"/>
      <path d="M 48.78125 52.59375 
L 48.78125 44.1875 
Q 44.96875 46.296875 41.140625 47.34375 
Q 37.3125 48.390625 33.40625 48.390625 
Q 24.65625 48.390625 19.8125 42.84375 
Q 14.984375 37.3125 14.984375 27.296875 
Q 14.984375 17.28125 19.8125 11.734375 
Q 24.65625 6.203125 33.40625 6.203125 
Q 37.3125 6.203125 41.140625 7.25 
Q 44.96875 8.296875 48.78125 10.40625 
L 48.78125 2.09375 
Q 45.015625 0.34375 40.984375 -0.53125 
Q 36.96875 -1.421875 32.421875 -1.421875 
Q 20.0625 -1.421875 12.78125 6.34375 
Q 5.515625 14.109375 5.515625 27.296875 
Q 5.515625 40.671875 12.859375 48.328125 
Q 20.21875 56 33.015625 56 
Q 37.15625 56 41.109375 55.140625 
Q 45.0625 54.296875 48.78125 52.59375 
z
" id="DejaVuSans-99"/>
      <path d="M 34.28125 27.484375 
Q 23.390625 27.484375 19.1875 25 
Q 14.984375 22.515625 14.984375 16.5 
Q 14.984375 11.71875 18.140625 8.90625 
Q 21.296875 6.109375 26.703125 6.109375 
Q 34.1875 6.109375 38.703125 11.40625 
Q 43.21875 16.703125 43.21875 25.484375 
L 43.21875 27.484375 
z
M 52.203125 31.203125 
L 52.203125 0 
L 43.21875 0 
L 43.21875 8.296875 
Q 40.140625 3.328125 35.546875 0.953125 
Q 30.953125 -1.421875 24.3125 -1.421875 
Q 15.921875 -1.421875 10.953125 3.296875 
Q 6 8.015625 6 15.921875 
Q 6 25.140625 12.171875 29.828125 
Q 18.359375 34.515625 30.609375 34.515625 
L 43.21875 34.515625 
L 43.21875 35.40625 
Q 43.21875 41.609375 39.140625 45 
Q 35.0625 48.390625 27.6875 48.390625 
Q 23 48.390625 18.546875 47.265625 
Q 14.109375 46.140625 10.015625 43.890625 
L 10.015625 52.203125 
Q 14.9375 54.109375 19.578125 55.046875 
Q 24.21875 56 28.609375 56 
Q 40.484375 56 46.34375 49.84375 
Q 52.203125 43.703125 52.203125 31.203125 
z
" id="DejaVuSans-97"/>
      <path d="M 32.171875 -5.078125 
Q 28.375 -14.84375 24.75 -17.8125 
Q 21.140625 -20.796875 15.09375 -20.796875 
L 7.90625 -20.796875 
L 7.90625 -13.28125 
L 13.1875 -13.28125 
Q 16.890625 -13.28125 18.9375 -11.515625 
Q 21 -9.765625 23.484375 -3.21875 
L 25.09375 0.875 
L 2.984375 54.6875 
L 12.5 54.6875 
L 29.59375 11.921875 
L 46.6875 54.6875 
L 56.203125 54.6875 
z
" id="DejaVuSans-121"/>
     </defs>
     <g transform="translate(115.017187 309.388125)rotate(-90)scale(0.1 -0.1)">
      <use xlink:href="#DejaVuSans-65"/>
      <use x="66.658203" xlink:href="#DejaVuSans-99"/>
      <use x="121.638672" xlink:href="#DejaVuSans-99"/>
      <use x="176.619141" xlink:href="#DejaVuSans-117"/>
      <use x="239.998047" xlink:href="#DejaVuSans-114"/>
      <use x="281.111328" xlink:href="#DejaVuSans-97"/>
      <use x="342.390625" xlink:href="#DejaVuSans-99"/>
      <use x="397.371094" xlink:href="#DejaVuSans-121"/>
     </g>
    </g>
   </g>
   <g id="line2d_15">
    <path clip-path="url(#p14142b5325)" d="M 184.581818 88.999791 
L 296.461517 88.999791 
L 298.495694 88.887273 
L 302.564046 88.99229 
L 304.598223 89.344848 
L 306.632399 89.554883 
L 308.666576 90.102474 
L 310.700752 90.184988 
L 312.734928 91.212658 
L 314.769105 91.092638 
L 316.803281 107.65538 
L 318.837457 107.212807 
L 320.871634 108.247978 
L 322.90581 109.515688 
L 324.939986 109.740725 
L 326.974163 110.648376 
L 329.008339 113.918917 
L 331.042515 116.694377 
L 333.076692 118.322146 
L 335.110868 118.254635 
L 337.145044 117.25697 
L 339.179221 119.529846 
L 341.213397 120.444998 
L 343.247573 114.834069 
L 345.28175 112.981262 
L 347.315926 114.151456 
L 349.350103 113.528852 
L 351.384279 113.266309 
L 353.418455 114.098947 
L 355.452632 114.654039 
L 357.486808 110.595867 
L 359.520984 109.868246 
L 361.555161 110.145792 
L 363.589337 111.210969 
L 365.623513 110.775897 
L 367.65769 111.330989 
L 369.691866 112.18613 
L 371.726042 111.421003 
L 373.760219 112.973761 
L 375.794395 112.433671 
L 377.828571 112.591197 
L 379.862748 110.333323 
L 381.896924 111.000934 
L 383.9311 113.056274 
L 385.965277 113.63387 
L 390.03363 114.504014 
L 392.067806 114.091446 
L 394.101982 116.701878 
L 396.136159 121.390154 
L 398.170335 116.019265 
L 400.204511 118.359652 
L 402.238688 119.859901 
L 404.272864 125.403318 
L 406.30704 125.193284 
L 408.341217 126.43849 
L 410.375393 132.071923 
L 412.409569 134.689856 
L 414.443746 137.982901 
L 416.477922 142.026071 
L 418.512098 161.641818 
L 420.546275 154.793184 
L 422.580451 150.637496 
L 424.614627 151.98772 
L 426.648804 153.022891 
L 428.68298 154.665663 
L 430.717157 154.395618 
L 432.751333 153.870532 
L 434.785509 152.512807 
L 436.819686 155.475797 
L 438.853862 157.021053 
L 440.888038 159.886528 
L 442.922215 157.613651 
L 444.956391 157.291098 
L 446.990567 163.982206 
L 449.024744 161.769339 
L 451.05892 163.899692 
L 453.093096 179.164719 
L 455.127273 175.819165 
L 457.161449 176.876841 
L 459.195625 176.471773 
L 461.229802 175.099046 
L 463.263978 178.257069 
L 465.298154 176.614297 
L 467.332331 191.151704 
L 469.366507 196.860149 
L 471.400684 196.20004 
L 473.43486 197.647779 
L 475.469036 188.316234 
L 477.503213 193.867154 
L 479.537389 183.057864 
L 481.571565 191.954337 
L 483.605742 192.967004 
L 485.639918 192.194377 
L 487.674094 196.170035 
L 489.708271 220.609081 
L 491.742447 219.828952 
L 493.776623 220.36154 
L 495.8108 217.593582 
L 497.844976 210.294873 
L 499.879152 212.485236 
L 501.913329 211.952648 
L 503.947505 210.459901 
L 505.981681 199.515589 
L 508.015858 204.061341 
L 510.050034 207.331883 
L 512.084211 215.763279 
L 514.118387 214.653095 
L 516.152563 219.416384 
L 518.18674 217.713602 
L 520.220916 213.137844 
L 522.255092 218.12617 
L 524.289269 219.521401 
L 526.323445 209.00466 
L 528.357621 210.482404 
L 530.391798 214.450561 
L 532.425974 212.462732 
L 534.46015 217.030989 
L 538.528503 215.800785 
L 540.562679 214.015489 
L 542.596856 230.315688 
L 544.631032 226.835112 
L 546.665208 251.514198 
L 548.699385 255.51236 
L 550.733561 261.558361 
L 552.767738 262.556026 
L 554.801914 272.442663 
L 556.83609 273.905405 
L 558.870267 268.512012 
L 560.904443 276.8984 
L 562.938619 278.473661 
L 564.972796 274.835559 
L 567.006972 279.358808 
L 569.041148 288.427809 
L 571.075325 290.415638 
L 573.109501 293.933721 
L 575.143677 296.019066 
L 577.177854 285.704858 
L 579.21203 285.997407 
L 581.246206 288.817874 
L 583.280383 289.70302 
L 585.314559 288.232777 
L 587.348735 292.485981 
L 589.382912 294.316284 
L 591.417088 297.436801 
L 593.451265 303.59532 
L 595.485441 305.005554 
L 597.519617 299.289608 
L 599.553794 304.660497 
L 601.58797 301.59999 
L 603.622146 306.535807 
L 605.656323 304.885534 
L 607.690499 307.450959 
L 609.724675 317.420109 
L 611.758852 326.661639 
L 613.793028 339.406249 
L 615.827204 344.78464 
L 617.861381 343.81698 
L 619.895557 353.216036 
L 621.929733 349.07535 
L 623.96391 343.119364 
L 625.998086 341.994178 
L 628.032262 348.445246 
L 630.066439 349.127859 
L 632.100615 344.042017 
L 634.134792 351.160695 
L 636.168968 355.488912 
L 638.203144 355.428902 
L 640.237321 354.498748 
L 642.271497 354.378728 
L 644.305673 352.113353 
L 646.33985 359.607094 
L 648.374026 359.94465 
L 650.408202 361.842464 
L 652.442379 362.330045 
L 654.476555 357.319215 
L 656.510731 358.931982 
L 658.544908 355.098847 
L 660.579084 353.778629 
L 662.61326 356.179026 
L 666.681613 365.210522 
L 668.715789 371.519066 
L 670.749966 371.804113 
L 672.784142 388.944451 
L 674.818319 390.564719 
L 676.852495 392.98762 
L 678.886671 391.209826 
L 680.920848 385.628902 
L 682.955024 392.222494 
L 684.9892 389.567054 
L 687.023377 398.741073 
L 689.057553 391.794923 
L 693.125906 388.021798 
L 695.160082 390.729747 
L 697.194258 400.781411 
L 699.228435 397.518371 
L 701.262611 396.835758 
L 703.296787 397.960944 
L 705.330964 388.621898 
L 707.36514 388.276841 
L 709.399316 393.002623 
L 711.433493 393.400189 
L 713.467669 397.945941 
L 715.501846 399.356175 
L 717.536022 403.331833 
L 719.570198 404.352002 
L 721.604375 417.291644 
L 725.672727 433.441818 
L 727.706904 429.28613 
L 729.74108 428.048425 
L 731.775256 430.261292 
L 733.809433 439.900387 
L 735.843609 439.480318 
L 737.877785 436.959901 
L 739.911962 438.377635 
L 741.946138 438.835211 
L 743.980314 437.079921 
L 746.014491 439.877884 
L 748.048667 438.002573 
L 750.082843 438.422643 
L 752.11702 440.695519 
L 754.151196 440.583 
L 756.185373 440.027909 
L 758.219549 443.343458 
L 760.253725 447.056572 
L 762.287902 446.674009 
L 764.322078 448.999394 
L 766.356254 449.239434 
L 768.390431 432.451654 
L 770.424607 431.468992 
L 772.458783 432.84922 
L 774.49296 432.601679 
L 776.527136 435.009578 
L 780.595489 438.595171 
L 782.629665 450.162086 
L 784.663841 449.524481 
L 786.698018 448.609329 
L 788.732194 444.093582 
L 790.76637 437.657516 
L 792.800547 438.835211 
L 794.834723 438.250114 
L 796.8689 437.815042 
L 798.903076 436.487322 
L 800.937252 437.710025 
L 802.971429 446.779026 
L 805.005605 449.914545 
L 807.039781 454.190253 
L 809.073958 451.894873 
L 811.108134 452.217427 
L 813.14231 455.127909 
L 815.176487 456.178082 
L 817.210663 464.661987 
L 819.244839 464.129399 
L 821.279016 466.784839 
L 823.313192 466.477288 
L 825.347368 467.279921 
L 827.381545 468.877685 
L 829.415721 462.089061 
L 831.449897 468.315092 
L 833.484074 469.500288 
L 835.51825 471.255579 
L 837.552427 470.010373 
L 839.586603 463.379275 
L 841.620779 465.569637 
L 843.654956 460.5138 
L 845.689132 465.554635 
L 847.723308 466.087223 
L 849.757485 465.472121 
L 851.791661 475.0062 
L 853.825837 477.556622 
L 855.860014 473.003368 
L 857.89419 473.535956 
L 859.928366 467.572469 
L 861.962543 467.159901 
L 863.996719 465.88469 
L 866.030895 456.725673 
L 868.065072 455.652996 
L 870.099248 455.345445 
L 872.133424 458.255926 
L 874.167601 455.562981 
L 876.201777 450.829697 
L 878.235954 448.834367 
L 880.27013 450.717178 
L 882.304306 451.129747 
L 884.338483 445.496314 
L 886.372659 443.666011 
L 888.406835 444.468644 
L 890.441012 439.540328 
L 892.475188 439.075251 
L 894.509364 440.09542 
L 896.543541 445.218768 
L 898.577717 442.023239 
L 900.611893 442.120755 
L 902.64607 417.291644 
L 904.680246 425.227958 
L 906.714422 425.895569 
L 908.748599 424.192787 
L 910.782775 431.483994 
L 912.816951 431.5215 
L 914.851128 435.092091 
L 916.885304 434.837049 
L 918.919481 438.242613 
L 920.953657 436.479821 
L 922.987833 435.842216 
L 925.02201 433.689359 
L 927.056186 451.024729 
L 929.090362 448.624332 
L 931.124539 449.351952 
L 933.158715 451.789856 
L 935.192891 446.613999 
L 937.227068 446.606498 
L 939.261244 446.066408 
L 941.29542 446.058907 
L 943.329597 450.417129 
L 945.363773 442.458311 
L 947.397949 442.803368 
L 949.432126 443.958559 
L 951.466302 445.488813 
L 953.500478 439.150263 
L 955.534655 439.270283 
L 957.568831 445.121252 
L 959.603008 444.026071 
L 961.637184 441.025574 
L 963.67136 443.328455 
L 965.705537 443.433472 
L 967.739713 450.987223 
L 969.773889 450.537149 
L 971.808066 450.207094 
L 973.842242 451.09224 
L 975.876418 449.824531 
L 977.910595 449.501977 
L 979.944771 449.599493 
L 981.978947 471.32309 
L 984.013124 471.045544 
L 986.0473 472.118222 
L 988.081476 469.800338 
L 990.115653 468.817675 
L 992.149829 471.315589 
L 994.184005 470.707988 
L 996.218182 472.920854 
L 996.218182 472.920854 
" style="fill:none;stroke:#1f77b4;stroke-linecap:square;stroke-width:1.5;"/>
   </g>
   <g id="line2d_16">
    <path clip-path="url(#p14142b5325)" d="M 184.581818 88.999791 
L 302.564046 89.0523 
L 306.632399 89.269836 
L 314.769105 89.262335 
L 316.803281 89.397357 
L 318.837457 89.382355 
L 324.939986 89.727412 
L 326.974163 89.719911 
L 329.008339 90.064968 
L 331.042515 90.042464 
L 333.076692 90.169985 
L 335.110868 90.432529 
L 337.145044 90.350015 
L 339.179221 90.777586 
L 345.28175 90.882603 
L 347.315926 90.627561 
L 349.350103 90.912608 
L 351.384279 90.762583 
L 353.418455 91.160149 
L 357.486808 91.152648 
L 359.520984 91.497705 
L 361.555161 91.520209 
L 363.589337 91.977784 
L 365.623513 91.880268 
L 367.65769 92.090303 
L 369.691866 91.985286 
L 371.726042 92.217824 
L 373.760219 93.410522 
L 375.794395 93.845594 
L 377.828571 94.100636 
L 381.896924 94.865763 
L 383.9311 94.903269 
L 385.965277 95.345842 
L 387.999453 95.660894 
L 390.03363 96.336006 
L 392.067806 96.028455 
L 394.101982 97.063626 
L 396.136159 97.483696 
L 398.170335 97.68623 
L 400.204511 98.391346 
L 402.238688 98.541371 
L 404.272864 99.103964 
L 406.30704 98.818917 
L 408.341217 98.661391 
L 410.375393 98.953939 
L 412.409569 99.62155 
L 416.477922 100.139136 
L 418.512098 100.859255 
L 422.580451 100.881759 
L 424.614627 102.051952 
L 426.648804 102.839583 
L 428.68298 103.057119 
L 430.717157 103.057119 
L 432.751333 103.904759 
L 434.785509 105.314993 
L 436.819686 105.645047 
L 440.888038 105.855082 
L 442.922215 107.197804 
L 444.956391 110.505852 
L 446.990567 110.333323 
L 449.024744 112.598698 
L 451.05892 114.271475 
L 453.093096 112.868743 
L 455.127273 115.441669 
L 457.161449 115.92925 
L 459.195625 115.666706 
L 463.263978 117.519513 
L 465.298154 119.597357 
L 467.332331 119.484839 
L 469.366507 120.670035 
L 471.400684 120.797556 
L 473.43486 119.147283 
L 475.469036 119.822394 
L 477.503213 122.537844 
L 479.537389 124.173115 
L 481.571565 124.068097 
L 483.605742 127.916234 
L 485.639918 128.13377 
L 487.674094 130.774208 
L 489.708271 133.1446 
L 491.742447 140.923388 
L 493.776623 140.428306 
L 495.8108 148.529647 
L 497.844976 152.685335 
L 499.879152 158.926369 
L 501.913329 155.408286 
L 503.947505 159.84152 
L 505.981681 163.097059 
L 508.015858 164.514794 
L 510.050034 163.149568 
L 512.084211 164.454784 
L 514.118387 170.365763 
L 516.152563 171.700984 
L 518.18674 172.781162 
L 520.220916 181.977685 
L 522.255092 181.775152 
L 524.289269 183.935509 
L 526.323445 183.815489 
L 528.357621 181.070035 
L 532.425974 192.029349 
L 534.46015 196.605107 
L 536.494327 204.691446 
L 538.528503 199.598102 
L 540.562679 202.958659 
L 542.596856 202.981162 
L 544.631032 201.360894 
L 546.665208 212.755281 
L 548.699385 215.35071 
L 550.733561 210.887471 
L 552.767738 216.138341 
L 556.83609 219.39388 
L 558.870267 214.540576 
L 560.904443 219.041321 
L 562.938619 227.592737 
L 564.972796 232.093482 
L 571.075325 224.847283 
L 573.109501 227.817774 
L 575.143677 232.956125 
L 577.177854 238.409528 
L 579.21203 242.205156 
L 581.246206 240.47237 
L 583.280383 255.27232 
L 585.314559 251.206647 
L 587.348735 254.619712 
L 589.382912 257.50769 
L 591.417088 259.900586 
L 593.451265 266.344153 
L 595.485441 263.163626 
L 597.519617 264.026269 
L 599.553794 263.756225 
L 601.58797 263.778728 
L 603.622146 264.108783 
L 605.656323 275.945743 
L 607.690499 278.983746 
L 609.724675 276.178281 
L 611.758852 278.931237 
L 613.793028 276.673363 
L 615.827204 282.734367 
L 617.861381 284.294625 
L 619.895557 287.902722 
L 621.929733 285.359801 
L 623.96391 290.115589 
L 625.998086 294.563825 
L 628.032262 293.888713 
L 630.066439 302.125077 
L 632.100615 304.98305 
L 634.134792 308.24609 
L 636.168968 305.545643 
L 638.203144 310.646488 
L 640.237321 309.02622 
L 642.271497 315.544799 
L 644.305673 317.225077 
L 646.33985 316.107392 
L 648.374026 318.252747 
L 650.408202 315.934863 
L 652.442379 311.996711 
L 654.476555 310.151406 
L 656.510731 309.078728 
L 658.544908 306.820854 
L 660.579084 305.440626 
L 662.61326 317.720159 
L 664.647437 321.703318 
L 666.681613 327.021699 
L 668.715789 346.022345 
L 670.749966 349.345395 
L 672.784142 345.02468 
L 674.818319 345.819811 
L 676.852495 346.794973 
L 678.886671 348.175201 
L 680.920848 355.803964 
L 682.955024 356.839136 
L 684.9892 355.203865 
L 687.023377 356.471575 
L 689.057553 352.713453 
L 691.091729 352.953492 
L 693.125906 352.293383 
L 695.160082 351.985832 
L 697.194258 356.741619 
L 701.262611 364.632926 
L 703.296787 363.905306 
L 705.330964 371.166508 
L 707.36514 372.351704 
L 709.399316 375.269687 
L 711.433493 379.680417 
L 713.467669 378.660248 
L 715.501846 383.003467 
L 717.536022 381.420705 
L 719.570198 385.021302 
L 721.604375 379.837943 
L 723.638551 379.222842 
L 725.672727 376.784938 
L 727.706904 378.465216 
L 729.74108 377.392538 
L 731.775256 375.967303 
L 733.809433 376.117327 
L 735.843609 380.528058 
L 737.877785 376.604908 
L 739.911962 380.280517 
L 741.946138 389.477039 
L 743.980314 391.929945 
L 746.014491 392.777586 
L 748.048667 411.718222 
L 750.082843 406.782404 
L 752.11702 406.249816 
L 754.151196 411.808236 
L 756.185373 416.413999 
L 758.219549 418.356821 
L 760.253725 419.151952 
L 762.287902 426.675698 
L 764.322078 428.468495 
L 766.356254 430.658857 
L 768.390431 436.022245 
L 770.424607 433.854386 
L 772.458783 434.837049 
L 774.49296 434.634516 
L 776.527136 433.891893 
L 778.561312 433.021749 
L 780.595489 431.634019 
L 782.629665 433.14927 
L 784.663841 436.65235 
L 786.698018 438.535161 
L 788.732194 439.630343 
L 790.76637 441.820705 
L 792.800547 442.405802 
L 794.834723 444.453641 
L 796.8689 443.868544 
L 798.903076 440.785534 
L 800.937252 442.15076 
L 802.971429 442.375797 
L 805.005605 441.198102 
L 807.039781 440.875549 
L 809.073958 443.786031 
L 811.108134 445.001232 
L 813.14231 444.8062 
L 817.210663 442.788366 
L 819.244839 448.504312 
L 821.279016 448.609329 
L 823.313192 448.991893 
L 825.347368 448.174257 
L 827.381545 449.374456 
L 829.415721 451.669836 
L 831.449897 450.897208 
L 833.484074 451.009727 
L 835.51825 452.509975 
L 837.552427 452.23993 
L 839.586603 451.15225 
L 841.620779 452.757516 
L 843.654956 451.474804 
L 845.689132 452.314943 
L 847.723308 447.656672 
L 849.757485 450.162086 
L 851.791661 449.201927 
L 853.825837 451.969886 
L 855.860014 451.257268 
L 857.89419 452.097407 
L 859.928366 454.902871 
L 861.962543 449.757019 
L 863.996719 447.821699 
L 866.030895 448.579324 
L 868.065072 448.849369 
L 870.099248 451.489806 
L 872.133424 460.93387 
L 874.167601 460.551307 
L 876.201777 458.788515 
L 878.235954 458.255926 
L 880.27013 458.345941 
L 882.304306 453.50764 
L 886.372659 453.620159 
L 888.406835 453.312608 
L 890.441012 461.984044 
L 892.475188 460.356274 
L 894.509364 459.928703 
L 896.543541 459.778679 
L 898.577717 461.751505 
L 900.611893 470.865514 
L 902.64607 468.78767 
L 904.680246 468.66765 
L 906.714422 469.447779 
L 908.748599 468.592638 
L 910.782775 468.795171 
L 912.816951 468.06005 
L 914.851128 468.217576 
L 916.885304 469.500288 
L 918.919481 468.990204 
L 920.953657 469.552797 
L 922.987833 468.60764 
L 925.02201 471.120556 
L 927.056186 471.998202 
L 931.124539 471.900686 
L 933.158715 470.978033 
L 935.192891 470.865514 
L 937.227068 471.090551 
L 939.261244 478.261739 
L 941.29542 478.26924 
L 943.329597 476.618967 
L 945.363773 479.784491 
L 947.397949 479.739483 
L 949.432126 479.852002 
L 951.466302 480.219563 
L 953.500478 479.364421 
L 955.534655 479.259404 
L 957.568831 479.634466 
L 959.603008 479.679473 
L 961.637184 480.219563 
L 963.67136 479.566955 
L 965.705537 480.002027 
L 967.739713 478.816831 
L 969.773889 478.831833 
L 971.808066 479.604461 
L 973.842242 479.701977 
L 975.876418 481.247233 
L 977.910595 481.667303 
L 979.944771 481.509776 
L 981.978947 481.149717 
L 984.013124 480.50461 
L 986.0473 481.217228 
L 988.081476 482.139881 
L 990.115653 482.109876 
L 992.149829 481.794824 
L 994.184005 481.637298 
L 996.218182 481.854834 
L 996.218182 481.854834 
" style="fill:none;stroke:#ff7f0e;stroke-linecap:square;stroke-width:1.5;"/>
   </g>
   <g id="line2d_17">
    <path clip-path="url(#p14142b5325)" d="M 184.581818 88.999791 
L 310.700752 89.059801 
L 318.837457 89.209826 
L 320.871634 89.202325 
L 322.90581 89.307342 
L 324.939986 89.157317 
L 326.974163 89.17232 
L 329.008339 89.337347 
L 331.042515 89.329846 
L 333.076692 89.442365 
L 335.110868 89.322345 
L 341.213397 89.487372 
L 343.247573 89.442365 
L 347.315926 89.922444 
L 357.486808 90.282504 
L 359.520984 90.507541 
L 363.589337 91.295171 
L 365.623513 91.52771 
L 367.65769 91.610224 
L 369.691866 91.857765 
L 371.726042 91.812757 
L 373.760219 92.097804 
L 375.794395 92.105306 
L 377.828571 91.925276 
L 385.965277 92.292837 
L 387.999453 92.420358 
L 390.03363 92.97545 
L 392.067806 93.305504 
L 396.136159 94.618222 
L 398.170335 94.753244 
L 402.238688 95.480864 
L 404.272864 96.020954 
L 406.30704 96.268495 
L 408.341217 96.996115 
L 410.375393 96.9061 
L 412.409569 96.643557 
L 416.477922 98.068793 
L 418.512098 98.196314 
L 420.546275 99.389011 
L 422.580451 100.34917 
L 426.648804 103.229647 
L 428.68298 102.442017 
L 430.717157 102.224481 
L 432.751333 102.689558 
L 434.785509 101.97694 
L 436.819686 102.382007 
L 438.853862 103.627213 
L 440.888038 103.702226 
L 442.922215 104.707392 
L 444.956391 105.014943 
L 446.990567 105.855082 
L 449.024744 106.357665 
L 451.05892 105.254983 
L 453.093096 105.967601 
L 455.127273 105.322494 
L 457.161449 107.205306 
L 459.195625 110.355827 
L 463.263978 111.863577 
L 465.298154 112.336155 
L 467.332331 115.201629 
L 471.400684 113.978927 
L 473.43486 113.851406 
L 475.469036 114.113949 
L 477.503213 116.566855 
L 479.537389 119.822394 
L 481.571565 124.165614 
L 483.605742 121.495171 
L 485.639918 124.02309 
L 487.674094 123.745544 
L 489.708271 125.118271 
L 491.742447 125.673363 
L 493.776623 128.216284 
L 495.8108 129.611515 
L 497.844976 126.243458 
L 499.879152 126.948574 
L 501.913329 126.475996 
L 503.947505 127.901232 
L 505.981681 131.831883 
L 508.015858 131.824382 
L 510.050034 129.964074 
L 512.084211 133.969737 
L 514.118387 137.502822 
L 516.152563 143.95389 
L 518.18674 144.959056 
L 520.220916 148.2446 
L 524.289269 155.175748 
L 526.323445 154.935708 
L 528.357621 158.318768 
L 530.391798 160.276592 
L 532.425974 161.769339 
L 534.46015 162.571972 
L 536.494327 163.022047 
L 538.528503 163.059553 
L 540.562679 164.619811 
L 542.596856 165.722494 
L 544.631032 174.468942 
L 546.665208 180.357417 
L 548.699385 188.803815 
L 550.733561 195.944998 
L 552.767738 196.462583 
L 554.801914 199.725623 
L 556.83609 200.625772 
L 558.870267 205.216533 
L 560.904443 204.098847 
L 562.938619 199.718122 
L 564.972796 202.246041 
L 567.006972 203.14619 
L 569.041148 215.560745 
L 571.075325 215.080666 
L 573.109501 212.155181 
L 575.143677 212.920308 
L 577.177854 218.178679 
L 579.21203 222.806945 
L 581.246206 225.37237 
L 583.280383 217.188515 
L 585.314559 216.295867 
L 587.348735 221.254188 
L 589.382912 225.387372 
L 591.417088 227.300189 
L 593.451265 220.474059 
L 595.485441 219.618917 
L 597.519617 230.465713 
L 599.553794 233.916284 
L 601.58797 228.792936 
L 603.622146 224.764769 
L 605.656323 229.985633 
L 607.690499 230.270681 
L 609.724675 229.993135 
L 611.758852 233.811267 
L 613.793028 236.691744 
L 615.827204 239.159652 
L 617.861381 243.037794 
L 619.895557 251.041619 
L 621.929733 248.288664 
L 623.96391 253.9446 
L 625.998086 247.711068 
L 628.032262 258.310323 
L 630.066439 256.525027 
L 634.134792 268.489508 
L 636.168968 276.41082 
L 638.203144 274.483 
L 640.237321 274.205455 
L 642.271497 277.753542 
L 644.305673 268.564521 
L 646.33985 263.343656 
L 648.374026 264.363825 
L 650.408202 262.323487 
L 652.442379 266.471674 
L 654.476555 263.883746 
L 656.510731 264.416334 
L 658.544908 266.134118 
L 660.579084 274.182951 
L 662.61326 276.013254 
L 664.647437 276.560845 
L 666.681613 281.084093 
L 668.715789 276.493333 
L 670.749966 275.900735 
L 672.784142 282.809379 
L 674.818319 288.450313 
L 676.852495 290.333125 
L 678.886671 291.240775 
L 680.920848 299.48464 
L 682.955024 306.723338 
L 684.9892 306.340775 
L 687.023377 308.628654 
L 689.057553 314.70466 
L 691.091729 310.879026 
L 693.125906 312.019215 
L 695.160082 316.602474 
L 697.194258 316.985037 
L 699.228435 314.88469 
L 701.262611 312.116731 
L 703.296787 319.805504 
L 705.330964 320.960695 
L 707.36514 323.203567 
L 709.399316 327.524282 
L 711.433493 328.882007 
L 713.467669 322.205902 
L 715.501846 323.623636 
L 717.536022 325.303915 
L 719.570198 320.923189 
L 721.604375 323.901182 
L 723.638551 325.183895 
L 725.672727 324.18623 
L 727.706904 326.159056 
L 729.74108 329.08454 
L 731.775256 339.308733 
L 733.809433 341.169041 
L 735.843609 339.886329 
L 737.877785 343.239384 
L 739.911962 350.478082 
L 741.946138 351.460745 
L 743.980314 355.35389 
L 746.014491 356.059006 
L 748.048667 353.223537 
L 750.082843 355.788962 
L 752.11702 357.746786 
L 754.151196 358.091843 
L 756.185373 360.619762 
L 758.219549 362.750114 
L 760.253725 362.682603 
L 764.322078 364.145345 
L 766.356254 363.125176 
L 768.390431 362.937645 
L 770.424607 360.387223 
L 772.458783 359.089508 
L 774.49296 358.046836 
L 776.527136 354.686279 
L 778.561312 359.719613 
L 780.595489 355.991495 
L 782.629665 352.945991 
L 784.663841 353.096016 
L 786.698018 357.124183 
L 788.732194 366.425723 
L 790.76637 362.84763 
L 792.800547 364.047829 
L 794.834723 362.465067 
L 796.8689 362.577586 
L 798.903076 359.70461 
L 800.937252 359.689608 
L 802.971429 363.800288 
L 805.005605 371.189011 
L 807.039781 375.389707 
L 809.073958 376.777437 
L 811.108134 374.80461 
L 813.14231 376.102325 
L 815.176487 375.59224 
L 817.210663 375.959801 
L 819.244839 375.569737 
L 821.279016 375.397208 
L 823.313192 379.770432 
L 827.381545 381.135658 
L 829.415721 379.372866 
L 831.449897 379.477884 
L 833.484074 382.515887 
L 835.51825 386.048972 
L 837.552427 387.4292 
L 839.586603 396.648227 
L 841.620779 399.416185 
L 843.654956 401.238987 
L 845.689132 401.839086 
L 847.723308 401.846587 
L 849.757485 400.616384 
L 851.791661 402.904262 
L 853.825837 402.596711 
L 855.860014 406.594873 
L 857.89419 402.956771 
L 859.928366 403.49686 
L 861.962543 402.461689 
L 863.996719 405.769737 
L 866.030895 401.419016 
L 868.065072 404.959603 
L 870.099248 407.457516 
L 872.133424 407.322494 
L 874.167601 417.944252 
L 876.201777 417.599195 
L 878.235954 419.68454 
L 880.27013 412.498351 
L 882.304306 408.522692 
L 886.372659 409.347829 
L 888.406835 411.943259 
L 890.441012 412.475847 
L 892.475188 409.992936 
L 894.509364 414.816234 
L 896.543541 414.30615 
L 898.577717 415.371326 
L 900.611893 417.74922 
L 902.64607 417.711714 
L 904.680246 413.030939 
L 906.714422 413.27848 
L 908.748599 414.6062 
L 910.782775 418.386826 
L 912.816951 418.949419 
L 914.851128 415.963924 
L 918.919481 416.789061 
L 920.953657 416.143954 
L 922.987833 419.324481 
L 925.02201 417.396662 
L 927.056186 422.032429 
L 929.090362 422.107442 
L 931.124539 419.617029 
L 933.158715 421.73238 
L 935.192891 434.154436 
L 937.227068 435.339632 
L 939.261244 433.794377 
L 941.29542 435.227114 
L 943.329597 434.927064 
L 947.397949 442.758361 
L 949.432126 442.773363 
L 951.466302 447.349121 
L 953.500478 447.334118 
L 955.534655 451.759851 
L 957.568831 453.155082 
L 959.603008 451.242265 
L 961.637184 454.760348 
L 963.67136 454.415291 
L 965.705537 444.363626 
L 967.739713 446.07391 
L 973.842242 453.785186 
L 975.876418 454.842861 
L 977.910595 450.147084 
L 979.944771 450.012062 
L 981.978947 448.174257 
L 984.013124 452.067402 
L 986.0473 449.471972 
L 988.081476 451.264769 
L 990.115653 453.695171 
L 992.149829 461.001381 
L 994.184005 461.593979 
L 996.218182 462.366607 
L 996.218182 462.366607 
" style="fill:none;stroke:#2ca02c;stroke-linecap:square;stroke-width:1.5;"/>
   </g>
   <g id="line2d_18">
    <path clip-path="url(#p14142b5325)" d="M 184.581818 88.999791 
L 302.564046 89.0523 
L 308.666576 89.127312 
L 310.700752 89.149816 
L 312.734928 89.307342 
L 316.803281 89.299841 
L 329.008339 89.727412 
L 331.042515 90.042464 
L 333.076692 90.169985 
L 335.110868 90.432529 
L 337.145044 90.350015 
L 341.213397 90.417526 
L 343.247573 90.755082 
L 345.28175 90.522543 
L 347.315926 90.627561 
L 349.350103 90.912608 
L 353.418455 90.687571 
L 355.452632 90.732578 
L 359.520984 91.497705 
L 361.555161 91.520209 
L 363.589337 91.76775 
L 365.623513 91.790253 
L 367.65769 91.557715 
L 369.691866 91.730243 
L 371.726042 92.060298 
L 375.794395 93.140477 
L 377.828571 93.478033 
L 379.862748 93.530541 
L 381.896924 93.890601 
L 383.9311 94.985782 
L 385.965277 95.600884 
L 387.999453 96.013453 
L 390.03363 95.675897 
L 392.067806 96.606051 
L 394.101982 96.913602 
L 396.136159 97.408684 
L 398.170335 97.68623 
L 402.238688 99.126468 
L 410.375393 99.374009 
L 412.409569 99.216483 
L 414.443746 100.056622 
L 418.512098 101.429349 
L 420.546275 101.55687 
L 422.580451 102.952101 
L 424.614627 103.132131 
L 426.648804 102.839583 
L 428.68298 103.057119 
L 432.751333 103.154635 
L 434.785509 104.137298 
L 436.819686 104.482355 
L 438.853862 105.630045 
L 440.888038 107.100288 
L 442.922215 106.845246 
L 444.956391 107.077784 
L 446.990567 106.027611 
L 449.024744 108.240477 
L 451.05892 108.120457 
L 453.093096 111.57853 
L 455.127273 112.718718 
L 457.161449 114.684044 
L 459.195625 115.209131 
L 463.263978 117.92458 
L 465.298154 118.697208 
L 467.332331 120.587521 
L 469.366507 119.109776 
L 471.400684 119.184789 
L 475.469036 125.905902 
L 477.503213 126.415986 
L 481.571565 126.333472 
L 483.605742 127.916234 
L 485.639918 130.099096 
L 487.674094 133.152101 
L 491.742447 133.174605 
L 493.776623 140.428306 
L 495.8108 148.529647 
L 497.844976 152.685335 
L 499.879152 149.564819 
L 501.913329 151.432628 
L 503.947505 154.478132 
L 505.981681 159.879026 
L 508.015858 158.843855 
L 510.050034 165.587471 
L 512.084211 169.780666 
L 514.118387 171.513453 
L 516.152563 171.640974 
L 518.18674 172.781162 
L 520.220916 181.977685 
L 522.255092 183.988018 
L 524.289269 183.650462 
L 526.323445 183.815489 
L 528.357621 189.336403 
L 530.391798 188.091197 
L 532.425974 196.837645 
L 534.46015 192.546935 
L 536.494327 195.524928 
L 538.528503 196.245047 
L 540.562679 202.463577 
L 542.596856 197.767799 
L 544.631032 201.360894 
L 546.665208 212.755281 
L 548.699385 215.808286 
L 550.733561 210.992489 
L 552.767738 205.674108 
L 554.801914 208.142017 
L 556.83609 211.832628 
L 558.870267 214.540576 
L 560.904443 212.650263 
L 562.938619 220.594078 
L 564.972796 225.364868 
L 567.006972 229.693085 
L 569.041148 228.200338 
L 571.075325 224.847283 
L 573.109501 227.817774 
L 575.143677 230.540725 
L 577.177854 236.354188 
L 579.21203 232.761093 
L 581.246206 231.058311 
L 583.280383 236.099146 
L 585.314559 236.361689 
L 587.348735 232.903616 
L 589.382912 231.148326 
L 591.417088 236.331684 
L 593.451265 242.085137 
L 595.485441 244.425524 
L 597.519617 258.445345 
L 599.553794 260.020606 
L 601.58797 262.788564 
L 603.622146 265.78156 
L 605.656323 265.031436 
L 607.690499 264.941421 
L 609.724675 266.884242 
L 611.758852 278.931237 
L 613.793028 277.190949 
L 615.827204 273.965415 
L 619.895557 284.774704 
L 621.929733 285.787372 
L 623.96391 292.320954 
L 625.998086 294.563825 
L 628.032262 293.888713 
L 630.066439 297.241769 
L 632.100615 296.791694 
L 634.134792 299.619662 
L 636.168968 296.784193 
L 638.203144 304.120407 
L 640.237321 303.557814 
L 642.271497 309.476294 
L 644.305673 306.048227 
L 646.33985 308.18608 
L 648.374026 304.472966 
L 650.408202 310.511465 
L 652.442379 311.996711 
L 654.476555 315.844848 
L 656.510731 314.779672 
L 658.544908 325.476443 
L 660.579084 324.06621 
L 662.61326 322.235907 
L 664.647437 341.656622 
L 666.681613 340.876493 
L 668.715789 346.022345 
L 670.749966 341.439086 
L 672.784142 341.716632 
L 674.818319 342.804312 
L 676.852495 346.794973 
L 678.886671 347.762633 
L 680.920848 345.977337 
L 682.955024 347.522593 
L 684.9892 347.327561 
L 687.023377 349.007839 
L 689.057553 344.627114 
L 691.091729 344.349568 
L 693.125906 352.683448 
L 695.160082 351.985832 
L 697.194258 356.741619 
L 699.228435 360.574754 
L 701.262611 359.862136 
L 703.296787 363.657765 
L 705.330964 362.855132 
L 707.36514 367.970979 
L 709.399316 363.192688 
L 711.433493 364.437894 
L 713.467669 363.950313 
L 715.501846 362.375052 
L 717.536022 369.096165 
L 719.570198 370.843954 
L 721.604375 369.178679 
L 723.638551 376.184839 
L 725.672727 378.202673 
L 727.706904 376.357367 
L 729.74108 381.458212 
L 731.775256 385.208833 
L 733.809433 385.291346 
L 735.843609 385.703915 
L 737.877785 387.624232 
L 739.911962 388.284342 
L 741.946138 392.042464 
L 743.980314 387.961788 
L 746.014491 390.962285 
L 748.048667 388.644401 
L 750.082843 394.322842 
L 754.151196 404.134466 
L 756.185373 406.849916 
L 758.219549 407.66005 
L 760.253725 412.273313 
L 762.287902 414.838738 
L 764.322078 416.624034 
L 766.356254 413.090949 
L 768.390431 413.856076 
L 770.424607 410.570532 
L 772.458783 411.665713 
L 774.49296 412.31082 
L 776.527136 432.099096 
L 778.561312 431.228952 
L 780.595489 431.634019 
L 782.629665 434.552002 
L 784.663841 436.539831 
L 786.698018 436.434814 
L 788.732194 434.582007 
L 790.76637 436.547332 
L 792.800547 435.542166 
L 794.834723 436.194774 
L 798.903076 441.018073 
L 800.937252 442.788366 
L 802.971429 443.073413 
L 805.005605 441.858212 
L 807.039781 441.888217 
L 809.073958 440.395469 
L 811.108134 443.628505 
L 813.14231 447.251605 
L 815.176487 445.4138 
L 817.210663 442.015738 
L 819.244839 443.883547 
L 821.279016 443.065912 
L 823.313192 439.765365 
L 825.347368 438.220109 
L 827.381545 444.513651 
L 829.415721 443.786031 
L 831.449897 446.336453 
L 833.484074 446.538987 
L 835.51825 448.541818 
L 837.552427 448.286776 
L 839.586603 447.814198 
L 841.620779 448.421798 
L 843.654956 447.071575 
L 845.689132 452.524978 
L 847.723308 451.609826 
L 849.757485 446.764024 
L 851.791661 449.959553 
L 853.825837 451.804858 
L 855.860014 451.4523 
L 857.89419 446.306448 
L 859.928366 447.04157 
L 861.962543 445.406299 
L 863.996719 447.116582 
L 866.030895 447.146587 
L 868.065072 448.849369 
L 870.099248 448.789359 
L 872.133424 450.762186 
L 874.167601 450.18459 
L 876.201777 451.999891 
L 878.235954 451.219762 
L 880.27013 451.654834 
L 882.304306 445.848872 
L 884.338483 445.826369 
L 886.372659 429.061093 
L 888.406835 432.864223 
L 890.441012 455.810522 
L 892.475188 455.397953 
L 894.509364 456.598152 
L 896.543541 456.688167 
L 898.577717 454.760348 
L 900.611893 464.857019 
L 902.64607 465.442116 
L 904.680246 464.98454 
L 906.714422 465.569637 
L 908.748599 465.70466 
L 910.782775 468.502623 
L 912.816951 465.64465 
L 914.851128 465.04455 
L 916.885304 466.244749 
L 918.919481 469.402772 
L 920.953657 469.800338 
L 922.987833 467.872519 
L 925.02201 471.863179 
L 927.056186 471.998202 
L 929.090362 471.930691 
L 931.124539 479.506945 
L 933.158715 480.399593 
L 935.192891 480.347084 
L 937.227068 479.709478 
L 941.29542 479.634466 
L 949.432126 479.784491 
L 951.466302 480.317079 
L 953.500478 479.581957 
L 955.534655 479.634466 
L 957.568831 479.949518 
L 959.603008 480.767154 
L 961.637184 480.947183 
L 963.67136 479.611962 
L 965.705537 479.957019 
L 967.739713 480.167054 
L 969.773889 482.522444 
L 971.808066 482.274903 
L 973.842242 481.217228 
L 975.876418 481.757317 
L 977.910595 482.905007 
L 979.944771 483.242563 
L 981.978947 483.062534 
L 984.013124 483.70764 
L 986.0473 483.520109 
L 988.081476 483.722643 
L 992.149829 483.850164 
L 994.184005 484.232727 
L 996.218182 483.902673 
L 996.218182 483.902673 
" style="fill:none;stroke:#d62728;stroke-dasharray:5.55,2.4;stroke-dashoffset:0;stroke-width:1.5;"/>
   </g>
   <g id="line2d_19">
    <path clip-path="url(#p14142b5325)" d="M 184.581818 88.999791 
L 312.734928 89.022295 
L 320.871634 89.29234 
L 322.90581 89.307342 
L 324.939986 89.157317 
L 331.042515 89.427362 
L 333.076692 89.254834 
L 345.28175 89.674903 
L 349.350103 90.049965 
L 351.384279 90.064968 
L 353.418455 90.237496 
L 357.486808 90.282504 
L 361.555161 90.762583 
L 363.589337 91.10764 
L 367.65769 91.28767 
L 369.691866 91.775251 
L 377.828571 92.210323 
L 379.862748 92.052797 
L 381.896924 92.6754 
L 383.9311 92.945445 
L 385.965277 93.673065 
L 390.03363 94.100636 
L 392.067806 93.928107 
L 394.101982 94.06313 
L 398.170335 94.558212 
L 400.204511 95.060795 
L 402.238688 96.035956 
L 404.272864 96.110969 
L 408.341217 95.93844 
L 410.375393 96.576046 
L 412.409569 96.110969 
L 414.443746 96.688564 
L 416.477922 96.711068 
L 418.512098 97.191148 
L 422.580451 98.601381 
L 424.614627 98.758907 
L 426.648804 98.766408 
L 428.68298 98.923934 
L 430.717157 99.411515 
L 432.751333 100.221649 
L 434.785509 101.166806 
L 436.819686 102.749568 
L 438.853862 103.604709 
L 440.888038 103.829747 
L 442.922215 103.027114 
L 444.956391 103.829747 
L 446.990567 103.919762 
L 449.024744 103.24465 
L 451.05892 103.754734 
L 453.093096 105.892588 
L 455.127273 106.702722 
L 457.161449 110.018271 
L 459.195625 111.991098 
L 461.229802 112.763726 
L 463.263978 116.221798 
L 465.298154 118.307144 
L 467.332331 117.369488 
L 469.366507 117.211962 
L 471.400684 115.981759 
L 473.43486 117.204461 
L 475.469036 117.617029 
L 477.503213 115.644203 
L 479.537389 119.07227 
L 481.571565 118.704709 
L 483.605742 119.229796 
L 485.639918 122.57535 
L 487.674094 122.042762 
L 489.708271 126.963577 
L 491.742447 124.600686 
L 493.776623 124.675698 
L 495.8108 125.088266 
L 497.844976 123.197953 
L 499.879152 126.633522 
L 501.913329 127.58618 
L 503.947505 131.824382 
L 505.981681 133.362136 
L 508.015858 133.962235 
L 510.050034 138.500487 
L 512.084211 142.558659 
L 514.118387 141.185931 
L 516.152563 141.425971 
L 518.18674 144.546488 
L 520.220916 145.199096 
L 522.255092 148.259603 
L 524.289269 148.259603 
L 526.323445 149.444799 
L 528.357621 149.084739 
L 530.391798 155.895867 
L 532.425974 162.279424 
L 534.46015 166.495122 
L 536.494327 166.765166 
L 538.528503 175.084044 
L 540.562679 176.809329 
L 542.596856 178.032032 
L 544.631032 178.557119 
L 546.665208 174.138887 
L 548.699385 175.316582 
L 550.733561 175.924183 
L 552.767738 175.339086 
L 554.801914 179.989856 
L 556.83609 180.289906 
L 560.904443 182.18772 
L 562.938619 182.885335 
L 564.972796 184.235559 
L 567.006972 189.126369 
L 569.041148 198.000338 
L 571.075325 203.708783 
L 573.109501 203.776294 
L 575.143677 215.77078 
L 577.177854 220.796612 
L 579.21203 216.453393 
L 581.246206 214.690601 
L 583.280383 219.926468 
L 585.314559 218.118669 
L 587.348735 211.84763 
L 589.382912 212.380219 
L 591.417088 214.855628 
L 593.451265 218.043656 
L 595.485441 223.662086 
L 597.519617 235.191495 
L 599.553794 230.398202 
L 601.58797 234.321351 
L 603.622146 239.977288 
L 605.656323 244.545544 
L 607.690499 235.183994 
L 609.724675 238.214496 
L 611.758852 236.78926 
L 613.793028 234.186329 
L 615.827204 234.028803 
L 617.861381 239.677238 
L 619.895557 243.082802 
L 621.929733 237.269339 
L 623.96391 235.266508 
L 625.998086 238.462037 
L 628.032262 244.695569 
L 630.066439 244.433025 
L 632.100615 249.541371 
L 634.134792 260.478182 
L 636.168968 268.166955 
L 638.203144 267.379324 
L 640.237321 276.043259 
L 642.271497 276.253294 
L 644.305673 278.781212 
L 646.33985 276.35081 
L 648.374026 279.568843 
L 650.408202 279.9139 
L 652.442379 282.749369 
L 654.476555 283.96457 
L 658.544908 297.466806 
L 660.579084 296.10158 
L 662.61326 296.986726 
L 664.647437 302.440129 
L 666.681613 297.871873 
L 668.715789 304.142911 
L 670.749966 296.851704 
L 672.784142 290.948227 
L 674.818319 292.936056 
L 676.852495 302.44763 
L 678.886671 301.817526 
L 680.920848 302.965216 
L 682.955024 305.740676 
L 684.9892 309.75384 
L 687.023377 312.161739 
L 689.057553 306.73084 
L 691.091729 306.708336 
L 693.125906 308.516135 
L 695.160082 313.902027 
L 697.194258 310.001381 
L 699.228435 310.211416 
L 701.262611 305.433125 
L 703.296787 312.071724 
L 705.330964 307.833522 
L 707.36514 309.176244 
L 709.399316 313.737 
L 711.433493 308.141073 
L 713.467669 305.958212 
L 715.501846 307.6985 
L 717.536022 308.898698 
L 719.570198 312.04922 
L 721.604375 314.674655 
L 723.638551 322.483448 
L 725.672727 324.06621 
L 727.706904 328.394426 
L 729.74108 327.809329 
L 731.775256 327.696811 
L 733.809433 328.619463 
L 735.843609 330.509776 
L 737.877785 328.431932 
L 739.911962 330.989856 
L 741.946138 331.507442 
L 743.980314 331.342414 
L 746.014491 342.046687 
L 748.048667 345.407243 
L 750.082843 344.192042 
L 754.151196 345.324729 
L 756.185373 351.243209 
L 758.219549 355.53392 
L 760.253725 354.821302 
L 762.287902 351.655777 
L 764.322078 354.393731 
L 766.356254 358.151853 
L 768.390431 356.44157 
L 770.424607 356.32155 
L 772.458783 351.445743 
L 774.49296 355.601431 
L 776.527136 352.203368 
L 778.561312 352.323388 
L 780.595489 349.210373 
L 782.629665 350.080517 
L 784.663841 348.077685 
L 786.698018 352.57843 
L 788.732194 358.774456 
L 790.76637 358.631932 
L 792.800547 356.216533 
L 794.834723 361.129846 
L 796.8689 360.192191 
L 798.903076 358.309379 
L 800.937252 361.167352 
L 802.971429 361.144848 
L 805.005605 369.643756 
L 807.039781 368.616085 
L 809.073958 373.994476 
L 811.108134 374.699593 
L 813.14231 370.911465 
L 815.176487 376.544898 
L 817.210663 378.292688 
L 819.244839 380.738092 
L 821.279016 382.260845 
L 823.313192 382.215837 
L 825.347368 380.625574 
L 827.381545 377.722593 
L 829.415721 383.738589 
L 831.449897 383.160994 
L 833.484074 383.551058 
L 835.51825 385.583895 
L 837.552427 388.164322 
L 839.586603 386.851605 
L 841.620779 392.875102 
L 843.654956 395.500537 
L 845.689132 400.646388 
L 847.723308 402.904262 
L 849.757485 406.099791 
L 851.791661 405.882255 
L 853.825837 401.876592 
L 855.860014 402.206647 
L 857.89419 405.957268 
L 859.928366 403.061788 
L 861.962543 407.412509 
L 863.996719 401.268992 
L 866.030895 401.696562 
L 868.065072 403.834416 
L 870.099248 402.101629 
L 872.133424 401.133969 
L 874.167601 397.510869 
L 876.201777 394.817923 
L 878.235954 393.010124 
L 880.27013 394.6754 
L 882.304306 398.718569 
L 884.338483 397.315837 
L 886.372659 397.93844 
L 888.406835 397.705902 
L 890.441012 397.660894 
L 892.475188 400.016284 
L 896.543541 399.011118 
L 898.577717 400.383845 
L 900.611893 396.445693 
L 902.64607 396.633224 
L 904.680246 397.33084 
L 906.714422 400.511366 
L 908.748599 405.117129 
L 910.782775 404.982106 
L 912.816951 404.397009 
L 914.851128 404.404511 
L 916.885304 403.639384 
L 918.919481 407.142464 
L 920.953657 413.188465 
L 922.987833 409.010273 
L 925.02201 411.335658 
L 927.056186 413.953592 
L 929.090362 411.883249 
L 931.124539 417.254138 
L 933.158715 419.542017 
L 935.192891 418.829399 
L 937.227068 422.092439 
L 939.261244 424.117774 
L 941.29542 425.385484 
L 943.329597 425.753045 
L 945.363773 436.689856 
L 947.397949 440.613005 
L 949.432126 445.35379 
L 951.466302 445.398798 
L 953.500478 450.132081 
L 955.534655 452.277437 
L 957.568831 454.002722 
L 959.603008 457.858361 
L 961.637184 458.165912 
L 963.67136 463.694327 
L 965.705537 467.775002 
L 967.739713 469.912856 
L 969.773889 469.515291 
L 971.808066 472.928356 
L 973.842242 472.733323 
L 975.876418 475.388763 
L 977.910595 479.169389 
L 979.944771 479.334416 
L 981.978947 481.907342 
L 984.013124 471.765663 
L 986.0473 470.948028 
L 988.081476 463.499295 
L 990.115653 461.736503 
L 992.149829 462.26159 
L 994.184005 461.84152 
L 996.218182 458.6985 
L 996.218182 458.6985 
" style="fill:none;stroke:#9467bd;stroke-dasharray:5.55,2.4;stroke-dashoffset:0;stroke-width:1.5;"/>
   </g>
   <g id="line2d_20">
    <path clip-path="url(#p14142b5325)" d="M 184.581818 88.999791 
L 302.564046 89.067303 
L 310.700752 89.757417 
L 312.734928 90.109975 
L 314.769105 91.10764 
L 316.803281 91.265166 
L 318.837457 92.172817 
L 320.871634 92.037794 
L 322.90581 93.080467 
L 324.939986 93.515539 
L 326.974163 95.338341 
L 329.008339 96.718569 
L 331.042515 96.613552 
L 333.076692 97.14614 
L 335.110868 96.868594 
L 337.145044 98.848922 
L 339.179221 98.751406 
L 341.213397 99.208982 
L 343.247573 100.934267 
L 345.28175 103.889757 
L 347.315926 103.844749 
L 349.350103 105.607541 
L 351.384279 104.354834 
L 353.418455 105.089955 
L 355.452632 106.597705 
L 357.486808 111.053443 
L 361.555161 110.783398 
L 363.589337 110.01077 
L 365.623513 110.543358 
L 367.65769 112.711217 
L 369.691866 115.216632 
L 371.726042 122.417824 
L 373.760219 124.390651 
L 375.794395 126.025922 
L 377.828571 126.596016 
L 379.862748 125.620854 
L 381.896924 129.664024 
L 383.9311 128.73387 
L 385.965277 129.626518 
L 387.999453 130.774208 
L 390.03363 133.947233 
L 392.067806 138.065415 
L 394.101982 141.906051 
L 396.136159 141.448475 
L 398.170335 146.219265 
L 400.204511 147.667004 
L 402.238688 151.725176 
L 404.272864 149.429796 
L 406.30704 148.049568 
L 408.341217 147.419463 
L 410.375393 147.321947 
L 412.409569 146.594327 
L 414.443746 149.437298 
L 416.477922 157.058559 
L 418.512098 155.453294 
L 420.546275 161.949369 
L 422.580451 163.76467 
L 424.614627 164.567303 
L 426.648804 169.075549 
L 428.68298 166.915191 
L 430.717157 161.83685 
L 432.751333 164.807342 
L 434.785509 171.528455 
L 436.819686 174.88151 
L 438.853862 174.919016 
L 440.888038 176.081709 
L 442.922215 180.634963 
L 444.956391 176.966855 
L 446.990567 177.2369 
L 449.024744 176.426766 
L 451.05892 180.702474 
L 453.093096 179.982355 
L 455.127273 181.70764 
L 457.161449 187.596115 
L 459.195625 185.998351 
L 461.229802 185.015688 
L 463.263978 184.715638 
L 465.298154 183.432926 
L 467.332331 207.586925 
L 469.366507 221.336701 
L 471.400684 222.364372 
L 473.43486 230.81077 
L 475.469036 230.278182 
L 477.503213 232.603567 
L 479.537389 235.123984 
L 481.571565 245.835758 
L 483.605742 252.159305 
L 485.639918 249.346339 
L 487.674094 254.06462 
L 489.708271 254.42468 
L 491.742447 254.394675 
L 493.776623 252.196811 
L 495.8108 262.691048 
L 497.844976 262.045941 
L 499.879152 257.612707 
L 501.913329 263.321153 
L 503.947505 262.586031 
L 505.981681 266.134118 
L 510.050034 271.03993 
L 512.084211 278.481162 
L 514.118387 278.04609 
L 516.152563 287.280119 
L 518.18674 288.9754 
L 520.220916 290.273115 
L 522.255092 287.58767 
L 524.289269 286.064918 
L 526.323445 288.697854 
L 528.357621 290.835708 
L 530.391798 294.848872 
L 532.425974 295.884044 
L 534.46015 299.034565 
L 536.494327 309.416284 
L 538.528503 309.401282 
L 540.562679 309.986379 
L 542.596856 317.840179 
L 544.631032 319.047879 
L 546.665208 326.871674 
L 548.699385 326.781659 
L 550.733561 328.199394 
L 552.767738 328.319414 
L 554.801914 327.56929 
L 556.83609 328.289409 
L 558.870267 329.129548 
L 560.904443 329.512111 
L 562.938619 330.89234 
L 564.972796 330.71231 
L 567.006972 332.272568 
L 569.041148 331.552449 
L 571.075325 331.724978 
L 573.109501 331.552449 
L 575.143677 330.142216 
L 577.177854 327.981858 
L 579.21203 329.692141 
L 581.246206 330.194724 
L 583.280383 335.168048 
L 585.314559 334.365415 
L 587.348735 341.941669 
L 589.382912 343.344401 
L 591.417088 346.689955 
L 593.451265 347.357566 
L 595.485441 349.637943 
L 597.519617 349.105355 
L 599.553794 349.13536 
L 601.58797 348.130194 
L 603.622146 349.367899 
L 605.656323 348.850313 
L 607.690499 351.888316 
L 609.724675 351.423239 
L 611.758852 351.603269 
L 613.793028 352.128356 
L 615.827204 352.293383 
L 617.861381 352.765961 
L 619.895557 352.488415 
L 621.929733 354.438738 
L 623.96391 352.413403 
L 625.998086 352.413403 
L 628.032262 352.068346 
L 630.066439 353.703616 
L 632.100615 356.426567 
L 634.134792 356.764123 
L 636.168968 357.806796 
L 638.203144 357.499245 
L 640.237321 356.636602 
L 642.271497 362.750114 
L 644.305673 364.29537 
L 646.33985 364.610422 
L 648.374026 365.32304 
L 650.408202 366.65076 
L 652.442379 367.55841 
L 654.476555 367.865961 
L 656.510731 368.030989 
L 658.544908 366.59075 
L 660.579084 367.505902 
L 662.61326 367.880964 
L 664.647437 366.110671 
L 666.681613 367.055827 
L 668.715789 367.363378 
L 670.749966 370.228852 
L 672.784142 368.248525 
L 674.818319 368.346041 
L 678.886671 371.78161 
L 680.920848 372.44922 
L 682.955024 372.134168 
L 684.9892 376.019811 
L 687.023377 373.709429 
L 689.057553 373.709429 
L 691.091729 377.610075 
L 693.125906 378.060149 
L 695.160082 382.335857 
L 697.194258 383.446041 
L 699.228435 398.088465 
L 703.296787 397.735907 
L 705.330964 398.088465 
L 707.36514 396.633224 
L 709.399316 399.828753 
L 711.433493 399.858758 
L 713.467669 400.7139 
L 715.501846 424.807889 
L 717.536022 425.002921 
L 719.570198 424.890402 
L 721.604375 431.739036 
L 725.672727 431.574009 
L 727.706904 434.35697 
L 733.809433 437.072419 
L 735.843609 437.492489 
L 737.877785 438.062583 
L 739.911962 437.462484 
L 741.946138 434.311962 
L 743.980314 429.668693 
L 746.014491 432.024083 
L 748.048667 432.699195 
L 750.082843 433.666855 
L 752.11702 431.536503 
L 754.151196 431.709031 
L 756.185373 435.872221 
L 758.219549 438.167601 
L 760.253725 440.905554 
L 762.287902 441.670681 
L 764.322078 441.813204 
L 766.356254 441.655678 
L 768.390431 443.380964 
L 770.424607 446.208932 
L 772.458783 447.784193 
L 774.49296 447.476642 
L 776.527136 446.989061 
L 778.561312 445.046239 
L 780.595489 446.148922 
L 782.629665 445.728852 
L 784.663841 446.381461 
L 786.698018 451.107243 
L 788.732194 448.939384 
L 790.76637 449.081908 
L 792.800547 454.565315 
L 794.834723 453.950214 
L 796.8689 454.257765 
L 798.903076 453.755181 
L 800.937252 454.475301 
L 802.971429 454.745345 
L 805.005605 455.142911 
L 807.039781 455.247928 
L 809.073958 453.305107 
L 811.108134 453.522643 
L 813.14231 453.897705 
L 815.176487 454.565315 
L 817.210663 454.872866 
L 819.244839 455.645494 
L 821.279016 460.423785 
L 823.313192 460.588813 
L 825.347368 458.368445 
L 827.381545 458.75851 
L 829.415721 460.146239 
L 831.449897 460.093731 
L 833.484074 458.585981 
L 835.51825 455.562981 
L 837.552427 450.60466 
L 839.586603 449.426965 
L 841.620779 448.556821 
L 843.654956 447.326617 
L 845.689132 448.871873 
L 847.723308 441.880715 
L 849.757485 441.130591 
L 853.825837 441.318122 
L 855.860014 440.853045 
L 857.89419 442.518321 
L 859.928366 442.218271 
L 861.962543 442.068246 
L 863.996719 440.350462 
L 866.030895 449.749518 
L 868.065072 448.774357 
L 872.133424 448.774357 
L 874.167601 446.666508 
L 876.201777 446.523984 
L 878.235954 436.404809 
L 880.27013 435.38464 
L 882.304306 436.277288 
L 884.338483 435.407144 
L 886.372659 441.36313 
L 888.406835 443.395966 
L 890.441012 443.523487 
L 892.475188 442.473313 
L 894.509364 445.4138 
L 896.543541 444.033572 
L 898.577717 444.011068 
L 900.611893 446.463974 
L 902.64607 446.493979 
L 904.680246 448.414297 
L 906.714422 448.946885 
L 908.748599 448.924382 
L 910.782775 444.116085 
L 912.816951 442.45081 
L 914.851128 442.443308 
L 916.885304 443.095917 
L 918.919481 443.515986 
L 920.953657 444.558659 
L 922.987833 445.016234 
L 925.02201 443.666011 
L 927.056186 440.222941 
L 929.090362 449.074406 
L 933.158715 449.119414 
L 935.192891 446.936552 
L 937.227068 447.056572 
L 939.261244 447.506647 
L 941.29542 446.598997 
L 943.329597 446.831535 
L 945.363773 447.536652 
L 947.397949 449.742017 
L 949.432126 451.324779 
L 951.466302 451.33228 
L 953.500478 457.258261 
L 955.534655 457.505802 
L 957.568831 458.75851 
L 961.637184 458.766011 
L 963.67136 458.645991 
L 965.705537 461.834019 
L 967.739713 462.3216 
L 969.773889 463.16924 
L 971.808066 462.239086 
L 973.842242 462.576642 
L 975.876418 466.222245 
L 977.910595 465.794675 
L 979.944771 463.949369 
L 981.978947 466.462285 
L 984.013124 466.927362 
L 986.0473 466.799841 
L 988.081476 466.132231 
L 990.115653 465.029548 
L 992.149829 461.999046 
L 994.184005 460.581311 
L 996.218182 460.641321 
L 996.218182 460.641321 
" style="fill:none;stroke:#8c564b;stroke-dasharray:5.55,2.4;stroke-dashoffset:0;stroke-width:1.5;"/>
   </g>
   <g id="patch_3">
    <path d="M 144 504 
L 144 69.12 
" style="fill:none;stroke:#000000;stroke-linecap:square;stroke-linejoin:miter;stroke-width:0.8;"/>
   </g>
   <g id="patch_4">
    <path d="M 1036.8 504 
L 1036.8 69.12 
" style="fill:none;stroke:#000000;stroke-linecap:square;stroke-linejoin:miter;stroke-width:0.8;"/>
   </g>
   <g id="patch_5">
    <path d="M 144 504 
L 1036.8 504 
" style="fill:none;stroke:#000000;stroke-linecap:square;stroke-linejoin:miter;stroke-width:0.8;"/>
   </g>
   <g id="patch_6">
    <path d="M 144 69.12 
L 1036.8 69.12 
" style="fill:none;stroke:#000000;stroke-linecap:square;stroke-linejoin:miter;stroke-width:0.8;"/>
   </g>
   <g id="legend_1">
    <g id="patch_7">
     <path d="M 905.367188 166.579375 
L 1029.8 166.579375 
Q 1031.8 166.579375 1031.8 164.579375 
L 1031.8 76.12 
Q 1031.8 74.12 1029.8 74.12 
L 905.367188 74.12 
Q 903.367188 74.12 903.367188 76.12 
L 903.367188 164.579375 
Q 903.367188 166.579375 905.367188 166.579375 
z
" style="fill:#ffffff;opacity:0.8;stroke:#cccccc;stroke-linejoin:miter;"/>
    </g>
    <g id="line2d_21">
     <path d="M 907.367188 82.218438 
L 927.367188 82.218438 
" style="fill:none;stroke:#1f77b4;stroke-linecap:square;stroke-width:1.5;"/>
    </g>
    <g id="line2d_22"/>
    <g id="text_17">
     <!-- taylorfo -->
     <defs>
      <path d="M 18.3125 70.21875 
L 18.3125 54.6875 
L 36.8125 54.6875 
L 36.8125 47.703125 
L 18.3125 47.703125 
L 18.3125 18.015625 
Q 18.3125 11.328125 20.140625 9.421875 
Q 21.96875 7.515625 27.59375 7.515625 
L 36.8125 7.515625 
L 36.8125 0 
L 27.59375 0 
Q 17.1875 0 13.234375 3.875 
Q 9.28125 7.765625 9.28125 18.015625 
L 9.28125 47.703125 
L 2.6875 47.703125 
L 2.6875 54.6875 
L 9.28125 54.6875 
L 9.28125 70.21875 
z
" id="DejaVuSans-116"/>
      <path d="M 9.421875 75.984375 
L 18.40625 75.984375 
L 18.40625 0 
L 9.421875 0 
z
" id="DejaVuSans-108"/>
     </defs>
     <g transform="translate(935.367188 85.718438)scale(0.1 -0.1)">
      <use xlink:href="#DejaVuSans-116"/>
      <use x="39.208984" xlink:href="#DejaVuSans-97"/>
      <use x="100.488281" xlink:href="#DejaVuSans-121"/>
      <use x="159.667969" xlink:href="#DejaVuSans-108"/>
      <use x="187.451172" xlink:href="#DejaVuSans-111"/>
      <use x="248.632812" xlink:href="#DejaVuSans-114"/>
      <use x="289.746094" xlink:href="#DejaVuSans-102"/>
      <use x="324.951172" xlink:href="#DejaVuSans-111"/>
     </g>
    </g>
    <g id="line2d_23">
     <path d="M 907.367188 96.896563 
L 927.367188 96.896563 
" style="fill:none;stroke:#ff7f0e;stroke-linecap:square;stroke-width:1.5;"/>
    </g>
    <g id="line2d_24"/>
    <g id="text_18">
     <!-- taylorfo_abs -->
     <defs>
      <path d="M 50.984375 -16.609375 
L 50.984375 -23.578125 
L -0.984375 -23.578125 
L -0.984375 -16.609375 
z
" id="DejaVuSans-95"/>
     </defs>
     <g transform="translate(935.367188 100.396563)scale(0.1 -0.1)">
      <use xlink:href="#DejaVuSans-116"/>
      <use x="39.208984" xlink:href="#DejaVuSans-97"/>
      <use x="100.488281" xlink:href="#DejaVuSans-121"/>
      <use x="159.667969" xlink:href="#DejaVuSans-108"/>
      <use x="187.451172" xlink:href="#DejaVuSans-111"/>
      <use x="248.632812" xlink:href="#DejaVuSans-114"/>
      <use x="289.746094" xlink:href="#DejaVuSans-102"/>
      <use x="324.951172" xlink:href="#DejaVuSans-111"/>
      <use x="386.132812" xlink:href="#DejaVuSans-95"/>
      <use x="436.132812" xlink:href="#DejaVuSans-97"/>
      <use x="497.412109" xlink:href="#DejaVuSans-98"/>
      <use x="560.888672" xlink:href="#DejaVuSans-115"/>
     </g>
    </g>
    <g id="line2d_25">
     <path d="M 907.367188 111.852813 
L 927.367188 111.852813 
" style="fill:none;stroke:#2ca02c;stroke-linecap:square;stroke-width:1.5;"/>
    </g>
    <g id="line2d_26"/>
    <g id="text_19">
     <!-- taylorfo_sq -->
     <defs>
      <path d="M 14.796875 27.296875 
Q 14.796875 17.390625 18.875 11.75 
Q 22.953125 6.109375 30.078125 6.109375 
Q 37.203125 6.109375 41.296875 11.75 
Q 45.40625 17.390625 45.40625 27.296875 
Q 45.40625 37.203125 41.296875 42.84375 
Q 37.203125 48.484375 30.078125 48.484375 
Q 22.953125 48.484375 18.875 42.84375 
Q 14.796875 37.203125 14.796875 27.296875 
z
M 45.40625 8.203125 
Q 42.578125 3.328125 38.25 0.953125 
Q 33.9375 -1.421875 27.875 -1.421875 
Q 17.96875 -1.421875 11.734375 6.484375 
Q 5.515625 14.40625 5.515625 27.296875 
Q 5.515625 40.1875 11.734375 48.09375 
Q 17.96875 56 27.875 56 
Q 33.9375 56 38.25 53.625 
Q 42.578125 51.265625 45.40625 46.390625 
L 45.40625 54.6875 
L 54.390625 54.6875 
L 54.390625 -20.796875 
L 45.40625 -20.796875 
z
" id="DejaVuSans-113"/>
     </defs>
     <g transform="translate(935.367188 115.352813)scale(0.1 -0.1)">
      <use xlink:href="#DejaVuSans-116"/>
      <use x="39.208984" xlink:href="#DejaVuSans-97"/>
      <use x="100.488281" xlink:href="#DejaVuSans-121"/>
      <use x="159.667969" xlink:href="#DejaVuSans-108"/>
      <use x="187.451172" xlink:href="#DejaVuSans-111"/>
      <use x="248.632812" xlink:href="#DejaVuSans-114"/>
      <use x="289.746094" xlink:href="#DejaVuSans-102"/>
      <use x="324.951172" xlink:href="#DejaVuSans-111"/>
      <use x="386.132812" xlink:href="#DejaVuSans-95"/>
      <use x="436.132812" xlink:href="#DejaVuSans-115"/>
      <use x="488.232422" xlink:href="#DejaVuSans-113"/>
     </g>
    </g>
    <g id="line2d_27">
     <path d="M 907.367188 126.809063 
L 927.367188 126.809063 
" style="fill:none;stroke:#d62728;stroke-dasharray:5.55,2.4;stroke-dashoffset:0;stroke-width:1.5;"/>
    </g>
    <g id="line2d_28"/>
    <g id="text_20">
     <!-- taylorfo_abs_norm -->
     <g transform="translate(935.367188 130.309063)scale(0.1 -0.1)">
      <use xlink:href="#DejaVuSans-116"/>
      <use x="39.208984" xlink:href="#DejaVuSans-97"/>
      <use x="100.488281" xlink:href="#DejaVuSans-121"/>
      <use x="159.667969" xlink:href="#DejaVuSans-108"/>
      <use x="187.451172" xlink:href="#DejaVuSans-111"/>
      <use x="248.632812" xlink:href="#DejaVuSans-114"/>
      <use x="289.746094" xlink:href="#DejaVuSans-102"/>
      <use x="324.951172" xlink:href="#DejaVuSans-111"/>
      <use x="386.132812" xlink:href="#DejaVuSans-95"/>
      <use x="436.132812" xlink:href="#DejaVuSans-97"/>
      <use x="497.412109" xlink:href="#DejaVuSans-98"/>
      <use x="560.888672" xlink:href="#DejaVuSans-115"/>
      <use x="612.988281" xlink:href="#DejaVuSans-95"/>
      <use x="662.988281" xlink:href="#DejaVuSans-110"/>
      <use x="726.367188" xlink:href="#DejaVuSans-111"/>
      <use x="787.548828" xlink:href="#DejaVuSans-114"/>
      <use x="826.912109" xlink:href="#DejaVuSans-109"/>
     </g>
    </g>
    <g id="line2d_29">
     <path d="M 907.367188 141.765313 
L 927.367188 141.765313 
" style="fill:none;stroke:#9467bd;stroke-dasharray:5.55,2.4;stroke-dashoffset:0;stroke-width:1.5;"/>
    </g>
    <g id="line2d_30"/>
    <g id="text_21">
     <!-- taylorfo_sq_norm -->
     <g transform="translate(935.367188 145.265313)scale(0.1 -0.1)">
      <use xlink:href="#DejaVuSans-116"/>
      <use x="39.208984" xlink:href="#DejaVuSans-97"/>
      <use x="100.488281" xlink:href="#DejaVuSans-121"/>
      <use x="159.667969" xlink:href="#DejaVuSans-108"/>
      <use x="187.451172" xlink:href="#DejaVuSans-111"/>
      <use x="248.632812" xlink:href="#DejaVuSans-114"/>
      <use x="289.746094" xlink:href="#DejaVuSans-102"/>
      <use x="324.951172" xlink:href="#DejaVuSans-111"/>
      <use x="386.132812" xlink:href="#DejaVuSans-95"/>
      <use x="436.132812" xlink:href="#DejaVuSans-115"/>
      <use x="488.232422" xlink:href="#DejaVuSans-113"/>
      <use x="551.708984" xlink:href="#DejaVuSans-95"/>
      <use x="601.708984" xlink:href="#DejaVuSans-110"/>
      <use x="665.087891" xlink:href="#DejaVuSans-111"/>
      <use x="726.269531" xlink:href="#DejaVuSans-114"/>
      <use x="765.632812" xlink:href="#DejaVuSans-109"/>
     </g>
    </g>
    <g id="line2d_31">
     <path d="M 907.367188 156.721563 
L 927.367188 156.721563 
" style="fill:none;stroke:#8c564b;stroke-dasharray:5.55,2.4;stroke-dashoffset:0;stroke-width:1.5;"/>
    </g>
    <g id="line2d_32"/>
    <g id="text_22">
     <!-- Molchanov_group -->
     <defs>
      <path d="M 9.8125 72.90625 
L 24.515625 72.90625 
L 43.109375 23.296875 
L 61.8125 72.90625 
L 76.515625 72.90625 
L 76.515625 0 
L 66.890625 0 
L 66.890625 64.015625 
L 48.09375 14.015625 
L 38.1875 14.015625 
L 19.390625 64.015625 
L 19.390625 0 
L 9.8125 0 
z
" id="DejaVuSans-77"/>
      <path d="M 54.890625 33.015625 
L 54.890625 0 
L 45.90625 0 
L 45.90625 32.71875 
Q 45.90625 40.484375 42.875 44.328125 
Q 39.84375 48.1875 33.796875 48.1875 
Q 26.515625 48.1875 22.3125 43.546875 
Q 18.109375 38.921875 18.109375 30.90625 
L 18.109375 0 
L 9.078125 0 
L 9.078125 75.984375 
L 18.109375 75.984375 
L 18.109375 46.1875 
Q 21.34375 51.125 25.703125 53.5625 
Q 30.078125 56 35.796875 56 
Q 45.21875 56 50.046875 50.171875 
Q 54.890625 44.34375 54.890625 33.015625 
z
" id="DejaVuSans-104"/>
      <path d="M 2.984375 54.6875 
L 12.5 54.6875 
L 29.59375 8.796875 
L 46.6875 54.6875 
L 56.203125 54.6875 
L 35.6875 0 
L 23.484375 0 
z
" id="DejaVuSans-118"/>
      <path d="M 45.40625 27.984375 
Q 45.40625 37.75 41.375 43.109375 
Q 37.359375 48.484375 30.078125 48.484375 
Q 22.859375 48.484375 18.828125 43.109375 
Q 14.796875 37.75 14.796875 27.984375 
Q 14.796875 18.265625 18.828125 12.890625 
Q 22.859375 7.515625 30.078125 7.515625 
Q 37.359375 7.515625 41.375 12.890625 
Q 45.40625 18.265625 45.40625 27.984375 
z
M 54.390625 6.78125 
Q 54.390625 -7.171875 48.1875 -13.984375 
Q 42 -20.796875 29.203125 -20.796875 
Q 24.46875 -20.796875 20.265625 -20.09375 
Q 16.0625 -19.390625 12.109375 -17.921875 
L 12.109375 -9.1875 
Q 16.0625 -11.328125 19.921875 -12.34375 
Q 23.78125 -13.375 27.78125 -13.375 
Q 36.625 -13.375 41.015625 -8.765625 
Q 45.40625 -4.15625 45.40625 5.171875 
L 45.40625 9.625 
Q 42.625 4.78125 38.28125 2.390625 
Q 33.9375 0 27.875 0 
Q 17.828125 0 11.671875 7.65625 
Q 5.515625 15.328125 5.515625 27.984375 
Q 5.515625 40.671875 11.671875 48.328125 
Q 17.828125 56 27.875 56 
Q 33.9375 56 38.28125 53.609375 
Q 42.625 51.21875 45.40625 46.390625 
L 45.40625 54.6875 
L 54.390625 54.6875 
z
" id="DejaVuSans-103"/>
     </defs>
     <g transform="translate(935.367188 160.221563)scale(0.1 -0.1)">
      <use xlink:href="#DejaVuSans-77"/>
      <use x="86.279297" xlink:href="#DejaVuSans-111"/>
      <use x="147.460938" xlink:href="#DejaVuSans-108"/>
      <use x="175.244141" xlink:href="#DejaVuSans-99"/>
      <use x="230.224609" xlink:href="#DejaVuSans-104"/>
      <use x="293.603516" xlink:href="#DejaVuSans-97"/>
      <use x="354.882812" xlink:href="#DejaVuSans-110"/>
      <use x="418.261719" xlink:href="#DejaVuSans-111"/>
      <use x="479.443359" xlink:href="#DejaVuSans-118"/>
      <use x="538.623047" xlink:href="#DejaVuSans-95"/>
      <use x="588.623047" xlink:href="#DejaVuSans-103"/>
      <use x="652.099609" xlink:href="#DejaVuSans-114"/>
      <use x="690.962891" xlink:href="#DejaVuSans-111"/>
      <use x="752.144531" xlink:href="#DejaVuSans-117"/>
      <use x="815.523438" xlink:href="#DejaVuSans-112"/>
     </g>
    </g>
   </g>
  </g>
 </g>
 <defs>
  <clipPath id="p14142b5325">
   <rect height="434.88" width="892.8" x="144" y="69.12"/>
  </clipPath>
 </defs>
</svg>
