<?xml version="1.0" encoding="utf-8" standalone="no"?>
<!DOCTYPE svg PUBLIC "-//W3C//DTD SVG 1.1//EN"
  "http://www.w3.org/Graphics/SVG/1.1/DTD/svg11.dtd">
<!-- Created with matplotlib (https://matplotlib.org/) -->
<svg height="576pt" version="1.1" viewBox="0 0 1152 576" width="1152pt" xmlns="http://www.w3.org/2000/svg" xmlns:xlink="http://www.w3.org/1999/xlink">
 <defs>
  <style type="text/css">
*{stroke-linecap:butt;stroke-linejoin:round;}
  </style>
 </defs>
 <g id="figure_1">
  <g id="patch_1">
   <path d="M 0 576 
L 1152 576 
L 1152 0 
L 0 0 
z
" style="fill:#ffffff;"/>
  </g>
  <g id="axes_1">
   <g id="patch_2">
    <path d="M 144 504 
L 1036.8 504 
L 1036.8 69.12 
L 144 69.12 
z
" style="fill:#ffffff;"/>
   </g>
   <g id="matplotlib.axis_1">
    <g id="xtick_1">
     <g id="line2d_1">
      <defs>
       <path d="M 0 0 
L 0 3.5 
" id="m1220b63584" style="stroke:#000000;stroke-width:0.8;"/>
      </defs>
      <g>
       <use style="stroke:#000000;stroke-width:0.8;" x="182.547642" xlink:href="#m1220b63584" y="504"/>
      </g>
     </g>
     <g id="text_1">
      <!-- 0 -->
      <defs>
       <path d="M 31.78125 66.40625 
Q 24.171875 66.40625 20.328125 58.90625 
Q 16.5 51.421875 16.5 36.375 
Q 16.5 21.390625 20.328125 13.890625 
Q 24.171875 6.390625 31.78125 6.390625 
Q 39.453125 6.390625 43.28125 13.890625 
Q 47.125 21.390625 47.125 36.375 
Q 47.125 51.421875 43.28125 58.90625 
Q 39.453125 66.40625 31.78125 66.40625 
z
M 31.78125 74.21875 
Q 44.046875 74.21875 50.515625 64.515625 
Q 56.984375 54.828125 56.984375 36.375 
Q 56.984375 17.96875 50.515625 8.265625 
Q 44.046875 -1.421875 31.78125 -1.421875 
Q 19.53125 -1.421875 13.0625 8.265625 
Q 6.59375 17.96875 6.59375 36.375 
Q 6.59375 54.828125 13.0625 64.515625 
Q 19.53125 74.21875 31.78125 74.21875 
z
" id="DejaVuSans-48"/>
      </defs>
      <g transform="translate(179.366392 518.598438)scale(0.1 -0.1)">
       <use xlink:href="#DejaVuSans-48"/>
      </g>
     </g>
    </g>
    <g id="xtick_2">
     <g id="line2d_2">
      <g>
       <use style="stroke:#000000;stroke-width:0.8;" x="284.256459" xlink:href="#m1220b63584" y="504"/>
      </g>
     </g>
     <g id="text_2">
      <!-- 50 -->
      <defs>
       <path d="M 10.796875 72.90625 
L 49.515625 72.90625 
L 49.515625 64.59375 
L 19.828125 64.59375 
L 19.828125 46.734375 
Q 21.96875 47.46875 24.109375 47.828125 
Q 26.265625 48.1875 28.421875 48.1875 
Q 40.625 48.1875 47.75 41.5 
Q 54.890625 34.8125 54.890625 23.390625 
Q 54.890625 11.625 47.5625 5.09375 
Q 40.234375 -1.421875 26.90625 -1.421875 
Q 22.3125 -1.421875 17.546875 -0.640625 
Q 12.796875 0.140625 7.71875 1.703125 
L 7.71875 11.625 
Q 12.109375 9.234375 16.796875 8.0625 
Q 21.484375 6.890625 26.703125 6.890625 
Q 35.15625 6.890625 40.078125 11.328125 
Q 45.015625 15.765625 45.015625 23.390625 
Q 45.015625 31 40.078125 35.4375 
Q 35.15625 39.890625 26.703125 39.890625 
Q 22.75 39.890625 18.8125 39.015625 
Q 14.890625 38.140625 10.796875 36.28125 
z
" id="DejaVuSans-53"/>
      </defs>
      <g transform="translate(277.893959 518.598438)scale(0.1 -0.1)">
       <use xlink:href="#DejaVuSans-53"/>
       <use x="63.623047" xlink:href="#DejaVuSans-48"/>
      </g>
     </g>
    </g>
    <g id="xtick_3">
     <g id="line2d_3">
      <g>
       <use style="stroke:#000000;stroke-width:0.8;" x="385.965277" xlink:href="#m1220b63584" y="504"/>
      </g>
     </g>
     <g id="text_3">
      <!-- 100 -->
      <defs>
       <path d="M 12.40625 8.296875 
L 28.515625 8.296875 
L 28.515625 63.921875 
L 10.984375 60.40625 
L 10.984375 69.390625 
L 28.421875 72.90625 
L 38.28125 72.90625 
L 38.28125 8.296875 
L 54.390625 8.296875 
L 54.390625 0 
L 12.40625 0 
z
" id="DejaVuSans-49"/>
      </defs>
      <g transform="translate(376.421527 518.598438)scale(0.1 -0.1)">
       <use xlink:href="#DejaVuSans-49"/>
       <use x="63.623047" xlink:href="#DejaVuSans-48"/>
       <use x="127.246094" xlink:href="#DejaVuSans-48"/>
      </g>
     </g>
    </g>
    <g id="xtick_4">
     <g id="line2d_4">
      <g>
       <use style="stroke:#000000;stroke-width:0.8;" x="487.674094" xlink:href="#m1220b63584" y="504"/>
      </g>
     </g>
     <g id="text_4">
      <!-- 150 -->
      <g transform="translate(478.130344 518.598438)scale(0.1 -0.1)">
       <use xlink:href="#DejaVuSans-49"/>
       <use x="63.623047" xlink:href="#DejaVuSans-53"/>
       <use x="127.246094" xlink:href="#DejaVuSans-48"/>
      </g>
     </g>
    </g>
    <g id="xtick_5">
     <g id="line2d_5">
      <g>
       <use style="stroke:#000000;stroke-width:0.8;" x="589.382912" xlink:href="#m1220b63584" y="504"/>
      </g>
     </g>
     <g id="text_5">
      <!-- 200 -->
      <defs>
       <path d="M 19.1875 8.296875 
L 53.609375 8.296875 
L 53.609375 0 
L 7.328125 0 
L 7.328125 8.296875 
Q 12.9375 14.109375 22.625 23.890625 
Q 32.328125 33.6875 34.8125 36.53125 
Q 39.546875 41.84375 41.421875 45.53125 
Q 43.3125 49.21875 43.3125 52.78125 
Q 43.3125 58.59375 39.234375 62.25 
Q 35.15625 65.921875 28.609375 65.921875 
Q 23.96875 65.921875 18.8125 64.3125 
Q 13.671875 62.703125 7.8125 59.421875 
L 7.8125 69.390625 
Q 13.765625 71.78125 18.9375 73 
Q 24.125 74.21875 28.421875 74.21875 
Q 39.75 74.21875 46.484375 68.546875 
Q 53.21875 62.890625 53.21875 53.421875 
Q 53.21875 48.921875 51.53125 44.890625 
Q 49.859375 40.875 45.40625 35.40625 
Q 44.1875 33.984375 37.640625 27.21875 
Q 31.109375 20.453125 19.1875 8.296875 
z
" id="DejaVuSans-50"/>
      </defs>
      <g transform="translate(579.839162 518.598438)scale(0.1 -0.1)">
       <use xlink:href="#DejaVuSans-50"/>
       <use x="63.623047" xlink:href="#DejaVuSans-48"/>
       <use x="127.246094" xlink:href="#DejaVuSans-48"/>
      </g>
     </g>
    </g>
    <g id="xtick_6">
     <g id="line2d_6">
      <g>
       <use style="stroke:#000000;stroke-width:0.8;" x="691.091729" xlink:href="#m1220b63584" y="504"/>
      </g>
     </g>
     <g id="text_6">
      <!-- 250 -->
      <g transform="translate(681.547979 518.598438)scale(0.1 -0.1)">
       <use xlink:href="#DejaVuSans-50"/>
       <use x="63.623047" xlink:href="#DejaVuSans-53"/>
       <use x="127.246094" xlink:href="#DejaVuSans-48"/>
      </g>
     </g>
    </g>
    <g id="xtick_7">
     <g id="line2d_7">
      <g>
       <use style="stroke:#000000;stroke-width:0.8;" x="792.800547" xlink:href="#m1220b63584" y="504"/>
      </g>
     </g>
     <g id="text_7">
      <!-- 300 -->
      <defs>
       <path d="M 40.578125 39.3125 
Q 47.65625 37.796875 51.625 33 
Q 55.609375 28.21875 55.609375 21.1875 
Q 55.609375 10.40625 48.1875 4.484375 
Q 40.765625 -1.421875 27.09375 -1.421875 
Q 22.515625 -1.421875 17.65625 -0.515625 
Q 12.796875 0.390625 7.625 2.203125 
L 7.625 11.71875 
Q 11.71875 9.328125 16.59375 8.109375 
Q 21.484375 6.890625 26.8125 6.890625 
Q 36.078125 6.890625 40.9375 10.546875 
Q 45.796875 14.203125 45.796875 21.1875 
Q 45.796875 27.640625 41.28125 31.265625 
Q 36.765625 34.90625 28.71875 34.90625 
L 20.21875 34.90625 
L 20.21875 43.015625 
L 29.109375 43.015625 
Q 36.375 43.015625 40.234375 45.921875 
Q 44.09375 48.828125 44.09375 54.296875 
Q 44.09375 59.90625 40.109375 62.90625 
Q 36.140625 65.921875 28.71875 65.921875 
Q 24.65625 65.921875 20.015625 65.03125 
Q 15.375 64.15625 9.8125 62.3125 
L 9.8125 71.09375 
Q 15.4375 72.65625 20.34375 73.4375 
Q 25.25 74.21875 29.59375 74.21875 
Q 40.828125 74.21875 47.359375 69.109375 
Q 53.90625 64.015625 53.90625 55.328125 
Q 53.90625 49.265625 50.4375 45.09375 
Q 46.96875 40.921875 40.578125 39.3125 
z
" id="DejaVuSans-51"/>
      </defs>
      <g transform="translate(783.256797 518.598438)scale(0.1 -0.1)">
       <use xlink:href="#DejaVuSans-51"/>
       <use x="63.623047" xlink:href="#DejaVuSans-48"/>
       <use x="127.246094" xlink:href="#DejaVuSans-48"/>
      </g>
     </g>
    </g>
    <g id="xtick_8">
     <g id="line2d_8">
      <g>
       <use style="stroke:#000000;stroke-width:0.8;" x="894.509364" xlink:href="#m1220b63584" y="504"/>
      </g>
     </g>
     <g id="text_8">
      <!-- 350 -->
      <g transform="translate(884.965614 518.598438)scale(0.1 -0.1)">
       <use xlink:href="#DejaVuSans-51"/>
       <use x="63.623047" xlink:href="#DejaVuSans-53"/>
       <use x="127.246094" xlink:href="#DejaVuSans-48"/>
      </g>
     </g>
    </g>
    <g id="xtick_9">
     <g id="line2d_9">
      <g>
       <use style="stroke:#000000;stroke-width:0.8;" x="996.218182" xlink:href="#m1220b63584" y="504"/>
      </g>
     </g>
     <g id="text_9">
      <!-- 400 -->
      <defs>
       <path d="M 37.796875 64.3125 
L 12.890625 25.390625 
L 37.796875 25.390625 
z
M 35.203125 72.90625 
L 47.609375 72.90625 
L 47.609375 25.390625 
L 58.015625 25.390625 
L 58.015625 17.1875 
L 47.609375 17.1875 
L 47.609375 0 
L 37.796875 0 
L 37.796875 17.1875 
L 4.890625 17.1875 
L 4.890625 26.703125 
z
" id="DejaVuSans-52"/>
      </defs>
      <g transform="translate(986.674432 518.598438)scale(0.1 -0.1)">
       <use xlink:href="#DejaVuSans-52"/>
       <use x="63.623047" xlink:href="#DejaVuSans-48"/>
       <use x="127.246094" xlink:href="#DejaVuSans-48"/>
      </g>
     </g>
    </g>
    <g id="text_10">
     <!-- Number of Neurons pruned -->
     <defs>
      <path d="M 9.8125 72.90625 
L 23.09375 72.90625 
L 55.421875 11.921875 
L 55.421875 72.90625 
L 64.984375 72.90625 
L 64.984375 0 
L 51.703125 0 
L 19.390625 60.984375 
L 19.390625 0 
L 9.8125 0 
z
" id="DejaVuSans-78"/>
      <path d="M 8.5 21.578125 
L 8.5 54.6875 
L 17.484375 54.6875 
L 17.484375 21.921875 
Q 17.484375 14.15625 20.5 10.265625 
Q 23.53125 6.390625 29.59375 6.390625 
Q 36.859375 6.390625 41.078125 11.03125 
Q 45.3125 15.671875 45.3125 23.6875 
L 45.3125 54.6875 
L 54.296875 54.6875 
L 54.296875 0 
L 45.3125 0 
L 45.3125 8.40625 
Q 42.046875 3.421875 37.71875 1 
Q 33.40625 -1.421875 27.6875 -1.421875 
Q 18.265625 -1.421875 13.375 4.4375 
Q 8.5 10.296875 8.5 21.578125 
z
M 31.109375 56 
z
" id="DejaVuSans-117"/>
      <path d="M 52 44.1875 
Q 55.375 50.25 60.0625 53.125 
Q 64.75 56 71.09375 56 
Q 79.640625 56 84.28125 50.015625 
Q 88.921875 44.046875 88.921875 33.015625 
L 88.921875 0 
L 79.890625 0 
L 79.890625 32.71875 
Q 79.890625 40.578125 77.09375 44.375 
Q 74.3125 48.1875 68.609375 48.1875 
Q 61.625 48.1875 57.5625 43.546875 
Q 53.515625 38.921875 53.515625 30.90625 
L 53.515625 0 
L 44.484375 0 
L 44.484375 32.71875 
Q 44.484375 40.625 41.703125 44.40625 
Q 38.921875 48.1875 33.109375 48.1875 
Q 26.21875 48.1875 22.15625 43.53125 
Q 18.109375 38.875 18.109375 30.90625 
L 18.109375 0 
L 9.078125 0 
L 9.078125 54.6875 
L 18.109375 54.6875 
L 18.109375 46.1875 
Q 21.1875 51.21875 25.484375 53.609375 
Q 29.78125 56 35.6875 56 
Q 41.65625 56 45.828125 52.96875 
Q 50 49.953125 52 44.1875 
z
" id="DejaVuSans-109"/>
      <path d="M 48.6875 27.296875 
Q 48.6875 37.203125 44.609375 42.84375 
Q 40.53125 48.484375 33.40625 48.484375 
Q 26.265625 48.484375 22.1875 42.84375 
Q 18.109375 37.203125 18.109375 27.296875 
Q 18.109375 17.390625 22.1875 11.75 
Q 26.265625 6.109375 33.40625 6.109375 
Q 40.53125 6.109375 44.609375 11.75 
Q 48.6875 17.390625 48.6875 27.296875 
z
M 18.109375 46.390625 
Q 20.953125 51.265625 25.265625 53.625 
Q 29.59375 56 35.59375 56 
Q 45.5625 56 51.78125 48.09375 
Q 58.015625 40.1875 58.015625 27.296875 
Q 58.015625 14.40625 51.78125 6.484375 
Q 45.5625 -1.421875 35.59375 -1.421875 
Q 29.59375 -1.421875 25.265625 0.953125 
Q 20.953125 3.328125 18.109375 8.203125 
L 18.109375 0 
L 9.078125 0 
L 9.078125 75.984375 
L 18.109375 75.984375 
z
" id="DejaVuSans-98"/>
      <path d="M 56.203125 29.59375 
L 56.203125 25.203125 
L 14.890625 25.203125 
Q 15.484375 15.921875 20.484375 11.0625 
Q 25.484375 6.203125 34.421875 6.203125 
Q 39.59375 6.203125 44.453125 7.46875 
Q 49.3125 8.734375 54.109375 11.28125 
L 54.109375 2.78125 
Q 49.265625 0.734375 44.1875 -0.34375 
Q 39.109375 -1.421875 33.890625 -1.421875 
Q 20.796875 -1.421875 13.15625 6.1875 
Q 5.515625 13.8125 5.515625 26.8125 
Q 5.515625 40.234375 12.765625 48.109375 
Q 20.015625 56 32.328125 56 
Q 43.359375 56 49.78125 48.890625 
Q 56.203125 41.796875 56.203125 29.59375 
z
M 47.21875 32.234375 
Q 47.125 39.59375 43.09375 43.984375 
Q 39.0625 48.390625 32.421875 48.390625 
Q 24.90625 48.390625 20.390625 44.140625 
Q 15.875 39.890625 15.1875 32.171875 
z
" id="DejaVuSans-101"/>
      <path d="M 41.109375 46.296875 
Q 39.59375 47.171875 37.8125 47.578125 
Q 36.03125 48 33.890625 48 
Q 26.265625 48 22.1875 43.046875 
Q 18.109375 38.09375 18.109375 28.8125 
L 18.109375 0 
L 9.078125 0 
L 9.078125 54.6875 
L 18.109375 54.6875 
L 18.109375 46.1875 
Q 20.953125 51.171875 25.484375 53.578125 
Q 30.03125 56 36.53125 56 
Q 37.453125 56 38.578125 55.875 
Q 39.703125 55.765625 41.0625 55.515625 
z
" id="DejaVuSans-114"/>
      <path id="DejaVuSans-32"/>
      <path d="M 30.609375 48.390625 
Q 23.390625 48.390625 19.1875 42.75 
Q 14.984375 37.109375 14.984375 27.296875 
Q 14.984375 17.484375 19.15625 11.84375 
Q 23.34375 6.203125 30.609375 6.203125 
Q 37.796875 6.203125 41.984375 11.859375 
Q 46.1875 17.53125 46.1875 27.296875 
Q 46.1875 37.015625 41.984375 42.703125 
Q 37.796875 48.390625 30.609375 48.390625 
z
M 30.609375 56 
Q 42.328125 56 49.015625 48.375 
Q 55.71875 40.765625 55.71875 27.296875 
Q 55.71875 13.875 49.015625 6.21875 
Q 42.328125 -1.421875 30.609375 -1.421875 
Q 18.84375 -1.421875 12.171875 6.21875 
Q 5.515625 13.875 5.515625 27.296875 
Q 5.515625 40.765625 12.171875 48.375 
Q 18.84375 56 30.609375 56 
z
" id="DejaVuSans-111"/>
      <path d="M 37.109375 75.984375 
L 37.109375 68.5 
L 28.515625 68.5 
Q 23.6875 68.5 21.796875 66.546875 
Q 19.921875 64.59375 19.921875 59.515625 
L 19.921875 54.6875 
L 34.71875 54.6875 
L 34.71875 47.703125 
L 19.921875 47.703125 
L 19.921875 0 
L 10.890625 0 
L 10.890625 47.703125 
L 2.296875 47.703125 
L 2.296875 54.6875 
L 10.890625 54.6875 
L 10.890625 58.5 
Q 10.890625 67.625 15.140625 71.796875 
Q 19.390625 75.984375 28.609375 75.984375 
z
" id="DejaVuSans-102"/>
      <path d="M 54.890625 33.015625 
L 54.890625 0 
L 45.90625 0 
L 45.90625 32.71875 
Q 45.90625 40.484375 42.875 44.328125 
Q 39.84375 48.1875 33.796875 48.1875 
Q 26.515625 48.1875 22.3125 43.546875 
Q 18.109375 38.921875 18.109375 30.90625 
L 18.109375 0 
L 9.078125 0 
L 9.078125 54.6875 
L 18.109375 54.6875 
L 18.109375 46.1875 
Q 21.34375 51.125 25.703125 53.5625 
Q 30.078125 56 35.796875 56 
Q 45.21875 56 50.046875 50.171875 
Q 54.890625 44.34375 54.890625 33.015625 
z
" id="DejaVuSans-110"/>
      <path d="M 44.28125 53.078125 
L 44.28125 44.578125 
Q 40.484375 46.53125 36.375 47.5 
Q 32.28125 48.484375 27.875 48.484375 
Q 21.1875 48.484375 17.84375 46.4375 
Q 14.5 44.390625 14.5 40.28125 
Q 14.5 37.15625 16.890625 35.375 
Q 19.28125 33.59375 26.515625 31.984375 
L 29.59375 31.296875 
Q 39.15625 29.25 43.1875 25.515625 
Q 47.21875 21.78125 47.21875 15.09375 
Q 47.21875 7.46875 41.1875 3.015625 
Q 35.15625 -1.421875 24.609375 -1.421875 
Q 20.21875 -1.421875 15.453125 -0.5625 
Q 10.6875 0.296875 5.421875 2 
L 5.421875 11.28125 
Q 10.40625 8.6875 15.234375 7.390625 
Q 20.0625 6.109375 24.8125 6.109375 
Q 31.15625 6.109375 34.5625 8.28125 
Q 37.984375 10.453125 37.984375 14.40625 
Q 37.984375 18.0625 35.515625 20.015625 
Q 33.0625 21.96875 24.703125 23.78125 
L 21.578125 24.515625 
Q 13.234375 26.265625 9.515625 29.90625 
Q 5.8125 33.546875 5.8125 39.890625 
Q 5.8125 47.609375 11.28125 51.796875 
Q 16.75 56 26.8125 56 
Q 31.78125 56 36.171875 55.265625 
Q 40.578125 54.546875 44.28125 53.078125 
z
" id="DejaVuSans-115"/>
      <path d="M 18.109375 8.203125 
L 18.109375 -20.796875 
L 9.078125 -20.796875 
L 9.078125 54.6875 
L 18.109375 54.6875 
L 18.109375 46.390625 
Q 20.953125 51.265625 25.265625 53.625 
Q 29.59375 56 35.59375 56 
Q 45.5625 56 51.78125 48.09375 
Q 58.015625 40.1875 58.015625 27.296875 
Q 58.015625 14.40625 51.78125 6.484375 
Q 45.5625 -1.421875 35.59375 -1.421875 
Q 29.59375 -1.421875 25.265625 0.953125 
Q 20.953125 3.328125 18.109375 8.203125 
z
M 48.6875 27.296875 
Q 48.6875 37.203125 44.609375 42.84375 
Q 40.53125 48.484375 33.40625 48.484375 
Q 26.265625 48.484375 22.1875 42.84375 
Q 18.109375 37.203125 18.109375 27.296875 
Q 18.109375 17.390625 22.1875 11.75 
Q 26.265625 6.109375 33.40625 6.109375 
Q 40.53125 6.109375 44.609375 11.75 
Q 48.6875 17.390625 48.6875 27.296875 
z
" id="DejaVuSans-112"/>
      <path d="M 45.40625 46.390625 
L 45.40625 75.984375 
L 54.390625 75.984375 
L 54.390625 0 
L 45.40625 0 
L 45.40625 8.203125 
Q 42.578125 3.328125 38.25 0.953125 
Q 33.9375 -1.421875 27.875 -1.421875 
Q 17.96875 -1.421875 11.734375 6.484375 
Q 5.515625 14.40625 5.515625 27.296875 
Q 5.515625 40.1875 11.734375 48.09375 
Q 17.96875 56 27.875 56 
Q 33.9375 56 38.25 53.625 
Q 42.578125 51.265625 45.40625 46.390625 
z
M 14.796875 27.296875 
Q 14.796875 17.390625 18.875 11.75 
Q 22.953125 6.109375 30.078125 6.109375 
Q 37.203125 6.109375 41.296875 11.75 
Q 45.40625 17.390625 45.40625 27.296875 
Q 45.40625 37.203125 41.296875 42.84375 
Q 37.203125 48.484375 30.078125 48.484375 
Q 22.953125 48.484375 18.875 42.84375 
Q 14.796875 37.203125 14.796875 27.296875 
z
" id="DejaVuSans-100"/>
     </defs>
     <g transform="translate(522.147656 532.276562)scale(0.1 -0.1)">
      <use xlink:href="#DejaVuSans-78"/>
      <use x="74.804688" xlink:href="#DejaVuSans-117"/>
      <use x="138.183594" xlink:href="#DejaVuSans-109"/>
      <use x="235.595703" xlink:href="#DejaVuSans-98"/>
      <use x="299.072266" xlink:href="#DejaVuSans-101"/>
      <use x="360.595703" xlink:href="#DejaVuSans-114"/>
      <use x="401.708984" xlink:href="#DejaVuSans-32"/>
      <use x="433.496094" xlink:href="#DejaVuSans-111"/>
      <use x="494.677734" xlink:href="#DejaVuSans-102"/>
      <use x="529.882812" xlink:href="#DejaVuSans-32"/>
      <use x="561.669922" xlink:href="#DejaVuSans-78"/>
      <use x="636.474609" xlink:href="#DejaVuSans-101"/>
      <use x="697.998047" xlink:href="#DejaVuSans-117"/>
      <use x="761.376953" xlink:href="#DejaVuSans-114"/>
      <use x="800.240234" xlink:href="#DejaVuSans-111"/>
      <use x="861.421875" xlink:href="#DejaVuSans-110"/>
      <use x="924.800781" xlink:href="#DejaVuSans-115"/>
      <use x="976.900391" xlink:href="#DejaVuSans-32"/>
      <use x="1008.6875" xlink:href="#DejaVuSans-112"/>
      <use x="1072.164062" xlink:href="#DejaVuSans-114"/>
      <use x="1113.277344" xlink:href="#DejaVuSans-117"/>
      <use x="1176.65625" xlink:href="#DejaVuSans-110"/>
      <use x="1240.035156" xlink:href="#DejaVuSans-101"/>
      <use x="1301.558594" xlink:href="#DejaVuSans-100"/>
     </g>
    </g>
   </g>
   <g id="matplotlib.axis_2">
    <g id="ytick_1">
     <g id="line2d_10">
      <defs>
       <path d="M 0 0 
L -3.5 0 
" id="m8ab0c29abd" style="stroke:#000000;stroke-width:0.8;"/>
      </defs>
      <g>
       <use style="stroke:#000000;stroke-width:0.8;" x="144" xlink:href="#m8ab0c29abd" y="490.169822"/>
      </g>
     </g>
     <g id="text_11">
      <!-- 0.0 -->
      <defs>
       <path d="M 10.6875 12.40625 
L 21 12.40625 
L 21 0 
L 10.6875 0 
z
" id="DejaVuSans-46"/>
      </defs>
      <g transform="translate(121.096875 493.96904)scale(0.1 -0.1)">
       <use xlink:href="#DejaVuSans-48"/>
       <use x="63.623047" xlink:href="#DejaVuSans-46"/>
       <use x="95.410156" xlink:href="#DejaVuSans-48"/>
      </g>
     </g>
    </g>
    <g id="ytick_2">
     <g id="line2d_11">
      <g>
       <use style="stroke:#000000;stroke-width:0.8;" x="144" xlink:href="#m8ab0c29abd" y="417.482209"/>
      </g>
     </g>
     <g id="text_12">
      <!-- 0.5 -->
      <g transform="translate(121.096875 421.281428)scale(0.1 -0.1)">
       <use xlink:href="#DejaVuSans-48"/>
       <use x="63.623047" xlink:href="#DejaVuSans-46"/>
       <use x="95.410156" xlink:href="#DejaVuSans-53"/>
      </g>
     </g>
    </g>
    <g id="ytick_3">
     <g id="line2d_12">
      <g>
       <use style="stroke:#000000;stroke-width:0.8;" x="144" xlink:href="#m8ab0c29abd" y="344.794597"/>
      </g>
     </g>
     <g id="text_13">
      <!-- 1.0 -->
      <g transform="translate(121.096875 348.593816)scale(0.1 -0.1)">
       <use xlink:href="#DejaVuSans-49"/>
       <use x="63.623047" xlink:href="#DejaVuSans-46"/>
       <use x="95.410156" xlink:href="#DejaVuSans-48"/>
      </g>
     </g>
    </g>
    <g id="ytick_4">
     <g id="line2d_13">
      <g>
       <use style="stroke:#000000;stroke-width:0.8;" x="144" xlink:href="#m8ab0c29abd" y="272.106984"/>
      </g>
     </g>
     <g id="text_14">
      <!-- 1.5 -->
      <g transform="translate(121.096875 275.906203)scale(0.1 -0.1)">
       <use xlink:href="#DejaVuSans-49"/>
       <use x="63.623047" xlink:href="#DejaVuSans-46"/>
       <use x="95.410156" xlink:href="#DejaVuSans-53"/>
      </g>
     </g>
    </g>
    <g id="ytick_5">
     <g id="line2d_14">
      <g>
       <use style="stroke:#000000;stroke-width:0.8;" x="144" xlink:href="#m8ab0c29abd" y="199.419372"/>
      </g>
     </g>
     <g id="text_15">
      <!-- 2.0 -->
      <g transform="translate(121.096875 203.218591)scale(0.1 -0.1)">
       <use xlink:href="#DejaVuSans-50"/>
       <use x="63.623047" xlink:href="#DejaVuSans-46"/>
       <use x="95.410156" xlink:href="#DejaVuSans-48"/>
      </g>
     </g>
    </g>
    <g id="ytick_6">
     <g id="line2d_15">
      <g>
       <use style="stroke:#000000;stroke-width:0.8;" x="144" xlink:href="#m8ab0c29abd" y="126.73176"/>
      </g>
     </g>
     <g id="text_16">
      <!-- 2.5 -->
      <g transform="translate(121.096875 130.530978)scale(0.1 -0.1)">
       <use xlink:href="#DejaVuSans-50"/>
       <use x="63.623047" xlink:href="#DejaVuSans-46"/>
       <use x="95.410156" xlink:href="#DejaVuSans-53"/>
      </g>
     </g>
    </g>
    <g id="text_17">
     <!-- Loss -->
     <defs>
      <path d="M 9.8125 72.90625 
L 19.671875 72.90625 
L 19.671875 8.296875 
L 55.171875 8.296875 
L 55.171875 0 
L 9.8125 0 
z
" id="DejaVuSans-76"/>
     </defs>
     <g transform="translate(115.017187 297.527188)rotate(-90)scale(0.1 -0.1)">
      <use xlink:href="#DejaVuSans-76"/>
      <use x="53.962891" xlink:href="#DejaVuSans-111"/>
      <use x="115.144531" xlink:href="#DejaVuSans-115"/>
      <use x="167.244141" xlink:href="#DejaVuSans-115"/>
     </g>
    </g>
   </g>
   <g id="line2d_16">
    <path clip-path="url(#pd6e02aadde)" d="M 184.581818 484.232727 
L 300.52987 484.139541 
L 302.564046 484.100364 
L 304.598223 483.856956 
L 306.632399 483.731005 
L 308.666576 483.254197 
L 310.700752 483.156576 
L 312.734928 482.173669 
L 314.769105 482.270306 
L 316.803281 466.232232 
L 318.837457 466.737657 
L 320.871634 465.918242 
L 322.90581 464.811924 
L 324.939986 464.64747 
L 326.974163 463.584645 
L 329.008339 460.416364 
L 331.042515 457.678888 
L 333.076692 456.108501 
L 335.110868 456.413604 
L 337.145044 457.571086 
L 339.179221 454.609993 
L 341.213397 453.638487 
L 343.247573 459.821527 
L 345.28175 461.732673 
L 347.315926 460.517076 
L 349.350103 461.095829 
L 351.384279 461.398477 
L 353.418455 460.735738 
L 355.452632 460.49529 
L 357.486808 464.373776 
L 359.520984 464.735806 
L 361.555161 464.54631 
L 363.589337 463.628711 
L 365.623513 464.094006 
L 369.691866 462.358765 
L 371.726042 462.930651 
L 373.760219 461.322541 
L 375.794395 461.896273 
L 377.828571 461.710191 
L 379.862748 464.058261 
L 381.896924 463.732945 
L 383.9311 462.008871 
L 385.965277 461.391233 
L 387.999453 460.51299 
L 390.03363 460.063119 
L 392.067806 460.391632 
L 394.101982 457.782674 
L 396.136159 453.506245 
L 398.170335 458.222905 
L 400.204511 456.136962 
L 402.238688 454.336061 
L 404.272864 449.31053 
L 406.30704 449.538195 
L 408.341217 448.132019 
L 410.375393 442.795036 
L 412.409569 440.072818 
L 414.443746 436.951061 
L 416.477922 433.528665 
L 418.512098 409.616503 
L 420.546275 416.732086 
L 422.580451 420.513231 
L 424.614627 418.959715 
L 426.648804 418.115186 
L 428.68298 415.311097 
L 430.717157 416.937204 
L 432.751333 417.671202 
L 434.785509 418.819732 
L 436.819686 416.371048 
L 440.888038 410.61806 
L 442.922215 413.687503 
L 444.956391 413.552155 
L 446.990567 409.037549 
L 449.024744 410.528854 
L 451.05892 407.986575 
L 453.093096 395.813157 
L 455.127273 399.654386 
L 457.161449 399.014785 
L 459.195625 399.533067 
L 461.229802 400.543783 
L 463.263978 397.733312 
L 465.298154 399.970539 
L 467.332331 386.385604 
L 469.366507 382.084764 
L 471.400684 382.904503 
L 473.43486 382.488303 
L 475.469036 388.840236 
L 477.503213 383.36355 
L 479.537389 391.111455 
L 481.571565 386.302974 
L 483.605742 386.363309 
L 485.639918 387.161177 
L 487.674094 384.858295 
L 489.708271 369.776865 
L 491.742447 371.113794 
L 493.776623 370.432601 
L 495.8108 373.234042 
L 497.844976 381.697497 
L 499.879152 379.647427 
L 501.913329 380.479747 
L 503.947505 381.567955 
L 505.981681 387.647008 
L 510.050034 380.383098 
L 512.084211 374.18912 
L 514.118387 375.585673 
L 516.152563 373.149385 
L 518.18674 374.250408 
L 520.220916 376.929014 
L 522.255092 374.382844 
L 524.289269 373.089761 
L 526.323445 377.284419 
L 528.357621 376.38238 
L 530.391798 373.155996 
L 532.425974 374.945327 
L 534.46015 372.844982 
L 536.494327 373.243028 
L 538.528503 370.107159 
L 540.562679 371.110458 
L 542.596856 360.136178 
L 544.631032 362.464803 
L 546.665208 347.66957 
L 548.699385 344.652767 
L 550.733561 340.038028 
L 552.767738 338.100785 
L 554.801914 325.867484 
L 556.83609 323.023705 
L 558.870267 327.110691 
L 560.904443 320.234498 
L 562.938619 319.072204 
L 564.972796 321.982566 
L 567.006972 317.951971 
L 569.041148 311.687391 
L 571.075325 309.033272 
L 573.109501 306.704664 
L 575.143677 302.997951 
L 577.177854 308.396998 
L 579.21203 310.474892 
L 581.246206 307.883144 
L 583.280383 307.258568 
L 585.314559 307.009223 
L 587.348735 304.971344 
L 589.382912 303.188807 
L 591.417088 300.002291 
L 593.451265 294.725491 
L 595.485441 293.856561 
L 597.519617 296.774374 
L 599.553794 291.814506 
L 601.58797 293.598637 
L 603.622146 287.150999 
L 605.656323 288.877941 
L 607.690499 284.263826 
L 609.724675 278.4626 
L 611.758852 271.006195 
L 613.793028 269.692783 
L 615.827204 264.055812 
L 617.861381 265.231207 
L 619.895557 260.441278 
L 621.929733 259.109808 
L 623.96391 261.017416 
L 625.998086 262.073268 
L 628.032262 258.812372 
L 630.066439 258.388807 
L 632.100615 257.12541 
L 634.134792 248.078538 
L 636.168968 247.25581 
L 640.237321 252.117538 
L 642.271497 252.988235 
L 644.305673 255.888181 
L 646.33985 252.697055 
L 648.374026 252.354422 
L 650.408202 249.016649 
L 652.442379 248.292131 
L 654.476555 248.331262 
L 656.510731 243.50617 
L 658.544908 247.242448 
L 660.579084 245.381111 
L 662.61326 245.951669 
L 664.647437 241.782919 
L 666.681613 240.603885 
L 668.715789 240.714 
L 670.749966 240.315252 
L 672.784142 223.985658 
L 674.818319 222.674204 
L 676.852495 224.141663 
L 680.920848 228.567696 
L 682.955024 221.922945 
L 684.9892 223.865647 
L 687.023377 217.514676 
L 689.057553 224.077906 
L 691.091729 226.359826 
L 693.125906 229.413577 
L 695.160082 223.919561 
L 697.194258 213.206471 
L 699.228435 218.26642 
L 701.262611 217.424127 
L 703.296787 214.036044 
L 705.330964 222.165237 
L 707.36514 219.679203 
L 709.399316 215.557851 
L 711.433493 213.223784 
L 713.467669 207.452556 
L 715.501846 204.111872 
L 717.536022 194.963497 
L 719.570198 191.742044 
L 721.604375 193.995716 
L 723.638551 183.099326 
L 725.672727 179.673829 
L 727.706904 182.564243 
L 729.74108 184.80062 
L 731.775256 178.585118 
L 733.809433 167.164598 
L 735.843609 166.213488 
L 737.877785 171.027125 
L 739.911962 164.043728 
L 741.946138 162.035727 
L 743.980314 163.864119 
L 746.014491 153.476713 
L 748.048667 161.350911 
L 750.082843 160.706059 
L 752.11702 157.810203 
L 754.151196 159.19141 
L 756.185373 161.355382 
L 758.219549 160.524786 
L 760.253725 155.786397 
L 762.287902 156.881623 
L 764.322078 155.98798 
L 766.356254 156.197743 
L 768.390431 164.089375 
L 770.424607 165.391765 
L 772.458783 164.384333 
L 774.49296 165.605411 
L 776.527136 163.089811 
L 778.561312 158.566973 
L 780.595489 160.141653 
L 782.629665 151.209073 
L 784.663841 148.933599 
L 786.698018 150.860461 
L 788.732194 155.784872 
L 790.76637 156.260444 
L 792.800547 152.183751 
L 794.834723 156.917773 
L 796.8689 158.497271 
L 798.903076 157.243302 
L 800.937252 150.494935 
L 802.971429 142.85906 
L 805.005605 135.966473 
L 807.039781 131.481934 
L 809.073958 138.150721 
L 811.108134 138.15741 
L 813.14231 139.879465 
L 817.210663 129.42066 
L 819.244839 132.172572 
L 821.279016 128.684201 
L 823.313192 131.903991 
L 825.347368 131.542658 
L 827.381545 134.041413 
L 829.415721 141.275542 
L 831.449897 137.181554 
L 833.484074 135.276943 
L 835.51825 128.894068 
L 837.552427 132.418936 
L 839.586603 145.319273 
L 841.620779 139.602704 
L 843.654956 141.187852 
L 845.689132 138.633779 
L 847.723308 137.911843 
L 849.757485 139.339148 
L 851.791661 134.175652 
L 853.825837 129.887081 
L 855.860014 134.194334 
L 857.89419 133.798792 
L 859.928366 133.134218 
L 861.962543 132.239016 
L 863.996719 133.915181 
L 866.030895 131.977782 
L 868.065072 132.224424 
L 870.099248 135.84537 
L 872.133424 134.50118 
L 874.167601 133.964502 
L 876.201777 133.581126 
L 878.235954 135.153033 
L 880.27013 136.406657 
L 882.304306 141.849861 
L 884.338483 143.517118 
L 886.372659 144.0182 
L 888.406835 143.347526 
L 890.441012 144.867616 
L 892.475188 144.132128 
L 894.509364 143.902227 
L 896.543541 142.870949 
L 898.577717 143.867151 
L 900.611893 145.789542 
L 902.64607 152.543523 
L 904.680246 148.375605 
L 906.714422 149.801697 
L 908.748599 152.82538 
L 910.782775 149.777643 
L 912.816951 150.069897 
L 914.851128 147.028157 
L 916.885304 145.251027 
L 918.919481 147.140837 
L 920.953657 149.906163 
L 922.987833 146.909515 
L 925.02201 149.232473 
L 927.056186 147.203572 
L 929.090362 147.621504 
L 931.124539 143.27363 
L 933.158715 141.96722 
L 935.192891 144.060035 
L 937.227068 143.521554 
L 939.261244 144.870042 
L 941.29542 141.133019 
L 943.329597 141.497332 
L 945.363773 142.505527 
L 947.397949 143.174502 
L 949.432126 142.141699 
L 951.466302 141.59847 
L 953.500478 143.312172 
L 955.534655 143.746568 
L 957.568831 145.338821 
L 959.603008 145.906242 
L 961.637184 148.535007 
L 963.67136 150.74733 
L 965.705537 151.60101 
L 967.739713 151.313088 
L 969.773889 151.398213 
L 973.842242 150.048131 
L 975.876418 153.570192 
L 977.910595 152.886659 
L 979.944771 153.16595 
L 981.978947 149.957044 
L 984.013124 149.422966 
L 986.0473 151.730777 
L 988.081476 152.019704 
L 990.115653 153.543365 
L 992.149829 154.382556 
L 996.218182 154.229705 
L 996.218182 154.229705 
" style="fill:none;stroke:#1f77b4;stroke-linecap:square;stroke-width:1.5;"/>
   </g>
   <g id="line2d_17">
    <path clip-path="url(#pd6e02aadde)" d="M 184.581818 484.232727 
L 302.564046 484.146438 
L 306.632399 483.940653 
L 326.974163 483.566409 
L 329.008339 483.266391 
L 333.076692 483.054819 
L 335.110868 482.832667 
L 337.145044 482.909902 
L 339.179221 482.539792 
L 345.28175 482.40525 
L 347.315926 482.557153 
L 349.350103 482.331155 
L 351.384279 482.250869 
L 353.418455 481.922053 
L 357.486808 481.950136 
L 359.520984 481.650414 
L 361.555161 481.583923 
L 363.589337 481.153815 
L 365.623513 481.198368 
L 367.65769 480.976907 
L 369.691866 481.028034 
L 371.726042 480.855103 
L 373.760219 479.836163 
L 375.794395 479.366862 
L 377.828571 479.164469 
L 381.896924 478.517426 
L 383.9311 478.39556 
L 385.965277 477.921706 
L 387.999453 477.694779 
L 390.03363 477.034556 
L 392.067806 477.188549 
L 394.101982 476.287577 
L 398.170335 475.804317 
L 400.204511 475.136368 
L 402.238688 474.906489 
L 404.272864 474.27837 
L 408.341217 474.699029 
L 410.375393 474.510185 
L 412.409569 473.958728 
L 416.477922 473.299623 
L 418.512098 472.705194 
L 422.580451 472.510307 
L 424.614627 471.299917 
L 426.648804 470.388175 
L 428.68298 470.264116 
L 430.717157 470.539261 
L 432.751333 469.673325 
L 434.785509 468.413825 
L 440.888038 467.195912 
L 442.922215 465.829563 
L 444.956391 463.142968 
L 446.990567 463.047061 
L 451.05892 459.620316 
L 453.093096 460.609933 
L 455.127273 457.853055 
L 457.161449 457.301014 
L 459.195625 457.737838 
L 461.229802 456.945388 
L 463.263978 456.022371 
L 465.298154 454.045423 
L 467.332331 454.054707 
L 469.366507 452.927317 
L 471.400684 452.855423 
L 473.43486 454.107952 
L 475.469036 453.575371 
L 477.503213 450.790509 
L 479.537389 449.01584 
L 481.571565 449.075512 
L 483.605742 445.08433 
L 485.639918 444.846427 
L 487.674094 442.426018 
L 489.708271 440.309214 
L 491.742447 433.265703 
L 493.776623 433.670668 
L 495.8108 425.412981 
L 497.844976 422.407482 
L 499.879152 415.561361 
L 501.913329 418.428865 
L 503.947505 414.042951 
L 505.981681 411.011245 
L 508.015858 409.597977 
L 510.050034 410.316664 
L 512.084211 409.764979 
L 514.118387 404.636887 
L 516.152563 403.059374 
L 518.18674 401.134557 
L 520.220916 393.538151 
L 522.255092 393.153198 
L 524.289269 391.55929 
L 526.323445 392.220104 
L 528.357621 394.824286 
L 530.391798 388.199188 
L 532.425974 383.919031 
L 534.46015 379.916017 
L 536.494327 371.738032 
L 538.528503 376.036827 
L 540.562679 370.757011 
L 542.596856 371.509899 
L 544.631032 372.834904 
L 546.665208 362.198128 
L 548.699385 357.033479 
L 550.733561 362.215518 
L 552.767738 354.347403 
L 554.801914 353.499807 
L 556.83609 353.143258 
L 558.870267 359.382441 
L 560.904443 355.896539 
L 562.938619 346.729795 
L 564.972796 338.515321 
L 567.006972 342.751017 
L 569.041148 344.047982 
L 571.075325 348.776225 
L 573.109501 342.763997 
L 575.143677 342.884978 
L 577.177854 337.975662 
L 579.21203 333.951029 
L 581.246206 337.153887 
L 583.280383 320.454954 
L 585.314559 324.844593 
L 587.348735 319.01654 
L 589.382912 316.794859 
L 591.417088 315.741918 
L 593.451265 307.12679 
L 595.485441 309.67627 
L 597.519617 313.550824 
L 599.553794 312.93013 
L 601.58797 309.46441 
L 603.622146 309.099455 
L 605.656323 287.232884 
L 607.690499 283.674499 
L 609.724675 288.903035 
L 611.758852 286.454018 
L 613.793028 293.186649 
L 615.827204 277.211056 
L 617.861381 275.852187 
L 619.895557 267.069148 
L 621.929733 271.449863 
L 623.96391 261.965718 
L 625.998086 253.196993 
L 628.032262 254.788293 
L 630.066439 238.168853 
L 632.100615 234.009929 
L 634.134792 233.667643 
L 636.168968 239.940091 
L 638.203144 226.576158 
L 640.237321 232.194551 
L 642.271497 219.834168 
L 644.305673 213.728176 
L 646.33985 219.581964 
L 648.374026 216.31287 
L 650.408202 219.476909 
L 652.442379 225.520219 
L 654.476555 230.88776 
L 656.510731 233.763149 
L 658.544908 242.224975 
L 660.579084 244.198229 
L 662.61326 234.186418 
L 664.647437 227.843524 
L 666.681613 220.35927 
L 668.715789 194.855115 
L 670.749966 189.374617 
L 672.784142 196.088011 
L 676.852495 194.940171 
L 678.886671 191.835973 
L 680.920848 180.170855 
L 682.955024 178.760464 
L 684.9892 184.287546 
L 687.023377 182.288764 
L 689.057553 188.70928 
L 691.091729 191.544412 
L 693.125906 197.538435 
L 695.160082 198.867028 
L 697.194258 191.179163 
L 699.228435 186.812226 
L 701.262611 180.386511 
L 703.296787 189.161491 
L 705.330964 171.312933 
L 707.36514 167.156938 
L 709.399316 154.047012 
L 711.433493 143.658219 
L 713.467669 147.065694 
L 715.501846 142.884813 
L 717.536022 143.532715 
L 719.570198 141.569598 
L 721.604375 149.174972 
L 723.638551 149.210776 
L 725.672727 151.842903 
L 727.706904 153.97828 
L 729.74108 155.781752 
L 731.775256 152.458017 
L 733.809433 149.997839 
L 735.843609 145.073913 
L 737.877785 155.256755 
L 739.911962 151.732198 
L 741.946138 132.836834 
L 743.980314 121.23407 
L 746.014491 126.825827 
L 748.048667 108.525231 
L 750.082843 118.448433 
L 752.11702 120.412139 
L 758.219549 106.473177 
L 760.253725 105.530559 
L 762.287902 100.745898 
L 764.322078 104.337383 
L 766.356254 102.10572 
L 768.390431 95.586977 
L 770.424607 97.912985 
L 772.458783 92.843972 
L 774.49296 88.887273 
L 776.527136 97.131433 
L 778.561312 97.701905 
L 780.595489 98.133389 
L 782.629665 91.052666 
L 784.663841 91.931717 
L 786.698018 95.954305 
L 788.732194 95.658515 
L 790.76637 93.422173 
L 792.800547 92.886743 
L 794.834723 95.667943 
L 796.8689 102.335586 
L 798.903076 106.615318 
L 800.937252 115.132878 
L 802.971429 115.437922 
L 805.005605 121.324394 
L 807.039781 122.385862 
L 809.073958 123.204777 
L 811.108134 120.502394 
L 813.14231 120.345661 
L 815.176487 126.904922 
L 817.210663 129.911136 
L 819.244839 125.033932 
L 821.279016 129.073538 
L 823.313192 128.253514 
L 825.347368 129.693851 
L 827.381545 128.978985 
L 829.415721 125.15961 
L 831.449897 127.737701 
L 833.484074 127.809794 
L 837.552427 130.148003 
L 839.586603 134.831734 
L 841.620779 134.069869 
L 843.654956 135.582958 
L 845.689132 141.358102 
L 847.723308 149.586458 
L 849.757485 148.553065 
L 851.791661 149.458839 
L 853.825837 153.210974 
L 855.860014 153.157909 
L 857.89419 153.849449 
L 859.928366 150.752633 
L 861.962543 157.233805 
L 863.996719 159.866902 
L 866.030895 159.82278 
L 868.065072 159.895739 
L 870.099248 159.806385 
L 872.133424 157.044422 
L 874.167601 157.217861 
L 876.201777 159.10781 
L 878.235954 159.796265 
L 880.27013 160.281091 
L 882.304306 163.229908 
L 884.338483 163.511279 
L 886.372659 164.495384 
L 888.406835 164.641165 
L 890.441012 160.596013 
L 892.475188 161.203606 
L 894.509364 160.035628 
L 896.543541 160.217004 
L 898.577717 161.459224 
L 900.611893 159.895254 
L 902.64607 160.613516 
L 904.680246 160.224283 
L 906.714422 158.614353 
L 908.748599 158.888411 
L 910.782775 158.569261 
L 912.816951 159.823785 
L 914.851128 159.804583 
L 916.885304 160.800161 
L 918.919481 160.089455 
L 920.953657 160.490646 
L 922.987833 160.577331 
L 925.02201 159.973482 
L 927.056186 162.491508 
L 929.090362 162.175511 
L 931.124539 162.66921 
L 935.192891 164.017352 
L 937.227068 164.762198 
L 939.261244 163.00219 
L 941.29542 163.109048 
L 943.329597 162.842442 
L 945.363773 159.778969 
L 947.397949 159.942253 
L 949.432126 160.457719 
L 953.500478 160.293569 
L 955.534655 160.877627 
L 957.568831 160.307675 
L 959.603008 159.920799 
L 963.67136 159.532501 
L 965.705537 159.732005 
L 969.773889 159.081538 
L 971.808066 157.991753 
L 977.910595 158.678648 
L 979.944771 157.761228 
L 981.978947 158.269727 
L 984.013124 158.059618 
L 986.0473 158.594008 
L 988.081476 158.411834 
L 990.115653 158.029325 
L 992.149829 158.088316 
L 994.184005 157.339865 
L 996.218182 157.30517 
L 996.218182 157.30517 
" style="fill:none;stroke:#ff7f0e;stroke-linecap:square;stroke-width:1.5;"/>
   </g>
   <g id="line2d_18">
    <path clip-path="url(#pd6e02aadde)" d="M 184.581818 484.232727 
L 302.564046 484.136112 
L 312.734928 484.0156 
L 320.871634 483.935217 
L 345.28175 483.405187 
L 349.350103 483.168088 
L 353.418455 483.125034 
L 361.555161 482.317597 
L 365.623513 481.816854 
L 367.65769 481.698299 
L 369.691866 481.387527 
L 371.726042 481.369513 
L 373.760219 481.124002 
L 375.794395 481.121734 
L 377.828571 481.243174 
L 383.9311 481.097443 
L 387.999453 480.709039 
L 394.101982 479.247505 
L 396.136159 478.584052 
L 398.170335 478.42738 
L 400.204511 478.134353 
L 402.238688 477.680202 
L 406.30704 477.039295 
L 408.341217 476.391382 
L 410.375393 476.459686 
L 412.409569 476.643117 
L 416.477922 475.188641 
L 418.512098 475.04921 
L 422.580451 473.174095 
L 426.648804 470.448688 
L 428.68298 471.133267 
L 430.717157 471.247342 
L 432.751333 470.84111 
L 434.785509 471.394945 
L 436.819686 470.964208 
L 438.853862 469.79459 
L 440.888038 469.570848 
L 442.922215 468.494474 
L 444.956391 468.24582 
L 446.990567 467.471019 
L 449.024744 466.926822 
L 451.05892 467.922996 
L 453.093096 466.964097 
L 455.127273 467.644618 
L 457.161449 466.089727 
L 459.195625 463.149718 
L 461.229802 462.345713 
L 463.263978 461.669684 
L 465.298154 461.11893 
L 467.332331 458.179885 
L 469.366507 458.558071 
L 471.400684 459.237618 
L 473.43486 459.255204 
L 475.469036 459.115309 
L 477.503213 457.007517 
L 479.537389 454.011553 
L 481.571565 450.076883 
L 483.605742 452.618451 
L 485.639918 449.964497 
L 487.674094 450.290368 
L 489.708271 448.790259 
L 491.742447 448.575466 
L 493.776623 446.015948 
L 495.8108 444.582001 
L 497.844976 447.755705 
L 499.879152 447.049947 
L 501.913329 447.457459 
L 503.947505 446.181497 
L 505.981681 442.028955 
L 508.015858 441.985448 
L 510.050034 443.996235 
L 512.084211 439.898894 
L 514.118387 436.652013 
L 516.152563 430.021296 
L 518.18674 429.339478 
L 520.220916 425.984423 
L 522.255092 421.18449 
L 524.289269 417.814617 
L 526.323445 418.563168 
L 528.357621 414.929099 
L 530.391798 413.641405 
L 532.425974 411.990888 
L 534.46015 410.870516 
L 536.494327 409.28549 
L 538.528503 408.99905 
L 540.562679 407.124247 
L 542.596856 406.293391 
L 544.631032 397.289749 
L 546.665208 390.09833 
L 548.699385 380.076069 
L 550.733561 372.687729 
L 552.767738 373.098755 
L 554.801914 369.412266 
L 556.83609 368.809318 
L 558.870267 363.967702 
L 560.904443 364.3486 
L 562.938619 369.691939 
L 564.972796 367.305787 
L 567.006972 366.094718 
L 569.041148 350.32751 
L 571.075325 350.920805 
L 573.109501 354.660281 
L 575.143677 355.08686 
L 577.177854 348.272258 
L 579.21203 341.965063 
L 581.246206 337.615647 
L 583.280383 352.732197 
L 585.314559 354.547306 
L 587.348735 346.503568 
L 589.382912 339.159116 
L 591.417088 335.891148 
L 593.451265 345.077008 
L 595.485441 345.089018 
L 597.519617 332.825076 
L 599.553794 327.945862 
L 603.622146 341.624129 
L 605.656323 336.726163 
L 607.690499 336.517527 
L 609.724675 336.731952 
L 611.758852 331.312993 
L 613.793028 328.270212 
L 615.827204 324.866602 
L 617.861381 320.147813 
L 619.895557 309.774167 
L 621.929733 313.352742 
L 623.96391 308.86621 
L 625.998086 316.744082 
L 628.032262 297.19345 
L 630.066439 299.980663 
L 634.134792 286.332864 
L 636.168968 273.341908 
L 638.203144 281.636291 
L 640.237321 283.239653 
L 642.271497 276.587867 
L 644.305673 290.278697 
L 646.33985 295.607973 
L 648.374026 293.25746 
L 650.408202 297.386732 
L 652.442379 292.476376 
L 654.476555 294.180928 
L 656.510731 294.05473 
L 658.544908 290.391914 
L 660.579084 283.301781 
L 662.61326 281.250559 
L 664.647437 281.041332 
L 666.681613 280.084314 
L 668.715789 286.116463 
L 670.749966 284.309005 
L 672.784142 277.526723 
L 674.818319 272.932693 
L 676.852495 274.705214 
L 678.886671 273.811346 
L 680.920848 265.160743 
L 682.955024 255.756438 
L 684.9892 255.142035 
L 687.023377 255.203903 
L 689.057553 252.20937 
L 691.091729 257.477904 
L 693.125906 256.278524 
L 695.160082 252.773845 
L 697.194258 252.654094 
L 699.228435 253.725665 
L 701.262611 256.789657 
L 703.296787 242.394706 
L 705.330964 239.923367 
L 709.399316 226.619639 
L 711.433493 226.60931 
L 713.467669 234.56671 
L 715.501846 234.456924 
L 717.536022 233.251981 
L 719.570198 236.263151 
L 721.604375 235.791062 
L 723.638551 234.064276 
L 725.672727 234.873261 
L 727.706904 233.616658 
L 729.74108 225.715667 
L 731.775256 209.042019 
L 733.809433 207.759038 
L 735.843609 209.284345 
L 737.877785 208.757303 
L 739.911962 195.737562 
L 741.946138 196.97694 
L 743.980314 184.725165 
L 746.014491 182.41413 
L 748.048667 181.990687 
L 750.082843 178.151485 
L 752.11702 176.628622 
L 754.151196 176.417888 
L 756.185373 170.735668 
L 758.219549 177.265884 
L 760.253725 177.621289 
L 762.287902 177.529058 
L 764.322078 176.956854 
L 766.356254 177.62122 
L 768.390431 178.414244 
L 770.424607 189.295072 
L 772.458783 193.309896 
L 774.49296 195.080163 
L 776.527136 201.198963 
L 778.561312 196.622055 
L 780.595489 202.616546 
L 782.629665 211.047126 
L 784.663841 207.924107 
L 786.698018 197.773396 
L 788.732194 193.458796 
L 790.76637 207.513333 
L 792.800547 206.713203 
L 794.834723 209.727406 
L 796.8689 208.089939 
L 798.903076 214.088035 
L 800.937252 213.988872 
L 802.971429 214.774271 
L 805.005605 209.049124 
L 807.039781 205.41544 
L 809.073958 205.325324 
L 811.108134 205.057539 
L 813.14231 201.842238 
L 815.176487 201.122399 
L 817.210663 201.09143 
L 819.244839 201.268925 
L 821.279016 204.598136 
L 823.313192 203.539685 
L 825.347368 204.528158 
L 827.381545 203.851678 
L 829.415721 207.089387 
L 831.449897 206.746962 
L 833.484074 204.790535 
L 835.51825 204.513722 
L 839.586603 201.802327 
L 841.620779 201.111775 
L 843.654956 200.610936 
L 845.689132 200.600278 
L 847.723308 200.344244 
L 849.757485 200.810873 
L 851.791661 200.016861 
L 853.825837 199.481119 
L 855.860014 197.580755 
L 857.89419 200.871996 
L 859.928366 200.875584 
L 861.962543 201.723111 
L 863.996719 200.713062 
L 866.030895 200.589655 
L 870.099248 196.979193 
L 872.133424 196.7878 
L 874.167601 194.037794 
L 876.201777 194.753457 
L 878.235954 194.530523 
L 880.27013 197.182267 
L 882.304306 197.873564 
L 884.338483 197.979659 
L 886.372659 197.920112 
L 888.406835 195.471511 
L 890.441012 195.046127 
L 892.475188 195.672471 
L 894.509364 192.957367 
L 896.543541 194.161877 
L 898.577717 193.310104 
L 900.611893 192.221013 
L 902.64607 191.801278 
L 904.680246 189.723818 
L 906.714422 189.372398 
L 908.748599 186.646031 
L 910.782775 184.350073 
L 912.816951 183.273286 
L 914.851128 182.726279 
L 916.885304 182.556964 
L 918.919481 181.541352 
L 920.953657 181.863657 
L 925.02201 180.573676 
L 927.056186 178.880007 
L 929.090362 178.617456 
L 931.124539 177.335967 
L 933.158715 175.733662 
L 935.192891 173.777963 
L 937.227068 173.730236 
L 939.261244 174.505376 
L 941.29542 173.976566 
L 943.329597 172.330936 
L 945.363773 172.698369 
L 947.397949 171.768055 
L 949.432126 171.773913 
L 951.466302 171.09596 
L 953.500478 171.097035 
L 957.568831 169.662312 
L 959.603008 170.236076 
L 961.637184 169.525266 
L 963.67136 169.051531 
L 965.705537 170.269524 
L 967.739713 168.449588 
L 969.773889 167.689491 
L 971.808066 167.080165 
L 973.842242 166.648335 
L 975.876418 166.555272 
L 979.944771 165.025754 
L 981.978947 164.957647 
L 984.013124 164.544117 
L 988.081476 163.112652 
L 990.115653 163.075566 
L 992.149829 162.430887 
L 994.184005 162.407006 
L 996.218182 162.615903 
L 996.218182 162.615903 
" style="fill:none;stroke:#2ca02c;stroke-linecap:square;stroke-width:1.5;"/>
   </g>
   <g id="line2d_19">
    <path clip-path="url(#pd6e02aadde)" d="M 184.581818 484.232727 
L 302.564046 484.146438 
L 329.008339 483.502893 
L 331.042515 483.200723 
L 335.110868 482.832667 
L 337.145044 482.909902 
L 341.213397 482.763191 
L 343.247573 482.396626 
L 345.28175 482.547956 
L 347.315926 482.557153 
L 349.350103 482.331155 
L 351.384279 482.250869 
L 355.452632 482.268495 
L 359.520984 481.650414 
L 369.691866 481.321032 
L 371.726042 481.06619 
L 375.794395 480.085284 
L 377.828571 479.735587 
L 379.862748 479.562664 
L 381.896924 479.275667 
L 383.9311 478.319845 
L 385.965277 477.748069 
L 387.999453 477.323589 
L 390.03363 477.408427 
L 392.067806 476.624776 
L 394.101982 476.445762 
L 396.136159 476.03113 
L 398.170335 475.762683 
L 400.204511 474.930534 
L 402.238688 474.324121 
L 408.341217 474.009062 
L 412.409569 474.173611 
L 414.443746 473.404483 
L 416.477922 472.771624 
L 418.512098 472.267932 
L 420.546275 472.115449 
L 422.580451 470.71908 
L 424.614627 470.405031 
L 428.68298 470.264116 
L 430.717157 470.539261 
L 432.751333 470.02891 
L 434.785509 469.145412 
L 436.819686 468.766106 
L 440.888038 466.345484 
L 442.922215 466.340872 
L 444.956391 465.705357 
L 446.990567 466.362026 
L 449.024744 463.932403 
L 451.05892 464.294771 
L 453.093096 461.420504 
L 455.127273 460.384373 
L 457.161449 458.494498 
L 459.195625 457.934732 
L 461.229802 456.743328 
L 463.263978 455.360005 
L 465.298154 454.675802 
L 467.332331 452.816395 
L 469.366507 453.961335 
L 471.400684 454.075573 
L 473.43486 450.945401 
L 475.469036 447.139773 
L 477.503213 446.73684 
L 481.571565 446.863601 
L 485.639918 443.167086 
L 487.674094 440.341105 
L 489.708271 440.309214 
L 491.742447 440.42224 
L 493.776623 433.670668 
L 495.8108 425.412981 
L 497.844976 422.407482 
L 499.879152 424.963777 
L 501.913329 423.162333 
L 503.947505 420.324372 
L 505.981681 413.823804 
L 508.015858 414.326541 
L 510.050034 408.975827 
L 512.084211 404.742817 
L 514.118387 402.551403 
L 516.152563 402.613003 
L 518.18674 401.134557 
L 520.220916 393.538151 
L 522.255092 391.931826 
L 524.289269 392.552469 
L 526.323445 392.220104 
L 528.357621 385.633825 
L 530.391798 386.423028 
L 532.425974 376.74528 
L 534.46015 379.929006 
L 536.494327 377.55716 
L 538.528503 377.992959 
L 540.562679 372.320903 
L 542.596856 377.970482 
L 544.631032 372.834904 
L 546.665208 362.198128 
L 548.699385 359.973006 
L 550.733561 364.89357 
L 552.767738 370.993029 
L 554.801914 369.836914 
L 556.83609 363.988654 
L 558.870267 359.382441 
L 560.904443 363.022519 
L 562.938619 354.125032 
L 564.972796 350.558537 
L 567.006972 342.751017 
L 569.041148 346.944367 
L 571.075325 348.776225 
L 573.109501 342.763997 
L 575.143677 340.279661 
L 577.177854 335.211913 
L 579.21203 339.093053 
L 581.246206 342.087327 
L 583.280383 333.998617 
L 585.314559 333.633871 
L 587.348735 340.323524 
L 589.382912 341.285499 
L 591.417088 334.987281 
L 593.451265 334.16308 
L 595.485441 330.349024 
L 597.519617 313.031563 
L 599.553794 311.48475 
L 601.58797 308.764413 
L 603.622146 306.465284 
L 605.656323 303.766887 
L 607.690499 309.645873 
L 609.724675 308.32844 
L 611.758852 286.454018 
L 613.793028 289.37703 
L 615.827204 296.991572 
L 617.861381 287.223907 
L 619.895557 278.310944 
L 621.929733 277.440662 
L 623.96391 261.254647 
L 625.998086 253.196993 
L 628.032262 254.788293 
L 630.066439 253.705129 
L 632.100615 257.882908 
L 634.134792 253.977193 
L 636.168968 258.58481 
L 638.203144 246.288843 
L 640.237321 249.679872 
L 642.271497 238.407003 
L 644.305673 241.766456 
L 646.33985 235.912269 
L 648.374026 241.518636 
L 650.408202 227.668039 
L 652.442379 225.520219 
L 654.476555 218.263665 
L 656.510731 221.251353 
L 658.544908 211.477709 
L 660.579084 219.942169 
L 662.61326 225.088457 
L 664.647437 201.210401 
L 666.681613 203.444716 
L 668.715789 194.855115 
L 670.749966 200.842085 
L 672.784142 200.053532 
L 674.818319 199.452472 
L 676.852495 194.940171 
L 678.886671 192.74757 
L 680.920848 198.051197 
L 682.955024 195.153747 
L 684.9892 196.754214 
L 687.023377 196.601051 
L 689.057553 202.632871 
L 691.091729 203.998984 
L 693.125906 192.917266 
L 695.160082 198.867028 
L 697.194258 191.179163 
L 699.228435 186.812226 
L 701.262611 186.365145 
L 703.296787 180.511634 
L 705.330964 189.875768 
L 707.36514 187.830923 
L 709.399316 194.257227 
L 711.433493 190.358306 
L 713.467669 190.494244 
L 715.501846 193.458033 
L 717.536022 181.92809 
L 719.570198 180.409837 
L 721.604375 177.407401 
L 723.638551 156.745547 
L 725.672727 145.455175 
L 727.706904 147.933723 
L 729.74108 140.849707 
L 731.775256 129.221191 
L 733.809433 132.078955 
L 735.843609 133.578492 
L 737.877785 130.056292 
L 739.911962 127.263828 
L 741.946138 130.19781 
L 743.980314 140.620014 
L 746.014491 137.204707 
L 748.048667 145.357988 
L 750.082843 141.359558 
L 752.11702 135.151266 
L 754.151196 120.206743 
L 756.185373 116.224603 
L 758.219549 115.230446 
L 760.253725 111.72568 
L 762.287902 113.137978 
L 764.322078 109.757885 
L 766.356254 113.907364 
L 768.390431 108.306318 
L 770.424607 118.395299 
L 772.458783 111.37544 
L 774.49296 110.720016 
L 776.527136 94.078879 
L 778.561312 94.195163 
L 780.595489 98.133389 
L 784.663841 105.131829 
L 786.698018 105.09138 
L 788.732194 107.619735 
L 790.76637 115.849788 
L 792.800547 121.01831 
L 794.834723 121.846861 
L 796.8689 126.725659 
L 798.903076 125.112611 
L 802.971429 125.630884 
L 805.005605 126.081708 
L 807.039781 129.237412 
L 809.073958 133.84593 
L 811.108134 132.05348 
L 813.14231 130.773099 
L 815.176487 135.057683 
L 817.210663 136.882021 
L 819.244839 137.25992 
L 823.313192 139.791463 
L 825.347368 144.130915 
L 827.381545 137.801624 
L 829.415721 140.633844 
L 831.449897 136.638013 
L 833.484074 136.715513 
L 835.51825 136.297477 
L 837.552427 137.460117 
L 839.586603 138.838205 
L 841.620779 143.834501 
L 843.654956 144.809041 
L 845.689132 138.235638 
L 847.723308 142.028915 
L 849.757485 150.358998 
L 851.791661 147.054776 
L 853.825837 151.999844 
L 855.860014 150.57753 
L 857.89419 157.49743 
L 859.928366 157.467865 
L 861.962543 160.116732 
L 863.996719 160.088346 
L 866.030895 160.336201 
L 868.065072 159.895739 
L 870.099248 162.228264 
L 872.133424 162.037078 
L 874.167601 162.643042 
L 876.201777 162.815337 
L 878.235954 163.168594 
L 880.27013 164.174847 
L 882.304306 164.783792 
L 886.372659 165.453564 
L 888.406835 166.398296 
L 890.441012 161.959509 
L 892.475188 162.420316 
L 894.509364 163.352293 
L 896.543541 162.812946 
L 898.577717 163.30661 
L 900.611893 162.013024 
L 902.64607 161.803538 
L 904.680246 162.150556 
L 906.714422 160.628732 
L 912.816951 161.009994 
L 914.851128 161.932058 
L 916.885304 162.18525 
L 918.919481 161.676474 
L 920.953657 164.229472 
L 922.987833 163.744056 
L 925.02201 162.565264 
L 927.056186 162.491508 
L 929.090362 162.987321 
L 931.124539 160.818912 
L 933.158715 157.356224 
L 935.192891 157.66522 
L 937.227068 159.468692 
L 939.261244 159.972512 
L 941.29542 159.816437 
L 945.363773 159.919343 
L 947.397949 159.942253 
L 951.466302 159.259136 
L 953.500478 159.940486 
L 955.534655 160.465864 
L 957.568831 159.824825 
L 961.637184 159.954766 
L 963.67136 159.633709 
L 965.705537 158.587422 
L 967.739713 158.242519 
L 969.773889 158.605931 
L 971.808066 157.72993 
L 973.842242 157.55812 
L 975.876418 157.855573 
L 977.910595 157.685842 
L 979.944771 158.30924 
L 981.978947 158.00274 
L 984.013124 158.071367 
L 986.0473 157.336191 
L 988.081476 157.019952 
L 990.115653 157.091906 
L 992.149829 157.051666 
L 994.184005 157.420484 
L 996.218182 157.527272 
L 996.218182 157.527272 
" style="fill:none;stroke:#d62728;stroke-dasharray:5.55,2.4;stroke-dashoffset:0;stroke-width:1.5;"/>
   </g>
   <g id="line2d_20">
    <path clip-path="url(#pd6e02aadde)" d="M 184.581818 484.232727 
L 302.564046 484.136112 
L 310.700752 484.056431 
L 314.769105 484.032172 
L 337.145044 483.648572 
L 343.247573 483.484712 
L 349.350103 483.080182 
L 351.384279 483.050924 
L 353.418455 482.877727 
L 355.452632 482.935564 
L 361.555161 482.437414 
L 363.589337 482.177255 
L 367.65769 481.902343 
L 369.691866 481.522037 
L 371.726042 481.495293 
L 373.760219 481.124002 
L 375.794395 481.004426 
L 379.862748 481.073416 
L 381.896924 480.393843 
L 383.9311 480.284331 
L 385.965277 479.61377 
L 390.03363 479.087368 
L 392.067806 479.233898 
L 398.170335 478.456492 
L 400.204511 477.792865 
L 402.238688 477.000279 
L 404.272864 476.97289 
L 406.30704 477.060698 
L 408.341217 476.977924 
L 410.375393 476.266622 
L 412.409569 476.707019 
L 414.443746 476.290601 
L 416.477922 476.301884 
L 418.512098 475.926132 
L 422.580451 474.613881 
L 424.614627 474.546395 
L 430.717157 473.668085 
L 432.751333 472.861399 
L 434.785509 471.863047 
L 436.819686 470.50032 
L 438.853862 469.426687 
L 440.888038 469.261157 
L 442.922215 470.120738 
L 444.956391 469.106189 
L 446.990567 469.063897 
L 449.024744 469.592038 
L 451.05892 469.146971 
L 453.093096 467.214737 
L 455.127273 466.255907 
L 457.161449 463.344597 
L 459.195625 461.541936 
L 461.229802 460.831643 
L 463.263978 457.488554 
L 465.298154 455.602873 
L 467.332331 456.32235 
L 469.366507 456.491061 
L 471.400684 457.619426 
L 473.43486 456.519764 
L 475.469036 456.166977 
L 477.503213 457.882244 
L 479.537389 454.722444 
L 481.571565 454.983688 
L 483.605742 454.317631 
L 485.639918 451.314012 
L 487.674094 451.715303 
L 489.708271 447.363994 
L 491.742447 449.64172 
L 495.8108 448.95629 
L 497.844976 450.432717 
L 499.879152 447.781696 
L 501.913329 446.735185 
L 503.947505 442.504727 
L 505.981681 441.18985 
L 508.015858 440.788057 
L 512.084211 431.330795 
L 514.118387 432.408969 
L 516.152563 431.490635 
L 518.18674 428.564798 
L 520.220916 428.186491 
L 522.255092 425.069724 
L 524.289269 425.11623 
L 526.323445 424.164488 
L 528.357621 424.434196 
L 530.391798 417.064667 
L 532.425974 410.788372 
L 534.46015 406.669853 
L 536.494327 405.970099 
L 538.528503 397.125183 
L 540.562679 395.344639 
L 542.596856 394.383045 
L 544.631032 393.908642 
L 546.665208 398.647543 
L 548.699385 398.277971 
L 550.733561 397.389319 
L 552.767738 397.831721 
L 554.801914 393.415558 
L 556.83609 392.925628 
L 558.870267 391.704335 
L 560.904443 390.972745 
L 562.938619 389.539565 
L 564.972796 389.070995 
L 567.006972 382.784925 
L 569.041148 372.301736 
L 571.075325 366.774299 
L 573.109501 365.628131 
L 575.143677 350.270858 
L 577.177854 343.337172 
L 579.21203 349.514599 
L 581.246206 350.706579 
L 583.280383 343.624141 
L 585.314559 347.09208 
L 587.348735 355.942403 
L 589.382912 354.546665 
L 593.451265 345.472965 
L 595.485441 338.657982 
L 597.519617 324.511613 
L 599.553794 329.810769 
L 601.58797 325.469932 
L 603.622146 316.854734 
L 605.656323 310.924677 
L 607.690499 329.222257 
L 609.724675 326.130935 
L 611.758852 328.292915 
L 613.793028 331.507731 
L 615.827204 331.728498 
L 617.861381 326.976054 
L 619.895557 322.924906 
L 621.929733 330.358383 
L 623.96391 332.885732 
L 625.998086 328.665719 
L 628.032262 321.861602 
L 630.066439 323.434531 
L 632.100615 316.239101 
L 634.134792 298.865317 
L 636.168968 287.850597 
L 638.203144 287.37636 
L 640.237321 273.454589 
L 642.271497 273.214272 
L 644.305673 268.47136 
L 646.33985 278.234189 
L 648.374026 274.488137 
L 650.408202 275.98173 
L 652.442379 271.39094 
L 654.476555 271.322088 
L 656.510731 260.322064 
L 658.544908 252.134694 
L 660.579084 256.935282 
L 662.61326 254.660068 
L 664.647437 248.791047 
L 666.681613 259.081854 
L 668.715789 248.113908 
L 670.749966 260.648181 
L 672.784142 266.9978 
L 674.818319 268.868097 
L 676.852495 258.965136 
L 678.886671 262.76356 
L 680.920848 263.623218 
L 684.9892 257.275246 
L 687.023377 255.875998 
L 689.057553 264.079918 
L 691.091729 264.211921 
L 693.125906 263.110058 
L 695.160082 261.663724 
L 697.194258 263.347653 
L 699.228435 262.587694 
L 701.262611 263.293444 
L 703.296787 254.575566 
L 705.330964 259.683555 
L 707.36514 257.118547 
L 709.399316 246.911357 
L 711.433493 254.175034 
L 713.467669 253.610506 
L 715.501846 251.75449 
L 717.536022 247.060222 
L 719.570198 244.864727 
L 721.604375 242.890484 
L 723.638551 228.024311 
L 725.672727 224.296143 
L 729.74108 225.933749 
L 731.775256 226.059097 
L 733.809433 225.233354 
L 735.843609 227.105817 
L 737.877785 229.441149 
L 739.911962 224.576215 
L 741.946138 224.485457 
L 743.980314 226.01527 
L 746.014491 209.871696 
L 748.048667 206.150894 
L 750.082843 208.619685 
L 752.11702 208.508426 
L 754.151196 208.169571 
L 756.185373 194.031902 
L 758.219549 188.744044 
L 760.253725 189.8766 
L 762.287902 199.84869 
L 764.322078 200.817493 
L 766.356254 190.678185 
L 768.390431 191.511692 
L 770.424607 192.064834 
L 772.458783 199.614422 
L 774.49296 198.30744 
L 776.527136 204.67652 
L 778.561312 204.565157 
L 780.595489 213.831515 
L 782.629665 210.068895 
L 784.663841 212.438593 
L 786.698018 209.245716 
L 788.732194 208.058242 
L 790.76637 207.319114 
L 792.800547 206.302827 
L 794.834723 204.753986 
L 796.8689 207.327987 
L 798.903076 208.348746 
L 800.937252 204.40397 
L 802.971429 204.669224 
L 805.005605 201.657205 
L 807.039781 200.838497 
L 809.073958 190.780155 
L 811.108134 189.35746 
L 813.14231 201.907087 
L 815.176487 196.038829 
L 817.210663 195.246809 
L 819.244839 195.25336 
L 821.279016 197.105287 
L 823.313192 198.570961 
L 825.347368 199.32423 
L 827.381545 205.016069 
L 829.415721 203.954064 
L 831.449897 206.202867 
L 833.484074 206.160322 
L 835.51825 204.525645 
L 837.552427 205.181345 
L 839.586603 207.256102 
L 841.620779 204.819528 
L 843.654956 204.023072 
L 845.689132 201.02483 
L 847.723308 200.425955 
L 849.757485 199.022756 
L 853.825837 198.668633 
L 855.860014 198.061075 
L 857.89419 196.198057 
L 859.928366 199.60158 
L 861.962543 197.70463 
L 863.996719 200.475138 
L 866.030895 200.331714 
L 868.065072 198.897321 
L 870.099248 200.94149 
L 872.133424 201.394932 
L 874.167601 202.75919 
L 876.201777 203.002816 
L 878.235954 203.130279 
L 880.27013 202.322611 
L 882.304306 200.51673 
L 884.338483 199.470929 
L 888.406835 198.776946 
L 890.441012 198.858744 
L 892.475188 197.646678 
L 894.509364 197.57968 
L 896.543541 197.63628 
L 898.577717 197.232455 
L 900.611893 195.08051 
L 902.64607 194.606324 
L 904.680246 193.387604 
L 906.714422 190.459687 
L 908.748599 187.921732 
L 910.782775 186.994365 
L 912.816951 185.869366 
L 914.851128 185.797654 
L 916.885304 186.189626 
L 918.919481 184.448577 
L 920.953657 182.135115 
L 922.987833 181.592615 
L 925.02201 182.128287 
L 927.056186 182.077753 
L 929.090362 182.617065 
L 931.124539 181.606825 
L 933.158715 180.790648 
L 935.192891 178.87304 
L 937.227068 177.332258 
L 939.261244 176.952383 
L 941.29542 175.7808 
L 943.329597 175.695952 
L 945.363773 173.928527 
L 947.397949 172.916866 
L 949.432126 171.544289 
L 951.466302 171.607683 
L 953.500478 170.845714 
L 955.534655 170.356243 
L 959.603008 168.680182 
L 961.637184 168.550692 
L 963.67136 167.781548 
L 965.705537 165.743947 
L 969.773889 165.211533 
L 971.808066 163.963732 
L 973.842242 165.51779 
L 975.876418 164.970159 
L 977.910595 164.118247 
L 979.944771 163.517968 
L 981.978947 163.440884 
L 984.013124 163.039485 
L 986.0473 163.337181 
L 988.081476 163.359329 
L 990.115653 162.14397 
L 992.149829 162.16799 
L 996.218182 162.041653 
L 996.218182 162.041653 
" style="fill:none;stroke:#9467bd;stroke-dasharray:5.55,2.4;stroke-dashoffset:0;stroke-width:1.5;"/>
   </g>
   <g id="line2d_21">
    <path clip-path="url(#pd6e02aadde)" d="M 184.581818 484.232727 
L 298.495694 484.195926 
L 310.700752 483.545364 
L 312.734928 483.273635 
L 314.769105 482.690966 
L 316.803281 482.547349 
L 318.837457 481.892157 
L 320.871634 481.994716 
L 322.90581 481.336679 
L 324.939986 481.038504 
L 326.974163 479.548004 
L 329.008339 478.349007 
L 331.042515 478.418062 
L 333.076692 477.869447 
L 335.110868 477.97324 
L 337.145044 476.368547 
L 339.179221 476.435223 
L 341.213397 475.965462 
L 343.247573 474.533681 
L 345.28175 471.784663 
L 347.315926 471.577876 
L 349.350103 470.256161 
L 351.384279 471.473591 
L 353.418455 470.734924 
L 355.452632 469.511425 
L 357.486808 465.309195 
L 361.555161 465.616685 
L 363.589337 466.368852 
L 365.623513 465.860244 
L 367.65769 463.680001 
L 369.691866 460.962704 
L 371.726042 453.341215 
L 375.794395 449.788233 
L 377.828571 449.448256 
L 379.862748 450.762244 
L 381.896924 446.768281 
L 383.9311 447.310084 
L 385.965277 446.158266 
L 387.999453 444.585753 
L 390.03363 441.350262 
L 392.067806 437.110632 
L 394.101982 431.933999 
L 396.136159 432.500394 
L 398.170335 426.870718 
L 400.204511 425.432469 
L 402.238688 421.243196 
L 404.272864 424.455884 
L 406.30704 425.894666 
L 408.341217 426.424256 
L 410.375393 426.556888 
L 412.409569 428.298851 
L 414.443746 424.556901 
L 416.477922 415.420528 
L 418.512098 417.148189 
L 420.546275 409.369307 
L 422.580451 407.035561 
L 424.614627 405.87669 
L 426.648804 399.633313 
L 428.68298 403.520544 
L 430.717157 409.940558 
L 432.751333 407.20089 
L 434.785509 400.951482 
L 436.819686 398.15647 
L 438.853862 398.354804 
L 440.888038 397.326671 
L 442.922215 392.834273 
L 444.956391 397.000016 
L 446.990567 396.824861 
L 449.024744 397.794011 
L 451.05892 392.851074 
L 453.093096 392.648243 
L 455.127273 392.213856 
L 457.161449 386.263037 
L 459.195625 388.564211 
L 461.229802 389.336188 
L 463.263978 389.651344 
L 465.298154 390.594135 
L 467.332331 361.503885 
L 469.366507 344.734063 
L 471.400684 343.134531 
L 473.43486 331.871056 
L 475.469036 334.667905 
L 477.503213 332.139568 
L 479.537389 328.797705 
L 481.571565 311.618659 
L 483.605742 302.182796 
L 485.639918 304.975088 
L 487.674094 304.760576 
L 489.708271 300.112667 
L 491.742447 301.493718 
L 493.776623 305.916492 
L 495.8108 288.227752 
L 497.844976 288.895306 
L 499.879152 294.976274 
L 501.913329 286.728163 
L 503.947505 289.402592 
L 505.981681 286.242262 
L 508.015858 283.989231 
L 510.050034 280.349568 
L 512.084211 267.076964 
L 514.118387 267.568896 
L 516.152563 257.170191 
L 518.18674 256.924416 
L 520.220916 253.29477 
L 522.255092 258.156099 
L 524.289269 257.527433 
L 526.323445 253.925047 
L 530.391798 243.370146 
L 532.425974 239.295135 
L 534.46015 231.892644 
L 536.494327 219.506647 
L 538.528503 222.409955 
L 540.562679 219.321787 
L 542.596856 205.0404 
L 544.631032 205.821917 
L 546.665208 190.762305 
L 550.733561 191.8689 
L 552.767738 189.457073 
L 554.801914 192.482627 
L 556.83609 188.301122 
L 558.870267 187.019182 
L 560.904443 186.300885 
L 562.938619 181.702557 
L 564.972796 181.735068 
L 567.006972 179.72166 
L 569.041148 186.080446 
L 571.075325 188.700546 
L 573.109501 187.209258 
L 575.143677 191.058996 
L 577.177854 198.216318 
L 579.21203 193.141621 
L 581.246206 196.718064 
L 583.280383 182.771511 
L 585.314559 185.977055 
L 587.348735 162.344237 
L 589.382912 159.264335 
L 591.417088 166.185725 
L 593.451265 162.014272 
L 595.485441 150.194119 
L 597.519617 150.648271 
L 599.553794 151.22259 
L 601.58797 157.532298 
L 603.622146 156.953612 
L 605.656323 160.732089 
L 607.690499 157.330472 
L 609.724675 160.367603 
L 611.758852 164.505956 
L 613.793028 163.834935 
L 615.827204 163.636332 
L 617.861381 158.941511 
L 619.895557 161.327585 
L 621.929733 157.400173 
L 623.96391 171.630073 
L 625.998086 170.087246 
L 628.032262 171.250163 
L 630.066439 168.276911 
L 632.100615 160.212464 
L 634.134792 162.506793 
L 636.168968 159.192069 
L 638.203144 158.681421 
L 640.237321 162.416191 
L 642.271497 149.167312 
L 644.305673 147.940204 
L 646.33985 147.653495 
L 648.374026 146.659546 
L 650.408202 144.553179 
L 652.442379 143.450709 
L 654.476555 144.327715 
L 656.510731 144.05033 
L 658.544908 145.384954 
L 660.579084 145.278651 
L 662.61326 143.983713 
L 664.647437 153.342509 
L 666.681613 153.097427 
L 668.715789 154.645592 
L 670.749966 142.474367 
L 672.784142 150.638775 
L 674.818319 150.884376 
L 676.852495 146.535948 
L 678.886671 145.990744 
L 680.920848 147.76926 
L 682.955024 150.859768 
L 684.9892 144.455542 
L 687.023377 147.058381 
L 689.057553 148.701133 
L 691.091729 146.112158 
L 693.125906 147.63055 
L 695.160082 148.490192 
L 697.194258 147.530071 
L 699.228435 133.627987 
L 701.262611 134.52208 
L 703.296787 133.987204 
L 705.330964 133.214699 
L 707.36514 134.382919 
L 709.399316 135.005589 
L 711.433493 135.152721 
L 713.467669 134.288713 
L 715.501846 115.976679 
L 717.536022 115.508906 
L 719.570198 113.129347 
L 721.604375 105.060741 
L 723.638551 107.232442 
L 725.672727 107.242008 
L 729.74108 107.971743 
L 731.775256 112.074258 
L 733.809433 111.287853 
L 737.877785 110.348979 
L 739.911962 110.78386 
L 741.946138 109.82412 
L 743.980314 116.725962 
L 746.014491 116.138369 
L 750.082843 114.545423 
L 752.11702 120.415258 
L 754.151196 119.471358 
L 756.185373 119.148083 
L 758.219549 116.980056 
L 760.253725 119.446438 
L 762.287902 117.636034 
L 764.322078 117.784067 
L 766.356254 118.087586 
L 768.390431 119.946203 
L 770.424607 118.286189 
L 772.458783 118.82557 
L 774.49296 120.079609 
L 776.527136 125.928892 
L 778.561312 129.341981 
L 780.595489 127.114685 
L 782.629665 127.356994 
L 784.663841 126.864543 
L 786.698018 117.440481 
L 788.732194 117.298721 
L 790.76637 117.628547 
L 792.800547 115.06685 
L 794.834723 115.367943 
L 796.8689 115.059433 
L 798.903076 114.111373 
L 805.005605 113.180124 
L 807.039781 113.667134 
L 809.073958 113.397444 
L 811.108134 112.869431 
L 813.14231 112.702334 
L 815.176487 112.732627 
L 817.210663 113.033651 
L 819.244839 113.608663 
L 821.279016 112.615129 
L 823.313192 112.714569 
L 825.347368 115.276891 
L 827.381545 115.524121 
L 829.415721 114.878333 
L 831.449897 114.954308 
L 833.484074 117.351925 
L 835.51825 124.889468 
L 837.552427 126.172691 
L 839.586603 127.788063 
L 841.620779 126.577765 
L 843.654956 129.898901 
L 845.689132 129.046053 
L 847.723308 129.880877 
L 849.757485 128.593114 
L 851.791661 128.507157 
L 853.825837 128.534608 
L 855.860014 129.751387 
L 857.89419 128.782982 
L 859.928366 129.165596 
L 861.962543 130.98314 
L 863.996719 133.956357 
L 866.030895 131.578289 
L 868.065072 132.932045 
L 872.133424 132.860749 
L 874.167601 132.464549 
L 876.201777 132.24113 
L 878.235954 135.319749 
L 880.27013 136.290302 
L 882.304306 136.212802 
L 884.338483 141.038085 
L 888.406835 147.993754 
L 890.441012 147.923949 
L 892.475188 147.994205 
L 894.509364 144.303106 
L 896.543541 146.542048 
L 898.577717 147.166763 
L 900.611893 146.977484 
L 902.64607 146.964763 
L 904.680246 146.210801 
L 906.714422 147.181771 
L 908.748599 147.178062 
L 910.782775 147.741706 
L 914.851128 147.864853 
L 916.885304 147.741324 
L 922.987833 148.729139 
L 925.02201 149.267203 
L 927.056186 151.248135 
L 929.090362 152.417776 
L 931.124539 153.214059 
L 933.158715 151.973468 
L 935.192891 153.190212 
L 937.227068 152.927592 
L 939.261244 152.509071 
L 941.29542 152.457982 
L 945.363773 153.522811 
L 947.397949 152.553505 
L 949.432126 152.361384 
L 951.466302 152.361176 
L 953.500478 152.658803 
L 957.568831 152.446821 
L 961.637184 152.433339 
L 963.67136 151.233647 
L 967.739713 150.446411 
L 969.773889 150.734471 
L 971.808066 149.546286 
L 977.910595 149.357458 
L 979.944771 148.861263 
L 981.978947 149.758719 
L 984.013124 149.370837 
L 986.0473 148.176829 
L 988.081476 148.00235 
L 990.115653 148.978449 
L 992.149829 151.233127 
L 994.184005 150.996051 
L 996.218182 149.849216 
L 996.218182 149.849216 
" style="fill:none;stroke:#8c564b;stroke-dasharray:5.55,2.4;stroke-dashoffset:0;stroke-width:1.5;"/>
   </g>
   <g id="patch_3">
    <path d="M 144 504 
L 144 69.12 
" style="fill:none;stroke:#000000;stroke-linecap:square;stroke-linejoin:miter;stroke-width:0.8;"/>
   </g>
   <g id="patch_4">
    <path d="M 1036.8 504 
L 1036.8 69.12 
" style="fill:none;stroke:#000000;stroke-linecap:square;stroke-linejoin:miter;stroke-width:0.8;"/>
   </g>
   <g id="patch_5">
    <path d="M 144 504 
L 1036.8 504 
" style="fill:none;stroke:#000000;stroke-linecap:square;stroke-linejoin:miter;stroke-width:0.8;"/>
   </g>
   <g id="patch_6">
    <path d="M 144 69.12 
L 1036.8 69.12 
" style="fill:none;stroke:#000000;stroke-linecap:square;stroke-linejoin:miter;stroke-width:0.8;"/>
   </g>
   <g id="legend_1">
    <g id="patch_7">
     <path d="M 151 166.579375 
L 275.432813 166.579375 
Q 277.432813 166.579375 277.432813 164.579375 
L 277.432813 76.12 
Q 277.432813 74.12 275.432813 74.12 
L 151 74.12 
Q 149 74.12 149 76.12 
L 149 164.579375 
Q 149 166.579375 151 166.579375 
z
" style="fill:#ffffff;opacity:0.8;stroke:#cccccc;stroke-linejoin:miter;"/>
    </g>
    <g id="line2d_22">
     <path d="M 153 82.218438 
L 173 82.218438 
" style="fill:none;stroke:#1f77b4;stroke-linecap:square;stroke-width:1.5;"/>
    </g>
    <g id="line2d_23"/>
    <g id="text_18">
     <!-- taylorfo -->
     <defs>
      <path d="M 18.3125 70.21875 
L 18.3125 54.6875 
L 36.8125 54.6875 
L 36.8125 47.703125 
L 18.3125 47.703125 
L 18.3125 18.015625 
Q 18.3125 11.328125 20.140625 9.421875 
Q 21.96875 7.515625 27.59375 7.515625 
L 36.8125 7.515625 
L 36.8125 0 
L 27.59375 0 
Q 17.1875 0 13.234375 3.875 
Q 9.28125 7.765625 9.28125 18.015625 
L 9.28125 47.703125 
L 2.6875 47.703125 
L 2.6875 54.6875 
L 9.28125 54.6875 
L 9.28125 70.21875 
z
" id="DejaVuSans-116"/>
      <path d="M 34.28125 27.484375 
Q 23.390625 27.484375 19.1875 25 
Q 14.984375 22.515625 14.984375 16.5 
Q 14.984375 11.71875 18.140625 8.90625 
Q 21.296875 6.109375 26.703125 6.109375 
Q 34.1875 6.109375 38.703125 11.40625 
Q 43.21875 16.703125 43.21875 25.484375 
L 43.21875 27.484375 
z
M 52.203125 31.203125 
L 52.203125 0 
L 43.21875 0 
L 43.21875 8.296875 
Q 40.140625 3.328125 35.546875 0.953125 
Q 30.953125 -1.421875 24.3125 -1.421875 
Q 15.921875 -1.421875 10.953125 3.296875 
Q 6 8.015625 6 15.921875 
Q 6 25.140625 12.171875 29.828125 
Q 18.359375 34.515625 30.609375 34.515625 
L 43.21875 34.515625 
L 43.21875 35.40625 
Q 43.21875 41.609375 39.140625 45 
Q 35.0625 48.390625 27.6875 48.390625 
Q 23 48.390625 18.546875 47.265625 
Q 14.109375 46.140625 10.015625 43.890625 
L 10.015625 52.203125 
Q 14.9375 54.109375 19.578125 55.046875 
Q 24.21875 56 28.609375 56 
Q 40.484375 56 46.34375 49.84375 
Q 52.203125 43.703125 52.203125 31.203125 
z
" id="DejaVuSans-97"/>
      <path d="M 32.171875 -5.078125 
Q 28.375 -14.84375 24.75 -17.8125 
Q 21.140625 -20.796875 15.09375 -20.796875 
L 7.90625 -20.796875 
L 7.90625 -13.28125 
L 13.1875 -13.28125 
Q 16.890625 -13.28125 18.9375 -11.515625 
Q 21 -9.765625 23.484375 -3.21875 
L 25.09375 0.875 
L 2.984375 54.6875 
L 12.5 54.6875 
L 29.59375 11.921875 
L 46.6875 54.6875 
L 56.203125 54.6875 
z
" id="DejaVuSans-121"/>
      <path d="M 9.421875 75.984375 
L 18.40625 75.984375 
L 18.40625 0 
L 9.421875 0 
z
" id="DejaVuSans-108"/>
     </defs>
     <g transform="translate(181 85.718438)scale(0.1 -0.1)">
      <use xlink:href="#DejaVuSans-116"/>
      <use x="39.208984" xlink:href="#DejaVuSans-97"/>
      <use x="100.488281" xlink:href="#DejaVuSans-121"/>
      <use x="159.667969" xlink:href="#DejaVuSans-108"/>
      <use x="187.451172" xlink:href="#DejaVuSans-111"/>
      <use x="248.632812" xlink:href="#DejaVuSans-114"/>
      <use x="289.746094" xlink:href="#DejaVuSans-102"/>
      <use x="324.951172" xlink:href="#DejaVuSans-111"/>
     </g>
    </g>
    <g id="line2d_24">
     <path d="M 153 96.896563 
L 173 96.896563 
" style="fill:none;stroke:#ff7f0e;stroke-linecap:square;stroke-width:1.5;"/>
    </g>
    <g id="line2d_25"/>
    <g id="text_19">
     <!-- taylorfo_abs -->
     <defs>
      <path d="M 50.984375 -16.609375 
L 50.984375 -23.578125 
L -0.984375 -23.578125 
L -0.984375 -16.609375 
z
" id="DejaVuSans-95"/>
     </defs>
     <g transform="translate(181 100.396563)scale(0.1 -0.1)">
      <use xlink:href="#DejaVuSans-116"/>
      <use x="39.208984" xlink:href="#DejaVuSans-97"/>
      <use x="100.488281" xlink:href="#DejaVuSans-121"/>
      <use x="159.667969" xlink:href="#DejaVuSans-108"/>
      <use x="187.451172" xlink:href="#DejaVuSans-111"/>
      <use x="248.632812" xlink:href="#DejaVuSans-114"/>
      <use x="289.746094" xlink:href="#DejaVuSans-102"/>
      <use x="324.951172" xlink:href="#DejaVuSans-111"/>
      <use x="386.132812" xlink:href="#DejaVuSans-95"/>
      <use x="436.132812" xlink:href="#DejaVuSans-97"/>
      <use x="497.412109" xlink:href="#DejaVuSans-98"/>
      <use x="560.888672" xlink:href="#DejaVuSans-115"/>
     </g>
    </g>
    <g id="line2d_26">
     <path d="M 153 111.852813 
L 173 111.852813 
" style="fill:none;stroke:#2ca02c;stroke-linecap:square;stroke-width:1.5;"/>
    </g>
    <g id="line2d_27"/>
    <g id="text_20">
     <!-- taylorfo_sq -->
     <defs>
      <path d="M 14.796875 27.296875 
Q 14.796875 17.390625 18.875 11.75 
Q 22.953125 6.109375 30.078125 6.109375 
Q 37.203125 6.109375 41.296875 11.75 
Q 45.40625 17.390625 45.40625 27.296875 
Q 45.40625 37.203125 41.296875 42.84375 
Q 37.203125 48.484375 30.078125 48.484375 
Q 22.953125 48.484375 18.875 42.84375 
Q 14.796875 37.203125 14.796875 27.296875 
z
M 45.40625 8.203125 
Q 42.578125 3.328125 38.25 0.953125 
Q 33.9375 -1.421875 27.875 -1.421875 
Q 17.96875 -1.421875 11.734375 6.484375 
Q 5.515625 14.40625 5.515625 27.296875 
Q 5.515625 40.1875 11.734375 48.09375 
Q 17.96875 56 27.875 56 
Q 33.9375 56 38.25 53.625 
Q 42.578125 51.265625 45.40625 46.390625 
L 45.40625 54.6875 
L 54.390625 54.6875 
L 54.390625 -20.796875 
L 45.40625 -20.796875 
z
" id="DejaVuSans-113"/>
     </defs>
     <g transform="translate(181 115.352813)scale(0.1 -0.1)">
      <use xlink:href="#DejaVuSans-116"/>
      <use x="39.208984" xlink:href="#DejaVuSans-97"/>
      <use x="100.488281" xlink:href="#DejaVuSans-121"/>
      <use x="159.667969" xlink:href="#DejaVuSans-108"/>
      <use x="187.451172" xlink:href="#DejaVuSans-111"/>
      <use x="248.632812" xlink:href="#DejaVuSans-114"/>
      <use x="289.746094" xlink:href="#DejaVuSans-102"/>
      <use x="324.951172" xlink:href="#DejaVuSans-111"/>
      <use x="386.132812" xlink:href="#DejaVuSans-95"/>
      <use x="436.132812" xlink:href="#DejaVuSans-115"/>
      <use x="488.232422" xlink:href="#DejaVuSans-113"/>
     </g>
    </g>
    <g id="line2d_28">
     <path d="M 153 126.809063 
L 173 126.809063 
" style="fill:none;stroke:#d62728;stroke-dasharray:5.55,2.4;stroke-dashoffset:0;stroke-width:1.5;"/>
    </g>
    <g id="line2d_29"/>
    <g id="text_21">
     <!-- taylorfo_abs_norm -->
     <g transform="translate(181 130.309063)scale(0.1 -0.1)">
      <use xlink:href="#DejaVuSans-116"/>
      <use x="39.208984" xlink:href="#DejaVuSans-97"/>
      <use x="100.488281" xlink:href="#DejaVuSans-121"/>
      <use x="159.667969" xlink:href="#DejaVuSans-108"/>
      <use x="187.451172" xlink:href="#DejaVuSans-111"/>
      <use x="248.632812" xlink:href="#DejaVuSans-114"/>
      <use x="289.746094" xlink:href="#DejaVuSans-102"/>
      <use x="324.951172" xlink:href="#DejaVuSans-111"/>
      <use x="386.132812" xlink:href="#DejaVuSans-95"/>
      <use x="436.132812" xlink:href="#DejaVuSans-97"/>
      <use x="497.412109" xlink:href="#DejaVuSans-98"/>
      <use x="560.888672" xlink:href="#DejaVuSans-115"/>
      <use x="612.988281" xlink:href="#DejaVuSans-95"/>
      <use x="662.988281" xlink:href="#DejaVuSans-110"/>
      <use x="726.367188" xlink:href="#DejaVuSans-111"/>
      <use x="787.548828" xlink:href="#DejaVuSans-114"/>
      <use x="826.912109" xlink:href="#DejaVuSans-109"/>
     </g>
    </g>
    <g id="line2d_30">
     <path d="M 153 141.765313 
L 173 141.765313 
" style="fill:none;stroke:#9467bd;stroke-dasharray:5.55,2.4;stroke-dashoffset:0;stroke-width:1.5;"/>
    </g>
    <g id="line2d_31"/>
    <g id="text_22">
     <!-- taylorfo_sq_norm -->
     <g transform="translate(181 145.265313)scale(0.1 -0.1)">
      <use xlink:href="#DejaVuSans-116"/>
      <use x="39.208984" xlink:href="#DejaVuSans-97"/>
      <use x="100.488281" xlink:href="#DejaVuSans-121"/>
      <use x="159.667969" xlink:href="#DejaVuSans-108"/>
      <use x="187.451172" xlink:href="#DejaVuSans-111"/>
      <use x="248.632812" xlink:href="#DejaVuSans-114"/>
      <use x="289.746094" xlink:href="#DejaVuSans-102"/>
      <use x="324.951172" xlink:href="#DejaVuSans-111"/>
      <use x="386.132812" xlink:href="#DejaVuSans-95"/>
      <use x="436.132812" xlink:href="#DejaVuSans-115"/>
      <use x="488.232422" xlink:href="#DejaVuSans-113"/>
      <use x="551.708984" xlink:href="#DejaVuSans-95"/>
      <use x="601.708984" xlink:href="#DejaVuSans-110"/>
      <use x="665.087891" xlink:href="#DejaVuSans-111"/>
      <use x="726.269531" xlink:href="#DejaVuSans-114"/>
      <use x="765.632812" xlink:href="#DejaVuSans-109"/>
     </g>
    </g>
    <g id="line2d_32">
     <path d="M 153 156.721563 
L 173 156.721563 
" style="fill:none;stroke:#8c564b;stroke-dasharray:5.55,2.4;stroke-dashoffset:0;stroke-width:1.5;"/>
    </g>
    <g id="line2d_33"/>
    <g id="text_23">
     <!-- Molchanov_group -->
     <defs>
      <path d="M 9.8125 72.90625 
L 24.515625 72.90625 
L 43.109375 23.296875 
L 61.8125 72.90625 
L 76.515625 72.90625 
L 76.515625 0 
L 66.890625 0 
L 66.890625 64.015625 
L 48.09375 14.015625 
L 38.1875 14.015625 
L 19.390625 64.015625 
L 19.390625 0 
L 9.8125 0 
z
" id="DejaVuSans-77"/>
      <path d="M 48.78125 52.59375 
L 48.78125 44.1875 
Q 44.96875 46.296875 41.140625 47.34375 
Q 37.3125 48.390625 33.40625 48.390625 
Q 24.65625 48.390625 19.8125 42.84375 
Q 14.984375 37.3125 14.984375 27.296875 
Q 14.984375 17.28125 19.8125 11.734375 
Q 24.65625 6.203125 33.40625 6.203125 
Q 37.3125 6.203125 41.140625 7.25 
Q 44.96875 8.296875 48.78125 10.40625 
L 48.78125 2.09375 
Q 45.015625 0.34375 40.984375 -0.53125 
Q 36.96875 -1.421875 32.421875 -1.421875 
Q 20.0625 -1.421875 12.78125 6.34375 
Q 5.515625 14.109375 5.515625 27.296875 
Q 5.515625 40.671875 12.859375 48.328125 
Q 20.21875 56 33.015625 56 
Q 37.15625 56 41.109375 55.140625 
Q 45.0625 54.296875 48.78125 52.59375 
z
" id="DejaVuSans-99"/>
      <path d="M 54.890625 33.015625 
L 54.890625 0 
L 45.90625 0 
L 45.90625 32.71875 
Q 45.90625 40.484375 42.875 44.328125 
Q 39.84375 48.1875 33.796875 48.1875 
Q 26.515625 48.1875 22.3125 43.546875 
Q 18.109375 38.921875 18.109375 30.90625 
L 18.109375 0 
L 9.078125 0 
L 9.078125 75.984375 
L 18.109375 75.984375 
L 18.109375 46.1875 
Q 21.34375 51.125 25.703125 53.5625 
Q 30.078125 56 35.796875 56 
Q 45.21875 56 50.046875 50.171875 
Q 54.890625 44.34375 54.890625 33.015625 
z
" id="DejaVuSans-104"/>
      <path d="M 2.984375 54.6875 
L 12.5 54.6875 
L 29.59375 8.796875 
L 46.6875 54.6875 
L 56.203125 54.6875 
L 35.6875 0 
L 23.484375 0 
z
" id="DejaVuSans-118"/>
      <path d="M 45.40625 27.984375 
Q 45.40625 37.75 41.375 43.109375 
Q 37.359375 48.484375 30.078125 48.484375 
Q 22.859375 48.484375 18.828125 43.109375 
Q 14.796875 37.75 14.796875 27.984375 
Q 14.796875 18.265625 18.828125 12.890625 
Q 22.859375 7.515625 30.078125 7.515625 
Q 37.359375 7.515625 41.375 12.890625 
Q 45.40625 18.265625 45.40625 27.984375 
z
M 54.390625 6.78125 
Q 54.390625 -7.171875 48.1875 -13.984375 
Q 42 -20.796875 29.203125 -20.796875 
Q 24.46875 -20.796875 20.265625 -20.09375 
Q 16.0625 -19.390625 12.109375 -17.921875 
L 12.109375 -9.1875 
Q 16.0625 -11.328125 19.921875 -12.34375 
Q 23.78125 -13.375 27.78125 -13.375 
Q 36.625 -13.375 41.015625 -8.765625 
Q 45.40625 -4.15625 45.40625 5.171875 
L 45.40625 9.625 
Q 42.625 4.78125 38.28125 2.390625 
Q 33.9375 0 27.875 0 
Q 17.828125 0 11.671875 7.65625 
Q 5.515625 15.328125 5.515625 27.984375 
Q 5.515625 40.671875 11.671875 48.328125 
Q 17.828125 56 27.875 56 
Q 33.9375 56 38.28125 53.609375 
Q 42.625 51.21875 45.40625 46.390625 
L 45.40625 54.6875 
L 54.390625 54.6875 
z
" id="DejaVuSans-103"/>
     </defs>
     <g transform="translate(181 160.221563)scale(0.1 -0.1)">
      <use xlink:href="#DejaVuSans-77"/>
      <use x="86.279297" xlink:href="#DejaVuSans-111"/>
      <use x="147.460938" xlink:href="#DejaVuSans-108"/>
      <use x="175.244141" xlink:href="#DejaVuSans-99"/>
      <use x="230.224609" xlink:href="#DejaVuSans-104"/>
      <use x="293.603516" xlink:href="#DejaVuSans-97"/>
      <use x="354.882812" xlink:href="#DejaVuSans-110"/>
      <use x="418.261719" xlink:href="#DejaVuSans-111"/>
      <use x="479.443359" xlink:href="#DejaVuSans-118"/>
      <use x="538.623047" xlink:href="#DejaVuSans-95"/>
      <use x="588.623047" xlink:href="#DejaVuSans-103"/>
      <use x="652.099609" xlink:href="#DejaVuSans-114"/>
      <use x="690.962891" xlink:href="#DejaVuSans-111"/>
      <use x="752.144531" xlink:href="#DejaVuSans-117"/>
      <use x="815.523438" xlink:href="#DejaVuSans-112"/>
     </g>
    </g>
   </g>
  </g>
 </g>
 <defs>
  <clipPath id="pd6e02aadde">
   <rect height="434.88" width="892.8" x="144" y="69.12"/>
  </clipPath>
 </defs>
</svg>
