<?xml version="1.0" encoding="utf-8" standalone="no"?>
<!DOCTYPE svg PUBLIC "-//W3C//DTD SVG 1.1//EN"
  "http://www.w3.org/Graphics/SVG/1.1/DTD/svg11.dtd">
<!-- Created with matplotlib (https://matplotlib.org/) -->
<svg height="576pt" version="1.1" viewBox="0 0 1152 576" width="1152pt" xmlns="http://www.w3.org/2000/svg" xmlns:xlink="http://www.w3.org/1999/xlink">
 <defs>
  <style type="text/css">
*{stroke-linecap:butt;stroke-linejoin:round;}
  </style>
 </defs>
 <g id="figure_1">
  <g id="patch_1">
   <path d="M 0 576 
L 1152 576 
L 1152 0 
L 0 0 
z
" style="fill:#ffffff;"/>
  </g>
  <g id="axes_1">
   <g id="patch_2">
    <path d="M 144 504 
L 1036.8 504 
L 1036.8 69.12 
L 144 69.12 
z
" style="fill:#ffffff;"/>
   </g>
   <g id="matplotlib.axis_1">
    <g id="xtick_1">
     <g id="line2d_1">
      <defs>
       <path d="M 0 0 
L 0 3.5 
" id="m908223ba89" style="stroke:#000000;stroke-width:0.8;"/>
      </defs>
      <g>
       <use style="stroke:#000000;stroke-width:0.8;" x="182.547642" xlink:href="#m908223ba89" y="504"/>
      </g>
     </g>
     <g id="text_1">
      <!-- 0 -->
      <defs>
       <path d="M 31.78125 66.40625 
Q 24.171875 66.40625 20.328125 58.90625 
Q 16.5 51.421875 16.5 36.375 
Q 16.5 21.390625 20.328125 13.890625 
Q 24.171875 6.390625 31.78125 6.390625 
Q 39.453125 6.390625 43.28125 13.890625 
Q 47.125 21.390625 47.125 36.375 
Q 47.125 51.421875 43.28125 58.90625 
Q 39.453125 66.40625 31.78125 66.40625 
z
M 31.78125 74.21875 
Q 44.046875 74.21875 50.515625 64.515625 
Q 56.984375 54.828125 56.984375 36.375 
Q 56.984375 17.96875 50.515625 8.265625 
Q 44.046875 -1.421875 31.78125 -1.421875 
Q 19.53125 -1.421875 13.0625 8.265625 
Q 6.59375 17.96875 6.59375 36.375 
Q 6.59375 54.828125 13.0625 64.515625 
Q 19.53125 74.21875 31.78125 74.21875 
z
" id="DejaVuSans-48"/>
      </defs>
      <g transform="translate(179.366392 518.598438)scale(0.1 -0.1)">
       <use xlink:href="#DejaVuSans-48"/>
      </g>
     </g>
    </g>
    <g id="xtick_2">
     <g id="line2d_2">
      <g>
       <use style="stroke:#000000;stroke-width:0.8;" x="284.256459" xlink:href="#m908223ba89" y="504"/>
      </g>
     </g>
     <g id="text_2">
      <!-- 50 -->
      <defs>
       <path d="M 10.796875 72.90625 
L 49.515625 72.90625 
L 49.515625 64.59375 
L 19.828125 64.59375 
L 19.828125 46.734375 
Q 21.96875 47.46875 24.109375 47.828125 
Q 26.265625 48.1875 28.421875 48.1875 
Q 40.625 48.1875 47.75 41.5 
Q 54.890625 34.8125 54.890625 23.390625 
Q 54.890625 11.625 47.5625 5.09375 
Q 40.234375 -1.421875 26.90625 -1.421875 
Q 22.3125 -1.421875 17.546875 -0.640625 
Q 12.796875 0.140625 7.71875 1.703125 
L 7.71875 11.625 
Q 12.109375 9.234375 16.796875 8.0625 
Q 21.484375 6.890625 26.703125 6.890625 
Q 35.15625 6.890625 40.078125 11.328125 
Q 45.015625 15.765625 45.015625 23.390625 
Q 45.015625 31 40.078125 35.4375 
Q 35.15625 39.890625 26.703125 39.890625 
Q 22.75 39.890625 18.8125 39.015625 
Q 14.890625 38.140625 10.796875 36.28125 
z
" id="DejaVuSans-53"/>
      </defs>
      <g transform="translate(277.893959 518.598438)scale(0.1 -0.1)">
       <use xlink:href="#DejaVuSans-53"/>
       <use x="63.623047" xlink:href="#DejaVuSans-48"/>
      </g>
     </g>
    </g>
    <g id="xtick_3">
     <g id="line2d_3">
      <g>
       <use style="stroke:#000000;stroke-width:0.8;" x="385.965277" xlink:href="#m908223ba89" y="504"/>
      </g>
     </g>
     <g id="text_3">
      <!-- 100 -->
      <defs>
       <path d="M 12.40625 8.296875 
L 28.515625 8.296875 
L 28.515625 63.921875 
L 10.984375 60.40625 
L 10.984375 69.390625 
L 28.421875 72.90625 
L 38.28125 72.90625 
L 38.28125 8.296875 
L 54.390625 8.296875 
L 54.390625 0 
L 12.40625 0 
z
" id="DejaVuSans-49"/>
      </defs>
      <g transform="translate(376.421527 518.598438)scale(0.1 -0.1)">
       <use xlink:href="#DejaVuSans-49"/>
       <use x="63.623047" xlink:href="#DejaVuSans-48"/>
       <use x="127.246094" xlink:href="#DejaVuSans-48"/>
      </g>
     </g>
    </g>
    <g id="xtick_4">
     <g id="line2d_4">
      <g>
       <use style="stroke:#000000;stroke-width:0.8;" x="487.674094" xlink:href="#m908223ba89" y="504"/>
      </g>
     </g>
     <g id="text_4">
      <!-- 150 -->
      <g transform="translate(478.130344 518.598438)scale(0.1 -0.1)">
       <use xlink:href="#DejaVuSans-49"/>
       <use x="63.623047" xlink:href="#DejaVuSans-53"/>
       <use x="127.246094" xlink:href="#DejaVuSans-48"/>
      </g>
     </g>
    </g>
    <g id="xtick_5">
     <g id="line2d_5">
      <g>
       <use style="stroke:#000000;stroke-width:0.8;" x="589.382912" xlink:href="#m908223ba89" y="504"/>
      </g>
     </g>
     <g id="text_5">
      <!-- 200 -->
      <defs>
       <path d="M 19.1875 8.296875 
L 53.609375 8.296875 
L 53.609375 0 
L 7.328125 0 
L 7.328125 8.296875 
Q 12.9375 14.109375 22.625 23.890625 
Q 32.328125 33.6875 34.8125 36.53125 
Q 39.546875 41.84375 41.421875 45.53125 
Q 43.3125 49.21875 43.3125 52.78125 
Q 43.3125 58.59375 39.234375 62.25 
Q 35.15625 65.921875 28.609375 65.921875 
Q 23.96875 65.921875 18.8125 64.3125 
Q 13.671875 62.703125 7.8125 59.421875 
L 7.8125 69.390625 
Q 13.765625 71.78125 18.9375 73 
Q 24.125 74.21875 28.421875 74.21875 
Q 39.75 74.21875 46.484375 68.546875 
Q 53.21875 62.890625 53.21875 53.421875 
Q 53.21875 48.921875 51.53125 44.890625 
Q 49.859375 40.875 45.40625 35.40625 
Q 44.1875 33.984375 37.640625 27.21875 
Q 31.109375 20.453125 19.1875 8.296875 
z
" id="DejaVuSans-50"/>
      </defs>
      <g transform="translate(579.839162 518.598438)scale(0.1 -0.1)">
       <use xlink:href="#DejaVuSans-50"/>
       <use x="63.623047" xlink:href="#DejaVuSans-48"/>
       <use x="127.246094" xlink:href="#DejaVuSans-48"/>
      </g>
     </g>
    </g>
    <g id="xtick_6">
     <g id="line2d_6">
      <g>
       <use style="stroke:#000000;stroke-width:0.8;" x="691.091729" xlink:href="#m908223ba89" y="504"/>
      </g>
     </g>
     <g id="text_6">
      <!-- 250 -->
      <g transform="translate(681.547979 518.598438)scale(0.1 -0.1)">
       <use xlink:href="#DejaVuSans-50"/>
       <use x="63.623047" xlink:href="#DejaVuSans-53"/>
       <use x="127.246094" xlink:href="#DejaVuSans-48"/>
      </g>
     </g>
    </g>
    <g id="xtick_7">
     <g id="line2d_7">
      <g>
       <use style="stroke:#000000;stroke-width:0.8;" x="792.800547" xlink:href="#m908223ba89" y="504"/>
      </g>
     </g>
     <g id="text_7">
      <!-- 300 -->
      <defs>
       <path d="M 40.578125 39.3125 
Q 47.65625 37.796875 51.625 33 
Q 55.609375 28.21875 55.609375 21.1875 
Q 55.609375 10.40625 48.1875 4.484375 
Q 40.765625 -1.421875 27.09375 -1.421875 
Q 22.515625 -1.421875 17.65625 -0.515625 
Q 12.796875 0.390625 7.625 2.203125 
L 7.625 11.71875 
Q 11.71875 9.328125 16.59375 8.109375 
Q 21.484375 6.890625 26.8125 6.890625 
Q 36.078125 6.890625 40.9375 10.546875 
Q 45.796875 14.203125 45.796875 21.1875 
Q 45.796875 27.640625 41.28125 31.265625 
Q 36.765625 34.90625 28.71875 34.90625 
L 20.21875 34.90625 
L 20.21875 43.015625 
L 29.109375 43.015625 
Q 36.375 43.015625 40.234375 45.921875 
Q 44.09375 48.828125 44.09375 54.296875 
Q 44.09375 59.90625 40.109375 62.90625 
Q 36.140625 65.921875 28.71875 65.921875 
Q 24.65625 65.921875 20.015625 65.03125 
Q 15.375 64.15625 9.8125 62.3125 
L 9.8125 71.09375 
Q 15.4375 72.65625 20.34375 73.4375 
Q 25.25 74.21875 29.59375 74.21875 
Q 40.828125 74.21875 47.359375 69.109375 
Q 53.90625 64.015625 53.90625 55.328125 
Q 53.90625 49.265625 50.4375 45.09375 
Q 46.96875 40.921875 40.578125 39.3125 
z
" id="DejaVuSans-51"/>
      </defs>
      <g transform="translate(783.256797 518.598438)scale(0.1 -0.1)">
       <use xlink:href="#DejaVuSans-51"/>
       <use x="63.623047" xlink:href="#DejaVuSans-48"/>
       <use x="127.246094" xlink:href="#DejaVuSans-48"/>
      </g>
     </g>
    </g>
    <g id="xtick_8">
     <g id="line2d_8">
      <g>
       <use style="stroke:#000000;stroke-width:0.8;" x="894.509364" xlink:href="#m908223ba89" y="504"/>
      </g>
     </g>
     <g id="text_8">
      <!-- 350 -->
      <g transform="translate(884.965614 518.598438)scale(0.1 -0.1)">
       <use xlink:href="#DejaVuSans-51"/>
       <use x="63.623047" xlink:href="#DejaVuSans-53"/>
       <use x="127.246094" xlink:href="#DejaVuSans-48"/>
      </g>
     </g>
    </g>
    <g id="xtick_9">
     <g id="line2d_9">
      <g>
       <use style="stroke:#000000;stroke-width:0.8;" x="996.218182" xlink:href="#m908223ba89" y="504"/>
      </g>
     </g>
     <g id="text_9">
      <!-- 400 -->
      <defs>
       <path d="M 37.796875 64.3125 
L 12.890625 25.390625 
L 37.796875 25.390625 
z
M 35.203125 72.90625 
L 47.609375 72.90625 
L 47.609375 25.390625 
L 58.015625 25.390625 
L 58.015625 17.1875 
L 47.609375 17.1875 
L 47.609375 0 
L 37.796875 0 
L 37.796875 17.1875 
L 4.890625 17.1875 
L 4.890625 26.703125 
z
" id="DejaVuSans-52"/>
      </defs>
      <g transform="translate(986.674432 518.598438)scale(0.1 -0.1)">
       <use xlink:href="#DejaVuSans-52"/>
       <use x="63.623047" xlink:href="#DejaVuSans-48"/>
       <use x="127.246094" xlink:href="#DejaVuSans-48"/>
      </g>
     </g>
    </g>
    <g id="text_10">
     <!-- Number of Neurons pruned -->
     <defs>
      <path d="M 9.8125 72.90625 
L 23.09375 72.90625 
L 55.421875 11.921875 
L 55.421875 72.90625 
L 64.984375 72.90625 
L 64.984375 0 
L 51.703125 0 
L 19.390625 60.984375 
L 19.390625 0 
L 9.8125 0 
z
" id="DejaVuSans-78"/>
      <path d="M 8.5 21.578125 
L 8.5 54.6875 
L 17.484375 54.6875 
L 17.484375 21.921875 
Q 17.484375 14.15625 20.5 10.265625 
Q 23.53125 6.390625 29.59375 6.390625 
Q 36.859375 6.390625 41.078125 11.03125 
Q 45.3125 15.671875 45.3125 23.6875 
L 45.3125 54.6875 
L 54.296875 54.6875 
L 54.296875 0 
L 45.3125 0 
L 45.3125 8.40625 
Q 42.046875 3.421875 37.71875 1 
Q 33.40625 -1.421875 27.6875 -1.421875 
Q 18.265625 -1.421875 13.375 4.4375 
Q 8.5 10.296875 8.5 21.578125 
z
M 31.109375 56 
z
" id="DejaVuSans-117"/>
      <path d="M 52 44.1875 
Q 55.375 50.25 60.0625 53.125 
Q 64.75 56 71.09375 56 
Q 79.640625 56 84.28125 50.015625 
Q 88.921875 44.046875 88.921875 33.015625 
L 88.921875 0 
L 79.890625 0 
L 79.890625 32.71875 
Q 79.890625 40.578125 77.09375 44.375 
Q 74.3125 48.1875 68.609375 48.1875 
Q 61.625 48.1875 57.5625 43.546875 
Q 53.515625 38.921875 53.515625 30.90625 
L 53.515625 0 
L 44.484375 0 
L 44.484375 32.71875 
Q 44.484375 40.625 41.703125 44.40625 
Q 38.921875 48.1875 33.109375 48.1875 
Q 26.21875 48.1875 22.15625 43.53125 
Q 18.109375 38.875 18.109375 30.90625 
L 18.109375 0 
L 9.078125 0 
L 9.078125 54.6875 
L 18.109375 54.6875 
L 18.109375 46.1875 
Q 21.1875 51.21875 25.484375 53.609375 
Q 29.78125 56 35.6875 56 
Q 41.65625 56 45.828125 52.96875 
Q 50 49.953125 52 44.1875 
z
" id="DejaVuSans-109"/>
      <path d="M 48.6875 27.296875 
Q 48.6875 37.203125 44.609375 42.84375 
Q 40.53125 48.484375 33.40625 48.484375 
Q 26.265625 48.484375 22.1875 42.84375 
Q 18.109375 37.203125 18.109375 27.296875 
Q 18.109375 17.390625 22.1875 11.75 
Q 26.265625 6.109375 33.40625 6.109375 
Q 40.53125 6.109375 44.609375 11.75 
Q 48.6875 17.390625 48.6875 27.296875 
z
M 18.109375 46.390625 
Q 20.953125 51.265625 25.265625 53.625 
Q 29.59375 56 35.59375 56 
Q 45.5625 56 51.78125 48.09375 
Q 58.015625 40.1875 58.015625 27.296875 
Q 58.015625 14.40625 51.78125 6.484375 
Q 45.5625 -1.421875 35.59375 -1.421875 
Q 29.59375 -1.421875 25.265625 0.953125 
Q 20.953125 3.328125 18.109375 8.203125 
L 18.109375 0 
L 9.078125 0 
L 9.078125 75.984375 
L 18.109375 75.984375 
z
" id="DejaVuSans-98"/>
      <path d="M 56.203125 29.59375 
L 56.203125 25.203125 
L 14.890625 25.203125 
Q 15.484375 15.921875 20.484375 11.0625 
Q 25.484375 6.203125 34.421875 6.203125 
Q 39.59375 6.203125 44.453125 7.46875 
Q 49.3125 8.734375 54.109375 11.28125 
L 54.109375 2.78125 
Q 49.265625 0.734375 44.1875 -0.34375 
Q 39.109375 -1.421875 33.890625 -1.421875 
Q 20.796875 -1.421875 13.15625 6.1875 
Q 5.515625 13.8125 5.515625 26.8125 
Q 5.515625 40.234375 12.765625 48.109375 
Q 20.015625 56 32.328125 56 
Q 43.359375 56 49.78125 48.890625 
Q 56.203125 41.796875 56.203125 29.59375 
z
M 47.21875 32.234375 
Q 47.125 39.59375 43.09375 43.984375 
Q 39.0625 48.390625 32.421875 48.390625 
Q 24.90625 48.390625 20.390625 44.140625 
Q 15.875 39.890625 15.1875 32.171875 
z
" id="DejaVuSans-101"/>
      <path d="M 41.109375 46.296875 
Q 39.59375 47.171875 37.8125 47.578125 
Q 36.03125 48 33.890625 48 
Q 26.265625 48 22.1875 43.046875 
Q 18.109375 38.09375 18.109375 28.8125 
L 18.109375 0 
L 9.078125 0 
L 9.078125 54.6875 
L 18.109375 54.6875 
L 18.109375 46.1875 
Q 20.953125 51.171875 25.484375 53.578125 
Q 30.03125 56 36.53125 56 
Q 37.453125 56 38.578125 55.875 
Q 39.703125 55.765625 41.0625 55.515625 
z
" id="DejaVuSans-114"/>
      <path id="DejaVuSans-32"/>
      <path d="M 30.609375 48.390625 
Q 23.390625 48.390625 19.1875 42.75 
Q 14.984375 37.109375 14.984375 27.296875 
Q 14.984375 17.484375 19.15625 11.84375 
Q 23.34375 6.203125 30.609375 6.203125 
Q 37.796875 6.203125 41.984375 11.859375 
Q 46.1875 17.53125 46.1875 27.296875 
Q 46.1875 37.015625 41.984375 42.703125 
Q 37.796875 48.390625 30.609375 48.390625 
z
M 30.609375 56 
Q 42.328125 56 49.015625 48.375 
Q 55.71875 40.765625 55.71875 27.296875 
Q 55.71875 13.875 49.015625 6.21875 
Q 42.328125 -1.421875 30.609375 -1.421875 
Q 18.84375 -1.421875 12.171875 6.21875 
Q 5.515625 13.875 5.515625 27.296875 
Q 5.515625 40.765625 12.171875 48.375 
Q 18.84375 56 30.609375 56 
z
" id="DejaVuSans-111"/>
      <path d="M 37.109375 75.984375 
L 37.109375 68.5 
L 28.515625 68.5 
Q 23.6875 68.5 21.796875 66.546875 
Q 19.921875 64.59375 19.921875 59.515625 
L 19.921875 54.6875 
L 34.71875 54.6875 
L 34.71875 47.703125 
L 19.921875 47.703125 
L 19.921875 0 
L 10.890625 0 
L 10.890625 47.703125 
L 2.296875 47.703125 
L 2.296875 54.6875 
L 10.890625 54.6875 
L 10.890625 58.5 
Q 10.890625 67.625 15.140625 71.796875 
Q 19.390625 75.984375 28.609375 75.984375 
z
" id="DejaVuSans-102"/>
      <path d="M 54.890625 33.015625 
L 54.890625 0 
L 45.90625 0 
L 45.90625 32.71875 
Q 45.90625 40.484375 42.875 44.328125 
Q 39.84375 48.1875 33.796875 48.1875 
Q 26.515625 48.1875 22.3125 43.546875 
Q 18.109375 38.921875 18.109375 30.90625 
L 18.109375 0 
L 9.078125 0 
L 9.078125 54.6875 
L 18.109375 54.6875 
L 18.109375 46.1875 
Q 21.34375 51.125 25.703125 53.5625 
Q 30.078125 56 35.796875 56 
Q 45.21875 56 50.046875 50.171875 
Q 54.890625 44.34375 54.890625 33.015625 
z
" id="DejaVuSans-110"/>
      <path d="M 44.28125 53.078125 
L 44.28125 44.578125 
Q 40.484375 46.53125 36.375 47.5 
Q 32.28125 48.484375 27.875 48.484375 
Q 21.1875 48.484375 17.84375 46.4375 
Q 14.5 44.390625 14.5 40.28125 
Q 14.5 37.15625 16.890625 35.375 
Q 19.28125 33.59375 26.515625 31.984375 
L 29.59375 31.296875 
Q 39.15625 29.25 43.1875 25.515625 
Q 47.21875 21.78125 47.21875 15.09375 
Q 47.21875 7.46875 41.1875 3.015625 
Q 35.15625 -1.421875 24.609375 -1.421875 
Q 20.21875 -1.421875 15.453125 -0.5625 
Q 10.6875 0.296875 5.421875 2 
L 5.421875 11.28125 
Q 10.40625 8.6875 15.234375 7.390625 
Q 20.0625 6.109375 24.8125 6.109375 
Q 31.15625 6.109375 34.5625 8.28125 
Q 37.984375 10.453125 37.984375 14.40625 
Q 37.984375 18.0625 35.515625 20.015625 
Q 33.0625 21.96875 24.703125 23.78125 
L 21.578125 24.515625 
Q 13.234375 26.265625 9.515625 29.90625 
Q 5.8125 33.546875 5.8125 39.890625 
Q 5.8125 47.609375 11.28125 51.796875 
Q 16.75 56 26.8125 56 
Q 31.78125 56 36.171875 55.265625 
Q 40.578125 54.546875 44.28125 53.078125 
z
" id="DejaVuSans-115"/>
      <path d="M 18.109375 8.203125 
L 18.109375 -20.796875 
L 9.078125 -20.796875 
L 9.078125 54.6875 
L 18.109375 54.6875 
L 18.109375 46.390625 
Q 20.953125 51.265625 25.265625 53.625 
Q 29.59375 56 35.59375 56 
Q 45.5625 56 51.78125 48.09375 
Q 58.015625 40.1875 58.015625 27.296875 
Q 58.015625 14.40625 51.78125 6.484375 
Q 45.5625 -1.421875 35.59375 -1.421875 
Q 29.59375 -1.421875 25.265625 0.953125 
Q 20.953125 3.328125 18.109375 8.203125 
z
M 48.6875 27.296875 
Q 48.6875 37.203125 44.609375 42.84375 
Q 40.53125 48.484375 33.40625 48.484375 
Q 26.265625 48.484375 22.1875 42.84375 
Q 18.109375 37.203125 18.109375 27.296875 
Q 18.109375 17.390625 22.1875 11.75 
Q 26.265625 6.109375 33.40625 6.109375 
Q 40.53125 6.109375 44.609375 11.75 
Q 48.6875 17.390625 48.6875 27.296875 
z
" id="DejaVuSans-112"/>
      <path d="M 45.40625 46.390625 
L 45.40625 75.984375 
L 54.390625 75.984375 
L 54.390625 0 
L 45.40625 0 
L 45.40625 8.203125 
Q 42.578125 3.328125 38.25 0.953125 
Q 33.9375 -1.421875 27.875 -1.421875 
Q 17.96875 -1.421875 11.734375 6.484375 
Q 5.515625 14.40625 5.515625 27.296875 
Q 5.515625 40.1875 11.734375 48.09375 
Q 17.96875 56 27.875 56 
Q 33.9375 56 38.25 53.625 
Q 42.578125 51.265625 45.40625 46.390625 
z
M 14.796875 27.296875 
Q 14.796875 17.390625 18.875 11.75 
Q 22.953125 6.109375 30.078125 6.109375 
Q 37.203125 6.109375 41.296875 11.75 
Q 45.40625 17.390625 45.40625 27.296875 
Q 45.40625 37.203125 41.296875 42.84375 
Q 37.203125 48.484375 30.078125 48.484375 
Q 22.953125 48.484375 18.875 42.84375 
Q 14.796875 37.203125 14.796875 27.296875 
z
" id="DejaVuSans-100"/>
     </defs>
     <g transform="translate(522.147656 532.276562)scale(0.1 -0.1)">
      <use xlink:href="#DejaVuSans-78"/>
      <use x="74.804688" xlink:href="#DejaVuSans-117"/>
      <use x="138.183594" xlink:href="#DejaVuSans-109"/>
      <use x="235.595703" xlink:href="#DejaVuSans-98"/>
      <use x="299.072266" xlink:href="#DejaVuSans-101"/>
      <use x="360.595703" xlink:href="#DejaVuSans-114"/>
      <use x="401.708984" xlink:href="#DejaVuSans-32"/>
      <use x="433.496094" xlink:href="#DejaVuSans-111"/>
      <use x="494.677734" xlink:href="#DejaVuSans-102"/>
      <use x="529.882812" xlink:href="#DejaVuSans-32"/>
      <use x="561.669922" xlink:href="#DejaVuSans-78"/>
      <use x="636.474609" xlink:href="#DejaVuSans-101"/>
      <use x="697.998047" xlink:href="#DejaVuSans-117"/>
      <use x="761.376953" xlink:href="#DejaVuSans-114"/>
      <use x="800.240234" xlink:href="#DejaVuSans-111"/>
      <use x="861.421875" xlink:href="#DejaVuSans-110"/>
      <use x="924.800781" xlink:href="#DejaVuSans-115"/>
      <use x="976.900391" xlink:href="#DejaVuSans-32"/>
      <use x="1008.6875" xlink:href="#DejaVuSans-112"/>
      <use x="1072.164062" xlink:href="#DejaVuSans-114"/>
      <use x="1113.277344" xlink:href="#DejaVuSans-117"/>
      <use x="1176.65625" xlink:href="#DejaVuSans-110"/>
      <use x="1240.035156" xlink:href="#DejaVuSans-101"/>
      <use x="1301.558594" xlink:href="#DejaVuSans-100"/>
     </g>
    </g>
   </g>
   <g id="matplotlib.axis_2">
    <g id="ytick_1">
     <g id="line2d_10">
      <defs>
       <path d="M 0 0 
L -3.5 0 
" id="m8f93a8388b" style="stroke:#000000;stroke-width:0.8;"/>
      </defs>
      <g>
       <use style="stroke:#000000;stroke-width:0.8;" x="144" xlink:href="#m8f93a8388b" y="497.771821"/>
      </g>
     </g>
     <g id="text_11">
      <!-- 0.0 -->
      <defs>
       <path d="M 10.6875 12.40625 
L 21 12.40625 
L 21 0 
L 10.6875 0 
z
" id="DejaVuSans-46"/>
      </defs>
      <g transform="translate(121.096875 501.57104)scale(0.1 -0.1)">
       <use xlink:href="#DejaVuSans-48"/>
       <use x="63.623047" xlink:href="#DejaVuSans-46"/>
       <use x="95.410156" xlink:href="#DejaVuSans-48"/>
      </g>
     </g>
    </g>
    <g id="ytick_2">
     <g id="line2d_11">
      <g>
       <use style="stroke:#000000;stroke-width:0.8;" x="144" xlink:href="#m8f93a8388b" y="443.465859"/>
      </g>
     </g>
     <g id="text_12">
      <!-- 0.5 -->
      <g transform="translate(121.096875 447.265078)scale(0.1 -0.1)">
       <use xlink:href="#DejaVuSans-48"/>
       <use x="63.623047" xlink:href="#DejaVuSans-46"/>
       <use x="95.410156" xlink:href="#DejaVuSans-53"/>
      </g>
     </g>
    </g>
    <g id="ytick_3">
     <g id="line2d_12">
      <g>
       <use style="stroke:#000000;stroke-width:0.8;" x="144" xlink:href="#m8f93a8388b" y="389.159896"/>
      </g>
     </g>
     <g id="text_13">
      <!-- 1.0 -->
      <g transform="translate(121.096875 392.959115)scale(0.1 -0.1)">
       <use xlink:href="#DejaVuSans-49"/>
       <use x="63.623047" xlink:href="#DejaVuSans-46"/>
       <use x="95.410156" xlink:href="#DejaVuSans-48"/>
      </g>
     </g>
    </g>
    <g id="ytick_4">
     <g id="line2d_13">
      <g>
       <use style="stroke:#000000;stroke-width:0.8;" x="144" xlink:href="#m8f93a8388b" y="334.853934"/>
      </g>
     </g>
     <g id="text_14">
      <!-- 1.5 -->
      <g transform="translate(121.096875 338.653153)scale(0.1 -0.1)">
       <use xlink:href="#DejaVuSans-49"/>
       <use x="63.623047" xlink:href="#DejaVuSans-46"/>
       <use x="95.410156" xlink:href="#DejaVuSans-53"/>
      </g>
     </g>
    </g>
    <g id="ytick_5">
     <g id="line2d_14">
      <g>
       <use style="stroke:#000000;stroke-width:0.8;" x="144" xlink:href="#m8f93a8388b" y="280.547971"/>
      </g>
     </g>
     <g id="text_15">
      <!-- 2.0 -->
      <g transform="translate(121.096875 284.34719)scale(0.1 -0.1)">
       <use xlink:href="#DejaVuSans-50"/>
       <use x="63.623047" xlink:href="#DejaVuSans-46"/>
       <use x="95.410156" xlink:href="#DejaVuSans-48"/>
      </g>
     </g>
    </g>
    <g id="ytick_6">
     <g id="line2d_15">
      <g>
       <use style="stroke:#000000;stroke-width:0.8;" x="144" xlink:href="#m8f93a8388b" y="226.242009"/>
      </g>
     </g>
     <g id="text_16">
      <!-- 2.5 -->
      <g transform="translate(121.096875 230.041227)scale(0.1 -0.1)">
       <use xlink:href="#DejaVuSans-50"/>
       <use x="63.623047" xlink:href="#DejaVuSans-46"/>
       <use x="95.410156" xlink:href="#DejaVuSans-53"/>
      </g>
     </g>
    </g>
    <g id="ytick_7">
     <g id="line2d_16">
      <g>
       <use style="stroke:#000000;stroke-width:0.8;" x="144" xlink:href="#m8f93a8388b" y="171.936046"/>
      </g>
     </g>
     <g id="text_17">
      <!-- 3.0 -->
      <g transform="translate(121.096875 175.735265)scale(0.1 -0.1)">
       <use xlink:href="#DejaVuSans-51"/>
       <use x="63.623047" xlink:href="#DejaVuSans-46"/>
       <use x="95.410156" xlink:href="#DejaVuSans-48"/>
      </g>
     </g>
    </g>
    <g id="ytick_8">
     <g id="line2d_17">
      <g>
       <use style="stroke:#000000;stroke-width:0.8;" x="144" xlink:href="#m8f93a8388b" y="117.630084"/>
      </g>
     </g>
     <g id="text_18">
      <!-- 3.5 -->
      <g transform="translate(121.096875 121.429302)scale(0.1 -0.1)">
       <use xlink:href="#DejaVuSans-51"/>
       <use x="63.623047" xlink:href="#DejaVuSans-46"/>
       <use x="95.410156" xlink:href="#DejaVuSans-53"/>
      </g>
     </g>
    </g>
    <g id="text_19">
     <!-- Loss -->
     <defs>
      <path d="M 9.8125 72.90625 
L 19.671875 72.90625 
L 19.671875 8.296875 
L 55.171875 8.296875 
L 55.171875 0 
L 9.8125 0 
z
" id="DejaVuSans-76"/>
     </defs>
     <g transform="translate(115.017187 297.527188)rotate(-90)scale(0.1 -0.1)">
      <use xlink:href="#DejaVuSans-76"/>
      <use x="53.962891" xlink:href="#DejaVuSans-111"/>
      <use x="115.144531" xlink:href="#DejaVuSans-115"/>
      <use x="167.244141" xlink:href="#DejaVuSans-115"/>
     </g>
    </g>
   </g>
   <g id="line2d_18">
    <path clip-path="url(#p064d6b1ef0)" d="M 184.581818 484.232727 
L 265.948872 484.232726 
L 267.983049 483.52021 
L 270.017225 483.123735 
L 272.051401 483.215776 
L 274.085578 482.814421 
L 278.15393 481.162493 
L 282.222283 480.529816 
L 284.256459 478.728373 
L 286.290636 476.251293 
L 288.324812 475.535341 
L 290.358988 473.667334 
L 292.393165 472.381099 
L 294.427341 471.437619 
L 296.461517 468.240598 
L 298.495694 469.283313 
L 300.52987 467.516121 
L 302.564046 465.219838 
L 304.598223 464.520013 
L 306.632399 465.943729 
L 308.666576 465.60349 
L 310.700752 466.860454 
L 312.734928 465.764088 
L 314.769105 461.692375 
L 316.803281 454.420807 
L 318.837457 438.361708 
L 320.871634 430.744612 
L 322.90581 398.61032 
L 324.939986 402.460326 
L 326.974163 400.003768 
L 329.008339 383.80756 
L 331.042515 373.399568 
L 333.076692 366.901128 
L 335.110868 357.436067 
L 337.145044 351.830775 
L 339.179221 354.721807 
L 341.213397 349.199988 
L 343.247573 357.119629 
L 345.28175 362.916804 
L 347.315926 353.801599 
L 349.350103 353.531021 
L 351.384279 345.171008 
L 353.418455 335.314465 
L 355.452632 340.371092 
L 357.486808 341.290265 
L 359.520984 325.123202 
L 361.555161 313.641159 
L 363.589337 296.674016 
L 365.623513 285.404818 
L 367.65769 313.970312 
L 369.691866 292.592003 
L 371.726042 282.113654 
L 375.794395 303.378257 
L 379.862748 300.869579 
L 381.896924 307.764111 
L 383.9311 307.393086 
L 385.965277 310.238012 
L 387.999453 305.772078 
L 390.03363 297.592657 
L 392.067806 287.816804 
L 394.101982 299.818937 
L 396.136159 292.349974 
L 398.170335 296.841104 
L 400.204511 293.933783 
L 402.238688 303.116587 
L 404.272864 289.051107 
L 406.30704 276.053048 
L 408.341217 261.261844 
L 410.375393 237.373769 
L 412.409569 246.101065 
L 414.443746 251.170756 
L 416.477922 257.246809 
L 418.512098 251.281406 
L 420.546275 261.019802 
L 422.580451 247.726371 
L 424.614627 237.103605 
L 426.648804 231.164098 
L 428.68298 228.596081 
L 430.717157 217.685698 
L 432.751333 215.243479 
L 434.785509 210.405886 
L 436.819686 209.737041 
L 438.853862 224.7063 
L 440.888038 218.75892 
L 442.922215 235.166962 
L 444.956391 211.744585 
L 446.990567 206.482648 
L 449.024744 211.653227 
L 451.05892 211.073617 
L 453.093096 207.985005 
L 455.127273 209.750274 
L 457.161449 208.367475 
L 459.195625 231.00606 
L 461.229802 186.916932 
L 463.263978 190.215527 
L 465.298154 204.601318 
L 467.332331 194.762759 
L 469.366507 176.045547 
L 471.400684 174.878843 
L 473.43486 191.592991 
L 475.469036 186.642495 
L 477.503213 185.871754 
L 479.537389 196.181603 
L 481.571565 192.667017 
L 483.605742 172.851619 
L 485.639918 159.511266 
L 487.674094 164.019292 
L 489.708271 156.371925 
L 491.742447 170.645642 
L 493.776623 169.731234 
L 495.8108 155.589971 
L 497.844976 177.971236 
L 499.879152 186.879643 
L 501.913329 156.568676 
L 503.947505 141.192657 
L 505.981681 154.060296 
L 508.015858 160.464983 
L 510.050034 154.254794 
L 512.084211 153.790365 
L 514.118387 151.601996 
L 516.152563 101.278001 
L 518.18674 97.843948 
L 520.220916 107.615645 
L 522.255092 88.887273 
L 524.289269 97.424473 
L 526.323445 99.343792 
L 528.357621 117.418495 
L 530.391798 128.435954 
L 534.46015 162.579292 
L 536.494327 167.429392 
L 538.528503 165.268161 
L 540.562679 169.106566 
L 542.596856 175.475337 
L 544.631032 173.624795 
L 546.665208 173.576967 
L 548.699385 159.932761 
L 550.733561 171.37969 
L 552.767738 166.527699 
L 554.801914 167.786667 
L 556.83609 167.445784 
L 558.870267 174.206218 
L 560.904443 174.825292 
L 562.938619 175.021862 
L 564.972796 170.986084 
L 567.006972 184.520496 
L 569.041148 191.299419 
L 571.075325 190.886444 
L 573.109501 202.918058 
L 575.143677 190.878623 
L 577.177854 196.16516 
L 579.21203 190.503533 
L 581.246206 195.635035 
L 583.280383 198.067776 
L 585.314559 205.631425 
L 587.348735 205.835815 
L 589.382912 207.222057 
L 591.417088 226.289008 
L 593.451265 228.997843 
L 595.485441 221.764461 
L 597.519617 234.437005 
L 599.553794 239.767719 
L 601.58797 240.984297 
L 605.656323 240.071702 
L 607.690499 255.282691 
L 609.724675 250.816304 
L 611.758852 251.30901 
L 613.793028 255.919711 
L 615.827204 255.997732 
L 617.861381 254.957241 
L 619.895557 258.132861 
L 621.929733 256.145982 
L 623.96391 257.368049 
L 628.032262 259.487563 
L 630.066439 257.054097 
L 632.100615 253.377822 
L 634.134792 252.895836 
L 636.168968 251.616722 
L 640.237321 251.7159 
L 642.271497 251.787733 
L 644.305673 253.121201 
L 646.33985 258.332849 
L 648.374026 259.092974 
L 650.408202 260.06694 
L 654.476555 259.66958 
L 656.510731 258.704988 
L 658.544908 258.672567 
L 660.579084 259.859598 
L 662.61326 259.462549 
L 664.647437 259.963231 
L 666.681613 260.630211 
L 668.715789 259.361998 
L 670.749966 256.650004 
L 672.784142 258.542884 
L 674.818319 257.695363 
L 676.852495 259.110116 
L 678.886671 259.219135 
L 680.920848 258.868929 
L 682.955024 256.36016 
L 684.9892 256.43391 
L 687.023377 256.806152 
L 689.057553 254.215865 
L 691.091729 253.660156 
L 693.125906 252.325419 
L 695.160082 253.563774 
L 697.194258 253.187052 
L 699.228435 254.16568 
L 701.262611 253.52923 
L 705.330964 253.578172 
L 707.36514 254.01308 
L 709.399316 253.778108 
L 711.433493 251.482637 
L 713.467669 251.061246 
L 715.501846 251.062981 
L 717.536022 251.746741 
L 719.570198 251.566097 
L 721.604375 251.904416 
L 723.638551 251.904416 
L 725.672727 250.159475 
L 727.706904 250.3309 
L 729.74108 248.633943 
L 731.775256 248.015542 
L 733.809433 248.409976 
L 735.843609 247.972685 
L 737.877785 248.413368 
L 739.911962 249.08576 
L 748.048667 248.51959 
L 750.082843 248.303521 
L 754.151196 247.654435 
L 756.185373 247.627944 
L 758.219549 248.528446 
L 760.253725 248.532615 
L 762.287902 248.157887 
L 770.424607 247.694572 
L 782.629665 247.264221 
L 790.76637 247.322537 
L 878.235954 247.319896 
L 996.218182 247.319896 
L 996.218182 247.319896 
" style="fill:none;stroke:#1f77b4;stroke-linecap:square;stroke-width:1.5;"/>
   </g>
   <g id="line2d_19">
    <path clip-path="url(#p064d6b1ef0)" d="M 184.581818 484.232727 
L 267.983049 484.147828 
L 270.017225 484.075771 
L 278.15393 483.391932 
L 280.188107 483.240313 
L 282.222283 482.195601 
L 284.256459 481.744557 
L 288.324812 481.220592 
L 290.358988 481.067631 
L 292.393165 480.212287 
L 294.427341 478.903969 
L 296.461517 478.75845 
L 298.495694 477.756161 
L 300.52987 477.645343 
L 302.564046 476.058985 
L 304.598223 474.965363 
L 306.632399 473.233878 
L 308.666576 473.394233 
L 310.700752 473.839551 
L 312.734928 473.018264 
L 314.769105 474.298728 
L 316.803281 472.988153 
L 320.871634 474.228238 
L 322.90581 473.028431 
L 324.939986 473.387931 
L 326.974163 473.992687 
L 329.008339 471.820352 
L 331.042515 470.440957 
L 333.076692 469.483948 
L 335.110868 467.875316 
L 337.145044 463.831009 
L 339.179221 463.243262 
L 341.213397 460.543176 
L 343.247573 464.230435 
L 345.28175 463.525605 
L 347.315926 461.815674 
L 349.350103 463.941633 
L 351.384279 463.16131 
L 353.418455 460.96434 
L 355.452632 462.633257 
L 357.486808 461.058806 
L 359.520984 457.484544 
L 361.555161 455.787016 
L 363.589337 458.294853 
L 365.623513 455.688803 
L 371.726042 435.389455 
L 373.760219 429.594876 
L 375.794395 433.112907 
L 377.828571 427.705343 
L 379.862748 421.36461 
L 381.896924 421.71905 
L 383.9311 420.583167 
L 385.965277 422.398369 
L 387.999453 420.126339 
L 390.03363 416.071477 
L 392.067806 408.891368 
L 394.101982 399.524223 
L 396.136159 402.671565 
L 398.170335 391.904894 
L 400.204511 387.260788 
L 402.238688 385.852483 
L 404.272864 383.246841 
L 406.30704 378.195962 
L 408.341217 371.272635 
L 410.375393 366.739232 
L 412.409569 361.647621 
L 414.443746 354.897558 
L 416.477922 352.858642 
L 418.512098 353.051509 
L 420.546275 340.553484 
L 422.580451 347.739258 
L 424.614627 345.86769 
L 426.648804 348.712772 
L 428.68298 342.878359 
L 430.717157 335.167472 
L 432.751333 332.669604 
L 434.785509 324.673663 
L 436.819686 323.895386 
L 438.853862 313.348778 
L 440.888038 311.824618 
L 442.922215 304.392879 
L 444.956391 311.976389 
L 446.990567 302.042925 
L 449.024744 296.780755 
L 451.05892 279.943554 
L 453.093096 259.982859 
L 455.127273 269.388348 
L 457.161449 259.137177 
L 459.195625 254.034262 
L 461.229802 240.831205 
L 463.263978 245.704456 
L 465.298154 237.470461 
L 467.332331 232.248326 
L 469.366507 238.196016 
L 471.400684 241.375054 
L 473.43486 248.308597 
L 475.469036 259.279108 
L 477.503213 263.092265 
L 479.537389 253.342837 
L 481.571565 254.594399 
L 483.605742 237.676923 
L 485.639918 249.603636 
L 487.674094 248.988472 
L 489.708271 262.129019 
L 491.742447 260.874142 
L 493.776623 248.23811 
L 495.8108 244.691828 
L 497.844976 254.447548 
L 499.879152 250.973565 
L 501.913329 237.785501 
L 503.947505 237.089855 
L 505.981681 233.378388 
L 508.015858 230.806176 
L 510.050034 223.42905 
L 512.084211 236.076062 
L 514.118387 228.87466 
L 516.152563 233.3896 
L 518.18674 224.461436 
L 520.220916 216.974644 
L 524.289269 206.905567 
L 526.323445 211.426049 
L 528.357621 211.065071 
L 530.391798 217.862639 
L 532.425974 225.540536 
L 534.46015 226.301309 
L 538.528503 238.616604 
L 540.562679 241.390203 
L 542.596856 244.921984 
L 544.631032 254.921998 
L 546.665208 249.88522 
L 548.699385 247.492176 
L 550.733561 255.316976 
L 552.767738 250.071716 
L 554.801914 254.655693 
L 556.83609 254.984146 
L 558.870267 262.842507 
L 560.904443 256.301301 
L 562.938619 252.84358 
L 564.972796 252.016335 
L 567.006972 244.933843 
L 569.041148 252.650454 
L 571.075325 261.292918 
L 573.109501 255.947444 
L 575.143677 255.431148 
L 577.177854 242.502993 
L 579.21203 247.085623 
L 581.246206 245.453273 
L 583.280383 249.999702 
L 585.314559 252.050206 
L 587.348735 258.210521 
L 589.382912 256.098723 
L 591.417088 256.058172 
L 593.451265 260.800859 
L 595.485441 262.796388 
L 597.519617 266.432112 
L 599.553794 263.706108 
L 601.58797 252.218524 
L 603.622146 260.785504 
L 605.656323 259.581459 
L 607.690499 254.704687 
L 609.724675 260.224072 
L 611.758852 262.354565 
L 613.793028 261.075865 
L 615.827204 260.213636 
L 617.861381 259.08303 
L 619.895557 257.739282 
L 621.929733 256.791236 
L 623.96391 257.923344 
L 625.998086 256.702312 
L 628.032262 259.158437 
L 630.066439 259.703296 
L 632.100615 261.021175 
L 634.134792 258.559224 
L 636.168968 260.443559 
L 638.203144 257.524482 
L 640.237321 257.180336 
L 642.271497 259.139663 
L 644.305673 262.011714 
L 646.33985 260.308127 
L 648.374026 261.729432 
L 650.408202 261.683131 
L 652.442379 259.408609 
L 656.510731 260.310458 
L 658.544908 258.844226 
L 660.579084 258.691134 
L 662.61326 253.616626 
L 664.647437 250.640347 
L 666.681613 254.167441 
L 668.715789 254.158481 
L 670.749966 253.69571 
L 672.784142 252.917899 
L 674.818319 253.913643 
L 676.852495 253.92975 
L 678.886671 255.047253 
L 680.920848 254.094805 
L 682.955024 253.75923 
L 684.9892 253.977319 
L 687.023377 252.625155 
L 689.057553 252.887317 
L 691.091729 253.789554 
L 693.125906 253.712231 
L 695.160082 254.337442 
L 697.194258 254.336639 
L 699.228435 252.480789 
L 701.262611 252.484052 
L 703.296787 252.950293 
L 705.330964 253.012493 
L 709.399316 252.932193 
L 711.433493 253.080779 
L 713.467669 251.706837 
L 715.501846 251.002671 
L 717.536022 250.818298 
L 719.570198 250.314457 
L 721.604375 249.986159 
L 723.638551 249.790366 
L 725.672727 249.460696 
L 731.775256 249.501454 
L 733.809433 249.207312 
L 737.877785 249.207312 
L 741.946138 249.454817 
L 743.980314 249.454507 
L 746.014491 248.586891 
L 752.11702 248.470053 
L 754.151196 248.340215 
L 756.185373 248.374448 
L 758.219549 247.964736 
L 760.253725 248.058502 
L 762.287902 248.013134 
L 764.322078 247.53946 
L 766.356254 247.261217 
L 770.424607 247.204326 
L 772.458783 247.182445 
L 774.49296 247.310625 
L 792.800547 247.319896 
L 996.218182 247.319896 
L 996.218182 247.319896 
" style="fill:none;stroke:#ff7f0e;stroke-linecap:square;stroke-width:1.5;"/>
   </g>
   <g id="line2d_20">
    <path clip-path="url(#p064d6b1ef0)" d="M 184.581818 484.232727 
L 267.983049 484.147828 
L 272.051401 483.996827 
L 278.15393 483.246866 
L 282.222283 483.085664 
L 284.256459 482.788285 
L 286.290636 482.955532 
L 290.358988 482.538703 
L 292.393165 482.309478 
L 294.427341 482.333816 
L 298.495694 481.492797 
L 300.52987 480.851195 
L 302.564046 481.256172 
L 308.666576 479.639539 
L 310.700752 480.180085 
L 312.734928 479.690926 
L 316.803281 479.440958 
L 318.837457 478.549545 
L 320.871634 477.351233 
L 322.90581 476.373931 
L 324.939986 473.895082 
L 326.974163 473.960313 
L 329.008339 472.587505 
L 331.042515 470.883661 
L 333.076692 470.775706 
L 335.110868 472.095083 
L 337.145044 470.718366 
L 339.179221 468.927136 
L 341.213397 466.78889 
L 343.247573 468.070014 
L 345.28175 468.026236 
L 347.315926 470.185518 
L 349.350103 470.110516 
L 351.384279 472.245214 
L 353.418455 470.974267 
L 355.452632 468.51576 
L 357.486808 468.47134 
L 359.520984 467.14251 
L 361.555161 466.032199 
L 363.589337 464.154889 
L 365.623513 461.88304 
L 367.65769 458.968735 
L 369.691866 459.880349 
L 371.726042 461.218112 
L 373.760219 455.718048 
L 375.794395 449.392975 
L 377.828571 446.716429 
L 379.862748 446.306315 
L 381.896924 444.573421 
L 383.9311 440.996696 
L 385.965277 433.049179 
L 387.999453 431.430645 
L 390.03363 430.982957 
L 392.067806 426.863034 
L 394.101982 428.202891 
L 396.136159 424.510904 
L 398.170335 425.121834 
L 400.204511 416.395438 
L 402.238688 416.820635 
L 404.272864 414.759968 
L 406.30704 410.756501 
L 408.341217 409.691591 
L 410.375393 406.56591 
L 412.409569 406.673692 
L 414.443746 407.711069 
L 416.477922 399.202463 
L 418.512098 399.790722 
L 420.546275 392.058814 
L 422.580451 391.210775 
L 424.614627 384.442663 
L 426.648804 378.939048 
L 428.68298 380.568964 
L 430.717157 383.050698 
L 432.751333 387.420134 
L 434.785509 382.701503 
L 436.819686 375.230041 
L 438.853862 374.729864 
L 440.888038 377.480144 
L 442.922215 374.12555 
L 444.956391 370.115772 
L 446.990567 373.282328 
L 449.024744 371.933271 
L 451.05892 364.021088 
L 453.093096 360.760428 
L 455.127273 360.622835 
L 457.161449 354.12947 
L 459.195625 348.472815 
L 461.229802 349.112747 
L 463.263978 344.058399 
L 465.298154 344.020916 
L 467.332331 347.357927 
L 469.366507 339.649163 
L 471.400684 346.475254 
L 473.43486 341.557541 
L 475.469036 342.071313 
L 477.503213 337.710487 
L 479.537389 330.624746 
L 481.571565 338.150121 
L 483.605742 333.04722 
L 485.639918 324.148886 
L 487.674094 319.443772 
L 489.708271 313.411664 
L 491.742447 310.096703 
L 493.776623 300.934032 
L 495.8108 301.276339 
L 497.844976 299.791812 
L 501.913329 316.571151 
L 503.947505 322.080269 
L 505.981681 315.447847 
L 508.015858 321.799799 
L 510.050034 324.992523 
L 512.084211 325.739803 
L 514.118387 316.16118 
L 516.152563 314.996755 
L 518.18674 310.023808 
L 520.220916 300.571759 
L 522.255092 293.889062 
L 524.289269 294.755694 
L 526.323445 290.489256 
L 528.357621 297.215573 
L 530.391798 290.351468 
L 532.425974 296.126645 
L 534.46015 299.560737 
L 536.494327 303.696288 
L 538.528503 305.975316 
L 540.562679 304.192089 
L 542.596856 301.57346 
L 544.631032 302.285329 
L 546.665208 297.141772 
L 548.699385 292.402787 
L 550.733561 303.136876 
L 552.767738 299.888038 
L 554.801914 299.493966 
L 556.83609 295.196674 
L 558.870267 301.872121 
L 560.904443 311.86034 
L 562.938619 306.788202 
L 564.972796 306.776951 
L 567.006972 302.230664 
L 569.041148 303.262455 
L 571.075325 302.716534 
L 573.109501 299.450942 
L 575.143677 301.053913 
L 577.177854 291.323221 
L 579.21203 291.107696 
L 581.246206 287.627148 
L 583.280383 284.687769 
L 585.314559 275.816004 
L 587.348735 277.283661 
L 589.382912 273.051029 
L 591.417088 273.144873 
L 593.451265 271.774478 
L 595.485441 273.600134 
L 597.519617 268.095095 
L 599.553794 266.773668 
L 601.58797 260.604186 
L 603.622146 260.215708 
L 605.656323 267.322748 
L 607.690499 258.820998 
L 609.724675 255.379306 
L 611.758852 254.956335 
L 613.793028 255.434281 
L 615.827204 254.200975 
L 617.861381 257.971276 
L 619.895557 262.236251 
L 621.929733 268.61714 
L 623.96391 264.877784 
L 625.998086 268.991998 
L 628.032262 263.606516 
L 630.066439 255.874368 
L 632.100615 258.244935 
L 634.134792 255.022109 
L 638.203144 251.674908 
L 640.237321 249.087625 
L 642.271497 252.213371 
L 644.305673 254.600174 
L 646.33985 251.423441 
L 648.374026 252.937605 
L 650.408202 252.435162 
L 652.442379 253.425132 
L 654.476555 255.054892 
L 656.510731 255.054892 
L 658.544908 255.969999 
L 660.579084 257.987745 
L 662.61326 260.749406 
L 664.647437 262.493596 
L 666.681613 263.321152 
L 668.715789 261.910413 
L 670.749966 262.411198 
L 672.784142 262.135156 
L 676.852495 260.833953 
L 678.886671 260.333738 
L 684.9892 258.278288 
L 689.057553 255.12903 
L 691.091729 254.05371 
L 693.125906 253.456387 
L 695.160082 253.456387 
L 697.194258 253.780283 
L 701.262611 252.118154 
L 705.330964 251.498977 
L 707.36514 250.540495 
L 709.399316 250.57434 
L 711.433493 250.156523 
L 713.467669 250.156523 
L 715.501846 249.939988 
L 717.536022 249.939988 
L 719.570198 250.571233 
L 721.604375 250.245188 
L 723.638551 250.548031 
L 727.706904 250.735563 
L 729.74108 250.601323 
L 731.775256 250.108695 
L 735.843609 249.752844 
L 737.877785 249.616895 
L 739.911962 249.87191 
L 741.946138 250.381163 
L 743.980314 250.200752 
L 746.014491 250.266473 
L 748.048667 250.116334 
L 750.082843 250.147071 
L 754.151196 248.500868 
L 758.219549 247.603344 
L 760.253725 247.330098 
L 996.218182 247.319896 
L 996.218182 247.319896 
" style="fill:none;stroke:#2ca02c;stroke-linecap:square;stroke-width:1.5;"/>
   </g>
   <g id="line2d_21">
    <path clip-path="url(#p064d6b1ef0)" d="M 184.581818 484.232727 
L 267.983049 484.147828 
L 270.017225 483.932505 
L 274.085578 483.768175 
L 280.188107 483.240313 
L 282.222283 482.784095 
L 284.256459 482.505685 
L 286.290636 481.441259 
L 288.324812 481.220592 
L 292.393165 480.212287 
L 294.427341 479.933193 
L 296.461517 478.75845 
L 298.495694 478.642254 
L 300.52987 477.158051 
L 304.598223 474.965363 
L 306.632399 475.581902 
L 308.666576 475.684993 
L 310.700752 473.839551 
L 312.734928 473.018264 
L 314.769105 473.379285 
L 316.803281 472.05166 
L 318.837457 472.951128 
L 320.871634 472.84505 
L 322.90581 474.265759 
L 324.939986 473.387931 
L 326.974163 473.992687 
L 329.008339 472.75601 
L 331.042515 473.091877 
L 333.076692 471.975666 
L 335.110868 470.520342 
L 337.145044 468.445189 
L 339.179221 463.794387 
L 341.213397 460.543176 
L 343.247573 464.230435 
L 347.315926 467.020774 
L 349.350103 465.083649 
L 351.384279 464.723947 
L 353.418455 462.920518 
L 355.452632 462.633257 
L 357.486808 458.846374 
L 359.520984 458.947614 
L 361.555161 457.676563 
L 363.589337 453.8609 
L 365.623513 451.795219 
L 367.65769 445.369246 
L 369.691866 438.376339 
L 371.726042 442.147319 
L 373.760219 442.17917 
L 375.794395 439.405772 
L 377.828571 441.371457 
L 379.862748 436.344285 
L 381.896924 435.428026 
L 383.9311 428.915214 
L 385.965277 421.715942 
L 387.999453 415.472808 
L 390.03363 412.893669 
L 392.067806 408.891368 
L 394.101982 399.524223 
L 396.136159 394.922042 
L 398.170335 393.823015 
L 400.204511 382.003953 
L 402.238688 379.812827 
L 404.272864 383.246841 
L 406.30704 378.195962 
L 408.341217 376.606029 
L 410.375393 364.311812 
L 412.409569 362.663913 
L 414.443746 356.610298 
L 416.477922 361.974714 
L 418.512098 359.854281 
L 420.546275 353.627921 
L 422.580451 356.947763 
L 424.614627 351.746137 
L 426.648804 345.6915 
L 428.68298 338.134973 
L 430.717157 329.865437 
L 432.751333 330.287035 
L 434.785509 329.360495 
L 436.819686 323.895386 
L 438.853862 316.492637 
L 440.888038 312.366499 
L 442.922215 309.639706 
L 444.956391 316.225464 
L 446.990567 306.514115 
L 449.024744 286.867502 
L 451.05892 269.903453 
L 453.093096 255.079052 
L 455.127273 265.79908 
L 457.161449 260.712013 
L 459.195625 251.034315 
L 461.229802 242.301218 
L 463.263978 249.392384 
L 465.298154 243.844825 
L 467.332331 251.467307 
L 469.366507 256.331935 
L 471.400684 245.428 
L 473.43486 248.308597 
L 475.469036 259.279108 
L 477.503213 249.595972 
L 479.537389 253.342837 
L 481.571565 254.594399 
L 483.605742 266.070409 
L 485.639918 278.747563 
L 487.674094 263.77126 
L 489.708271 262.129019 
L 491.742447 251.143903 
L 493.776623 248.23811 
L 495.8108 244.691828 
L 497.844976 254.447548 
L 499.879152 241.172218 
L 501.913329 237.785501 
L 503.947505 236.155223 
L 505.981681 232.065273 
L 508.015858 230.806176 
L 510.050034 223.42905 
L 512.084211 236.076062 
L 514.118387 239.828055 
L 516.152563 231.662397 
L 518.18674 226.325961 
L 520.220916 222.677807 
L 522.255092 216.581867 
L 524.289269 206.905567 
L 526.323445 211.426049 
L 528.357621 211.065071 
L 530.391798 217.862639 
L 532.425974 215.596015 
L 534.46015 208.821623 
L 536.494327 223.934315 
L 538.528503 232.427779 
L 540.562679 238.157847 
L 542.596856 244.921984 
L 544.631032 254.921998 
L 546.665208 249.88522 
L 548.699385 247.492176 
L 550.733561 241.256584 
L 552.767738 241.136172 
L 554.801914 247.584103 
L 556.83609 254.984146 
L 558.870267 262.842507 
L 560.904443 256.301301 
L 562.938619 252.84358 
L 564.972796 252.016335 
L 567.006972 244.933843 
L 569.041148 237.299786 
L 571.075325 246.653278 
L 573.109501 257.559362 
L 575.143677 252.921291 
L 577.177854 251.526658 
L 579.21203 255.23406 
L 581.246206 247.920403 
L 583.280383 249.604543 
L 585.314559 252.050206 
L 587.348735 250.102143 
L 589.382912 256.098723 
L 591.417088 260.636529 
L 593.451265 264.440493 
L 595.485441 264.070737 
L 597.519617 266.432112 
L 599.553794 258.963654 
L 601.58797 257.320118 
L 603.622146 244.512711 
L 605.656323 246.051191 
L 607.690499 254.704687 
L 609.724675 258.217331 
L 611.758852 257.991448 
L 613.793028 255.813618 
L 615.827204 256.915766 
L 617.861381 256.841291 
L 619.895557 255.783295 
L 621.929733 255.313636 
L 623.96391 257.4968 
L 625.998086 258.520485 
L 628.032262 257.957577 
L 630.066439 256.016998 
L 634.134792 259.216286 
L 636.168968 260.263691 
L 638.203144 261.62624 
L 640.237321 259.659144 
L 642.271497 259.327583 
L 644.305673 262.721706 
L 646.33985 260.590125 
L 648.374026 259.972682 
L 650.408202 260.655044 
L 652.442379 259.120449 
L 654.476555 257.92148 
L 656.510731 258.482005 
L 658.544908 252.667286 
L 660.579084 253.085026 
L 662.61326 253.616626 
L 664.647437 255.89309 
L 666.681613 254.167441 
L 668.715789 253.704825 
L 670.749966 255.019131 
L 674.818319 254.966175 
L 676.852495 254.218428 
L 678.886671 253.154968 
L 680.920848 254.094805 
L 682.955024 252.700017 
L 684.9892 252.372392 
L 687.023377 252.625155 
L 689.057553 252.729356 
L 691.091729 253.409957 
L 693.125906 253.649176 
L 695.160082 253.686724 
L 697.194258 254.272834 
L 699.228435 254.259757 
L 701.262611 252.319566 
L 703.296787 252.277176 
L 705.330964 251.511846 
L 707.36514 251.511846 
L 709.399316 251.998933 
L 711.433493 251.803399 
L 713.467669 251.046926 
L 717.536022 250.818298 
L 719.570198 250.314457 
L 725.672727 249.460696 
L 729.74108 249.502231 
L 731.775256 249.501454 
L 733.809433 249.207312 
L 735.843609 249.36838 
L 743.980314 249.454507 
L 746.014491 248.586891 
L 748.048667 248.566564 
L 750.082843 248.391798 
L 754.151196 248.494498 
L 756.185373 248.374448 
L 758.219549 248.420515 
L 760.253725 248.058502 
L 762.287902 248.013134 
L 764.322078 247.53946 
L 770.424607 247.462422 
L 772.458783 247.315753 
L 813.14231 247.319896 
L 996.218182 247.319896 
L 996.218182 247.319896 
" style="fill:none;stroke:#d62728;stroke-dasharray:5.55,2.4;stroke-dashoffset:0;stroke-width:1.5;"/>
   </g>
   <g id="line2d_22">
    <path clip-path="url(#p064d6b1ef0)" d="M 184.581818 484.232727 
L 267.983049 484.147828 
L 270.017225 484.067205 
L 272.051401 483.814542 
L 278.15393 483.426397 
L 280.188107 483.390772 
L 282.222283 483.085664 
L 284.256459 483.218469 
L 290.358988 482.538703 
L 294.427341 482.096279 
L 296.461517 482.141506 
L 298.495694 481.433639 
L 300.52987 481.668425 
L 304.598223 481.427235 
L 306.632399 481.086138 
L 308.666576 480.916524 
L 310.700752 480.413808 
L 312.734928 479.753898 
L 314.769105 478.63278 
L 316.803281 477.26188 
L 318.837457 477.23096 
L 322.90581 475.174292 
L 324.939986 473.097348 
L 326.974163 472.712621 
L 329.008339 470.995149 
L 331.042515 471.391704 
L 333.076692 472.853904 
L 335.110868 472.537206 
L 337.145044 473.919889 
L 339.179221 474.583642 
L 341.213397 476.059224 
L 343.247573 476.419035 
L 345.28175 474.923265 
L 347.315926 474.686289 
L 349.350103 474.618957 
L 351.384279 473.774271 
L 353.418455 472.120261 
L 355.452632 471.004227 
L 359.520984 467.752709 
L 361.555161 465.486939 
L 363.589337 464.154889 
L 365.623513 461.18878 
L 367.65769 462.192309 
L 369.691866 461.504982 
L 371.726042 455.807454 
L 373.760219 449.356321 
L 375.794395 446.717691 
L 377.828571 449.0373 
L 379.862748 446.306315 
L 381.896924 445.105119 
L 383.9311 437.069031 
L 385.965277 439.075014 
L 387.999453 435.143588 
L 390.03363 436.814812 
L 392.067806 433.036795 
L 394.101982 432.084735 
L 396.136159 430.889333 
L 398.170335 427.268273 
L 400.204511 422.467263 
L 402.238688 418.481294 
L 404.272864 411.753456 
L 406.30704 412.157445 
L 408.341217 405.308385 
L 410.375393 405.964839 
L 412.409569 402.403505 
L 414.443746 403.567108 
L 416.477922 403.40494 
L 418.512098 394.954314 
L 420.546275 387.708631 
L 422.580451 388.90536 
L 424.614627 391.051987 
L 426.648804 390.204951 
L 428.68298 385.50813 
L 430.717157 381.507376 
L 432.751333 387.398304 
L 434.785509 381.616886 
L 436.819686 376.388692 
L 438.853862 367.084426 
L 440.888038 362.543772 
L 442.922215 365.467782 
L 444.956391 365.494519 
L 446.990567 365.142061 
L 449.024744 359.377293 
L 451.05892 356.483102 
L 453.093096 348.558735 
L 455.127273 341.931622 
L 457.161449 345.860025 
L 459.195625 346.530358 
L 461.229802 346.036099 
L 463.263978 340.734582 
L 465.298154 344.965246 
L 467.332331 339.970314 
L 469.366507 331.057427 
L 471.400684 334.555376 
L 473.43486 344.409433 
L 475.469036 349.545105 
L 477.503213 340.710422 
L 479.537389 336.369173 
L 481.571565 337.529416 
L 483.605742 333.90414 
L 485.639918 329.035123 
L 487.674094 330.609041 
L 489.708271 340.901514 
L 491.742447 330.341454 
L 493.776623 326.021361 
L 495.8108 332.26186 
L 497.844976 329.233804 
L 499.879152 321.949486 
L 501.913329 329.391259 
L 503.947505 331.351453 
L 505.981681 336.241963 
L 508.015858 331.416981 
L 510.050034 331.719681 
L 512.084211 321.097666 
L 516.152563 311.074359 
L 518.18674 301.015757 
L 520.220916 300.571759 
L 522.255092 293.889062 
L 524.289269 294.755694 
L 526.323445 286.055497 
L 528.357621 287.386699 
L 530.391798 292.456481 
L 532.425974 300.618137 
L 534.46015 293.946291 
L 536.494327 297.743587 
L 538.528503 303.092013 
L 540.562679 303.200436 
L 542.596856 306.829492 
L 546.665208 297.543042 
L 548.699385 307.74289 
L 552.767738 306.855037 
L 554.801914 315.669976 
L 556.83609 315.890317 
L 558.870267 314.071497 
L 560.904443 310.895476 
L 562.938619 304.566804 
L 564.972796 302.710332 
L 567.006972 300.112665 
L 569.041148 301.487397 
L 571.075325 306.661756 
L 573.109501 300.005045 
L 575.143677 293.984408 
L 577.177854 291.054235 
L 579.21203 282.819528 
L 581.246206 277.494007 
L 583.280383 272.537244 
L 585.314559 270.356255 
L 587.348735 270.454553 
L 589.382912 260.517049 
L 591.417088 259.469696 
L 593.451265 260.848869 
L 595.485441 263.484369 
L 597.519617 261.76338 
L 599.553794 260.897215 
L 601.58797 268.121534 
L 603.622146 271.724034 
L 605.656323 274.116379 
L 607.690499 267.404913 
L 609.724675 265.365466 
L 611.758852 264.975771 
L 613.793028 264.759858 
L 615.827204 265.507423 
L 617.861381 267.72148 
L 619.895557 264.249543 
L 621.929733 263.581501 
L 623.96391 262.059827 
L 625.998086 266.592894 
L 628.032262 262.321161 
L 630.066439 255.033736 
L 632.100615 252.635098 
L 634.134792 255.022109 
L 636.168968 253.244514 
L 638.203144 256.048824 
L 640.237321 253.835129 
L 642.271497 252.213371 
L 644.305673 254.285238 
L 646.33985 256.544508 
L 648.374026 253.36635 
L 650.408202 254.803321 
L 652.442379 252.702141 
L 654.476555 252.566166 
L 656.510731 252.206301 
L 658.544908 253.991121 
L 660.579084 256.064438 
L 662.61326 257.471837 
L 664.647437 260.089081 
L 666.681613 259.325745 
L 668.715789 260.422454 
L 670.749966 261.945526 
L 672.784142 261.19128 
L 676.852495 260.370327 
L 678.886671 260.370327 
L 680.920848 259.488107 
L 682.955024 257.915808 
L 687.023377 256.750374 
L 689.057553 255.12903 
L 691.091729 254.05371 
L 693.125906 254.05371 
L 695.160082 254.852496 
L 697.194258 254.041979 
L 699.228435 254.17697 
L 703.296787 253.507452 
L 705.330964 253.542152 
L 707.36514 252.591336 
L 709.399316 251.910864 
L 711.433493 251.523396 
L 713.467669 252.379255 
L 715.501846 252.252291 
L 717.536022 252.252291 
L 719.570198 252.024803 
L 721.604375 252.024803 
L 723.638551 250.976983 
L 725.672727 250.629937 
L 729.74108 250.26 
L 731.775256 250.346774 
L 733.809433 249.947912 
L 735.843609 249.920644 
L 737.877785 249.623317 
L 739.911962 250.175012 
L 741.946138 250.188995 
L 743.980314 250.403562 
L 746.014491 250.266473 
L 748.048667 248.960765 
L 750.082843 248.99505 
L 752.11702 248.819792 
L 756.185373 248.026703 
L 758.219549 247.803409 
L 760.253725 247.330098 
L 762.287902 247.0676 
L 764.322078 247.347759 
L 770.424607 247.26795 
L 772.458783 247.408509 
L 784.663841 247.240139 
L 788.732194 247.319896 
L 996.218182 247.319896 
L 996.218182 247.319896 
" style="fill:none;stroke:#9467bd;stroke-dasharray:5.55,2.4;stroke-dashoffset:0;stroke-width:1.5;"/>
   </g>
   <g id="line2d_23">
    <path clip-path="url(#p064d6b1ef0)" d="M 184.581818 484.232727 
L 265.948872 484.232726 
L 267.983049 483.863747 
L 270.017225 483.999136 
L 272.051401 482.955826 
L 274.085578 482.813809 
L 276.119754 482.856722 
L 278.15393 480.982966 
L 280.188107 480.749083 
L 282.222283 479.873492 
L 284.256459 480.164943 
L 286.290636 480.839507 
L 288.324812 479.622466 
L 290.358988 478.559108 
L 292.393165 476.638763 
L 294.427341 472.433167 
L 296.461517 469.498592 
L 298.495694 470.863804 
L 300.52987 474.197967 
L 302.564046 473.078276 
L 304.598223 470.15749 
L 306.632399 470.760713 
L 308.666576 468.995156 
L 310.700752 468.011375 
L 312.734928 466.08083 
L 314.769105 466.29641 
L 316.803281 461.816289 
L 318.837457 459.838658 
L 320.871634 459.507362 
L 322.90581 457.699082 
L 324.939986 461.225959 
L 326.974163 451.265094 
L 329.008339 448.562241 
L 331.042515 449.770422 
L 333.076692 445.521418 
L 335.110868 450.327374 
L 337.145044 444.797365 
L 339.179221 444.373142 
L 341.213397 446.609518 
L 343.247573 445.379063 
L 345.28175 442.163497 
L 347.315926 447.012986 
L 349.350103 449.617696 
L 351.384279 437.667596 
L 353.418455 438.583402 
L 355.452632 441.669386 
L 357.486808 426.396249 
L 359.520984 424.723406 
L 361.555161 430.003714 
L 363.589337 430.074149 
L 365.623513 423.837359 
L 367.65769 425.119549 
L 369.691866 416.341783 
L 371.726042 402.27258 
L 373.760219 398.369884 
L 375.794395 395.421241 
L 377.828571 397.090167 
L 379.862748 391.503144 
L 381.896924 381.957291 
L 383.9311 368.203885 
L 385.965277 364.187826 
L 387.999453 343.209053 
L 390.03363 345.469941 
L 392.067806 337.13124 
L 394.101982 325.727633 
L 396.136159 327.993338 
L 398.170335 327.547735 
L 400.204511 319.043473 
L 402.238688 318.850399 
L 404.272864 320.244229 
L 406.30704 317.394796 
L 408.341217 322.827472 
L 410.375393 325.922701 
L 412.409569 317.542632 
L 414.443746 288.589708 
L 416.477922 285.783818 
L 418.512098 281.169234 
L 420.546275 283.9918 
L 422.580451 283.551984 
L 424.614627 283.544125 
L 426.648804 273.788806 
L 428.68298 276.699597 
L 432.751333 276.604795 
L 434.785509 277.274416 
L 436.819686 278.646028 
L 438.853862 273.089483 
L 440.888038 272.788271 
L 442.922215 272.609051 
L 444.956391 272.247193 
L 446.990567 272.454561 
L 449.024744 272.111529 
L 451.05892 264.234498 
L 453.093096 263.774394 
L 455.127273 264.103754 
L 459.195625 264.104168 
L 461.229802 261.488426 
L 463.263978 262.113456 
L 465.298154 262.872157 
L 469.366507 261.732798 
L 471.400684 258.105128 
L 473.43486 253.737297 
L 477.503213 253.734656 
L 479.537389 247.483656 
L 481.571565 247.444425 
L 483.605742 247.133529 
L 485.639918 248.369139 
L 489.708271 250.413169 
L 491.742447 252.799273 
L 493.776623 252.779308 
L 495.8108 254.050266 
L 497.844976 254.634096 
L 499.879152 254.331771 
L 501.913329 256.844269 
L 503.947505 249.898167 
L 505.981681 250.857503 
L 508.015858 250.611862 
L 510.050034 249.977199 
L 512.084211 249.922302 
L 514.118387 249.987013 
L 518.18674 249.778636 
L 520.220916 249.778636 
L 522.255092 250.325566 
L 524.289269 249.949051 
L 526.323445 249.730574 
L 528.357621 249.998226 
L 532.425974 249.807949 
L 534.46015 251.745705 
L 536.494327 251.491234 
L 540.562679 252.039848 
L 546.665208 251.969154 
L 548.699385 251.466038 
L 556.83609 251.634589 
L 558.870267 252.221243 
L 560.904443 252.542368 
L 562.938619 253.723055 
L 564.972796 253.702546 
L 567.006972 253.318185 
L 569.041148 254.443431 
L 571.075325 254.313334 
L 573.109501 254.338374 
L 575.143677 255.082211 
L 577.177854 254.713128 
L 579.21203 254.538285 
L 583.280383 254.462749 
L 585.314559 255.934989 
L 587.348735 255.871209 
L 589.382912 254.819221 
L 593.451265 254.822872 
L 595.485441 254.700621 
L 597.519617 254.767016 
L 599.553794 254.374343 
L 607.690499 254.048531 
L 609.724675 253.818841 
L 613.793028 253.554038 
L 615.827204 253.136479 
L 617.861381 253.137386 
L 619.895557 252.887679 
L 621.929733 253.031112 
L 623.96391 252.98217 
L 625.998086 253.060581 
L 628.032262 252.971916 
L 630.066439 253.652465 
L 632.100615 253.406047 
L 638.203144 253.305859 
L 642.271497 253.189305 
L 648.374026 253.086838 
L 650.408202 252.769727 
L 656.510731 252.39285 
L 658.544908 252.227432 
L 664.647437 252.214458 
L 666.681613 252.097723 
L 668.715789 252.308302 
L 672.784142 252.297012 
L 674.818319 252.146717 
L 676.852495 251.707303 
L 678.886671 251.526451 
L 680.920848 251.660225 
L 682.955024 251.211437 
L 684.9892 251.178318 
L 689.057553 249.282201 
L 691.091729 249.086511 
L 693.125906 249.061963 
L 695.160082 248.920886 
L 697.194258 248.907576 
L 699.228435 249.048161 
L 705.330964 249.03933 
L 707.36514 248.700467 
L 709.399316 248.53 
L 711.433493 248.640054 
L 713.467669 248.633218 
L 715.501846 248.389519 
L 721.604375 248.395993 
L 723.638551 248.260509 
L 725.672727 248.260509 
L 729.74108 248.11024 
L 731.775256 247.533738 
L 748.048667 247.532158 
L 754.151196 247.562352 
L 756.185373 247.278904 
L 996.218182 247.319896 
L 996.218182 247.319896 
" style="fill:none;stroke:#8c564b;stroke-dasharray:5.55,2.4;stroke-dashoffset:0;stroke-width:1.5;"/>
   </g>
   <g id="patch_3">
    <path d="M 144 504 
L 144 69.12 
" style="fill:none;stroke:#000000;stroke-linecap:square;stroke-linejoin:miter;stroke-width:0.8;"/>
   </g>
   <g id="patch_4">
    <path d="M 1036.8 504 
L 1036.8 69.12 
" style="fill:none;stroke:#000000;stroke-linecap:square;stroke-linejoin:miter;stroke-width:0.8;"/>
   </g>
   <g id="patch_5">
    <path d="M 144 504 
L 1036.8 504 
" style="fill:none;stroke:#000000;stroke-linecap:square;stroke-linejoin:miter;stroke-width:0.8;"/>
   </g>
   <g id="patch_6">
    <path d="M 144 69.12 
L 1036.8 69.12 
" style="fill:none;stroke:#000000;stroke-linecap:square;stroke-linejoin:miter;stroke-width:0.8;"/>
   </g>
   <g id="legend_1">
    <g id="patch_7">
     <path d="M 905.367188 166.579375 
L 1029.8 166.579375 
Q 1031.8 166.579375 1031.8 164.579375 
L 1031.8 76.12 
Q 1031.8 74.12 1029.8 74.12 
L 905.367188 74.12 
Q 903.367188 74.12 903.367188 76.12 
L 903.367188 164.579375 
Q 903.367188 166.579375 905.367188 166.579375 
z
" style="fill:#ffffff;opacity:0.8;stroke:#cccccc;stroke-linejoin:miter;"/>
    </g>
    <g id="line2d_24">
     <path d="M 907.367188 82.218438 
L 927.367188 82.218438 
" style="fill:none;stroke:#1f77b4;stroke-linecap:square;stroke-width:1.5;"/>
    </g>
    <g id="line2d_25"/>
    <g id="text_20">
     <!-- taylorfo -->
     <defs>
      <path d="M 18.3125 70.21875 
L 18.3125 54.6875 
L 36.8125 54.6875 
L 36.8125 47.703125 
L 18.3125 47.703125 
L 18.3125 18.015625 
Q 18.3125 11.328125 20.140625 9.421875 
Q 21.96875 7.515625 27.59375 7.515625 
L 36.8125 7.515625 
L 36.8125 0 
L 27.59375 0 
Q 17.1875 0 13.234375 3.875 
Q 9.28125 7.765625 9.28125 18.015625 
L 9.28125 47.703125 
L 2.6875 47.703125 
L 2.6875 54.6875 
L 9.28125 54.6875 
L 9.28125 70.21875 
z
" id="DejaVuSans-116"/>
      <path d="M 34.28125 27.484375 
Q 23.390625 27.484375 19.1875 25 
Q 14.984375 22.515625 14.984375 16.5 
Q 14.984375 11.71875 18.140625 8.90625 
Q 21.296875 6.109375 26.703125 6.109375 
Q 34.1875 6.109375 38.703125 11.40625 
Q 43.21875 16.703125 43.21875 25.484375 
L 43.21875 27.484375 
z
M 52.203125 31.203125 
L 52.203125 0 
L 43.21875 0 
L 43.21875 8.296875 
Q 40.140625 3.328125 35.546875 0.953125 
Q 30.953125 -1.421875 24.3125 -1.421875 
Q 15.921875 -1.421875 10.953125 3.296875 
Q 6 8.015625 6 15.921875 
Q 6 25.140625 12.171875 29.828125 
Q 18.359375 34.515625 30.609375 34.515625 
L 43.21875 34.515625 
L 43.21875 35.40625 
Q 43.21875 41.609375 39.140625 45 
Q 35.0625 48.390625 27.6875 48.390625 
Q 23 48.390625 18.546875 47.265625 
Q 14.109375 46.140625 10.015625 43.890625 
L 10.015625 52.203125 
Q 14.9375 54.109375 19.578125 55.046875 
Q 24.21875 56 28.609375 56 
Q 40.484375 56 46.34375 49.84375 
Q 52.203125 43.703125 52.203125 31.203125 
z
" id="DejaVuSans-97"/>
      <path d="M 32.171875 -5.078125 
Q 28.375 -14.84375 24.75 -17.8125 
Q 21.140625 -20.796875 15.09375 -20.796875 
L 7.90625 -20.796875 
L 7.90625 -13.28125 
L 13.1875 -13.28125 
Q 16.890625 -13.28125 18.9375 -11.515625 
Q 21 -9.765625 23.484375 -3.21875 
L 25.09375 0.875 
L 2.984375 54.6875 
L 12.5 54.6875 
L 29.59375 11.921875 
L 46.6875 54.6875 
L 56.203125 54.6875 
z
" id="DejaVuSans-121"/>
      <path d="M 9.421875 75.984375 
L 18.40625 75.984375 
L 18.40625 0 
L 9.421875 0 
z
" id="DejaVuSans-108"/>
     </defs>
     <g transform="translate(935.367188 85.718438)scale(0.1 -0.1)">
      <use xlink:href="#DejaVuSans-116"/>
      <use x="39.208984" xlink:href="#DejaVuSans-97"/>
      <use x="100.488281" xlink:href="#DejaVuSans-121"/>
      <use x="159.667969" xlink:href="#DejaVuSans-108"/>
      <use x="187.451172" xlink:href="#DejaVuSans-111"/>
      <use x="248.632812" xlink:href="#DejaVuSans-114"/>
      <use x="289.746094" xlink:href="#DejaVuSans-102"/>
      <use x="324.951172" xlink:href="#DejaVuSans-111"/>
     </g>
    </g>
    <g id="line2d_26">
     <path d="M 907.367188 96.896563 
L 927.367188 96.896563 
" style="fill:none;stroke:#ff7f0e;stroke-linecap:square;stroke-width:1.5;"/>
    </g>
    <g id="line2d_27"/>
    <g id="text_21">
     <!-- taylorfo_abs -->
     <defs>
      <path d="M 50.984375 -16.609375 
L 50.984375 -23.578125 
L -0.984375 -23.578125 
L -0.984375 -16.609375 
z
" id="DejaVuSans-95"/>
     </defs>
     <g transform="translate(935.367188 100.396563)scale(0.1 -0.1)">
      <use xlink:href="#DejaVuSans-116"/>
      <use x="39.208984" xlink:href="#DejaVuSans-97"/>
      <use x="100.488281" xlink:href="#DejaVuSans-121"/>
      <use x="159.667969" xlink:href="#DejaVuSans-108"/>
      <use x="187.451172" xlink:href="#DejaVuSans-111"/>
      <use x="248.632812" xlink:href="#DejaVuSans-114"/>
      <use x="289.746094" xlink:href="#DejaVuSans-102"/>
      <use x="324.951172" xlink:href="#DejaVuSans-111"/>
      <use x="386.132812" xlink:href="#DejaVuSans-95"/>
      <use x="436.132812" xlink:href="#DejaVuSans-97"/>
      <use x="497.412109" xlink:href="#DejaVuSans-98"/>
      <use x="560.888672" xlink:href="#DejaVuSans-115"/>
     </g>
    </g>
    <g id="line2d_28">
     <path d="M 907.367188 111.852813 
L 927.367188 111.852813 
" style="fill:none;stroke:#2ca02c;stroke-linecap:square;stroke-width:1.5;"/>
    </g>
    <g id="line2d_29"/>
    <g id="text_22">
     <!-- taylorfo_sq -->
     <defs>
      <path d="M 14.796875 27.296875 
Q 14.796875 17.390625 18.875 11.75 
Q 22.953125 6.109375 30.078125 6.109375 
Q 37.203125 6.109375 41.296875 11.75 
Q 45.40625 17.390625 45.40625 27.296875 
Q 45.40625 37.203125 41.296875 42.84375 
Q 37.203125 48.484375 30.078125 48.484375 
Q 22.953125 48.484375 18.875 42.84375 
Q 14.796875 37.203125 14.796875 27.296875 
z
M 45.40625 8.203125 
Q 42.578125 3.328125 38.25 0.953125 
Q 33.9375 -1.421875 27.875 -1.421875 
Q 17.96875 -1.421875 11.734375 6.484375 
Q 5.515625 14.40625 5.515625 27.296875 
Q 5.515625 40.1875 11.734375 48.09375 
Q 17.96875 56 27.875 56 
Q 33.9375 56 38.25 53.625 
Q 42.578125 51.265625 45.40625 46.390625 
L 45.40625 54.6875 
L 54.390625 54.6875 
L 54.390625 -20.796875 
L 45.40625 -20.796875 
z
" id="DejaVuSans-113"/>
     </defs>
     <g transform="translate(935.367188 115.352813)scale(0.1 -0.1)">
      <use xlink:href="#DejaVuSans-116"/>
      <use x="39.208984" xlink:href="#DejaVuSans-97"/>
      <use x="100.488281" xlink:href="#DejaVuSans-121"/>
      <use x="159.667969" xlink:href="#DejaVuSans-108"/>
      <use x="187.451172" xlink:href="#DejaVuSans-111"/>
      <use x="248.632812" xlink:href="#DejaVuSans-114"/>
      <use x="289.746094" xlink:href="#DejaVuSans-102"/>
      <use x="324.951172" xlink:href="#DejaVuSans-111"/>
      <use x="386.132812" xlink:href="#DejaVuSans-95"/>
      <use x="436.132812" xlink:href="#DejaVuSans-115"/>
      <use x="488.232422" xlink:href="#DejaVuSans-113"/>
     </g>
    </g>
    <g id="line2d_30">
     <path d="M 907.367188 126.809063 
L 927.367188 126.809063 
" style="fill:none;stroke:#d62728;stroke-dasharray:5.55,2.4;stroke-dashoffset:0;stroke-width:1.5;"/>
    </g>
    <g id="line2d_31"/>
    <g id="text_23">
     <!-- taylorfo_abs_norm -->
     <g transform="translate(935.367188 130.309063)scale(0.1 -0.1)">
      <use xlink:href="#DejaVuSans-116"/>
      <use x="39.208984" xlink:href="#DejaVuSans-97"/>
      <use x="100.488281" xlink:href="#DejaVuSans-121"/>
      <use x="159.667969" xlink:href="#DejaVuSans-108"/>
      <use x="187.451172" xlink:href="#DejaVuSans-111"/>
      <use x="248.632812" xlink:href="#DejaVuSans-114"/>
      <use x="289.746094" xlink:href="#DejaVuSans-102"/>
      <use x="324.951172" xlink:href="#DejaVuSans-111"/>
      <use x="386.132812" xlink:href="#DejaVuSans-95"/>
      <use x="436.132812" xlink:href="#DejaVuSans-97"/>
      <use x="497.412109" xlink:href="#DejaVuSans-98"/>
      <use x="560.888672" xlink:href="#DejaVuSans-115"/>
      <use x="612.988281" xlink:href="#DejaVuSans-95"/>
      <use x="662.988281" xlink:href="#DejaVuSans-110"/>
      <use x="726.367188" xlink:href="#DejaVuSans-111"/>
      <use x="787.548828" xlink:href="#DejaVuSans-114"/>
      <use x="826.912109" xlink:href="#DejaVuSans-109"/>
     </g>
    </g>
    <g id="line2d_32">
     <path d="M 907.367188 141.765313 
L 927.367188 141.765313 
" style="fill:none;stroke:#9467bd;stroke-dasharray:5.55,2.4;stroke-dashoffset:0;stroke-width:1.5;"/>
    </g>
    <g id="line2d_33"/>
    <g id="text_24">
     <!-- taylorfo_sq_norm -->
     <g transform="translate(935.367188 145.265313)scale(0.1 -0.1)">
      <use xlink:href="#DejaVuSans-116"/>
      <use x="39.208984" xlink:href="#DejaVuSans-97"/>
      <use x="100.488281" xlink:href="#DejaVuSans-121"/>
      <use x="159.667969" xlink:href="#DejaVuSans-108"/>
      <use x="187.451172" xlink:href="#DejaVuSans-111"/>
      <use x="248.632812" xlink:href="#DejaVuSans-114"/>
      <use x="289.746094" xlink:href="#DejaVuSans-102"/>
      <use x="324.951172" xlink:href="#DejaVuSans-111"/>
      <use x="386.132812" xlink:href="#DejaVuSans-95"/>
      <use x="436.132812" xlink:href="#DejaVuSans-115"/>
      <use x="488.232422" xlink:href="#DejaVuSans-113"/>
      <use x="551.708984" xlink:href="#DejaVuSans-95"/>
      <use x="601.708984" xlink:href="#DejaVuSans-110"/>
      <use x="665.087891" xlink:href="#DejaVuSans-111"/>
      <use x="726.269531" xlink:href="#DejaVuSans-114"/>
      <use x="765.632812" xlink:href="#DejaVuSans-109"/>
     </g>
    </g>
    <g id="line2d_34">
     <path d="M 907.367188 156.721563 
L 927.367188 156.721563 
" style="fill:none;stroke:#8c564b;stroke-dasharray:5.55,2.4;stroke-dashoffset:0;stroke-width:1.5;"/>
    </g>
    <g id="line2d_35"/>
    <g id="text_25">
     <!-- Molchanov_group -->
     <defs>
      <path d="M 9.8125 72.90625 
L 24.515625 72.90625 
L 43.109375 23.296875 
L 61.8125 72.90625 
L 76.515625 72.90625 
L 76.515625 0 
L 66.890625 0 
L 66.890625 64.015625 
L 48.09375 14.015625 
L 38.1875 14.015625 
L 19.390625 64.015625 
L 19.390625 0 
L 9.8125 0 
z
" id="DejaVuSans-77"/>
      <path d="M 48.78125 52.59375 
L 48.78125 44.1875 
Q 44.96875 46.296875 41.140625 47.34375 
Q 37.3125 48.390625 33.40625 48.390625 
Q 24.65625 48.390625 19.8125 42.84375 
Q 14.984375 37.3125 14.984375 27.296875 
Q 14.984375 17.28125 19.8125 11.734375 
Q 24.65625 6.203125 33.40625 6.203125 
Q 37.3125 6.203125 41.140625 7.25 
Q 44.96875 8.296875 48.78125 10.40625 
L 48.78125 2.09375 
Q 45.015625 0.34375 40.984375 -0.53125 
Q 36.96875 -1.421875 32.421875 -1.421875 
Q 20.0625 -1.421875 12.78125 6.34375 
Q 5.515625 14.109375 5.515625 27.296875 
Q 5.515625 40.671875 12.859375 48.328125 
Q 20.21875 56 33.015625 56 
Q 37.15625 56 41.109375 55.140625 
Q 45.0625 54.296875 48.78125 52.59375 
z
" id="DejaVuSans-99"/>
      <path d="M 54.890625 33.015625 
L 54.890625 0 
L 45.90625 0 
L 45.90625 32.71875 
Q 45.90625 40.484375 42.875 44.328125 
Q 39.84375 48.1875 33.796875 48.1875 
Q 26.515625 48.1875 22.3125 43.546875 
Q 18.109375 38.921875 18.109375 30.90625 
L 18.109375 0 
L 9.078125 0 
L 9.078125 75.984375 
L 18.109375 75.984375 
L 18.109375 46.1875 
Q 21.34375 51.125 25.703125 53.5625 
Q 30.078125 56 35.796875 56 
Q 45.21875 56 50.046875 50.171875 
Q 54.890625 44.34375 54.890625 33.015625 
z
" id="DejaVuSans-104"/>
      <path d="M 2.984375 54.6875 
L 12.5 54.6875 
L 29.59375 8.796875 
L 46.6875 54.6875 
L 56.203125 54.6875 
L 35.6875 0 
L 23.484375 0 
z
" id="DejaVuSans-118"/>
      <path d="M 45.40625 27.984375 
Q 45.40625 37.75 41.375 43.109375 
Q 37.359375 48.484375 30.078125 48.484375 
Q 22.859375 48.484375 18.828125 43.109375 
Q 14.796875 37.75 14.796875 27.984375 
Q 14.796875 18.265625 18.828125 12.890625 
Q 22.859375 7.515625 30.078125 7.515625 
Q 37.359375 7.515625 41.375 12.890625 
Q 45.40625 18.265625 45.40625 27.984375 
z
M 54.390625 6.78125 
Q 54.390625 -7.171875 48.1875 -13.984375 
Q 42 -20.796875 29.203125 -20.796875 
Q 24.46875 -20.796875 20.265625 -20.09375 
Q 16.0625 -19.390625 12.109375 -17.921875 
L 12.109375 -9.1875 
Q 16.0625 -11.328125 19.921875 -12.34375 
Q 23.78125 -13.375 27.78125 -13.375 
Q 36.625 -13.375 41.015625 -8.765625 
Q 45.40625 -4.15625 45.40625 5.171875 
L 45.40625 9.625 
Q 42.625 4.78125 38.28125 2.390625 
Q 33.9375 0 27.875 0 
Q 17.828125 0 11.671875 7.65625 
Q 5.515625 15.328125 5.515625 27.984375 
Q 5.515625 40.671875 11.671875 48.328125 
Q 17.828125 56 27.875 56 
Q 33.9375 56 38.28125 53.609375 
Q 42.625 51.21875 45.40625 46.390625 
L 45.40625 54.6875 
L 54.390625 54.6875 
z
" id="DejaVuSans-103"/>
     </defs>
     <g transform="translate(935.367188 160.221563)scale(0.1 -0.1)">
      <use xlink:href="#DejaVuSans-77"/>
      <use x="86.279297" xlink:href="#DejaVuSans-111"/>
      <use x="147.460938" xlink:href="#DejaVuSans-108"/>
      <use x="175.244141" xlink:href="#DejaVuSans-99"/>
      <use x="230.224609" xlink:href="#DejaVuSans-104"/>
      <use x="293.603516" xlink:href="#DejaVuSans-97"/>
      <use x="354.882812" xlink:href="#DejaVuSans-110"/>
      <use x="418.261719" xlink:href="#DejaVuSans-111"/>
      <use x="479.443359" xlink:href="#DejaVuSans-118"/>
      <use x="538.623047" xlink:href="#DejaVuSans-95"/>
      <use x="588.623047" xlink:href="#DejaVuSans-103"/>
      <use x="652.099609" xlink:href="#DejaVuSans-114"/>
      <use x="690.962891" xlink:href="#DejaVuSans-111"/>
      <use x="752.144531" xlink:href="#DejaVuSans-117"/>
      <use x="815.523438" xlink:href="#DejaVuSans-112"/>
     </g>
    </g>
   </g>
  </g>
 </g>
 <defs>
  <clipPath id="p064d6b1ef0">
   <rect height="434.88" width="892.8" x="144" y="69.12"/>
  </clipPath>
 </defs>
</svg>
