<?xml version="1.0" encoding="utf-8" standalone="no"?>
<!DOCTYPE svg PUBLIC "-//W3C//DTD SVG 1.1//EN"
  "http://www.w3.org/Graphics/SVG/1.1/DTD/svg11.dtd">
<!-- Created with matplotlib (https://matplotlib.org/) -->
<svg height="576pt" version="1.1" viewBox="0 0 1152 576" width="1152pt" xmlns="http://www.w3.org/2000/svg" xmlns:xlink="http://www.w3.org/1999/xlink">
 <defs>
  <style type="text/css">
*{stroke-linecap:butt;stroke-linejoin:round;}
  </style>
 </defs>
 <g id="figure_1">
  <g id="patch_1">
   <path d="M 0 576 
L 1152 576 
L 1152 0 
L 0 0 
z
" style="fill:#ffffff;"/>
  </g>
  <g id="axes_1">
   <g id="patch_2">
    <path d="M 144 504 
L 1036.8 504 
L 1036.8 69.12 
L 144 69.12 
z
" style="fill:#ffffff;"/>
   </g>
   <g id="matplotlib.axis_1">
    <g id="xtick_1">
     <g id="line2d_1">
      <defs>
       <path d="M 0 0 
L 0 3.5 
" id="m040b375503" style="stroke:#000000;stroke-width:0.8;"/>
      </defs>
      <g>
       <use style="stroke:#000000;stroke-width:0.8;" x="182.547642" xlink:href="#m040b375503" y="504"/>
      </g>
     </g>
     <g id="text_1">
      <!-- 0 -->
      <defs>
       <path d="M 31.78125 66.40625 
Q 24.171875 66.40625 20.328125 58.90625 
Q 16.5 51.421875 16.5 36.375 
Q 16.5 21.390625 20.328125 13.890625 
Q 24.171875 6.390625 31.78125 6.390625 
Q 39.453125 6.390625 43.28125 13.890625 
Q 47.125 21.390625 47.125 36.375 
Q 47.125 51.421875 43.28125 58.90625 
Q 39.453125 66.40625 31.78125 66.40625 
z
M 31.78125 74.21875 
Q 44.046875 74.21875 50.515625 64.515625 
Q 56.984375 54.828125 56.984375 36.375 
Q 56.984375 17.96875 50.515625 8.265625 
Q 44.046875 -1.421875 31.78125 -1.421875 
Q 19.53125 -1.421875 13.0625 8.265625 
Q 6.59375 17.96875 6.59375 36.375 
Q 6.59375 54.828125 13.0625 64.515625 
Q 19.53125 74.21875 31.78125 74.21875 
z
" id="DejaVuSans-48"/>
      </defs>
      <g transform="translate(179.366392 518.598438)scale(0.1 -0.1)">
       <use xlink:href="#DejaVuSans-48"/>
      </g>
     </g>
    </g>
    <g id="xtick_2">
     <g id="line2d_2">
      <g>
       <use style="stroke:#000000;stroke-width:0.8;" x="284.256459" xlink:href="#m040b375503" y="504"/>
      </g>
     </g>
     <g id="text_2">
      <!-- 50 -->
      <defs>
       <path d="M 10.796875 72.90625 
L 49.515625 72.90625 
L 49.515625 64.59375 
L 19.828125 64.59375 
L 19.828125 46.734375 
Q 21.96875 47.46875 24.109375 47.828125 
Q 26.265625 48.1875 28.421875 48.1875 
Q 40.625 48.1875 47.75 41.5 
Q 54.890625 34.8125 54.890625 23.390625 
Q 54.890625 11.625 47.5625 5.09375 
Q 40.234375 -1.421875 26.90625 -1.421875 
Q 22.3125 -1.421875 17.546875 -0.640625 
Q 12.796875 0.140625 7.71875 1.703125 
L 7.71875 11.625 
Q 12.109375 9.234375 16.796875 8.0625 
Q 21.484375 6.890625 26.703125 6.890625 
Q 35.15625 6.890625 40.078125 11.328125 
Q 45.015625 15.765625 45.015625 23.390625 
Q 45.015625 31 40.078125 35.4375 
Q 35.15625 39.890625 26.703125 39.890625 
Q 22.75 39.890625 18.8125 39.015625 
Q 14.890625 38.140625 10.796875 36.28125 
z
" id="DejaVuSans-53"/>
      </defs>
      <g transform="translate(277.893959 518.598438)scale(0.1 -0.1)">
       <use xlink:href="#DejaVuSans-53"/>
       <use x="63.623047" xlink:href="#DejaVuSans-48"/>
      </g>
     </g>
    </g>
    <g id="xtick_3">
     <g id="line2d_3">
      <g>
       <use style="stroke:#000000;stroke-width:0.8;" x="385.965277" xlink:href="#m040b375503" y="504"/>
      </g>
     </g>
     <g id="text_3">
      <!-- 100 -->
      <defs>
       <path d="M 12.40625 8.296875 
L 28.515625 8.296875 
L 28.515625 63.921875 
L 10.984375 60.40625 
L 10.984375 69.390625 
L 28.421875 72.90625 
L 38.28125 72.90625 
L 38.28125 8.296875 
L 54.390625 8.296875 
L 54.390625 0 
L 12.40625 0 
z
" id="DejaVuSans-49"/>
      </defs>
      <g transform="translate(376.421527 518.598438)scale(0.1 -0.1)">
       <use xlink:href="#DejaVuSans-49"/>
       <use x="63.623047" xlink:href="#DejaVuSans-48"/>
       <use x="127.246094" xlink:href="#DejaVuSans-48"/>
      </g>
     </g>
    </g>
    <g id="xtick_4">
     <g id="line2d_4">
      <g>
       <use style="stroke:#000000;stroke-width:0.8;" x="487.674094" xlink:href="#m040b375503" y="504"/>
      </g>
     </g>
     <g id="text_4">
      <!-- 150 -->
      <g transform="translate(478.130344 518.598438)scale(0.1 -0.1)">
       <use xlink:href="#DejaVuSans-49"/>
       <use x="63.623047" xlink:href="#DejaVuSans-53"/>
       <use x="127.246094" xlink:href="#DejaVuSans-48"/>
      </g>
     </g>
    </g>
    <g id="xtick_5">
     <g id="line2d_5">
      <g>
       <use style="stroke:#000000;stroke-width:0.8;" x="589.382912" xlink:href="#m040b375503" y="504"/>
      </g>
     </g>
     <g id="text_5">
      <!-- 200 -->
      <defs>
       <path d="M 19.1875 8.296875 
L 53.609375 8.296875 
L 53.609375 0 
L 7.328125 0 
L 7.328125 8.296875 
Q 12.9375 14.109375 22.625 23.890625 
Q 32.328125 33.6875 34.8125 36.53125 
Q 39.546875 41.84375 41.421875 45.53125 
Q 43.3125 49.21875 43.3125 52.78125 
Q 43.3125 58.59375 39.234375 62.25 
Q 35.15625 65.921875 28.609375 65.921875 
Q 23.96875 65.921875 18.8125 64.3125 
Q 13.671875 62.703125 7.8125 59.421875 
L 7.8125 69.390625 
Q 13.765625 71.78125 18.9375 73 
Q 24.125 74.21875 28.421875 74.21875 
Q 39.75 74.21875 46.484375 68.546875 
Q 53.21875 62.890625 53.21875 53.421875 
Q 53.21875 48.921875 51.53125 44.890625 
Q 49.859375 40.875 45.40625 35.40625 
Q 44.1875 33.984375 37.640625 27.21875 
Q 31.109375 20.453125 19.1875 8.296875 
z
" id="DejaVuSans-50"/>
      </defs>
      <g transform="translate(579.839162 518.598438)scale(0.1 -0.1)">
       <use xlink:href="#DejaVuSans-50"/>
       <use x="63.623047" xlink:href="#DejaVuSans-48"/>
       <use x="127.246094" xlink:href="#DejaVuSans-48"/>
      </g>
     </g>
    </g>
    <g id="xtick_6">
     <g id="line2d_6">
      <g>
       <use style="stroke:#000000;stroke-width:0.8;" x="691.091729" xlink:href="#m040b375503" y="504"/>
      </g>
     </g>
     <g id="text_6">
      <!-- 250 -->
      <g transform="translate(681.547979 518.598438)scale(0.1 -0.1)">
       <use xlink:href="#DejaVuSans-50"/>
       <use x="63.623047" xlink:href="#DejaVuSans-53"/>
       <use x="127.246094" xlink:href="#DejaVuSans-48"/>
      </g>
     </g>
    </g>
    <g id="xtick_7">
     <g id="line2d_7">
      <g>
       <use style="stroke:#000000;stroke-width:0.8;" x="792.800547" xlink:href="#m040b375503" y="504"/>
      </g>
     </g>
     <g id="text_7">
      <!-- 300 -->
      <defs>
       <path d="M 40.578125 39.3125 
Q 47.65625 37.796875 51.625 33 
Q 55.609375 28.21875 55.609375 21.1875 
Q 55.609375 10.40625 48.1875 4.484375 
Q 40.765625 -1.421875 27.09375 -1.421875 
Q 22.515625 -1.421875 17.65625 -0.515625 
Q 12.796875 0.390625 7.625 2.203125 
L 7.625 11.71875 
Q 11.71875 9.328125 16.59375 8.109375 
Q 21.484375 6.890625 26.8125 6.890625 
Q 36.078125 6.890625 40.9375 10.546875 
Q 45.796875 14.203125 45.796875 21.1875 
Q 45.796875 27.640625 41.28125 31.265625 
Q 36.765625 34.90625 28.71875 34.90625 
L 20.21875 34.90625 
L 20.21875 43.015625 
L 29.109375 43.015625 
Q 36.375 43.015625 40.234375 45.921875 
Q 44.09375 48.828125 44.09375 54.296875 
Q 44.09375 59.90625 40.109375 62.90625 
Q 36.140625 65.921875 28.71875 65.921875 
Q 24.65625 65.921875 20.015625 65.03125 
Q 15.375 64.15625 9.8125 62.3125 
L 9.8125 71.09375 
Q 15.4375 72.65625 20.34375 73.4375 
Q 25.25 74.21875 29.59375 74.21875 
Q 40.828125 74.21875 47.359375 69.109375 
Q 53.90625 64.015625 53.90625 55.328125 
Q 53.90625 49.265625 50.4375 45.09375 
Q 46.96875 40.921875 40.578125 39.3125 
z
" id="DejaVuSans-51"/>
      </defs>
      <g transform="translate(783.256797 518.598438)scale(0.1 -0.1)">
       <use xlink:href="#DejaVuSans-51"/>
       <use x="63.623047" xlink:href="#DejaVuSans-48"/>
       <use x="127.246094" xlink:href="#DejaVuSans-48"/>
      </g>
     </g>
    </g>
    <g id="xtick_8">
     <g id="line2d_8">
      <g>
       <use style="stroke:#000000;stroke-width:0.8;" x="894.509364" xlink:href="#m040b375503" y="504"/>
      </g>
     </g>
     <g id="text_8">
      <!-- 350 -->
      <g transform="translate(884.965614 518.598438)scale(0.1 -0.1)">
       <use xlink:href="#DejaVuSans-51"/>
       <use x="63.623047" xlink:href="#DejaVuSans-53"/>
       <use x="127.246094" xlink:href="#DejaVuSans-48"/>
      </g>
     </g>
    </g>
    <g id="xtick_9">
     <g id="line2d_9">
      <g>
       <use style="stroke:#000000;stroke-width:0.8;" x="996.218182" xlink:href="#m040b375503" y="504"/>
      </g>
     </g>
     <g id="text_9">
      <!-- 400 -->
      <defs>
       <path d="M 37.796875 64.3125 
L 12.890625 25.390625 
L 37.796875 25.390625 
z
M 35.203125 72.90625 
L 47.609375 72.90625 
L 47.609375 25.390625 
L 58.015625 25.390625 
L 58.015625 17.1875 
L 47.609375 17.1875 
L 47.609375 0 
L 37.796875 0 
L 37.796875 17.1875 
L 4.890625 17.1875 
L 4.890625 26.703125 
z
" id="DejaVuSans-52"/>
      </defs>
      <g transform="translate(986.674432 518.598438)scale(0.1 -0.1)">
       <use xlink:href="#DejaVuSans-52"/>
       <use x="63.623047" xlink:href="#DejaVuSans-48"/>
       <use x="127.246094" xlink:href="#DejaVuSans-48"/>
      </g>
     </g>
    </g>
    <g id="text_10">
     <!-- Number of Neurons pruned -->
     <defs>
      <path d="M 9.8125 72.90625 
L 23.09375 72.90625 
L 55.421875 11.921875 
L 55.421875 72.90625 
L 64.984375 72.90625 
L 64.984375 0 
L 51.703125 0 
L 19.390625 60.984375 
L 19.390625 0 
L 9.8125 0 
z
" id="DejaVuSans-78"/>
      <path d="M 8.5 21.578125 
L 8.5 54.6875 
L 17.484375 54.6875 
L 17.484375 21.921875 
Q 17.484375 14.15625 20.5 10.265625 
Q 23.53125 6.390625 29.59375 6.390625 
Q 36.859375 6.390625 41.078125 11.03125 
Q 45.3125 15.671875 45.3125 23.6875 
L 45.3125 54.6875 
L 54.296875 54.6875 
L 54.296875 0 
L 45.3125 0 
L 45.3125 8.40625 
Q 42.046875 3.421875 37.71875 1 
Q 33.40625 -1.421875 27.6875 -1.421875 
Q 18.265625 -1.421875 13.375 4.4375 
Q 8.5 10.296875 8.5 21.578125 
z
M 31.109375 56 
z
" id="DejaVuSans-117"/>
      <path d="M 52 44.1875 
Q 55.375 50.25 60.0625 53.125 
Q 64.75 56 71.09375 56 
Q 79.640625 56 84.28125 50.015625 
Q 88.921875 44.046875 88.921875 33.015625 
L 88.921875 0 
L 79.890625 0 
L 79.890625 32.71875 
Q 79.890625 40.578125 77.09375 44.375 
Q 74.3125 48.1875 68.609375 48.1875 
Q 61.625 48.1875 57.5625 43.546875 
Q 53.515625 38.921875 53.515625 30.90625 
L 53.515625 0 
L 44.484375 0 
L 44.484375 32.71875 
Q 44.484375 40.625 41.703125 44.40625 
Q 38.921875 48.1875 33.109375 48.1875 
Q 26.21875 48.1875 22.15625 43.53125 
Q 18.109375 38.875 18.109375 30.90625 
L 18.109375 0 
L 9.078125 0 
L 9.078125 54.6875 
L 18.109375 54.6875 
L 18.109375 46.1875 
Q 21.1875 51.21875 25.484375 53.609375 
Q 29.78125 56 35.6875 56 
Q 41.65625 56 45.828125 52.96875 
Q 50 49.953125 52 44.1875 
z
" id="DejaVuSans-109"/>
      <path d="M 48.6875 27.296875 
Q 48.6875 37.203125 44.609375 42.84375 
Q 40.53125 48.484375 33.40625 48.484375 
Q 26.265625 48.484375 22.1875 42.84375 
Q 18.109375 37.203125 18.109375 27.296875 
Q 18.109375 17.390625 22.1875 11.75 
Q 26.265625 6.109375 33.40625 6.109375 
Q 40.53125 6.109375 44.609375 11.75 
Q 48.6875 17.390625 48.6875 27.296875 
z
M 18.109375 46.390625 
Q 20.953125 51.265625 25.265625 53.625 
Q 29.59375 56 35.59375 56 
Q 45.5625 56 51.78125 48.09375 
Q 58.015625 40.1875 58.015625 27.296875 
Q 58.015625 14.40625 51.78125 6.484375 
Q 45.5625 -1.421875 35.59375 -1.421875 
Q 29.59375 -1.421875 25.265625 0.953125 
Q 20.953125 3.328125 18.109375 8.203125 
L 18.109375 0 
L 9.078125 0 
L 9.078125 75.984375 
L 18.109375 75.984375 
z
" id="DejaVuSans-98"/>
      <path d="M 56.203125 29.59375 
L 56.203125 25.203125 
L 14.890625 25.203125 
Q 15.484375 15.921875 20.484375 11.0625 
Q 25.484375 6.203125 34.421875 6.203125 
Q 39.59375 6.203125 44.453125 7.46875 
Q 49.3125 8.734375 54.109375 11.28125 
L 54.109375 2.78125 
Q 49.265625 0.734375 44.1875 -0.34375 
Q 39.109375 -1.421875 33.890625 -1.421875 
Q 20.796875 -1.421875 13.15625 6.1875 
Q 5.515625 13.8125 5.515625 26.8125 
Q 5.515625 40.234375 12.765625 48.109375 
Q 20.015625 56 32.328125 56 
Q 43.359375 56 49.78125 48.890625 
Q 56.203125 41.796875 56.203125 29.59375 
z
M 47.21875 32.234375 
Q 47.125 39.59375 43.09375 43.984375 
Q 39.0625 48.390625 32.421875 48.390625 
Q 24.90625 48.390625 20.390625 44.140625 
Q 15.875 39.890625 15.1875 32.171875 
z
" id="DejaVuSans-101"/>
      <path d="M 41.109375 46.296875 
Q 39.59375 47.171875 37.8125 47.578125 
Q 36.03125 48 33.890625 48 
Q 26.265625 48 22.1875 43.046875 
Q 18.109375 38.09375 18.109375 28.8125 
L 18.109375 0 
L 9.078125 0 
L 9.078125 54.6875 
L 18.109375 54.6875 
L 18.109375 46.1875 
Q 20.953125 51.171875 25.484375 53.578125 
Q 30.03125 56 36.53125 56 
Q 37.453125 56 38.578125 55.875 
Q 39.703125 55.765625 41.0625 55.515625 
z
" id="DejaVuSans-114"/>
      <path id="DejaVuSans-32"/>
      <path d="M 30.609375 48.390625 
Q 23.390625 48.390625 19.1875 42.75 
Q 14.984375 37.109375 14.984375 27.296875 
Q 14.984375 17.484375 19.15625 11.84375 
Q 23.34375 6.203125 30.609375 6.203125 
Q 37.796875 6.203125 41.984375 11.859375 
Q 46.1875 17.53125 46.1875 27.296875 
Q 46.1875 37.015625 41.984375 42.703125 
Q 37.796875 48.390625 30.609375 48.390625 
z
M 30.609375 56 
Q 42.328125 56 49.015625 48.375 
Q 55.71875 40.765625 55.71875 27.296875 
Q 55.71875 13.875 49.015625 6.21875 
Q 42.328125 -1.421875 30.609375 -1.421875 
Q 18.84375 -1.421875 12.171875 6.21875 
Q 5.515625 13.875 5.515625 27.296875 
Q 5.515625 40.765625 12.171875 48.375 
Q 18.84375 56 30.609375 56 
z
" id="DejaVuSans-111"/>
      <path d="M 37.109375 75.984375 
L 37.109375 68.5 
L 28.515625 68.5 
Q 23.6875 68.5 21.796875 66.546875 
Q 19.921875 64.59375 19.921875 59.515625 
L 19.921875 54.6875 
L 34.71875 54.6875 
L 34.71875 47.703125 
L 19.921875 47.703125 
L 19.921875 0 
L 10.890625 0 
L 10.890625 47.703125 
L 2.296875 47.703125 
L 2.296875 54.6875 
L 10.890625 54.6875 
L 10.890625 58.5 
Q 10.890625 67.625 15.140625 71.796875 
Q 19.390625 75.984375 28.609375 75.984375 
z
" id="DejaVuSans-102"/>
      <path d="M 54.890625 33.015625 
L 54.890625 0 
L 45.90625 0 
L 45.90625 32.71875 
Q 45.90625 40.484375 42.875 44.328125 
Q 39.84375 48.1875 33.796875 48.1875 
Q 26.515625 48.1875 22.3125 43.546875 
Q 18.109375 38.921875 18.109375 30.90625 
L 18.109375 0 
L 9.078125 0 
L 9.078125 54.6875 
L 18.109375 54.6875 
L 18.109375 46.1875 
Q 21.34375 51.125 25.703125 53.5625 
Q 30.078125 56 35.796875 56 
Q 45.21875 56 50.046875 50.171875 
Q 54.890625 44.34375 54.890625 33.015625 
z
" id="DejaVuSans-110"/>
      <path d="M 44.28125 53.078125 
L 44.28125 44.578125 
Q 40.484375 46.53125 36.375 47.5 
Q 32.28125 48.484375 27.875 48.484375 
Q 21.1875 48.484375 17.84375 46.4375 
Q 14.5 44.390625 14.5 40.28125 
Q 14.5 37.15625 16.890625 35.375 
Q 19.28125 33.59375 26.515625 31.984375 
L 29.59375 31.296875 
Q 39.15625 29.25 43.1875 25.515625 
Q 47.21875 21.78125 47.21875 15.09375 
Q 47.21875 7.46875 41.1875 3.015625 
Q 35.15625 -1.421875 24.609375 -1.421875 
Q 20.21875 -1.421875 15.453125 -0.5625 
Q 10.6875 0.296875 5.421875 2 
L 5.421875 11.28125 
Q 10.40625 8.6875 15.234375 7.390625 
Q 20.0625 6.109375 24.8125 6.109375 
Q 31.15625 6.109375 34.5625 8.28125 
Q 37.984375 10.453125 37.984375 14.40625 
Q 37.984375 18.0625 35.515625 20.015625 
Q 33.0625 21.96875 24.703125 23.78125 
L 21.578125 24.515625 
Q 13.234375 26.265625 9.515625 29.90625 
Q 5.8125 33.546875 5.8125 39.890625 
Q 5.8125 47.609375 11.28125 51.796875 
Q 16.75 56 26.8125 56 
Q 31.78125 56 36.171875 55.265625 
Q 40.578125 54.546875 44.28125 53.078125 
z
" id="DejaVuSans-115"/>
      <path d="M 18.109375 8.203125 
L 18.109375 -20.796875 
L 9.078125 -20.796875 
L 9.078125 54.6875 
L 18.109375 54.6875 
L 18.109375 46.390625 
Q 20.953125 51.265625 25.265625 53.625 
Q 29.59375 56 35.59375 56 
Q 45.5625 56 51.78125 48.09375 
Q 58.015625 40.1875 58.015625 27.296875 
Q 58.015625 14.40625 51.78125 6.484375 
Q 45.5625 -1.421875 35.59375 -1.421875 
Q 29.59375 -1.421875 25.265625 0.953125 
Q 20.953125 3.328125 18.109375 8.203125 
z
M 48.6875 27.296875 
Q 48.6875 37.203125 44.609375 42.84375 
Q 40.53125 48.484375 33.40625 48.484375 
Q 26.265625 48.484375 22.1875 42.84375 
Q 18.109375 37.203125 18.109375 27.296875 
Q 18.109375 17.390625 22.1875 11.75 
Q 26.265625 6.109375 33.40625 6.109375 
Q 40.53125 6.109375 44.609375 11.75 
Q 48.6875 17.390625 48.6875 27.296875 
z
" id="DejaVuSans-112"/>
      <path d="M 45.40625 46.390625 
L 45.40625 75.984375 
L 54.390625 75.984375 
L 54.390625 0 
L 45.40625 0 
L 45.40625 8.203125 
Q 42.578125 3.328125 38.25 0.953125 
Q 33.9375 -1.421875 27.875 -1.421875 
Q 17.96875 -1.421875 11.734375 6.484375 
Q 5.515625 14.40625 5.515625 27.296875 
Q 5.515625 40.1875 11.734375 48.09375 
Q 17.96875 56 27.875 56 
Q 33.9375 56 38.25 53.625 
Q 42.578125 51.265625 45.40625 46.390625 
z
M 14.796875 27.296875 
Q 14.796875 17.390625 18.875 11.75 
Q 22.953125 6.109375 30.078125 6.109375 
Q 37.203125 6.109375 41.296875 11.75 
Q 45.40625 17.390625 45.40625 27.296875 
Q 45.40625 37.203125 41.296875 42.84375 
Q 37.203125 48.484375 30.078125 48.484375 
Q 22.953125 48.484375 18.875 42.84375 
Q 14.796875 37.203125 14.796875 27.296875 
z
" id="DejaVuSans-100"/>
     </defs>
     <g transform="translate(522.147656 532.276562)scale(0.1 -0.1)">
      <use xlink:href="#DejaVuSans-78"/>
      <use x="74.804688" xlink:href="#DejaVuSans-117"/>
      <use x="138.183594" xlink:href="#DejaVuSans-109"/>
      <use x="235.595703" xlink:href="#DejaVuSans-98"/>
      <use x="299.072266" xlink:href="#DejaVuSans-101"/>
      <use x="360.595703" xlink:href="#DejaVuSans-114"/>
      <use x="401.708984" xlink:href="#DejaVuSans-32"/>
      <use x="433.496094" xlink:href="#DejaVuSans-111"/>
      <use x="494.677734" xlink:href="#DejaVuSans-102"/>
      <use x="529.882812" xlink:href="#DejaVuSans-32"/>
      <use x="561.669922" xlink:href="#DejaVuSans-78"/>
      <use x="636.474609" xlink:href="#DejaVuSans-101"/>
      <use x="697.998047" xlink:href="#DejaVuSans-117"/>
      <use x="761.376953" xlink:href="#DejaVuSans-114"/>
      <use x="800.240234" xlink:href="#DejaVuSans-111"/>
      <use x="861.421875" xlink:href="#DejaVuSans-110"/>
      <use x="924.800781" xlink:href="#DejaVuSans-115"/>
      <use x="976.900391" xlink:href="#DejaVuSans-32"/>
      <use x="1008.6875" xlink:href="#DejaVuSans-112"/>
      <use x="1072.164062" xlink:href="#DejaVuSans-114"/>
      <use x="1113.277344" xlink:href="#DejaVuSans-117"/>
      <use x="1176.65625" xlink:href="#DejaVuSans-110"/>
      <use x="1240.035156" xlink:href="#DejaVuSans-101"/>
      <use x="1301.558594" xlink:href="#DejaVuSans-100"/>
     </g>
    </g>
   </g>
   <g id="matplotlib.axis_2">
    <g id="ytick_1">
     <g id="line2d_10">
      <defs>
       <path d="M 0 0 
L -3.5 0 
" id="m637f8fb322" style="stroke:#000000;stroke-width:0.8;"/>
      </defs>
      <g>
       <use style="stroke:#000000;stroke-width:0.8;" x="144" xlink:href="#m637f8fb322" y="494.377639"/>
      </g>
     </g>
     <g id="text_11">
      <!-- 0.0 -->
      <defs>
       <path d="M 10.6875 12.40625 
L 21 12.40625 
L 21 0 
L 10.6875 0 
z
" id="DejaVuSans-46"/>
      </defs>
      <g transform="translate(121.096875 498.176858)scale(0.1 -0.1)">
       <use xlink:href="#DejaVuSans-48"/>
       <use x="63.623047" xlink:href="#DejaVuSans-46"/>
       <use x="95.410156" xlink:href="#DejaVuSans-48"/>
      </g>
     </g>
    </g>
    <g id="ytick_2">
     <g id="line2d_11">
      <g>
       <use style="stroke:#000000;stroke-width:0.8;" x="144" xlink:href="#m637f8fb322" y="427.768727"/>
      </g>
     </g>
     <g id="text_12">
      <!-- 0.5 -->
      <g transform="translate(121.096875 431.567945)scale(0.1 -0.1)">
       <use xlink:href="#DejaVuSans-48"/>
       <use x="63.623047" xlink:href="#DejaVuSans-46"/>
       <use x="95.410156" xlink:href="#DejaVuSans-53"/>
      </g>
     </g>
    </g>
    <g id="ytick_3">
     <g id="line2d_12">
      <g>
       <use style="stroke:#000000;stroke-width:0.8;" x="144" xlink:href="#m637f8fb322" y="361.159815"/>
      </g>
     </g>
     <g id="text_13">
      <!-- 1.0 -->
      <g transform="translate(121.096875 364.959033)scale(0.1 -0.1)">
       <use xlink:href="#DejaVuSans-49"/>
       <use x="63.623047" xlink:href="#DejaVuSans-46"/>
       <use x="95.410156" xlink:href="#DejaVuSans-48"/>
      </g>
     </g>
    </g>
    <g id="ytick_4">
     <g id="line2d_13">
      <g>
       <use style="stroke:#000000;stroke-width:0.8;" x="144" xlink:href="#m637f8fb322" y="294.550903"/>
      </g>
     </g>
     <g id="text_14">
      <!-- 1.5 -->
      <g transform="translate(121.096875 298.350121)scale(0.1 -0.1)">
       <use xlink:href="#DejaVuSans-49"/>
       <use x="63.623047" xlink:href="#DejaVuSans-46"/>
       <use x="95.410156" xlink:href="#DejaVuSans-53"/>
      </g>
     </g>
    </g>
    <g id="ytick_5">
     <g id="line2d_14">
      <g>
       <use style="stroke:#000000;stroke-width:0.8;" x="144" xlink:href="#m637f8fb322" y="227.94199"/>
      </g>
     </g>
     <g id="text_15">
      <!-- 2.0 -->
      <g transform="translate(121.096875 231.741209)scale(0.1 -0.1)">
       <use xlink:href="#DejaVuSans-50"/>
       <use x="63.623047" xlink:href="#DejaVuSans-46"/>
       <use x="95.410156" xlink:href="#DejaVuSans-48"/>
      </g>
     </g>
    </g>
    <g id="ytick_6">
     <g id="line2d_15">
      <g>
       <use style="stroke:#000000;stroke-width:0.8;" x="144" xlink:href="#m637f8fb322" y="161.333078"/>
      </g>
     </g>
     <g id="text_16">
      <!-- 2.5 -->
      <g transform="translate(121.096875 165.132297)scale(0.1 -0.1)">
       <use xlink:href="#DejaVuSans-50"/>
       <use x="63.623047" xlink:href="#DejaVuSans-46"/>
       <use x="95.410156" xlink:href="#DejaVuSans-53"/>
      </g>
     </g>
    </g>
    <g id="ytick_7">
     <g id="line2d_16">
      <g>
       <use style="stroke:#000000;stroke-width:0.8;" x="144" xlink:href="#m637f8fb322" y="94.724166"/>
      </g>
     </g>
     <g id="text_17">
      <!-- 3.0 -->
      <g transform="translate(121.096875 98.523385)scale(0.1 -0.1)">
       <use xlink:href="#DejaVuSans-51"/>
       <use x="63.623047" xlink:href="#DejaVuSans-46"/>
       <use x="95.410156" xlink:href="#DejaVuSans-48"/>
      </g>
     </g>
    </g>
    <g id="text_18">
     <!-- Loss -->
     <defs>
      <path d="M 9.8125 72.90625 
L 19.671875 72.90625 
L 19.671875 8.296875 
L 55.171875 8.296875 
L 55.171875 0 
L 9.8125 0 
z
" id="DejaVuSans-76"/>
     </defs>
     <g transform="translate(115.017187 297.527188)rotate(-90)scale(0.1 -0.1)">
      <use xlink:href="#DejaVuSans-76"/>
      <use x="53.962891" xlink:href="#DejaVuSans-111"/>
      <use x="115.144531" xlink:href="#DejaVuSans-115"/>
      <use x="167.244141" xlink:href="#DejaVuSans-115"/>
     </g>
    </g>
   </g>
   <g id="line2d_17">
    <path clip-path="url(#p7ca8728e99)" d="M 184.581818 484.232727 
L 300.52987 484.232727 
L 302.564046 483.145017 
L 304.598223 483.02014 
L 306.632399 483.18411 
L 308.666576 482.995863 
L 310.700752 482.985071 
L 312.734928 483.310639 
L 314.769105 481.592562 
L 316.803281 481.67945 
L 318.837457 482.006742 
L 320.871634 480.476682 
L 326.974163 480.349387 
L 329.008339 480.678243 
L 331.042515 479.702527 
L 333.076692 479.607363 
L 335.110868 479.309387 
L 337.145044 478.504461 
L 341.213397 477.231822 
L 343.247573 476.338217 
L 345.28175 474.359014 
L 347.315926 473.302381 
L 349.350103 469.399213 
L 351.384279 468.34495 
L 353.418455 472.335663 
L 355.452632 472.533107 
L 359.520984 463.41284 
L 363.589337 464.134352 
L 365.623513 460.032105 
L 367.65769 464.495333 
L 369.691866 462.856249 
L 371.726042 463.660427 
L 373.760219 465.420415 
L 375.794395 460.214281 
L 377.828571 462.158828 
L 379.862748 458.097351 
L 381.896924 458.964081 
L 383.9311 453.103732 
L 385.965277 450.679579 
L 387.999453 452.181391 
L 390.03363 454.705581 
L 392.067806 456.065418 
L 394.101982 453.137089 
L 396.136159 433.392714 
L 398.170335 436.322393 
L 400.204511 431.081426 
L 402.238688 430.990143 
L 404.272864 429.734957 
L 406.30704 424.139574 
L 408.341217 422.832394 
L 410.375393 423.058552 
L 412.409569 416.587237 
L 414.443746 414.258587 
L 416.477922 414.578196 
L 418.512098 409.10876 
L 420.546275 409.769163 
L 422.580451 412.284198 
L 424.614627 413.649709 
L 426.648804 416.832015 
L 428.68298 413.269665 
L 430.717157 418.072901 
L 432.751333 418.27319 
L 434.785509 418.90396 
L 436.819686 421.267047 
L 438.853862 419.546259 
L 442.922215 419.752026 
L 444.956391 421.639777 
L 446.990567 430.582229 
L 449.024744 430.726935 
L 451.05892 428.439309 
L 453.093096 430.851623 
L 455.127273 429.804304 
L 457.161449 431.680891 
L 459.195625 428.79891 
L 461.229802 427.653472 
L 463.263978 425.131982 
L 465.298154 421.580391 
L 467.332331 423.853029 
L 469.366507 421.503298 
L 471.400684 422.130351 
L 473.43486 421.014828 
L 475.469036 420.370409 
L 477.503213 406.721193 
L 479.537389 407.31365 
L 481.571565 411.615791 
L 483.605742 399.786706 
L 485.639918 395.05984 
L 487.674094 403.246545 
L 489.708271 402.659273 
L 491.742447 400.012634 
L 493.776623 400.918642 
L 495.8108 396.520239 
L 497.844976 391.632938 
L 499.879152 388.852908 
L 501.913329 378.868878 
L 503.947505 369.865631 
L 505.981681 371.665196 
L 508.015858 372.795313 
L 510.050034 364.817759 
L 512.084211 361.791593 
L 514.118387 361.223282 
L 516.152563 359.697526 
L 518.18674 363.038545 
L 522.255092 365.084977 
L 524.289269 361.976818 
L 526.323445 359.253737 
L 528.357621 354.563739 
L 530.391798 347.313502 
L 532.425974 343.417735 
L 534.46015 340.936217 
L 536.494327 347.223029 
L 538.528503 339.602293 
L 540.562679 343.173742 
L 542.596856 340.146671 
L 544.631032 338.465624 
L 546.665208 338.685129 
L 548.699385 330.130776 
L 550.733561 327.91064 
L 552.767738 324.472764 
L 554.801914 325.442461 
L 556.83609 335.738986 
L 558.870267 324.159832 
L 560.904443 316.898891 
L 562.938619 316.268979 
L 564.972796 316.903894 
L 567.006972 315.323389 
L 569.041148 309.893076 
L 571.075325 308.864238 
L 573.109501 305.618964 
L 575.143677 307.174997 
L 577.177854 307.621803 
L 579.21203 309.262592 
L 581.246206 307.99081 
L 583.280383 319.866156 
L 585.314559 322.834865 
L 587.348735 319.735886 
L 589.382912 320.81767 
L 591.417088 318.002957 
L 593.451265 319.949657 
L 595.485441 311.215883 
L 597.519617 307.529949 
L 599.553794 305.107046 
L 601.58797 299.462263 
L 603.622146 300.652116 
L 605.656323 303.320456 
L 607.690499 315.747867 
L 609.724675 314.129708 
L 611.758852 316.202486 
L 613.793028 310.071989 
L 617.861381 308.475365 
L 619.895557 305.577086 
L 621.929733 294.69221 
L 623.96391 298.431519 
L 625.998086 295.058247 
L 628.032262 295.370066 
L 630.066439 296.610849 
L 632.100615 289.797318 
L 634.134792 286.570657 
L 636.168968 281.224432 
L 638.203144 278.562937 
L 640.237321 277.951002 
L 642.271497 272.500631 
L 644.305673 268.289233 
L 646.33985 269.821794 
L 648.374026 269.319023 
L 650.408202 268.116497 
L 652.442379 268.463286 
L 654.476555 269.271619 
L 656.510731 272.863889 
L 658.544908 271.955713 
L 660.579084 272.689104 
L 662.61326 268.362189 
L 664.647437 264.7966 
L 666.681613 267.697594 
L 668.715789 262.302996 
L 670.749966 262.092941 
L 672.784142 257.566801 
L 674.818319 260.452819 
L 676.852495 269.007537 
L 678.886671 266.490557 
L 680.920848 269.393584 
L 682.955024 263.075597 
L 684.9892 268.353645 
L 687.023377 258.408928 
L 689.057553 261.817091 
L 691.091729 259.073587 
L 695.160082 250.456474 
L 697.194258 239.779604 
L 699.228435 231.464082 
L 701.262611 240.242942 
L 703.296787 242.882856 
L 705.330964 247.607061 
L 707.36514 244.867305 
L 709.399316 243.808738 
L 711.433493 246.527389 
L 713.467669 245.858314 
L 717.536022 244.35318 
L 719.570198 243.228708 
L 721.604375 238.868522 
L 723.638551 240.876713 
L 725.672727 244.099722 
L 727.706904 244.486705 
L 729.74108 242.213607 
L 731.775256 239.195619 
L 733.809433 242.447722 
L 735.843609 239.140989 
L 737.877785 237.91191 
L 739.911962 241.220596 
L 741.946138 236.586626 
L 743.980314 238.977433 
L 746.014491 235.428471 
L 748.048667 235.867241 
L 750.082843 237.783482 
L 752.11702 233.863672 
L 754.151196 231.717794 
L 756.185373 230.423906 
L 758.219549 227.559168 
L 760.253725 231.321219 
L 762.287902 230.059934 
L 764.322078 231.241402 
L 766.356254 233.687998 
L 768.390431 233.907852 
L 770.424607 235.225196 
L 772.458783 231.340514 
L 774.49296 226.995749 
L 776.527136 225.553867 
L 778.561312 225.989033 
L 780.595489 222.584443 
L 782.629665 220.424622 
L 784.663841 218.970131 
L 786.698018 215.703704 
L 788.732194 215.704689 
L 790.76637 218.462962 
L 792.800547 217.912819 
L 794.834723 211.560943 
L 796.8689 208.122241 
L 798.903076 211.811796 
L 800.937252 212.82118 
L 802.971429 212.434355 
L 805.005605 209.675733 
L 807.039781 213.321679 
L 809.073958 214.864626 
L 811.108134 212.827437 
L 813.14231 212.925517 
L 815.176487 211.196161 
L 817.210663 209.651594 
L 819.244839 213.726259 
L 821.279016 217.5205 
L 823.313192 217.254528 
L 825.347368 216.070646 
L 827.381545 219.281268 
L 829.415721 216.661348 
L 831.449897 222.434401 
L 833.484074 222.480201 
L 835.51825 219.53174 
L 837.552427 215.012191 
L 839.586603 214.943744 
L 841.620779 216.023798 
L 843.654956 212.626037 
L 845.689132 215.851523 
L 847.723308 211.413569 
L 849.757485 212.04283 
L 851.791661 209.213919 
L 853.825837 211.167639 
L 855.860014 211.61246 
L 857.89419 209.171232 
L 859.928366 208.233184 
L 861.962543 208.239314 
L 866.030895 209.773781 
L 868.065072 211.445521 
L 870.099248 212.427876 
L 872.133424 210.970749 
L 874.167601 210.986788 
L 876.201777 209.023286 
L 878.235954 209.886471 
L 880.27013 211.554877 
L 882.304306 209.965843 
L 884.338483 209.699904 
L 886.372659 209.749706 
L 888.406835 208.494868 
L 890.441012 209.573175 
L 892.475188 208.847962 
L 894.509364 207.906961 
L 896.543541 209.359927 
L 898.577717 208.74426 
L 902.64607 204.819924 
L 904.680246 205.500162 
L 908.748599 204.519078 
L 910.782775 205.225964 
L 912.816951 205.024849 
L 914.851128 206.322756 
L 916.885304 205.961182 
L 918.919481 204.054882 
L 920.953657 201.398087 
L 925.02201 204.480773 
L 927.056186 204.366844 
L 929.090362 202.536804 
L 931.124539 202.642094 
L 933.158715 201.043882 
L 937.227068 198.265885 
L 939.261244 197.686903 
L 941.29542 196.290758 
L 943.329597 198.706164 
L 945.363773 198.207285 
L 947.397949 196.587824 
L 949.432126 195.299351 
L 951.466302 194.76042 
L 953.500478 193.447205 
L 955.534655 195.655271 
L 957.568831 196.040159 
L 959.603008 195.433639 
L 961.637184 195.814842 
L 963.67136 195.591431 
L 965.705537 194.167939 
L 967.739713 193.888278 
L 969.773889 193.403945 
L 971.808066 191.063623 
L 973.842242 189.495426 
L 979.944771 187.483455 
L 981.978947 187.16711 
L 984.013124 187.930595 
L 986.0473 187.760417 
L 988.081476 188.344131 
L 990.115653 187.900168 
L 992.149829 187.199697 
L 994.184005 186.980637 
L 996.218182 188.900023 
L 996.218182 188.900023 
" style="fill:none;stroke:#1f77b4;stroke-linecap:square;stroke-width:1.5;"/>
   </g>
   <g id="line2d_18">
    <path clip-path="url(#p7ca8728e99)" d="M 184.581818 484.232727 
L 300.52987 484.232727 
L 308.666576 483.597016 
L 312.734928 482.850139 
L 316.803281 481.901905 
L 320.871634 481.121442 
L 322.90581 480.758966 
L 324.939986 479.692052 
L 326.974163 479.78339 
L 329.008339 478.995133 
L 333.076692 478.870217 
L 335.110868 479.559278 
L 337.145044 478.79293 
L 339.179221 477.737619 
L 341.213397 477.38875 
L 343.247573 477.458192 
L 345.28175 476.545116 
L 347.315926 476.147191 
L 351.384279 473.84259 
L 359.520984 472.883845 
L 361.555161 472.788832 
L 363.589337 471.872335 
L 365.623513 472.389072 
L 367.65769 473.211336 
L 369.691866 473.628827 
L 371.726042 472.252519 
L 373.760219 472.472379 
L 375.794395 471.32724 
L 377.828571 469.95207 
L 379.862748 469.350439 
L 381.896924 468.591857 
L 383.9311 467.459985 
L 385.965277 465.452171 
L 387.999453 462.956416 
L 390.03363 462.126161 
L 392.067806 463.700338 
L 394.101982 461.317128 
L 396.136159 462.384199 
L 398.170335 460.016307 
L 400.204511 456.711266 
L 402.238688 455.003127 
L 404.272864 454.185981 
L 406.30704 448.406949 
L 408.341217 445.103639 
L 410.375393 445.172522 
L 412.409569 444.423789 
L 414.443746 444.570079 
L 416.477922 442.301729 
L 418.512098 435.499787 
L 420.546275 433.216612 
L 422.580451 430.305216 
L 424.614627 427.178239 
L 426.648804 427.469231 
L 428.68298 422.700051 
L 432.751333 410.149167 
L 434.785509 409.992011 
L 436.819686 405.212128 
L 438.853862 400.039004 
L 440.888038 394.492824 
L 442.922215 379.16762 
L 444.956391 379.107448 
L 446.990567 373.291032 
L 449.024744 366.837114 
L 451.05892 372.470916 
L 453.093096 362.987115 
L 457.161449 368.839739 
L 459.195625 371.620682 
L 461.229802 364.022726 
L 463.263978 366.827117 
L 465.298154 358.748934 
L 467.332331 360.293549 
L 469.366507 358.189104 
L 471.400684 355.076308 
L 473.43486 361.602968 
L 475.469036 369.893128 
L 477.503213 361.747619 
L 479.537389 357.167286 
L 481.571565 356.535944 
L 483.605742 362.102674 
L 485.639918 364.893407 
L 487.674094 360.200471 
L 489.708271 365.676084 
L 491.742447 362.1663 
L 493.776623 356.309754 
L 495.8108 362.223225 
L 497.844976 366.576097 
L 499.879152 365.67086 
L 501.913329 359.396394 
L 503.947505 348.871155 
L 505.981681 352.340411 
L 508.015858 352.471205 
L 510.050034 351.220227 
L 512.084211 345.279965 
L 514.118387 343.947026 
L 516.152563 339.70177 
L 518.18674 328.095746 
L 520.220916 310.698058 
L 522.255092 301.608776 
L 524.289269 286.245259 
L 526.323445 282.324384 
L 530.391798 278.55587 
L 532.425974 282.125398 
L 534.46015 281.151269 
L 536.494327 269.473798 
L 538.528503 264.030033 
L 540.562679 272.546225 
L 542.596856 279.712818 
L 544.631032 261.550183 
L 546.665208 253.170487 
L 548.699385 258.806425 
L 550.733561 260.021116 
L 552.767738 251.452946 
L 554.801914 246.964174 
L 556.83609 243.862463 
L 558.870267 237.191478 
L 560.904443 236.389481 
L 562.938619 226.691409 
L 564.972796 220.794931 
L 567.006972 215.345719 
L 569.041148 213.611282 
L 571.075325 206.633924 
L 573.109501 194.881178 
L 575.143677 182.471728 
L 577.177854 186.862484 
L 579.21203 182.135278 
L 581.246206 179.590157 
L 583.280383 183.357115 
L 585.314559 184.704474 
L 587.348735 177.500402 
L 589.382912 167.726149 
L 591.417088 152.6371 
L 593.451265 158.310676 
L 595.485441 133.28539 
L 597.519617 142.134618 
L 599.553794 153.798908 
L 601.58797 160.123533 
L 603.622146 178.192424 
L 605.656323 190.015109 
L 607.690499 198.274238 
L 609.724675 185.278914 
L 611.758852 207.155037 
L 613.793028 202.76066 
L 615.827204 197.291852 
L 617.861381 180.192484 
L 619.895557 192.075072 
L 621.929733 206.388947 
L 623.96391 187.759083 
L 625.998086 188.450787 
L 628.032262 205.865897 
L 630.066439 200.271535 
L 632.100615 212.308643 
L 634.134792 221.662277 
L 636.168968 219.386748 
L 638.203144 216.772006 
L 640.237321 202.93681 
L 642.271497 184.981911 
L 644.305673 181.111823 
L 646.33985 176.434959 
L 648.374026 191.063083 
L 650.408202 199.951918 
L 652.442379 209.876308 
L 654.476555 205.047654 
L 656.510731 208.763635 
L 658.544908 209.396612 
L 660.579084 199.194118 
L 662.61326 206.361441 
L 664.647437 205.502068 
L 666.681613 204.908856 
L 668.715789 207.309843 
L 670.749966 208.367504 
L 672.784142 200.432693 
L 674.818319 189.076617 
L 676.852495 197.11621 
L 678.886671 187.041143 
L 680.920848 188.169315 
L 682.955024 192.797426 
L 684.9892 170.244781 
L 687.023377 161.326663 
L 689.057553 170.62573 
L 691.091729 174.104578 
L 693.125906 172.993907 
L 695.160082 170.156134 
L 697.194258 166.950912 
L 699.228435 165.003862 
L 701.262611 172.214763 
L 705.330964 180.786331 
L 707.36514 173.110853 
L 709.399316 159.114784 
L 711.433493 152.229726 
L 713.467669 156.041659 
L 715.501846 154.409811 
L 717.536022 154.275364 
L 719.570198 148.668806 
L 721.604375 143.87382 
L 723.638551 132.758338 
L 725.672727 123.713872 
L 727.706904 121.854992 
L 729.74108 115.416947 
L 731.775256 113.423747 
L 733.809433 112.242279 
L 735.843609 130.187617 
L 737.877785 133.305622 
L 739.911962 133.971346 
L 741.946138 136.474732 
L 743.980314 141.068381 
L 746.014491 141.474485 
L 748.048667 146.884153 
L 750.082843 153.766924 
L 752.11702 164.000704 
L 754.151196 165.794027 
L 756.185373 162.897147 
L 758.219549 161.074158 
L 760.253725 158.755148 
L 762.287902 143.165663 
L 764.322078 151.166062 
L 766.356254 142.759654 
L 768.390431 145.856379 
L 770.424607 141.913652 
L 772.458783 132.768534 
L 774.49296 134.546643 
L 776.527136 129.686991 
L 778.561312 131.198049 
L 780.595489 138.034258 
L 782.629665 136.937562 
L 784.663841 131.673489 
L 786.698018 115.845538 
L 788.732194 107.472671 
L 790.76637 107.147368 
L 792.800547 110.183619 
L 794.834723 109.694617 
L 796.8689 107.084417 
L 798.903076 117.263281 
L 800.937252 114.648189 
L 802.971429 114.139305 
L 805.005605 109.910088 
L 807.039781 108.522138 
L 809.073958 109.538128 
L 811.108134 104.806189 
L 813.14231 105.092964 
L 815.176487 114.78505 
L 817.210663 122.039464 
L 819.244839 121.341217 
L 821.279016 128.612083 
L 823.313192 129.556197 
L 825.347368 129.919359 
L 827.381545 142.334494 
L 829.415721 147.448271 
L 831.449897 153.547737 
L 833.484074 155.473475 
L 835.51825 159.915876 
L 837.552427 164.736525 
L 839.586603 170.121165 
L 841.620779 167.453698 
L 843.654956 167.017357 
L 845.689132 164.744084 
L 847.723308 160.366128 
L 849.757485 155.703461 
L 851.791661 157.608395 
L 853.825837 166.248345 
L 855.860014 169.588713 
L 857.89419 171.186513 
L 859.928366 175.288047 
L 861.962543 170.808359 
L 863.996719 165.036608 
L 866.030895 162.790841 
L 868.065072 163.658949 
L 870.099248 165.042326 
L 872.133424 165.43258 
L 874.167601 164.258449 
L 876.201777 161.190183 
L 878.235954 161.413467 
L 880.27013 160.928658 
L 882.304306 168.052214 
L 884.338483 168.17745 
L 886.372659 163.816772 
L 888.406835 164.215349 
L 890.441012 162.150781 
L 892.475188 164.489197 
L 894.509364 161.304525 
L 896.543541 160.812474 
L 898.577717 162.678881 
L 900.611893 163.372205 
L 902.64607 165.18249 
L 904.680246 173.078266 
L 906.714422 168.40426 
L 908.748599 164.125876 
L 910.782775 163.326659 
L 912.816951 164.796364 
L 914.851128 167.918847 
L 916.885304 167.928915 
L 918.919481 165.215013 
L 920.953657 166.81024 
L 922.987833 167.473803 
L 925.02201 171.63794 
L 927.056186 174.836334 
L 929.090362 177.181134 
L 931.124539 175.898251 
L 933.158715 177.745919 
L 935.192891 180.89432 
L 937.227068 180.17889 
L 939.261244 181.181064 
L 941.29542 180.996751 
L 943.329597 182.337186 
L 945.363773 183.050679 
L 947.397949 182.801509 
L 949.432126 181.856824 
L 951.466302 182.661821 
L 953.500478 182.709242 
L 955.534655 183.358353 
L 957.568831 183.737682 
L 959.603008 182.926745 
L 961.637184 182.310475 
L 963.67136 182.395119 
L 965.705537 182.259529 
L 967.739713 183.277457 
L 969.773889 183.018123 
L 971.808066 181.470952 
L 973.842242 181.38834 
L 977.910595 180.769465 
L 981.978947 180.843914 
L 984.013124 181.131007 
L 986.0473 182.488625 
L 988.081476 182.628789 
L 990.115653 183.404852 
L 992.149829 182.05311 
L 996.218182 182.569459 
L 996.218182 182.569459 
" style="fill:none;stroke:#ff7f0e;stroke-linecap:square;stroke-width:1.5;"/>
   </g>
   <g id="line2d_19">
    <path clip-path="url(#p7ca8728e99)" d="M 184.581818 484.232727 
L 300.52987 484.232727 
L 308.666576 483.597016 
L 310.700752 483.619287 
L 312.734928 483.405557 
L 316.803281 482.66617 
L 318.837457 483.128721 
L 320.871634 482.709327 
L 322.90581 482.672177 
L 331.042515 482.089505 
L 333.076692 482.147218 
L 335.110868 481.933116 
L 337.145044 481.495866 
L 339.179221 481.432696 
L 341.213397 480.713832 
L 343.247573 480.499132 
L 345.28175 479.65076 
L 347.315926 479.807424 
L 349.350103 479.01828 
L 355.452632 478.345755 
L 357.486808 477.915112 
L 359.520984 477.293167 
L 361.555161 476.805654 
L 363.589337 476.782331 
L 365.623513 476.005198 
L 367.65769 476.70979 
L 369.691866 477.125746 
L 373.760219 475.979805 
L 377.828571 474.898298 
L 379.862748 475.031433 
L 383.9311 472.904174 
L 385.965277 472.696856 
L 387.999453 471.827664 
L 390.03363 470.433224 
L 392.067806 468.715823 
L 394.101982 466.82515 
L 396.136159 467.323321 
L 398.170335 469.002392 
L 400.204511 467.213169 
L 402.238688 467.897116 
L 404.272864 466.420739 
L 406.30704 468.192249 
L 408.341217 467.082705 
L 410.375393 468.213185 
L 412.409569 467.234898 
L 414.443746 468.314686 
L 416.477922 466.3295 
L 420.546275 461.054495 
L 422.580451 462.497476 
L 426.648804 455.238 
L 428.68298 451.688855 
L 430.717157 449.115939 
L 432.751333 449.17074 
L 434.785509 451.26836 
L 436.819686 451.132078 
L 438.853862 453.924694 
L 440.888038 454.684975 
L 442.922215 456.508012 
L 444.956391 452.979619 
L 446.990567 455.443347 
L 449.024744 454.474304 
L 453.093096 450.963714 
L 455.127273 448.448187 
L 457.161449 449.005051 
L 459.195625 449.442409 
L 461.229802 451.322465 
L 463.263978 450.976018 
L 465.298154 451.987053 
L 467.332331 451.056224 
L 469.366507 447.610642 
L 471.400684 445.500508 
L 473.43486 447.04039 
L 475.469036 450.655674 
L 477.503213 445.185917 
L 479.537389 445.903841 
L 481.571565 444.325511 
L 483.605742 441.190188 
L 485.639918 444.485498 
L 487.674094 438.934685 
L 489.708271 438.943277 
L 491.742447 441.648484 
L 493.776623 443.235377 
L 495.8108 442.467608 
L 497.844976 438.465217 
L 499.879152 436.944071 
L 501.913329 437.82821 
L 503.947505 436.119857 
L 505.981681 435.905355 
L 508.015858 433.080533 
L 510.050034 432.855161 
L 512.084211 427.855301 
L 514.118387 427.040671 
L 516.152563 431.995057 
L 518.18674 428.612482 
L 520.220916 428.047474 
L 522.255092 430.543754 
L 524.289269 428.142513 
L 526.323445 425.949827 
L 528.357621 427.483714 
L 530.391798 425.364635 
L 532.425974 422.198432 
L 534.46015 422.625872 
L 536.494327 416.035839 
L 538.528503 412.785023 
L 540.562679 409.233909 
L 542.596856 408.456107 
L 544.631032 408.762408 
L 546.665208 399.576507 
L 548.699385 395.884443 
L 550.733561 393.246967 
L 552.767738 384.344992 
L 554.801914 377.532803 
L 556.83609 384.96713 
L 558.870267 381.047478 
L 560.904443 373.643181 
L 562.938619 373.830186 
L 564.972796 377.383245 
L 567.006972 369.988095 
L 569.041148 369.530824 
L 571.075325 352.768573 
L 573.109501 342.028276 
L 575.143677 340.245529 
L 577.177854 331.689143 
L 579.21203 324.552501 
L 581.246206 326.189574 
L 583.280383 312.326491 
L 585.314559 307.863938 
L 587.348735 302.757307 
L 589.382912 306.425725 
L 591.417088 302.630007 
L 593.451265 307.62139 
L 595.485441 316.223132 
L 597.519617 315.051525 
L 599.553794 313.622047 
L 601.58797 318.675667 
L 603.622146 317.414684 
L 605.656323 329.35187 
L 607.690499 329.489064 
L 609.724675 320.588828 
L 611.758852 325.989587 
L 613.793028 317.236231 
L 615.827204 314.896957 
L 617.861381 308.067561 
L 619.895557 302.035588 
L 621.929733 291.952168 
L 623.96391 295.427555 
L 625.998086 283.784544 
L 628.032262 285.332542 
L 630.066439 291.668743 
L 632.100615 293.563672 
L 634.134792 296.551153 
L 636.168968 295.678074 
L 638.203144 292.185044 
L 640.237321 292.978401 
L 642.271497 308.462104 
L 644.305673 309.443077 
L 646.33985 306.449864 
L 648.374026 294.838694 
L 650.408202 293.272276 
L 652.442379 286.348119 
L 654.476555 288.355738 
L 656.510731 275.60528 
L 658.544908 275.812938 
L 660.579084 279.137933 
L 662.61326 280.575241 
L 664.647437 269.742819 
L 666.681613 264.380586 
L 668.715789 265.153886 
L 670.749966 258.419298 
L 672.784142 266.954817 
L 674.818319 270.71574 
L 676.852495 263.290242 
L 678.886671 254.20825 
L 680.920848 253.352926 
L 682.955024 244.442477 
L 684.9892 248.472215 
L 687.023377 249.885813 
L 689.057553 247.854801 
L 691.091729 247.132129 
L 693.125906 241.025088 
L 695.160082 236.458817 
L 697.194258 236.601173 
L 699.228435 233.417913 
L 701.262611 235.284352 
L 703.296787 235.89219 
L 705.330964 238.415554 
L 707.36514 231.21847 
L 709.399316 230.600659 
L 711.433493 224.403398 
L 713.467669 228.711336 
L 715.501846 231.294348 
L 717.536022 231.46008 
L 719.570198 228.464231 
L 721.604375 230.203925 
L 723.638551 218.379461 
L 725.672727 208.479019 
L 727.706904 204.476771 
L 729.74108 206.774565 
L 731.775256 200.730712 
L 733.809433 209.164943 
L 735.843609 206.012508 
L 737.877785 201.72069 
L 739.911962 198.448451 
L 741.946138 201.114361 
L 743.980314 205.257281 
L 746.014491 205.679202 
L 748.048667 204.896691 
L 750.082843 200.596075 
L 752.11702 200.518513 
L 754.151196 196.272272 
L 756.185373 185.372389 
L 758.219549 184.935857 
L 760.253725 188.762527 
L 764.322078 194.139544 
L 766.356254 205.679266 
L 768.390431 206.742072 
L 770.424607 203.901791 
L 772.458783 195.020421 
L 774.49296 201.397166 
L 776.527136 191.733952 
L 778.561312 193.651495 
L 780.595489 186.12409 
L 782.629665 193.430371 
L 784.663841 189.474622 
L 786.698018 183.620164 
L 788.732194 184.091729 
L 790.76637 185.765629 
L 792.800547 186.058376 
L 794.834723 187.07805 
L 796.8689 183.185062 
L 798.903076 181.921363 
L 800.937252 176.35835 
L 802.971429 177.636627 
L 805.005605 175.801188 
L 807.039781 176.548094 
L 809.073958 171.455978 
L 811.108134 176.028125 
L 813.14231 172.084096 
L 815.176487 175.502184 
L 817.210663 178.536847 
L 819.244839 179.336286 
L 821.279016 186.563639 
L 823.313192 187.258266 
L 825.347368 187.504164 
L 827.381545 187.469544 
L 829.415721 186.424428 
L 831.449897 183.729329 
L 833.484074 185.035207 
L 835.51825 188.37043 
L 837.552427 190.92238 
L 839.586603 190.628394 
L 841.620779 189.370381 
L 843.654956 190.292928 
L 845.689132 193.804713 
L 847.723308 193.525084 
L 849.757485 195.263937 
L 851.791661 194.790212 
L 853.825837 198.964989 
L 855.860014 197.508402 
L 857.89419 195.593241 
L 859.928366 201.618544 
L 861.962543 196.747617 
L 863.996719 202.733536 
L 866.030895 201.224923 
L 868.065072 200.727473 
L 870.099248 198.662238 
L 872.133424 196.167586 
L 874.167601 198.57429 
L 876.201777 199.079808 
L 878.235954 202.239039 
L 880.27013 201.320525 
L 882.304306 202.234084 
L 884.338483 202.029349 
L 886.372659 206.971518 
L 888.406835 205.864499 
L 890.441012 201.760519 
L 892.475188 199.830112 
L 894.509364 201.749148 
L 896.543541 201.206724 
L 898.577717 200.33798 
L 900.611893 202.962314 
L 902.64607 201.462881 
L 904.680246 197.917428 
L 906.714422 197.215465 
L 908.748599 194.79323 
L 910.782775 194.016373 
L 912.816951 194.424033 
L 914.851128 194.394558 
L 916.885304 194.483046 
L 918.919481 193.664009 
L 920.953657 190.96548 
L 922.987833 191.612115 
L 925.02201 190.673242 
L 927.056186 187.663988 
L 929.090362 187.088849 
L 931.124539 187.134205 
L 933.158715 186.572945 
L 935.192891 186.542264 
L 937.227068 186.275974 
L 939.261244 185.745937 
L 941.29542 185.804124 
L 943.329597 185.237656 
L 945.363773 183.67346 
L 947.397949 184.979053 
L 949.432126 187.13322 
L 951.466302 186.880398 
L 953.500478 188.002885 
L 955.534655 186.340419 
L 957.568831 186.3563 
L 959.603008 185.866313 
L 961.637184 186.449552 
L 963.67136 185.759023 
L 965.705537 185.87257 
L 967.739713 185.822006 
L 969.773889 185.442232 
L 971.808066 186.060567 
L 973.842242 185.885847 
L 975.876418 185.145198 
L 977.910595 185.349997 
L 979.944771 185.726657 
L 981.978947 185.711825 
L 984.013124 185.492829 
L 986.0473 184.868078 
L 988.081476 184.712446 
L 990.115653 184.688847 
L 994.184005 184.792993 
L 996.218182 184.783433 
L 996.218182 184.783433 
" style="fill:none;stroke:#2ca02c;stroke-linecap:square;stroke-width:1.5;"/>
   </g>
   <g id="line2d_20">
    <path clip-path="url(#p7ca8728e99)" d="M 184.581818 484.232727 
L 300.52987 484.232727 
L 308.666576 483.597016 
L 314.769105 482.327883 
L 320.871634 481.096001 
L 322.90581 480.758966 
L 324.939986 480.832273 
L 326.974163 480.782797 
L 329.008339 479.737646 
L 331.042515 478.904582 
L 333.076692 478.870217 
L 335.110868 479.559278 
L 339.179221 478.867221 
L 341.213397 478.144728 
L 349.350103 473.745525 
L 353.418455 473.32199 
L 355.452632 473.435774 
L 357.486808 473.204857 
L 359.520984 472.285291 
L 361.555161 472.280835 
L 363.589337 471.872335 
L 365.623513 472.389072 
L 367.65769 473.211336 
L 369.691866 473.628827 
L 371.726042 472.252519 
L 373.760219 472.472379 
L 375.794395 471.432833 
L 377.828571 470.756482 
L 379.862748 469.403469 
L 381.896924 470.857319 
L 383.9311 470.28538 
L 385.965277 468.908755 
L 387.999453 468.07505 
L 390.03363 466.027914 
L 394.101982 461.317128 
L 396.136159 462.384199 
L 398.170335 460.016307 
L 400.204511 456.711266 
L 402.238688 455.794992 
L 404.272864 455.229806 
L 406.30704 453.563509 
L 408.341217 453.792272 
L 410.375393 453.799073 
L 412.409569 450.663801 
L 414.443746 448.504298 
L 416.477922 442.301729 
L 418.512098 440.397724 
L 420.546275 435.835865 
L 422.580451 430.622824 
L 424.614627 424.74314 
L 426.648804 424.28463 
L 428.68298 415.940538 
L 430.717157 413.716543 
L 432.751333 413.404081 
L 434.785509 409.992011 
L 436.819686 412.068894 
L 438.853862 407.010605 
L 440.888038 402.905838 
L 444.956391 392.016332 
L 446.990567 394.742971 
L 449.024744 396.524908 
L 451.05892 396.498903 
L 453.093096 402.330993 
L 455.127273 404.651432 
L 457.161449 397.781334 
L 459.195625 400.776588 
L 461.229802 407.030297 
L 463.263978 411.204756 
L 465.298154 399.882451 
L 467.332331 392.409787 
L 469.366507 390.509474 
L 471.400684 391.555305 
L 473.43486 385.014939 
L 475.469036 377.473488 
L 477.503213 374.527337 
L 479.537389 366.84758 
L 481.571565 369.779922 
L 483.605742 365.516252 
L 485.639918 364.893407 
L 487.674094 359.112382 
L 489.708271 364.224015 
L 491.742447 360.591155 
L 493.776623 366.026066 
L 495.8108 362.223225 
L 497.844976 365.75055 
L 499.879152 364.86286 
L 501.913329 358.727527 
L 503.947505 348.864437 
L 505.981681 353.108629 
L 508.015858 347.15768 
L 510.050034 343.118858 
L 512.084211 340.73777 
L 514.118387 329.551127 
L 518.18674 328.095746 
L 520.220916 310.698058 
L 522.255092 309.365881 
L 524.289269 304.859433 
L 526.323445 311.798708 
L 528.357621 310.008831 
L 530.391798 304.547455 
L 532.425974 287.683885 
L 534.46015 273.864935 
L 536.494327 278.970263 
L 538.528503 282.372439 
L 540.562679 279.893541 
L 542.596856 271.411033 
L 544.631032 278.868817 
L 546.665208 266.854926 
L 548.699385 269.074936 
L 552.767738 251.452946 
L 554.801914 248.344391 
L 556.83609 246.258511 
L 558.870267 242.207715 
L 560.904443 236.389481 
L 562.938619 244.803512 
L 564.972796 238.411806 
L 567.006972 229.68467 
L 569.041148 222.11723 
L 573.109501 227.430502 
L 575.143677 237.188873 
L 577.177854 221.610696 
L 579.21203 234.771926 
L 581.246206 225.318228 
L 583.280383 225.148557 
L 585.314559 219.930793 
L 589.382912 199.160006 
L 591.417088 201.230831 
L 593.451265 206.121864 
L 595.485441 221.348059 
L 597.519617 218.45518 
L 599.553794 198.083605 
L 601.58797 180.926622 
L 603.622146 188.169951 
L 605.656323 198.202743 
L 607.690499 215.116083 
L 609.724675 235.082904 
L 611.758852 235.060528 
L 613.793028 228.790216 
L 615.827204 234.210572 
L 617.861381 223.223264 
L 619.895557 218.74221 
L 621.929733 213.104938 
L 625.998086 232.100887 
L 628.032262 227.00731 
L 630.066439 210.253222 
L 632.100615 225.708769 
L 634.134792 235.790394 
L 636.168968 221.769186 
L 638.203144 219.899031 
L 640.237321 220.561928 
L 642.271497 217.35607 
L 644.305673 199.098642 
L 646.33985 209.15065 
L 648.374026 204.141591 
L 650.408202 201.092286 
L 652.442379 209.876308 
L 654.476555 214.364381 
L 656.510731 222.626622 
L 658.544908 215.906597 
L 660.579084 217.07895 
L 662.61326 225.802973 
L 664.647437 214.455473 
L 666.681613 213.51552 
L 668.715789 212.308262 
L 670.749966 214.095741 
L 672.784142 206.273112 
L 674.818319 210.451955 
L 676.852495 211.490909 
L 678.886671 211.759898 
L 680.920848 208.365217 
L 682.955024 200.404076 
L 684.9892 190.579259 
L 687.023377 168.540009 
L 689.057553 177.996201 
L 691.091729 176.871967 
L 693.125906 163.70459 
L 695.160082 153.096945 
L 697.194258 155.681673 
L 699.228435 153.194421 
L 701.262611 162.231455 
L 703.296787 153.672561 
L 705.330964 146.932748 
L 709.399316 156.774208 
L 711.433493 154.036612 
L 713.467669 165.803556 
L 715.501846 170.388629 
L 717.536022 167.222283 
L 719.570198 163.467966 
L 721.604375 158.116898 
L 723.638551 157.919627 
L 725.672727 156.334596 
L 727.706904 154.960811 
L 729.74108 143.820587 
L 731.775256 138.473267 
L 733.809433 144.142809 
L 735.843609 141.40102 
L 737.877785 141.513647 
L 739.911962 143.456631 
L 741.946138 148.919246 
L 743.980314 143.95262 
L 746.014491 146.104755 
L 748.048667 146.884153 
L 750.082843 137.803732 
L 752.11702 147.335358 
L 754.151196 148.908637 
L 756.185373 156.462341 
L 758.219549 154.537937 
L 760.253725 160.12023 
L 762.287902 159.50091 
L 764.322078 145.251193 
L 766.356254 148.032557 
L 768.390431 145.856379 
L 770.424607 147.061732 
L 772.458783 131.125379 
L 774.49296 127.267932 
L 776.527136 123.765612 
L 778.561312 115.536752 
L 780.595489 120.959601 
L 782.629665 115.442197 
L 784.663841 112.677191 
L 786.698018 108.407637 
L 788.732194 110.363707 
L 790.76637 108.403032 
L 792.800547 110.031481 
L 794.834723 103.538297 
L 796.8689 103.265815 
L 798.903076 104.195636 
L 800.937252 98.624999 
L 802.971429 99.036757 
L 805.005605 105.232461 
L 807.039781 104.722592 
L 809.073958 119.024747 
L 811.108134 121.768251 
L 813.14231 132.163189 
L 815.176487 144.211731 
L 817.210663 143.276352 
L 819.244839 139.92798 
L 821.279016 144.622028 
L 823.313192 150.899995 
L 825.347368 145.622455 
L 827.381545 151.46281 
L 829.415721 147.746703 
L 831.449897 153.699971 
L 833.484074 158.516777 
L 835.51825 155.852677 
L 837.552427 159.908316 
L 839.586603 161.076953 
L 841.620779 156.958934 
L 843.654956 166.132352 
L 847.723308 167.985038 
L 849.757485 167.682477 
L 851.791661 166.760628 
L 853.825837 163.658949 
L 855.860014 166.746367 
L 857.89419 166.216616 
L 859.928366 167.103273 
L 861.962543 161.370557 
L 863.996719 156.666346 
L 866.030895 159.455046 
L 868.065072 159.826562 
L 870.099248 162.231995 
L 872.133424 163.134851 
L 874.167601 159.905394 
L 876.201777 168.929438 
L 878.235954 168.858451 
L 880.27013 168.924546 
L 882.304306 169.3155 
L 884.338483 171.718456 
L 886.372659 169.573182 
L 888.406835 169.451726 
L 890.441012 169.888956 
L 892.475188 169.130076 
L 894.509364 168.693767 
L 896.543541 170.599908 
L 898.577717 172.316813 
L 900.611893 168.599689 
L 902.64607 166.022806 
L 904.680246 167.006209 
L 906.714422 169.643534 
L 908.748599 171.572638 
L 910.782775 167.189029 
L 912.816951 170.994228 
L 914.851128 177.034396 
L 916.885304 173.617387 
L 918.919481 171.080175 
L 920.953657 174.522466 
L 922.987833 173.821646 
L 925.02201 175.951039 
L 927.056186 176.209039 
L 929.090362 178.653602 
L 931.124539 181.887537 
L 933.158715 181.885758 
L 935.192891 180.89432 
L 937.227068 180.17889 
L 939.261244 181.826301 
L 941.29542 182.592804 
L 943.329597 183.836175 
L 945.363773 184.414586 
L 953.500478 183.743145 
L 955.534655 182.772002 
L 957.568831 184.253745 
L 959.603008 184.051328 
L 961.637184 184.465722 
L 967.739713 184.356557 
L 969.773889 182.70273 
L 971.808066 182.282493 
L 973.842242 182.193941 
L 975.876418 182.615418 
L 977.910595 183.879784 
L 979.944771 184.166305 
L 981.978947 183.827314 
L 984.013124 182.493136 
L 986.0473 182.493072 
L 988.081476 181.008598 
L 990.115653 182.219065 
L 992.149829 182.334105 
L 994.184005 182.328674 
L 996.218182 182.496185 
L 996.218182 182.496185 
" style="fill:none;stroke:#d62728;stroke-dasharray:5.55,2.4;stroke-dashoffset:0;stroke-width:1.5;"/>
   </g>
   <g id="line2d_21">
    <path clip-path="url(#p7ca8728e99)" d="M 184.581818 484.232727 
L 300.52987 484.232727 
L 308.666576 483.597016 
L 310.700752 483.619287 
L 312.734928 483.405557 
L 316.803281 482.627254 
L 318.837457 482.584277 
L 320.871634 483.07099 
L 322.90581 482.927624 
L 324.939986 482.511818 
L 326.974163 482.298522 
L 329.008339 481.581043 
L 331.042515 481.604123 
L 333.076692 481.369176 
L 335.110868 481.475114 
L 339.179221 481.062932 
L 341.213397 480.30743 
L 343.247573 480.078427 
L 345.28175 479.299279 
L 347.315926 479.508452 
L 353.418455 478.806547 
L 355.452632 477.974822 
L 357.486808 478.067136 
L 359.520984 478.450228 
L 363.589337 477.307059 
L 367.65769 476.444866 
L 369.691866 477.125746 
L 373.760219 476.154331 
L 375.794395 475.462847 
L 377.828571 474.898298 
L 379.862748 475.031433 
L 381.896924 474.917522 
L 383.9311 473.722389 
L 385.965277 472.696856 
L 390.03363 475.190303 
L 392.067806 474.515319 
L 394.101982 472.833121 
L 396.136159 473.383558 
L 398.170335 472.293025 
L 400.204511 473.100068 
L 402.238688 471.721926 
L 404.272864 472.386126 
L 406.30704 472.890659 
L 410.375393 470.104809 
L 412.409569 469.334297 
L 414.443746 467.076924 
L 416.477922 466.005728 
L 418.512098 467.823788 
L 420.546275 469.157619 
L 422.580451 466.124993 
L 424.614627 463.61156 
L 426.648804 465.147105 
L 428.68298 465.523172 
L 430.717157 464.008179 
L 432.751333 461.878754 
L 434.785509 461.212322 
L 436.819686 463.524617 
L 438.853862 463.825215 
L 440.888038 460.949499 
L 442.922215 457.820405 
L 444.956391 453.630796 
L 446.990567 452.4717 
L 449.024744 453.131821 
L 451.05892 451.406757 
L 453.093096 453.966814 
L 455.127273 455.786404 
L 457.161449 453.865268 
L 459.195625 451.391964 
L 461.229802 452.123803 
L 463.263978 455.690206 
L 465.298154 456.967662 
L 467.332331 457.911641 
L 469.366507 456.013293 
L 471.400684 457.574928 
L 473.43486 456.700785 
L 475.469036 457.636966 
L 477.503213 455.054692 
L 479.537389 453.735105 
L 481.571565 453.156285 
L 483.605742 450.755858 
L 485.639918 451.322525 
L 487.674094 446.746142 
L 489.708271 441.63044 
L 491.742447 437.59194 
L 493.776623 433.939137 
L 495.8108 434.080774 
L 497.844976 435.730277 
L 499.879152 437.213536 
L 501.913329 436.228986 
L 503.947505 440.567454 
L 505.981681 439.73698 
L 508.015858 441.194611 
L 510.050034 439.08834 
L 512.084211 437.78505 
L 514.118387 438.078452 
L 516.152563 438.147879 
L 518.18674 438.629591 
L 520.220916 435.638458 
L 522.255092 433.317967 
L 524.289269 427.836673 
L 526.323445 429.564917 
L 528.357621 429.554043 
L 530.391798 428.165632 
L 532.425974 426.007109 
L 534.46015 419.625258 
L 536.494327 419.493384 
L 538.528503 416.072969 
L 540.562679 412.217531 
L 542.596856 403.028382 
L 544.631032 399.316928 
L 546.665208 393.681546 
L 548.699385 388.919854 
L 550.733561 394.813982 
L 552.767738 391.838698 
L 554.801914 395.218172 
L 556.83609 395.876439 
L 558.870267 388.153708 
L 560.904443 384.868193 
L 562.938619 393.753446 
L 564.972796 386.358963 
L 567.006972 389.949684 
L 569.041148 382.744779 
L 571.075325 374.858293 
L 575.143677 375.861293 
L 577.177854 378.766145 
L 579.21203 379.317741 
L 581.246206 370.044885 
L 583.280383 377.454208 
L 585.314559 362.767555 
L 587.348735 354.030827 
L 589.382912 358.574706 
L 591.417088 355.384809 
L 593.451265 358.985653 
L 595.485441 361.487801 
L 597.519617 362.216452 
L 599.553794 354.831553 
L 601.58797 354.86495 
L 603.622146 353.239344 
L 605.656323 349.050655 
L 607.690499 353.753533 
L 609.724675 342.511306 
L 611.758852 340.449105 
L 613.793028 339.122025 
L 615.827204 334.717437 
L 617.861381 336.308503 
L 619.895557 329.670947 
L 621.929733 331.563049 
L 623.96391 320.451967 
L 625.998086 321.729736 
L 628.032262 312.595051 
L 630.066439 303.984464 
L 632.100615 302.718129 
L 634.134792 318.180885 
L 636.168968 309.131003 
L 638.203144 311.528306 
L 640.237321 311.355364 
L 642.271497 312.08523 
L 644.305673 308.933462 
L 646.33985 310.827359 
L 648.374026 301.917356 
L 650.408202 299.639429 
L 652.442379 299.045916 
L 654.476555 290.459325 
L 656.510731 287.479674 
L 658.544908 288.589456 
L 660.579084 281.788931 
L 662.61326 289.36933 
L 664.647437 289.256624 
L 666.681613 282.272073 
L 668.715789 270.402825 
L 670.749966 274.322588 
L 672.784142 277.000726 
L 674.818319 266.994678 
L 676.852495 259.095852 
L 680.920848 245.491801 
L 682.955024 242.587838 
L 684.9892 240.203129 
L 687.023377 242.477768 
L 689.057553 241.884731 
L 691.091729 234.108966 
L 693.125906 238.391574 
L 695.160082 242.127914 
L 697.194258 238.38924 
L 699.228435 239.977558 
L 701.262611 234.969611 
L 703.296787 237.019203 
L 705.330964 239.687209 
L 707.36514 237.331832 
L 709.399316 237.975481 
L 711.433493 241.533924 
L 713.467669 240.797674 
L 715.501846 236.472252 
L 717.536022 239.263065 
L 719.570198 237.966334 
L 721.604375 232.013653 
L 723.638551 222.661179 
L 725.672727 218.675701 
L 727.706904 224.992068 
L 729.74108 220.211756 
L 731.775256 221.044767 
L 733.809433 222.301098 
L 735.843609 209.979628 
L 737.877785 206.82424 
L 739.911962 201.136753 
L 741.946138 203.006939 
L 743.980314 204.236336 
L 746.014491 206.698051 
L 748.048667 210.041341 
L 752.11702 203.029363 
L 754.151196 201.991299 
L 756.185373 198.524075 
L 758.219549 197.818205 
L 760.253725 194.446679 
L 762.287902 183.738445 
L 764.322078 186.57231 
L 766.356254 189.7984 
L 768.390431 192.121634 
L 770.424607 198.840293 
L 772.458783 191.313651 
L 774.49296 202.166559 
L 776.527136 191.440094 
L 778.561312 183.543524 
L 780.595489 186.12409 
L 782.629665 182.28227 
L 784.663841 189.474622 
L 786.698018 183.620164 
L 790.76637 191.328483 
L 792.800547 192.791995 
L 794.834723 199.543464 
L 796.8689 199.881185 
L 798.903076 200.700189 
L 800.937252 200.429676 
L 802.971429 194.496545 
L 805.005605 195.944906 
L 807.039781 195.183707 
L 809.073958 192.227781 
L 811.108134 192.860886 
L 813.14231 193.192572 
L 815.176487 189.043268 
L 817.210663 190.108774 
L 819.244839 188.979141 
L 821.279016 189.081318 
L 823.313192 189.071313 
L 825.347368 186.87935 
L 827.381545 189.016683 
L 829.415721 188.754999 
L 831.449897 191.919916 
L 833.484074 192.930825 
L 835.51825 195.323871 
L 837.552427 194.582174 
L 839.586603 195.96158 
L 841.620779 194.117597 
L 843.654956 193.82863 
L 845.689132 199.79762 
L 847.723308 199.667493 
L 849.757485 199.349464 
L 851.791661 193.021377 
L 853.825837 191.605762 
L 855.860014 198.319816 
L 857.89419 197.039792 
L 859.928366 195.894278 
L 861.962543 199.112808 
L 863.996719 201.686673 
L 866.030895 204.508596 
L 868.065072 204.008256 
L 870.099248 202.647176 
L 872.133424 200.631616 
L 874.167601 199.078569 
L 876.201777 205.115465 
L 878.235954 203.743078 
L 880.27013 204.34369 
L 882.304306 207.060165 
L 884.338483 208.894556 
L 886.372659 208.153717 
L 888.406835 208.184081 
L 890.441012 207.952094 
L 892.475188 207.324548 
L 894.509364 205.865516 
L 898.577717 199.245444 
L 900.611893 198.783504 
L 902.64607 197.269492 
L 904.680246 198.109935 
L 906.714422 197.725874 
L 908.748599 197.505861 
L 910.782775 196.547233 
L 912.816951 192.745496 
L 916.885304 192.900143 
L 918.919481 191.914167 
L 920.953657 190.175283 
L 922.987833 190.311064 
L 925.02201 189.668177 
L 927.056186 188.728193 
L 929.090362 188.123801 
L 931.124539 186.741981 
L 933.158715 184.438407 
L 935.192891 184.245677 
L 937.227068 183.678034 
L 939.261244 183.588816 
L 941.29542 185.855387 
L 943.329597 185.63925 
L 945.363773 186.597338 
L 947.397949 184.861503 
L 949.432126 184.27204 
L 951.466302 184.245836 
L 953.500478 184.405311 
L 955.534655 185.181946 
L 959.603008 185.477519 
L 961.637184 186.660671 
L 963.67136 186.017022 
L 965.705537 185.87257 
L 969.773889 185.871554 
L 971.808066 186.130093 
L 973.842242 186.889291 
L 975.876418 186.553412 
L 977.910595 185.803171 
L 984.013124 185.364004 
L 988.081476 185.329097 
L 990.115653 185.628292 
L 994.184005 185.557972 
L 996.218182 185.12919 
L 996.218182 185.12919 
" style="fill:none;stroke:#9467bd;stroke-dasharray:5.55,2.4;stroke-dashoffset:0;stroke-width:1.5;"/>
   </g>
   <g id="line2d_22">
    <path clip-path="url(#p7ca8728e99)" d="M 184.581818 484.232727 
L 300.52987 484.232727 
L 304.598223 483.994203 
L 306.632399 484.108031 
L 310.700752 483.51574 
L 312.734928 483.779018 
L 314.769105 483.80849 
L 318.837457 482.131125 
L 320.871634 482.047618 
L 324.939986 480.672714 
L 331.042515 480.584136 
L 333.076692 481.39827 
L 335.110868 481.868985 
L 339.179221 482.954047 
L 343.247573 483.301906 
L 347.315926 481.817366 
L 349.350103 480.763024 
L 351.384279 480.617817 
L 353.418455 481.086037 
L 355.452632 480.942749 
L 357.486808 479.684803 
L 359.520984 480.825591 
L 361.555161 480.570398 
L 363.589337 481.430574 
L 365.623513 480.484602 
L 367.65769 480.677467 
L 369.691866 480.600636 
L 371.726042 480.710225 
L 375.794395 480.502007 
L 377.828571 480.233661 
L 379.862748 477.428751 
L 381.896924 477.408436 
L 383.9311 475.483087 
L 385.965277 474.724052 
L 387.999453 474.642409 
L 390.03363 474.043314 
L 392.067806 473.04754 
L 394.101982 472.740107 
L 396.136159 472.760353 
L 398.170335 470.900166 
L 400.204511 470.703958 
L 402.238688 470.06106 
L 404.272864 468.343996 
L 406.30704 464.425981 
L 408.341217 463.923505 
L 410.375393 463.789183 
L 412.409569 466.01239 
L 414.443746 460.794471 
L 416.477922 458.209612 
L 418.512098 459.759217 
L 420.546275 458.117146 
L 422.580451 454.433467 
L 424.614627 448.082413 
L 426.648804 447.353277 
L 428.68298 447.02462 
L 430.717157 443.527199 
L 432.751333 444.173433 
L 434.785509 442.388176 
L 436.819686 430.022006 
L 438.853862 426.756524 
L 440.888038 420.562773 
L 442.922215 412.728019 
L 444.956391 411.788257 
L 446.990567 406.236098 
L 449.024744 394.954352 
L 451.05892 395.23252 
L 453.093096 392.126069 
L 455.127273 390.118013 
L 457.161449 389.042549 
L 459.195625 397.759593 
L 461.229802 397.845754 
L 463.263978 405.554748 
L 465.298154 401.85707 
L 467.332331 402.050157 
L 469.366507 399.847886 
L 471.400684 401.304458 
L 473.43486 400.312074 
L 475.469036 390.817745 
L 477.503213 387.897551 
L 479.537389 382.609442 
L 481.571565 374.192879 
L 483.605742 369.749717 
L 485.639918 357.888401 
L 487.674094 357.326681 
L 489.708271 360.555677 
L 491.742447 359.935611 
L 493.776623 362.393316 
L 495.8108 356.604232 
L 497.844976 346.070734 
L 499.879152 325.513401 
L 501.913329 307.503078 
L 503.947505 301.24096 
L 505.981681 275.057408 
L 508.015858 273.115329 
L 510.050034 273.871128 
L 512.084211 275.667327 
L 514.118387 269.216243 
L 516.152563 271.128689 
L 518.18674 274.10564 
L 520.220916 274.417285 
L 522.255092 276.280024 
L 524.289269 250.354122 
L 526.323445 249.021834 
L 528.357621 237.111105 
L 530.391798 239.820211 
L 532.425974 235.447369 
L 534.46015 231.483965 
L 536.494327 235.468109 
L 538.528503 209.896222 
L 540.562679 208.763476 
L 544.631032 220.314505 
L 546.665208 206.051067 
L 548.699385 206.138983 
L 550.733561 200.297706 
L 552.767738 206.117195 
L 554.801914 195.268765 
L 556.83609 201.313855 
L 558.870267 199.784471 
L 560.904443 195.65308 
L 562.938619 179.123674 
L 564.972796 177.354807 
L 567.006972 173.164721 
L 569.041148 170.018702 
L 571.075325 171.254038 
L 573.109501 161.05888 
L 575.143677 157.036845 
L 577.177854 148.779654 
L 579.21203 149.261477 
L 581.246206 150.513583 
L 583.280383 146.691582 
L 585.314559 137.92287 
L 587.348735 145.298455 
L 589.382912 139.894599 
L 591.417088 143.809598 
L 593.451265 143.629668 
L 595.485441 133.240606 
L 597.519617 126.946568 
L 599.553794 123.698213 
L 601.58797 122.300068 
L 603.622146 122.087074 
L 605.656323 118.010726 
L 607.690499 118.022129 
L 609.724675 112.922136 
L 611.758852 112.919722 
L 613.793028 100.843579 
L 615.827204 102.294418 
L 617.861381 106.630226 
L 619.895557 107.169475 
L 621.929733 100.693156 
L 623.96391 96.910889 
L 625.998086 96.453014 
L 628.032262 91.298582 
L 630.066439 94.76841 
L 632.100615 94.447809 
L 634.134792 100.034135 
L 636.168968 102.343331 
L 638.203144 102.425402 
L 640.237321 94.6413 
L 642.271497 88.887273 
L 644.305673 97.547995 
L 646.33985 93.062558 
L 648.374026 93.161051 
L 650.408202 94.329433 
L 652.442379 91.283527 
L 654.476555 96.64479 
L 656.510731 100.609877 
L 658.544908 102.215649 
L 660.579084 102.194591 
L 662.61326 105.211118 
L 664.647437 97.704389 
L 666.681613 97.122294 
L 668.715789 97.398811 
L 670.749966 99.309589 
L 672.784142 97.763339 
L 674.818319 100.793047 
L 676.852495 101.064386 
L 678.886671 101.011312 
L 680.920848 104.624163 
L 682.955024 104.611649 
L 684.9892 100.469396 
L 687.023377 100.241348 
L 689.057553 100.320847 
L 693.125906 114.630561 
L 695.160082 111.71834 
L 697.194258 110.703747 
L 699.228435 114.841204 
L 701.262611 117.088115 
L 703.296787 114.212451 
L 705.330964 114.078703 
L 707.36514 114.078576 
L 709.399316 114.350519 
L 711.433493 117.364632 
L 713.467669 119.13585 
L 715.501846 120.460848 
L 717.536022 123.009177 
L 721.604375 123.160648 
L 723.638551 129.632425 
L 725.672727 128.822472 
L 727.706904 128.549989 
L 729.74108 128.451719 
L 733.809433 136.254465 
L 735.843609 134.206953 
L 737.877785 138.383001 
L 739.911962 141.172845 
L 741.946138 142.192869 
L 743.980314 142.018847 
L 746.014491 142.105651 
L 748.048667 143.199457 
L 750.082843 144.696731 
L 752.11702 145.280922 
L 754.151196 145.143712 
L 756.185373 144.62784 
L 758.219549 146.348875 
L 760.253725 146.289131 
L 762.287902 152.014954 
L 764.322078 152.078096 
L 766.356254 153.948124 
L 768.390431 153.570161 
L 770.424607 150.779301 
L 772.458783 150.826435 
L 774.49296 148.662612 
L 776.527136 148.798329 
L 778.561312 151.052641 
L 780.595489 151.298889 
L 782.629665 158.054296 
L 784.663841 157.813067 
L 786.698018 158.169496 
L 788.732194 158.982688 
L 790.76637 156.725867 
L 792.800547 155.762411 
L 794.834723 155.726329 
L 796.8689 155.907085 
L 798.903076 158.270688 
L 800.937252 158.2536 
L 802.971429 156.550067 
L 805.005605 160.374513 
L 807.039781 159.599816 
L 809.073958 161.604767 
L 811.108134 161.627699 
L 813.14231 161.866197 
L 815.176487 161.33292 
L 817.210663 161.147781 
L 819.244839 165.3197 
L 823.313192 165.58078 
L 825.347368 166.707523 
L 827.381545 171.187402 
L 829.415721 171.844645 
L 831.449897 172.623693 
L 833.484074 172.801749 
L 835.51825 172.614229 
L 837.552427 174.774748 
L 839.586603 174.067862 
L 841.620779 181.007487 
L 843.654956 180.87196 
L 845.689132 180.907723 
L 847.723308 181.233153 
L 849.757485 181.275555 
L 851.791661 180.280686 
L 853.825837 180.845534 
L 855.860014 182.065434 
L 857.89419 182.097958 
L 859.928366 181.979138 
L 861.962543 183.073928 
L 863.996719 181.941849 
L 866.030895 182.857791 
L 870.099248 188.212194 
L 872.133424 188.888875 
L 874.167601 188.933944 
L 876.201777 189.754156 
L 878.235954 189.613452 
L 880.27013 190.461296 
L 882.304306 191.484433 
L 884.338483 191.411762 
L 886.372659 194.938571 
L 888.406835 194.813335 
L 890.441012 195.538325 
L 892.475188 195.475914 
L 896.543541 198.165868 
L 898.577717 199.190179 
L 900.611893 199.614101 
L 902.64607 202.080453 
L 904.680246 200.251652 
L 906.714422 198.817743 
L 908.748599 199.20768 
L 910.782775 198.61269 
L 912.816951 198.522233 
L 914.851128 199.238425 
L 916.885304 199.462186 
L 918.919481 198.900958 
L 920.953657 199.748262 
L 922.987833 199.225689 
L 925.02201 199.107853 
L 927.056186 199.751756 
L 929.090362 199.588311 
L 931.124539 200.655787 
L 933.158715 200.095798 
L 939.261244 198.962639 
L 941.29542 199.031784 
L 943.329597 199.39339 
L 945.363773 198.757078 
L 947.397949 197.519773 
L 949.432126 197.170395 
L 953.500478 197.065423 
L 957.568831 197.937946 
L 959.603008 197.894274 
L 961.637184 196.528303 
L 965.705537 196.40691 
L 967.739713 196.381532 
L 969.773889 197.207143 
L 973.842242 197.177161 
L 975.876418 194.277263 
L 977.910595 193.062921 
L 979.944771 192.821978 
L 981.978947 193.26159 
L 984.013124 193.438121 
L 986.0473 193.93195 
L 988.081476 193.560086 
L 990.115653 193.950372 
L 992.149829 188.558173 
L 994.184005 188.558046 
L 996.218182 187.962547 
L 996.218182 187.962547 
" style="fill:none;stroke:#8c564b;stroke-dasharray:5.55,2.4;stroke-dashoffset:0;stroke-width:1.5;"/>
   </g>
   <g id="patch_3">
    <path d="M 144 504 
L 144 69.12 
" style="fill:none;stroke:#000000;stroke-linecap:square;stroke-linejoin:miter;stroke-width:0.8;"/>
   </g>
   <g id="patch_4">
    <path d="M 1036.8 504 
L 1036.8 69.12 
" style="fill:none;stroke:#000000;stroke-linecap:square;stroke-linejoin:miter;stroke-width:0.8;"/>
   </g>
   <g id="patch_5">
    <path d="M 144 504 
L 1036.8 504 
" style="fill:none;stroke:#000000;stroke-linecap:square;stroke-linejoin:miter;stroke-width:0.8;"/>
   </g>
   <g id="patch_6">
    <path d="M 144 69.12 
L 1036.8 69.12 
" style="fill:none;stroke:#000000;stroke-linecap:square;stroke-linejoin:miter;stroke-width:0.8;"/>
   </g>
   <g id="legend_1">
    <g id="patch_7">
     <path d="M 151 166.579375 
L 275.432813 166.579375 
Q 277.432813 166.579375 277.432813 164.579375 
L 277.432813 76.12 
Q 277.432813 74.12 275.432813 74.12 
L 151 74.12 
Q 149 74.12 149 76.12 
L 149 164.579375 
Q 149 166.579375 151 166.579375 
z
" style="fill:#ffffff;opacity:0.8;stroke:#cccccc;stroke-linejoin:miter;"/>
    </g>
    <g id="line2d_23">
     <path d="M 153 82.218438 
L 173 82.218438 
" style="fill:none;stroke:#1f77b4;stroke-linecap:square;stroke-width:1.5;"/>
    </g>
    <g id="line2d_24"/>
    <g id="text_19">
     <!-- taylorfo -->
     <defs>
      <path d="M 18.3125 70.21875 
L 18.3125 54.6875 
L 36.8125 54.6875 
L 36.8125 47.703125 
L 18.3125 47.703125 
L 18.3125 18.015625 
Q 18.3125 11.328125 20.140625 9.421875 
Q 21.96875 7.515625 27.59375 7.515625 
L 36.8125 7.515625 
L 36.8125 0 
L 27.59375 0 
Q 17.1875 0 13.234375 3.875 
Q 9.28125 7.765625 9.28125 18.015625 
L 9.28125 47.703125 
L 2.6875 47.703125 
L 2.6875 54.6875 
L 9.28125 54.6875 
L 9.28125 70.21875 
z
" id="DejaVuSans-116"/>
      <path d="M 34.28125 27.484375 
Q 23.390625 27.484375 19.1875 25 
Q 14.984375 22.515625 14.984375 16.5 
Q 14.984375 11.71875 18.140625 8.90625 
Q 21.296875 6.109375 26.703125 6.109375 
Q 34.1875 6.109375 38.703125 11.40625 
Q 43.21875 16.703125 43.21875 25.484375 
L 43.21875 27.484375 
z
M 52.203125 31.203125 
L 52.203125 0 
L 43.21875 0 
L 43.21875 8.296875 
Q 40.140625 3.328125 35.546875 0.953125 
Q 30.953125 -1.421875 24.3125 -1.421875 
Q 15.921875 -1.421875 10.953125 3.296875 
Q 6 8.015625 6 15.921875 
Q 6 25.140625 12.171875 29.828125 
Q 18.359375 34.515625 30.609375 34.515625 
L 43.21875 34.515625 
L 43.21875 35.40625 
Q 43.21875 41.609375 39.140625 45 
Q 35.0625 48.390625 27.6875 48.390625 
Q 23 48.390625 18.546875 47.265625 
Q 14.109375 46.140625 10.015625 43.890625 
L 10.015625 52.203125 
Q 14.9375 54.109375 19.578125 55.046875 
Q 24.21875 56 28.609375 56 
Q 40.484375 56 46.34375 49.84375 
Q 52.203125 43.703125 52.203125 31.203125 
z
" id="DejaVuSans-97"/>
      <path d="M 32.171875 -5.078125 
Q 28.375 -14.84375 24.75 -17.8125 
Q 21.140625 -20.796875 15.09375 -20.796875 
L 7.90625 -20.796875 
L 7.90625 -13.28125 
L 13.1875 -13.28125 
Q 16.890625 -13.28125 18.9375 -11.515625 
Q 21 -9.765625 23.484375 -3.21875 
L 25.09375 0.875 
L 2.984375 54.6875 
L 12.5 54.6875 
L 29.59375 11.921875 
L 46.6875 54.6875 
L 56.203125 54.6875 
z
" id="DejaVuSans-121"/>
      <path d="M 9.421875 75.984375 
L 18.40625 75.984375 
L 18.40625 0 
L 9.421875 0 
z
" id="DejaVuSans-108"/>
     </defs>
     <g transform="translate(181 85.718438)scale(0.1 -0.1)">
      <use xlink:href="#DejaVuSans-116"/>
      <use x="39.208984" xlink:href="#DejaVuSans-97"/>
      <use x="100.488281" xlink:href="#DejaVuSans-121"/>
      <use x="159.667969" xlink:href="#DejaVuSans-108"/>
      <use x="187.451172" xlink:href="#DejaVuSans-111"/>
      <use x="248.632812" xlink:href="#DejaVuSans-114"/>
      <use x="289.746094" xlink:href="#DejaVuSans-102"/>
      <use x="324.951172" xlink:href="#DejaVuSans-111"/>
     </g>
    </g>
    <g id="line2d_25">
     <path d="M 153 96.896563 
L 173 96.896563 
" style="fill:none;stroke:#ff7f0e;stroke-linecap:square;stroke-width:1.5;"/>
    </g>
    <g id="line2d_26"/>
    <g id="text_20">
     <!-- taylorfo_abs -->
     <defs>
      <path d="M 50.984375 -16.609375 
L 50.984375 -23.578125 
L -0.984375 -23.578125 
L -0.984375 -16.609375 
z
" id="DejaVuSans-95"/>
     </defs>
     <g transform="translate(181 100.396563)scale(0.1 -0.1)">
      <use xlink:href="#DejaVuSans-116"/>
      <use x="39.208984" xlink:href="#DejaVuSans-97"/>
      <use x="100.488281" xlink:href="#DejaVuSans-121"/>
      <use x="159.667969" xlink:href="#DejaVuSans-108"/>
      <use x="187.451172" xlink:href="#DejaVuSans-111"/>
      <use x="248.632812" xlink:href="#DejaVuSans-114"/>
      <use x="289.746094" xlink:href="#DejaVuSans-102"/>
      <use x="324.951172" xlink:href="#DejaVuSans-111"/>
      <use x="386.132812" xlink:href="#DejaVuSans-95"/>
      <use x="436.132812" xlink:href="#DejaVuSans-97"/>
      <use x="497.412109" xlink:href="#DejaVuSans-98"/>
      <use x="560.888672" xlink:href="#DejaVuSans-115"/>
     </g>
    </g>
    <g id="line2d_27">
     <path d="M 153 111.852813 
L 173 111.852813 
" style="fill:none;stroke:#2ca02c;stroke-linecap:square;stroke-width:1.5;"/>
    </g>
    <g id="line2d_28"/>
    <g id="text_21">
     <!-- taylorfo_sq -->
     <defs>
      <path d="M 14.796875 27.296875 
Q 14.796875 17.390625 18.875 11.75 
Q 22.953125 6.109375 30.078125 6.109375 
Q 37.203125 6.109375 41.296875 11.75 
Q 45.40625 17.390625 45.40625 27.296875 
Q 45.40625 37.203125 41.296875 42.84375 
Q 37.203125 48.484375 30.078125 48.484375 
Q 22.953125 48.484375 18.875 42.84375 
Q 14.796875 37.203125 14.796875 27.296875 
z
M 45.40625 8.203125 
Q 42.578125 3.328125 38.25 0.953125 
Q 33.9375 -1.421875 27.875 -1.421875 
Q 17.96875 -1.421875 11.734375 6.484375 
Q 5.515625 14.40625 5.515625 27.296875 
Q 5.515625 40.1875 11.734375 48.09375 
Q 17.96875 56 27.875 56 
Q 33.9375 56 38.25 53.625 
Q 42.578125 51.265625 45.40625 46.390625 
L 45.40625 54.6875 
L 54.390625 54.6875 
L 54.390625 -20.796875 
L 45.40625 -20.796875 
z
" id="DejaVuSans-113"/>
     </defs>
     <g transform="translate(181 115.352813)scale(0.1 -0.1)">
      <use xlink:href="#DejaVuSans-116"/>
      <use x="39.208984" xlink:href="#DejaVuSans-97"/>
      <use x="100.488281" xlink:href="#DejaVuSans-121"/>
      <use x="159.667969" xlink:href="#DejaVuSans-108"/>
      <use x="187.451172" xlink:href="#DejaVuSans-111"/>
      <use x="248.632812" xlink:href="#DejaVuSans-114"/>
      <use x="289.746094" xlink:href="#DejaVuSans-102"/>
      <use x="324.951172" xlink:href="#DejaVuSans-111"/>
      <use x="386.132812" xlink:href="#DejaVuSans-95"/>
      <use x="436.132812" xlink:href="#DejaVuSans-115"/>
      <use x="488.232422" xlink:href="#DejaVuSans-113"/>
     </g>
    </g>
    <g id="line2d_29">
     <path d="M 153 126.809063 
L 173 126.809063 
" style="fill:none;stroke:#d62728;stroke-dasharray:5.55,2.4;stroke-dashoffset:0;stroke-width:1.5;"/>
    </g>
    <g id="line2d_30"/>
    <g id="text_22">
     <!-- taylorfo_abs_norm -->
     <g transform="translate(181 130.309063)scale(0.1 -0.1)">
      <use xlink:href="#DejaVuSans-116"/>
      <use x="39.208984" xlink:href="#DejaVuSans-97"/>
      <use x="100.488281" xlink:href="#DejaVuSans-121"/>
      <use x="159.667969" xlink:href="#DejaVuSans-108"/>
      <use x="187.451172" xlink:href="#DejaVuSans-111"/>
      <use x="248.632812" xlink:href="#DejaVuSans-114"/>
      <use x="289.746094" xlink:href="#DejaVuSans-102"/>
      <use x="324.951172" xlink:href="#DejaVuSans-111"/>
      <use x="386.132812" xlink:href="#DejaVuSans-95"/>
      <use x="436.132812" xlink:href="#DejaVuSans-97"/>
      <use x="497.412109" xlink:href="#DejaVuSans-98"/>
      <use x="560.888672" xlink:href="#DejaVuSans-115"/>
      <use x="612.988281" xlink:href="#DejaVuSans-95"/>
      <use x="662.988281" xlink:href="#DejaVuSans-110"/>
      <use x="726.367188" xlink:href="#DejaVuSans-111"/>
      <use x="787.548828" xlink:href="#DejaVuSans-114"/>
      <use x="826.912109" xlink:href="#DejaVuSans-109"/>
     </g>
    </g>
    <g id="line2d_31">
     <path d="M 153 141.765313 
L 173 141.765313 
" style="fill:none;stroke:#9467bd;stroke-dasharray:5.55,2.4;stroke-dashoffset:0;stroke-width:1.5;"/>
    </g>
    <g id="line2d_32"/>
    <g id="text_23">
     <!-- taylorfo_sq_norm -->
     <g transform="translate(181 145.265313)scale(0.1 -0.1)">
      <use xlink:href="#DejaVuSans-116"/>
      <use x="39.208984" xlink:href="#DejaVuSans-97"/>
      <use x="100.488281" xlink:href="#DejaVuSans-121"/>
      <use x="159.667969" xlink:href="#DejaVuSans-108"/>
      <use x="187.451172" xlink:href="#DejaVuSans-111"/>
      <use x="248.632812" xlink:href="#DejaVuSans-114"/>
      <use x="289.746094" xlink:href="#DejaVuSans-102"/>
      <use x="324.951172" xlink:href="#DejaVuSans-111"/>
      <use x="386.132812" xlink:href="#DejaVuSans-95"/>
      <use x="436.132812" xlink:href="#DejaVuSans-115"/>
      <use x="488.232422" xlink:href="#DejaVuSans-113"/>
      <use x="551.708984" xlink:href="#DejaVuSans-95"/>
      <use x="601.708984" xlink:href="#DejaVuSans-110"/>
      <use x="665.087891" xlink:href="#DejaVuSans-111"/>
      <use x="726.269531" xlink:href="#DejaVuSans-114"/>
      <use x="765.632812" xlink:href="#DejaVuSans-109"/>
     </g>
    </g>
    <g id="line2d_33">
     <path d="M 153 156.721563 
L 173 156.721563 
" style="fill:none;stroke:#8c564b;stroke-dasharray:5.55,2.4;stroke-dashoffset:0;stroke-width:1.5;"/>
    </g>
    <g id="line2d_34"/>
    <g id="text_24">
     <!-- Molchanov_group -->
     <defs>
      <path d="M 9.8125 72.90625 
L 24.515625 72.90625 
L 43.109375 23.296875 
L 61.8125 72.90625 
L 76.515625 72.90625 
L 76.515625 0 
L 66.890625 0 
L 66.890625 64.015625 
L 48.09375 14.015625 
L 38.1875 14.015625 
L 19.390625 64.015625 
L 19.390625 0 
L 9.8125 0 
z
" id="DejaVuSans-77"/>
      <path d="M 48.78125 52.59375 
L 48.78125 44.1875 
Q 44.96875 46.296875 41.140625 47.34375 
Q 37.3125 48.390625 33.40625 48.390625 
Q 24.65625 48.390625 19.8125 42.84375 
Q 14.984375 37.3125 14.984375 27.296875 
Q 14.984375 17.28125 19.8125 11.734375 
Q 24.65625 6.203125 33.40625 6.203125 
Q 37.3125 6.203125 41.140625 7.25 
Q 44.96875 8.296875 48.78125 10.40625 
L 48.78125 2.09375 
Q 45.015625 0.34375 40.984375 -0.53125 
Q 36.96875 -1.421875 32.421875 -1.421875 
Q 20.0625 -1.421875 12.78125 6.34375 
Q 5.515625 14.109375 5.515625 27.296875 
Q 5.515625 40.671875 12.859375 48.328125 
Q 20.21875 56 33.015625 56 
Q 37.15625 56 41.109375 55.140625 
Q 45.0625 54.296875 48.78125 52.59375 
z
" id="DejaVuSans-99"/>
      <path d="M 54.890625 33.015625 
L 54.890625 0 
L 45.90625 0 
L 45.90625 32.71875 
Q 45.90625 40.484375 42.875 44.328125 
Q 39.84375 48.1875 33.796875 48.1875 
Q 26.515625 48.1875 22.3125 43.546875 
Q 18.109375 38.921875 18.109375 30.90625 
L 18.109375 0 
L 9.078125 0 
L 9.078125 75.984375 
L 18.109375 75.984375 
L 18.109375 46.1875 
Q 21.34375 51.125 25.703125 53.5625 
Q 30.078125 56 35.796875 56 
Q 45.21875 56 50.046875 50.171875 
Q 54.890625 44.34375 54.890625 33.015625 
z
" id="DejaVuSans-104"/>
      <path d="M 2.984375 54.6875 
L 12.5 54.6875 
L 29.59375 8.796875 
L 46.6875 54.6875 
L 56.203125 54.6875 
L 35.6875 0 
L 23.484375 0 
z
" id="DejaVuSans-118"/>
      <path d="M 45.40625 27.984375 
Q 45.40625 37.75 41.375 43.109375 
Q 37.359375 48.484375 30.078125 48.484375 
Q 22.859375 48.484375 18.828125 43.109375 
Q 14.796875 37.75 14.796875 27.984375 
Q 14.796875 18.265625 18.828125 12.890625 
Q 22.859375 7.515625 30.078125 7.515625 
Q 37.359375 7.515625 41.375 12.890625 
Q 45.40625 18.265625 45.40625 27.984375 
z
M 54.390625 6.78125 
Q 54.390625 -7.171875 48.1875 -13.984375 
Q 42 -20.796875 29.203125 -20.796875 
Q 24.46875 -20.796875 20.265625 -20.09375 
Q 16.0625 -19.390625 12.109375 -17.921875 
L 12.109375 -9.1875 
Q 16.0625 -11.328125 19.921875 -12.34375 
Q 23.78125 -13.375 27.78125 -13.375 
Q 36.625 -13.375 41.015625 -8.765625 
Q 45.40625 -4.15625 45.40625 5.171875 
L 45.40625 9.625 
Q 42.625 4.78125 38.28125 2.390625 
Q 33.9375 0 27.875 0 
Q 17.828125 0 11.671875 7.65625 
Q 5.515625 15.328125 5.515625 27.984375 
Q 5.515625 40.671875 11.671875 48.328125 
Q 17.828125 56 27.875 56 
Q 33.9375 56 38.28125 53.609375 
Q 42.625 51.21875 45.40625 46.390625 
L 45.40625 54.6875 
L 54.390625 54.6875 
z
" id="DejaVuSans-103"/>
     </defs>
     <g transform="translate(181 160.221563)scale(0.1 -0.1)">
      <use xlink:href="#DejaVuSans-77"/>
      <use x="86.279297" xlink:href="#DejaVuSans-111"/>
      <use x="147.460938" xlink:href="#DejaVuSans-108"/>
      <use x="175.244141" xlink:href="#DejaVuSans-99"/>
      <use x="230.224609" xlink:href="#DejaVuSans-104"/>
      <use x="293.603516" xlink:href="#DejaVuSans-97"/>
      <use x="354.882812" xlink:href="#DejaVuSans-110"/>
      <use x="418.261719" xlink:href="#DejaVuSans-111"/>
      <use x="479.443359" xlink:href="#DejaVuSans-118"/>
      <use x="538.623047" xlink:href="#DejaVuSans-95"/>
      <use x="588.623047" xlink:href="#DejaVuSans-103"/>
      <use x="652.099609" xlink:href="#DejaVuSans-114"/>
      <use x="690.962891" xlink:href="#DejaVuSans-111"/>
      <use x="752.144531" xlink:href="#DejaVuSans-117"/>
      <use x="815.523438" xlink:href="#DejaVuSans-112"/>
     </g>
    </g>
   </g>
  </g>
 </g>
 <defs>
  <clipPath id="p7ca8728e99">
   <rect height="434.88" width="892.8" x="144" y="69.12"/>
  </clipPath>
 </defs>
</svg>
