<?xml version="1.0" encoding="utf-8" standalone="no"?>
<!DOCTYPE svg PUBLIC "-//W3C//DTD SVG 1.1//EN"
  "http://www.w3.org/Graphics/SVG/1.1/DTD/svg11.dtd">
<!-- Created with matplotlib (https://matplotlib.org/) -->
<svg height="576pt" version="1.1" viewBox="0 0 1152 576" width="1152pt" xmlns="http://www.w3.org/2000/svg" xmlns:xlink="http://www.w3.org/1999/xlink">
 <defs>
  <style type="text/css">
*{stroke-linecap:butt;stroke-linejoin:round;}
  </style>
 </defs>
 <g id="figure_1">
  <g id="patch_1">
   <path d="M 0 576 
L 1152 576 
L 1152 0 
L 0 0 
z
" style="fill:#ffffff;"/>
  </g>
  <g id="axes_1">
   <g id="patch_2">
    <path d="M 144 504 
L 1036.8 504 
L 1036.8 69.12 
L 144 69.12 
z
" style="fill:#ffffff;"/>
   </g>
   <g id="matplotlib.axis_1">
    <g id="xtick_1">
     <g id="line2d_1">
      <defs>
       <path d="M 0 0 
L 0 3.5 
" id="ma815d73b59" style="stroke:#000000;stroke-width:0.8;"/>
      </defs>
      <g>
       <use style="stroke:#000000;stroke-width:0.8;" x="182.547642" xlink:href="#ma815d73b59" y="504"/>
      </g>
     </g>
     <g id="text_1">
      <!-- 0 -->
      <defs>
       <path d="M 31.78125 66.40625 
Q 24.171875 66.40625 20.328125 58.90625 
Q 16.5 51.421875 16.5 36.375 
Q 16.5 21.390625 20.328125 13.890625 
Q 24.171875 6.390625 31.78125 6.390625 
Q 39.453125 6.390625 43.28125 13.890625 
Q 47.125 21.390625 47.125 36.375 
Q 47.125 51.421875 43.28125 58.90625 
Q 39.453125 66.40625 31.78125 66.40625 
z
M 31.78125 74.21875 
Q 44.046875 74.21875 50.515625 64.515625 
Q 56.984375 54.828125 56.984375 36.375 
Q 56.984375 17.96875 50.515625 8.265625 
Q 44.046875 -1.421875 31.78125 -1.421875 
Q 19.53125 -1.421875 13.0625 8.265625 
Q 6.59375 17.96875 6.59375 36.375 
Q 6.59375 54.828125 13.0625 64.515625 
Q 19.53125 74.21875 31.78125 74.21875 
z
" id="DejaVuSans-48"/>
      </defs>
      <g transform="translate(179.366392 518.598438)scale(0.1 -0.1)">
       <use xlink:href="#DejaVuSans-48"/>
      </g>
     </g>
    </g>
    <g id="xtick_2">
     <g id="line2d_2">
      <g>
       <use style="stroke:#000000;stroke-width:0.8;" x="284.256459" xlink:href="#ma815d73b59" y="504"/>
      </g>
     </g>
     <g id="text_2">
      <!-- 50 -->
      <defs>
       <path d="M 10.796875 72.90625 
L 49.515625 72.90625 
L 49.515625 64.59375 
L 19.828125 64.59375 
L 19.828125 46.734375 
Q 21.96875 47.46875 24.109375 47.828125 
Q 26.265625 48.1875 28.421875 48.1875 
Q 40.625 48.1875 47.75 41.5 
Q 54.890625 34.8125 54.890625 23.390625 
Q 54.890625 11.625 47.5625 5.09375 
Q 40.234375 -1.421875 26.90625 -1.421875 
Q 22.3125 -1.421875 17.546875 -0.640625 
Q 12.796875 0.140625 7.71875 1.703125 
L 7.71875 11.625 
Q 12.109375 9.234375 16.796875 8.0625 
Q 21.484375 6.890625 26.703125 6.890625 
Q 35.15625 6.890625 40.078125 11.328125 
Q 45.015625 15.765625 45.015625 23.390625 
Q 45.015625 31 40.078125 35.4375 
Q 35.15625 39.890625 26.703125 39.890625 
Q 22.75 39.890625 18.8125 39.015625 
Q 14.890625 38.140625 10.796875 36.28125 
z
" id="DejaVuSans-53"/>
      </defs>
      <g transform="translate(277.893959 518.598438)scale(0.1 -0.1)">
       <use xlink:href="#DejaVuSans-53"/>
       <use x="63.623047" xlink:href="#DejaVuSans-48"/>
      </g>
     </g>
    </g>
    <g id="xtick_3">
     <g id="line2d_3">
      <g>
       <use style="stroke:#000000;stroke-width:0.8;" x="385.965277" xlink:href="#ma815d73b59" y="504"/>
      </g>
     </g>
     <g id="text_3">
      <!-- 100 -->
      <defs>
       <path d="M 12.40625 8.296875 
L 28.515625 8.296875 
L 28.515625 63.921875 
L 10.984375 60.40625 
L 10.984375 69.390625 
L 28.421875 72.90625 
L 38.28125 72.90625 
L 38.28125 8.296875 
L 54.390625 8.296875 
L 54.390625 0 
L 12.40625 0 
z
" id="DejaVuSans-49"/>
      </defs>
      <g transform="translate(376.421527 518.598438)scale(0.1 -0.1)">
       <use xlink:href="#DejaVuSans-49"/>
       <use x="63.623047" xlink:href="#DejaVuSans-48"/>
       <use x="127.246094" xlink:href="#DejaVuSans-48"/>
      </g>
     </g>
    </g>
    <g id="xtick_4">
     <g id="line2d_4">
      <g>
       <use style="stroke:#000000;stroke-width:0.8;" x="487.674094" xlink:href="#ma815d73b59" y="504"/>
      </g>
     </g>
     <g id="text_4">
      <!-- 150 -->
      <g transform="translate(478.130344 518.598438)scale(0.1 -0.1)">
       <use xlink:href="#DejaVuSans-49"/>
       <use x="63.623047" xlink:href="#DejaVuSans-53"/>
       <use x="127.246094" xlink:href="#DejaVuSans-48"/>
      </g>
     </g>
    </g>
    <g id="xtick_5">
     <g id="line2d_5">
      <g>
       <use style="stroke:#000000;stroke-width:0.8;" x="589.382912" xlink:href="#ma815d73b59" y="504"/>
      </g>
     </g>
     <g id="text_5">
      <!-- 200 -->
      <defs>
       <path d="M 19.1875 8.296875 
L 53.609375 8.296875 
L 53.609375 0 
L 7.328125 0 
L 7.328125 8.296875 
Q 12.9375 14.109375 22.625 23.890625 
Q 32.328125 33.6875 34.8125 36.53125 
Q 39.546875 41.84375 41.421875 45.53125 
Q 43.3125 49.21875 43.3125 52.78125 
Q 43.3125 58.59375 39.234375 62.25 
Q 35.15625 65.921875 28.609375 65.921875 
Q 23.96875 65.921875 18.8125 64.3125 
Q 13.671875 62.703125 7.8125 59.421875 
L 7.8125 69.390625 
Q 13.765625 71.78125 18.9375 73 
Q 24.125 74.21875 28.421875 74.21875 
Q 39.75 74.21875 46.484375 68.546875 
Q 53.21875 62.890625 53.21875 53.421875 
Q 53.21875 48.921875 51.53125 44.890625 
Q 49.859375 40.875 45.40625 35.40625 
Q 44.1875 33.984375 37.640625 27.21875 
Q 31.109375 20.453125 19.1875 8.296875 
z
" id="DejaVuSans-50"/>
      </defs>
      <g transform="translate(579.839162 518.598438)scale(0.1 -0.1)">
       <use xlink:href="#DejaVuSans-50"/>
       <use x="63.623047" xlink:href="#DejaVuSans-48"/>
       <use x="127.246094" xlink:href="#DejaVuSans-48"/>
      </g>
     </g>
    </g>
    <g id="xtick_6">
     <g id="line2d_6">
      <g>
       <use style="stroke:#000000;stroke-width:0.8;" x="691.091729" xlink:href="#ma815d73b59" y="504"/>
      </g>
     </g>
     <g id="text_6">
      <!-- 250 -->
      <g transform="translate(681.547979 518.598438)scale(0.1 -0.1)">
       <use xlink:href="#DejaVuSans-50"/>
       <use x="63.623047" xlink:href="#DejaVuSans-53"/>
       <use x="127.246094" xlink:href="#DejaVuSans-48"/>
      </g>
     </g>
    </g>
    <g id="xtick_7">
     <g id="line2d_7">
      <g>
       <use style="stroke:#000000;stroke-width:0.8;" x="792.800547" xlink:href="#ma815d73b59" y="504"/>
      </g>
     </g>
     <g id="text_7">
      <!-- 300 -->
      <defs>
       <path d="M 40.578125 39.3125 
Q 47.65625 37.796875 51.625 33 
Q 55.609375 28.21875 55.609375 21.1875 
Q 55.609375 10.40625 48.1875 4.484375 
Q 40.765625 -1.421875 27.09375 -1.421875 
Q 22.515625 -1.421875 17.65625 -0.515625 
Q 12.796875 0.390625 7.625 2.203125 
L 7.625 11.71875 
Q 11.71875 9.328125 16.59375 8.109375 
Q 21.484375 6.890625 26.8125 6.890625 
Q 36.078125 6.890625 40.9375 10.546875 
Q 45.796875 14.203125 45.796875 21.1875 
Q 45.796875 27.640625 41.28125 31.265625 
Q 36.765625 34.90625 28.71875 34.90625 
L 20.21875 34.90625 
L 20.21875 43.015625 
L 29.109375 43.015625 
Q 36.375 43.015625 40.234375 45.921875 
Q 44.09375 48.828125 44.09375 54.296875 
Q 44.09375 59.90625 40.109375 62.90625 
Q 36.140625 65.921875 28.71875 65.921875 
Q 24.65625 65.921875 20.015625 65.03125 
Q 15.375 64.15625 9.8125 62.3125 
L 9.8125 71.09375 
Q 15.4375 72.65625 20.34375 73.4375 
Q 25.25 74.21875 29.59375 74.21875 
Q 40.828125 74.21875 47.359375 69.109375 
Q 53.90625 64.015625 53.90625 55.328125 
Q 53.90625 49.265625 50.4375 45.09375 
Q 46.96875 40.921875 40.578125 39.3125 
z
" id="DejaVuSans-51"/>
      </defs>
      <g transform="translate(783.256797 518.598438)scale(0.1 -0.1)">
       <use xlink:href="#DejaVuSans-51"/>
       <use x="63.623047" xlink:href="#DejaVuSans-48"/>
       <use x="127.246094" xlink:href="#DejaVuSans-48"/>
      </g>
     </g>
    </g>
    <g id="xtick_8">
     <g id="line2d_8">
      <g>
       <use style="stroke:#000000;stroke-width:0.8;" x="894.509364" xlink:href="#ma815d73b59" y="504"/>
      </g>
     </g>
     <g id="text_8">
      <!-- 350 -->
      <g transform="translate(884.965614 518.598438)scale(0.1 -0.1)">
       <use xlink:href="#DejaVuSans-51"/>
       <use x="63.623047" xlink:href="#DejaVuSans-53"/>
       <use x="127.246094" xlink:href="#DejaVuSans-48"/>
      </g>
     </g>
    </g>
    <g id="xtick_9">
     <g id="line2d_9">
      <g>
       <use style="stroke:#000000;stroke-width:0.8;" x="996.218182" xlink:href="#ma815d73b59" y="504"/>
      </g>
     </g>
     <g id="text_9">
      <!-- 400 -->
      <defs>
       <path d="M 37.796875 64.3125 
L 12.890625 25.390625 
L 37.796875 25.390625 
z
M 35.203125 72.90625 
L 47.609375 72.90625 
L 47.609375 25.390625 
L 58.015625 25.390625 
L 58.015625 17.1875 
L 47.609375 17.1875 
L 47.609375 0 
L 37.796875 0 
L 37.796875 17.1875 
L 4.890625 17.1875 
L 4.890625 26.703125 
z
" id="DejaVuSans-52"/>
      </defs>
      <g transform="translate(986.674432 518.598438)scale(0.1 -0.1)">
       <use xlink:href="#DejaVuSans-52"/>
       <use x="63.623047" xlink:href="#DejaVuSans-48"/>
       <use x="127.246094" xlink:href="#DejaVuSans-48"/>
      </g>
     </g>
    </g>
    <g id="text_10">
     <!-- Number of Neurons pruned -->
     <defs>
      <path d="M 9.8125 72.90625 
L 23.09375 72.90625 
L 55.421875 11.921875 
L 55.421875 72.90625 
L 64.984375 72.90625 
L 64.984375 0 
L 51.703125 0 
L 19.390625 60.984375 
L 19.390625 0 
L 9.8125 0 
z
" id="DejaVuSans-78"/>
      <path d="M 8.5 21.578125 
L 8.5 54.6875 
L 17.484375 54.6875 
L 17.484375 21.921875 
Q 17.484375 14.15625 20.5 10.265625 
Q 23.53125 6.390625 29.59375 6.390625 
Q 36.859375 6.390625 41.078125 11.03125 
Q 45.3125 15.671875 45.3125 23.6875 
L 45.3125 54.6875 
L 54.296875 54.6875 
L 54.296875 0 
L 45.3125 0 
L 45.3125 8.40625 
Q 42.046875 3.421875 37.71875 1 
Q 33.40625 -1.421875 27.6875 -1.421875 
Q 18.265625 -1.421875 13.375 4.4375 
Q 8.5 10.296875 8.5 21.578125 
z
M 31.109375 56 
z
" id="DejaVuSans-117"/>
      <path d="M 52 44.1875 
Q 55.375 50.25 60.0625 53.125 
Q 64.75 56 71.09375 56 
Q 79.640625 56 84.28125 50.015625 
Q 88.921875 44.046875 88.921875 33.015625 
L 88.921875 0 
L 79.890625 0 
L 79.890625 32.71875 
Q 79.890625 40.578125 77.09375 44.375 
Q 74.3125 48.1875 68.609375 48.1875 
Q 61.625 48.1875 57.5625 43.546875 
Q 53.515625 38.921875 53.515625 30.90625 
L 53.515625 0 
L 44.484375 0 
L 44.484375 32.71875 
Q 44.484375 40.625 41.703125 44.40625 
Q 38.921875 48.1875 33.109375 48.1875 
Q 26.21875 48.1875 22.15625 43.53125 
Q 18.109375 38.875 18.109375 30.90625 
L 18.109375 0 
L 9.078125 0 
L 9.078125 54.6875 
L 18.109375 54.6875 
L 18.109375 46.1875 
Q 21.1875 51.21875 25.484375 53.609375 
Q 29.78125 56 35.6875 56 
Q 41.65625 56 45.828125 52.96875 
Q 50 49.953125 52 44.1875 
z
" id="DejaVuSans-109"/>
      <path d="M 48.6875 27.296875 
Q 48.6875 37.203125 44.609375 42.84375 
Q 40.53125 48.484375 33.40625 48.484375 
Q 26.265625 48.484375 22.1875 42.84375 
Q 18.109375 37.203125 18.109375 27.296875 
Q 18.109375 17.390625 22.1875 11.75 
Q 26.265625 6.109375 33.40625 6.109375 
Q 40.53125 6.109375 44.609375 11.75 
Q 48.6875 17.390625 48.6875 27.296875 
z
M 18.109375 46.390625 
Q 20.953125 51.265625 25.265625 53.625 
Q 29.59375 56 35.59375 56 
Q 45.5625 56 51.78125 48.09375 
Q 58.015625 40.1875 58.015625 27.296875 
Q 58.015625 14.40625 51.78125 6.484375 
Q 45.5625 -1.421875 35.59375 -1.421875 
Q 29.59375 -1.421875 25.265625 0.953125 
Q 20.953125 3.328125 18.109375 8.203125 
L 18.109375 0 
L 9.078125 0 
L 9.078125 75.984375 
L 18.109375 75.984375 
z
" id="DejaVuSans-98"/>
      <path d="M 56.203125 29.59375 
L 56.203125 25.203125 
L 14.890625 25.203125 
Q 15.484375 15.921875 20.484375 11.0625 
Q 25.484375 6.203125 34.421875 6.203125 
Q 39.59375 6.203125 44.453125 7.46875 
Q 49.3125 8.734375 54.109375 11.28125 
L 54.109375 2.78125 
Q 49.265625 0.734375 44.1875 -0.34375 
Q 39.109375 -1.421875 33.890625 -1.421875 
Q 20.796875 -1.421875 13.15625 6.1875 
Q 5.515625 13.8125 5.515625 26.8125 
Q 5.515625 40.234375 12.765625 48.109375 
Q 20.015625 56 32.328125 56 
Q 43.359375 56 49.78125 48.890625 
Q 56.203125 41.796875 56.203125 29.59375 
z
M 47.21875 32.234375 
Q 47.125 39.59375 43.09375 43.984375 
Q 39.0625 48.390625 32.421875 48.390625 
Q 24.90625 48.390625 20.390625 44.140625 
Q 15.875 39.890625 15.1875 32.171875 
z
" id="DejaVuSans-101"/>
      <path d="M 41.109375 46.296875 
Q 39.59375 47.171875 37.8125 47.578125 
Q 36.03125 48 33.890625 48 
Q 26.265625 48 22.1875 43.046875 
Q 18.109375 38.09375 18.109375 28.8125 
L 18.109375 0 
L 9.078125 0 
L 9.078125 54.6875 
L 18.109375 54.6875 
L 18.109375 46.1875 
Q 20.953125 51.171875 25.484375 53.578125 
Q 30.03125 56 36.53125 56 
Q 37.453125 56 38.578125 55.875 
Q 39.703125 55.765625 41.0625 55.515625 
z
" id="DejaVuSans-114"/>
      <path id="DejaVuSans-32"/>
      <path d="M 30.609375 48.390625 
Q 23.390625 48.390625 19.1875 42.75 
Q 14.984375 37.109375 14.984375 27.296875 
Q 14.984375 17.484375 19.15625 11.84375 
Q 23.34375 6.203125 30.609375 6.203125 
Q 37.796875 6.203125 41.984375 11.859375 
Q 46.1875 17.53125 46.1875 27.296875 
Q 46.1875 37.015625 41.984375 42.703125 
Q 37.796875 48.390625 30.609375 48.390625 
z
M 30.609375 56 
Q 42.328125 56 49.015625 48.375 
Q 55.71875 40.765625 55.71875 27.296875 
Q 55.71875 13.875 49.015625 6.21875 
Q 42.328125 -1.421875 30.609375 -1.421875 
Q 18.84375 -1.421875 12.171875 6.21875 
Q 5.515625 13.875 5.515625 27.296875 
Q 5.515625 40.765625 12.171875 48.375 
Q 18.84375 56 30.609375 56 
z
" id="DejaVuSans-111"/>
      <path d="M 37.109375 75.984375 
L 37.109375 68.5 
L 28.515625 68.5 
Q 23.6875 68.5 21.796875 66.546875 
Q 19.921875 64.59375 19.921875 59.515625 
L 19.921875 54.6875 
L 34.71875 54.6875 
L 34.71875 47.703125 
L 19.921875 47.703125 
L 19.921875 0 
L 10.890625 0 
L 10.890625 47.703125 
L 2.296875 47.703125 
L 2.296875 54.6875 
L 10.890625 54.6875 
L 10.890625 58.5 
Q 10.890625 67.625 15.140625 71.796875 
Q 19.390625 75.984375 28.609375 75.984375 
z
" id="DejaVuSans-102"/>
      <path d="M 54.890625 33.015625 
L 54.890625 0 
L 45.90625 0 
L 45.90625 32.71875 
Q 45.90625 40.484375 42.875 44.328125 
Q 39.84375 48.1875 33.796875 48.1875 
Q 26.515625 48.1875 22.3125 43.546875 
Q 18.109375 38.921875 18.109375 30.90625 
L 18.109375 0 
L 9.078125 0 
L 9.078125 54.6875 
L 18.109375 54.6875 
L 18.109375 46.1875 
Q 21.34375 51.125 25.703125 53.5625 
Q 30.078125 56 35.796875 56 
Q 45.21875 56 50.046875 50.171875 
Q 54.890625 44.34375 54.890625 33.015625 
z
" id="DejaVuSans-110"/>
      <path d="M 44.28125 53.078125 
L 44.28125 44.578125 
Q 40.484375 46.53125 36.375 47.5 
Q 32.28125 48.484375 27.875 48.484375 
Q 21.1875 48.484375 17.84375 46.4375 
Q 14.5 44.390625 14.5 40.28125 
Q 14.5 37.15625 16.890625 35.375 
Q 19.28125 33.59375 26.515625 31.984375 
L 29.59375 31.296875 
Q 39.15625 29.25 43.1875 25.515625 
Q 47.21875 21.78125 47.21875 15.09375 
Q 47.21875 7.46875 41.1875 3.015625 
Q 35.15625 -1.421875 24.609375 -1.421875 
Q 20.21875 -1.421875 15.453125 -0.5625 
Q 10.6875 0.296875 5.421875 2 
L 5.421875 11.28125 
Q 10.40625 8.6875 15.234375 7.390625 
Q 20.0625 6.109375 24.8125 6.109375 
Q 31.15625 6.109375 34.5625 8.28125 
Q 37.984375 10.453125 37.984375 14.40625 
Q 37.984375 18.0625 35.515625 20.015625 
Q 33.0625 21.96875 24.703125 23.78125 
L 21.578125 24.515625 
Q 13.234375 26.265625 9.515625 29.90625 
Q 5.8125 33.546875 5.8125 39.890625 
Q 5.8125 47.609375 11.28125 51.796875 
Q 16.75 56 26.8125 56 
Q 31.78125 56 36.171875 55.265625 
Q 40.578125 54.546875 44.28125 53.078125 
z
" id="DejaVuSans-115"/>
      <path d="M 18.109375 8.203125 
L 18.109375 -20.796875 
L 9.078125 -20.796875 
L 9.078125 54.6875 
L 18.109375 54.6875 
L 18.109375 46.390625 
Q 20.953125 51.265625 25.265625 53.625 
Q 29.59375 56 35.59375 56 
Q 45.5625 56 51.78125 48.09375 
Q 58.015625 40.1875 58.015625 27.296875 
Q 58.015625 14.40625 51.78125 6.484375 
Q 45.5625 -1.421875 35.59375 -1.421875 
Q 29.59375 -1.421875 25.265625 0.953125 
Q 20.953125 3.328125 18.109375 8.203125 
z
M 48.6875 27.296875 
Q 48.6875 37.203125 44.609375 42.84375 
Q 40.53125 48.484375 33.40625 48.484375 
Q 26.265625 48.484375 22.1875 42.84375 
Q 18.109375 37.203125 18.109375 27.296875 
Q 18.109375 17.390625 22.1875 11.75 
Q 26.265625 6.109375 33.40625 6.109375 
Q 40.53125 6.109375 44.609375 11.75 
Q 48.6875 17.390625 48.6875 27.296875 
z
" id="DejaVuSans-112"/>
      <path d="M 45.40625 46.390625 
L 45.40625 75.984375 
L 54.390625 75.984375 
L 54.390625 0 
L 45.40625 0 
L 45.40625 8.203125 
Q 42.578125 3.328125 38.25 0.953125 
Q 33.9375 -1.421875 27.875 -1.421875 
Q 17.96875 -1.421875 11.734375 6.484375 
Q 5.515625 14.40625 5.515625 27.296875 
Q 5.515625 40.1875 11.734375 48.09375 
Q 17.96875 56 27.875 56 
Q 33.9375 56 38.25 53.625 
Q 42.578125 51.265625 45.40625 46.390625 
z
M 14.796875 27.296875 
Q 14.796875 17.390625 18.875 11.75 
Q 22.953125 6.109375 30.078125 6.109375 
Q 37.203125 6.109375 41.296875 11.75 
Q 45.40625 17.390625 45.40625 27.296875 
Q 45.40625 37.203125 41.296875 42.84375 
Q 37.203125 48.484375 30.078125 48.484375 
Q 22.953125 48.484375 18.875 42.84375 
Q 14.796875 37.203125 14.796875 27.296875 
z
" id="DejaVuSans-100"/>
     </defs>
     <g transform="translate(522.147656 532.276562)scale(0.1 -0.1)">
      <use xlink:href="#DejaVuSans-78"/>
      <use x="74.804688" xlink:href="#DejaVuSans-117"/>
      <use x="138.183594" xlink:href="#DejaVuSans-109"/>
      <use x="235.595703" xlink:href="#DejaVuSans-98"/>
      <use x="299.072266" xlink:href="#DejaVuSans-101"/>
      <use x="360.595703" xlink:href="#DejaVuSans-114"/>
      <use x="401.708984" xlink:href="#DejaVuSans-32"/>
      <use x="433.496094" xlink:href="#DejaVuSans-111"/>
      <use x="494.677734" xlink:href="#DejaVuSans-102"/>
      <use x="529.882812" xlink:href="#DejaVuSans-32"/>
      <use x="561.669922" xlink:href="#DejaVuSans-78"/>
      <use x="636.474609" xlink:href="#DejaVuSans-101"/>
      <use x="697.998047" xlink:href="#DejaVuSans-117"/>
      <use x="761.376953" xlink:href="#DejaVuSans-114"/>
      <use x="800.240234" xlink:href="#DejaVuSans-111"/>
      <use x="861.421875" xlink:href="#DejaVuSans-110"/>
      <use x="924.800781" xlink:href="#DejaVuSans-115"/>
      <use x="976.900391" xlink:href="#DejaVuSans-32"/>
      <use x="1008.6875" xlink:href="#DejaVuSans-112"/>
      <use x="1072.164062" xlink:href="#DejaVuSans-114"/>
      <use x="1113.277344" xlink:href="#DejaVuSans-117"/>
      <use x="1176.65625" xlink:href="#DejaVuSans-110"/>
      <use x="1240.035156" xlink:href="#DejaVuSans-101"/>
      <use x="1301.558594" xlink:href="#DejaVuSans-100"/>
     </g>
    </g>
   </g>
   <g id="matplotlib.axis_2">
    <g id="ytick_1">
     <g id="line2d_10">
      <defs>
       <path d="M 0 0 
L -3.5 0 
" id="m5551a4feff" style="stroke:#000000;stroke-width:0.8;"/>
      </defs>
      <g>
       <use style="stroke:#000000;stroke-width:0.8;" x="144" xlink:href="#m5551a4feff" y="472.11758"/>
      </g>
     </g>
     <g id="text_11">
      <!-- 0.70 -->
      <defs>
       <path d="M 10.6875 12.40625 
L 21 12.40625 
L 21 0 
L 10.6875 0 
z
" id="DejaVuSans-46"/>
       <path d="M 8.203125 72.90625 
L 55.078125 72.90625 
L 55.078125 68.703125 
L 28.609375 0 
L 18.3125 0 
L 43.21875 64.59375 
L 8.203125 64.59375 
z
" id="DejaVuSans-55"/>
      </defs>
      <g transform="translate(114.734375 475.916798)scale(0.1 -0.1)">
       <use xlink:href="#DejaVuSans-48"/>
       <use x="63.623047" xlink:href="#DejaVuSans-46"/>
       <use x="95.410156" xlink:href="#DejaVuSans-55"/>
       <use x="159.033203" xlink:href="#DejaVuSans-48"/>
      </g>
     </g>
    </g>
    <g id="ytick_2">
     <g id="line2d_11">
      <g>
       <use style="stroke:#000000;stroke-width:0.8;" x="144" xlink:href="#m5551a4feff" y="407.560843"/>
      </g>
     </g>
     <g id="text_12">
      <!-- 0.75 -->
      <g transform="translate(114.734375 411.360062)scale(0.1 -0.1)">
       <use xlink:href="#DejaVuSans-48"/>
       <use x="63.623047" xlink:href="#DejaVuSans-46"/>
       <use x="95.410156" xlink:href="#DejaVuSans-55"/>
       <use x="159.033203" xlink:href="#DejaVuSans-53"/>
      </g>
     </g>
    </g>
    <g id="ytick_3">
     <g id="line2d_12">
      <g>
       <use style="stroke:#000000;stroke-width:0.8;" x="144" xlink:href="#m5551a4feff" y="343.004107"/>
      </g>
     </g>
     <g id="text_13">
      <!-- 0.80 -->
      <defs>
       <path d="M 31.78125 34.625 
Q 24.75 34.625 20.71875 30.859375 
Q 16.703125 27.09375 16.703125 20.515625 
Q 16.703125 13.921875 20.71875 10.15625 
Q 24.75 6.390625 31.78125 6.390625 
Q 38.8125 6.390625 42.859375 10.171875 
Q 46.921875 13.96875 46.921875 20.515625 
Q 46.921875 27.09375 42.890625 30.859375 
Q 38.875 34.625 31.78125 34.625 
z
M 21.921875 38.8125 
Q 15.578125 40.375 12.03125 44.71875 
Q 8.5 49.078125 8.5 55.328125 
Q 8.5 64.0625 14.71875 69.140625 
Q 20.953125 74.21875 31.78125 74.21875 
Q 42.671875 74.21875 48.875 69.140625 
Q 55.078125 64.0625 55.078125 55.328125 
Q 55.078125 49.078125 51.53125 44.71875 
Q 48 40.375 41.703125 38.8125 
Q 48.828125 37.15625 52.796875 32.3125 
Q 56.78125 27.484375 56.78125 20.515625 
Q 56.78125 9.90625 50.3125 4.234375 
Q 43.84375 -1.421875 31.78125 -1.421875 
Q 19.734375 -1.421875 13.25 4.234375 
Q 6.78125 9.90625 6.78125 20.515625 
Q 6.78125 27.484375 10.78125 32.3125 
Q 14.796875 37.15625 21.921875 38.8125 
z
M 18.3125 54.390625 
Q 18.3125 48.734375 21.84375 45.5625 
Q 25.390625 42.390625 31.78125 42.390625 
Q 38.140625 42.390625 41.71875 45.5625 
Q 45.3125 48.734375 45.3125 54.390625 
Q 45.3125 60.0625 41.71875 63.234375 
Q 38.140625 66.40625 31.78125 66.40625 
Q 25.390625 66.40625 21.84375 63.234375 
Q 18.3125 60.0625 18.3125 54.390625 
z
" id="DejaVuSans-56"/>
      </defs>
      <g transform="translate(114.734375 346.803325)scale(0.1 -0.1)">
       <use xlink:href="#DejaVuSans-48"/>
       <use x="63.623047" xlink:href="#DejaVuSans-46"/>
       <use x="95.410156" xlink:href="#DejaVuSans-56"/>
       <use x="159.033203" xlink:href="#DejaVuSans-48"/>
      </g>
     </g>
    </g>
    <g id="ytick_4">
     <g id="line2d_13">
      <g>
       <use style="stroke:#000000;stroke-width:0.8;" x="144" xlink:href="#m5551a4feff" y="278.44737"/>
      </g>
     </g>
     <g id="text_14">
      <!-- 0.85 -->
      <g transform="translate(114.734375 282.246589)scale(0.1 -0.1)">
       <use xlink:href="#DejaVuSans-48"/>
       <use x="63.623047" xlink:href="#DejaVuSans-46"/>
       <use x="95.410156" xlink:href="#DejaVuSans-56"/>
       <use x="159.033203" xlink:href="#DejaVuSans-53"/>
      </g>
     </g>
    </g>
    <g id="ytick_5">
     <g id="line2d_14">
      <g>
       <use style="stroke:#000000;stroke-width:0.8;" x="144" xlink:href="#m5551a4feff" y="213.890634"/>
      </g>
     </g>
     <g id="text_15">
      <!-- 0.90 -->
      <defs>
       <path d="M 10.984375 1.515625 
L 10.984375 10.5 
Q 14.703125 8.734375 18.5 7.8125 
Q 22.3125 6.890625 25.984375 6.890625 
Q 35.75 6.890625 40.890625 13.453125 
Q 46.046875 20.015625 46.78125 33.40625 
Q 43.953125 29.203125 39.59375 26.953125 
Q 35.25 24.703125 29.984375 24.703125 
Q 19.046875 24.703125 12.671875 31.3125 
Q 6.296875 37.9375 6.296875 49.421875 
Q 6.296875 60.640625 12.9375 67.421875 
Q 19.578125 74.21875 30.609375 74.21875 
Q 43.265625 74.21875 49.921875 64.515625 
Q 56.59375 54.828125 56.59375 36.375 
Q 56.59375 19.140625 48.40625 8.859375 
Q 40.234375 -1.421875 26.421875 -1.421875 
Q 22.703125 -1.421875 18.890625 -0.6875 
Q 15.09375 0.046875 10.984375 1.515625 
z
M 30.609375 32.421875 
Q 37.25 32.421875 41.125 36.953125 
Q 45.015625 41.5 45.015625 49.421875 
Q 45.015625 57.28125 41.125 61.84375 
Q 37.25 66.40625 30.609375 66.40625 
Q 23.96875 66.40625 20.09375 61.84375 
Q 16.21875 57.28125 16.21875 49.421875 
Q 16.21875 41.5 20.09375 36.953125 
Q 23.96875 32.421875 30.609375 32.421875 
z
" id="DejaVuSans-57"/>
      </defs>
      <g transform="translate(114.734375 217.689852)scale(0.1 -0.1)">
       <use xlink:href="#DejaVuSans-48"/>
       <use x="63.623047" xlink:href="#DejaVuSans-46"/>
       <use x="95.410156" xlink:href="#DejaVuSans-57"/>
       <use x="159.033203" xlink:href="#DejaVuSans-48"/>
      </g>
     </g>
    </g>
    <g id="ytick_6">
     <g id="line2d_15">
      <g>
       <use style="stroke:#000000;stroke-width:0.8;" x="144" xlink:href="#m5551a4feff" y="149.333897"/>
      </g>
     </g>
     <g id="text_16">
      <!-- 0.95 -->
      <g transform="translate(114.734375 153.133116)scale(0.1 -0.1)">
       <use xlink:href="#DejaVuSans-48"/>
       <use x="63.623047" xlink:href="#DejaVuSans-46"/>
       <use x="95.410156" xlink:href="#DejaVuSans-57"/>
       <use x="159.033203" xlink:href="#DejaVuSans-53"/>
      </g>
     </g>
    </g>
    <g id="ytick_7">
     <g id="line2d_16">
      <g>
       <use style="stroke:#000000;stroke-width:0.8;" x="144" xlink:href="#m5551a4feff" y="84.777161"/>
      </g>
     </g>
     <g id="text_17">
      <!-- 1.00 -->
      <g transform="translate(114.734375 88.576379)scale(0.1 -0.1)">
       <use xlink:href="#DejaVuSans-49"/>
       <use x="63.623047" xlink:href="#DejaVuSans-46"/>
       <use x="95.410156" xlink:href="#DejaVuSans-48"/>
       <use x="159.033203" xlink:href="#DejaVuSans-48"/>
      </g>
     </g>
    </g>
    <g id="text_18">
     <!-- Accuracy -->
     <defs>
      <path d="M 34.1875 63.1875 
L 20.796875 26.90625 
L 47.609375 26.90625 
z
M 28.609375 72.90625 
L 39.796875 72.90625 
L 67.578125 0 
L 57.328125 0 
L 50.6875 18.703125 
L 17.828125 18.703125 
L 11.1875 0 
L 0.78125 0 
z
" id="DejaVuSans-65"/>
      <path d="M 48.78125 52.59375 
L 48.78125 44.1875 
Q 44.96875 46.296875 41.140625 47.34375 
Q 37.3125 48.390625 33.40625 48.390625 
Q 24.65625 48.390625 19.8125 42.84375 
Q 14.984375 37.3125 14.984375 27.296875 
Q 14.984375 17.28125 19.8125 11.734375 
Q 24.65625 6.203125 33.40625 6.203125 
Q 37.3125 6.203125 41.140625 7.25 
Q 44.96875 8.296875 48.78125 10.40625 
L 48.78125 2.09375 
Q 45.015625 0.34375 40.984375 -0.53125 
Q 36.96875 -1.421875 32.421875 -1.421875 
Q 20.0625 -1.421875 12.78125 6.34375 
Q 5.515625 14.109375 5.515625 27.296875 
Q 5.515625 40.671875 12.859375 48.328125 
Q 20.21875 56 33.015625 56 
Q 37.15625 56 41.109375 55.140625 
Q 45.0625 54.296875 48.78125 52.59375 
z
" id="DejaVuSans-99"/>
      <path d="M 34.28125 27.484375 
Q 23.390625 27.484375 19.1875 25 
Q 14.984375 22.515625 14.984375 16.5 
Q 14.984375 11.71875 18.140625 8.90625 
Q 21.296875 6.109375 26.703125 6.109375 
Q 34.1875 6.109375 38.703125 11.40625 
Q 43.21875 16.703125 43.21875 25.484375 
L 43.21875 27.484375 
z
M 52.203125 31.203125 
L 52.203125 0 
L 43.21875 0 
L 43.21875 8.296875 
Q 40.140625 3.328125 35.546875 0.953125 
Q 30.953125 -1.421875 24.3125 -1.421875 
Q 15.921875 -1.421875 10.953125 3.296875 
Q 6 8.015625 6 15.921875 
Q 6 25.140625 12.171875 29.828125 
Q 18.359375 34.515625 30.609375 34.515625 
L 43.21875 34.515625 
L 43.21875 35.40625 
Q 43.21875 41.609375 39.140625 45 
Q 35.0625 48.390625 27.6875 48.390625 
Q 23 48.390625 18.546875 47.265625 
Q 14.109375 46.140625 10.015625 43.890625 
L 10.015625 52.203125 
Q 14.9375 54.109375 19.578125 55.046875 
Q 24.21875 56 28.609375 56 
Q 40.484375 56 46.34375 49.84375 
Q 52.203125 43.703125 52.203125 31.203125 
z
" id="DejaVuSans-97"/>
      <path d="M 32.171875 -5.078125 
Q 28.375 -14.84375 24.75 -17.8125 
Q 21.140625 -20.796875 15.09375 -20.796875 
L 7.90625 -20.796875 
L 7.90625 -13.28125 
L 13.1875 -13.28125 
Q 16.890625 -13.28125 18.9375 -11.515625 
Q 21 -9.765625 23.484375 -3.21875 
L 25.09375 0.875 
L 2.984375 54.6875 
L 12.5 54.6875 
L 29.59375 11.921875 
L 46.6875 54.6875 
L 56.203125 54.6875 
z
" id="DejaVuSans-121"/>
     </defs>
     <g transform="translate(108.654687 309.388125)rotate(-90)scale(0.1 -0.1)">
      <use xlink:href="#DejaVuSans-65"/>
      <use x="66.658203" xlink:href="#DejaVuSans-99"/>
      <use x="121.638672" xlink:href="#DejaVuSans-99"/>
      <use x="176.619141" xlink:href="#DejaVuSans-117"/>
      <use x="239.998047" xlink:href="#DejaVuSans-114"/>
      <use x="281.111328" xlink:href="#DejaVuSans-97"/>
      <use x="342.390625" xlink:href="#DejaVuSans-99"/>
      <use x="397.371094" xlink:href="#DejaVuSans-121"/>
     </g>
    </g>
   </g>
   <g id="line2d_17">
    <path clip-path="url(#pea0b554f48)" d="M 184.581818 89.037905 
L 459.195625 88.994867 
L 461.229802 88.887273 
L 471.400684 89.317651 
L 473.43486 89.123981 
L 475.469036 90.953088 
L 477.503213 91.017645 
L 479.537389 90.845494 
L 481.571565 92.30878 
L 483.605742 92.222704 
L 489.708271 92.954347 
L 491.742447 93.040423 
L 495.8108 93.707509 
L 497.844976 93.707509 
L 499.879152 94.202444 
L 501.913329 94.28852 
L 505.981681 94.804974 
L 508.015858 95.47206 
L 510.050034 95.493579 
L 512.084211 96.397373 
L 514.118387 96.483449 
L 516.152563 96.935346 
L 518.18674 97.559394 
L 520.220916 97.903697 
L 522.255092 98.377113 
L 524.289269 98.161924 
L 526.323445 98.118886 
L 528.357621 99.668248 
L 530.391798 99.474578 
L 532.425974 99.711286 
L 534.46015 99.732804 
L 536.494327 99.323945 
L 538.528503 99.130275 
L 540.562679 99.62521 
L 542.596856 99.711286 
L 544.631032 101.174572 
L 546.665208 101.260647 
L 548.699385 97.946735 
L 550.733561 97.537875 
L 552.767738 97.753065 
L 554.801914 97.322686 
L 556.83609 99.216351 
L 558.870267 99.388502 
L 560.904443 99.732804 
L 562.938619 99.861918 
L 564.972796 100.141664 
L 569.041148 102.228998 
L 571.075325 102.272036 
L 573.109501 103.068236 
L 577.177854 103.756841 
L 579.21203 102.831528 
L 581.246206 103.347982 
L 583.280383 103.563171 
L 585.314559 103.563171 
L 587.348735 103.821398 
L 593.451265 104.208738 
L 595.485441 104.553041 
L 597.519617 104.682154 
L 601.58797 104.660635 
L 603.622146 104.725192 
L 605.656323 105.95177 
L 607.690499 106.296073 
L 611.758852 108.361888 
L 613.793028 108.469483 
L 615.827204 108.103661 
L 617.861381 108.663153 
L 619.895557 108.491002 
L 621.929733 113.612503 
L 623.96391 113.763135 
L 628.032262 116.194772 
L 630.066439 116.861859 
L 634.134792 117.120086 
L 636.168968 119.271977 
L 638.203144 119.444128 
L 640.237321 119.487166 
L 642.271497 120.089695 
L 644.305673 120.240328 
L 646.33985 120.778301 
L 648.374026 122.478295 
L 650.408202 124.393478 
L 652.442379 124.479553 
L 654.476555 125.490942 
L 656.510731 126.114991 
L 658.544908 126.954228 
L 660.579084 127.298531 
L 662.61326 127.083342 
L 664.647437 127.814985 
L 666.681613 127.70739 
L 668.715789 127.836504 
L 670.749966 128.460552 
L 672.784142 130.117508 
L 674.818319 130.203584 
L 676.852495 131.580794 
L 680.920848 132.420032 
L 682.955024 135.23901 
L 684.9892 135.195972 
L 687.023377 137.455458 
L 689.057553 137.627609 
L 691.091729 137.584571 
L 693.125906 136.594701 
L 697.194258 141.630126 
L 699.228435 142.727591 
L 701.262611 139.801019 
L 703.296787 140.747851 
L 705.330964 143.222526 
L 707.36514 143.071894 
L 709.399316 146.256693 
L 711.433493 148.580735 
L 713.467669 148.580735 
L 715.501846 147.397195 
L 719.570198 148.128838 
L 721.604375 148.408584 
L 723.638551 149.527567 
L 725.672727 150.840221 
L 727.706904 151.722496 
L 729.74108 155.660457 
L 731.775256 157.016149 
L 733.809433 174.20976 
L 735.843609 175.264186 
L 737.877785 175.58697 
L 739.911962 174.855327 
L 741.946138 177.997088 
L 743.980314 180.686952 
L 746.014491 181.483152 
L 748.048667 194.286905 
L 750.082843 199.214735 
L 752.11702 205.45522 
L 754.151196 205.132436 
L 756.185373 209.091916 
L 758.219549 208.640019 
L 760.253725 208.360273 
L 762.287902 207.176733 
L 764.322078 210.146343 
L 766.356254 216.602017 
L 768.390431 217.699481 
L 770.424607 218.302011 
L 772.458783 221.809593 
L 774.49296 228.588051 
L 776.527136 231.837406 
L 780.595489 236.91587 
L 782.629665 243.24243 
L 784.663841 241.800663 
L 786.698018 241.477879 
L 788.732194 248.041147 
L 790.76637 247.912034 
L 792.800547 248.406969 
L 794.834723 247.309504 
L 796.8689 247.115834 
L 798.903076 247.352542 
L 800.937252 248.363931 
L 802.971429 249.031017 
L 805.005605 247.804439 
L 807.039781 250.236076 
L 809.073958 251.484173 
L 811.108134 251.634806 
L 813.14231 253.72214 
L 815.176487 252.495562 
L 817.210663 255.422134 
L 819.244839 260.113257 
L 821.279016 259.360095 
L 823.313192 259.596803 
L 825.347368 260.974013 
L 827.381545 265.428428 
L 829.415721 265.880325 
L 831.449897 281.158753 
L 833.484074 280.491667 
L 837.552427 285.053676 
L 839.586603 279.695467 
L 841.620779 280.857488 
L 843.654956 285.139752 
L 845.689132 283.654947 
L 847.723308 283.224569 
L 849.757485 290.046064 
L 851.791661 304.678924 
L 853.825837 306.228286 
L 855.860014 303.151081 
L 857.89419 305.238416 
L 861.962543 306.034616 
L 863.996719 315.589013 
L 866.030895 315.05104 
L 868.065072 321.420638 
L 870.099248 324.820626 
L 872.133424 329.769976 
L 874.167601 332.825661 
L 876.201777 331.2763 
L 878.235954 338.442097 
L 880.27013 333.234521 
L 882.304306 337.129444 
L 884.338483 337.968681 
L 886.372659 342.315501 
L 888.406835 347.867381 
L 890.441012 348.642062 
L 894.509364 349.158516 
L 896.543541 350.772434 
L 898.577717 354.947103 
L 900.611893 357.335702 
L 902.64607 358.304053 
L 904.680246 360.133161 
L 906.714422 360.821766 
L 908.748599 358.842026 
L 910.782775 360.714171 
L 912.816951 360.563539 
L 914.851128 361.445814 
L 916.885304 362.048344 
L 918.919481 363.468592 
L 920.953657 363.855933 
L 922.987833 359.616707 
L 925.02201 361.015436 
L 927.056186 362.026825 
L 929.090362 362.736949 
L 931.124539 366.86858 
L 933.158715 368.353385 
L 935.192891 371.538184 
L 937.227068 369.343255 
L 939.261244 371.344514 
L 941.29542 371.366033 
L 943.329597 373.259697 
L 945.363773 371.796411 
L 949.432126 385.762185 
L 951.466302 386.493828 
L 953.500478 387.677368 
L 955.534655 387.268509 
L 957.568831 390.259638 
L 959.603008 397.33936 
L 961.637184 396.457084 
L 963.67136 400.1153 
L 965.705537 402.977315 
L 967.739713 401.600105 
L 969.773889 402.439342 
L 971.808066 409.217799 
L 973.842242 417.287391 
L 975.876418 423.829141 
L 977.910595 428.369631 
L 979.944771 431.683544 
L 981.978947 433.512651 
L 984.013124 434.674673 
L 986.0473 441.668319 
L 988.081476 437.278461 
L 990.115653 438.311369 
L 992.149829 442.227811 
L 994.184005 442.184773 
L 996.218182 446.467036 
L 996.218182 446.467036 
" style="fill:none;stroke:#1f77b4;stroke-linecap:square;stroke-width:1.5;"/>
   </g>
   <g id="line2d_18">
    <path clip-path="url(#pea0b554f48)" d="M 184.581818 89.037905 
L 467.332331 89.123981 
L 473.43486 89.188537 
L 481.571565 89.102462 
L 485.639918 89.167019 
L 487.674094 89.102462 
L 489.708271 89.640435 
L 497.844976 89.834105 
L 520.220916 89.898662 
L 522.255092 90.13537 
L 528.357621 90.178407 
L 536.494327 90.52271 
L 538.528503 90.802456 
L 542.596856 90.867013 
L 544.631032 91.082202 
L 546.665208 91.060683 
L 550.733561 90.737899 
L 564.972796 91.89992 
L 567.006972 92.179666 
L 569.041148 92.265742 
L 571.075325 92.69612 
L 573.109501 92.803715 
L 577.177854 92.825234 
L 579.21203 92.868271 
L 581.246206 93.169536 
L 583.280383 93.29865 
L 591.417088 93.169536 
L 593.451265 92.868271 
L 597.519617 93.449282 
L 599.553794 93.793585 
L 601.58797 93.944217 
L 603.622146 93.965736 
L 609.724675 94.460671 
L 613.793028 94.331558 
L 615.827204 94.611303 
L 617.861381 94.589784 
L 621.929733 94.202444 
L 623.96391 94.86953 
L 625.998086 94.568266 
L 630.066439 95.192314 
L 632.100615 95.127757 
L 634.134792 94.848011 
L 636.168968 95.127757 
L 638.203144 95.041682 
L 640.237321 95.106238 
L 642.271497 95.429022 
L 644.305673 95.558136 
L 646.33985 95.385984 
L 648.374026 95.687249 
L 654.476555 96.160665 
L 656.510731 96.074589 
L 658.544908 96.569524 
L 660.579084 96.913827 
L 662.61326 97.107497 
L 666.681613 96.784713 
L 674.818319 98.377113 
L 676.852495 99.194832 
L 678.886671 99.259388 
L 680.920848 100.077107 
L 682.955024 99.603691 
L 684.9892 100.098626 
L 687.023377 100.227739 
L 689.057553 101.325204 
L 691.091729 101.734063 
L 693.125906 101.647988 
L 695.160082 102.59482 
L 697.194258 102.508744 
L 699.228435 103.068236 
L 701.262611 103.434057 
L 703.296787 103.993549 
L 705.330964 104.380889 
L 707.36514 104.402408 
L 709.399316 104.703673 
L 711.433493 105.241646 
L 713.467669 106.016327 
L 715.501846 105.56443 
L 717.536022 105.542911 
L 719.570198 105.349241 
L 721.604375 105.628986 
L 723.638551 106.317592 
L 725.672727 106.360629 
L 727.706904 106.532781 
L 729.74108 106.984678 
L 731.775256 107.587207 
L 733.809433 108.404926 
L 735.843609 108.684672 
L 737.877785 107.974548 
L 739.911962 107.953029 
L 743.980314 108.491002 
L 748.048667 109.782136 
L 750.082843 109.846693 
L 752.11702 110.427704 
L 754.151196 111.137828 
L 756.185373 110.836563 
L 758.219549 110.772006 
L 760.253725 110.470742 
L 762.287902 111.353017 
L 764.322078 113.289719 
L 766.356254 114.128957 
L 768.390431 114.322627 
L 770.424607 115.613762 
L 772.458783 115.871989 
L 774.49296 116.517556 
L 778.561312 114.925156 
L 780.595489 115.226421 
L 782.629665 116.625151 
L 784.663841 116.302367 
L 786.698018 116.452999 
L 788.732194 116.904896 
L 790.76637 116.990972 
L 792.800547 116.947934 
L 794.834723 117.83021 
L 796.8689 118.109955 
L 798.903076 118.045399 
L 800.937252 118.841598 
L 802.971429 118.669447 
L 805.005605 119.078307 
L 807.039781 119.164382 
L 809.073958 119.874506 
L 811.108134 120.240328 
L 813.14231 120.369441 
L 815.176487 121.531463 
L 817.210663 124.027656 
L 819.244839 124.479553 
L 821.279016 124.630186 
L 823.313192 125.14664 
L 825.347368 126.566888 
L 829.415721 127.578277 
L 833.484074 129.213714 
L 837.552427 130.117508 
L 839.586603 130.139027 
L 841.620779 130.28966 
L 843.654956 132.2694 
L 845.689132 133.280789 
L 847.723308 134.421291 
L 849.757485 137.111155 
L 853.825837 138.617479 
L 855.860014 140.446586 
L 857.89419 143.717461 
L 859.928366 144.599736 
L 861.962543 146.600995 
L 863.996719 146.816184 
L 866.030895 147.397195 
L 868.065072 152.04528 
L 872.133424 152.776923 
L 874.167601 152.669328 
L 878.235954 153.078188 
L 880.27013 155.423749 
L 882.304306 155.574382 
L 884.338483 155.122484 
L 886.372659 156.112354 
L 888.406835 157.941462 
L 890.441012 157.855386 
L 894.509364 162.93385 
L 896.543541 168.528767 
L 898.577717 169.281929 
L 900.611893 175.823678 
L 902.64607 177.975569 
L 904.680246 178.965439 
L 906.714422 179.718601 
L 908.748599 181.784417 
L 910.782775 182.774287 
L 912.816951 183.419854 
L 914.851128 186.109718 
L 916.885304 188.218571 
L 918.919481 187.594523 
L 920.953657 190.585652 
L 922.987833 195.836266 
L 925.02201 196.54639 
L 927.056186 198.504611 
L 929.090362 199.623595 
L 931.124539 200.957767 
L 933.158715 202.808394 
L 935.192891 203.66915 
L 937.227068 205.218512 
L 939.261244 205.412182 
L 941.29542 209.974192 
L 943.329597 207.112176 
L 945.363773 209.80204 
L 947.397949 215.590628 
L 953.500478 217.742519 
L 955.534655 219.227324 
L 957.568831 219.09821 
L 961.637184 226.974132 
L 963.67136 236.851313 
L 965.705537 234.053854 
L 967.739713 233.881703 
L 969.773889 238.572826 
L 971.808066 239.648771 
L 973.842242 237.561437 
L 975.876418 235.818405 
L 977.910595 236.765237 
L 979.944771 240.122188 
L 981.978947 247.524693 
L 984.013124 246.922164 
L 986.0473 248.708233 
L 988.081476 250.300633 
L 990.115653 252.882902 
L 992.149829 253.786697 
L 994.184005 256.949977 
L 996.218182 256.627193 
L 996.218182 256.627193 
" style="fill:none;stroke:#ff7f0e;stroke-linecap:square;stroke-width:1.5;"/>
   </g>
   <g id="line2d_19">
    <path clip-path="url(#pea0b554f48)" d="M 184.581818 89.037905 
L 467.332331 89.123981 
L 473.43486 89.1455 
L 481.571565 89.123981 
L 485.639918 89.1455 
L 489.708271 89.123981 
L 493.776623 89.210056 
L 501.913329 89.210056 
L 526.323445 89.382208 
L 530.391798 89.403727 
L 536.494327 89.575878 
L 538.528503 89.661954 
L 550.733561 89.468283 
L 552.767738 89.704991 
L 554.801914 89.661954 
L 560.904443 89.898662 
L 562.938619 89.748029 
L 564.972796 89.834105 
L 569.041148 89.834105 
L 571.075325 89.834105 
L 573.109501 90.199926 
L 581.246206 90.372078 
L 585.314559 90.544229 
L 587.348735 90.823975 
L 591.417088 90.737899 
L 593.451265 90.694861 
L 597.519617 91.039164 
L 603.622146 91.168277 
L 605.656323 91.534099 
L 607.690499 91.51258 
L 613.793028 92.158147 
L 615.827204 92.050553 
L 619.895557 92.351818 
L 621.929733 92.30878 
L 623.96391 92.437893 
L 625.998086 92.265742 
L 628.032262 92.394855 
L 632.100615 92.072072 
L 634.134792 92.50245 
L 638.203144 92.459412 
L 650.408202 93.750547 
L 652.442379 94.245482 
L 664.647437 95.515098 
L 666.681613 95.407503 
L 668.715789 95.429022 
L 670.749966 95.601173 
L 674.818319 95.364465 
L 676.852495 95.579654 
L 678.886671 95.644211 
L 682.955024 96.160665 
L 684.9892 96.074589 
L 687.023377 96.225222 
L 693.125906 97.193573 
L 695.160082 97.107497 
L 697.194258 97.4518 
L 699.228435 97.537875 
L 701.262611 98.097367 
L 703.296787 98.03281 
L 709.399316 99.044199 
L 711.433493 98.549264 
L 713.467669 98.958124 
L 715.501846 99.173313 
L 717.536022 100.206221 
L 719.570198 100.249258 
L 721.604375 100.787231 
L 723.638551 100.507485 
L 727.706904 100.270777 
L 729.74108 99.904956 
L 731.775256 99.883437 
L 733.809433 99.991031 
L 735.843609 100.550523 
L 739.911962 101.239128 
L 741.946138 101.217609 
L 743.980314 100.744193 
L 746.014491 100.658118 
L 748.048667 101.066977 
L 752.11702 101.131534 
L 754.151196 101.734063 
L 756.185373 101.497355 
L 758.219549 102.293555 
L 762.287902 103.240387 
L 764.322078 103.950511 
L 766.356254 104.918862 
L 768.390431 105.435316 
L 770.424607 106.166959 
L 774.49296 106.123921 
L 776.527136 106.059365 
L 778.561312 106.683413 
L 780.595489 106.209997 
L 782.629665 106.769489 
L 784.663841 108.12518 
L 786.698018 108.770748 
L 788.732194 108.856823 
L 790.76637 109.394796 
L 792.800547 110.815044 
L 794.834723 111.008714 
L 796.8689 111.525168 
L 798.903076 111.740357 
L 800.937252 112.988454 
L 802.971429 113.46187 
L 805.005605 114.430221 
L 807.039781 116.323886 
L 809.073958 116.969453 
L 811.108134 118.131474 
L 813.14231 119.852987 
L 815.176487 120.99349 
L 817.210663 120.692225 
L 819.244839 121.101084 
L 823.313192 122.628927 
L 825.347368 123.037786 
L 827.381545 122.650446 
L 829.415721 121.811208 
L 831.449897 121.337792 
L 833.484074 122.779559 
L 835.51825 122.413738 
L 837.552427 123.833986 
L 839.586603 124.307402 
L 841.620779 123.9631 
L 843.654956 123.9631 
L 845.689132 123.683354 
L 847.723308 123.877024 
L 849.757485 124.802337 
L 853.825837 125.426386 
L 855.860014 127.233974 
L 857.89419 128.439033 
L 859.928366 128.266882 
L 861.962543 127.664352 
L 863.996719 129.385865 
L 866.030895 131.66687 
L 868.065072 132.032692 
L 872.133424 134.464329 
L 874.167601 137.175712 
L 876.201777 137.756722 
L 878.235954 138.703554 
L 880.27013 139.263046 
L 882.304306 140.252916 
L 884.338483 140.231397 
L 886.372659 140.790889 
L 888.406835 142.168099 
L 890.441012 142.275694 
L 892.475188 143.416196 
L 894.509364 149.204784 
L 896.543541 149.764275 
L 898.577717 153.594642 
L 900.611893 154.82122 
L 902.64607 156.650327 
L 904.680246 158.909813 
L 906.714422 160.136391 
L 908.748599 167.775605 
L 910.782775 167.409783 
L 912.816951 172.466728 
L 914.851128 172.488247 
L 916.885304 174.188241 
L 918.919481 176.318613 
L 920.953657 174.640138 
L 922.987833 178.922401 
L 925.02201 181.397076 
L 929.090362 186.948956 
L 931.124539 187.013512 
L 933.158715 187.271739 
L 935.192891 188.154015 
L 937.227068 190.478057 
L 939.261244 194.889434 
L 941.29542 196.976769 
L 943.329597 196.847655 
L 945.363773 209.565332 
L 947.397949 213.158991 
L 949.432126 214.55772 
L 951.466302 216.73113 
L 953.500478 215.891892 
L 955.534655 216.752649 
L 957.568831 219.528589 
L 959.603008 224.951354 
L 961.637184 224.757684 
L 963.67136 225.726035 
L 965.705537 228.480456 
L 967.739713 228.824759 
L 969.773889 231.127282 
L 971.808066 232.117152 
L 973.842242 233.494363 
L 975.876418 237.712069 
L 977.910595 240.358896 
L 979.944771 231.622217 
L 981.978947 238.874091 
L 984.013124 239.627253 
L 988.081476 247.524693 
L 990.115653 249.439876 
L 992.149829 249.891774 
L 994.184005 252.861384 
L 996.218182 257.703139 
L 996.218182 257.703139 
" style="fill:none;stroke:#2ca02c;stroke-linecap:square;stroke-width:1.5;"/>
   </g>
   <g id="line2d_20">
    <path clip-path="url(#pea0b554f48)" d="M 184.581818 89.037905 
L 467.332331 89.123981 
L 473.43486 89.188537 
L 481.571565 89.102462 
L 485.639918 89.231575 
L 491.742447 89.123981 
L 495.8108 89.253094 
L 497.844976 89.812586 
L 510.050034 89.834105 
L 514.118387 89.769548 
L 518.18674 89.920181 
L 524.289269 89.920181 
L 532.425974 90.264483 
L 540.562679 90.156889 
L 542.596856 90.415115 
L 544.631032 90.501191 
L 546.665208 90.221445 
L 550.733561 90.587267 
L 554.801914 90.845494 
L 560.904443 91.534099 
L 569.041148 91.878402 
L 571.075325 92.050553 
L 573.109501 92.394855 
L 575.143677 92.480931 
L 577.177854 92.846753 
L 579.21203 92.868271 
L 581.246206 93.169536 
L 583.280383 93.148017 
L 587.348735 93.320169 
L 593.451265 93.599914 
L 595.485441 93.901179 
L 599.553794 93.836623 
L 601.58797 94.310039 
L 603.622146 94.460671 
L 605.656323 94.159406 
L 607.690499 94.159406 
L 609.724675 94.460671 
L 615.827204 94.159406 
L 617.861381 94.374595 
L 619.895557 94.116368 
L 628.032262 94.697379 
L 630.066439 94.546747 
L 632.100615 94.761936 
L 634.134792 94.589784 
L 638.203144 95.170795 
L 640.237321 95.235352 
L 642.271497 94.891049 
L 650.408202 95.299909 
L 652.442379 95.66573 
L 654.476555 95.27839 
L 656.510731 96.031552 
L 658.544908 96.182184 
L 660.579084 96.569524 
L 662.61326 96.289779 
L 664.647437 96.26826 
L 666.681613 96.483449 
L 668.715789 97.064459 
L 670.749966 97.516357 
L 672.784142 97.774583 
L 674.818319 97.666989 
L 676.852495 98.011291 
L 678.886671 98.204962 
L 680.920848 97.796102 
L 682.955024 98.097367 
L 684.9892 98.764453 
L 687.023377 99.62521 
L 689.057553 99.496096 
L 691.091729 100.313815 
L 695.160082 100.959382 
L 697.194258 100.894826 
L 701.262611 102.164442 
L 703.296787 102.530263 
L 705.330964 102.659377 
L 707.36514 103.089755 
L 709.399316 103.261906 
L 711.433493 103.089755 
L 713.467669 103.864436 
L 715.501846 104.036587 
L 717.536022 104.445446 
L 719.570198 104.273295 
L 721.604375 105.478354 
L 723.638551 106.14544 
L 725.672727 105.822657 
L 727.706904 105.994808 
L 729.74108 106.037846 
L 731.775256 106.253035 
L 733.809433 106.769489 
L 735.843609 106.877083 
L 737.877785 107.630245 
L 739.911962 107.54417 
L 741.946138 108.082142 
L 743.980314 108.103661 
L 748.048667 109.782136 
L 750.082843 110.427704 
L 752.11702 111.309979 
L 754.151196 111.051752 
L 756.185373 111.09479 
L 758.219549 111.374536 
L 760.253725 112.041622 
L 762.287902 112.321368 
L 764.322078 111.761876 
L 766.356254 112.364406 
L 768.390431 111.869471 
L 770.424607 111.934028 
L 772.458783 112.428963 
L 774.49296 112.644152 
L 776.527136 113.009973 
L 778.561312 113.849211 
L 780.595489 113.053011 
L 782.629665 112.988454 
L 784.663841 113.67706 
L 786.698018 113.311238 
L 788.732194 114.128957 
L 790.76637 113.913768 
L 792.800547 115.204902 
L 796.8689 115.44161 
L 802.971429 116.302367 
L 805.005605 117.055529 
L 807.039781 118.088437 
L 809.073958 119.723874 
L 811.108134 119.788431 
L 813.14231 120.477036 
L 815.176487 121.703614 
L 817.210663 122.327662 
L 819.244839 122.478295 
L 821.279016 123.425127 
L 823.313192 123.446646 
L 825.347368 124.565629 
L 827.381545 124.54411 
L 829.415721 126.33018 
L 835.51825 128.266882 
L 837.552427 131.171935 
L 839.586603 131.882059 
L 841.620779 131.989654 
L 843.654956 132.764335 
L 847.723308 133.216232 
L 849.757485 136.982041 
L 851.791661 140.16684 
L 853.825837 143.588347 
L 855.860014 144.190877 
L 857.89419 144.233915 
L 859.928366 144.793407 
L 863.996719 147.268081 
L 866.030895 152.626291 
L 868.065072 154.068058 
L 870.099248 155.273117 
L 872.133424 155.251598 
L 874.167601 155.660457 
L 876.201777 154.928814 
L 878.235954 157.833867 
L 880.27013 157.209819 
L 882.304306 158.587029 
L 884.338483 161.685753 
L 886.372659 161.492082 
L 888.406835 161.814866 
L 890.441012 163.407266 
L 892.475188 163.966757 
L 894.509364 163.837644 
L 896.543541 165.602195 
L 898.577717 171.498377 
L 902.64607 172.961663 
L 904.680246 175.608489 
L 906.714422 177.523672 
L 908.748599 179.632525 
L 910.782775 183.204665 
L 912.816951 185.937567 
L 914.851128 187.400853 
L 916.885304 187.788193 
L 918.919481 185.851491 
L 920.953657 186.86288 
L 922.987833 187.207182 
L 925.02201 189.531225 
L 927.056186 190.090717 
L 929.090362 194.953991 
L 931.124539 195.814747 
L 933.158715 196.998288 
L 937.227068 197.880563 
L 939.261244 202.313459 
L 941.29542 209.80204 
L 945.363773 212.083045 
L 947.397949 216.042525 
L 951.466302 219.915929 
L 953.500478 220.798204 
L 955.534655 223.983003 
L 957.568831 222.950096 
L 959.603008 228.545013 
L 961.637184 229.319694 
L 963.67136 231.493104 
L 965.705537 230.804499 
L 967.739713 231.579179 
L 969.773889 229.750072 
L 971.808066 231.277915 
L 973.842242 236.31334 
L 975.876418 234.204487 
L 977.910595 236.012075 
L 979.944771 241.542436 
L 981.978947 239.153836 
L 984.013124 250.150001 
L 986.0473 250.623417 
L 988.081476 251.785438 
L 990.115653 253.657583 
L 992.149829 255.09935 
L 994.184005 255.465172 
L 996.218182 258.800603 
L 996.218182 258.800603 
" style="fill:none;stroke:#d62728;stroke-dasharray:5.55,2.4;stroke-dashoffset:0;stroke-width:1.5;"/>
   </g>
   <g id="line2d_21">
    <path clip-path="url(#pea0b554f48)" d="M 184.581818 89.037905 
L 471.400684 89.1455 
L 477.503213 89.188537 
L 491.742447 89.1455 
L 534.46015 89.253094 
L 536.494327 89.33917 
L 538.528503 89.274613 
L 546.665208 89.597397 
L 548.699385 89.575878 
L 550.733561 89.704991 
L 554.801914 89.748029 
L 556.83609 89.920181 
L 560.904443 89.72651 
L 564.972796 89.791067 
L 567.006972 89.812586 
L 569.041148 90.027775 
L 573.109501 90.156889 
L 577.177854 90.436634 
L 579.21203 90.479672 
L 581.246206 90.823975 
L 585.314559 90.931569 
L 587.348735 91.12524 
L 589.382912 91.189796 
L 591.417088 91.103721 
L 593.451265 91.383467 
L 595.485441 91.491061 
L 599.553794 91.383467 
L 601.58797 91.878402 
L 603.622146 91.641693 
L 607.690499 91.663212 
L 611.758852 91.684731 
L 613.793028 92.007515 
L 615.827204 92.050553 
L 619.895557 93.10498 
L 630.066439 93.083461 
L 634.134792 93.10498 
L 636.168968 93.126498 
L 638.203144 93.320169 
L 640.237321 93.255612 
L 642.271497 93.427763 
L 644.305673 93.363206 
L 648.374026 93.664471 
L 650.408202 93.599914 
L 652.442379 93.901179 
L 654.476555 93.772066 
L 656.510731 94.159406 
L 658.544908 94.137887 
L 676.852495 95.644211 
L 678.886671 95.601173 
L 680.920848 95.966995 
L 682.955024 95.536617 
L 684.9892 95.536617 
L 687.023377 96.031552 
L 689.057553 96.827751 
L 693.125906 96.612562 
L 697.194258 97.085978 
L 699.228435 97.4518 
L 701.262611 97.516357 
L 703.296787 97.925216 
L 705.330964 98.764453 
L 709.399316 98.312556 
L 711.433493 97.946735 
L 717.536022 97.925216 
L 721.604375 98.592302 
L 723.638551 98.592302 
L 725.672727 99.151794 
L 729.74108 99.689767 
L 731.775256 99.517615 
L 733.809433 99.904956 
L 735.843609 99.668248 
L 739.911962 100.184702 
L 741.946138 100.937864 
L 743.980314 100.873307 
L 746.014491 100.959382 
L 748.048667 101.60495 
L 750.082843 101.970771 
L 754.151196 102.056847 
L 756.185373 102.40115 
L 758.219549 102.939122 
L 760.253725 103.240387 
L 762.287902 104.273295 
L 764.322078 103.713803 
L 766.356254 104.466965 
L 768.390431 103.97203 
L 770.424607 104.316333 
L 772.458783 105.650505 
L 776.527136 107.73784 
L 778.561312 108.383407 
L 780.595489 108.512521 
L 782.629665 109.739099 
L 784.663841 110.406185 
L 786.698018 110.277071 
L 788.732194 110.320109 
L 790.76637 110.169477 
L 792.800547 110.728969 
L 794.834723 110.922639 
L 796.8689 111.482131 
L 798.903076 112.923898 
L 800.937252 113.07453 
L 802.971429 113.397314 
L 805.005605 113.569465 
L 809.073958 114.8606 
L 811.108134 116.280848 
L 813.14231 116.323886 
L 815.176487 117.335275 
L 817.210663 117.959323 
L 819.244839 117.701096 
L 821.279016 118.131474 
L 823.313192 119.336533 
L 825.347368 119.960582 
L 827.381545 121.230198 
L 829.415721 121.316273 
L 833.484074 120.563111 
L 835.51825 120.58463 
L 841.620779 122.56437 
L 843.654956 122.822597 
L 845.689132 124.393478 
L 847.723308 126.373218 
L 851.791661 127.965617 
L 855.860014 131.107378 
L 857.89419 130.720038 
L 859.928366 130.892189 
L 861.962543 130.87067 
L 863.996719 133.194713 
L 866.030895 132.764335 
L 868.065072 132.699778 
L 870.099248 133.689648 
L 872.133424 135.325085 
L 874.167601 137.283306 
L 876.201777 138.251657 
L 878.235954 137.928874 
L 880.27013 139.844057 
L 882.304306 140.360511 
L 884.338483 141.3719 
L 886.372659 141.737721 
L 888.406835 143.717461 
L 890.441012 145.137709 
L 892.475188 145.804795 
L 894.509364 147.268081 
L 896.543541 147.612384 
L 898.577717 151.270599 
L 900.611893 151.744015 
L 902.64607 151.464269 
L 904.680246 152.174393 
L 906.714422 153.938944 
L 908.748599 162.223725 
L 910.782775 162.847774 
L 912.816951 165.795865 
L 914.851128 166.226243 
L 916.885304 169.884458 
L 918.919481 170.809771 
L 920.953657 175.199629 
L 922.987833 175.457856 
L 925.02201 186.497058 
L 927.056186 190.155273 
L 929.090362 192.586911 
L 931.124539 192.845137 
L 933.158715 196.15905 
L 935.192891 208.209641 
L 937.227068 208.876727 
L 939.261244 218.624794 
L 941.29542 221.87415 
L 943.329597 223.423512 
L 945.363773 224.693127 
L 947.397949 214.729871 
L 949.432126 215.181768 
L 951.466302 216.193157 
L 953.500478 217.032395 
L 955.534655 218.646313 
L 957.568831 225.919705 
L 959.603008 227.01717 
L 961.637184 230.610828 
L 963.67136 231.450066 
L 965.705537 240.444971 
L 967.739713 240.832312 
L 969.773889 244.641159 
L 971.808066 243.780403 
L 973.842242 244.318375 
L 975.876418 245.587991 
L 977.910595 245.80318 
L 979.944771 248.342412 
L 981.978947 250.687973 
L 984.013124 254.51834 
L 986.0473 256.110739 
L 988.081476 256.971496 
L 990.115653 265.127163 
L 992.149829 267.817027 
L 994.184005 269.990438 
L 996.218182 269.839805 
L 996.218182 269.839805 
" style="fill:none;stroke:#9467bd;stroke-dasharray:5.55,2.4;stroke-dashoffset:0;stroke-width:1.5;"/>
   </g>
   <g id="line2d_22">
    <path clip-path="url(#pea0b554f48)" d="M 184.581818 89.037905 
L 465.298154 89.123981 
L 471.400684 89.188537 
L 473.43486 88.994867 
L 477.503213 88.930311 
L 479.537389 89.167019 
L 485.639918 89.188537 
L 487.674094 89.33917 
L 491.742447 89.33917 
L 495.8108 89.575878 
L 499.879152 89.597397 
L 501.913329 89.791067 
L 503.947505 89.834105 
L 510.050034 89.53284 
L 512.084211 89.511321 
L 514.118387 89.683472 
L 518.18674 89.618916 
L 520.220916 89.920181 
L 522.255092 89.855624 
L 524.289269 89.963218 
L 526.323445 90.221445 
L 530.391798 90.199926 
L 534.46015 90.286002 
L 536.494327 90.372078 
L 538.528503 90.608786 
L 540.562679 90.608786 
L 542.596856 90.458153 
L 546.665208 90.565748 
L 548.699385 90.823975 
L 552.767738 91.103721 
L 556.83609 92.244223 
L 558.870267 92.330299 
L 560.904443 92.88979 
L 562.938619 92.717639 
L 564.972796 93.234093 
L 567.006972 93.126498 
L 569.041148 93.341688 
L 571.075325 94.977125 
L 573.109501 94.718898 
L 577.177854 94.740417 
L 579.21203 94.977125 
L 581.246206 95.041682 
L 583.280383 95.321427 
L 591.417088 94.86953 
L 593.451265 94.891049 
L 595.485441 95.170795 
L 597.519617 95.8594 
L 601.58797 96.160665 
L 603.622146 96.677119 
L 605.656323 98.721416 
L 607.690499 99.410021 
L 609.724675 99.302426 
L 611.758852 100.077107 
L 617.861381 100.249258 
L 619.895557 100.572042 
L 621.929733 100.529004 
L 623.96391 101.239128 
L 625.998086 103.692284 
L 628.032262 104.015068 
L 630.066439 105.349241 
L 632.100615 105.435316 
L 634.134792 105.047976 
L 636.168968 104.789749 
L 638.203144 105.004938 
L 642.271497 105.973289 
L 644.305673 105.887213 
L 646.33985 104.897343 
L 650.408202 106.253035 
L 652.442379 106.683413 
L 654.476555 107.415056 
L 658.544908 109.868212 
L 660.579084 109.954288 
L 662.61326 110.750488 
L 664.647437 110.578336 
L 666.681613 111.89099 
L 670.749966 115.24794 
L 674.818319 115.226421 
L 676.852495 117.701096 
L 678.886671 117.356794 
L 680.920848 116.280848 
L 682.955024 116.173253 
L 687.023377 123.575759 
L 689.057553 124.307402 
L 691.091729 123.812467 
L 693.125906 125.749169 
L 695.160082 129.342828 
L 697.194258 129.558017 
L 699.228435 130.117508 
L 701.262611 137.778241 
L 703.296787 138.9833 
L 705.330964 137.885836 
L 707.36514 137.885836 
L 709.399316 138.144063 
L 711.433493 138.014949 
L 713.467669 138.101025 
L 715.501846 139.58583 
L 717.536022 141.393418 
L 719.570198 147.612384 
L 721.604375 148.494659 
L 723.638551 150.45288 
L 725.672727 150.883259 
L 727.706904 153.22882 
L 729.74108 156.865516 
L 731.775256 157.57564 
L 733.809433 159.038926 
L 735.843609 161.061704 
L 737.877785 161.083223 
L 739.911962 164.526249 
L 741.946138 163.751568 
L 743.980314 164.246503 
L 746.014491 164.913589 
L 748.048667 167.022443 
L 750.082843 168.292059 
L 752.11702 170.078128 
L 754.151196 167.130037 
L 756.185373 167.538897 
L 758.219549 167.732567 
L 760.253725 172.316095 
L 762.287902 173.0047 
L 764.322078 176.555321 
L 766.356254 186.776804 
L 768.390431 188.971733 
L 770.424607 193.98564 
L 772.458783 193.318554 
L 774.49296 199.472962 
L 776.527136 202.614724 
L 778.561312 204.615982 
L 780.595489 205.240031 
L 782.629665 204.788134 
L 784.663841 209.005841 
L 786.698018 215.569109 
L 788.732194 216.688092 
L 790.76637 214.536201 
L 792.800547 216.623535 
L 794.834723 216.666573 
L 796.8689 221.917188 
L 798.903076 224.800722 
L 800.937252 229.233618 
L 802.971429 229.685515 
L 805.005605 229.319694 
L 807.039781 239.648771 
L 809.073958 241.8437 
L 813.14231 242.919646 
L 815.176487 253.679102 
L 817.210663 252.452524 
L 819.244839 256.239853 
L 821.279016 259.209463 
L 823.313192 261.770213 
L 825.347368 264.868937 
L 827.381545 265.170201 
L 829.415721 266.633487 
L 831.449897 270.485373 
L 833.484074 272.185367 
L 835.51825 273.196756 
L 837.552427 277.565095 
L 839.586603 293.962506 
L 841.620779 295.46883 
L 843.654956 295.016932 
L 845.689132 298.416921 
L 847.723308 298.416921 
L 849.757485 309.11182 
L 851.791661 311.758646 
L 853.825837 313.437121 
L 855.860014 313.759905 
L 857.89419 313.845981 
L 859.928366 316.256099 
L 861.962543 315.589013 
L 866.030895 311.414344 
L 868.065072 313.0713 
L 870.099248 325.832015 
L 872.133424 327.575047 
L 874.167601 327.166187 
L 876.201777 327.89783 
L 878.235954 331.513008 
L 880.27013 332.804142 
L 882.304306 335.515525 
L 884.338483 335.42945 
L 886.372659 335.02059 
L 888.406835 334.22439 
L 890.441012 333.191483 
L 892.475188 341.368669 
L 894.509364 342.831955 
L 896.543541 344.12309 
L 898.577717 347.695229 
L 900.611893 353.935714 
L 902.64607 370.741984 
L 906.714422 374.938172 
L 908.748599 375.325513 
L 910.782775 391.808999 
L 912.816951 396.564679 
L 914.851128 402.28871 
L 916.885304 404.870979 
L 918.919481 404.870979 
L 920.953657 406.484898 
L 922.987833 407.6254 
L 925.02201 406.527935 
L 927.056186 404.569714 
L 929.090362 408.163373 
L 931.124539 409.777291 
L 933.158715 409.153243 
L 935.192891 417.696251 
L 937.227068 416.060813 
L 939.261244 423.721546 
L 941.29542 423.162055 
L 943.329597 419.69751 
L 945.363773 424.711416 
L 947.397949 425.808881 
L 949.432126 423.743065 
L 951.466302 424.711416 
L 953.500478 428.864566 
L 955.534655 431.662025 
L 957.568831 432.372149 
L 959.603008 432.35063 
L 961.637184 435.018975 
L 963.67136 430.56456 
L 965.705537 431.403798 
L 967.739713 433.749359 
L 969.773889 437.558207 
L 971.808066 437.020234 
L 973.842242 439.774655 
L 975.876418 443.777172 
L 977.910595 440.829081 
L 979.944771 442.443 
L 981.978947 450.921451 
L 984.013124 454.90245 
L 986.0473 458.302438 
L 988.081476 462.520145 
L 990.115653 470.847964 
L 992.149829 468.1581 
L 994.184005 470.309991 
L 996.218182 484.232727 
L 996.218182 484.232727 
" style="fill:none;stroke:#8c564b;stroke-dasharray:5.55,2.4;stroke-dashoffset:0;stroke-width:1.5;"/>
   </g>
   <g id="patch_3">
    <path d="M 144 504 
L 144 69.12 
" style="fill:none;stroke:#000000;stroke-linecap:square;stroke-linejoin:miter;stroke-width:0.8;"/>
   </g>
   <g id="patch_4">
    <path d="M 1036.8 504 
L 1036.8 69.12 
" style="fill:none;stroke:#000000;stroke-linecap:square;stroke-linejoin:miter;stroke-width:0.8;"/>
   </g>
   <g id="patch_5">
    <path d="M 144 504 
L 1036.8 504 
" style="fill:none;stroke:#000000;stroke-linecap:square;stroke-linejoin:miter;stroke-width:0.8;"/>
   </g>
   <g id="patch_6">
    <path d="M 144 69.12 
L 1036.8 69.12 
" style="fill:none;stroke:#000000;stroke-linecap:square;stroke-linejoin:miter;stroke-width:0.8;"/>
   </g>
   <g id="legend_1">
    <g id="patch_7">
     <path d="M 151 499 
L 275.432813 499 
Q 277.432813 499 277.432813 497 
L 277.432813 408.540625 
Q 277.432813 406.540625 275.432813 406.540625 
L 151 406.540625 
Q 149 406.540625 149 408.540625 
L 149 497 
Q 149 499 151 499 
z
" style="fill:#ffffff;opacity:0.8;stroke:#cccccc;stroke-linejoin:miter;"/>
    </g>
    <g id="line2d_23">
     <path d="M 153 414.639063 
L 173 414.639063 
" style="fill:none;stroke:#1f77b4;stroke-linecap:square;stroke-width:1.5;"/>
    </g>
    <g id="line2d_24"/>
    <g id="text_19">
     <!-- taylorfo -->
     <defs>
      <path d="M 18.3125 70.21875 
L 18.3125 54.6875 
L 36.8125 54.6875 
L 36.8125 47.703125 
L 18.3125 47.703125 
L 18.3125 18.015625 
Q 18.3125 11.328125 20.140625 9.421875 
Q 21.96875 7.515625 27.59375 7.515625 
L 36.8125 7.515625 
L 36.8125 0 
L 27.59375 0 
Q 17.1875 0 13.234375 3.875 
Q 9.28125 7.765625 9.28125 18.015625 
L 9.28125 47.703125 
L 2.6875 47.703125 
L 2.6875 54.6875 
L 9.28125 54.6875 
L 9.28125 70.21875 
z
" id="DejaVuSans-116"/>
      <path d="M 9.421875 75.984375 
L 18.40625 75.984375 
L 18.40625 0 
L 9.421875 0 
z
" id="DejaVuSans-108"/>
     </defs>
     <g transform="translate(181 418.139063)scale(0.1 -0.1)">
      <use xlink:href="#DejaVuSans-116"/>
      <use x="39.208984" xlink:href="#DejaVuSans-97"/>
      <use x="100.488281" xlink:href="#DejaVuSans-121"/>
      <use x="159.667969" xlink:href="#DejaVuSans-108"/>
      <use x="187.451172" xlink:href="#DejaVuSans-111"/>
      <use x="248.632812" xlink:href="#DejaVuSans-114"/>
      <use x="289.746094" xlink:href="#DejaVuSans-102"/>
      <use x="324.951172" xlink:href="#DejaVuSans-111"/>
     </g>
    </g>
    <g id="line2d_25">
     <path d="M 153 429.317188 
L 173 429.317188 
" style="fill:none;stroke:#ff7f0e;stroke-linecap:square;stroke-width:1.5;"/>
    </g>
    <g id="line2d_26"/>
    <g id="text_20">
     <!-- taylorfo_abs -->
     <defs>
      <path d="M 50.984375 -16.609375 
L 50.984375 -23.578125 
L -0.984375 -23.578125 
L -0.984375 -16.609375 
z
" id="DejaVuSans-95"/>
     </defs>
     <g transform="translate(181 432.817188)scale(0.1 -0.1)">
      <use xlink:href="#DejaVuSans-116"/>
      <use x="39.208984" xlink:href="#DejaVuSans-97"/>
      <use x="100.488281" xlink:href="#DejaVuSans-121"/>
      <use x="159.667969" xlink:href="#DejaVuSans-108"/>
      <use x="187.451172" xlink:href="#DejaVuSans-111"/>
      <use x="248.632812" xlink:href="#DejaVuSans-114"/>
      <use x="289.746094" xlink:href="#DejaVuSans-102"/>
      <use x="324.951172" xlink:href="#DejaVuSans-111"/>
      <use x="386.132812" xlink:href="#DejaVuSans-95"/>
      <use x="436.132812" xlink:href="#DejaVuSans-97"/>
      <use x="497.412109" xlink:href="#DejaVuSans-98"/>
      <use x="560.888672" xlink:href="#DejaVuSans-115"/>
     </g>
    </g>
    <g id="line2d_27">
     <path d="M 153 444.273438 
L 173 444.273438 
" style="fill:none;stroke:#2ca02c;stroke-linecap:square;stroke-width:1.5;"/>
    </g>
    <g id="line2d_28"/>
    <g id="text_21">
     <!-- taylorfo_sq -->
     <defs>
      <path d="M 14.796875 27.296875 
Q 14.796875 17.390625 18.875 11.75 
Q 22.953125 6.109375 30.078125 6.109375 
Q 37.203125 6.109375 41.296875 11.75 
Q 45.40625 17.390625 45.40625 27.296875 
Q 45.40625 37.203125 41.296875 42.84375 
Q 37.203125 48.484375 30.078125 48.484375 
Q 22.953125 48.484375 18.875 42.84375 
Q 14.796875 37.203125 14.796875 27.296875 
z
M 45.40625 8.203125 
Q 42.578125 3.328125 38.25 0.953125 
Q 33.9375 -1.421875 27.875 -1.421875 
Q 17.96875 -1.421875 11.734375 6.484375 
Q 5.515625 14.40625 5.515625 27.296875 
Q 5.515625 40.1875 11.734375 48.09375 
Q 17.96875 56 27.875 56 
Q 33.9375 56 38.25 53.625 
Q 42.578125 51.265625 45.40625 46.390625 
L 45.40625 54.6875 
L 54.390625 54.6875 
L 54.390625 -20.796875 
L 45.40625 -20.796875 
z
" id="DejaVuSans-113"/>
     </defs>
     <g transform="translate(181 447.773438)scale(0.1 -0.1)">
      <use xlink:href="#DejaVuSans-116"/>
      <use x="39.208984" xlink:href="#DejaVuSans-97"/>
      <use x="100.488281" xlink:href="#DejaVuSans-121"/>
      <use x="159.667969" xlink:href="#DejaVuSans-108"/>
      <use x="187.451172" xlink:href="#DejaVuSans-111"/>
      <use x="248.632812" xlink:href="#DejaVuSans-114"/>
      <use x="289.746094" xlink:href="#DejaVuSans-102"/>
      <use x="324.951172" xlink:href="#DejaVuSans-111"/>
      <use x="386.132812" xlink:href="#DejaVuSans-95"/>
      <use x="436.132812" xlink:href="#DejaVuSans-115"/>
      <use x="488.232422" xlink:href="#DejaVuSans-113"/>
     </g>
    </g>
    <g id="line2d_29">
     <path d="M 153 459.229688 
L 173 459.229688 
" style="fill:none;stroke:#d62728;stroke-dasharray:5.55,2.4;stroke-dashoffset:0;stroke-width:1.5;"/>
    </g>
    <g id="line2d_30"/>
    <g id="text_22">
     <!-- taylorfo_abs_norm -->
     <g transform="translate(181 462.729688)scale(0.1 -0.1)">
      <use xlink:href="#DejaVuSans-116"/>
      <use x="39.208984" xlink:href="#DejaVuSans-97"/>
      <use x="100.488281" xlink:href="#DejaVuSans-121"/>
      <use x="159.667969" xlink:href="#DejaVuSans-108"/>
      <use x="187.451172" xlink:href="#DejaVuSans-111"/>
      <use x="248.632812" xlink:href="#DejaVuSans-114"/>
      <use x="289.746094" xlink:href="#DejaVuSans-102"/>
      <use x="324.951172" xlink:href="#DejaVuSans-111"/>
      <use x="386.132812" xlink:href="#DejaVuSans-95"/>
      <use x="436.132812" xlink:href="#DejaVuSans-97"/>
      <use x="497.412109" xlink:href="#DejaVuSans-98"/>
      <use x="560.888672" xlink:href="#DejaVuSans-115"/>
      <use x="612.988281" xlink:href="#DejaVuSans-95"/>
      <use x="662.988281" xlink:href="#DejaVuSans-110"/>
      <use x="726.367188" xlink:href="#DejaVuSans-111"/>
      <use x="787.548828" xlink:href="#DejaVuSans-114"/>
      <use x="826.912109" xlink:href="#DejaVuSans-109"/>
     </g>
    </g>
    <g id="line2d_31">
     <path d="M 153 474.185938 
L 173 474.185938 
" style="fill:none;stroke:#9467bd;stroke-dasharray:5.55,2.4;stroke-dashoffset:0;stroke-width:1.5;"/>
    </g>
    <g id="line2d_32"/>
    <g id="text_23">
     <!-- taylorfo_sq_norm -->
     <g transform="translate(181 477.685938)scale(0.1 -0.1)">
      <use xlink:href="#DejaVuSans-116"/>
      <use x="39.208984" xlink:href="#DejaVuSans-97"/>
      <use x="100.488281" xlink:href="#DejaVuSans-121"/>
      <use x="159.667969" xlink:href="#DejaVuSans-108"/>
      <use x="187.451172" xlink:href="#DejaVuSans-111"/>
      <use x="248.632812" xlink:href="#DejaVuSans-114"/>
      <use x="289.746094" xlink:href="#DejaVuSans-102"/>
      <use x="324.951172" xlink:href="#DejaVuSans-111"/>
      <use x="386.132812" xlink:href="#DejaVuSans-95"/>
      <use x="436.132812" xlink:href="#DejaVuSans-115"/>
      <use x="488.232422" xlink:href="#DejaVuSans-113"/>
      <use x="551.708984" xlink:href="#DejaVuSans-95"/>
      <use x="601.708984" xlink:href="#DejaVuSans-110"/>
      <use x="665.087891" xlink:href="#DejaVuSans-111"/>
      <use x="726.269531" xlink:href="#DejaVuSans-114"/>
      <use x="765.632812" xlink:href="#DejaVuSans-109"/>
     </g>
    </g>
    <g id="line2d_33">
     <path d="M 153 489.142188 
L 173 489.142188 
" style="fill:none;stroke:#8c564b;stroke-dasharray:5.55,2.4;stroke-dashoffset:0;stroke-width:1.5;"/>
    </g>
    <g id="line2d_34"/>
    <g id="text_24">
     <!-- Molchanov_group -->
     <defs>
      <path d="M 9.8125 72.90625 
L 24.515625 72.90625 
L 43.109375 23.296875 
L 61.8125 72.90625 
L 76.515625 72.90625 
L 76.515625 0 
L 66.890625 0 
L 66.890625 64.015625 
L 48.09375 14.015625 
L 38.1875 14.015625 
L 19.390625 64.015625 
L 19.390625 0 
L 9.8125 0 
z
" id="DejaVuSans-77"/>
      <path d="M 54.890625 33.015625 
L 54.890625 0 
L 45.90625 0 
L 45.90625 32.71875 
Q 45.90625 40.484375 42.875 44.328125 
Q 39.84375 48.1875 33.796875 48.1875 
Q 26.515625 48.1875 22.3125 43.546875 
Q 18.109375 38.921875 18.109375 30.90625 
L 18.109375 0 
L 9.078125 0 
L 9.078125 75.984375 
L 18.109375 75.984375 
L 18.109375 46.1875 
Q 21.34375 51.125 25.703125 53.5625 
Q 30.078125 56 35.796875 56 
Q 45.21875 56 50.046875 50.171875 
Q 54.890625 44.34375 54.890625 33.015625 
z
" id="DejaVuSans-104"/>
      <path d="M 2.984375 54.6875 
L 12.5 54.6875 
L 29.59375 8.796875 
L 46.6875 54.6875 
L 56.203125 54.6875 
L 35.6875 0 
L 23.484375 0 
z
" id="DejaVuSans-118"/>
      <path d="M 45.40625 27.984375 
Q 45.40625 37.75 41.375 43.109375 
Q 37.359375 48.484375 30.078125 48.484375 
Q 22.859375 48.484375 18.828125 43.109375 
Q 14.796875 37.75 14.796875 27.984375 
Q 14.796875 18.265625 18.828125 12.890625 
Q 22.859375 7.515625 30.078125 7.515625 
Q 37.359375 7.515625 41.375 12.890625 
Q 45.40625 18.265625 45.40625 27.984375 
z
M 54.390625 6.78125 
Q 54.390625 -7.171875 48.1875 -13.984375 
Q 42 -20.796875 29.203125 -20.796875 
Q 24.46875 -20.796875 20.265625 -20.09375 
Q 16.0625 -19.390625 12.109375 -17.921875 
L 12.109375 -9.1875 
Q 16.0625 -11.328125 19.921875 -12.34375 
Q 23.78125 -13.375 27.78125 -13.375 
Q 36.625 -13.375 41.015625 -8.765625 
Q 45.40625 -4.15625 45.40625 5.171875 
L 45.40625 9.625 
Q 42.625 4.78125 38.28125 2.390625 
Q 33.9375 0 27.875 0 
Q 17.828125 0 11.671875 7.65625 
Q 5.515625 15.328125 5.515625 27.984375 
Q 5.515625 40.671875 11.671875 48.328125 
Q 17.828125 56 27.875 56 
Q 33.9375 56 38.28125 53.609375 
Q 42.625 51.21875 45.40625 46.390625 
L 45.40625 54.6875 
L 54.390625 54.6875 
z
" id="DejaVuSans-103"/>
     </defs>
     <g transform="translate(181 492.642188)scale(0.1 -0.1)">
      <use xlink:href="#DejaVuSans-77"/>
      <use x="86.279297" xlink:href="#DejaVuSans-111"/>
      <use x="147.460938" xlink:href="#DejaVuSans-108"/>
      <use x="175.244141" xlink:href="#DejaVuSans-99"/>
      <use x="230.224609" xlink:href="#DejaVuSans-104"/>
      <use x="293.603516" xlink:href="#DejaVuSans-97"/>
      <use x="354.882812" xlink:href="#DejaVuSans-110"/>
      <use x="418.261719" xlink:href="#DejaVuSans-111"/>
      <use x="479.443359" xlink:href="#DejaVuSans-118"/>
      <use x="538.623047" xlink:href="#DejaVuSans-95"/>
      <use x="588.623047" xlink:href="#DejaVuSans-103"/>
      <use x="652.099609" xlink:href="#DejaVuSans-114"/>
      <use x="690.962891" xlink:href="#DejaVuSans-111"/>
      <use x="752.144531" xlink:href="#DejaVuSans-117"/>
      <use x="815.523438" xlink:href="#DejaVuSans-112"/>
     </g>
    </g>
   </g>
  </g>
 </g>
 <defs>
  <clipPath id="pea0b554f48">
   <rect height="434.88" width="892.8" x="144" y="69.12"/>
  </clipPath>
 </defs>
</svg>
