<?xml version="1.0" encoding="utf-8" standalone="no"?>
<!DOCTYPE svg PUBLIC "-//W3C//DTD SVG 1.1//EN"
  "http://www.w3.org/Graphics/SVG/1.1/DTD/svg11.dtd">
<!-- Created with matplotlib (https://matplotlib.org/) -->
<svg height="576pt" version="1.1" viewBox="0 0 1152 576" width="1152pt" xmlns="http://www.w3.org/2000/svg" xmlns:xlink="http://www.w3.org/1999/xlink">
 <defs>
  <style type="text/css">
*{stroke-linecap:butt;stroke-linejoin:round;}
  </style>
 </defs>
 <g id="figure_1">
  <g id="patch_1">
   <path d="M 0 576 
L 1152 576 
L 1152 0 
L 0 0 
z
" style="fill:#ffffff;"/>
  </g>
  <g id="axes_1">
   <g id="patch_2">
    <path d="M 144 504 
L 1036.8 504 
L 1036.8 69.12 
L 144 69.12 
z
" style="fill:#ffffff;"/>
   </g>
   <g id="matplotlib.axis_1">
    <g id="xtick_1">
     <g id="line2d_1">
      <defs>
       <path d="M 0 0 
L 0 3.5 
" id="m3621307992" style="stroke:#000000;stroke-width:0.8;"/>
      </defs>
      <g>
       <use style="stroke:#000000;stroke-width:0.8;" x="182.547642" xlink:href="#m3621307992" y="504"/>
      </g>
     </g>
     <g id="text_1">
      <!-- 0 -->
      <defs>
       <path d="M 31.78125 66.40625 
Q 24.171875 66.40625 20.328125 58.90625 
Q 16.5 51.421875 16.5 36.375 
Q 16.5 21.390625 20.328125 13.890625 
Q 24.171875 6.390625 31.78125 6.390625 
Q 39.453125 6.390625 43.28125 13.890625 
Q 47.125 21.390625 47.125 36.375 
Q 47.125 51.421875 43.28125 58.90625 
Q 39.453125 66.40625 31.78125 66.40625 
z
M 31.78125 74.21875 
Q 44.046875 74.21875 50.515625 64.515625 
Q 56.984375 54.828125 56.984375 36.375 
Q 56.984375 17.96875 50.515625 8.265625 
Q 44.046875 -1.421875 31.78125 -1.421875 
Q 19.53125 -1.421875 13.0625 8.265625 
Q 6.59375 17.96875 6.59375 36.375 
Q 6.59375 54.828125 13.0625 64.515625 
Q 19.53125 74.21875 31.78125 74.21875 
z
" id="DejaVuSans-48"/>
      </defs>
      <g transform="translate(179.366392 518.598438)scale(0.1 -0.1)">
       <use xlink:href="#DejaVuSans-48"/>
      </g>
     </g>
    </g>
    <g id="xtick_2">
     <g id="line2d_2">
      <g>
       <use style="stroke:#000000;stroke-width:0.8;" x="284.256459" xlink:href="#m3621307992" y="504"/>
      </g>
     </g>
     <g id="text_2">
      <!-- 50 -->
      <defs>
       <path d="M 10.796875 72.90625 
L 49.515625 72.90625 
L 49.515625 64.59375 
L 19.828125 64.59375 
L 19.828125 46.734375 
Q 21.96875 47.46875 24.109375 47.828125 
Q 26.265625 48.1875 28.421875 48.1875 
Q 40.625 48.1875 47.75 41.5 
Q 54.890625 34.8125 54.890625 23.390625 
Q 54.890625 11.625 47.5625 5.09375 
Q 40.234375 -1.421875 26.90625 -1.421875 
Q 22.3125 -1.421875 17.546875 -0.640625 
Q 12.796875 0.140625 7.71875 1.703125 
L 7.71875 11.625 
Q 12.109375 9.234375 16.796875 8.0625 
Q 21.484375 6.890625 26.703125 6.890625 
Q 35.15625 6.890625 40.078125 11.328125 
Q 45.015625 15.765625 45.015625 23.390625 
Q 45.015625 31 40.078125 35.4375 
Q 35.15625 39.890625 26.703125 39.890625 
Q 22.75 39.890625 18.8125 39.015625 
Q 14.890625 38.140625 10.796875 36.28125 
z
" id="DejaVuSans-53"/>
      </defs>
      <g transform="translate(277.893959 518.598438)scale(0.1 -0.1)">
       <use xlink:href="#DejaVuSans-53"/>
       <use x="63.623047" xlink:href="#DejaVuSans-48"/>
      </g>
     </g>
    </g>
    <g id="xtick_3">
     <g id="line2d_3">
      <g>
       <use style="stroke:#000000;stroke-width:0.8;" x="385.965277" xlink:href="#m3621307992" y="504"/>
      </g>
     </g>
     <g id="text_3">
      <!-- 100 -->
      <defs>
       <path d="M 12.40625 8.296875 
L 28.515625 8.296875 
L 28.515625 63.921875 
L 10.984375 60.40625 
L 10.984375 69.390625 
L 28.421875 72.90625 
L 38.28125 72.90625 
L 38.28125 8.296875 
L 54.390625 8.296875 
L 54.390625 0 
L 12.40625 0 
z
" id="DejaVuSans-49"/>
      </defs>
      <g transform="translate(376.421527 518.598438)scale(0.1 -0.1)">
       <use xlink:href="#DejaVuSans-49"/>
       <use x="63.623047" xlink:href="#DejaVuSans-48"/>
       <use x="127.246094" xlink:href="#DejaVuSans-48"/>
      </g>
     </g>
    </g>
    <g id="xtick_4">
     <g id="line2d_4">
      <g>
       <use style="stroke:#000000;stroke-width:0.8;" x="487.674094" xlink:href="#m3621307992" y="504"/>
      </g>
     </g>
     <g id="text_4">
      <!-- 150 -->
      <g transform="translate(478.130344 518.598438)scale(0.1 -0.1)">
       <use xlink:href="#DejaVuSans-49"/>
       <use x="63.623047" xlink:href="#DejaVuSans-53"/>
       <use x="127.246094" xlink:href="#DejaVuSans-48"/>
      </g>
     </g>
    </g>
    <g id="xtick_5">
     <g id="line2d_5">
      <g>
       <use style="stroke:#000000;stroke-width:0.8;" x="589.382912" xlink:href="#m3621307992" y="504"/>
      </g>
     </g>
     <g id="text_5">
      <!-- 200 -->
      <defs>
       <path d="M 19.1875 8.296875 
L 53.609375 8.296875 
L 53.609375 0 
L 7.328125 0 
L 7.328125 8.296875 
Q 12.9375 14.109375 22.625 23.890625 
Q 32.328125 33.6875 34.8125 36.53125 
Q 39.546875 41.84375 41.421875 45.53125 
Q 43.3125 49.21875 43.3125 52.78125 
Q 43.3125 58.59375 39.234375 62.25 
Q 35.15625 65.921875 28.609375 65.921875 
Q 23.96875 65.921875 18.8125 64.3125 
Q 13.671875 62.703125 7.8125 59.421875 
L 7.8125 69.390625 
Q 13.765625 71.78125 18.9375 73 
Q 24.125 74.21875 28.421875 74.21875 
Q 39.75 74.21875 46.484375 68.546875 
Q 53.21875 62.890625 53.21875 53.421875 
Q 53.21875 48.921875 51.53125 44.890625 
Q 49.859375 40.875 45.40625 35.40625 
Q 44.1875 33.984375 37.640625 27.21875 
Q 31.109375 20.453125 19.1875 8.296875 
z
" id="DejaVuSans-50"/>
      </defs>
      <g transform="translate(579.839162 518.598438)scale(0.1 -0.1)">
       <use xlink:href="#DejaVuSans-50"/>
       <use x="63.623047" xlink:href="#DejaVuSans-48"/>
       <use x="127.246094" xlink:href="#DejaVuSans-48"/>
      </g>
     </g>
    </g>
    <g id="xtick_6">
     <g id="line2d_6">
      <g>
       <use style="stroke:#000000;stroke-width:0.8;" x="691.091729" xlink:href="#m3621307992" y="504"/>
      </g>
     </g>
     <g id="text_6">
      <!-- 250 -->
      <g transform="translate(681.547979 518.598438)scale(0.1 -0.1)">
       <use xlink:href="#DejaVuSans-50"/>
       <use x="63.623047" xlink:href="#DejaVuSans-53"/>
       <use x="127.246094" xlink:href="#DejaVuSans-48"/>
      </g>
     </g>
    </g>
    <g id="xtick_7">
     <g id="line2d_7">
      <g>
       <use style="stroke:#000000;stroke-width:0.8;" x="792.800547" xlink:href="#m3621307992" y="504"/>
      </g>
     </g>
     <g id="text_7">
      <!-- 300 -->
      <defs>
       <path d="M 40.578125 39.3125 
Q 47.65625 37.796875 51.625 33 
Q 55.609375 28.21875 55.609375 21.1875 
Q 55.609375 10.40625 48.1875 4.484375 
Q 40.765625 -1.421875 27.09375 -1.421875 
Q 22.515625 -1.421875 17.65625 -0.515625 
Q 12.796875 0.390625 7.625 2.203125 
L 7.625 11.71875 
Q 11.71875 9.328125 16.59375 8.109375 
Q 21.484375 6.890625 26.8125 6.890625 
Q 36.078125 6.890625 40.9375 10.546875 
Q 45.796875 14.203125 45.796875 21.1875 
Q 45.796875 27.640625 41.28125 31.265625 
Q 36.765625 34.90625 28.71875 34.90625 
L 20.21875 34.90625 
L 20.21875 43.015625 
L 29.109375 43.015625 
Q 36.375 43.015625 40.234375 45.921875 
Q 44.09375 48.828125 44.09375 54.296875 
Q 44.09375 59.90625 40.109375 62.90625 
Q 36.140625 65.921875 28.71875 65.921875 
Q 24.65625 65.921875 20.015625 65.03125 
Q 15.375 64.15625 9.8125 62.3125 
L 9.8125 71.09375 
Q 15.4375 72.65625 20.34375 73.4375 
Q 25.25 74.21875 29.59375 74.21875 
Q 40.828125 74.21875 47.359375 69.109375 
Q 53.90625 64.015625 53.90625 55.328125 
Q 53.90625 49.265625 50.4375 45.09375 
Q 46.96875 40.921875 40.578125 39.3125 
z
" id="DejaVuSans-51"/>
      </defs>
      <g transform="translate(783.256797 518.598438)scale(0.1 -0.1)">
       <use xlink:href="#DejaVuSans-51"/>
       <use x="63.623047" xlink:href="#DejaVuSans-48"/>
       <use x="127.246094" xlink:href="#DejaVuSans-48"/>
      </g>
     </g>
    </g>
    <g id="xtick_8">
     <g id="line2d_8">
      <g>
       <use style="stroke:#000000;stroke-width:0.8;" x="894.509364" xlink:href="#m3621307992" y="504"/>
      </g>
     </g>
     <g id="text_8">
      <!-- 350 -->
      <g transform="translate(884.965614 518.598438)scale(0.1 -0.1)">
       <use xlink:href="#DejaVuSans-51"/>
       <use x="63.623047" xlink:href="#DejaVuSans-53"/>
       <use x="127.246094" xlink:href="#DejaVuSans-48"/>
      </g>
     </g>
    </g>
    <g id="xtick_9">
     <g id="line2d_9">
      <g>
       <use style="stroke:#000000;stroke-width:0.8;" x="996.218182" xlink:href="#m3621307992" y="504"/>
      </g>
     </g>
     <g id="text_9">
      <!-- 400 -->
      <defs>
       <path d="M 37.796875 64.3125 
L 12.890625 25.390625 
L 37.796875 25.390625 
z
M 35.203125 72.90625 
L 47.609375 72.90625 
L 47.609375 25.390625 
L 58.015625 25.390625 
L 58.015625 17.1875 
L 47.609375 17.1875 
L 47.609375 0 
L 37.796875 0 
L 37.796875 17.1875 
L 4.890625 17.1875 
L 4.890625 26.703125 
z
" id="DejaVuSans-52"/>
      </defs>
      <g transform="translate(986.674432 518.598438)scale(0.1 -0.1)">
       <use xlink:href="#DejaVuSans-52"/>
       <use x="63.623047" xlink:href="#DejaVuSans-48"/>
       <use x="127.246094" xlink:href="#DejaVuSans-48"/>
      </g>
     </g>
    </g>
    <g id="text_10">
     <!-- Number of Neurons pruned -->
     <defs>
      <path d="M 9.8125 72.90625 
L 23.09375 72.90625 
L 55.421875 11.921875 
L 55.421875 72.90625 
L 64.984375 72.90625 
L 64.984375 0 
L 51.703125 0 
L 19.390625 60.984375 
L 19.390625 0 
L 9.8125 0 
z
" id="DejaVuSans-78"/>
      <path d="M 8.5 21.578125 
L 8.5 54.6875 
L 17.484375 54.6875 
L 17.484375 21.921875 
Q 17.484375 14.15625 20.5 10.265625 
Q 23.53125 6.390625 29.59375 6.390625 
Q 36.859375 6.390625 41.078125 11.03125 
Q 45.3125 15.671875 45.3125 23.6875 
L 45.3125 54.6875 
L 54.296875 54.6875 
L 54.296875 0 
L 45.3125 0 
L 45.3125 8.40625 
Q 42.046875 3.421875 37.71875 1 
Q 33.40625 -1.421875 27.6875 -1.421875 
Q 18.265625 -1.421875 13.375 4.4375 
Q 8.5 10.296875 8.5 21.578125 
z
M 31.109375 56 
z
" id="DejaVuSans-117"/>
      <path d="M 52 44.1875 
Q 55.375 50.25 60.0625 53.125 
Q 64.75 56 71.09375 56 
Q 79.640625 56 84.28125 50.015625 
Q 88.921875 44.046875 88.921875 33.015625 
L 88.921875 0 
L 79.890625 0 
L 79.890625 32.71875 
Q 79.890625 40.578125 77.09375 44.375 
Q 74.3125 48.1875 68.609375 48.1875 
Q 61.625 48.1875 57.5625 43.546875 
Q 53.515625 38.921875 53.515625 30.90625 
L 53.515625 0 
L 44.484375 0 
L 44.484375 32.71875 
Q 44.484375 40.625 41.703125 44.40625 
Q 38.921875 48.1875 33.109375 48.1875 
Q 26.21875 48.1875 22.15625 43.53125 
Q 18.109375 38.875 18.109375 30.90625 
L 18.109375 0 
L 9.078125 0 
L 9.078125 54.6875 
L 18.109375 54.6875 
L 18.109375 46.1875 
Q 21.1875 51.21875 25.484375 53.609375 
Q 29.78125 56 35.6875 56 
Q 41.65625 56 45.828125 52.96875 
Q 50 49.953125 52 44.1875 
z
" id="DejaVuSans-109"/>
      <path d="M 48.6875 27.296875 
Q 48.6875 37.203125 44.609375 42.84375 
Q 40.53125 48.484375 33.40625 48.484375 
Q 26.265625 48.484375 22.1875 42.84375 
Q 18.109375 37.203125 18.109375 27.296875 
Q 18.109375 17.390625 22.1875 11.75 
Q 26.265625 6.109375 33.40625 6.109375 
Q 40.53125 6.109375 44.609375 11.75 
Q 48.6875 17.390625 48.6875 27.296875 
z
M 18.109375 46.390625 
Q 20.953125 51.265625 25.265625 53.625 
Q 29.59375 56 35.59375 56 
Q 45.5625 56 51.78125 48.09375 
Q 58.015625 40.1875 58.015625 27.296875 
Q 58.015625 14.40625 51.78125 6.484375 
Q 45.5625 -1.421875 35.59375 -1.421875 
Q 29.59375 -1.421875 25.265625 0.953125 
Q 20.953125 3.328125 18.109375 8.203125 
L 18.109375 0 
L 9.078125 0 
L 9.078125 75.984375 
L 18.109375 75.984375 
z
" id="DejaVuSans-98"/>
      <path d="M 56.203125 29.59375 
L 56.203125 25.203125 
L 14.890625 25.203125 
Q 15.484375 15.921875 20.484375 11.0625 
Q 25.484375 6.203125 34.421875 6.203125 
Q 39.59375 6.203125 44.453125 7.46875 
Q 49.3125 8.734375 54.109375 11.28125 
L 54.109375 2.78125 
Q 49.265625 0.734375 44.1875 -0.34375 
Q 39.109375 -1.421875 33.890625 -1.421875 
Q 20.796875 -1.421875 13.15625 6.1875 
Q 5.515625 13.8125 5.515625 26.8125 
Q 5.515625 40.234375 12.765625 48.109375 
Q 20.015625 56 32.328125 56 
Q 43.359375 56 49.78125 48.890625 
Q 56.203125 41.796875 56.203125 29.59375 
z
M 47.21875 32.234375 
Q 47.125 39.59375 43.09375 43.984375 
Q 39.0625 48.390625 32.421875 48.390625 
Q 24.90625 48.390625 20.390625 44.140625 
Q 15.875 39.890625 15.1875 32.171875 
z
" id="DejaVuSans-101"/>
      <path d="M 41.109375 46.296875 
Q 39.59375 47.171875 37.8125 47.578125 
Q 36.03125 48 33.890625 48 
Q 26.265625 48 22.1875 43.046875 
Q 18.109375 38.09375 18.109375 28.8125 
L 18.109375 0 
L 9.078125 0 
L 9.078125 54.6875 
L 18.109375 54.6875 
L 18.109375 46.1875 
Q 20.953125 51.171875 25.484375 53.578125 
Q 30.03125 56 36.53125 56 
Q 37.453125 56 38.578125 55.875 
Q 39.703125 55.765625 41.0625 55.515625 
z
" id="DejaVuSans-114"/>
      <path id="DejaVuSans-32"/>
      <path d="M 30.609375 48.390625 
Q 23.390625 48.390625 19.1875 42.75 
Q 14.984375 37.109375 14.984375 27.296875 
Q 14.984375 17.484375 19.15625 11.84375 
Q 23.34375 6.203125 30.609375 6.203125 
Q 37.796875 6.203125 41.984375 11.859375 
Q 46.1875 17.53125 46.1875 27.296875 
Q 46.1875 37.015625 41.984375 42.703125 
Q 37.796875 48.390625 30.609375 48.390625 
z
M 30.609375 56 
Q 42.328125 56 49.015625 48.375 
Q 55.71875 40.765625 55.71875 27.296875 
Q 55.71875 13.875 49.015625 6.21875 
Q 42.328125 -1.421875 30.609375 -1.421875 
Q 18.84375 -1.421875 12.171875 6.21875 
Q 5.515625 13.875 5.515625 27.296875 
Q 5.515625 40.765625 12.171875 48.375 
Q 18.84375 56 30.609375 56 
z
" id="DejaVuSans-111"/>
      <path d="M 37.109375 75.984375 
L 37.109375 68.5 
L 28.515625 68.5 
Q 23.6875 68.5 21.796875 66.546875 
Q 19.921875 64.59375 19.921875 59.515625 
L 19.921875 54.6875 
L 34.71875 54.6875 
L 34.71875 47.703125 
L 19.921875 47.703125 
L 19.921875 0 
L 10.890625 0 
L 10.890625 47.703125 
L 2.296875 47.703125 
L 2.296875 54.6875 
L 10.890625 54.6875 
L 10.890625 58.5 
Q 10.890625 67.625 15.140625 71.796875 
Q 19.390625 75.984375 28.609375 75.984375 
z
" id="DejaVuSans-102"/>
      <path d="M 54.890625 33.015625 
L 54.890625 0 
L 45.90625 0 
L 45.90625 32.71875 
Q 45.90625 40.484375 42.875 44.328125 
Q 39.84375 48.1875 33.796875 48.1875 
Q 26.515625 48.1875 22.3125 43.546875 
Q 18.109375 38.921875 18.109375 30.90625 
L 18.109375 0 
L 9.078125 0 
L 9.078125 54.6875 
L 18.109375 54.6875 
L 18.109375 46.1875 
Q 21.34375 51.125 25.703125 53.5625 
Q 30.078125 56 35.796875 56 
Q 45.21875 56 50.046875 50.171875 
Q 54.890625 44.34375 54.890625 33.015625 
z
" id="DejaVuSans-110"/>
      <path d="M 44.28125 53.078125 
L 44.28125 44.578125 
Q 40.484375 46.53125 36.375 47.5 
Q 32.28125 48.484375 27.875 48.484375 
Q 21.1875 48.484375 17.84375 46.4375 
Q 14.5 44.390625 14.5 40.28125 
Q 14.5 37.15625 16.890625 35.375 
Q 19.28125 33.59375 26.515625 31.984375 
L 29.59375 31.296875 
Q 39.15625 29.25 43.1875 25.515625 
Q 47.21875 21.78125 47.21875 15.09375 
Q 47.21875 7.46875 41.1875 3.015625 
Q 35.15625 -1.421875 24.609375 -1.421875 
Q 20.21875 -1.421875 15.453125 -0.5625 
Q 10.6875 0.296875 5.421875 2 
L 5.421875 11.28125 
Q 10.40625 8.6875 15.234375 7.390625 
Q 20.0625 6.109375 24.8125 6.109375 
Q 31.15625 6.109375 34.5625 8.28125 
Q 37.984375 10.453125 37.984375 14.40625 
Q 37.984375 18.0625 35.515625 20.015625 
Q 33.0625 21.96875 24.703125 23.78125 
L 21.578125 24.515625 
Q 13.234375 26.265625 9.515625 29.90625 
Q 5.8125 33.546875 5.8125 39.890625 
Q 5.8125 47.609375 11.28125 51.796875 
Q 16.75 56 26.8125 56 
Q 31.78125 56 36.171875 55.265625 
Q 40.578125 54.546875 44.28125 53.078125 
z
" id="DejaVuSans-115"/>
      <path d="M 18.109375 8.203125 
L 18.109375 -20.796875 
L 9.078125 -20.796875 
L 9.078125 54.6875 
L 18.109375 54.6875 
L 18.109375 46.390625 
Q 20.953125 51.265625 25.265625 53.625 
Q 29.59375 56 35.59375 56 
Q 45.5625 56 51.78125 48.09375 
Q 58.015625 40.1875 58.015625 27.296875 
Q 58.015625 14.40625 51.78125 6.484375 
Q 45.5625 -1.421875 35.59375 -1.421875 
Q 29.59375 -1.421875 25.265625 0.953125 
Q 20.953125 3.328125 18.109375 8.203125 
z
M 48.6875 27.296875 
Q 48.6875 37.203125 44.609375 42.84375 
Q 40.53125 48.484375 33.40625 48.484375 
Q 26.265625 48.484375 22.1875 42.84375 
Q 18.109375 37.203125 18.109375 27.296875 
Q 18.109375 17.390625 22.1875 11.75 
Q 26.265625 6.109375 33.40625 6.109375 
Q 40.53125 6.109375 44.609375 11.75 
Q 48.6875 17.390625 48.6875 27.296875 
z
" id="DejaVuSans-112"/>
      <path d="M 45.40625 46.390625 
L 45.40625 75.984375 
L 54.390625 75.984375 
L 54.390625 0 
L 45.40625 0 
L 45.40625 8.203125 
Q 42.578125 3.328125 38.25 0.953125 
Q 33.9375 -1.421875 27.875 -1.421875 
Q 17.96875 -1.421875 11.734375 6.484375 
Q 5.515625 14.40625 5.515625 27.296875 
Q 5.515625 40.1875 11.734375 48.09375 
Q 17.96875 56 27.875 56 
Q 33.9375 56 38.25 53.625 
Q 42.578125 51.265625 45.40625 46.390625 
z
M 14.796875 27.296875 
Q 14.796875 17.390625 18.875 11.75 
Q 22.953125 6.109375 30.078125 6.109375 
Q 37.203125 6.109375 41.296875 11.75 
Q 45.40625 17.390625 45.40625 27.296875 
Q 45.40625 37.203125 41.296875 42.84375 
Q 37.203125 48.484375 30.078125 48.484375 
Q 22.953125 48.484375 18.875 42.84375 
Q 14.796875 37.203125 14.796875 27.296875 
z
" id="DejaVuSans-100"/>
     </defs>
     <g transform="translate(522.147656 532.276562)scale(0.1 -0.1)">
      <use xlink:href="#DejaVuSans-78"/>
      <use x="74.804688" xlink:href="#DejaVuSans-117"/>
      <use x="138.183594" xlink:href="#DejaVuSans-109"/>
      <use x="235.595703" xlink:href="#DejaVuSans-98"/>
      <use x="299.072266" xlink:href="#DejaVuSans-101"/>
      <use x="360.595703" xlink:href="#DejaVuSans-114"/>
      <use x="401.708984" xlink:href="#DejaVuSans-32"/>
      <use x="433.496094" xlink:href="#DejaVuSans-111"/>
      <use x="494.677734" xlink:href="#DejaVuSans-102"/>
      <use x="529.882812" xlink:href="#DejaVuSans-32"/>
      <use x="561.669922" xlink:href="#DejaVuSans-78"/>
      <use x="636.474609" xlink:href="#DejaVuSans-101"/>
      <use x="697.998047" xlink:href="#DejaVuSans-117"/>
      <use x="761.376953" xlink:href="#DejaVuSans-114"/>
      <use x="800.240234" xlink:href="#DejaVuSans-111"/>
      <use x="861.421875" xlink:href="#DejaVuSans-110"/>
      <use x="924.800781" xlink:href="#DejaVuSans-115"/>
      <use x="976.900391" xlink:href="#DejaVuSans-32"/>
      <use x="1008.6875" xlink:href="#DejaVuSans-112"/>
      <use x="1072.164062" xlink:href="#DejaVuSans-114"/>
      <use x="1113.277344" xlink:href="#DejaVuSans-117"/>
      <use x="1176.65625" xlink:href="#DejaVuSans-110"/>
      <use x="1240.035156" xlink:href="#DejaVuSans-101"/>
      <use x="1301.558594" xlink:href="#DejaVuSans-100"/>
     </g>
    </g>
   </g>
   <g id="matplotlib.axis_2">
    <g id="ytick_1">
     <g id="line2d_10">
      <defs>
       <path d="M 0 0 
L -3.5 0 
" id="m1d2b6f04d4" style="stroke:#000000;stroke-width:0.8;"/>
      </defs>
      <g>
       <use style="stroke:#000000;stroke-width:0.8;" x="144" xlink:href="#m1d2b6f04d4" y="484.232727"/>
      </g>
     </g>
     <g id="text_11">
      <!-- 0 -->
      <g transform="translate(130.6375 488.031946)scale(0.1 -0.1)">
       <use xlink:href="#DejaVuSans-48"/>
      </g>
     </g>
    </g>
    <g id="ytick_2">
     <g id="line2d_11">
      <g>
       <use style="stroke:#000000;stroke-width:0.8;" x="144" xlink:href="#m1d2b6f04d4" y="427.637266"/>
      </g>
     </g>
     <g id="text_12">
      <!-- 10 -->
      <g transform="translate(124.275 431.436485)scale(0.1 -0.1)">
       <use xlink:href="#DejaVuSans-49"/>
       <use x="63.623047" xlink:href="#DejaVuSans-48"/>
      </g>
     </g>
    </g>
    <g id="ytick_3">
     <g id="line2d_12">
      <g>
       <use style="stroke:#000000;stroke-width:0.8;" x="144" xlink:href="#m1d2b6f04d4" y="371.041805"/>
      </g>
     </g>
     <g id="text_13">
      <!-- 20 -->
      <g transform="translate(124.275 374.841024)scale(0.1 -0.1)">
       <use xlink:href="#DejaVuSans-50"/>
       <use x="63.623047" xlink:href="#DejaVuSans-48"/>
      </g>
     </g>
    </g>
    <g id="ytick_4">
     <g id="line2d_13">
      <g>
       <use style="stroke:#000000;stroke-width:0.8;" x="144" xlink:href="#m1d2b6f04d4" y="314.446344"/>
      </g>
     </g>
     <g id="text_14">
      <!-- 30 -->
      <g transform="translate(124.275 318.245562)scale(0.1 -0.1)">
       <use xlink:href="#DejaVuSans-51"/>
       <use x="63.623047" xlink:href="#DejaVuSans-48"/>
      </g>
     </g>
    </g>
    <g id="ytick_5">
     <g id="line2d_14">
      <g>
       <use style="stroke:#000000;stroke-width:0.8;" x="144" xlink:href="#m1d2b6f04d4" y="257.850882"/>
      </g>
     </g>
     <g id="text_15">
      <!-- 40 -->
      <g transform="translate(124.275 261.650101)scale(0.1 -0.1)">
       <use xlink:href="#DejaVuSans-52"/>
       <use x="63.623047" xlink:href="#DejaVuSans-48"/>
      </g>
     </g>
    </g>
    <g id="ytick_6">
     <g id="line2d_15">
      <g>
       <use style="stroke:#000000;stroke-width:0.8;" x="144" xlink:href="#m1d2b6f04d4" y="201.255421"/>
      </g>
     </g>
     <g id="text_16">
      <!-- 50 -->
      <g transform="translate(124.275 205.05464)scale(0.1 -0.1)">
       <use xlink:href="#DejaVuSans-53"/>
       <use x="63.623047" xlink:href="#DejaVuSans-48"/>
      </g>
     </g>
    </g>
    <g id="ytick_7">
     <g id="line2d_16">
      <g>
       <use style="stroke:#000000;stroke-width:0.8;" x="144" xlink:href="#m1d2b6f04d4" y="144.65996"/>
      </g>
     </g>
     <g id="text_17">
      <!-- 60 -->
      <defs>
       <path d="M 33.015625 40.375 
Q 26.375 40.375 22.484375 35.828125 
Q 18.609375 31.296875 18.609375 23.390625 
Q 18.609375 15.53125 22.484375 10.953125 
Q 26.375 6.390625 33.015625 6.390625 
Q 39.65625 6.390625 43.53125 10.953125 
Q 47.40625 15.53125 47.40625 23.390625 
Q 47.40625 31.296875 43.53125 35.828125 
Q 39.65625 40.375 33.015625 40.375 
z
M 52.59375 71.296875 
L 52.59375 62.3125 
Q 48.875 64.0625 45.09375 64.984375 
Q 41.3125 65.921875 37.59375 65.921875 
Q 27.828125 65.921875 22.671875 59.328125 
Q 17.53125 52.734375 16.796875 39.40625 
Q 19.671875 43.65625 24.015625 45.921875 
Q 28.375 48.1875 33.59375 48.1875 
Q 44.578125 48.1875 50.953125 41.515625 
Q 57.328125 34.859375 57.328125 23.390625 
Q 57.328125 12.15625 50.6875 5.359375 
Q 44.046875 -1.421875 33.015625 -1.421875 
Q 20.359375 -1.421875 13.671875 8.265625 
Q 6.984375 17.96875 6.984375 36.375 
Q 6.984375 53.65625 15.1875 63.9375 
Q 23.390625 74.21875 37.203125 74.21875 
Q 40.921875 74.21875 44.703125 73.484375 
Q 48.484375 72.75 52.59375 71.296875 
z
" id="DejaVuSans-54"/>
      </defs>
      <g transform="translate(124.275 148.459179)scale(0.1 -0.1)">
       <use xlink:href="#DejaVuSans-54"/>
       <use x="63.623047" xlink:href="#DejaVuSans-48"/>
      </g>
     </g>
    </g>
    <g id="ytick_8">
     <g id="line2d_17">
      <g>
       <use style="stroke:#000000;stroke-width:0.8;" x="144" xlink:href="#m1d2b6f04d4" y="88.064499"/>
      </g>
     </g>
     <g id="text_18">
      <!-- 70 -->
      <defs>
       <path d="M 8.203125 72.90625 
L 55.078125 72.90625 
L 55.078125 68.703125 
L 28.609375 0 
L 18.3125 0 
L 43.21875 64.59375 
L 8.203125 64.59375 
z
" id="DejaVuSans-55"/>
      </defs>
      <g transform="translate(124.275 91.863717)scale(0.1 -0.1)">
       <use xlink:href="#DejaVuSans-55"/>
       <use x="63.623047" xlink:href="#DejaVuSans-48"/>
      </g>
     </g>
    </g>
    <g id="text_19">
     <!-- Squared Deviation -->
     <defs>
      <path d="M 53.515625 70.515625 
L 53.515625 60.890625 
Q 47.90625 63.578125 42.921875 64.890625 
Q 37.9375 66.21875 33.296875 66.21875 
Q 25.25 66.21875 20.875 63.09375 
Q 16.5 59.96875 16.5 54.203125 
Q 16.5 49.359375 19.40625 46.890625 
Q 22.3125 44.4375 30.421875 42.921875 
L 36.375 41.703125 
Q 47.40625 39.59375 52.65625 34.296875 
Q 57.90625 29 57.90625 20.125 
Q 57.90625 9.515625 50.796875 4.046875 
Q 43.703125 -1.421875 29.984375 -1.421875 
Q 24.8125 -1.421875 18.96875 -0.25 
Q 13.140625 0.921875 6.890625 3.21875 
L 6.890625 13.375 
Q 12.890625 10.015625 18.65625 8.296875 
Q 24.421875 6.59375 29.984375 6.59375 
Q 38.421875 6.59375 43.015625 9.90625 
Q 47.609375 13.234375 47.609375 19.390625 
Q 47.609375 24.75 44.3125 27.78125 
Q 41.015625 30.8125 33.5 32.328125 
L 27.484375 33.5 
Q 16.453125 35.6875 11.515625 40.375 
Q 6.59375 45.0625 6.59375 53.421875 
Q 6.59375 63.09375 13.40625 68.65625 
Q 20.21875 74.21875 32.171875 74.21875 
Q 37.3125 74.21875 42.625 73.28125 
Q 47.953125 72.359375 53.515625 70.515625 
z
" id="DejaVuSans-83"/>
      <path d="M 14.796875 27.296875 
Q 14.796875 17.390625 18.875 11.75 
Q 22.953125 6.109375 30.078125 6.109375 
Q 37.203125 6.109375 41.296875 11.75 
Q 45.40625 17.390625 45.40625 27.296875 
Q 45.40625 37.203125 41.296875 42.84375 
Q 37.203125 48.484375 30.078125 48.484375 
Q 22.953125 48.484375 18.875 42.84375 
Q 14.796875 37.203125 14.796875 27.296875 
z
M 45.40625 8.203125 
Q 42.578125 3.328125 38.25 0.953125 
Q 33.9375 -1.421875 27.875 -1.421875 
Q 17.96875 -1.421875 11.734375 6.484375 
Q 5.515625 14.40625 5.515625 27.296875 
Q 5.515625 40.1875 11.734375 48.09375 
Q 17.96875 56 27.875 56 
Q 33.9375 56 38.25 53.625 
Q 42.578125 51.265625 45.40625 46.390625 
L 45.40625 54.6875 
L 54.390625 54.6875 
L 54.390625 -20.796875 
L 45.40625 -20.796875 
z
" id="DejaVuSans-113"/>
      <path d="M 34.28125 27.484375 
Q 23.390625 27.484375 19.1875 25 
Q 14.984375 22.515625 14.984375 16.5 
Q 14.984375 11.71875 18.140625 8.90625 
Q 21.296875 6.109375 26.703125 6.109375 
Q 34.1875 6.109375 38.703125 11.40625 
Q 43.21875 16.703125 43.21875 25.484375 
L 43.21875 27.484375 
z
M 52.203125 31.203125 
L 52.203125 0 
L 43.21875 0 
L 43.21875 8.296875 
Q 40.140625 3.328125 35.546875 0.953125 
Q 30.953125 -1.421875 24.3125 -1.421875 
Q 15.921875 -1.421875 10.953125 3.296875 
Q 6 8.015625 6 15.921875 
Q 6 25.140625 12.171875 29.828125 
Q 18.359375 34.515625 30.609375 34.515625 
L 43.21875 34.515625 
L 43.21875 35.40625 
Q 43.21875 41.609375 39.140625 45 
Q 35.0625 48.390625 27.6875 48.390625 
Q 23 48.390625 18.546875 47.265625 
Q 14.109375 46.140625 10.015625 43.890625 
L 10.015625 52.203125 
Q 14.9375 54.109375 19.578125 55.046875 
Q 24.21875 56 28.609375 56 
Q 40.484375 56 46.34375 49.84375 
Q 52.203125 43.703125 52.203125 31.203125 
z
" id="DejaVuSans-97"/>
      <path d="M 19.671875 64.796875 
L 19.671875 8.109375 
L 31.59375 8.109375 
Q 46.6875 8.109375 53.6875 14.9375 
Q 60.6875 21.78125 60.6875 36.53125 
Q 60.6875 51.171875 53.6875 57.984375 
Q 46.6875 64.796875 31.59375 64.796875 
z
M 9.8125 72.90625 
L 30.078125 72.90625 
Q 51.265625 72.90625 61.171875 64.09375 
Q 71.09375 55.28125 71.09375 36.53125 
Q 71.09375 17.671875 61.125 8.828125 
Q 51.171875 0 30.078125 0 
L 9.8125 0 
z
" id="DejaVuSans-68"/>
      <path d="M 2.984375 54.6875 
L 12.5 54.6875 
L 29.59375 8.796875 
L 46.6875 54.6875 
L 56.203125 54.6875 
L 35.6875 0 
L 23.484375 0 
z
" id="DejaVuSans-118"/>
      <path d="M 9.421875 54.6875 
L 18.40625 54.6875 
L 18.40625 0 
L 9.421875 0 
z
M 9.421875 75.984375 
L 18.40625 75.984375 
L 18.40625 64.59375 
L 9.421875 64.59375 
z
" id="DejaVuSans-105"/>
      <path d="M 18.3125 70.21875 
L 18.3125 54.6875 
L 36.8125 54.6875 
L 36.8125 47.703125 
L 18.3125 47.703125 
L 18.3125 18.015625 
Q 18.3125 11.328125 20.140625 9.421875 
Q 21.96875 7.515625 27.59375 7.515625 
L 36.8125 7.515625 
L 36.8125 0 
L 27.59375 0 
Q 17.1875 0 13.234375 3.875 
Q 9.28125 7.765625 9.28125 18.015625 
L 9.28125 47.703125 
L 2.6875 47.703125 
L 2.6875 54.6875 
L 9.28125 54.6875 
L 9.28125 70.21875 
z
" id="DejaVuSans-116"/>
     </defs>
     <g transform="translate(118.195312 332.840469)rotate(-90)scale(0.1 -0.1)">
      <use xlink:href="#DejaVuSans-83"/>
      <use x="63.476562" xlink:href="#DejaVuSans-113"/>
      <use x="126.953125" xlink:href="#DejaVuSans-117"/>
      <use x="190.332031" xlink:href="#DejaVuSans-97"/>
      <use x="251.611328" xlink:href="#DejaVuSans-114"/>
      <use x="290.474609" xlink:href="#DejaVuSans-101"/>
      <use x="351.998047" xlink:href="#DejaVuSans-100"/>
      <use x="415.474609" xlink:href="#DejaVuSans-32"/>
      <use x="447.261719" xlink:href="#DejaVuSans-68"/>
      <use x="524.263672" xlink:href="#DejaVuSans-101"/>
      <use x="585.787109" xlink:href="#DejaVuSans-118"/>
      <use x="644.966797" xlink:href="#DejaVuSans-105"/>
      <use x="672.75" xlink:href="#DejaVuSans-97"/>
      <use x="734.029297" xlink:href="#DejaVuSans-116"/>
      <use x="773.238281" xlink:href="#DejaVuSans-105"/>
      <use x="801.021484" xlink:href="#DejaVuSans-111"/>
      <use x="862.203125" xlink:href="#DejaVuSans-110"/>
     </g>
    </g>
   </g>
   <g id="line2d_18">
    <path clip-path="url(#p62eaad3d3b)" d="M 184.581818 484.232727 
L 298.495694 484.127066 
L 300.52987 483.939511 
L 302.564046 483.620099 
L 304.598223 482.905922 
L 306.632399 482.350174 
L 308.666576 481.210561 
L 310.700752 480.842667 
L 312.734928 479.439063 
L 314.769105 479.307321 
L 316.803281 468.397825 
L 318.837457 468.572647 
L 320.871634 467.821815 
L 322.90581 466.407052 
L 324.939986 465.825297 
L 326.974163 461.939473 
L 329.008339 460.506853 
L 331.042515 459.675232 
L 333.076692 456.238593 
L 337.145044 456.837808 
L 339.179221 456.545878 
L 341.213397 454.94862 
L 343.247573 458.095761 
L 345.28175 455.200615 
L 347.315926 454.39002 
L 349.350103 454.378149 
L 351.384279 452.934521 
L 353.418455 451.663258 
L 355.452632 448.984801 
L 357.486808 449.638232 
L 359.520984 447.375212 
L 361.555161 441.623636 
L 363.589337 440.108803 
L 365.623513 440.081034 
L 367.65769 439.822973 
L 369.691866 438.105275 
L 371.726042 437.5807 
L 373.760219 432.819734 
L 375.794395 432.055974 
L 377.828571 430.626461 
L 379.862748 429.805419 
L 381.896924 429.475635 
L 383.9311 424.639845 
L 385.965277 423.188786 
L 387.999453 416.767742 
L 390.03363 416.211635 
L 392.067806 415.129507 
L 394.101982 410.708354 
L 396.136159 402.722868 
L 398.170335 402.855805 
L 400.204511 398.186497 
L 402.238688 392.882129 
L 404.272864 385.494056 
L 406.30704 384.168075 
L 408.341217 381.105492 
L 410.375393 376.097407 
L 412.409569 374.383237 
L 414.443746 369.586805 
L 416.477922 365.689973 
L 418.512098 353.76507 
L 420.546275 355.897158 
L 422.580451 356.703406 
L 424.614627 355.242534 
L 426.648804 354.274311 
L 430.717157 353.115087 
L 432.751333 354.246439 
L 434.785509 353.035606 
L 436.819686 350.118557 
L 438.853862 344.36527 
L 440.888038 343.041523 
L 442.922215 342.486048 
L 444.956391 339.289351 
L 446.990567 332.662371 
L 449.024744 332.924143 
L 451.05892 331.317089 
L 453.093096 325.344215 
L 457.161449 324.31538 
L 459.195625 324.687636 
L 461.229802 323.987663 
L 463.263978 320.20776 
L 465.298154 322.525776 
L 467.332331 316.524566 
L 469.366507 314.779879 
L 471.400684 314.656161 
L 473.43486 315.115174 
L 475.469036 313.334303 
L 477.503213 309.302235 
L 479.537389 310.125775 
L 481.571565 305.765807 
L 483.605742 305.32251 
L 485.639918 305.232979 
L 487.674094 304.499196 
L 489.708271 296.75426 
L 491.742447 297.391905 
L 493.776623 297.215605 
L 495.8108 297.415308 
L 497.844976 296.026501 
L 499.879152 294.29684 
L 501.913329 292.307869 
L 503.947505 293.376655 
L 505.981681 287.78043 
L 508.015858 284.226569 
L 510.050034 280.360005 
L 512.084211 279.154687 
L 514.118387 279.978303 
L 516.152563 280.197005 
L 518.18674 278.85237 
L 522.255092 276.508662 
L 524.289269 275.836237 
L 526.323445 274.114219 
L 528.357621 268.808049 
L 530.391798 266.204339 
L 532.425974 267.217554 
L 534.46015 267.399315 
L 536.494327 266.414297 
L 538.528503 262.053442 
L 540.562679 261.526725 
L 542.596856 257.876531 
L 544.631032 257.97595 
L 546.665208 252.54128 
L 548.699385 250.293364 
L 550.733561 242.832826 
L 552.767738 241.057676 
L 554.801914 233.893064 
L 556.83609 230.379035 
L 558.870267 230.834767 
L 560.904443 228.68491 
L 562.938619 226.902744 
L 564.972796 225.853777 
L 567.006972 224.018565 
L 569.041148 220.678785 
L 571.075325 219.014626 
L 573.109501 217.627288 
L 575.143677 215.501525 
L 577.177854 212.978301 
L 579.21203 213.321228 
L 581.246206 211.781166 
L 583.280383 211.591934 
L 585.314559 210.644222 
L 587.348735 210.324547 
L 589.382912 208.571116 
L 591.417088 209.516475 
L 593.451265 205.760082 
L 595.485441 204.854556 
L 597.519617 205.279544 
L 599.553794 202.957231 
L 601.58797 203.084825 
L 603.622146 200.944447 
L 605.656323 201.086699 
L 607.690499 197.012014 
L 611.758852 186.694111 
L 613.793028 186.015619 
L 615.827204 182.243833 
L 617.861381 182.085755 
L 619.895557 180.819555 
L 621.929733 176.967284 
L 623.96391 174.749464 
L 625.998086 175.164154 
L 628.032262 174.986905 
L 630.066439 175.514249 
L 632.100615 174.425817 
L 634.134792 169.465553 
L 636.168968 170.148881 
L 638.203144 170.676376 
L 640.237321 171.579355 
L 642.271497 172.338375 
L 644.305673 173.242283 
L 646.33985 173.226933 
L 648.374026 172.490365 
L 650.408202 168.466155 
L 652.442379 169.130333 
L 654.476555 163.439655 
L 656.510731 160.66975 
L 658.544908 161.844238 
L 660.579084 162.304093 
L 662.61326 161.699049 
L 664.647437 160.585249 
L 668.715789 163.18423 
L 670.749966 162.220844 
L 672.784142 157.896887 
L 674.818319 158.479025 
L 676.852495 157.685396 
L 680.920848 160.406294 
L 682.955024 156.524639 
L 684.9892 154.815942 
L 687.023377 153.543524 
L 689.057553 153.241034 
L 691.091729 153.887444 
L 693.125906 155.210489 
L 697.194258 149.14858 
L 699.228435 150.651012 
L 701.262611 151.734544 
L 703.296787 150.53797 
L 705.330964 154.813632 
L 707.36514 154.969616 
L 709.399316 150.723596 
L 711.433493 150.116889 
L 713.467669 145.520429 
L 715.501846 143.414399 
L 717.536022 139.023277 
L 719.570198 137.507114 
L 721.604375 135.667477 
L 723.638551 130.938587 
L 725.672727 127.845444 
L 727.706904 127.381444 
L 729.74108 129.181594 
L 731.775256 126.10039 
L 733.809433 120.67632 
L 735.843609 120.67632 
L 737.877785 120.390131 
L 739.911962 117.755138 
L 741.946138 116.404329 
L 743.980314 117.395285 
L 746.014491 112.129401 
L 748.048667 114.184717 
L 750.082843 113.697011 
L 752.11702 111.87784 
L 754.151196 111.467338 
L 756.185373 112.54625 
L 758.219549 111.467295 
L 760.253725 109.927622 
L 762.287902 110.201765 
L 764.322078 109.725069 
L 766.356254 109.709525 
L 768.390431 111.505897 
L 770.424607 111.518808 
L 772.458783 110.972854 
L 774.49296 111.255675 
L 776.527136 110.292483 
L 778.561312 108.219291 
L 780.595489 108.515024 
L 782.629665 106.990247 
L 786.698018 107.185631 
L 788.732194 109.00899 
L 790.76637 107.700022 
L 792.800547 106.752763 
L 796.8689 108.126672 
L 798.903076 107.78612 
L 800.937252 103.141063 
L 802.971429 100.673259 
L 805.005605 97.953074 
L 807.039781 95.994651 
L 809.073958 97.718655 
L 811.108134 97.711444 
L 813.14231 97.897545 
L 817.210663 94.405926 
L 819.244839 95.172611 
L 821.279016 93.609189 
L 823.313192 94.09819 
L 825.347368 93.836396 
L 827.381545 94.331529 
L 829.415721 96.10303 
L 831.449897 94.267063 
L 833.484074 94.168874 
L 835.51825 92.714176 
L 837.552427 93.801378 
L 839.586603 97.179178 
L 841.620779 94.208771 
L 845.689132 92.180787 
L 847.723308 91.880694 
L 849.757485 92.485717 
L 851.791661 90.685977 
L 853.825837 89.284303 
L 857.89419 88.887273 
L 859.928366 90.040884 
L 861.962543 90.049563 
L 863.996719 90.802905 
L 866.030895 91.14255 
L 870.099248 91.420838 
L 872.133424 90.436143 
L 874.167601 90.438691 
L 876.201777 91.005069 
L 878.235954 91.892093 
L 880.27013 91.783066 
L 884.338483 93.812993 
L 886.372659 94.097024 
L 888.406835 94.199919 
L 890.441012 94.828648 
L 894.509364 94.869624 
L 896.543541 94.070642 
L 898.577717 94.785728 
L 900.611893 94.987416 
L 902.64607 95.603925 
L 904.680246 94.108207 
L 906.714422 94.613876 
L 908.748599 95.426719 
L 910.782775 94.389648 
L 912.816951 94.407999 
L 914.851128 93.567737 
L 916.885304 92.981238 
L 918.919481 93.519334 
L 920.953657 95.652674 
L 922.987833 94.928175 
L 925.02201 94.918589 
L 927.056186 94.054104 
L 929.090362 94.489132 
L 931.124539 93.414279 
L 935.192891 93.622574 
L 939.261244 93.788684 
L 941.29542 92.551521 
L 943.329597 92.715817 
L 945.363773 92.129707 
L 947.397949 91.731899 
L 949.432126 91.941447 
L 951.466302 91.804483 
L 955.534655 91.860702 
L 957.568831 92.309849 
L 959.603008 92.611842 
L 961.637184 93.260044 
L 965.705537 93.738596 
L 967.739713 93.50448 
L 969.773889 93.504005 
L 971.808066 93.211511 
L 973.842242 93.138021 
L 975.876418 93.929447 
L 977.910595 93.445541 
L 979.944771 93.464064 
L 981.978947 92.871132 
L 984.013124 92.997603 
L 988.081476 92.676049 
L 990.115653 92.721215 
L 992.149829 92.517151 
L 994.184005 92.432304 
L 996.218182 92.106865 
L 996.218182 92.106865 
" style="fill:none;stroke:#1f77b4;stroke-linecap:square;stroke-width:1.5;"/>
   </g>
   <g id="line2d_19">
    <path clip-path="url(#p62eaad3d3b)" d="M 184.581818 484.232727 
L 298.495694 484.194562 
L 310.700752 483.371324 
L 312.734928 483.356418 
L 314.769105 483.132934 
L 320.871634 482.825134 
L 324.939986 482.510051 
L 326.974163 482.244464 
L 329.008339 481.67805 
L 331.042515 481.452543 
L 333.076692 480.25251 
L 335.110868 479.803231 
L 337.145044 479.815187 
L 339.179221 479.033837 
L 341.213397 479.10045 
L 343.247573 478.983385 
L 345.28175 478.358812 
L 347.315926 478.251475 
L 349.350103 477.194951 
L 353.418455 474.614313 
L 355.452632 474.775203 
L 357.486808 474.460992 
L 363.589337 472.203905 
L 365.623513 472.234693 
L 367.65769 471.500559 
L 369.691866 470.907703 
L 371.726042 470.777698 
L 377.828571 467.75183 
L 379.862748 466.729257 
L 381.896924 465.964095 
L 383.9311 464.336157 
L 385.965277 462.868926 
L 387.999453 462.927474 
L 390.03363 460.52336 
L 392.067806 460.464011 
L 394.101982 457.689493 
L 398.170335 457.62381 
L 400.204511 457.16043 
L 402.238688 455.670089 
L 404.272864 453.951468 
L 408.341217 453.034645 
L 410.375393 452.395532 
L 412.409569 451.140419 
L 414.443746 450.036094 
L 418.512098 449.934877 
L 420.546275 450.085045 
L 422.580451 449.033968 
L 424.614627 446.928292 
L 426.648804 446.990099 
L 428.68298 445.521032 
L 430.717157 445.155414 
L 432.751333 444.581612 
L 434.785509 441.249007 
L 436.819686 441.52067 
L 438.853862 442.508752 
L 440.888038 441.51503 
L 442.922215 439.84222 
L 444.956391 437.515327 
L 446.990567 437.768231 
L 449.024744 434.544505 
L 451.05892 433.018789 
L 453.093096 432.832536 
L 455.127273 432.26068 
L 457.161449 430.880979 
L 459.195625 428.778544 
L 461.229802 425.746807 
L 463.263978 424.864219 
L 465.298154 421.340896 
L 467.332331 418.273876 
L 469.366507 416.926716 
L 471.400684 415.087451 
L 473.43486 415.059876 
L 475.469036 412.922541 
L 477.503213 412.806276 
L 479.537389 411.109297 
L 481.571565 410.942464 
L 483.605742 409.681867 
L 485.639918 409.19096 
L 487.674094 408.129839 
L 489.708271 405.709461 
L 491.742447 403.988814 
L 493.776623 401.311813 
L 497.844976 396.878095 
L 499.879152 394.310914 
L 501.913329 394.018825 
L 503.947505 395.883949 
L 505.981681 394.77179 
L 508.015858 393.360465 
L 510.050034 392.786726 
L 512.084211 389.848703 
L 514.118387 387.705939 
L 516.152563 384.430937 
L 518.18674 385.262768 
L 520.220916 382.325253 
L 522.255092 381.694981 
L 524.289269 379.445058 
L 528.357621 379.077508 
L 530.391798 375.968141 
L 532.425974 369.742519 
L 534.46015 366.356364 
L 538.528503 366.698622 
L 540.562679 366.693386 
L 542.596856 365.901107 
L 544.631032 364.32322 
L 546.665208 358.932247 
L 548.699385 359.208689 
L 550.733561 359.018162 
L 552.767738 357.945998 
L 554.801914 355.182774 
L 556.83609 352.780699 
L 558.870267 351.10703 
L 560.904443 349.144873 
L 562.938619 345.785435 
L 564.972796 345.46482 
L 567.006972 345.323032 
L 569.041148 344.189369 
L 571.075325 344.574871 
L 573.109501 344.153887 
L 575.143677 341.573289 
L 577.177854 335.064942 
L 579.21203 329.2453 
L 581.246206 329.918221 
L 583.280383 324.483098 
L 585.314559 322.841749 
L 587.348735 322.652172 
L 589.382912 318.109847 
L 591.417088 312.339148 
L 593.451265 308.308775 
L 595.485441 306.099007 
L 597.519617 305.396066 
L 601.58797 301.711955 
L 603.622146 300.416479 
L 605.656323 295.492529 
L 607.690499 294.161323 
L 609.724675 292.002702 
L 613.793028 290.089358 
L 615.827204 287.934968 
L 617.861381 284.269791 
L 619.895557 276.533641 
L 621.929733 277.368657 
L 623.96391 271.409686 
L 625.998086 271.06052 
L 628.032262 271.731499 
L 630.066439 270.505002 
L 632.100615 265.55726 
L 634.134792 265.565485 
L 636.168968 266.61687 
L 638.203144 264.964608 
L 640.237321 263.795604 
L 642.271497 256.769078 
L 644.305673 256.242619 
L 646.33985 255.364425 
L 648.374026 253.536359 
L 650.408202 252.728352 
L 652.442379 252.219813 
L 654.476555 253.31306 
L 656.510731 256.110362 
L 658.544908 255.706099 
L 660.579084 257.329734 
L 662.61326 257.222284 
L 664.647437 256.214358 
L 666.681613 256.608452 
L 668.715789 254.07521 
L 670.749966 249.294204 
L 672.784142 251.043036 
L 674.818319 247.582355 
L 676.852495 248.159592 
L 678.886671 247.165656 
L 680.920848 240.820149 
L 682.955024 242.334627 
L 684.9892 241.057848 
L 687.023377 237.158188 
L 689.057553 236.196184 
L 691.091729 235.981045 
L 693.125906 233.109734 
L 695.160082 230.630919 
L 697.194258 229.192306 
L 699.228435 225.964337 
L 701.262611 218.057479 
L 703.296787 217.332095 
L 705.330964 212.050818 
L 707.36514 210.831078 
L 709.399316 202.76746 
L 711.433493 203.546537 
L 713.467669 202.511129 
L 715.501846 197.421091 
L 717.536022 196.976736 
L 719.570198 196.056141 
L 721.604375 196.206468 
L 723.638551 195.279352 
L 725.672727 193.828886 
L 727.706904 193.340489 
L 731.775256 189.617042 
L 733.809433 186.371802 
L 735.843609 187.35382 
L 737.877785 187.944291 
L 739.911962 186.198806 
L 741.946138 183.884999 
L 743.980314 183.283905 
L 746.014491 178.644634 
L 750.082843 171.225331 
L 752.11702 172.043507 
L 754.151196 169.879855 
L 756.185373 172.026688 
L 758.219549 170.136359 
L 760.253725 169.478463 
L 762.287902 163.893012 
L 764.322078 159.408731 
L 766.356254 160.758698 
L 768.390431 159.230726 
L 770.424607 159.924503 
L 772.458783 160.997154 
L 774.49296 156.75882 
L 776.527136 157.557565 
L 778.561312 156.846581 
L 780.595489 155.786668 
L 782.629665 154.120222 
L 784.663841 151.613513 
L 786.698018 151.029734 
L 788.732194 149.907795 
L 790.76637 149.508045 
L 792.800547 148.499925 
L 794.834723 146.977955 
L 796.8689 146.511083 
L 800.937252 144.943991 
L 805.005605 144.446937 
L 807.039781 143.26187 
L 809.073958 143.350343 
L 811.108134 140.748793 
L 813.14231 140.216569 
L 815.176487 140.705981 
L 817.210663 139.246728 
L 819.244839 137.57225 
L 821.279016 138.101299 
L 823.313192 137.357607 
L 825.347368 136.984628 
L 827.381545 135.719076 
L 829.415721 134.644007 
L 831.449897 134.865709 
L 833.484074 134.857548 
L 835.51825 135.044384 
L 837.552427 135.088944 
L 839.586603 134.445017 
L 841.620779 133.026957 
L 843.654956 132.981943 
L 845.689132 134.292574 
L 847.723308 133.910678 
L 849.757485 133.674641 
L 851.791661 134.042201 
L 853.825837 130.474867 
L 855.860014 130.523465 
L 857.89419 128.74471 
L 859.928366 131.246151 
L 866.030895 130.710883 
L 870.099248 128.674091 
L 872.133424 128.69011 
L 874.167601 128.484147 
L 876.201777 130.162382 
L 878.235954 129.681369 
L 880.27013 129.890462 
L 882.304306 128.201822 
L 884.338483 127.546538 
L 886.372659 127.118916 
L 890.441012 126.601093 
L 892.475188 124.955869 
L 894.509364 123.054377 
L 896.543541 123.042374 
L 898.577717 121.515503 
L 902.64607 118.914535 
L 904.680246 118.819066 
L 906.714422 118.51595 
L 908.748599 118.504464 
L 910.782775 118.313096 
L 912.816951 117.804448 
L 916.885304 117.373782 
L 918.919481 116.564738 
L 920.953657 116.764139 
L 922.987833 116.4925 
L 925.02201 116.359984 
L 927.056186 115.779616 
L 931.124539 115.083184 
L 933.158715 113.938165 
L 935.192891 113.021261 
L 937.227068 110.755966 
L 939.261244 111.547522 
L 941.29542 111.441949 
L 943.329597 110.864906 
L 945.363773 111.650849 
L 947.397949 111.574768 
L 949.432126 111.266859 
L 951.466302 111.332836 
L 953.500478 110.903163 
L 955.534655 110.180218 
L 957.568831 110.111693 
L 959.603008 109.762808 
L 961.637184 109.876152 
L 963.67136 109.068275 
L 965.705537 108.981485 
L 967.739713 109.046383 
L 971.808066 108.925137 
L 975.876418 107.658829 
L 979.944771 107.010929 
L 981.978947 107.258517 
L 984.013124 106.848793 
L 986.0473 106.16635 
L 988.081476 105.907233 
L 990.115653 105.417325 
L 992.149829 105.287745 
L 994.184005 104.589197 
L 996.218182 104.451975 
L 996.218182 104.451975 
" style="fill:none;stroke:#ff7f0e;stroke-linecap:square;stroke-width:1.5;"/>
   </g>
   <g id="line2d_20">
    <path clip-path="url(#p62eaad3d3b)" d="M 184.581818 484.232727 
L 298.495694 484.194562 
L 302.564046 484.014835 
L 308.666576 483.815502 
L 310.700752 483.726371 
L 314.769105 483.164956 
L 316.803281 483.146277 
L 320.871634 482.87135 
L 322.90581 482.81728 
L 324.939986 482.901 
L 329.008339 482.672183 
L 335.110868 482.234876 
L 337.145044 482.013522 
L 339.179221 481.498395 
L 341.213397 481.363251 
L 343.247573 480.731615 
L 345.28175 480.29037 
L 349.350103 478.904381 
L 353.418455 478.430733 
L 355.452632 477.818321 
L 357.486808 476.948665 
L 359.520984 476.857205 
L 361.555161 476.226279 
L 363.589337 475.132187 
L 365.623513 473.907166 
L 367.65769 473.841432 
L 369.691866 472.086239 
L 371.726042 472.025551 
L 373.760219 471.280088 
L 375.794395 469.736724 
L 377.828571 469.562181 
L 379.862748 468.552283 
L 381.896924 468.626834 
L 385.965277 467.178133 
L 387.999453 467.069096 
L 390.03363 466.356583 
L 392.067806 466.243739 
L 394.101982 462.917806 
L 400.204511 459.090468 
L 402.238688 458.890858 
L 404.272864 457.837832 
L 406.30704 457.952909 
L 408.341217 455.401796 
L 410.375393 454.651663 
L 412.409569 454.231478 
L 414.443746 452.599097 
L 416.477922 450.752461 
L 418.512098 450.380124 
L 420.546275 447.285786 
L 422.580451 445.37808 
L 424.614627 441.990149 
L 426.648804 440.319017 
L 428.68298 440.376702 
L 430.717157 440.207891 
L 432.751333 439.808397 
L 434.785509 439.734461 
L 436.819686 440.049584 
L 438.853862 436.939844 
L 440.888038 436.189875 
L 442.922215 435.082633 
L 444.956391 432.425408 
L 446.990567 429.256464 
L 449.024744 427.339191 
L 451.05892 427.425484 
L 453.093096 426.380781 
L 455.127273 427.254399 
L 457.161449 426.768382 
L 459.195625 424.054733 
L 461.229802 424.389904 
L 463.263978 421.662665 
L 465.298154 420.362213 
L 467.332331 416.762625 
L 469.366507 415.692943 
L 471.400684 413.483629 
L 473.43486 412.394938 
L 475.469036 413.59114 
L 477.503213 411.657518 
L 479.537389 407.023077 
L 481.571565 403.636468 
L 483.605742 403.528203 
L 485.639918 401.796194 
L 487.674094 401.697179 
L 489.708271 403.036476 
L 491.742447 402.883941 
L 493.776623 400.508966 
L 497.844976 401.139497 
L 499.879152 400.469711 
L 501.913329 401.202338 
L 505.981681 396.285264 
L 508.015858 394.467346 
L 510.050034 394.796261 
L 512.084211 391.538326 
L 514.118387 390.277696 
L 516.152563 383.216897 
L 518.18674 381.993984 
L 522.255092 376.510705 
L 524.289269 374.219492 
L 526.323445 373.918686 
L 528.357621 368.735328 
L 530.391798 369.469607 
L 532.425974 368.604712 
L 534.46015 369.226553 
L 538.528503 365.532543 
L 540.562679 366.266941 
L 542.596856 365.180764 
L 544.631032 363.539135 
L 546.665208 359.900793 
L 548.699385 354.189691 
L 550.733561 348.003449 
L 552.767738 346.496181 
L 554.801914 344.807076 
L 556.83609 345.363005 
L 558.870267 341.73671 
L 560.904443 339.748213 
L 562.938619 339.250717 
L 564.972796 336.947899 
L 567.006972 336.769031 
L 569.041148 329.465188 
L 571.075325 330.25968 
L 573.109501 332.631131 
L 575.143677 330.790792 
L 577.177854 330.297278 
L 579.21203 329.427223 
L 581.246206 327.979661 
L 583.280383 329.290443 
L 585.314559 327.935532 
L 587.348735 326.344497 
L 589.382912 325.198713 
L 591.417088 323.107752 
L 593.451265 323.066948 
L 595.485441 323.764201 
L 597.519617 317.074072 
L 599.553794 314.048968 
L 601.58797 315.832495 
L 603.622146 314.861757 
L 605.656323 309.758085 
L 609.724675 308.09043 
L 611.758852 305.269163 
L 613.793028 304.512668 
L 615.827204 300.078712 
L 617.861381 293.333972 
L 619.895557 289.108139 
L 621.929733 288.864718 
L 623.96391 287.936004 
L 625.998086 287.851956 
L 628.032262 284.392203 
L 630.066439 283.022546 
L 632.100615 278.154146 
L 634.134792 274.097401 
L 636.168968 274.396263 
L 638.203144 274.37245 
L 640.237321 274.514444 
L 642.271497 278.062326 
L 644.305673 277.204685 
L 646.33985 275.194749 
L 648.374026 273.472127 
L 650.408202 272.009592 
L 652.442379 270.187831 
L 654.476555 266.471617 
L 656.510731 268.342062 
L 658.544908 267.042053 
L 660.579084 263.049019 
L 662.61326 258.747276 
L 664.647437 259.637237 
L 666.681613 254.480552 
L 668.715789 255.506742 
L 670.749966 254.820414 
L 672.784142 255.161203 
L 674.818319 251.101414 
L 676.852495 250.105687 
L 678.886671 247.683026 
L 680.920848 246.736782 
L 682.955024 240.080407 
L 687.023377 236.068892 
L 689.057553 229.817407 
L 691.091729 225.323497 
L 693.125906 225.516679 
L 695.160082 226.260004 
L 697.194258 221.11405 
L 699.228435 219.663886 
L 701.262611 217.560987 
L 703.296787 216.205687 
L 705.330964 214.559232 
L 707.36514 208.660172 
L 709.399316 208.328753 
L 711.433493 206.902942 
L 713.467669 208.265711 
L 715.501846 205.905811 
L 717.536022 205.792035 
L 719.570198 205.060606 
L 721.604375 201.496834 
L 723.638551 201.236746 
L 727.706904 197.708144 
L 729.74108 196.869458 
L 731.775256 195.289218 
L 733.809433 196.732625 
L 735.843609 194.922457 
L 737.877785 191.708564 
L 739.911962 190.180743 
L 741.946138 192.73769 
L 743.980314 187.710629 
L 746.014491 187.051179 
L 748.048667 186.110807 
L 750.082843 185.506475 
L 752.11702 184.392632 
L 754.151196 184.111364 
L 756.185373 181.020812 
L 758.219549 179.109411 
L 760.253725 176.827492 
L 764.322078 174.428343 
L 766.356254 173.699396 
L 768.390431 173.763798 
L 770.424607 174.07991 
L 772.458783 174.223135 
L 774.49296 176.044508 
L 776.527136 176.777318 
L 778.561312 171.863278 
L 780.595489 170.937241 
L 782.629665 171.64747 
L 784.663841 169.702821 
L 786.698018 166.808409 
L 788.732194 164.727078 
L 790.76637 164.747264 
L 792.800547 164.559932 
L 796.8689 163.525344 
L 798.903076 162.811337 
L 800.937252 161.715651 
L 802.971429 157.53807 
L 805.005605 155.886887 
L 807.039781 152.40984 
L 809.073958 152.152213 
L 811.108134 151.699979 
L 815.176487 149.270453 
L 817.210663 149.179669 
L 819.244839 147.910878 
L 821.279016 147.673178 
L 823.313192 146.145746 
L 825.347368 145.99924 
L 827.381545 145.555447 
L 829.415721 144.353735 
L 831.449897 143.884531 
L 835.51825 140.75691 
L 837.552427 138.585983 
L 839.586603 138.244459 
L 841.620779 138.407438 
L 843.654956 138.061618 
L 845.689132 137.868587 
L 849.757485 137.741964 
L 851.791661 137.403938 
L 853.825837 135.612316 
L 855.860014 134.528396 
L 857.89419 133.305547 
L 859.928366 133.103168 
L 861.962543 132.736881 
L 863.996719 132.101503 
L 866.030895 130.793765 
L 868.065072 129.948754 
L 870.099248 129.989666 
L 872.133424 129.5169 
L 874.167601 127.07455 
L 876.201777 125.828989 
L 878.235954 124.897966 
L 880.27013 124.179577 
L 882.304306 122.037622 
L 884.338483 121.968881 
L 886.372659 121.562827 
L 888.406835 120.224626 
L 890.441012 120.336589 
L 892.475188 120.803266 
L 894.509364 118.641083 
L 896.543541 119.241874 
L 898.577717 118.458349 
L 900.611893 118.235762 
L 902.64607 117.382288 
L 904.680246 115.162115 
L 906.714422 114.894319 
L 908.748599 113.374292 
L 910.782775 113.264488 
L 912.816951 112.07655 
L 914.851128 111.805602 
L 916.885304 111.675159 
L 918.919481 111.243154 
L 920.953657 110.979589 
L 922.987833 112.25367 
L 925.02201 110.271412 
L 927.056186 109.183045 
L 931.124539 108.971295 
L 933.158715 108.317955 
L 935.192891 108.177278 
L 939.261244 108.611744 
L 941.29542 108.507165 
L 943.329597 107.092192 
L 945.363773 108.07801 
L 947.397949 107.705764 
L 949.432126 107.521779 
L 953.500478 107.515216 
L 957.568831 107.178593 
L 959.603008 107.282223 
L 961.637184 107.014556 
L 963.67136 106.552974 
L 965.705537 105.850583 
L 967.739713 104.743087 
L 969.773889 104.339623 
L 973.842242 104.529308 
L 975.876418 104.4822 
L 977.910595 103.802261 
L 979.944771 103.697466 
L 981.978947 103.438825 
L 984.013124 103.367234 
L 986.0473 102.968563 
L 988.081476 102.250627 
L 990.115653 101.892588 
L 992.149829 101.701046 
L 994.184005 101.887881 
L 996.218182 101.51814 
L 996.218182 101.51814 
" style="fill:none;stroke:#2ca02c;stroke-linecap:square;stroke-width:1.5;"/>
   </g>
   <g id="line2d_21">
    <path clip-path="url(#p62eaad3d3b)" d="M 184.581818 484.232727 
L 298.495694 484.194562 
L 304.598223 483.867367 
L 306.632399 483.856521 
L 308.666576 483.605948 
L 310.700752 483.591556 
L 314.769105 483.132934 
L 322.90581 482.68671 
L 329.008339 482.016629 
L 331.042515 481.452543 
L 333.076692 480.25251 
L 335.110868 479.803231 
L 339.179221 479.879429 
L 341.213397 479.309615 
L 343.247573 478.554855 
L 347.315926 478.251475 
L 349.350103 477.194951 
L 351.384279 475.951127 
L 353.418455 476.078313 
L 355.452632 475.779916 
L 357.486808 475.040851 
L 359.520984 473.733318 
L 361.555161 473.107305 
L 365.623513 472.913022 
L 367.65769 472.427905 
L 369.691866 471.72693 
L 373.760219 469.807039 
L 375.794395 468.651951 
L 377.828571 467.858115 
L 379.862748 466.249668 
L 381.896924 466.240251 
L 383.9311 465.28488 
L 385.965277 463.003688 
L 387.999453 461.626476 
L 390.03363 461.518888 
L 392.067806 460.890918 
L 394.101982 459.884161 
L 396.136159 459.742335 
L 398.170335 458.312517 
L 400.204511 456.57993 
L 402.238688 453.786422 
L 406.30704 453.957721 
L 408.341217 453.609173 
L 410.375393 452.862763 
L 412.409569 452.314108 
L 414.443746 452.362544 
L 416.477922 452.251299 
L 420.546275 449.99727 
L 422.580451 447.827047 
L 424.614627 446.760318 
L 426.648804 446.990099 
L 428.68298 445.521032 
L 430.717157 445.155414 
L 432.751333 445.367752 
L 434.785509 444.775413 
L 436.819686 443.793289 
L 438.853862 442.20572 
L 440.888038 438.81817 
L 442.922215 439.183711 
L 444.956391 440.071297 
L 446.990567 439.855019 
L 449.024744 439.261398 
L 451.05892 437.317751 
L 453.093096 435.015209 
L 455.127273 434.136734 
L 459.195625 431.061861 
L 461.229802 427.898104 
L 463.263978 426.209987 
L 465.298154 423.250202 
L 467.332331 419.847089 
L 469.366507 419.722512 
L 471.400684 416.833919 
L 473.43486 415.761058 
L 475.469036 415.326316 
L 477.503213 413.277499 
L 479.537389 413.01917 
L 483.605742 409.681867 
L 485.639918 407.28738 
L 487.674094 406.082111 
L 489.708271 405.709461 
L 491.742447 402.930887 
L 493.776623 401.311813 
L 497.844976 396.878095 
L 499.879152 396.528966 
L 501.913329 395.227678 
L 503.947505 394.207911 
L 505.981681 391.71183 
L 508.015858 391.211958 
L 510.050034 388.953399 
L 512.084211 390.480292 
L 514.118387 391.032528 
L 516.152563 388.407574 
L 518.18674 385.262768 
L 520.220916 382.325253 
L 522.255092 380.064837 
L 524.289269 379.909544 
L 526.323445 379.316104 
L 528.357621 376.20121 
L 530.391798 374.483563 
L 534.46015 374.257997 
L 536.494327 371.360249 
L 538.528503 370.493918 
L 540.562679 364.144989 
L 544.631032 364.32322 
L 546.665208 358.932247 
L 548.699385 356.182484 
L 550.733561 355.835736 
L 552.767738 354.137413 
L 554.801914 351.502085 
L 556.83609 350.772221 
L 558.870267 351.10703 
L 560.904443 350.760887 
L 562.938619 347.428004 
L 564.972796 345.497809 
L 567.006972 345.323032 
L 569.041148 345.700696 
L 571.075325 344.574871 
L 573.109501 344.153887 
L 575.143677 339.196225 
L 577.177854 332.462787 
L 579.21203 330.856499 
L 581.246206 331.467243 
L 585.314559 329.409865 
L 587.348735 328.101048 
L 589.382912 326.221178 
L 591.417088 322.55761 
L 593.451265 319.163618 
L 595.485441 317.017248 
L 599.553794 306.571514 
L 601.58797 305.280875 
L 603.622146 304.32824 
L 605.656323 302.553231 
L 607.690499 302.069886 
L 609.724675 295.95314 
L 611.758852 291.054601 
L 613.793028 291.823336 
L 615.827204 290.737883 
L 617.861381 284.703393 
L 619.895557 284.254786 
L 621.929733 280.489714 
L 623.96391 278.520929 
L 625.998086 271.06052 
L 628.032262 271.731499 
L 630.066439 271.753304 
L 632.100615 270.478878 
L 634.134792 265.461057 
L 636.168968 266.308163 
L 638.203144 259.308084 
L 640.237321 258.547552 
L 644.305673 256.815452 
L 648.374026 255.74088 
L 652.442379 252.219813 
L 654.476555 251.038913 
L 656.510731 252.845561 
L 658.544908 252.783211 
L 660.579084 252.407101 
L 662.61326 253.314269 
L 664.647437 251.095693 
L 666.681613 253.878444 
L 668.715789 254.07521 
L 670.749966 255.703617 
L 672.784142 252.308977 
L 674.818319 252.876888 
L 676.852495 248.159592 
L 678.886671 249.381836 
L 680.920848 248.183103 
L 682.955024 247.204712 
L 684.9892 246.808049 
L 687.023377 243.417749 
L 689.057553 242.513129 
L 691.091729 240.236111 
L 693.125906 233.634919 
L 695.160082 230.630919 
L 697.194258 229.192306 
L 699.228435 225.964337 
L 701.262611 225.404263 
L 703.296787 217.606389 
L 705.330964 216.926667 
L 707.36514 215.690649 
L 709.399316 215.866301 
L 711.433493 214.635248 
L 715.501846 212.671061 
L 717.536022 213.271637 
L 719.570198 208.601104 
L 721.604375 206.621243 
L 723.638551 200.790816 
L 725.672727 193.273692 
L 727.706904 191.839331 
L 729.74108 185.295697 
L 731.775256 184.479659 
L 733.809433 184.202796 
L 735.843609 182.486326 
L 737.877785 183.811767 
L 739.911962 180.513827 
L 741.946138 175.589229 
L 743.980314 176.164459 
L 746.014491 178.382602 
L 748.048667 174.717857 
L 750.082843 175.942908 
L 752.11702 172.968161 
L 754.151196 171.163477 
L 756.185373 169.737105 
L 758.219549 169.188603 
L 760.253725 167.746536 
L 762.287902 163.101478 
L 764.322078 164.549979 
L 766.356254 165.347408 
L 768.390431 160.894755 
L 770.424607 161.777526 
L 772.458783 159.948058 
L 774.49296 158.733284 
L 776.527136 155.405744 
L 778.561312 154.696595 
L 780.595489 155.786668 
L 782.629665 153.830038 
L 784.663841 153.145242 
L 786.698018 152.154566 
L 788.732194 151.030576 
L 790.76637 150.046032 
L 792.800547 149.614589 
L 794.834723 148.748182 
L 796.8689 148.002634 
L 798.903076 147.701094 
L 802.971429 147.29029 
L 805.005605 146.397522 
L 807.039781 146.88009 
L 809.073958 147.206307 
L 811.108134 145.878426 
L 813.14231 145.638416 
L 817.210663 144.808841 
L 819.244839 143.047659 
L 821.279016 142.194012 
L 823.313192 142.178446 
L 825.347368 140.640176 
L 827.381545 137.247544 
L 829.415721 137.52281 
L 831.449897 136.399446 
L 833.484074 136.39258 
L 835.51825 135.006839 
L 837.552427 135.04719 
L 839.586603 135.595174 
L 841.620779 136.768733 
L 843.654956 136.693213 
L 845.689132 135.359935 
L 847.723308 134.678097 
L 849.757485 134.290156 
L 851.791661 136.98018 
L 853.825837 133.543701 
L 861.962543 132.916354 
L 863.996719 130.888176 
L 866.030895 129.881568 
L 868.065072 129.736573 
L 870.099248 131.625391 
L 872.133424 130.425665 
L 874.167601 129.987852 
L 876.201777 130.186389 
L 878.235954 130.044438 
L 880.27013 129.660513 
L 882.304306 127.966259 
L 884.338483 127.748551 
L 886.372659 125.719725 
L 888.406835 124.172733 
L 890.441012 123.788829 
L 892.475188 123.103429 
L 894.509364 121.567533 
L 896.543541 121.381734 
L 898.577717 120.15459 
L 900.611893 118.767381 
L 902.64607 118.588145 
L 904.680246 118.571867 
L 906.714422 118.270823 
L 908.748599 118.285634 
L 910.782775 118.445871 
L 912.816951 118.1526 
L 914.851128 117.675473 
L 916.885304 117.333193 
L 918.919481 117.251413 
L 920.953657 116.697513 
L 922.987833 115.854316 
L 925.02201 115.974742 
L 927.056186 115.779616 
L 929.090362 115.468167 
L 933.158715 116.703386 
L 935.192891 116.612451 
L 937.227068 113.88553 
L 941.29542 112.697031 
L 943.329597 112.592754 
L 945.363773 111.838029 
L 949.432126 111.212324 
L 951.466302 111.272947 
L 953.500478 110.549355 
L 955.534655 110.257768 
L 957.568831 110.173007 
L 959.603008 110.26908 
L 961.637184 109.695751 
L 963.67136 109.809916 
L 965.705537 109.621742 
L 967.739713 109.616647 
L 969.773889 108.894653 
L 971.808066 108.535447 
L 973.842242 107.760861 
L 975.876418 107.768244 
L 977.910595 107.531019 
L 979.944771 106.749827 
L 981.978947 106.349169 
L 984.013124 106.174122 
L 986.0473 105.448716 
L 988.081476 105.082473 
L 990.115653 105.276174 
L 992.149829 105.136015 
L 994.184005 104.157969 
L 996.218182 104.055808 
L 996.218182 104.055808 
" style="fill:none;stroke:#d62728;stroke-dasharray:5.55,2.4;stroke-dashoffset:0;stroke-width:1.5;"/>
   </g>
   <g id="line2d_22">
    <path clip-path="url(#p62eaad3d3b)" d="M 184.581818 484.232727 
L 300.52987 484.162721 
L 304.598223 483.976396 
L 308.666576 483.780894 
L 310.700752 483.726371 
L 312.734928 483.549731 
L 314.769105 483.499665 
L 316.803281 483.146277 
L 322.90581 482.81728 
L 324.939986 482.901 
L 337.145044 481.847618 
L 341.213397 481.333203 
L 343.247573 480.52722 
L 345.28175 479.985942 
L 347.315926 479.321961 
L 349.350103 478.810486 
L 351.384279 478.571855 
L 353.418455 477.951646 
L 355.452632 477.818321 
L 357.486808 476.948665 
L 359.520984 476.857205 
L 363.589337 474.638776 
L 365.623513 474.550066 
L 367.65769 473.965714 
L 369.691866 473.23796 
L 371.726042 473.150797 
L 373.760219 471.280088 
L 375.794395 471.226951 
L 377.828571 469.760496 
L 379.862748 468.872892 
L 381.896924 465.552068 
L 383.9311 464.674768 
L 385.965277 463.414596 
L 390.03363 463.209553 
L 392.067806 462.983351 
L 394.101982 461.96383 
L 396.136159 462.039232 
L 398.170335 461.325492 
L 400.204511 459.541164 
L 404.272864 458.435336 
L 406.30704 457.754947 
L 408.341217 457.262227 
L 412.409569 456.984236 
L 414.443746 455.697178 
L 416.477922 454.96869 
L 418.512098 453.38098 
L 420.546275 450.939593 
L 422.580451 450.019203 
L 426.648804 449.427611 
L 428.68298 448.694638 
L 430.717157 447.294314 
L 432.751333 444.634204 
L 434.785509 441.384408 
L 436.819686 439.68595 
L 438.853862 438.560381 
L 440.888038 436.829198 
L 444.956391 436.948674 
L 446.990567 434.630182 
L 449.024744 434.560664 
L 451.05892 431.728106 
L 453.093096 427.755096 
L 455.127273 426.732495 
L 457.161449 423.958191 
L 459.195625 423.466178 
L 461.229802 420.729531 
L 463.263978 416.944894 
L 467.332331 412.991579 
L 469.366507 411.676149 
L 471.400684 412.825783 
L 473.43486 410.938319 
L 475.469036 412.163407 
L 477.503213 411.917622 
L 479.537389 408.761654 
L 481.571565 407.726315 
L 483.605742 406.309113 
L 485.639918 401.519083 
L 487.674094 401.379161 
L 489.708271 398.923237 
L 491.742447 399.171181 
L 493.776623 398.605256 
L 495.8108 399.287418 
L 497.844976 399.495276 
L 499.879152 396.994208 
L 501.913329 398.355321 
L 503.947505 396.239829 
L 505.981681 393.739225 
L 508.015858 392.608958 
L 510.050034 389.29502 
L 512.084211 386.570668 
L 514.118387 387.481182 
L 516.152563 388.058775 
L 518.18674 385.589082 
L 520.220916 385.238124 
L 522.255092 380.502941 
L 524.289269 378.406346 
L 526.323445 379.121853 
L 528.357621 378.742677 
L 530.391798 371.63912 
L 532.425974 365.606487 
L 536.494327 361.587372 
L 538.528503 355.883319 
L 540.562679 355.037423 
L 542.596856 354.018897 
L 544.631032 351.982396 
L 546.665208 351.407232 
L 548.699385 349.676243 
L 550.733561 350.751549 
L 552.767738 351.475951 
L 554.801914 350.023898 
L 556.83609 349.852197 
L 558.870267 347.412179 
L 560.904443 348.229739 
L 562.938619 346.647912 
L 564.972796 344.545304 
L 567.006972 340.711557 
L 569.041148 339.088904 
L 571.075325 335.493633 
L 573.109501 334.120533 
L 575.143677 327.141483 
L 577.177854 326.122838 
L 579.21203 324.777718 
L 581.246206 326.000491 
L 583.280383 325.37308 
L 585.314559 324.356702 
L 587.348735 324.198441 
L 589.382912 323.189663 
L 591.417088 320.599133 
L 593.451265 319.147577 
L 595.485441 313.576019 
L 597.519617 306.573986 
L 599.553794 307.834562 
L 601.58797 307.506532 
L 603.622146 305.981831 
L 605.656323 302.835858 
L 607.690499 304.298479 
L 609.724675 303.603256 
L 611.758852 305.497299 
L 615.827204 303.505682 
L 617.861381 302.506123 
L 619.895557 295.913998 
L 621.929733 295.785822 
L 623.96391 295.465024 
L 625.998086 290.616356 
L 628.032262 286.473405 
L 630.066439 286.633987 
L 632.100615 281.69745 
L 634.134792 278.586885 
L 636.168968 274.237862 
L 638.203144 273.552807 
L 640.237321 273.631371 
L 642.271497 274.707216 
L 644.305673 270.188587 
L 646.33985 270.296404 
L 648.374026 268.329713 
L 650.408202 270.095407 
L 652.442379 268.890326 
L 656.510731 262.115555 
L 658.544908 262.404595 
L 660.579084 261.0461 
L 662.61326 259.418881 
L 664.647437 259.523461 
L 666.681613 260.557401 
L 668.715789 263.415392 
L 670.749966 262.696031 
L 672.784142 261.147376 
L 674.818319 256.553745 
L 676.852495 255.198855 
L 678.886671 254.615249 
L 680.920848 253.008497 
L 682.955024 252.916548 
L 684.9892 249.341744 
L 687.023377 249.106289 
L 689.057553 245.745178 
L 691.091729 243.77432 
L 693.125906 243.604346 
L 695.160082 237.653386 
L 697.194258 236.250892 
L 699.228435 231.50147 
L 701.262611 230.069874 
L 703.296787 229.064474 
L 707.36514 225.373498 
L 709.399316 218.865184 
L 711.433493 220.253904 
L 713.467669 218.671203 
L 715.501846 219.993557 
L 717.536022 214.449644 
L 721.604375 210.736625 
L 723.638551 209.221347 
L 725.672727 208.136758 
L 727.706904 205.409103 
L 729.74108 203.670094 
L 731.775256 201.247476 
L 733.809433 201.073789 
L 735.843609 203.873272 
L 737.877785 201.956517 
L 739.911962 198.336764 
L 741.946138 197.615612 
L 743.980314 193.740132 
L 746.014491 192.050368 
L 748.048667 191.487488 
L 750.082843 193.405625 
L 752.11702 192.168527 
L 754.151196 190.653077 
L 756.185373 189.30542 
L 758.219549 188.929073 
L 760.253725 186.327047 
L 762.287902 186.396241 
L 764.322078 183.910151 
L 766.356254 179.40482 
L 768.390431 178.613653 
L 770.424607 178.608363 
L 772.458783 177.779479 
L 774.49296 175.047938 
L 776.527136 175.801648 
L 778.561312 174.600389 
L 780.595489 175.32655 
L 782.629665 173.314845 
L 784.663841 173.376159 
L 786.698018 169.304798 
L 788.732194 164.860393 
L 792.800547 163.785821 
L 794.834723 161.973494 
L 796.8689 161.261819 
L 798.903076 161.126 
L 800.937252 159.763295 
L 802.971429 159.153911 
L 805.005605 157.658647 
L 807.039781 156.727774 
L 809.073958 153.77289 
L 811.108134 152.534498 
L 813.14231 152.517787 
L 815.176487 148.119605 
L 819.244839 147.867117 
L 821.279016 148.015285 
L 823.313192 148.020898 
L 825.347368 146.861674 
L 827.381545 146.064742 
L 829.415721 145.654305 
L 831.449897 145.020331 
L 833.484074 144.940709 
L 835.51825 142.992779 
L 837.552427 143.235336 
L 839.586603 141.672994 
L 841.620779 140.622408 
L 843.654956 140.224989 
L 845.689132 139.235501 
L 847.723308 138.554743 
L 849.757485 136.902955 
L 851.791661 136.864418 
L 853.825837 135.529045 
L 855.860014 133.732997 
L 857.89419 132.658166 
L 859.928366 131.444471 
L 861.962543 130.536138 
L 863.996719 129.766755 
L 866.030895 129.561914 
L 868.065072 129.61863 
L 870.099248 130.272855 
L 872.133424 129.923019 
L 874.167601 127.514327 
L 876.201777 127.641251 
L 878.235954 127.626463 
L 880.27013 126.708328 
L 882.304306 125.419092 
L 884.338483 125.073035 
L 886.372659 123.998959 
L 888.406835 123.764131 
L 890.441012 123.702514 
L 894.509364 122.972532 
L 896.543541 121.979287 
L 898.577717 121.116832 
L 900.611893 118.862461 
L 902.64607 118.524931 
L 904.680246 118.014427 
L 906.714422 116.178244 
L 908.748599 116.094304 
L 910.782775 114.060189 
L 912.816951 115.089229 
L 916.885304 114.896953 
L 918.919481 114.208983 
L 920.953657 112.674016 
L 922.987833 111.416301 
L 925.02201 112.43895 
L 927.056186 112.27405 
L 929.090362 112.505791 
L 933.158715 112.432301 
L 935.192891 112.102241 
L 939.261244 111.930734 
L 941.29542 110.266878 
L 945.363773 110.078834 
L 949.432126 108.219464 
L 963.67136 106.935021 
L 965.705537 107.725065 
L 969.773889 106.827635 
L 971.808066 106.123603 
L 975.876418 105.364431 
L 977.910595 105.083077 
L 979.944771 105.024138 
L 981.978947 106.022478 
L 984.013124 105.372635 
L 986.0473 105.086143 
L 988.081476 104.383536 
L 990.115653 103.222671 
L 992.149829 103.217058 
L 994.184005 102.890625 
L 996.218182 102.899736 
L 996.218182 102.899736 
" style="fill:none;stroke:#9467bd;stroke-dasharray:5.55,2.4;stroke-dashoffset:0;stroke-width:1.5;"/>
   </g>
   <g id="line2d_23">
    <path clip-path="url(#p62eaad3d3b)" d="M 184.581818 484.232727 
L 298.495694 484.203797 
L 300.52987 484.00111 
L 302.564046 483.920528 
L 306.632399 483.354852 
L 308.666576 483.333207 
L 312.734928 482.070316 
L 314.769105 481.278006 
L 316.803281 480.978476 
L 318.837457 480.224587 
L 320.871634 480.442725 
L 322.90581 479.178518 
L 324.939986 478.447063 
L 326.974163 476.605495 
L 329.008339 474.986882 
L 331.042515 474.738524 
L 333.076692 473.341467 
L 335.110868 473.370452 
L 337.145044 471.302774 
L 339.179221 471.336551 
L 341.213397 470.485404 
L 343.247573 468.090865 
L 345.28175 464.650205 
L 349.350103 463.674606 
L 351.384279 462.958687 
L 353.418455 462.572936 
L 355.452632 461.351367 
L 357.486808 459.041733 
L 359.520984 458.584951 
L 361.555161 458.688767 
L 363.589337 457.465233 
L 365.623513 455.58002 
L 367.65769 454.027946 
L 369.691866 451.311453 
L 371.726042 445.255603 
L 373.760219 444.524238 
L 375.794395 442.402589 
L 377.828571 442.44692 
L 379.862748 443.325916 
L 381.896924 439.047533 
L 385.965277 437.712023 
L 387.999453 433.524662 
L 390.03363 431.21112 
L 392.067806 426.008288 
L 394.101982 421.339336 
L 396.136159 421.111934 
L 398.170335 415.492712 
L 400.204511 413.685043 
L 402.238688 410.52813 
L 404.272864 411.618457 
L 406.30704 410.661434 
L 408.341217 410.051144 
L 410.375393 409.936293 
L 412.409569 409.552573 
L 414.443746 408.163945 
L 416.477922 402.872661 
L 418.512098 403.261891 
L 420.546275 396.258121 
L 422.580451 393.773418 
L 424.614627 391.933197 
L 426.648804 389.560646 
L 428.68298 391.276835 
L 430.717157 392.475967 
L 432.751333 390.425638 
L 434.785509 387.581184 
L 436.819686 386.89668 
L 438.853862 385.081276 
L 440.888038 384.646594 
L 442.922215 383.506984 
L 444.956391 384.095113 
L 446.990567 381.86122 
L 449.024744 381.066242 
L 451.05892 379.379339 
L 453.093096 377.508591 
L 455.127273 377.470637 
L 457.161449 375.799592 
L 459.195625 376.028051 
L 461.229802 375.071325 
L 463.263978 373.856821 
L 465.298154 373.291588 
L 467.332331 361.976662 
L 469.366507 355.314513 
L 473.43486 349.897492 
L 475.469036 349.001983 
L 477.503213 347.827387 
L 479.537389 343.831157 
L 481.571565 335.987255 
L 483.605742 331.767229 
L 487.674094 330.736937 
L 489.708271 324.047574 
L 491.742447 324.586835 
L 493.776623 324.600328 
L 495.8108 315.122806 
L 497.844976 312.34284 
L 499.879152 311.990511 
L 501.913329 310.460801 
L 503.947505 311.167575 
L 505.981681 310.15097 
L 508.015858 308.412026 
L 510.050034 305.710235 
L 512.084211 301.102765 
L 514.118387 300.374013 
L 516.152563 299.130978 
L 518.18674 295.614358 
L 520.220916 291.007126 
L 522.255092 289.266325 
L 524.289269 280.021115 
L 526.323445 275.990278 
L 528.357621 270.501785 
L 530.391798 269.72152 
L 532.425974 267.367579 
L 534.46015 262.331104 
L 536.494327 260.63603 
L 538.528503 257.689847 
L 540.562679 254.041358 
L 542.596856 250.998605 
L 544.631032 251.172703 
L 546.665208 249.217518 
L 548.699385 247.494593 
L 550.733561 244.605125 
L 558.870267 238.307179 
L 560.904443 236.380709 
L 562.938619 230.934467 
L 564.972796 229.980213 
L 567.006972 228.625064 
L 569.041148 227.942384 
L 571.075325 227.60615 
L 573.109501 227.424021 
L 575.143677 226.197762 
L 577.177854 225.631341 
L 579.21203 225.881455 
L 581.246206 222.286746 
L 585.314559 218.391425 
L 587.348735 215.090138 
L 589.382912 212.128022 
L 591.417088 211.562205 
L 593.451265 208.525368 
L 595.485441 205.928934 
L 597.519617 205.328833 
L 599.553794 204.960258 
L 601.58797 202.728103 
L 603.622146 202.201061 
L 605.656323 202.215159 
L 607.690499 199.265219 
L 609.724675 198.845023 
L 611.758852 195.575235 
L 613.793028 195.192066 
L 615.827204 195.008102 
L 617.861381 193.841149 
L 621.929733 190.080374 
L 623.96391 190.484204 
L 625.998086 187.077 
L 628.032262 186.31187 
L 630.066439 185.855447 
L 632.100615 183.0043 
L 634.134792 182.795984 
L 636.168968 179.255335 
L 638.203144 178.347606 
L 640.237321 177.804178 
L 642.271497 173.123411 
L 644.305673 172.035497 
L 646.33985 171.963906 
L 648.374026 171.753452 
L 650.408202 171.375097 
L 652.442379 166.824256 
L 654.476555 165.821447 
L 656.510731 165.825981 
L 658.544908 164.910264 
L 660.579084 164.415542 
L 662.61326 163.662178 
L 664.647437 163.244616 
L 666.681613 163.61345 
L 668.715789 163.609586 
L 670.749966 162.510272 
L 672.784142 162.309361 
L 674.818319 161.334187 
L 676.852495 156.701133 
L 678.886671 156.727839 
L 680.920848 156.505122 
L 682.955024 157.169322 
L 684.9892 155.709205 
L 687.023377 153.99565 
L 689.057553 154.092393 
L 691.091729 155.261462 
L 693.125906 155.078534 
L 695.160082 152.986365 
L 697.194258 152.924187 
L 699.228435 150.521583 
L 701.262611 150.198778 
L 703.296787 147.846132 
L 705.330964 147.612555 
L 707.36514 146.619527 
L 709.399316 144.71361 
L 711.433493 144.546464 
L 713.467669 144.253862 
L 715.501846 142.88535 
L 717.536022 142.657991 
L 719.570198 142.080819 
L 721.604375 138.380645 
L 723.638551 138.050845 
L 725.672727 138.017381 
L 727.706904 138.74242 
L 729.74108 138.858765 
L 731.775256 139.829578 
L 733.809433 139.482528 
L 737.877785 139.297355 
L 739.911962 138.260327 
L 741.946138 136.368875 
L 743.980314 132.845238 
L 746.014491 130.411481 
L 752.11702 129.663644 
L 754.151196 129.520225 
L 756.185373 129.231703 
L 760.253725 129.010822 
L 762.287902 128.579486 
L 764.322078 128.58171 
L 766.356254 128.351782 
L 768.390431 128.331877 
L 770.424607 127.342583 
L 772.458783 126.968071 
L 774.49296 126.990675 
L 778.561312 124.376516 
L 780.595489 123.828079 
L 782.629665 123.072405 
L 784.663841 122.98555 
L 786.698018 124.411685 
L 788.732194 123.335969 
L 790.76637 122.790684 
L 792.800547 122.690163 
L 794.834723 121.569519 
L 798.903076 120.737375 
L 802.971429 120.577614 
L 805.005605 120.598814 
L 809.073958 117.879968 
L 811.108134 117.623831 
L 813.14231 117.60915 
L 819.244839 116.581233 
L 821.279016 116.615992 
L 823.313192 116.371513 
L 825.347368 115.268119 
L 827.381545 114.796648 
L 831.449897 114.723158 
L 833.484074 114.30605 
L 835.51825 113.726027 
L 837.552427 113.011762 
L 839.586603 112.124219 
L 841.620779 111.859792 
L 843.654956 109.7062 
L 845.689132 108.669 
L 847.723308 106.782038 
L 849.757485 106.533241 
L 851.791661 106.52888 
L 853.825837 106.29688 
L 855.860014 106.230514 
L 857.89419 106.41532 
L 861.962543 106.166868 
L 863.996719 105.714224 
L 866.030895 105.671649 
L 868.065072 105.160195 
L 872.133424 105.066454 
L 874.167601 104.780782 
L 876.201777 104.656081 
L 878.235954 103.661887 
L 880.27013 103.978604 
L 884.338483 102.453611 
L 888.406835 100.965537 
L 890.441012 101.180524 
L 892.475188 100.755169 
L 894.509364 99.364938 
L 896.543541 99.782564 
L 898.577717 99.858041 
L 900.611893 99.463126 
L 904.680246 99.541151 
L 906.714422 99.728763 
L 918.919481 99.649443 
L 922.987833 99.400085 
L 925.02201 99.566583 
L 927.056186 99.364635 
L 929.090362 98.601664 
L 933.158715 98.504511 
L 935.192891 98.706114 
L 939.261244 98.289869 
L 941.29542 98.46116 
L 943.329597 97.709631 
L 945.363773 97.426377 
L 947.397949 96.448418 
L 951.466302 96.39017 
L 953.500478 95.550426 
L 961.637184 95.42171 
L 963.67136 95.843222 
L 965.705537 95.367348 
L 969.773889 95.112333 
L 971.808066 95.031934 
L 975.876418 94.545869 
L 981.978947 94.494184 
L 988.081476 94.420477 
L 990.115653 94.441894 
L 992.149829 94.847733 
L 996.218182 94.714569 
L 996.218182 94.714569 
" style="fill:none;stroke:#8c564b;stroke-dasharray:5.55,2.4;stroke-dashoffset:0;stroke-width:1.5;"/>
   </g>
   <g id="patch_3">
    <path d="M 144 504 
L 144 69.12 
" style="fill:none;stroke:#000000;stroke-linecap:square;stroke-linejoin:miter;stroke-width:0.8;"/>
   </g>
   <g id="patch_4">
    <path d="M 1036.8 504 
L 1036.8 69.12 
" style="fill:none;stroke:#000000;stroke-linecap:square;stroke-linejoin:miter;stroke-width:0.8;"/>
   </g>
   <g id="patch_5">
    <path d="M 144 504 
L 1036.8 504 
" style="fill:none;stroke:#000000;stroke-linecap:square;stroke-linejoin:miter;stroke-width:0.8;"/>
   </g>
   <g id="patch_6">
    <path d="M 144 69.12 
L 1036.8 69.12 
" style="fill:none;stroke:#000000;stroke-linecap:square;stroke-linejoin:miter;stroke-width:0.8;"/>
   </g>
   <g id="legend_1">
    <g id="patch_7">
     <path d="M 151 166.579375 
L 275.432813 166.579375 
Q 277.432813 166.579375 277.432813 164.579375 
L 277.432813 76.12 
Q 277.432813 74.12 275.432813 74.12 
L 151 74.12 
Q 149 74.12 149 76.12 
L 149 164.579375 
Q 149 166.579375 151 166.579375 
z
" style="fill:#ffffff;opacity:0.8;stroke:#cccccc;stroke-linejoin:miter;"/>
    </g>
    <g id="line2d_24">
     <path d="M 153 82.218438 
L 173 82.218438 
" style="fill:none;stroke:#1f77b4;stroke-linecap:square;stroke-width:1.5;"/>
    </g>
    <g id="line2d_25"/>
    <g id="text_20">
     <!-- taylorfo -->
     <defs>
      <path d="M 32.171875 -5.078125 
Q 28.375 -14.84375 24.75 -17.8125 
Q 21.140625 -20.796875 15.09375 -20.796875 
L 7.90625 -20.796875 
L 7.90625 -13.28125 
L 13.1875 -13.28125 
Q 16.890625 -13.28125 18.9375 -11.515625 
Q 21 -9.765625 23.484375 -3.21875 
L 25.09375 0.875 
L 2.984375 54.6875 
L 12.5 54.6875 
L 29.59375 11.921875 
L 46.6875 54.6875 
L 56.203125 54.6875 
z
" id="DejaVuSans-121"/>
      <path d="M 9.421875 75.984375 
L 18.40625 75.984375 
L 18.40625 0 
L 9.421875 0 
z
" id="DejaVuSans-108"/>
     </defs>
     <g transform="translate(181 85.718438)scale(0.1 -0.1)">
      <use xlink:href="#DejaVuSans-116"/>
      <use x="39.208984" xlink:href="#DejaVuSans-97"/>
      <use x="100.488281" xlink:href="#DejaVuSans-121"/>
      <use x="159.667969" xlink:href="#DejaVuSans-108"/>
      <use x="187.451172" xlink:href="#DejaVuSans-111"/>
      <use x="248.632812" xlink:href="#DejaVuSans-114"/>
      <use x="289.746094" xlink:href="#DejaVuSans-102"/>
      <use x="324.951172" xlink:href="#DejaVuSans-111"/>
     </g>
    </g>
    <g id="line2d_26">
     <path d="M 153 96.896563 
L 173 96.896563 
" style="fill:none;stroke:#ff7f0e;stroke-linecap:square;stroke-width:1.5;"/>
    </g>
    <g id="line2d_27"/>
    <g id="text_21">
     <!-- taylorfo_abs -->
     <defs>
      <path d="M 50.984375 -16.609375 
L 50.984375 -23.578125 
L -0.984375 -23.578125 
L -0.984375 -16.609375 
z
" id="DejaVuSans-95"/>
     </defs>
     <g transform="translate(181 100.396563)scale(0.1 -0.1)">
      <use xlink:href="#DejaVuSans-116"/>
      <use x="39.208984" xlink:href="#DejaVuSans-97"/>
      <use x="100.488281" xlink:href="#DejaVuSans-121"/>
      <use x="159.667969" xlink:href="#DejaVuSans-108"/>
      <use x="187.451172" xlink:href="#DejaVuSans-111"/>
      <use x="248.632812" xlink:href="#DejaVuSans-114"/>
      <use x="289.746094" xlink:href="#DejaVuSans-102"/>
      <use x="324.951172" xlink:href="#DejaVuSans-111"/>
      <use x="386.132812" xlink:href="#DejaVuSans-95"/>
      <use x="436.132812" xlink:href="#DejaVuSans-97"/>
      <use x="497.412109" xlink:href="#DejaVuSans-98"/>
      <use x="560.888672" xlink:href="#DejaVuSans-115"/>
     </g>
    </g>
    <g id="line2d_28">
     <path d="M 153 111.852813 
L 173 111.852813 
" style="fill:none;stroke:#2ca02c;stroke-linecap:square;stroke-width:1.5;"/>
    </g>
    <g id="line2d_29"/>
    <g id="text_22">
     <!-- taylorfo_sq -->
     <g transform="translate(181 115.352813)scale(0.1 -0.1)">
      <use xlink:href="#DejaVuSans-116"/>
      <use x="39.208984" xlink:href="#DejaVuSans-97"/>
      <use x="100.488281" xlink:href="#DejaVuSans-121"/>
      <use x="159.667969" xlink:href="#DejaVuSans-108"/>
      <use x="187.451172" xlink:href="#DejaVuSans-111"/>
      <use x="248.632812" xlink:href="#DejaVuSans-114"/>
      <use x="289.746094" xlink:href="#DejaVuSans-102"/>
      <use x="324.951172" xlink:href="#DejaVuSans-111"/>
      <use x="386.132812" xlink:href="#DejaVuSans-95"/>
      <use x="436.132812" xlink:href="#DejaVuSans-115"/>
      <use x="488.232422" xlink:href="#DejaVuSans-113"/>
     </g>
    </g>
    <g id="line2d_30">
     <path d="M 153 126.809063 
L 173 126.809063 
" style="fill:none;stroke:#d62728;stroke-dasharray:5.55,2.4;stroke-dashoffset:0;stroke-width:1.5;"/>
    </g>
    <g id="line2d_31"/>
    <g id="text_23">
     <!-- taylorfo_abs_norm -->
     <g transform="translate(181 130.309063)scale(0.1 -0.1)">
      <use xlink:href="#DejaVuSans-116"/>
      <use x="39.208984" xlink:href="#DejaVuSans-97"/>
      <use x="100.488281" xlink:href="#DejaVuSans-121"/>
      <use x="159.667969" xlink:href="#DejaVuSans-108"/>
      <use x="187.451172" xlink:href="#DejaVuSans-111"/>
      <use x="248.632812" xlink:href="#DejaVuSans-114"/>
      <use x="289.746094" xlink:href="#DejaVuSans-102"/>
      <use x="324.951172" xlink:href="#DejaVuSans-111"/>
      <use x="386.132812" xlink:href="#DejaVuSans-95"/>
      <use x="436.132812" xlink:href="#DejaVuSans-97"/>
      <use x="497.412109" xlink:href="#DejaVuSans-98"/>
      <use x="560.888672" xlink:href="#DejaVuSans-115"/>
      <use x="612.988281" xlink:href="#DejaVuSans-95"/>
      <use x="662.988281" xlink:href="#DejaVuSans-110"/>
      <use x="726.367188" xlink:href="#DejaVuSans-111"/>
      <use x="787.548828" xlink:href="#DejaVuSans-114"/>
      <use x="826.912109" xlink:href="#DejaVuSans-109"/>
     </g>
    </g>
    <g id="line2d_32">
     <path d="M 153 141.765313 
L 173 141.765313 
" style="fill:none;stroke:#9467bd;stroke-dasharray:5.55,2.4;stroke-dashoffset:0;stroke-width:1.5;"/>
    </g>
    <g id="line2d_33"/>
    <g id="text_24">
     <!-- taylorfo_sq_norm -->
     <g transform="translate(181 145.265313)scale(0.1 -0.1)">
      <use xlink:href="#DejaVuSans-116"/>
      <use x="39.208984" xlink:href="#DejaVuSans-97"/>
      <use x="100.488281" xlink:href="#DejaVuSans-121"/>
      <use x="159.667969" xlink:href="#DejaVuSans-108"/>
      <use x="187.451172" xlink:href="#DejaVuSans-111"/>
      <use x="248.632812" xlink:href="#DejaVuSans-114"/>
      <use x="289.746094" xlink:href="#DejaVuSans-102"/>
      <use x="324.951172" xlink:href="#DejaVuSans-111"/>
      <use x="386.132812" xlink:href="#DejaVuSans-95"/>
      <use x="436.132812" xlink:href="#DejaVuSans-115"/>
      <use x="488.232422" xlink:href="#DejaVuSans-113"/>
      <use x="551.708984" xlink:href="#DejaVuSans-95"/>
      <use x="601.708984" xlink:href="#DejaVuSans-110"/>
      <use x="665.087891" xlink:href="#DejaVuSans-111"/>
      <use x="726.269531" xlink:href="#DejaVuSans-114"/>
      <use x="765.632812" xlink:href="#DejaVuSans-109"/>
     </g>
    </g>
    <g id="line2d_34">
     <path d="M 153 156.721563 
L 173 156.721563 
" style="fill:none;stroke:#8c564b;stroke-dasharray:5.55,2.4;stroke-dashoffset:0;stroke-width:1.5;"/>
    </g>
    <g id="line2d_35"/>
    <g id="text_25">
     <!-- Molchanov_group -->
     <defs>
      <path d="M 9.8125 72.90625 
L 24.515625 72.90625 
L 43.109375 23.296875 
L 61.8125 72.90625 
L 76.515625 72.90625 
L 76.515625 0 
L 66.890625 0 
L 66.890625 64.015625 
L 48.09375 14.015625 
L 38.1875 14.015625 
L 19.390625 64.015625 
L 19.390625 0 
L 9.8125 0 
z
" id="DejaVuSans-77"/>
      <path d="M 48.78125 52.59375 
L 48.78125 44.1875 
Q 44.96875 46.296875 41.140625 47.34375 
Q 37.3125 48.390625 33.40625 48.390625 
Q 24.65625 48.390625 19.8125 42.84375 
Q 14.984375 37.3125 14.984375 27.296875 
Q 14.984375 17.28125 19.8125 11.734375 
Q 24.65625 6.203125 33.40625 6.203125 
Q 37.3125 6.203125 41.140625 7.25 
Q 44.96875 8.296875 48.78125 10.40625 
L 48.78125 2.09375 
Q 45.015625 0.34375 40.984375 -0.53125 
Q 36.96875 -1.421875 32.421875 -1.421875 
Q 20.0625 -1.421875 12.78125 6.34375 
Q 5.515625 14.109375 5.515625 27.296875 
Q 5.515625 40.671875 12.859375 48.328125 
Q 20.21875 56 33.015625 56 
Q 37.15625 56 41.109375 55.140625 
Q 45.0625 54.296875 48.78125 52.59375 
z
" id="DejaVuSans-99"/>
      <path d="M 54.890625 33.015625 
L 54.890625 0 
L 45.90625 0 
L 45.90625 32.71875 
Q 45.90625 40.484375 42.875 44.328125 
Q 39.84375 48.1875 33.796875 48.1875 
Q 26.515625 48.1875 22.3125 43.546875 
Q 18.109375 38.921875 18.109375 30.90625 
L 18.109375 0 
L 9.078125 0 
L 9.078125 75.984375 
L 18.109375 75.984375 
L 18.109375 46.1875 
Q 21.34375 51.125 25.703125 53.5625 
Q 30.078125 56 35.796875 56 
Q 45.21875 56 50.046875 50.171875 
Q 54.890625 44.34375 54.890625 33.015625 
z
" id="DejaVuSans-104"/>
      <path d="M 45.40625 27.984375 
Q 45.40625 37.75 41.375 43.109375 
Q 37.359375 48.484375 30.078125 48.484375 
Q 22.859375 48.484375 18.828125 43.109375 
Q 14.796875 37.75 14.796875 27.984375 
Q 14.796875 18.265625 18.828125 12.890625 
Q 22.859375 7.515625 30.078125 7.515625 
Q 37.359375 7.515625 41.375 12.890625 
Q 45.40625 18.265625 45.40625 27.984375 
z
M 54.390625 6.78125 
Q 54.390625 -7.171875 48.1875 -13.984375 
Q 42 -20.796875 29.203125 -20.796875 
Q 24.46875 -20.796875 20.265625 -20.09375 
Q 16.0625 -19.390625 12.109375 -17.921875 
L 12.109375 -9.1875 
Q 16.0625 -11.328125 19.921875 -12.34375 
Q 23.78125 -13.375 27.78125 -13.375 
Q 36.625 -13.375 41.015625 -8.765625 
Q 45.40625 -4.15625 45.40625 5.171875 
L 45.40625 9.625 
Q 42.625 4.78125 38.28125 2.390625 
Q 33.9375 0 27.875 0 
Q 17.828125 0 11.671875 7.65625 
Q 5.515625 15.328125 5.515625 27.984375 
Q 5.515625 40.671875 11.671875 48.328125 
Q 17.828125 56 27.875 56 
Q 33.9375 56 38.28125 53.609375 
Q 42.625 51.21875 45.40625 46.390625 
L 45.40625 54.6875 
L 54.390625 54.6875 
z
" id="DejaVuSans-103"/>
     </defs>
     <g transform="translate(181 160.221563)scale(0.1 -0.1)">
      <use xlink:href="#DejaVuSans-77"/>
      <use x="86.279297" xlink:href="#DejaVuSans-111"/>
      <use x="147.460938" xlink:href="#DejaVuSans-108"/>
      <use x="175.244141" xlink:href="#DejaVuSans-99"/>
      <use x="230.224609" xlink:href="#DejaVuSans-104"/>
      <use x="293.603516" xlink:href="#DejaVuSans-97"/>
      <use x="354.882812" xlink:href="#DejaVuSans-110"/>
      <use x="418.261719" xlink:href="#DejaVuSans-111"/>
      <use x="479.443359" xlink:href="#DejaVuSans-118"/>
      <use x="538.623047" xlink:href="#DejaVuSans-95"/>
      <use x="588.623047" xlink:href="#DejaVuSans-103"/>
      <use x="652.099609" xlink:href="#DejaVuSans-114"/>
      <use x="690.962891" xlink:href="#DejaVuSans-111"/>
      <use x="752.144531" xlink:href="#DejaVuSans-117"/>
      <use x="815.523438" xlink:href="#DejaVuSans-112"/>
     </g>
    </g>
   </g>
  </g>
 </g>
 <defs>
  <clipPath id="p62eaad3d3b">
   <rect height="434.88" width="892.8" x="144" y="69.12"/>
  </clipPath>
 </defs>
</svg>
