<?xml version="1.0" encoding="utf-8" standalone="no"?>
<!DOCTYPE svg PUBLIC "-//W3C//DTD SVG 1.1//EN"
  "http://www.w3.org/Graphics/SVG/1.1/DTD/svg11.dtd">
<!-- Created with matplotlib (https://matplotlib.org/) -->
<svg height="576pt" version="1.1" viewBox="0 0 1152 576" width="1152pt" xmlns="http://www.w3.org/2000/svg" xmlns:xlink="http://www.w3.org/1999/xlink">
 <defs>
  <style type="text/css">
*{stroke-linecap:butt;stroke-linejoin:round;}
  </style>
 </defs>
 <g id="figure_1">
  <g id="patch_1">
   <path d="M 0 576 
L 1152 576 
L 1152 0 
L 0 0 
z
" style="fill:#ffffff;"/>
  </g>
  <g id="axes_1">
   <g id="patch_2">
    <path d="M 144 504 
L 1036.8 504 
L 1036.8 69.12 
L 144 69.12 
z
" style="fill:#ffffff;"/>
   </g>
   <g id="matplotlib.axis_1">
    <g id="xtick_1">
     <g id="line2d_1">
      <defs>
       <path d="M 0 0 
L 0 3.5 
" id="m92b28b9c48" style="stroke:#000000;stroke-width:0.8;"/>
      </defs>
      <g>
       <use style="stroke:#000000;stroke-width:0.8;" x="182.547642" xlink:href="#m92b28b9c48" y="504"/>
      </g>
     </g>
     <g id="text_1">
      <!-- 0 -->
      <defs>
       <path d="M 31.78125 66.40625 
Q 24.171875 66.40625 20.328125 58.90625 
Q 16.5 51.421875 16.5 36.375 
Q 16.5 21.390625 20.328125 13.890625 
Q 24.171875 6.390625 31.78125 6.390625 
Q 39.453125 6.390625 43.28125 13.890625 
Q 47.125 21.390625 47.125 36.375 
Q 47.125 51.421875 43.28125 58.90625 
Q 39.453125 66.40625 31.78125 66.40625 
z
M 31.78125 74.21875 
Q 44.046875 74.21875 50.515625 64.515625 
Q 56.984375 54.828125 56.984375 36.375 
Q 56.984375 17.96875 50.515625 8.265625 
Q 44.046875 -1.421875 31.78125 -1.421875 
Q 19.53125 -1.421875 13.0625 8.265625 
Q 6.59375 17.96875 6.59375 36.375 
Q 6.59375 54.828125 13.0625 64.515625 
Q 19.53125 74.21875 31.78125 74.21875 
z
" id="DejaVuSans-48"/>
      </defs>
      <g transform="translate(179.366392 518.598438)scale(0.1 -0.1)">
       <use xlink:href="#DejaVuSans-48"/>
      </g>
     </g>
    </g>
    <g id="xtick_2">
     <g id="line2d_2">
      <g>
       <use style="stroke:#000000;stroke-width:0.8;" x="284.256459" xlink:href="#m92b28b9c48" y="504"/>
      </g>
     </g>
     <g id="text_2">
      <!-- 50 -->
      <defs>
       <path d="M 10.796875 72.90625 
L 49.515625 72.90625 
L 49.515625 64.59375 
L 19.828125 64.59375 
L 19.828125 46.734375 
Q 21.96875 47.46875 24.109375 47.828125 
Q 26.265625 48.1875 28.421875 48.1875 
Q 40.625 48.1875 47.75 41.5 
Q 54.890625 34.8125 54.890625 23.390625 
Q 54.890625 11.625 47.5625 5.09375 
Q 40.234375 -1.421875 26.90625 -1.421875 
Q 22.3125 -1.421875 17.546875 -0.640625 
Q 12.796875 0.140625 7.71875 1.703125 
L 7.71875 11.625 
Q 12.109375 9.234375 16.796875 8.0625 
Q 21.484375 6.890625 26.703125 6.890625 
Q 35.15625 6.890625 40.078125 11.328125 
Q 45.015625 15.765625 45.015625 23.390625 
Q 45.015625 31 40.078125 35.4375 
Q 35.15625 39.890625 26.703125 39.890625 
Q 22.75 39.890625 18.8125 39.015625 
Q 14.890625 38.140625 10.796875 36.28125 
z
" id="DejaVuSans-53"/>
      </defs>
      <g transform="translate(277.893959 518.598438)scale(0.1 -0.1)">
       <use xlink:href="#DejaVuSans-53"/>
       <use x="63.623047" xlink:href="#DejaVuSans-48"/>
      </g>
     </g>
    </g>
    <g id="xtick_3">
     <g id="line2d_3">
      <g>
       <use style="stroke:#000000;stroke-width:0.8;" x="385.965277" xlink:href="#m92b28b9c48" y="504"/>
      </g>
     </g>
     <g id="text_3">
      <!-- 100 -->
      <defs>
       <path d="M 12.40625 8.296875 
L 28.515625 8.296875 
L 28.515625 63.921875 
L 10.984375 60.40625 
L 10.984375 69.390625 
L 28.421875 72.90625 
L 38.28125 72.90625 
L 38.28125 8.296875 
L 54.390625 8.296875 
L 54.390625 0 
L 12.40625 0 
z
" id="DejaVuSans-49"/>
      </defs>
      <g transform="translate(376.421527 518.598438)scale(0.1 -0.1)">
       <use xlink:href="#DejaVuSans-49"/>
       <use x="63.623047" xlink:href="#DejaVuSans-48"/>
       <use x="127.246094" xlink:href="#DejaVuSans-48"/>
      </g>
     </g>
    </g>
    <g id="xtick_4">
     <g id="line2d_4">
      <g>
       <use style="stroke:#000000;stroke-width:0.8;" x="487.674094" xlink:href="#m92b28b9c48" y="504"/>
      </g>
     </g>
     <g id="text_4">
      <!-- 150 -->
      <g transform="translate(478.130344 518.598438)scale(0.1 -0.1)">
       <use xlink:href="#DejaVuSans-49"/>
       <use x="63.623047" xlink:href="#DejaVuSans-53"/>
       <use x="127.246094" xlink:href="#DejaVuSans-48"/>
      </g>
     </g>
    </g>
    <g id="xtick_5">
     <g id="line2d_5">
      <g>
       <use style="stroke:#000000;stroke-width:0.8;" x="589.382912" xlink:href="#m92b28b9c48" y="504"/>
      </g>
     </g>
     <g id="text_5">
      <!-- 200 -->
      <defs>
       <path d="M 19.1875 8.296875 
L 53.609375 8.296875 
L 53.609375 0 
L 7.328125 0 
L 7.328125 8.296875 
Q 12.9375 14.109375 22.625 23.890625 
Q 32.328125 33.6875 34.8125 36.53125 
Q 39.546875 41.84375 41.421875 45.53125 
Q 43.3125 49.21875 43.3125 52.78125 
Q 43.3125 58.59375 39.234375 62.25 
Q 35.15625 65.921875 28.609375 65.921875 
Q 23.96875 65.921875 18.8125 64.3125 
Q 13.671875 62.703125 7.8125 59.421875 
L 7.8125 69.390625 
Q 13.765625 71.78125 18.9375 73 
Q 24.125 74.21875 28.421875 74.21875 
Q 39.75 74.21875 46.484375 68.546875 
Q 53.21875 62.890625 53.21875 53.421875 
Q 53.21875 48.921875 51.53125 44.890625 
Q 49.859375 40.875 45.40625 35.40625 
Q 44.1875 33.984375 37.640625 27.21875 
Q 31.109375 20.453125 19.1875 8.296875 
z
" id="DejaVuSans-50"/>
      </defs>
      <g transform="translate(579.839162 518.598438)scale(0.1 -0.1)">
       <use xlink:href="#DejaVuSans-50"/>
       <use x="63.623047" xlink:href="#DejaVuSans-48"/>
       <use x="127.246094" xlink:href="#DejaVuSans-48"/>
      </g>
     </g>
    </g>
    <g id="xtick_6">
     <g id="line2d_6">
      <g>
       <use style="stroke:#000000;stroke-width:0.8;" x="691.091729" xlink:href="#m92b28b9c48" y="504"/>
      </g>
     </g>
     <g id="text_6">
      <!-- 250 -->
      <g transform="translate(681.547979 518.598438)scale(0.1 -0.1)">
       <use xlink:href="#DejaVuSans-50"/>
       <use x="63.623047" xlink:href="#DejaVuSans-53"/>
       <use x="127.246094" xlink:href="#DejaVuSans-48"/>
      </g>
     </g>
    </g>
    <g id="xtick_7">
     <g id="line2d_7">
      <g>
       <use style="stroke:#000000;stroke-width:0.8;" x="792.800547" xlink:href="#m92b28b9c48" y="504"/>
      </g>
     </g>
     <g id="text_7">
      <!-- 300 -->
      <defs>
       <path d="M 40.578125 39.3125 
Q 47.65625 37.796875 51.625 33 
Q 55.609375 28.21875 55.609375 21.1875 
Q 55.609375 10.40625 48.1875 4.484375 
Q 40.765625 -1.421875 27.09375 -1.421875 
Q 22.515625 -1.421875 17.65625 -0.515625 
Q 12.796875 0.390625 7.625 2.203125 
L 7.625 11.71875 
Q 11.71875 9.328125 16.59375 8.109375 
Q 21.484375 6.890625 26.8125 6.890625 
Q 36.078125 6.890625 40.9375 10.546875 
Q 45.796875 14.203125 45.796875 21.1875 
Q 45.796875 27.640625 41.28125 31.265625 
Q 36.765625 34.90625 28.71875 34.90625 
L 20.21875 34.90625 
L 20.21875 43.015625 
L 29.109375 43.015625 
Q 36.375 43.015625 40.234375 45.921875 
Q 44.09375 48.828125 44.09375 54.296875 
Q 44.09375 59.90625 40.109375 62.90625 
Q 36.140625 65.921875 28.71875 65.921875 
Q 24.65625 65.921875 20.015625 65.03125 
Q 15.375 64.15625 9.8125 62.3125 
L 9.8125 71.09375 
Q 15.4375 72.65625 20.34375 73.4375 
Q 25.25 74.21875 29.59375 74.21875 
Q 40.828125 74.21875 47.359375 69.109375 
Q 53.90625 64.015625 53.90625 55.328125 
Q 53.90625 49.265625 50.4375 45.09375 
Q 46.96875 40.921875 40.578125 39.3125 
z
" id="DejaVuSans-51"/>
      </defs>
      <g transform="translate(783.256797 518.598438)scale(0.1 -0.1)">
       <use xlink:href="#DejaVuSans-51"/>
       <use x="63.623047" xlink:href="#DejaVuSans-48"/>
       <use x="127.246094" xlink:href="#DejaVuSans-48"/>
      </g>
     </g>
    </g>
    <g id="xtick_8">
     <g id="line2d_8">
      <g>
       <use style="stroke:#000000;stroke-width:0.8;" x="894.509364" xlink:href="#m92b28b9c48" y="504"/>
      </g>
     </g>
     <g id="text_8">
      <!-- 350 -->
      <g transform="translate(884.965614 518.598438)scale(0.1 -0.1)">
       <use xlink:href="#DejaVuSans-51"/>
       <use x="63.623047" xlink:href="#DejaVuSans-53"/>
       <use x="127.246094" xlink:href="#DejaVuSans-48"/>
      </g>
     </g>
    </g>
    <g id="xtick_9">
     <g id="line2d_9">
      <g>
       <use style="stroke:#000000;stroke-width:0.8;" x="996.218182" xlink:href="#m92b28b9c48" y="504"/>
      </g>
     </g>
     <g id="text_9">
      <!-- 400 -->
      <defs>
       <path d="M 37.796875 64.3125 
L 12.890625 25.390625 
L 37.796875 25.390625 
z
M 35.203125 72.90625 
L 47.609375 72.90625 
L 47.609375 25.390625 
L 58.015625 25.390625 
L 58.015625 17.1875 
L 47.609375 17.1875 
L 47.609375 0 
L 37.796875 0 
L 37.796875 17.1875 
L 4.890625 17.1875 
L 4.890625 26.703125 
z
" id="DejaVuSans-52"/>
      </defs>
      <g transform="translate(986.674432 518.598438)scale(0.1 -0.1)">
       <use xlink:href="#DejaVuSans-52"/>
       <use x="63.623047" xlink:href="#DejaVuSans-48"/>
       <use x="127.246094" xlink:href="#DejaVuSans-48"/>
      </g>
     </g>
    </g>
    <g id="text_10">
     <!-- Number of Neurons pruned -->
     <defs>
      <path d="M 9.8125 72.90625 
L 23.09375 72.90625 
L 55.421875 11.921875 
L 55.421875 72.90625 
L 64.984375 72.90625 
L 64.984375 0 
L 51.703125 0 
L 19.390625 60.984375 
L 19.390625 0 
L 9.8125 0 
z
" id="DejaVuSans-78"/>
      <path d="M 8.5 21.578125 
L 8.5 54.6875 
L 17.484375 54.6875 
L 17.484375 21.921875 
Q 17.484375 14.15625 20.5 10.265625 
Q 23.53125 6.390625 29.59375 6.390625 
Q 36.859375 6.390625 41.078125 11.03125 
Q 45.3125 15.671875 45.3125 23.6875 
L 45.3125 54.6875 
L 54.296875 54.6875 
L 54.296875 0 
L 45.3125 0 
L 45.3125 8.40625 
Q 42.046875 3.421875 37.71875 1 
Q 33.40625 -1.421875 27.6875 -1.421875 
Q 18.265625 -1.421875 13.375 4.4375 
Q 8.5 10.296875 8.5 21.578125 
z
M 31.109375 56 
z
" id="DejaVuSans-117"/>
      <path d="M 52 44.1875 
Q 55.375 50.25 60.0625 53.125 
Q 64.75 56 71.09375 56 
Q 79.640625 56 84.28125 50.015625 
Q 88.921875 44.046875 88.921875 33.015625 
L 88.921875 0 
L 79.890625 0 
L 79.890625 32.71875 
Q 79.890625 40.578125 77.09375 44.375 
Q 74.3125 48.1875 68.609375 48.1875 
Q 61.625 48.1875 57.5625 43.546875 
Q 53.515625 38.921875 53.515625 30.90625 
L 53.515625 0 
L 44.484375 0 
L 44.484375 32.71875 
Q 44.484375 40.625 41.703125 44.40625 
Q 38.921875 48.1875 33.109375 48.1875 
Q 26.21875 48.1875 22.15625 43.53125 
Q 18.109375 38.875 18.109375 30.90625 
L 18.109375 0 
L 9.078125 0 
L 9.078125 54.6875 
L 18.109375 54.6875 
L 18.109375 46.1875 
Q 21.1875 51.21875 25.484375 53.609375 
Q 29.78125 56 35.6875 56 
Q 41.65625 56 45.828125 52.96875 
Q 50 49.953125 52 44.1875 
z
" id="DejaVuSans-109"/>
      <path d="M 48.6875 27.296875 
Q 48.6875 37.203125 44.609375 42.84375 
Q 40.53125 48.484375 33.40625 48.484375 
Q 26.265625 48.484375 22.1875 42.84375 
Q 18.109375 37.203125 18.109375 27.296875 
Q 18.109375 17.390625 22.1875 11.75 
Q 26.265625 6.109375 33.40625 6.109375 
Q 40.53125 6.109375 44.609375 11.75 
Q 48.6875 17.390625 48.6875 27.296875 
z
M 18.109375 46.390625 
Q 20.953125 51.265625 25.265625 53.625 
Q 29.59375 56 35.59375 56 
Q 45.5625 56 51.78125 48.09375 
Q 58.015625 40.1875 58.015625 27.296875 
Q 58.015625 14.40625 51.78125 6.484375 
Q 45.5625 -1.421875 35.59375 -1.421875 
Q 29.59375 -1.421875 25.265625 0.953125 
Q 20.953125 3.328125 18.109375 8.203125 
L 18.109375 0 
L 9.078125 0 
L 9.078125 75.984375 
L 18.109375 75.984375 
z
" id="DejaVuSans-98"/>
      <path d="M 56.203125 29.59375 
L 56.203125 25.203125 
L 14.890625 25.203125 
Q 15.484375 15.921875 20.484375 11.0625 
Q 25.484375 6.203125 34.421875 6.203125 
Q 39.59375 6.203125 44.453125 7.46875 
Q 49.3125 8.734375 54.109375 11.28125 
L 54.109375 2.78125 
Q 49.265625 0.734375 44.1875 -0.34375 
Q 39.109375 -1.421875 33.890625 -1.421875 
Q 20.796875 -1.421875 13.15625 6.1875 
Q 5.515625 13.8125 5.515625 26.8125 
Q 5.515625 40.234375 12.765625 48.109375 
Q 20.015625 56 32.328125 56 
Q 43.359375 56 49.78125 48.890625 
Q 56.203125 41.796875 56.203125 29.59375 
z
M 47.21875 32.234375 
Q 47.125 39.59375 43.09375 43.984375 
Q 39.0625 48.390625 32.421875 48.390625 
Q 24.90625 48.390625 20.390625 44.140625 
Q 15.875 39.890625 15.1875 32.171875 
z
" id="DejaVuSans-101"/>
      <path d="M 41.109375 46.296875 
Q 39.59375 47.171875 37.8125 47.578125 
Q 36.03125 48 33.890625 48 
Q 26.265625 48 22.1875 43.046875 
Q 18.109375 38.09375 18.109375 28.8125 
L 18.109375 0 
L 9.078125 0 
L 9.078125 54.6875 
L 18.109375 54.6875 
L 18.109375 46.1875 
Q 20.953125 51.171875 25.484375 53.578125 
Q 30.03125 56 36.53125 56 
Q 37.453125 56 38.578125 55.875 
Q 39.703125 55.765625 41.0625 55.515625 
z
" id="DejaVuSans-114"/>
      <path id="DejaVuSans-32"/>
      <path d="M 30.609375 48.390625 
Q 23.390625 48.390625 19.1875 42.75 
Q 14.984375 37.109375 14.984375 27.296875 
Q 14.984375 17.484375 19.15625 11.84375 
Q 23.34375 6.203125 30.609375 6.203125 
Q 37.796875 6.203125 41.984375 11.859375 
Q 46.1875 17.53125 46.1875 27.296875 
Q 46.1875 37.015625 41.984375 42.703125 
Q 37.796875 48.390625 30.609375 48.390625 
z
M 30.609375 56 
Q 42.328125 56 49.015625 48.375 
Q 55.71875 40.765625 55.71875 27.296875 
Q 55.71875 13.875 49.015625 6.21875 
Q 42.328125 -1.421875 30.609375 -1.421875 
Q 18.84375 -1.421875 12.171875 6.21875 
Q 5.515625 13.875 5.515625 27.296875 
Q 5.515625 40.765625 12.171875 48.375 
Q 18.84375 56 30.609375 56 
z
" id="DejaVuSans-111"/>
      <path d="M 37.109375 75.984375 
L 37.109375 68.5 
L 28.515625 68.5 
Q 23.6875 68.5 21.796875 66.546875 
Q 19.921875 64.59375 19.921875 59.515625 
L 19.921875 54.6875 
L 34.71875 54.6875 
L 34.71875 47.703125 
L 19.921875 47.703125 
L 19.921875 0 
L 10.890625 0 
L 10.890625 47.703125 
L 2.296875 47.703125 
L 2.296875 54.6875 
L 10.890625 54.6875 
L 10.890625 58.5 
Q 10.890625 67.625 15.140625 71.796875 
Q 19.390625 75.984375 28.609375 75.984375 
z
" id="DejaVuSans-102"/>
      <path d="M 54.890625 33.015625 
L 54.890625 0 
L 45.90625 0 
L 45.90625 32.71875 
Q 45.90625 40.484375 42.875 44.328125 
Q 39.84375 48.1875 33.796875 48.1875 
Q 26.515625 48.1875 22.3125 43.546875 
Q 18.109375 38.921875 18.109375 30.90625 
L 18.109375 0 
L 9.078125 0 
L 9.078125 54.6875 
L 18.109375 54.6875 
L 18.109375 46.1875 
Q 21.34375 51.125 25.703125 53.5625 
Q 30.078125 56 35.796875 56 
Q 45.21875 56 50.046875 50.171875 
Q 54.890625 44.34375 54.890625 33.015625 
z
" id="DejaVuSans-110"/>
      <path d="M 44.28125 53.078125 
L 44.28125 44.578125 
Q 40.484375 46.53125 36.375 47.5 
Q 32.28125 48.484375 27.875 48.484375 
Q 21.1875 48.484375 17.84375 46.4375 
Q 14.5 44.390625 14.5 40.28125 
Q 14.5 37.15625 16.890625 35.375 
Q 19.28125 33.59375 26.515625 31.984375 
L 29.59375 31.296875 
Q 39.15625 29.25 43.1875 25.515625 
Q 47.21875 21.78125 47.21875 15.09375 
Q 47.21875 7.46875 41.1875 3.015625 
Q 35.15625 -1.421875 24.609375 -1.421875 
Q 20.21875 -1.421875 15.453125 -0.5625 
Q 10.6875 0.296875 5.421875 2 
L 5.421875 11.28125 
Q 10.40625 8.6875 15.234375 7.390625 
Q 20.0625 6.109375 24.8125 6.109375 
Q 31.15625 6.109375 34.5625 8.28125 
Q 37.984375 10.453125 37.984375 14.40625 
Q 37.984375 18.0625 35.515625 20.015625 
Q 33.0625 21.96875 24.703125 23.78125 
L 21.578125 24.515625 
Q 13.234375 26.265625 9.515625 29.90625 
Q 5.8125 33.546875 5.8125 39.890625 
Q 5.8125 47.609375 11.28125 51.796875 
Q 16.75 56 26.8125 56 
Q 31.78125 56 36.171875 55.265625 
Q 40.578125 54.546875 44.28125 53.078125 
z
" id="DejaVuSans-115"/>
      <path d="M 18.109375 8.203125 
L 18.109375 -20.796875 
L 9.078125 -20.796875 
L 9.078125 54.6875 
L 18.109375 54.6875 
L 18.109375 46.390625 
Q 20.953125 51.265625 25.265625 53.625 
Q 29.59375 56 35.59375 56 
Q 45.5625 56 51.78125 48.09375 
Q 58.015625 40.1875 58.015625 27.296875 
Q 58.015625 14.40625 51.78125 6.484375 
Q 45.5625 -1.421875 35.59375 -1.421875 
Q 29.59375 -1.421875 25.265625 0.953125 
Q 20.953125 3.328125 18.109375 8.203125 
z
M 48.6875 27.296875 
Q 48.6875 37.203125 44.609375 42.84375 
Q 40.53125 48.484375 33.40625 48.484375 
Q 26.265625 48.484375 22.1875 42.84375 
Q 18.109375 37.203125 18.109375 27.296875 
Q 18.109375 17.390625 22.1875 11.75 
Q 26.265625 6.109375 33.40625 6.109375 
Q 40.53125 6.109375 44.609375 11.75 
Q 48.6875 17.390625 48.6875 27.296875 
z
" id="DejaVuSans-112"/>
      <path d="M 45.40625 46.390625 
L 45.40625 75.984375 
L 54.390625 75.984375 
L 54.390625 0 
L 45.40625 0 
L 45.40625 8.203125 
Q 42.578125 3.328125 38.25 0.953125 
Q 33.9375 -1.421875 27.875 -1.421875 
Q 17.96875 -1.421875 11.734375 6.484375 
Q 5.515625 14.40625 5.515625 27.296875 
Q 5.515625 40.1875 11.734375 48.09375 
Q 17.96875 56 27.875 56 
Q 33.9375 56 38.25 53.625 
Q 42.578125 51.265625 45.40625 46.390625 
z
M 14.796875 27.296875 
Q 14.796875 17.390625 18.875 11.75 
Q 22.953125 6.109375 30.078125 6.109375 
Q 37.203125 6.109375 41.296875 11.75 
Q 45.40625 17.390625 45.40625 27.296875 
Q 45.40625 37.203125 41.296875 42.84375 
Q 37.203125 48.484375 30.078125 48.484375 
Q 22.953125 48.484375 18.875 42.84375 
Q 14.796875 37.203125 14.796875 27.296875 
z
" id="DejaVuSans-100"/>
     </defs>
     <g transform="translate(522.147656 532.276562)scale(0.1 -0.1)">
      <use xlink:href="#DejaVuSans-78"/>
      <use x="74.804688" xlink:href="#DejaVuSans-117"/>
      <use x="138.183594" xlink:href="#DejaVuSans-109"/>
      <use x="235.595703" xlink:href="#DejaVuSans-98"/>
      <use x="299.072266" xlink:href="#DejaVuSans-101"/>
      <use x="360.595703" xlink:href="#DejaVuSans-114"/>
      <use x="401.708984" xlink:href="#DejaVuSans-32"/>
      <use x="433.496094" xlink:href="#DejaVuSans-111"/>
      <use x="494.677734" xlink:href="#DejaVuSans-102"/>
      <use x="529.882812" xlink:href="#DejaVuSans-32"/>
      <use x="561.669922" xlink:href="#DejaVuSans-78"/>
      <use x="636.474609" xlink:href="#DejaVuSans-101"/>
      <use x="697.998047" xlink:href="#DejaVuSans-117"/>
      <use x="761.376953" xlink:href="#DejaVuSans-114"/>
      <use x="800.240234" xlink:href="#DejaVuSans-111"/>
      <use x="861.421875" xlink:href="#DejaVuSans-110"/>
      <use x="924.800781" xlink:href="#DejaVuSans-115"/>
      <use x="976.900391" xlink:href="#DejaVuSans-32"/>
      <use x="1008.6875" xlink:href="#DejaVuSans-112"/>
      <use x="1072.164062" xlink:href="#DejaVuSans-114"/>
      <use x="1113.277344" xlink:href="#DejaVuSans-117"/>
      <use x="1176.65625" xlink:href="#DejaVuSans-110"/>
      <use x="1240.035156" xlink:href="#DejaVuSans-101"/>
      <use x="1301.558594" xlink:href="#DejaVuSans-100"/>
     </g>
    </g>
   </g>
   <g id="matplotlib.axis_2">
    <g id="ytick_1">
     <g id="line2d_10">
      <defs>
       <path d="M 0 0 
L -3.5 0 
" id="m8b2d6cd2e8" style="stroke:#000000;stroke-width:0.8;"/>
      </defs>
      <g>
       <use style="stroke:#000000;stroke-width:0.8;" x="144" xlink:href="#m8b2d6cd2e8" y="423.308775"/>
      </g>
     </g>
     <g id="text_11">
      <!-- 0.2 -->
      <defs>
       <path d="M 10.6875 12.40625 
L 21 12.40625 
L 21 0 
L 10.6875 0 
z
" id="DejaVuSans-46"/>
      </defs>
      <g transform="translate(121.096875 427.107994)scale(0.1 -0.1)">
       <use xlink:href="#DejaVuSans-48"/>
       <use x="63.623047" xlink:href="#DejaVuSans-46"/>
       <use x="95.410156" xlink:href="#DejaVuSans-50"/>
      </g>
     </g>
    </g>
    <g id="ytick_2">
     <g id="line2d_11">
      <g>
       <use style="stroke:#000000;stroke-width:0.8;" x="144" xlink:href="#m8b2d6cd2e8" y="335.763879"/>
      </g>
     </g>
     <g id="text_12">
      <!-- 0.4 -->
      <g transform="translate(121.096875 339.563098)scale(0.1 -0.1)">
       <use xlink:href="#DejaVuSans-48"/>
       <use x="63.623047" xlink:href="#DejaVuSans-46"/>
       <use x="95.410156" xlink:href="#DejaVuSans-52"/>
      </g>
     </g>
    </g>
    <g id="ytick_3">
     <g id="line2d_12">
      <g>
       <use style="stroke:#000000;stroke-width:0.8;" x="144" xlink:href="#m8b2d6cd2e8" y="248.218983"/>
      </g>
     </g>
     <g id="text_13">
      <!-- 0.6 -->
      <defs>
       <path d="M 33.015625 40.375 
Q 26.375 40.375 22.484375 35.828125 
Q 18.609375 31.296875 18.609375 23.390625 
Q 18.609375 15.53125 22.484375 10.953125 
Q 26.375 6.390625 33.015625 6.390625 
Q 39.65625 6.390625 43.53125 10.953125 
Q 47.40625 15.53125 47.40625 23.390625 
Q 47.40625 31.296875 43.53125 35.828125 
Q 39.65625 40.375 33.015625 40.375 
z
M 52.59375 71.296875 
L 52.59375 62.3125 
Q 48.875 64.0625 45.09375 64.984375 
Q 41.3125 65.921875 37.59375 65.921875 
Q 27.828125 65.921875 22.671875 59.328125 
Q 17.53125 52.734375 16.796875 39.40625 
Q 19.671875 43.65625 24.015625 45.921875 
Q 28.375 48.1875 33.59375 48.1875 
Q 44.578125 48.1875 50.953125 41.515625 
Q 57.328125 34.859375 57.328125 23.390625 
Q 57.328125 12.15625 50.6875 5.359375 
Q 44.046875 -1.421875 33.015625 -1.421875 
Q 20.359375 -1.421875 13.671875 8.265625 
Q 6.984375 17.96875 6.984375 36.375 
Q 6.984375 53.65625 15.1875 63.9375 
Q 23.390625 74.21875 37.203125 74.21875 
Q 40.921875 74.21875 44.703125 73.484375 
Q 48.484375 72.75 52.59375 71.296875 
z
" id="DejaVuSans-54"/>
      </defs>
      <g transform="translate(121.096875 252.018202)scale(0.1 -0.1)">
       <use xlink:href="#DejaVuSans-48"/>
       <use x="63.623047" xlink:href="#DejaVuSans-46"/>
       <use x="95.410156" xlink:href="#DejaVuSans-54"/>
      </g>
     </g>
    </g>
    <g id="ytick_4">
     <g id="line2d_13">
      <g>
       <use style="stroke:#000000;stroke-width:0.8;" x="144" xlink:href="#m8b2d6cd2e8" y="160.674087"/>
      </g>
     </g>
     <g id="text_14">
      <!-- 0.8 -->
      <defs>
       <path d="M 31.78125 34.625 
Q 24.75 34.625 20.71875 30.859375 
Q 16.703125 27.09375 16.703125 20.515625 
Q 16.703125 13.921875 20.71875 10.15625 
Q 24.75 6.390625 31.78125 6.390625 
Q 38.8125 6.390625 42.859375 10.171875 
Q 46.921875 13.96875 46.921875 20.515625 
Q 46.921875 27.09375 42.890625 30.859375 
Q 38.875 34.625 31.78125 34.625 
z
M 21.921875 38.8125 
Q 15.578125 40.375 12.03125 44.71875 
Q 8.5 49.078125 8.5 55.328125 
Q 8.5 64.0625 14.71875 69.140625 
Q 20.953125 74.21875 31.78125 74.21875 
Q 42.671875 74.21875 48.875 69.140625 
Q 55.078125 64.0625 55.078125 55.328125 
Q 55.078125 49.078125 51.53125 44.71875 
Q 48 40.375 41.703125 38.8125 
Q 48.828125 37.15625 52.796875 32.3125 
Q 56.78125 27.484375 56.78125 20.515625 
Q 56.78125 9.90625 50.3125 4.234375 
Q 43.84375 -1.421875 31.78125 -1.421875 
Q 19.734375 -1.421875 13.25 4.234375 
Q 6.78125 9.90625 6.78125 20.515625 
Q 6.78125 27.484375 10.78125 32.3125 
Q 14.796875 37.15625 21.921875 38.8125 
z
M 18.3125 54.390625 
Q 18.3125 48.734375 21.84375 45.5625 
Q 25.390625 42.390625 31.78125 42.390625 
Q 38.140625 42.390625 41.71875 45.5625 
Q 45.3125 48.734375 45.3125 54.390625 
Q 45.3125 60.0625 41.71875 63.234375 
Q 38.140625 66.40625 31.78125 66.40625 
Q 25.390625 66.40625 21.84375 63.234375 
Q 18.3125 60.0625 18.3125 54.390625 
z
" id="DejaVuSans-56"/>
      </defs>
      <g transform="translate(121.096875 164.473306)scale(0.1 -0.1)">
       <use xlink:href="#DejaVuSans-48"/>
       <use x="63.623047" xlink:href="#DejaVuSans-46"/>
       <use x="95.410156" xlink:href="#DejaVuSans-56"/>
      </g>
     </g>
    </g>
    <g id="ytick_5">
     <g id="line2d_14">
      <g>
       <use style="stroke:#000000;stroke-width:0.8;" x="144" xlink:href="#m8b2d6cd2e8" y="73.129191"/>
      </g>
     </g>
     <g id="text_15">
      <!-- 1.0 -->
      <g transform="translate(121.096875 76.92841)scale(0.1 -0.1)">
       <use xlink:href="#DejaVuSans-49"/>
       <use x="63.623047" xlink:href="#DejaVuSans-46"/>
       <use x="95.410156" xlink:href="#DejaVuSans-48"/>
      </g>
     </g>
    </g>
    <g id="text_16">
     <!-- Accuracy -->
     <defs>
      <path d="M 34.1875 63.1875 
L 20.796875 26.90625 
L 47.609375 26.90625 
z
M 28.609375 72.90625 
L 39.796875 72.90625 
L 67.578125 0 
L 57.328125 0 
L 50.6875 18.703125 
L 17.828125 18.703125 
L 11.1875 0 
L 0.78125 0 
z
" id="DejaVuSans-65"/>
      <path d="M 48.78125 52.59375 
L 48.78125 44.1875 
Q 44.96875 46.296875 41.140625 47.34375 
Q 37.3125 48.390625 33.40625 48.390625 
Q 24.65625 48.390625 19.8125 42.84375 
Q 14.984375 37.3125 14.984375 27.296875 
Q 14.984375 17.28125 19.8125 11.734375 
Q 24.65625 6.203125 33.40625 6.203125 
Q 37.3125 6.203125 41.140625 7.25 
Q 44.96875 8.296875 48.78125 10.40625 
L 48.78125 2.09375 
Q 45.015625 0.34375 40.984375 -0.53125 
Q 36.96875 -1.421875 32.421875 -1.421875 
Q 20.0625 -1.421875 12.78125 6.34375 
Q 5.515625 14.109375 5.515625 27.296875 
Q 5.515625 40.671875 12.859375 48.328125 
Q 20.21875 56 33.015625 56 
Q 37.15625 56 41.109375 55.140625 
Q 45.0625 54.296875 48.78125 52.59375 
z
" id="DejaVuSans-99"/>
      <path d="M 34.28125 27.484375 
Q 23.390625 27.484375 19.1875 25 
Q 14.984375 22.515625 14.984375 16.5 
Q 14.984375 11.71875 18.140625 8.90625 
Q 21.296875 6.109375 26.703125 6.109375 
Q 34.1875 6.109375 38.703125 11.40625 
Q 43.21875 16.703125 43.21875 25.484375 
L 43.21875 27.484375 
z
M 52.203125 31.203125 
L 52.203125 0 
L 43.21875 0 
L 43.21875 8.296875 
Q 40.140625 3.328125 35.546875 0.953125 
Q 30.953125 -1.421875 24.3125 -1.421875 
Q 15.921875 -1.421875 10.953125 3.296875 
Q 6 8.015625 6 15.921875 
Q 6 25.140625 12.171875 29.828125 
Q 18.359375 34.515625 30.609375 34.515625 
L 43.21875 34.515625 
L 43.21875 35.40625 
Q 43.21875 41.609375 39.140625 45 
Q 35.0625 48.390625 27.6875 48.390625 
Q 23 48.390625 18.546875 47.265625 
Q 14.109375 46.140625 10.015625 43.890625 
L 10.015625 52.203125 
Q 14.9375 54.109375 19.578125 55.046875 
Q 24.21875 56 28.609375 56 
Q 40.484375 56 46.34375 49.84375 
Q 52.203125 43.703125 52.203125 31.203125 
z
" id="DejaVuSans-97"/>
      <path d="M 32.171875 -5.078125 
Q 28.375 -14.84375 24.75 -17.8125 
Q 21.140625 -20.796875 15.09375 -20.796875 
L 7.90625 -20.796875 
L 7.90625 -13.28125 
L 13.1875 -13.28125 
Q 16.890625 -13.28125 18.9375 -11.515625 
Q 21 -9.765625 23.484375 -3.21875 
L 25.09375 0.875 
L 2.984375 54.6875 
L 12.5 54.6875 
L 29.59375 11.921875 
L 46.6875 54.6875 
L 56.203125 54.6875 
z
" id="DejaVuSans-121"/>
     </defs>
     <g transform="translate(115.017187 309.388125)rotate(-90)scale(0.1 -0.1)">
      <use xlink:href="#DejaVuSans-65"/>
      <use x="66.658203" xlink:href="#DejaVuSans-99"/>
      <use x="121.638672" xlink:href="#DejaVuSans-99"/>
      <use x="176.619141" xlink:href="#DejaVuSans-117"/>
      <use x="239.998047" xlink:href="#DejaVuSans-114"/>
      <use x="281.111328" xlink:href="#DejaVuSans-97"/>
      <use x="342.390625" xlink:href="#DejaVuSans-99"/>
      <use x="397.371094" xlink:href="#DejaVuSans-121"/>
     </g>
    </g>
   </g>
   <g id="line2d_15">
    <path clip-path="url(#pa2e8b68c2d)" d="M 184.581818 88.945636 
L 265.948872 88.945636 
L 267.983049 89.740835 
L 270.017225 90.076424 
L 272.051401 89.981584 
L 274.085578 90.550626 
L 276.119754 91.681414 
L 280.188107 92.739248 
L 282.222283 93.125905 
L 286.290636 98.2181 
L 288.324812 99.47291 
L 290.358988 102.15762 
L 292.393165 104.003358 
L 294.427341 105.075783 
L 296.461517 109.547868 
L 298.495694 107.950174 
L 302.564046 114.180452 
L 304.598223 115.427967 
L 306.632399 112.859983 
L 308.666576 113.275822 
L 310.700752 111.291471 
L 312.734928 112.867279 
L 314.769105 119.15592 
L 316.803281 131.543523 
L 318.837457 162.308259 
L 320.871634 176.804234 
L 322.90581 219.832551 
L 324.939986 211.902442 
L 326.974163 219.000874 
L 333.076692 259.008892 
L 335.110868 270.375137 
L 337.145044 279.355785 
L 339.179221 276.576234 
L 341.213397 287.32237 
L 343.247573 278.494926 
L 345.28175 272.111444 
L 347.315926 273.125506 
L 349.350103 274.424089 
L 351.384279 283.740325 
L 353.418455 295.537 
L 355.452632 287.519346 
L 357.486808 285.075384 
L 359.520984 301.935072 
L 363.589337 329.146944 
L 365.623513 338.652861 
L 367.65769 314.665559 
L 369.691866 332.196425 
L 371.726042 341.330276 
L 373.760219 333.407462 
L 375.794395 323.996386 
L 377.828571 327.658681 
L 379.862748 325.754579 
L 381.896924 319.735868 
L 383.9311 321.939081 
L 385.965277 316.912545 
L 387.999453 314.023563 
L 390.03363 325.958851 
L 392.067806 342.395405 
L 394.101982 335.479358 
L 396.136159 335.041634 
L 398.170335 332.02863 
L 400.204511 337.930615 
L 402.238688 326.586256 
L 404.272864 341.337571 
L 406.30704 342.016044 
L 408.341217 344.868548 
L 410.375393 345.853428 
L 412.409569 347.21767 
L 414.443746 336.529897 
L 416.477922 336.551783 
L 418.512098 333.888959 
L 420.546275 319.976616 
L 422.580451 327.600318 
L 426.648804 349.165544 
L 428.68298 350.974805 
L 430.717157 369.184143 
L 432.751333 373.327935 
L 434.785509 387.006825 
L 436.819686 386.430488 
L 438.853862 381.856267 
L 440.888038 377.814611 
L 442.922215 361.677168 
L 444.956391 367.776129 
L 446.990567 369.111189 
L 449.024744 362.990342 
L 451.05892 360.342109 
L 453.093096 363.741769 
L 457.161449 369.330051 
L 459.195625 365.602098 
L 461.229802 421.404674 
L 463.263978 421.579763 
L 465.298154 418.223876 
L 467.332331 417.465153 
L 469.366507 420.762678 
L 471.400684 418.858576 
L 473.43486 414.386491 
L 475.469036 421.222288 
L 477.503213 421.054494 
L 479.537389 423.389025 
L 481.571565 425.409853 
L 483.605742 434.988723 
L 485.639918 436.396737 
L 487.674094 438.826108 
L 489.708271 448.288252 
L 491.742447 447.2596 
L 493.776623 451.863002 
L 495.8108 453.322084 
L 497.844976 453.234539 
L 499.879152 451.987024 
L 501.913329 460.405925 
L 503.947505 462.361094 
L 505.981681 461.609667 
L 508.015858 460.31838 
L 510.050034 462.711274 
L 512.084211 463.528359 
L 514.118387 465.505415 
L 516.152563 469.065574 
L 518.18674 469.269845 
L 520.220916 468.970734 
L 522.255092 469.299027 
L 526.323445 468.934257 
L 528.357621 468.314147 
L 530.391798 467.810764 
L 532.425974 466.410046 
L 536.494327 465.541892 
L 538.528503 466.490295 
L 540.562679 467.059337 
L 542.596856 466.913429 
L 544.631032 467.445993 
L 546.665208 467.416812 
L 548.699385 469.036392 
L 550.733561 468.970734 
L 552.767738 469.240664 
L 556.83609 469.08746 
L 558.870267 468.72269 
L 560.904443 468.525714 
L 562.938619 468.095285 
L 564.972796 468.948848 
L 567.006972 468.160943 
L 569.041148 467.694037 
L 571.075325 467.65756 
L 573.109501 466.709157 
L 575.143677 467.642969 
L 577.177854 469.247959 
L 579.21203 469.131233 
L 581.246206 468.766462 
L 583.280383 468.795644 
L 585.314559 468.357919 
L 589.382912 468.343329 
L 591.417088 464.812351 
L 593.451265 462.755046 
L 595.485441 466.023389 
L 597.519617 461.770166 
L 599.553794 458.07869 
L 601.58797 457.305376 
L 603.622146 457.495057 
L 605.656323 457.37833 
L 607.690499 452.760337 
L 609.724675 458.757163 
L 611.758852 461.237601 
L 613.793028 457.290786 
L 615.827204 457.290786 
L 617.861381 457.057332 
L 619.895557 455.40857 
L 621.929733 458.107871 
L 623.96391 457.349149 
L 625.998086 454.555008 
L 628.032262 453.037563 
L 630.066439 454.569598 
L 632.100615 459.690975 
L 634.134792 462.755046 
L 636.168968 464.571603 
L 638.203144 464.571603 
L 640.237321 466.570545 
L 642.271497 466.636203 
L 644.305673 466.016094 
L 646.33985 463.389747 
L 648.374026 462.025505 
L 650.408202 460.996853 
L 652.442379 460.442402 
L 654.476555 459.282432 
L 656.510731 461.098989 
L 658.544908 459.092751 
L 660.579084 456.094339 
L 662.61326 456.444518 
L 664.647437 455.160526 
L 666.681613 453.679559 
L 668.715789 460.777991 
L 670.749966 464.155764 
L 672.784142 461.040625 
L 674.818319 461.828529 
L 676.852495 459.895246 
L 678.886671 459.909837 
L 680.920848 462.550775 
L 682.955024 468.489237 
L 684.9892 467.847241 
L 687.023377 466.096343 
L 689.057553 468.956143 
L 691.091729 469.561662 
L 693.125906 470.437111 
L 695.160082 470.043159 
L 697.194258 470.035863 
L 699.228435 468.744576 
L 701.262611 470.079636 
L 703.296787 470.291203 
L 705.330964 470.291203 
L 707.36514 468.460055 
L 709.399316 468.408987 
L 711.433493 471.305264 
L 719.570198 471.305264 
L 721.604375 471.100993 
L 723.638551 471.100993 
L 725.672727 471.305264 
L 752.11702 471.305264 
L 754.151196 470.860244 
L 758.219549 470.502769 
L 760.253725 471.305264 
L 790.76637 471.305264 
L 792.800547 461.66803 
L 996.218182 461.66803 
L 996.218182 461.66803 
" style="fill:none;stroke:#1f77b4;stroke-linecap:square;stroke-width:1.5;"/>
   </g>
   <g id="line2d_16">
    <path clip-path="url(#pa2e8b68c2d)" d="M 184.581818 88.945636 
L 267.983049 89.055067 
L 270.017225 89.120726 
L 272.051401 89.324997 
L 274.085578 89.259339 
L 276.119754 89.419838 
L 278.15393 89.711654 
L 280.188107 89.762722 
L 282.222283 91.229099 
L 286.290636 92.017003 
L 288.324812 92.425546 
L 290.358988 92.301524 
L 292.393165 93.315585 
L 294.427341 95.569866 
L 296.461517 95.613639 
L 298.495694 97.24781 
L 300.52987 97.357241 
L 302.564046 99.801203 
L 304.598223 101.508329 
L 306.632399 104.360833 
L 308.666576 104.171152 
L 310.700752 103.791791 
L 312.734928 104.922579 
L 314.769105 102.449436 
L 316.803281 104.20763 
L 318.837457 103.091432 
L 320.871634 101.792849 
L 322.90581 103.572929 
L 324.939986 102.733957 
L 326.974163 101.238398 
L 329.008339 105.2071 
L 331.042515 107.293587 
L 333.076692 108.59217 
L 335.110868 110.766201 
L 337.145044 115.449853 
L 339.179221 115.851101 
L 341.213397 119.666599 
L 343.247573 112.838097 
L 345.28175 113.822977 
L 347.315926 116.390961 
L 349.350103 111.838626 
L 351.384279 113.939704 
L 353.418455 118.718196 
L 355.452632 114.837039 
L 357.486808 116.835981 
L 359.520984 122.818215 
L 361.555161 124.518045 
L 363.589337 116.361779 
L 365.623513 121.264293 
L 367.65769 130.281418 
L 369.691866 142.523112 
L 371.726042 155.457871 
L 373.760219 166.306142 
L 375.794395 159.142052 
L 379.862748 183.348215 
L 381.896924 182.808355 
L 383.9311 184.282028 
L 385.965277 181.779703 
L 387.999453 187.032396 
L 390.03363 193.488833 
L 392.067806 208.940507 
L 394.101982 221.24786 
L 396.136159 215.25833 
L 398.170335 234.955932 
L 400.204511 240.814144 
L 402.238688 241.769843 
L 406.30704 247.803145 
L 408.341217 249.9407 
L 410.375393 258.666008 
L 412.409569 258.658712 
L 414.443746 264.312653 
L 416.477922 268.631535 
L 418.512098 264.152154 
L 420.546275 280.588709 
L 422.580451 274.059318 
L 424.614627 273.949887 
L 426.648804 264.480448 
L 430.717157 273.388141 
L 432.751333 274.073909 
L 434.785509 287.585005 
L 436.819686 291.801751 
L 438.853862 297.747508 
L 440.888038 295.449455 
L 442.922215 306.947018 
L 444.956391 297.535941 
L 446.990567 314.563424 
L 449.024744 317.102226 
L 453.093096 339.564787 
L 455.127273 331.634678 
L 457.161449 336.748759 
L 459.195625 337.098939 
L 461.229802 367.579153 
L 463.263978 363.632338 
L 465.298154 366.995521 
L 467.332331 370.869382 
L 469.366507 366.105481 
L 471.400684 368.542147 
L 473.43486 364.434833 
L 475.469036 358.277508 
L 477.503213 357.263447 
L 479.537389 369.322756 
L 481.571565 360.407767 
L 483.605742 369.877207 
L 485.639918 360.524494 
L 487.674094 358.598506 
L 489.708271 350.836192 
L 491.742447 356.97163 
L 493.776623 387.01412 
L 495.8108 390.355417 
L 497.844976 377.581158 
L 499.879152 377.756248 
L 501.913329 376.661936 
L 503.947505 377.967814 
L 505.981681 383.935458 
L 508.015858 391.734249 
L 510.050034 385.824969 
L 512.084211 397.884278 
L 514.118387 405.792501 
L 516.152563 398.329298 
L 518.18674 398.497093 
L 520.220916 401.247461 
L 522.255092 405.383958 
L 524.289269 422.593825 
L 526.323445 424.249883 
L 528.357621 423.958066 
L 530.391798 421.090971 
L 532.425974 408.630414 
L 534.46015 411.95712 
L 536.494327 396.899398 
L 538.528503 393.412193 
L 540.562679 399.219338 
L 542.596856 390.698301 
L 544.631032 377.43525 
L 546.665208 383.811436 
L 548.699385 390.793142 
L 550.733561 391.931225 
L 552.767738 394.185506 
L 554.801914 399.423609 
L 556.83609 394.039598 
L 558.870267 375.268513 
L 560.904443 362.895502 
L 562.938619 381.943812 
L 564.972796 388.867154 
L 567.006972 393.383012 
L 569.041148 382.658762 
L 571.075325 361.334284 
L 573.109501 384.767135 
L 575.143677 377.070479 
L 577.177854 417.538107 
L 579.21203 403.37772 
L 581.246206 399.926993 
L 583.280383 396.155267 
L 585.314559 377.566567 
L 587.348735 369.454073 
L 589.382912 377.683294 
L 591.417088 384.548272 
L 593.451265 389.304878 
L 595.485441 407.142151 
L 597.519617 399.759198 
L 599.553794 408.82739 
L 601.58797 428.32072 
L 603.622146 427.33584 
L 605.656323 457.400217 
L 607.690499 448.952134 
L 609.724675 447.048033 
L 611.758852 451.337733 
L 613.793028 457.648261 
L 615.827204 457.932781 
L 617.861381 457.407512 
L 619.895557 458.122462 
L 621.929733 458.107871 
L 623.96391 459.800406 
L 625.998086 462.258958 
L 628.032262 454.96355 
L 630.066439 458.866594 
L 632.100615 446.092334 
L 634.134792 440.489461 
L 636.168968 459.399158 
L 638.203144 463.834767 
L 640.237321 465.301144 
L 642.271497 466.271433 
L 644.305673 459.450226 
L 646.33985 461.624258 
L 648.374026 447.755687 
L 650.408202 447.040737 
L 652.442379 447.777574 
L 654.476555 442.473812 
L 656.510731 439.431627 
L 658.544908 439.942305 
L 660.579084 431.669313 
L 662.61326 460.734218 
L 664.647437 455.992203 
L 666.681613 454.430986 
L 668.715789 454.430986 
L 670.749966 465.819117 
L 672.784142 466.424636 
L 674.818319 452.884359 
L 676.852495 453.022972 
L 678.886671 455.007323 
L 680.920848 457.910895 
L 682.955024 455.642023 
L 684.9892 451.841116 
L 687.023377 453.913012 
L 689.057553 454.985437 
L 691.091729 440.795868 
L 693.125906 445.063682 
L 695.160082 453.832762 
L 697.194258 453.832762 
L 699.228435 462.995795 
L 701.262611 459.749338 
L 703.296787 453.985966 
L 705.330964 457.684738 
L 707.36514 458.151644 
L 709.399316 456.597722 
L 711.433493 442.816696 
L 713.467669 449.484699 
L 715.501846 454.372622 
L 717.536022 451.3888 
L 719.570198 455.795227 
L 721.604375 457.130287 
L 723.638551 460.135995 
L 725.672727 460.296494 
L 727.706904 460.573719 
L 729.74108 438.089272 
L 731.775256 438.184112 
L 733.809433 448.361206 
L 737.877785 448.346615 
L 739.911962 464.155764 
L 741.946138 437.702615 
L 743.980314 452.249659 
L 746.014491 464.994736 
L 748.048667 471.13747 
L 750.082843 470.59761 
L 752.11702 471.4074 
L 754.151196 469.868069 
L 756.185373 470.240135 
L 758.219549 470.437111 
L 760.253725 471.305264 
L 782.629665 471.305264 
L 784.663841 461.66803 
L 996.218182 461.66803 
L 996.218182 461.66803 
" style="fill:none;stroke:#ff7f0e;stroke-linecap:square;stroke-width:1.5;"/>
   </g>
   <g id="line2d_17">
    <path clip-path="url(#pa2e8b68c2d)" d="M 184.581818 88.945636 
L 272.051401 89.025885 
L 274.085578 89.259339 
L 278.15393 90.039947 
L 282.222283 90.149378 
L 284.256459 90.412013 
L 286.290636 90.390127 
L 288.324812 90.630875 
L 292.393165 90.89351 
L 294.427341 90.733011 
L 296.461517 90.908101 
L 298.495694 91.60846 
L 300.52987 92.4985 
L 302.564046 91.696005 
L 306.632399 92.607931 
L 308.666576 93.789787 
L 310.700752 92.928929 
L 312.734928 93.541743 
L 314.769105 93.344767 
L 316.803281 93.512561 
L 318.837457 94.395306 
L 322.90581 97.335355 
L 324.939986 101.975235 
L 326.974163 101.705305 
L 329.008339 103.726133 
L 331.042515 106.520274 
L 333.076692 106.279525 
L 335.110868 103.799087 
L 337.145044 105.55728 
L 339.179221 108.621351 
L 341.213397 112.188806 
L 343.247573 109.992888 
L 345.28175 109.606231 
L 347.315926 104.878807 
L 349.350103 104.966352 
L 351.384279 101.318648 
L 353.418455 103.288408 
L 355.452632 106.914226 
L 357.486808 105.936641 
L 359.520984 108.351421 
L 361.555161 108.978826 
L 363.589337 111.10179 
L 365.623513 115.223696 
L 367.65769 119.075671 
L 369.691866 116.624414 
L 371.726042 113.501979 
L 373.760219 121.607178 
L 375.794395 132.535699 
L 377.828571 136.643013 
L 379.862748 136.971307 
L 381.896924 138.795159 
L 383.9311 143.442334 
L 385.965277 156.559477 
L 387.999453 158.594896 
L 390.03363 157.478699 
L 392.067806 164.803288 
L 394.101982 161.221243 
L 396.136159 167.816292 
L 398.170335 167.363977 
L 400.204511 175.950672 
L 404.272864 175.148177 
L 406.30704 178.183067 
L 408.341217 180.043396 
L 410.375393 185.31068 
L 412.409569 183.567078 
L 414.443746 184.318505 
L 416.477922 198.81448 
L 418.512098 194.758234 
L 420.546275 208.940507 
L 422.580451 211.800307 
L 426.648804 234.999704 
L 428.68298 233.453078 
L 430.717157 230.520324 
L 432.751333 223.261393 
L 434.785509 233.949165 
L 436.819686 240.259693 
L 438.853862 239.646879 
L 440.888038 234.766251 
L 442.922215 241.332118 
L 444.956391 246.541039 
L 446.990567 245.169503 
L 449.024744 243.301878 
L 451.05892 258.104261 
L 453.093096 270.280297 
L 455.127273 268.974419 
L 457.161449 277.553819 
L 459.195625 284.090504 
L 461.229802 282.726263 
L 463.263978 289.904945 
L 465.298154 288.336432 
L 467.332331 293.574535 
L 469.366507 307.924602 
L 471.400684 301.234713 
L 473.43486 303.007497 
L 475.469036 298.688616 
L 477.503213 299.680791 
L 479.537389 298.367618 
L 481.571565 286.388558 
L 483.605742 296.974195 
L 485.639918 303.9559 
L 487.674094 314.862535 
L 489.708271 313.418045 
L 491.742447 315.723393 
L 493.776623 326.323621 
L 495.8108 328.424699 
L 497.844976 328.2642 
L 499.879152 313.571248 
L 501.913329 295.237888 
L 503.947505 287.336961 
L 505.981681 291.765274 
L 508.015858 284.922181 
L 510.050034 283.171283 
L 512.084211 284.900295 
L 514.118387 302.963725 
L 516.152563 311.273195 
L 518.18674 316.175709 
L 520.220916 327.782703 
L 522.255092 345.758588 
L 524.289269 347.669985 
L 526.323445 347.815893 
L 528.357621 324.397634 
L 530.391798 343.475125 
L 532.425974 337.281324 
L 534.46015 336.872781 
L 536.494327 332.196425 
L 538.528503 316.883363 
L 540.562679 319.889071 
L 542.596856 335.975446 
L 544.631032 344.875844 
L 548.699385 370.365999 
L 550.733561 336.311035 
L 552.767738 344.08794 
L 554.801914 360.363995 
L 556.83609 385.336177 
L 558.870267 338.127591 
L 560.904443 312.177825 
L 562.938619 334.567432 
L 564.972796 331.466884 
L 567.006972 332.619558 
L 569.041148 299.6662 
L 571.075325 293.953896 
L 573.109501 332.043221 
L 575.143677 330.832183 
L 577.177854 372.321169 
L 579.21203 396.622173 
L 581.246206 396.826444 
L 583.280383 394.863979 
L 585.314559 416.297888 
L 587.348735 425.63601 
L 589.382912 432.676079 
L 591.417088 435.28054 
L 593.451265 438.840699 
L 595.485441 439.643194 
L 597.519617 442.780219 
L 599.553794 454.452872 
L 601.58797 458.253779 
L 603.622146 455.561774 
L 605.656323 450.987553 
L 607.690499 457.896304 
L 609.724675 459.727452 
L 611.758852 459.50859 
L 613.793028 459.012502 
L 615.827204 461.733689 
L 617.861381 459.647202 
L 619.895557 461.602372 
L 621.929733 448.120458 
L 623.96391 455.087572 
L 625.998086 456.495586 
L 628.032262 461.164647 
L 630.066439 463.338679 
L 632.100615 463.980675 
L 634.134792 466.913429 
L 638.203144 467.373039 
L 656.510731 467.373039 
L 660.579084 467.139586 
L 662.61326 462.054687 
L 664.647437 430.283185 
L 666.681613 427.817337 
L 668.715789 427.853814 
L 670.749966 441.124161 
L 672.784142 458.80823 
L 674.818319 465.746163 
L 676.852495 466.417341 
L 678.886671 465.972321 
L 680.920848 457.991145 
L 682.955024 456.444518 
L 684.9892 461.660735 
L 687.023377 460.391334 
L 689.057553 461.84312 
L 691.091729 466.636203 
L 693.125906 466.220365 
L 695.160082 466.220365 
L 697.194258 462.448639 
L 699.228435 458.946843 
L 701.262611 461.026034 
L 703.296787 442.218473 
L 705.330964 452.132932 
L 707.36514 465.760754 
L 709.399316 466.293319 
L 711.433493 465.016623 
L 713.467669 465.016623 
L 715.501846 465.913958 
L 717.536022 465.913958 
L 719.570198 462.835296 
L 721.604375 460.245426 
L 723.638551 453.898421 
L 725.672727 451.724389 
L 727.706904 456.692562 
L 729.74108 451.680617 
L 731.775256 461.872302 
L 733.809433 458.552891 
L 735.843609 450.630078 
L 737.877785 463.739926 
L 739.911962 464.659148 
L 741.946138 466.745634 
L 743.980314 466.052571 
L 746.014491 465.877481 
L 748.048667 441.919361 
L 750.082843 435.842286 
L 752.11702 457.392921 
L 754.151196 464.002561 
L 756.185373 466.869656 
L 758.219549 465.76805 
L 760.253725 463.922311 
L 762.287902 458.71339 
L 764.322078 459.377272 
L 766.356254 461.996324 
L 768.390431 446.267424 
L 770.424607 469.123937 
L 772.458783 469.131233 
L 774.49296 454.77387 
L 776.527136 446.384151 
L 780.595489 446.384151 
L 782.629665 462.069278 
L 784.663841 484.232727 
L 786.698018 477.002978 
L 788.732194 461.66803 
L 996.218182 461.66803 
L 996.218182 461.66803 
" style="fill:none;stroke:#2ca02c;stroke-linecap:square;stroke-width:1.5;"/>
   </g>
   <g id="line2d_18">
    <path clip-path="url(#pa2e8b68c2d)" d="M 184.581818 88.945636 
L 267.983049 89.055067 
L 270.017225 89.252043 
L 272.051401 89.324997 
L 274.085578 89.259339 
L 276.119754 89.419838 
L 278.15393 89.711654 
L 280.188107 89.762722 
L 282.222283 90.222332 
L 284.256459 90.506853 
L 286.290636 92.017003 
L 294.427341 93.738719 
L 296.461517 95.613639 
L 298.495694 95.737661 
L 300.52987 97.904397 
L 302.564046 99.801203 
L 304.598223 101.508329 
L 306.632399 100.713129 
L 308.666576 100.392131 
L 310.700752 103.791791 
L 312.734928 104.922579 
L 314.769105 104.017949 
L 316.803281 105.841801 
L 318.837457 104.251402 
L 320.871634 103.806382 
L 322.90581 101.260285 
L 324.939986 102.733957 
L 326.974163 101.238398 
L 329.008339 103.040364 
L 331.042515 102.040893 
L 335.110868 105.520803 
L 337.145044 108.438966 
L 341.213397 119.666599 
L 343.247573 112.838097 
L 347.315926 106.950703 
L 349.350103 110.430613 
L 351.384279 110.715133 
L 353.418455 114.530632 
L 355.452632 114.837039 
L 357.486808 118.273176 
L 359.520984 115.734374 
L 361.555161 116.252348 
L 363.589337 122.322128 
L 365.623513 125.685311 
L 367.65769 137.810279 
L 369.691866 150.672083 
L 371.726042 142.720088 
L 373.760219 141.85923 
L 375.794395 146.163521 
L 377.828571 142.224001 
L 379.862748 152.058211 
L 381.896924 154.049857 
L 383.9311 166.539595 
L 387.999453 196.188133 
L 390.03363 203.191725 
L 392.067806 208.940507 
L 394.101982 221.24786 
L 396.136159 228.324406 
L 398.170335 229.156082 
L 400.204511 244.965231 
L 402.238688 247.730191 
L 404.272864 244.702597 
L 406.30704 247.803145 
L 408.341217 250.086608 
L 410.375393 267.376725 
L 412.409569 268.018721 
L 414.443746 269.091146 
L 416.477922 264.589879 
L 418.512098 267.376725 
L 420.546275 278.691902 
L 422.580451 269.17869 
L 424.614627 268.325128 
L 426.648804 280.326074 
L 430.717157 291.633956 
L 432.751333 286.176991 
L 434.785509 289.919535 
L 436.819686 291.801751 
L 438.853862 303.642198 
L 440.888038 303.809992 
L 442.922215 304.13099 
L 444.956391 296.186291 
L 446.990567 300.454105 
L 449.024744 311.718214 
L 451.05892 322.00474 
L 453.093096 353.469834 
L 455.127273 344.109826 
L 457.161449 346.794536 
L 461.229802 353.929445 
L 463.263978 350.128538 
L 465.298154 355.884614 
L 467.332331 355.264505 
L 469.366507 348.508957 
L 471.400684 363.172727 
L 473.43486 364.434833 
L 475.469036 358.277508 
L 477.503213 372.146079 
L 479.537389 369.322756 
L 481.571565 360.407767 
L 483.605742 349.610564 
L 485.639918 341.643978 
L 487.674094 351.06235 
L 489.708271 350.836192 
L 491.742447 375.954282 
L 493.776623 387.01412 
L 495.8108 390.355417 
L 497.844976 377.581158 
L 499.879152 376.807845 
L 501.913329 376.661936 
L 503.947505 385.12461 
L 505.981681 391.726954 
L 508.015858 391.734249 
L 510.050034 385.824969 
L 512.084211 397.884278 
L 514.118387 391.026595 
L 516.152563 395.797792 
L 518.18674 401.181803 
L 520.220916 412.985773 
L 522.255092 414.043607 
L 524.289269 422.593825 
L 526.323445 424.249883 
L 528.357621 423.958066 
L 530.391798 421.090971 
L 532.425974 430.618774 
L 534.46015 447.500348 
L 536.494327 426.25612 
L 538.528503 399.226633 
L 540.562679 388.392952 
L 542.596856 390.698301 
L 544.631032 377.43525 
L 546.665208 383.811436 
L 550.733561 397.555985 
L 552.767738 397.11826 
L 554.801914 392.668062 
L 556.83609 394.039598 
L 558.870267 375.268513 
L 560.904443 362.895502 
L 562.938619 381.943812 
L 564.972796 388.867154 
L 567.006972 393.383012 
L 569.041148 407.915464 
L 571.075325 413.168158 
L 573.109501 386.875508 
L 575.143677 401.035895 
L 577.177854 410.840923 
L 579.21203 402.465794 
L 581.246206 384.387773 
L 583.280383 376.114781 
L 585.314559 377.566567 
L 587.348735 385.876037 
L 589.382912 377.683294 
L 591.417088 383.410189 
L 593.451265 374.458723 
L 595.485441 383.220508 
L 597.519617 399.759198 
L 599.553794 415.269236 
L 601.58797 410.381312 
L 603.622146 437.111687 
L 605.656323 436.250829 
L 607.690499 448.952134 
L 609.724675 453.920307 
L 611.758852 457.568011 
L 613.793028 457.816055 
L 615.827204 458.421574 
L 617.861381 458.727981 
L 619.895557 461.193829 
L 621.929733 462.492411 
L 623.96391 462.302731 
L 625.998086 463.506473 
L 628.032262 463.200066 
L 630.066439 461.952551 
L 632.100615 458.085985 
L 634.134792 459.121933 
L 636.168968 448.135049 
L 638.203144 446.595717 
L 640.237321 465.51271 
L 642.271497 460.311084 
L 644.305673 453.139698 
L 646.33985 441.649431 
L 648.374026 442.991786 
L 650.408202 446.996965 
L 652.442379 445.873472 
L 654.476555 447.420099 
L 656.510731 443.108512 
L 658.544908 465.614846 
L 660.579084 465.250076 
L 662.61326 460.734218 
L 664.647437 459.100047 
L 666.681613 454.430986 
L 668.715789 465.819117 
L 670.749966 464.228719 
L 674.818319 464.214128 
L 676.852495 464.002561 
L 678.886671 458.764458 
L 680.920848 457.910895 
L 682.955024 458.07869 
L 684.9892 456.174588 
L 687.023377 453.913012 
L 689.057553 452.344499 
L 691.091729 466.876952 
L 693.125906 469.371981 
L 695.160082 468.985325 
L 697.194258 461.704507 
L 699.228435 461.368919 
L 701.262611 462.915545 
L 703.296787 463.710745 
L 705.330964 467.380335 
L 707.36514 467.380335 
L 709.399316 455.466934 
L 711.433493 457.954668 
L 713.467669 462.769637 
L 715.501846 456.415337 
L 717.536022 451.3888 
L 719.570198 455.795227 
L 721.604375 459.581544 
L 723.638551 460.135995 
L 725.672727 460.296494 
L 727.706904 438.089272 
L 731.775256 438.184112 
L 733.809433 448.361206 
L 735.843609 446.953192 
L 739.911962 446.953192 
L 741.946138 442.25495 
L 743.980314 452.249659 
L 746.014491 464.994736 
L 748.048667 471.13747 
L 750.082843 471.706512 
L 752.11702 471.4074 
L 754.151196 471.356332 
L 756.185373 470.240135 
L 760.253725 471.305264 
L 778.561312 471.305264 
L 780.595489 461.66803 
L 996.218182 461.66803 
L 996.218182 461.66803 
" style="fill:none;stroke:#d62728;stroke-dasharray:5.55,2.4;stroke-dashoffset:0;stroke-width:1.5;"/>
   </g>
   <g id="line2d_19">
    <path clip-path="url(#pa2e8b68c2d)" d="M 184.581818 88.945636 
L 270.017225 88.887273 
L 274.085578 89.38336 
L 278.15393 89.784608 
L 280.188107 89.777313 
L 282.222283 90.149378 
L 284.256459 89.988879 
L 286.290636 90.390127 
L 288.324812 90.630875 
L 292.393165 90.89351 
L 294.427341 91.148849 
L 296.461517 91.024827 
L 298.495694 91.834618 
L 300.52987 91.579278 
L 306.632399 91.593869 
L 308.666576 91.761663 
L 310.700752 92.330705 
L 312.734928 93.322881 
L 314.769105 94.687122 
L 316.803281 96.277521 
L 318.837457 96.26293 
L 320.871634 98.013828 
L 322.90581 98.918459 
L 324.939986 102.113847 
L 326.974163 102.653708 
L 329.008339 105.170623 
L 331.042515 104.689126 
L 333.076692 102.135734 
L 335.110868 101.800145 
L 337.145044 99.443728 
L 339.179221 97.473968 
L 341.213397 95.146733 
L 343.247573 94.446374 
L 345.28175 96.853858 
L 347.315926 97.101902 
L 349.350103 96.386952 
L 351.384279 97.78767 
L 353.418455 100.63288 
L 355.452632 102.325414 
L 357.486808 104.791262 
L 359.520984 106.388957 
L 361.555161 110.014774 
L 363.589337 111.10179 
L 365.623513 115.143446 
L 367.65769 112.553576 
L 369.691866 114.625472 
L 371.726042 121.424792 
L 373.760219 131.156867 
L 375.794395 135.453862 
L 377.828571 132.703493 
L 379.862748 136.971307 
L 381.896924 136.708672 
L 383.9311 150.715855 
L 385.965277 146.491814 
L 387.999453 151.408919 
L 390.03363 148.235417 
L 392.067806 156.150934 
L 394.101982 156.355206 
L 396.136159 157.522471 
L 398.170335 162.271782 
L 402.238688 175.053337 
L 404.272864 182.516539 
L 406.30704 179.510831 
L 408.341217 190.424761 
L 410.375393 187.937027 
L 412.409569 193.970329 
L 414.443746 189.23561 
L 416.477922 190.162126 
L 418.512098 206.890497 
L 420.546275 218.38806 
L 422.580451 217.556383 
L 424.614627 215.914917 
L 426.648804 213.594977 
L 428.68298 221.043589 
L 430.717157 224.705883 
L 432.751333 217.549088 
L 434.785509 229.272809 
L 436.819686 239.252927 
L 438.853862 244.111669 
L 440.888038 253.318473 
L 442.922215 253.099611 
L 444.956391 252.304412 
L 446.990567 253.34036 
L 449.024744 267.303771 
L 451.05892 274.642951 
L 453.093096 283.864347 
L 455.127273 291.181641 
L 457.161449 288.796043 
L 459.195625 284.36773 
L 461.229802 283.127511 
L 463.263978 290.072739 
L 465.298154 294.661551 
L 467.332331 298.929364 
L 469.366507 314.461288 
L 471.400684 311.492057 
L 473.43486 298.309255 
L 475.469036 290.999256 
L 477.503213 290.970074 
L 479.537389 298.987728 
L 481.571565 294.668846 
L 483.605742 295.814225 
L 485.639918 306.414453 
L 487.674094 305.553595 
L 489.708271 285.607949 
L 491.742447 296.354085 
L 493.776623 300.045562 
L 495.8108 289.759036 
L 497.844976 291.816341 
L 499.879152 303.401449 
L 501.913329 283.820574 
L 503.947505 289.613128 
L 505.981681 278.122861 
L 508.015858 278.779447 
L 510.050034 282.886762 
L 512.084211 302.934543 
L 514.118387 302.963725 
L 516.152563 307.07104 
L 518.18674 321.931786 
L 520.220916 327.782703 
L 522.255092 345.758588 
L 524.289269 347.669985 
L 526.323445 365.886619 
L 528.357621 368.447307 
L 530.391798 363.916859 
L 532.425974 338.317272 
L 534.46015 366.061709 
L 536.494327 361.837667 
L 538.528503 353.958627 
L 540.562679 362.837138 
L 542.596856 343.497012 
L 544.631032 344.875844 
L 546.665208 357.664694 
L 548.699385 328.782174 
L 550.733561 333.53878 
L 552.767738 328.752992 
L 554.801914 312.177825 
L 556.83609 287.446392 
L 558.870267 298.703207 
L 560.904443 307.107517 
L 562.938619 318.2549 
L 564.972796 313.972496 
L 567.006972 318.16006 
L 569.041148 341.702341 
L 571.075325 302.124753 
L 573.109501 339.426174 
L 575.143677 397.599757 
L 577.177854 413.708018 
L 579.21203 432.508285 
L 581.246206 435.032496 
L 583.280383 423.294184 
L 585.314559 437.571298 
L 587.348735 444.76457 
L 589.382912 449.010497 
L 591.417088 459.034388 
L 595.485441 456.429927 
L 597.519617 454.2486 
L 599.553794 451.060507 
L 603.622146 443.932894 
L 605.656323 434.397795 
L 607.690499 439.351377 
L 609.724675 440.642665 
L 611.758852 443.363852 
L 613.793028 442.780219 
L 615.827204 439.57024 
L 617.861381 437.534821 
L 619.895557 448.076685 
L 621.929733 450.236126 
L 623.96391 453.146994 
L 625.998086 453.460696 
L 628.032262 458.779049 
L 630.066439 460.289198 
L 632.100615 465.86289 
L 634.134792 466.913429 
L 636.168968 467.343858 
L 640.237321 467.358449 
L 642.271497 467.373039 
L 644.305673 467.176063 
L 646.33985 467.373039 
L 656.510731 467.365744 
L 662.61326 467.373039 
L 664.647437 467.176063 
L 666.681613 467.241722 
L 668.715789 466.913429 
L 670.749966 462.032801 
L 672.784142 456.685267 
L 674.818319 460.033859 
L 676.852495 462.222481 
L 678.886671 462.222481 
L 680.920848 450.695737 
L 682.955024 448.893771 
L 684.9892 456.087043 
L 687.023377 460.391334 
L 689.057553 461.84312 
L 691.091729 466.636203 
L 693.125906 466.636203 
L 695.160082 455.401275 
L 697.194258 456.495586 
L 699.228435 456.371564 
L 701.262611 463.054158 
L 703.296787 464.097401 
L 705.330964 464.381922 
L 707.36514 465.59296 
L 709.399316 464.484058 
L 711.433493 460.748809 
L 713.467669 458.830117 
L 715.501846 444.538412 
L 717.536022 444.538412 
L 719.570198 446.493582 
L 721.604375 446.493582 
L 723.638551 453.154289 
L 725.672727 458.5383 
L 727.706904 444.22471 
L 729.74108 444.917774 
L 731.775256 432.238355 
L 733.809433 442.823992 
L 735.843609 426.438505 
L 737.877785 430.793864 
L 739.911962 457.407512 
L 741.946138 460.354857 
L 743.980314 458.735276 
L 746.014491 465.877481 
L 748.048667 452.402862 
L 750.082843 453.030267 
L 752.11702 457.55342 
L 754.151196 466.913429 
L 756.185373 466.869656 
L 758.219549 467.956672 
L 760.253725 463.922311 
L 762.287902 469.313618 
L 764.322078 459.377272 
L 766.356254 461.996324 
L 768.390431 446.267424 
L 770.424607 469.123937 
L 772.458783 454.795756 
L 774.49296 454.77387 
L 776.527136 446.384151 
L 780.595489 446.384151 
L 782.629665 462.069278 
L 784.663841 484.232727 
L 786.698018 477.002978 
L 788.732194 461.66803 
L 996.218182 461.66803 
L 996.218182 461.66803 
" style="fill:none;stroke:#9467bd;stroke-dasharray:5.55,2.4;stroke-dashoffset:0;stroke-width:1.5;"/>
   </g>
   <g id="line2d_20">
    <path clip-path="url(#pa2e8b68c2d)" d="M 184.581818 88.945636 
L 265.948872 88.945636 
L 267.983049 89.354179 
L 270.017225 88.982113 
L 272.051401 90.71842 
L 274.085578 90.747602 
L 276.119754 90.550626 
L 278.15393 93.48338 
L 280.188107 93.687651 
L 282.222283 95.044597 
L 284.256459 94.584986 
L 286.290636 93.322881 
L 288.324812 95.139437 
L 290.358988 96.686064 
L 292.393165 99.356183 
L 294.427341 105.272759 
L 296.461517 109.183098 
L 298.495694 107.096611 
L 300.52987 102.471322 
L 302.564046 103.908518 
L 304.598223 108.037719 
L 306.632399 106.782909 
L 308.666576 109.453028 
L 310.700752 110.459794 
L 312.734928 112.984005 
L 314.769105 112.590053 
L 316.803281 118.761968 
L 318.837457 122.044902 
L 320.871634 122.030311 
L 322.90581 124.809862 
L 324.939986 120.024074 
L 326.974163 134.206347 
L 329.008339 137.503872 
L 331.042515 136.599241 
L 333.076692 142.107274 
L 335.110868 134.826457 
L 337.145044 141.633073 
L 339.179221 140.210468 
L 341.213397 136.803512 
L 343.247573 137.131806 
L 345.28175 142.282364 
L 347.315926 133.958303 
L 349.350103 129.836398 
L 351.384279 145.696615 
L 353.418455 142.070797 
L 355.452632 135.738383 
L 357.486808 161.483878 
L 359.520984 163.183708 
L 361.555161 153.39327 
L 363.589337 152.182232 
L 365.623513 165.095105 
L 367.65769 157.566244 
L 369.691866 176.322738 
L 371.726042 204.497603 
L 373.760219 205.24903 
L 375.794395 203.257384 
L 377.828571 202.19955 
L 379.862748 211.486604 
L 381.896924 223.823139 
L 383.9311 240.091899 
L 385.965277 245.118435 
L 387.999453 266.194869 
L 390.03363 264.60447 
L 392.067806 277.451683 
L 394.101982 300.344673 
L 396.136159 297.244125 
L 398.170335 296.624015 
L 400.204511 310.397746 
L 402.238688 311.061628 
L 404.272864 308.07051 
L 406.30704 313.191887 
L 408.341217 297.42651 
L 410.375393 293.742329 
L 412.409569 307.333674 
L 414.443746 358.57662 
L 416.477922 358.051351 
L 418.512098 359.349933 
L 420.546275 372.496258 
L 422.580451 372.780779 
L 424.614627 372.780779 
L 426.648804 382.70983 
L 428.68298 386.47426 
L 430.717157 386.576396 
L 432.751333 395.557043 
L 434.785509 394.389778 
L 436.819686 394.24387 
L 438.853862 417.063906 
L 440.888038 417.202519 
L 442.922215 417.873696 
L 446.990567 417.939355 
L 449.024744 419.639185 
L 451.05892 426.299892 
L 453.093096 428.729263 
L 455.127273 426.978365 
L 457.161449 427.036729 
L 459.195625 426.402028 
L 461.229802 426.847048 
L 463.263978 431.08568 
L 465.298154 429.524463 
L 467.332331 430.19564 
L 469.366507 428.0362 
L 471.400684 431.793335 
L 473.43486 440.978253 
L 475.469036 440.905299 
L 477.503213 440.657255 
L 479.537389 444.647844 
L 483.605742 445.508702 
L 485.639918 445.275249 
L 487.674094 442.25495 
L 489.708271 442.211177 
L 491.742447 442.050678 
L 493.776623 442.284131 
L 495.8108 442.225768 
L 497.844976 441.09498 
L 499.879152 443.115808 
L 501.913329 438.439451 
L 503.947505 441.335728 
L 505.981681 435.805809 
L 508.015858 436.528054 
L 510.050034 438.198703 
L 512.084211 438.526996 
L 514.118387 439.234651 
L 516.152563 440.263303 
L 520.220916 440.29978 
L 522.255092 439.256537 
L 524.289269 441.926656 
L 526.323445 442.189291 
L 528.357621 438.497815 
L 530.391798 438.519701 
L 532.425974 440.350848 
L 534.46015 437.315958 
L 536.494327 436.72503 
L 538.528503 434.259183 
L 544.631032 434.405091 
L 546.665208 434.937655 
L 548.699385 436.914711 
L 554.801914 436.951188 
L 556.83609 438.636427 
L 558.870267 436.280011 
L 560.904443 435.185699 
L 562.938619 433.128394 
L 564.972796 431.997606 
L 567.006972 432.121628 
L 569.041148 429.801688 
L 571.075325 430.421798 
L 573.109501 430.684433 
L 575.143677 431.078385 
L 577.177854 434.623953 
L 579.21203 439.271128 
L 581.246206 439.453513 
L 583.280383 439.453513 
L 585.314559 437.804751 
L 587.348735 437.359731 
L 589.382912 435.572356 
L 591.417088 435.849581 
L 593.451265 435.64531 
L 595.485441 440.102804 
L 597.519617 439.818283 
L 599.553794 436.301897 
L 601.58797 436.579122 
L 603.622146 436.579122 
L 605.656323 436.367555 
L 607.690499 436.622895 
L 609.724675 432.668784 
L 611.758852 433.157576 
L 613.793028 434.769861 
L 615.827204 435.484811 
L 617.861381 435.484811 
L 619.895557 439.468104 
L 621.929733 434.127865 
L 623.96391 434.871997 
L 625.998086 431.195111 
L 628.032262 431.326429 
L 630.066439 439.336786 
L 632.100615 439.869351 
L 634.134792 437.833932 
L 636.168968 434.609362 
L 638.203144 434.908474 
L 640.237321 436.083035 
L 642.271497 436.09033 
L 644.305673 444.137165 
L 646.33985 443.480578 
L 648.374026 443.735918 
L 650.408202 441.605658 
L 652.442379 447.923482 
L 654.476555 448.777044 
L 656.510731 443.68485 
L 658.544908 442.634311 
L 660.579084 442.896946 
L 662.61326 442.98449 
L 664.647437 442.335199 
L 666.681613 443.465987 
L 668.715789 444.202824 
L 670.749966 445.92454 
L 672.784142 444.749979 
L 674.818319 441.488932 
L 676.852495 439.504581 
L 678.886671 439.322196 
L 680.920848 439.993373 
L 684.9892 440.015259 
L 687.023377 438.672904 
L 689.057553 435.448334 
L 693.125906 435.696378 
L 695.160082 438.50511 
L 697.194258 438.723972 
L 699.228435 439.271128 
L 701.262611 440.387325 
L 703.296787 440.431098 
L 705.330964 437.702615 
L 707.36514 459.399158 
L 709.399316 453.26372 
L 711.433493 450.586306 
L 713.467669 450.075627 
L 715.501846 450.805168 
L 717.536022 450.805168 
L 719.570198 453.198062 
L 721.604375 453.373151 
L 723.638551 451.943251 
L 725.672727 451.943251 
L 727.706904 461.405396 
L 729.74108 461.66803 
L 996.218182 461.66803 
L 996.218182 461.66803 
" style="fill:none;stroke:#8c564b;stroke-dasharray:5.55,2.4;stroke-dashoffset:0;stroke-width:1.5;"/>
   </g>
   <g id="patch_3">
    <path d="M 144 504 
L 144 69.12 
" style="fill:none;stroke:#000000;stroke-linecap:square;stroke-linejoin:miter;stroke-width:0.8;"/>
   </g>
   <g id="patch_4">
    <path d="M 1036.8 504 
L 1036.8 69.12 
" style="fill:none;stroke:#000000;stroke-linecap:square;stroke-linejoin:miter;stroke-width:0.8;"/>
   </g>
   <g id="patch_5">
    <path d="M 144 504 
L 1036.8 504 
" style="fill:none;stroke:#000000;stroke-linecap:square;stroke-linejoin:miter;stroke-width:0.8;"/>
   </g>
   <g id="patch_6">
    <path d="M 144 69.12 
L 1036.8 69.12 
" style="fill:none;stroke:#000000;stroke-linecap:square;stroke-linejoin:miter;stroke-width:0.8;"/>
   </g>
   <g id="legend_1">
    <g id="patch_7">
     <path d="M 905.367188 166.579375 
L 1029.8 166.579375 
Q 1031.8 166.579375 1031.8 164.579375 
L 1031.8 76.12 
Q 1031.8 74.12 1029.8 74.12 
L 905.367188 74.12 
Q 903.367188 74.12 903.367188 76.12 
L 903.367188 164.579375 
Q 903.367188 166.579375 905.367188 166.579375 
z
" style="fill:#ffffff;opacity:0.8;stroke:#cccccc;stroke-linejoin:miter;"/>
    </g>
    <g id="line2d_21">
     <path d="M 907.367188 82.218438 
L 927.367188 82.218438 
" style="fill:none;stroke:#1f77b4;stroke-linecap:square;stroke-width:1.5;"/>
    </g>
    <g id="line2d_22"/>
    <g id="text_17">
     <!-- taylorfo -->
     <defs>
      <path d="M 18.3125 70.21875 
L 18.3125 54.6875 
L 36.8125 54.6875 
L 36.8125 47.703125 
L 18.3125 47.703125 
L 18.3125 18.015625 
Q 18.3125 11.328125 20.140625 9.421875 
Q 21.96875 7.515625 27.59375 7.515625 
L 36.8125 7.515625 
L 36.8125 0 
L 27.59375 0 
Q 17.1875 0 13.234375 3.875 
Q 9.28125 7.765625 9.28125 18.015625 
L 9.28125 47.703125 
L 2.6875 47.703125 
L 2.6875 54.6875 
L 9.28125 54.6875 
L 9.28125 70.21875 
z
" id="DejaVuSans-116"/>
      <path d="M 9.421875 75.984375 
L 18.40625 75.984375 
L 18.40625 0 
L 9.421875 0 
z
" id="DejaVuSans-108"/>
     </defs>
     <g transform="translate(935.367188 85.718438)scale(0.1 -0.1)">
      <use xlink:href="#DejaVuSans-116"/>
      <use x="39.208984" xlink:href="#DejaVuSans-97"/>
      <use x="100.488281" xlink:href="#DejaVuSans-121"/>
      <use x="159.667969" xlink:href="#DejaVuSans-108"/>
      <use x="187.451172" xlink:href="#DejaVuSans-111"/>
      <use x="248.632812" xlink:href="#DejaVuSans-114"/>
      <use x="289.746094" xlink:href="#DejaVuSans-102"/>
      <use x="324.951172" xlink:href="#DejaVuSans-111"/>
     </g>
    </g>
    <g id="line2d_23">
     <path d="M 907.367188 96.896563 
L 927.367188 96.896563 
" style="fill:none;stroke:#ff7f0e;stroke-linecap:square;stroke-width:1.5;"/>
    </g>
    <g id="line2d_24"/>
    <g id="text_18">
     <!-- taylorfo_abs -->
     <defs>
      <path d="M 50.984375 -16.609375 
L 50.984375 -23.578125 
L -0.984375 -23.578125 
L -0.984375 -16.609375 
z
" id="DejaVuSans-95"/>
     </defs>
     <g transform="translate(935.367188 100.396563)scale(0.1 -0.1)">
      <use xlink:href="#DejaVuSans-116"/>
      <use x="39.208984" xlink:href="#DejaVuSans-97"/>
      <use x="100.488281" xlink:href="#DejaVuSans-121"/>
      <use x="159.667969" xlink:href="#DejaVuSans-108"/>
      <use x="187.451172" xlink:href="#DejaVuSans-111"/>
      <use x="248.632812" xlink:href="#DejaVuSans-114"/>
      <use x="289.746094" xlink:href="#DejaVuSans-102"/>
      <use x="324.951172" xlink:href="#DejaVuSans-111"/>
      <use x="386.132812" xlink:href="#DejaVuSans-95"/>
      <use x="436.132812" xlink:href="#DejaVuSans-97"/>
      <use x="497.412109" xlink:href="#DejaVuSans-98"/>
      <use x="560.888672" xlink:href="#DejaVuSans-115"/>
     </g>
    </g>
    <g id="line2d_25">
     <path d="M 907.367188 111.852813 
L 927.367188 111.852813 
" style="fill:none;stroke:#2ca02c;stroke-linecap:square;stroke-width:1.5;"/>
    </g>
    <g id="line2d_26"/>
    <g id="text_19">
     <!-- taylorfo_sq -->
     <defs>
      <path d="M 14.796875 27.296875 
Q 14.796875 17.390625 18.875 11.75 
Q 22.953125 6.109375 30.078125 6.109375 
Q 37.203125 6.109375 41.296875 11.75 
Q 45.40625 17.390625 45.40625 27.296875 
Q 45.40625 37.203125 41.296875 42.84375 
Q 37.203125 48.484375 30.078125 48.484375 
Q 22.953125 48.484375 18.875 42.84375 
Q 14.796875 37.203125 14.796875 27.296875 
z
M 45.40625 8.203125 
Q 42.578125 3.328125 38.25 0.953125 
Q 33.9375 -1.421875 27.875 -1.421875 
Q 17.96875 -1.421875 11.734375 6.484375 
Q 5.515625 14.40625 5.515625 27.296875 
Q 5.515625 40.1875 11.734375 48.09375 
Q 17.96875 56 27.875 56 
Q 33.9375 56 38.25 53.625 
Q 42.578125 51.265625 45.40625 46.390625 
L 45.40625 54.6875 
L 54.390625 54.6875 
L 54.390625 -20.796875 
L 45.40625 -20.796875 
z
" id="DejaVuSans-113"/>
     </defs>
     <g transform="translate(935.367188 115.352813)scale(0.1 -0.1)">
      <use xlink:href="#DejaVuSans-116"/>
      <use x="39.208984" xlink:href="#DejaVuSans-97"/>
      <use x="100.488281" xlink:href="#DejaVuSans-121"/>
      <use x="159.667969" xlink:href="#DejaVuSans-108"/>
      <use x="187.451172" xlink:href="#DejaVuSans-111"/>
      <use x="248.632812" xlink:href="#DejaVuSans-114"/>
      <use x="289.746094" xlink:href="#DejaVuSans-102"/>
      <use x="324.951172" xlink:href="#DejaVuSans-111"/>
      <use x="386.132812" xlink:href="#DejaVuSans-95"/>
      <use x="436.132812" xlink:href="#DejaVuSans-115"/>
      <use x="488.232422" xlink:href="#DejaVuSans-113"/>
     </g>
    </g>
    <g id="line2d_27">
     <path d="M 907.367188 126.809063 
L 927.367188 126.809063 
" style="fill:none;stroke:#d62728;stroke-dasharray:5.55,2.4;stroke-dashoffset:0;stroke-width:1.5;"/>
    </g>
    <g id="line2d_28"/>
    <g id="text_20">
     <!-- taylorfo_abs_norm -->
     <g transform="translate(935.367188 130.309063)scale(0.1 -0.1)">
      <use xlink:href="#DejaVuSans-116"/>
      <use x="39.208984" xlink:href="#DejaVuSans-97"/>
      <use x="100.488281" xlink:href="#DejaVuSans-121"/>
      <use x="159.667969" xlink:href="#DejaVuSans-108"/>
      <use x="187.451172" xlink:href="#DejaVuSans-111"/>
      <use x="248.632812" xlink:href="#DejaVuSans-114"/>
      <use x="289.746094" xlink:href="#DejaVuSans-102"/>
      <use x="324.951172" xlink:href="#DejaVuSans-111"/>
      <use x="386.132812" xlink:href="#DejaVuSans-95"/>
      <use x="436.132812" xlink:href="#DejaVuSans-97"/>
      <use x="497.412109" xlink:href="#DejaVuSans-98"/>
      <use x="560.888672" xlink:href="#DejaVuSans-115"/>
      <use x="612.988281" xlink:href="#DejaVuSans-95"/>
      <use x="662.988281" xlink:href="#DejaVuSans-110"/>
      <use x="726.367188" xlink:href="#DejaVuSans-111"/>
      <use x="787.548828" xlink:href="#DejaVuSans-114"/>
      <use x="826.912109" xlink:href="#DejaVuSans-109"/>
     </g>
    </g>
    <g id="line2d_29">
     <path d="M 907.367188 141.765313 
L 927.367188 141.765313 
" style="fill:none;stroke:#9467bd;stroke-dasharray:5.55,2.4;stroke-dashoffset:0;stroke-width:1.5;"/>
    </g>
    <g id="line2d_30"/>
    <g id="text_21">
     <!-- taylorfo_sq_norm -->
     <g transform="translate(935.367188 145.265313)scale(0.1 -0.1)">
      <use xlink:href="#DejaVuSans-116"/>
      <use x="39.208984" xlink:href="#DejaVuSans-97"/>
      <use x="100.488281" xlink:href="#DejaVuSans-121"/>
      <use x="159.667969" xlink:href="#DejaVuSans-108"/>
      <use x="187.451172" xlink:href="#DejaVuSans-111"/>
      <use x="248.632812" xlink:href="#DejaVuSans-114"/>
      <use x="289.746094" xlink:href="#DejaVuSans-102"/>
      <use x="324.951172" xlink:href="#DejaVuSans-111"/>
      <use x="386.132812" xlink:href="#DejaVuSans-95"/>
      <use x="436.132812" xlink:href="#DejaVuSans-115"/>
      <use x="488.232422" xlink:href="#DejaVuSans-113"/>
      <use x="551.708984" xlink:href="#DejaVuSans-95"/>
      <use x="601.708984" xlink:href="#DejaVuSans-110"/>
      <use x="665.087891" xlink:href="#DejaVuSans-111"/>
      <use x="726.269531" xlink:href="#DejaVuSans-114"/>
      <use x="765.632812" xlink:href="#DejaVuSans-109"/>
     </g>
    </g>
    <g id="line2d_31">
     <path d="M 907.367188 156.721563 
L 927.367188 156.721563 
" style="fill:none;stroke:#8c564b;stroke-dasharray:5.55,2.4;stroke-dashoffset:0;stroke-width:1.5;"/>
    </g>
    <g id="line2d_32"/>
    <g id="text_22">
     <!-- Molchanov_group -->
     <defs>
      <path d="M 9.8125 72.90625 
L 24.515625 72.90625 
L 43.109375 23.296875 
L 61.8125 72.90625 
L 76.515625 72.90625 
L 76.515625 0 
L 66.890625 0 
L 66.890625 64.015625 
L 48.09375 14.015625 
L 38.1875 14.015625 
L 19.390625 64.015625 
L 19.390625 0 
L 9.8125 0 
z
" id="DejaVuSans-77"/>
      <path d="M 54.890625 33.015625 
L 54.890625 0 
L 45.90625 0 
L 45.90625 32.71875 
Q 45.90625 40.484375 42.875 44.328125 
Q 39.84375 48.1875 33.796875 48.1875 
Q 26.515625 48.1875 22.3125 43.546875 
Q 18.109375 38.921875 18.109375 30.90625 
L 18.109375 0 
L 9.078125 0 
L 9.078125 75.984375 
L 18.109375 75.984375 
L 18.109375 46.1875 
Q 21.34375 51.125 25.703125 53.5625 
Q 30.078125 56 35.796875 56 
Q 45.21875 56 50.046875 50.171875 
Q 54.890625 44.34375 54.890625 33.015625 
z
" id="DejaVuSans-104"/>
      <path d="M 2.984375 54.6875 
L 12.5 54.6875 
L 29.59375 8.796875 
L 46.6875 54.6875 
L 56.203125 54.6875 
L 35.6875 0 
L 23.484375 0 
z
" id="DejaVuSans-118"/>
      <path d="M 45.40625 27.984375 
Q 45.40625 37.75 41.375 43.109375 
Q 37.359375 48.484375 30.078125 48.484375 
Q 22.859375 48.484375 18.828125 43.109375 
Q 14.796875 37.75 14.796875 27.984375 
Q 14.796875 18.265625 18.828125 12.890625 
Q 22.859375 7.515625 30.078125 7.515625 
Q 37.359375 7.515625 41.375 12.890625 
Q 45.40625 18.265625 45.40625 27.984375 
z
M 54.390625 6.78125 
Q 54.390625 -7.171875 48.1875 -13.984375 
Q 42 -20.796875 29.203125 -20.796875 
Q 24.46875 -20.796875 20.265625 -20.09375 
Q 16.0625 -19.390625 12.109375 -17.921875 
L 12.109375 -9.1875 
Q 16.0625 -11.328125 19.921875 -12.34375 
Q 23.78125 -13.375 27.78125 -13.375 
Q 36.625 -13.375 41.015625 -8.765625 
Q 45.40625 -4.15625 45.40625 5.171875 
L 45.40625 9.625 
Q 42.625 4.78125 38.28125 2.390625 
Q 33.9375 0 27.875 0 
Q 17.828125 0 11.671875 7.65625 
Q 5.515625 15.328125 5.515625 27.984375 
Q 5.515625 40.671875 11.671875 48.328125 
Q 17.828125 56 27.875 56 
Q 33.9375 56 38.28125 53.609375 
Q 42.625 51.21875 45.40625 46.390625 
L 45.40625 54.6875 
L 54.390625 54.6875 
z
" id="DejaVuSans-103"/>
     </defs>
     <g transform="translate(935.367188 160.221563)scale(0.1 -0.1)">
      <use xlink:href="#DejaVuSans-77"/>
      <use x="86.279297" xlink:href="#DejaVuSans-111"/>
      <use x="147.460938" xlink:href="#DejaVuSans-108"/>
      <use x="175.244141" xlink:href="#DejaVuSans-99"/>
      <use x="230.224609" xlink:href="#DejaVuSans-104"/>
      <use x="293.603516" xlink:href="#DejaVuSans-97"/>
      <use x="354.882812" xlink:href="#DejaVuSans-110"/>
      <use x="418.261719" xlink:href="#DejaVuSans-111"/>
      <use x="479.443359" xlink:href="#DejaVuSans-118"/>
      <use x="538.623047" xlink:href="#DejaVuSans-95"/>
      <use x="588.623047" xlink:href="#DejaVuSans-103"/>
      <use x="652.099609" xlink:href="#DejaVuSans-114"/>
      <use x="690.962891" xlink:href="#DejaVuSans-111"/>
      <use x="752.144531" xlink:href="#DejaVuSans-117"/>
      <use x="815.523438" xlink:href="#DejaVuSans-112"/>
     </g>
    </g>
   </g>
  </g>
 </g>
 <defs>
  <clipPath id="pa2e8b68c2d">
   <rect height="434.88" width="892.8" x="144" y="69.12"/>
  </clipPath>
 </defs>
</svg>
