<?xml version="1.0" encoding="utf-8" standalone="no"?>
<!DOCTYPE svg PUBLIC "-//W3C//DTD SVG 1.1//EN"
  "http://www.w3.org/Graphics/SVG/1.1/DTD/svg11.dtd">
<svg xmlns:xlink="http://www.w3.org/1999/xlink" width="432pt" height="288pt" viewBox="0 0 432 288" xmlns="http://www.w3.org/2000/svg" version="1.1">
 <metadata>
  <rdf:RDF xmlns:dc="http://purl.org/dc/elements/1.1/" xmlns:cc="http://creativecommons.org/ns#" xmlns:rdf="http://www.w3.org/1999/02/22-rdf-syntax-ns#">
   <cc:Work>
    <dc:type rdf:resource="http://purl.org/dc/dcmitype/StillImage"/>
    <dc:date>2022-07-12T10:28:28.454301</dc:date>
    <dc:format>image/svg+xml</dc:format>
    <dc:creator>
     <cc:Agent>
      <dc:title>Matplotlib v3.5.2, https://matplotlib.org/</dc:title>
     </cc:Agent>
    </dc:creator>
   </cc:Work>
  </rdf:RDF>
 </metadata>
 <defs>
  <style type="text/css">*{stroke-linejoin: round; stroke-linecap: butt}</style>
 </defs>
 <g id="figure_1">
  <g id="patch_1">
   <path d="M 0 288 
L 432 288 
L 432 0 
L 0 0 
L 0 288 
z
" style="fill: none"/>
  </g>
  <g id="axes_1">
   <g id="patch_2">
    <path d="M 54 252 
L 388.8 252 
L 388.8 34.56 
L 54 34.56 
z
" style="fill: #ffffff"/>
   </g>
   <g id="matplotlib.axis_1">
    <g id="xtick_1">
     <g id="line2d_1">
      <defs>
       <path id="m90aa8f57b3" d="M 0 0 
L 0 3.5 
" style="stroke: #000000; stroke-width: 0.8"/>
      </defs>
      <g>
       <use xlink:href="#m90aa8f57b3" x="69.218182" y="252" style="stroke: #000000; stroke-width: 0.8"/>
      </g>
     </g>
     <g id="text_1">
      <!-- 0 -->
      <g transform="translate(66.036932 266.598437)scale(0.1 -0.1)">
       <defs>
        <path id="DejaVuSans-30" d="M 2034 4250 
Q 1547 4250 1301 3770 
Q 1056 3291 1056 2328 
Q 1056 1369 1301 889 
Q 1547 409 2034 409 
Q 2525 409 2770 889 
Q 3016 1369 3016 2328 
Q 3016 3291 2770 3770 
Q 2525 4250 2034 4250 
z
M 2034 4750 
Q 2819 4750 3233 4129 
Q 3647 3509 3647 2328 
Q 3647 1150 3233 529 
Q 2819 -91 2034 -91 
Q 1250 -91 836 529 
Q 422 1150 422 2328 
Q 422 3509 836 4129 
Q 1250 4750 2034 4750 
z
" transform="scale(0.015625)"/>
       </defs>
       <use xlink:href="#DejaVuSans-30"/>
      </g>
     </g>
    </g>
    <g id="xtick_2">
     <g id="line2d_2">
      <g>
       <use xlink:href="#m90aa8f57b3" x="107.45482" y="252" style="stroke: #000000; stroke-width: 0.8"/>
      </g>
     </g>
     <g id="text_2">
      <!-- 25 -->
      <g transform="translate(101.09232 266.598437)scale(0.1 -0.1)">
       <defs>
        <path id="DejaVuSans-32" d="M 1228 531 
L 3431 531 
L 3431 0 
L 469 0 
L 469 531 
Q 828 903 1448 1529 
Q 2069 2156 2228 2338 
Q 2531 2678 2651 2914 
Q 2772 3150 2772 3378 
Q 2772 3750 2511 3984 
Q 2250 4219 1831 4219 
Q 1534 4219 1204 4116 
Q 875 4013 500 3803 
L 500 4441 
Q 881 4594 1212 4672 
Q 1544 4750 1819 4750 
Q 2544 4750 2975 4387 
Q 3406 4025 3406 3419 
Q 3406 3131 3298 2873 
Q 3191 2616 2906 2266 
Q 2828 2175 2409 1742 
Q 1991 1309 1228 531 
z
" transform="scale(0.015625)"/>
        <path id="DejaVuSans-35" d="M 691 4666 
L 3169 4666 
L 3169 4134 
L 1269 4134 
L 1269 2991 
Q 1406 3038 1543 3061 
Q 1681 3084 1819 3084 
Q 2600 3084 3056 2656 
Q 3513 2228 3513 1497 
Q 3513 744 3044 326 
Q 2575 -91 1722 -91 
Q 1428 -91 1123 -41 
Q 819 9 494 109 
L 494 744 
Q 775 591 1075 516 
Q 1375 441 1709 441 
Q 2250 441 2565 725 
Q 2881 1009 2881 1497 
Q 2881 1984 2565 2268 
Q 2250 2553 1709 2553 
Q 1456 2553 1204 2497 
Q 953 2441 691 2322 
L 691 4666 
z
" transform="scale(0.015625)"/>
       </defs>
       <use xlink:href="#DejaVuSans-32"/>
       <use xlink:href="#DejaVuSans-35" x="63.623047"/>
      </g>
     </g>
    </g>
    <g id="xtick_3">
     <g id="line2d_3">
      <g>
       <use xlink:href="#m90aa8f57b3" x="145.691457" y="252" style="stroke: #000000; stroke-width: 0.8"/>
      </g>
     </g>
     <g id="text_3">
      <!-- 50 -->
      <g transform="translate(139.328957 266.598437)scale(0.1 -0.1)">
       <use xlink:href="#DejaVuSans-35"/>
       <use xlink:href="#DejaVuSans-30" x="63.623047"/>
      </g>
     </g>
    </g>
    <g id="xtick_4">
     <g id="line2d_4">
      <g>
       <use xlink:href="#m90aa8f57b3" x="183.928095" y="252" style="stroke: #000000; stroke-width: 0.8"/>
      </g>
     </g>
     <g id="text_4">
      <!-- 75 -->
      <g transform="translate(177.565595 266.598437)scale(0.1 -0.1)">
       <defs>
        <path id="DejaVuSans-37" d="M 525 4666 
L 3525 4666 
L 3525 4397 
L 1831 0 
L 1172 0 
L 2766 4134 
L 525 4134 
L 525 4666 
z
" transform="scale(0.015625)"/>
       </defs>
       <use xlink:href="#DejaVuSans-37"/>
       <use xlink:href="#DejaVuSans-35" x="63.623047"/>
      </g>
     </g>
    </g>
    <g id="xtick_5">
     <g id="line2d_5">
      <g>
       <use xlink:href="#m90aa8f57b3" x="222.164733" y="252" style="stroke: #000000; stroke-width: 0.8"/>
      </g>
     </g>
     <g id="text_5">
      <!-- 100 -->
      <g transform="translate(212.620983 266.598437)scale(0.1 -0.1)">
       <defs>
        <path id="DejaVuSans-31" d="M 794 531 
L 1825 531 
L 1825 4091 
L 703 3866 
L 703 4441 
L 1819 4666 
L 2450 4666 
L 2450 531 
L 3481 531 
L 3481 0 
L 794 0 
L 794 531 
z
" transform="scale(0.015625)"/>
       </defs>
       <use xlink:href="#DejaVuSans-31"/>
       <use xlink:href="#DejaVuSans-30" x="63.623047"/>
       <use xlink:href="#DejaVuSans-30" x="127.246094"/>
      </g>
     </g>
    </g>
    <g id="xtick_6">
     <g id="line2d_6">
      <g>
       <use xlink:href="#m90aa8f57b3" x="260.40137" y="252" style="stroke: #000000; stroke-width: 0.8"/>
      </g>
     </g>
     <g id="text_6">
      <!-- 125 -->
      <g transform="translate(250.85762 266.598437)scale(0.1 -0.1)">
       <use xlink:href="#DejaVuSans-31"/>
       <use xlink:href="#DejaVuSans-32" x="63.623047"/>
       <use xlink:href="#DejaVuSans-35" x="127.246094"/>
      </g>
     </g>
    </g>
    <g id="xtick_7">
     <g id="line2d_7">
      <g>
       <use xlink:href="#m90aa8f57b3" x="298.638008" y="252" style="stroke: #000000; stroke-width: 0.8"/>
      </g>
     </g>
     <g id="text_7">
      <!-- 150 -->
      <g transform="translate(289.094258 266.598437)scale(0.1 -0.1)">
       <use xlink:href="#DejaVuSans-31"/>
       <use xlink:href="#DejaVuSans-35" x="63.623047"/>
       <use xlink:href="#DejaVuSans-30" x="127.246094"/>
      </g>
     </g>
    </g>
    <g id="xtick_8">
     <g id="line2d_8">
      <g>
       <use xlink:href="#m90aa8f57b3" x="336.874646" y="252" style="stroke: #000000; stroke-width: 0.8"/>
      </g>
     </g>
     <g id="text_8">
      <!-- 175 -->
      <g transform="translate(327.330896 266.598437)scale(0.1 -0.1)">
       <use xlink:href="#DejaVuSans-31"/>
       <use xlink:href="#DejaVuSans-37" x="63.623047"/>
       <use xlink:href="#DejaVuSans-35" x="127.246094"/>
      </g>
     </g>
    </g>
    <g id="xtick_9">
     <g id="line2d_9">
      <g>
       <use xlink:href="#m90aa8f57b3" x="375.111284" y="252" style="stroke: #000000; stroke-width: 0.8"/>
      </g>
     </g>
     <g id="text_9">
      <!-- 200 -->
      <g transform="translate(365.567534 266.598437)scale(0.1 -0.1)">
       <use xlink:href="#DejaVuSans-32"/>
       <use xlink:href="#DejaVuSans-30" x="63.623047"/>
       <use xlink:href="#DejaVuSans-30" x="127.246094"/>
      </g>
     </g>
    </g>
   </g>
   <g id="matplotlib.axis_2">
    <g id="ytick_1">
     <g id="line2d_10">
      <defs>
       <path id="m21f885e74f" d="M 0 0 
L -3.5 0 
" style="stroke: #000000; stroke-width: 0.8"/>
      </defs>
      <g>
       <use xlink:href="#m21f885e74f" x="54" y="242.168087" style="stroke: #000000; stroke-width: 0.8"/>
      </g>
     </g>
     <g id="text_10">
      <!-- 0.00 -->
      <g transform="translate(24.734375 245.967305)scale(0.1 -0.1)">
       <defs>
        <path id="DejaVuSans-2e" d="M 684 794 
L 1344 794 
L 1344 0 
L 684 0 
L 684 794 
z
" transform="scale(0.015625)"/>
       </defs>
       <use xlink:href="#DejaVuSans-30"/>
       <use xlink:href="#DejaVuSans-2e" x="63.623047"/>
       <use xlink:href="#DejaVuSans-30" x="95.410156"/>
       <use xlink:href="#DejaVuSans-30" x="159.033203"/>
      </g>
     </g>
    </g>
    <g id="ytick_2">
     <g id="line2d_11">
      <g>
       <use xlink:href="#m21f885e74f" x="54" y="214.139954" style="stroke: #000000; stroke-width: 0.8"/>
      </g>
     </g>
     <g id="text_11">
      <!-- 0.25 -->
      <g transform="translate(24.734375 217.939173)scale(0.1 -0.1)">
       <use xlink:href="#DejaVuSans-30"/>
       <use xlink:href="#DejaVuSans-2e" x="63.623047"/>
       <use xlink:href="#DejaVuSans-32" x="95.410156"/>
       <use xlink:href="#DejaVuSans-35" x="159.033203"/>
      </g>
     </g>
    </g>
    <g id="ytick_3">
     <g id="line2d_12">
      <g>
       <use xlink:href="#m21f885e74f" x="54" y="186.111822" style="stroke: #000000; stroke-width: 0.8"/>
      </g>
     </g>
     <g id="text_12">
      <!-- 0.50 -->
      <g transform="translate(24.734375 189.911041)scale(0.1 -0.1)">
       <use xlink:href="#DejaVuSans-30"/>
       <use xlink:href="#DejaVuSans-2e" x="63.623047"/>
       <use xlink:href="#DejaVuSans-35" x="95.410156"/>
       <use xlink:href="#DejaVuSans-30" x="159.033203"/>
      </g>
     </g>
    </g>
    <g id="ytick_4">
     <g id="line2d_13">
      <g>
       <use xlink:href="#m21f885e74f" x="54" y="158.08369" style="stroke: #000000; stroke-width: 0.8"/>
      </g>
     </g>
     <g id="text_13">
      <!-- 0.75 -->
      <g transform="translate(24.734375 161.882909)scale(0.1 -0.1)">
       <use xlink:href="#DejaVuSans-30"/>
       <use xlink:href="#DejaVuSans-2e" x="63.623047"/>
       <use xlink:href="#DejaVuSans-37" x="95.410156"/>
       <use xlink:href="#DejaVuSans-35" x="159.033203"/>
      </g>
     </g>
    </g>
    <g id="ytick_5">
     <g id="line2d_14">
      <g>
       <use xlink:href="#m21f885e74f" x="54" y="130.055558" style="stroke: #000000; stroke-width: 0.8"/>
      </g>
     </g>
     <g id="text_14">
      <!-- 1.00 -->
      <g transform="translate(24.734375 133.854776)scale(0.1 -0.1)">
       <use xlink:href="#DejaVuSans-31"/>
       <use xlink:href="#DejaVuSans-2e" x="63.623047"/>
       <use xlink:href="#DejaVuSans-30" x="95.410156"/>
       <use xlink:href="#DejaVuSans-30" x="159.033203"/>
      </g>
     </g>
    </g>
    <g id="ytick_6">
     <g id="line2d_15">
      <g>
       <use xlink:href="#m21f885e74f" x="54" y="102.027425" style="stroke: #000000; stroke-width: 0.8"/>
      </g>
     </g>
     <g id="text_15">
      <!-- 1.25 -->
      <g transform="translate(24.734375 105.826644)scale(0.1 -0.1)">
       <use xlink:href="#DejaVuSans-31"/>
       <use xlink:href="#DejaVuSans-2e" x="63.623047"/>
       <use xlink:href="#DejaVuSans-32" x="95.410156"/>
       <use xlink:href="#DejaVuSans-35" x="159.033203"/>
      </g>
     </g>
    </g>
    <g id="ytick_7">
     <g id="line2d_16">
      <g>
       <use xlink:href="#m21f885e74f" x="54" y="73.999293" style="stroke: #000000; stroke-width: 0.8"/>
      </g>
     </g>
     <g id="text_16">
      <!-- 1.50 -->
      <g transform="translate(24.734375 77.798512)scale(0.1 -0.1)">
       <use xlink:href="#DejaVuSans-31"/>
       <use xlink:href="#DejaVuSans-2e" x="63.623047"/>
       <use xlink:href="#DejaVuSans-35" x="95.410156"/>
       <use xlink:href="#DejaVuSans-30" x="159.033203"/>
      </g>
     </g>
    </g>
    <g id="ytick_8">
     <g id="line2d_17">
      <g>
       <use xlink:href="#m21f885e74f" x="54" y="45.971161" style="stroke: #000000; stroke-width: 0.8"/>
      </g>
     </g>
     <g id="text_17">
      <!-- 1.75 -->
      <g transform="translate(24.734375 49.77038)scale(0.1 -0.1)">
       <use xlink:href="#DejaVuSans-31"/>
       <use xlink:href="#DejaVuSans-2e" x="63.623047"/>
       <use xlink:href="#DejaVuSans-37" x="95.410156"/>
       <use xlink:href="#DejaVuSans-35" x="159.033203"/>
      </g>
     </g>
    </g>
    <g id="text_18">
     <!-- Loss -->
     <g transform="translate(18.654688 154.247187)rotate(-90)scale(0.1 -0.1)">
      <defs>
       <path id="DejaVuSans-4c" d="M 628 4666 
L 1259 4666 
L 1259 531 
L 3531 531 
L 3531 0 
L 628 0 
L 628 4666 
z
" transform="scale(0.015625)"/>
       <path id="DejaVuSans-6f" d="M 1959 3097 
Q 1497 3097 1228 2736 
Q 959 2375 959 1747 
Q 959 1119 1226 758 
Q 1494 397 1959 397 
Q 2419 397 2687 759 
Q 2956 1122 2956 1747 
Q 2956 2369 2687 2733 
Q 2419 3097 1959 3097 
z
M 1959 3584 
Q 2709 3584 3137 3096 
Q 3566 2609 3566 1747 
Q 3566 888 3137 398 
Q 2709 -91 1959 -91 
Q 1206 -91 779 398 
Q 353 888 353 1747 
Q 353 2609 779 3096 
Q 1206 3584 1959 3584 
z
" transform="scale(0.015625)"/>
       <path id="DejaVuSans-73" d="M 2834 3397 
L 2834 2853 
Q 2591 2978 2328 3040 
Q 2066 3103 1784 3103 
Q 1356 3103 1142 2972 
Q 928 2841 928 2578 
Q 928 2378 1081 2264 
Q 1234 2150 1697 2047 
L 1894 2003 
Q 2506 1872 2764 1633 
Q 3022 1394 3022 966 
Q 3022 478 2636 193 
Q 2250 -91 1575 -91 
Q 1294 -91 989 -36 
Q 684 19 347 128 
L 347 722 
Q 666 556 975 473 
Q 1284 391 1588 391 
Q 1994 391 2212 530 
Q 2431 669 2431 922 
Q 2431 1156 2273 1281 
Q 2116 1406 1581 1522 
L 1381 1569 
Q 847 1681 609 1914 
Q 372 2147 372 2553 
Q 372 3047 722 3315 
Q 1072 3584 1716 3584 
Q 2034 3584 2315 3537 
Q 2597 3491 2834 3397 
z
" transform="scale(0.015625)"/>
      </defs>
      <use xlink:href="#DejaVuSans-4c"/>
      <use xlink:href="#DejaVuSans-6f" x="53.962891"/>
      <use xlink:href="#DejaVuSans-73" x="115.144531"/>
      <use xlink:href="#DejaVuSans-73" x="167.244141"/>
     </g>
    </g>
   </g>
   <g id="line2d_18">
    <path d="M 69.218182 44.443636 
L 70.747647 75.556533 
L 72.277113 89.086314 
L 73.806578 104.34288 
L 75.336044 117.759864 
L 78.394975 132.17702 
L 79.92444 137.635207 
L 82.983371 146.210606 
L 84.512837 148.124619 
L 86.042302 151.87607 
L 87.571768 155.143134 
L 89.101233 157.234182 
L 92.160164 161.674284 
L 93.68963 164.543403 
L 95.219095 166.295337 
L 96.748561 167.531428 
L 99.807492 172.746219 
L 101.336958 173.459376 
L 102.866423 176.995196 
L 104.395889 177.47017 
L 105.925354 178.382198 
L 107.45482 181.41156 
L 108.984285 181.068436 
L 110.513751 182.930012 
L 112.043216 185.395697 
L 113.572682 186.517468 
L 115.102147 188.845293 
L 116.631613 188.220168 
L 118.161078 190.232896 
L 119.690544 191.403841 
L 121.220009 192.199966 
L 122.749475 194.155496 
L 124.27894 196.697739 
L 125.808406 196.215854 
L 127.337871 199.153857 
L 128.867337 199.040059 
L 130.396802 198.401338 
L 131.926268 202.029621 
L 133.455733 202.171592 
L 134.985199 202.727989 
L 136.514664 202.70462 
L 138.04413 205.759207 
L 139.573595 204.607331 
L 141.103061 206.80797 
L 142.632526 207.152101 
L 144.161992 208.002627 
L 145.691457 209.812788 
L 147.220923 209.743797 
L 148.750388 209.080389 
L 150.279854 212.292873 
L 151.809319 208.426591 
L 153.338785 213.020534 
L 154.86825 214.228527 
L 156.397716 214.972615 
L 157.927181 211.624168 
L 159.456647 216.796584 
L 160.986112 215.294366 
L 162.515578 217.150899 
L 164.045043 216.257894 
L 165.574509 217.483516 
L 167.103974 217.671786 
L 168.63344 219.243528 
L 170.162905 218.645259 
L 171.692371 218.787656 
L 174.751302 220.819966 
L 176.280767 221.661283 
L 177.810233 221.170501 
L 179.339698 221.287179 
L 180.869164 222.72463 
L 182.39863 223.531786 
L 183.928095 223.48898 
L 185.457561 223.166083 
L 186.987026 224.730614 
L 190.045957 225.030794 
L 191.575423 225.011631 
L 193.104888 226.478554 
L 194.634354 225.585566 
L 196.163819 227.568873 
L 199.22275 227.35186 
L 200.752216 228.17151 
L 203.811147 228.612342 
L 205.340612 229.460398 
L 206.870078 228.649505 
L 208.399543 230.348171 
L 209.929009 229.791005 
L 212.98794 231.071642 
L 214.517405 231.74053 
L 216.046871 230.665118 
L 217.576336 231.628688 
L 219.105802 232.124707 
L 220.635267 232.327846 
L 222.164733 232.40699 
L 223.694198 233.515792 
L 225.223664 233.057981 
L 226.753129 233.095602 
L 228.282595 234.02985 
L 229.81206 233.711304 
L 231.341526 234.435412 
L 232.870991 234.615345 
L 234.400457 234.569467 
L 235.929922 235.15909 
L 238.988853 235.206059 
L 240.518319 236.208107 
L 242.047784 235.564699 
L 243.57725 236.352104 
L 245.106715 236.514131 
L 246.636181 236.821495 
L 249.695112 237.182547 
L 251.224577 237.045462 
L 252.754043 237.575212 
L 254.283508 237.568547 
L 255.812974 237.887322 
L 257.342439 237.594787 
L 258.871905 238.169929 
L 260.40137 238.160021 
L 263.460302 238.644667 
L 264.989767 238.591918 
L 266.519233 239.138293 
L 268.048698 238.551069 
L 269.578164 239.170005 
L 271.107629 239.283433 
L 272.637095 239.536822 
L 274.16656 239.159498 
L 275.696026 239.560366 
L 277.225491 240.100542 
L 278.754957 239.755927 
L 280.284422 240.359181 
L 281.813888 240.070671 
L 283.343353 240.083005 
L 284.872819 240.431396 
L 286.402284 240.598112 
L 287.93175 240.300542 
L 289.461215 240.659476 
L 290.990681 240.321286 
L 294.049612 240.902027 
L 295.579077 240.832148 
L 301.696939 241.107511 
L 303.226405 241.310974 
L 304.75587 241.183728 
L 306.285336 241.45161 
L 307.814801 241.252291 
L 310.873732 241.631868 
L 312.403198 241.53074 
L 318.52106 241.688175 
L 320.050525 241.832221 
L 321.579991 241.691602 
L 323.109456 241.803213 
L 324.638922 241.726334 
L 326.168387 241.863984 
L 329.227318 241.84247 
L 344.521974 242.015717 
L 353.698767 242.055413 
L 368.993422 242.103535 
L 372.052353 242.116364 
L 373.581818 242.088782 
L 373.581818 242.088782 
" clip-path="url(#p3410deb55e)" style="fill: none; stroke: #1f77b4; stroke-width: 1.5; stroke-linecap: square"/>
   </g>
   <g id="line2d_19">
    <path d="M 69.218182 72.517151 
L 70.747647 91.216164 
L 72.277113 103.102608 
L 73.806578 125.359043 
L 76.865509 136.074511 
L 78.394975 142.618325 
L 79.92444 148.222557 
L 81.453906 147.82877 
L 82.983371 150.776249 
L 84.512837 150.473755 
L 86.042302 153.42654 
L 87.571768 138.785791 
L 89.101233 161.840877 
L 90.630699 158.968185 
L 92.160164 157.731234 
L 93.68963 157.815146 
L 95.219095 164.149438 
L 96.748561 155.935706 
L 98.278026 164.564628 
L 99.807492 156.100554 
L 101.336958 164.006751 
L 102.866423 163.545584 
L 104.395889 157.831886 
L 105.925354 162.787829 
L 107.45482 162.406862 
L 108.984285 154.955958 
L 110.513751 163.87368 
L 112.043216 159.186719 
L 116.631613 155.999367 
L 118.161078 156.146747 
L 119.690544 160.239347 
L 121.220009 152.246287 
L 122.749475 152.559395 
L 124.27894 154.474403 
L 125.808406 146.687393 
L 127.337871 155.668087 
L 128.867337 155.455998 
L 131.926268 131.26192 
L 133.455733 123.100775 
L 134.985199 147.188748 
L 136.514664 151.643578 
L 138.04413 145.919269 
L 139.573595 146.999839 
L 141.103061 140.667889 
L 142.632526 137.969103 
L 144.161992 141.164452 
L 145.691457 141.116192 
L 147.220923 139.533039 
L 148.750388 124.2402 
L 150.279854 128.36738 
L 151.809319 129.942346 
L 153.338785 133.743381 
L 154.86825 136.971379 
L 156.397716 130.799618 
L 157.927181 123.193121 
L 159.456647 130.57245 
L 160.986112 127.067569 
L 162.515578 122.393503 
L 164.045043 120.096126 
L 165.574509 118.920229 
L 167.103974 115.283805 
L 168.63344 108.804328 
L 170.162905 108.603887 
L 171.692371 117.744475 
L 173.221836 116.31778 
L 174.751302 120.232835 
L 176.280767 120.882979 
L 177.810233 105.732818 
L 179.339698 116.343517 
L 180.869164 112.487869 
L 182.39863 110.48441 
L 183.928095 105.882717 
L 185.457561 109.132599 
L 186.987026 99.680155 
L 188.516492 109.883548 
L 190.045957 113.427022 
L 191.575423 95.205009 
L 193.104888 100.320975 
L 194.634354 99.200516 
L 196.163819 99.74901 
L 197.693285 97.697306 
L 199.22275 91.842197 
L 200.752216 89.814063 
L 202.281681 98.238175 
L 203.811147 99.848727 
L 205.340612 82.690876 
L 206.870078 90.261741 
L 208.399543 92.814245 
L 209.929009 92.769018 
L 211.458474 91.479045 
L 212.98794 90.914084 
L 214.517405 83.995613 
L 216.046871 63.743165 
L 217.576336 86.921851 
L 219.105802 80.205007 
L 220.635267 72.226873 
L 222.164733 89.779536 
L 223.694198 85.728721 
L 226.753129 82.923709 
L 228.282595 79.233422 
L 229.81206 76.432772 
L 231.341526 77.732376 
L 232.870991 75.645262 
L 234.400457 79.978243 
L 235.929922 75.810281 
L 237.459388 72.790657 
L 238.988853 73.520155 
L 240.518319 71.233948 
L 242.047784 67.384829 
L 243.57725 77.212048 
L 245.106715 62.849619 
L 246.636181 68.762706 
L 248.165646 70.046532 
L 249.695112 72.759704 
L 251.224577 72.735298 
L 252.754043 64.969164 
L 254.283508 69.778094 
L 255.812974 62.552991 
L 257.342439 66.114923 
L 258.871905 53.948717 
L 260.40137 63.817165 
L 261.930836 60.241174 
L 263.460302 69.908939 
L 264.989767 66.781632 
L 266.519233 68.215752 
L 268.048698 66.688913 
L 269.578164 60.533535 
L 271.107629 59.750639 
L 272.637095 56.600275 
L 274.16656 67.265461 
L 275.696026 59.013437 
L 277.225491 63.49656 
L 278.754957 65.369473 
L 280.284422 65.798485 
L 281.813888 57.749576 
L 283.343353 62.982641 
L 284.872819 63.144365 
L 286.402284 56.535282 
L 287.93175 64.838485 
L 289.461215 62.736957 
L 290.990681 61.274639 
L 292.520146 55.010456 
L 294.049612 47.874729 
L 295.579077 60.346228 
L 297.108543 53.792202 
L 298.638008 55.307493 
L 300.167474 67.380963 
L 301.696939 60.581356 
L 303.226405 62.599087 
L 304.75587 65.264743 
L 306.285336 59.074794 
L 307.814801 53.375845 
L 309.344267 56.604178 
L 310.873732 50.414055 
L 312.403198 55.814585 
L 313.932663 46.417884 
L 315.462129 53.341318 
L 316.991594 51.121303 
L 318.52106 51.361162 
L 320.050525 53.549614 
L 321.579991 52.673547 
L 323.109456 50.253195 
L 324.638922 53.500658 
L 326.168387 52.8205 
L 327.697853 56.209776 
L 329.227318 53.519201 
L 330.756784 57.67116 
L 332.286249 54.839292 
L 333.815715 52.426012 
L 335.34518 51.696606 
L 336.874646 52.100284 
L 338.404111 53.481035 
L 339.933577 53.551404 
L 341.463042 53.766908 
L 342.992508 50.231482 
L 344.521974 52.915053 
L 346.051439 53.267051 
L 347.580905 53.063388 
L 349.11037 53.153956 
L 352.169301 54.024317 
L 353.698767 55.082071 
L 355.228232 54.82743 
L 356.757698 55.537574 
L 358.287163 54.970869 
L 359.816629 53.584473 
L 361.346094 53.135593 
L 362.87556 52.958917 
L 364.405025 53.459435 
L 373.581818 53.667965 
L 373.581818 53.667965 
" clip-path="url(#p3410deb55e)" style="fill: none; stroke: #ff7f0e; stroke-width: 1.5; stroke-linecap: square"/>
   </g>
   <g id="patch_3">
    <path d="M 54 252 
L 54 34.56 
" style="fill: none; stroke: #000000; stroke-width: 0.8; stroke-linejoin: miter; stroke-linecap: square"/>
   </g>
   <g id="patch_4">
    <path d="M 388.8 252 
L 388.8 34.56 
" style="fill: none; stroke: #000000; stroke-width: 0.8; stroke-linejoin: miter; stroke-linecap: square"/>
   </g>
   <g id="patch_5">
    <path d="M 54 252 
L 388.8 252 
" style="fill: none; stroke: #000000; stroke-width: 0.8; stroke-linejoin: miter; stroke-linecap: square"/>
   </g>
   <g id="patch_6">
    <path d="M 54 34.56 
L 388.8 34.56 
" style="fill: none; stroke: #000000; stroke-width: 0.8; stroke-linejoin: miter; stroke-linecap: square"/>
   </g>
   <g id="legend_1">
    <g id="patch_7">
     <path d="M 61 247 
L 116.275 247 
Q 118.275 247 118.275 245 
L 118.275 216.64375 
Q 118.275 214.64375 116.275 214.64375 
L 61 214.64375 
Q 59 214.64375 59 216.64375 
L 59 245 
Q 59 247 61 247 
z
" style="fill: #ffffff; opacity: 0.8; stroke: #cccccc; stroke-linejoin: miter"/>
    </g>
    <g id="line2d_20">
     <path d="M 63 222.742188 
L 73 222.742188 
L 83 222.742188 
" style="fill: none; stroke: #1f77b4; stroke-width: 1.5; stroke-linecap: square"/>
    </g>
    <g id="text_19">
     <!-- train -->
     <g transform="translate(91 226.242188)scale(0.1 -0.1)">
      <defs>
       <path id="DejaVuSans-74" d="M 1172 4494 
L 1172 3500 
L 2356 3500 
L 2356 3053 
L 1172 3053 
L 1172 1153 
Q 1172 725 1289 603 
Q 1406 481 1766 481 
L 2356 481 
L 2356 0 
L 1766 0 
Q 1100 0 847 248 
Q 594 497 594 1153 
L 594 3053 
L 172 3053 
L 172 3500 
L 594 3500 
L 594 4494 
L 1172 4494 
z
" transform="scale(0.015625)"/>
       <path id="DejaVuSans-72" d="M 2631 2963 
Q 2534 3019 2420 3045 
Q 2306 3072 2169 3072 
Q 1681 3072 1420 2755 
Q 1159 2438 1159 1844 
L 1159 0 
L 581 0 
L 581 3500 
L 1159 3500 
L 1159 2956 
Q 1341 3275 1631 3429 
Q 1922 3584 2338 3584 
Q 2397 3584 2469 3576 
Q 2541 3569 2628 3553 
L 2631 2963 
z
" transform="scale(0.015625)"/>
       <path id="DejaVuSans-61" d="M 2194 1759 
Q 1497 1759 1228 1600 
Q 959 1441 959 1056 
Q 959 750 1161 570 
Q 1363 391 1709 391 
Q 2188 391 2477 730 
Q 2766 1069 2766 1631 
L 2766 1759 
L 2194 1759 
z
M 3341 1997 
L 3341 0 
L 2766 0 
L 2766 531 
Q 2569 213 2275 61 
Q 1981 -91 1556 -91 
Q 1019 -91 701 211 
Q 384 513 384 1019 
Q 384 1609 779 1909 
Q 1175 2209 1959 2209 
L 2766 2209 
L 2766 2266 
Q 2766 2663 2505 2880 
Q 2244 3097 1772 3097 
Q 1472 3097 1187 3025 
Q 903 2953 641 2809 
L 641 3341 
Q 956 3463 1253 3523 
Q 1550 3584 1831 3584 
Q 2591 3584 2966 3190 
Q 3341 2797 3341 1997 
z
" transform="scale(0.015625)"/>
       <path id="DejaVuSans-69" d="M 603 3500 
L 1178 3500 
L 1178 0 
L 603 0 
L 603 3500 
z
M 603 4863 
L 1178 4863 
L 1178 4134 
L 603 4134 
L 603 4863 
z
" transform="scale(0.015625)"/>
       <path id="DejaVuSans-6e" d="M 3513 2113 
L 3513 0 
L 2938 0 
L 2938 2094 
Q 2938 2591 2744 2837 
Q 2550 3084 2163 3084 
Q 1697 3084 1428 2787 
Q 1159 2491 1159 1978 
L 1159 0 
L 581 0 
L 581 3500 
L 1159 3500 
L 1159 2956 
Q 1366 3272 1645 3428 
Q 1925 3584 2291 3584 
Q 2894 3584 3203 3211 
Q 3513 2838 3513 2113 
z
" transform="scale(0.015625)"/>
      </defs>
      <use xlink:href="#DejaVuSans-74"/>
      <use xlink:href="#DejaVuSans-72" x="39.208984"/>
      <use xlink:href="#DejaVuSans-61" x="80.322266"/>
      <use xlink:href="#DejaVuSans-69" x="141.601562"/>
      <use xlink:href="#DejaVuSans-6e" x="169.384766"/>
     </g>
    </g>
    <g id="line2d_21">
     <path d="M 63 237.420312 
L 73 237.420312 
L 83 237.420312 
" style="fill: none; stroke: #ff7f0e; stroke-width: 1.5; stroke-linecap: square"/>
    </g>
    <g id="text_20">
     <!-- test -->
     <g transform="translate(91 240.920312)scale(0.1 -0.1)">
      <defs>
       <path id="DejaVuSans-65" d="M 3597 1894 
L 3597 1613 
L 953 1613 
Q 991 1019 1311 708 
Q 1631 397 2203 397 
Q 2534 397 2845 478 
Q 3156 559 3463 722 
L 3463 178 
Q 3153 47 2828 -22 
Q 2503 -91 2169 -91 
Q 1331 -91 842 396 
Q 353 884 353 1716 
Q 353 2575 817 3079 
Q 1281 3584 2069 3584 
Q 2775 3584 3186 3129 
Q 3597 2675 3597 1894 
z
M 3022 2063 
Q 3016 2534 2758 2815 
Q 2500 3097 2075 3097 
Q 1594 3097 1305 2825 
Q 1016 2553 972 2059 
L 3022 2063 
z
" transform="scale(0.015625)"/>
      </defs>
      <use xlink:href="#DejaVuSans-74"/>
      <use xlink:href="#DejaVuSans-65" x="39.208984"/>
      <use xlink:href="#DejaVuSans-73" x="100.732422"/>
      <use xlink:href="#DejaVuSans-74" x="152.832031"/>
     </g>
    </g>
   </g>
  </g>
 </g>
 <defs>
  <clipPath id="p3410deb55e">
   <rect x="54" y="34.56" width="334.8" height="217.44"/>
  </clipPath>
 </defs>
</svg>
