<?xml version="1.0" encoding="utf-8" standalone="no"?>
<!DOCTYPE svg PUBLIC "-//W3C//DTD SVG 1.1//EN"
  "http://www.w3.org/Graphics/SVG/1.1/DTD/svg11.dtd">
<svg xmlns:xlink="http://www.w3.org/1999/xlink" width="432pt" height="288pt" viewBox="0 0 432 288" xmlns="http://www.w3.org/2000/svg" version="1.1">
 <metadata>
  <rdf:RDF xmlns:dc="http://purl.org/dc/elements/1.1/" xmlns:cc="http://creativecommons.org/ns#" xmlns:rdf="http://www.w3.org/1999/02/22-rdf-syntax-ns#">
   <cc:Work>
    <dc:type rdf:resource="http://purl.org/dc/dcmitype/StillImage"/>
    <dc:date>2022-07-12T07:28:57.557843</dc:date>
    <dc:format>image/svg+xml</dc:format>
    <dc:creator>
     <cc:Agent>
      <dc:title>Matplotlib v3.5.2, https://matplotlib.org/</dc:title>
     </cc:Agent>
    </dc:creator>
   </cc:Work>
  </rdf:RDF>
 </metadata>
 <defs>
  <style type="text/css">*{stroke-linejoin: round; stroke-linecap: butt}</style>
 </defs>
 <g id="figure_1">
  <g id="patch_1">
   <path d="M 0 288 
L 432 288 
L 432 0 
L 0 0 
L 0 288 
z
" style="fill: none"/>
  </g>
  <g id="axes_1">
   <g id="patch_2">
    <path d="M 54 252 
L 388.8 252 
L 388.8 34.56 
L 54 34.56 
z
" style="fill: #ffffff"/>
   </g>
   <g id="matplotlib.axis_1">
    <g id="xtick_1">
     <g id="line2d_1">
      <defs>
       <path id="m3cae99efd8" d="M 0 0 
L 0 3.5 
" style="stroke: #000000; stroke-width: 0.8"/>
      </defs>
      <g>
       <use xlink:href="#m3cae99efd8" x="69.218182" y="252" style="stroke: #000000; stroke-width: 0.8"/>
      </g>
     </g>
     <g id="text_1">
      <!-- 0 -->
      <g transform="translate(66.036932 266.598437)scale(0.1 -0.1)">
       <defs>
        <path id="DejaVuSans-30" d="M 2034 4250 
Q 1547 4250 1301 3770 
Q 1056 3291 1056 2328 
Q 1056 1369 1301 889 
Q 1547 409 2034 409 
Q 2525 409 2770 889 
Q 3016 1369 3016 2328 
Q 3016 3291 2770 3770 
Q 2525 4250 2034 4250 
z
M 2034 4750 
Q 2819 4750 3233 4129 
Q 3647 3509 3647 2328 
Q 3647 1150 3233 529 
Q 2819 -91 2034 -91 
Q 1250 -91 836 529 
Q 422 1150 422 2328 
Q 422 3509 836 4129 
Q 1250 4750 2034 4750 
z
" transform="scale(0.015625)"/>
       </defs>
       <use xlink:href="#DejaVuSans-30"/>
      </g>
     </g>
    </g>
    <g id="xtick_2">
     <g id="line2d_2">
      <g>
       <use xlink:href="#m3cae99efd8" x="107.45482" y="252" style="stroke: #000000; stroke-width: 0.8"/>
      </g>
     </g>
     <g id="text_2">
      <!-- 25 -->
      <g transform="translate(101.09232 266.598437)scale(0.1 -0.1)">
       <defs>
        <path id="DejaVuSans-32" d="M 1228 531 
L 3431 531 
L 3431 0 
L 469 0 
L 469 531 
Q 828 903 1448 1529 
Q 2069 2156 2228 2338 
Q 2531 2678 2651 2914 
Q 2772 3150 2772 3378 
Q 2772 3750 2511 3984 
Q 2250 4219 1831 4219 
Q 1534 4219 1204 4116 
Q 875 4013 500 3803 
L 500 4441 
Q 881 4594 1212 4672 
Q 1544 4750 1819 4750 
Q 2544 4750 2975 4387 
Q 3406 4025 3406 3419 
Q 3406 3131 3298 2873 
Q 3191 2616 2906 2266 
Q 2828 2175 2409 1742 
Q 1991 1309 1228 531 
z
" transform="scale(0.015625)"/>
        <path id="DejaVuSans-35" d="M 691 4666 
L 3169 4666 
L 3169 4134 
L 1269 4134 
L 1269 2991 
Q 1406 3038 1543 3061 
Q 1681 3084 1819 3084 
Q 2600 3084 3056 2656 
Q 3513 2228 3513 1497 
Q 3513 744 3044 326 
Q 2575 -91 1722 -91 
Q 1428 -91 1123 -41 
Q 819 9 494 109 
L 494 744 
Q 775 591 1075 516 
Q 1375 441 1709 441 
Q 2250 441 2565 725 
Q 2881 1009 2881 1497 
Q 2881 1984 2565 2268 
Q 2250 2553 1709 2553 
Q 1456 2553 1204 2497 
Q 953 2441 691 2322 
L 691 4666 
z
" transform="scale(0.015625)"/>
       </defs>
       <use xlink:href="#DejaVuSans-32"/>
       <use xlink:href="#DejaVuSans-35" x="63.623047"/>
      </g>
     </g>
    </g>
    <g id="xtick_3">
     <g id="line2d_3">
      <g>
       <use xlink:href="#m3cae99efd8" x="145.691457" y="252" style="stroke: #000000; stroke-width: 0.8"/>
      </g>
     </g>
     <g id="text_3">
      <!-- 50 -->
      <g transform="translate(139.328957 266.598437)scale(0.1 -0.1)">
       <use xlink:href="#DejaVuSans-35"/>
       <use xlink:href="#DejaVuSans-30" x="63.623047"/>
      </g>
     </g>
    </g>
    <g id="xtick_4">
     <g id="line2d_4">
      <g>
       <use xlink:href="#m3cae99efd8" x="183.928095" y="252" style="stroke: #000000; stroke-width: 0.8"/>
      </g>
     </g>
     <g id="text_4">
      <!-- 75 -->
      <g transform="translate(177.565595 266.598437)scale(0.1 -0.1)">
       <defs>
        <path id="DejaVuSans-37" d="M 525 4666 
L 3525 4666 
L 3525 4397 
L 1831 0 
L 1172 0 
L 2766 4134 
L 525 4134 
L 525 4666 
z
" transform="scale(0.015625)"/>
       </defs>
       <use xlink:href="#DejaVuSans-37"/>
       <use xlink:href="#DejaVuSans-35" x="63.623047"/>
      </g>
     </g>
    </g>
    <g id="xtick_5">
     <g id="line2d_5">
      <g>
       <use xlink:href="#m3cae99efd8" x="222.164733" y="252" style="stroke: #000000; stroke-width: 0.8"/>
      </g>
     </g>
     <g id="text_5">
      <!-- 100 -->
      <g transform="translate(212.620983 266.598437)scale(0.1 -0.1)">
       <defs>
        <path id="DejaVuSans-31" d="M 794 531 
L 1825 531 
L 1825 4091 
L 703 3866 
L 703 4441 
L 1819 4666 
L 2450 4666 
L 2450 531 
L 3481 531 
L 3481 0 
L 794 0 
L 794 531 
z
" transform="scale(0.015625)"/>
       </defs>
       <use xlink:href="#DejaVuSans-31"/>
       <use xlink:href="#DejaVuSans-30" x="63.623047"/>
       <use xlink:href="#DejaVuSans-30" x="127.246094"/>
      </g>
     </g>
    </g>
    <g id="xtick_6">
     <g id="line2d_6">
      <g>
       <use xlink:href="#m3cae99efd8" x="260.40137" y="252" style="stroke: #000000; stroke-width: 0.8"/>
      </g>
     </g>
     <g id="text_6">
      <!-- 125 -->
      <g transform="translate(250.85762 266.598437)scale(0.1 -0.1)">
       <use xlink:href="#DejaVuSans-31"/>
       <use xlink:href="#DejaVuSans-32" x="63.623047"/>
       <use xlink:href="#DejaVuSans-35" x="127.246094"/>
      </g>
     </g>
    </g>
    <g id="xtick_7">
     <g id="line2d_7">
      <g>
       <use xlink:href="#m3cae99efd8" x="298.638008" y="252" style="stroke: #000000; stroke-width: 0.8"/>
      </g>
     </g>
     <g id="text_7">
      <!-- 150 -->
      <g transform="translate(289.094258 266.598437)scale(0.1 -0.1)">
       <use xlink:href="#DejaVuSans-31"/>
       <use xlink:href="#DejaVuSans-35" x="63.623047"/>
       <use xlink:href="#DejaVuSans-30" x="127.246094"/>
      </g>
     </g>
    </g>
    <g id="xtick_8">
     <g id="line2d_8">
      <g>
       <use xlink:href="#m3cae99efd8" x="336.874646" y="252" style="stroke: #000000; stroke-width: 0.8"/>
      </g>
     </g>
     <g id="text_8">
      <!-- 175 -->
      <g transform="translate(327.330896 266.598437)scale(0.1 -0.1)">
       <use xlink:href="#DejaVuSans-31"/>
       <use xlink:href="#DejaVuSans-37" x="63.623047"/>
       <use xlink:href="#DejaVuSans-35" x="127.246094"/>
      </g>
     </g>
    </g>
    <g id="xtick_9">
     <g id="line2d_9">
      <g>
       <use xlink:href="#m3cae99efd8" x="375.111284" y="252" style="stroke: #000000; stroke-width: 0.8"/>
      </g>
     </g>
     <g id="text_9">
      <!-- 200 -->
      <g transform="translate(365.567534 266.598437)scale(0.1 -0.1)">
       <use xlink:href="#DejaVuSans-32"/>
       <use xlink:href="#DejaVuSans-30" x="63.623047"/>
       <use xlink:href="#DejaVuSans-30" x="127.246094"/>
      </g>
     </g>
    </g>
   </g>
   <g id="matplotlib.axis_2">
    <g id="ytick_1">
     <g id="line2d_10">
      <defs>
       <path id="m8fa7973cef" d="M 0 0 
L -3.5 0 
" style="stroke: #000000; stroke-width: 0.8"/>
      </defs>
      <g>
       <use xlink:href="#m8fa7973cef" x="54" y="242.202482" style="stroke: #000000; stroke-width: 0.8"/>
      </g>
     </g>
     <g id="text_10">
      <!-- 0.00 -->
      <g transform="translate(24.734375 246.001701)scale(0.1 -0.1)">
       <defs>
        <path id="DejaVuSans-2e" d="M 684 794 
L 1344 794 
L 1344 0 
L 684 0 
L 684 794 
z
" transform="scale(0.015625)"/>
       </defs>
       <use xlink:href="#DejaVuSans-30"/>
       <use xlink:href="#DejaVuSans-2e" x="63.623047"/>
       <use xlink:href="#DejaVuSans-30" x="95.410156"/>
       <use xlink:href="#DejaVuSans-30" x="159.033203"/>
      </g>
     </g>
    </g>
    <g id="ytick_2">
     <g id="line2d_11">
      <g>
       <use xlink:href="#m8fa7973cef" x="54" y="214.252023" style="stroke: #000000; stroke-width: 0.8"/>
      </g>
     </g>
     <g id="text_11">
      <!-- 0.25 -->
      <g transform="translate(24.734375 218.051242)scale(0.1 -0.1)">
       <use xlink:href="#DejaVuSans-30"/>
       <use xlink:href="#DejaVuSans-2e" x="63.623047"/>
       <use xlink:href="#DejaVuSans-32" x="95.410156"/>
       <use xlink:href="#DejaVuSans-35" x="159.033203"/>
      </g>
     </g>
    </g>
    <g id="ytick_3">
     <g id="line2d_12">
      <g>
       <use xlink:href="#m8fa7973cef" x="54" y="186.301564" style="stroke: #000000; stroke-width: 0.8"/>
      </g>
     </g>
     <g id="text_12">
      <!-- 0.50 -->
      <g transform="translate(24.734375 190.100782)scale(0.1 -0.1)">
       <use xlink:href="#DejaVuSans-30"/>
       <use xlink:href="#DejaVuSans-2e" x="63.623047"/>
       <use xlink:href="#DejaVuSans-35" x="95.410156"/>
       <use xlink:href="#DejaVuSans-30" x="159.033203"/>
      </g>
     </g>
    </g>
    <g id="ytick_4">
     <g id="line2d_13">
      <g>
       <use xlink:href="#m8fa7973cef" x="54" y="158.351105" style="stroke: #000000; stroke-width: 0.8"/>
      </g>
     </g>
     <g id="text_13">
      <!-- 0.75 -->
      <g transform="translate(24.734375 162.150323)scale(0.1 -0.1)">
       <use xlink:href="#DejaVuSans-30"/>
       <use xlink:href="#DejaVuSans-2e" x="63.623047"/>
       <use xlink:href="#DejaVuSans-37" x="95.410156"/>
       <use xlink:href="#DejaVuSans-35" x="159.033203"/>
      </g>
     </g>
    </g>
    <g id="ytick_5">
     <g id="line2d_14">
      <g>
       <use xlink:href="#m8fa7973cef" x="54" y="130.400646" style="stroke: #000000; stroke-width: 0.8"/>
      </g>
     </g>
     <g id="text_14">
      <!-- 1.00 -->
      <g transform="translate(24.734375 134.199864)scale(0.1 -0.1)">
       <use xlink:href="#DejaVuSans-31"/>
       <use xlink:href="#DejaVuSans-2e" x="63.623047"/>
       <use xlink:href="#DejaVuSans-30" x="95.410156"/>
       <use xlink:href="#DejaVuSans-30" x="159.033203"/>
      </g>
     </g>
    </g>
    <g id="ytick_6">
     <g id="line2d_15">
      <g>
       <use xlink:href="#m8fa7973cef" x="54" y="102.450187" style="stroke: #000000; stroke-width: 0.8"/>
      </g>
     </g>
     <g id="text_15">
      <!-- 1.25 -->
      <g transform="translate(24.734375 106.249405)scale(0.1 -0.1)">
       <use xlink:href="#DejaVuSans-31"/>
       <use xlink:href="#DejaVuSans-2e" x="63.623047"/>
       <use xlink:href="#DejaVuSans-32" x="95.410156"/>
       <use xlink:href="#DejaVuSans-35" x="159.033203"/>
      </g>
     </g>
    </g>
    <g id="ytick_7">
     <g id="line2d_16">
      <g>
       <use xlink:href="#m8fa7973cef" x="54" y="74.499728" style="stroke: #000000; stroke-width: 0.8"/>
      </g>
     </g>
     <g id="text_16">
      <!-- 1.50 -->
      <g transform="translate(24.734375 78.298946)scale(0.1 -0.1)">
       <use xlink:href="#DejaVuSans-31"/>
       <use xlink:href="#DejaVuSans-2e" x="63.623047"/>
       <use xlink:href="#DejaVuSans-35" x="95.410156"/>
       <use xlink:href="#DejaVuSans-30" x="159.033203"/>
      </g>
     </g>
    </g>
    <g id="ytick_8">
     <g id="line2d_17">
      <g>
       <use xlink:href="#m8fa7973cef" x="54" y="46.549268" style="stroke: #000000; stroke-width: 0.8"/>
      </g>
     </g>
     <g id="text_17">
      <!-- 1.75 -->
      <g transform="translate(24.734375 50.348487)scale(0.1 -0.1)">
       <use xlink:href="#DejaVuSans-31"/>
       <use xlink:href="#DejaVuSans-2e" x="63.623047"/>
       <use xlink:href="#DejaVuSans-37" x="95.410156"/>
       <use xlink:href="#DejaVuSans-35" x="159.033203"/>
      </g>
     </g>
    </g>
    <g id="text_18">
     <!-- Loss -->
     <g transform="translate(18.654688 154.247187)rotate(-90)scale(0.1 -0.1)">
      <defs>
       <path id="DejaVuSans-4c" d="M 628 4666 
L 1259 4666 
L 1259 531 
L 3531 531 
L 3531 0 
L 628 0 
L 628 4666 
z
" transform="scale(0.015625)"/>
       <path id="DejaVuSans-6f" d="M 1959 3097 
Q 1497 3097 1228 2736 
Q 959 2375 959 1747 
Q 959 1119 1226 758 
Q 1494 397 1959 397 
Q 2419 397 2687 759 
Q 2956 1122 2956 1747 
Q 2956 2369 2687 2733 
Q 2419 3097 1959 3097 
z
M 1959 3584 
Q 2709 3584 3137 3096 
Q 3566 2609 3566 1747 
Q 3566 888 3137 398 
Q 2709 -91 1959 -91 
Q 1206 -91 779 398 
Q 353 888 353 1747 
Q 353 2609 779 3096 
Q 1206 3584 1959 3584 
z
" transform="scale(0.015625)"/>
       <path id="DejaVuSans-73" d="M 2834 3397 
L 2834 2853 
Q 2591 2978 2328 3040 
Q 2066 3103 1784 3103 
Q 1356 3103 1142 2972 
Q 928 2841 928 2578 
Q 928 2378 1081 2264 
Q 1234 2150 1697 2047 
L 1894 2003 
Q 2506 1872 2764 1633 
Q 3022 1394 3022 966 
Q 3022 478 2636 193 
Q 2250 -91 1575 -91 
Q 1294 -91 989 -36 
Q 684 19 347 128 
L 347 722 
Q 666 556 975 473 
Q 1284 391 1588 391 
Q 1994 391 2212 530 
Q 2431 669 2431 922 
Q 2431 1156 2273 1281 
Q 2116 1406 1581 1522 
L 1381 1569 
Q 847 1681 609 1914 
Q 372 2147 372 2553 
Q 372 3047 722 3315 
Q 1072 3584 1716 3584 
Q 2034 3584 2315 3537 
Q 2597 3491 2834 3397 
z
" transform="scale(0.015625)"/>
      </defs>
      <use xlink:href="#DejaVuSans-4c"/>
      <use xlink:href="#DejaVuSans-6f" x="53.962891"/>
      <use xlink:href="#DejaVuSans-73" x="115.144531"/>
      <use xlink:href="#DejaVuSans-73" x="167.244141"/>
     </g>
    </g>
   </g>
   <g id="line2d_18">
    <path d="M 69.218182 44.443636 
L 70.747647 79.051997 
L 72.277113 95.028105 
L 73.806578 112.692193 
L 75.336044 125.039089 
L 76.865509 131.734236 
L 78.394975 137.038691 
L 79.92444 141.935666 
L 81.453906 144.883683 
L 82.983371 149.182904 
L 84.512837 151.259915 
L 86.042302 155.02814 
L 87.571768 155.891753 
L 89.101233 159.666083 
L 90.630699 161.820442 
L 93.68963 165.48067 
L 95.219095 166.556202 
L 96.748561 169.816294 
L 98.278026 168.460085 
L 99.807492 172.560841 
L 102.866423 176.409731 
L 104.395889 176.749894 
L 105.925354 178.080812 
L 107.45482 180.245681 
L 108.984285 180.269705 
L 110.513751 182.203825 
L 112.043216 184.837048 
L 113.572682 185.116717 
L 115.102147 185.970924 
L 116.631613 187.96995 
L 118.161078 188.972555 
L 119.690544 189.763842 
L 121.220009 191.521913 
L 122.749475 192.068581 
L 124.27894 194.346819 
L 125.808406 195.380994 
L 127.337871 195.443238 
L 128.867337 197.254701 
L 130.396802 198.074854 
L 131.926268 198.397714 
L 133.455733 200.69712 
L 134.985199 201.767571 
L 136.514664 202.226948 
L 138.04413 203.077594 
L 139.573595 203.774125 
L 142.632526 205.450093 
L 144.161992 206.646617 
L 145.691457 207.160168 
L 147.220923 208.59672 
L 148.750388 207.98667 
L 150.279854 209.426202 
L 151.809319 210.461751 
L 153.338785 210.916608 
L 154.86825 210.529392 
L 156.397716 212.239696 
L 157.927181 213.234093 
L 159.456647 213.5991 
L 160.986112 214.496144 
L 162.515578 215.762693 
L 164.045043 215.953884 
L 165.574509 215.576826 
L 167.103974 216.953571 
L 170.162905 218.625107 
L 171.692371 217.781606 
L 174.751302 220.122866 
L 176.280767 219.435735 
L 179.339698 221.741918 
L 180.869164 221.216043 
L 182.39863 221.916684 
L 183.928095 222.853849 
L 185.457561 223.109695 
L 186.987026 222.396829 
L 188.516492 223.701992 
L 190.045957 224.321089 
L 191.575423 225.391435 
L 193.104888 224.321665 
L 194.634354 225.397906 
L 196.163819 225.848068 
L 197.693285 226.869174 
L 199.22275 226.247783 
L 200.752216 227.608149 
L 202.281681 227.722716 
L 203.811147 227.356338 
L 205.340612 228.265654 
L 206.870078 228.951228 
L 208.399543 229.002005 
L 209.929009 229.457298 
L 211.458474 230.075266 
L 212.98794 229.339674 
L 214.517405 230.744329 
L 216.046871 230.053252 
L 217.576336 230.949895 
L 219.105802 231.185879 
L 220.635267 232.274849 
L 222.164733 232.634541 
L 223.694198 231.606855 
L 225.223664 233.212188 
L 226.753129 232.707563 
L 228.282595 232.750569 
L 229.81206 233.737642 
L 231.341526 234.251878 
L 232.870991 233.616374 
L 234.400457 234.598997 
L 235.929922 234.468542 
L 237.459388 234.556536 
L 238.988853 235.269392 
L 242.047784 235.296087 
L 243.57725 235.875838 
L 245.106715 235.752297 
L 246.636181 236.344332 
L 249.695112 236.350851 
L 251.224577 236.76767 
L 252.754043 236.923462 
L 254.283508 237.399677 
L 255.812974 237.288152 
L 257.342439 237.830787 
L 258.871905 237.895293 
L 260.40137 237.755175 
L 261.930836 238.1709 
L 263.460302 238.026625 
L 264.989767 238.434547 
L 266.519233 238.264315 
L 268.048698 238.745582 
L 271.107629 239.148358 
L 272.637095 238.958645 
L 275.696026 239.394869 
L 277.225491 239.54791 
L 278.754957 239.470519 
L 280.284422 239.853141 
L 281.813888 239.795809 
L 283.343353 240.25223 
L 284.872819 239.996448 
L 286.402284 240.308741 
L 287.93175 240.478731 
L 290.990681 240.498366 
L 292.520146 240.63439 
L 294.049612 240.969442 
L 295.579077 240.75945 
L 300.167474 240.955714 
L 304.75587 241.176559 
L 306.285336 241.405703 
L 307.814801 241.195622 
L 309.344267 241.45671 
L 310.873732 241.324719 
L 312.403198 241.487815 
L 313.932663 241.394121 
L 320.050525 241.707121 
L 323.109456 241.744201 
L 324.638922 241.813904 
L 326.168387 241.722192 
L 329.227318 241.90648 
L 332.286249 241.83748 
L 335.34518 241.958469 
L 336.874646 241.893496 
L 339.933577 241.949473 
L 373.581818 242.101336 
L 373.581818 242.101336 
" clip-path="url(#p3191d885eb)" style="fill: none; stroke: #1f77b4; stroke-width: 1.5; stroke-linecap: square"/>
   </g>
   <g id="line2d_19">
    <path d="M 69.218182 86.944196 
L 70.747647 96.881335 
L 72.277113 108.101941 
L 73.806578 123.65797 
L 75.336044 126.680704 
L 76.865509 134.72559 
L 78.394975 148.3865 
L 79.92444 148.342202 
L 81.453906 152.048727 
L 82.983371 156.210697 
L 84.512837 149.84245 
L 86.042302 160.341507 
L 87.571768 160.893144 
L 89.101233 153.657463 
L 92.160164 165.951252 
L 93.68963 156.132045 
L 95.219095 167.225141 
L 96.748561 160.354459 
L 98.278026 154.63369 
L 99.807492 158.186687 
L 101.336958 163.347742 
L 102.866423 164.938608 
L 104.395889 164.586373 
L 105.925354 164.894254 
L 108.984285 158.732281 
L 110.513751 153.876011 
L 112.043216 150.307769 
L 113.572682 162.352465 
L 115.102147 155.360788 
L 116.631613 161.510643 
L 118.161078 164.567473 
L 119.690544 158.067289 
L 121.220009 164.209451 
L 122.749475 153.871629 
L 124.27894 166.606277 
L 125.808406 148.795006 
L 127.337871 155.572305 
L 128.867337 164.130853 
L 130.396802 162.587403 
L 131.926268 160.413776 
L 133.455733 161.791608 
L 134.985199 157.547143 
L 136.514664 145.494118 
L 138.04413 150.24096 
L 139.573595 141.943669 
L 141.103061 146.554257 
L 142.632526 153.571086 
L 144.161992 153.052391 
L 145.691457 144.226775 
L 147.220923 141.039903 
L 148.750388 141.298977 
L 150.279854 138.987951 
L 151.809319 139.980564 
L 153.338785 140.084013 
L 154.86825 145.029084 
L 156.397716 133.273737 
L 157.927181 129.685059 
L 159.456647 139.66058 
L 160.986112 140.393805 
L 162.515578 127.667922 
L 164.045043 132.728972 
L 165.574509 127.273067 
L 167.103974 128.056511 
L 168.63344 126.551896 
L 170.162905 109.409179 
L 171.692371 127.901811 
L 173.221836 123.429868 
L 174.751302 106.012949 
L 176.280767 116.931255 
L 177.810233 114.482774 
L 179.339698 117.144809 
L 180.869164 113.430439 
L 182.39863 111.405098 
L 183.928095 121.994273 
L 186.987026 95.569192 
L 188.516492 100.114897 
L 190.045957 110.465261 
L 191.575423 95.524418 
L 193.104888 99.53546 
L 194.634354 112.468432 
L 196.163819 107.419761 
L 197.693285 112.267791 
L 199.22275 107.651145 
L 200.752216 97.758015 
L 202.281681 102.607581 
L 203.811147 89.992889 
L 205.340612 104.373567 
L 206.870078 81.396432 
L 208.399543 93.457409 
L 209.929009 87.772151 
L 211.458474 94.949132 
L 212.98794 84.536678 
L 214.517405 86.553191 
L 216.046871 93.593416 
L 217.576336 88.492525 
L 219.105802 90.159643 
L 220.635267 90.448877 
L 222.164733 91.038574 
L 223.694198 92.820605 
L 225.223664 88.636409 
L 226.753129 80.948438 
L 228.282595 85.675837 
L 229.81206 84.876565 
L 231.341526 85.468362 
L 232.870991 79.325 
L 234.400457 82.242191 
L 235.929922 77.743759 
L 237.459388 82.417312 
L 238.988853 86.332921 
L 240.518319 87.530502 
L 242.047784 87.310215 
L 243.57725 78.966145 
L 245.106715 87.678461 
L 246.636181 74.866434 
L 249.695112 70.183695 
L 251.224577 74.871921 
L 252.754043 83.534658 
L 254.283508 69.682162 
L 255.812974 75.950055 
L 257.342439 69.048618 
L 258.871905 68.890196 
L 260.40137 76.857208 
L 261.930836 69.43188 
L 263.460302 71.823647 
L 264.989767 63.430796 
L 266.519233 76.540912 
L 268.048698 67.519867 
L 269.578164 65.068619 
L 271.107629 54.574687 
L 272.637095 67.330227 
L 274.16656 73.944196 
L 275.696026 72.878248 
L 277.225491 65.234073 
L 278.754957 69.086895 
L 280.284422 61.522744 
L 281.813888 69.375147 
L 284.872819 62.64159 
L 286.402284 61.544815 
L 287.93175 65.092529 
L 289.461215 64.283488 
L 290.990681 64.385247 
L 292.520146 57.286701 
L 294.049612 58.889908 
L 295.579077 58.225627 
L 297.108543 58.780131 
L 298.638008 58.062072 
L 300.167474 58.170517 
L 301.696939 61.312562 
L 303.226405 65.397402 
L 304.75587 65.431542 
L 306.285336 64.038637 
L 307.814801 63.308518 
L 309.344267 54.796504 
L 310.873732 66.147551 
L 312.403198 57.571964 
L 313.932663 64.078879 
L 315.462129 63.811829 
L 316.991594 59.406899 
L 318.52106 55.507875 
L 320.050525 58.299144 
L 321.579991 61.367798 
L 323.109456 59.207577 
L 324.638922 60.074604 
L 326.168387 60.107308 
L 327.697853 62.298306 
L 329.227318 64.285967 
L 330.756784 58.116062 
L 332.286249 64.684192 
L 333.815715 61.529684 
L 335.34518 61.373833 
L 336.874646 59.690976 
L 338.404111 59.549643 
L 339.933577 59.039269 
L 341.463042 61.172737 
L 342.992508 58.383161 
L 344.521974 58.017122 
L 346.051439 58.29052 
L 347.580905 60.888299 
L 349.11037 58.619628 
L 350.639836 58.121148 
L 352.169301 57.367 
L 353.698767 58.347269 
L 355.228232 57.537147 
L 356.757698 58.549257 
L 358.287163 58.348007 
L 359.816629 57.819043 
L 361.346094 57.849666 
L 362.87556 57.670134 
L 368.993422 57.995506 
L 373.581818 58.063366 
L 373.581818 58.063366 
" clip-path="url(#p3191d885eb)" style="fill: none; stroke: #ff7f0e; stroke-width: 1.5; stroke-linecap: square"/>
   </g>
   <g id="patch_3">
    <path d="M 54 252 
L 54 34.56 
" style="fill: none; stroke: #000000; stroke-width: 0.8; stroke-linejoin: miter; stroke-linecap: square"/>
   </g>
   <g id="patch_4">
    <path d="M 388.8 252 
L 388.8 34.56 
" style="fill: none; stroke: #000000; stroke-width: 0.8; stroke-linejoin: miter; stroke-linecap: square"/>
   </g>
   <g id="patch_5">
    <path d="M 54 252 
L 388.8 252 
" style="fill: none; stroke: #000000; stroke-width: 0.8; stroke-linejoin: miter; stroke-linecap: square"/>
   </g>
   <g id="patch_6">
    <path d="M 54 34.56 
L 388.8 34.56 
" style="fill: none; stroke: #000000; stroke-width: 0.8; stroke-linejoin: miter; stroke-linecap: square"/>
   </g>
   <g id="legend_1">
    <g id="patch_7">
     <path d="M 61 247 
L 116.275 247 
Q 118.275 247 118.275 245 
L 118.275 216.64375 
Q 118.275 214.64375 116.275 214.64375 
L 61 214.64375 
Q 59 214.64375 59 216.64375 
L 59 245 
Q 59 247 61 247 
z
" style="fill: #ffffff; opacity: 0.8; stroke: #cccccc; stroke-linejoin: miter"/>
    </g>
    <g id="line2d_20">
     <path d="M 63 222.742188 
L 73 222.742188 
L 83 222.742188 
" style="fill: none; stroke: #1f77b4; stroke-width: 1.5; stroke-linecap: square"/>
    </g>
    <g id="text_19">
     <!-- train -->
     <g transform="translate(91 226.242188)scale(0.1 -0.1)">
      <defs>
       <path id="DejaVuSans-74" d="M 1172 4494 
L 1172 3500 
L 2356 3500 
L 2356 3053 
L 1172 3053 
L 1172 1153 
Q 1172 725 1289 603 
Q 1406 481 1766 481 
L 2356 481 
L 2356 0 
L 1766 0 
Q 1100 0 847 248 
Q 594 497 594 1153 
L 594 3053 
L 172 3053 
L 172 3500 
L 594 3500 
L 594 4494 
L 1172 4494 
z
" transform="scale(0.015625)"/>
       <path id="DejaVuSans-72" d="M 2631 2963 
Q 2534 3019 2420 3045 
Q 2306 3072 2169 3072 
Q 1681 3072 1420 2755 
Q 1159 2438 1159 1844 
L 1159 0 
L 581 0 
L 581 3500 
L 1159 3500 
L 1159 2956 
Q 1341 3275 1631 3429 
Q 1922 3584 2338 3584 
Q 2397 3584 2469 3576 
Q 2541 3569 2628 3553 
L 2631 2963 
z
" transform="scale(0.015625)"/>
       <path id="DejaVuSans-61" d="M 2194 1759 
Q 1497 1759 1228 1600 
Q 959 1441 959 1056 
Q 959 750 1161 570 
Q 1363 391 1709 391 
Q 2188 391 2477 730 
Q 2766 1069 2766 1631 
L 2766 1759 
L 2194 1759 
z
M 3341 1997 
L 3341 0 
L 2766 0 
L 2766 531 
Q 2569 213 2275 61 
Q 1981 -91 1556 -91 
Q 1019 -91 701 211 
Q 384 513 384 1019 
Q 384 1609 779 1909 
Q 1175 2209 1959 2209 
L 2766 2209 
L 2766 2266 
Q 2766 2663 2505 2880 
Q 2244 3097 1772 3097 
Q 1472 3097 1187 3025 
Q 903 2953 641 2809 
L 641 3341 
Q 956 3463 1253 3523 
Q 1550 3584 1831 3584 
Q 2591 3584 2966 3190 
Q 3341 2797 3341 1997 
z
" transform="scale(0.015625)"/>
       <path id="DejaVuSans-69" d="M 603 3500 
L 1178 3500 
L 1178 0 
L 603 0 
L 603 3500 
z
M 603 4863 
L 1178 4863 
L 1178 4134 
L 603 4134 
L 603 4863 
z
" transform="scale(0.015625)"/>
       <path id="DejaVuSans-6e" d="M 3513 2113 
L 3513 0 
L 2938 0 
L 2938 2094 
Q 2938 2591 2744 2837 
Q 2550 3084 2163 3084 
Q 1697 3084 1428 2787 
Q 1159 2491 1159 1978 
L 1159 0 
L 581 0 
L 581 3500 
L 1159 3500 
L 1159 2956 
Q 1366 3272 1645 3428 
Q 1925 3584 2291 3584 
Q 2894 3584 3203 3211 
Q 3513 2838 3513 2113 
z
" transform="scale(0.015625)"/>
      </defs>
      <use xlink:href="#DejaVuSans-74"/>
      <use xlink:href="#DejaVuSans-72" x="39.208984"/>
      <use xlink:href="#DejaVuSans-61" x="80.322266"/>
      <use xlink:href="#DejaVuSans-69" x="141.601562"/>
      <use xlink:href="#DejaVuSans-6e" x="169.384766"/>
     </g>
    </g>
    <g id="line2d_21">
     <path d="M 63 237.420312 
L 73 237.420312 
L 83 237.420312 
" style="fill: none; stroke: #ff7f0e; stroke-width: 1.5; stroke-linecap: square"/>
    </g>
    <g id="text_20">
     <!-- test -->
     <g transform="translate(91 240.920312)scale(0.1 -0.1)">
      <defs>
       <path id="DejaVuSans-65" d="M 3597 1894 
L 3597 1613 
L 953 1613 
Q 991 1019 1311 708 
Q 1631 397 2203 397 
Q 2534 397 2845 478 
Q 3156 559 3463 722 
L 3463 178 
Q 3153 47 2828 -22 
Q 2503 -91 2169 -91 
Q 1331 -91 842 396 
Q 353 884 353 1716 
Q 353 2575 817 3079 
Q 1281 3584 2069 3584 
Q 2775 3584 3186 3129 
Q 3597 2675 3597 1894 
z
M 3022 2063 
Q 3016 2534 2758 2815 
Q 2500 3097 2075 3097 
Q 1594 3097 1305 2825 
Q 1016 2553 972 2059 
L 3022 2063 
z
" transform="scale(0.015625)"/>
      </defs>
      <use xlink:href="#DejaVuSans-74"/>
      <use xlink:href="#DejaVuSans-65" x="39.208984"/>
      <use xlink:href="#DejaVuSans-73" x="100.732422"/>
      <use xlink:href="#DejaVuSans-74" x="152.832031"/>
     </g>
    </g>
   </g>
  </g>
 </g>
 <defs>
  <clipPath id="p3191d885eb">
   <rect x="54" y="34.56" width="334.8" height="217.44"/>
  </clipPath>
 </defs>
</svg>
