<?xml version="1.0" encoding="utf-8" standalone="no"?>
<!DOCTYPE svg PUBLIC "-//W3C//DTD SVG 1.1//EN"
  "http://www.w3.org/Graphics/SVG/1.1/DTD/svg11.dtd">
<svg xmlns:xlink="http://www.w3.org/1999/xlink" width="432pt" height="288pt" viewBox="0 0 432 288" xmlns="http://www.w3.org/2000/svg" version="1.1">
 <metadata>
  <rdf:RDF xmlns:dc="http://purl.org/dc/elements/1.1/" xmlns:cc="http://creativecommons.org/ns#" xmlns:rdf="http://www.w3.org/1999/02/22-rdf-syntax-ns#">
   <cc:Work>
    <dc:type rdf:resource="http://purl.org/dc/dcmitype/StillImage"/>
    <dc:date>2022-07-12T08:10:29.487654</dc:date>
    <dc:format>image/svg+xml</dc:format>
    <dc:creator>
     <cc:Agent>
      <dc:title>Matplotlib v3.5.2, https://matplotlib.org/</dc:title>
     </cc:Agent>
    </dc:creator>
   </cc:Work>
  </rdf:RDF>
 </metadata>
 <defs>
  <style type="text/css">*{stroke-linejoin: round; stroke-linecap: butt}</style>
 </defs>
 <g id="figure_1">
  <g id="patch_1">
   <path d="M 0 288 
L 432 288 
L 432 0 
L 0 0 
L 0 288 
z
" style="fill: none"/>
  </g>
  <g id="axes_1">
   <g id="patch_2">
    <path d="M 54 252 
L 388.8 252 
L 388.8 34.56 
L 54 34.56 
z
" style="fill: #ffffff"/>
   </g>
   <g id="matplotlib.axis_1">
    <g id="xtick_1">
     <g id="line2d_1">
      <defs>
       <path id="m3c40cdc3f4" d="M 0 0 
L 0 3.5 
" style="stroke: #000000; stroke-width: 0.8"/>
      </defs>
      <g>
       <use xlink:href="#m3c40cdc3f4" x="69.218182" y="252" style="stroke: #000000; stroke-width: 0.8"/>
      </g>
     </g>
     <g id="text_1">
      <!-- 0 -->
      <g transform="translate(66.036932 266.598437)scale(0.1 -0.1)">
       <defs>
        <path id="DejaVuSans-30" d="M 2034 4250 
Q 1547 4250 1301 3770 
Q 1056 3291 1056 2328 
Q 1056 1369 1301 889 
Q 1547 409 2034 409 
Q 2525 409 2770 889 
Q 3016 1369 3016 2328 
Q 3016 3291 2770 3770 
Q 2525 4250 2034 4250 
z
M 2034 4750 
Q 2819 4750 3233 4129 
Q 3647 3509 3647 2328 
Q 3647 1150 3233 529 
Q 2819 -91 2034 -91 
Q 1250 -91 836 529 
Q 422 1150 422 2328 
Q 422 3509 836 4129 
Q 1250 4750 2034 4750 
z
" transform="scale(0.015625)"/>
       </defs>
       <use xlink:href="#DejaVuSans-30"/>
      </g>
     </g>
    </g>
    <g id="xtick_2">
     <g id="line2d_2">
      <g>
       <use xlink:href="#m3c40cdc3f4" x="107.45482" y="252" style="stroke: #000000; stroke-width: 0.8"/>
      </g>
     </g>
     <g id="text_2">
      <!-- 25 -->
      <g transform="translate(101.09232 266.598437)scale(0.1 -0.1)">
       <defs>
        <path id="DejaVuSans-32" d="M 1228 531 
L 3431 531 
L 3431 0 
L 469 0 
L 469 531 
Q 828 903 1448 1529 
Q 2069 2156 2228 2338 
Q 2531 2678 2651 2914 
Q 2772 3150 2772 3378 
Q 2772 3750 2511 3984 
Q 2250 4219 1831 4219 
Q 1534 4219 1204 4116 
Q 875 4013 500 3803 
L 500 4441 
Q 881 4594 1212 4672 
Q 1544 4750 1819 4750 
Q 2544 4750 2975 4387 
Q 3406 4025 3406 3419 
Q 3406 3131 3298 2873 
Q 3191 2616 2906 2266 
Q 2828 2175 2409 1742 
Q 1991 1309 1228 531 
z
" transform="scale(0.015625)"/>
        <path id="DejaVuSans-35" d="M 691 4666 
L 3169 4666 
L 3169 4134 
L 1269 4134 
L 1269 2991 
Q 1406 3038 1543 3061 
Q 1681 3084 1819 3084 
Q 2600 3084 3056 2656 
Q 3513 2228 3513 1497 
Q 3513 744 3044 326 
Q 2575 -91 1722 -91 
Q 1428 -91 1123 -41 
Q 819 9 494 109 
L 494 744 
Q 775 591 1075 516 
Q 1375 441 1709 441 
Q 2250 441 2565 725 
Q 2881 1009 2881 1497 
Q 2881 1984 2565 2268 
Q 2250 2553 1709 2553 
Q 1456 2553 1204 2497 
Q 953 2441 691 2322 
L 691 4666 
z
" transform="scale(0.015625)"/>
       </defs>
       <use xlink:href="#DejaVuSans-32"/>
       <use xlink:href="#DejaVuSans-35" x="63.623047"/>
      </g>
     </g>
    </g>
    <g id="xtick_3">
     <g id="line2d_3">
      <g>
       <use xlink:href="#m3c40cdc3f4" x="145.691457" y="252" style="stroke: #000000; stroke-width: 0.8"/>
      </g>
     </g>
     <g id="text_3">
      <!-- 50 -->
      <g transform="translate(139.328957 266.598437)scale(0.1 -0.1)">
       <use xlink:href="#DejaVuSans-35"/>
       <use xlink:href="#DejaVuSans-30" x="63.623047"/>
      </g>
     </g>
    </g>
    <g id="xtick_4">
     <g id="line2d_4">
      <g>
       <use xlink:href="#m3c40cdc3f4" x="183.928095" y="252" style="stroke: #000000; stroke-width: 0.8"/>
      </g>
     </g>
     <g id="text_4">
      <!-- 75 -->
      <g transform="translate(177.565595 266.598437)scale(0.1 -0.1)">
       <defs>
        <path id="DejaVuSans-37" d="M 525 4666 
L 3525 4666 
L 3525 4397 
L 1831 0 
L 1172 0 
L 2766 4134 
L 525 4134 
L 525 4666 
z
" transform="scale(0.015625)"/>
       </defs>
       <use xlink:href="#DejaVuSans-37"/>
       <use xlink:href="#DejaVuSans-35" x="63.623047"/>
      </g>
     </g>
    </g>
    <g id="xtick_5">
     <g id="line2d_5">
      <g>
       <use xlink:href="#m3c40cdc3f4" x="222.164733" y="252" style="stroke: #000000; stroke-width: 0.8"/>
      </g>
     </g>
     <g id="text_5">
      <!-- 100 -->
      <g transform="translate(212.620983 266.598437)scale(0.1 -0.1)">
       <defs>
        <path id="DejaVuSans-31" d="M 794 531 
L 1825 531 
L 1825 4091 
L 703 3866 
L 703 4441 
L 1819 4666 
L 2450 4666 
L 2450 531 
L 3481 531 
L 3481 0 
L 794 0 
L 794 531 
z
" transform="scale(0.015625)"/>
       </defs>
       <use xlink:href="#DejaVuSans-31"/>
       <use xlink:href="#DejaVuSans-30" x="63.623047"/>
       <use xlink:href="#DejaVuSans-30" x="127.246094"/>
      </g>
     </g>
    </g>
    <g id="xtick_6">
     <g id="line2d_6">
      <g>
       <use xlink:href="#m3c40cdc3f4" x="260.40137" y="252" style="stroke: #000000; stroke-width: 0.8"/>
      </g>
     </g>
     <g id="text_6">
      <!-- 125 -->
      <g transform="translate(250.85762 266.598437)scale(0.1 -0.1)">
       <use xlink:href="#DejaVuSans-31"/>
       <use xlink:href="#DejaVuSans-32" x="63.623047"/>
       <use xlink:href="#DejaVuSans-35" x="127.246094"/>
      </g>
     </g>
    </g>
    <g id="xtick_7">
     <g id="line2d_7">
      <g>
       <use xlink:href="#m3c40cdc3f4" x="298.638008" y="252" style="stroke: #000000; stroke-width: 0.8"/>
      </g>
     </g>
     <g id="text_7">
      <!-- 150 -->
      <g transform="translate(289.094258 266.598437)scale(0.1 -0.1)">
       <use xlink:href="#DejaVuSans-31"/>
       <use xlink:href="#DejaVuSans-35" x="63.623047"/>
       <use xlink:href="#DejaVuSans-30" x="127.246094"/>
      </g>
     </g>
    </g>
    <g id="xtick_8">
     <g id="line2d_8">
      <g>
       <use xlink:href="#m3c40cdc3f4" x="336.874646" y="252" style="stroke: #000000; stroke-width: 0.8"/>
      </g>
     </g>
     <g id="text_8">
      <!-- 175 -->
      <g transform="translate(327.330896 266.598437)scale(0.1 -0.1)">
       <use xlink:href="#DejaVuSans-31"/>
       <use xlink:href="#DejaVuSans-37" x="63.623047"/>
       <use xlink:href="#DejaVuSans-35" x="127.246094"/>
      </g>
     </g>
    </g>
    <g id="xtick_9">
     <g id="line2d_9">
      <g>
       <use xlink:href="#m3c40cdc3f4" x="375.111284" y="252" style="stroke: #000000; stroke-width: 0.8"/>
      </g>
     </g>
     <g id="text_9">
      <!-- 200 -->
      <g transform="translate(365.567534 266.598437)scale(0.1 -0.1)">
       <use xlink:href="#DejaVuSans-32"/>
       <use xlink:href="#DejaVuSans-30" x="63.623047"/>
       <use xlink:href="#DejaVuSans-30" x="127.246094"/>
      </g>
     </g>
    </g>
   </g>
   <g id="matplotlib.axis_2">
    <g id="ytick_1">
     <g id="line2d_10">
      <defs>
       <path id="mdaf36162b9" d="M 0 0 
L -3.5 0 
" style="stroke: #000000; stroke-width: 0.8"/>
      </defs>
      <g>
       <use xlink:href="#mdaf36162b9" x="54" y="240.013237" style="stroke: #000000; stroke-width: 0.8"/>
      </g>
     </g>
     <g id="text_10">
      <!-- 40 -->
      <g transform="translate(34.275 243.812456)scale(0.1 -0.1)">
       <defs>
        <path id="DejaVuSans-34" d="M 2419 4116 
L 825 1625 
L 2419 1625 
L 2419 4116 
z
M 2253 4666 
L 3047 4666 
L 3047 1625 
L 3713 1625 
L 3713 1100 
L 3047 1100 
L 3047 0 
L 2419 0 
L 2419 1100 
L 313 1100 
L 313 1709 
L 2253 4666 
z
" transform="scale(0.015625)"/>
       </defs>
       <use xlink:href="#DejaVuSans-34"/>
       <use xlink:href="#DejaVuSans-30" x="63.623047"/>
      </g>
     </g>
    </g>
    <g id="ytick_2">
     <g id="line2d_11">
      <g>
       <use xlink:href="#mdaf36162b9" x="54" y="204.725878" style="stroke: #000000; stroke-width: 0.8"/>
      </g>
     </g>
     <g id="text_11">
      <!-- 50 -->
      <g transform="translate(34.275 208.525097)scale(0.1 -0.1)">
       <use xlink:href="#DejaVuSans-35"/>
       <use xlink:href="#DejaVuSans-30" x="63.623047"/>
      </g>
     </g>
    </g>
    <g id="ytick_3">
     <g id="line2d_12">
      <g>
       <use xlink:href="#mdaf36162b9" x="54" y="169.438519" style="stroke: #000000; stroke-width: 0.8"/>
      </g>
     </g>
     <g id="text_12">
      <!-- 60 -->
      <g transform="translate(34.275 173.237738)scale(0.1 -0.1)">
       <defs>
        <path id="DejaVuSans-36" d="M 2113 2584 
Q 1688 2584 1439 2293 
Q 1191 2003 1191 1497 
Q 1191 994 1439 701 
Q 1688 409 2113 409 
Q 2538 409 2786 701 
Q 3034 994 3034 1497 
Q 3034 2003 2786 2293 
Q 2538 2584 2113 2584 
z
M 3366 4563 
L 3366 3988 
Q 3128 4100 2886 4159 
Q 2644 4219 2406 4219 
Q 1781 4219 1451 3797 
Q 1122 3375 1075 2522 
Q 1259 2794 1537 2939 
Q 1816 3084 2150 3084 
Q 2853 3084 3261 2657 
Q 3669 2231 3669 1497 
Q 3669 778 3244 343 
Q 2819 -91 2113 -91 
Q 1303 -91 875 529 
Q 447 1150 447 2328 
Q 447 3434 972 4092 
Q 1497 4750 2381 4750 
Q 2619 4750 2861 4703 
Q 3103 4656 3366 4563 
z
" transform="scale(0.015625)"/>
       </defs>
       <use xlink:href="#DejaVuSans-36"/>
       <use xlink:href="#DejaVuSans-30" x="63.623047"/>
      </g>
     </g>
    </g>
    <g id="ytick_4">
     <g id="line2d_13">
      <g>
       <use xlink:href="#mdaf36162b9" x="54" y="134.15116" style="stroke: #000000; stroke-width: 0.8"/>
      </g>
     </g>
     <g id="text_13">
      <!-- 70 -->
      <g transform="translate(34.275 137.950379)scale(0.1 -0.1)">
       <use xlink:href="#DejaVuSans-37"/>
       <use xlink:href="#DejaVuSans-30" x="63.623047"/>
      </g>
     </g>
    </g>
    <g id="ytick_5">
     <g id="line2d_14">
      <g>
       <use xlink:href="#mdaf36162b9" x="54" y="98.863801" style="stroke: #000000; stroke-width: 0.8"/>
      </g>
     </g>
     <g id="text_14">
      <!-- 80 -->
      <g transform="translate(34.275 102.66302)scale(0.1 -0.1)">
       <defs>
        <path id="DejaVuSans-38" d="M 2034 2216 
Q 1584 2216 1326 1975 
Q 1069 1734 1069 1313 
Q 1069 891 1326 650 
Q 1584 409 2034 409 
Q 2484 409 2743 651 
Q 3003 894 3003 1313 
Q 3003 1734 2745 1975 
Q 2488 2216 2034 2216 
z
M 1403 2484 
Q 997 2584 770 2862 
Q 544 3141 544 3541 
Q 544 4100 942 4425 
Q 1341 4750 2034 4750 
Q 2731 4750 3128 4425 
Q 3525 4100 3525 3541 
Q 3525 3141 3298 2862 
Q 3072 2584 2669 2484 
Q 3125 2378 3379 2068 
Q 3634 1759 3634 1313 
Q 3634 634 3220 271 
Q 2806 -91 2034 -91 
Q 1263 -91 848 271 
Q 434 634 434 1313 
Q 434 1759 690 2068 
Q 947 2378 1403 2484 
z
M 1172 3481 
Q 1172 3119 1398 2916 
Q 1625 2713 2034 2713 
Q 2441 2713 2670 2916 
Q 2900 3119 2900 3481 
Q 2900 3844 2670 4047 
Q 2441 4250 2034 4250 
Q 1625 4250 1398 4047 
Q 1172 3844 1172 3481 
z
" transform="scale(0.015625)"/>
       </defs>
       <use xlink:href="#DejaVuSans-38"/>
       <use xlink:href="#DejaVuSans-30" x="63.623047"/>
      </g>
     </g>
    </g>
    <g id="ytick_6">
     <g id="line2d_15">
      <g>
       <use xlink:href="#mdaf36162b9" x="54" y="63.576442" style="stroke: #000000; stroke-width: 0.8"/>
      </g>
     </g>
     <g id="text_15">
      <!-- 90 -->
      <g transform="translate(34.275 67.375661)scale(0.1 -0.1)">
       <defs>
        <path id="DejaVuSans-39" d="M 703 97 
L 703 672 
Q 941 559 1184 500 
Q 1428 441 1663 441 
Q 2288 441 2617 861 
Q 2947 1281 2994 2138 
Q 2813 1869 2534 1725 
Q 2256 1581 1919 1581 
Q 1219 1581 811 2004 
Q 403 2428 403 3163 
Q 403 3881 828 4315 
Q 1253 4750 1959 4750 
Q 2769 4750 3195 4129 
Q 3622 3509 3622 2328 
Q 3622 1225 3098 567 
Q 2575 -91 1691 -91 
Q 1453 -91 1209 -44 
Q 966 3 703 97 
z
M 1959 2075 
Q 2384 2075 2632 2365 
Q 2881 2656 2881 3163 
Q 2881 3666 2632 3958 
Q 2384 4250 1959 4250 
Q 1534 4250 1286 3958 
Q 1038 3666 1038 3163 
Q 1038 2656 1286 2365 
Q 1534 2075 1959 2075 
z
" transform="scale(0.015625)"/>
       </defs>
       <use xlink:href="#DejaVuSans-39"/>
       <use xlink:href="#DejaVuSans-30" x="63.623047"/>
      </g>
     </g>
    </g>
    <g id="text_16">
     <!-- Accuracy -->
     <g transform="translate(28.195312 166.108125)rotate(-90)scale(0.1 -0.1)">
      <defs>
       <path id="DejaVuSans-41" d="M 2188 4044 
L 1331 1722 
L 3047 1722 
L 2188 4044 
z
M 1831 4666 
L 2547 4666 
L 4325 0 
L 3669 0 
L 3244 1197 
L 1141 1197 
L 716 0 
L 50 0 
L 1831 4666 
z
" transform="scale(0.015625)"/>
       <path id="DejaVuSans-63" d="M 3122 3366 
L 3122 2828 
Q 2878 2963 2633 3030 
Q 2388 3097 2138 3097 
Q 1578 3097 1268 2742 
Q 959 2388 959 1747 
Q 959 1106 1268 751 
Q 1578 397 2138 397 
Q 2388 397 2633 464 
Q 2878 531 3122 666 
L 3122 134 
Q 2881 22 2623 -34 
Q 2366 -91 2075 -91 
Q 1284 -91 818 406 
Q 353 903 353 1747 
Q 353 2603 823 3093 
Q 1294 3584 2113 3584 
Q 2378 3584 2631 3529 
Q 2884 3475 3122 3366 
z
" transform="scale(0.015625)"/>
       <path id="DejaVuSans-75" d="M 544 1381 
L 544 3500 
L 1119 3500 
L 1119 1403 
Q 1119 906 1312 657 
Q 1506 409 1894 409 
Q 2359 409 2629 706 
Q 2900 1003 2900 1516 
L 2900 3500 
L 3475 3500 
L 3475 0 
L 2900 0 
L 2900 538 
Q 2691 219 2414 64 
Q 2138 -91 1772 -91 
Q 1169 -91 856 284 
Q 544 659 544 1381 
z
M 1991 3584 
L 1991 3584 
z
" transform="scale(0.015625)"/>
       <path id="DejaVuSans-72" d="M 2631 2963 
Q 2534 3019 2420 3045 
Q 2306 3072 2169 3072 
Q 1681 3072 1420 2755 
Q 1159 2438 1159 1844 
L 1159 0 
L 581 0 
L 581 3500 
L 1159 3500 
L 1159 2956 
Q 1341 3275 1631 3429 
Q 1922 3584 2338 3584 
Q 2397 3584 2469 3576 
Q 2541 3569 2628 3553 
L 2631 2963 
z
" transform="scale(0.015625)"/>
       <path id="DejaVuSans-61" d="M 2194 1759 
Q 1497 1759 1228 1600 
Q 959 1441 959 1056 
Q 959 750 1161 570 
Q 1363 391 1709 391 
Q 2188 391 2477 730 
Q 2766 1069 2766 1631 
L 2766 1759 
L 2194 1759 
z
M 3341 1997 
L 3341 0 
L 2766 0 
L 2766 531 
Q 2569 213 2275 61 
Q 1981 -91 1556 -91 
Q 1019 -91 701 211 
Q 384 513 384 1019 
Q 384 1609 779 1909 
Q 1175 2209 1959 2209 
L 2766 2209 
L 2766 2266 
Q 2766 2663 2505 2880 
Q 2244 3097 1772 3097 
Q 1472 3097 1187 3025 
Q 903 2953 641 2809 
L 641 3341 
Q 956 3463 1253 3523 
Q 1550 3584 1831 3584 
Q 2591 3584 2966 3190 
Q 3341 2797 3341 1997 
z
" transform="scale(0.015625)"/>
       <path id="DejaVuSans-79" d="M 2059 -325 
Q 1816 -950 1584 -1140 
Q 1353 -1331 966 -1331 
L 506 -1331 
L 506 -850 
L 844 -850 
Q 1081 -850 1212 -737 
Q 1344 -625 1503 -206 
L 1606 56 
L 191 3500 
L 800 3500 
L 1894 763 
L 2988 3500 
L 3597 3500 
L 2059 -325 
z
" transform="scale(0.015625)"/>
      </defs>
      <use xlink:href="#DejaVuSans-41"/>
      <use xlink:href="#DejaVuSans-63" x="66.658203"/>
      <use xlink:href="#DejaVuSans-63" x="121.638672"/>
      <use xlink:href="#DejaVuSans-75" x="176.619141"/>
      <use xlink:href="#DejaVuSans-72" x="239.998047"/>
      <use xlink:href="#DejaVuSans-61" x="281.111328"/>
      <use xlink:href="#DejaVuSans-63" x="342.390625"/>
      <use xlink:href="#DejaVuSans-79" x="397.371094"/>
     </g>
    </g>
   </g>
   <g id="line2d_16">
    <path d="M 69.218182 242.116364 
L 70.747647 203.088545 
L 72.277113 188.72659 
L 73.806578 178.832014 
L 75.336044 173.418933 
L 76.865509 170.278358 
L 79.92444 161.442404 
L 81.453906 158.619415 
L 82.983371 154.3073 
L 84.512837 152.542932 
L 86.042302 149.762288 
L 87.571768 148.414311 
L 89.101233 145.012609 
L 90.630699 144.073966 
L 92.160164 141.575621 
L 93.68963 139.76185 
L 95.219095 138.717344 
L 96.748561 136.211942 
L 98.278026 135.075689 
L 99.807492 133.53716 
L 102.866423 130.008424 
L 105.925354 127.905298 
L 107.45482 126.091527 
L 108.984285 125.025849 
L 110.513751 124.489481 
L 112.043216 123.190907 
L 113.572682 120.932516 
L 115.102147 121.073665 
L 116.631613 119.358699 
L 118.161078 117.424952 
L 119.690544 118.01778 
L 121.220009 117.015619 
L 122.749475 115.653527 
L 125.808406 113.966791 
L 127.337871 113.423366 
L 128.867337 112.301228 
L 130.396802 111.531963 
L 131.926268 111.941297 
L 133.455733 109.668791 
L 134.985199 109.337089 
L 136.514664 109.181825 
L 138.04413 107.735043 
L 139.573595 107.255135 
L 141.103061 105.617802 
L 142.632526 106.076537 
L 144.161992 104.340399 
L 145.691457 103.874606 
L 147.220923 104.31217 
L 148.750388 102.992422 
L 150.279854 102.223158 
L 151.809319 101.235112 
L 153.338785 101.108077 
L 154.86825 100.240008 
L 156.397716 98.757939 
L 157.927181 99.597778 
L 159.456647 98.433296 
L 160.986112 96.810077 
L 162.515578 97.522882 
L 165.574509 95.772629 
L 168.63344 94.502284 
L 170.162905 94.361134 
L 171.692371 93.323686 
L 173.221836 92.568536 
L 174.751302 92.349755 
L 176.280767 91.996881 
L 177.810233 91.467571 
L 180.869164 90.027847 
L 182.39863 88.65164 
L 183.928095 89.329157 
L 185.457561 87.938835 
L 186.987026 87.388352 
L 188.516492 87.571846 
L 191.575423 86.294444 
L 193.104888 86.315616 
L 194.634354 84.777088 
L 196.163819 84.939409 
L 197.693285 84.664168 
L 199.22275 84.106628 
L 200.752216 83.210329 
L 202.281681 82.518697 
L 203.811147 82.441064 
L 205.340612 81.17072 
L 206.870078 80.923708 
L 208.399543 80.302651 
L 209.929009 79.85803 
L 211.458474 78.707662 
L 212.98794 78.947616 
L 214.517405 77.980742 
L 216.046871 78.383018 
L 217.576336 77.599639 
L 219.105802 77.550237 
L 220.635267 76.724512 
L 222.164733 76.244604 
L 223.694198 75.313018 
L 225.223664 74.790765 
L 226.753129 73.499248 
L 228.282595 72.835845 
L 229.81206 73.061684 
L 231.341526 72.737041 
L 232.870991 72.193615 
L 234.400457 71.269087 
L 237.459388 71.530213 
L 238.988853 70.161064 
L 242.047784 69.547064 
L 243.57725 67.839155 
L 245.106715 68.424925 
L 246.636181 67.422765 
L 248.165646 67.006374 
L 249.695112 67.232213 
L 251.224577 65.36904 
L 252.754043 65.566649 
L 254.283508 65.503132 
L 255.812974 65.023224 
L 257.342439 64.211615 
L 258.871905 63.908144 
L 260.40137 62.567224 
L 261.930836 63.089477 
L 263.460302 62.602511 
L 264.989767 61.840304 
L 266.519233 62.108488 
L 268.048698 60.42881 
L 269.578164 60.337063 
L 271.107629 60.845201 
L 274.16656 59.313729 
L 277.225491 58.749132 
L 278.754957 57.817545 
L 280.284422 58.304511 
L 281.813888 57.147086 
L 284.872819 55.904971 
L 287.93175 55.566212 
L 289.461215 55.940258 
L 292.520146 54.472304 
L 294.049612 54.281752 
L 297.108543 53.59012 
L 298.638008 52.722051 
L 300.167474 52.538557 
L 301.696939 52.482097 
L 303.226405 52.065706 
L 304.75587 51.783407 
L 306.285336 51.352901 
L 307.814801 50.590694 
L 309.344267 50.823591 
L 310.873732 50.590694 
L 312.403198 50.922395 
L 313.932663 50.026097 
L 315.462129 49.525016 
L 316.991594 49.828487 
L 318.52106 48.995706 
L 321.579991 49.362694 
L 323.109456 48.03589 
L 324.638922 47.3372 
L 326.168387 47.97943 
L 327.697853 47.732418 
L 329.227318 47.958257 
L 330.756784 47.83828 
L 332.286249 47.203108 
L 333.815715 46.765545 
L 335.34518 47.499522 
L 336.874646 47.125476 
L 338.404111 46.462073 
L 339.933577 45.96805 
L 342.992508 45.975108 
L 344.521974 45.615177 
L 347.580905 46.031568 
L 349.11037 45.982165 
L 350.639836 45.43874 
L 352.169301 45.346993 
L 353.698767 45.389338 
L 355.228232 45.770441 
L 356.757698 44.478924 
L 358.287163 45.212901 
L 359.816629 44.443636 
L 361.346094 44.916487 
L 362.87556 44.994119 
L 364.405025 44.958832 
L 367.463956 45.227016 
L 368.993422 44.507154 
L 370.522887 44.90943 
L 372.052353 45.128211 
L 373.581818 44.76828 
L 373.581818 44.76828 
" clip-path="url(#p0b2465fb12)" style="fill: none; stroke: #1f77b4; stroke-width: 1.5; stroke-linecap: square"/>
   </g>
   <g id="line2d_17">
    <path d="M 69.218182 209.701396 
L 70.747647 177.97806 
L 72.277113 192.516452 
L 73.806578 168.521048 
L 75.336044 159.910932 
L 76.865509 164.88645 
L 78.394975 162.486909 
L 79.92444 151.441966 
L 81.453906 150.912656 
L 82.983371 175.754956 
L 84.512837 161.957599 
L 86.042302 160.052082 
L 87.571768 158.428863 
L 89.101233 152.288863 
L 90.630699 147.348632 
L 92.160164 140.43231 
L 93.68963 134.080586 
L 95.219095 153.700357 
L 96.748561 143.50231 
L 98.278026 157.581967 
L 99.807492 143.961046 
L 101.336958 136.233114 
L 102.866423 147.101621 
L 104.395889 178.860244 
L 105.925354 150.171621 
L 107.45482 147.91323 
L 108.984285 132.104493 
L 110.513751 121.906447 
L 112.043216 153.312196 
L 113.572682 127.658286 
L 115.102147 144.913805 
L 116.631613 144.525644 
L 118.161078 144.878517 
L 119.690544 135.421505 
L 121.220009 140.150011 
L 122.749475 124.164838 
L 124.27894 137.89162 
L 125.808406 126.740815 
L 127.337871 147.807368 
L 128.867337 125.611619 
L 130.396802 125.082309 
L 131.926268 118.730584 
L 133.455733 130.763574 
L 134.985199 124.552999 
L 136.514664 128.787482 
L 138.04413 116.436906 
L 139.573595 117.813113 
L 141.103061 120.636102 
L 142.632526 133.692425 
L 144.161992 127.093688 
L 145.691457 122.682769 
L 147.220923 130.975298 
L 148.750388 130.692999 
L 150.279854 127.517137 
L 151.809319 133.762999 
L 153.338785 113.190469 
L 154.86825 110.826216 
L 156.397716 116.683918 
L 157.927181 108.49725 
L 159.456647 126.352654 
L 160.986112 112.167136 
L 162.515578 122.541619 
L 164.045043 111.320239 
L 165.574509 111.03794 
L 167.103974 110.967365 
L 168.63344 119.577481 
L 170.162905 108.814837 
L 171.692371 124.482424 
L 173.221836 109.661733 
L 176.280767 120.706676 
L 177.810233 108.356101 
L 179.339698 112.767021 
L 180.869164 121.518286 
L 182.39863 122.25932 
L 183.928095 109.238285 
L 185.457561 122.329895 
L 186.987026 108.779549 
L 188.516492 108.038515 
L 190.045957 105.462537 
L 191.575423 111.849549 
L 193.104888 101.510353 
L 194.634354 102.145526 
L 196.163819 97.981617 
L 197.693285 102.427825 
L 199.22275 104.051043 
L 200.752216 105.850698 
L 202.281681 110.402768 
L 203.811147 101.475066 
L 205.340612 100.451732 
L 206.870078 109.485296 
L 208.399543 105.391963 
L 209.929009 103.098284 
L 211.458474 96.60541 
L 212.98794 101.969089 
L 214.517405 98.369778 
L 216.046871 102.674836 
L 217.576336 95.511502 
L 219.105802 100.098859 
L 220.635267 107.191618 
L 222.164733 111.073228 
L 223.694198 99.075525 
L 225.223664 100.839893 
L 226.753129 100.028284 
L 228.282595 97.628744 
L 229.81206 94.629318 
L 231.341526 100.698744 
L 232.870991 98.722652 
L 234.400457 104.051043 
L 235.929922 91.594605 
L 237.459388 91.206444 
L 238.988853 103.521733 
L 240.518319 90.183111 
L 242.047784 101.757365 
L 243.57725 95.40564 
L 245.106715 92.582651 
L 246.636181 94.100008 
L 248.165646 98.334491 
L 249.695112 92.441502 
L 251.224577 98.122767 
L 252.754043 90.253686 
L 254.283508 97.452307 
L 255.812974 97.27587 
L 257.342439 91.241732 
L 258.871905 93.888284 
L 260.40137 91.876904 
L 261.930836 90.641847 
L 263.460302 89.724375 
L 264.989767 93.041387 
L 266.519233 98.052192 
L 268.048698 91.841617 
L 269.578164 89.336214 
L 271.107629 91.735755 
L 272.637095 89.759663 
L 274.16656 88.877479 
L 275.696026 89.618513 
L 277.225491 87.465984 
L 278.754957 92.935525 
L 280.284422 89.053916 
L 281.813888 88.312881 
L 283.343353 87.148398 
L 284.872819 87.465984 
L 286.402284 91.488743 
L 287.93175 87.289548 
L 289.461215 86.195639 
L 290.990681 86.901387 
L 292.520146 88.736329 
L 294.049612 88.277594 
L 295.579077 89.830237 
L 297.108543 87.148398 
L 298.638008 87.077823 
L 300.167474 86.619088 
L 301.696939 85.666329 
L 303.226405 86.195639 
L 304.75587 86.5838 
L 306.285336 86.795525 
L 307.814801 86.089777 
L 309.344267 87.077823 
L 310.873732 85.772191 
L 312.403198 85.137019 
L 313.932663 85.172306 
L 315.462129 86.019203 
L 316.991594 84.043111 
L 318.52106 87.113111 
L 320.050525 83.196214 
L 321.579991 83.760812 
L 323.109456 85.807479 
L 326.168387 83.831386 
L 327.697853 84.395984 
L 329.227318 83.796099 
L 330.756784 84.113685 
L 333.815715 83.337363 
L 335.34518 83.266789 
L 336.874646 84.007823 
L 338.404111 83.796099 
L 339.933577 83.831386 
L 341.463042 84.078398 
L 342.992508 83.5138 
L 344.521974 83.549088 
L 346.051439 82.772766 
L 347.580905 82.913915 
L 349.11037 82.702191 
L 350.639836 83.160927 
L 352.169301 83.231501 
L 353.698767 82.702191 
L 355.228232 82.631616 
L 356.757698 82.419892 
L 358.287163 83.125639 
L 359.816629 82.949202 
L 361.346094 82.561041 
L 362.87556 83.196214 
L 364.405025 82.666904 
L 365.934491 83.019777 
L 367.463956 83.090352 
L 368.993422 82.737478 
L 372.052353 82.631616 
L 373.581818 82.666904 
L 373.581818 82.666904 
" clip-path="url(#p0b2465fb12)" style="fill: none; stroke: #ff7f0e; stroke-width: 1.5; stroke-linecap: square"/>
   </g>
   <g id="patch_3">
    <path d="M 54 252 
L 54 34.56 
" style="fill: none; stroke: #000000; stroke-width: 0.8; stroke-linejoin: miter; stroke-linecap: square"/>
   </g>
   <g id="patch_4">
    <path d="M 388.8 252 
L 388.8 34.56 
" style="fill: none; stroke: #000000; stroke-width: 0.8; stroke-linejoin: miter; stroke-linecap: square"/>
   </g>
   <g id="patch_5">
    <path d="M 54 252 
L 388.8 252 
" style="fill: none; stroke: #000000; stroke-width: 0.8; stroke-linejoin: miter; stroke-linecap: square"/>
   </g>
   <g id="patch_6">
    <path d="M 54 34.56 
L 388.8 34.56 
" style="fill: none; stroke: #000000; stroke-width: 0.8; stroke-linejoin: miter; stroke-linecap: square"/>
   </g>
   <g id="legend_1">
    <g id="patch_7">
     <path d="M 61 71.91625 
L 116.275 71.91625 
Q 118.275 71.91625 118.275 69.91625 
L 118.275 41.56 
Q 118.275 39.56 116.275 39.56 
L 61 39.56 
Q 59 39.56 59 41.56 
L 59 69.91625 
Q 59 71.91625 61 71.91625 
z
" style="fill: #ffffff; opacity: 0.8; stroke: #cccccc; stroke-linejoin: miter"/>
    </g>
    <g id="line2d_18">
     <path d="M 63 47.658437 
L 73 47.658437 
L 83 47.658437 
" style="fill: none; stroke: #1f77b4; stroke-width: 1.5; stroke-linecap: square"/>
    </g>
    <g id="text_17">
     <!-- train -->
     <g transform="translate(91 51.158437)scale(0.1 -0.1)">
      <defs>
       <path id="DejaVuSans-74" d="M 1172 4494 
L 1172 3500 
L 2356 3500 
L 2356 3053 
L 1172 3053 
L 1172 1153 
Q 1172 725 1289 603 
Q 1406 481 1766 481 
L 2356 481 
L 2356 0 
L 1766 0 
Q 1100 0 847 248 
Q 594 497 594 1153 
L 594 3053 
L 172 3053 
L 172 3500 
L 594 3500 
L 594 4494 
L 1172 4494 
z
" transform="scale(0.015625)"/>
       <path id="DejaVuSans-69" d="M 603 3500 
L 1178 3500 
L 1178 0 
L 603 0 
L 603 3500 
z
M 603 4863 
L 1178 4863 
L 1178 4134 
L 603 4134 
L 603 4863 
z
" transform="scale(0.015625)"/>
       <path id="DejaVuSans-6e" d="M 3513 2113 
L 3513 0 
L 2938 0 
L 2938 2094 
Q 2938 2591 2744 2837 
Q 2550 3084 2163 3084 
Q 1697 3084 1428 2787 
Q 1159 2491 1159 1978 
L 1159 0 
L 581 0 
L 581 3500 
L 1159 3500 
L 1159 2956 
Q 1366 3272 1645 3428 
Q 1925 3584 2291 3584 
Q 2894 3584 3203 3211 
Q 3513 2838 3513 2113 
z
" transform="scale(0.015625)"/>
      </defs>
      <use xlink:href="#DejaVuSans-74"/>
      <use xlink:href="#DejaVuSans-72" x="39.208984"/>
      <use xlink:href="#DejaVuSans-61" x="80.322266"/>
      <use xlink:href="#DejaVuSans-69" x="141.601562"/>
      <use xlink:href="#DejaVuSans-6e" x="169.384766"/>
     </g>
    </g>
    <g id="line2d_19">
     <path d="M 63 62.336562 
L 73 62.336562 
L 83 62.336562 
" style="fill: none; stroke: #ff7f0e; stroke-width: 1.5; stroke-linecap: square"/>
    </g>
    <g id="text_18">
     <!-- test -->
     <g transform="translate(91 65.836562)scale(0.1 -0.1)">
      <defs>
       <path id="DejaVuSans-65" d="M 3597 1894 
L 3597 1613 
L 953 1613 
Q 991 1019 1311 708 
Q 1631 397 2203 397 
Q 2534 397 2845 478 
Q 3156 559 3463 722 
L 3463 178 
Q 3153 47 2828 -22 
Q 2503 -91 2169 -91 
Q 1331 -91 842 396 
Q 353 884 353 1716 
Q 353 2575 817 3079 
Q 1281 3584 2069 3584 
Q 2775 3584 3186 3129 
Q 3597 2675 3597 1894 
z
M 3022 2063 
Q 3016 2534 2758 2815 
Q 2500 3097 2075 3097 
Q 1594 3097 1305 2825 
Q 1016 2553 972 2059 
L 3022 2063 
z
" transform="scale(0.015625)"/>
       <path id="DejaVuSans-73" d="M 2834 3397 
L 2834 2853 
Q 2591 2978 2328 3040 
Q 2066 3103 1784 3103 
Q 1356 3103 1142 2972 
Q 928 2841 928 2578 
Q 928 2378 1081 2264 
Q 1234 2150 1697 2047 
L 1894 2003 
Q 2506 1872 2764 1633 
Q 3022 1394 3022 966 
Q 3022 478 2636 193 
Q 2250 -91 1575 -91 
Q 1294 -91 989 -36 
Q 684 19 347 128 
L 347 722 
Q 666 556 975 473 
Q 1284 391 1588 391 
Q 1994 391 2212 530 
Q 2431 669 2431 922 
Q 2431 1156 2273 1281 
Q 2116 1406 1581 1522 
L 1381 1569 
Q 847 1681 609 1914 
Q 372 2147 372 2553 
Q 372 3047 722 3315 
Q 1072 3584 1716 3584 
Q 2034 3584 2315 3537 
Q 2597 3491 2834 3397 
z
" transform="scale(0.015625)"/>
      </defs>
      <use xlink:href="#DejaVuSans-74"/>
      <use xlink:href="#DejaVuSans-65" x="39.208984"/>
      <use xlink:href="#DejaVuSans-73" x="100.732422"/>
      <use xlink:href="#DejaVuSans-74" x="152.832031"/>
     </g>
    </g>
   </g>
  </g>
 </g>
 <defs>
  <clipPath id="p0b2465fb12">
   <rect x="54" y="34.56" width="334.8" height="217.44"/>
  </clipPath>
 </defs>
</svg>
