<?xml version="1.0" encoding="utf-8" standalone="no"?>
<!DOCTYPE svg PUBLIC "-//W3C//DTD SVG 1.1//EN"
  "http://www.w3.org/Graphics/SVG/1.1/DTD/svg11.dtd">
<svg xmlns:xlink="http://www.w3.org/1999/xlink" width="432pt" height="288pt" viewBox="0 0 432 288" xmlns="http://www.w3.org/2000/svg" version="1.1">
 <metadata>
  <rdf:RDF xmlns:dc="http://purl.org/dc/elements/1.1/" xmlns:cc="http://creativecommons.org/ns#" xmlns:rdf="http://www.w3.org/1999/02/22-rdf-syntax-ns#">
   <cc:Work>
    <dc:type rdf:resource="http://purl.org/dc/dcmitype/StillImage"/>
    <dc:date>2022-08-08T11:13:01.748051</dc:date>
    <dc:format>image/svg+xml</dc:format>
    <dc:creator>
     <cc:Agent>
      <dc:title>Matplotlib v3.5.2, https://matplotlib.org/</dc:title>
     </cc:Agent>
    </dc:creator>
   </cc:Work>
  </rdf:RDF>
 </metadata>
 <defs>
  <style type="text/css">*{stroke-linejoin: round; stroke-linecap: butt}</style>
 </defs>
 <g id="figure_1">
  <g id="patch_1">
   <path d="M 0 288 
L 432 288 
L 432 0 
L 0 0 
L 0 288 
z
" style="fill: none"/>
  </g>
  <g id="axes_1">
   <g id="patch_2">
    <path d="M 54 252 
L 388.8 252 
L 388.8 34.56 
L 54 34.56 
z
" style="fill: #ffffff"/>
   </g>
   <g id="matplotlib.axis_1">
    <g id="xtick_1">
     <g id="line2d_1">
      <defs>
       <path id="m8cfdf81493" d="M 0 0 
L 0 3.5 
" style="stroke: #000000; stroke-width: 0.8"/>
      </defs>
      <g>
       <use xlink:href="#m8cfdf81493" x="69.218182" y="252" style="stroke: #000000; stroke-width: 0.8"/>
      </g>
     </g>
     <g id="text_1">
      <!-- 0 -->
      <g transform="translate(66.036932 266.598437)scale(0.1 -0.1)">
       <defs>
        <path id="DejaVuSans-30" d="M 2034 4250 
Q 1547 4250 1301 3770 
Q 1056 3291 1056 2328 
Q 1056 1369 1301 889 
Q 1547 409 2034 409 
Q 2525 409 2770 889 
Q 3016 1369 3016 2328 
Q 3016 3291 2770 3770 
Q 2525 4250 2034 4250 
z
M 2034 4750 
Q 2819 4750 3233 4129 
Q 3647 3509 3647 2328 
Q 3647 1150 3233 529 
Q 2819 -91 2034 -91 
Q 1250 -91 836 529 
Q 422 1150 422 2328 
Q 422 3509 836 4129 
Q 1250 4750 2034 4750 
z
" transform="scale(0.015625)"/>
       </defs>
       <use xlink:href="#DejaVuSans-30"/>
      </g>
     </g>
    </g>
    <g id="xtick_2">
     <g id="line2d_2">
      <g>
       <use xlink:href="#m8cfdf81493" x="107.45482" y="252" style="stroke: #000000; stroke-width: 0.8"/>
      </g>
     </g>
     <g id="text_2">
      <!-- 25 -->
      <g transform="translate(101.09232 266.598437)scale(0.1 -0.1)">
       <defs>
        <path id="DejaVuSans-32" d="M 1228 531 
L 3431 531 
L 3431 0 
L 469 0 
L 469 531 
Q 828 903 1448 1529 
Q 2069 2156 2228 2338 
Q 2531 2678 2651 2914 
Q 2772 3150 2772 3378 
Q 2772 3750 2511 3984 
Q 2250 4219 1831 4219 
Q 1534 4219 1204 4116 
Q 875 4013 500 3803 
L 500 4441 
Q 881 4594 1212 4672 
Q 1544 4750 1819 4750 
Q 2544 4750 2975 4387 
Q 3406 4025 3406 3419 
Q 3406 3131 3298 2873 
Q 3191 2616 2906 2266 
Q 2828 2175 2409 1742 
Q 1991 1309 1228 531 
z
" transform="scale(0.015625)"/>
        <path id="DejaVuSans-35" d="M 691 4666 
L 3169 4666 
L 3169 4134 
L 1269 4134 
L 1269 2991 
Q 1406 3038 1543 3061 
Q 1681 3084 1819 3084 
Q 2600 3084 3056 2656 
Q 3513 2228 3513 1497 
Q 3513 744 3044 326 
Q 2575 -91 1722 -91 
Q 1428 -91 1123 -41 
Q 819 9 494 109 
L 494 744 
Q 775 591 1075 516 
Q 1375 441 1709 441 
Q 2250 441 2565 725 
Q 2881 1009 2881 1497 
Q 2881 1984 2565 2268 
Q 2250 2553 1709 2553 
Q 1456 2553 1204 2497 
Q 953 2441 691 2322 
L 691 4666 
z
" transform="scale(0.015625)"/>
       </defs>
       <use xlink:href="#DejaVuSans-32"/>
       <use xlink:href="#DejaVuSans-35" x="63.623047"/>
      </g>
     </g>
    </g>
    <g id="xtick_3">
     <g id="line2d_3">
      <g>
       <use xlink:href="#m8cfdf81493" x="145.691457" y="252" style="stroke: #000000; stroke-width: 0.8"/>
      </g>
     </g>
     <g id="text_3">
      <!-- 50 -->
      <g transform="translate(139.328957 266.598437)scale(0.1 -0.1)">
       <use xlink:href="#DejaVuSans-35"/>
       <use xlink:href="#DejaVuSans-30" x="63.623047"/>
      </g>
     </g>
    </g>
    <g id="xtick_4">
     <g id="line2d_4">
      <g>
       <use xlink:href="#m8cfdf81493" x="183.928095" y="252" style="stroke: #000000; stroke-width: 0.8"/>
      </g>
     </g>
     <g id="text_4">
      <!-- 75 -->
      <g transform="translate(177.565595 266.598437)scale(0.1 -0.1)">
       <defs>
        <path id="DejaVuSans-37" d="M 525 4666 
L 3525 4666 
L 3525 4397 
L 1831 0 
L 1172 0 
L 2766 4134 
L 525 4134 
L 525 4666 
z
" transform="scale(0.015625)"/>
       </defs>
       <use xlink:href="#DejaVuSans-37"/>
       <use xlink:href="#DejaVuSans-35" x="63.623047"/>
      </g>
     </g>
    </g>
    <g id="xtick_5">
     <g id="line2d_5">
      <g>
       <use xlink:href="#m8cfdf81493" x="222.164733" y="252" style="stroke: #000000; stroke-width: 0.8"/>
      </g>
     </g>
     <g id="text_5">
      <!-- 100 -->
      <g transform="translate(212.620983 266.598437)scale(0.1 -0.1)">
       <defs>
        <path id="DejaVuSans-31" d="M 794 531 
L 1825 531 
L 1825 4091 
L 703 3866 
L 703 4441 
L 1819 4666 
L 2450 4666 
L 2450 531 
L 3481 531 
L 3481 0 
L 794 0 
L 794 531 
z
" transform="scale(0.015625)"/>
       </defs>
       <use xlink:href="#DejaVuSans-31"/>
       <use xlink:href="#DejaVuSans-30" x="63.623047"/>
       <use xlink:href="#DejaVuSans-30" x="127.246094"/>
      </g>
     </g>
    </g>
    <g id="xtick_6">
     <g id="line2d_6">
      <g>
       <use xlink:href="#m8cfdf81493" x="260.40137" y="252" style="stroke: #000000; stroke-width: 0.8"/>
      </g>
     </g>
     <g id="text_6">
      <!-- 125 -->
      <g transform="translate(250.85762 266.598437)scale(0.1 -0.1)">
       <use xlink:href="#DejaVuSans-31"/>
       <use xlink:href="#DejaVuSans-32" x="63.623047"/>
       <use xlink:href="#DejaVuSans-35" x="127.246094"/>
      </g>
     </g>
    </g>
    <g id="xtick_7">
     <g id="line2d_7">
      <g>
       <use xlink:href="#m8cfdf81493" x="298.638008" y="252" style="stroke: #000000; stroke-width: 0.8"/>
      </g>
     </g>
     <g id="text_7">
      <!-- 150 -->
      <g transform="translate(289.094258 266.598437)scale(0.1 -0.1)">
       <use xlink:href="#DejaVuSans-31"/>
       <use xlink:href="#DejaVuSans-35" x="63.623047"/>
       <use xlink:href="#DejaVuSans-30" x="127.246094"/>
      </g>
     </g>
    </g>
    <g id="xtick_8">
     <g id="line2d_8">
      <g>
       <use xlink:href="#m8cfdf81493" x="336.874646" y="252" style="stroke: #000000; stroke-width: 0.8"/>
      </g>
     </g>
     <g id="text_8">
      <!-- 175 -->
      <g transform="translate(327.330896 266.598437)scale(0.1 -0.1)">
       <use xlink:href="#DejaVuSans-31"/>
       <use xlink:href="#DejaVuSans-37" x="63.623047"/>
       <use xlink:href="#DejaVuSans-35" x="127.246094"/>
      </g>
     </g>
    </g>
    <g id="xtick_9">
     <g id="line2d_9">
      <g>
       <use xlink:href="#m8cfdf81493" x="375.111284" y="252" style="stroke: #000000; stroke-width: 0.8"/>
      </g>
     </g>
     <g id="text_9">
      <!-- 200 -->
      <g transform="translate(365.567534 266.598437)scale(0.1 -0.1)">
       <use xlink:href="#DejaVuSans-32"/>
       <use xlink:href="#DejaVuSans-30" x="63.623047"/>
       <use xlink:href="#DejaVuSans-30" x="127.246094"/>
      </g>
     </g>
    </g>
   </g>
   <g id="matplotlib.axis_2">
    <g id="ytick_1">
     <g id="line2d_10">
      <defs>
       <path id="m8d432408e3" d="M 0 0 
L -3.5 0 
" style="stroke: #000000; stroke-width: 0.8"/>
      </defs>
      <g>
       <use xlink:href="#m8d432408e3" x="54" y="226.631663" style="stroke: #000000; stroke-width: 0.8"/>
      </g>
     </g>
     <g id="text_10">
      <!-- 0.4 -->
      <g transform="translate(31.096875 230.430881)scale(0.1 -0.1)">
       <defs>
        <path id="DejaVuSans-2e" d="M 684 794 
L 1344 794 
L 1344 0 
L 684 0 
L 684 794 
z
" transform="scale(0.015625)"/>
        <path id="DejaVuSans-34" d="M 2419 4116 
L 825 1625 
L 2419 1625 
L 2419 4116 
z
M 2253 4666 
L 3047 4666 
L 3047 1625 
L 3713 1625 
L 3713 1100 
L 3047 1100 
L 3047 0 
L 2419 0 
L 2419 1100 
L 313 1100 
L 313 1709 
L 2253 4666 
z
" transform="scale(0.015625)"/>
       </defs>
       <use xlink:href="#DejaVuSans-30"/>
       <use xlink:href="#DejaVuSans-2e" x="63.623047"/>
       <use xlink:href="#DejaVuSans-34" x="95.410156"/>
      </g>
     </g>
    </g>
    <g id="ytick_2">
     <g id="line2d_11">
      <g>
       <use xlink:href="#m8d432408e3" x="54" y="200.576346" style="stroke: #000000; stroke-width: 0.8"/>
      </g>
     </g>
     <g id="text_11">
      <!-- 0.6 -->
      <g transform="translate(31.096875 204.375565)scale(0.1 -0.1)">
       <defs>
        <path id="DejaVuSans-36" d="M 2113 2584 
Q 1688 2584 1439 2293 
Q 1191 2003 1191 1497 
Q 1191 994 1439 701 
Q 1688 409 2113 409 
Q 2538 409 2786 701 
Q 3034 994 3034 1497 
Q 3034 2003 2786 2293 
Q 2538 2584 2113 2584 
z
M 3366 4563 
L 3366 3988 
Q 3128 4100 2886 4159 
Q 2644 4219 2406 4219 
Q 1781 4219 1451 3797 
Q 1122 3375 1075 2522 
Q 1259 2794 1537 2939 
Q 1816 3084 2150 3084 
Q 2853 3084 3261 2657 
Q 3669 2231 3669 1497 
Q 3669 778 3244 343 
Q 2819 -91 2113 -91 
Q 1303 -91 875 529 
Q 447 1150 447 2328 
Q 447 3434 972 4092 
Q 1497 4750 2381 4750 
Q 2619 4750 2861 4703 
Q 3103 4656 3366 4563 
z
" transform="scale(0.015625)"/>
       </defs>
       <use xlink:href="#DejaVuSans-30"/>
       <use xlink:href="#DejaVuSans-2e" x="63.623047"/>
       <use xlink:href="#DejaVuSans-36" x="95.410156"/>
      </g>
     </g>
    </g>
    <g id="ytick_3">
     <g id="line2d_12">
      <g>
       <use xlink:href="#m8d432408e3" x="54" y="174.52103" style="stroke: #000000; stroke-width: 0.8"/>
      </g>
     </g>
     <g id="text_12">
      <!-- 0.8 -->
      <g transform="translate(31.096875 178.320248)scale(0.1 -0.1)">
       <defs>
        <path id="DejaVuSans-38" d="M 2034 2216 
Q 1584 2216 1326 1975 
Q 1069 1734 1069 1313 
Q 1069 891 1326 650 
Q 1584 409 2034 409 
Q 2484 409 2743 651 
Q 3003 894 3003 1313 
Q 3003 1734 2745 1975 
Q 2488 2216 2034 2216 
z
M 1403 2484 
Q 997 2584 770 2862 
Q 544 3141 544 3541 
Q 544 4100 942 4425 
Q 1341 4750 2034 4750 
Q 2731 4750 3128 4425 
Q 3525 4100 3525 3541 
Q 3525 3141 3298 2862 
Q 3072 2584 2669 2484 
Q 3125 2378 3379 2068 
Q 3634 1759 3634 1313 
Q 3634 634 3220 271 
Q 2806 -91 2034 -91 
Q 1263 -91 848 271 
Q 434 634 434 1313 
Q 434 1759 690 2068 
Q 947 2378 1403 2484 
z
M 1172 3481 
Q 1172 3119 1398 2916 
Q 1625 2713 2034 2713 
Q 2441 2713 2670 2916 
Q 2900 3119 2900 3481 
Q 2900 3844 2670 4047 
Q 2441 4250 2034 4250 
Q 1625 4250 1398 4047 
Q 1172 3844 1172 3481 
z
" transform="scale(0.015625)"/>
       </defs>
       <use xlink:href="#DejaVuSans-30"/>
       <use xlink:href="#DejaVuSans-2e" x="63.623047"/>
       <use xlink:href="#DejaVuSans-38" x="95.410156"/>
      </g>
     </g>
    </g>
    <g id="ytick_4">
     <g id="line2d_13">
      <g>
       <use xlink:href="#m8d432408e3" x="54" y="148.465713" style="stroke: #000000; stroke-width: 0.8"/>
      </g>
     </g>
     <g id="text_13">
      <!-- 1.0 -->
      <g transform="translate(31.096875 152.264932)scale(0.1 -0.1)">
       <use xlink:href="#DejaVuSans-31"/>
       <use xlink:href="#DejaVuSans-2e" x="63.623047"/>
       <use xlink:href="#DejaVuSans-30" x="95.410156"/>
      </g>
     </g>
    </g>
    <g id="ytick_5">
     <g id="line2d_14">
      <g>
       <use xlink:href="#m8d432408e3" x="54" y="122.410396" style="stroke: #000000; stroke-width: 0.8"/>
      </g>
     </g>
     <g id="text_14">
      <!-- 1.2 -->
      <g transform="translate(31.096875 126.209615)scale(0.1 -0.1)">
       <use xlink:href="#DejaVuSans-31"/>
       <use xlink:href="#DejaVuSans-2e" x="63.623047"/>
       <use xlink:href="#DejaVuSans-32" x="95.410156"/>
      </g>
     </g>
    </g>
    <g id="ytick_6">
     <g id="line2d_15">
      <g>
       <use xlink:href="#m8d432408e3" x="54" y="96.35508" style="stroke: #000000; stroke-width: 0.8"/>
      </g>
     </g>
     <g id="text_15">
      <!-- 1.4 -->
      <g transform="translate(31.096875 100.154299)scale(0.1 -0.1)">
       <use xlink:href="#DejaVuSans-31"/>
       <use xlink:href="#DejaVuSans-2e" x="63.623047"/>
       <use xlink:href="#DejaVuSans-34" x="95.410156"/>
      </g>
     </g>
    </g>
    <g id="ytick_7">
     <g id="line2d_16">
      <g>
       <use xlink:href="#m8d432408e3" x="54" y="70.299763" style="stroke: #000000; stroke-width: 0.8"/>
      </g>
     </g>
     <g id="text_16">
      <!-- 1.6 -->
      <g transform="translate(31.096875 74.098982)scale(0.1 -0.1)">
       <use xlink:href="#DejaVuSans-31"/>
       <use xlink:href="#DejaVuSans-2e" x="63.623047"/>
       <use xlink:href="#DejaVuSans-36" x="95.410156"/>
      </g>
     </g>
    </g>
    <g id="ytick_8">
     <g id="line2d_17">
      <g>
       <use xlink:href="#m8d432408e3" x="54" y="44.244447" style="stroke: #000000; stroke-width: 0.8"/>
      </g>
     </g>
     <g id="text_17">
      <!-- 1.8 -->
      <g transform="translate(31.096875 48.043666)scale(0.1 -0.1)">
       <use xlink:href="#DejaVuSans-31"/>
       <use xlink:href="#DejaVuSans-2e" x="63.623047"/>
       <use xlink:href="#DejaVuSans-38" x="95.410156"/>
      </g>
     </g>
    </g>
    <g id="text_18">
     <!-- Loss -->
     <g transform="translate(25.017187 154.247187)rotate(-90)scale(0.1 -0.1)">
      <defs>
       <path id="DejaVuSans-4c" d="M 628 4666 
L 1259 4666 
L 1259 531 
L 3531 531 
L 3531 0 
L 628 0 
L 628 4666 
z
" transform="scale(0.015625)"/>
       <path id="DejaVuSans-6f" d="M 1959 3097 
Q 1497 3097 1228 2736 
Q 959 2375 959 1747 
Q 959 1119 1226 758 
Q 1494 397 1959 397 
Q 2419 397 2687 759 
Q 2956 1122 2956 1747 
Q 2956 2369 2687 2733 
Q 2419 3097 1959 3097 
z
M 1959 3584 
Q 2709 3584 3137 3096 
Q 3566 2609 3566 1747 
Q 3566 888 3137 398 
Q 2709 -91 1959 -91 
Q 1206 -91 779 398 
Q 353 888 353 1747 
Q 353 2609 779 3096 
Q 1206 3584 1959 3584 
z
" transform="scale(0.015625)"/>
       <path id="DejaVuSans-73" d="M 2834 3397 
L 2834 2853 
Q 2591 2978 2328 3040 
Q 2066 3103 1784 3103 
Q 1356 3103 1142 2972 
Q 928 2841 928 2578 
Q 928 2378 1081 2264 
Q 1234 2150 1697 2047 
L 1894 2003 
Q 2506 1872 2764 1633 
Q 3022 1394 3022 966 
Q 3022 478 2636 193 
Q 2250 -91 1575 -91 
Q 1294 -91 989 -36 
Q 684 19 347 128 
L 347 722 
Q 666 556 975 473 
Q 1284 391 1588 391 
Q 1994 391 2212 530 
Q 2431 669 2431 922 
Q 2431 1156 2273 1281 
Q 2116 1406 1581 1522 
L 1381 1569 
Q 847 1681 609 1914 
Q 372 2147 372 2553 
Q 372 3047 722 3315 
Q 1072 3584 1716 3584 
Q 2034 3584 2315 3537 
Q 2597 3491 2834 3397 
z
" transform="scale(0.015625)"/>
      </defs>
      <use xlink:href="#DejaVuSans-4c"/>
      <use xlink:href="#DejaVuSans-6f" x="53.962891"/>
      <use xlink:href="#DejaVuSans-73" x="115.144531"/>
      <use xlink:href="#DejaVuSans-73" x="167.244141"/>
     </g>
    </g>
   </g>
   <g id="line2d_18">
    <path d="M 69.218182 44.443636 
L 70.747647 76.431301 
L 73.806578 90.14117 
L 75.336044 95.553903 
L 76.865509 101.63751 
L 78.394975 106.02643 
L 79.92444 109.84013 
L 81.453906 113.243487 
L 82.983371 115.959267 
L 84.512837 120.637812 
L 86.042302 122.869743 
L 87.571768 123.004258 
L 89.101233 126.857829 
L 90.630699 130.192649 
L 92.160164 132.936406 
L 93.68963 134.516735 
L 95.219095 134.622492 
L 96.748561 139.573083 
L 98.278026 140.7927 
L 99.807492 142.748072 
L 101.336958 144.313127 
L 102.866423 144.980687 
L 104.395889 147.653915 
L 105.925354 149.931178 
L 107.45482 150.908463 
L 108.984285 151.540235 
L 110.513751 153.340323 
L 112.043216 154.377186 
L 113.572682 156.385138 
L 115.102147 156.917975 
L 116.631613 159.169162 
L 118.161078 160.789977 
L 119.690544 161.271612 
L 121.220009 161.312912 
L 122.749475 164.058185 
L 124.27894 164.463078 
L 125.808406 166.195754 
L 127.337871 166.944323 
L 128.867337 167.295086 
L 130.396802 168.75384 
L 131.926268 170.79301 
L 133.455733 171.854548 
L 134.985199 172.348233 
L 138.04413 173.817287 
L 139.573595 173.7959 
L 141.103061 176.438619 
L 142.632526 176.716073 
L 144.161992 177.38624 
L 145.691457 177.023828 
L 147.220923 178.27076 
L 148.750388 180.557558 
L 150.279854 179.910482 
L 151.809319 182.328653 
L 153.338785 181.865158 
L 154.86825 183.282444 
L 157.927181 184.875127 
L 162.515578 186.542651 
L 164.045043 186.786744 
L 165.574509 188.131184 
L 167.103974 189.003444 
L 168.63344 189.735953 
L 170.162905 190.025193 
L 171.692371 189.76533 
L 174.751302 192.957439 
L 176.280767 192.135379 
L 177.810233 193.398193 
L 179.339698 193.490087 
L 180.869164 195.62811 
L 182.39863 195.249048 
L 183.928095 196.12095 
L 185.457561 196.525071 
L 186.987026 196.35163 
L 188.516492 197.951916 
L 190.045957 198.033878 
L 191.575423 198.22782 
L 193.104888 199.499225 
L 194.634354 200.203607 
L 196.163819 200.663763 
L 197.693285 201.492201 
L 199.22275 201.81265 
L 200.752216 202.69787 
L 202.281681 203.279195 
L 205.340612 203.705833 
L 206.870078 204.704153 
L 209.929009 205.852837 
L 211.458474 205.568051 
L 212.98794 206.724162 
L 214.517405 207.131272 
L 216.046871 208.239704 
L 217.576336 208.471874 
L 219.105802 209.320974 
L 220.635267 209.970953 
L 222.164733 209.597183 
L 223.694198 210.802853 
L 225.223664 211.505621 
L 226.753129 211.541698 
L 229.81206 212.695451 
L 231.341526 214.401309 
L 232.870991 214.353144 
L 234.400457 214.696026 
L 235.929922 215.604614 
L 237.459388 216.044989 
L 238.988853 215.558463 
L 240.518319 216.888411 
L 242.047784 216.70413 
L 243.57725 218.029179 
L 245.106715 218.538198 
L 246.636181 218.599176 
L 248.165646 219.627793 
L 249.695112 219.379654 
L 251.224577 220.063875 
L 254.283508 221.752872 
L 255.812974 221.45619 
L 257.342439 222.166735 
L 258.871905 221.70365 
L 260.40137 222.79299 
L 261.930836 223.655664 
L 263.460302 224.101013 
L 264.989767 224.687045 
L 266.519233 224.688601 
L 268.048698 225.894841 
L 269.578164 226.39232 
L 271.107629 226.137875 
L 272.637095 226.896094 
L 274.16656 227.245023 
L 275.696026 227.789498 
L 277.225491 227.09696 
L 278.754957 228.935605 
L 280.284422 228.879071 
L 281.813888 229.084844 
L 283.343353 229.919544 
L 284.872819 229.526109 
L 286.402284 230.426128 
L 287.93175 231.032928 
L 289.461215 230.343229 
L 290.990681 231.469847 
L 294.049612 232.462039 
L 295.579077 232.382109 
L 297.108543 233.169509 
L 301.696939 233.821346 
L 303.226405 234.892831 
L 304.75587 234.729194 
L 306.285336 234.841163 
L 307.814801 236.125421 
L 309.344267 236.528896 
L 310.873732 236.261935 
L 312.403198 236.637576 
L 313.932663 236.611108 
L 315.462129 236.940445 
L 316.991594 236.820973 
L 320.050525 237.62026 
L 321.579991 237.9253 
L 324.638922 238.196827 
L 326.168387 238.764165 
L 327.697853 238.676609 
L 330.756784 239.487056 
L 332.286249 239.258352 
L 333.815715 239.501309 
L 335.34518 239.441965 
L 336.874646 240.131676 
L 338.404111 240.152992 
L 339.933577 240.395861 
L 341.463042 240.140007 
L 344.521974 240.965769 
L 346.051439 240.343957 
L 347.580905 240.553053 
L 349.11037 241.240871 
L 350.639836 240.901759 
L 352.169301 240.909555 
L 353.698767 241.440865 
L 355.228232 241.77001 
L 358.287163 240.98268 
L 359.816629 241.81333 
L 361.346094 241.307114 
L 362.87556 241.609526 
L 364.405025 241.114183 
L 365.934491 242.116364 
L 367.463956 241.627024 
L 370.522887 241.698386 
L 372.052353 241.233657 
L 373.581818 241.679543 
L 373.581818 241.679543 
" clip-path="url(#p39c0f455ab)" style="fill: none; stroke: #1f77b4; stroke-width: 1.5; stroke-linecap: square"/>
   </g>
   <g id="line2d_19">
    <path d="M 69.218182 93.710345 
L 70.747647 99.650888 
L 72.277113 114.371596 
L 73.806578 109.58918 
L 75.336044 113.453539 
L 76.865509 119.683726 
L 78.394975 102.333068 
L 79.92444 135.507207 
L 81.453906 137.155014 
L 82.983371 132.702433 
L 84.512837 114.010613 
L 86.042302 140.449031 
L 87.571768 145.328748 
L 89.101233 149.076514 
L 90.630699 136.627458 
L 92.160164 149.248772 
L 93.68963 150.173845 
L 95.219095 155.967041 
L 96.748561 148.96982 
L 99.807492 162.86513 
L 101.336958 155.64081 
L 102.866423 160.036718 
L 104.395889 161.916737 
L 105.925354 165.35172 
L 107.45482 162.662162 
L 108.984285 161.293626 
L 110.513751 164.489166 
L 112.043216 164.871049 
L 113.572682 164.255905 
L 115.102147 169.862848 
L 116.631613 167.640527 
L 118.161078 153.516828 
L 119.690544 175.126177 
L 121.220009 168.371525 
L 122.749475 171.519231 
L 124.27894 168.749498 
L 125.808406 175.925707 
L 127.337871 162.469586 
L 128.867337 178.799055 
L 130.396802 175.342521 
L 131.926268 175.497334 
L 133.455733 178.808119 
L 134.985199 180.451216 
L 136.514664 180.290121 
L 138.04413 172.557954 
L 139.573595 177.015181 
L 141.103061 170.962335 
L 142.632526 181.535901 
L 144.161992 171.031292 
L 145.691457 172.505704 
L 147.220923 183.692816 
L 148.750388 178.720284 
L 150.279854 182.805583 
L 151.809319 185.450504 
L 153.338785 181.449265 
L 154.86825 191.303748 
L 156.397716 184.968796 
L 157.927181 184.146142 
L 159.456647 184.54268 
L 160.986112 187.944867 
L 162.515578 188.011405 
L 164.045043 187.841942 
L 165.574509 191.293763 
L 167.103974 189.122232 
L 168.63344 191.984735 
L 170.162905 192.798649 
L 171.692371 189.088594 
L 173.221836 191.245697 
L 174.751302 188.813949 
L 176.280767 190.667688 
L 177.810233 184.047795 
L 179.339698 194.030027 
L 180.869164 192.765154 
L 182.39863 189.430233 
L 183.928095 168.472669 
L 185.457561 192.234706 
L 186.987026 192.653835 
L 188.516492 189.934147 
L 190.045957 192.470388 
L 191.575423 176.743246 
L 193.104888 194.392541 
L 194.634354 185.300887 
L 196.163819 195.060389 
L 197.693285 197.855781 
L 199.22275 199.880121 
L 200.752216 199.25987 
L 202.281681 196.329996 
L 203.811147 200.278571 
L 205.340612 197.762335 
L 206.870078 201.664353 
L 208.399543 199.915936 
L 209.929009 199.696722 
L 211.458474 200.052165 
L 212.98794 198.312761 
L 214.517405 198.646594 
L 216.046871 199.71164 
L 217.576336 193.628639 
L 219.105802 202.659801 
L 222.164733 198.416083 
L 223.694198 196.013243 
L 225.223664 200.318654 
L 226.753129 202.886931 
L 228.282595 201.368201 
L 229.81206 198.793332 
L 231.341526 203.430417 
L 232.870991 201.872014 
L 234.400457 204.058247 
L 235.929922 197.410473 
L 237.459388 202.971276 
L 238.988853 206.024763 
L 240.518319 203.067808 
L 242.047784 203.471593 
L 243.57725 204.044388 
L 245.106715 203.805266 
L 246.636181 205.944522 
L 248.165646 203.881471 
L 249.695112 205.546719 
L 251.224577 204.882665 
L 252.754043 203.848168 
L 254.283508 207.478186 
L 255.812974 204.012612 
L 257.342439 207.411635 
L 258.871905 206.679384 
L 260.40137 208.412675 
L 261.930836 207.632986 
L 263.460302 207.692015 
L 264.989767 205.989324 
L 266.519233 207.533897 
L 268.048698 206.186329 
L 269.578164 207.789053 
L 271.107629 206.414996 
L 272.637095 207.387726 
L 274.16656 208.179237 
L 275.696026 207.447527 
L 277.225491 208.306649 
L 278.754957 204.77204 
L 280.284422 209.410532 
L 281.813888 208.397651 
L 283.343353 209.328725 
L 284.872819 208.772522 
L 286.402284 207.427736 
L 287.93175 208.682401 
L 289.461215 209.516715 
L 290.990681 208.125913 
L 292.520146 206.228183 
L 294.049612 209.961074 
L 295.579077 208.222872 
L 297.108543 209.619056 
L 298.638008 206.93492 
L 300.167474 209.182058 
L 301.696939 210.670331 
L 303.226405 208.038371 
L 304.75587 208.379808 
L 306.285336 209.102474 
L 307.814801 208.543207 
L 309.344267 208.333467 
L 310.873732 207.312245 
L 312.403198 207.434307 
L 313.932663 208.848074 
L 315.462129 207.109186 
L 316.991594 208.781759 
L 318.52106 208.628254 
L 320.050525 207.812379 
L 323.109456 208.161138 
L 324.638922 208.807604 
L 326.168387 208.978839 
L 327.697853 208.04366 
L 329.227318 209.368895 
L 330.756784 207.260344 
L 332.286249 208.736317 
L 333.815715 207.972647 
L 336.874646 208.625211 
L 339.933577 208.963517 
L 341.463042 208.285486 
L 342.992508 208.129867 
L 344.521974 208.463937 
L 346.051439 208.651276 
L 347.580905 208.15113 
L 350.639836 208.204101 
L 352.169301 208.663097 
L 353.698767 208.238175 
L 355.228232 208.000293 
L 356.757698 208.260436 
L 358.287163 208.21304 
L 361.346094 208.350076 
L 373.581818 208.328444 
L 373.581818 208.328444 
" clip-path="url(#p39c0f455ab)" style="fill: none; stroke: #ff7f0e; stroke-width: 1.5; stroke-linecap: square"/>
   </g>
   <g id="patch_3">
    <path d="M 54 252 
L 54 34.56 
" style="fill: none; stroke: #000000; stroke-width: 0.8; stroke-linejoin: miter; stroke-linecap: square"/>
   </g>
   <g id="patch_4">
    <path d="M 388.8 252 
L 388.8 34.56 
" style="fill: none; stroke: #000000; stroke-width: 0.8; stroke-linejoin: miter; stroke-linecap: square"/>
   </g>
   <g id="patch_5">
    <path d="M 54 252 
L 388.8 252 
" style="fill: none; stroke: #000000; stroke-width: 0.8; stroke-linejoin: miter; stroke-linecap: square"/>
   </g>
   <g id="patch_6">
    <path d="M 54 34.56 
L 388.8 34.56 
" style="fill: none; stroke: #000000; stroke-width: 0.8; stroke-linejoin: miter; stroke-linecap: square"/>
   </g>
   <g id="legend_1">
    <g id="patch_7">
     <path d="M 326.525 71.91625 
L 381.8 71.91625 
Q 383.8 71.91625 383.8 69.91625 
L 383.8 41.56 
Q 383.8 39.56 381.8 39.56 
L 326.525 39.56 
Q 324.525 39.56 324.525 41.56 
L 324.525 69.91625 
Q 324.525 71.91625 326.525 71.91625 
z
" style="fill: #ffffff; opacity: 0.8; stroke: #cccccc; stroke-linejoin: miter"/>
    </g>
    <g id="line2d_20">
     <path d="M 328.525 47.658437 
L 338.525 47.658437 
L 348.525 47.658437 
" style="fill: none; stroke: #1f77b4; stroke-width: 1.5; stroke-linecap: square"/>
    </g>
    <g id="text_19">
     <!-- train -->
     <g transform="translate(356.525 51.158437)scale(0.1 -0.1)">
      <defs>
       <path id="DejaVuSans-74" d="M 1172 4494 
L 1172 3500 
L 2356 3500 
L 2356 3053 
L 1172 3053 
L 1172 1153 
Q 1172 725 1289 603 
Q 1406 481 1766 481 
L 2356 481 
L 2356 0 
L 1766 0 
Q 1100 0 847 248 
Q 594 497 594 1153 
L 594 3053 
L 172 3053 
L 172 3500 
L 594 3500 
L 594 4494 
L 1172 4494 
z
" transform="scale(0.015625)"/>
       <path id="DejaVuSans-72" d="M 2631 2963 
Q 2534 3019 2420 3045 
Q 2306 3072 2169 3072 
Q 1681 3072 1420 2755 
Q 1159 2438 1159 1844 
L 1159 0 
L 581 0 
L 581 3500 
L 1159 3500 
L 1159 2956 
Q 1341 3275 1631 3429 
Q 1922 3584 2338 3584 
Q 2397 3584 2469 3576 
Q 2541 3569 2628 3553 
L 2631 2963 
z
" transform="scale(0.015625)"/>
       <path id="DejaVuSans-61" d="M 2194 1759 
Q 1497 1759 1228 1600 
Q 959 1441 959 1056 
Q 959 750 1161 570 
Q 1363 391 1709 391 
Q 2188 391 2477 730 
Q 2766 1069 2766 1631 
L 2766 1759 
L 2194 1759 
z
M 3341 1997 
L 3341 0 
L 2766 0 
L 2766 531 
Q 2569 213 2275 61 
Q 1981 -91 1556 -91 
Q 1019 -91 701 211 
Q 384 513 384 1019 
Q 384 1609 779 1909 
Q 1175 2209 1959 2209 
L 2766 2209 
L 2766 2266 
Q 2766 2663 2505 2880 
Q 2244 3097 1772 3097 
Q 1472 3097 1187 3025 
Q 903 2953 641 2809 
L 641 3341 
Q 956 3463 1253 3523 
Q 1550 3584 1831 3584 
Q 2591 3584 2966 3190 
Q 3341 2797 3341 1997 
z
" transform="scale(0.015625)"/>
       <path id="DejaVuSans-69" d="M 603 3500 
L 1178 3500 
L 1178 0 
L 603 0 
L 603 3500 
z
M 603 4863 
L 1178 4863 
L 1178 4134 
L 603 4134 
L 603 4863 
z
" transform="scale(0.015625)"/>
       <path id="DejaVuSans-6e" d="M 3513 2113 
L 3513 0 
L 2938 0 
L 2938 2094 
Q 2938 2591 2744 2837 
Q 2550 3084 2163 3084 
Q 1697 3084 1428 2787 
Q 1159 2491 1159 1978 
L 1159 0 
L 581 0 
L 581 3500 
L 1159 3500 
L 1159 2956 
Q 1366 3272 1645 3428 
Q 1925 3584 2291 3584 
Q 2894 3584 3203 3211 
Q 3513 2838 3513 2113 
z
" transform="scale(0.015625)"/>
      </defs>
      <use xlink:href="#DejaVuSans-74"/>
      <use xlink:href="#DejaVuSans-72" x="39.208984"/>
      <use xlink:href="#DejaVuSans-61" x="80.322266"/>
      <use xlink:href="#DejaVuSans-69" x="141.601562"/>
      <use xlink:href="#DejaVuSans-6e" x="169.384766"/>
     </g>
    </g>
    <g id="line2d_21">
     <path d="M 328.525 62.336562 
L 338.525 62.336562 
L 348.525 62.336562 
" style="fill: none; stroke: #ff7f0e; stroke-width: 1.5; stroke-linecap: square"/>
    </g>
    <g id="text_20">
     <!-- test -->
     <g transform="translate(356.525 65.836562)scale(0.1 -0.1)">
      <defs>
       <path id="DejaVuSans-65" d="M 3597 1894 
L 3597 1613 
L 953 1613 
Q 991 1019 1311 708 
Q 1631 397 2203 397 
Q 2534 397 2845 478 
Q 3156 559 3463 722 
L 3463 178 
Q 3153 47 2828 -22 
Q 2503 -91 2169 -91 
Q 1331 -91 842 396 
Q 353 884 353 1716 
Q 353 2575 817 3079 
Q 1281 3584 2069 3584 
Q 2775 3584 3186 3129 
Q 3597 2675 3597 1894 
z
M 3022 2063 
Q 3016 2534 2758 2815 
Q 2500 3097 2075 3097 
Q 1594 3097 1305 2825 
Q 1016 2553 972 2059 
L 3022 2063 
z
" transform="scale(0.015625)"/>
      </defs>
      <use xlink:href="#DejaVuSans-74"/>
      <use xlink:href="#DejaVuSans-65" x="39.208984"/>
      <use xlink:href="#DejaVuSans-73" x="100.732422"/>
      <use xlink:href="#DejaVuSans-74" x="152.832031"/>
     </g>
    </g>
   </g>
  </g>
 </g>
 <defs>
  <clipPath id="p39c0f455ab">
   <rect x="54" y="34.56" width="334.8" height="217.44"/>
  </clipPath>
 </defs>
</svg>
