<?xml version="1.0" encoding="utf-8" standalone="no"?>
<!DOCTYPE svg PUBLIC "-//W3C//DTD SVG 1.1//EN"
  "http://www.w3.org/Graphics/SVG/1.1/DTD/svg11.dtd">
<svg xmlns:xlink="http://www.w3.org/1999/xlink" width="432pt" height="288pt" viewBox="0 0 432 288" xmlns="http://www.w3.org/2000/svg" version="1.1">
 <metadata>
  <rdf:RDF xmlns:dc="http://purl.org/dc/elements/1.1/" xmlns:cc="http://creativecommons.org/ns#" xmlns:rdf="http://www.w3.org/1999/02/22-rdf-syntax-ns#">
   <cc:Work>
    <dc:type rdf:resource="http://purl.org/dc/dcmitype/StillImage"/>
    <dc:date>2022-07-12T05:46:37.603257</dc:date>
    <dc:format>image/svg+xml</dc:format>
    <dc:creator>
     <cc:Agent>
      <dc:title>Matplotlib v3.5.2, https://matplotlib.org/</dc:title>
     </cc:Agent>
    </dc:creator>
   </cc:Work>
  </rdf:RDF>
 </metadata>
 <defs>
  <style type="text/css">*{stroke-linejoin: round; stroke-linecap: butt}</style>
 </defs>
 <g id="figure_1">
  <g id="patch_1">
   <path d="M 0 288 
L 432 288 
L 432 0 
L 0 0 
L 0 288 
z
" style="fill: none"/>
  </g>
  <g id="axes_1">
   <g id="patch_2">
    <path d="M 54 252 
L 388.8 252 
L 388.8 34.56 
L 54 34.56 
z
" style="fill: #ffffff"/>
   </g>
   <g id="matplotlib.axis_1">
    <g id="xtick_1">
     <g id="line2d_1">
      <defs>
       <path id="md517eb2193" d="M 0 0 
L 0 3.5 
" style="stroke: #000000; stroke-width: 0.8"/>
      </defs>
      <g>
       <use xlink:href="#md517eb2193" x="69.218182" y="252" style="stroke: #000000; stroke-width: 0.8"/>
      </g>
     </g>
     <g id="text_1">
      <!-- 0 -->
      <g transform="translate(66.036932 266.598437)scale(0.1 -0.1)">
       <defs>
        <path id="DejaVuSans-30" d="M 2034 4250 
Q 1547 4250 1301 3770 
Q 1056 3291 1056 2328 
Q 1056 1369 1301 889 
Q 1547 409 2034 409 
Q 2525 409 2770 889 
Q 3016 1369 3016 2328 
Q 3016 3291 2770 3770 
Q 2525 4250 2034 4250 
z
M 2034 4750 
Q 2819 4750 3233 4129 
Q 3647 3509 3647 2328 
Q 3647 1150 3233 529 
Q 2819 -91 2034 -91 
Q 1250 -91 836 529 
Q 422 1150 422 2328 
Q 422 3509 836 4129 
Q 1250 4750 2034 4750 
z
" transform="scale(0.015625)"/>
       </defs>
       <use xlink:href="#DejaVuSans-30"/>
      </g>
     </g>
    </g>
    <g id="xtick_2">
     <g id="line2d_2">
      <g>
       <use xlink:href="#md517eb2193" x="107.45482" y="252" style="stroke: #000000; stroke-width: 0.8"/>
      </g>
     </g>
     <g id="text_2">
      <!-- 25 -->
      <g transform="translate(101.09232 266.598437)scale(0.1 -0.1)">
       <defs>
        <path id="DejaVuSans-32" d="M 1228 531 
L 3431 531 
L 3431 0 
L 469 0 
L 469 531 
Q 828 903 1448 1529 
Q 2069 2156 2228 2338 
Q 2531 2678 2651 2914 
Q 2772 3150 2772 3378 
Q 2772 3750 2511 3984 
Q 2250 4219 1831 4219 
Q 1534 4219 1204 4116 
Q 875 4013 500 3803 
L 500 4441 
Q 881 4594 1212 4672 
Q 1544 4750 1819 4750 
Q 2544 4750 2975 4387 
Q 3406 4025 3406 3419 
Q 3406 3131 3298 2873 
Q 3191 2616 2906 2266 
Q 2828 2175 2409 1742 
Q 1991 1309 1228 531 
z
" transform="scale(0.015625)"/>
        <path id="DejaVuSans-35" d="M 691 4666 
L 3169 4666 
L 3169 4134 
L 1269 4134 
L 1269 2991 
Q 1406 3038 1543 3061 
Q 1681 3084 1819 3084 
Q 2600 3084 3056 2656 
Q 3513 2228 3513 1497 
Q 3513 744 3044 326 
Q 2575 -91 1722 -91 
Q 1428 -91 1123 -41 
Q 819 9 494 109 
L 494 744 
Q 775 591 1075 516 
Q 1375 441 1709 441 
Q 2250 441 2565 725 
Q 2881 1009 2881 1497 
Q 2881 1984 2565 2268 
Q 2250 2553 1709 2553 
Q 1456 2553 1204 2497 
Q 953 2441 691 2322 
L 691 4666 
z
" transform="scale(0.015625)"/>
       </defs>
       <use xlink:href="#DejaVuSans-32"/>
       <use xlink:href="#DejaVuSans-35" x="63.623047"/>
      </g>
     </g>
    </g>
    <g id="xtick_3">
     <g id="line2d_3">
      <g>
       <use xlink:href="#md517eb2193" x="145.691457" y="252" style="stroke: #000000; stroke-width: 0.8"/>
      </g>
     </g>
     <g id="text_3">
      <!-- 50 -->
      <g transform="translate(139.328957 266.598437)scale(0.1 -0.1)">
       <use xlink:href="#DejaVuSans-35"/>
       <use xlink:href="#DejaVuSans-30" x="63.623047"/>
      </g>
     </g>
    </g>
    <g id="xtick_4">
     <g id="line2d_4">
      <g>
       <use xlink:href="#md517eb2193" x="183.928095" y="252" style="stroke: #000000; stroke-width: 0.8"/>
      </g>
     </g>
     <g id="text_4">
      <!-- 75 -->
      <g transform="translate(177.565595 266.598437)scale(0.1 -0.1)">
       <defs>
        <path id="DejaVuSans-37" d="M 525 4666 
L 3525 4666 
L 3525 4397 
L 1831 0 
L 1172 0 
L 2766 4134 
L 525 4134 
L 525 4666 
z
" transform="scale(0.015625)"/>
       </defs>
       <use xlink:href="#DejaVuSans-37"/>
       <use xlink:href="#DejaVuSans-35" x="63.623047"/>
      </g>
     </g>
    </g>
    <g id="xtick_5">
     <g id="line2d_5">
      <g>
       <use xlink:href="#md517eb2193" x="222.164733" y="252" style="stroke: #000000; stroke-width: 0.8"/>
      </g>
     </g>
     <g id="text_5">
      <!-- 100 -->
      <g transform="translate(212.620983 266.598437)scale(0.1 -0.1)">
       <defs>
        <path id="DejaVuSans-31" d="M 794 531 
L 1825 531 
L 1825 4091 
L 703 3866 
L 703 4441 
L 1819 4666 
L 2450 4666 
L 2450 531 
L 3481 531 
L 3481 0 
L 794 0 
L 794 531 
z
" transform="scale(0.015625)"/>
       </defs>
       <use xlink:href="#DejaVuSans-31"/>
       <use xlink:href="#DejaVuSans-30" x="63.623047"/>
       <use xlink:href="#DejaVuSans-30" x="127.246094"/>
      </g>
     </g>
    </g>
    <g id="xtick_6">
     <g id="line2d_6">
      <g>
       <use xlink:href="#md517eb2193" x="260.40137" y="252" style="stroke: #000000; stroke-width: 0.8"/>
      </g>
     </g>
     <g id="text_6">
      <!-- 125 -->
      <g transform="translate(250.85762 266.598437)scale(0.1 -0.1)">
       <use xlink:href="#DejaVuSans-31"/>
       <use xlink:href="#DejaVuSans-32" x="63.623047"/>
       <use xlink:href="#DejaVuSans-35" x="127.246094"/>
      </g>
     </g>
    </g>
    <g id="xtick_7">
     <g id="line2d_7">
      <g>
       <use xlink:href="#md517eb2193" x="298.638008" y="252" style="stroke: #000000; stroke-width: 0.8"/>
      </g>
     </g>
     <g id="text_7">
      <!-- 150 -->
      <g transform="translate(289.094258 266.598437)scale(0.1 -0.1)">
       <use xlink:href="#DejaVuSans-31"/>
       <use xlink:href="#DejaVuSans-35" x="63.623047"/>
       <use xlink:href="#DejaVuSans-30" x="127.246094"/>
      </g>
     </g>
    </g>
    <g id="xtick_8">
     <g id="line2d_8">
      <g>
       <use xlink:href="#md517eb2193" x="336.874646" y="252" style="stroke: #000000; stroke-width: 0.8"/>
      </g>
     </g>
     <g id="text_8">
      <!-- 175 -->
      <g transform="translate(327.330896 266.598437)scale(0.1 -0.1)">
       <use xlink:href="#DejaVuSans-31"/>
       <use xlink:href="#DejaVuSans-37" x="63.623047"/>
       <use xlink:href="#DejaVuSans-35" x="127.246094"/>
      </g>
     </g>
    </g>
    <g id="xtick_9">
     <g id="line2d_9">
      <g>
       <use xlink:href="#md517eb2193" x="375.111284" y="252" style="stroke: #000000; stroke-width: 0.8"/>
      </g>
     </g>
     <g id="text_9">
      <!-- 200 -->
      <g transform="translate(365.567534 266.598437)scale(0.1 -0.1)">
       <use xlink:href="#DejaVuSans-32"/>
       <use xlink:href="#DejaVuSans-30" x="63.623047"/>
       <use xlink:href="#DejaVuSans-30" x="127.246094"/>
      </g>
     </g>
    </g>
   </g>
   <g id="matplotlib.axis_2">
    <g id="ytick_1">
     <g id="line2d_10">
      <defs>
       <path id="m776d518ff7" d="M 0 0 
L -3.5 0 
" style="stroke: #000000; stroke-width: 0.8"/>
      </defs>
      <g>
       <use xlink:href="#m776d518ff7" x="54" y="241.726756" style="stroke: #000000; stroke-width: 0.8"/>
      </g>
     </g>
     <g id="text_10">
      <!-- 40 -->
      <g transform="translate(34.275 245.525975)scale(0.1 -0.1)">
       <defs>
        <path id="DejaVuSans-34" d="M 2419 4116 
L 825 1625 
L 2419 1625 
L 2419 4116 
z
M 2253 4666 
L 3047 4666 
L 3047 1625 
L 3713 1625 
L 3713 1100 
L 3047 1100 
L 3047 0 
L 2419 0 
L 2419 1100 
L 313 1100 
L 313 1709 
L 2253 4666 
z
" transform="scale(0.015625)"/>
       </defs>
       <use xlink:href="#DejaVuSans-34"/>
       <use xlink:href="#DejaVuSans-30" x="63.623047"/>
      </g>
     </g>
    </g>
    <g id="ytick_2">
     <g id="line2d_11">
      <g>
       <use xlink:href="#m776d518ff7" x="54" y="206.307884" style="stroke: #000000; stroke-width: 0.8"/>
      </g>
     </g>
     <g id="text_11">
      <!-- 50 -->
      <g transform="translate(34.275 210.107102)scale(0.1 -0.1)">
       <use xlink:href="#DejaVuSans-35"/>
       <use xlink:href="#DejaVuSans-30" x="63.623047"/>
      </g>
     </g>
    </g>
    <g id="ytick_3">
     <g id="line2d_12">
      <g>
       <use xlink:href="#m776d518ff7" x="54" y="170.889011" style="stroke: #000000; stroke-width: 0.8"/>
      </g>
     </g>
     <g id="text_12">
      <!-- 60 -->
      <g transform="translate(34.275 174.68823)scale(0.1 -0.1)">
       <defs>
        <path id="DejaVuSans-36" d="M 2113 2584 
Q 1688 2584 1439 2293 
Q 1191 2003 1191 1497 
Q 1191 994 1439 701 
Q 1688 409 2113 409 
Q 2538 409 2786 701 
Q 3034 994 3034 1497 
Q 3034 2003 2786 2293 
Q 2538 2584 2113 2584 
z
M 3366 4563 
L 3366 3988 
Q 3128 4100 2886 4159 
Q 2644 4219 2406 4219 
Q 1781 4219 1451 3797 
Q 1122 3375 1075 2522 
Q 1259 2794 1537 2939 
Q 1816 3084 2150 3084 
Q 2853 3084 3261 2657 
Q 3669 2231 3669 1497 
Q 3669 778 3244 343 
Q 2819 -91 2113 -91 
Q 1303 -91 875 529 
Q 447 1150 447 2328 
Q 447 3434 972 4092 
Q 1497 4750 2381 4750 
Q 2619 4750 2861 4703 
Q 3103 4656 3366 4563 
z
" transform="scale(0.015625)"/>
       </defs>
       <use xlink:href="#DejaVuSans-36"/>
       <use xlink:href="#DejaVuSans-30" x="63.623047"/>
      </g>
     </g>
    </g>
    <g id="ytick_4">
     <g id="line2d_13">
      <g>
       <use xlink:href="#m776d518ff7" x="54" y="135.470139" style="stroke: #000000; stroke-width: 0.8"/>
      </g>
     </g>
     <g id="text_13">
      <!-- 70 -->
      <g transform="translate(34.275 139.269357)scale(0.1 -0.1)">
       <use xlink:href="#DejaVuSans-37"/>
       <use xlink:href="#DejaVuSans-30" x="63.623047"/>
      </g>
     </g>
    </g>
    <g id="ytick_5">
     <g id="line2d_14">
      <g>
       <use xlink:href="#m776d518ff7" x="54" y="100.051266" style="stroke: #000000; stroke-width: 0.8"/>
      </g>
     </g>
     <g id="text_14">
      <!-- 80 -->
      <g transform="translate(34.275 103.850485)scale(0.1 -0.1)">
       <defs>
        <path id="DejaVuSans-38" d="M 2034 2216 
Q 1584 2216 1326 1975 
Q 1069 1734 1069 1313 
Q 1069 891 1326 650 
Q 1584 409 2034 409 
Q 2484 409 2743 651 
Q 3003 894 3003 1313 
Q 3003 1734 2745 1975 
Q 2488 2216 2034 2216 
z
M 1403 2484 
Q 997 2584 770 2862 
Q 544 3141 544 3541 
Q 544 4100 942 4425 
Q 1341 4750 2034 4750 
Q 2731 4750 3128 4425 
Q 3525 4100 3525 3541 
Q 3525 3141 3298 2862 
Q 3072 2584 2669 2484 
Q 3125 2378 3379 2068 
Q 3634 1759 3634 1313 
Q 3634 634 3220 271 
Q 2806 -91 2034 -91 
Q 1263 -91 848 271 
Q 434 634 434 1313 
Q 434 1759 690 2068 
Q 947 2378 1403 2484 
z
M 1172 3481 
Q 1172 3119 1398 2916 
Q 1625 2713 2034 2713 
Q 2441 2713 2670 2916 
Q 2900 3119 2900 3481 
Q 2900 3844 2670 4047 
Q 2441 4250 2034 4250 
Q 1625 4250 1398 4047 
Q 1172 3844 1172 3481 
z
" transform="scale(0.015625)"/>
       </defs>
       <use xlink:href="#DejaVuSans-38"/>
       <use xlink:href="#DejaVuSans-30" x="63.623047"/>
      </g>
     </g>
    </g>
    <g id="ytick_6">
     <g id="line2d_15">
      <g>
       <use xlink:href="#m776d518ff7" x="54" y="64.632394" style="stroke: #000000; stroke-width: 0.8"/>
      </g>
     </g>
     <g id="text_15">
      <!-- 90 -->
      <g transform="translate(34.275 68.431612)scale(0.1 -0.1)">
       <defs>
        <path id="DejaVuSans-39" d="M 703 97 
L 703 672 
Q 941 559 1184 500 
Q 1428 441 1663 441 
Q 2288 441 2617 861 
Q 2947 1281 2994 2138 
Q 2813 1869 2534 1725 
Q 2256 1581 1919 1581 
Q 1219 1581 811 2004 
Q 403 2428 403 3163 
Q 403 3881 828 4315 
Q 1253 4750 1959 4750 
Q 2769 4750 3195 4129 
Q 3622 3509 3622 2328 
Q 3622 1225 3098 567 
Q 2575 -91 1691 -91 
Q 1453 -91 1209 -44 
Q 966 3 703 97 
z
M 1959 2075 
Q 2384 2075 2632 2365 
Q 2881 2656 2881 3163 
Q 2881 3666 2632 3958 
Q 2384 4250 1959 4250 
Q 1534 4250 1286 3958 
Q 1038 3666 1038 3163 
Q 1038 2656 1286 2365 
Q 1534 2075 1959 2075 
z
" transform="scale(0.015625)"/>
       </defs>
       <use xlink:href="#DejaVuSans-39"/>
       <use xlink:href="#DejaVuSans-30" x="63.623047"/>
      </g>
     </g>
    </g>
    <g id="text_16">
     <!-- Accuracy -->
     <g transform="translate(28.195312 166.108125)rotate(-90)scale(0.1 -0.1)">
      <defs>
       <path id="DejaVuSans-41" d="M 2188 4044 
L 1331 1722 
L 3047 1722 
L 2188 4044 
z
M 1831 4666 
L 2547 4666 
L 4325 0 
L 3669 0 
L 3244 1197 
L 1141 1197 
L 716 0 
L 50 0 
L 1831 4666 
z
" transform="scale(0.015625)"/>
       <path id="DejaVuSans-63" d="M 3122 3366 
L 3122 2828 
Q 2878 2963 2633 3030 
Q 2388 3097 2138 3097 
Q 1578 3097 1268 2742 
Q 959 2388 959 1747 
Q 959 1106 1268 751 
Q 1578 397 2138 397 
Q 2388 397 2633 464 
Q 2878 531 3122 666 
L 3122 134 
Q 2881 22 2623 -34 
Q 2366 -91 2075 -91 
Q 1284 -91 818 406 
Q 353 903 353 1747 
Q 353 2603 823 3093 
Q 1294 3584 2113 3584 
Q 2378 3584 2631 3529 
Q 2884 3475 3122 3366 
z
" transform="scale(0.015625)"/>
       <path id="DejaVuSans-75" d="M 544 1381 
L 544 3500 
L 1119 3500 
L 1119 1403 
Q 1119 906 1312 657 
Q 1506 409 1894 409 
Q 2359 409 2629 706 
Q 2900 1003 2900 1516 
L 2900 3500 
L 3475 3500 
L 3475 0 
L 2900 0 
L 2900 538 
Q 2691 219 2414 64 
Q 2138 -91 1772 -91 
Q 1169 -91 856 284 
Q 544 659 544 1381 
z
M 1991 3584 
L 1991 3584 
z
" transform="scale(0.015625)"/>
       <path id="DejaVuSans-72" d="M 2631 2963 
Q 2534 3019 2420 3045 
Q 2306 3072 2169 3072 
Q 1681 3072 1420 2755 
Q 1159 2438 1159 1844 
L 1159 0 
L 581 0 
L 581 3500 
L 1159 3500 
L 1159 2956 
Q 1341 3275 1631 3429 
Q 1922 3584 2338 3584 
Q 2397 3584 2469 3576 
Q 2541 3569 2628 3553 
L 2631 2963 
z
" transform="scale(0.015625)"/>
       <path id="DejaVuSans-61" d="M 2194 1759 
Q 1497 1759 1228 1600 
Q 959 1441 959 1056 
Q 959 750 1161 570 
Q 1363 391 1709 391 
Q 2188 391 2477 730 
Q 2766 1069 2766 1631 
L 2766 1759 
L 2194 1759 
z
M 3341 1997 
L 3341 0 
L 2766 0 
L 2766 531 
Q 2569 213 2275 61 
Q 1981 -91 1556 -91 
Q 1019 -91 701 211 
Q 384 513 384 1019 
Q 384 1609 779 1909 
Q 1175 2209 1959 2209 
L 2766 2209 
L 2766 2266 
Q 2766 2663 2505 2880 
Q 2244 3097 1772 3097 
Q 1472 3097 1187 3025 
Q 903 2953 641 2809 
L 641 3341 
Q 956 3463 1253 3523 
Q 1550 3584 1831 3584 
Q 2591 3584 2966 3190 
Q 3341 2797 3341 1997 
z
" transform="scale(0.015625)"/>
       <path id="DejaVuSans-79" d="M 2059 -325 
Q 1816 -950 1584 -1140 
Q 1353 -1331 966 -1331 
L 506 -1331 
L 506 -850 
L 844 -850 
Q 1081 -850 1212 -737 
Q 1344 -625 1503 -206 
L 1606 56 
L 191 3500 
L 800 3500 
L 1894 763 
L 2988 3500 
L 3597 3500 
L 2059 -325 
z
" transform="scale(0.015625)"/>
      </defs>
      <use xlink:href="#DejaVuSans-41"/>
      <use xlink:href="#DejaVuSans-63" x="66.658203"/>
      <use xlink:href="#DejaVuSans-63" x="121.638672"/>
      <use xlink:href="#DejaVuSans-75" x="176.619141"/>
      <use xlink:href="#DejaVuSans-72" x="239.998047"/>
      <use xlink:href="#DejaVuSans-61" x="281.111328"/>
      <use xlink:href="#DejaVuSans-63" x="342.390625"/>
      <use xlink:href="#DejaVuSans-79" x="397.371094"/>
     </g>
    </g>
   </g>
   <g id="line2d_16">
    <path d="M 69.218182 242.116364 
L 70.747647 201.59009 
L 72.277113 186.990431 
L 73.806578 179.177027 
L 75.336044 172.992892 
L 76.865509 168.997643 
L 79.92444 161.55968 
L 81.453906 158.449903 
L 82.983371 154.298811 
L 84.512837 154.362565 
L 87.571768 148.015503 
L 89.101233 146.223308 
L 90.630699 144.041506 
L 92.160164 141.455928 
L 93.68963 139.699152 
L 95.219095 136.978983 
L 96.748561 135.682652 
L 98.278026 135.420552 
L 99.807492 133.274169 
L 101.336958 132.296608 
L 102.866423 129.909376 
L 104.395889 130.596502 
L 105.925354 128.26594 
L 107.45482 126.310818 
L 108.984285 124.979069 
L 110.513751 124.270691 
L 112.043216 122.726428 
L 113.572682 121.408846 
L 115.102147 120.66505 
L 116.631613 120.190437 
L 118.161078 118.447829 
L 119.690544 118.09364 
L 121.220009 116.088932 
L 124.27894 115.621402 
L 125.808406 113.744202 
L 127.337871 114.169229 
L 128.867337 112.993322 
L 130.396802 110.776101 
L 131.926268 111.704075 
L 133.455733 110.939028 
L 134.985199 109.10433 
L 136.514664 108.52346 
L 138.04413 108.183439 
L 139.573595 108.133853 
L 141.103061 105.746621 
L 142.632526 106.53292 
L 144.161992 104.181107 
L 145.691457 104.56363 
L 147.220923 103.571902 
L 148.750388 103.564818 
L 150.279854 102.459749 
L 151.809319 101.581361 
L 153.338785 102.013472 
L 154.86825 100.455041 
L 156.397716 100.617968 
L 157.927181 98.584925 
L 160.986112 98.570757 
L 162.515578 97.068997 
L 164.045043 97.933218 
L 165.574509 97.182337 
L 167.103974 95.390143 
L 168.63344 94.738435 
L 170.162905 94.511754 
L 171.692371 94.107979 
L 173.221836 93.172921 
L 176.280767 92.209528 
L 177.810233 91.770334 
L 179.339698 91.720747 
L 180.869164 89.673537 
L 182.39863 90.438584 
L 183.928095 89.893134 
L 185.457561 88.5543 
L 186.987026 87.491734 
L 190.045957 87.817588 
L 191.575423 86.783357 
L 193.104888 85.196591 
L 194.634354 85.600366 
L 196.163819 84.070271 
L 197.693285 84.828235 
L 199.22275 83.794004 
L 200.752216 83.461066 
L 202.281681 81.796379 
L 203.811147 81.668871 
L 205.340612 81.994725 
L 206.870078 80.946326 
L 208.399543 79.465817 
L 209.929009 80.195446 
L 211.458474 79.947514 
L 212.98794 78.778691 
L 214.517405 78.367832 
L 216.046871 78.204906 
L 217.576336 77.524863 
L 219.105802 76.18603 
L 220.635267 76.256868 
L 222.164733 75.874344 
L 223.694198 75.683082 
L 225.223664 75.088045 
L 226.753129 73.600452 
L 228.282595 74.124651 
L 229.81206 73.196677 
L 232.870991 72.686645 
L 234.400457 71.616995 
L 235.929922 72.219116 
L 237.459388 70.412754 
L 238.988853 70.129403 
L 240.518319 69.39269 
L 242.047784 68.910993 
L 243.57725 68.578056 
L 245.106715 68.797653 
L 248.165646 67.961768 
L 249.695112 67.19672 
L 251.224577 65.411609 
L 252.754043 66.481259 
L 254.283508 65.673709 
L 258.871905 63.980686 
L 260.40137 63.194387 
L 261.930836 63.208555 
L 263.460302 62.37267 
L 264.989767 61.706795 
L 266.519233 61.536784 
L 268.048698 61.650125 
L 269.578164 60.396297 
L 271.107629 60.396297 
L 272.637095 59.602914 
L 274.16656 59.645416 
L 275.696026 59.184971 
L 277.225491 58.455342 
L 278.754957 57.931143 
L 280.284422 57.846138 
L 281.813888 56.896912 
L 283.343353 55.550995 
L 284.872819 56.231037 
L 286.402284 55.310146 
L 287.93175 55.451822 
L 289.461215 54.778863 
L 292.520146 54.332586 
L 294.049612 54.474261 
L 295.579077 53.666711 
L 297.108543 53.255852 
L 298.638008 53.015004 
L 300.167474 52.214537 
L 301.696939 53.163763 
L 303.226405 51.853264 
L 304.75587 51.576997 
L 306.285336 51.159055 
L 307.814801 51.3574 
L 309.344267 51.229892 
L 310.873732 50.379839 
L 312.403198 50.408174 
L 313.932663 49.763551 
L 315.462129 49.36686 
L 318.52106 49.579373 
L 320.050525 48.028026 
L 321.579991 48.601812 
L 323.109456 48.318461 
L 324.638922 48.212204 
L 326.168387 47.850932 
L 327.697853 47.199225 
L 329.227318 47.829681 
L 330.756784 47.206308 
L 332.286249 47.39757 
L 333.815715 46.497931 
L 335.34518 46.568769 
L 336.874646 45.739967 
L 338.404111 46.53335 
L 339.933577 46.660858 
L 341.463042 45.598292 
L 342.992508 46.087072 
L 344.521974 45.272438 
L 346.051439 45.605375 
L 347.580905 45.4637 
L 349.11037 45.63371 
L 350.639836 45.336192 
L 352.169301 45.605375 
L 355.228232 44.889914 
L 356.757698 45.52037 
L 358.287163 45.272438 
L 359.816629 45.470784 
L 361.346094 44.904082 
L 365.934491 44.996171 
L 367.463956 44.698652 
L 368.993422 44.571144 
L 370.522887 45.045757 
L 372.052353 44.443636 
L 373.581818 44.748239 
L 373.581818 44.748239 
" clip-path="url(#ped08748fe4)" style="fill: none; stroke: #1f77b4; stroke-width: 1.5; stroke-linecap: square"/>
   </g>
   <g id="line2d_17">
    <path d="M 69.218182 210.912337 
L 70.747647 181.054227 
L 72.277113 173.864196 
L 73.806578 177.441503 
L 75.336044 181.443835 
L 76.865509 154.348398 
L 78.394975 166.674165 
L 79.92444 153.604601 
L 81.453906 152.896224 
L 82.983371 162.671833 
L 84.512837 147.158367 
L 86.042302 153.179575 
L 87.571768 163.69898 
L 89.101233 148.787635 
L 90.630699 141.951792 
L 92.160164 143.368547 
L 93.68963 154.206722 
L 95.219095 142.270562 
L 96.748561 143.828993 
L 98.278026 144.006087 
L 99.807492 142.164306 
L 101.336958 127.713406 
L 102.866423 148.079257 
L 104.395889 137.94946 
L 105.925354 157.961123 
L 107.45482 135.257625 
L 108.984285 133.026236 
L 110.513751 138.764094 
L 112.043216 164.867803 
L 113.572682 134.230478 
L 115.102147 147.300042 
L 116.631613 138.728675 
L 118.161078 127.182122 
L 121.220009 138.26823 
L 122.749475 128.032175 
L 124.27894 134.868018 
L 125.808406 131.326131 
L 127.337871 136.391029 
L 128.867337 124.702801 
L 130.396802 120.452537 
L 131.926268 123.711073 
L 133.455733 119.354552 
L 134.985199 112.731222 
L 136.514664 129.307255 
L 138.04413 127.784243 
L 139.573595 158.209055 
L 141.103061 111.420724 
L 142.632526 134.017965 
L 144.161992 120.771307 
L 145.691457 137.276501 
L 147.220923 115.3168 
L 148.750388 116.450204 
L 150.279854 120.02751 
L 151.809319 128.492621 
L 153.338785 118.15031 
L 154.86825 110.499834 
L 156.397716 113.085411 
L 157.927181 117.194 
L 159.456647 106.497501 
L 160.986112 111.704075 
L 162.515578 108.126769 
L 164.045043 111.208211 
L 165.574509 106.922527 
L 167.103974 110.110226 
L 168.63344 117.158582 
L 170.162905 109.614362 
L 171.692371 103.274384 
L 173.221836 116.060597 
L 174.751302 113.085411 
L 176.280767 159.661229 
L 177.810233 117.866959 
L 179.339698 107.77258 
L 180.869164 112.270777 
L 182.39863 108.339282 
L 183.928095 106.780852 
L 185.457561 99.059538 
L 186.987026 102.849357 
L 188.516492 105.399516 
L 190.045957 106.249569 
L 191.575423 121.444265 
L 193.104888 104.301531 
L 194.634354 111.774913 
L 196.163819 109.401848 
L 197.693285 109.508105 
L 199.22275 107.418392 
L 200.752216 103.805667 
L 202.281681 98.174066 
L 203.811147 98.563674 
L 205.340612 108.693471 
L 206.870078 111.420724 
L 208.399543 98.280323 
L 209.929009 102.991033 
L 211.458474 115.423057 
L 212.98794 101.290927 
L 214.517405 100.511711 
L 216.046871 99.413726 
L 217.576336 98.492836 
L 219.105802 99.697077 
L 220.635267 93.038329 
L 222.164733 98.315741 
L 223.694198 100.8659 
L 225.223664 97.288594 
L 226.753129 101.007576 
L 228.282595 102.636844 
L 229.81206 96.721892 
L 231.341526 108.055931 
L 232.870991 99.661659 
L 234.400457 92.932073 
L 235.929922 94.207152 
L 237.459388 103.203546 
L 238.988853 93.888382 
L 240.518319 90.417333 
L 242.047784 93.002911 
L 243.57725 91.621574 
L 245.106715 97.076081 
L 246.636181 89.425604 
L 248.165646 95.163462 
L 249.695112 91.090291 
L 251.224577 95.978096 
L 252.754043 93.250843 
L 254.283508 91.975763 
L 255.812974 93.534194 
L 257.342439 95.83642 
L 258.871905 98.563674 
L 260.40137 90.169401 
L 261.930836 90.842359 
L 263.460302 91.231967 
L 264.989767 87.867174 
L 266.519233 90.275657 
L 268.048698 90.559008 
L 269.578164 91.479899 
L 271.107629 91.054873 
L 272.637095 87.69008 
L 274.16656 90.948616 
L 275.696026 92.259114 
L 277.225491 85.742042 
L 278.754957 86.840027 
L 280.284422 87.017121 
L 281.813888 85.883717 
L 283.343353 86.415 
L 284.872819 85.246177 
L 286.402284 85.317015 
L 287.93175 86.698351 
L 289.461215 85.848298 
L 290.990681 90.240238 
L 292.520146 86.698351 
L 294.049612 87.760917 
L 295.579077 87.158797 
L 297.108543 87.335891 
L 298.638008 85.069083 
L 300.167474 89.850631 
L 301.696939 84.85657 
L 303.226405 83.687747 
L 304.75587 84.608638 
L 306.285336 85.17534 
L 307.814801 83.971098 
L 309.344267 85.49411 
L 310.873732 84.148192 
L 312.403198 83.510653 
L 313.932663 84.5378 
L 315.462129 84.041936 
L 316.991594 84.112774 
L 318.52106 83.935679 
L 320.050525 82.696019 
L 321.579991 83.121045 
L 326.168387 83.262721 
L 327.697853 81.987641 
L 329.227318 81.668871 
L 330.756784 81.562615 
L 332.286249 83.90026 
L 335.34518 82.483505 
L 336.874646 82.164736 
L 338.404111 82.97937 
L 339.933577 82.908532 
L 341.463042 82.200154 
L 342.992508 81.952222 
L 344.521974 82.270992 
L 347.580905 81.952222 
L 349.11037 82.093898 
L 350.639836 82.412668 
L 352.169301 82.02306 
L 353.698767 82.164736 
L 355.228232 81.916803 
L 356.757698 82.34183 
L 358.287163 82.093898 
L 359.816629 81.420939 
L 361.346094 82.02306 
L 362.87556 81.456358 
L 364.405025 81.527196 
L 365.934491 81.845966 
L 367.463956 81.775128 
L 368.993422 81.845966 
L 370.522887 81.739709 
L 373.581818 81.881385 
L 373.581818 81.881385 
" clip-path="url(#ped08748fe4)" style="fill: none; stroke: #ff7f0e; stroke-width: 1.5; stroke-linecap: square"/>
   </g>
   <g id="patch_3">
    <path d="M 54 252 
L 54 34.56 
" style="fill: none; stroke: #000000; stroke-width: 0.8; stroke-linejoin: miter; stroke-linecap: square"/>
   </g>
   <g id="patch_4">
    <path d="M 388.8 252 
L 388.8 34.56 
" style="fill: none; stroke: #000000; stroke-width: 0.8; stroke-linejoin: miter; stroke-linecap: square"/>
   </g>
   <g id="patch_5">
    <path d="M 54 252 
L 388.8 252 
" style="fill: none; stroke: #000000; stroke-width: 0.8; stroke-linejoin: miter; stroke-linecap: square"/>
   </g>
   <g id="patch_6">
    <path d="M 54 34.56 
L 388.8 34.56 
" style="fill: none; stroke: #000000; stroke-width: 0.8; stroke-linejoin: miter; stroke-linecap: square"/>
   </g>
   <g id="legend_1">
    <g id="patch_7">
     <path d="M 61 71.91625 
L 116.275 71.91625 
Q 118.275 71.91625 118.275 69.91625 
L 118.275 41.56 
Q 118.275 39.56 116.275 39.56 
L 61 39.56 
Q 59 39.56 59 41.56 
L 59 69.91625 
Q 59 71.91625 61 71.91625 
z
" style="fill: #ffffff; opacity: 0.8; stroke: #cccccc; stroke-linejoin: miter"/>
    </g>
    <g id="line2d_18">
     <path d="M 63 47.658437 
L 73 47.658437 
L 83 47.658437 
" style="fill: none; stroke: #1f77b4; stroke-width: 1.5; stroke-linecap: square"/>
    </g>
    <g id="text_17">
     <!-- train -->
     <g transform="translate(91 51.158437)scale(0.1 -0.1)">
      <defs>
       <path id="DejaVuSans-74" d="M 1172 4494 
L 1172 3500 
L 2356 3500 
L 2356 3053 
L 1172 3053 
L 1172 1153 
Q 1172 725 1289 603 
Q 1406 481 1766 481 
L 2356 481 
L 2356 0 
L 1766 0 
Q 1100 0 847 248 
Q 594 497 594 1153 
L 594 3053 
L 172 3053 
L 172 3500 
L 594 3500 
L 594 4494 
L 1172 4494 
z
" transform="scale(0.015625)"/>
       <path id="DejaVuSans-69" d="M 603 3500 
L 1178 3500 
L 1178 0 
L 603 0 
L 603 3500 
z
M 603 4863 
L 1178 4863 
L 1178 4134 
L 603 4134 
L 603 4863 
z
" transform="scale(0.015625)"/>
       <path id="DejaVuSans-6e" d="M 3513 2113 
L 3513 0 
L 2938 0 
L 2938 2094 
Q 2938 2591 2744 2837 
Q 2550 3084 2163 3084 
Q 1697 3084 1428 2787 
Q 1159 2491 1159 1978 
L 1159 0 
L 581 0 
L 581 3500 
L 1159 3500 
L 1159 2956 
Q 1366 3272 1645 3428 
Q 1925 3584 2291 3584 
Q 2894 3584 3203 3211 
Q 3513 2838 3513 2113 
z
" transform="scale(0.015625)"/>
      </defs>
      <use xlink:href="#DejaVuSans-74"/>
      <use xlink:href="#DejaVuSans-72" x="39.208984"/>
      <use xlink:href="#DejaVuSans-61" x="80.322266"/>
      <use xlink:href="#DejaVuSans-69" x="141.601562"/>
      <use xlink:href="#DejaVuSans-6e" x="169.384766"/>
     </g>
    </g>
    <g id="line2d_19">
     <path d="M 63 62.336562 
L 73 62.336562 
L 83 62.336562 
" style="fill: none; stroke: #ff7f0e; stroke-width: 1.5; stroke-linecap: square"/>
    </g>
    <g id="text_18">
     <!-- test -->
     <g transform="translate(91 65.836562)scale(0.1 -0.1)">
      <defs>
       <path id="DejaVuSans-65" d="M 3597 1894 
L 3597 1613 
L 953 1613 
Q 991 1019 1311 708 
Q 1631 397 2203 397 
Q 2534 397 2845 478 
Q 3156 559 3463 722 
L 3463 178 
Q 3153 47 2828 -22 
Q 2503 -91 2169 -91 
Q 1331 -91 842 396 
Q 353 884 353 1716 
Q 353 2575 817 3079 
Q 1281 3584 2069 3584 
Q 2775 3584 3186 3129 
Q 3597 2675 3597 1894 
z
M 3022 2063 
Q 3016 2534 2758 2815 
Q 2500 3097 2075 3097 
Q 1594 3097 1305 2825 
Q 1016 2553 972 2059 
L 3022 2063 
z
" transform="scale(0.015625)"/>
       <path id="DejaVuSans-73" d="M 2834 3397 
L 2834 2853 
Q 2591 2978 2328 3040 
Q 2066 3103 1784 3103 
Q 1356 3103 1142 2972 
Q 928 2841 928 2578 
Q 928 2378 1081 2264 
Q 1234 2150 1697 2047 
L 1894 2003 
Q 2506 1872 2764 1633 
Q 3022 1394 3022 966 
Q 3022 478 2636 193 
Q 2250 -91 1575 -91 
Q 1294 -91 989 -36 
Q 684 19 347 128 
L 347 722 
Q 666 556 975 473 
Q 1284 391 1588 391 
Q 1994 391 2212 530 
Q 2431 669 2431 922 
Q 2431 1156 2273 1281 
Q 2116 1406 1581 1522 
L 1381 1569 
Q 847 1681 609 1914 
Q 372 2147 372 2553 
Q 372 3047 722 3315 
Q 1072 3584 1716 3584 
Q 2034 3584 2315 3537 
Q 2597 3491 2834 3397 
z
" transform="scale(0.015625)"/>
      </defs>
      <use xlink:href="#DejaVuSans-74"/>
      <use xlink:href="#DejaVuSans-65" x="39.208984"/>
      <use xlink:href="#DejaVuSans-73" x="100.732422"/>
      <use xlink:href="#DejaVuSans-74" x="152.832031"/>
     </g>
    </g>
   </g>
  </g>
 </g>
 <defs>
  <clipPath id="ped08748fe4">
   <rect x="54" y="34.56" width="334.8" height="217.44"/>
  </clipPath>
 </defs>
</svg>
