<?xml version="1.0" encoding="utf-8" standalone="no"?>
<!DOCTYPE svg PUBLIC "-//W3C//DTD SVG 1.1//EN"
  "http://www.w3.org/Graphics/SVG/1.1/DTD/svg11.dtd">
<svg xmlns:xlink="http://www.w3.org/1999/xlink" width="432pt" height="288pt" viewBox="0 0 432 288" xmlns="http://www.w3.org/2000/svg" version="1.1">
 <metadata>
  <rdf:RDF xmlns:dc="http://purl.org/dc/elements/1.1/" xmlns:cc="http://creativecommons.org/ns#" xmlns:rdf="http://www.w3.org/1999/02/22-rdf-syntax-ns#">
   <cc:Work>
    <dc:type rdf:resource="http://purl.org/dc/dcmitype/StillImage"/>
    <dc:date>2022-07-12T22:09:30.186557</dc:date>
    <dc:format>image/svg+xml</dc:format>
    <dc:creator>
     <cc:Agent>
      <dc:title>Matplotlib v3.5.2, https://matplotlib.org/</dc:title>
     </cc:Agent>
    </dc:creator>
   </cc:Work>
  </rdf:RDF>
 </metadata>
 <defs>
  <style type="text/css">*{stroke-linejoin: round; stroke-linecap: butt}</style>
 </defs>
 <g id="figure_1">
  <g id="patch_1">
   <path d="M 0 288 
L 432 288 
L 432 0 
L 0 0 
L 0 288 
z
" style="fill: none"/>
  </g>
  <g id="axes_1">
   <g id="patch_2">
    <path d="M 54 252 
L 388.8 252 
L 388.8 34.56 
L 54 34.56 
z
" style="fill: #ffffff"/>
   </g>
   <g id="matplotlib.axis_1">
    <g id="xtick_1">
     <g id="line2d_1">
      <defs>
       <path id="m5d73933147" d="M 0 0 
L 0 3.5 
" style="stroke: #000000; stroke-width: 0.8"/>
      </defs>
      <g>
       <use xlink:href="#m5d73933147" x="69.218182" y="252" style="stroke: #000000; stroke-width: 0.8"/>
      </g>
     </g>
     <g id="text_1">
      <!-- 0 -->
      <g transform="translate(66.036932 266.598437)scale(0.1 -0.1)">
       <defs>
        <path id="DejaVuSans-30" d="M 2034 4250 
Q 1547 4250 1301 3770 
Q 1056 3291 1056 2328 
Q 1056 1369 1301 889 
Q 1547 409 2034 409 
Q 2525 409 2770 889 
Q 3016 1369 3016 2328 
Q 3016 3291 2770 3770 
Q 2525 4250 2034 4250 
z
M 2034 4750 
Q 2819 4750 3233 4129 
Q 3647 3509 3647 2328 
Q 3647 1150 3233 529 
Q 2819 -91 2034 -91 
Q 1250 -91 836 529 
Q 422 1150 422 2328 
Q 422 3509 836 4129 
Q 1250 4750 2034 4750 
z
" transform="scale(0.015625)"/>
       </defs>
       <use xlink:href="#DejaVuSans-30"/>
      </g>
     </g>
    </g>
    <g id="xtick_2">
     <g id="line2d_2">
      <g>
       <use xlink:href="#m5d73933147" x="107.45482" y="252" style="stroke: #000000; stroke-width: 0.8"/>
      </g>
     </g>
     <g id="text_2">
      <!-- 25 -->
      <g transform="translate(101.09232 266.598437)scale(0.1 -0.1)">
       <defs>
        <path id="DejaVuSans-32" d="M 1228 531 
L 3431 531 
L 3431 0 
L 469 0 
L 469 531 
Q 828 903 1448 1529 
Q 2069 2156 2228 2338 
Q 2531 2678 2651 2914 
Q 2772 3150 2772 3378 
Q 2772 3750 2511 3984 
Q 2250 4219 1831 4219 
Q 1534 4219 1204 4116 
Q 875 4013 500 3803 
L 500 4441 
Q 881 4594 1212 4672 
Q 1544 4750 1819 4750 
Q 2544 4750 2975 4387 
Q 3406 4025 3406 3419 
Q 3406 3131 3298 2873 
Q 3191 2616 2906 2266 
Q 2828 2175 2409 1742 
Q 1991 1309 1228 531 
z
" transform="scale(0.015625)"/>
        <path id="DejaVuSans-35" d="M 691 4666 
L 3169 4666 
L 3169 4134 
L 1269 4134 
L 1269 2991 
Q 1406 3038 1543 3061 
Q 1681 3084 1819 3084 
Q 2600 3084 3056 2656 
Q 3513 2228 3513 1497 
Q 3513 744 3044 326 
Q 2575 -91 1722 -91 
Q 1428 -91 1123 -41 
Q 819 9 494 109 
L 494 744 
Q 775 591 1075 516 
Q 1375 441 1709 441 
Q 2250 441 2565 725 
Q 2881 1009 2881 1497 
Q 2881 1984 2565 2268 
Q 2250 2553 1709 2553 
Q 1456 2553 1204 2497 
Q 953 2441 691 2322 
L 691 4666 
z
" transform="scale(0.015625)"/>
       </defs>
       <use xlink:href="#DejaVuSans-32"/>
       <use xlink:href="#DejaVuSans-35" x="63.623047"/>
      </g>
     </g>
    </g>
    <g id="xtick_3">
     <g id="line2d_3">
      <g>
       <use xlink:href="#m5d73933147" x="145.691457" y="252" style="stroke: #000000; stroke-width: 0.8"/>
      </g>
     </g>
     <g id="text_3">
      <!-- 50 -->
      <g transform="translate(139.328957 266.598437)scale(0.1 -0.1)">
       <use xlink:href="#DejaVuSans-35"/>
       <use xlink:href="#DejaVuSans-30" x="63.623047"/>
      </g>
     </g>
    </g>
    <g id="xtick_4">
     <g id="line2d_4">
      <g>
       <use xlink:href="#m5d73933147" x="183.928095" y="252" style="stroke: #000000; stroke-width: 0.8"/>
      </g>
     </g>
     <g id="text_4">
      <!-- 75 -->
      <g transform="translate(177.565595 266.598437)scale(0.1 -0.1)">
       <defs>
        <path id="DejaVuSans-37" d="M 525 4666 
L 3525 4666 
L 3525 4397 
L 1831 0 
L 1172 0 
L 2766 4134 
L 525 4134 
L 525 4666 
z
" transform="scale(0.015625)"/>
       </defs>
       <use xlink:href="#DejaVuSans-37"/>
       <use xlink:href="#DejaVuSans-35" x="63.623047"/>
      </g>
     </g>
    </g>
    <g id="xtick_5">
     <g id="line2d_5">
      <g>
       <use xlink:href="#m5d73933147" x="222.164733" y="252" style="stroke: #000000; stroke-width: 0.8"/>
      </g>
     </g>
     <g id="text_5">
      <!-- 100 -->
      <g transform="translate(212.620983 266.598437)scale(0.1 -0.1)">
       <defs>
        <path id="DejaVuSans-31" d="M 794 531 
L 1825 531 
L 1825 4091 
L 703 3866 
L 703 4441 
L 1819 4666 
L 2450 4666 
L 2450 531 
L 3481 531 
L 3481 0 
L 794 0 
L 794 531 
z
" transform="scale(0.015625)"/>
       </defs>
       <use xlink:href="#DejaVuSans-31"/>
       <use xlink:href="#DejaVuSans-30" x="63.623047"/>
       <use xlink:href="#DejaVuSans-30" x="127.246094"/>
      </g>
     </g>
    </g>
    <g id="xtick_6">
     <g id="line2d_6">
      <g>
       <use xlink:href="#m5d73933147" x="260.40137" y="252" style="stroke: #000000; stroke-width: 0.8"/>
      </g>
     </g>
     <g id="text_6">
      <!-- 125 -->
      <g transform="translate(250.85762 266.598437)scale(0.1 -0.1)">
       <use xlink:href="#DejaVuSans-31"/>
       <use xlink:href="#DejaVuSans-32" x="63.623047"/>
       <use xlink:href="#DejaVuSans-35" x="127.246094"/>
      </g>
     </g>
    </g>
    <g id="xtick_7">
     <g id="line2d_7">
      <g>
       <use xlink:href="#m5d73933147" x="298.638008" y="252" style="stroke: #000000; stroke-width: 0.8"/>
      </g>
     </g>
     <g id="text_7">
      <!-- 150 -->
      <g transform="translate(289.094258 266.598437)scale(0.1 -0.1)">
       <use xlink:href="#DejaVuSans-31"/>
       <use xlink:href="#DejaVuSans-35" x="63.623047"/>
       <use xlink:href="#DejaVuSans-30" x="127.246094"/>
      </g>
     </g>
    </g>
    <g id="xtick_8">
     <g id="line2d_8">
      <g>
       <use xlink:href="#m5d73933147" x="336.874646" y="252" style="stroke: #000000; stroke-width: 0.8"/>
      </g>
     </g>
     <g id="text_8">
      <!-- 175 -->
      <g transform="translate(327.330896 266.598437)scale(0.1 -0.1)">
       <use xlink:href="#DejaVuSans-31"/>
       <use xlink:href="#DejaVuSans-37" x="63.623047"/>
       <use xlink:href="#DejaVuSans-35" x="127.246094"/>
      </g>
     </g>
    </g>
    <g id="xtick_9">
     <g id="line2d_9">
      <g>
       <use xlink:href="#m5d73933147" x="375.111284" y="252" style="stroke: #000000; stroke-width: 0.8"/>
      </g>
     </g>
     <g id="text_9">
      <!-- 200 -->
      <g transform="translate(365.567534 266.598437)scale(0.1 -0.1)">
       <use xlink:href="#DejaVuSans-32"/>
       <use xlink:href="#DejaVuSans-30" x="63.623047"/>
       <use xlink:href="#DejaVuSans-30" x="127.246094"/>
      </g>
     </g>
    </g>
   </g>
   <g id="matplotlib.axis_2">
    <g id="ytick_1">
     <g id="line2d_10">
      <defs>
       <path id="m34cec1f644" d="M 0 0 
L -3.5 0 
" style="stroke: #000000; stroke-width: 0.8"/>
      </defs>
      <g>
       <use xlink:href="#m34cec1f644" x="54" y="242.202075" style="stroke: #000000; stroke-width: 0.8"/>
      </g>
     </g>
     <g id="text_10">
      <!-- 0.00 -->
      <g transform="translate(24.734375 246.001294)scale(0.1 -0.1)">
       <defs>
        <path id="DejaVuSans-2e" d="M 684 794 
L 1344 794 
L 1344 0 
L 684 0 
L 684 794 
z
" transform="scale(0.015625)"/>
       </defs>
       <use xlink:href="#DejaVuSans-30"/>
       <use xlink:href="#DejaVuSans-2e" x="63.623047"/>
       <use xlink:href="#DejaVuSans-30" x="95.410156"/>
       <use xlink:href="#DejaVuSans-30" x="159.033203"/>
      </g>
     </g>
    </g>
    <g id="ytick_2">
     <g id="line2d_11">
      <g>
       <use xlink:href="#m34cec1f644" x="54" y="214.271293" style="stroke: #000000; stroke-width: 0.8"/>
      </g>
     </g>
     <g id="text_11">
      <!-- 0.25 -->
      <g transform="translate(24.734375 218.070512)scale(0.1 -0.1)">
       <use xlink:href="#DejaVuSans-30"/>
       <use xlink:href="#DejaVuSans-2e" x="63.623047"/>
       <use xlink:href="#DejaVuSans-32" x="95.410156"/>
       <use xlink:href="#DejaVuSans-35" x="159.033203"/>
      </g>
     </g>
    </g>
    <g id="ytick_3">
     <g id="line2d_12">
      <g>
       <use xlink:href="#m34cec1f644" x="54" y="186.340511" style="stroke: #000000; stroke-width: 0.8"/>
      </g>
     </g>
     <g id="text_12">
      <!-- 0.50 -->
      <g transform="translate(24.734375 190.13973)scale(0.1 -0.1)">
       <use xlink:href="#DejaVuSans-30"/>
       <use xlink:href="#DejaVuSans-2e" x="63.623047"/>
       <use xlink:href="#DejaVuSans-35" x="95.410156"/>
       <use xlink:href="#DejaVuSans-30" x="159.033203"/>
      </g>
     </g>
    </g>
    <g id="ytick_4">
     <g id="line2d_13">
      <g>
       <use xlink:href="#m34cec1f644" x="54" y="158.409729" style="stroke: #000000; stroke-width: 0.8"/>
      </g>
     </g>
     <g id="text_13">
      <!-- 0.75 -->
      <g transform="translate(24.734375 162.208948)scale(0.1 -0.1)">
       <use xlink:href="#DejaVuSans-30"/>
       <use xlink:href="#DejaVuSans-2e" x="63.623047"/>
       <use xlink:href="#DejaVuSans-37" x="95.410156"/>
       <use xlink:href="#DejaVuSans-35" x="159.033203"/>
      </g>
     </g>
    </g>
    <g id="ytick_5">
     <g id="line2d_14">
      <g>
       <use xlink:href="#m34cec1f644" x="54" y="130.478947" style="stroke: #000000; stroke-width: 0.8"/>
      </g>
     </g>
     <g id="text_14">
      <!-- 1.00 -->
      <g transform="translate(24.734375 134.278165)scale(0.1 -0.1)">
       <use xlink:href="#DejaVuSans-31"/>
       <use xlink:href="#DejaVuSans-2e" x="63.623047"/>
       <use xlink:href="#DejaVuSans-30" x="95.410156"/>
       <use xlink:href="#DejaVuSans-30" x="159.033203"/>
      </g>
     </g>
    </g>
    <g id="ytick_6">
     <g id="line2d_15">
      <g>
       <use xlink:href="#m34cec1f644" x="54" y="102.548164" style="stroke: #000000; stroke-width: 0.8"/>
      </g>
     </g>
     <g id="text_15">
      <!-- 1.25 -->
      <g transform="translate(24.734375 106.347383)scale(0.1 -0.1)">
       <use xlink:href="#DejaVuSans-31"/>
       <use xlink:href="#DejaVuSans-2e" x="63.623047"/>
       <use xlink:href="#DejaVuSans-32" x="95.410156"/>
       <use xlink:href="#DejaVuSans-35" x="159.033203"/>
      </g>
     </g>
    </g>
    <g id="ytick_7">
     <g id="line2d_16">
      <g>
       <use xlink:href="#m34cec1f644" x="54" y="74.617382" style="stroke: #000000; stroke-width: 0.8"/>
      </g>
     </g>
     <g id="text_16">
      <!-- 1.50 -->
      <g transform="translate(24.734375 78.416601)scale(0.1 -0.1)">
       <use xlink:href="#DejaVuSans-31"/>
       <use xlink:href="#DejaVuSans-2e" x="63.623047"/>
       <use xlink:href="#DejaVuSans-35" x="95.410156"/>
       <use xlink:href="#DejaVuSans-30" x="159.033203"/>
      </g>
     </g>
    </g>
    <g id="ytick_8">
     <g id="line2d_17">
      <g>
       <use xlink:href="#m34cec1f644" x="54" y="46.6866" style="stroke: #000000; stroke-width: 0.8"/>
      </g>
     </g>
     <g id="text_17">
      <!-- 1.75 -->
      <g transform="translate(24.734375 50.485819)scale(0.1 -0.1)">
       <use xlink:href="#DejaVuSans-31"/>
       <use xlink:href="#DejaVuSans-2e" x="63.623047"/>
       <use xlink:href="#DejaVuSans-37" x="95.410156"/>
       <use xlink:href="#DejaVuSans-35" x="159.033203"/>
      </g>
     </g>
    </g>
    <g id="text_18">
     <!-- Loss -->
     <g transform="translate(18.654688 154.247187)rotate(-90)scale(0.1 -0.1)">
      <defs>
       <path id="DejaVuSans-4c" d="M 628 4666 
L 1259 4666 
L 1259 531 
L 3531 531 
L 3531 0 
L 628 0 
L 628 4666 
z
" transform="scale(0.015625)"/>
       <path id="DejaVuSans-6f" d="M 1959 3097 
Q 1497 3097 1228 2736 
Q 959 2375 959 1747 
Q 959 1119 1226 758 
Q 1494 397 1959 397 
Q 2419 397 2687 759 
Q 2956 1122 2956 1747 
Q 2956 2369 2687 2733 
Q 2419 3097 1959 3097 
z
M 1959 3584 
Q 2709 3584 3137 3096 
Q 3566 2609 3566 1747 
Q 3566 888 3137 398 
Q 2709 -91 1959 -91 
Q 1206 -91 779 398 
Q 353 888 353 1747 
Q 353 2609 779 3096 
Q 1206 3584 1959 3584 
z
" transform="scale(0.015625)"/>
       <path id="DejaVuSans-73" d="M 2834 3397 
L 2834 2853 
Q 2591 2978 2328 3040 
Q 2066 3103 1784 3103 
Q 1356 3103 1142 2972 
Q 928 2841 928 2578 
Q 928 2378 1081 2264 
Q 1234 2150 1697 2047 
L 1894 2003 
Q 2506 1872 2764 1633 
Q 3022 1394 3022 966 
Q 3022 478 2636 193 
Q 2250 -91 1575 -91 
Q 1294 -91 989 -36 
Q 684 19 347 128 
L 347 722 
Q 666 556 975 473 
Q 1284 391 1588 391 
Q 1994 391 2212 530 
Q 2431 669 2431 922 
Q 2431 1156 2273 1281 
Q 2116 1406 1581 1522 
L 1381 1569 
Q 847 1681 609 1914 
Q 372 2147 372 2553 
Q 372 3047 722 3315 
Q 1072 3584 1716 3584 
Q 2034 3584 2315 3537 
Q 2597 3491 2834 3397 
z
" transform="scale(0.015625)"/>
      </defs>
      <use xlink:href="#DejaVuSans-4c"/>
      <use xlink:href="#DejaVuSans-6f" x="53.962891"/>
      <use xlink:href="#DejaVuSans-73" x="115.144531"/>
      <use xlink:href="#DejaVuSans-73" x="167.244141"/>
     </g>
    </g>
   </g>
   <g id="line2d_18">
    <path d="M 69.218182 44.443636 
L 70.747647 77.112698 
L 73.806578 116.244312 
L 75.336044 127.401329 
L 76.865509 133.248653 
L 78.394975 137.54176 
L 79.92444 142.932346 
L 81.453906 146.570485 
L 82.983371 150.768844 
L 84.512837 153.022735 
L 86.042302 155.600255 
L 87.571768 159.063539 
L 89.101233 160.2923 
L 90.630699 163.923069 
L 92.160164 164.986283 
L 93.68963 132.478163 
L 95.219095 172.833699 
L 96.748561 176.107154 
L 98.278026 174.674848 
L 99.807492 174.129444 
L 101.336958 175.306403 
L 102.866423 176.127504 
L 105.925354 180.055894 
L 107.45482 181.328253 
L 108.984285 181.986053 
L 110.513751 184.465652 
L 112.043216 184.725154 
L 113.572682 187.508891 
L 115.102147 186.828371 
L 116.631613 188.3996 
L 118.161078 191.169625 
L 119.690544 191.479002 
L 121.220009 193.154089 
L 122.749475 193.446701 
L 124.27894 196.121364 
L 125.808406 196.294462 
L 128.867337 196.993436 
L 130.396802 198.995968 
L 131.926268 200.553371 
L 133.455733 201.540275 
L 134.985199 200.841135 
L 136.514664 203.390182 
L 138.04413 204.221038 
L 139.573595 203.219439 
L 141.103061 206.161278 
L 142.632526 206.294356 
L 144.161992 207.702407 
L 145.691457 207.574625 
L 147.220923 208.820741 
L 148.750388 210.320216 
L 150.279854 210.033784 
L 151.809319 211.847776 
L 153.338785 212.200638 
L 154.86825 212.012939 
L 156.397716 213.365886 
L 157.927181 213.403038 
L 159.456647 213.767947 
L 160.986112 215.922998 
L 162.515578 215.095124 
L 164.045043 216.855662 
L 165.574509 216.152785 
L 167.103974 217.887691 
L 168.63344 218.171715 
L 170.162905 218.967346 
L 171.692371 219.046993 
L 173.221836 219.909908 
L 174.751302 221.472642 
L 176.280767 219.628797 
L 177.810233 220.175013 
L 179.339698 222.367369 
L 180.869164 221.768143 
L 182.39863 221.916666 
L 183.928095 223.750407 
L 185.457561 223.301902 
L 186.987026 223.559989 
L 188.516492 224.863455 
L 190.045957 225.181184 
L 191.575423 225.111379 
L 193.104888 225.395412 
L 194.634354 225.904177 
L 196.163819 226.699529 
L 197.693285 227.343378 
L 199.22275 227.033675 
L 200.752216 227.804359 
L 202.281681 227.808974 
L 203.811147 228.96944 
L 205.340612 228.36678 
L 206.870078 229.914517 
L 208.399543 229.354907 
L 209.929009 229.109702 
L 211.458474 230.231382 
L 212.98794 230.22636 
L 214.517405 231.086209 
L 216.046871 231.021259 
L 217.576336 231.54909 
L 219.105802 231.745151 
L 220.635267 232.4867 
L 222.164733 232.022974 
L 223.694198 232.492387 
L 225.223664 232.69763 
L 228.282595 233.390621 
L 229.81206 233.815038 
L 231.341526 234.5522 
L 232.870991 234.438503 
L 234.400457 235.076051 
L 235.929922 234.45259 
L 237.459388 235.290175 
L 238.988853 235.505166 
L 240.518319 235.432425 
L 242.047784 236.045847 
L 243.57725 235.989613 
L 246.636181 236.886061 
L 248.165646 236.654352 
L 249.695112 237.089788 
L 251.224577 236.713203 
L 252.754043 236.761134 
L 254.283508 237.574201 
L 255.812974 238.063436 
L 257.342439 237.541431 
L 258.871905 237.769482 
L 260.40137 238.167807 
L 261.930836 238.35637 
L 263.460302 238.307345 
L 264.989767 238.597466 
L 271.107629 238.967399 
L 272.637095 239.587515 
L 275.696026 239.672422 
L 277.225491 239.809558 
L 278.754957 239.807376 
L 280.284422 239.923238 
L 281.813888 239.300688 
L 283.343353 240.386105 
L 286.402284 240.347948 
L 287.93175 240.515263 
L 290.990681 240.558528 
L 292.520146 240.773347 
L 294.049612 240.737584 
L 295.579077 240.938092 
L 297.108543 240.795207 
L 298.638008 240.997561 
L 300.167474 240.967628 
L 301.696939 241.265416 
L 303.226405 241.10929 
L 304.75587 241.244057 
L 307.814801 241.337773 
L 323.109456 241.752769 
L 324.638922 241.68668 
L 326.168387 241.828365 
L 327.697853 241.828926 
L 329.227318 241.707473 
L 330.756784 241.871948 
L 335.34518 241.95447 
L 341.463042 242.011918 
L 346.051439 242.052626 
L 349.11037 242.04607 
L 353.698767 242.07006 
L 358.287163 242.076771 
L 372.052353 242.116364 
L 373.581818 242.072312 
L 373.581818 242.072312 
" clip-path="url(#pe05a06eaa9)" style="fill: none; stroke: #1f77b4; stroke-width: 1.5; stroke-linecap: square"/>
   </g>
   <g id="line2d_19">
    <path d="M 69.218182 83.587065 
L 72.277113 117.476129 
L 73.806578 127.605455 
L 75.336044 140.051809 
L 76.865509 140.240863 
L 78.394975 146.07348 
L 79.92444 153.900932 
L 81.453906 143.489847 
L 82.983371 158.441472 
L 84.512837 152.304633 
L 86.042302 159.74407 
L 87.571768 151.878632 
L 89.101233 157.536248 
L 90.630699 163.967715 
L 92.160164 166.421031 
L 93.68963 148.538406 
L 95.219095 164.913048 
L 96.748561 164.712841 
L 98.278026 167.034932 
L 99.807492 165.179323 
L 101.336958 163.858567 
L 102.866423 164.219605 
L 104.395889 164.192111 
L 105.925354 157.713852 
L 107.45482 169.22795 
L 108.984285 164.684007 
L 110.513751 163.504937 
L 112.043216 166.464306 
L 113.572682 150.674855 
L 115.102147 162.774567 
L 116.631613 157.843142 
L 118.161078 155.668579 
L 119.690544 167.195825 
L 121.220009 153.948447 
L 122.749475 159.652515 
L 125.808406 148.882316 
L 127.337871 158.67219 
L 128.867337 153.279574 
L 130.396802 156.913483 
L 131.926268 151.305192 
L 133.455733 130.344477 
L 134.985199 160.242543 
L 136.514664 145.571278 
L 138.04413 152.535855 
L 139.573595 132.484637 
L 141.103061 147.826026 
L 142.632526 147.873743 
L 144.161992 137.87793 
L 145.691457 146.927033 
L 147.220923 141.948895 
L 148.750388 145.872447 
L 150.279854 137.161514 
L 151.809319 142.81503 
L 153.338785 134.235554 
L 154.86825 141.138957 
L 156.397716 134.766606 
L 157.927181 126.247703 
L 159.456647 130.267872 
L 160.986112 124.790365 
L 162.515578 122.377808 
L 164.045043 134.480351 
L 165.574509 131.511185 
L 167.103974 120.615538 
L 168.63344 119.422186 
L 170.162905 119.281774 
L 171.692371 129.027328 
L 173.221836 129.341342 
L 174.751302 123.446183 
L 176.280767 127.760824 
L 177.810233 126.759983 
L 179.339698 129.433172 
L 180.869164 115.731255 
L 182.39863 113.034846 
L 183.928095 125.108882 
L 185.457561 115.254961 
L 186.987026 115.413869 
L 188.516492 120.460299 
L 190.045957 110.429953 
L 191.575423 112.215252 
L 193.104888 103.541606 
L 194.634354 115.164149 
L 196.163819 110.388931 
L 197.693285 102.027382 
L 199.22275 107.705353 
L 200.752216 100.488172 
L 202.281681 100.712666 
L 203.811147 106.301454 
L 205.340612 105.392034 
L 206.870078 100.905338 
L 208.399543 102.563156 
L 209.929009 94.948795 
L 211.458474 88.79304 
L 212.98794 98.998101 
L 214.517405 93.90117 
L 216.046871 82.787961 
L 217.576336 92.355454 
L 219.105802 92.701943 
L 220.635267 90.575748 
L 222.164733 91.949464 
L 223.694198 86.482849 
L 225.223664 92.551959 
L 226.753129 87.057424 
L 228.282595 76.91379 
L 229.81206 85.93127 
L 231.341526 76.381841 
L 232.870991 88.639887 
L 234.400457 82.300707 
L 235.929922 81.132905 
L 237.459388 87.797098 
L 238.988853 89.949079 
L 240.518319 84.175688 
L 242.047784 80.097082 
L 243.57725 65.674744 
L 245.106715 90.089132 
L 246.636181 80.493598 
L 248.165646 75.863878 
L 249.695112 81.171449 
L 251.224577 77.114933 
L 252.754043 79.556479 
L 254.283508 86.370393 
L 255.812974 71.463579 
L 257.342439 70.362111 
L 258.871905 79.510031 
L 260.40137 77.634819 
L 261.930836 67.608388 
L 263.460302 77.104317 
L 266.519233 67.411859 
L 268.048698 74.998751 
L 269.578164 79.139293 
L 271.107629 81.31407 
L 272.637095 65.279869 
L 274.16656 74.63295 
L 275.696026 68.758344 
L 277.225491 72.762997 
L 278.754957 66.849049 
L 280.284422 75.687612 
L 281.813888 67.893832 
L 283.343353 61.824739 
L 284.872819 67.136777 
L 286.402284 71.449006 
L 287.93175 65.143936 
L 289.461215 61.163282 
L 290.990681 64.028275 
L 292.520146 52.764656 
L 294.049612 62.992845 
L 295.579077 65.561266 
L 297.108543 67.820104 
L 298.638008 66.653455 
L 300.167474 61.180066 
L 301.696939 64.653404 
L 303.226405 60.555343 
L 304.75587 64.007406 
L 306.285336 60.729538 
L 307.814801 65.824165 
L 309.344267 60.537848 
L 310.873732 57.860746 
L 312.403198 57.179182 
L 313.932663 51.253144 
L 315.462129 60.045463 
L 316.991594 55.523634 
L 318.52106 63.469583 
L 320.050525 58.410396 
L 321.579991 61.181987 
L 323.109456 55.631257 
L 324.638922 58.747175 
L 326.168387 58.046151 
L 327.697853 59.150495 
L 329.227318 61.915675 
L 330.756784 59.496081 
L 332.286249 55.212139 
L 333.815715 59.058463 
L 335.34518 54.74508 
L 336.874646 55.432532 
L 338.404111 54.714082 
L 339.933577 57.858738 
L 341.463042 56.042216 
L 342.992508 58.131288 
L 344.521974 56.855759 
L 346.051439 54.799051 
L 347.580905 56.585893 
L 349.11037 58.036769 
L 350.639836 56.466781 
L 352.169301 55.883815 
L 355.228232 56.470739 
L 356.757698 55.804863 
L 358.287163 54.488471 
L 361.346094 54.933429 
L 362.87556 55.895097 
L 365.934491 55.59703 
L 373.581818 55.385046 
L 373.581818 55.385046 
" clip-path="url(#pe05a06eaa9)" style="fill: none; stroke: #ff7f0e; stroke-width: 1.5; stroke-linecap: square"/>
   </g>
   <g id="patch_3">
    <path d="M 54 252 
L 54 34.56 
" style="fill: none; stroke: #000000; stroke-width: 0.8; stroke-linejoin: miter; stroke-linecap: square"/>
   </g>
   <g id="patch_4">
    <path d="M 388.8 252 
L 388.8 34.56 
" style="fill: none; stroke: #000000; stroke-width: 0.8; stroke-linejoin: miter; stroke-linecap: square"/>
   </g>
   <g id="patch_5">
    <path d="M 54 252 
L 388.8 252 
" style="fill: none; stroke: #000000; stroke-width: 0.8; stroke-linejoin: miter; stroke-linecap: square"/>
   </g>
   <g id="patch_6">
    <path d="M 54 34.56 
L 388.8 34.56 
" style="fill: none; stroke: #000000; stroke-width: 0.8; stroke-linejoin: miter; stroke-linecap: square"/>
   </g>
   <g id="legend_1">
    <g id="patch_7">
     <path d="M 61 247 
L 116.275 247 
Q 118.275 247 118.275 245 
L 118.275 216.64375 
Q 118.275 214.64375 116.275 214.64375 
L 61 214.64375 
Q 59 214.64375 59 216.64375 
L 59 245 
Q 59 247 61 247 
z
" style="fill: #ffffff; opacity: 0.8; stroke: #cccccc; stroke-linejoin: miter"/>
    </g>
    <g id="line2d_20">
     <path d="M 63 222.742188 
L 73 222.742188 
L 83 222.742188 
" style="fill: none; stroke: #1f77b4; stroke-width: 1.5; stroke-linecap: square"/>
    </g>
    <g id="text_19">
     <!-- train -->
     <g transform="translate(91 226.242188)scale(0.1 -0.1)">
      <defs>
       <path id="DejaVuSans-74" d="M 1172 4494 
L 1172 3500 
L 2356 3500 
L 2356 3053 
L 1172 3053 
L 1172 1153 
Q 1172 725 1289 603 
Q 1406 481 1766 481 
L 2356 481 
L 2356 0 
L 1766 0 
Q 1100 0 847 248 
Q 594 497 594 1153 
L 594 3053 
L 172 3053 
L 172 3500 
L 594 3500 
L 594 4494 
L 1172 4494 
z
" transform="scale(0.015625)"/>
       <path id="DejaVuSans-72" d="M 2631 2963 
Q 2534 3019 2420 3045 
Q 2306 3072 2169 3072 
Q 1681 3072 1420 2755 
Q 1159 2438 1159 1844 
L 1159 0 
L 581 0 
L 581 3500 
L 1159 3500 
L 1159 2956 
Q 1341 3275 1631 3429 
Q 1922 3584 2338 3584 
Q 2397 3584 2469 3576 
Q 2541 3569 2628 3553 
L 2631 2963 
z
" transform="scale(0.015625)"/>
       <path id="DejaVuSans-61" d="M 2194 1759 
Q 1497 1759 1228 1600 
Q 959 1441 959 1056 
Q 959 750 1161 570 
Q 1363 391 1709 391 
Q 2188 391 2477 730 
Q 2766 1069 2766 1631 
L 2766 1759 
L 2194 1759 
z
M 3341 1997 
L 3341 0 
L 2766 0 
L 2766 531 
Q 2569 213 2275 61 
Q 1981 -91 1556 -91 
Q 1019 -91 701 211 
Q 384 513 384 1019 
Q 384 1609 779 1909 
Q 1175 2209 1959 2209 
L 2766 2209 
L 2766 2266 
Q 2766 2663 2505 2880 
Q 2244 3097 1772 3097 
Q 1472 3097 1187 3025 
Q 903 2953 641 2809 
L 641 3341 
Q 956 3463 1253 3523 
Q 1550 3584 1831 3584 
Q 2591 3584 2966 3190 
Q 3341 2797 3341 1997 
z
" transform="scale(0.015625)"/>
       <path id="DejaVuSans-69" d="M 603 3500 
L 1178 3500 
L 1178 0 
L 603 0 
L 603 3500 
z
M 603 4863 
L 1178 4863 
L 1178 4134 
L 603 4134 
L 603 4863 
z
" transform="scale(0.015625)"/>
       <path id="DejaVuSans-6e" d="M 3513 2113 
L 3513 0 
L 2938 0 
L 2938 2094 
Q 2938 2591 2744 2837 
Q 2550 3084 2163 3084 
Q 1697 3084 1428 2787 
Q 1159 2491 1159 1978 
L 1159 0 
L 581 0 
L 581 3500 
L 1159 3500 
L 1159 2956 
Q 1366 3272 1645 3428 
Q 1925 3584 2291 3584 
Q 2894 3584 3203 3211 
Q 3513 2838 3513 2113 
z
" transform="scale(0.015625)"/>
      </defs>
      <use xlink:href="#DejaVuSans-74"/>
      <use xlink:href="#DejaVuSans-72" x="39.208984"/>
      <use xlink:href="#DejaVuSans-61" x="80.322266"/>
      <use xlink:href="#DejaVuSans-69" x="141.601562"/>
      <use xlink:href="#DejaVuSans-6e" x="169.384766"/>
     </g>
    </g>
    <g id="line2d_21">
     <path d="M 63 237.420312 
L 73 237.420312 
L 83 237.420312 
" style="fill: none; stroke: #ff7f0e; stroke-width: 1.5; stroke-linecap: square"/>
    </g>
    <g id="text_20">
     <!-- test -->
     <g transform="translate(91 240.920312)scale(0.1 -0.1)">
      <defs>
       <path id="DejaVuSans-65" d="M 3597 1894 
L 3597 1613 
L 953 1613 
Q 991 1019 1311 708 
Q 1631 397 2203 397 
Q 2534 397 2845 478 
Q 3156 559 3463 722 
L 3463 178 
Q 3153 47 2828 -22 
Q 2503 -91 2169 -91 
Q 1331 -91 842 396 
Q 353 884 353 1716 
Q 353 2575 817 3079 
Q 1281 3584 2069 3584 
Q 2775 3584 3186 3129 
Q 3597 2675 3597 1894 
z
M 3022 2063 
Q 3016 2534 2758 2815 
Q 2500 3097 2075 3097 
Q 1594 3097 1305 2825 
Q 1016 2553 972 2059 
L 3022 2063 
z
" transform="scale(0.015625)"/>
      </defs>
      <use xlink:href="#DejaVuSans-74"/>
      <use xlink:href="#DejaVuSans-65" x="39.208984"/>
      <use xlink:href="#DejaVuSans-73" x="100.732422"/>
      <use xlink:href="#DejaVuSans-74" x="152.832031"/>
     </g>
    </g>
   </g>
  </g>
 </g>
 <defs>
  <clipPath id="pe05a06eaa9">
   <rect x="54" y="34.56" width="334.8" height="217.44"/>
  </clipPath>
 </defs>
</svg>
