<?xml version="1.0" encoding="utf-8" standalone="no"?>
<!DOCTYPE svg PUBLIC "-//W3C//DTD SVG 1.1//EN"
  "http://www.w3.org/Graphics/SVG/1.1/DTD/svg11.dtd">
<svg xmlns:xlink="http://www.w3.org/1999/xlink" width="432pt" height="288pt" viewBox="0 0 432 288" xmlns="http://www.w3.org/2000/svg" version="1.1">
 <metadata>
  <rdf:RDF xmlns:dc="http://purl.org/dc/elements/1.1/" xmlns:cc="http://creativecommons.org/ns#" xmlns:rdf="http://www.w3.org/1999/02/22-rdf-syntax-ns#">
   <cc:Work>
    <dc:type rdf:resource="http://purl.org/dc/dcmitype/StillImage"/>
    <dc:date>2022-07-12T05:46:28.139686</dc:date>
    <dc:format>image/svg+xml</dc:format>
    <dc:creator>
     <cc:Agent>
      <dc:title>Matplotlib v3.5.2, https://matplotlib.org/</dc:title>
     </cc:Agent>
    </dc:creator>
   </cc:Work>
  </rdf:RDF>
 </metadata>
 <defs>
  <style type="text/css">*{stroke-linejoin: round; stroke-linecap: butt}</style>
 </defs>
 <g id="figure_1">
  <g id="patch_1">
   <path d="M 0 288 
L 432 288 
L 432 0 
L 0 0 
L 0 288 
z
" style="fill: none"/>
  </g>
  <g id="axes_1">
   <g id="patch_2">
    <path d="M 54 252 
L 388.8 252 
L 388.8 34.56 
L 54 34.56 
z
" style="fill: #ffffff"/>
   </g>
   <g id="matplotlib.axis_1">
    <g id="xtick_1">
     <g id="line2d_1">
      <defs>
       <path id="m9fca182a6b" d="M 0 0 
L 0 3.5 
" style="stroke: #000000; stroke-width: 0.8"/>
      </defs>
      <g>
       <use xlink:href="#m9fca182a6b" x="69.218182" y="252" style="stroke: #000000; stroke-width: 0.8"/>
      </g>
     </g>
     <g id="text_1">
      <!-- 0 -->
      <g transform="translate(66.036932 266.598437)scale(0.1 -0.1)">
       <defs>
        <path id="DejaVuSans-30" d="M 2034 4250 
Q 1547 4250 1301 3770 
Q 1056 3291 1056 2328 
Q 1056 1369 1301 889 
Q 1547 409 2034 409 
Q 2525 409 2770 889 
Q 3016 1369 3016 2328 
Q 3016 3291 2770 3770 
Q 2525 4250 2034 4250 
z
M 2034 4750 
Q 2819 4750 3233 4129 
Q 3647 3509 3647 2328 
Q 3647 1150 3233 529 
Q 2819 -91 2034 -91 
Q 1250 -91 836 529 
Q 422 1150 422 2328 
Q 422 3509 836 4129 
Q 1250 4750 2034 4750 
z
" transform="scale(0.015625)"/>
       </defs>
       <use xlink:href="#DejaVuSans-30"/>
      </g>
     </g>
    </g>
    <g id="xtick_2">
     <g id="line2d_2">
      <g>
       <use xlink:href="#m9fca182a6b" x="107.45482" y="252" style="stroke: #000000; stroke-width: 0.8"/>
      </g>
     </g>
     <g id="text_2">
      <!-- 25 -->
      <g transform="translate(101.09232 266.598437)scale(0.1 -0.1)">
       <defs>
        <path id="DejaVuSans-32" d="M 1228 531 
L 3431 531 
L 3431 0 
L 469 0 
L 469 531 
Q 828 903 1448 1529 
Q 2069 2156 2228 2338 
Q 2531 2678 2651 2914 
Q 2772 3150 2772 3378 
Q 2772 3750 2511 3984 
Q 2250 4219 1831 4219 
Q 1534 4219 1204 4116 
Q 875 4013 500 3803 
L 500 4441 
Q 881 4594 1212 4672 
Q 1544 4750 1819 4750 
Q 2544 4750 2975 4387 
Q 3406 4025 3406 3419 
Q 3406 3131 3298 2873 
Q 3191 2616 2906 2266 
Q 2828 2175 2409 1742 
Q 1991 1309 1228 531 
z
" transform="scale(0.015625)"/>
        <path id="DejaVuSans-35" d="M 691 4666 
L 3169 4666 
L 3169 4134 
L 1269 4134 
L 1269 2991 
Q 1406 3038 1543 3061 
Q 1681 3084 1819 3084 
Q 2600 3084 3056 2656 
Q 3513 2228 3513 1497 
Q 3513 744 3044 326 
Q 2575 -91 1722 -91 
Q 1428 -91 1123 -41 
Q 819 9 494 109 
L 494 744 
Q 775 591 1075 516 
Q 1375 441 1709 441 
Q 2250 441 2565 725 
Q 2881 1009 2881 1497 
Q 2881 1984 2565 2268 
Q 2250 2553 1709 2553 
Q 1456 2553 1204 2497 
Q 953 2441 691 2322 
L 691 4666 
z
" transform="scale(0.015625)"/>
       </defs>
       <use xlink:href="#DejaVuSans-32"/>
       <use xlink:href="#DejaVuSans-35" x="63.623047"/>
      </g>
     </g>
    </g>
    <g id="xtick_3">
     <g id="line2d_3">
      <g>
       <use xlink:href="#m9fca182a6b" x="145.691457" y="252" style="stroke: #000000; stroke-width: 0.8"/>
      </g>
     </g>
     <g id="text_3">
      <!-- 50 -->
      <g transform="translate(139.328957 266.598437)scale(0.1 -0.1)">
       <use xlink:href="#DejaVuSans-35"/>
       <use xlink:href="#DejaVuSans-30" x="63.623047"/>
      </g>
     </g>
    </g>
    <g id="xtick_4">
     <g id="line2d_4">
      <g>
       <use xlink:href="#m9fca182a6b" x="183.928095" y="252" style="stroke: #000000; stroke-width: 0.8"/>
      </g>
     </g>
     <g id="text_4">
      <!-- 75 -->
      <g transform="translate(177.565595 266.598437)scale(0.1 -0.1)">
       <defs>
        <path id="DejaVuSans-37" d="M 525 4666 
L 3525 4666 
L 3525 4397 
L 1831 0 
L 1172 0 
L 2766 4134 
L 525 4134 
L 525 4666 
z
" transform="scale(0.015625)"/>
       </defs>
       <use xlink:href="#DejaVuSans-37"/>
       <use xlink:href="#DejaVuSans-35" x="63.623047"/>
      </g>
     </g>
    </g>
    <g id="xtick_5">
     <g id="line2d_5">
      <g>
       <use xlink:href="#m9fca182a6b" x="222.164733" y="252" style="stroke: #000000; stroke-width: 0.8"/>
      </g>
     </g>
     <g id="text_5">
      <!-- 100 -->
      <g transform="translate(212.620983 266.598437)scale(0.1 -0.1)">
       <defs>
        <path id="DejaVuSans-31" d="M 794 531 
L 1825 531 
L 1825 4091 
L 703 3866 
L 703 4441 
L 1819 4666 
L 2450 4666 
L 2450 531 
L 3481 531 
L 3481 0 
L 794 0 
L 794 531 
z
" transform="scale(0.015625)"/>
       </defs>
       <use xlink:href="#DejaVuSans-31"/>
       <use xlink:href="#DejaVuSans-30" x="63.623047"/>
       <use xlink:href="#DejaVuSans-30" x="127.246094"/>
      </g>
     </g>
    </g>
    <g id="xtick_6">
     <g id="line2d_6">
      <g>
       <use xlink:href="#m9fca182a6b" x="260.40137" y="252" style="stroke: #000000; stroke-width: 0.8"/>
      </g>
     </g>
     <g id="text_6">
      <!-- 125 -->
      <g transform="translate(250.85762 266.598437)scale(0.1 -0.1)">
       <use xlink:href="#DejaVuSans-31"/>
       <use xlink:href="#DejaVuSans-32" x="63.623047"/>
       <use xlink:href="#DejaVuSans-35" x="127.246094"/>
      </g>
     </g>
    </g>
    <g id="xtick_7">
     <g id="line2d_7">
      <g>
       <use xlink:href="#m9fca182a6b" x="298.638008" y="252" style="stroke: #000000; stroke-width: 0.8"/>
      </g>
     </g>
     <g id="text_7">
      <!-- 150 -->
      <g transform="translate(289.094258 266.598437)scale(0.1 -0.1)">
       <use xlink:href="#DejaVuSans-31"/>
       <use xlink:href="#DejaVuSans-35" x="63.623047"/>
       <use xlink:href="#DejaVuSans-30" x="127.246094"/>
      </g>
     </g>
    </g>
    <g id="xtick_8">
     <g id="line2d_8">
      <g>
       <use xlink:href="#m9fca182a6b" x="336.874646" y="252" style="stroke: #000000; stroke-width: 0.8"/>
      </g>
     </g>
     <g id="text_8">
      <!-- 175 -->
      <g transform="translate(327.330896 266.598437)scale(0.1 -0.1)">
       <use xlink:href="#DejaVuSans-31"/>
       <use xlink:href="#DejaVuSans-37" x="63.623047"/>
       <use xlink:href="#DejaVuSans-35" x="127.246094"/>
      </g>
     </g>
    </g>
    <g id="xtick_9">
     <g id="line2d_9">
      <g>
       <use xlink:href="#m9fca182a6b" x="375.111284" y="252" style="stroke: #000000; stroke-width: 0.8"/>
      </g>
     </g>
     <g id="text_9">
      <!-- 200 -->
      <g transform="translate(365.567534 266.598437)scale(0.1 -0.1)">
       <use xlink:href="#DejaVuSans-32"/>
       <use xlink:href="#DejaVuSans-30" x="63.623047"/>
       <use xlink:href="#DejaVuSans-30" x="127.246094"/>
      </g>
     </g>
    </g>
   </g>
   <g id="matplotlib.axis_2">
    <g id="ytick_1">
     <g id="line2d_10">
      <defs>
       <path id="m1c449aa685" d="M 0 0 
L -3.5 0 
" style="stroke: #000000; stroke-width: 0.8"/>
      </defs>
      <g>
       <use xlink:href="#m1c449aa685" x="54" y="228.96265" style="stroke: #000000; stroke-width: 0.8"/>
      </g>
     </g>
     <g id="text_10">
      <!-- 0.25 -->
      <g transform="translate(24.734375 232.761868)scale(0.1 -0.1)">
       <defs>
        <path id="DejaVuSans-2e" d="M 684 794 
L 1344 794 
L 1344 0 
L 684 0 
L 684 794 
z
" transform="scale(0.015625)"/>
       </defs>
       <use xlink:href="#DejaVuSans-30"/>
       <use xlink:href="#DejaVuSans-2e" x="63.623047"/>
       <use xlink:href="#DejaVuSans-32" x="95.410156"/>
       <use xlink:href="#DejaVuSans-35" x="159.033203"/>
      </g>
     </g>
    </g>
    <g id="ytick_2">
     <g id="line2d_11">
      <g>
       <use xlink:href="#m1c449aa685" x="54" y="202.61605" style="stroke: #000000; stroke-width: 0.8"/>
      </g>
     </g>
     <g id="text_11">
      <!-- 0.50 -->
      <g transform="translate(24.734375 206.415269)scale(0.1 -0.1)">
       <use xlink:href="#DejaVuSans-30"/>
       <use xlink:href="#DejaVuSans-2e" x="63.623047"/>
       <use xlink:href="#DejaVuSans-35" x="95.410156"/>
       <use xlink:href="#DejaVuSans-30" x="159.033203"/>
      </g>
     </g>
    </g>
    <g id="ytick_3">
     <g id="line2d_12">
      <g>
       <use xlink:href="#m1c449aa685" x="54" y="176.269451" style="stroke: #000000; stroke-width: 0.8"/>
      </g>
     </g>
     <g id="text_12">
      <!-- 0.75 -->
      <g transform="translate(24.734375 180.06867)scale(0.1 -0.1)">
       <use xlink:href="#DejaVuSans-30"/>
       <use xlink:href="#DejaVuSans-2e" x="63.623047"/>
       <use xlink:href="#DejaVuSans-37" x="95.410156"/>
       <use xlink:href="#DejaVuSans-35" x="159.033203"/>
      </g>
     </g>
    </g>
    <g id="ytick_4">
     <g id="line2d_13">
      <g>
       <use xlink:href="#m1c449aa685" x="54" y="149.922852" style="stroke: #000000; stroke-width: 0.8"/>
      </g>
     </g>
     <g id="text_13">
      <!-- 1.00 -->
      <g transform="translate(24.734375 153.722071)scale(0.1 -0.1)">
       <use xlink:href="#DejaVuSans-31"/>
       <use xlink:href="#DejaVuSans-2e" x="63.623047"/>
       <use xlink:href="#DejaVuSans-30" x="95.410156"/>
       <use xlink:href="#DejaVuSans-30" x="159.033203"/>
      </g>
     </g>
    </g>
    <g id="ytick_5">
     <g id="line2d_14">
      <g>
       <use xlink:href="#m1c449aa685" x="54" y="123.576253" style="stroke: #000000; stroke-width: 0.8"/>
      </g>
     </g>
     <g id="text_14">
      <!-- 1.25 -->
      <g transform="translate(24.734375 127.375471)scale(0.1 -0.1)">
       <use xlink:href="#DejaVuSans-31"/>
       <use xlink:href="#DejaVuSans-2e" x="63.623047"/>
       <use xlink:href="#DejaVuSans-32" x="95.410156"/>
       <use xlink:href="#DejaVuSans-35" x="159.033203"/>
      </g>
     </g>
    </g>
    <g id="ytick_6">
     <g id="line2d_15">
      <g>
       <use xlink:href="#m1c449aa685" x="54" y="97.229653" style="stroke: #000000; stroke-width: 0.8"/>
      </g>
     </g>
     <g id="text_15">
      <!-- 1.50 -->
      <g transform="translate(24.734375 101.028872)scale(0.1 -0.1)">
       <use xlink:href="#DejaVuSans-31"/>
       <use xlink:href="#DejaVuSans-2e" x="63.623047"/>
       <use xlink:href="#DejaVuSans-35" x="95.410156"/>
       <use xlink:href="#DejaVuSans-30" x="159.033203"/>
      </g>
     </g>
    </g>
    <g id="ytick_7">
     <g id="line2d_16">
      <g>
       <use xlink:href="#m1c449aa685" x="54" y="70.883054" style="stroke: #000000; stroke-width: 0.8"/>
      </g>
     </g>
     <g id="text_16">
      <!-- 1.75 -->
      <g transform="translate(24.734375 74.682273)scale(0.1 -0.1)">
       <use xlink:href="#DejaVuSans-31"/>
       <use xlink:href="#DejaVuSans-2e" x="63.623047"/>
       <use xlink:href="#DejaVuSans-37" x="95.410156"/>
       <use xlink:href="#DejaVuSans-35" x="159.033203"/>
      </g>
     </g>
    </g>
    <g id="ytick_8">
     <g id="line2d_17">
      <g>
       <use xlink:href="#m1c449aa685" x="54" y="44.536455" style="stroke: #000000; stroke-width: 0.8"/>
      </g>
     </g>
     <g id="text_17">
      <!-- 2.00 -->
      <g transform="translate(24.734375 48.335673)scale(0.1 -0.1)">
       <use xlink:href="#DejaVuSans-32"/>
       <use xlink:href="#DejaVuSans-2e" x="63.623047"/>
       <use xlink:href="#DejaVuSans-30" x="95.410156"/>
       <use xlink:href="#DejaVuSans-30" x="159.033203"/>
      </g>
     </g>
    </g>
    <g id="text_18">
     <!-- Loss -->
     <g transform="translate(18.654688 154.247187)rotate(-90)scale(0.1 -0.1)">
      <defs>
       <path id="DejaVuSans-4c" d="M 628 4666 
L 1259 4666 
L 1259 531 
L 3531 531 
L 3531 0 
L 628 0 
L 628 4666 
z
" transform="scale(0.015625)"/>
       <path id="DejaVuSans-6f" d="M 1959 3097 
Q 1497 3097 1228 2736 
Q 959 2375 959 1747 
Q 959 1119 1226 758 
Q 1494 397 1959 397 
Q 2419 397 2687 759 
Q 2956 1122 2956 1747 
Q 2956 2369 2687 2733 
Q 2419 3097 1959 3097 
z
M 1959 3584 
Q 2709 3584 3137 3096 
Q 3566 2609 3566 1747 
Q 3566 888 3137 398 
Q 2709 -91 1959 -91 
Q 1206 -91 779 398 
Q 353 888 353 1747 
Q 353 2609 779 3096 
Q 1206 3584 1959 3584 
z
" transform="scale(0.015625)"/>
       <path id="DejaVuSans-73" d="M 2834 3397 
L 2834 2853 
Q 2591 2978 2328 3040 
Q 2066 3103 1784 3103 
Q 1356 3103 1142 2972 
Q 928 2841 928 2578 
Q 928 2378 1081 2264 
Q 1234 2150 1697 2047 
L 1894 2003 
Q 2506 1872 2764 1633 
Q 3022 1394 3022 966 
Q 3022 478 2636 193 
Q 2250 -91 1575 -91 
Q 1294 -91 989 -36 
Q 684 19 347 128 
L 347 722 
Q 666 556 975 473 
Q 1284 391 1588 391 
Q 1994 391 2212 530 
Q 2431 669 2431 922 
Q 2431 1156 2273 1281 
Q 2116 1406 1581 1522 
L 1381 1569 
Q 847 1681 609 1914 
Q 372 2147 372 2553 
Q 372 3047 722 3315 
Q 1072 3584 1716 3584 
Q 2034 3584 2315 3537 
Q 2597 3491 2834 3397 
z
" transform="scale(0.015625)"/>
      </defs>
      <use xlink:href="#DejaVuSans-4c"/>
      <use xlink:href="#DejaVuSans-6f" x="53.962891"/>
      <use xlink:href="#DejaVuSans-73" x="115.144531"/>
      <use xlink:href="#DejaVuSans-73" x="167.244141"/>
     </g>
    </g>
   </g>
   <g id="line2d_18">
    <path d="M 69.218182 69.257824 
L 70.747647 105.588947 
L 72.277113 117.230457 
L 73.806578 123.533031 
L 75.336044 128.636189 
L 76.865509 131.624127 
L 78.394975 136.060466 
L 79.92444 138.326797 
L 81.453906 141.575923 
L 82.983371 144.487109 
L 84.512837 145.780354 
L 86.042302 149.29423 
L 87.571768 151.215877 
L 89.101233 152.636985 
L 90.630699 154.738287 
L 92.160164 157.404584 
L 93.68963 158.437219 
L 95.219095 160.832345 
L 96.748561 161.992785 
L 98.278026 162.229769 
L 99.807492 164.711307 
L 101.336958 165.804587 
L 102.866423 167.391533 
L 104.395889 167.347076 
L 105.925354 168.833579 
L 107.45482 170.644065 
L 108.984285 171.816765 
L 112.043216 173.806994 
L 113.572682 174.237621 
L 115.102147 175.260696 
L 116.631613 176.617975 
L 119.690544 178.353753 
L 121.220009 179.520796 
L 122.749475 180.041905 
L 124.27894 180.171119 
L 125.808406 182.036478 
L 127.337871 181.823711 
L 128.867337 182.824096 
L 130.396802 184.464402 
L 131.926268 183.87324 
L 133.455733 184.513192 
L 136.514664 186.305441 
L 138.04413 186.86864 
L 139.573595 187.747983 
L 141.103061 188.858114 
L 142.632526 188.807703 
L 147.220923 190.606749 
L 148.750388 191.006652 
L 151.809319 192.727633 
L 153.338785 192.391287 
L 154.86825 193.629822 
L 156.397716 194.060144 
L 157.927181 195.094859 
L 159.456647 195.137449 
L 160.986112 195.759776 
L 162.515578 196.670252 
L 164.045043 196.61246 
L 165.574509 197.467754 
L 167.103974 198.053748 
L 168.63344 198.906362 
L 170.162905 199.16325 
L 171.692371 199.861917 
L 173.221836 200.299956 
L 174.751302 200.897705 
L 176.280767 200.897209 
L 177.810233 201.600157 
L 179.339698 201.793029 
L 180.869164 203.546831 
L 182.39863 203.016246 
L 183.928095 203.854242 
L 185.457561 204.549557 
L 186.987026 205.098593 
L 188.516492 205.250351 
L 190.045957 205.222158 
L 191.575423 205.880068 
L 193.104888 207.212605 
L 194.634354 206.748106 
L 196.163819 208.144217 
L 197.693285 207.913012 
L 199.22275 208.765063 
L 200.752216 209.215239 
L 202.281681 210.300835 
L 205.340612 210.680961 
L 208.399543 212.028442 
L 209.929009 211.87839 
L 211.458474 212.138231 
L 214.517405 213.654333 
L 216.046871 213.774522 
L 219.105802 215.047961 
L 220.635267 215.139958 
L 222.164733 215.992785 
L 223.694198 216.224732 
L 225.223664 216.581704 
L 226.753129 217.481908 
L 228.282595 217.422348 
L 231.341526 218.573789 
L 232.870991 218.739731 
L 234.400457 219.704524 
L 235.929922 219.793091 
L 237.459388 220.381882 
L 238.988853 220.836099 
L 240.518319 220.923619 
L 242.047784 221.331274 
L 243.57725 222.182265 
L 245.106715 221.814934 
L 246.636181 222.147951 
L 248.165646 222.978408 
L 249.695112 223.521698 
L 251.224577 224.680053 
L 252.754043 224.390569 
L 254.283508 224.664275 
L 260.40137 226.699433 
L 261.930836 226.851933 
L 263.460302 227.451976 
L 264.989767 227.753405 
L 266.519233 228.215566 
L 268.048698 228.438456 
L 269.578164 228.981682 
L 271.107629 229.296952 
L 272.637095 229.406583 
L 275.696026 230.34306 
L 277.225491 230.498833 
L 278.754957 231.419534 
L 280.284422 231.20092 
L 281.813888 231.928913 
L 283.343353 232.805519 
L 284.872819 232.475867 
L 286.402284 232.993086 
L 287.93175 232.921651 
L 289.461215 233.242282 
L 290.990681 233.805064 
L 292.520146 234.194146 
L 294.049612 234.009881 
L 295.579077 234.74033 
L 297.108543 235.265796 
L 300.167474 235.876914 
L 301.696939 235.125319 
L 304.75587 236.321838 
L 307.814801 236.971455 
L 309.344267 236.858409 
L 310.873732 237.429897 
L 313.932663 237.880801 
L 315.462129 238.278173 
L 318.52106 237.961472 
L 320.050525 238.957861 
L 321.579991 238.752785 
L 323.109456 239.079676 
L 324.638922 239.135343 
L 327.697853 239.808266 
L 329.227318 239.42151 
L 330.756784 239.952693 
L 332.286249 239.76155 
L 333.815715 240.243554 
L 335.34518 240.435331 
L 336.874646 240.816273 
L 339.933577 240.588465 
L 341.463042 240.870695 
L 342.992508 240.945708 
L 344.521974 241.43262 
L 346.051439 241.330535 
L 347.580905 241.454014 
L 349.11037 241.173431 
L 350.639836 241.621454 
L 352.169301 241.394234 
L 353.698767 241.383363 
L 355.228232 241.962495 
L 356.757698 241.20116 
L 358.287163 241.782832 
L 359.816629 241.322622 
L 361.346094 242.065036 
L 364.405025 241.552415 
L 365.934491 241.828292 
L 368.993422 241.886114 
L 370.522887 241.675568 
L 372.052353 242.090277 
L 373.581818 242.116364 
L 373.581818 242.116364 
" clip-path="url(#p3fd2581d18)" style="fill: none; stroke: #1f77b4; stroke-width: 1.5; stroke-linecap: square"/>
   </g>
   <g id="line2d_19">
    <path d="M 69.218182 96.480639 
L 70.747647 117.354927 
L 72.277113 120.09085 
L 73.806578 108.783726 
L 75.336044 94.838945 
L 76.865509 138.415625 
L 78.394975 107.408617 
L 79.92444 136.279096 
L 81.453906 139.416167 
L 82.983371 129.189579 
L 84.512837 143.758376 
L 86.042302 140.278062 
L 87.571768 110.013311 
L 89.101233 136.626137 
L 90.630699 151.447674 
L 92.160164 141.41432 
L 93.68963 122.151098 
L 95.219095 150.161952 
L 96.748561 142.566658 
L 98.278026 149.152536 
L 99.807492 140.480233 
L 101.336958 164.811137 
L 102.866423 126.698195 
L 104.395889 145.576987 
L 105.925354 105.842443 
L 107.45482 151.639089 
L 108.984285 152.529879 
L 110.513751 146.946646 
L 112.043216 44.443636 
L 113.572682 153.281161 
L 115.102147 104.063752 
L 116.631613 142.707494 
L 118.161078 159.210525 
L 119.690544 145.430004 
L 121.220009 139.342508 
L 122.749475 154.34112 
L 124.27894 146.834669 
L 125.808406 132.508185 
L 127.337871 132.53749 
L 128.867337 158.936467 
L 130.396802 164.367865 
L 131.926268 159.189289 
L 133.455733 164.737449 
L 134.985199 171.496074 
L 136.514664 155.239701 
L 138.04413 150.659274 
L 139.573595 53.268416 
L 141.103061 173.920603 
L 142.632526 134.167722 
L 144.161992 168.130699 
L 145.691457 117.152294 
L 147.220923 172.73135 
L 148.750388 169.215677 
L 150.279854 163.324738 
L 151.809319 137.111933 
L 153.338785 166.662077 
L 154.86825 172.450107 
L 156.397716 174.62199 
L 157.927181 167.483786 
L 159.456647 181.264224 
L 160.986112 168.67416 
L 162.515578 178.974671 
L 164.045043 176.990208 
L 165.574509 176.907574 
L 167.103974 167.475879 
L 168.63344 160.567028 
L 170.162905 167.777849 
L 171.692371 185.588602 
L 173.221836 161.493873 
L 174.751302 171.946469 
L 176.280767 65.361236 
L 177.810233 151.959852 
L 179.339698 171.987602 
L 180.869164 166.518306 
L 182.39863 175.724162 
L 183.928095 168.574029 
L 185.457561 186.106173 
L 186.987026 182.105165 
L 188.516492 173.267632 
L 190.045957 176.588781 
L 191.575423 139.532253 
L 193.104888 173.987801 
L 194.634354 163.665524 
L 196.163819 170.765299 
L 197.693285 163.345834 
L 200.752216 176.454985 
L 202.281681 188.75487 
L 203.811147 188.080496 
L 205.340612 159.978752 
L 206.870078 163.862157 
L 208.399543 185.218335 
L 209.929009 178.140279 
L 211.458474 151.858173 
L 212.98794 177.063956 
L 214.517405 181.862243 
L 216.046871 181.492299 
L 217.576336 182.12275 
L 219.105802 182.10242 
L 220.635267 190.9254 
L 222.164733 185.451352 
L 223.694198 179.018717 
L 225.223664 185.029724 
L 226.753129 178.4505 
L 228.282595 170.111719 
L 229.81206 183.175438 
L 231.341526 166.313178 
L 232.870991 181.930774 
L 234.400457 187.351011 
L 235.929922 187.920179 
L 237.459388 177.030309 
L 238.988853 189.792486 
L 240.518319 192.574473 
L 242.047784 187.413546 
L 243.57725 191.958618 
L 245.106715 184.882107 
L 246.636181 194.747214 
L 248.165646 185.236658 
L 249.695112 188.301033 
L 251.224577 181.232797 
L 252.754043 186.747529 
L 254.283508 189.598249 
L 255.812974 182.404796 
L 257.342439 178.307033 
L 258.871905 178.799984 
L 260.40137 187.921066 
L 261.930836 189.830715 
L 263.460302 186.916705 
L 264.989767 193.46027 
L 266.519233 191.26754 
L 268.048698 186.697588 
L 269.578164 187.124637 
L 271.107629 186.351555 
L 272.637095 192.598201 
L 274.16656 188.776162 
L 275.696026 182.321268 
L 277.225491 190.468861 
L 278.754957 191.565672 
L 280.284422 190.677235 
L 281.813888 193.098181 
L 283.343353 193.143863 
L 284.872819 190.95741 
L 286.402284 191.091583 
L 287.93175 192.43465 
L 289.461215 190.98881 
L 290.990681 185.225239 
L 292.520146 190.973329 
L 294.049612 187.994615 
L 295.579077 187.987475 
L 297.108543 189.228681 
L 298.638008 192.331912 
L 300.167474 184.956034 
L 301.696939 192.472767 
L 304.75587 192.465899 
L 306.285336 191.427625 
L 307.814801 189.140113 
L 309.344267 189.603027 
L 310.873732 190.510066 
L 312.403198 189.298225 
L 313.932663 190.952028 
L 315.462129 191.03816 
L 316.991594 190.35112 
L 318.52106 191.413867 
L 320.050525 192.056837 
L 321.579991 190.714276 
L 323.109456 191.007058 
L 324.638922 191.490178 
L 326.168387 191.15461 
L 327.697853 190.469977 
L 329.227318 191.304822 
L 330.756784 191.274844 
L 332.286249 189.155985 
L 333.815715 189.582605 
L 335.34518 191.236916 
L 336.874646 191.480686 
L 339.933577 190.017256 
L 342.992508 191.076158 
L 344.521974 190.050969 
L 346.051439 190.386105 
L 347.580905 190.212457 
L 349.11037 190.834573 
L 350.639836 190.526144 
L 352.169301 190.893469 
L 353.698767 190.858968 
L 355.228232 190.977065 
L 358.287163 190.849852 
L 359.816629 190.897499 
L 361.346094 190.658383 
L 362.87556 190.841571 
L 372.052353 190.706682 
L 373.581818 190.705129 
L 373.581818 190.705129 
" clip-path="url(#p3fd2581d18)" style="fill: none; stroke: #ff7f0e; stroke-width: 1.5; stroke-linecap: square"/>
   </g>
   <g id="patch_3">
    <path d="M 54 252 
L 54 34.56 
" style="fill: none; stroke: #000000; stroke-width: 0.8; stroke-linejoin: miter; stroke-linecap: square"/>
   </g>
   <g id="patch_4">
    <path d="M 388.8 252 
L 388.8 34.56 
" style="fill: none; stroke: #000000; stroke-width: 0.8; stroke-linejoin: miter; stroke-linecap: square"/>
   </g>
   <g id="patch_5">
    <path d="M 54 252 
L 388.8 252 
" style="fill: none; stroke: #000000; stroke-width: 0.8; stroke-linejoin: miter; stroke-linecap: square"/>
   </g>
   <g id="patch_6">
    <path d="M 54 34.56 
L 388.8 34.56 
" style="fill: none; stroke: #000000; stroke-width: 0.8; stroke-linejoin: miter; stroke-linecap: square"/>
   </g>
   <g id="legend_1">
    <g id="patch_7">
     <path d="M 326.525 71.91625 
L 381.8 71.91625 
Q 383.8 71.91625 383.8 69.91625 
L 383.8 41.56 
Q 383.8 39.56 381.8 39.56 
L 326.525 39.56 
Q 324.525 39.56 324.525 41.56 
L 324.525 69.91625 
Q 324.525 71.91625 326.525 71.91625 
z
" style="fill: #ffffff; opacity: 0.8; stroke: #cccccc; stroke-linejoin: miter"/>
    </g>
    <g id="line2d_20">
     <path d="M 328.525 47.658437 
L 338.525 47.658437 
L 348.525 47.658437 
" style="fill: none; stroke: #1f77b4; stroke-width: 1.5; stroke-linecap: square"/>
    </g>
    <g id="text_19">
     <!-- train -->
     <g transform="translate(356.525 51.158437)scale(0.1 -0.1)">
      <defs>
       <path id="DejaVuSans-74" d="M 1172 4494 
L 1172 3500 
L 2356 3500 
L 2356 3053 
L 1172 3053 
L 1172 1153 
Q 1172 725 1289 603 
Q 1406 481 1766 481 
L 2356 481 
L 2356 0 
L 1766 0 
Q 1100 0 847 248 
Q 594 497 594 1153 
L 594 3053 
L 172 3053 
L 172 3500 
L 594 3500 
L 594 4494 
L 1172 4494 
z
" transform="scale(0.015625)"/>
       <path id="DejaVuSans-72" d="M 2631 2963 
Q 2534 3019 2420 3045 
Q 2306 3072 2169 3072 
Q 1681 3072 1420 2755 
Q 1159 2438 1159 1844 
L 1159 0 
L 581 0 
L 581 3500 
L 1159 3500 
L 1159 2956 
Q 1341 3275 1631 3429 
Q 1922 3584 2338 3584 
Q 2397 3584 2469 3576 
Q 2541 3569 2628 3553 
L 2631 2963 
z
" transform="scale(0.015625)"/>
       <path id="DejaVuSans-61" d="M 2194 1759 
Q 1497 1759 1228 1600 
Q 959 1441 959 1056 
Q 959 750 1161 570 
Q 1363 391 1709 391 
Q 2188 391 2477 730 
Q 2766 1069 2766 1631 
L 2766 1759 
L 2194 1759 
z
M 3341 1997 
L 3341 0 
L 2766 0 
L 2766 531 
Q 2569 213 2275 61 
Q 1981 -91 1556 -91 
Q 1019 -91 701 211 
Q 384 513 384 1019 
Q 384 1609 779 1909 
Q 1175 2209 1959 2209 
L 2766 2209 
L 2766 2266 
Q 2766 2663 2505 2880 
Q 2244 3097 1772 3097 
Q 1472 3097 1187 3025 
Q 903 2953 641 2809 
L 641 3341 
Q 956 3463 1253 3523 
Q 1550 3584 1831 3584 
Q 2591 3584 2966 3190 
Q 3341 2797 3341 1997 
z
" transform="scale(0.015625)"/>
       <path id="DejaVuSans-69" d="M 603 3500 
L 1178 3500 
L 1178 0 
L 603 0 
L 603 3500 
z
M 603 4863 
L 1178 4863 
L 1178 4134 
L 603 4134 
L 603 4863 
z
" transform="scale(0.015625)"/>
       <path id="DejaVuSans-6e" d="M 3513 2113 
L 3513 0 
L 2938 0 
L 2938 2094 
Q 2938 2591 2744 2837 
Q 2550 3084 2163 3084 
Q 1697 3084 1428 2787 
Q 1159 2491 1159 1978 
L 1159 0 
L 581 0 
L 581 3500 
L 1159 3500 
L 1159 2956 
Q 1366 3272 1645 3428 
Q 1925 3584 2291 3584 
Q 2894 3584 3203 3211 
Q 3513 2838 3513 2113 
z
" transform="scale(0.015625)"/>
      </defs>
      <use xlink:href="#DejaVuSans-74"/>
      <use xlink:href="#DejaVuSans-72" x="39.208984"/>
      <use xlink:href="#DejaVuSans-61" x="80.322266"/>
      <use xlink:href="#DejaVuSans-69" x="141.601562"/>
      <use xlink:href="#DejaVuSans-6e" x="169.384766"/>
     </g>
    </g>
    <g id="line2d_21">
     <path d="M 328.525 62.336562 
L 338.525 62.336562 
L 348.525 62.336562 
" style="fill: none; stroke: #ff7f0e; stroke-width: 1.5; stroke-linecap: square"/>
    </g>
    <g id="text_20">
     <!-- test -->
     <g transform="translate(356.525 65.836562)scale(0.1 -0.1)">
      <defs>
       <path id="DejaVuSans-65" d="M 3597 1894 
L 3597 1613 
L 953 1613 
Q 991 1019 1311 708 
Q 1631 397 2203 397 
Q 2534 397 2845 478 
Q 3156 559 3463 722 
L 3463 178 
Q 3153 47 2828 -22 
Q 2503 -91 2169 -91 
Q 1331 -91 842 396 
Q 353 884 353 1716 
Q 353 2575 817 3079 
Q 1281 3584 2069 3584 
Q 2775 3584 3186 3129 
Q 3597 2675 3597 1894 
z
M 3022 2063 
Q 3016 2534 2758 2815 
Q 2500 3097 2075 3097 
Q 1594 3097 1305 2825 
Q 1016 2553 972 2059 
L 3022 2063 
z
" transform="scale(0.015625)"/>
      </defs>
      <use xlink:href="#DejaVuSans-74"/>
      <use xlink:href="#DejaVuSans-65" x="39.208984"/>
      <use xlink:href="#DejaVuSans-73" x="100.732422"/>
      <use xlink:href="#DejaVuSans-74" x="152.832031"/>
     </g>
    </g>
   </g>
  </g>
 </g>
 <defs>
  <clipPath id="p3fd2581d18">
   <rect x="54" y="34.56" width="334.8" height="217.44"/>
  </clipPath>
 </defs>
</svg>
