<?xml version="1.0" encoding="utf-8" standalone="no"?>
<!DOCTYPE svg PUBLIC "-//W3C//DTD SVG 1.1//EN"
  "http://www.w3.org/Graphics/SVG/1.1/DTD/svg11.dtd">
<svg xmlns:xlink="http://www.w3.org/1999/xlink" width="432pt" height="288pt" viewBox="0 0 432 288" xmlns="http://www.w3.org/2000/svg" version="1.1">
 <metadata>
  <rdf:RDF xmlns:dc="http://purl.org/dc/elements/1.1/" xmlns:cc="http://creativecommons.org/ns#" xmlns:rdf="http://www.w3.org/1999/02/22-rdf-syntax-ns#">
   <cc:Work>
    <dc:type rdf:resource="http://purl.org/dc/dcmitype/StillImage"/>
    <dc:date>2022-08-08T11:13:05.320044</dc:date>
    <dc:format>image/svg+xml</dc:format>
    <dc:creator>
     <cc:Agent>
      <dc:title>Matplotlib v3.5.2, https://matplotlib.org/</dc:title>
     </cc:Agent>
    </dc:creator>
   </cc:Work>
  </rdf:RDF>
 </metadata>
 <defs>
  <style type="text/css">*{stroke-linejoin: round; stroke-linecap: butt}</style>
 </defs>
 <g id="figure_1">
  <g id="patch_1">
   <path d="M 0 288 
L 432 288 
L 432 0 
L 0 0 
L 0 288 
z
" style="fill: none"/>
  </g>
  <g id="axes_1">
   <g id="patch_2">
    <path d="M 54 252 
L 388.8 252 
L 388.8 34.56 
L 54 34.56 
z
" style="fill: #ffffff"/>
   </g>
   <g id="matplotlib.axis_1">
    <g id="xtick_1">
     <g id="line2d_1">
      <defs>
       <path id="mae54e170c0" d="M 0 0 
L 0 3.5 
" style="stroke: #000000; stroke-width: 0.8"/>
      </defs>
      <g>
       <use xlink:href="#mae54e170c0" x="69.218182" y="252" style="stroke: #000000; stroke-width: 0.8"/>
      </g>
     </g>
     <g id="text_1">
      <!-- 0 -->
      <g transform="translate(66.036932 266.598437)scale(0.1 -0.1)">
       <defs>
        <path id="DejaVuSans-30" d="M 2034 4250 
Q 1547 4250 1301 3770 
Q 1056 3291 1056 2328 
Q 1056 1369 1301 889 
Q 1547 409 2034 409 
Q 2525 409 2770 889 
Q 3016 1369 3016 2328 
Q 3016 3291 2770 3770 
Q 2525 4250 2034 4250 
z
M 2034 4750 
Q 2819 4750 3233 4129 
Q 3647 3509 3647 2328 
Q 3647 1150 3233 529 
Q 2819 -91 2034 -91 
Q 1250 -91 836 529 
Q 422 1150 422 2328 
Q 422 3509 836 4129 
Q 1250 4750 2034 4750 
z
" transform="scale(0.015625)"/>
       </defs>
       <use xlink:href="#DejaVuSans-30"/>
      </g>
     </g>
    </g>
    <g id="xtick_2">
     <g id="line2d_2">
      <g>
       <use xlink:href="#mae54e170c0" x="107.45482" y="252" style="stroke: #000000; stroke-width: 0.8"/>
      </g>
     </g>
     <g id="text_2">
      <!-- 25 -->
      <g transform="translate(101.09232 266.598437)scale(0.1 -0.1)">
       <defs>
        <path id="DejaVuSans-32" d="M 1228 531 
L 3431 531 
L 3431 0 
L 469 0 
L 469 531 
Q 828 903 1448 1529 
Q 2069 2156 2228 2338 
Q 2531 2678 2651 2914 
Q 2772 3150 2772 3378 
Q 2772 3750 2511 3984 
Q 2250 4219 1831 4219 
Q 1534 4219 1204 4116 
Q 875 4013 500 3803 
L 500 4441 
Q 881 4594 1212 4672 
Q 1544 4750 1819 4750 
Q 2544 4750 2975 4387 
Q 3406 4025 3406 3419 
Q 3406 3131 3298 2873 
Q 3191 2616 2906 2266 
Q 2828 2175 2409 1742 
Q 1991 1309 1228 531 
z
" transform="scale(0.015625)"/>
        <path id="DejaVuSans-35" d="M 691 4666 
L 3169 4666 
L 3169 4134 
L 1269 4134 
L 1269 2991 
Q 1406 3038 1543 3061 
Q 1681 3084 1819 3084 
Q 2600 3084 3056 2656 
Q 3513 2228 3513 1497 
Q 3513 744 3044 326 
Q 2575 -91 1722 -91 
Q 1428 -91 1123 -41 
Q 819 9 494 109 
L 494 744 
Q 775 591 1075 516 
Q 1375 441 1709 441 
Q 2250 441 2565 725 
Q 2881 1009 2881 1497 
Q 2881 1984 2565 2268 
Q 2250 2553 1709 2553 
Q 1456 2553 1204 2497 
Q 953 2441 691 2322 
L 691 4666 
z
" transform="scale(0.015625)"/>
       </defs>
       <use xlink:href="#DejaVuSans-32"/>
       <use xlink:href="#DejaVuSans-35" x="63.623047"/>
      </g>
     </g>
    </g>
    <g id="xtick_3">
     <g id="line2d_3">
      <g>
       <use xlink:href="#mae54e170c0" x="145.691457" y="252" style="stroke: #000000; stroke-width: 0.8"/>
      </g>
     </g>
     <g id="text_3">
      <!-- 50 -->
      <g transform="translate(139.328957 266.598437)scale(0.1 -0.1)">
       <use xlink:href="#DejaVuSans-35"/>
       <use xlink:href="#DejaVuSans-30" x="63.623047"/>
      </g>
     </g>
    </g>
    <g id="xtick_4">
     <g id="line2d_4">
      <g>
       <use xlink:href="#mae54e170c0" x="183.928095" y="252" style="stroke: #000000; stroke-width: 0.8"/>
      </g>
     </g>
     <g id="text_4">
      <!-- 75 -->
      <g transform="translate(177.565595 266.598437)scale(0.1 -0.1)">
       <defs>
        <path id="DejaVuSans-37" d="M 525 4666 
L 3525 4666 
L 3525 4397 
L 1831 0 
L 1172 0 
L 2766 4134 
L 525 4134 
L 525 4666 
z
" transform="scale(0.015625)"/>
       </defs>
       <use xlink:href="#DejaVuSans-37"/>
       <use xlink:href="#DejaVuSans-35" x="63.623047"/>
      </g>
     </g>
    </g>
    <g id="xtick_5">
     <g id="line2d_5">
      <g>
       <use xlink:href="#mae54e170c0" x="222.164733" y="252" style="stroke: #000000; stroke-width: 0.8"/>
      </g>
     </g>
     <g id="text_5">
      <!-- 100 -->
      <g transform="translate(212.620983 266.598437)scale(0.1 -0.1)">
       <defs>
        <path id="DejaVuSans-31" d="M 794 531 
L 1825 531 
L 1825 4091 
L 703 3866 
L 703 4441 
L 1819 4666 
L 2450 4666 
L 2450 531 
L 3481 531 
L 3481 0 
L 794 0 
L 794 531 
z
" transform="scale(0.015625)"/>
       </defs>
       <use xlink:href="#DejaVuSans-31"/>
       <use xlink:href="#DejaVuSans-30" x="63.623047"/>
       <use xlink:href="#DejaVuSans-30" x="127.246094"/>
      </g>
     </g>
    </g>
    <g id="xtick_6">
     <g id="line2d_6">
      <g>
       <use xlink:href="#mae54e170c0" x="260.40137" y="252" style="stroke: #000000; stroke-width: 0.8"/>
      </g>
     </g>
     <g id="text_6">
      <!-- 125 -->
      <g transform="translate(250.85762 266.598437)scale(0.1 -0.1)">
       <use xlink:href="#DejaVuSans-31"/>
       <use xlink:href="#DejaVuSans-32" x="63.623047"/>
       <use xlink:href="#DejaVuSans-35" x="127.246094"/>
      </g>
     </g>
    </g>
    <g id="xtick_7">
     <g id="line2d_7">
      <g>
       <use xlink:href="#mae54e170c0" x="298.638008" y="252" style="stroke: #000000; stroke-width: 0.8"/>
      </g>
     </g>
     <g id="text_7">
      <!-- 150 -->
      <g transform="translate(289.094258 266.598437)scale(0.1 -0.1)">
       <use xlink:href="#DejaVuSans-31"/>
       <use xlink:href="#DejaVuSans-35" x="63.623047"/>
       <use xlink:href="#DejaVuSans-30" x="127.246094"/>
      </g>
     </g>
    </g>
    <g id="xtick_8">
     <g id="line2d_8">
      <g>
       <use xlink:href="#mae54e170c0" x="336.874646" y="252" style="stroke: #000000; stroke-width: 0.8"/>
      </g>
     </g>
     <g id="text_8">
      <!-- 175 -->
      <g transform="translate(327.330896 266.598437)scale(0.1 -0.1)">
       <use xlink:href="#DejaVuSans-31"/>
       <use xlink:href="#DejaVuSans-37" x="63.623047"/>
       <use xlink:href="#DejaVuSans-35" x="127.246094"/>
      </g>
     </g>
    </g>
    <g id="xtick_9">
     <g id="line2d_9">
      <g>
       <use xlink:href="#mae54e170c0" x="375.111284" y="252" style="stroke: #000000; stroke-width: 0.8"/>
      </g>
     </g>
     <g id="text_9">
      <!-- 200 -->
      <g transform="translate(365.567534 266.598437)scale(0.1 -0.1)">
       <use xlink:href="#DejaVuSans-32"/>
       <use xlink:href="#DejaVuSans-30" x="63.623047"/>
       <use xlink:href="#DejaVuSans-30" x="127.246094"/>
      </g>
     </g>
    </g>
   </g>
   <g id="matplotlib.axis_2">
    <g id="ytick_1">
     <g id="line2d_10">
      <defs>
       <path id="m5ec38e4f80" d="M 0 0 
L -3.5 0 
" style="stroke: #000000; stroke-width: 0.8"/>
      </defs>
      <g>
       <use xlink:href="#m5ec38e4f80" x="54" y="233.445979" style="stroke: #000000; stroke-width: 0.8"/>
      </g>
     </g>
     <g id="text_10">
      <!-- 40 -->
      <g transform="translate(34.275 237.245198)scale(0.1 -0.1)">
       <defs>
        <path id="DejaVuSans-34" d="M 2419 4116 
L 825 1625 
L 2419 1625 
L 2419 4116 
z
M 2253 4666 
L 3047 4666 
L 3047 1625 
L 3713 1625 
L 3713 1100 
L 3047 1100 
L 3047 0 
L 2419 0 
L 2419 1100 
L 313 1100 
L 313 1709 
L 2253 4666 
z
" transform="scale(0.015625)"/>
       </defs>
       <use xlink:href="#DejaVuSans-34"/>
       <use xlink:href="#DejaVuSans-30" x="63.623047"/>
      </g>
     </g>
    </g>
    <g id="ytick_2">
     <g id="line2d_11">
      <g>
       <use xlink:href="#m5ec38e4f80" x="54" y="195.814101" style="stroke: #000000; stroke-width: 0.8"/>
      </g>
     </g>
     <g id="text_11">
      <!-- 50 -->
      <g transform="translate(34.275 199.61332)scale(0.1 -0.1)">
       <use xlink:href="#DejaVuSans-35"/>
       <use xlink:href="#DejaVuSans-30" x="63.623047"/>
      </g>
     </g>
    </g>
    <g id="ytick_3">
     <g id="line2d_12">
      <g>
       <use xlink:href="#m5ec38e4f80" x="54" y="158.182224" style="stroke: #000000; stroke-width: 0.8"/>
      </g>
     </g>
     <g id="text_12">
      <!-- 60 -->
      <g transform="translate(34.275 161.981442)scale(0.1 -0.1)">
       <defs>
        <path id="DejaVuSans-36" d="M 2113 2584 
Q 1688 2584 1439 2293 
Q 1191 2003 1191 1497 
Q 1191 994 1439 701 
Q 1688 409 2113 409 
Q 2538 409 2786 701 
Q 3034 994 3034 1497 
Q 3034 2003 2786 2293 
Q 2538 2584 2113 2584 
z
M 3366 4563 
L 3366 3988 
Q 3128 4100 2886 4159 
Q 2644 4219 2406 4219 
Q 1781 4219 1451 3797 
Q 1122 3375 1075 2522 
Q 1259 2794 1537 2939 
Q 1816 3084 2150 3084 
Q 2853 3084 3261 2657 
Q 3669 2231 3669 1497 
Q 3669 778 3244 343 
Q 2819 -91 2113 -91 
Q 1303 -91 875 529 
Q 447 1150 447 2328 
Q 447 3434 972 4092 
Q 1497 4750 2381 4750 
Q 2619 4750 2861 4703 
Q 3103 4656 3366 4563 
z
" transform="scale(0.015625)"/>
       </defs>
       <use xlink:href="#DejaVuSans-36"/>
       <use xlink:href="#DejaVuSans-30" x="63.623047"/>
      </g>
     </g>
    </g>
    <g id="ytick_4">
     <g id="line2d_13">
      <g>
       <use xlink:href="#m5ec38e4f80" x="54" y="120.550346" style="stroke: #000000; stroke-width: 0.8"/>
      </g>
     </g>
     <g id="text_13">
      <!-- 70 -->
      <g transform="translate(34.275 124.349565)scale(0.1 -0.1)">
       <use xlink:href="#DejaVuSans-37"/>
       <use xlink:href="#DejaVuSans-30" x="63.623047"/>
      </g>
     </g>
    </g>
    <g id="ytick_5">
     <g id="line2d_14">
      <g>
       <use xlink:href="#m5ec38e4f80" x="54" y="82.918468" style="stroke: #000000; stroke-width: 0.8"/>
      </g>
     </g>
     <g id="text_14">
      <!-- 80 -->
      <g transform="translate(34.275 86.717687)scale(0.1 -0.1)">
       <defs>
        <path id="DejaVuSans-38" d="M 2034 2216 
Q 1584 2216 1326 1975 
Q 1069 1734 1069 1313 
Q 1069 891 1326 650 
Q 1584 409 2034 409 
Q 2484 409 2743 651 
Q 3003 894 3003 1313 
Q 3003 1734 2745 1975 
Q 2488 2216 2034 2216 
z
M 1403 2484 
Q 997 2584 770 2862 
Q 544 3141 544 3541 
Q 544 4100 942 4425 
Q 1341 4750 2034 4750 
Q 2731 4750 3128 4425 
Q 3525 4100 3525 3541 
Q 3525 3141 3298 2862 
Q 3072 2584 2669 2484 
Q 3125 2378 3379 2068 
Q 3634 1759 3634 1313 
Q 3634 634 3220 271 
Q 2806 -91 2034 -91 
Q 1263 -91 848 271 
Q 434 634 434 1313 
Q 434 1759 690 2068 
Q 947 2378 1403 2484 
z
M 1172 3481 
Q 1172 3119 1398 2916 
Q 1625 2713 2034 2713 
Q 2441 2713 2670 2916 
Q 2900 3119 2900 3481 
Q 2900 3844 2670 4047 
Q 2441 4250 2034 4250 
Q 1625 4250 1398 4047 
Q 1172 3844 1172 3481 
z
" transform="scale(0.015625)"/>
       </defs>
       <use xlink:href="#DejaVuSans-38"/>
       <use xlink:href="#DejaVuSans-30" x="63.623047"/>
      </g>
     </g>
    </g>
    <g id="ytick_6">
     <g id="line2d_15">
      <g>
       <use xlink:href="#m5ec38e4f80" x="54" y="45.28659" style="stroke: #000000; stroke-width: 0.8"/>
      </g>
     </g>
     <g id="text_15">
      <!-- 90 -->
      <g transform="translate(34.275 49.085809)scale(0.1 -0.1)">
       <defs>
        <path id="DejaVuSans-39" d="M 703 97 
L 703 672 
Q 941 559 1184 500 
Q 1428 441 1663 441 
Q 2288 441 2617 861 
Q 2947 1281 2994 2138 
Q 2813 1869 2534 1725 
Q 2256 1581 1919 1581 
Q 1219 1581 811 2004 
Q 403 2428 403 3163 
Q 403 3881 828 4315 
Q 1253 4750 1959 4750 
Q 2769 4750 3195 4129 
Q 3622 3509 3622 2328 
Q 3622 1225 3098 567 
Q 2575 -91 1691 -91 
Q 1453 -91 1209 -44 
Q 966 3 703 97 
z
M 1959 2075 
Q 2384 2075 2632 2365 
Q 2881 2656 2881 3163 
Q 2881 3666 2632 3958 
Q 2384 4250 1959 4250 
Q 1534 4250 1286 3958 
Q 1038 3666 1038 3163 
Q 1038 2656 1286 2365 
Q 1534 2075 1959 2075 
z
" transform="scale(0.015625)"/>
       </defs>
       <use xlink:href="#DejaVuSans-39"/>
       <use xlink:href="#DejaVuSans-30" x="63.623047"/>
      </g>
     </g>
    </g>
    <g id="text_16">
     <!-- Accuracy -->
     <g transform="translate(28.195312 166.108125)rotate(-90)scale(0.1 -0.1)">
      <defs>
       <path id="DejaVuSans-41" d="M 2188 4044 
L 1331 1722 
L 3047 1722 
L 2188 4044 
z
M 1831 4666 
L 2547 4666 
L 4325 0 
L 3669 0 
L 3244 1197 
L 1141 1197 
L 716 0 
L 50 0 
L 1831 4666 
z
" transform="scale(0.015625)"/>
       <path id="DejaVuSans-63" d="M 3122 3366 
L 3122 2828 
Q 2878 2963 2633 3030 
Q 2388 3097 2138 3097 
Q 1578 3097 1268 2742 
Q 959 2388 959 1747 
Q 959 1106 1268 751 
Q 1578 397 2138 397 
Q 2388 397 2633 464 
Q 2878 531 3122 666 
L 3122 134 
Q 2881 22 2623 -34 
Q 2366 -91 2075 -91 
Q 1284 -91 818 406 
Q 353 903 353 1747 
Q 353 2603 823 3093 
Q 1294 3584 2113 3584 
Q 2378 3584 2631 3529 
Q 2884 3475 3122 3366 
z
" transform="scale(0.015625)"/>
       <path id="DejaVuSans-75" d="M 544 1381 
L 544 3500 
L 1119 3500 
L 1119 1403 
Q 1119 906 1312 657 
Q 1506 409 1894 409 
Q 2359 409 2629 706 
Q 2900 1003 2900 1516 
L 2900 3500 
L 3475 3500 
L 3475 0 
L 2900 0 
L 2900 538 
Q 2691 219 2414 64 
Q 2138 -91 1772 -91 
Q 1169 -91 856 284 
Q 544 659 544 1381 
z
M 1991 3584 
L 1991 3584 
z
" transform="scale(0.015625)"/>
       <path id="DejaVuSans-72" d="M 2631 2963 
Q 2534 3019 2420 3045 
Q 2306 3072 2169 3072 
Q 1681 3072 1420 2755 
Q 1159 2438 1159 1844 
L 1159 0 
L 581 0 
L 581 3500 
L 1159 3500 
L 1159 2956 
Q 1341 3275 1631 3429 
Q 1922 3584 2338 3584 
Q 2397 3584 2469 3576 
Q 2541 3569 2628 3553 
L 2631 2963 
z
" transform="scale(0.015625)"/>
       <path id="DejaVuSans-61" d="M 2194 1759 
Q 1497 1759 1228 1600 
Q 959 1441 959 1056 
Q 959 750 1161 570 
Q 1363 391 1709 391 
Q 2188 391 2477 730 
Q 2766 1069 2766 1631 
L 2766 1759 
L 2194 1759 
z
M 3341 1997 
L 3341 0 
L 2766 0 
L 2766 531 
Q 2569 213 2275 61 
Q 1981 -91 1556 -91 
Q 1019 -91 701 211 
Q 384 513 384 1019 
Q 384 1609 779 1909 
Q 1175 2209 1959 2209 
L 2766 2209 
L 2766 2266 
Q 2766 2663 2505 2880 
Q 2244 3097 1772 3097 
Q 1472 3097 1187 3025 
Q 903 2953 641 2809 
L 641 3341 
Q 956 3463 1253 3523 
Q 1550 3584 1831 3584 
Q 2591 3584 2966 3190 
Q 3341 2797 3341 1997 
z
" transform="scale(0.015625)"/>
       <path id="DejaVuSans-79" d="M 2059 -325 
Q 1816 -950 1584 -1140 
Q 1353 -1331 966 -1331 
L 506 -1331 
L 506 -850 
L 844 -850 
Q 1081 -850 1212 -737 
Q 1344 -625 1503 -206 
L 1606 56 
L 191 3500 
L 800 3500 
L 1894 763 
L 2988 3500 
L 3597 3500 
L 2059 -325 
z
" transform="scale(0.015625)"/>
      </defs>
      <use xlink:href="#DejaVuSans-41"/>
      <use xlink:href="#DejaVuSans-63" x="66.658203"/>
      <use xlink:href="#DejaVuSans-63" x="121.638672"/>
      <use xlink:href="#DejaVuSans-75" x="176.619141"/>
      <use xlink:href="#DejaVuSans-72" x="239.998047"/>
      <use xlink:href="#DejaVuSans-61" x="281.111328"/>
      <use xlink:href="#DejaVuSans-63" x="342.390625"/>
      <use xlink:href="#DejaVuSans-79" x="397.371094"/>
     </g>
    </g>
   </g>
   <g id="line2d_16">
    <path d="M 69.218182 242.116364 
L 70.747647 211.514121 
L 73.806578 196.446317 
L 76.865509 184.404116 
L 79.92444 177.532535 
L 81.453906 172.640391 
L 82.983371 170.736218 
L 84.512837 165.911811 
L 86.042302 163.819479 
L 87.571768 162.291625 
L 89.101233 158.70907 
L 90.630699 157.474744 
L 92.160164 153.545976 
L 93.68963 151.574066 
L 95.219095 151.671909 
L 96.748561 147.991511 
L 98.278026 147.16361 
L 99.807492 145.101383 
L 101.336958 142.271466 
L 102.866423 140.931771 
L 104.395889 139.757656 
L 105.925354 137.386848 
L 107.45482 135.693413 
L 108.984285 135.384832 
L 110.513751 133.969873 
L 113.572682 130.808796 
L 116.631613 128.242302 
L 118.161078 125.322068 
L 119.690544 124.960802 
L 121.220009 124.742537 
L 122.749475 122.537309 
L 124.27894 121.3933 
L 125.808406 119.963289 
L 127.337871 119.745024 
L 128.867337 119.022492 
L 130.396802 117.577428 
L 131.926268 115.680781 
L 134.985199 113.633607 
L 136.514664 112.670231 
L 139.573595 112.519703 
L 141.103061 109.4941 
L 142.632526 109.908051 
L 144.161992 108.387723 
L 145.691457 108.628567 
L 147.220923 107.612506 
L 148.750388 106.23518 
L 150.279854 106.039494 
L 151.809319 103.239682 
L 153.338785 104.052531 
L 156.397716 102.471992 
L 157.927181 102.103199 
L 159.456647 101.139823 
L 160.986112 100.575345 
L 162.515578 99.499073 
L 164.045043 99.717338 
L 165.574509 98.287327 
L 167.103974 97.70027 
L 170.162905 96.232626 
L 171.692371 97.143318 
L 173.221836 95.231619 
L 174.751302 93.02639 
L 176.280767 93.794081 
L 177.810233 93.146813 
L 179.339698 92.755441 
L 180.869164 90.8889 
L 182.39863 91.205008 
L 183.928095 90.791057 
L 185.457561 88.916989 
L 186.987026 89.556731 
L 188.516492 88.2923 
L 190.045957 88.284774 
L 191.575423 88.495512 
L 193.104888 86.907447 
L 194.634354 86.734341 
L 196.163819 85.319382 
L 197.693285 84.860273 
L 199.22275 86.026861 
L 200.752216 84.054951 
L 202.281681 82.993732 
L 203.811147 83.023837 
L 205.340612 82.466886 
L 206.870078 81.5863 
L 208.399543 81.225034 
L 209.929009 80.479922 
L 211.458474 81.014295 
L 212.98794 79.998234 
L 214.517405 79.283229 
L 216.046871 78.816593 
L 220.635267 76.694156 
L 222.164733 77.747848 
L 223.694198 76.212468 
L 225.223664 74.850194 
L 226.753129 75.422198 
L 228.282595 74.69214 
L 229.81206 74.601823 
L 231.341526 72.411648 
L 232.870991 72.983652 
L 234.400457 71.937486 
L 237.459388 70.710687 
L 238.988853 70.861215 
L 240.518319 69.875259 
L 242.047784 69.423677 
L 243.57725 68.678566 
L 245.106715 69.212938 
L 246.636181 68.633407 
L 248.165646 67.052868 
L 249.695112 67.767874 
L 251.224577 67.173291 
L 252.754043 65.841122 
L 254.283508 65.020747 
L 255.812974 66.097019 
L 257.342439 65.615331 
L 258.871905 65.404592 
L 260.40137 64.471322 
L 261.930836 63.39505 
L 263.460302 63.199364 
L 264.989767 61.94246 
L 266.519233 62.296199 
L 268.048698 61.091979 
L 269.578164 60.738239 
L 271.107629 61.874722 
L 272.637095 60.128603 
L 274.16656 59.421124 
L 275.696026 59.210385 
L 277.225491 59.609283 
L 278.754957 58.645907 
L 281.813888 57.915849 
L 283.343353 56.756787 
L 284.872819 57.532003 
L 286.402284 57.027736 
L 287.93175 56.019202 
L 289.461215 56.267572 
L 290.990681 55.469777 
L 292.520146 55.183774 
L 294.049612 55.078405 
L 295.579077 54.318241 
L 297.108543 53.813974 
L 298.638008 53.543024 
L 300.167474 52.858124 
L 301.696939 53.354865 
L 303.226405 52.278593 
L 304.75587 51.909801 
L 306.285336 51.985065 
L 307.814801 51.044268 
L 309.344267 50.577632 
L 310.873732 50.743213 
L 312.403198 50.389473 
L 313.932663 50.615264 
L 315.462129 49.734678 
L 316.991594 50.675475 
L 318.52106 50.216366 
L 320.050525 49.102463 
L 321.579991 49.057305 
L 323.109456 48.282088 
L 324.638922 48.869145 
L 326.168387 47.996086 
L 327.697853 47.830505 
L 329.227318 47.973506 
L 330.756784 46.904761 
L 332.286249 47.725136 
L 333.815715 47.52945 
L 335.34518 47.8004 
L 336.874646 46.791866 
L 338.404111 47.017657 
L 339.933577 46.144597 
L 341.463042 47.077868 
L 342.992508 46.061807 
L 344.521974 46.167176 
L 349.11037 46.024175 
L 350.639836 45.655383 
L 352.169301 46.099439 
L 355.228232 45.098431 
L 356.757698 44.917798 
L 358.287163 45.813437 
L 359.816629 45.151116 
L 361.346094 45.384433 
L 362.87556 45.798384 
L 364.405025 45.753226 
L 365.934491 44.443636 
L 367.463956 45.437118 
L 368.993422 44.729639 
L 370.522887 45.105957 
L 372.052353 45.625277 
L 373.581818 45.519908 
L 373.581818 45.519908 
" clip-path="url(#p9c462f1ce9)" style="fill: none; stroke: #1f77b4; stroke-width: 1.5; stroke-linecap: square"/>
   </g>
   <g id="line2d_17">
    <path d="M 69.218182 198.410701 
L 72.277113 178.691597 
L 73.806578 171.240485 
L 75.336044 167.966512 
L 76.865509 164.391483 
L 78.394975 175.718679 
L 79.92444 151.634277 
L 81.453906 154.080349 
L 82.983371 151.747172 
L 84.512837 166.273077 
L 86.042302 148.172144 
L 87.571768 141.586566 
L 89.101233 135.86652 
L 90.630699 142.828417 
L 92.160164 135.377306 
L 93.68963 136.280471 
L 95.219095 130.936744 
L 96.748561 136.920213 
L 98.278026 130.560425 
L 99.807492 125.555386 
L 101.336958 124.163006 
L 102.866423 125.404858 
L 104.395889 124.200638 
L 105.925354 120.587978 
L 107.45482 118.744016 
L 108.984285 123.071682 
L 110.513751 118.179538 
L 112.043216 118.932175 
L 113.572682 120.663241 
L 115.102147 114.604509 
L 116.631613 114.152927 
L 118.161078 119.609549 
L 119.690544 111.330536 
L 121.220009 115.056092 
L 122.749475 113.81424 
L 124.27894 114.22819 
L 125.808406 108.8092 
L 127.337871 115.244251 
L 128.867337 105.836282 
L 130.396802 110.163948 
L 131.926268 105.271804 
L 133.455733 105.234172 
L 134.985199 104.255743 
L 136.514664 107.642612 
L 138.04413 109.260783 
L 139.573595 107.416821 
L 141.103061 106.2126 
L 142.632526 102.938627 
L 144.161992 113.21213 
L 145.691457 108.658673 
L 147.220923 101.169929 
L 148.750388 104.368638 
L 150.279854 98.234642 
L 151.809319 96.503576 
L 153.338785 102.562308 
L 154.86825 92.17591 
L 156.397716 97.293845 
L 157.927181 96.616472 
L 159.456647 97.444373 
L 160.986112 96.691735 
L 162.515578 96.57884 
L 164.045043 94.58435 
L 165.574509 93.229603 
L 167.103974 93.605921 
L 168.63344 92.439333 
L 170.162905 89.278255 
L 171.692371 93.079075 
L 173.221836 89.014832 
L 174.751302 91.987751 
L 176.280767 91.272745 
L 177.810233 97.971219 
L 179.339698 89.16536 
L 180.869164 87.998772 
L 182.39863 89.993261 
L 183.928095 98.949648 
L 185.457561 89.202992 
L 186.987026 88.864305 
L 188.516492 90.181421 
L 190.045957 87.095607 
L 191.575423 104.895485 
L 193.104888 88.676145 
L 194.634354 92.213542 
L 196.163819 86.982711 
L 197.693285 85.439804 
L 199.22275 81.902407 
L 200.752216 85.326908 
L 202.281681 84.800062 
L 203.811147 83.482946 
L 205.340612 86.794552 
L 206.870078 82.090567 
L 208.399543 83.257155 
L 209.929009 81.714248 
L 211.458474 80.698187 
L 212.98794 82.466886 
L 214.517405 82.35399 
L 216.046871 82.579781 
L 217.576336 85.326908 
L 219.105802 78.967121 
L 220.635267 80.133709 
L 222.164733 81.488457 
L 223.694198 83.144259 
L 225.223664 81.676616 
L 226.753129 79.719759 
L 228.282595 82.015303 
L 229.81206 82.241094 
L 231.341526 78.026324 
L 232.870991 78.440275 
L 234.400457 77.687637 
L 235.929922 84.085056 
L 237.459388 77.762901 
L 238.988853 76.822104 
L 240.518319 77.875797 
L 242.047784 76.671576 
L 243.57725 76.558681 
L 245.106715 76.295258 
L 246.636181 76.859736 
L 248.165646 75.806043 
L 249.695112 74.413664 
L 251.224577 75.203933 
L 252.754043 75.053406 
L 254.283508 73.698658 
L 255.812974 75.54262 
L 257.342439 71.892328 
L 258.871905 73.811554 
L 260.40137 73.171812 
L 261.930836 73.021284 
L 263.460302 72.569702 
L 264.989767 73.397603 
L 266.519233 72.757861 
L 268.048698 72.720229 
L 269.578164 73.13418 
L 271.107629 72.720229 
L 272.637095 73.999713 
L 274.16656 71.666537 
L 275.696026 70.801004 
L 277.225491 71.967592 
L 278.754957 72.908389 
L 280.284422 72.343911 
L 281.813888 70.801004 
L 283.343353 72.908389 
L 284.872819 72.118119 
L 286.402284 72.118119 
L 287.93175 70.763372 
L 289.461215 70.801004 
L 290.990681 70.72574 
L 292.520146 70.801004 
L 294.049612 70.650476 
L 295.579077 71.026795 
L 297.108543 69.069937 
L 298.638008 73.811554 
L 300.167474 70.53758 
L 301.696939 69.182833 
L 303.226405 69.446256 
L 304.75587 70.387053 
L 306.285336 69.559152 
L 307.814801 68.580723 
L 309.344267 69.784943 
L 310.873732 69.747311 
L 312.403198 69.069937 
L 313.932663 69.747311 
L 315.462129 69.559152 
L 316.991594 68.655986 
L 318.52106 68.881778 
L 320.050525 68.994673 
L 321.579991 68.242036 
L 323.109456 68.844146 
L 324.638922 67.940981 
L 327.697853 69.182833 
L 329.227318 68.430195 
L 330.756784 68.392563 
L 332.286249 69.107569 
L 333.815715 68.392563 
L 335.34518 68.204404 
L 336.874646 68.467827 
L 338.404111 67.940981 
L 339.933577 68.881778 
L 341.463042 68.016245 
L 342.992508 68.467827 
L 344.521974 68.12914 
L 346.051439 68.354931 
L 347.580905 68.279668 
L 349.11037 67.903349 
L 350.639836 67.940981 
L 352.169301 68.279668 
L 353.698767 68.016245 
L 355.228232 68.279668 
L 356.757698 67.71519 
L 359.816629 67.564662 
L 361.346094 67.940981 
L 362.87556 67.865717 
L 365.934491 68.12914 
L 367.463956 68.091508 
L 368.993422 67.865717 
L 372.052353 67.865717 
L 373.581818 67.865717 
L 373.581818 67.865717 
" clip-path="url(#p9c462f1ce9)" style="fill: none; stroke: #ff7f0e; stroke-width: 1.5; stroke-linecap: square"/>
   </g>
   <g id="patch_3">
    <path d="M 54 252 
L 54 34.56 
" style="fill: none; stroke: #000000; stroke-width: 0.8; stroke-linejoin: miter; stroke-linecap: square"/>
   </g>
   <g id="patch_4">
    <path d="M 388.8 252 
L 388.8 34.56 
" style="fill: none; stroke: #000000; stroke-width: 0.8; stroke-linejoin: miter; stroke-linecap: square"/>
   </g>
   <g id="patch_5">
    <path d="M 54 252 
L 388.8 252 
" style="fill: none; stroke: #000000; stroke-width: 0.8; stroke-linejoin: miter; stroke-linecap: square"/>
   </g>
   <g id="patch_6">
    <path d="M 54 34.56 
L 388.8 34.56 
" style="fill: none; stroke: #000000; stroke-width: 0.8; stroke-linejoin: miter; stroke-linecap: square"/>
   </g>
   <g id="legend_1">
    <g id="patch_7">
     <path d="M 61 71.91625 
L 116.275 71.91625 
Q 118.275 71.91625 118.275 69.91625 
L 118.275 41.56 
Q 118.275 39.56 116.275 39.56 
L 61 39.56 
Q 59 39.56 59 41.56 
L 59 69.91625 
Q 59 71.91625 61 71.91625 
z
" style="fill: #ffffff; opacity: 0.8; stroke: #cccccc; stroke-linejoin: miter"/>
    </g>
    <g id="line2d_18">
     <path d="M 63 47.658437 
L 73 47.658437 
L 83 47.658437 
" style="fill: none; stroke: #1f77b4; stroke-width: 1.5; stroke-linecap: square"/>
    </g>
    <g id="text_17">
     <!-- train -->
     <g transform="translate(91 51.158437)scale(0.1 -0.1)">
      <defs>
       <path id="DejaVuSans-74" d="M 1172 4494 
L 1172 3500 
L 2356 3500 
L 2356 3053 
L 1172 3053 
L 1172 1153 
Q 1172 725 1289 603 
Q 1406 481 1766 481 
L 2356 481 
L 2356 0 
L 1766 0 
Q 1100 0 847 248 
Q 594 497 594 1153 
L 594 3053 
L 172 3053 
L 172 3500 
L 594 3500 
L 594 4494 
L 1172 4494 
z
" transform="scale(0.015625)"/>
       <path id="DejaVuSans-69" d="M 603 3500 
L 1178 3500 
L 1178 0 
L 603 0 
L 603 3500 
z
M 603 4863 
L 1178 4863 
L 1178 4134 
L 603 4134 
L 603 4863 
z
" transform="scale(0.015625)"/>
       <path id="DejaVuSans-6e" d="M 3513 2113 
L 3513 0 
L 2938 0 
L 2938 2094 
Q 2938 2591 2744 2837 
Q 2550 3084 2163 3084 
Q 1697 3084 1428 2787 
Q 1159 2491 1159 1978 
L 1159 0 
L 581 0 
L 581 3500 
L 1159 3500 
L 1159 2956 
Q 1366 3272 1645 3428 
Q 1925 3584 2291 3584 
Q 2894 3584 3203 3211 
Q 3513 2838 3513 2113 
z
" transform="scale(0.015625)"/>
      </defs>
      <use xlink:href="#DejaVuSans-74"/>
      <use xlink:href="#DejaVuSans-72" x="39.208984"/>
      <use xlink:href="#DejaVuSans-61" x="80.322266"/>
      <use xlink:href="#DejaVuSans-69" x="141.601562"/>
      <use xlink:href="#DejaVuSans-6e" x="169.384766"/>
     </g>
    </g>
    <g id="line2d_19">
     <path d="M 63 62.336562 
L 73 62.336562 
L 83 62.336562 
" style="fill: none; stroke: #ff7f0e; stroke-width: 1.5; stroke-linecap: square"/>
    </g>
    <g id="text_18">
     <!-- test -->
     <g transform="translate(91 65.836562)scale(0.1 -0.1)">
      <defs>
       <path id="DejaVuSans-65" d="M 3597 1894 
L 3597 1613 
L 953 1613 
Q 991 1019 1311 708 
Q 1631 397 2203 397 
Q 2534 397 2845 478 
Q 3156 559 3463 722 
L 3463 178 
Q 3153 47 2828 -22 
Q 2503 -91 2169 -91 
Q 1331 -91 842 396 
Q 353 884 353 1716 
Q 353 2575 817 3079 
Q 1281 3584 2069 3584 
Q 2775 3584 3186 3129 
Q 3597 2675 3597 1894 
z
M 3022 2063 
Q 3016 2534 2758 2815 
Q 2500 3097 2075 3097 
Q 1594 3097 1305 2825 
Q 1016 2553 972 2059 
L 3022 2063 
z
" transform="scale(0.015625)"/>
       <path id="DejaVuSans-73" d="M 2834 3397 
L 2834 2853 
Q 2591 2978 2328 3040 
Q 2066 3103 1784 3103 
Q 1356 3103 1142 2972 
Q 928 2841 928 2578 
Q 928 2378 1081 2264 
Q 1234 2150 1697 2047 
L 1894 2003 
Q 2506 1872 2764 1633 
Q 3022 1394 3022 966 
Q 3022 478 2636 193 
Q 2250 -91 1575 -91 
Q 1294 -91 989 -36 
Q 684 19 347 128 
L 347 722 
Q 666 556 975 473 
Q 1284 391 1588 391 
Q 1994 391 2212 530 
Q 2431 669 2431 922 
Q 2431 1156 2273 1281 
Q 2116 1406 1581 1522 
L 1381 1569 
Q 847 1681 609 1914 
Q 372 2147 372 2553 
Q 372 3047 722 3315 
Q 1072 3584 1716 3584 
Q 2034 3584 2315 3537 
Q 2597 3491 2834 3397 
z
" transform="scale(0.015625)"/>
      </defs>
      <use xlink:href="#DejaVuSans-74"/>
      <use xlink:href="#DejaVuSans-65" x="39.208984"/>
      <use xlink:href="#DejaVuSans-73" x="100.732422"/>
      <use xlink:href="#DejaVuSans-74" x="152.832031"/>
     </g>
    </g>
   </g>
  </g>
 </g>
 <defs>
  <clipPath id="p9c462f1ce9">
   <rect x="54" y="34.56" width="334.8" height="217.44"/>
  </clipPath>
 </defs>
</svg>
