<?xml version="1.0" encoding="utf-8" standalone="no"?>
<!DOCTYPE svg PUBLIC "-//W3C//DTD SVG 1.1//EN"
  "http://www.w3.org/Graphics/SVG/1.1/DTD/svg11.dtd">
<svg xmlns:xlink="http://www.w3.org/1999/xlink" width="432pt" height="288pt" viewBox="0 0 432 288" xmlns="http://www.w3.org/2000/svg" version="1.1">
 <metadata>
  <rdf:RDF xmlns:dc="http://purl.org/dc/elements/1.1/" xmlns:cc="http://creativecommons.org/ns#" xmlns:rdf="http://www.w3.org/1999/02/22-rdf-syntax-ns#">
   <cc:Work>
    <dc:type rdf:resource="http://purl.org/dc/dcmitype/StillImage"/>
    <dc:date>2022-10-07T10:32:25.607941</dc:date>
    <dc:format>image/svg+xml</dc:format>
    <dc:creator>
     <cc:Agent>
      <dc:title>Matplotlib v3.5.2, https://matplotlib.org/</dc:title>
     </cc:Agent>
    </dc:creator>
   </cc:Work>
  </rdf:RDF>
 </metadata>
 <defs>
  <style type="text/css">*{stroke-linejoin: round; stroke-linecap: butt}</style>
 </defs>
 <g id="figure_1">
  <g id="patch_1">
   <path d="M 0 288 
L 432 288 
L 432 0 
L 0 0 
L 0 288 
z
" style="fill: none"/>
  </g>
  <g id="axes_1">
   <g id="patch_2">
    <path d="M 54 252 
L 388.8 252 
L 388.8 34.56 
L 54 34.56 
z
" style="fill: #ffffff"/>
   </g>
   <g id="matplotlib.axis_1">
    <g id="xtick_1">
     <g id="line2d_1">
      <defs>
       <path id="mf29f8b4381" d="M 0 0 
L 0 3.5 
" style="stroke: #000000; stroke-width: 0.8"/>
      </defs>
      <g>
       <use xlink:href="#mf29f8b4381" x="69.218182" y="252" style="stroke: #000000; stroke-width: 0.8"/>
      </g>
     </g>
     <g id="text_1">
      <!-- 0 -->
      <g transform="translate(66.036932 266.598437)scale(0.1 -0.1)">
       <defs>
        <path id="DejaVuSans-30" d="M 2034 4250 
Q 1547 4250 1301 3770 
Q 1056 3291 1056 2328 
Q 1056 1369 1301 889 
Q 1547 409 2034 409 
Q 2525 409 2770 889 
Q 3016 1369 3016 2328 
Q 3016 3291 2770 3770 
Q 2525 4250 2034 4250 
z
M 2034 4750 
Q 2819 4750 3233 4129 
Q 3647 3509 3647 2328 
Q 3647 1150 3233 529 
Q 2819 -91 2034 -91 
Q 1250 -91 836 529 
Q 422 1150 422 2328 
Q 422 3509 836 4129 
Q 1250 4750 2034 4750 
z
" transform="scale(0.015625)"/>
       </defs>
       <use xlink:href="#DejaVuSans-30"/>
      </g>
     </g>
    </g>
    <g id="xtick_2">
     <g id="line2d_2">
      <g>
       <use xlink:href="#mf29f8b4381" x="107.45482" y="252" style="stroke: #000000; stroke-width: 0.8"/>
      </g>
     </g>
     <g id="text_2">
      <!-- 25 -->
      <g transform="translate(101.09232 266.598437)scale(0.1 -0.1)">
       <defs>
        <path id="DejaVuSans-32" d="M 1228 531 
L 3431 531 
L 3431 0 
L 469 0 
L 469 531 
Q 828 903 1448 1529 
Q 2069 2156 2228 2338 
Q 2531 2678 2651 2914 
Q 2772 3150 2772 3378 
Q 2772 3750 2511 3984 
Q 2250 4219 1831 4219 
Q 1534 4219 1204 4116 
Q 875 4013 500 3803 
L 500 4441 
Q 881 4594 1212 4672 
Q 1544 4750 1819 4750 
Q 2544 4750 2975 4387 
Q 3406 4025 3406 3419 
Q 3406 3131 3298 2873 
Q 3191 2616 2906 2266 
Q 2828 2175 2409 1742 
Q 1991 1309 1228 531 
z
" transform="scale(0.015625)"/>
        <path id="DejaVuSans-35" d="M 691 4666 
L 3169 4666 
L 3169 4134 
L 1269 4134 
L 1269 2991 
Q 1406 3038 1543 3061 
Q 1681 3084 1819 3084 
Q 2600 3084 3056 2656 
Q 3513 2228 3513 1497 
Q 3513 744 3044 326 
Q 2575 -91 1722 -91 
Q 1428 -91 1123 -41 
Q 819 9 494 109 
L 494 744 
Q 775 591 1075 516 
Q 1375 441 1709 441 
Q 2250 441 2565 725 
Q 2881 1009 2881 1497 
Q 2881 1984 2565 2268 
Q 2250 2553 1709 2553 
Q 1456 2553 1204 2497 
Q 953 2441 691 2322 
L 691 4666 
z
" transform="scale(0.015625)"/>
       </defs>
       <use xlink:href="#DejaVuSans-32"/>
       <use xlink:href="#DejaVuSans-35" x="63.623047"/>
      </g>
     </g>
    </g>
    <g id="xtick_3">
     <g id="line2d_3">
      <g>
       <use xlink:href="#mf29f8b4381" x="145.691457" y="252" style="stroke: #000000; stroke-width: 0.8"/>
      </g>
     </g>
     <g id="text_3">
      <!-- 50 -->
      <g transform="translate(139.328957 266.598437)scale(0.1 -0.1)">
       <use xlink:href="#DejaVuSans-35"/>
       <use xlink:href="#DejaVuSans-30" x="63.623047"/>
      </g>
     </g>
    </g>
    <g id="xtick_4">
     <g id="line2d_4">
      <g>
       <use xlink:href="#mf29f8b4381" x="183.928095" y="252" style="stroke: #000000; stroke-width: 0.8"/>
      </g>
     </g>
     <g id="text_4">
      <!-- 75 -->
      <g transform="translate(177.565595 266.598437)scale(0.1 -0.1)">
       <defs>
        <path id="DejaVuSans-37" d="M 525 4666 
L 3525 4666 
L 3525 4397 
L 1831 0 
L 1172 0 
L 2766 4134 
L 525 4134 
L 525 4666 
z
" transform="scale(0.015625)"/>
       </defs>
       <use xlink:href="#DejaVuSans-37"/>
       <use xlink:href="#DejaVuSans-35" x="63.623047"/>
      </g>
     </g>
    </g>
    <g id="xtick_5">
     <g id="line2d_5">
      <g>
       <use xlink:href="#mf29f8b4381" x="222.164733" y="252" style="stroke: #000000; stroke-width: 0.8"/>
      </g>
     </g>
     <g id="text_5">
      <!-- 100 -->
      <g transform="translate(212.620983 266.598437)scale(0.1 -0.1)">
       <defs>
        <path id="DejaVuSans-31" d="M 794 531 
L 1825 531 
L 1825 4091 
L 703 3866 
L 703 4441 
L 1819 4666 
L 2450 4666 
L 2450 531 
L 3481 531 
L 3481 0 
L 794 0 
L 794 531 
z
" transform="scale(0.015625)"/>
       </defs>
       <use xlink:href="#DejaVuSans-31"/>
       <use xlink:href="#DejaVuSans-30" x="63.623047"/>
       <use xlink:href="#DejaVuSans-30" x="127.246094"/>
      </g>
     </g>
    </g>
    <g id="xtick_6">
     <g id="line2d_6">
      <g>
       <use xlink:href="#mf29f8b4381" x="260.40137" y="252" style="stroke: #000000; stroke-width: 0.8"/>
      </g>
     </g>
     <g id="text_6">
      <!-- 125 -->
      <g transform="translate(250.85762 266.598437)scale(0.1 -0.1)">
       <use xlink:href="#DejaVuSans-31"/>
       <use xlink:href="#DejaVuSans-32" x="63.623047"/>
       <use xlink:href="#DejaVuSans-35" x="127.246094"/>
      </g>
     </g>
    </g>
    <g id="xtick_7">
     <g id="line2d_7">
      <g>
       <use xlink:href="#mf29f8b4381" x="298.638008" y="252" style="stroke: #000000; stroke-width: 0.8"/>
      </g>
     </g>
     <g id="text_7">
      <!-- 150 -->
      <g transform="translate(289.094258 266.598437)scale(0.1 -0.1)">
       <use xlink:href="#DejaVuSans-31"/>
       <use xlink:href="#DejaVuSans-35" x="63.623047"/>
       <use xlink:href="#DejaVuSans-30" x="127.246094"/>
      </g>
     </g>
    </g>
    <g id="xtick_8">
     <g id="line2d_8">
      <g>
       <use xlink:href="#mf29f8b4381" x="336.874646" y="252" style="stroke: #000000; stroke-width: 0.8"/>
      </g>
     </g>
     <g id="text_8">
      <!-- 175 -->
      <g transform="translate(327.330896 266.598437)scale(0.1 -0.1)">
       <use xlink:href="#DejaVuSans-31"/>
       <use xlink:href="#DejaVuSans-37" x="63.623047"/>
       <use xlink:href="#DejaVuSans-35" x="127.246094"/>
      </g>
     </g>
    </g>
    <g id="xtick_9">
     <g id="line2d_9">
      <g>
       <use xlink:href="#mf29f8b4381" x="375.111284" y="252" style="stroke: #000000; stroke-width: 0.8"/>
      </g>
     </g>
     <g id="text_9">
      <!-- 200 -->
      <g transform="translate(365.567534 266.598437)scale(0.1 -0.1)">
       <use xlink:href="#DejaVuSans-32"/>
       <use xlink:href="#DejaVuSans-30" x="63.623047"/>
       <use xlink:href="#DejaVuSans-30" x="127.246094"/>
      </g>
     </g>
    </g>
   </g>
   <g id="matplotlib.axis_2">
    <g id="ytick_1">
     <g id="line2d_10">
      <defs>
       <path id="mdc8467248d" d="M 0 0 
L -3.5 0 
" style="stroke: #000000; stroke-width: 0.8"/>
      </defs>
      <g>
       <use xlink:href="#mdc8467248d" x="54" y="244.290503" style="stroke: #000000; stroke-width: 0.8"/>
      </g>
     </g>
     <g id="text_10">
      <!-- 40 -->
      <g transform="translate(34.275 248.089721)scale(0.1 -0.1)">
       <defs>
        <path id="DejaVuSans-34" d="M 2419 4116 
L 825 1625 
L 2419 1625 
L 2419 4116 
z
M 2253 4666 
L 3047 4666 
L 3047 1625 
L 3713 1625 
L 3713 1100 
L 3047 1100 
L 3047 0 
L 2419 0 
L 2419 1100 
L 313 1100 
L 313 1709 
L 2253 4666 
z
" transform="scale(0.015625)"/>
       </defs>
       <use xlink:href="#DejaVuSans-34"/>
       <use xlink:href="#DejaVuSans-30" x="63.623047"/>
      </g>
     </g>
    </g>
    <g id="ytick_2">
     <g id="line2d_11">
      <g>
       <use xlink:href="#mdc8467248d" x="54" y="210.842209" style="stroke: #000000; stroke-width: 0.8"/>
      </g>
     </g>
     <g id="text_11">
      <!-- 50 -->
      <g transform="translate(34.275 214.641428)scale(0.1 -0.1)">
       <use xlink:href="#DejaVuSans-35"/>
       <use xlink:href="#DejaVuSans-30" x="63.623047"/>
      </g>
     </g>
    </g>
    <g id="ytick_3">
     <g id="line2d_12">
      <g>
       <use xlink:href="#mdc8467248d" x="54" y="177.393915" style="stroke: #000000; stroke-width: 0.8"/>
      </g>
     </g>
     <g id="text_12">
      <!-- 60 -->
      <g transform="translate(34.275 181.193134)scale(0.1 -0.1)">
       <defs>
        <path id="DejaVuSans-36" d="M 2113 2584 
Q 1688 2584 1439 2293 
Q 1191 2003 1191 1497 
Q 1191 994 1439 701 
Q 1688 409 2113 409 
Q 2538 409 2786 701 
Q 3034 994 3034 1497 
Q 3034 2003 2786 2293 
Q 2538 2584 2113 2584 
z
M 3366 4563 
L 3366 3988 
Q 3128 4100 2886 4159 
Q 2644 4219 2406 4219 
Q 1781 4219 1451 3797 
Q 1122 3375 1075 2522 
Q 1259 2794 1537 2939 
Q 1816 3084 2150 3084 
Q 2853 3084 3261 2657 
Q 3669 2231 3669 1497 
Q 3669 778 3244 343 
Q 2819 -91 2113 -91 
Q 1303 -91 875 529 
Q 447 1150 447 2328 
Q 447 3434 972 4092 
Q 1497 4750 2381 4750 
Q 2619 4750 2861 4703 
Q 3103 4656 3366 4563 
z
" transform="scale(0.015625)"/>
       </defs>
       <use xlink:href="#DejaVuSans-36"/>
       <use xlink:href="#DejaVuSans-30" x="63.623047"/>
      </g>
     </g>
    </g>
    <g id="ytick_4">
     <g id="line2d_13">
      <g>
       <use xlink:href="#mdc8467248d" x="54" y="143.945621" style="stroke: #000000; stroke-width: 0.8"/>
      </g>
     </g>
     <g id="text_13">
      <!-- 70 -->
      <g transform="translate(34.275 147.74484)scale(0.1 -0.1)">
       <use xlink:href="#DejaVuSans-37"/>
       <use xlink:href="#DejaVuSans-30" x="63.623047"/>
      </g>
     </g>
    </g>
    <g id="ytick_5">
     <g id="line2d_14">
      <g>
       <use xlink:href="#mdc8467248d" x="54" y="110.497327" style="stroke: #000000; stroke-width: 0.8"/>
      </g>
     </g>
     <g id="text_14">
      <!-- 80 -->
      <g transform="translate(34.275 114.296546)scale(0.1 -0.1)">
       <defs>
        <path id="DejaVuSans-38" d="M 2034 2216 
Q 1584 2216 1326 1975 
Q 1069 1734 1069 1313 
Q 1069 891 1326 650 
Q 1584 409 2034 409 
Q 2484 409 2743 651 
Q 3003 894 3003 1313 
Q 3003 1734 2745 1975 
Q 2488 2216 2034 2216 
z
M 1403 2484 
Q 997 2584 770 2862 
Q 544 3141 544 3541 
Q 544 4100 942 4425 
Q 1341 4750 2034 4750 
Q 2731 4750 3128 4425 
Q 3525 4100 3525 3541 
Q 3525 3141 3298 2862 
Q 3072 2584 2669 2484 
Q 3125 2378 3379 2068 
Q 3634 1759 3634 1313 
Q 3634 634 3220 271 
Q 2806 -91 2034 -91 
Q 1263 -91 848 271 
Q 434 634 434 1313 
Q 434 1759 690 2068 
Q 947 2378 1403 2484 
z
M 1172 3481 
Q 1172 3119 1398 2916 
Q 1625 2713 2034 2713 
Q 2441 2713 2670 2916 
Q 2900 3119 2900 3481 
Q 2900 3844 2670 4047 
Q 2441 4250 2034 4250 
Q 1625 4250 1398 4047 
Q 1172 3844 1172 3481 
z
" transform="scale(0.015625)"/>
       </defs>
       <use xlink:href="#DejaVuSans-38"/>
       <use xlink:href="#DejaVuSans-30" x="63.623047"/>
      </g>
     </g>
    </g>
    <g id="ytick_6">
     <g id="line2d_15">
      <g>
       <use xlink:href="#mdc8467248d" x="54" y="77.049033" style="stroke: #000000; stroke-width: 0.8"/>
      </g>
     </g>
     <g id="text_15">
      <!-- 90 -->
      <g transform="translate(34.275 80.848252)scale(0.1 -0.1)">
       <defs>
        <path id="DejaVuSans-39" d="M 703 97 
L 703 672 
Q 941 559 1184 500 
Q 1428 441 1663 441 
Q 2288 441 2617 861 
Q 2947 1281 2994 2138 
Q 2813 1869 2534 1725 
Q 2256 1581 1919 1581 
Q 1219 1581 811 2004 
Q 403 2428 403 3163 
Q 403 3881 828 4315 
Q 1253 4750 1959 4750 
Q 2769 4750 3195 4129 
Q 3622 3509 3622 2328 
Q 3622 1225 3098 567 
Q 2575 -91 1691 -91 
Q 1453 -91 1209 -44 
Q 966 3 703 97 
z
M 1959 2075 
Q 2384 2075 2632 2365 
Q 2881 2656 2881 3163 
Q 2881 3666 2632 3958 
Q 2384 4250 1959 4250 
Q 1534 4250 1286 3958 
Q 1038 3666 1038 3163 
Q 1038 2656 1286 2365 
Q 1534 2075 1959 2075 
z
" transform="scale(0.015625)"/>
       </defs>
       <use xlink:href="#DejaVuSans-39"/>
       <use xlink:href="#DejaVuSans-30" x="63.623047"/>
      </g>
     </g>
    </g>
    <g id="ytick_7">
     <g id="line2d_16">
      <g>
       <use xlink:href="#mdc8467248d" x="54" y="43.600739" style="stroke: #000000; stroke-width: 0.8"/>
      </g>
     </g>
     <g id="text_16">
      <!-- 100 -->
      <g transform="translate(27.9125 47.399958)scale(0.1 -0.1)">
       <use xlink:href="#DejaVuSans-31"/>
       <use xlink:href="#DejaVuSans-30" x="63.623047"/>
       <use xlink:href="#DejaVuSans-30" x="127.246094"/>
      </g>
     </g>
    </g>
    <g id="text_17">
     <!-- Accuracy -->
     <g transform="translate(21.832812 166.108125)rotate(-90)scale(0.1 -0.1)">
      <defs>
       <path id="DejaVuSans-41" d="M 2188 4044 
L 1331 1722 
L 3047 1722 
L 2188 4044 
z
M 1831 4666 
L 2547 4666 
L 4325 0 
L 3669 0 
L 3244 1197 
L 1141 1197 
L 716 0 
L 50 0 
L 1831 4666 
z
" transform="scale(0.015625)"/>
       <path id="DejaVuSans-63" d="M 3122 3366 
L 3122 2828 
Q 2878 2963 2633 3030 
Q 2388 3097 2138 3097 
Q 1578 3097 1268 2742 
Q 959 2388 959 1747 
Q 959 1106 1268 751 
Q 1578 397 2138 397 
Q 2388 397 2633 464 
Q 2878 531 3122 666 
L 3122 134 
Q 2881 22 2623 -34 
Q 2366 -91 2075 -91 
Q 1284 -91 818 406 
Q 353 903 353 1747 
Q 353 2603 823 3093 
Q 1294 3584 2113 3584 
Q 2378 3584 2631 3529 
Q 2884 3475 3122 3366 
z
" transform="scale(0.015625)"/>
       <path id="DejaVuSans-75" d="M 544 1381 
L 544 3500 
L 1119 3500 
L 1119 1403 
Q 1119 906 1312 657 
Q 1506 409 1894 409 
Q 2359 409 2629 706 
Q 2900 1003 2900 1516 
L 2900 3500 
L 3475 3500 
L 3475 0 
L 2900 0 
L 2900 538 
Q 2691 219 2414 64 
Q 2138 -91 1772 -91 
Q 1169 -91 856 284 
Q 544 659 544 1381 
z
M 1991 3584 
L 1991 3584 
z
" transform="scale(0.015625)"/>
       <path id="DejaVuSans-72" d="M 2631 2963 
Q 2534 3019 2420 3045 
Q 2306 3072 2169 3072 
Q 1681 3072 1420 2755 
Q 1159 2438 1159 1844 
L 1159 0 
L 581 0 
L 581 3500 
L 1159 3500 
L 1159 2956 
Q 1341 3275 1631 3429 
Q 1922 3584 2338 3584 
Q 2397 3584 2469 3576 
Q 2541 3569 2628 3553 
L 2631 2963 
z
" transform="scale(0.015625)"/>
       <path id="DejaVuSans-61" d="M 2194 1759 
Q 1497 1759 1228 1600 
Q 959 1441 959 1056 
Q 959 750 1161 570 
Q 1363 391 1709 391 
Q 2188 391 2477 730 
Q 2766 1069 2766 1631 
L 2766 1759 
L 2194 1759 
z
M 3341 1997 
L 3341 0 
L 2766 0 
L 2766 531 
Q 2569 213 2275 61 
Q 1981 -91 1556 -91 
Q 1019 -91 701 211 
Q 384 513 384 1019 
Q 384 1609 779 1909 
Q 1175 2209 1959 2209 
L 2766 2209 
L 2766 2266 
Q 2766 2663 2505 2880 
Q 2244 3097 1772 3097 
Q 1472 3097 1187 3025 
Q 903 2953 641 2809 
L 641 3341 
Q 956 3463 1253 3523 
Q 1550 3584 1831 3584 
Q 2591 3584 2966 3190 
Q 3341 2797 3341 1997 
z
" transform="scale(0.015625)"/>
       <path id="DejaVuSans-79" d="M 2059 -325 
Q 1816 -950 1584 -1140 
Q 1353 -1331 966 -1331 
L 506 -1331 
L 506 -850 
L 844 -850 
Q 1081 -850 1212 -737 
Q 1344 -625 1503 -206 
L 1606 56 
L 191 3500 
L 800 3500 
L 1894 763 
L 2988 3500 
L 3597 3500 
L 2059 -325 
z
" transform="scale(0.015625)"/>
      </defs>
      <use xlink:href="#DejaVuSans-41"/>
      <use xlink:href="#DejaVuSans-63" x="66.658203"/>
      <use xlink:href="#DejaVuSans-63" x="121.638672"/>
      <use xlink:href="#DejaVuSans-75" x="176.619141"/>
      <use xlink:href="#DejaVuSans-72" x="239.998047"/>
      <use xlink:href="#DejaVuSans-61" x="281.111328"/>
      <use xlink:href="#DejaVuSans-63" x="342.390625"/>
      <use xlink:href="#DejaVuSans-79" x="397.371094"/>
     </g>
    </g>
   </g>
   <g id="line2d_17">
    <path d="M 69.218182 242.116364 
L 70.747647 203.396619 
L 72.277113 183.093504 
L 73.806578 169.740945 
L 75.336044 162.241838 
L 76.865509 156.341559 
L 78.394975 149.498038 
L 81.453906 141.048999 
L 82.983371 137.510169 
L 86.042302 131.904235 
L 90.630699 123.943541 
L 92.160164 122.20423 
L 93.68963 119.387884 
L 95.219095 118.230573 
L 96.748561 117.347538 
L 99.807492 112.872156 
L 101.336958 111.955673 
L 104.395889 108.303119 
L 105.925354 106.791256 
L 107.45482 106.503601 
L 108.984285 104.891393 
L 110.513751 104.255876 
L 112.043216 102.871116 
L 113.572682 100.509667 
L 115.102147 100.088218 
L 118.161078 97.746838 
L 119.690544 96.141319 
L 121.220009 95.070974 
L 122.749475 94.234767 
L 124.27894 93.646077 
L 125.808406 92.589111 
L 127.337871 91.344834 
L 128.867337 89.638971 
L 130.396802 89.324557 
L 131.926268 88.254212 
L 133.455733 87.799315 
L 134.985199 86.889521 
L 136.514664 85.451245 
L 139.573595 84.307313 
L 141.103061 82.762002 
L 142.632526 81.972622 
L 144.161992 81.511036 
L 145.691457 80.434001 
L 147.220923 79.831931 
L 148.750388 78.667931 
L 150.279854 78.226413 
L 151.809319 77.30324 
L 153.338785 76.768068 
L 156.397716 75.109032 
L 157.927181 75.015377 
L 159.456647 73.811238 
L 160.986112 73.122204 
L 162.515578 72.0251 
L 164.045043 71.677237 
L 165.574509 71.837789 
L 167.103974 71.315996 
L 168.63344 69.67034 
L 170.162905 69.723857 
L 171.692371 68.814063 
L 173.221836 68.104959 
L 174.751302 67.188476 
L 176.280767 66.860683 
L 177.810233 66.004407 
L 179.339698 65.763579 
L 182.39863 64.693233 
L 183.928095 64.439026 
L 185.457561 63.261647 
L 186.987026 63.435578 
L 188.516492 62.492336 
L 190.045957 61.923715 
L 191.575423 62.40537 
L 193.104888 61.769853 
L 194.634354 60.913576 
L 196.163819 60.485438 
L 197.693285 60.291438 
L 199.22275 59.595713 
L 200.752216 59.201024 
L 202.281681 58.632403 
L 203.811147 58.866541 
L 205.340612 58.057092 
L 206.870078 58.037023 
L 209.929009 56.92654 
L 211.458474 57.334609 
L 212.98794 56.090332 
L 214.517405 56.123781 
L 216.046871 55.74247 
L 217.576336 55.106952 
L 220.635267 54.652056 
L 222.164733 54.725642 
L 225.223664 54.18378 
L 226.753129 53.601779 
L 228.282595 53.501434 
L 229.81206 53.528193 
L 231.341526 53.133503 
L 232.870991 52.531434 
L 234.400457 52.471227 
L 237.459388 52.02302 
L 238.988853 51.534675 
L 242.047784 51.327295 
L 243.57725 50.952674 
L 245.106715 51.267088 
L 246.636181 50.966054 
L 248.165646 50.410812 
L 255.812974 49.494329 
L 257.342439 49.761915 
L 258.871905 49.781984 
L 260.40137 48.939087 
L 261.930836 49.092949 
L 264.989767 48.87888 
L 266.519233 48.350397 
L 268.048698 48.785225 
L 269.578164 48.216604 
L 271.107629 48.470811 
L 272.637095 47.862052 
L 277.225491 47.614535 
L 278.754957 47.32019 
L 280.284422 47.213155 
L 281.813888 47.360328 
L 283.343353 47.233224 
L 284.872819 46.972327 
L 289.461215 46.811776 
L 290.990681 46.557569 
L 294.049612 46.463913 
L 295.579077 46.644534 
L 297.108543 46.13612 
L 298.638008 46.316741 
L 300.167474 46.310051 
L 301.696939 46.082603 
L 306.285336 45.794947 
L 307.814801 45.513982 
L 309.344267 45.714672 
L 310.873732 45.587568 
L 312.403198 45.634396 
L 313.932663 45.427016 
L 315.462129 45.400258 
L 316.991594 45.520671 
L 324.638922 45.052395 
L 327.697853 45.072464 
L 330.756784 44.978809 
L 332.286249 45.045706 
L 335.34518 44.75805 
L 336.874646 44.858395 
L 338.404111 44.791499 
L 341.463042 44.851706 
L 342.992508 44.550671 
L 346.051439 44.590809 
L 347.580905 44.791499 
L 350.639836 44.597499 
L 352.169301 44.56405 
L 353.698767 44.664395 
L 358.287163 44.510533 
L 361.346094 44.664395 
L 367.463956 44.477085 
L 368.993422 44.677774 
L 370.522887 44.617567 
L 372.052353 44.443636 
L 373.581818 44.457016 
L 373.581818 44.457016 
" clip-path="url(#p9dc2891a8b)" style="fill: none; stroke: #1f77b4; stroke-width: 1.5; stroke-linecap: square"/>
   </g>
   <g id="line2d_18">
    <path d="M 69.218182 205.155999 
L 70.747647 181.073227 
L 72.277113 165.820805 
L 75.336044 153.511833 
L 76.865509 143.544242 
L 78.394975 143.544242 
L 79.92444 138.292859 
L 81.453906 137.89148 
L 82.983371 131.134924 
L 84.512837 133.074926 
L 86.042302 128.893889 
L 87.571768 126.184577 
L 89.101233 126.151129 
L 90.630699 126.820095 
L 92.160164 121.769402 
L 93.68963 117.789055 
L 95.219095 121.80285 
L 96.748561 119.896298 
L 98.278026 114.74526 
L 99.807492 117.253883 
L 101.336958 117.655262 
L 102.866423 115.748709 
L 104.395889 113.541122 
L 105.925354 112.939053 
L 107.45482 112.872156 
L 108.984285 115.280433 
L 112.043216 111.567673 
L 113.572682 113.608018 
L 115.102147 111.333534 
L 118.161078 108.724568 
L 119.690544 110.63112 
L 121.220009 107.219394 
L 122.749475 108.557326 
L 124.27894 107.152498 
L 125.808406 108.390085 
L 127.337871 108.858361 
L 128.867337 108.390085 
L 130.396802 107.453532 
L 131.926268 107.453532 
L 133.455733 107.152498 
L 134.985199 106.416635 
L 136.514664 105.480083 
L 138.04413 105.078704 
L 139.573595 104.409738 
L 141.103061 103.97491 
L 142.632526 105.814566 
L 144.161992 103.77422 
L 145.691457 106.851463 
L 147.220923 104.443186 
L 148.750388 104.376289 
L 150.279854 104.142151 
L 151.809319 106.249394 
L 153.338785 107.052153 
L 154.86825 105.312842 
L 156.397716 106.751118 
L 157.927181 104.275944 
L 159.456647 106.751118 
L 160.986112 104.275944 
L 162.515578 105.480083 
L 164.045043 105.078704 
L 165.574509 105.212497 
L 167.103974 106.784567 
L 168.63344 103.473185 
L 170.162905 103.439737 
L 171.692371 105.446635 
L 173.221836 106.851463 
L 174.751302 105.078704 
L 176.280767 102.737323 
L 177.810233 105.212497 
L 179.339698 106.048704 
L 180.869164 106.249394 
L 182.39863 104.844565 
L 183.928095 104.075255 
L 185.457561 104.342841 
L 186.987026 103.673875 
L 188.516492 105.747669 
L 190.045957 104.610427 
L 191.575423 105.613876 
L 193.104888 104.878014 
L 194.634354 103.97491 
L 196.163819 104.075255 
L 197.693285 104.710772 
L 199.22275 104.710772 
L 200.752216 104.008358 
L 202.281681 105.245945 
L 203.811147 104.510083 
L 205.340612 103.239047 
L 206.870078 105.212497 
L 208.399543 105.34629 
L 209.929009 106.583877 
L 211.458474 105.279393 
L 212.98794 105.480083 
L 214.517405 105.480083 
L 216.046871 103.874565 
L 217.576336 104.041806 
L 219.105802 105.045255 
L 220.635267 104.1756 
L 222.164733 104.309393 
L 223.694198 104.710772 
L 225.223664 106.71767 
L 226.753129 103.272496 
L 228.282595 104.443186 
L 229.81206 104.409738 
L 231.341526 103.272496 
L 234.400457 106.048704 
L 235.929922 104.978359 
L 237.459388 105.781118 
L 238.988853 105.513531 
L 240.518319 102.670426 
L 242.047784 102.871116 
L 243.57725 104.677324 
L 245.106715 105.011807 
L 246.636181 104.008358 
L 248.165646 104.409738 
L 249.695112 105.513531 
L 251.224577 105.212497 
L 252.754043 104.1756 
L 254.283508 105.245945 
L 255.812974 104.342841 
L 257.342439 104.710772 
L 258.871905 103.740772 
L 260.40137 102.269047 
L 261.930836 104.744221 
L 263.460302 104.409738 
L 264.989767 103.105254 
L 266.519233 104.142151 
L 268.048698 105.34629 
L 269.578164 103.97491 
L 271.107629 103.205599 
L 272.637095 103.941462 
L 274.16656 104.142151 
L 277.225491 103.807668 
L 278.754957 104.510083 
L 280.284422 103.239047 
L 281.813888 104.209048 
L 283.343353 103.506634 
L 284.872819 105.011807 
L 286.402284 103.540082 
L 287.93175 102.302495 
L 289.461215 103.606979 
L 290.990681 102.938013 
L 292.520146 104.309393 
L 294.049612 105.212497 
L 295.579077 103.004909 
L 297.108543 102.904564 
L 298.638008 102.636978 
L 300.167474 102.837668 
L 303.226405 103.406289 
L 304.75587 103.57353 
L 306.285336 104.409738 
L 307.814801 103.272496 
L 309.344267 103.707323 
L 310.873732 103.372841 
L 312.403198 103.272496 
L 313.932663 103.707323 
L 315.462129 102.737323 
L 316.991594 103.439737 
L 318.52106 102.636978 
L 320.050525 104.1756 
L 321.579991 103.57353 
L 323.109456 103.239047 
L 324.638922 103.77422 
L 327.697853 102.636978 
L 330.756784 103.138702 
L 332.286249 103.105254 
L 333.815715 103.239047 
L 335.34518 103.874565 
L 336.874646 103.138702 
L 338.404111 103.239047 
L 339.933577 102.837668 
L 341.463042 103.439737 
L 342.992508 103.540082 
L 344.521974 103.339392 
L 346.051439 103.57353 
L 347.580905 103.540082 
L 349.11037 103.673875 
L 350.639836 103.172151 
L 352.169301 103.439737 
L 353.698767 103.239047 
L 355.228232 102.837668 
L 356.757698 103.205599 
L 358.287163 102.871116 
L 359.816629 103.038358 
L 361.346094 102.938013 
L 362.87556 103.172151 
L 365.934491 103.038358 
L 367.463956 103.305944 
L 370.522887 103.038358 
L 373.581818 103.038358 
L 373.581818 103.038358 
" clip-path="url(#p9dc2891a8b)" style="fill: none; stroke: #ff7f0e; stroke-width: 1.5; stroke-linecap: square"/>
   </g>
   <g id="patch_3">
    <path d="M 54 252 
L 54 34.56 
" style="fill: none; stroke: #000000; stroke-width: 0.8; stroke-linejoin: miter; stroke-linecap: square"/>
   </g>
   <g id="patch_4">
    <path d="M 388.8 252 
L 388.8 34.56 
" style="fill: none; stroke: #000000; stroke-width: 0.8; stroke-linejoin: miter; stroke-linecap: square"/>
   </g>
   <g id="patch_5">
    <path d="M 54 252 
L 388.8 252 
" style="fill: none; stroke: #000000; stroke-width: 0.8; stroke-linejoin: miter; stroke-linecap: square"/>
   </g>
   <g id="patch_6">
    <path d="M 54 34.56 
L 388.8 34.56 
" style="fill: none; stroke: #000000; stroke-width: 0.8; stroke-linejoin: miter; stroke-linecap: square"/>
   </g>
   <g id="legend_1">
    <g id="patch_7">
     <path d="M 61 71.91625 
L 116.275 71.91625 
Q 118.275 71.91625 118.275 69.91625 
L 118.275 41.56 
Q 118.275 39.56 116.275 39.56 
L 61 39.56 
Q 59 39.56 59 41.56 
L 59 69.91625 
Q 59 71.91625 61 71.91625 
z
" style="fill: #ffffff; opacity: 0.8; stroke: #cccccc; stroke-linejoin: miter"/>
    </g>
    <g id="line2d_19">
     <path d="M 63 47.658437 
L 73 47.658437 
L 83 47.658437 
" style="fill: none; stroke: #1f77b4; stroke-width: 1.5; stroke-linecap: square"/>
    </g>
    <g id="text_18">
     <!-- train -->
     <g transform="translate(91 51.158437)scale(0.1 -0.1)">
      <defs>
       <path id="DejaVuSans-74" d="M 1172 4494 
L 1172 3500 
L 2356 3500 
L 2356 3053 
L 1172 3053 
L 1172 1153 
Q 1172 725 1289 603 
Q 1406 481 1766 481 
L 2356 481 
L 2356 0 
L 1766 0 
Q 1100 0 847 248 
Q 594 497 594 1153 
L 594 3053 
L 172 3053 
L 172 3500 
L 594 3500 
L 594 4494 
L 1172 4494 
z
" transform="scale(0.015625)"/>
       <path id="DejaVuSans-69" d="M 603 3500 
L 1178 3500 
L 1178 0 
L 603 0 
L 603 3500 
z
M 603 4863 
L 1178 4863 
L 1178 4134 
L 603 4134 
L 603 4863 
z
" transform="scale(0.015625)"/>
       <path id="DejaVuSans-6e" d="M 3513 2113 
L 3513 0 
L 2938 0 
L 2938 2094 
Q 2938 2591 2744 2837 
Q 2550 3084 2163 3084 
Q 1697 3084 1428 2787 
Q 1159 2491 1159 1978 
L 1159 0 
L 581 0 
L 581 3500 
L 1159 3500 
L 1159 2956 
Q 1366 3272 1645 3428 
Q 1925 3584 2291 3584 
Q 2894 3584 3203 3211 
Q 3513 2838 3513 2113 
z
" transform="scale(0.015625)"/>
      </defs>
      <use xlink:href="#DejaVuSans-74"/>
      <use xlink:href="#DejaVuSans-72" x="39.208984"/>
      <use xlink:href="#DejaVuSans-61" x="80.322266"/>
      <use xlink:href="#DejaVuSans-69" x="141.601562"/>
      <use xlink:href="#DejaVuSans-6e" x="169.384766"/>
     </g>
    </g>
    <g id="line2d_20">
     <path d="M 63 62.336562 
L 73 62.336562 
L 83 62.336562 
" style="fill: none; stroke: #ff7f0e; stroke-width: 1.5; stroke-linecap: square"/>
    </g>
    <g id="text_19">
     <!-- test -->
     <g transform="translate(91 65.836562)scale(0.1 -0.1)">
      <defs>
       <path id="DejaVuSans-65" d="M 3597 1894 
L 3597 1613 
L 953 1613 
Q 991 1019 1311 708 
Q 1631 397 2203 397 
Q 2534 397 2845 478 
Q 3156 559 3463 722 
L 3463 178 
Q 3153 47 2828 -22 
Q 2503 -91 2169 -91 
Q 1331 -91 842 396 
Q 353 884 353 1716 
Q 353 2575 817 3079 
Q 1281 3584 2069 3584 
Q 2775 3584 3186 3129 
Q 3597 2675 3597 1894 
z
M 3022 2063 
Q 3016 2534 2758 2815 
Q 2500 3097 2075 3097 
Q 1594 3097 1305 2825 
Q 1016 2553 972 2059 
L 3022 2063 
z
" transform="scale(0.015625)"/>
       <path id="DejaVuSans-73" d="M 2834 3397 
L 2834 2853 
Q 2591 2978 2328 3040 
Q 2066 3103 1784 3103 
Q 1356 3103 1142 2972 
Q 928 2841 928 2578 
Q 928 2378 1081 2264 
Q 1234 2150 1697 2047 
L 1894 2003 
Q 2506 1872 2764 1633 
Q 3022 1394 3022 966 
Q 3022 478 2636 193 
Q 2250 -91 1575 -91 
Q 1294 -91 989 -36 
Q 684 19 347 128 
L 347 722 
Q 666 556 975 473 
Q 1284 391 1588 391 
Q 1994 391 2212 530 
Q 2431 669 2431 922 
Q 2431 1156 2273 1281 
Q 2116 1406 1581 1522 
L 1381 1569 
Q 847 1681 609 1914 
Q 372 2147 372 2553 
Q 372 3047 722 3315 
Q 1072 3584 1716 3584 
Q 2034 3584 2315 3537 
Q 2597 3491 2834 3397 
z
" transform="scale(0.015625)"/>
      </defs>
      <use xlink:href="#DejaVuSans-74"/>
      <use xlink:href="#DejaVuSans-65" x="39.208984"/>
      <use xlink:href="#DejaVuSans-73" x="100.732422"/>
      <use xlink:href="#DejaVuSans-74" x="152.832031"/>
     </g>
    </g>
   </g>
  </g>
 </g>
 <defs>
  <clipPath id="p9dc2891a8b">
   <rect x="54" y="34.56" width="334.8" height="217.44"/>
  </clipPath>
 </defs>
</svg>
