<?xml version="1.0" encoding="utf-8" standalone="no"?>
<!DOCTYPE svg PUBLIC "-//W3C//DTD SVG 1.1//EN"
  "http://www.w3.org/Graphics/SVG/1.1/DTD/svg11.dtd">
<svg xmlns:xlink="http://www.w3.org/1999/xlink" width="432pt" height="288pt" viewBox="0 0 432 288" xmlns="http://www.w3.org/2000/svg" version="1.1">
 <metadata>
  <rdf:RDF xmlns:dc="http://purl.org/dc/elements/1.1/" xmlns:cc="http://creativecommons.org/ns#" xmlns:rdf="http://www.w3.org/1999/02/22-rdf-syntax-ns#">
   <cc:Work>
    <dc:type rdf:resource="http://purl.org/dc/dcmitype/StillImage"/>
    <dc:date>2022-10-07T13:33:24.475959</dc:date>
    <dc:format>image/svg+xml</dc:format>
    <dc:creator>
     <cc:Agent>
      <dc:title>Matplotlib v3.5.2, https://matplotlib.org/</dc:title>
     </cc:Agent>
    </dc:creator>
   </cc:Work>
  </rdf:RDF>
 </metadata>
 <defs>
  <style type="text/css">*{stroke-linejoin: round; stroke-linecap: butt}</style>
 </defs>
 <g id="figure_1">
  <g id="patch_1">
   <path d="M 0 288 
L 432 288 
L 432 0 
L 0 0 
L 0 288 
z
" style="fill: none"/>
  </g>
  <g id="axes_1">
   <g id="patch_2">
    <path d="M 54 252 
L 388.8 252 
L 388.8 34.56 
L 54 34.56 
z
" style="fill: #ffffff"/>
   </g>
   <g id="matplotlib.axis_1">
    <g id="xtick_1">
     <g id="line2d_1">
      <defs>
       <path id="mcc987c8f2d" d="M 0 0 
L 0 3.5 
" style="stroke: #000000; stroke-width: 0.8"/>
      </defs>
      <g>
       <use xlink:href="#mcc987c8f2d" x="69.218182" y="252" style="stroke: #000000; stroke-width: 0.8"/>
      </g>
     </g>
     <g id="text_1">
      <!-- 0 -->
      <g transform="translate(66.036932 266.598437)scale(0.1 -0.1)">
       <defs>
        <path id="DejaVuSans-30" d="M 2034 4250 
Q 1547 4250 1301 3770 
Q 1056 3291 1056 2328 
Q 1056 1369 1301 889 
Q 1547 409 2034 409 
Q 2525 409 2770 889 
Q 3016 1369 3016 2328 
Q 3016 3291 2770 3770 
Q 2525 4250 2034 4250 
z
M 2034 4750 
Q 2819 4750 3233 4129 
Q 3647 3509 3647 2328 
Q 3647 1150 3233 529 
Q 2819 -91 2034 -91 
Q 1250 -91 836 529 
Q 422 1150 422 2328 
Q 422 3509 836 4129 
Q 1250 4750 2034 4750 
z
" transform="scale(0.015625)"/>
       </defs>
       <use xlink:href="#DejaVuSans-30"/>
      </g>
     </g>
    </g>
    <g id="xtick_2">
     <g id="line2d_2">
      <g>
       <use xlink:href="#mcc987c8f2d" x="107.45482" y="252" style="stroke: #000000; stroke-width: 0.8"/>
      </g>
     </g>
     <g id="text_2">
      <!-- 25 -->
      <g transform="translate(101.09232 266.598437)scale(0.1 -0.1)">
       <defs>
        <path id="DejaVuSans-32" d="M 1228 531 
L 3431 531 
L 3431 0 
L 469 0 
L 469 531 
Q 828 903 1448 1529 
Q 2069 2156 2228 2338 
Q 2531 2678 2651 2914 
Q 2772 3150 2772 3378 
Q 2772 3750 2511 3984 
Q 2250 4219 1831 4219 
Q 1534 4219 1204 4116 
Q 875 4013 500 3803 
L 500 4441 
Q 881 4594 1212 4672 
Q 1544 4750 1819 4750 
Q 2544 4750 2975 4387 
Q 3406 4025 3406 3419 
Q 3406 3131 3298 2873 
Q 3191 2616 2906 2266 
Q 2828 2175 2409 1742 
Q 1991 1309 1228 531 
z
" transform="scale(0.015625)"/>
        <path id="DejaVuSans-35" d="M 691 4666 
L 3169 4666 
L 3169 4134 
L 1269 4134 
L 1269 2991 
Q 1406 3038 1543 3061 
Q 1681 3084 1819 3084 
Q 2600 3084 3056 2656 
Q 3513 2228 3513 1497 
Q 3513 744 3044 326 
Q 2575 -91 1722 -91 
Q 1428 -91 1123 -41 
Q 819 9 494 109 
L 494 744 
Q 775 591 1075 516 
Q 1375 441 1709 441 
Q 2250 441 2565 725 
Q 2881 1009 2881 1497 
Q 2881 1984 2565 2268 
Q 2250 2553 1709 2553 
Q 1456 2553 1204 2497 
Q 953 2441 691 2322 
L 691 4666 
z
" transform="scale(0.015625)"/>
       </defs>
       <use xlink:href="#DejaVuSans-32"/>
       <use xlink:href="#DejaVuSans-35" x="63.623047"/>
      </g>
     </g>
    </g>
    <g id="xtick_3">
     <g id="line2d_3">
      <g>
       <use xlink:href="#mcc987c8f2d" x="145.691457" y="252" style="stroke: #000000; stroke-width: 0.8"/>
      </g>
     </g>
     <g id="text_3">
      <!-- 50 -->
      <g transform="translate(139.328957 266.598437)scale(0.1 -0.1)">
       <use xlink:href="#DejaVuSans-35"/>
       <use xlink:href="#DejaVuSans-30" x="63.623047"/>
      </g>
     </g>
    </g>
    <g id="xtick_4">
     <g id="line2d_4">
      <g>
       <use xlink:href="#mcc987c8f2d" x="183.928095" y="252" style="stroke: #000000; stroke-width: 0.8"/>
      </g>
     </g>
     <g id="text_4">
      <!-- 75 -->
      <g transform="translate(177.565595 266.598437)scale(0.1 -0.1)">
       <defs>
        <path id="DejaVuSans-37" d="M 525 4666 
L 3525 4666 
L 3525 4397 
L 1831 0 
L 1172 0 
L 2766 4134 
L 525 4134 
L 525 4666 
z
" transform="scale(0.015625)"/>
       </defs>
       <use xlink:href="#DejaVuSans-37"/>
       <use xlink:href="#DejaVuSans-35" x="63.623047"/>
      </g>
     </g>
    </g>
    <g id="xtick_5">
     <g id="line2d_5">
      <g>
       <use xlink:href="#mcc987c8f2d" x="222.164733" y="252" style="stroke: #000000; stroke-width: 0.8"/>
      </g>
     </g>
     <g id="text_5">
      <!-- 100 -->
      <g transform="translate(212.620983 266.598437)scale(0.1 -0.1)">
       <defs>
        <path id="DejaVuSans-31" d="M 794 531 
L 1825 531 
L 1825 4091 
L 703 3866 
L 703 4441 
L 1819 4666 
L 2450 4666 
L 2450 531 
L 3481 531 
L 3481 0 
L 794 0 
L 794 531 
z
" transform="scale(0.015625)"/>
       </defs>
       <use xlink:href="#DejaVuSans-31"/>
       <use xlink:href="#DejaVuSans-30" x="63.623047"/>
       <use xlink:href="#DejaVuSans-30" x="127.246094"/>
      </g>
     </g>
    </g>
    <g id="xtick_6">
     <g id="line2d_6">
      <g>
       <use xlink:href="#mcc987c8f2d" x="260.40137" y="252" style="stroke: #000000; stroke-width: 0.8"/>
      </g>
     </g>
     <g id="text_6">
      <!-- 125 -->
      <g transform="translate(250.85762 266.598437)scale(0.1 -0.1)">
       <use xlink:href="#DejaVuSans-31"/>
       <use xlink:href="#DejaVuSans-32" x="63.623047"/>
       <use xlink:href="#DejaVuSans-35" x="127.246094"/>
      </g>
     </g>
    </g>
    <g id="xtick_7">
     <g id="line2d_7">
      <g>
       <use xlink:href="#mcc987c8f2d" x="298.638008" y="252" style="stroke: #000000; stroke-width: 0.8"/>
      </g>
     </g>
     <g id="text_7">
      <!-- 150 -->
      <g transform="translate(289.094258 266.598437)scale(0.1 -0.1)">
       <use xlink:href="#DejaVuSans-31"/>
       <use xlink:href="#DejaVuSans-35" x="63.623047"/>
       <use xlink:href="#DejaVuSans-30" x="127.246094"/>
      </g>
     </g>
    </g>
    <g id="xtick_8">
     <g id="line2d_8">
      <g>
       <use xlink:href="#mcc987c8f2d" x="336.874646" y="252" style="stroke: #000000; stroke-width: 0.8"/>
      </g>
     </g>
     <g id="text_8">
      <!-- 175 -->
      <g transform="translate(327.330896 266.598437)scale(0.1 -0.1)">
       <use xlink:href="#DejaVuSans-31"/>
       <use xlink:href="#DejaVuSans-37" x="63.623047"/>
       <use xlink:href="#DejaVuSans-35" x="127.246094"/>
      </g>
     </g>
    </g>
    <g id="xtick_9">
     <g id="line2d_9">
      <g>
       <use xlink:href="#mcc987c8f2d" x="375.111284" y="252" style="stroke: #000000; stroke-width: 0.8"/>
      </g>
     </g>
     <g id="text_9">
      <!-- 200 -->
      <g transform="translate(365.567534 266.598437)scale(0.1 -0.1)">
       <use xlink:href="#DejaVuSans-32"/>
       <use xlink:href="#DejaVuSans-30" x="63.623047"/>
       <use xlink:href="#DejaVuSans-30" x="127.246094"/>
      </g>
     </g>
    </g>
   </g>
   <g id="matplotlib.axis_2">
    <g id="ytick_1">
     <g id="line2d_10">
      <defs>
       <path id="m40a4ac34a7" d="M 0 0 
L -3.5 0 
" style="stroke: #000000; stroke-width: 0.8"/>
      </defs>
      <g>
       <use xlink:href="#m40a4ac34a7" x="54" y="247.139004" style="stroke: #000000; stroke-width: 0.8"/>
      </g>
     </g>
     <g id="text_10">
      <!-- 0.0 -->
      <g transform="translate(31.096875 250.938223)scale(0.1 -0.1)">
       <defs>
        <path id="DejaVuSans-2e" d="M 684 794 
L 1344 794 
L 1344 0 
L 684 0 
L 684 794 
z
" transform="scale(0.015625)"/>
       </defs>
       <use xlink:href="#DejaVuSans-30"/>
       <use xlink:href="#DejaVuSans-2e" x="63.623047"/>
       <use xlink:href="#DejaVuSans-30" x="95.410156"/>
      </g>
     </g>
    </g>
    <g id="ytick_2">
     <g id="line2d_11">
      <g>
       <use xlink:href="#m40a4ac34a7" x="54" y="222.548592" style="stroke: #000000; stroke-width: 0.8"/>
      </g>
     </g>
     <g id="text_11">
      <!-- 0.2 -->
      <g transform="translate(31.096875 226.347811)scale(0.1 -0.1)">
       <use xlink:href="#DejaVuSans-30"/>
       <use xlink:href="#DejaVuSans-2e" x="63.623047"/>
       <use xlink:href="#DejaVuSans-32" x="95.410156"/>
      </g>
     </g>
    </g>
    <g id="ytick_3">
     <g id="line2d_12">
      <g>
       <use xlink:href="#m40a4ac34a7" x="54" y="197.95818" style="stroke: #000000; stroke-width: 0.8"/>
      </g>
     </g>
     <g id="text_12">
      <!-- 0.4 -->
      <g transform="translate(31.096875 201.757399)scale(0.1 -0.1)">
       <defs>
        <path id="DejaVuSans-34" d="M 2419 4116 
L 825 1625 
L 2419 1625 
L 2419 4116 
z
M 2253 4666 
L 3047 4666 
L 3047 1625 
L 3713 1625 
L 3713 1100 
L 3047 1100 
L 3047 0 
L 2419 0 
L 2419 1100 
L 313 1100 
L 313 1709 
L 2253 4666 
z
" transform="scale(0.015625)"/>
       </defs>
       <use xlink:href="#DejaVuSans-30"/>
       <use xlink:href="#DejaVuSans-2e" x="63.623047"/>
       <use xlink:href="#DejaVuSans-34" x="95.410156"/>
      </g>
     </g>
    </g>
    <g id="ytick_4">
     <g id="line2d_13">
      <g>
       <use xlink:href="#m40a4ac34a7" x="54" y="173.367768" style="stroke: #000000; stroke-width: 0.8"/>
      </g>
     </g>
     <g id="text_13">
      <!-- 0.6 -->
      <g transform="translate(31.096875 177.166987)scale(0.1 -0.1)">
       <defs>
        <path id="DejaVuSans-36" d="M 2113 2584 
Q 1688 2584 1439 2293 
Q 1191 2003 1191 1497 
Q 1191 994 1439 701 
Q 1688 409 2113 409 
Q 2538 409 2786 701 
Q 3034 994 3034 1497 
Q 3034 2003 2786 2293 
Q 2538 2584 2113 2584 
z
M 3366 4563 
L 3366 3988 
Q 3128 4100 2886 4159 
Q 2644 4219 2406 4219 
Q 1781 4219 1451 3797 
Q 1122 3375 1075 2522 
Q 1259 2794 1537 2939 
Q 1816 3084 2150 3084 
Q 2853 3084 3261 2657 
Q 3669 2231 3669 1497 
Q 3669 778 3244 343 
Q 2819 -91 2113 -91 
Q 1303 -91 875 529 
Q 447 1150 447 2328 
Q 447 3434 972 4092 
Q 1497 4750 2381 4750 
Q 2619 4750 2861 4703 
Q 3103 4656 3366 4563 
z
" transform="scale(0.015625)"/>
       </defs>
       <use xlink:href="#DejaVuSans-30"/>
       <use xlink:href="#DejaVuSans-2e" x="63.623047"/>
       <use xlink:href="#DejaVuSans-36" x="95.410156"/>
      </g>
     </g>
    </g>
    <g id="ytick_5">
     <g id="line2d_14">
      <g>
       <use xlink:href="#m40a4ac34a7" x="54" y="148.777357" style="stroke: #000000; stroke-width: 0.8"/>
      </g>
     </g>
     <g id="text_14">
      <!-- 0.8 -->
      <g transform="translate(31.096875 152.576575)scale(0.1 -0.1)">
       <defs>
        <path id="DejaVuSans-38" d="M 2034 2216 
Q 1584 2216 1326 1975 
Q 1069 1734 1069 1313 
Q 1069 891 1326 650 
Q 1584 409 2034 409 
Q 2484 409 2743 651 
Q 3003 894 3003 1313 
Q 3003 1734 2745 1975 
Q 2488 2216 2034 2216 
z
M 1403 2484 
Q 997 2584 770 2862 
Q 544 3141 544 3541 
Q 544 4100 942 4425 
Q 1341 4750 2034 4750 
Q 2731 4750 3128 4425 
Q 3525 4100 3525 3541 
Q 3525 3141 3298 2862 
Q 3072 2584 2669 2484 
Q 3125 2378 3379 2068 
Q 3634 1759 3634 1313 
Q 3634 634 3220 271 
Q 2806 -91 2034 -91 
Q 1263 -91 848 271 
Q 434 634 434 1313 
Q 434 1759 690 2068 
Q 947 2378 1403 2484 
z
M 1172 3481 
Q 1172 3119 1398 2916 
Q 1625 2713 2034 2713 
Q 2441 2713 2670 2916 
Q 2900 3119 2900 3481 
Q 2900 3844 2670 4047 
Q 2441 4250 2034 4250 
Q 1625 4250 1398 4047 
Q 1172 3844 1172 3481 
z
" transform="scale(0.015625)"/>
       </defs>
       <use xlink:href="#DejaVuSans-30"/>
       <use xlink:href="#DejaVuSans-2e" x="63.623047"/>
       <use xlink:href="#DejaVuSans-38" x="95.410156"/>
      </g>
     </g>
    </g>
    <g id="ytick_6">
     <g id="line2d_15">
      <g>
       <use xlink:href="#m40a4ac34a7" x="54" y="124.186945" style="stroke: #000000; stroke-width: 0.8"/>
      </g>
     </g>
     <g id="text_15">
      <!-- 1.0 -->
      <g transform="translate(31.096875 127.986163)scale(0.1 -0.1)">
       <use xlink:href="#DejaVuSans-31"/>
       <use xlink:href="#DejaVuSans-2e" x="63.623047"/>
       <use xlink:href="#DejaVuSans-30" x="95.410156"/>
      </g>
     </g>
    </g>
    <g id="ytick_7">
     <g id="line2d_16">
      <g>
       <use xlink:href="#m40a4ac34a7" x="54" y="99.596533" style="stroke: #000000; stroke-width: 0.8"/>
      </g>
     </g>
     <g id="text_16">
      <!-- 1.2 -->
      <g transform="translate(31.096875 103.395752)scale(0.1 -0.1)">
       <use xlink:href="#DejaVuSans-31"/>
       <use xlink:href="#DejaVuSans-2e" x="63.623047"/>
       <use xlink:href="#DejaVuSans-32" x="95.410156"/>
      </g>
     </g>
    </g>
    <g id="ytick_8">
     <g id="line2d_17">
      <g>
       <use xlink:href="#m40a4ac34a7" x="54" y="75.006121" style="stroke: #000000; stroke-width: 0.8"/>
      </g>
     </g>
     <g id="text_17">
      <!-- 1.4 -->
      <g transform="translate(31.096875 78.80534)scale(0.1 -0.1)">
       <use xlink:href="#DejaVuSans-31"/>
       <use xlink:href="#DejaVuSans-2e" x="63.623047"/>
       <use xlink:href="#DejaVuSans-34" x="95.410156"/>
      </g>
     </g>
    </g>
    <g id="ytick_9">
     <g id="line2d_18">
      <g>
       <use xlink:href="#m40a4ac34a7" x="54" y="50.415709" style="stroke: #000000; stroke-width: 0.8"/>
      </g>
     </g>
     <g id="text_18">
      <!-- 1.6 -->
      <g transform="translate(31.096875 54.214928)scale(0.1 -0.1)">
       <use xlink:href="#DejaVuSans-31"/>
       <use xlink:href="#DejaVuSans-2e" x="63.623047"/>
       <use xlink:href="#DejaVuSans-36" x="95.410156"/>
      </g>
     </g>
    </g>
    <g id="text_19">
     <!-- Loss -->
     <g transform="translate(25.017187 154.247187)rotate(-90)scale(0.1 -0.1)">
      <defs>
       <path id="DejaVuSans-4c" d="M 628 4666 
L 1259 4666 
L 1259 531 
L 3531 531 
L 3531 0 
L 628 0 
L 628 4666 
z
" transform="scale(0.015625)"/>
       <path id="DejaVuSans-6f" d="M 1959 3097 
Q 1497 3097 1228 2736 
Q 959 2375 959 1747 
Q 959 1119 1226 758 
Q 1494 397 1959 397 
Q 2419 397 2687 759 
Q 2956 1122 2956 1747 
Q 2956 2369 2687 2733 
Q 2419 3097 1959 3097 
z
M 1959 3584 
Q 2709 3584 3137 3096 
Q 3566 2609 3566 1747 
Q 3566 888 3137 398 
Q 2709 -91 1959 -91 
Q 1206 -91 779 398 
Q 353 888 353 1747 
Q 353 2609 779 3096 
Q 1206 3584 1959 3584 
z
" transform="scale(0.015625)"/>
       <path id="DejaVuSans-73" d="M 2834 3397 
L 2834 2853 
Q 2591 2978 2328 3040 
Q 2066 3103 1784 3103 
Q 1356 3103 1142 2972 
Q 928 2841 928 2578 
Q 928 2378 1081 2264 
Q 1234 2150 1697 2047 
L 1894 2003 
Q 2506 1872 2764 1633 
Q 3022 1394 3022 966 
Q 3022 478 2636 193 
Q 2250 -91 1575 -91 
Q 1294 -91 989 -36 
Q 684 19 347 128 
L 347 722 
Q 666 556 975 473 
Q 1284 391 1588 391 
Q 1994 391 2212 530 
Q 2431 669 2431 922 
Q 2431 1156 2273 1281 
Q 2116 1406 1581 1522 
L 1381 1569 
Q 847 1681 609 1914 
Q 372 2147 372 2553 
Q 372 3047 722 3315 
Q 1072 3584 1716 3584 
Q 2034 3584 2315 3537 
Q 2597 3491 2834 3397 
z
" transform="scale(0.015625)"/>
      </defs>
      <use xlink:href="#DejaVuSans-4c"/>
      <use xlink:href="#DejaVuSans-6f" x="53.962891"/>
      <use xlink:href="#DejaVuSans-73" x="115.144531"/>
      <use xlink:href="#DejaVuSans-73" x="167.244141"/>
     </g>
    </g>
   </g>
   <g id="line2d_19">
    <path d="M 69.218182 44.443636 
L 70.747647 80.449908 
L 72.277113 101.775869 
L 73.806578 114.247324 
L 75.336044 123.396721 
L 76.865509 130.883992 
L 79.92444 142.392065 
L 81.453906 146.571857 
L 84.512837 152.95973 
L 87.571768 159.266271 
L 90.630699 163.26414 
L 93.68963 167.653 
L 98.278026 172.498148 
L 99.807492 173.813202 
L 101.336958 175.948558 
L 102.866423 176.61432 
L 104.395889 178.643214 
L 107.45482 180.466989 
L 113.572682 185.187158 
L 115.102147 187.035598 
L 116.631613 187.094952 
L 118.161078 188.399542 
L 121.220009 190.504582 
L 122.749475 191.039087 
L 124.27894 192.723396 
L 125.808406 193.250121 
L 127.337871 194.15465 
L 128.867337 194.597364 
L 133.455733 197.485159 
L 134.985199 197.520598 
L 138.04413 199.784598 
L 139.573595 200.546782 
L 141.103061 200.766437 
L 142.632526 201.962939 
L 144.161992 202.462222 
L 145.691457 203.364812 
L 147.220923 204.485856 
L 148.750388 204.745145 
L 151.809319 205.871168 
L 153.338785 206.980201 
L 154.86825 207.836564 
L 156.397716 208.141327 
L 157.927181 208.245589 
L 159.456647 209.271284 
L 160.986112 209.603847 
L 162.515578 210.52573 
L 164.045043 210.415115 
L 165.574509 211.875479 
L 167.103974 212.229732 
L 168.63344 212.776265 
L 170.162905 213.081349 
L 173.221836 214.399989 
L 174.751302 214.416717 
L 176.280767 215.542948 
L 177.810233 215.625196 
L 180.869164 217.01931 
L 182.39863 217.488825 
L 183.928095 217.685525 
L 186.987026 219.194103 
L 188.516492 219.530752 
L 190.045957 219.447802 
L 191.575423 219.552754 
L 193.104888 220.799749 
L 194.634354 220.727234 
L 196.163819 221.572094 
L 197.693285 222.096714 
L 199.22275 222.189016 
L 200.752216 223.113138 
L 202.281681 223.491683 
L 203.811147 223.735725 
L 205.340612 223.467674 
L 206.870078 224.57252 
L 208.399543 224.52859 
L 209.929009 225.189445 
L 211.458474 226.05386 
L 212.98794 225.96953 
L 214.517405 226.918609 
L 216.046871 226.740699 
L 217.576336 227.345442 
L 220.635267 227.591091 
L 222.164733 228.094934 
L 223.694198 228.173957 
L 225.223664 228.593401 
L 226.753129 228.831585 
L 229.81206 229.468726 
L 232.870991 230.640821 
L 234.400457 230.796128 
L 235.929922 230.616094 
L 237.459388 231.66955 
L 240.518319 231.536918 
L 242.047784 232.121604 
L 248.165646 233.097071 
L 249.695112 233.443938 
L 252.754043 233.939564 
L 254.283508 233.804826 
L 255.812974 234.41004 
L 257.342439 234.643032 
L 258.871905 234.638896 
L 260.40137 234.857543 
L 261.930836 235.461285 
L 264.989767 235.501574 
L 266.519233 235.974268 
L 269.578164 236.315278 
L 271.107629 236.335503 
L 272.637095 236.833254 
L 274.16656 236.874075 
L 275.696026 236.790945 
L 277.225491 237.491135 
L 278.754957 237.546431 
L 280.284422 237.420342 
L 281.813888 237.761392 
L 283.343353 237.91621 
L 284.872819 238.226239 
L 286.402284 237.961005 
L 287.93175 238.506232 
L 290.990681 238.593892 
L 292.520146 238.915527 
L 294.049612 238.738829 
L 295.579077 239.270927 
L 297.108543 239.034821 
L 298.638008 239.544374 
L 300.167474 239.240221 
L 304.75587 239.870651 
L 307.814801 240.039418 
L 309.344267 240.317078 
L 312.403198 240.142043 
L 313.932663 240.232624 
L 315.462129 240.492128 
L 318.52106 240.603902 
L 320.050525 240.885364 
L 321.579991 240.974084 
L 323.109456 240.736075 
L 324.638922 240.880956 
L 326.168387 240.902923 
L 327.697853 241.257338 
L 329.227318 241.305705 
L 330.756784 241.239224 
L 335.34518 241.311081 
L 336.874646 241.32489 
L 339.933577 241.693896 
L 341.463042 241.489271 
L 342.992508 241.512434 
L 344.521974 241.673834 
L 346.051439 241.656102 
L 347.580905 241.761316 
L 349.11037 241.637747 
L 352.169301 241.943478 
L 353.698767 241.737358 
L 355.228232 241.873262 
L 356.757698 241.605254 
L 358.287163 242.034416 
L 359.816629 241.966579 
L 361.346094 241.718634 
L 362.87556 241.734747 
L 364.405025 241.948204 
L 367.463956 242.116364 
L 368.993422 241.763148 
L 370.522887 241.792832 
L 372.052353 242.000464 
L 373.581818 241.931521 
L 373.581818 241.931521 
" clip-path="url(#p4240d8b16e)" style="fill: none; stroke: #1f77b4; stroke-width: 1.5; stroke-linecap: square"/>
   </g>
   <g id="line2d_20">
    <path d="M 69.218182 83.050608 
L 70.747647 106.531311 
L 72.277113 119.624482 
L 73.806578 127.771342 
L 75.336044 138.255226 
L 76.865509 140.819762 
L 78.394975 145.309401 
L 79.92444 145.435626 
L 81.453906 147.774266 
L 82.983371 152.688235 
L 84.512837 158.096014 
L 86.042302 158.216873 
L 87.571768 158.9278 
L 89.101233 156.834868 
L 90.630699 162.391056 
L 92.160164 166.332315 
L 93.68963 163.545098 
L 95.219095 163.34513 
L 96.748561 167.214273 
L 98.278026 167.146187 
L 99.807492 167.304493 
L 101.336958 169.435421 
L 102.866423 170.875758 
L 104.395889 172.07084 
L 105.925354 172.407529 
L 107.45482 171.70946 
L 108.984285 172.096276 
L 110.513751 173.687464 
L 112.043216 175.574474 
L 113.572682 174.393594 
L 115.102147 176.72109 
L 116.631613 176.450063 
L 118.161078 177.693678 
L 119.690544 178.758752 
L 121.220009 177.806994 
L 122.749475 178.229319 
L 124.27894 176.912555 
L 125.808406 179.59826 
L 127.337871 178.11877 
L 128.867337 177.051497 
L 130.396802 178.388916 
L 131.926268 177.943736 
L 133.455733 180.807231 
L 134.985199 179.23595 
L 136.514664 181.121713 
L 139.573595 178.674093 
L 141.103061 179.517484 
L 142.632526 177.600702 
L 144.161992 180.658827 
L 145.691457 178.171751 
L 147.220923 181.041239 
L 148.750388 180.040968 
L 150.279854 176.483732 
L 151.809319 180.067763 
L 153.338785 181.134882 
L 154.86825 177.661191 
L 156.397716 179.489282 
L 157.927181 178.844858 
L 159.456647 179.941001 
L 160.986112 179.865456 
L 162.515578 178.274103 
L 164.045043 178.507479 
L 165.574509 178.351761 
L 167.103974 178.041453 
L 168.63344 178.823428 
L 170.162905 179.267535 
L 171.692371 178.403848 
L 173.221836 177.866927 
L 174.751302 178.364673 
L 176.280767 177.256034 
L 177.810233 177.76709 
L 179.339698 178.573252 
L 180.869164 176.278557 
L 182.39863 176.572941 
L 183.928095 176.624423 
L 185.457561 177.482381 
L 188.516492 174.652814 
L 190.045957 176.395828 
L 191.575423 176.106135 
L 193.104888 174.620952 
L 194.634354 176.636599 
L 196.163819 177.275973 
L 197.693285 175.669276 
L 200.752216 171.401524 
L 202.281681 172.557705 
L 203.811147 170.291078 
L 205.340612 173.688579 
L 206.870078 172.223214 
L 208.399543 173.15494 
L 209.929009 169.306564 
L 211.458474 170.233356 
L 212.98794 169.910224 
L 214.517405 168.040209 
L 216.046871 167.724149 
L 217.576336 165.372866 
L 219.105802 168.916825 
L 220.635267 170.788157 
L 222.164733 167.33972 
L 223.694198 166.183 
L 225.223664 166.833984 
L 226.753129 168.679852 
L 228.282595 168.362782 
L 229.81206 168.610231 
L 231.341526 165.676907 
L 232.870991 163.118149 
L 234.400457 164.02904 
L 235.929922 165.266855 
L 237.459388 163.600082 
L 238.988853 163.90186 
L 240.518319 164.827978 
L 242.047784 161.941789 
L 243.57725 162.588639 
L 245.106715 161.449382 
L 246.636181 161.53601 
L 248.165646 162.623975 
L 249.695112 160.48144 
L 251.224577 160.669931 
L 252.754043 161.850399 
L 254.283508 160.020347 
L 255.812974 159.853233 
L 257.342439 156.984633 
L 258.871905 158.241436 
L 260.40137 157.475944 
L 261.930836 157.830922 
L 263.460302 157.680858 
L 264.989767 159.105103 
L 266.519233 156.266903 
L 268.048698 156.617892 
L 269.578164 155.923564 
L 271.107629 156.880253 
L 274.16656 156.047831 
L 275.696026 154.04911 
L 277.225491 156.253944 
L 278.754957 152.784123 
L 280.284422 154.647223 
L 281.813888 153.795438 
L 283.343353 155.606351 
L 284.872819 152.821559 
L 286.402284 154.467377 
L 287.93175 154.086083 
L 289.461215 153.90476 
L 290.990681 152.556275 
L 292.520146 152.897481 
L 294.049612 151.235071 
L 295.579077 152.560745 
L 297.108543 150.514075 
L 298.638008 151.86433 
L 300.167474 151.568631 
L 301.696939 151.626772 
L 303.226405 151.212453 
L 304.75587 152.508989 
L 306.285336 151.565298 
L 307.814801 152.906685 
L 309.344267 151.156348 
L 310.873732 150.400524 
L 312.403198 150.002348 
L 313.932663 149.875398 
L 315.462129 150.517415 
L 316.991594 150.254446 
L 320.050525 149.068349 
L 321.579991 148.435696 
L 323.109456 148.670736 
L 324.638922 148.556171 
L 326.168387 149.783616 
L 327.697853 148.740322 
L 329.227318 148.951346 
L 330.756784 149.333081 
L 335.34518 148.360132 
L 336.874646 148.354084 
L 338.404111 148.939709 
L 339.933577 148.628036 
L 341.463042 148.49486 
L 342.992508 148.15226 
L 344.521974 148.421151 
L 346.051439 148.059349 
L 347.580905 147.863029 
L 349.11037 148.478889 
L 350.639836 148.229186 
L 352.169301 148.113815 
L 355.228232 148.221498 
L 356.757698 148.214831 
L 358.287163 148.088477 
L 359.816629 148.255059 
L 361.346094 148.154328 
L 364.405025 148.226108 
L 367.463956 148.208332 
L 373.581818 148.195044 
L 373.581818 148.195044 
" clip-path="url(#p4240d8b16e)" style="fill: none; stroke: #ff7f0e; stroke-width: 1.5; stroke-linecap: square"/>
   </g>
   <g id="patch_3">
    <path d="M 54 252 
L 54 34.56 
" style="fill: none; stroke: #000000; stroke-width: 0.8; stroke-linejoin: miter; stroke-linecap: square"/>
   </g>
   <g id="patch_4">
    <path d="M 388.8 252 
L 388.8 34.56 
" style="fill: none; stroke: #000000; stroke-width: 0.8; stroke-linejoin: miter; stroke-linecap: square"/>
   </g>
   <g id="patch_5">
    <path d="M 54 252 
L 388.8 252 
" style="fill: none; stroke: #000000; stroke-width: 0.8; stroke-linejoin: miter; stroke-linecap: square"/>
   </g>
   <g id="patch_6">
    <path d="M 54 34.56 
L 388.8 34.56 
" style="fill: none; stroke: #000000; stroke-width: 0.8; stroke-linejoin: miter; stroke-linecap: square"/>
   </g>
   <g id="legend_1">
    <g id="patch_7">
     <path d="M 326.525 71.91625 
L 381.8 71.91625 
Q 383.8 71.91625 383.8 69.91625 
L 383.8 41.56 
Q 383.8 39.56 381.8 39.56 
L 326.525 39.56 
Q 324.525 39.56 324.525 41.56 
L 324.525 69.91625 
Q 324.525 71.91625 326.525 71.91625 
z
" style="fill: #ffffff; opacity: 0.8; stroke: #cccccc; stroke-linejoin: miter"/>
    </g>
    <g id="line2d_21">
     <path d="M 328.525 47.658437 
L 338.525 47.658437 
L 348.525 47.658437 
" style="fill: none; stroke: #1f77b4; stroke-width: 1.5; stroke-linecap: square"/>
    </g>
    <g id="text_20">
     <!-- train -->
     <g transform="translate(356.525 51.158437)scale(0.1 -0.1)">
      <defs>
       <path id="DejaVuSans-74" d="M 1172 4494 
L 1172 3500 
L 2356 3500 
L 2356 3053 
L 1172 3053 
L 1172 1153 
Q 1172 725 1289 603 
Q 1406 481 1766 481 
L 2356 481 
L 2356 0 
L 1766 0 
Q 1100 0 847 248 
Q 594 497 594 1153 
L 594 3053 
L 172 3053 
L 172 3500 
L 594 3500 
L 594 4494 
L 1172 4494 
z
" transform="scale(0.015625)"/>
       <path id="DejaVuSans-72" d="M 2631 2963 
Q 2534 3019 2420 3045 
Q 2306 3072 2169 3072 
Q 1681 3072 1420 2755 
Q 1159 2438 1159 1844 
L 1159 0 
L 581 0 
L 581 3500 
L 1159 3500 
L 1159 2956 
Q 1341 3275 1631 3429 
Q 1922 3584 2338 3584 
Q 2397 3584 2469 3576 
Q 2541 3569 2628 3553 
L 2631 2963 
z
" transform="scale(0.015625)"/>
       <path id="DejaVuSans-61" d="M 2194 1759 
Q 1497 1759 1228 1600 
Q 959 1441 959 1056 
Q 959 750 1161 570 
Q 1363 391 1709 391 
Q 2188 391 2477 730 
Q 2766 1069 2766 1631 
L 2766 1759 
L 2194 1759 
z
M 3341 1997 
L 3341 0 
L 2766 0 
L 2766 531 
Q 2569 213 2275 61 
Q 1981 -91 1556 -91 
Q 1019 -91 701 211 
Q 384 513 384 1019 
Q 384 1609 779 1909 
Q 1175 2209 1959 2209 
L 2766 2209 
L 2766 2266 
Q 2766 2663 2505 2880 
Q 2244 3097 1772 3097 
Q 1472 3097 1187 3025 
Q 903 2953 641 2809 
L 641 3341 
Q 956 3463 1253 3523 
Q 1550 3584 1831 3584 
Q 2591 3584 2966 3190 
Q 3341 2797 3341 1997 
z
" transform="scale(0.015625)"/>
       <path id="DejaVuSans-69" d="M 603 3500 
L 1178 3500 
L 1178 0 
L 603 0 
L 603 3500 
z
M 603 4863 
L 1178 4863 
L 1178 4134 
L 603 4134 
L 603 4863 
z
" transform="scale(0.015625)"/>
       <path id="DejaVuSans-6e" d="M 3513 2113 
L 3513 0 
L 2938 0 
L 2938 2094 
Q 2938 2591 2744 2837 
Q 2550 3084 2163 3084 
Q 1697 3084 1428 2787 
Q 1159 2491 1159 1978 
L 1159 0 
L 581 0 
L 581 3500 
L 1159 3500 
L 1159 2956 
Q 1366 3272 1645 3428 
Q 1925 3584 2291 3584 
Q 2894 3584 3203 3211 
Q 3513 2838 3513 2113 
z
" transform="scale(0.015625)"/>
      </defs>
      <use xlink:href="#DejaVuSans-74"/>
      <use xlink:href="#DejaVuSans-72" x="39.208984"/>
      <use xlink:href="#DejaVuSans-61" x="80.322266"/>
      <use xlink:href="#DejaVuSans-69" x="141.601562"/>
      <use xlink:href="#DejaVuSans-6e" x="169.384766"/>
     </g>
    </g>
    <g id="line2d_22">
     <path d="M 328.525 62.336562 
L 338.525 62.336562 
L 348.525 62.336562 
" style="fill: none; stroke: #ff7f0e; stroke-width: 1.5; stroke-linecap: square"/>
    </g>
    <g id="text_21">
     <!-- test -->
     <g transform="translate(356.525 65.836562)scale(0.1 -0.1)">
      <defs>
       <path id="DejaVuSans-65" d="M 3597 1894 
L 3597 1613 
L 953 1613 
Q 991 1019 1311 708 
Q 1631 397 2203 397 
Q 2534 397 2845 478 
Q 3156 559 3463 722 
L 3463 178 
Q 3153 47 2828 -22 
Q 2503 -91 2169 -91 
Q 1331 -91 842 396 
Q 353 884 353 1716 
Q 353 2575 817 3079 
Q 1281 3584 2069 3584 
Q 2775 3584 3186 3129 
Q 3597 2675 3597 1894 
z
M 3022 2063 
Q 3016 2534 2758 2815 
Q 2500 3097 2075 3097 
Q 1594 3097 1305 2825 
Q 1016 2553 972 2059 
L 3022 2063 
z
" transform="scale(0.015625)"/>
      </defs>
      <use xlink:href="#DejaVuSans-74"/>
      <use xlink:href="#DejaVuSans-65" x="39.208984"/>
      <use xlink:href="#DejaVuSans-73" x="100.732422"/>
      <use xlink:href="#DejaVuSans-74" x="152.832031"/>
     </g>
    </g>
   </g>
  </g>
 </g>
 <defs>
  <clipPath id="p4240d8b16e">
   <rect x="54" y="34.56" width="334.8" height="217.44"/>
  </clipPath>
 </defs>
</svg>
