<?xml version="1.0" encoding="utf-8" standalone="no"?>
<!DOCTYPE svg PUBLIC "-//W3C//DTD SVG 1.1//EN"
  "http://www.w3.org/Graphics/SVG/1.1/DTD/svg11.dtd">
<svg xmlns:xlink="http://www.w3.org/1999/xlink" width="432pt" height="288pt" viewBox="0 0 432 288" xmlns="http://www.w3.org/2000/svg" version="1.1">
 <metadata>
  <rdf:RDF xmlns:dc="http://purl.org/dc/elements/1.1/" xmlns:cc="http://creativecommons.org/ns#" xmlns:rdf="http://www.w3.org/1999/02/22-rdf-syntax-ns#">
   <cc:Work>
    <dc:type rdf:resource="http://purl.org/dc/dcmitype/StillImage"/>
    <dc:date>2022-09-21T12:08:56.198194</dc:date>
    <dc:format>image/svg+xml</dc:format>
    <dc:creator>
     <cc:Agent>
      <dc:title>Matplotlib v3.5.2, https://matplotlib.org/</dc:title>
     </cc:Agent>
    </dc:creator>
   </cc:Work>
  </rdf:RDF>
 </metadata>
 <defs>
  <style type="text/css">*{stroke-linejoin: round; stroke-linecap: butt}</style>
 </defs>
 <g id="figure_1">
  <g id="patch_1">
   <path d="M 0 288 
L 432 288 
L 432 0 
L 0 0 
L 0 288 
z
" style="fill: none"/>
  </g>
  <g id="axes_1">
   <g id="patch_2">
    <path d="M 54 252 
L 388.8 252 
L 388.8 34.56 
L 54 34.56 
z
" style="fill: #ffffff"/>
   </g>
   <g id="matplotlib.axis_1">
    <g id="xtick_1">
     <g id="line2d_1">
      <defs>
       <path id="m5eef536176" d="M 0 0 
L 0 3.5 
" style="stroke: #000000; stroke-width: 0.8"/>
      </defs>
      <g>
       <use xlink:href="#m5eef536176" x="69.218182" y="252" style="stroke: #000000; stroke-width: 0.8"/>
      </g>
     </g>
     <g id="text_1">
      <!-- 0 -->
      <g transform="translate(66.036932 266.598437)scale(0.1 -0.1)">
       <defs>
        <path id="DejaVuSans-30" d="M 2034 4250 
Q 1547 4250 1301 3770 
Q 1056 3291 1056 2328 
Q 1056 1369 1301 889 
Q 1547 409 2034 409 
Q 2525 409 2770 889 
Q 3016 1369 3016 2328 
Q 3016 3291 2770 3770 
Q 2525 4250 2034 4250 
z
M 2034 4750 
Q 2819 4750 3233 4129 
Q 3647 3509 3647 2328 
Q 3647 1150 3233 529 
Q 2819 -91 2034 -91 
Q 1250 -91 836 529 
Q 422 1150 422 2328 
Q 422 3509 836 4129 
Q 1250 4750 2034 4750 
z
" transform="scale(0.015625)"/>
       </defs>
       <use xlink:href="#DejaVuSans-30"/>
      </g>
     </g>
    </g>
    <g id="xtick_2">
     <g id="line2d_2">
      <g>
       <use xlink:href="#m5eef536176" x="107.45482" y="252" style="stroke: #000000; stroke-width: 0.8"/>
      </g>
     </g>
     <g id="text_2">
      <!-- 25 -->
      <g transform="translate(101.09232 266.598437)scale(0.1 -0.1)">
       <defs>
        <path id="DejaVuSans-32" d="M 1228 531 
L 3431 531 
L 3431 0 
L 469 0 
L 469 531 
Q 828 903 1448 1529 
Q 2069 2156 2228 2338 
Q 2531 2678 2651 2914 
Q 2772 3150 2772 3378 
Q 2772 3750 2511 3984 
Q 2250 4219 1831 4219 
Q 1534 4219 1204 4116 
Q 875 4013 500 3803 
L 500 4441 
Q 881 4594 1212 4672 
Q 1544 4750 1819 4750 
Q 2544 4750 2975 4387 
Q 3406 4025 3406 3419 
Q 3406 3131 3298 2873 
Q 3191 2616 2906 2266 
Q 2828 2175 2409 1742 
Q 1991 1309 1228 531 
z
" transform="scale(0.015625)"/>
        <path id="DejaVuSans-35" d="M 691 4666 
L 3169 4666 
L 3169 4134 
L 1269 4134 
L 1269 2991 
Q 1406 3038 1543 3061 
Q 1681 3084 1819 3084 
Q 2600 3084 3056 2656 
Q 3513 2228 3513 1497 
Q 3513 744 3044 326 
Q 2575 -91 1722 -91 
Q 1428 -91 1123 -41 
Q 819 9 494 109 
L 494 744 
Q 775 591 1075 516 
Q 1375 441 1709 441 
Q 2250 441 2565 725 
Q 2881 1009 2881 1497 
Q 2881 1984 2565 2268 
Q 2250 2553 1709 2553 
Q 1456 2553 1204 2497 
Q 953 2441 691 2322 
L 691 4666 
z
" transform="scale(0.015625)"/>
       </defs>
       <use xlink:href="#DejaVuSans-32"/>
       <use xlink:href="#DejaVuSans-35" x="63.623047"/>
      </g>
     </g>
    </g>
    <g id="xtick_3">
     <g id="line2d_3">
      <g>
       <use xlink:href="#m5eef536176" x="145.691457" y="252" style="stroke: #000000; stroke-width: 0.8"/>
      </g>
     </g>
     <g id="text_3">
      <!-- 50 -->
      <g transform="translate(139.328957 266.598437)scale(0.1 -0.1)">
       <use xlink:href="#DejaVuSans-35"/>
       <use xlink:href="#DejaVuSans-30" x="63.623047"/>
      </g>
     </g>
    </g>
    <g id="xtick_4">
     <g id="line2d_4">
      <g>
       <use xlink:href="#m5eef536176" x="183.928095" y="252" style="stroke: #000000; stroke-width: 0.8"/>
      </g>
     </g>
     <g id="text_4">
      <!-- 75 -->
      <g transform="translate(177.565595 266.598437)scale(0.1 -0.1)">
       <defs>
        <path id="DejaVuSans-37" d="M 525 4666 
L 3525 4666 
L 3525 4397 
L 1831 0 
L 1172 0 
L 2766 4134 
L 525 4134 
L 525 4666 
z
" transform="scale(0.015625)"/>
       </defs>
       <use xlink:href="#DejaVuSans-37"/>
       <use xlink:href="#DejaVuSans-35" x="63.623047"/>
      </g>
     </g>
    </g>
    <g id="xtick_5">
     <g id="line2d_5">
      <g>
       <use xlink:href="#m5eef536176" x="222.164733" y="252" style="stroke: #000000; stroke-width: 0.8"/>
      </g>
     </g>
     <g id="text_5">
      <!-- 100 -->
      <g transform="translate(212.620983 266.598437)scale(0.1 -0.1)">
       <defs>
        <path id="DejaVuSans-31" d="M 794 531 
L 1825 531 
L 1825 4091 
L 703 3866 
L 703 4441 
L 1819 4666 
L 2450 4666 
L 2450 531 
L 3481 531 
L 3481 0 
L 794 0 
L 794 531 
z
" transform="scale(0.015625)"/>
       </defs>
       <use xlink:href="#DejaVuSans-31"/>
       <use xlink:href="#DejaVuSans-30" x="63.623047"/>
       <use xlink:href="#DejaVuSans-30" x="127.246094"/>
      </g>
     </g>
    </g>
    <g id="xtick_6">
     <g id="line2d_6">
      <g>
       <use xlink:href="#m5eef536176" x="260.40137" y="252" style="stroke: #000000; stroke-width: 0.8"/>
      </g>
     </g>
     <g id="text_6">
      <!-- 125 -->
      <g transform="translate(250.85762 266.598437)scale(0.1 -0.1)">
       <use xlink:href="#DejaVuSans-31"/>
       <use xlink:href="#DejaVuSans-32" x="63.623047"/>
       <use xlink:href="#DejaVuSans-35" x="127.246094"/>
      </g>
     </g>
    </g>
    <g id="xtick_7">
     <g id="line2d_7">
      <g>
       <use xlink:href="#m5eef536176" x="298.638008" y="252" style="stroke: #000000; stroke-width: 0.8"/>
      </g>
     </g>
     <g id="text_7">
      <!-- 150 -->
      <g transform="translate(289.094258 266.598437)scale(0.1 -0.1)">
       <use xlink:href="#DejaVuSans-31"/>
       <use xlink:href="#DejaVuSans-35" x="63.623047"/>
       <use xlink:href="#DejaVuSans-30" x="127.246094"/>
      </g>
     </g>
    </g>
    <g id="xtick_8">
     <g id="line2d_8">
      <g>
       <use xlink:href="#m5eef536176" x="336.874646" y="252" style="stroke: #000000; stroke-width: 0.8"/>
      </g>
     </g>
     <g id="text_8">
      <!-- 175 -->
      <g transform="translate(327.330896 266.598437)scale(0.1 -0.1)">
       <use xlink:href="#DejaVuSans-31"/>
       <use xlink:href="#DejaVuSans-37" x="63.623047"/>
       <use xlink:href="#DejaVuSans-35" x="127.246094"/>
      </g>
     </g>
    </g>
    <g id="xtick_9">
     <g id="line2d_9">
      <g>
       <use xlink:href="#m5eef536176" x="375.111284" y="252" style="stroke: #000000; stroke-width: 0.8"/>
      </g>
     </g>
     <g id="text_9">
      <!-- 200 -->
      <g transform="translate(365.567534 266.598437)scale(0.1 -0.1)">
       <use xlink:href="#DejaVuSans-32"/>
       <use xlink:href="#DejaVuSans-30" x="63.623047"/>
       <use xlink:href="#DejaVuSans-30" x="127.246094"/>
      </g>
     </g>
    </g>
   </g>
   <g id="matplotlib.axis_2">
    <g id="ytick_1">
     <g id="line2d_10">
      <defs>
       <path id="m61fcd5dcd3" d="M 0 0 
L -3.5 0 
" style="stroke: #000000; stroke-width: 0.8"/>
      </defs>
      <g>
       <use xlink:href="#m61fcd5dcd3" x="54" y="244.158616" style="stroke: #000000; stroke-width: 0.8"/>
      </g>
     </g>
     <g id="text_10">
      <!-- 0.00 -->
      <g transform="translate(24.734375 247.957835)scale(0.1 -0.1)">
       <defs>
        <path id="DejaVuSans-2e" d="M 684 794 
L 1344 794 
L 1344 0 
L 684 0 
L 684 794 
z
" transform="scale(0.015625)"/>
       </defs>
       <use xlink:href="#DejaVuSans-30"/>
       <use xlink:href="#DejaVuSans-2e" x="63.623047"/>
       <use xlink:href="#DejaVuSans-30" x="95.410156"/>
       <use xlink:href="#DejaVuSans-30" x="159.033203"/>
      </g>
     </g>
    </g>
    <g id="ytick_2">
     <g id="line2d_11">
      <g>
       <use xlink:href="#m61fcd5dcd3" x="54" y="215.513454" style="stroke: #000000; stroke-width: 0.8"/>
      </g>
     </g>
     <g id="text_11">
      <!-- 0.25 -->
      <g transform="translate(24.734375 219.312673)scale(0.1 -0.1)">
       <use xlink:href="#DejaVuSans-30"/>
       <use xlink:href="#DejaVuSans-2e" x="63.623047"/>
       <use xlink:href="#DejaVuSans-32" x="95.410156"/>
       <use xlink:href="#DejaVuSans-35" x="159.033203"/>
      </g>
     </g>
    </g>
    <g id="ytick_3">
     <g id="line2d_12">
      <g>
       <use xlink:href="#m61fcd5dcd3" x="54" y="186.868293" style="stroke: #000000; stroke-width: 0.8"/>
      </g>
     </g>
     <g id="text_12">
      <!-- 0.50 -->
      <g transform="translate(24.734375 190.667512)scale(0.1 -0.1)">
       <use xlink:href="#DejaVuSans-30"/>
       <use xlink:href="#DejaVuSans-2e" x="63.623047"/>
       <use xlink:href="#DejaVuSans-35" x="95.410156"/>
       <use xlink:href="#DejaVuSans-30" x="159.033203"/>
      </g>
     </g>
    </g>
    <g id="ytick_4">
     <g id="line2d_13">
      <g>
       <use xlink:href="#m61fcd5dcd3" x="54" y="158.223132" style="stroke: #000000; stroke-width: 0.8"/>
      </g>
     </g>
     <g id="text_13">
      <!-- 0.75 -->
      <g transform="translate(24.734375 162.02235)scale(0.1 -0.1)">
       <use xlink:href="#DejaVuSans-30"/>
       <use xlink:href="#DejaVuSans-2e" x="63.623047"/>
       <use xlink:href="#DejaVuSans-37" x="95.410156"/>
       <use xlink:href="#DejaVuSans-35" x="159.033203"/>
      </g>
     </g>
    </g>
    <g id="ytick_5">
     <g id="line2d_14">
      <g>
       <use xlink:href="#m61fcd5dcd3" x="54" y="129.57797" style="stroke: #000000; stroke-width: 0.8"/>
      </g>
     </g>
     <g id="text_14">
      <!-- 1.00 -->
      <g transform="translate(24.734375 133.377189)scale(0.1 -0.1)">
       <use xlink:href="#DejaVuSans-31"/>
       <use xlink:href="#DejaVuSans-2e" x="63.623047"/>
       <use xlink:href="#DejaVuSans-30" x="95.410156"/>
       <use xlink:href="#DejaVuSans-30" x="159.033203"/>
      </g>
     </g>
    </g>
    <g id="ytick_6">
     <g id="line2d_15">
      <g>
       <use xlink:href="#m61fcd5dcd3" x="54" y="100.932809" style="stroke: #000000; stroke-width: 0.8"/>
      </g>
     </g>
     <g id="text_15">
      <!-- 1.25 -->
      <g transform="translate(24.734375 104.732027)scale(0.1 -0.1)">
       <use xlink:href="#DejaVuSans-31"/>
       <use xlink:href="#DejaVuSans-2e" x="63.623047"/>
       <use xlink:href="#DejaVuSans-32" x="95.410156"/>
       <use xlink:href="#DejaVuSans-35" x="159.033203"/>
      </g>
     </g>
    </g>
    <g id="ytick_7">
     <g id="line2d_16">
      <g>
       <use xlink:href="#m61fcd5dcd3" x="54" y="72.287647" style="stroke: #000000; stroke-width: 0.8"/>
      </g>
     </g>
     <g id="text_16">
      <!-- 1.50 -->
      <g transform="translate(24.734375 76.086866)scale(0.1 -0.1)">
       <use xlink:href="#DejaVuSans-31"/>
       <use xlink:href="#DejaVuSans-2e" x="63.623047"/>
       <use xlink:href="#DejaVuSans-35" x="95.410156"/>
       <use xlink:href="#DejaVuSans-30" x="159.033203"/>
      </g>
     </g>
    </g>
    <g id="ytick_8">
     <g id="line2d_17">
      <g>
       <use xlink:href="#m61fcd5dcd3" x="54" y="43.642486" style="stroke: #000000; stroke-width: 0.8"/>
      </g>
     </g>
     <g id="text_17">
      <!-- 1.75 -->
      <g transform="translate(24.734375 47.441705)scale(0.1 -0.1)">
       <use xlink:href="#DejaVuSans-31"/>
       <use xlink:href="#DejaVuSans-2e" x="63.623047"/>
       <use xlink:href="#DejaVuSans-37" x="95.410156"/>
       <use xlink:href="#DejaVuSans-35" x="159.033203"/>
      </g>
     </g>
    </g>
    <g id="text_18">
     <!-- Loss -->
     <g transform="translate(18.654688 154.247187)rotate(-90)scale(0.1 -0.1)">
      <defs>
       <path id="DejaVuSans-4c" d="M 628 4666 
L 1259 4666 
L 1259 531 
L 3531 531 
L 3531 0 
L 628 0 
L 628 4666 
z
" transform="scale(0.015625)"/>
       <path id="DejaVuSans-6f" d="M 1959 3097 
Q 1497 3097 1228 2736 
Q 959 2375 959 1747 
Q 959 1119 1226 758 
Q 1494 397 1959 397 
Q 2419 397 2687 759 
Q 2956 1122 2956 1747 
Q 2956 2369 2687 2733 
Q 2419 3097 1959 3097 
z
M 1959 3584 
Q 2709 3584 3137 3096 
Q 3566 2609 3566 1747 
Q 3566 888 3137 398 
Q 2709 -91 1959 -91 
Q 1206 -91 779 398 
Q 353 888 353 1747 
Q 353 2609 779 3096 
Q 1206 3584 1959 3584 
z
" transform="scale(0.015625)"/>
       <path id="DejaVuSans-73" d="M 2834 3397 
L 2834 2853 
Q 2591 2978 2328 3040 
Q 2066 3103 1784 3103 
Q 1356 3103 1142 2972 
Q 928 2841 928 2578 
Q 928 2378 1081 2264 
Q 1234 2150 1697 2047 
L 1894 2003 
Q 2506 1872 2764 1633 
Q 3022 1394 3022 966 
Q 3022 478 2636 193 
Q 2250 -91 1575 -91 
Q 1294 -91 989 -36 
Q 684 19 347 128 
L 347 722 
Q 666 556 975 473 
Q 1284 391 1588 391 
Q 1994 391 2212 530 
Q 2431 669 2431 922 
Q 2431 1156 2273 1281 
Q 2116 1406 1581 1522 
L 1381 1569 
Q 847 1681 609 1914 
Q 372 2147 372 2553 
Q 372 3047 722 3315 
Q 1072 3584 1716 3584 
Q 2034 3584 2315 3537 
Q 2597 3491 2834 3397 
z
" transform="scale(0.015625)"/>
      </defs>
      <use xlink:href="#DejaVuSans-4c"/>
      <use xlink:href="#DejaVuSans-6f" x="53.962891"/>
      <use xlink:href="#DejaVuSans-73" x="115.144531"/>
      <use xlink:href="#DejaVuSans-73" x="167.244141"/>
     </g>
    </g>
   </g>
   <g id="line2d_18">
    <path d="M 69.218182 44.443636 
L 70.747647 79.52569 
L 72.277113 95.063611 
L 73.806578 107.725173 
L 75.336044 117.929201 
L 76.865509 124.9256 
L 79.92444 135.180462 
L 84.512837 147.481739 
L 86.042302 151.108392 
L 87.571768 154.386138 
L 89.101233 157.099004 
L 90.630699 160.115492 
L 93.68963 163.916508 
L 95.219095 166.482593 
L 96.748561 168.010645 
L 98.278026 170.011007 
L 104.395889 176.47895 
L 105.925354 177.396523 
L 107.45482 178.77161 
L 108.984285 179.663887 
L 110.513751 181.480071 
L 112.043216 182.476497 
L 113.572682 183.705689 
L 115.102147 184.660528 
L 116.631613 186.480435 
L 118.161078 187.270123 
L 119.690544 187.858923 
L 122.749475 190.724157 
L 124.27894 191.429695 
L 125.808406 192.302633 
L 127.337871 192.871686 
L 128.867337 193.838394 
L 130.396802 195.703812 
L 131.926268 196.033467 
L 133.455733 196.91161 
L 134.985199 197.64527 
L 136.514664 198.69186 
L 139.573595 200.347994 
L 141.103061 201.359709 
L 142.632526 202.059539 
L 144.161992 203.136095 
L 145.691457 203.781331 
L 147.220923 204.923937 
L 148.750388 205.394775 
L 150.279854 206.268225 
L 151.809319 206.976304 
L 153.338785 207.972155 
L 156.397716 208.608192 
L 157.927181 210.012936 
L 159.456647 210.920547 
L 160.986112 211.18166 
L 162.515578 212.120513 
L 164.045043 212.545036 
L 165.574509 213.440908 
L 167.103974 214.494549 
L 168.63344 214.995984 
L 170.162905 215.171144 
L 173.221836 216.450524 
L 174.751302 217.478424 
L 176.280767 217.421224 
L 179.339698 218.941153 
L 180.869164 219.910028 
L 182.39863 219.674971 
L 185.457561 220.839101 
L 186.987026 221.802026 
L 188.516492 221.833962 
L 191.575423 222.893365 
L 193.104888 223.602425 
L 194.634354 224.157516 
L 196.163819 224.408166 
L 197.693285 224.485021 
L 199.22275 225.003801 
L 202.281681 226.414716 
L 203.811147 226.674829 
L 205.340612 227.272254 
L 206.870078 227.066922 
L 208.399543 227.759163 
L 209.929009 227.798233 
L 211.458474 228.296391 
L 212.98794 228.917512 
L 214.517405 228.724905 
L 216.046871 229.493127 
L 222.164733 231.02699 
L 225.223664 231.539374 
L 228.282595 231.650067 
L 232.870991 232.788844 
L 234.400457 232.68537 
L 235.929922 233.459224 
L 237.459388 233.450575 
L 240.518319 234.077909 
L 243.57725 234.174038 
L 246.636181 235.130474 
L 248.165646 235.303181 
L 251.224577 235.42742 
L 252.754043 235.96928 
L 255.812974 235.900157 
L 257.342439 236.670224 
L 260.40137 236.800686 
L 261.930836 237.081212 
L 263.460302 236.973268 
L 264.989767 237.247353 
L 266.519233 237.319994 
L 268.048698 237.519835 
L 269.578164 237.507433 
L 271.107629 237.931478 
L 272.637095 238.21482 
L 275.696026 238.164593 
L 278.754957 238.713586 
L 280.284422 238.555692 
L 281.813888 238.972104 
L 284.872819 238.815649 
L 286.402284 239.353823 
L 287.93175 239.455154 
L 289.461215 239.41691 
L 290.990681 239.635339 
L 295.579077 239.865558 
L 301.696939 240.441966 
L 303.226405 240.312205 
L 309.344267 240.86824 
L 310.873732 240.735382 
L 312.403198 240.793922 
L 313.932663 240.97048 
L 315.462129 240.880456 
L 318.52106 241.056676 
L 320.050525 241.247365 
L 321.579991 241.132438 
L 326.168387 241.411227 
L 327.697853 241.337999 
L 336.874646 241.720178 
L 341.463042 241.682152 
L 346.051439 242.015358 
L 347.580905 241.870878 
L 349.11037 241.981331 
L 350.639836 241.841069 
L 352.169301 242.089389 
L 353.698767 241.967325 
L 373.581818 242.111419 
L 373.581818 242.111419 
" clip-path="url(#p201762e9ed)" style="fill: none; stroke: #1f77b4; stroke-width: 1.5; stroke-linecap: square"/>
   </g>
   <g id="line2d_19">
    <path d="M 69.218182 80.783995 
L 70.747647 97.174995 
L 72.277113 109.488147 
L 73.806578 117.637386 
L 75.336044 129.057193 
L 78.394975 135.351774 
L 81.453906 142.802443 
L 82.983371 148.198198 
L 84.512837 148.148107 
L 86.042302 151.675178 
L 87.571768 154.454213 
L 89.101233 159.09078 
L 90.630699 159.510393 
L 92.160164 154.879167 
L 93.68963 163.005172 
L 95.219095 161.351994 
L 98.278026 166.162965 
L 99.807492 165.417126 
L 101.336958 166.7998 
L 102.866423 168.457611 
L 104.395889 168.314387 
L 105.925354 167.726299 
L 107.45482 167.916323 
L 108.984285 169.490955 
L 110.513751 169.798493 
L 112.043216 172.568203 
L 113.572682 171.406284 
L 115.102147 171.183392 
L 116.631613 171.175598 
L 118.161078 166.352852 
L 119.690544 171.328363 
L 121.220009 172.476644 
L 122.749475 171.486399 
L 124.27894 169.790457 
L 125.808406 171.675229 
L 127.337871 173.056223 
L 128.867337 173.011239 
L 130.396802 169.996608 
L 131.926268 173.239513 
L 133.455733 171.313082 
L 134.985199 173.389313 
L 136.514664 173.334864 
L 138.04413 170.647977 
L 139.573595 170.648497 
L 141.103061 170.314956 
L 142.632526 172.555323 
L 144.161992 170.047666 
L 145.691457 170.898625 
L 148.750388 168.62776 
L 150.279854 166.631477 
L 153.338785 168.742711 
L 154.86825 168.467819 
L 156.397716 167.978054 
L 157.927181 167.094489 
L 159.456647 165.044659 
L 160.986112 167.80615 
L 162.515578 165.267204 
L 164.045043 162.298754 
L 165.574509 161.841025 
L 167.103974 164.042438 
L 168.63344 163.033898 
L 170.162905 162.882424 
L 171.692371 159.269734 
L 173.221836 160.742209 
L 174.751302 158.236749 
L 176.280767 157.016502 
L 177.810233 157.766354 
L 179.339698 154.323525 
L 180.869164 154.229425 
L 182.39863 157.593624 
L 183.928095 156.99521 
L 185.457561 152.602807 
L 186.987026 151.330665 
L 188.516492 154.417926 
L 190.045957 151.825399 
L 191.575423 152.430173 
L 193.104888 149.717799 
L 194.634354 147.945722 
L 196.163819 149.732011 
L 197.693285 149.863024 
L 199.22275 147.13891 
L 200.752216 147.346377 
L 202.281681 145.610866 
L 203.811147 142.547413 
L 205.340612 144.076849 
L 206.870078 143.062859 
L 208.399543 142.54035 
L 209.929009 142.814104 
L 211.458474 141.648428 
L 212.98794 143.064062 
L 214.517405 136.553765 
L 216.046871 135.66234 
L 217.576336 137.201354 
L 219.105802 136.783492 
L 222.164733 133.355796 
L 223.694198 132.601649 
L 225.223664 131.288324 
L 226.753129 130.737802 
L 228.282595 129.627191 
L 229.81206 131.36586 
L 231.341526 129.086213 
L 232.870991 131.717413 
L 234.400457 129.087151 
L 235.929922 127.904793 
L 237.459388 127.708805 
L 238.988853 126.546431 
L 242.047784 122.903878 
L 243.57725 125.21395 
L 245.106715 124.560937 
L 246.636181 124.443373 
L 248.165646 123.978441 
L 249.695112 119.451102 
L 251.224577 125.306922 
L 252.754043 122.898433 
L 254.283508 122.744416 
L 255.812974 121.446087 
L 257.342439 118.862024 
L 258.871905 118.087524 
L 260.40137 119.186167 
L 261.930836 119.582327 
L 263.460302 118.445159 
L 264.989767 115.941391 
L 266.519233 115.204536 
L 268.048698 112.100358 
L 269.578164 113.338614 
L 271.107629 113.544735 
L 272.637095 112.644982 
L 274.16656 110.224744 
L 275.696026 112.804923 
L 277.225491 109.691233 
L 278.754957 109.531474 
L 280.284422 111.152504 
L 281.813888 110.060173 
L 283.343353 109.136961 
L 284.872819 106.071655 
L 286.402284 106.163982 
L 287.93175 106.658588 
L 289.461215 103.089529 
L 290.990681 106.305412 
L 292.520146 104.938392 
L 294.049612 104.065176 
L 295.579077 103.39073 
L 298.638008 101.356635 
L 300.167474 102.752191 
L 301.696939 101.812643 
L 303.226405 102.140811 
L 304.75587 102.270586 
L 306.285336 99.247846 
L 307.814801 99.964682 
L 309.344267 101.400016 
L 310.873732 100.569364 
L 312.403198 99.958684 
L 313.932663 98.574665 
L 315.462129 98.411 
L 316.991594 96.983316 
L 318.52106 96.596277 
L 321.579991 96.48497 
L 323.109456 96.838044 
L 324.638922 96.014266 
L 326.168387 95.330866 
L 327.697853 95.344945 
L 329.227318 95.158865 
L 330.756784 94.03799 
L 332.286249 94.238219 
L 333.815715 94.260478 
L 335.34518 93.922191 
L 336.874646 94.441258 
L 338.404111 94.143406 
L 339.933577 94.519499 
L 341.463042 93.890671 
L 342.992508 94.080681 
L 344.521974 93.785517 
L 346.051439 93.240591 
L 347.580905 93.702699 
L 349.11037 93.571 
L 350.639836 93.310671 
L 352.169301 93.538254 
L 353.698767 93.454879 
L 355.228232 93.045188 
L 358.287163 93.216405 
L 364.405025 93.106863 
L 373.581818 93.138835 
L 373.581818 93.138835 
" clip-path="url(#p201762e9ed)" style="fill: none; stroke: #ff7f0e; stroke-width: 1.5; stroke-linecap: square"/>
   </g>
   <g id="patch_3">
    <path d="M 54 252 
L 54 34.56 
" style="fill: none; stroke: #000000; stroke-width: 0.8; stroke-linejoin: miter; stroke-linecap: square"/>
   </g>
   <g id="patch_4">
    <path d="M 388.8 252 
L 388.8 34.56 
" style="fill: none; stroke: #000000; stroke-width: 0.8; stroke-linejoin: miter; stroke-linecap: square"/>
   </g>
   <g id="patch_5">
    <path d="M 54 252 
L 388.8 252 
" style="fill: none; stroke: #000000; stroke-width: 0.8; stroke-linejoin: miter; stroke-linecap: square"/>
   </g>
   <g id="patch_6">
    <path d="M 54 34.56 
L 388.8 34.56 
" style="fill: none; stroke: #000000; stroke-width: 0.8; stroke-linejoin: miter; stroke-linecap: square"/>
   </g>
   <g id="legend_1">
    <g id="patch_7">
     <path d="M 326.525 71.91625 
L 381.8 71.91625 
Q 383.8 71.91625 383.8 69.91625 
L 383.8 41.56 
Q 383.8 39.56 381.8 39.56 
L 326.525 39.56 
Q 324.525 39.56 324.525 41.56 
L 324.525 69.91625 
Q 324.525 71.91625 326.525 71.91625 
z
" style="fill: #ffffff; opacity: 0.8; stroke: #cccccc; stroke-linejoin: miter"/>
    </g>
    <g id="line2d_20">
     <path d="M 328.525 47.658437 
L 338.525 47.658437 
L 348.525 47.658437 
" style="fill: none; stroke: #1f77b4; stroke-width: 1.5; stroke-linecap: square"/>
    </g>
    <g id="text_19">
     <!-- train -->
     <g transform="translate(356.525 51.158437)scale(0.1 -0.1)">
      <defs>
       <path id="DejaVuSans-74" d="M 1172 4494 
L 1172 3500 
L 2356 3500 
L 2356 3053 
L 1172 3053 
L 1172 1153 
Q 1172 725 1289 603 
Q 1406 481 1766 481 
L 2356 481 
L 2356 0 
L 1766 0 
Q 1100 0 847 248 
Q 594 497 594 1153 
L 594 3053 
L 172 3053 
L 172 3500 
L 594 3500 
L 594 4494 
L 1172 4494 
z
" transform="scale(0.015625)"/>
       <path id="DejaVuSans-72" d="M 2631 2963 
Q 2534 3019 2420 3045 
Q 2306 3072 2169 3072 
Q 1681 3072 1420 2755 
Q 1159 2438 1159 1844 
L 1159 0 
L 581 0 
L 581 3500 
L 1159 3500 
L 1159 2956 
Q 1341 3275 1631 3429 
Q 1922 3584 2338 3584 
Q 2397 3584 2469 3576 
Q 2541 3569 2628 3553 
L 2631 2963 
z
" transform="scale(0.015625)"/>
       <path id="DejaVuSans-61" d="M 2194 1759 
Q 1497 1759 1228 1600 
Q 959 1441 959 1056 
Q 959 750 1161 570 
Q 1363 391 1709 391 
Q 2188 391 2477 730 
Q 2766 1069 2766 1631 
L 2766 1759 
L 2194 1759 
z
M 3341 1997 
L 3341 0 
L 2766 0 
L 2766 531 
Q 2569 213 2275 61 
Q 1981 -91 1556 -91 
Q 1019 -91 701 211 
Q 384 513 384 1019 
Q 384 1609 779 1909 
Q 1175 2209 1959 2209 
L 2766 2209 
L 2766 2266 
Q 2766 2663 2505 2880 
Q 2244 3097 1772 3097 
Q 1472 3097 1187 3025 
Q 903 2953 641 2809 
L 641 3341 
Q 956 3463 1253 3523 
Q 1550 3584 1831 3584 
Q 2591 3584 2966 3190 
Q 3341 2797 3341 1997 
z
" transform="scale(0.015625)"/>
       <path id="DejaVuSans-69" d="M 603 3500 
L 1178 3500 
L 1178 0 
L 603 0 
L 603 3500 
z
M 603 4863 
L 1178 4863 
L 1178 4134 
L 603 4134 
L 603 4863 
z
" transform="scale(0.015625)"/>
       <path id="DejaVuSans-6e" d="M 3513 2113 
L 3513 0 
L 2938 0 
L 2938 2094 
Q 2938 2591 2744 2837 
Q 2550 3084 2163 3084 
Q 1697 3084 1428 2787 
Q 1159 2491 1159 1978 
L 1159 0 
L 581 0 
L 581 3500 
L 1159 3500 
L 1159 2956 
Q 1366 3272 1645 3428 
Q 1925 3584 2291 3584 
Q 2894 3584 3203 3211 
Q 3513 2838 3513 2113 
z
" transform="scale(0.015625)"/>
      </defs>
      <use xlink:href="#DejaVuSans-74"/>
      <use xlink:href="#DejaVuSans-72" x="39.208984"/>
      <use xlink:href="#DejaVuSans-61" x="80.322266"/>
      <use xlink:href="#DejaVuSans-69" x="141.601562"/>
      <use xlink:href="#DejaVuSans-6e" x="169.384766"/>
     </g>
    </g>
    <g id="line2d_21">
     <path d="M 328.525 62.336562 
L 338.525 62.336562 
L 348.525 62.336562 
" style="fill: none; stroke: #ff7f0e; stroke-width: 1.5; stroke-linecap: square"/>
    </g>
    <g id="text_20">
     <!-- test -->
     <g transform="translate(356.525 65.836562)scale(0.1 -0.1)">
      <defs>
       <path id="DejaVuSans-65" d="M 3597 1894 
L 3597 1613 
L 953 1613 
Q 991 1019 1311 708 
Q 1631 397 2203 397 
Q 2534 397 2845 478 
Q 3156 559 3463 722 
L 3463 178 
Q 3153 47 2828 -22 
Q 2503 -91 2169 -91 
Q 1331 -91 842 396 
Q 353 884 353 1716 
Q 353 2575 817 3079 
Q 1281 3584 2069 3584 
Q 2775 3584 3186 3129 
Q 3597 2675 3597 1894 
z
M 3022 2063 
Q 3016 2534 2758 2815 
Q 2500 3097 2075 3097 
Q 1594 3097 1305 2825 
Q 1016 2553 972 2059 
L 3022 2063 
z
" transform="scale(0.015625)"/>
      </defs>
      <use xlink:href="#DejaVuSans-74"/>
      <use xlink:href="#DejaVuSans-65" x="39.208984"/>
      <use xlink:href="#DejaVuSans-73" x="100.732422"/>
      <use xlink:href="#DejaVuSans-74" x="152.832031"/>
     </g>
    </g>
   </g>
  </g>
 </g>
 <defs>
  <clipPath id="p201762e9ed">
   <rect x="54" y="34.56" width="334.8" height="217.44"/>
  </clipPath>
 </defs>
</svg>
