<?xml version="1.0" encoding="utf-8" standalone="no"?>
<!DOCTYPE svg PUBLIC "-//W3C//DTD SVG 1.1//EN"
  "http://www.w3.org/Graphics/SVG/1.1/DTD/svg11.dtd">
<svg xmlns:xlink="http://www.w3.org/1999/xlink" width="432pt" height="288pt" viewBox="0 0 432 288" xmlns="http://www.w3.org/2000/svg" version="1.1">
 <metadata>
  <rdf:RDF xmlns:dc="http://purl.org/dc/elements/1.1/" xmlns:cc="http://creativecommons.org/ns#" xmlns:rdf="http://www.w3.org/1999/02/22-rdf-syntax-ns#">
   <cc:Work>
    <dc:type rdf:resource="http://purl.org/dc/dcmitype/StillImage"/>
    <dc:date>2022-10-07T10:32:47.468549</dc:date>
    <dc:format>image/svg+xml</dc:format>
    <dc:creator>
     <cc:Agent>
      <dc:title>Matplotlib v3.5.2, https://matplotlib.org/</dc:title>
     </cc:Agent>
    </dc:creator>
   </cc:Work>
  </rdf:RDF>
 </metadata>
 <defs>
  <style type="text/css">*{stroke-linejoin: round; stroke-linecap: butt}</style>
 </defs>
 <g id="figure_1">
  <g id="patch_1">
   <path d="M 0 288 
L 432 288 
L 432 0 
L 0 0 
L 0 288 
z
" style="fill: none"/>
  </g>
  <g id="axes_1">
   <g id="patch_2">
    <path d="M 54 252 
L 388.8 252 
L 388.8 34.56 
L 54 34.56 
z
" style="fill: #ffffff"/>
   </g>
   <g id="matplotlib.axis_1">
    <g id="xtick_1">
     <g id="line2d_1">
      <defs>
       <path id="me07fa56bda" d="M 0 0 
L 0 3.5 
" style="stroke: #000000; stroke-width: 0.8"/>
      </defs>
      <g>
       <use xlink:href="#me07fa56bda" x="69.218182" y="252" style="stroke: #000000; stroke-width: 0.8"/>
      </g>
     </g>
     <g id="text_1">
      <!-- 0 -->
      <g transform="translate(66.036932 266.598437)scale(0.1 -0.1)">
       <defs>
        <path id="DejaVuSans-30" d="M 2034 4250 
Q 1547 4250 1301 3770 
Q 1056 3291 1056 2328 
Q 1056 1369 1301 889 
Q 1547 409 2034 409 
Q 2525 409 2770 889 
Q 3016 1369 3016 2328 
Q 3016 3291 2770 3770 
Q 2525 4250 2034 4250 
z
M 2034 4750 
Q 2819 4750 3233 4129 
Q 3647 3509 3647 2328 
Q 3647 1150 3233 529 
Q 2819 -91 2034 -91 
Q 1250 -91 836 529 
Q 422 1150 422 2328 
Q 422 3509 836 4129 
Q 1250 4750 2034 4750 
z
" transform="scale(0.015625)"/>
       </defs>
       <use xlink:href="#DejaVuSans-30"/>
      </g>
     </g>
    </g>
    <g id="xtick_2">
     <g id="line2d_2">
      <g>
       <use xlink:href="#me07fa56bda" x="107.45482" y="252" style="stroke: #000000; stroke-width: 0.8"/>
      </g>
     </g>
     <g id="text_2">
      <!-- 25 -->
      <g transform="translate(101.09232 266.598437)scale(0.1 -0.1)">
       <defs>
        <path id="DejaVuSans-32" d="M 1228 531 
L 3431 531 
L 3431 0 
L 469 0 
L 469 531 
Q 828 903 1448 1529 
Q 2069 2156 2228 2338 
Q 2531 2678 2651 2914 
Q 2772 3150 2772 3378 
Q 2772 3750 2511 3984 
Q 2250 4219 1831 4219 
Q 1534 4219 1204 4116 
Q 875 4013 500 3803 
L 500 4441 
Q 881 4594 1212 4672 
Q 1544 4750 1819 4750 
Q 2544 4750 2975 4387 
Q 3406 4025 3406 3419 
Q 3406 3131 3298 2873 
Q 3191 2616 2906 2266 
Q 2828 2175 2409 1742 
Q 1991 1309 1228 531 
z
" transform="scale(0.015625)"/>
        <path id="DejaVuSans-35" d="M 691 4666 
L 3169 4666 
L 3169 4134 
L 1269 4134 
L 1269 2991 
Q 1406 3038 1543 3061 
Q 1681 3084 1819 3084 
Q 2600 3084 3056 2656 
Q 3513 2228 3513 1497 
Q 3513 744 3044 326 
Q 2575 -91 1722 -91 
Q 1428 -91 1123 -41 
Q 819 9 494 109 
L 494 744 
Q 775 591 1075 516 
Q 1375 441 1709 441 
Q 2250 441 2565 725 
Q 2881 1009 2881 1497 
Q 2881 1984 2565 2268 
Q 2250 2553 1709 2553 
Q 1456 2553 1204 2497 
Q 953 2441 691 2322 
L 691 4666 
z
" transform="scale(0.015625)"/>
       </defs>
       <use xlink:href="#DejaVuSans-32"/>
       <use xlink:href="#DejaVuSans-35" x="63.623047"/>
      </g>
     </g>
    </g>
    <g id="xtick_3">
     <g id="line2d_3">
      <g>
       <use xlink:href="#me07fa56bda" x="145.691457" y="252" style="stroke: #000000; stroke-width: 0.8"/>
      </g>
     </g>
     <g id="text_3">
      <!-- 50 -->
      <g transform="translate(139.328957 266.598437)scale(0.1 -0.1)">
       <use xlink:href="#DejaVuSans-35"/>
       <use xlink:href="#DejaVuSans-30" x="63.623047"/>
      </g>
     </g>
    </g>
    <g id="xtick_4">
     <g id="line2d_4">
      <g>
       <use xlink:href="#me07fa56bda" x="183.928095" y="252" style="stroke: #000000; stroke-width: 0.8"/>
      </g>
     </g>
     <g id="text_4">
      <!-- 75 -->
      <g transform="translate(177.565595 266.598437)scale(0.1 -0.1)">
       <defs>
        <path id="DejaVuSans-37" d="M 525 4666 
L 3525 4666 
L 3525 4397 
L 1831 0 
L 1172 0 
L 2766 4134 
L 525 4134 
L 525 4666 
z
" transform="scale(0.015625)"/>
       </defs>
       <use xlink:href="#DejaVuSans-37"/>
       <use xlink:href="#DejaVuSans-35" x="63.623047"/>
      </g>
     </g>
    </g>
    <g id="xtick_5">
     <g id="line2d_5">
      <g>
       <use xlink:href="#me07fa56bda" x="222.164733" y="252" style="stroke: #000000; stroke-width: 0.8"/>
      </g>
     </g>
     <g id="text_5">
      <!-- 100 -->
      <g transform="translate(212.620983 266.598437)scale(0.1 -0.1)">
       <defs>
        <path id="DejaVuSans-31" d="M 794 531 
L 1825 531 
L 1825 4091 
L 703 3866 
L 703 4441 
L 1819 4666 
L 2450 4666 
L 2450 531 
L 3481 531 
L 3481 0 
L 794 0 
L 794 531 
z
" transform="scale(0.015625)"/>
       </defs>
       <use xlink:href="#DejaVuSans-31"/>
       <use xlink:href="#DejaVuSans-30" x="63.623047"/>
       <use xlink:href="#DejaVuSans-30" x="127.246094"/>
      </g>
     </g>
    </g>
    <g id="xtick_6">
     <g id="line2d_6">
      <g>
       <use xlink:href="#me07fa56bda" x="260.40137" y="252" style="stroke: #000000; stroke-width: 0.8"/>
      </g>
     </g>
     <g id="text_6">
      <!-- 125 -->
      <g transform="translate(250.85762 266.598437)scale(0.1 -0.1)">
       <use xlink:href="#DejaVuSans-31"/>
       <use xlink:href="#DejaVuSans-32" x="63.623047"/>
       <use xlink:href="#DejaVuSans-35" x="127.246094"/>
      </g>
     </g>
    </g>
    <g id="xtick_7">
     <g id="line2d_7">
      <g>
       <use xlink:href="#me07fa56bda" x="298.638008" y="252" style="stroke: #000000; stroke-width: 0.8"/>
      </g>
     </g>
     <g id="text_7">
      <!-- 150 -->
      <g transform="translate(289.094258 266.598437)scale(0.1 -0.1)">
       <use xlink:href="#DejaVuSans-31"/>
       <use xlink:href="#DejaVuSans-35" x="63.623047"/>
       <use xlink:href="#DejaVuSans-30" x="127.246094"/>
      </g>
     </g>
    </g>
    <g id="xtick_8">
     <g id="line2d_8">
      <g>
       <use xlink:href="#me07fa56bda" x="336.874646" y="252" style="stroke: #000000; stroke-width: 0.8"/>
      </g>
     </g>
     <g id="text_8">
      <!-- 175 -->
      <g transform="translate(327.330896 266.598437)scale(0.1 -0.1)">
       <use xlink:href="#DejaVuSans-31"/>
       <use xlink:href="#DejaVuSans-37" x="63.623047"/>
       <use xlink:href="#DejaVuSans-35" x="127.246094"/>
      </g>
     </g>
    </g>
    <g id="xtick_9">
     <g id="line2d_9">
      <g>
       <use xlink:href="#me07fa56bda" x="375.111284" y="252" style="stroke: #000000; stroke-width: 0.8"/>
      </g>
     </g>
     <g id="text_9">
      <!-- 200 -->
      <g transform="translate(365.567534 266.598437)scale(0.1 -0.1)">
       <use xlink:href="#DejaVuSans-32"/>
       <use xlink:href="#DejaVuSans-30" x="63.623047"/>
       <use xlink:href="#DejaVuSans-30" x="127.246094"/>
      </g>
     </g>
    </g>
   </g>
   <g id="matplotlib.axis_2">
    <g id="ytick_1">
     <g id="line2d_10">
      <defs>
       <path id="m0104edc1c1" d="M 0 0 
L -3.5 0 
" style="stroke: #000000; stroke-width: 0.8"/>
      </defs>
      <g>
       <use xlink:href="#m0104edc1c1" x="54" y="244.197425" style="stroke: #000000; stroke-width: 0.8"/>
      </g>
     </g>
     <g id="text_10">
      <!-- 0.00 -->
      <g transform="translate(24.734375 247.996644)scale(0.1 -0.1)">
       <defs>
        <path id="DejaVuSans-2e" d="M 684 794 
L 1344 794 
L 1344 0 
L 684 0 
L 684 794 
z
" transform="scale(0.015625)"/>
       </defs>
       <use xlink:href="#DejaVuSans-30"/>
       <use xlink:href="#DejaVuSans-2e" x="63.623047"/>
       <use xlink:href="#DejaVuSans-30" x="95.410156"/>
       <use xlink:href="#DejaVuSans-30" x="159.033203"/>
      </g>
     </g>
    </g>
    <g id="ytick_2">
     <g id="line2d_11">
      <g>
       <use xlink:href="#m0104edc1c1" x="54" y="215.143413" style="stroke: #000000; stroke-width: 0.8"/>
      </g>
     </g>
     <g id="text_11">
      <!-- 0.25 -->
      <g transform="translate(24.734375 218.942632)scale(0.1 -0.1)">
       <use xlink:href="#DejaVuSans-30"/>
       <use xlink:href="#DejaVuSans-2e" x="63.623047"/>
       <use xlink:href="#DejaVuSans-32" x="95.410156"/>
       <use xlink:href="#DejaVuSans-35" x="159.033203"/>
      </g>
     </g>
    </g>
    <g id="ytick_3">
     <g id="line2d_12">
      <g>
       <use xlink:href="#m0104edc1c1" x="54" y="186.089402" style="stroke: #000000; stroke-width: 0.8"/>
      </g>
     </g>
     <g id="text_12">
      <!-- 0.50 -->
      <g transform="translate(24.734375 189.88862)scale(0.1 -0.1)">
       <use xlink:href="#DejaVuSans-30"/>
       <use xlink:href="#DejaVuSans-2e" x="63.623047"/>
       <use xlink:href="#DejaVuSans-35" x="95.410156"/>
       <use xlink:href="#DejaVuSans-30" x="159.033203"/>
      </g>
     </g>
    </g>
    <g id="ytick_4">
     <g id="line2d_13">
      <g>
       <use xlink:href="#m0104edc1c1" x="54" y="157.03539" style="stroke: #000000; stroke-width: 0.8"/>
      </g>
     </g>
     <g id="text_13">
      <!-- 0.75 -->
      <g transform="translate(24.734375 160.834608)scale(0.1 -0.1)">
       <use xlink:href="#DejaVuSans-30"/>
       <use xlink:href="#DejaVuSans-2e" x="63.623047"/>
       <use xlink:href="#DejaVuSans-37" x="95.410156"/>
       <use xlink:href="#DejaVuSans-35" x="159.033203"/>
      </g>
     </g>
    </g>
    <g id="ytick_5">
     <g id="line2d_14">
      <g>
       <use xlink:href="#m0104edc1c1" x="54" y="127.981378" style="stroke: #000000; stroke-width: 0.8"/>
      </g>
     </g>
     <g id="text_14">
      <!-- 1.00 -->
      <g transform="translate(24.734375 131.780596)scale(0.1 -0.1)">
       <use xlink:href="#DejaVuSans-31"/>
       <use xlink:href="#DejaVuSans-2e" x="63.623047"/>
       <use xlink:href="#DejaVuSans-30" x="95.410156"/>
       <use xlink:href="#DejaVuSans-30" x="159.033203"/>
      </g>
     </g>
    </g>
    <g id="ytick_6">
     <g id="line2d_15">
      <g>
       <use xlink:href="#m0104edc1c1" x="54" y="98.927366" style="stroke: #000000; stroke-width: 0.8"/>
      </g>
     </g>
     <g id="text_15">
      <!-- 1.25 -->
      <g transform="translate(24.734375 102.726585)scale(0.1 -0.1)">
       <use xlink:href="#DejaVuSans-31"/>
       <use xlink:href="#DejaVuSans-2e" x="63.623047"/>
       <use xlink:href="#DejaVuSans-32" x="95.410156"/>
       <use xlink:href="#DejaVuSans-35" x="159.033203"/>
      </g>
     </g>
    </g>
    <g id="ytick_7">
     <g id="line2d_16">
      <g>
       <use xlink:href="#m0104edc1c1" x="54" y="69.873354" style="stroke: #000000; stroke-width: 0.8"/>
      </g>
     </g>
     <g id="text_16">
      <!-- 1.50 -->
      <g transform="translate(24.734375 73.672573)scale(0.1 -0.1)">
       <use xlink:href="#DejaVuSans-31"/>
       <use xlink:href="#DejaVuSans-2e" x="63.623047"/>
       <use xlink:href="#DejaVuSans-35" x="95.410156"/>
       <use xlink:href="#DejaVuSans-30" x="159.033203"/>
      </g>
     </g>
    </g>
    <g id="ytick_8">
     <g id="line2d_17">
      <g>
       <use xlink:href="#m0104edc1c1" x="54" y="40.819342" style="stroke: #000000; stroke-width: 0.8"/>
      </g>
     </g>
     <g id="text_17">
      <!-- 1.75 -->
      <g transform="translate(24.734375 44.618561)scale(0.1 -0.1)">
       <use xlink:href="#DejaVuSans-31"/>
       <use xlink:href="#DejaVuSans-2e" x="63.623047"/>
       <use xlink:href="#DejaVuSans-37" x="95.410156"/>
       <use xlink:href="#DejaVuSans-35" x="159.033203"/>
      </g>
     </g>
    </g>
    <g id="text_18">
     <!-- Loss -->
     <g transform="translate(18.654688 154.247187)rotate(-90)scale(0.1 -0.1)">
      <defs>
       <path id="DejaVuSans-4c" d="M 628 4666 
L 1259 4666 
L 1259 531 
L 3531 531 
L 3531 0 
L 628 0 
L 628 4666 
z
" transform="scale(0.015625)"/>
       <path id="DejaVuSans-6f" d="M 1959 3097 
Q 1497 3097 1228 2736 
Q 959 2375 959 1747 
Q 959 1119 1226 758 
Q 1494 397 1959 397 
Q 2419 397 2687 759 
Q 2956 1122 2956 1747 
Q 2956 2369 2687 2733 
Q 2419 3097 1959 3097 
z
M 1959 3584 
Q 2709 3584 3137 3096 
Q 3566 2609 3566 1747 
Q 3566 888 3137 398 
Q 2709 -91 1959 -91 
Q 1206 -91 779 398 
Q 353 888 353 1747 
Q 353 2609 779 3096 
Q 1206 3584 1959 3584 
z
" transform="scale(0.015625)"/>
       <path id="DejaVuSans-73" d="M 2834 3397 
L 2834 2853 
Q 2591 2978 2328 3040 
Q 2066 3103 1784 3103 
Q 1356 3103 1142 2972 
Q 928 2841 928 2578 
Q 928 2378 1081 2264 
Q 1234 2150 1697 2047 
L 1894 2003 
Q 2506 1872 2764 1633 
Q 3022 1394 3022 966 
Q 3022 478 2636 193 
Q 2250 -91 1575 -91 
Q 1294 -91 989 -36 
Q 684 19 347 128 
L 347 722 
Q 666 556 975 473 
Q 1284 391 1588 391 
Q 1994 391 2212 530 
Q 2431 669 2431 922 
Q 2431 1156 2273 1281 
Q 2116 1406 1581 1522 
L 1381 1569 
Q 847 1681 609 1914 
Q 372 2147 372 2553 
Q 372 3047 722 3315 
Q 1072 3584 1716 3584 
Q 2034 3584 2315 3537 
Q 2597 3491 2834 3397 
z
" transform="scale(0.015625)"/>
      </defs>
      <use xlink:href="#DejaVuSans-4c"/>
      <use xlink:href="#DejaVuSans-6f" x="53.962891"/>
      <use xlink:href="#DejaVuSans-73" x="115.144531"/>
      <use xlink:href="#DejaVuSans-73" x="167.244141"/>
     </g>
    </g>
   </g>
   <g id="line2d_18">
    <path d="M 69.218182 44.443636 
L 70.747647 79.132508 
L 72.277113 98.941323 
L 73.806578 113.324117 
L 75.336044 123.3255 
L 76.865509 130.574297 
L 78.394975 136.432326 
L 79.92444 141.197132 
L 81.453906 145.472434 
L 84.512837 152.806024 
L 87.571768 159.753763 
L 89.101233 161.344071 
L 90.630699 164.055577 
L 92.160164 165.984754 
L 93.68963 168.71895 
L 95.219095 170.264269 
L 96.748561 172.035417 
L 98.278026 174.187305 
L 99.807492 175.39834 
L 101.336958 177.540085 
L 102.866423 178.774864 
L 104.395889 180.378935 
L 107.45482 182.939774 
L 108.984285 183.956603 
L 110.513751 184.7716 
L 112.043216 186.320169 
L 113.572682 187.363658 
L 115.102147 188.576268 
L 118.161078 190.599917 
L 119.690544 192.16231 
L 122.749475 193.682864 
L 124.27894 194.700352 
L 125.808406 195.278669 
L 128.867337 197.283258 
L 130.396802 197.931236 
L 131.926268 199.339163 
L 133.455733 199.753694 
L 134.985199 200.785549 
L 136.514664 201.601501 
L 138.04413 202.032122 
L 139.573595 203.31018 
L 142.632526 204.849765 
L 144.161992 205.231119 
L 148.750388 207.330303 
L 150.279854 208.31278 
L 153.338785 209.916299 
L 154.86825 210.29195 
L 157.927181 212.003215 
L 159.456647 212.048175 
L 162.515578 213.81688 
L 164.045043 213.583329 
L 165.574509 214.537113 
L 167.103974 215.113201 
L 168.63344 215.87282 
L 170.162905 216.373157 
L 171.692371 216.63031 
L 174.751302 218.029878 
L 176.280767 218.274231 
L 177.810233 219.419275 
L 179.339698 219.846073 
L 180.869164 219.700214 
L 182.39863 220.858893 
L 183.928095 221.385611 
L 186.987026 221.543259 
L 188.516492 222.073913 
L 190.045957 223.063127 
L 191.575423 222.965167 
L 193.104888 223.758039 
L 194.634354 224.154657 
L 196.163819 224.280074 
L 197.693285 225.162491 
L 199.22275 224.986922 
L 200.752216 225.796054 
L 208.399543 227.749183 
L 209.929009 228.125017 
L 211.458474 228.157373 
L 212.98794 228.830565 
L 214.517405 228.897279 
L 216.046871 229.190343 
L 217.576336 229.698881 
L 219.105802 229.853616 
L 220.635267 230.228717 
L 222.164733 230.026864 
L 223.694198 231.222782 
L 225.223664 231.039838 
L 226.753129 231.475826 
L 228.282595 232.242345 
L 229.81206 231.454505 
L 231.341526 232.50157 
L 232.870991 232.276488 
L 234.400457 232.735253 
L 237.459388 233.463204 
L 238.988853 233.489066 
L 240.518319 233.971167 
L 242.047784 233.866721 
L 243.57725 234.292837 
L 246.636181 234.268594 
L 248.165646 234.971395 
L 249.695112 234.767127 
L 251.224577 235.206432 
L 254.283508 235.622015 
L 255.812974 236.063606 
L 257.342439 235.995922 
L 258.871905 236.545244 
L 264.989767 236.845649 
L 266.519233 237.351044 
L 268.048698 237.442464 
L 269.578164 237.786092 
L 271.107629 237.727511 
L 272.637095 237.843666 
L 274.16656 238.17988 
L 275.696026 237.888717 
L 277.225491 238.325836 
L 278.754957 238.576773 
L 280.284422 238.42257 
L 281.813888 238.871876 
L 283.343353 238.550145 
L 284.872819 238.850002 
L 287.93175 239.01184 
L 290.990681 239.765728 
L 292.520146 239.442926 
L 294.049612 239.791061 
L 297.108543 239.912845 
L 298.638008 239.791135 
L 300.167474 240.063238 
L 301.696939 240.072273 
L 304.75587 240.397912 
L 306.285336 240.377848 
L 310.873732 240.727953 
L 312.403198 240.638721 
L 313.932663 240.782121 
L 315.462129 240.709214 
L 316.991594 240.93448 
L 318.52106 240.801831 
L 320.050525 241.066316 
L 324.638922 241.29555 
L 326.168387 241.401176 
L 329.227318 241.357104 
L 330.756784 241.581829 
L 333.815715 241.376712 
L 335.34518 241.470426 
L 338.404111 241.470072 
L 339.933577 241.675596 
L 341.463042 241.648734 
L 342.992508 241.780265 
L 346.051439 241.645437 
L 347.580905 241.842352 
L 353.698767 241.831677 
L 355.228232 241.977799 
L 358.287163 241.838528 
L 361.346094 242.1038 
L 364.405025 241.814289 
L 367.463956 241.993268 
L 370.522887 241.942452 
L 373.581818 242.116364 
L 373.581818 242.116364 
" clip-path="url(#p59f6ef9270)" style="fill: none; stroke: #1f77b4; stroke-width: 1.5; stroke-linecap: square"/>
   </g>
   <g id="line2d_19">
    <path d="M 69.218182 76.036577 
L 70.747647 101.009625 
L 72.277113 116.915444 
L 73.806578 119.958104 
L 75.336044 129.999315 
L 76.865509 136.79812 
L 78.394975 141.109563 
L 79.92444 142.700393 
L 81.453906 146.340592 
L 82.983371 154.491557 
L 84.512837 153.008471 
L 86.042302 156.110249 
L 87.571768 159.903601 
L 89.101233 159.051409 
L 90.630699 161.939562 
L 92.160164 165.807541 
L 93.68963 165.309088 
L 95.219095 162.549493 
L 96.748561 167.554592 
L 98.278026 166.13948 
L 99.807492 169.879414 
L 101.336958 167.801848 
L 102.866423 172.829285 
L 104.395889 171.825801 
L 105.925354 169.662235 
L 107.45482 172.733543 
L 110.513751 176.112568 
L 112.043216 171.144939 
L 113.572682 175.203806 
L 115.102147 176.66488 
L 116.631613 173.61967 
L 118.161078 175.804483 
L 121.220009 177.578763 
L 122.749475 176.784173 
L 124.27894 177.379419 
L 125.808406 176.90987 
L 127.337871 177.75129 
L 128.867337 177.789707 
L 130.396802 178.852495 
L 131.926268 178.605072 
L 133.455733 178.61326 
L 134.985199 177.597712 
L 136.514664 178.433174 
L 138.04413 177.659741 
L 139.573595 180.60248 
L 141.103061 178.871724 
L 142.632526 179.150213 
L 144.161992 177.534978 
L 145.691457 176.887964 
L 147.220923 177.393748 
L 148.750388 178.813428 
L 150.279854 177.68914 
L 151.809319 175.277906 
L 153.338785 176.694086 
L 154.86825 177.795017 
L 156.397716 173.135901 
L 157.927181 176.20266 
L 159.456647 173.978764 
L 160.986112 176.765873 
L 162.515578 172.790055 
L 164.045043 174.137264 
L 165.574509 174.746963 
L 167.103974 171.144317 
L 168.63344 173.895233 
L 170.162905 172.052661 
L 171.692371 173.16056 
L 173.221836 172.432203 
L 174.751302 169.868011 
L 176.280767 169.147293 
L 177.810233 171.500185 
L 179.339698 168.505017 
L 180.869164 167.998978 
L 182.39863 170.501316 
L 183.928095 165.443903 
L 185.457561 167.942563 
L 190.045957 167.023385 
L 191.575423 166.289933 
L 193.104888 162.592366 
L 194.634354 160.653307 
L 196.163819 166.885123 
L 197.693285 162.87074 
L 199.22275 165.576575 
L 200.752216 162.971448 
L 202.281681 161.116099 
L 203.811147 159.002629 
L 205.340612 161.641004 
L 206.870078 162.301964 
L 208.399543 159.399927 
L 209.929009 161.67063 
L 211.458474 158.574191 
L 212.98794 157.943434 
L 214.517405 161.481059 
L 216.046871 153.749213 
L 217.576336 154.764428 
L 219.105802 158.259074 
L 220.635267 156.742243 
L 222.164733 157.181586 
L 225.223664 155.227596 
L 226.753129 154.693383 
L 228.282595 154.321426 
L 229.81206 150.675897 
L 231.341526 152.01471 
L 232.870991 154.858255 
L 234.400457 151.925507 
L 235.929922 152.784812 
L 237.459388 148.171089 
L 238.988853 150.774227 
L 240.518319 148.565033 
L 242.047784 148.228122 
L 245.106715 145.836918 
L 246.636181 150.355464 
L 248.165646 145.454645 
L 249.695112 146.872318 
L 251.224577 145.410567 
L 252.754043 147.365647 
L 254.283508 145.579696 
L 255.812974 145.918964 
L 257.342439 144.424611 
L 258.871905 140.585009 
L 260.40137 142.320334 
L 261.930836 140.907282 
L 263.460302 141.584147 
L 264.989767 138.729062 
L 266.519233 139.0846 
L 268.048698 136.876227 
L 269.578164 137.635529 
L 271.107629 138.574312 
L 272.637095 138.127407 
L 274.16656 135.715902 
L 275.696026 139.896742 
L 277.225491 137.061728 
L 278.754957 136.127219 
L 280.284422 135.462113 
L 281.813888 136.360522 
L 283.343353 135.893867 
L 286.402284 133.888935 
L 287.93175 135.798272 
L 289.461215 133.913797 
L 290.990681 131.733816 
L 292.520146 133.926802 
L 294.049612 132.025087 
L 295.579077 132.44898 
L 298.638008 132.971567 
L 300.167474 130.921945 
L 301.696939 130.484373 
L 303.226405 128.376539 
L 304.75587 129.712773 
L 306.285336 128.82431 
L 307.814801 129.295432 
L 309.344267 130.280596 
L 310.873732 130.093097 
L 312.403198 129.076047 
L 313.932663 128.831419 
L 315.462129 129.496316 
L 316.991594 127.836663 
L 318.52106 128.645537 
L 320.050525 128.458147 
L 321.579991 127.25164 
L 323.109456 126.564309 
L 324.638922 126.5763 
L 327.697853 126.88146 
L 329.227318 126.708749 
L 330.756784 126.251248 
L 332.286249 126.597819 
L 333.815715 126.080263 
L 335.34518 126.097669 
L 336.874646 125.527056 
L 338.404111 125.465587 
L 339.933577 125.744035 
L 341.463042 126.358349 
L 342.992508 125.875863 
L 346.051439 125.168185 
L 347.580905 124.735944 
L 349.11037 124.523976 
L 352.169301 124.881659 
L 353.698767 124.829722 
L 355.228232 125.105949 
L 356.757698 125.010366 
L 359.816629 124.688519 
L 361.346094 124.537004 
L 362.87556 124.603323 
L 367.463956 124.353399 
L 373.581818 124.32708 
L 373.581818 124.32708 
" clip-path="url(#p59f6ef9270)" style="fill: none; stroke: #ff7f0e; stroke-width: 1.5; stroke-linecap: square"/>
   </g>
   <g id="patch_3">
    <path d="M 54 252 
L 54 34.56 
" style="fill: none; stroke: #000000; stroke-width: 0.8; stroke-linejoin: miter; stroke-linecap: square"/>
   </g>
   <g id="patch_4">
    <path d="M 388.8 252 
L 388.8 34.56 
" style="fill: none; stroke: #000000; stroke-width: 0.8; stroke-linejoin: miter; stroke-linecap: square"/>
   </g>
   <g id="patch_5">
    <path d="M 54 252 
L 388.8 252 
" style="fill: none; stroke: #000000; stroke-width: 0.8; stroke-linejoin: miter; stroke-linecap: square"/>
   </g>
   <g id="patch_6">
    <path d="M 54 34.56 
L 388.8 34.56 
" style="fill: none; stroke: #000000; stroke-width: 0.8; stroke-linejoin: miter; stroke-linecap: square"/>
   </g>
   <g id="legend_1">
    <g id="patch_7">
     <path d="M 326.525 71.91625 
L 381.8 71.91625 
Q 383.8 71.91625 383.8 69.91625 
L 383.8 41.56 
Q 383.8 39.56 381.8 39.56 
L 326.525 39.56 
Q 324.525 39.56 324.525 41.56 
L 324.525 69.91625 
Q 324.525 71.91625 326.525 71.91625 
z
" style="fill: #ffffff; opacity: 0.8; stroke: #cccccc; stroke-linejoin: miter"/>
    </g>
    <g id="line2d_20">
     <path d="M 328.525 47.658437 
L 338.525 47.658437 
L 348.525 47.658437 
" style="fill: none; stroke: #1f77b4; stroke-width: 1.5; stroke-linecap: square"/>
    </g>
    <g id="text_19">
     <!-- train -->
     <g transform="translate(356.525 51.158437)scale(0.1 -0.1)">
      <defs>
       <path id="DejaVuSans-74" d="M 1172 4494 
L 1172 3500 
L 2356 3500 
L 2356 3053 
L 1172 3053 
L 1172 1153 
Q 1172 725 1289 603 
Q 1406 481 1766 481 
L 2356 481 
L 2356 0 
L 1766 0 
Q 1100 0 847 248 
Q 594 497 594 1153 
L 594 3053 
L 172 3053 
L 172 3500 
L 594 3500 
L 594 4494 
L 1172 4494 
z
" transform="scale(0.015625)"/>
       <path id="DejaVuSans-72" d="M 2631 2963 
Q 2534 3019 2420 3045 
Q 2306 3072 2169 3072 
Q 1681 3072 1420 2755 
Q 1159 2438 1159 1844 
L 1159 0 
L 581 0 
L 581 3500 
L 1159 3500 
L 1159 2956 
Q 1341 3275 1631 3429 
Q 1922 3584 2338 3584 
Q 2397 3584 2469 3576 
Q 2541 3569 2628 3553 
L 2631 2963 
z
" transform="scale(0.015625)"/>
       <path id="DejaVuSans-61" d="M 2194 1759 
Q 1497 1759 1228 1600 
Q 959 1441 959 1056 
Q 959 750 1161 570 
Q 1363 391 1709 391 
Q 2188 391 2477 730 
Q 2766 1069 2766 1631 
L 2766 1759 
L 2194 1759 
z
M 3341 1997 
L 3341 0 
L 2766 0 
L 2766 531 
Q 2569 213 2275 61 
Q 1981 -91 1556 -91 
Q 1019 -91 701 211 
Q 384 513 384 1019 
Q 384 1609 779 1909 
Q 1175 2209 1959 2209 
L 2766 2209 
L 2766 2266 
Q 2766 2663 2505 2880 
Q 2244 3097 1772 3097 
Q 1472 3097 1187 3025 
Q 903 2953 641 2809 
L 641 3341 
Q 956 3463 1253 3523 
Q 1550 3584 1831 3584 
Q 2591 3584 2966 3190 
Q 3341 2797 3341 1997 
z
" transform="scale(0.015625)"/>
       <path id="DejaVuSans-69" d="M 603 3500 
L 1178 3500 
L 1178 0 
L 603 0 
L 603 3500 
z
M 603 4863 
L 1178 4863 
L 1178 4134 
L 603 4134 
L 603 4863 
z
" transform="scale(0.015625)"/>
       <path id="DejaVuSans-6e" d="M 3513 2113 
L 3513 0 
L 2938 0 
L 2938 2094 
Q 2938 2591 2744 2837 
Q 2550 3084 2163 3084 
Q 1697 3084 1428 2787 
Q 1159 2491 1159 1978 
L 1159 0 
L 581 0 
L 581 3500 
L 1159 3500 
L 1159 2956 
Q 1366 3272 1645 3428 
Q 1925 3584 2291 3584 
Q 2894 3584 3203 3211 
Q 3513 2838 3513 2113 
z
" transform="scale(0.015625)"/>
      </defs>
      <use xlink:href="#DejaVuSans-74"/>
      <use xlink:href="#DejaVuSans-72" x="39.208984"/>
      <use xlink:href="#DejaVuSans-61" x="80.322266"/>
      <use xlink:href="#DejaVuSans-69" x="141.601562"/>
      <use xlink:href="#DejaVuSans-6e" x="169.384766"/>
     </g>
    </g>
    <g id="line2d_21">
     <path d="M 328.525 62.336562 
L 338.525 62.336562 
L 348.525 62.336562 
" style="fill: none; stroke: #ff7f0e; stroke-width: 1.5; stroke-linecap: square"/>
    </g>
    <g id="text_20">
     <!-- test -->
     <g transform="translate(356.525 65.836562)scale(0.1 -0.1)">
      <defs>
       <path id="DejaVuSans-65" d="M 3597 1894 
L 3597 1613 
L 953 1613 
Q 991 1019 1311 708 
Q 1631 397 2203 397 
Q 2534 397 2845 478 
Q 3156 559 3463 722 
L 3463 178 
Q 3153 47 2828 -22 
Q 2503 -91 2169 -91 
Q 1331 -91 842 396 
Q 353 884 353 1716 
Q 353 2575 817 3079 
Q 1281 3584 2069 3584 
Q 2775 3584 3186 3129 
Q 3597 2675 3597 1894 
z
M 3022 2063 
Q 3016 2534 2758 2815 
Q 2500 3097 2075 3097 
Q 1594 3097 1305 2825 
Q 1016 2553 972 2059 
L 3022 2063 
z
" transform="scale(0.015625)"/>
      </defs>
      <use xlink:href="#DejaVuSans-74"/>
      <use xlink:href="#DejaVuSans-65" x="39.208984"/>
      <use xlink:href="#DejaVuSans-73" x="100.732422"/>
      <use xlink:href="#DejaVuSans-74" x="152.832031"/>
     </g>
    </g>
   </g>
  </g>
 </g>
 <defs>
  <clipPath id="p59f6ef9270">
   <rect x="54" y="34.56" width="334.8" height="217.44"/>
  </clipPath>
 </defs>
</svg>
