<?xml version="1.0" encoding="utf-8" standalone="no"?>
<!DOCTYPE svg PUBLIC "-//W3C//DTD SVG 1.1//EN"
  "http://www.w3.org/Graphics/SVG/1.1/DTD/svg11.dtd">
<!-- Created with matplotlib (https://matplotlib.org/) -->
<svg height="576pt" version="1.1" viewBox="0 0 1152 576" width="1152pt" xmlns="http://www.w3.org/2000/svg" xmlns:xlink="http://www.w3.org/1999/xlink">
 <defs>
  <style type="text/css">
*{stroke-linecap:butt;stroke-linejoin:round;}
  </style>
 </defs>
 <g id="figure_1">
  <g id="patch_1">
   <path d="M 0 576 
L 1152 576 
L 1152 0 
L 0 0 
z
" style="fill:#ffffff;"/>
  </g>
  <g id="axes_1">
   <g id="patch_2">
    <path d="M 144 504 
L 1036.8 504 
L 1036.8 69.12 
L 144 69.12 
z
" style="fill:#ffffff;"/>
   </g>
   <g id="matplotlib.axis_1">
    <g id="xtick_1">
     <g id="line2d_1">
      <defs>
       <path d="M 0 0 
L 0 3.5 
" id="m7d226bf435" style="stroke:#000000;stroke-width:0.8;"/>
      </defs>
      <g>
       <use style="stroke:#000000;stroke-width:0.8;" x="182.527043" xlink:href="#m7d226bf435" y="504"/>
      </g>
     </g>
     <g id="text_1">
      <!-- 0 -->
      <defs>
       <path d="M 31.78125 66.40625 
Q 24.171875 66.40625 20.328125 58.90625 
Q 16.5 51.421875 16.5 36.375 
Q 16.5 21.390625 20.328125 13.890625 
Q 24.171875 6.390625 31.78125 6.390625 
Q 39.453125 6.390625 43.28125 13.890625 
Q 47.125 21.390625 47.125 36.375 
Q 47.125 51.421875 43.28125 58.90625 
Q 39.453125 66.40625 31.78125 66.40625 
z
M 31.78125 74.21875 
Q 44.046875 74.21875 50.515625 64.515625 
Q 56.984375 54.828125 56.984375 36.375 
Q 56.984375 17.96875 50.515625 8.265625 
Q 44.046875 -1.421875 31.78125 -1.421875 
Q 19.53125 -1.421875 13.0625 8.265625 
Q 6.59375 17.96875 6.59375 36.375 
Q 6.59375 54.828125 13.0625 64.515625 
Q 19.53125 74.21875 31.78125 74.21875 
z
" id="DejaVuSans-48"/>
      </defs>
      <g transform="translate(179.345793 518.598438)scale(0.1 -0.1)">
       <use xlink:href="#DejaVuSans-48"/>
      </g>
     </g>
    </g>
    <g id="xtick_2">
     <g id="line2d_2">
      <g>
       <use style="stroke:#000000;stroke-width:0.8;" x="285.265823" xlink:href="#m7d226bf435" y="504"/>
      </g>
     </g>
     <g id="text_2">
      <!-- 50 -->
      <defs>
       <path d="M 10.796875 72.90625 
L 49.515625 72.90625 
L 49.515625 64.59375 
L 19.828125 64.59375 
L 19.828125 46.734375 
Q 21.96875 47.46875 24.109375 47.828125 
Q 26.265625 48.1875 28.421875 48.1875 
Q 40.625 48.1875 47.75 41.5 
Q 54.890625 34.8125 54.890625 23.390625 
Q 54.890625 11.625 47.5625 5.09375 
Q 40.234375 -1.421875 26.90625 -1.421875 
Q 22.3125 -1.421875 17.546875 -0.640625 
Q 12.796875 0.140625 7.71875 1.703125 
L 7.71875 11.625 
Q 12.109375 9.234375 16.796875 8.0625 
Q 21.484375 6.890625 26.703125 6.890625 
Q 35.15625 6.890625 40.078125 11.328125 
Q 45.015625 15.765625 45.015625 23.390625 
Q 45.015625 31 40.078125 35.4375 
Q 35.15625 39.890625 26.703125 39.890625 
Q 22.75 39.890625 18.8125 39.015625 
Q 14.890625 38.140625 10.796875 36.28125 
z
" id="DejaVuSans-53"/>
      </defs>
      <g transform="translate(278.903323 518.598438)scale(0.1 -0.1)">
       <use xlink:href="#DejaVuSans-53"/>
       <use x="63.623047" xlink:href="#DejaVuSans-48"/>
      </g>
     </g>
    </g>
    <g id="xtick_3">
     <g id="line2d_3">
      <g>
       <use style="stroke:#000000;stroke-width:0.8;" x="388.004603" xlink:href="#m7d226bf435" y="504"/>
      </g>
     </g>
     <g id="text_3">
      <!-- 100 -->
      <defs>
       <path d="M 12.40625 8.296875 
L 28.515625 8.296875 
L 28.515625 63.921875 
L 10.984375 60.40625 
L 10.984375 69.390625 
L 28.421875 72.90625 
L 38.28125 72.90625 
L 38.28125 8.296875 
L 54.390625 8.296875 
L 54.390625 0 
L 12.40625 0 
z
" id="DejaVuSans-49"/>
      </defs>
      <g transform="translate(378.460853 518.598438)scale(0.1 -0.1)">
       <use xlink:href="#DejaVuSans-49"/>
       <use x="63.623047" xlink:href="#DejaVuSans-48"/>
       <use x="127.246094" xlink:href="#DejaVuSans-48"/>
      </g>
     </g>
    </g>
    <g id="xtick_4">
     <g id="line2d_4">
      <g>
       <use style="stroke:#000000;stroke-width:0.8;" x="490.743383" xlink:href="#m7d226bf435" y="504"/>
      </g>
     </g>
     <g id="text_4">
      <!-- 150 -->
      <g transform="translate(481.199633 518.598438)scale(0.1 -0.1)">
       <use xlink:href="#DejaVuSans-49"/>
       <use x="63.623047" xlink:href="#DejaVuSans-53"/>
       <use x="127.246094" xlink:href="#DejaVuSans-48"/>
      </g>
     </g>
    </g>
    <g id="xtick_5">
     <g id="line2d_5">
      <g>
       <use style="stroke:#000000;stroke-width:0.8;" x="593.482163" xlink:href="#m7d226bf435" y="504"/>
      </g>
     </g>
     <g id="text_5">
      <!-- 200 -->
      <defs>
       <path d="M 19.1875 8.296875 
L 53.609375 8.296875 
L 53.609375 0 
L 7.328125 0 
L 7.328125 8.296875 
Q 12.9375 14.109375 22.625 23.890625 
Q 32.328125 33.6875 34.8125 36.53125 
Q 39.546875 41.84375 41.421875 45.53125 
Q 43.3125 49.21875 43.3125 52.78125 
Q 43.3125 58.59375 39.234375 62.25 
Q 35.15625 65.921875 28.609375 65.921875 
Q 23.96875 65.921875 18.8125 64.3125 
Q 13.671875 62.703125 7.8125 59.421875 
L 7.8125 69.390625 
Q 13.765625 71.78125 18.9375 73 
Q 24.125 74.21875 28.421875 74.21875 
Q 39.75 74.21875 46.484375 68.546875 
Q 53.21875 62.890625 53.21875 53.421875 
Q 53.21875 48.921875 51.53125 44.890625 
Q 49.859375 40.875 45.40625 35.40625 
Q 44.1875 33.984375 37.640625 27.21875 
Q 31.109375 20.453125 19.1875 8.296875 
z
" id="DejaVuSans-50"/>
      </defs>
      <g transform="translate(583.938413 518.598438)scale(0.1 -0.1)">
       <use xlink:href="#DejaVuSans-50"/>
       <use x="63.623047" xlink:href="#DejaVuSans-48"/>
       <use x="127.246094" xlink:href="#DejaVuSans-48"/>
      </g>
     </g>
    </g>
    <g id="xtick_6">
     <g id="line2d_6">
      <g>
       <use style="stroke:#000000;stroke-width:0.8;" x="696.220944" xlink:href="#m7d226bf435" y="504"/>
      </g>
     </g>
     <g id="text_6">
      <!-- 250 -->
      <g transform="translate(686.677194 518.598438)scale(0.1 -0.1)">
       <use xlink:href="#DejaVuSans-50"/>
       <use x="63.623047" xlink:href="#DejaVuSans-53"/>
       <use x="127.246094" xlink:href="#DejaVuSans-48"/>
      </g>
     </g>
    </g>
    <g id="xtick_7">
     <g id="line2d_7">
      <g>
       <use style="stroke:#000000;stroke-width:0.8;" x="798.959724" xlink:href="#m7d226bf435" y="504"/>
      </g>
     </g>
     <g id="text_7">
      <!-- 300 -->
      <defs>
       <path d="M 40.578125 39.3125 
Q 47.65625 37.796875 51.625 33 
Q 55.609375 28.21875 55.609375 21.1875 
Q 55.609375 10.40625 48.1875 4.484375 
Q 40.765625 -1.421875 27.09375 -1.421875 
Q 22.515625 -1.421875 17.65625 -0.515625 
Q 12.796875 0.390625 7.625 2.203125 
L 7.625 11.71875 
Q 11.71875 9.328125 16.59375 8.109375 
Q 21.484375 6.890625 26.8125 6.890625 
Q 36.078125 6.890625 40.9375 10.546875 
Q 45.796875 14.203125 45.796875 21.1875 
Q 45.796875 27.640625 41.28125 31.265625 
Q 36.765625 34.90625 28.71875 34.90625 
L 20.21875 34.90625 
L 20.21875 43.015625 
L 29.109375 43.015625 
Q 36.375 43.015625 40.234375 45.921875 
Q 44.09375 48.828125 44.09375 54.296875 
Q 44.09375 59.90625 40.109375 62.90625 
Q 36.140625 65.921875 28.71875 65.921875 
Q 24.65625 65.921875 20.015625 65.03125 
Q 15.375 64.15625 9.8125 62.3125 
L 9.8125 71.09375 
Q 15.4375 72.65625 20.34375 73.4375 
Q 25.25 74.21875 29.59375 74.21875 
Q 40.828125 74.21875 47.359375 69.109375 
Q 53.90625 64.015625 53.90625 55.328125 
Q 53.90625 49.265625 50.4375 45.09375 
Q 46.96875 40.921875 40.578125 39.3125 
z
" id="DejaVuSans-51"/>
      </defs>
      <g transform="translate(789.415974 518.598438)scale(0.1 -0.1)">
       <use xlink:href="#DejaVuSans-51"/>
       <use x="63.623047" xlink:href="#DejaVuSans-48"/>
       <use x="127.246094" xlink:href="#DejaVuSans-48"/>
      </g>
     </g>
    </g>
    <g id="xtick_8">
     <g id="line2d_8">
      <g>
       <use style="stroke:#000000;stroke-width:0.8;" x="901.698504" xlink:href="#m7d226bf435" y="504"/>
      </g>
     </g>
     <g id="text_8">
      <!-- 350 -->
      <g transform="translate(892.154754 518.598438)scale(0.1 -0.1)">
       <use xlink:href="#DejaVuSans-51"/>
       <use x="63.623047" xlink:href="#DejaVuSans-53"/>
       <use x="127.246094" xlink:href="#DejaVuSans-48"/>
      </g>
     </g>
    </g>
    <g id="xtick_9">
     <g id="line2d_9">
      <g>
       <use style="stroke:#000000;stroke-width:0.8;" x="1004.437284" xlink:href="#m7d226bf435" y="504"/>
      </g>
     </g>
     <g id="text_9">
      <!-- 400 -->
      <defs>
       <path d="M 37.796875 64.3125 
L 12.890625 25.390625 
L 37.796875 25.390625 
z
M 35.203125 72.90625 
L 47.609375 72.90625 
L 47.609375 25.390625 
L 58.015625 25.390625 
L 58.015625 17.1875 
L 47.609375 17.1875 
L 47.609375 0 
L 37.796875 0 
L 37.796875 17.1875 
L 4.890625 17.1875 
L 4.890625 26.703125 
z
" id="DejaVuSans-52"/>
      </defs>
      <g transform="translate(994.893534 518.598438)scale(0.1 -0.1)">
       <use xlink:href="#DejaVuSans-52"/>
       <use x="63.623047" xlink:href="#DejaVuSans-48"/>
       <use x="127.246094" xlink:href="#DejaVuSans-48"/>
      </g>
     </g>
    </g>
    <g id="text_10">
     <!-- Number of Neurons pruned -->
     <defs>
      <path d="M 9.8125 72.90625 
L 23.09375 72.90625 
L 55.421875 11.921875 
L 55.421875 72.90625 
L 64.984375 72.90625 
L 64.984375 0 
L 51.703125 0 
L 19.390625 60.984375 
L 19.390625 0 
L 9.8125 0 
z
" id="DejaVuSans-78"/>
      <path d="M 8.5 21.578125 
L 8.5 54.6875 
L 17.484375 54.6875 
L 17.484375 21.921875 
Q 17.484375 14.15625 20.5 10.265625 
Q 23.53125 6.390625 29.59375 6.390625 
Q 36.859375 6.390625 41.078125 11.03125 
Q 45.3125 15.671875 45.3125 23.6875 
L 45.3125 54.6875 
L 54.296875 54.6875 
L 54.296875 0 
L 45.3125 0 
L 45.3125 8.40625 
Q 42.046875 3.421875 37.71875 1 
Q 33.40625 -1.421875 27.6875 -1.421875 
Q 18.265625 -1.421875 13.375 4.4375 
Q 8.5 10.296875 8.5 21.578125 
z
M 31.109375 56 
z
" id="DejaVuSans-117"/>
      <path d="M 52 44.1875 
Q 55.375 50.25 60.0625 53.125 
Q 64.75 56 71.09375 56 
Q 79.640625 56 84.28125 50.015625 
Q 88.921875 44.046875 88.921875 33.015625 
L 88.921875 0 
L 79.890625 0 
L 79.890625 32.71875 
Q 79.890625 40.578125 77.09375 44.375 
Q 74.3125 48.1875 68.609375 48.1875 
Q 61.625 48.1875 57.5625 43.546875 
Q 53.515625 38.921875 53.515625 30.90625 
L 53.515625 0 
L 44.484375 0 
L 44.484375 32.71875 
Q 44.484375 40.625 41.703125 44.40625 
Q 38.921875 48.1875 33.109375 48.1875 
Q 26.21875 48.1875 22.15625 43.53125 
Q 18.109375 38.875 18.109375 30.90625 
L 18.109375 0 
L 9.078125 0 
L 9.078125 54.6875 
L 18.109375 54.6875 
L 18.109375 46.1875 
Q 21.1875 51.21875 25.484375 53.609375 
Q 29.78125 56 35.6875 56 
Q 41.65625 56 45.828125 52.96875 
Q 50 49.953125 52 44.1875 
z
" id="DejaVuSans-109"/>
      <path d="M 48.6875 27.296875 
Q 48.6875 37.203125 44.609375 42.84375 
Q 40.53125 48.484375 33.40625 48.484375 
Q 26.265625 48.484375 22.1875 42.84375 
Q 18.109375 37.203125 18.109375 27.296875 
Q 18.109375 17.390625 22.1875 11.75 
Q 26.265625 6.109375 33.40625 6.109375 
Q 40.53125 6.109375 44.609375 11.75 
Q 48.6875 17.390625 48.6875 27.296875 
z
M 18.109375 46.390625 
Q 20.953125 51.265625 25.265625 53.625 
Q 29.59375 56 35.59375 56 
Q 45.5625 56 51.78125 48.09375 
Q 58.015625 40.1875 58.015625 27.296875 
Q 58.015625 14.40625 51.78125 6.484375 
Q 45.5625 -1.421875 35.59375 -1.421875 
Q 29.59375 -1.421875 25.265625 0.953125 
Q 20.953125 3.328125 18.109375 8.203125 
L 18.109375 0 
L 9.078125 0 
L 9.078125 75.984375 
L 18.109375 75.984375 
z
" id="DejaVuSans-98"/>
      <path d="M 56.203125 29.59375 
L 56.203125 25.203125 
L 14.890625 25.203125 
Q 15.484375 15.921875 20.484375 11.0625 
Q 25.484375 6.203125 34.421875 6.203125 
Q 39.59375 6.203125 44.453125 7.46875 
Q 49.3125 8.734375 54.109375 11.28125 
L 54.109375 2.78125 
Q 49.265625 0.734375 44.1875 -0.34375 
Q 39.109375 -1.421875 33.890625 -1.421875 
Q 20.796875 -1.421875 13.15625 6.1875 
Q 5.515625 13.8125 5.515625 26.8125 
Q 5.515625 40.234375 12.765625 48.109375 
Q 20.015625 56 32.328125 56 
Q 43.359375 56 49.78125 48.890625 
Q 56.203125 41.796875 56.203125 29.59375 
z
M 47.21875 32.234375 
Q 47.125 39.59375 43.09375 43.984375 
Q 39.0625 48.390625 32.421875 48.390625 
Q 24.90625 48.390625 20.390625 44.140625 
Q 15.875 39.890625 15.1875 32.171875 
z
" id="DejaVuSans-101"/>
      <path d="M 41.109375 46.296875 
Q 39.59375 47.171875 37.8125 47.578125 
Q 36.03125 48 33.890625 48 
Q 26.265625 48 22.1875 43.046875 
Q 18.109375 38.09375 18.109375 28.8125 
L 18.109375 0 
L 9.078125 0 
L 9.078125 54.6875 
L 18.109375 54.6875 
L 18.109375 46.1875 
Q 20.953125 51.171875 25.484375 53.578125 
Q 30.03125 56 36.53125 56 
Q 37.453125 56 38.578125 55.875 
Q 39.703125 55.765625 41.0625 55.515625 
z
" id="DejaVuSans-114"/>
      <path id="DejaVuSans-32"/>
      <path d="M 30.609375 48.390625 
Q 23.390625 48.390625 19.1875 42.75 
Q 14.984375 37.109375 14.984375 27.296875 
Q 14.984375 17.484375 19.15625 11.84375 
Q 23.34375 6.203125 30.609375 6.203125 
Q 37.796875 6.203125 41.984375 11.859375 
Q 46.1875 17.53125 46.1875 27.296875 
Q 46.1875 37.015625 41.984375 42.703125 
Q 37.796875 48.390625 30.609375 48.390625 
z
M 30.609375 56 
Q 42.328125 56 49.015625 48.375 
Q 55.71875 40.765625 55.71875 27.296875 
Q 55.71875 13.875 49.015625 6.21875 
Q 42.328125 -1.421875 30.609375 -1.421875 
Q 18.84375 -1.421875 12.171875 6.21875 
Q 5.515625 13.875 5.515625 27.296875 
Q 5.515625 40.765625 12.171875 48.375 
Q 18.84375 56 30.609375 56 
z
" id="DejaVuSans-111"/>
      <path d="M 37.109375 75.984375 
L 37.109375 68.5 
L 28.515625 68.5 
Q 23.6875 68.5 21.796875 66.546875 
Q 19.921875 64.59375 19.921875 59.515625 
L 19.921875 54.6875 
L 34.71875 54.6875 
L 34.71875 47.703125 
L 19.921875 47.703125 
L 19.921875 0 
L 10.890625 0 
L 10.890625 47.703125 
L 2.296875 47.703125 
L 2.296875 54.6875 
L 10.890625 54.6875 
L 10.890625 58.5 
Q 10.890625 67.625 15.140625 71.796875 
Q 19.390625 75.984375 28.609375 75.984375 
z
" id="DejaVuSans-102"/>
      <path d="M 54.890625 33.015625 
L 54.890625 0 
L 45.90625 0 
L 45.90625 32.71875 
Q 45.90625 40.484375 42.875 44.328125 
Q 39.84375 48.1875 33.796875 48.1875 
Q 26.515625 48.1875 22.3125 43.546875 
Q 18.109375 38.921875 18.109375 30.90625 
L 18.109375 0 
L 9.078125 0 
L 9.078125 54.6875 
L 18.109375 54.6875 
L 18.109375 46.1875 
Q 21.34375 51.125 25.703125 53.5625 
Q 30.078125 56 35.796875 56 
Q 45.21875 56 50.046875 50.171875 
Q 54.890625 44.34375 54.890625 33.015625 
z
" id="DejaVuSans-110"/>
      <path d="M 44.28125 53.078125 
L 44.28125 44.578125 
Q 40.484375 46.53125 36.375 47.5 
Q 32.28125 48.484375 27.875 48.484375 
Q 21.1875 48.484375 17.84375 46.4375 
Q 14.5 44.390625 14.5 40.28125 
Q 14.5 37.15625 16.890625 35.375 
Q 19.28125 33.59375 26.515625 31.984375 
L 29.59375 31.296875 
Q 39.15625 29.25 43.1875 25.515625 
Q 47.21875 21.78125 47.21875 15.09375 
Q 47.21875 7.46875 41.1875 3.015625 
Q 35.15625 -1.421875 24.609375 -1.421875 
Q 20.21875 -1.421875 15.453125 -0.5625 
Q 10.6875 0.296875 5.421875 2 
L 5.421875 11.28125 
Q 10.40625 8.6875 15.234375 7.390625 
Q 20.0625 6.109375 24.8125 6.109375 
Q 31.15625 6.109375 34.5625 8.28125 
Q 37.984375 10.453125 37.984375 14.40625 
Q 37.984375 18.0625 35.515625 20.015625 
Q 33.0625 21.96875 24.703125 23.78125 
L 21.578125 24.515625 
Q 13.234375 26.265625 9.515625 29.90625 
Q 5.8125 33.546875 5.8125 39.890625 
Q 5.8125 47.609375 11.28125 51.796875 
Q 16.75 56 26.8125 56 
Q 31.78125 56 36.171875 55.265625 
Q 40.578125 54.546875 44.28125 53.078125 
z
" id="DejaVuSans-115"/>
      <path d="M 18.109375 8.203125 
L 18.109375 -20.796875 
L 9.078125 -20.796875 
L 9.078125 54.6875 
L 18.109375 54.6875 
L 18.109375 46.390625 
Q 20.953125 51.265625 25.265625 53.625 
Q 29.59375 56 35.59375 56 
Q 45.5625 56 51.78125 48.09375 
Q 58.015625 40.1875 58.015625 27.296875 
Q 58.015625 14.40625 51.78125 6.484375 
Q 45.5625 -1.421875 35.59375 -1.421875 
Q 29.59375 -1.421875 25.265625 0.953125 
Q 20.953125 3.328125 18.109375 8.203125 
z
M 48.6875 27.296875 
Q 48.6875 37.203125 44.609375 42.84375 
Q 40.53125 48.484375 33.40625 48.484375 
Q 26.265625 48.484375 22.1875 42.84375 
Q 18.109375 37.203125 18.109375 27.296875 
Q 18.109375 17.390625 22.1875 11.75 
Q 26.265625 6.109375 33.40625 6.109375 
Q 40.53125 6.109375 44.609375 11.75 
Q 48.6875 17.390625 48.6875 27.296875 
z
" id="DejaVuSans-112"/>
      <path d="M 45.40625 46.390625 
L 45.40625 75.984375 
L 54.390625 75.984375 
L 54.390625 0 
L 45.40625 0 
L 45.40625 8.203125 
Q 42.578125 3.328125 38.25 0.953125 
Q 33.9375 -1.421875 27.875 -1.421875 
Q 17.96875 -1.421875 11.734375 6.484375 
Q 5.515625 14.40625 5.515625 27.296875 
Q 5.515625 40.1875 11.734375 48.09375 
Q 17.96875 56 27.875 56 
Q 33.9375 56 38.25 53.625 
Q 42.578125 51.265625 45.40625 46.390625 
z
M 14.796875 27.296875 
Q 14.796875 17.390625 18.875 11.75 
Q 22.953125 6.109375 30.078125 6.109375 
Q 37.203125 6.109375 41.296875 11.75 
Q 45.40625 17.390625 45.40625 27.296875 
Q 45.40625 37.203125 41.296875 42.84375 
Q 37.203125 48.484375 30.078125 48.484375 
Q 22.953125 48.484375 18.875 42.84375 
Q 14.796875 37.203125 14.796875 27.296875 
z
" id="DejaVuSans-100"/>
     </defs>
     <g transform="translate(522.147656 532.276562)scale(0.1 -0.1)">
      <use xlink:href="#DejaVuSans-78"/>
      <use x="74.804688" xlink:href="#DejaVuSans-117"/>
      <use x="138.183594" xlink:href="#DejaVuSans-109"/>
      <use x="235.595703" xlink:href="#DejaVuSans-98"/>
      <use x="299.072266" xlink:href="#DejaVuSans-101"/>
      <use x="360.595703" xlink:href="#DejaVuSans-114"/>
      <use x="401.708984" xlink:href="#DejaVuSans-32"/>
      <use x="433.496094" xlink:href="#DejaVuSans-111"/>
      <use x="494.677734" xlink:href="#DejaVuSans-102"/>
      <use x="529.882812" xlink:href="#DejaVuSans-32"/>
      <use x="561.669922" xlink:href="#DejaVuSans-78"/>
      <use x="636.474609" xlink:href="#DejaVuSans-101"/>
      <use x="697.998047" xlink:href="#DejaVuSans-117"/>
      <use x="761.376953" xlink:href="#DejaVuSans-114"/>
      <use x="800.240234" xlink:href="#DejaVuSans-111"/>
      <use x="861.421875" xlink:href="#DejaVuSans-110"/>
      <use x="924.800781" xlink:href="#DejaVuSans-115"/>
      <use x="976.900391" xlink:href="#DejaVuSans-32"/>
      <use x="1008.6875" xlink:href="#DejaVuSans-112"/>
      <use x="1072.164062" xlink:href="#DejaVuSans-114"/>
      <use x="1113.277344" xlink:href="#DejaVuSans-117"/>
      <use x="1176.65625" xlink:href="#DejaVuSans-110"/>
      <use x="1240.035156" xlink:href="#DejaVuSans-101"/>
      <use x="1301.558594" xlink:href="#DejaVuSans-100"/>
     </g>
    </g>
   </g>
   <g id="matplotlib.axis_2">
    <g id="ytick_1">
     <g id="line2d_10">
      <defs>
       <path d="M 0 0 
L -3.5 0 
" id="m22651c3fd7" style="stroke:#000000;stroke-width:0.8;"/>
      </defs>
      <g>
       <use style="stroke:#000000;stroke-width:0.8;" x="144" xlink:href="#m22651c3fd7" y="489.591258"/>
      </g>
     </g>
     <g id="text_11">
      <!-- 0 -->
      <g transform="translate(130.6375 493.390477)scale(0.1 -0.1)">
       <use xlink:href="#DejaVuSans-48"/>
      </g>
     </g>
    </g>
    <g id="ytick_2">
     <g id="line2d_11">
      <g>
       <use style="stroke:#000000;stroke-width:0.8;" x="144" xlink:href="#m22651c3fd7" y="414.411372"/>
      </g>
     </g>
     <g id="text_12">
      <!-- 1 -->
      <g transform="translate(130.6375 418.21059)scale(0.1 -0.1)">
       <use xlink:href="#DejaVuSans-49"/>
      </g>
     </g>
    </g>
    <g id="ytick_3">
     <g id="line2d_12">
      <g>
       <use style="stroke:#000000;stroke-width:0.8;" x="144" xlink:href="#m22651c3fd7" y="339.231485"/>
      </g>
     </g>
     <g id="text_13">
      <!-- 2 -->
      <g transform="translate(130.6375 343.030704)scale(0.1 -0.1)">
       <use xlink:href="#DejaVuSans-50"/>
      </g>
     </g>
    </g>
    <g id="ytick_4">
     <g id="line2d_13">
      <g>
       <use style="stroke:#000000;stroke-width:0.8;" x="144" xlink:href="#m22651c3fd7" y="264.051599"/>
      </g>
     </g>
     <g id="text_14">
      <!-- 3 -->
      <g transform="translate(130.6375 267.850817)scale(0.1 -0.1)">
       <use xlink:href="#DejaVuSans-51"/>
      </g>
     </g>
    </g>
    <g id="ytick_5">
     <g id="line2d_14">
      <g>
       <use style="stroke:#000000;stroke-width:0.8;" x="144" xlink:href="#m22651c3fd7" y="188.871712"/>
      </g>
     </g>
     <g id="text_15">
      <!-- 4 -->
      <g transform="translate(130.6375 192.670931)scale(0.1 -0.1)">
       <use xlink:href="#DejaVuSans-52"/>
      </g>
     </g>
    </g>
    <g id="ytick_6">
     <g id="line2d_15">
      <g>
       <use style="stroke:#000000;stroke-width:0.8;" x="144" xlink:href="#m22651c3fd7" y="113.691826"/>
      </g>
     </g>
     <g id="text_16">
      <!-- 5 -->
      <g transform="translate(130.6375 117.491045)scale(0.1 -0.1)">
       <use xlink:href="#DejaVuSans-53"/>
      </g>
     </g>
    </g>
    <g id="text_17">
     <!-- Loss -->
     <defs>
      <path d="M 9.8125 72.90625 
L 19.671875 72.90625 
L 19.671875 8.296875 
L 55.171875 8.296875 
L 55.171875 0 
L 9.8125 0 
z
" id="DejaVuSans-76"/>
     </defs>
     <g transform="translate(124.557812 297.527188)rotate(-90)scale(0.1 -0.1)">
      <use xlink:href="#DejaVuSans-76"/>
      <use x="53.962891" xlink:href="#DejaVuSans-111"/>
      <use x="115.144531" xlink:href="#DejaVuSans-115"/>
      <use x="167.244141" xlink:href="#DejaVuSans-115"/>
     </g>
    </g>
   </g>
   <g id="line2d_16">
    <path clip-path="url(#pca5cebe38b)" d="M 184.581818 483.788376 
L 194.855696 483.163486 
L 205.129574 481.865434 
L 215.403452 479.653286 
L 225.67733 476.888197 
L 235.951208 472.869224 
L 246.225086 465.818884 
L 256.498964 457.528101 
L 266.772842 448.310324 
L 277.04672 441.145344 
L 287.320598 441.790766 
L 297.594476 441.112928 
L 307.868354 439.828581 
L 318.142232 432.444637 
L 328.41611 424.223061 
L 338.689988 421.307255 
L 348.963867 403.449759 
L 359.237745 402.328515 
L 369.511623 394.403249 
L 379.785501 393.798179 
L 390.059379 384.517721 
L 400.333257 361.792097 
L 410.607135 353.111896 
L 420.881013 350.021275 
L 431.154891 335.467045 
L 441.428769 313.354397 
L 451.702647 296.12011 
L 461.976525 275.956817 
L 472.250403 267.317116 
L 482.524281 244.698339 
L 492.798159 217.925413 
L 503.072037 197.509675 
L 513.345915 187.938897 
L 523.619793 189.375546 
L 533.893671 172.742691 
L 544.167549 170.262759 
L 554.441427 177.016198 
L 564.715305 173.647186 
L 574.989183 141.33114 
L 585.263061 138.792739 
L 595.536939 102.107506 
L 605.810817 88.887273 
L 616.084695 90.777567 
L 626.358573 92.655961 
L 636.632451 90.421412 
L 646.906329 102.363142 
L 657.180207 110.451618 
L 667.454085 143.722239 
L 677.727963 128.483445 
L 688.001841 167.458648 
L 698.275719 222.252837 
L 708.549597 214.08225 
L 718.823475 246.485677 
L 729.097353 282.789714 
L 739.371231 311.766287 
L 749.645109 316.532659 
L 759.918987 316.106634 
L 770.192865 316.106634 
L 780.466743 316.106634 
L 790.740621 316.106634 
L 801.014499 316.106634 
L 811.288377 316.106634 
L 821.562255 316.106634 
L 831.836133 316.106634 
L 842.110012 316.106634 
L 852.38389 316.106634 
L 862.657768 316.106634 
L 872.931646 316.106634 
L 883.205524 316.106634 
L 893.479402 316.106634 
L 903.75328 316.106634 
L 914.027158 316.106634 
L 924.301036 316.106634 
L 934.574914 316.106634 
L 944.848792 316.106634 
L 955.12267 316.106634 
L 965.396548 316.106634 
L 975.670426 316.106634 
L 985.944304 316.106634 
L 996.218182 316.106634 
" style="fill:none;stroke:#1f77b4;stroke-linecap:square;stroke-width:1.5;"/>
   </g>
   <g id="line2d_17">
    <path clip-path="url(#pca5cebe38b)" d="M 184.581818 483.92384 
L 194.855696 483.670121 
L 205.129574 483.303614 
L 215.403452 482.586609 
L 225.67733 481.746344 
L 235.951208 480.002164 
L 246.225086 478.669607 
L 256.498964 475.749029 
L 266.772842 474.348708 
L 277.04672 471.511939 
L 287.320598 468.684082 
L 297.594476 463.008473 
L 307.868354 458.660963 
L 318.142232 452.644299 
L 328.41611 446.832288 
L 338.689988 439.651946 
L 348.963867 429.79926 
L 359.237745 419.730299 
L 369.511623 407.839962 
L 379.785501 396.512731 
L 390.059379 379.946186 
L 400.333257 369.739571 
L 410.607135 362.915582 
L 420.881013 355.65425 
L 431.154891 348.017556 
L 441.428769 337.345044 
L 451.702647 326.131273 
L 461.976525 325.68037 
L 472.250403 321.778397 
L 482.524281 320.805951 
L 492.798159 317.360635 
L 503.072037 316.106634 
L 513.345915 316.106634 
L 523.619793 316.106634 
L 533.893671 316.106634 
L 544.167549 316.106634 
L 554.441427 316.106634 
L 564.715305 316.106634 
L 574.989183 316.106634 
L 585.263061 316.106634 
L 595.536939 316.106634 
L 605.810817 316.106634 
L 616.084695 316.106634 
L 626.358573 316.106634 
L 636.632451 316.106634 
L 646.906329 316.106634 
L 657.180207 316.106634 
L 667.454085 316.106634 
L 677.727963 316.106634 
L 688.001841 316.106634 
L 698.275719 316.106634 
L 708.549597 316.106634 
L 718.823475 316.106634 
L 729.097353 316.106634 
L 739.371231 316.106634 
L 749.645109 316.106634 
L 759.918987 316.106634 
L 770.192865 316.106634 
L 780.466743 316.106634 
L 790.740621 316.106634 
L 801.014499 316.106634 
L 811.288377 316.106634 
L 821.562255 316.106634 
L 831.836133 316.106634 
L 842.110012 316.106634 
L 852.38389 316.106634 
L 862.657768 316.106634 
L 872.931646 316.106634 
L 883.205524 316.106634 
L 893.479402 316.106634 
L 903.75328 316.106634 
L 914.027158 316.106634 
L 924.301036 316.106634 
L 934.574914 316.106634 
L 944.848792 316.106634 
L 955.12267 316.106634 
L 965.396548 316.106634 
L 975.670426 316.106634 
L 985.944304 316.106634 
L 996.218182 316.106634 
" style="fill:none;stroke:#ff7f0e;stroke-linecap:square;stroke-width:1.5;"/>
   </g>
   <g id="line2d_18">
    <path clip-path="url(#pca5cebe38b)" d="M 184.581818 483.884175 
L 194.855696 483.622943 
L 205.129574 483.219343 
L 215.403452 482.523787 
L 225.67733 481.591894 
L 235.951208 480.420133 
L 246.225086 478.29995 
L 256.498964 476.828448 
L 266.772842 473.987441 
L 277.04672 472.366788 
L 287.320598 469.192915 
L 297.594476 464.394257 
L 307.868354 456.518115 
L 318.142232 445.350452 
L 328.41611 438.36881 
L 338.689988 424.641552 
L 348.963867 418.11525 
L 359.237745 408.617473 
L 369.511623 399.424252 
L 379.785501 385.131412 
L 390.059379 373.019527 
L 400.333257 356.929087 
L 410.607135 345.9227 
L 420.881013 328.683332 
L 431.154891 327.959908 
L 441.428769 324.434112 
L 451.702647 316.106634 
L 461.976525 316.106634 
L 472.250403 316.106634 
L 482.524281 316.106634 
L 492.798159 316.106634 
L 503.072037 316.106634 
L 513.345915 316.106634 
L 523.619793 316.106634 
L 533.893671 316.106634 
L 544.167549 316.106634 
L 554.441427 316.106634 
L 564.715305 316.106634 
L 574.989183 316.106634 
L 585.263061 316.106634 
L 595.536939 316.106634 
L 605.810817 316.106634 
L 616.084695 316.106634 
L 626.358573 316.106634 
L 636.632451 316.106634 
L 646.906329 316.106634 
L 657.180207 316.106634 
L 667.454085 316.106634 
L 677.727963 316.106634 
L 688.001841 316.106634 
L 698.275719 316.106634 
L 708.549597 316.106634 
L 718.823475 316.106634 
L 729.097353 316.106634 
L 739.371231 316.106634 
L 749.645109 316.106634 
L 759.918987 316.106634 
L 770.192865 316.106634 
L 780.466743 316.106634 
L 790.740621 316.106634 
L 801.014499 316.106634 
L 811.288377 316.106634 
L 821.562255 316.106634 
L 831.836133 316.106634 
L 842.110012 316.106634 
L 852.38389 316.106634 
L 862.657768 316.106634 
L 872.931646 316.106634 
L 883.205524 316.106634 
L 893.479402 316.106634 
L 903.75328 316.106634 
L 914.027158 316.106634 
L 924.301036 316.106634 
L 934.574914 316.106634 
L 944.848792 316.106634 
L 955.12267 316.106634 
L 965.396548 316.106634 
L 975.670426 316.106634 
L 985.944304 316.106634 
L 996.218182 316.106634 
" style="fill:none;stroke:#2ca02c;stroke-linecap:square;stroke-width:1.5;"/>
   </g>
   <g id="line2d_19">
    <path clip-path="url(#pca5cebe38b)" d="M 184.581818 483.92384 
L 194.855696 483.568178 
L 205.129574 482.976063 
L 215.403452 482.14295 
L 225.67733 480.957781 
L 235.951208 479.568409 
L 246.225086 478.788606 
L 256.498964 476.773719 
L 266.772842 474.569415 
L 277.04672 470.326323 
L 287.320598 462.891694 
L 297.594476 460.524676 
L 307.868354 454.226688 
L 318.142232 443.676808 
L 328.41611 431.45912 
L 338.689988 422.250166 
L 348.963867 416.974024 
L 359.237745 406.377646 
L 369.511623 396.737976 
L 379.785501 392.654843 
L 390.059379 384.895331 
L 400.333257 381.95661 
L 410.607135 381.711137 
L 420.881013 373.490801 
L 431.154891 372.321313 
L 441.428769 364.847255 
L 451.702647 360.445652 
L 461.976525 353.335869 
L 472.250403 347.623222 
L 482.524281 342.936353 
L 492.798159 338.156118 
L 503.072037 332.027752 
L 513.345915 327.899754 
L 523.619793 324.921581 
L 533.893671 326.080422 
L 544.167549 323.035427 
L 554.441427 321.959199 
L 564.715305 323.236358 
L 574.989183 317.025326 
L 585.263061 316.017389 
L 595.536939 315.435962 
L 605.810817 319.117089 
L 616.084695 315.279877 
L 626.358573 315.844832 
L 636.632451 315.66835 
L 646.906329 313.459827 
L 657.180207 312.557196 
L 667.454085 312.270964 
L 677.727963 311.704933 
L 688.001841 310.253317 
L 698.275719 316.106634 
L 708.549597 316.106634 
L 718.823475 316.106634 
L 729.097353 316.106634 
L 739.371231 316.106634 
L 749.645109 316.106634 
L 759.918987 316.106634 
L 770.192865 316.106634 
L 780.466743 316.106634 
L 790.740621 316.106634 
L 801.014499 316.106634 
L 811.288377 316.106634 
L 821.562255 316.106634 
L 831.836133 316.106634 
L 842.110012 316.106634 
L 852.38389 316.106634 
L 862.657768 316.106634 
L 872.931646 316.106634 
L 883.205524 316.106634 
L 893.479402 316.106634 
L 903.75328 316.106634 
L 914.027158 316.106634 
L 924.301036 316.106634 
L 934.574914 316.106634 
L 944.848792 316.106634 
L 955.12267 316.106634 
L 965.396548 316.106634 
L 975.670426 316.106634 
L 985.944304 316.106634 
L 996.218182 316.106634 
" style="fill:none;stroke:#d62728;stroke-dasharray:5.55,2.4;stroke-dashoffset:0;stroke-width:1.5;"/>
   </g>
   <g id="line2d_20">
    <path clip-path="url(#pca5cebe38b)" d="M 184.581818 483.895333 
L 194.855696 483.223789 
L 205.129574 482.21545 
L 215.403452 480.899494 
L 225.67733 478.407877 
L 235.951208 474.90884 
L 246.225086 472.559013 
L 256.498964 469.66018 
L 266.772842 465.436879 
L 277.04672 458.697504 
L 287.320598 454.55263 
L 297.594476 450.009331 
L 307.868354 440.850749 
L 318.142232 430.514703 
L 328.41611 424.18986 
L 338.689988 414.097464 
L 348.963867 409.555576 
L 359.237745 403.618436 
L 369.511623 393.580219 
L 379.785501 390.351008 
L 390.059379 379.594037 
L 400.333257 371.876469 
L 410.607135 366.768514 
L 420.881013 359.624397 
L 431.154891 353.629792 
L 441.428769 347.598387 
L 451.702647 343.359447 
L 461.976525 334.340809 
L 472.250403 330.370491 
L 482.524281 322.500351 
L 492.798159 311.900254 
L 503.072037 315.85815 
L 513.345915 314.34414 
L 523.619793 313.25601 
L 533.893671 314.07662 
L 544.167549 311.561897 
L 554.441427 309.512596 
L 564.715305 303.560605 
L 574.989183 309.761672 
L 585.263061 308.160585 
L 595.536939 307.92877 
L 605.810817 303.501867 
L 616.084695 302.166885 
L 626.358573 300.551746 
L 636.632451 310.367817 
L 646.906329 309.549054 
L 657.180207 307.308787 
L 667.454085 307.174786 
L 677.727963 310.019871 
L 688.001841 316.106634 
L 698.275719 316.106634 
L 708.549597 316.106634 
L 718.823475 316.106634 
L 729.097353 316.106634 
L 739.371231 316.106634 
L 749.645109 316.106634 
L 759.918987 316.106634 
L 770.192865 316.106634 
L 780.466743 316.106634 
L 790.740621 316.106634 
L 801.014499 316.106634 
L 811.288377 316.106634 
L 821.562255 316.106634 
L 831.836133 316.106634 
L 842.110012 316.106634 
L 852.38389 316.106634 
L 862.657768 316.106634 
L 872.931646 316.106634 
L 883.205524 316.106634 
L 893.479402 316.106634 
L 903.75328 316.106634 
L 914.027158 316.106634 
L 924.301036 316.106634 
L 934.574914 316.106634 
L 944.848792 316.106634 
L 955.12267 316.106634 
L 965.396548 316.106634 
L 975.670426 316.106634 
L 985.944304 316.106634 
L 996.218182 316.106634 
" style="fill:none;stroke:#9467bd;stroke-dasharray:5.55,2.4;stroke-dashoffset:0;stroke-width:1.5;"/>
   </g>
   <g id="line2d_21">
    <path clip-path="url(#pca5cebe38b)" d="M 184.581818 484.214087 
L 194.855696 483.778126 
L 205.129574 483.112406 
L 215.403452 482.541324 
L 225.67733 481.811427 
L 235.951208 479.744448 
L 246.225086 478.684595 
L 256.498964 477.210298 
L 266.772842 476.487752 
L 277.04672 474.978384 
L 287.320598 471.811236 
L 297.594476 468.456744 
L 307.868354 467.426633 
L 318.142232 463.909228 
L 328.41611 458.636982 
L 338.689988 455.701332 
L 348.963867 452.090273 
L 359.237745 442.983635 
L 369.511623 435.391367 
L 379.785501 427.426923 
L 390.059379 418.962795 
L 400.333257 404.549459 
L 410.607135 410.31924 
L 420.881013 402.642243 
L 431.154891 403.217989 
L 441.428769 390.017912 
L 451.702647 379.330613 
L 461.976525 366.35855 
L 472.250403 364.786635 
L 482.524281 359.235396 
L 492.798159 345.836771 
L 503.072037 330.74328 
L 513.345915 315.765159 
L 523.619793 284.690585 
L 533.893671 262.808944 
L 544.167549 255.785027 
L 554.441427 260.491908 
L 564.715305 256.972529 
L 574.989183 259.551923 
L 585.263061 316.272452 
L 595.536939 316.272452 
L 605.810817 316.272452 
L 616.084695 316.272452 
L 626.358573 316.272452 
L 636.632451 316.272452 
L 646.906329 316.272452 
L 657.180207 316.272452 
L 667.454085 316.272452 
L 677.727963 316.272452 
L 688.001841 316.272452 
L 698.275719 316.272452 
L 708.549597 316.272452 
L 718.823475 316.272452 
L 729.097353 316.272452 
L 739.371231 316.272452 
L 749.645109 316.272452 
L 759.918987 316.272452 
L 770.192865 316.272452 
L 780.466743 316.272452 
L 790.740621 316.272452 
L 801.014499 316.272452 
L 811.288377 316.272452 
L 821.562255 316.272452 
L 831.836133 316.272452 
L 842.110012 316.272452 
L 852.38389 316.272452 
L 862.657768 316.272452 
L 872.931646 316.272452 
L 883.205524 316.272452 
L 893.479402 316.272452 
L 903.75328 316.272452 
L 914.027158 316.272452 
L 924.301036 316.272452 
L 934.574914 316.272452 
L 944.848792 316.272452 
L 955.12267 316.272452 
L 965.396548 316.272452 
L 975.670426 316.272452 
L 985.944304 316.272452 
L 996.218182 316.272452 
" style="fill:none;stroke:#8c564b;stroke-linecap:square;stroke-width:1.5;"/>
   </g>
   <g id="line2d_22">
    <path clip-path="url(#pca5cebe38b)" d="M 184.581818 484.232727 
L 194.855696 483.963771 
L 205.129574 483.412036 
L 215.403452 482.338836 
L 225.67733 481.428847 
L 235.951208 479.048395 
L 246.225086 477.982281 
L 256.498964 476.773779 
L 266.772842 474.821192 
L 277.04672 471.405199 
L 287.320598 467.727829 
L 297.594476 460.517531 
L 307.868354 455.722479 
L 318.142232 448.464271 
L 328.41611 446.121277 
L 338.689988 442.228055 
L 348.963867 437.043349 
L 359.237745 427.985869 
L 369.511623 422.109519 
L 379.785501 416.041347 
L 390.059379 410.519625 
L 400.333257 406.087541 
L 410.607135 403.530875 
L 420.881013 391.26373 
L 431.154891 383.864416 
L 441.428769 379.596026 
L 451.702647 373.897351 
L 461.976525 365.347621 
L 472.250403 360.05588 
L 482.524281 356.383015 
L 492.798159 353.520776 
L 503.072037 348.894609 
L 513.345915 344.232897 
L 523.619793 340.348652 
L 533.893671 337.866228 
L 544.167549 336.915775 
L 554.441427 331.835676 
L 564.715305 331.213882 
L 574.989183 330.50754 
L 585.263061 328.275591 
L 595.536939 326.169953 
L 605.810817 325.612132 
L 616.084695 324.281146 
L 626.358573 321.554469 
L 636.632451 319.238454 
L 646.906329 319.001227 
L 657.180207 318.411392 
L 667.454085 316.021136 
L 677.727963 316.148577 
L 688.001841 316.107047 
L 698.275719 316.178457 
L 708.549597 316.272452 
L 718.823475 316.272452 
L 729.097353 316.272452 
L 739.371231 316.272452 
L 749.645109 316.272452 
L 759.918987 316.272452 
L 770.192865 316.272452 
L 780.466743 316.272452 
L 790.740621 316.272452 
L 801.014499 316.272452 
L 811.288377 316.272452 
L 821.562255 316.272452 
L 831.836133 316.272452 
L 842.110012 316.272452 
L 852.38389 316.272452 
L 862.657768 316.272452 
L 872.931646 316.272452 
L 883.205524 316.272452 
L 893.479402 316.272452 
L 903.75328 316.272452 
L 914.027158 316.272452 
L 924.301036 316.272452 
L 934.574914 316.272452 
L 944.848792 316.272452 
L 955.12267 316.272452 
L 965.396548 316.272452 
L 975.670426 316.272452 
L 985.944304 316.272452 
L 996.218182 316.272452 
" style="fill:none;stroke:#e377c2;stroke-linecap:square;stroke-width:1.5;"/>
   </g>
   <g id="line2d_23">
    <path clip-path="url(#pca5cebe38b)" d="M 184.581818 484.188398 
L 194.855696 483.915127 
L 205.129574 483.364838 
L 215.403452 482.752795 
L 225.67733 481.759973 
L 235.951208 479.889442 
L 246.225086 477.388171 
L 256.498964 475.488076 
L 266.772842 472.698892 
L 277.04672 469.473147 
L 287.320598 464.274301 
L 297.594476 458.066493 
L 307.868354 449.835905 
L 318.142232 444.466162 
L 328.41611 439.793257 
L 338.689988 434.149012 
L 348.963867 427.95711 
L 359.237745 422.196913 
L 369.511623 417.116706 
L 379.785501 408.635559 
L 390.059379 405.151768 
L 400.333257 394.725348 
L 410.607135 385.297409 
L 420.881013 380.594454 
L 431.154891 375.936973 
L 441.428769 368.496738 
L 451.702647 355.791693 
L 461.976525 351.815021 
L 472.250403 351.043793 
L 482.524281 346.108073 
L 492.798159 341.532524 
L 503.072037 334.93577 
L 513.345915 330.973069 
L 523.619793 327.8491 
L 533.893671 327.229924 
L 544.167549 323.190579 
L 554.441427 322.888555 
L 564.715305 321.587396 
L 574.989183 318.062299 
L 585.263061 318.347851 
L 595.536939 317.880708 
L 605.810817 317.648356 
L 616.084695 317.380764 
L 626.358573 316.378151 
L 636.632451 316.504536 
L 646.906329 316.244024 
L 657.180207 316.272452 
L 667.454085 316.272452 
L 677.727963 316.272452 
L 688.001841 316.272452 
L 698.275719 316.272452 
L 708.549597 316.272452 
L 718.823475 316.272452 
L 729.097353 316.272452 
L 739.371231 316.272452 
L 749.645109 316.272452 
L 759.918987 316.272452 
L 770.192865 316.272452 
L 780.466743 316.272452 
L 790.740621 316.272452 
L 801.014499 316.272452 
L 811.288377 316.272452 
L 821.562255 316.272452 
L 831.836133 316.272452 
L 842.110012 316.272452 
L 852.38389 316.272452 
L 862.657768 316.272452 
L 872.931646 316.272452 
L 883.205524 316.272452 
L 893.479402 316.272452 
L 903.75328 316.272452 
L 914.027158 316.272452 
L 924.301036 316.272452 
L 934.574914 316.272452 
L 944.848792 316.272452 
L 955.12267 316.272452 
L 965.396548 316.272452 
L 975.670426 316.272452 
L 985.944304 316.272452 
L 996.218182 316.272452 
" style="fill:none;stroke:#7f7f7f;stroke-linecap:square;stroke-width:1.5;"/>
   </g>
   <g id="line2d_24">
    <path clip-path="url(#pca5cebe38b)" d="M 184.581818 484.179242 
L 194.855696 483.901646 
L 205.129574 483.525096 
L 215.403452 483.165781 
L 225.67733 482.390022 
L 235.951208 481.379094 
L 246.225086 480.276544 
L 256.498964 478.090733 
L 266.772842 475.165129 
L 277.04672 472.013182 
L 287.320598 466.913372 
L 297.594476 462.376019 
L 307.868354 458.321499 
L 318.142232 450.401254 
L 328.41611 441.992786 
L 338.689988 433.281585 
L 348.963867 427.807599 
L 359.237745 421.719119 
L 369.511623 413.21411 
L 379.785501 404.626166 
L 390.059379 391.191415 
L 400.333257 378.496883 
L 410.607135 369.568341 
L 420.881013 358.507374 
L 431.154891 355.57446 
L 441.428769 351.273932 
L 451.702647 350.795721 
L 461.976525 343.129936 
L 472.250403 338.915283 
L 482.524281 331.841053 
L 492.798159 330.981028 
L 503.072037 327.378695 
L 513.345915 323.710885 
L 523.619793 323.591223 
L 533.893671 323.431822 
L 544.167549 319.113468 
L 554.441427 319.059373 
L 564.715305 318.831753 
L 574.989183 318.258462 
L 585.263061 318.276871 
L 595.536939 316.272452 
L 605.810817 316.272452 
L 616.084695 316.272452 
L 626.358573 316.272452 
L 636.632451 316.272452 
L 646.906329 316.272452 
L 657.180207 316.272452 
L 667.454085 316.272452 
L 677.727963 316.272452 
L 688.001841 316.272452 
L 698.275719 316.272452 
L 708.549597 316.272452 
L 718.823475 316.272452 
L 729.097353 316.272452 
L 739.371231 316.272452 
L 749.645109 316.272452 
L 759.918987 316.272452 
L 770.192865 316.272452 
L 780.466743 316.272452 
L 790.740621 316.272452 
L 801.014499 316.272452 
L 811.288377 316.272452 
L 821.562255 316.272452 
L 831.836133 316.272452 
L 842.110012 316.272452 
L 852.38389 316.272452 
L 862.657768 316.272452 
L 872.931646 316.272452 
L 883.205524 316.272452 
L 893.479402 316.272452 
L 903.75328 316.272452 
L 914.027158 316.272452 
L 924.301036 316.272452 
L 934.574914 316.272452 
L 944.848792 316.272452 
L 955.12267 316.272452 
L 965.396548 316.272452 
L 975.670426 316.272452 
L 985.944304 316.272452 
L 996.218182 316.272452 
" style="fill:none;stroke:#bcbd22;stroke-dasharray:5.55,2.4;stroke-dashoffset:0;stroke-width:1.5;"/>
   </g>
   <g id="line2d_25">
    <path clip-path="url(#pca5cebe38b)" d="M 184.581818 484.232534 
L 194.855696 484.113474 
L 205.129574 483.937382 
L 215.403452 483.693379 
L 225.67733 483.288467 
L 235.951208 482.887854 
L 246.225086 482.098811 
L 256.498964 481.266806 
L 266.772842 480.186069 
L 277.04672 479.10183 
L 287.320598 477.807732 
L 297.594476 476.350231 
L 307.868354 475.140684 
L 318.142232 472.069092 
L 328.41611 468.944549 
L 338.689988 466.919179 
L 348.963867 464.441315 
L 359.237745 458.370139 
L 369.511623 450.221559 
L 379.785501 443.299936 
L 390.059379 434.441779 
L 400.333257 426.908127 
L 410.607135 416.470858 
L 420.881013 412.401943 
L 431.154891 404.712462 
L 441.428769 397.26149 
L 451.702647 391.03498 
L 461.976525 377.969622 
L 472.250403 367.32043 
L 482.524281 360.129298 
L 492.798159 343.4469 
L 503.072037 340.856339 
L 513.345915 336.82481 
L 523.619793 333.610215 
L 533.893671 324.007658 
L 544.167549 324.043184 
L 554.441427 320.051661 
L 564.715305 319.819398 
L 574.989183 316.272452 
L 585.263061 316.272452 
L 595.536939 316.272452 
L 605.810817 316.272452 
L 616.084695 316.272452 
L 626.358573 316.272452 
L 636.632451 316.272452 
L 646.906329 316.272452 
L 657.180207 316.272452 
L 667.454085 316.272452 
L 677.727963 316.272452 
L 688.001841 316.272452 
L 698.275719 316.272452 
L 708.549597 316.272452 
L 718.823475 316.272452 
L 729.097353 316.272452 
L 739.371231 316.272452 
L 749.645109 316.272452 
L 759.918987 316.272452 
L 770.192865 316.272452 
L 780.466743 316.272452 
L 790.740621 316.272452 
L 801.014499 316.272452 
L 811.288377 316.272452 
L 821.562255 316.272452 
L 831.836133 316.272452 
L 842.110012 316.272452 
L 852.38389 316.272452 
L 862.657768 316.272452 
L 872.931646 316.272452 
L 883.205524 316.272452 
L 893.479402 316.272452 
L 903.75328 316.272452 
L 914.027158 316.272452 
L 924.301036 316.272452 
L 934.574914 316.272452 
L 944.848792 316.272452 
L 955.12267 316.272452 
L 965.396548 316.272452 
L 975.670426 316.272452 
L 985.944304 316.272452 
L 996.218182 316.272452 
" style="fill:none;stroke:#17becf;stroke-dasharray:5.55,2.4;stroke-dashoffset:0;stroke-width:1.5;"/>
   </g>
   <g id="line2d_26">
    <path clip-path="url(#pca5cebe38b)" d="M 184.581818 484.194886 
L 194.855696 483.724692 
L 205.129574 482.86605 
L 215.403452 481.690743 
L 225.67733 479.963238 
L 235.951208 479.010608 
L 246.225086 476.373182 
L 256.498964 474.590973 
L 266.772842 473.024561 
L 277.04672 469.758686 
L 287.320598 464.925208 
L 297.594476 459.075659 
L 307.868354 452.974677 
L 318.142232 447.355735 
L 328.41611 437.931076 
L 338.689988 429.595895 
L 348.963867 422.904385 
L 359.237745 415.728201 
L 369.511623 405.900304 
L 379.785501 401.795823 
L 390.059379 389.334755 
L 400.333257 386.190334 
L 410.607135 381.245517 
L 420.881013 375.282243 
L 431.154891 371.368459 
L 441.428769 366.502554 
L 451.702647 359.977443 
L 461.976525 352.145858 
L 472.250403 343.800967 
L 482.524281 343.497545 
L 492.798159 343.25122 
L 503.072037 341.919106 
L 513.345915 338.618493 
L 523.619793 335.225516 
L 533.893671 331.068122 
L 544.167549 329.928066 
L 554.441427 327.957883 
L 564.715305 326.234786 
L 574.989183 323.972867 
L 585.263061 323.80117 
L 595.536939 320.200271 
L 605.810817 320.070069 
L 616.084695 318.47108 
L 626.358573 318.947974 
L 636.632451 316.272452 
L 646.906329 316.272452 
L 657.180207 316.272452 
L 667.454085 316.272452 
L 677.727963 316.272452 
L 688.001841 316.272452 
L 698.275719 316.272452 
L 708.549597 316.272452 
L 718.823475 316.272452 
L 729.097353 316.272452 
L 739.371231 316.272452 
L 749.645109 316.272452 
L 759.918987 316.272452 
L 770.192865 316.272452 
L 780.466743 316.272452 
L 790.740621 316.272452 
L 801.014499 316.272452 
L 811.288377 316.272452 
L 821.562255 316.272452 
L 831.836133 316.272452 
L 842.110012 316.272452 
L 852.38389 316.272452 
L 862.657768 316.272452 
L 872.931646 316.272452 
L 883.205524 316.272452 
L 893.479402 316.272452 
L 903.75328 316.272452 
L 914.027158 316.272452 
L 924.301036 316.272452 
L 934.574914 316.272452 
L 944.848792 316.272452 
L 955.12267 316.272452 
L 965.396548 316.272452 
L 975.670426 316.272452 
L 985.944304 316.272452 
L 996.218182 316.272452 
" style="fill:none;stroke:#1f77b4;stroke-dasharray:5.55,2.4;stroke-dashoffset:0;stroke-width:1.5;"/>
   </g>
   <g id="patch_3">
    <path d="M 144 504 
L 144 69.12 
" style="fill:none;stroke:#000000;stroke-linecap:square;stroke-linejoin:miter;stroke-width:0.8;"/>
   </g>
   <g id="patch_4">
    <path d="M 1036.8 504 
L 1036.8 69.12 
" style="fill:none;stroke:#000000;stroke-linecap:square;stroke-linejoin:miter;stroke-width:0.8;"/>
   </g>
   <g id="patch_5">
    <path d="M 144 504 
L 1036.8 504 
" style="fill:none;stroke:#000000;stroke-linecap:square;stroke-linejoin:miter;stroke-width:0.8;"/>
   </g>
   <g id="patch_6">
    <path d="M 144 69.12 
L 1036.8 69.12 
" style="fill:none;stroke:#000000;stroke-linecap:square;stroke-linejoin:miter;stroke-width:0.8;"/>
   </g>
   <g id="legend_1">
    <g id="patch_7">
     <path d="M 879.920312 240.52625 
L 1029.8 240.52625 
Q 1031.8 240.52625 1031.8 238.52625 
L 1031.8 76.12 
Q 1031.8 74.12 1029.8 74.12 
L 879.920312 74.12 
Q 877.920312 74.12 877.920312 76.12 
L 877.920312 238.52625 
Q 877.920312 240.52625 879.920312 240.52625 
z
" style="fill:#ffffff;opacity:0.8;stroke:#cccccc;stroke-linejoin:miter;"/>
    </g>
    <g id="line2d_27">
     <path d="M 881.920312 82.218437 
L 901.920312 82.218437 
" style="fill:none;stroke:#1f77b4;stroke-linecap:square;stroke-width:1.5;"/>
    </g>
    <g id="line2d_28"/>
    <g id="text_18">
     <!-- taylorfo noBN -->
     <defs>
      <path d="M 18.3125 70.21875 
L 18.3125 54.6875 
L 36.8125 54.6875 
L 36.8125 47.703125 
L 18.3125 47.703125 
L 18.3125 18.015625 
Q 18.3125 11.328125 20.140625 9.421875 
Q 21.96875 7.515625 27.59375 7.515625 
L 36.8125 7.515625 
L 36.8125 0 
L 27.59375 0 
Q 17.1875 0 13.234375 3.875 
Q 9.28125 7.765625 9.28125 18.015625 
L 9.28125 47.703125 
L 2.6875 47.703125 
L 2.6875 54.6875 
L 9.28125 54.6875 
L 9.28125 70.21875 
z
" id="DejaVuSans-116"/>
      <path d="M 34.28125 27.484375 
Q 23.390625 27.484375 19.1875 25 
Q 14.984375 22.515625 14.984375 16.5 
Q 14.984375 11.71875 18.140625 8.90625 
Q 21.296875 6.109375 26.703125 6.109375 
Q 34.1875 6.109375 38.703125 11.40625 
Q 43.21875 16.703125 43.21875 25.484375 
L 43.21875 27.484375 
z
M 52.203125 31.203125 
L 52.203125 0 
L 43.21875 0 
L 43.21875 8.296875 
Q 40.140625 3.328125 35.546875 0.953125 
Q 30.953125 -1.421875 24.3125 -1.421875 
Q 15.921875 -1.421875 10.953125 3.296875 
Q 6 8.015625 6 15.921875 
Q 6 25.140625 12.171875 29.828125 
Q 18.359375 34.515625 30.609375 34.515625 
L 43.21875 34.515625 
L 43.21875 35.40625 
Q 43.21875 41.609375 39.140625 45 
Q 35.0625 48.390625 27.6875 48.390625 
Q 23 48.390625 18.546875 47.265625 
Q 14.109375 46.140625 10.015625 43.890625 
L 10.015625 52.203125 
Q 14.9375 54.109375 19.578125 55.046875 
Q 24.21875 56 28.609375 56 
Q 40.484375 56 46.34375 49.84375 
Q 52.203125 43.703125 52.203125 31.203125 
z
" id="DejaVuSans-97"/>
      <path d="M 32.171875 -5.078125 
Q 28.375 -14.84375 24.75 -17.8125 
Q 21.140625 -20.796875 15.09375 -20.796875 
L 7.90625 -20.796875 
L 7.90625 -13.28125 
L 13.1875 -13.28125 
Q 16.890625 -13.28125 18.9375 -11.515625 
Q 21 -9.765625 23.484375 -3.21875 
L 25.09375 0.875 
L 2.984375 54.6875 
L 12.5 54.6875 
L 29.59375 11.921875 
L 46.6875 54.6875 
L 56.203125 54.6875 
z
" id="DejaVuSans-121"/>
      <path d="M 9.421875 75.984375 
L 18.40625 75.984375 
L 18.40625 0 
L 9.421875 0 
z
" id="DejaVuSans-108"/>
      <path d="M 19.671875 34.8125 
L 19.671875 8.109375 
L 35.5 8.109375 
Q 43.453125 8.109375 47.28125 11.40625 
Q 51.125 14.703125 51.125 21.484375 
Q 51.125 28.328125 47.28125 31.5625 
Q 43.453125 34.8125 35.5 34.8125 
z
M 19.671875 64.796875 
L 19.671875 42.828125 
L 34.28125 42.828125 
Q 41.5 42.828125 45.03125 45.53125 
Q 48.578125 48.25 48.578125 53.8125 
Q 48.578125 59.328125 45.03125 62.0625 
Q 41.5 64.796875 34.28125 64.796875 
z
M 9.8125 72.90625 
L 35.015625 72.90625 
Q 46.296875 72.90625 52.390625 68.21875 
Q 58.5 63.53125 58.5 54.890625 
Q 58.5 48.1875 55.375 44.234375 
Q 52.25 40.28125 46.1875 39.3125 
Q 53.46875 37.75 57.5 32.78125 
Q 61.53125 27.828125 61.53125 20.40625 
Q 61.53125 10.640625 54.890625 5.3125 
Q 48.25 0 35.984375 0 
L 9.8125 0 
z
" id="DejaVuSans-66"/>
     </defs>
     <g transform="translate(909.920312 85.718437)scale(0.1 -0.1)">
      <use xlink:href="#DejaVuSans-116"/>
      <use x="39.208984" xlink:href="#DejaVuSans-97"/>
      <use x="100.488281" xlink:href="#DejaVuSans-121"/>
      <use x="159.667969" xlink:href="#DejaVuSans-108"/>
      <use x="187.451172" xlink:href="#DejaVuSans-111"/>
      <use x="248.632812" xlink:href="#DejaVuSans-114"/>
      <use x="289.746094" xlink:href="#DejaVuSans-102"/>
      <use x="324.951172" xlink:href="#DejaVuSans-111"/>
      <use x="386.132812" xlink:href="#DejaVuSans-32"/>
      <use x="417.919922" xlink:href="#DejaVuSans-110"/>
      <use x="481.298828" xlink:href="#DejaVuSans-111"/>
      <use x="542.480469" xlink:href="#DejaVuSans-66"/>
      <use x="611.083984" xlink:href="#DejaVuSans-78"/>
     </g>
    </g>
    <g id="line2d_29">
     <path d="M 881.920312 96.896563 
L 901.920312 96.896563 
" style="fill:none;stroke:#ff7f0e;stroke-linecap:square;stroke-width:1.5;"/>
    </g>
    <g id="line2d_30"/>
    <g id="text_19">
     <!-- taylorfo_abs noBN -->
     <defs>
      <path d="M 50.984375 -16.609375 
L 50.984375 -23.578125 
L -0.984375 -23.578125 
L -0.984375 -16.609375 
z
" id="DejaVuSans-95"/>
     </defs>
     <g transform="translate(909.920312 100.396563)scale(0.1 -0.1)">
      <use xlink:href="#DejaVuSans-116"/>
      <use x="39.208984" xlink:href="#DejaVuSans-97"/>
      <use x="100.488281" xlink:href="#DejaVuSans-121"/>
      <use x="159.667969" xlink:href="#DejaVuSans-108"/>
      <use x="187.451172" xlink:href="#DejaVuSans-111"/>
      <use x="248.632812" xlink:href="#DejaVuSans-114"/>
      <use x="289.746094" xlink:href="#DejaVuSans-102"/>
      <use x="324.951172" xlink:href="#DejaVuSans-111"/>
      <use x="386.132812" xlink:href="#DejaVuSans-95"/>
      <use x="436.132812" xlink:href="#DejaVuSans-97"/>
      <use x="497.412109" xlink:href="#DejaVuSans-98"/>
      <use x="560.888672" xlink:href="#DejaVuSans-115"/>
      <use x="612.988281" xlink:href="#DejaVuSans-32"/>
      <use x="644.775391" xlink:href="#DejaVuSans-110"/>
      <use x="708.154297" xlink:href="#DejaVuSans-111"/>
      <use x="769.335938" xlink:href="#DejaVuSans-66"/>
      <use x="837.939453" xlink:href="#DejaVuSans-78"/>
     </g>
    </g>
    <g id="line2d_31">
     <path d="M 881.920312 111.852813 
L 901.920312 111.852813 
" style="fill:none;stroke:#2ca02c;stroke-linecap:square;stroke-width:1.5;"/>
    </g>
    <g id="line2d_32"/>
    <g id="text_20">
     <!-- taylorfo_sq noBN -->
     <defs>
      <path d="M 14.796875 27.296875 
Q 14.796875 17.390625 18.875 11.75 
Q 22.953125 6.109375 30.078125 6.109375 
Q 37.203125 6.109375 41.296875 11.75 
Q 45.40625 17.390625 45.40625 27.296875 
Q 45.40625 37.203125 41.296875 42.84375 
Q 37.203125 48.484375 30.078125 48.484375 
Q 22.953125 48.484375 18.875 42.84375 
Q 14.796875 37.203125 14.796875 27.296875 
z
M 45.40625 8.203125 
Q 42.578125 3.328125 38.25 0.953125 
Q 33.9375 -1.421875 27.875 -1.421875 
Q 17.96875 -1.421875 11.734375 6.484375 
Q 5.515625 14.40625 5.515625 27.296875 
Q 5.515625 40.1875 11.734375 48.09375 
Q 17.96875 56 27.875 56 
Q 33.9375 56 38.25 53.625 
Q 42.578125 51.265625 45.40625 46.390625 
L 45.40625 54.6875 
L 54.390625 54.6875 
L 54.390625 -20.796875 
L 45.40625 -20.796875 
z
" id="DejaVuSans-113"/>
     </defs>
     <g transform="translate(909.920312 115.352813)scale(0.1 -0.1)">
      <use xlink:href="#DejaVuSans-116"/>
      <use x="39.208984" xlink:href="#DejaVuSans-97"/>
      <use x="100.488281" xlink:href="#DejaVuSans-121"/>
      <use x="159.667969" xlink:href="#DejaVuSans-108"/>
      <use x="187.451172" xlink:href="#DejaVuSans-111"/>
      <use x="248.632812" xlink:href="#DejaVuSans-114"/>
      <use x="289.746094" xlink:href="#DejaVuSans-102"/>
      <use x="324.951172" xlink:href="#DejaVuSans-111"/>
      <use x="386.132812" xlink:href="#DejaVuSans-95"/>
      <use x="436.132812" xlink:href="#DejaVuSans-115"/>
      <use x="488.232422" xlink:href="#DejaVuSans-113"/>
      <use x="551.708984" xlink:href="#DejaVuSans-32"/>
      <use x="583.496094" xlink:href="#DejaVuSans-110"/>
      <use x="646.875" xlink:href="#DejaVuSans-111"/>
      <use x="708.056641" xlink:href="#DejaVuSans-66"/>
      <use x="776.660156" xlink:href="#DejaVuSans-78"/>
     </g>
    </g>
    <g id="line2d_33">
     <path d="M 881.920312 126.809062 
L 901.920312 126.809062 
" style="fill:none;stroke:#d62728;stroke-dasharray:5.55,2.4;stroke-dashoffset:0;stroke-width:1.5;"/>
    </g>
    <g id="line2d_34"/>
    <g id="text_21">
     <!-- Molchanov_group noBN -->
     <defs>
      <path d="M 9.8125 72.90625 
L 24.515625 72.90625 
L 43.109375 23.296875 
L 61.8125 72.90625 
L 76.515625 72.90625 
L 76.515625 0 
L 66.890625 0 
L 66.890625 64.015625 
L 48.09375 14.015625 
L 38.1875 14.015625 
L 19.390625 64.015625 
L 19.390625 0 
L 9.8125 0 
z
" id="DejaVuSans-77"/>
      <path d="M 48.78125 52.59375 
L 48.78125 44.1875 
Q 44.96875 46.296875 41.140625 47.34375 
Q 37.3125 48.390625 33.40625 48.390625 
Q 24.65625 48.390625 19.8125 42.84375 
Q 14.984375 37.3125 14.984375 27.296875 
Q 14.984375 17.28125 19.8125 11.734375 
Q 24.65625 6.203125 33.40625 6.203125 
Q 37.3125 6.203125 41.140625 7.25 
Q 44.96875 8.296875 48.78125 10.40625 
L 48.78125 2.09375 
Q 45.015625 0.34375 40.984375 -0.53125 
Q 36.96875 -1.421875 32.421875 -1.421875 
Q 20.0625 -1.421875 12.78125 6.34375 
Q 5.515625 14.109375 5.515625 27.296875 
Q 5.515625 40.671875 12.859375 48.328125 
Q 20.21875 56 33.015625 56 
Q 37.15625 56 41.109375 55.140625 
Q 45.0625 54.296875 48.78125 52.59375 
z
" id="DejaVuSans-99"/>
      <path d="M 54.890625 33.015625 
L 54.890625 0 
L 45.90625 0 
L 45.90625 32.71875 
Q 45.90625 40.484375 42.875 44.328125 
Q 39.84375 48.1875 33.796875 48.1875 
Q 26.515625 48.1875 22.3125 43.546875 
Q 18.109375 38.921875 18.109375 30.90625 
L 18.109375 0 
L 9.078125 0 
L 9.078125 75.984375 
L 18.109375 75.984375 
L 18.109375 46.1875 
Q 21.34375 51.125 25.703125 53.5625 
Q 30.078125 56 35.796875 56 
Q 45.21875 56 50.046875 50.171875 
Q 54.890625 44.34375 54.890625 33.015625 
z
" id="DejaVuSans-104"/>
      <path d="M 2.984375 54.6875 
L 12.5 54.6875 
L 29.59375 8.796875 
L 46.6875 54.6875 
L 56.203125 54.6875 
L 35.6875 0 
L 23.484375 0 
z
" id="DejaVuSans-118"/>
      <path d="M 45.40625 27.984375 
Q 45.40625 37.75 41.375 43.109375 
Q 37.359375 48.484375 30.078125 48.484375 
Q 22.859375 48.484375 18.828125 43.109375 
Q 14.796875 37.75 14.796875 27.984375 
Q 14.796875 18.265625 18.828125 12.890625 
Q 22.859375 7.515625 30.078125 7.515625 
Q 37.359375 7.515625 41.375 12.890625 
Q 45.40625 18.265625 45.40625 27.984375 
z
M 54.390625 6.78125 
Q 54.390625 -7.171875 48.1875 -13.984375 
Q 42 -20.796875 29.203125 -20.796875 
Q 24.46875 -20.796875 20.265625 -20.09375 
Q 16.0625 -19.390625 12.109375 -17.921875 
L 12.109375 -9.1875 
Q 16.0625 -11.328125 19.921875 -12.34375 
Q 23.78125 -13.375 27.78125 -13.375 
Q 36.625 -13.375 41.015625 -8.765625 
Q 45.40625 -4.15625 45.40625 5.171875 
L 45.40625 9.625 
Q 42.625 4.78125 38.28125 2.390625 
Q 33.9375 0 27.875 0 
Q 17.828125 0 11.671875 7.65625 
Q 5.515625 15.328125 5.515625 27.984375 
Q 5.515625 40.671875 11.671875 48.328125 
Q 17.828125 56 27.875 56 
Q 33.9375 56 38.28125 53.609375 
Q 42.625 51.21875 45.40625 46.390625 
L 45.40625 54.6875 
L 54.390625 54.6875 
z
" id="DejaVuSans-103"/>
     </defs>
     <g transform="translate(909.920312 130.309062)scale(0.1 -0.1)">
      <use xlink:href="#DejaVuSans-77"/>
      <use x="86.279297" xlink:href="#DejaVuSans-111"/>
      <use x="147.460938" xlink:href="#DejaVuSans-108"/>
      <use x="175.244141" xlink:href="#DejaVuSans-99"/>
      <use x="230.224609" xlink:href="#DejaVuSans-104"/>
      <use x="293.603516" xlink:href="#DejaVuSans-97"/>
      <use x="354.882812" xlink:href="#DejaVuSans-110"/>
      <use x="418.261719" xlink:href="#DejaVuSans-111"/>
      <use x="479.443359" xlink:href="#DejaVuSans-118"/>
      <use x="538.623047" xlink:href="#DejaVuSans-95"/>
      <use x="588.623047" xlink:href="#DejaVuSans-103"/>
      <use x="652.099609" xlink:href="#DejaVuSans-114"/>
      <use x="690.962891" xlink:href="#DejaVuSans-111"/>
      <use x="752.144531" xlink:href="#DejaVuSans-117"/>
      <use x="815.523438" xlink:href="#DejaVuSans-112"/>
      <use x="879" xlink:href="#DejaVuSans-32"/>
      <use x="910.787109" xlink:href="#DejaVuSans-110"/>
      <use x="974.166016" xlink:href="#DejaVuSans-111"/>
      <use x="1035.347656" xlink:href="#DejaVuSans-66"/>
      <use x="1103.951172" xlink:href="#DejaVuSans-78"/>
     </g>
    </g>
    <g id="line2d_35">
     <path d="M 881.920312 141.765312 
L 901.920312 141.765312 
" style="fill:none;stroke:#9467bd;stroke-dasharray:5.55,2.4;stroke-dashoffset:0;stroke-width:1.5;"/>
    </g>
    <g id="line2d_36"/>
    <g id="text_22">
     <!-- APnZ noBN -->
     <defs>
      <path d="M 34.1875 63.1875 
L 20.796875 26.90625 
L 47.609375 26.90625 
z
M 28.609375 72.90625 
L 39.796875 72.90625 
L 67.578125 0 
L 57.328125 0 
L 50.6875 18.703125 
L 17.828125 18.703125 
L 11.1875 0 
L 0.78125 0 
z
" id="DejaVuSans-65"/>
      <path d="M 19.671875 64.796875 
L 19.671875 37.40625 
L 32.078125 37.40625 
Q 38.96875 37.40625 42.71875 40.96875 
Q 46.484375 44.53125 46.484375 51.125 
Q 46.484375 57.671875 42.71875 61.234375 
Q 38.96875 64.796875 32.078125 64.796875 
z
M 9.8125 72.90625 
L 32.078125 72.90625 
Q 44.34375 72.90625 50.609375 67.359375 
Q 56.890625 61.8125 56.890625 51.125 
Q 56.890625 40.328125 50.609375 34.8125 
Q 44.34375 29.296875 32.078125 29.296875 
L 19.671875 29.296875 
L 19.671875 0 
L 9.8125 0 
z
" id="DejaVuSans-80"/>
      <path d="M 5.609375 72.90625 
L 62.890625 72.90625 
L 62.890625 65.375 
L 16.796875 8.296875 
L 64.015625 8.296875 
L 64.015625 0 
L 4.5 0 
L 4.5 7.515625 
L 50.59375 64.59375 
L 5.609375 64.59375 
z
" id="DejaVuSans-90"/>
     </defs>
     <g transform="translate(909.920312 145.265312)scale(0.1 -0.1)">
      <use xlink:href="#DejaVuSans-65"/>
      <use x="68.408203" xlink:href="#DejaVuSans-80"/>
      <use x="126.960938" xlink:href="#DejaVuSans-110"/>
      <use x="190.339844" xlink:href="#DejaVuSans-90"/>
      <use x="258.845703" xlink:href="#DejaVuSans-32"/>
      <use x="290.632812" xlink:href="#DejaVuSans-110"/>
      <use x="354.011719" xlink:href="#DejaVuSans-111"/>
      <use x="415.193359" xlink:href="#DejaVuSans-66"/>
      <use x="483.796875" xlink:href="#DejaVuSans-78"/>
     </g>
    </g>
    <g id="line2d_37">
     <path d="M 881.920312 156.443438 
L 901.920312 156.443438 
" style="fill:none;stroke:#8c564b;stroke-linecap:square;stroke-width:1.5;"/>
    </g>
    <g id="line2d_38"/>
    <g id="text_23">
     <!-- taylorfo BN -->
     <g transform="translate(909.920312 159.943438)scale(0.1 -0.1)">
      <use xlink:href="#DejaVuSans-116"/>
      <use x="39.208984" xlink:href="#DejaVuSans-97"/>
      <use x="100.488281" xlink:href="#DejaVuSans-121"/>
      <use x="159.667969" xlink:href="#DejaVuSans-108"/>
      <use x="187.451172" xlink:href="#DejaVuSans-111"/>
      <use x="248.632812" xlink:href="#DejaVuSans-114"/>
      <use x="289.746094" xlink:href="#DejaVuSans-102"/>
      <use x="324.951172" xlink:href="#DejaVuSans-111"/>
      <use x="386.132812" xlink:href="#DejaVuSans-32"/>
      <use x="417.919922" xlink:href="#DejaVuSans-66"/>
      <use x="486.523438" xlink:href="#DejaVuSans-78"/>
     </g>
    </g>
    <g id="line2d_39">
     <path d="M 881.920312 171.121562 
L 901.920312 171.121562 
" style="fill:none;stroke:#e377c2;stroke-linecap:square;stroke-width:1.5;"/>
    </g>
    <g id="line2d_40"/>
    <g id="text_24">
     <!-- taylorfo_abs BN -->
     <g transform="translate(909.920312 174.621562)scale(0.1 -0.1)">
      <use xlink:href="#DejaVuSans-116"/>
      <use x="39.208984" xlink:href="#DejaVuSans-97"/>
      <use x="100.488281" xlink:href="#DejaVuSans-121"/>
      <use x="159.667969" xlink:href="#DejaVuSans-108"/>
      <use x="187.451172" xlink:href="#DejaVuSans-111"/>
      <use x="248.632812" xlink:href="#DejaVuSans-114"/>
      <use x="289.746094" xlink:href="#DejaVuSans-102"/>
      <use x="324.951172" xlink:href="#DejaVuSans-111"/>
      <use x="386.132812" xlink:href="#DejaVuSans-95"/>
      <use x="436.132812" xlink:href="#DejaVuSans-97"/>
      <use x="497.412109" xlink:href="#DejaVuSans-98"/>
      <use x="560.888672" xlink:href="#DejaVuSans-115"/>
      <use x="612.988281" xlink:href="#DejaVuSans-32"/>
      <use x="644.775391" xlink:href="#DejaVuSans-66"/>
      <use x="713.378906" xlink:href="#DejaVuSans-78"/>
     </g>
    </g>
    <g id="line2d_41">
     <path d="M 881.920312 186.077812 
L 901.920312 186.077812 
" style="fill:none;stroke:#7f7f7f;stroke-linecap:square;stroke-width:1.5;"/>
    </g>
    <g id="line2d_42"/>
    <g id="text_25">
     <!-- taylorfo_sq BN -->
     <g transform="translate(909.920312 189.577812)scale(0.1 -0.1)">
      <use xlink:href="#DejaVuSans-116"/>
      <use x="39.208984" xlink:href="#DejaVuSans-97"/>
      <use x="100.488281" xlink:href="#DejaVuSans-121"/>
      <use x="159.667969" xlink:href="#DejaVuSans-108"/>
      <use x="187.451172" xlink:href="#DejaVuSans-111"/>
      <use x="248.632812" xlink:href="#DejaVuSans-114"/>
      <use x="289.746094" xlink:href="#DejaVuSans-102"/>
      <use x="324.951172" xlink:href="#DejaVuSans-111"/>
      <use x="386.132812" xlink:href="#DejaVuSans-95"/>
      <use x="436.132812" xlink:href="#DejaVuSans-115"/>
      <use x="488.232422" xlink:href="#DejaVuSans-113"/>
      <use x="551.708984" xlink:href="#DejaVuSans-32"/>
      <use x="583.496094" xlink:href="#DejaVuSans-66"/>
      <use x="652.099609" xlink:href="#DejaVuSans-78"/>
     </g>
    </g>
    <g id="line2d_43">
     <path d="M 881.920312 201.034063 
L 901.920312 201.034063 
" style="fill:none;stroke:#bcbd22;stroke-dasharray:5.55,2.4;stroke-dashoffset:0;stroke-width:1.5;"/>
    </g>
    <g id="line2d_44"/>
    <g id="text_26">
     <!-- Molchanov_group BN -->
     <g transform="translate(909.920312 204.534063)scale(0.1 -0.1)">
      <use xlink:href="#DejaVuSans-77"/>
      <use x="86.279297" xlink:href="#DejaVuSans-111"/>
      <use x="147.460938" xlink:href="#DejaVuSans-108"/>
      <use x="175.244141" xlink:href="#DejaVuSans-99"/>
      <use x="230.224609" xlink:href="#DejaVuSans-104"/>
      <use x="293.603516" xlink:href="#DejaVuSans-97"/>
      <use x="354.882812" xlink:href="#DejaVuSans-110"/>
      <use x="418.261719" xlink:href="#DejaVuSans-111"/>
      <use x="479.443359" xlink:href="#DejaVuSans-118"/>
      <use x="538.623047" xlink:href="#DejaVuSans-95"/>
      <use x="588.623047" xlink:href="#DejaVuSans-103"/>
      <use x="652.099609" xlink:href="#DejaVuSans-114"/>
      <use x="690.962891" xlink:href="#DejaVuSans-111"/>
      <use x="752.144531" xlink:href="#DejaVuSans-117"/>
      <use x="815.523438" xlink:href="#DejaVuSans-112"/>
      <use x="879" xlink:href="#DejaVuSans-32"/>
      <use x="910.787109" xlink:href="#DejaVuSans-66"/>
      <use x="979.390625" xlink:href="#DejaVuSans-78"/>
     </g>
    </g>
    <g id="line2d_45">
     <path d="M 881.920312 215.990312 
L 901.920312 215.990312 
" style="fill:none;stroke:#17becf;stroke-dasharray:5.55,2.4;stroke-dashoffset:0;stroke-width:1.5;"/>
    </g>
    <g id="line2d_46"/>
    <g id="text_27">
     <!-- Molchanov_BN BN -->
     <g transform="translate(909.920312 219.490312)scale(0.1 -0.1)">
      <use xlink:href="#DejaVuSans-77"/>
      <use x="86.279297" xlink:href="#DejaVuSans-111"/>
      <use x="147.460938" xlink:href="#DejaVuSans-108"/>
      <use x="175.244141" xlink:href="#DejaVuSans-99"/>
      <use x="230.224609" xlink:href="#DejaVuSans-104"/>
      <use x="293.603516" xlink:href="#DejaVuSans-97"/>
      <use x="354.882812" xlink:href="#DejaVuSans-110"/>
      <use x="418.261719" xlink:href="#DejaVuSans-111"/>
      <use x="479.443359" xlink:href="#DejaVuSans-118"/>
      <use x="538.623047" xlink:href="#DejaVuSans-95"/>
      <use x="588.623047" xlink:href="#DejaVuSans-66"/>
      <use x="657.226562" xlink:href="#DejaVuSans-78"/>
      <use x="732.03125" xlink:href="#DejaVuSans-32"/>
      <use x="763.818359" xlink:href="#DejaVuSans-66"/>
      <use x="832.421875" xlink:href="#DejaVuSans-78"/>
     </g>
    </g>
    <g id="line2d_47">
     <path d="M 881.920312 230.946563 
L 901.920312 230.946563 
" style="fill:none;stroke:#1f77b4;stroke-dasharray:5.55,2.4;stroke-dashoffset:0;stroke-width:1.5;"/>
    </g>
    <g id="line2d_48"/>
    <g id="text_28">
     <!-- APnZ BN -->
     <g transform="translate(909.920312 234.446563)scale(0.1 -0.1)">
      <use xlink:href="#DejaVuSans-65"/>
      <use x="68.408203" xlink:href="#DejaVuSans-80"/>
      <use x="126.960938" xlink:href="#DejaVuSans-110"/>
      <use x="190.339844" xlink:href="#DejaVuSans-90"/>
      <use x="258.845703" xlink:href="#DejaVuSans-32"/>
      <use x="290.632812" xlink:href="#DejaVuSans-66"/>
      <use x="359.236328" xlink:href="#DejaVuSans-78"/>
     </g>
    </g>
   </g>
  </g>
 </g>
 <defs>
  <clipPath id="pca5cebe38b">
   <rect height="434.88" width="892.8" x="144" y="69.12"/>
  </clipPath>
 </defs>
</svg>
