<?xml version="1.0" encoding="utf-8" standalone="no"?>
<!DOCTYPE svg PUBLIC "-//W3C//DTD SVG 1.1//EN"
  "http://www.w3.org/Graphics/SVG/1.1/DTD/svg11.dtd">
<!-- Created with matplotlib (https://matplotlib.org/) -->
<svg height="576pt" version="1.1" viewBox="0 0 1152 576" width="1152pt" xmlns="http://www.w3.org/2000/svg" xmlns:xlink="http://www.w3.org/1999/xlink">
 <defs>
  <style type="text/css">
*{stroke-linecap:butt;stroke-linejoin:round;}
  </style>
 </defs>
 <g id="figure_1">
  <g id="patch_1">
   <path d="M 0 576 
L 1152 576 
L 1152 0 
L 0 0 
z
" style="fill:#ffffff;"/>
  </g>
  <g id="axes_1">
   <g id="patch_2">
    <path d="M 144 504 
L 1036.8 504 
L 1036.8 69.12 
L 144 69.12 
z
" style="fill:#ffffff;"/>
   </g>
   <g id="matplotlib.axis_1">
    <g id="xtick_1">
     <g id="line2d_1">
      <defs>
       <path d="M 0 0 
L 0 3.5 
" id="m61e322ab33" style="stroke:#000000;stroke-width:0.8;"/>
      </defs>
      <g>
       <use style="stroke:#000000;stroke-width:0.8;" x="182.527043" xlink:href="#m61e322ab33" y="504"/>
      </g>
     </g>
     <g id="text_1">
      <!-- 0 -->
      <defs>
       <path d="M 31.78125 66.40625 
Q 24.171875 66.40625 20.328125 58.90625 
Q 16.5 51.421875 16.5 36.375 
Q 16.5 21.390625 20.328125 13.890625 
Q 24.171875 6.390625 31.78125 6.390625 
Q 39.453125 6.390625 43.28125 13.890625 
Q 47.125 21.390625 47.125 36.375 
Q 47.125 51.421875 43.28125 58.90625 
Q 39.453125 66.40625 31.78125 66.40625 
z
M 31.78125 74.21875 
Q 44.046875 74.21875 50.515625 64.515625 
Q 56.984375 54.828125 56.984375 36.375 
Q 56.984375 17.96875 50.515625 8.265625 
Q 44.046875 -1.421875 31.78125 -1.421875 
Q 19.53125 -1.421875 13.0625 8.265625 
Q 6.59375 17.96875 6.59375 36.375 
Q 6.59375 54.828125 13.0625 64.515625 
Q 19.53125 74.21875 31.78125 74.21875 
z
" id="DejaVuSans-48"/>
      </defs>
      <g transform="translate(179.345793 518.598438)scale(0.1 -0.1)">
       <use xlink:href="#DejaVuSans-48"/>
      </g>
     </g>
    </g>
    <g id="xtick_2">
     <g id="line2d_2">
      <g>
       <use style="stroke:#000000;stroke-width:0.8;" x="285.265823" xlink:href="#m61e322ab33" y="504"/>
      </g>
     </g>
     <g id="text_2">
      <!-- 50 -->
      <defs>
       <path d="M 10.796875 72.90625 
L 49.515625 72.90625 
L 49.515625 64.59375 
L 19.828125 64.59375 
L 19.828125 46.734375 
Q 21.96875 47.46875 24.109375 47.828125 
Q 26.265625 48.1875 28.421875 48.1875 
Q 40.625 48.1875 47.75 41.5 
Q 54.890625 34.8125 54.890625 23.390625 
Q 54.890625 11.625 47.5625 5.09375 
Q 40.234375 -1.421875 26.90625 -1.421875 
Q 22.3125 -1.421875 17.546875 -0.640625 
Q 12.796875 0.140625 7.71875 1.703125 
L 7.71875 11.625 
Q 12.109375 9.234375 16.796875 8.0625 
Q 21.484375 6.890625 26.703125 6.890625 
Q 35.15625 6.890625 40.078125 11.328125 
Q 45.015625 15.765625 45.015625 23.390625 
Q 45.015625 31 40.078125 35.4375 
Q 35.15625 39.890625 26.703125 39.890625 
Q 22.75 39.890625 18.8125 39.015625 
Q 14.890625 38.140625 10.796875 36.28125 
z
" id="DejaVuSans-53"/>
      </defs>
      <g transform="translate(278.903323 518.598438)scale(0.1 -0.1)">
       <use xlink:href="#DejaVuSans-53"/>
       <use x="63.623047" xlink:href="#DejaVuSans-48"/>
      </g>
     </g>
    </g>
    <g id="xtick_3">
     <g id="line2d_3">
      <g>
       <use style="stroke:#000000;stroke-width:0.8;" x="388.004603" xlink:href="#m61e322ab33" y="504"/>
      </g>
     </g>
     <g id="text_3">
      <!-- 100 -->
      <defs>
       <path d="M 12.40625 8.296875 
L 28.515625 8.296875 
L 28.515625 63.921875 
L 10.984375 60.40625 
L 10.984375 69.390625 
L 28.421875 72.90625 
L 38.28125 72.90625 
L 38.28125 8.296875 
L 54.390625 8.296875 
L 54.390625 0 
L 12.40625 0 
z
" id="DejaVuSans-49"/>
      </defs>
      <g transform="translate(378.460853 518.598438)scale(0.1 -0.1)">
       <use xlink:href="#DejaVuSans-49"/>
       <use x="63.623047" xlink:href="#DejaVuSans-48"/>
       <use x="127.246094" xlink:href="#DejaVuSans-48"/>
      </g>
     </g>
    </g>
    <g id="xtick_4">
     <g id="line2d_4">
      <g>
       <use style="stroke:#000000;stroke-width:0.8;" x="490.743383" xlink:href="#m61e322ab33" y="504"/>
      </g>
     </g>
     <g id="text_4">
      <!-- 150 -->
      <g transform="translate(481.199633 518.598438)scale(0.1 -0.1)">
       <use xlink:href="#DejaVuSans-49"/>
       <use x="63.623047" xlink:href="#DejaVuSans-53"/>
       <use x="127.246094" xlink:href="#DejaVuSans-48"/>
      </g>
     </g>
    </g>
    <g id="xtick_5">
     <g id="line2d_5">
      <g>
       <use style="stroke:#000000;stroke-width:0.8;" x="593.482163" xlink:href="#m61e322ab33" y="504"/>
      </g>
     </g>
     <g id="text_5">
      <!-- 200 -->
      <defs>
       <path d="M 19.1875 8.296875 
L 53.609375 8.296875 
L 53.609375 0 
L 7.328125 0 
L 7.328125 8.296875 
Q 12.9375 14.109375 22.625 23.890625 
Q 32.328125 33.6875 34.8125 36.53125 
Q 39.546875 41.84375 41.421875 45.53125 
Q 43.3125 49.21875 43.3125 52.78125 
Q 43.3125 58.59375 39.234375 62.25 
Q 35.15625 65.921875 28.609375 65.921875 
Q 23.96875 65.921875 18.8125 64.3125 
Q 13.671875 62.703125 7.8125 59.421875 
L 7.8125 69.390625 
Q 13.765625 71.78125 18.9375 73 
Q 24.125 74.21875 28.421875 74.21875 
Q 39.75 74.21875 46.484375 68.546875 
Q 53.21875 62.890625 53.21875 53.421875 
Q 53.21875 48.921875 51.53125 44.890625 
Q 49.859375 40.875 45.40625 35.40625 
Q 44.1875 33.984375 37.640625 27.21875 
Q 31.109375 20.453125 19.1875 8.296875 
z
" id="DejaVuSans-50"/>
      </defs>
      <g transform="translate(583.938413 518.598438)scale(0.1 -0.1)">
       <use xlink:href="#DejaVuSans-50"/>
       <use x="63.623047" xlink:href="#DejaVuSans-48"/>
       <use x="127.246094" xlink:href="#DejaVuSans-48"/>
      </g>
     </g>
    </g>
    <g id="xtick_6">
     <g id="line2d_6">
      <g>
       <use style="stroke:#000000;stroke-width:0.8;" x="696.220944" xlink:href="#m61e322ab33" y="504"/>
      </g>
     </g>
     <g id="text_6">
      <!-- 250 -->
      <g transform="translate(686.677194 518.598438)scale(0.1 -0.1)">
       <use xlink:href="#DejaVuSans-50"/>
       <use x="63.623047" xlink:href="#DejaVuSans-53"/>
       <use x="127.246094" xlink:href="#DejaVuSans-48"/>
      </g>
     </g>
    </g>
    <g id="xtick_7">
     <g id="line2d_7">
      <g>
       <use style="stroke:#000000;stroke-width:0.8;" x="798.959724" xlink:href="#m61e322ab33" y="504"/>
      </g>
     </g>
     <g id="text_7">
      <!-- 300 -->
      <defs>
       <path d="M 40.578125 39.3125 
Q 47.65625 37.796875 51.625 33 
Q 55.609375 28.21875 55.609375 21.1875 
Q 55.609375 10.40625 48.1875 4.484375 
Q 40.765625 -1.421875 27.09375 -1.421875 
Q 22.515625 -1.421875 17.65625 -0.515625 
Q 12.796875 0.390625 7.625 2.203125 
L 7.625 11.71875 
Q 11.71875 9.328125 16.59375 8.109375 
Q 21.484375 6.890625 26.8125 6.890625 
Q 36.078125 6.890625 40.9375 10.546875 
Q 45.796875 14.203125 45.796875 21.1875 
Q 45.796875 27.640625 41.28125 31.265625 
Q 36.765625 34.90625 28.71875 34.90625 
L 20.21875 34.90625 
L 20.21875 43.015625 
L 29.109375 43.015625 
Q 36.375 43.015625 40.234375 45.921875 
Q 44.09375 48.828125 44.09375 54.296875 
Q 44.09375 59.90625 40.109375 62.90625 
Q 36.140625 65.921875 28.71875 65.921875 
Q 24.65625 65.921875 20.015625 65.03125 
Q 15.375 64.15625 9.8125 62.3125 
L 9.8125 71.09375 
Q 15.4375 72.65625 20.34375 73.4375 
Q 25.25 74.21875 29.59375 74.21875 
Q 40.828125 74.21875 47.359375 69.109375 
Q 53.90625 64.015625 53.90625 55.328125 
Q 53.90625 49.265625 50.4375 45.09375 
Q 46.96875 40.921875 40.578125 39.3125 
z
" id="DejaVuSans-51"/>
      </defs>
      <g transform="translate(789.415974 518.598438)scale(0.1 -0.1)">
       <use xlink:href="#DejaVuSans-51"/>
       <use x="63.623047" xlink:href="#DejaVuSans-48"/>
       <use x="127.246094" xlink:href="#DejaVuSans-48"/>
      </g>
     </g>
    </g>
    <g id="xtick_8">
     <g id="line2d_8">
      <g>
       <use style="stroke:#000000;stroke-width:0.8;" x="901.698504" xlink:href="#m61e322ab33" y="504"/>
      </g>
     </g>
     <g id="text_8">
      <!-- 350 -->
      <g transform="translate(892.154754 518.598438)scale(0.1 -0.1)">
       <use xlink:href="#DejaVuSans-51"/>
       <use x="63.623047" xlink:href="#DejaVuSans-53"/>
       <use x="127.246094" xlink:href="#DejaVuSans-48"/>
      </g>
     </g>
    </g>
    <g id="xtick_9">
     <g id="line2d_9">
      <g>
       <use style="stroke:#000000;stroke-width:0.8;" x="1004.437284" xlink:href="#m61e322ab33" y="504"/>
      </g>
     </g>
     <g id="text_9">
      <!-- 400 -->
      <defs>
       <path d="M 37.796875 64.3125 
L 12.890625 25.390625 
L 37.796875 25.390625 
z
M 35.203125 72.90625 
L 47.609375 72.90625 
L 47.609375 25.390625 
L 58.015625 25.390625 
L 58.015625 17.1875 
L 47.609375 17.1875 
L 47.609375 0 
L 37.796875 0 
L 37.796875 17.1875 
L 4.890625 17.1875 
L 4.890625 26.703125 
z
" id="DejaVuSans-52"/>
      </defs>
      <g transform="translate(994.893534 518.598438)scale(0.1 -0.1)">
       <use xlink:href="#DejaVuSans-52"/>
       <use x="63.623047" xlink:href="#DejaVuSans-48"/>
       <use x="127.246094" xlink:href="#DejaVuSans-48"/>
      </g>
     </g>
    </g>
    <g id="text_10">
     <!-- Number of Neurons pruned -->
     <defs>
      <path d="M 9.8125 72.90625 
L 23.09375 72.90625 
L 55.421875 11.921875 
L 55.421875 72.90625 
L 64.984375 72.90625 
L 64.984375 0 
L 51.703125 0 
L 19.390625 60.984375 
L 19.390625 0 
L 9.8125 0 
z
" id="DejaVuSans-78"/>
      <path d="M 8.5 21.578125 
L 8.5 54.6875 
L 17.484375 54.6875 
L 17.484375 21.921875 
Q 17.484375 14.15625 20.5 10.265625 
Q 23.53125 6.390625 29.59375 6.390625 
Q 36.859375 6.390625 41.078125 11.03125 
Q 45.3125 15.671875 45.3125 23.6875 
L 45.3125 54.6875 
L 54.296875 54.6875 
L 54.296875 0 
L 45.3125 0 
L 45.3125 8.40625 
Q 42.046875 3.421875 37.71875 1 
Q 33.40625 -1.421875 27.6875 -1.421875 
Q 18.265625 -1.421875 13.375 4.4375 
Q 8.5 10.296875 8.5 21.578125 
z
M 31.109375 56 
z
" id="DejaVuSans-117"/>
      <path d="M 52 44.1875 
Q 55.375 50.25 60.0625 53.125 
Q 64.75 56 71.09375 56 
Q 79.640625 56 84.28125 50.015625 
Q 88.921875 44.046875 88.921875 33.015625 
L 88.921875 0 
L 79.890625 0 
L 79.890625 32.71875 
Q 79.890625 40.578125 77.09375 44.375 
Q 74.3125 48.1875 68.609375 48.1875 
Q 61.625 48.1875 57.5625 43.546875 
Q 53.515625 38.921875 53.515625 30.90625 
L 53.515625 0 
L 44.484375 0 
L 44.484375 32.71875 
Q 44.484375 40.625 41.703125 44.40625 
Q 38.921875 48.1875 33.109375 48.1875 
Q 26.21875 48.1875 22.15625 43.53125 
Q 18.109375 38.875 18.109375 30.90625 
L 18.109375 0 
L 9.078125 0 
L 9.078125 54.6875 
L 18.109375 54.6875 
L 18.109375 46.1875 
Q 21.1875 51.21875 25.484375 53.609375 
Q 29.78125 56 35.6875 56 
Q 41.65625 56 45.828125 52.96875 
Q 50 49.953125 52 44.1875 
z
" id="DejaVuSans-109"/>
      <path d="M 48.6875 27.296875 
Q 48.6875 37.203125 44.609375 42.84375 
Q 40.53125 48.484375 33.40625 48.484375 
Q 26.265625 48.484375 22.1875 42.84375 
Q 18.109375 37.203125 18.109375 27.296875 
Q 18.109375 17.390625 22.1875 11.75 
Q 26.265625 6.109375 33.40625 6.109375 
Q 40.53125 6.109375 44.609375 11.75 
Q 48.6875 17.390625 48.6875 27.296875 
z
M 18.109375 46.390625 
Q 20.953125 51.265625 25.265625 53.625 
Q 29.59375 56 35.59375 56 
Q 45.5625 56 51.78125 48.09375 
Q 58.015625 40.1875 58.015625 27.296875 
Q 58.015625 14.40625 51.78125 6.484375 
Q 45.5625 -1.421875 35.59375 -1.421875 
Q 29.59375 -1.421875 25.265625 0.953125 
Q 20.953125 3.328125 18.109375 8.203125 
L 18.109375 0 
L 9.078125 0 
L 9.078125 75.984375 
L 18.109375 75.984375 
z
" id="DejaVuSans-98"/>
      <path d="M 56.203125 29.59375 
L 56.203125 25.203125 
L 14.890625 25.203125 
Q 15.484375 15.921875 20.484375 11.0625 
Q 25.484375 6.203125 34.421875 6.203125 
Q 39.59375 6.203125 44.453125 7.46875 
Q 49.3125 8.734375 54.109375 11.28125 
L 54.109375 2.78125 
Q 49.265625 0.734375 44.1875 -0.34375 
Q 39.109375 -1.421875 33.890625 -1.421875 
Q 20.796875 -1.421875 13.15625 6.1875 
Q 5.515625 13.8125 5.515625 26.8125 
Q 5.515625 40.234375 12.765625 48.109375 
Q 20.015625 56 32.328125 56 
Q 43.359375 56 49.78125 48.890625 
Q 56.203125 41.796875 56.203125 29.59375 
z
M 47.21875 32.234375 
Q 47.125 39.59375 43.09375 43.984375 
Q 39.0625 48.390625 32.421875 48.390625 
Q 24.90625 48.390625 20.390625 44.140625 
Q 15.875 39.890625 15.1875 32.171875 
z
" id="DejaVuSans-101"/>
      <path d="M 41.109375 46.296875 
Q 39.59375 47.171875 37.8125 47.578125 
Q 36.03125 48 33.890625 48 
Q 26.265625 48 22.1875 43.046875 
Q 18.109375 38.09375 18.109375 28.8125 
L 18.109375 0 
L 9.078125 0 
L 9.078125 54.6875 
L 18.109375 54.6875 
L 18.109375 46.1875 
Q 20.953125 51.171875 25.484375 53.578125 
Q 30.03125 56 36.53125 56 
Q 37.453125 56 38.578125 55.875 
Q 39.703125 55.765625 41.0625 55.515625 
z
" id="DejaVuSans-114"/>
      <path id="DejaVuSans-32"/>
      <path d="M 30.609375 48.390625 
Q 23.390625 48.390625 19.1875 42.75 
Q 14.984375 37.109375 14.984375 27.296875 
Q 14.984375 17.484375 19.15625 11.84375 
Q 23.34375 6.203125 30.609375 6.203125 
Q 37.796875 6.203125 41.984375 11.859375 
Q 46.1875 17.53125 46.1875 27.296875 
Q 46.1875 37.015625 41.984375 42.703125 
Q 37.796875 48.390625 30.609375 48.390625 
z
M 30.609375 56 
Q 42.328125 56 49.015625 48.375 
Q 55.71875 40.765625 55.71875 27.296875 
Q 55.71875 13.875 49.015625 6.21875 
Q 42.328125 -1.421875 30.609375 -1.421875 
Q 18.84375 -1.421875 12.171875 6.21875 
Q 5.515625 13.875 5.515625 27.296875 
Q 5.515625 40.765625 12.171875 48.375 
Q 18.84375 56 30.609375 56 
z
" id="DejaVuSans-111"/>
      <path d="M 37.109375 75.984375 
L 37.109375 68.5 
L 28.515625 68.5 
Q 23.6875 68.5 21.796875 66.546875 
Q 19.921875 64.59375 19.921875 59.515625 
L 19.921875 54.6875 
L 34.71875 54.6875 
L 34.71875 47.703125 
L 19.921875 47.703125 
L 19.921875 0 
L 10.890625 0 
L 10.890625 47.703125 
L 2.296875 47.703125 
L 2.296875 54.6875 
L 10.890625 54.6875 
L 10.890625 58.5 
Q 10.890625 67.625 15.140625 71.796875 
Q 19.390625 75.984375 28.609375 75.984375 
z
" id="DejaVuSans-102"/>
      <path d="M 54.890625 33.015625 
L 54.890625 0 
L 45.90625 0 
L 45.90625 32.71875 
Q 45.90625 40.484375 42.875 44.328125 
Q 39.84375 48.1875 33.796875 48.1875 
Q 26.515625 48.1875 22.3125 43.546875 
Q 18.109375 38.921875 18.109375 30.90625 
L 18.109375 0 
L 9.078125 0 
L 9.078125 54.6875 
L 18.109375 54.6875 
L 18.109375 46.1875 
Q 21.34375 51.125 25.703125 53.5625 
Q 30.078125 56 35.796875 56 
Q 45.21875 56 50.046875 50.171875 
Q 54.890625 44.34375 54.890625 33.015625 
z
" id="DejaVuSans-110"/>
      <path d="M 44.28125 53.078125 
L 44.28125 44.578125 
Q 40.484375 46.53125 36.375 47.5 
Q 32.28125 48.484375 27.875 48.484375 
Q 21.1875 48.484375 17.84375 46.4375 
Q 14.5 44.390625 14.5 40.28125 
Q 14.5 37.15625 16.890625 35.375 
Q 19.28125 33.59375 26.515625 31.984375 
L 29.59375 31.296875 
Q 39.15625 29.25 43.1875 25.515625 
Q 47.21875 21.78125 47.21875 15.09375 
Q 47.21875 7.46875 41.1875 3.015625 
Q 35.15625 -1.421875 24.609375 -1.421875 
Q 20.21875 -1.421875 15.453125 -0.5625 
Q 10.6875 0.296875 5.421875 2 
L 5.421875 11.28125 
Q 10.40625 8.6875 15.234375 7.390625 
Q 20.0625 6.109375 24.8125 6.109375 
Q 31.15625 6.109375 34.5625 8.28125 
Q 37.984375 10.453125 37.984375 14.40625 
Q 37.984375 18.0625 35.515625 20.015625 
Q 33.0625 21.96875 24.703125 23.78125 
L 21.578125 24.515625 
Q 13.234375 26.265625 9.515625 29.90625 
Q 5.8125 33.546875 5.8125 39.890625 
Q 5.8125 47.609375 11.28125 51.796875 
Q 16.75 56 26.8125 56 
Q 31.78125 56 36.171875 55.265625 
Q 40.578125 54.546875 44.28125 53.078125 
z
" id="DejaVuSans-115"/>
      <path d="M 18.109375 8.203125 
L 18.109375 -20.796875 
L 9.078125 -20.796875 
L 9.078125 54.6875 
L 18.109375 54.6875 
L 18.109375 46.390625 
Q 20.953125 51.265625 25.265625 53.625 
Q 29.59375 56 35.59375 56 
Q 45.5625 56 51.78125 48.09375 
Q 58.015625 40.1875 58.015625 27.296875 
Q 58.015625 14.40625 51.78125 6.484375 
Q 45.5625 -1.421875 35.59375 -1.421875 
Q 29.59375 -1.421875 25.265625 0.953125 
Q 20.953125 3.328125 18.109375 8.203125 
z
M 48.6875 27.296875 
Q 48.6875 37.203125 44.609375 42.84375 
Q 40.53125 48.484375 33.40625 48.484375 
Q 26.265625 48.484375 22.1875 42.84375 
Q 18.109375 37.203125 18.109375 27.296875 
Q 18.109375 17.390625 22.1875 11.75 
Q 26.265625 6.109375 33.40625 6.109375 
Q 40.53125 6.109375 44.609375 11.75 
Q 48.6875 17.390625 48.6875 27.296875 
z
" id="DejaVuSans-112"/>
      <path d="M 45.40625 46.390625 
L 45.40625 75.984375 
L 54.390625 75.984375 
L 54.390625 0 
L 45.40625 0 
L 45.40625 8.203125 
Q 42.578125 3.328125 38.25 0.953125 
Q 33.9375 -1.421875 27.875 -1.421875 
Q 17.96875 -1.421875 11.734375 6.484375 
Q 5.515625 14.40625 5.515625 27.296875 
Q 5.515625 40.1875 11.734375 48.09375 
Q 17.96875 56 27.875 56 
Q 33.9375 56 38.25 53.625 
Q 42.578125 51.265625 45.40625 46.390625 
z
M 14.796875 27.296875 
Q 14.796875 17.390625 18.875 11.75 
Q 22.953125 6.109375 30.078125 6.109375 
Q 37.203125 6.109375 41.296875 11.75 
Q 45.40625 17.390625 45.40625 27.296875 
Q 45.40625 37.203125 41.296875 42.84375 
Q 37.203125 48.484375 30.078125 48.484375 
Q 22.953125 48.484375 18.875 42.84375 
Q 14.796875 37.203125 14.796875 27.296875 
z
" id="DejaVuSans-100"/>
     </defs>
     <g transform="translate(522.147656 532.276562)scale(0.1 -0.1)">
      <use xlink:href="#DejaVuSans-78"/>
      <use x="74.804688" xlink:href="#DejaVuSans-117"/>
      <use x="138.183594" xlink:href="#DejaVuSans-109"/>
      <use x="235.595703" xlink:href="#DejaVuSans-98"/>
      <use x="299.072266" xlink:href="#DejaVuSans-101"/>
      <use x="360.595703" xlink:href="#DejaVuSans-114"/>
      <use x="401.708984" xlink:href="#DejaVuSans-32"/>
      <use x="433.496094" xlink:href="#DejaVuSans-111"/>
      <use x="494.677734" xlink:href="#DejaVuSans-102"/>
      <use x="529.882812" xlink:href="#DejaVuSans-32"/>
      <use x="561.669922" xlink:href="#DejaVuSans-78"/>
      <use x="636.474609" xlink:href="#DejaVuSans-101"/>
      <use x="697.998047" xlink:href="#DejaVuSans-117"/>
      <use x="761.376953" xlink:href="#DejaVuSans-114"/>
      <use x="800.240234" xlink:href="#DejaVuSans-111"/>
      <use x="861.421875" xlink:href="#DejaVuSans-110"/>
      <use x="924.800781" xlink:href="#DejaVuSans-115"/>
      <use x="976.900391" xlink:href="#DejaVuSans-32"/>
      <use x="1008.6875" xlink:href="#DejaVuSans-112"/>
      <use x="1072.164062" xlink:href="#DejaVuSans-114"/>
      <use x="1113.277344" xlink:href="#DejaVuSans-117"/>
      <use x="1176.65625" xlink:href="#DejaVuSans-110"/>
      <use x="1240.035156" xlink:href="#DejaVuSans-101"/>
      <use x="1301.558594" xlink:href="#DejaVuSans-100"/>
     </g>
    </g>
   </g>
   <g id="matplotlib.axis_2">
    <g id="ytick_1">
     <g id="line2d_10">
      <defs>
       <path d="M 0 0 
L -3.5 0 
" id="mf00bf24e5b" style="stroke:#000000;stroke-width:0.8;"/>
      </defs>
      <g>
       <use style="stroke:#000000;stroke-width:0.8;" x="144" xlink:href="#mf00bf24e5b" y="486.33118"/>
      </g>
     </g>
     <g id="text_11">
      <!-- 0 -->
      <g transform="translate(130.6375 490.130398)scale(0.1 -0.1)">
       <use xlink:href="#DejaVuSans-48"/>
      </g>
     </g>
    </g>
    <g id="ytick_2">
     <g id="line2d_11">
      <g>
       <use style="stroke:#000000;stroke-width:0.8;" x="144" xlink:href="#mf00bf24e5b" y="429.457701"/>
      </g>
     </g>
     <g id="text_12">
      <!-- 1 -->
      <g transform="translate(130.6375 433.256919)scale(0.1 -0.1)">
       <use xlink:href="#DejaVuSans-49"/>
      </g>
     </g>
    </g>
    <g id="ytick_3">
     <g id="line2d_12">
      <g>
       <use style="stroke:#000000;stroke-width:0.8;" x="144" xlink:href="#mf00bf24e5b" y="372.584222"/>
      </g>
     </g>
     <g id="text_13">
      <!-- 2 -->
      <g transform="translate(130.6375 376.38344)scale(0.1 -0.1)">
       <use xlink:href="#DejaVuSans-50"/>
      </g>
     </g>
    </g>
    <g id="ytick_4">
     <g id="line2d_13">
      <g>
       <use style="stroke:#000000;stroke-width:0.8;" x="144" xlink:href="#mf00bf24e5b" y="315.710743"/>
      </g>
     </g>
     <g id="text_14">
      <!-- 3 -->
      <g transform="translate(130.6375 319.509962)scale(0.1 -0.1)">
       <use xlink:href="#DejaVuSans-51"/>
      </g>
     </g>
    </g>
    <g id="ytick_5">
     <g id="line2d_14">
      <g>
       <use style="stroke:#000000;stroke-width:0.8;" x="144" xlink:href="#mf00bf24e5b" y="258.837264"/>
      </g>
     </g>
     <g id="text_15">
      <!-- 4 -->
      <g transform="translate(130.6375 262.636483)scale(0.1 -0.1)">
       <use xlink:href="#DejaVuSans-52"/>
      </g>
     </g>
    </g>
    <g id="ytick_6">
     <g id="line2d_15">
      <g>
       <use style="stroke:#000000;stroke-width:0.8;" x="144" xlink:href="#mf00bf24e5b" y="201.963785"/>
      </g>
     </g>
     <g id="text_16">
      <!-- 5 -->
      <g transform="translate(130.6375 205.763004)scale(0.1 -0.1)">
       <use xlink:href="#DejaVuSans-53"/>
      </g>
     </g>
    </g>
    <g id="ytick_7">
     <g id="line2d_16">
      <g>
       <use style="stroke:#000000;stroke-width:0.8;" x="144" xlink:href="#mf00bf24e5b" y="145.090306"/>
      </g>
     </g>
     <g id="text_17">
      <!-- 6 -->
      <defs>
       <path d="M 33.015625 40.375 
Q 26.375 40.375 22.484375 35.828125 
Q 18.609375 31.296875 18.609375 23.390625 
Q 18.609375 15.53125 22.484375 10.953125 
Q 26.375 6.390625 33.015625 6.390625 
Q 39.65625 6.390625 43.53125 10.953125 
Q 47.40625 15.53125 47.40625 23.390625 
Q 47.40625 31.296875 43.53125 35.828125 
Q 39.65625 40.375 33.015625 40.375 
z
M 52.59375 71.296875 
L 52.59375 62.3125 
Q 48.875 64.0625 45.09375 64.984375 
Q 41.3125 65.921875 37.59375 65.921875 
Q 27.828125 65.921875 22.671875 59.328125 
Q 17.53125 52.734375 16.796875 39.40625 
Q 19.671875 43.65625 24.015625 45.921875 
Q 28.375 48.1875 33.59375 48.1875 
Q 44.578125 48.1875 50.953125 41.515625 
Q 57.328125 34.859375 57.328125 23.390625 
Q 57.328125 12.15625 50.6875 5.359375 
Q 44.046875 -1.421875 33.015625 -1.421875 
Q 20.359375 -1.421875 13.671875 8.265625 
Q 6.984375 17.96875 6.984375 36.375 
Q 6.984375 53.65625 15.1875 63.9375 
Q 23.390625 74.21875 37.203125 74.21875 
Q 40.921875 74.21875 44.703125 73.484375 
Q 48.484375 72.75 52.59375 71.296875 
z
" id="DejaVuSans-54"/>
      </defs>
      <g transform="translate(130.6375 148.889525)scale(0.1 -0.1)">
       <use xlink:href="#DejaVuSans-54"/>
      </g>
     </g>
    </g>
    <g id="ytick_8">
     <g id="line2d_17">
      <g>
       <use style="stroke:#000000;stroke-width:0.8;" x="144" xlink:href="#mf00bf24e5b" y="88.216827"/>
      </g>
     </g>
     <g id="text_18">
      <!-- 7 -->
      <defs>
       <path d="M 8.203125 72.90625 
L 55.078125 72.90625 
L 55.078125 68.703125 
L 28.609375 0 
L 18.3125 0 
L 43.21875 64.59375 
L 8.203125 64.59375 
z
" id="DejaVuSans-55"/>
      </defs>
      <g transform="translate(130.6375 92.016046)scale(0.1 -0.1)">
       <use xlink:href="#DejaVuSans-55"/>
      </g>
     </g>
    </g>
    <g id="text_19">
     <!-- Loss -->
     <defs>
      <path d="M 9.8125 72.90625 
L 19.671875 72.90625 
L 19.671875 8.296875 
L 55.171875 8.296875 
L 55.171875 0 
L 9.8125 0 
z
" id="DejaVuSans-76"/>
     </defs>
     <g transform="translate(124.557812 297.527188)rotate(-90)scale(0.1 -0.1)">
      <use xlink:href="#DejaVuSans-76"/>
      <use x="53.962891" xlink:href="#DejaVuSans-111"/>
      <use x="115.144531" xlink:href="#DejaVuSans-115"/>
      <use x="167.244141" xlink:href="#DejaVuSans-115"/>
     </g>
    </g>
   </g>
   <g id="line2d_18">
    <path clip-path="url(#paa99e4d797)" d="M 184.581818 484.199895 
L 194.855696 483.855944 
L 205.129574 483.226189 
L 215.403452 482.251941 
L 225.67733 481.541807 
L 235.951208 473.963817 
L 246.225086 470.633401 
L 256.498964 466.282867 
L 266.772842 456.324285 
L 277.04672 446.740036 
L 287.320598 443.697803 
L 297.594476 433.581831 
L 307.868354 430.692192 
L 318.142232 428.41814 
L 328.41611 416.722131 
L 338.689988 407.195741 
L 348.963867 399.226783 
L 359.237745 390.688664 
L 369.511623 375.558961 
L 379.785501 373.823124 
L 390.059379 355.439358 
L 400.333257 356.995442 
L 410.607135 356.934247 
L 420.881013 366.105685 
L 431.154891 356.624977 
L 441.428769 346.683335 
L 451.702647 333.664985 
L 461.976525 329.401695 
L 472.250403 317.790773 
L 482.524281 310.571456 
L 492.798159 311.976484 
L 503.072037 309.245454 
L 513.345915 293.151927 
L 523.619793 288.144943 
L 533.893671 255.913116 
L 544.167549 247.724715 
L 554.441427 250.748066 
L 564.715305 241.639097 
L 574.989183 236.825921 
L 585.263061 229.893989 
L 595.536939 213.28735 
L 605.810817 197.008124 
L 616.084695 197.718218 
L 626.358573 191.243518 
L 636.632451 181.465948 
L 646.906329 158.098202 
L 657.180207 137.645302 
L 667.454085 132.318593 
L 677.727963 130.096213 
L 688.001841 106.414425 
L 698.275719 107.236576 
L 708.549597 150.280984 
L 718.823475 148.973043 
L 729.097353 117.471379 
L 739.371231 109.395632 
L 749.645109 131.097543 
L 759.918987 122.131005 
L 770.192865 106.028679 
L 780.466743 88.887273 
L 790.740621 115.057564 
L 801.014499 143.809729 
L 811.288377 140.556785 
L 821.562255 146.641915 
L 831.836133 132.842051 
L 842.110012 131.605543 
L 852.38389 139.606169 
L 862.657768 93.641518 
L 872.931646 106.282218 
L 883.205524 108.068436 
L 893.479402 105.492772 
L 903.75328 115.374237 
L 914.027158 126.242142 
L 924.301036 116.93013 
L 934.574914 121.775497 
L 944.848792 129.394906 
L 955.12267 119.889588 
L 965.396548 124.762996 
L 975.670426 128.851623 
L 985.944304 125.965795 
L 996.218182 129.957498 
" style="fill:none;stroke:#1f77b4;stroke-linecap:square;stroke-width:1.5;"/>
   </g>
   <g id="line2d_19">
    <path clip-path="url(#paa99e4d797)" d="M 184.581818 484.232727 
L 194.855696 484.077583 
L 205.129574 483.845913 
L 215.403452 483.475509 
L 225.67733 483.218279 
L 235.951208 482.801157 
L 246.225086 482.498009 
L 256.498964 481.809428 
L 266.772842 480.828002 
L 277.04672 479.710293 
L 287.320598 478.697349 
L 297.594476 476.929779 
L 307.868354 474.251382 
L 318.142232 471.73363 
L 328.41611 467.242446 
L 338.689988 462.407064 
L 348.963867 456.638965 
L 359.237745 448.941679 
L 369.511623 441.905873 
L 379.785501 436.869582 
L 390.059379 428.45431 
L 400.333257 420.926714 
L 410.607135 415.535468 
L 420.881013 408.53872 
L 431.154891 404.862111 
L 441.428769 397.715237 
L 451.702647 393.10791 
L 461.976525 388.749106 
L 472.250403 385.091555 
L 482.524281 378.709732 
L 492.798159 372.130487 
L 503.072037 369.510483 
L 513.345915 362.26421 
L 523.619793 361.860212 
L 533.893671 361.839927 
L 544.167549 358.743598 
L 554.441427 355.155893 
L 564.715305 355.155893 
L 574.989183 355.155893 
L 585.263061 355.155893 
L 595.536939 355.155893 
L 605.810817 355.155893 
L 616.084695 355.155893 
L 626.358573 355.155893 
L 636.632451 355.155893 
L 646.906329 355.155893 
L 657.180207 355.155893 
L 667.454085 355.155893 
L 677.727963 355.155893 
L 688.001841 355.155893 
L 698.275719 355.155893 
L 708.549597 355.155893 
L 718.823475 355.155893 
L 729.097353 355.155893 
L 739.371231 355.155893 
L 749.645109 355.155893 
L 759.918987 355.155893 
L 770.192865 355.155893 
L 780.466743 355.155893 
L 790.740621 355.155893 
L 801.014499 355.155893 
L 811.288377 355.155893 
L 821.562255 355.155893 
L 831.836133 355.155893 
L 842.110012 355.155893 
L 852.38389 355.155893 
L 862.657768 355.155893 
L 872.931646 355.155893 
L 883.205524 355.155893 
L 893.479402 355.155893 
L 903.75328 355.155893 
L 914.027158 355.155893 
L 924.301036 355.155893 
L 934.574914 355.155893 
L 944.848792 355.155893 
L 955.12267 355.155893 
L 965.396548 355.155893 
L 975.670426 355.155893 
L 985.944304 355.155893 
L 996.218182 355.155893 
" style="fill:none;stroke:#ff7f0e;stroke-linecap:square;stroke-width:1.5;"/>
   </g>
   <g id="line2d_20">
    <path clip-path="url(#paa99e4d797)" d="M 184.581818 484.196656 
L 194.855696 484.025774 
L 205.129574 483.702797 
L 215.403452 483.335906 
L 225.67733 482.790276 
L 235.951208 482.245538 
L 246.225086 481.613932 
L 256.498964 480.486282 
L 266.772842 479.240619 
L 277.04672 477.611991 
L 287.320598 475.69314 
L 297.594476 472.850604 
L 307.868354 468.127653 
L 318.142232 462.89956 
L 328.41611 459.949354 
L 338.689988 454.963563 
L 348.963867 449.5026 
L 359.237745 441.874733 
L 369.511623 430.921927 
L 379.785501 419.824324 
L 390.059379 410.899354 
L 400.333257 400.430938 
L 410.607135 390.223418 
L 420.881013 381.492202 
L 431.154891 375.997 
L 441.428769 367.977628 
L 451.702647 364.12902 
L 461.976525 358.184898 
L 472.250403 358.211231 
L 482.524281 355.155893 
L 492.798159 355.155893 
L 503.072037 355.155893 
L 513.345915 355.155893 
L 523.619793 355.155893 
L 533.893671 355.155893 
L 544.167549 355.155893 
L 554.441427 355.155893 
L 564.715305 355.155893 
L 574.989183 355.155893 
L 585.263061 355.155893 
L 595.536939 355.155893 
L 605.810817 355.155893 
L 616.084695 355.155893 
L 626.358573 355.155893 
L 636.632451 355.155893 
L 646.906329 355.155893 
L 657.180207 355.155893 
L 667.454085 355.155893 
L 677.727963 355.155893 
L 688.001841 355.155893 
L 698.275719 355.155893 
L 708.549597 355.155893 
L 718.823475 355.155893 
L 729.097353 355.155893 
L 739.371231 355.155893 
L 749.645109 355.155893 
L 759.918987 355.155893 
L 770.192865 355.155893 
L 780.466743 355.155893 
L 790.740621 355.155893 
L 801.014499 355.155893 
L 811.288377 355.155893 
L 821.562255 355.155893 
L 831.836133 355.155893 
L 842.110012 355.155893 
L 852.38389 355.155893 
L 862.657768 355.155893 
L 872.931646 355.155893 
L 883.205524 355.155893 
L 893.479402 355.155893 
L 903.75328 355.155893 
L 914.027158 355.155893 
L 924.301036 355.155893 
L 934.574914 355.155893 
L 944.848792 355.155893 
L 955.12267 355.155893 
L 965.396548 355.155893 
L 975.670426 355.155893 
L 985.944304 355.155893 
L 996.218182 355.155893 
" style="fill:none;stroke:#2ca02c;stroke-linecap:square;stroke-width:1.5;"/>
   </g>
   <g id="line2d_21">
    <path clip-path="url(#paa99e4d797)" d="M 184.581818 484.192567 
L 194.855696 483.938882 
L 205.129574 483.595674 
L 215.403452 483.154621 
L 225.67733 482.660515 
L 235.951208 481.975499 
L 246.225086 481.340755 
L 256.498964 480.058281 
L 266.772842 478.448951 
L 277.04672 475.747077 
L 287.320598 473.254883 
L 297.594476 469.270973 
L 307.868354 465.489447 
L 318.142232 462.363942 
L 328.41611 457.245741 
L 338.689988 454.823864 
L 348.963867 449.262078 
L 359.237745 444.827014 
L 369.511623 439.067015 
L 379.785501 433.284328 
L 390.059379 423.885053 
L 400.333257 416.020464 
L 410.607135 409.142255 
L 420.881013 406.376315 
L 431.154891 400.526663 
L 441.428769 399.600346 
L 451.702647 397.336772 
L 461.976525 391.388934 
L 472.250403 388.089406 
L 482.524281 387.180697 
L 492.798159 383.332028 
L 503.072037 377.75814 
L 513.345915 372.886474 
L 523.619793 369.36675 
L 533.893671 365.853068 
L 544.167549 365.843684 
L 554.441427 365.389136 
L 564.715305 362.410939 
L 574.989183 361.540624 
L 585.263061 361.316713 
L 595.536939 358.317702 
L 605.810817 358.321756 
L 616.084695 358.190349 
L 626.358573 358.263097 
L 636.632451 358.193861 
L 646.906329 358.088014 
L 657.180207 358.0293 
L 667.454085 357.814935 
L 677.727963 357.630198 
L 688.001841 357.449827 
L 698.275719 357.365526 
L 708.549597 357.186023 
L 718.823475 356.688992 
L 729.097353 356.489258 
L 739.371231 356.443765 
L 749.645109 356.066847 
L 759.918987 356.017571 
L 770.192865 355.76852 
L 780.466743 355.92447 
L 790.740621 355.882136 
L 801.014499 355.760777 
L 811.288377 356.009543 
L 821.562255 355.692545 
L 831.836133 355.415276 
L 842.110012 355.24776 
L 852.38389 355.306758 
L 862.657768 355.155893 
L 872.931646 355.155893 
L 883.205524 355.155893 
L 893.479402 355.155893 
L 903.75328 355.155893 
L 914.027158 355.155893 
L 924.301036 355.155893 
L 934.574914 355.155893 
L 944.848792 355.155893 
L 955.12267 355.155893 
L 965.396548 355.155893 
L 975.670426 355.155893 
L 985.944304 355.155893 
L 996.218182 355.155893 
" style="fill:none;stroke:#d62728;stroke-dasharray:5.55,2.4;stroke-dashoffset:0;stroke-width:1.5;"/>
   </g>
   <g id="line2d_22">
    <path clip-path="url(#paa99e4d797)" d="M 184.581818 484.163701 
L 194.855696 483.866053 
L 205.129574 483.398604 
L 215.403452 482.997744 
L 225.67733 482.222074 
L 235.951208 481.238142 
L 246.225086 479.224202 
L 256.498964 477.536396 
L 266.772842 475.479274 
L 277.04672 473.044806 
L 287.320598 467.594825 
L 297.594476 464.790943 
L 307.868354 459.390266 
L 318.142232 454.001096 
L 328.41611 448.08572 
L 338.689988 441.957898 
L 348.963867 436.201675 
L 359.237745 430.963498 
L 369.511623 423.341906 
L 379.785501 421.747604 
L 390.059379 416.658 
L 400.333257 412.884622 
L 410.607135 405.245355 
L 420.881013 399.385682 
L 431.154891 391.950936 
L 441.428769 388.57321 
L 451.702647 386.179178 
L 461.976525 383.261911 
L 472.250403 380.193237 
L 482.524281 376.372461 
L 492.798159 372.937614 
L 503.072037 370.404108 
L 513.345915 370.257161 
L 523.619793 368.097143 
L 533.893671 367.436853 
L 544.167549 366.538307 
L 554.441427 364.269228 
L 564.715305 363.428974 
L 574.989183 363.096992 
L 585.263061 362.748494 
L 595.536939 362.167597 
L 605.810817 361.215367 
L 616.084695 360.846083 
L 626.358573 359.570075 
L 636.632451 359.702512 
L 646.906329 359.608313 
L 657.180207 358.598618 
L 667.454085 358.370734 
L 677.727963 356.637588 
L 688.001841 356.602197 
L 698.275719 356.279517 
L 708.549597 356.337701 
L 718.823475 356.154578 
L 729.097353 356.213698 
L 739.371231 356.209427 
L 749.645109 355.687528 
L 759.918987 355.693643 
L 770.192865 355.546561 
L 780.466743 355.511292 
L 790.740621 355.479156 
L 801.014499 355.640747 
L 811.288377 355.463237 
L 821.562255 354.90371 
L 831.836133 354.948538 
L 842.110012 354.980173 
L 852.38389 354.904455 
L 862.657768 354.91773 
L 872.931646 354.810799 
L 883.205524 354.776709 
L 893.479402 354.842474 
L 903.75328 355.247421 
L 914.027158 355.22898 
L 924.301036 355.208531 
L 934.574914 355.167202 
L 944.848792 355.172476 
L 955.12267 355.155893 
L 965.396548 355.155893 
L 975.670426 355.155893 
L 985.944304 355.155893 
L 996.218182 355.155893 
" style="fill:none;stroke:#9467bd;stroke-dasharray:5.55,2.4;stroke-dashoffset:0;stroke-width:1.5;"/>
   </g>
   <g id="line2d_23">
    <path clip-path="url(#paa99e4d797)" d="M 184.581818 484.195143 
L 194.855696 483.951897 
L 205.129574 483.620137 
L 215.403452 483.374309 
L 225.67733 482.192372 
L 235.951208 481.748542 
L 246.225086 479.850984 
L 256.498964 479.016213 
L 266.772842 477.786711 
L 277.04672 472.603908 
L 287.320598 469.047065 
L 297.594476 466.647311 
L 307.868354 464.475207 
L 318.142232 460.193476 
L 328.41611 461.298379 
L 338.689988 461.506992 
L 348.963867 459.594731 
L 359.237745 454.423847 
L 369.511623 453.466376 
L 379.785501 447.15959 
L 390.059379 445.150213 
L 400.333257 432.074 
L 410.607135 417.300079 
L 420.881013 412.22716 
L 431.154891 409.643008 
L 441.428769 391.90745 
L 451.702647 385.093663 
L 461.976525 381.427719 
L 472.250403 374.885851 
L 482.524281 377.365444 
L 492.798159 366.941043 
L 503.072037 361.934845 
L 513.345915 348.667891 
L 523.619793 343.141 
L 533.893671 332.755875 
L 544.167549 326.477913 
L 554.441427 336.024073 
L 564.715305 335.144849 
L 574.989183 338.468682 
L 585.263061 324.516801 
L 595.536939 309.058615 
L 605.810817 310.786581 
L 616.084695 313.04107 
L 626.358573 316.999063 
L 636.632451 314.476865 
L 646.906329 297.743674 
L 657.180207 283.867591 
L 667.454085 274.209428 
L 677.727963 271.088895 
L 688.001841 278.65218 
L 698.275719 278.503553 
L 708.549597 274.832455 
L 718.823475 270.115011 
L 729.097353 286.660671 
L 739.371231 280.612722 
L 749.645109 281.382655 
L 759.918987 276.648925 
L 770.192865 270.476837 
L 780.466743 269.708952 
L 790.740621 253.046461 
L 801.014499 255.181787 
L 811.288377 258.378431 
L 821.562255 267.847287 
L 831.836133 275.697048 
L 842.110012 284.619802 
L 852.38389 290.178015 
L 862.657768 286.412285 
L 872.931646 287.011894 
L 883.205524 287.518607 
L 893.479402 298.07769 
L 903.75328 298.681571 
L 914.027158 302.240855 
L 924.301036 303.031819 
L 934.574914 313.945027 
L 944.848792 334.948681 
L 955.12267 335.36754 
L 965.396548 334.657215 
L 975.670426 335.949712 
L 985.944304 335.142449 
L 996.218182 330.599477 
" style="fill:none;stroke:#8c564b;stroke-linecap:square;stroke-width:1.5;"/>
   </g>
   <g id="line2d_24">
    <path clip-path="url(#paa99e4d797)" d="M 184.581818 484.224652 
L 194.855696 484.028022 
L 205.129574 483.766943 
L 215.403452 483.415084 
L 225.67733 482.771389 
L 235.951208 482.369174 
L 246.225086 481.715357 
L 256.498964 480.818197 
L 266.772842 479.84252 
L 277.04672 478.065104 
L 287.320598 475.543417 
L 297.594476 472.828495 
L 307.868354 469.843112 
L 318.142232 466.351326 
L 328.41611 460.288616 
L 338.689988 456.054752 
L 348.963867 450.621352 
L 359.237745 442.553148 
L 369.511623 436.849219 
L 379.785501 428.967755 
L 390.059379 427.94273 
L 400.333257 422.924532 
L 410.607135 415.062411 
L 420.881013 408.315636 
L 431.154891 405.751972 
L 441.428769 399.970383 
L 451.702647 394.235324 
L 461.976525 388.096871 
L 472.250403 384.930933 
L 482.524281 379.377601 
L 492.798159 376.597884 
L 503.072037 372.00727 
L 513.345915 370.545495 
L 523.619793 368.236686 
L 533.893671 367.291182 
L 544.167549 367.138093 
L 554.441427 366.675504 
L 564.715305 366.17031 
L 574.989183 365.575935 
L 585.263061 363.930222 
L 595.536939 362.271871 
L 605.810817 357.949664 
L 616.084695 357.385351 
L 626.358573 354.632489 
L 636.632451 354.283055 
L 646.906329 354.145587 
L 657.180207 353.883953 
L 667.454085 353.331016 
L 677.727963 353.549598 
L 688.001841 353.380685 
L 698.275719 353.269997 
L 708.549597 352.97708 
L 718.823475 352.378935 
L 729.097353 352.330012 
L 739.371231 351.971588 
L 749.645109 351.702184 
L 759.918987 351.598154 
L 770.192865 352.168041 
L 780.466743 352.122779 
L 790.740621 352.007006 
L 801.014499 351.920536 
L 811.288377 349.970286 
L 821.562255 349.909769 
L 831.836133 349.402569 
L 842.110012 349.329631 
L 852.38389 349.642982 
L 862.657768 349.640121 
L 872.931646 349.687227 
L 883.205524 347.257208 
L 893.479402 347.257208 
L 903.75328 347.257208 
L 914.027158 347.257208 
L 924.301036 347.257208 
L 934.574914 347.257208 
L 944.848792 347.257208 
L 955.12267 347.257208 
L 965.396548 347.257208 
L 975.670426 347.257208 
L 985.944304 347.257208 
L 996.218182 347.257208 
" style="fill:none;stroke:#e377c2;stroke-linecap:square;stroke-width:1.5;"/>
   </g>
   <g id="line2d_25">
    <path clip-path="url(#paa99e4d797)" d="M 184.581818 484.204006 
L 194.855696 483.983017 
L 205.129574 483.748963 
L 215.403452 483.402524 
L 225.67733 482.852306 
L 235.951208 482.127852 
L 246.225086 481.298227 
L 256.498964 480.377567 
L 266.772842 478.725741 
L 277.04672 477.019925 
L 287.320598 473.99491 
L 297.594476 471.370408 
L 307.868354 467.680607 
L 318.142232 461.892614 
L 328.41611 457.977386 
L 338.689988 449.322388 
L 348.963867 439.531828 
L 359.237745 431.196196 
L 369.511623 425.615399 
L 379.785501 420.172544 
L 390.059379 411.672853 
L 400.333257 407.363793 
L 410.607135 399.536222 
L 420.881013 391.445336 
L 431.154891 388.788104 
L 441.428769 385.62302 
L 451.702647 379.066454 
L 461.976525 378.350102 
L 472.250403 374.922042 
L 482.524281 371.13027 
L 492.798159 367.928487 
L 503.072037 366.356702 
L 513.345915 363.17313 
L 523.619793 359.555674 
L 533.893671 359.300156 
L 544.167549 358.470845 
L 554.441427 357.198851 
L 564.715305 357.24814 
L 574.989183 356.736058 
L 585.263061 353.99578 
L 595.536939 353.085273 
L 605.810817 352.692788 
L 616.084695 352.195893 
L 626.358573 352.136976 
L 636.632451 351.240328 
L 646.906329 350.169844 
L 657.180207 350.515698 
L 667.454085 350.384996 
L 677.727963 350.657166 
L 688.001841 350.385348 
L 698.275719 349.569272 
L 708.549597 349.467059 
L 718.823475 349.501012 
L 729.097353 349.523684 
L 739.371231 349.478151 
L 749.645109 349.688516 
L 759.918987 349.607442 
L 770.192865 347.257208 
L 780.466743 347.257208 
L 790.740621 347.257208 
L 801.014499 347.257208 
L 811.288377 347.257208 
L 821.562255 347.257208 
L 831.836133 347.257208 
L 842.110012 347.257208 
L 852.38389 347.257208 
L 862.657768 347.257208 
L 872.931646 347.257208 
L 883.205524 347.257208 
L 893.479402 347.257208 
L 903.75328 347.257208 
L 914.027158 347.257208 
L 924.301036 347.257208 
L 934.574914 347.257208 
L 944.848792 347.257208 
L 955.12267 347.257208 
L 965.396548 347.257208 
L 975.670426 347.257208 
L 985.944304 347.257208 
L 996.218182 347.257208 
" style="fill:none;stroke:#7f7f7f;stroke-linecap:square;stroke-width:1.5;"/>
   </g>
   <g id="line2d_26">
    <path clip-path="url(#paa99e4d797)" d="M 184.581818 484.192437 
L 194.855696 483.982053 
L 205.129574 483.618515 
L 215.403452 483.099076 
L 225.67733 482.757907 
L 235.951208 481.763027 
L 246.225086 480.875121 
L 256.498964 479.655505 
L 266.772842 478.504002 
L 277.04672 476.800043 
L 287.320598 474.439641 
L 297.594476 471.769622 
L 307.868354 469.639471 
L 318.142232 465.808013 
L 328.41611 461.273073 
L 338.689988 455.533196 
L 348.963867 448.415177 
L 359.237745 442.266452 
L 369.511623 432.26614 
L 379.785501 425.066401 
L 390.059379 413.913444 
L 400.333257 408.614681 
L 410.607135 405.277939 
L 420.881013 399.377519 
L 431.154891 397.032987 
L 441.428769 389.122458 
L 451.702647 386.177957 
L 461.976525 382.698004 
L 472.250403 381.977035 
L 482.524281 372.048804 
L 492.798159 371.996585 
L 503.072037 368.266083 
L 513.345915 367.264808 
L 523.619793 363.668777 
L 533.893671 360.902572 
L 544.167549 358.353987 
L 554.441427 353.993841 
L 564.715305 350.367816 
L 574.989183 347.257208 
L 585.263061 347.257208 
L 595.536939 347.257208 
L 605.810817 347.257208 
L 616.084695 347.257208 
L 626.358573 347.257208 
L 636.632451 347.257208 
L 646.906329 347.257208 
L 657.180207 347.257208 
L 667.454085 347.257208 
L 677.727963 347.257208 
L 688.001841 347.257208 
L 698.275719 347.257208 
L 708.549597 347.257208 
L 718.823475 347.257208 
L 729.097353 347.257208 
L 739.371231 347.257208 
L 749.645109 347.257208 
L 759.918987 347.257208 
L 770.192865 347.257208 
L 780.466743 347.257208 
L 790.740621 347.257208 
L 801.014499 347.257208 
L 811.288377 347.257208 
L 821.562255 347.257208 
L 831.836133 347.257208 
L 842.110012 347.257208 
L 852.38389 347.257208 
L 862.657768 347.257208 
L 872.931646 347.257208 
L 883.205524 347.257208 
L 893.479402 347.257208 
L 903.75328 347.257208 
L 914.027158 347.257208 
L 924.301036 347.257208 
L 934.574914 347.257208 
L 944.848792 347.257208 
L 955.12267 347.257208 
L 965.396548 347.257208 
L 975.670426 347.257208 
L 985.944304 347.257208 
L 996.218182 347.257208 
" style="fill:none;stroke:#bcbd22;stroke-dasharray:5.55,2.4;stroke-dashoffset:0;stroke-width:1.5;"/>
   </g>
   <g id="line2d_27">
    <path clip-path="url(#paa99e4d797)" d="M 184.581818 484.224652 
L 194.855696 484.02747 
L 205.129574 483.745248 
L 215.403452 483.435629 
L 225.67733 483.085177 
L 235.951208 482.517995 
L 246.225086 481.809219 
L 256.498964 480.862868 
L 266.772842 479.68803 
L 277.04672 477.297842 
L 287.320598 475.846539 
L 297.594476 473.703352 
L 307.868354 470.090434 
L 318.142232 465.448373 
L 328.41611 461.203266 
L 338.689988 454.477604 
L 348.963867 446.967706 
L 359.237745 438.39997 
L 369.511623 428.053988 
L 379.785501 418.705772 
L 390.059379 410.759113 
L 400.333257 402.763606 
L 410.607135 395.746003 
L 420.881013 390.772192 
L 431.154891 378.862123 
L 441.428769 372.272539 
L 451.702647 364.890831 
L 461.976525 349.981812 
L 472.250403 347.257208 
L 482.524281 347.257208 
L 492.798159 347.257208 
L 503.072037 347.257208 
L 513.345915 347.257208 
L 523.619793 347.257208 
L 533.893671 347.257208 
L 544.167549 347.257208 
L 554.441427 347.257208 
L 564.715305 347.257208 
L 574.989183 347.257208 
L 585.263061 347.257208 
L 595.536939 347.257208 
L 605.810817 347.257208 
L 616.084695 347.257208 
L 626.358573 347.257208 
L 636.632451 347.257208 
L 646.906329 347.257208 
L 657.180207 347.257208 
L 667.454085 347.257208 
L 677.727963 347.257208 
L 688.001841 347.257208 
L 698.275719 347.257208 
L 708.549597 347.257208 
L 718.823475 347.257208 
L 729.097353 347.257208 
L 739.371231 347.257208 
L 749.645109 347.257208 
L 759.918987 347.257208 
L 770.192865 347.257208 
L 780.466743 347.257208 
L 790.740621 347.257208 
L 801.014499 347.257208 
L 811.288377 347.257208 
L 821.562255 347.257208 
L 831.836133 347.257208 
L 842.110012 347.257208 
L 852.38389 347.257208 
L 862.657768 347.257208 
L 872.931646 347.257208 
L 883.205524 347.257208 
L 893.479402 347.257208 
L 903.75328 347.257208 
L 914.027158 347.257208 
L 924.301036 347.257208 
L 934.574914 347.257208 
L 944.848792 347.257208 
L 955.12267 347.257208 
L 965.396548 347.257208 
L 975.670426 347.257208 
L 985.944304 347.257208 
L 996.218182 347.257208 
" style="fill:none;stroke:#17becf;stroke-dasharray:5.55,2.4;stroke-dashoffset:0;stroke-width:1.5;"/>
   </g>
   <g id="line2d_28">
    <path clip-path="url(#paa99e4d797)" d="M 184.581818 484.178085 
L 194.855696 483.910932 
L 205.129574 483.559099 
L 215.403452 483.195882 
L 225.67733 482.489876 
L 235.951208 481.529881 
L 246.225086 479.885202 
L 256.498964 478.17094 
L 266.772842 475.907018 
L 277.04672 473.484511 
L 287.320598 469.012677 
L 297.594476 465.234731 
L 307.868354 460.296909 
L 318.142232 454.962895 
L 328.41611 447.809177 
L 338.689988 442.183999 
L 348.963867 436.620494 
L 359.237745 430.111508 
L 369.511623 421.474207 
L 379.785501 420.238838 
L 390.059379 415.575977 
L 400.333257 411.031182 
L 410.607135 402.749009 
L 420.881013 397.076561 
L 431.154891 386.445294 
L 441.428769 379.662131 
L 451.702647 376.46841 
L 461.976525 372.738958 
L 472.250403 370.176915 
L 482.524281 366.972149 
L 492.798159 363.266447 
L 503.072037 361.282556 
L 513.345915 360.904078 
L 523.619793 358.296413 
L 533.893671 357.578929 
L 544.167549 356.50831 
L 554.441427 353.171567 
L 564.715305 353.5066 
L 574.989183 351.774742 
L 585.263061 351.577734 
L 595.536939 351.154902 
L 605.810817 350.911614 
L 616.084695 350.851219 
L 626.358573 349.684177 
L 636.632451 349.698835 
L 646.906329 349.817265 
L 657.180207 348.946502 
L 667.454085 348.980862 
L 677.727963 348.544118 
L 688.001841 349.317251 
L 698.275719 349.320397 
L 708.549597 348.855964 
L 718.823475 348.607672 
L 729.097353 348.517094 
L 739.371231 348.930095 
L 749.645109 348.724543 
L 759.918987 348.987696 
L 770.192865 349.28026 
L 780.466743 349.125748 
L 790.740621 349.209709 
L 801.014499 349.090452 
L 811.288377 348.535915 
L 821.562255 349.061041 
L 831.836133 349.105679 
L 842.110012 349.174034 
L 852.38389 348.716448 
L 862.657768 349.064919 
L 872.931646 349.082099 
L 883.205524 349.127863 
L 893.479402 349.094764 
L 903.75328 348.84791 
L 914.027158 348.897131 
L 924.301036 349.023833 
L 934.574914 349.193316 
L 944.848792 349.174074 
L 955.12267 347.257208 
L 965.396548 347.257208 
L 975.670426 347.257208 
L 985.944304 347.257208 
L 996.218182 347.257208 
" style="fill:none;stroke:#1f77b4;stroke-dasharray:5.55,2.4;stroke-dashoffset:0;stroke-width:1.5;"/>
   </g>
   <g id="patch_3">
    <path d="M 144 504 
L 144 69.12 
" style="fill:none;stroke:#000000;stroke-linecap:square;stroke-linejoin:miter;stroke-width:0.8;"/>
   </g>
   <g id="patch_4">
    <path d="M 1036.8 504 
L 1036.8 69.12 
" style="fill:none;stroke:#000000;stroke-linecap:square;stroke-linejoin:miter;stroke-width:0.8;"/>
   </g>
   <g id="patch_5">
    <path d="M 144 504 
L 1036.8 504 
" style="fill:none;stroke:#000000;stroke-linecap:square;stroke-linejoin:miter;stroke-width:0.8;"/>
   </g>
   <g id="patch_6">
    <path d="M 144 69.12 
L 1036.8 69.12 
" style="fill:none;stroke:#000000;stroke-linecap:square;stroke-linejoin:miter;stroke-width:0.8;"/>
   </g>
   <g id="legend_1">
    <g id="patch_7">
     <path d="M 151 240.52625 
L 300.879687 240.52625 
Q 302.879687 240.52625 302.879687 238.52625 
L 302.879687 76.12 
Q 302.879687 74.12 300.879687 74.12 
L 151 74.12 
Q 149 74.12 149 76.12 
L 149 238.52625 
Q 149 240.52625 151 240.52625 
z
" style="fill:#ffffff;opacity:0.8;stroke:#cccccc;stroke-linejoin:miter;"/>
    </g>
    <g id="line2d_29">
     <path d="M 153 82.218437 
L 173 82.218437 
" style="fill:none;stroke:#1f77b4;stroke-linecap:square;stroke-width:1.5;"/>
    </g>
    <g id="line2d_30"/>
    <g id="text_20">
     <!-- taylorfo noBN -->
     <defs>
      <path d="M 18.3125 70.21875 
L 18.3125 54.6875 
L 36.8125 54.6875 
L 36.8125 47.703125 
L 18.3125 47.703125 
L 18.3125 18.015625 
Q 18.3125 11.328125 20.140625 9.421875 
Q 21.96875 7.515625 27.59375 7.515625 
L 36.8125 7.515625 
L 36.8125 0 
L 27.59375 0 
Q 17.1875 0 13.234375 3.875 
Q 9.28125 7.765625 9.28125 18.015625 
L 9.28125 47.703125 
L 2.6875 47.703125 
L 2.6875 54.6875 
L 9.28125 54.6875 
L 9.28125 70.21875 
z
" id="DejaVuSans-116"/>
      <path d="M 34.28125 27.484375 
Q 23.390625 27.484375 19.1875 25 
Q 14.984375 22.515625 14.984375 16.5 
Q 14.984375 11.71875 18.140625 8.90625 
Q 21.296875 6.109375 26.703125 6.109375 
Q 34.1875 6.109375 38.703125 11.40625 
Q 43.21875 16.703125 43.21875 25.484375 
L 43.21875 27.484375 
z
M 52.203125 31.203125 
L 52.203125 0 
L 43.21875 0 
L 43.21875 8.296875 
Q 40.140625 3.328125 35.546875 0.953125 
Q 30.953125 -1.421875 24.3125 -1.421875 
Q 15.921875 -1.421875 10.953125 3.296875 
Q 6 8.015625 6 15.921875 
Q 6 25.140625 12.171875 29.828125 
Q 18.359375 34.515625 30.609375 34.515625 
L 43.21875 34.515625 
L 43.21875 35.40625 
Q 43.21875 41.609375 39.140625 45 
Q 35.0625 48.390625 27.6875 48.390625 
Q 23 48.390625 18.546875 47.265625 
Q 14.109375 46.140625 10.015625 43.890625 
L 10.015625 52.203125 
Q 14.9375 54.109375 19.578125 55.046875 
Q 24.21875 56 28.609375 56 
Q 40.484375 56 46.34375 49.84375 
Q 52.203125 43.703125 52.203125 31.203125 
z
" id="DejaVuSans-97"/>
      <path d="M 32.171875 -5.078125 
Q 28.375 -14.84375 24.75 -17.8125 
Q 21.140625 -20.796875 15.09375 -20.796875 
L 7.90625 -20.796875 
L 7.90625 -13.28125 
L 13.1875 -13.28125 
Q 16.890625 -13.28125 18.9375 -11.515625 
Q 21 -9.765625 23.484375 -3.21875 
L 25.09375 0.875 
L 2.984375 54.6875 
L 12.5 54.6875 
L 29.59375 11.921875 
L 46.6875 54.6875 
L 56.203125 54.6875 
z
" id="DejaVuSans-121"/>
      <path d="M 9.421875 75.984375 
L 18.40625 75.984375 
L 18.40625 0 
L 9.421875 0 
z
" id="DejaVuSans-108"/>
      <path d="M 19.671875 34.8125 
L 19.671875 8.109375 
L 35.5 8.109375 
Q 43.453125 8.109375 47.28125 11.40625 
Q 51.125 14.703125 51.125 21.484375 
Q 51.125 28.328125 47.28125 31.5625 
Q 43.453125 34.8125 35.5 34.8125 
z
M 19.671875 64.796875 
L 19.671875 42.828125 
L 34.28125 42.828125 
Q 41.5 42.828125 45.03125 45.53125 
Q 48.578125 48.25 48.578125 53.8125 
Q 48.578125 59.328125 45.03125 62.0625 
Q 41.5 64.796875 34.28125 64.796875 
z
M 9.8125 72.90625 
L 35.015625 72.90625 
Q 46.296875 72.90625 52.390625 68.21875 
Q 58.5 63.53125 58.5 54.890625 
Q 58.5 48.1875 55.375 44.234375 
Q 52.25 40.28125 46.1875 39.3125 
Q 53.46875 37.75 57.5 32.78125 
Q 61.53125 27.828125 61.53125 20.40625 
Q 61.53125 10.640625 54.890625 5.3125 
Q 48.25 0 35.984375 0 
L 9.8125 0 
z
" id="DejaVuSans-66"/>
     </defs>
     <g transform="translate(181 85.718437)scale(0.1 -0.1)">
      <use xlink:href="#DejaVuSans-116"/>
      <use x="39.208984" xlink:href="#DejaVuSans-97"/>
      <use x="100.488281" xlink:href="#DejaVuSans-121"/>
      <use x="159.667969" xlink:href="#DejaVuSans-108"/>
      <use x="187.451172" xlink:href="#DejaVuSans-111"/>
      <use x="248.632812" xlink:href="#DejaVuSans-114"/>
      <use x="289.746094" xlink:href="#DejaVuSans-102"/>
      <use x="324.951172" xlink:href="#DejaVuSans-111"/>
      <use x="386.132812" xlink:href="#DejaVuSans-32"/>
      <use x="417.919922" xlink:href="#DejaVuSans-110"/>
      <use x="481.298828" xlink:href="#DejaVuSans-111"/>
      <use x="542.480469" xlink:href="#DejaVuSans-66"/>
      <use x="611.083984" xlink:href="#DejaVuSans-78"/>
     </g>
    </g>
    <g id="line2d_31">
     <path d="M 153 96.896563 
L 173 96.896563 
" style="fill:none;stroke:#ff7f0e;stroke-linecap:square;stroke-width:1.5;"/>
    </g>
    <g id="line2d_32"/>
    <g id="text_21">
     <!-- taylorfo_abs noBN -->
     <defs>
      <path d="M 50.984375 -16.609375 
L 50.984375 -23.578125 
L -0.984375 -23.578125 
L -0.984375 -16.609375 
z
" id="DejaVuSans-95"/>
     </defs>
     <g transform="translate(181 100.396563)scale(0.1 -0.1)">
      <use xlink:href="#DejaVuSans-116"/>
      <use x="39.208984" xlink:href="#DejaVuSans-97"/>
      <use x="100.488281" xlink:href="#DejaVuSans-121"/>
      <use x="159.667969" xlink:href="#DejaVuSans-108"/>
      <use x="187.451172" xlink:href="#DejaVuSans-111"/>
      <use x="248.632812" xlink:href="#DejaVuSans-114"/>
      <use x="289.746094" xlink:href="#DejaVuSans-102"/>
      <use x="324.951172" xlink:href="#DejaVuSans-111"/>
      <use x="386.132812" xlink:href="#DejaVuSans-95"/>
      <use x="436.132812" xlink:href="#DejaVuSans-97"/>
      <use x="497.412109" xlink:href="#DejaVuSans-98"/>
      <use x="560.888672" xlink:href="#DejaVuSans-115"/>
      <use x="612.988281" xlink:href="#DejaVuSans-32"/>
      <use x="644.775391" xlink:href="#DejaVuSans-110"/>
      <use x="708.154297" xlink:href="#DejaVuSans-111"/>
      <use x="769.335938" xlink:href="#DejaVuSans-66"/>
      <use x="837.939453" xlink:href="#DejaVuSans-78"/>
     </g>
    </g>
    <g id="line2d_33">
     <path d="M 153 111.852813 
L 173 111.852813 
" style="fill:none;stroke:#2ca02c;stroke-linecap:square;stroke-width:1.5;"/>
    </g>
    <g id="line2d_34"/>
    <g id="text_22">
     <!-- taylorfo_sq noBN -->
     <defs>
      <path d="M 14.796875 27.296875 
Q 14.796875 17.390625 18.875 11.75 
Q 22.953125 6.109375 30.078125 6.109375 
Q 37.203125 6.109375 41.296875 11.75 
Q 45.40625 17.390625 45.40625 27.296875 
Q 45.40625 37.203125 41.296875 42.84375 
Q 37.203125 48.484375 30.078125 48.484375 
Q 22.953125 48.484375 18.875 42.84375 
Q 14.796875 37.203125 14.796875 27.296875 
z
M 45.40625 8.203125 
Q 42.578125 3.328125 38.25 0.953125 
Q 33.9375 -1.421875 27.875 -1.421875 
Q 17.96875 -1.421875 11.734375 6.484375 
Q 5.515625 14.40625 5.515625 27.296875 
Q 5.515625 40.1875 11.734375 48.09375 
Q 17.96875 56 27.875 56 
Q 33.9375 56 38.25 53.625 
Q 42.578125 51.265625 45.40625 46.390625 
L 45.40625 54.6875 
L 54.390625 54.6875 
L 54.390625 -20.796875 
L 45.40625 -20.796875 
z
" id="DejaVuSans-113"/>
     </defs>
     <g transform="translate(181 115.352813)scale(0.1 -0.1)">
      <use xlink:href="#DejaVuSans-116"/>
      <use x="39.208984" xlink:href="#DejaVuSans-97"/>
      <use x="100.488281" xlink:href="#DejaVuSans-121"/>
      <use x="159.667969" xlink:href="#DejaVuSans-108"/>
      <use x="187.451172" xlink:href="#DejaVuSans-111"/>
      <use x="248.632812" xlink:href="#DejaVuSans-114"/>
      <use x="289.746094" xlink:href="#DejaVuSans-102"/>
      <use x="324.951172" xlink:href="#DejaVuSans-111"/>
      <use x="386.132812" xlink:href="#DejaVuSans-95"/>
      <use x="436.132812" xlink:href="#DejaVuSans-115"/>
      <use x="488.232422" xlink:href="#DejaVuSans-113"/>
      <use x="551.708984" xlink:href="#DejaVuSans-32"/>
      <use x="583.496094" xlink:href="#DejaVuSans-110"/>
      <use x="646.875" xlink:href="#DejaVuSans-111"/>
      <use x="708.056641" xlink:href="#DejaVuSans-66"/>
      <use x="776.660156" xlink:href="#DejaVuSans-78"/>
     </g>
    </g>
    <g id="line2d_35">
     <path d="M 153 126.809062 
L 173 126.809062 
" style="fill:none;stroke:#d62728;stroke-dasharray:5.55,2.4;stroke-dashoffset:0;stroke-width:1.5;"/>
    </g>
    <g id="line2d_36"/>
    <g id="text_23">
     <!-- Molchanov_group noBN -->
     <defs>
      <path d="M 9.8125 72.90625 
L 24.515625 72.90625 
L 43.109375 23.296875 
L 61.8125 72.90625 
L 76.515625 72.90625 
L 76.515625 0 
L 66.890625 0 
L 66.890625 64.015625 
L 48.09375 14.015625 
L 38.1875 14.015625 
L 19.390625 64.015625 
L 19.390625 0 
L 9.8125 0 
z
" id="DejaVuSans-77"/>
      <path d="M 48.78125 52.59375 
L 48.78125 44.1875 
Q 44.96875 46.296875 41.140625 47.34375 
Q 37.3125 48.390625 33.40625 48.390625 
Q 24.65625 48.390625 19.8125 42.84375 
Q 14.984375 37.3125 14.984375 27.296875 
Q 14.984375 17.28125 19.8125 11.734375 
Q 24.65625 6.203125 33.40625 6.203125 
Q 37.3125 6.203125 41.140625 7.25 
Q 44.96875 8.296875 48.78125 10.40625 
L 48.78125 2.09375 
Q 45.015625 0.34375 40.984375 -0.53125 
Q 36.96875 -1.421875 32.421875 -1.421875 
Q 20.0625 -1.421875 12.78125 6.34375 
Q 5.515625 14.109375 5.515625 27.296875 
Q 5.515625 40.671875 12.859375 48.328125 
Q 20.21875 56 33.015625 56 
Q 37.15625 56 41.109375 55.140625 
Q 45.0625 54.296875 48.78125 52.59375 
z
" id="DejaVuSans-99"/>
      <path d="M 54.890625 33.015625 
L 54.890625 0 
L 45.90625 0 
L 45.90625 32.71875 
Q 45.90625 40.484375 42.875 44.328125 
Q 39.84375 48.1875 33.796875 48.1875 
Q 26.515625 48.1875 22.3125 43.546875 
Q 18.109375 38.921875 18.109375 30.90625 
L 18.109375 0 
L 9.078125 0 
L 9.078125 75.984375 
L 18.109375 75.984375 
L 18.109375 46.1875 
Q 21.34375 51.125 25.703125 53.5625 
Q 30.078125 56 35.796875 56 
Q 45.21875 56 50.046875 50.171875 
Q 54.890625 44.34375 54.890625 33.015625 
z
" id="DejaVuSans-104"/>
      <path d="M 2.984375 54.6875 
L 12.5 54.6875 
L 29.59375 8.796875 
L 46.6875 54.6875 
L 56.203125 54.6875 
L 35.6875 0 
L 23.484375 0 
z
" id="DejaVuSans-118"/>
      <path d="M 45.40625 27.984375 
Q 45.40625 37.75 41.375 43.109375 
Q 37.359375 48.484375 30.078125 48.484375 
Q 22.859375 48.484375 18.828125 43.109375 
Q 14.796875 37.75 14.796875 27.984375 
Q 14.796875 18.265625 18.828125 12.890625 
Q 22.859375 7.515625 30.078125 7.515625 
Q 37.359375 7.515625 41.375 12.890625 
Q 45.40625 18.265625 45.40625 27.984375 
z
M 54.390625 6.78125 
Q 54.390625 -7.171875 48.1875 -13.984375 
Q 42 -20.796875 29.203125 -20.796875 
Q 24.46875 -20.796875 20.265625 -20.09375 
Q 16.0625 -19.390625 12.109375 -17.921875 
L 12.109375 -9.1875 
Q 16.0625 -11.328125 19.921875 -12.34375 
Q 23.78125 -13.375 27.78125 -13.375 
Q 36.625 -13.375 41.015625 -8.765625 
Q 45.40625 -4.15625 45.40625 5.171875 
L 45.40625 9.625 
Q 42.625 4.78125 38.28125 2.390625 
Q 33.9375 0 27.875 0 
Q 17.828125 0 11.671875 7.65625 
Q 5.515625 15.328125 5.515625 27.984375 
Q 5.515625 40.671875 11.671875 48.328125 
Q 17.828125 56 27.875 56 
Q 33.9375 56 38.28125 53.609375 
Q 42.625 51.21875 45.40625 46.390625 
L 45.40625 54.6875 
L 54.390625 54.6875 
z
" id="DejaVuSans-103"/>
     </defs>
     <g transform="translate(181 130.309062)scale(0.1 -0.1)">
      <use xlink:href="#DejaVuSans-77"/>
      <use x="86.279297" xlink:href="#DejaVuSans-111"/>
      <use x="147.460938" xlink:href="#DejaVuSans-108"/>
      <use x="175.244141" xlink:href="#DejaVuSans-99"/>
      <use x="230.224609" xlink:href="#DejaVuSans-104"/>
      <use x="293.603516" xlink:href="#DejaVuSans-97"/>
      <use x="354.882812" xlink:href="#DejaVuSans-110"/>
      <use x="418.261719" xlink:href="#DejaVuSans-111"/>
      <use x="479.443359" xlink:href="#DejaVuSans-118"/>
      <use x="538.623047" xlink:href="#DejaVuSans-95"/>
      <use x="588.623047" xlink:href="#DejaVuSans-103"/>
      <use x="652.099609" xlink:href="#DejaVuSans-114"/>
      <use x="690.962891" xlink:href="#DejaVuSans-111"/>
      <use x="752.144531" xlink:href="#DejaVuSans-117"/>
      <use x="815.523438" xlink:href="#DejaVuSans-112"/>
      <use x="879" xlink:href="#DejaVuSans-32"/>
      <use x="910.787109" xlink:href="#DejaVuSans-110"/>
      <use x="974.166016" xlink:href="#DejaVuSans-111"/>
      <use x="1035.347656" xlink:href="#DejaVuSans-66"/>
      <use x="1103.951172" xlink:href="#DejaVuSans-78"/>
     </g>
    </g>
    <g id="line2d_37">
     <path d="M 153 141.765312 
L 173 141.765312 
" style="fill:none;stroke:#9467bd;stroke-dasharray:5.55,2.4;stroke-dashoffset:0;stroke-width:1.5;"/>
    </g>
    <g id="line2d_38"/>
    <g id="text_24">
     <!-- APnZ noBN -->
     <defs>
      <path d="M 34.1875 63.1875 
L 20.796875 26.90625 
L 47.609375 26.90625 
z
M 28.609375 72.90625 
L 39.796875 72.90625 
L 67.578125 0 
L 57.328125 0 
L 50.6875 18.703125 
L 17.828125 18.703125 
L 11.1875 0 
L 0.78125 0 
z
" id="DejaVuSans-65"/>
      <path d="M 19.671875 64.796875 
L 19.671875 37.40625 
L 32.078125 37.40625 
Q 38.96875 37.40625 42.71875 40.96875 
Q 46.484375 44.53125 46.484375 51.125 
Q 46.484375 57.671875 42.71875 61.234375 
Q 38.96875 64.796875 32.078125 64.796875 
z
M 9.8125 72.90625 
L 32.078125 72.90625 
Q 44.34375 72.90625 50.609375 67.359375 
Q 56.890625 61.8125 56.890625 51.125 
Q 56.890625 40.328125 50.609375 34.8125 
Q 44.34375 29.296875 32.078125 29.296875 
L 19.671875 29.296875 
L 19.671875 0 
L 9.8125 0 
z
" id="DejaVuSans-80"/>
      <path d="M 5.609375 72.90625 
L 62.890625 72.90625 
L 62.890625 65.375 
L 16.796875 8.296875 
L 64.015625 8.296875 
L 64.015625 0 
L 4.5 0 
L 4.5 7.515625 
L 50.59375 64.59375 
L 5.609375 64.59375 
z
" id="DejaVuSans-90"/>
     </defs>
     <g transform="translate(181 145.265312)scale(0.1 -0.1)">
      <use xlink:href="#DejaVuSans-65"/>
      <use x="68.408203" xlink:href="#DejaVuSans-80"/>
      <use x="126.960938" xlink:href="#DejaVuSans-110"/>
      <use x="190.339844" xlink:href="#DejaVuSans-90"/>
      <use x="258.845703" xlink:href="#DejaVuSans-32"/>
      <use x="290.632812" xlink:href="#DejaVuSans-110"/>
      <use x="354.011719" xlink:href="#DejaVuSans-111"/>
      <use x="415.193359" xlink:href="#DejaVuSans-66"/>
      <use x="483.796875" xlink:href="#DejaVuSans-78"/>
     </g>
    </g>
    <g id="line2d_39">
     <path d="M 153 156.443438 
L 173 156.443438 
" style="fill:none;stroke:#8c564b;stroke-linecap:square;stroke-width:1.5;"/>
    </g>
    <g id="line2d_40"/>
    <g id="text_25">
     <!-- taylorfo BN -->
     <g transform="translate(181 159.943438)scale(0.1 -0.1)">
      <use xlink:href="#DejaVuSans-116"/>
      <use x="39.208984" xlink:href="#DejaVuSans-97"/>
      <use x="100.488281" xlink:href="#DejaVuSans-121"/>
      <use x="159.667969" xlink:href="#DejaVuSans-108"/>
      <use x="187.451172" xlink:href="#DejaVuSans-111"/>
      <use x="248.632812" xlink:href="#DejaVuSans-114"/>
      <use x="289.746094" xlink:href="#DejaVuSans-102"/>
      <use x="324.951172" xlink:href="#DejaVuSans-111"/>
      <use x="386.132812" xlink:href="#DejaVuSans-32"/>
      <use x="417.919922" xlink:href="#DejaVuSans-66"/>
      <use x="486.523438" xlink:href="#DejaVuSans-78"/>
     </g>
    </g>
    <g id="line2d_41">
     <path d="M 153 171.121562 
L 173 171.121562 
" style="fill:none;stroke:#e377c2;stroke-linecap:square;stroke-width:1.5;"/>
    </g>
    <g id="line2d_42"/>
    <g id="text_26">
     <!-- taylorfo_abs BN -->
     <g transform="translate(181 174.621562)scale(0.1 -0.1)">
      <use xlink:href="#DejaVuSans-116"/>
      <use x="39.208984" xlink:href="#DejaVuSans-97"/>
      <use x="100.488281" xlink:href="#DejaVuSans-121"/>
      <use x="159.667969" xlink:href="#DejaVuSans-108"/>
      <use x="187.451172" xlink:href="#DejaVuSans-111"/>
      <use x="248.632812" xlink:href="#DejaVuSans-114"/>
      <use x="289.746094" xlink:href="#DejaVuSans-102"/>
      <use x="324.951172" xlink:href="#DejaVuSans-111"/>
      <use x="386.132812" xlink:href="#DejaVuSans-95"/>
      <use x="436.132812" xlink:href="#DejaVuSans-97"/>
      <use x="497.412109" xlink:href="#DejaVuSans-98"/>
      <use x="560.888672" xlink:href="#DejaVuSans-115"/>
      <use x="612.988281" xlink:href="#DejaVuSans-32"/>
      <use x="644.775391" xlink:href="#DejaVuSans-66"/>
      <use x="713.378906" xlink:href="#DejaVuSans-78"/>
     </g>
    </g>
    <g id="line2d_43">
     <path d="M 153 186.077812 
L 173 186.077812 
" style="fill:none;stroke:#7f7f7f;stroke-linecap:square;stroke-width:1.5;"/>
    </g>
    <g id="line2d_44"/>
    <g id="text_27">
     <!-- taylorfo_sq BN -->
     <g transform="translate(181 189.577812)scale(0.1 -0.1)">
      <use xlink:href="#DejaVuSans-116"/>
      <use x="39.208984" xlink:href="#DejaVuSans-97"/>
      <use x="100.488281" xlink:href="#DejaVuSans-121"/>
      <use x="159.667969" xlink:href="#DejaVuSans-108"/>
      <use x="187.451172" xlink:href="#DejaVuSans-111"/>
      <use x="248.632812" xlink:href="#DejaVuSans-114"/>
      <use x="289.746094" xlink:href="#DejaVuSans-102"/>
      <use x="324.951172" xlink:href="#DejaVuSans-111"/>
      <use x="386.132812" xlink:href="#DejaVuSans-95"/>
      <use x="436.132812" xlink:href="#DejaVuSans-115"/>
      <use x="488.232422" xlink:href="#DejaVuSans-113"/>
      <use x="551.708984" xlink:href="#DejaVuSans-32"/>
      <use x="583.496094" xlink:href="#DejaVuSans-66"/>
      <use x="652.099609" xlink:href="#DejaVuSans-78"/>
     </g>
    </g>
    <g id="line2d_45">
     <path d="M 153 201.034063 
L 173 201.034063 
" style="fill:none;stroke:#bcbd22;stroke-dasharray:5.55,2.4;stroke-dashoffset:0;stroke-width:1.5;"/>
    </g>
    <g id="line2d_46"/>
    <g id="text_28">
     <!-- Molchanov_group BN -->
     <g transform="translate(181 204.534063)scale(0.1 -0.1)">
      <use xlink:href="#DejaVuSans-77"/>
      <use x="86.279297" xlink:href="#DejaVuSans-111"/>
      <use x="147.460938" xlink:href="#DejaVuSans-108"/>
      <use x="175.244141" xlink:href="#DejaVuSans-99"/>
      <use x="230.224609" xlink:href="#DejaVuSans-104"/>
      <use x="293.603516" xlink:href="#DejaVuSans-97"/>
      <use x="354.882812" xlink:href="#DejaVuSans-110"/>
      <use x="418.261719" xlink:href="#DejaVuSans-111"/>
      <use x="479.443359" xlink:href="#DejaVuSans-118"/>
      <use x="538.623047" xlink:href="#DejaVuSans-95"/>
      <use x="588.623047" xlink:href="#DejaVuSans-103"/>
      <use x="652.099609" xlink:href="#DejaVuSans-114"/>
      <use x="690.962891" xlink:href="#DejaVuSans-111"/>
      <use x="752.144531" xlink:href="#DejaVuSans-117"/>
      <use x="815.523438" xlink:href="#DejaVuSans-112"/>
      <use x="879" xlink:href="#DejaVuSans-32"/>
      <use x="910.787109" xlink:href="#DejaVuSans-66"/>
      <use x="979.390625" xlink:href="#DejaVuSans-78"/>
     </g>
    </g>
    <g id="line2d_47">
     <path d="M 153 215.990312 
L 173 215.990312 
" style="fill:none;stroke:#17becf;stroke-dasharray:5.55,2.4;stroke-dashoffset:0;stroke-width:1.5;"/>
    </g>
    <g id="line2d_48"/>
    <g id="text_29">
     <!-- Molchanov_BN BN -->
     <g transform="translate(181 219.490312)scale(0.1 -0.1)">
      <use xlink:href="#DejaVuSans-77"/>
      <use x="86.279297" xlink:href="#DejaVuSans-111"/>
      <use x="147.460938" xlink:href="#DejaVuSans-108"/>
      <use x="175.244141" xlink:href="#DejaVuSans-99"/>
      <use x="230.224609" xlink:href="#DejaVuSans-104"/>
      <use x="293.603516" xlink:href="#DejaVuSans-97"/>
      <use x="354.882812" xlink:href="#DejaVuSans-110"/>
      <use x="418.261719" xlink:href="#DejaVuSans-111"/>
      <use x="479.443359" xlink:href="#DejaVuSans-118"/>
      <use x="538.623047" xlink:href="#DejaVuSans-95"/>
      <use x="588.623047" xlink:href="#DejaVuSans-66"/>
      <use x="657.226562" xlink:href="#DejaVuSans-78"/>
      <use x="732.03125" xlink:href="#DejaVuSans-32"/>
      <use x="763.818359" xlink:href="#DejaVuSans-66"/>
      <use x="832.421875" xlink:href="#DejaVuSans-78"/>
     </g>
    </g>
    <g id="line2d_49">
     <path d="M 153 230.946563 
L 173 230.946563 
" style="fill:none;stroke:#1f77b4;stroke-dasharray:5.55,2.4;stroke-dashoffset:0;stroke-width:1.5;"/>
    </g>
    <g id="line2d_50"/>
    <g id="text_30">
     <!-- APnZ BN -->
     <g transform="translate(181 234.446563)scale(0.1 -0.1)">
      <use xlink:href="#DejaVuSans-65"/>
      <use x="68.408203" xlink:href="#DejaVuSans-80"/>
      <use x="126.960938" xlink:href="#DejaVuSans-110"/>
      <use x="190.339844" xlink:href="#DejaVuSans-90"/>
      <use x="258.845703" xlink:href="#DejaVuSans-32"/>
      <use x="290.632812" xlink:href="#DejaVuSans-66"/>
      <use x="359.236328" xlink:href="#DejaVuSans-78"/>
     </g>
    </g>
   </g>
  </g>
 </g>
 <defs>
  <clipPath id="paa99e4d797">
   <rect height="434.88" width="892.8" x="144" y="69.12"/>
  </clipPath>
 </defs>
</svg>
