<?xml version="1.0" encoding="utf-8" standalone="no"?>
<!DOCTYPE svg PUBLIC "-//W3C//DTD SVG 1.1//EN"
  "http://www.w3.org/Graphics/SVG/1.1/DTD/svg11.dtd">
<!-- Created with matplotlib (https://matplotlib.org/) -->
<svg height="576pt" version="1.1" viewBox="0 0 1152 576" width="1152pt" xmlns="http://www.w3.org/2000/svg" xmlns:xlink="http://www.w3.org/1999/xlink">
 <defs>
  <style type="text/css">
*{stroke-linecap:butt;stroke-linejoin:round;}
  </style>
 </defs>
 <g id="figure_1">
  <g id="patch_1">
   <path d="M 0 576 
L 1152 576 
L 1152 0 
L 0 0 
z
" style="fill:#ffffff;"/>
  </g>
  <g id="axes_1">
   <g id="patch_2">
    <path d="M 144 504 
L 1036.8 504 
L 1036.8 69.12 
L 144 69.12 
z
" style="fill:#ffffff;"/>
   </g>
   <g id="matplotlib.axis_1">
    <g id="xtick_1">
     <g id="line2d_1">
      <defs>
       <path d="M 0 0 
L 0 3.5 
" id="m625878252c" style="stroke:#000000;stroke-width:0.8;"/>
      </defs>
      <g>
       <use style="stroke:#000000;stroke-width:0.8;" x="182.527043" xlink:href="#m625878252c" y="504"/>
      </g>
     </g>
     <g id="text_1">
      <!-- 0 -->
      <defs>
       <path d="M 31.78125 66.40625 
Q 24.171875 66.40625 20.328125 58.90625 
Q 16.5 51.421875 16.5 36.375 
Q 16.5 21.390625 20.328125 13.890625 
Q 24.171875 6.390625 31.78125 6.390625 
Q 39.453125 6.390625 43.28125 13.890625 
Q 47.125 21.390625 47.125 36.375 
Q 47.125 51.421875 43.28125 58.90625 
Q 39.453125 66.40625 31.78125 66.40625 
z
M 31.78125 74.21875 
Q 44.046875 74.21875 50.515625 64.515625 
Q 56.984375 54.828125 56.984375 36.375 
Q 56.984375 17.96875 50.515625 8.265625 
Q 44.046875 -1.421875 31.78125 -1.421875 
Q 19.53125 -1.421875 13.0625 8.265625 
Q 6.59375 17.96875 6.59375 36.375 
Q 6.59375 54.828125 13.0625 64.515625 
Q 19.53125 74.21875 31.78125 74.21875 
z
" id="DejaVuSans-48"/>
      </defs>
      <g transform="translate(179.345793 518.598438)scale(0.1 -0.1)">
       <use xlink:href="#DejaVuSans-48"/>
      </g>
     </g>
    </g>
    <g id="xtick_2">
     <g id="line2d_2">
      <g>
       <use style="stroke:#000000;stroke-width:0.8;" x="285.265823" xlink:href="#m625878252c" y="504"/>
      </g>
     </g>
     <g id="text_2">
      <!-- 50 -->
      <defs>
       <path d="M 10.796875 72.90625 
L 49.515625 72.90625 
L 49.515625 64.59375 
L 19.828125 64.59375 
L 19.828125 46.734375 
Q 21.96875 47.46875 24.109375 47.828125 
Q 26.265625 48.1875 28.421875 48.1875 
Q 40.625 48.1875 47.75 41.5 
Q 54.890625 34.8125 54.890625 23.390625 
Q 54.890625 11.625 47.5625 5.09375 
Q 40.234375 -1.421875 26.90625 -1.421875 
Q 22.3125 -1.421875 17.546875 -0.640625 
Q 12.796875 0.140625 7.71875 1.703125 
L 7.71875 11.625 
Q 12.109375 9.234375 16.796875 8.0625 
Q 21.484375 6.890625 26.703125 6.890625 
Q 35.15625 6.890625 40.078125 11.328125 
Q 45.015625 15.765625 45.015625 23.390625 
Q 45.015625 31 40.078125 35.4375 
Q 35.15625 39.890625 26.703125 39.890625 
Q 22.75 39.890625 18.8125 39.015625 
Q 14.890625 38.140625 10.796875 36.28125 
z
" id="DejaVuSans-53"/>
      </defs>
      <g transform="translate(278.903323 518.598438)scale(0.1 -0.1)">
       <use xlink:href="#DejaVuSans-53"/>
       <use x="63.623047" xlink:href="#DejaVuSans-48"/>
      </g>
     </g>
    </g>
    <g id="xtick_3">
     <g id="line2d_3">
      <g>
       <use style="stroke:#000000;stroke-width:0.8;" x="388.004603" xlink:href="#m625878252c" y="504"/>
      </g>
     </g>
     <g id="text_3">
      <!-- 100 -->
      <defs>
       <path d="M 12.40625 8.296875 
L 28.515625 8.296875 
L 28.515625 63.921875 
L 10.984375 60.40625 
L 10.984375 69.390625 
L 28.421875 72.90625 
L 38.28125 72.90625 
L 38.28125 8.296875 
L 54.390625 8.296875 
L 54.390625 0 
L 12.40625 0 
z
" id="DejaVuSans-49"/>
      </defs>
      <g transform="translate(378.460853 518.598438)scale(0.1 -0.1)">
       <use xlink:href="#DejaVuSans-49"/>
       <use x="63.623047" xlink:href="#DejaVuSans-48"/>
       <use x="127.246094" xlink:href="#DejaVuSans-48"/>
      </g>
     </g>
    </g>
    <g id="xtick_4">
     <g id="line2d_4">
      <g>
       <use style="stroke:#000000;stroke-width:0.8;" x="490.743383" xlink:href="#m625878252c" y="504"/>
      </g>
     </g>
     <g id="text_4">
      <!-- 150 -->
      <g transform="translate(481.199633 518.598438)scale(0.1 -0.1)">
       <use xlink:href="#DejaVuSans-49"/>
       <use x="63.623047" xlink:href="#DejaVuSans-53"/>
       <use x="127.246094" xlink:href="#DejaVuSans-48"/>
      </g>
     </g>
    </g>
    <g id="xtick_5">
     <g id="line2d_5">
      <g>
       <use style="stroke:#000000;stroke-width:0.8;" x="593.482163" xlink:href="#m625878252c" y="504"/>
      </g>
     </g>
     <g id="text_5">
      <!-- 200 -->
      <defs>
       <path d="M 19.1875 8.296875 
L 53.609375 8.296875 
L 53.609375 0 
L 7.328125 0 
L 7.328125 8.296875 
Q 12.9375 14.109375 22.625 23.890625 
Q 32.328125 33.6875 34.8125 36.53125 
Q 39.546875 41.84375 41.421875 45.53125 
Q 43.3125 49.21875 43.3125 52.78125 
Q 43.3125 58.59375 39.234375 62.25 
Q 35.15625 65.921875 28.609375 65.921875 
Q 23.96875 65.921875 18.8125 64.3125 
Q 13.671875 62.703125 7.8125 59.421875 
L 7.8125 69.390625 
Q 13.765625 71.78125 18.9375 73 
Q 24.125 74.21875 28.421875 74.21875 
Q 39.75 74.21875 46.484375 68.546875 
Q 53.21875 62.890625 53.21875 53.421875 
Q 53.21875 48.921875 51.53125 44.890625 
Q 49.859375 40.875 45.40625 35.40625 
Q 44.1875 33.984375 37.640625 27.21875 
Q 31.109375 20.453125 19.1875 8.296875 
z
" id="DejaVuSans-50"/>
      </defs>
      <g transform="translate(583.938413 518.598438)scale(0.1 -0.1)">
       <use xlink:href="#DejaVuSans-50"/>
       <use x="63.623047" xlink:href="#DejaVuSans-48"/>
       <use x="127.246094" xlink:href="#DejaVuSans-48"/>
      </g>
     </g>
    </g>
    <g id="xtick_6">
     <g id="line2d_6">
      <g>
       <use style="stroke:#000000;stroke-width:0.8;" x="696.220944" xlink:href="#m625878252c" y="504"/>
      </g>
     </g>
     <g id="text_6">
      <!-- 250 -->
      <g transform="translate(686.677194 518.598438)scale(0.1 -0.1)">
       <use xlink:href="#DejaVuSans-50"/>
       <use x="63.623047" xlink:href="#DejaVuSans-53"/>
       <use x="127.246094" xlink:href="#DejaVuSans-48"/>
      </g>
     </g>
    </g>
    <g id="xtick_7">
     <g id="line2d_7">
      <g>
       <use style="stroke:#000000;stroke-width:0.8;" x="798.959724" xlink:href="#m625878252c" y="504"/>
      </g>
     </g>
     <g id="text_7">
      <!-- 300 -->
      <defs>
       <path d="M 40.578125 39.3125 
Q 47.65625 37.796875 51.625 33 
Q 55.609375 28.21875 55.609375 21.1875 
Q 55.609375 10.40625 48.1875 4.484375 
Q 40.765625 -1.421875 27.09375 -1.421875 
Q 22.515625 -1.421875 17.65625 -0.515625 
Q 12.796875 0.390625 7.625 2.203125 
L 7.625 11.71875 
Q 11.71875 9.328125 16.59375 8.109375 
Q 21.484375 6.890625 26.8125 6.890625 
Q 36.078125 6.890625 40.9375 10.546875 
Q 45.796875 14.203125 45.796875 21.1875 
Q 45.796875 27.640625 41.28125 31.265625 
Q 36.765625 34.90625 28.71875 34.90625 
L 20.21875 34.90625 
L 20.21875 43.015625 
L 29.109375 43.015625 
Q 36.375 43.015625 40.234375 45.921875 
Q 44.09375 48.828125 44.09375 54.296875 
Q 44.09375 59.90625 40.109375 62.90625 
Q 36.140625 65.921875 28.71875 65.921875 
Q 24.65625 65.921875 20.015625 65.03125 
Q 15.375 64.15625 9.8125 62.3125 
L 9.8125 71.09375 
Q 15.4375 72.65625 20.34375 73.4375 
Q 25.25 74.21875 29.59375 74.21875 
Q 40.828125 74.21875 47.359375 69.109375 
Q 53.90625 64.015625 53.90625 55.328125 
Q 53.90625 49.265625 50.4375 45.09375 
Q 46.96875 40.921875 40.578125 39.3125 
z
" id="DejaVuSans-51"/>
      </defs>
      <g transform="translate(789.415974 518.598438)scale(0.1 -0.1)">
       <use xlink:href="#DejaVuSans-51"/>
       <use x="63.623047" xlink:href="#DejaVuSans-48"/>
       <use x="127.246094" xlink:href="#DejaVuSans-48"/>
      </g>
     </g>
    </g>
    <g id="xtick_8">
     <g id="line2d_8">
      <g>
       <use style="stroke:#000000;stroke-width:0.8;" x="901.698504" xlink:href="#m625878252c" y="504"/>
      </g>
     </g>
     <g id="text_8">
      <!-- 350 -->
      <g transform="translate(892.154754 518.598438)scale(0.1 -0.1)">
       <use xlink:href="#DejaVuSans-51"/>
       <use x="63.623047" xlink:href="#DejaVuSans-53"/>
       <use x="127.246094" xlink:href="#DejaVuSans-48"/>
      </g>
     </g>
    </g>
    <g id="xtick_9">
     <g id="line2d_9">
      <g>
       <use style="stroke:#000000;stroke-width:0.8;" x="1004.437284" xlink:href="#m625878252c" y="504"/>
      </g>
     </g>
     <g id="text_9">
      <!-- 400 -->
      <defs>
       <path d="M 37.796875 64.3125 
L 12.890625 25.390625 
L 37.796875 25.390625 
z
M 35.203125 72.90625 
L 47.609375 72.90625 
L 47.609375 25.390625 
L 58.015625 25.390625 
L 58.015625 17.1875 
L 47.609375 17.1875 
L 47.609375 0 
L 37.796875 0 
L 37.796875 17.1875 
L 4.890625 17.1875 
L 4.890625 26.703125 
z
" id="DejaVuSans-52"/>
      </defs>
      <g transform="translate(994.893534 518.598438)scale(0.1 -0.1)">
       <use xlink:href="#DejaVuSans-52"/>
       <use x="63.623047" xlink:href="#DejaVuSans-48"/>
       <use x="127.246094" xlink:href="#DejaVuSans-48"/>
      </g>
     </g>
    </g>
    <g id="text_10">
     <!-- Number of Neurons pruned -->
     <defs>
      <path d="M 9.8125 72.90625 
L 23.09375 72.90625 
L 55.421875 11.921875 
L 55.421875 72.90625 
L 64.984375 72.90625 
L 64.984375 0 
L 51.703125 0 
L 19.390625 60.984375 
L 19.390625 0 
L 9.8125 0 
z
" id="DejaVuSans-78"/>
      <path d="M 8.5 21.578125 
L 8.5 54.6875 
L 17.484375 54.6875 
L 17.484375 21.921875 
Q 17.484375 14.15625 20.5 10.265625 
Q 23.53125 6.390625 29.59375 6.390625 
Q 36.859375 6.390625 41.078125 11.03125 
Q 45.3125 15.671875 45.3125 23.6875 
L 45.3125 54.6875 
L 54.296875 54.6875 
L 54.296875 0 
L 45.3125 0 
L 45.3125 8.40625 
Q 42.046875 3.421875 37.71875 1 
Q 33.40625 -1.421875 27.6875 -1.421875 
Q 18.265625 -1.421875 13.375 4.4375 
Q 8.5 10.296875 8.5 21.578125 
z
M 31.109375 56 
z
" id="DejaVuSans-117"/>
      <path d="M 52 44.1875 
Q 55.375 50.25 60.0625 53.125 
Q 64.75 56 71.09375 56 
Q 79.640625 56 84.28125 50.015625 
Q 88.921875 44.046875 88.921875 33.015625 
L 88.921875 0 
L 79.890625 0 
L 79.890625 32.71875 
Q 79.890625 40.578125 77.09375 44.375 
Q 74.3125 48.1875 68.609375 48.1875 
Q 61.625 48.1875 57.5625 43.546875 
Q 53.515625 38.921875 53.515625 30.90625 
L 53.515625 0 
L 44.484375 0 
L 44.484375 32.71875 
Q 44.484375 40.625 41.703125 44.40625 
Q 38.921875 48.1875 33.109375 48.1875 
Q 26.21875 48.1875 22.15625 43.53125 
Q 18.109375 38.875 18.109375 30.90625 
L 18.109375 0 
L 9.078125 0 
L 9.078125 54.6875 
L 18.109375 54.6875 
L 18.109375 46.1875 
Q 21.1875 51.21875 25.484375 53.609375 
Q 29.78125 56 35.6875 56 
Q 41.65625 56 45.828125 52.96875 
Q 50 49.953125 52 44.1875 
z
" id="DejaVuSans-109"/>
      <path d="M 48.6875 27.296875 
Q 48.6875 37.203125 44.609375 42.84375 
Q 40.53125 48.484375 33.40625 48.484375 
Q 26.265625 48.484375 22.1875 42.84375 
Q 18.109375 37.203125 18.109375 27.296875 
Q 18.109375 17.390625 22.1875 11.75 
Q 26.265625 6.109375 33.40625 6.109375 
Q 40.53125 6.109375 44.609375 11.75 
Q 48.6875 17.390625 48.6875 27.296875 
z
M 18.109375 46.390625 
Q 20.953125 51.265625 25.265625 53.625 
Q 29.59375 56 35.59375 56 
Q 45.5625 56 51.78125 48.09375 
Q 58.015625 40.1875 58.015625 27.296875 
Q 58.015625 14.40625 51.78125 6.484375 
Q 45.5625 -1.421875 35.59375 -1.421875 
Q 29.59375 -1.421875 25.265625 0.953125 
Q 20.953125 3.328125 18.109375 8.203125 
L 18.109375 0 
L 9.078125 0 
L 9.078125 75.984375 
L 18.109375 75.984375 
z
" id="DejaVuSans-98"/>
      <path d="M 56.203125 29.59375 
L 56.203125 25.203125 
L 14.890625 25.203125 
Q 15.484375 15.921875 20.484375 11.0625 
Q 25.484375 6.203125 34.421875 6.203125 
Q 39.59375 6.203125 44.453125 7.46875 
Q 49.3125 8.734375 54.109375 11.28125 
L 54.109375 2.78125 
Q 49.265625 0.734375 44.1875 -0.34375 
Q 39.109375 -1.421875 33.890625 -1.421875 
Q 20.796875 -1.421875 13.15625 6.1875 
Q 5.515625 13.8125 5.515625 26.8125 
Q 5.515625 40.234375 12.765625 48.109375 
Q 20.015625 56 32.328125 56 
Q 43.359375 56 49.78125 48.890625 
Q 56.203125 41.796875 56.203125 29.59375 
z
M 47.21875 32.234375 
Q 47.125 39.59375 43.09375 43.984375 
Q 39.0625 48.390625 32.421875 48.390625 
Q 24.90625 48.390625 20.390625 44.140625 
Q 15.875 39.890625 15.1875 32.171875 
z
" id="DejaVuSans-101"/>
      <path d="M 41.109375 46.296875 
Q 39.59375 47.171875 37.8125 47.578125 
Q 36.03125 48 33.890625 48 
Q 26.265625 48 22.1875 43.046875 
Q 18.109375 38.09375 18.109375 28.8125 
L 18.109375 0 
L 9.078125 0 
L 9.078125 54.6875 
L 18.109375 54.6875 
L 18.109375 46.1875 
Q 20.953125 51.171875 25.484375 53.578125 
Q 30.03125 56 36.53125 56 
Q 37.453125 56 38.578125 55.875 
Q 39.703125 55.765625 41.0625 55.515625 
z
" id="DejaVuSans-114"/>
      <path id="DejaVuSans-32"/>
      <path d="M 30.609375 48.390625 
Q 23.390625 48.390625 19.1875 42.75 
Q 14.984375 37.109375 14.984375 27.296875 
Q 14.984375 17.484375 19.15625 11.84375 
Q 23.34375 6.203125 30.609375 6.203125 
Q 37.796875 6.203125 41.984375 11.859375 
Q 46.1875 17.53125 46.1875 27.296875 
Q 46.1875 37.015625 41.984375 42.703125 
Q 37.796875 48.390625 30.609375 48.390625 
z
M 30.609375 56 
Q 42.328125 56 49.015625 48.375 
Q 55.71875 40.765625 55.71875 27.296875 
Q 55.71875 13.875 49.015625 6.21875 
Q 42.328125 -1.421875 30.609375 -1.421875 
Q 18.84375 -1.421875 12.171875 6.21875 
Q 5.515625 13.875 5.515625 27.296875 
Q 5.515625 40.765625 12.171875 48.375 
Q 18.84375 56 30.609375 56 
z
" id="DejaVuSans-111"/>
      <path d="M 37.109375 75.984375 
L 37.109375 68.5 
L 28.515625 68.5 
Q 23.6875 68.5 21.796875 66.546875 
Q 19.921875 64.59375 19.921875 59.515625 
L 19.921875 54.6875 
L 34.71875 54.6875 
L 34.71875 47.703125 
L 19.921875 47.703125 
L 19.921875 0 
L 10.890625 0 
L 10.890625 47.703125 
L 2.296875 47.703125 
L 2.296875 54.6875 
L 10.890625 54.6875 
L 10.890625 58.5 
Q 10.890625 67.625 15.140625 71.796875 
Q 19.390625 75.984375 28.609375 75.984375 
z
" id="DejaVuSans-102"/>
      <path d="M 54.890625 33.015625 
L 54.890625 0 
L 45.90625 0 
L 45.90625 32.71875 
Q 45.90625 40.484375 42.875 44.328125 
Q 39.84375 48.1875 33.796875 48.1875 
Q 26.515625 48.1875 22.3125 43.546875 
Q 18.109375 38.921875 18.109375 30.90625 
L 18.109375 0 
L 9.078125 0 
L 9.078125 54.6875 
L 18.109375 54.6875 
L 18.109375 46.1875 
Q 21.34375 51.125 25.703125 53.5625 
Q 30.078125 56 35.796875 56 
Q 45.21875 56 50.046875 50.171875 
Q 54.890625 44.34375 54.890625 33.015625 
z
" id="DejaVuSans-110"/>
      <path d="M 44.28125 53.078125 
L 44.28125 44.578125 
Q 40.484375 46.53125 36.375 47.5 
Q 32.28125 48.484375 27.875 48.484375 
Q 21.1875 48.484375 17.84375 46.4375 
Q 14.5 44.390625 14.5 40.28125 
Q 14.5 37.15625 16.890625 35.375 
Q 19.28125 33.59375 26.515625 31.984375 
L 29.59375 31.296875 
Q 39.15625 29.25 43.1875 25.515625 
Q 47.21875 21.78125 47.21875 15.09375 
Q 47.21875 7.46875 41.1875 3.015625 
Q 35.15625 -1.421875 24.609375 -1.421875 
Q 20.21875 -1.421875 15.453125 -0.5625 
Q 10.6875 0.296875 5.421875 2 
L 5.421875 11.28125 
Q 10.40625 8.6875 15.234375 7.390625 
Q 20.0625 6.109375 24.8125 6.109375 
Q 31.15625 6.109375 34.5625 8.28125 
Q 37.984375 10.453125 37.984375 14.40625 
Q 37.984375 18.0625 35.515625 20.015625 
Q 33.0625 21.96875 24.703125 23.78125 
L 21.578125 24.515625 
Q 13.234375 26.265625 9.515625 29.90625 
Q 5.8125 33.546875 5.8125 39.890625 
Q 5.8125 47.609375 11.28125 51.796875 
Q 16.75 56 26.8125 56 
Q 31.78125 56 36.171875 55.265625 
Q 40.578125 54.546875 44.28125 53.078125 
z
" id="DejaVuSans-115"/>
      <path d="M 18.109375 8.203125 
L 18.109375 -20.796875 
L 9.078125 -20.796875 
L 9.078125 54.6875 
L 18.109375 54.6875 
L 18.109375 46.390625 
Q 20.953125 51.265625 25.265625 53.625 
Q 29.59375 56 35.59375 56 
Q 45.5625 56 51.78125 48.09375 
Q 58.015625 40.1875 58.015625 27.296875 
Q 58.015625 14.40625 51.78125 6.484375 
Q 45.5625 -1.421875 35.59375 -1.421875 
Q 29.59375 -1.421875 25.265625 0.953125 
Q 20.953125 3.328125 18.109375 8.203125 
z
M 48.6875 27.296875 
Q 48.6875 37.203125 44.609375 42.84375 
Q 40.53125 48.484375 33.40625 48.484375 
Q 26.265625 48.484375 22.1875 42.84375 
Q 18.109375 37.203125 18.109375 27.296875 
Q 18.109375 17.390625 22.1875 11.75 
Q 26.265625 6.109375 33.40625 6.109375 
Q 40.53125 6.109375 44.609375 11.75 
Q 48.6875 17.390625 48.6875 27.296875 
z
" id="DejaVuSans-112"/>
      <path d="M 45.40625 46.390625 
L 45.40625 75.984375 
L 54.390625 75.984375 
L 54.390625 0 
L 45.40625 0 
L 45.40625 8.203125 
Q 42.578125 3.328125 38.25 0.953125 
Q 33.9375 -1.421875 27.875 -1.421875 
Q 17.96875 -1.421875 11.734375 6.484375 
Q 5.515625 14.40625 5.515625 27.296875 
Q 5.515625 40.1875 11.734375 48.09375 
Q 17.96875 56 27.875 56 
Q 33.9375 56 38.25 53.625 
Q 42.578125 51.265625 45.40625 46.390625 
z
M 14.796875 27.296875 
Q 14.796875 17.390625 18.875 11.75 
Q 22.953125 6.109375 30.078125 6.109375 
Q 37.203125 6.109375 41.296875 11.75 
Q 45.40625 17.390625 45.40625 27.296875 
Q 45.40625 37.203125 41.296875 42.84375 
Q 37.203125 48.484375 30.078125 48.484375 
Q 22.953125 48.484375 18.875 42.84375 
Q 14.796875 37.203125 14.796875 27.296875 
z
" id="DejaVuSans-100"/>
     </defs>
     <g transform="translate(522.147656 532.276562)scale(0.1 -0.1)">
      <use xlink:href="#DejaVuSans-78"/>
      <use x="74.804688" xlink:href="#DejaVuSans-117"/>
      <use x="138.183594" xlink:href="#DejaVuSans-109"/>
      <use x="235.595703" xlink:href="#DejaVuSans-98"/>
      <use x="299.072266" xlink:href="#DejaVuSans-101"/>
      <use x="360.595703" xlink:href="#DejaVuSans-114"/>
      <use x="401.708984" xlink:href="#DejaVuSans-32"/>
      <use x="433.496094" xlink:href="#DejaVuSans-111"/>
      <use x="494.677734" xlink:href="#DejaVuSans-102"/>
      <use x="529.882812" xlink:href="#DejaVuSans-32"/>
      <use x="561.669922" xlink:href="#DejaVuSans-78"/>
      <use x="636.474609" xlink:href="#DejaVuSans-101"/>
      <use x="697.998047" xlink:href="#DejaVuSans-117"/>
      <use x="761.376953" xlink:href="#DejaVuSans-114"/>
      <use x="800.240234" xlink:href="#DejaVuSans-111"/>
      <use x="861.421875" xlink:href="#DejaVuSans-110"/>
      <use x="924.800781" xlink:href="#DejaVuSans-115"/>
      <use x="976.900391" xlink:href="#DejaVuSans-32"/>
      <use x="1008.6875" xlink:href="#DejaVuSans-112"/>
      <use x="1072.164062" xlink:href="#DejaVuSans-114"/>
      <use x="1113.277344" xlink:href="#DejaVuSans-117"/>
      <use x="1176.65625" xlink:href="#DejaVuSans-110"/>
      <use x="1240.035156" xlink:href="#DejaVuSans-101"/>
      <use x="1301.558594" xlink:href="#DejaVuSans-100"/>
     </g>
    </g>
   </g>
   <g id="matplotlib.axis_2">
    <g id="ytick_1">
     <g id="line2d_10">
      <defs>
       <path d="M 0 0 
L -3.5 0 
" id="m90c189149d" style="stroke:#000000;stroke-width:0.8;"/>
      </defs>
      <g>
       <use style="stroke:#000000;stroke-width:0.8;" x="144" xlink:href="#m90c189149d" y="422.448877"/>
      </g>
     </g>
     <g id="text_11">
      <!-- 0.2 -->
      <defs>
       <path d="M 10.6875 12.40625 
L 21 12.40625 
L 21 0 
L 10.6875 0 
z
" id="DejaVuSans-46"/>
      </defs>
      <g transform="translate(121.096875 426.248096)scale(0.1 -0.1)">
       <use xlink:href="#DejaVuSans-48"/>
       <use x="63.623047" xlink:href="#DejaVuSans-46"/>
       <use x="95.410156" xlink:href="#DejaVuSans-50"/>
      </g>
     </g>
    </g>
    <g id="ytick_2">
     <g id="line2d_11">
      <g>
       <use style="stroke:#000000;stroke-width:0.8;" x="144" xlink:href="#m90c189149d" y="338.702554"/>
      </g>
     </g>
     <g id="text_12">
      <!-- 0.4 -->
      <g transform="translate(121.096875 342.501773)scale(0.1 -0.1)">
       <use xlink:href="#DejaVuSans-48"/>
       <use x="63.623047" xlink:href="#DejaVuSans-46"/>
       <use x="95.410156" xlink:href="#DejaVuSans-52"/>
      </g>
     </g>
    </g>
    <g id="ytick_3">
     <g id="line2d_12">
      <g>
       <use style="stroke:#000000;stroke-width:0.8;" x="144" xlink:href="#m90c189149d" y="254.956231"/>
      </g>
     </g>
     <g id="text_13">
      <!-- 0.6 -->
      <defs>
       <path d="M 33.015625 40.375 
Q 26.375 40.375 22.484375 35.828125 
Q 18.609375 31.296875 18.609375 23.390625 
Q 18.609375 15.53125 22.484375 10.953125 
Q 26.375 6.390625 33.015625 6.390625 
Q 39.65625 6.390625 43.53125 10.953125 
Q 47.40625 15.53125 47.40625 23.390625 
Q 47.40625 31.296875 43.53125 35.828125 
Q 39.65625 40.375 33.015625 40.375 
z
M 52.59375 71.296875 
L 52.59375 62.3125 
Q 48.875 64.0625 45.09375 64.984375 
Q 41.3125 65.921875 37.59375 65.921875 
Q 27.828125 65.921875 22.671875 59.328125 
Q 17.53125 52.734375 16.796875 39.40625 
Q 19.671875 43.65625 24.015625 45.921875 
Q 28.375 48.1875 33.59375 48.1875 
Q 44.578125 48.1875 50.953125 41.515625 
Q 57.328125 34.859375 57.328125 23.390625 
Q 57.328125 12.15625 50.6875 5.359375 
Q 44.046875 -1.421875 33.015625 -1.421875 
Q 20.359375 -1.421875 13.671875 8.265625 
Q 6.984375 17.96875 6.984375 36.375 
Q 6.984375 53.65625 15.1875 63.9375 
Q 23.390625 74.21875 37.203125 74.21875 
Q 40.921875 74.21875 44.703125 73.484375 
Q 48.484375 72.75 52.59375 71.296875 
z
" id="DejaVuSans-54"/>
      </defs>
      <g transform="translate(121.096875 258.75545)scale(0.1 -0.1)">
       <use xlink:href="#DejaVuSans-48"/>
       <use x="63.623047" xlink:href="#DejaVuSans-46"/>
       <use x="95.410156" xlink:href="#DejaVuSans-54"/>
      </g>
     </g>
    </g>
    <g id="ytick_4">
     <g id="line2d_13">
      <g>
       <use style="stroke:#000000;stroke-width:0.8;" x="144" xlink:href="#m90c189149d" y="171.209908"/>
      </g>
     </g>
     <g id="text_14">
      <!-- 0.8 -->
      <defs>
       <path d="M 31.78125 34.625 
Q 24.75 34.625 20.71875 30.859375 
Q 16.703125 27.09375 16.703125 20.515625 
Q 16.703125 13.921875 20.71875 10.15625 
Q 24.75 6.390625 31.78125 6.390625 
Q 38.8125 6.390625 42.859375 10.171875 
Q 46.921875 13.96875 46.921875 20.515625 
Q 46.921875 27.09375 42.890625 30.859375 
Q 38.875 34.625 31.78125 34.625 
z
M 21.921875 38.8125 
Q 15.578125 40.375 12.03125 44.71875 
Q 8.5 49.078125 8.5 55.328125 
Q 8.5 64.0625 14.71875 69.140625 
Q 20.953125 74.21875 31.78125 74.21875 
Q 42.671875 74.21875 48.875 69.140625 
Q 55.078125 64.0625 55.078125 55.328125 
Q 55.078125 49.078125 51.53125 44.71875 
Q 48 40.375 41.703125 38.8125 
Q 48.828125 37.15625 52.796875 32.3125 
Q 56.78125 27.484375 56.78125 20.515625 
Q 56.78125 9.90625 50.3125 4.234375 
Q 43.84375 -1.421875 31.78125 -1.421875 
Q 19.734375 -1.421875 13.25 4.234375 
Q 6.78125 9.90625 6.78125 20.515625 
Q 6.78125 27.484375 10.78125 32.3125 
Q 14.796875 37.15625 21.921875 38.8125 
z
M 18.3125 54.390625 
Q 18.3125 48.734375 21.84375 45.5625 
Q 25.390625 42.390625 31.78125 42.390625 
Q 38.140625 42.390625 41.71875 45.5625 
Q 45.3125 48.734375 45.3125 54.390625 
Q 45.3125 60.0625 41.71875 63.234375 
Q 38.140625 66.40625 31.78125 66.40625 
Q 25.390625 66.40625 21.84375 63.234375 
Q 18.3125 60.0625 18.3125 54.390625 
z
" id="DejaVuSans-56"/>
      </defs>
      <g transform="translate(121.096875 175.009127)scale(0.1 -0.1)">
       <use xlink:href="#DejaVuSans-48"/>
       <use x="63.623047" xlink:href="#DejaVuSans-46"/>
       <use x="95.410156" xlink:href="#DejaVuSans-56"/>
      </g>
     </g>
    </g>
    <g id="ytick_5">
     <g id="line2d_14">
      <g>
       <use style="stroke:#000000;stroke-width:0.8;" x="144" xlink:href="#m90c189149d" y="87.463585"/>
      </g>
     </g>
     <g id="text_15">
      <!-- 1.0 -->
      <g transform="translate(121.096875 91.262804)scale(0.1 -0.1)">
       <use xlink:href="#DejaVuSans-49"/>
       <use x="63.623047" xlink:href="#DejaVuSans-46"/>
       <use x="95.410156" xlink:href="#DejaVuSans-48"/>
      </g>
     </g>
    </g>
    <g id="text_16">
     <!-- Accuracy -->
     <defs>
      <path d="M 34.1875 63.1875 
L 20.796875 26.90625 
L 47.609375 26.90625 
z
M 28.609375 72.90625 
L 39.796875 72.90625 
L 67.578125 0 
L 57.328125 0 
L 50.6875 18.703125 
L 17.828125 18.703125 
L 11.1875 0 
L 0.78125 0 
z
" id="DejaVuSans-65"/>
      <path d="M 48.78125 52.59375 
L 48.78125 44.1875 
Q 44.96875 46.296875 41.140625 47.34375 
Q 37.3125 48.390625 33.40625 48.390625 
Q 24.65625 48.390625 19.8125 42.84375 
Q 14.984375 37.3125 14.984375 27.296875 
Q 14.984375 17.28125 19.8125 11.734375 
Q 24.65625 6.203125 33.40625 6.203125 
Q 37.3125 6.203125 41.140625 7.25 
Q 44.96875 8.296875 48.78125 10.40625 
L 48.78125 2.09375 
Q 45.015625 0.34375 40.984375 -0.53125 
Q 36.96875 -1.421875 32.421875 -1.421875 
Q 20.0625 -1.421875 12.78125 6.34375 
Q 5.515625 14.109375 5.515625 27.296875 
Q 5.515625 40.671875 12.859375 48.328125 
Q 20.21875 56 33.015625 56 
Q 37.15625 56 41.109375 55.140625 
Q 45.0625 54.296875 48.78125 52.59375 
z
" id="DejaVuSans-99"/>
      <path d="M 34.28125 27.484375 
Q 23.390625 27.484375 19.1875 25 
Q 14.984375 22.515625 14.984375 16.5 
Q 14.984375 11.71875 18.140625 8.90625 
Q 21.296875 6.109375 26.703125 6.109375 
Q 34.1875 6.109375 38.703125 11.40625 
Q 43.21875 16.703125 43.21875 25.484375 
L 43.21875 27.484375 
z
M 52.203125 31.203125 
L 52.203125 0 
L 43.21875 0 
L 43.21875 8.296875 
Q 40.140625 3.328125 35.546875 0.953125 
Q 30.953125 -1.421875 24.3125 -1.421875 
Q 15.921875 -1.421875 10.953125 3.296875 
Q 6 8.015625 6 15.921875 
Q 6 25.140625 12.171875 29.828125 
Q 18.359375 34.515625 30.609375 34.515625 
L 43.21875 34.515625 
L 43.21875 35.40625 
Q 43.21875 41.609375 39.140625 45 
Q 35.0625 48.390625 27.6875 48.390625 
Q 23 48.390625 18.546875 47.265625 
Q 14.109375 46.140625 10.015625 43.890625 
L 10.015625 52.203125 
Q 14.9375 54.109375 19.578125 55.046875 
Q 24.21875 56 28.609375 56 
Q 40.484375 56 46.34375 49.84375 
Q 52.203125 43.703125 52.203125 31.203125 
z
" id="DejaVuSans-97"/>
      <path d="M 32.171875 -5.078125 
Q 28.375 -14.84375 24.75 -17.8125 
Q 21.140625 -20.796875 15.09375 -20.796875 
L 7.90625 -20.796875 
L 7.90625 -13.28125 
L 13.1875 -13.28125 
Q 16.890625 -13.28125 18.9375 -11.515625 
Q 21 -9.765625 23.484375 -3.21875 
L 25.09375 0.875 
L 2.984375 54.6875 
L 12.5 54.6875 
L 29.59375 11.921875 
L 46.6875 54.6875 
L 56.203125 54.6875 
z
" id="DejaVuSans-121"/>
     </defs>
     <g transform="translate(115.017187 309.388125)rotate(-90)scale(0.1 -0.1)">
      <use xlink:href="#DejaVuSans-65"/>
      <use x="66.658203" xlink:href="#DejaVuSans-99"/>
      <use x="121.638672" xlink:href="#DejaVuSans-99"/>
      <use x="176.619141" xlink:href="#DejaVuSans-117"/>
      <use x="239.998047" xlink:href="#DejaVuSans-114"/>
      <use x="281.111328" xlink:href="#DejaVuSans-97"/>
      <use x="342.390625" xlink:href="#DejaVuSans-99"/>
      <use x="397.371094" xlink:href="#DejaVuSans-121"/>
     </g>
    </g>
   </g>
   <g id="line2d_15">
    <path clip-path="url(#pfe6772dee2)" d="M 184.581818 89.110596 
L 194.855696 89.340899 
L 205.129574 89.564222 
L 215.403452 89.766609 
L 225.67733 90.255129 
L 235.951208 90.778544 
L 246.225086 91.336853 
L 256.498964 91.490388 
L 266.772842 93.102504 
L 277.04672 92.781477 
L 287.320598 93.276976 
L 297.594476 96.166224 
L 307.868354 98.190093 
L 318.142232 98.929853 
L 328.41611 98.741423 
L 338.689988 99.899914 
L 348.963867 105.078229 
L 359.237745 111.135879 
L 369.511623 112.503736 
L 379.785501 114.74395 
L 390.059379 118.29619 
L 400.333257 119.719877 
L 410.607135 121.485529 
L 420.881013 125.386712 
L 431.154891 123.488462 
L 441.428769 121.729789 
L 451.702647 123.181392 
L 461.976525 126.091577 
L 472.250403 122.343929 
L 482.524281 122.748703 
L 492.798159 138.004491 
L 503.072037 156.603154 
L 513.345915 157.412702 
L 523.619793 164.76842 
L 533.893671 185.418868 
L 544.167549 179.333302 
L 554.441427 190.038873 
L 564.715305 195.859243 
L 574.989183 203.731397 
L 585.263061 219.119784 
L 595.536939 220.773774 
L 605.810817 239.023493 
L 616.084695 246.735134 
L 626.358573 258.180465 
L 636.632451 270.679603 
L 646.906329 282.452941 
L 657.180207 291.344009 
L 667.454085 301.079519 
L 677.727963 299.104501 
L 688.001841 305.90889 
L 698.275719 331.772546 
L 708.549597 324.82858 
L 718.823475 343.636609 
L 729.097353 354.537588 
L 739.371231 350.273505 
L 749.645109 371.049572 
L 759.918987 381.664418 
L 770.192865 383.681309 
L 780.466743 390.304247 
L 790.740621 393.374946 
L 801.014499 402.866196 
L 811.288377 403.682722 
L 821.562255 419.748059 
L 831.836133 444.243858 
L 842.110012 442.541016 
L 852.38389 454.767979 
L 862.657768 459.143725 
L 872.931646 459.143725 
L 883.205524 459.143725 
L 893.479402 459.143725 
L 903.75328 459.143725 
L 914.027158 459.143725 
L 924.301036 459.143725 
L 934.574914 459.143725 
L 944.848792 459.143725 
L 955.12267 459.143725 
L 965.396548 463.163548 
L 975.670426 463.247294 
L 985.944304 453.421059 
L 996.218182 464.615151 
" style="fill:none;stroke:#1f77b4;stroke-linecap:square;stroke-width:1.5;"/>
   </g>
   <g id="line2d_16">
    <path clip-path="url(#pfe6772dee2)" d="M 184.581818 88.96404 
L 194.855696 89.033829 
L 205.129574 89.152469 
L 215.403452 89.117575 
L 225.67733 89.285068 
L 235.951208 89.585159 
L 246.225086 89.871292 
L 256.498964 90.227214 
L 266.772842 91.23217 
L 277.04672 91.392684 
L 287.320598 91.832352 
L 297.594476 92.251083 
L 307.868354 93.500299 
L 318.142232 96.543082 
L 328.41611 106.913669 
L 338.689988 111.659294 
L 348.963867 109.105031 
L 359.237745 117.19353 
L 369.511623 117.458727 
L 379.785501 123.92813 
L 390.059379 120.089757 
L 400.333257 127.41756 
L 410.607135 135.540954 
L 420.881013 132.665663 
L 431.154891 140.028361 
L 441.428769 150.531545 
L 451.702647 166.750417 
L 461.976525 168.348576 
L 472.250403 176.765081 
L 482.524281 197.457402 
L 492.798159 188.58727 
L 503.072037 209.607597 
L 513.345915 235.038564 
L 523.619793 254.5375 
L 533.893671 263.568145 
L 544.167549 261.537297 
L 554.441427 272.305678 
L 564.715305 297.108547 
L 574.989183 305.441306 
L 585.263061 327.557315 
L 595.536939 333.852247 
L 605.810817 346.525857 
L 616.084695 336.427446 
L 626.358573 343.231835 
L 636.632451 358.006082 
L 646.906329 351.452932 
L 657.180207 348.047248 
L 667.454085 351.8926 
L 677.727963 345.848907 
L 688.001841 340.279777 
L 698.275719 358.662095 
L 708.549597 382.480945 
L 718.823475 397.276129 
L 729.097353 414.255696 
L 739.371231 427.780727 
L 749.645109 433.642969 
L 759.918987 444.59978 
L 770.192865 441.871046 
L 780.466743 441.04754 
L 790.740621 438.367658 
L 801.014499 460.797715 
L 811.288377 455.430971 
L 821.562255 460.616264 
L 831.836133 461.293214 
L 842.110012 462.151613 
L 852.38389 464.594215 
L 862.657768 465.299079 
L 872.931646 465.313037 
L 883.205524 465.361889 
L 893.479402 465.361889 
L 903.75328 465.361889 
L 914.027158 465.361889 
L 924.301036 465.361889 
L 934.574914 464.231314 
L 944.848792 465.361889 
L 955.12267 465.361889 
L 965.396548 465.361889 
L 975.670426 465.361889 
L 985.944304 465.361889 
L 996.218182 465.361889 
" style="fill:none;stroke:#ff7f0e;stroke-linecap:square;stroke-width:1.5;"/>
   </g>
   <g id="line2d_17">
    <path clip-path="url(#pfe6772dee2)" d="M 184.581818 88.96404 
L 194.855696 89.061744 
L 205.129574 89.103617 
L 215.403452 89.187364 
L 225.67733 89.299025 
L 235.951208 89.466518 
L 246.225086 89.815461 
L 256.498964 90.185341 
L 266.772842 90.736671 
L 277.04672 90.673861 
L 287.320598 91.664859 
L 297.594476 91.909119 
L 307.868354 92.82335 
L 318.142232 93.709665 
L 328.41611 97.603869 
L 338.689988 110.040198 
L 348.963867 112.217603 
L 359.237745 128.101488 
L 369.511623 118.945224 
L 379.785501 116.684073 
L 390.059379 125.770549 
L 400.333257 130.425449 
L 410.607135 132.365572 
L 420.881013 148.242479 
L 431.154891 149.149731 
L 441.428769 159.143459 
L 451.702647 143.727157 
L 461.976525 160.001859 
L 472.250403 171.426253 
L 482.524281 193.960993 
L 492.798159 199.893024 
L 503.072037 218.819693 
L 513.345915 238.876937 
L 523.619793 243.852865 
L 533.893671 251.445865 
L 544.167549 261.530318 
L 554.441427 303.445352 
L 564.715305 317.584523 
L 574.989183 352.429973 
L 585.263061 377.518975 
L 595.536939 356.205536 
L 605.810817 426.740876 
L 616.084695 430.914235 
L 626.358573 432.470521 
L 636.632451 433.02883 
L 646.906329 430.865383 
L 657.180207 433.140491 
L 667.454085 434.536263 
L 677.727963 416.98443 
L 688.001841 455.417013 
L 698.275719 459.534541 
L 708.549597 462.116719 
L 718.823475 461.893396 
L 729.097353 465.361889 
L 739.371231 465.361889 
L 749.645109 465.361889 
L 759.918987 465.361889 
L 770.192865 465.361889 
L 780.466743 465.361889 
L 790.740621 465.361889 
L 801.014499 465.361889 
L 811.288377 465.361889 
L 821.562255 465.361889 
L 831.836133 465.361889 
L 842.110012 465.361889 
L 852.38389 465.361889 
L 862.657768 465.361889 
L 872.931646 465.361889 
L 883.205524 465.361889 
L 893.479402 465.361889 
L 903.75328 465.361889 
L 914.027158 465.361889 
L 924.301036 465.361889 
L 934.574914 465.361889 
L 944.848792 465.361889 
L 955.12267 465.361889 
L 965.396548 465.361889 
L 975.670426 465.361889 
L 985.944304 465.361889 
L 996.218182 465.361889 
" style="fill:none;stroke:#2ca02c;stroke-linecap:square;stroke-width:1.5;"/>
   </g>
   <g id="line2d_18">
    <path clip-path="url(#pfe6772dee2)" d="M 184.581818 88.96404 
L 194.855696 89.054765 
L 205.129574 89.319962 
L 215.403452 89.487455 
L 225.67733 90.122531 
L 235.951208 91.029783 
L 246.225086 92.627942 
L 256.498964 96.466315 
L 266.772842 97.72251 
L 277.04672 96.424442 
L 287.320598 98.811212 
L 297.594476 98.399459 
L 307.868354 98.846106 
L 318.142232 104.310554 
L 328.41611 106.432127 
L 338.689988 112.636334 
L 348.963867 108.218716 
L 359.237745 112.545609 
L 369.511623 111.694188 
L 379.785501 120.599214 
L 390.059379 123.43961 
L 400.333257 123.097646 
L 410.607135 145.890603 
L 420.881013 160.141436 
L 431.154891 164.475308 
L 441.428769 178.495838 
L 451.702647 192.341897 
L 461.976525 196.040693 
L 472.250403 202.161154 
L 482.524281 219.224467 
L 492.798159 233.566025 
L 503.072037 231.919014 
L 513.345915 243.287577 
L 523.619793 266.924977 
L 533.893671 285.82373 
L 544.167549 278.084174 
L 554.441427 302.119369 
L 564.715305 325.414804 
L 574.989183 346.086189 
L 585.263061 340.007601 
L 595.536939 376.597766 
L 605.810817 398.692837 
L 616.084695 415.88177 
L 626.358573 419.866699 
L 636.632451 423.181658 
L 646.906329 425.687069 
L 657.180207 426.496616 
L 667.454085 425.442808 
L 677.727963 426.587342 
L 688.001841 427.096798 
L 698.275719 425.659153 
L 708.549597 423.851628 
L 718.823475 424.661176 
L 729.097353 425.55447 
L 739.371231 425.610301 
L 749.645109 427.424805 
L 759.918987 429.323055 
L 770.192865 433.656927 
L 780.466743 435.72267 
L 790.740621 431.591184 
L 801.014499 436.629921 
L 811.288377 441.543039 
L 821.562255 445.255793 
L 831.836133 445.709419 
L 842.110012 432.142514 
L 852.38389 432.002937 
L 862.657768 450.022354 
L 872.931646 451.480936 
L 883.205524 462.577324 
L 893.479402 452.12997 
L 903.75328 444.341562 
L 914.027158 440.105394 
L 924.301036 448.633561 
L 934.574914 454.377163 
L 944.848792 465.35491 
L 955.12267 465.361889 
L 965.396548 465.361889 
L 975.670426 465.361889 
L 985.944304 465.361889 
L 996.218182 451.411147 
" style="fill:none;stroke:#d62728;stroke-dasharray:5.55,2.4;stroke-dashoffset:0;stroke-width:1.5;"/>
   </g>
   <g id="line2d_19">
    <path clip-path="url(#pfe6772dee2)" d="M 184.581818 89.075702 
L 194.855696 89.278089 
L 205.129574 89.989933 
L 215.403452 90.24815 
L 225.67733 91.092593 
L 235.951208 92.600026 
L 246.225086 94.589002 
L 256.498964 100.667589 
L 266.772842 124.10958 
L 277.04672 130.17421 
L 287.320598 132.965754 
L 297.594476 128.52022 
L 307.868354 143.106038 
L 318.142232 158.452552 
L 328.41611 187.072858 
L 338.689988 238.786212 
L 348.963867 276.995472 
L 359.237745 256.945207 
L 369.511623 244.662412 
L 379.785501 295.321959 
L 390.059379 308.805117 
L 400.333257 312.127055 
L 410.607135 318.087001 
L 420.881013 329.72774 
L 431.154891 313.215757 
L 441.428769 311.122099 
L 451.702647 303.591908 
L 461.976525 350.866708 
L 472.250403 383.416112 
L 482.524281 366.624974 
L 492.798159 342.457181 
L 503.072037 331.877229 
L 513.345915 354.132814 
L 523.619793 369.702652 
L 533.893671 364.405697 
L 544.167549 374.615769 
L 554.441427 396.019934 
L 564.715305 406.585928 
L 574.989183 429.378886 
L 585.263061 424.814711 
L 595.536939 424.472747 
L 605.810817 430.544355 
L 616.084695 447.761204 
L 626.358573 459.590372 
L 636.632451 457.76191 
L 646.906329 458.655204 
L 657.180207 451.536767 
L 667.454085 451.257613 
L 677.727963 457.475777 
L 688.001841 453.309397 
L 698.275719 456.512694 
L 708.549597 454.621423 
L 718.823475 454.342269 
L 729.097353 455.514717 
L 739.371231 448.766159 
L 749.645109 450.559727 
L 759.918987 448.319512 
L 770.192865 446.812079 
L 780.466743 450.350361 
L 790.740621 451.697281 
L 801.014499 452.960454 
L 811.288377 456.331244 
L 821.562255 459.032063 
L 831.836133 465.361889 
L 842.110012 465.361889 
L 852.38389 465.361889 
L 862.657768 465.361889 
L 872.931646 465.361889 
L 883.205524 465.361889 
L 893.479402 465.361889 
L 903.75328 465.361889 
L 914.027158 465.361889 
L 924.301036 465.361889 
L 934.574914 465.361889 
L 944.848792 465.361889 
L 955.12267 465.361889 
L 965.396548 465.361889 
L 975.670426 465.361889 
L 985.944304 465.361889 
L 996.218182 465.361889 
" style="fill:none;stroke:#9467bd;stroke-dasharray:5.55,2.4;stroke-dashoffset:0;stroke-width:1.5;"/>
   </g>
   <g id="line2d_20">
    <path clip-path="url(#pfe6772dee2)" d="M 184.581818 88.894252 
L 194.855696 88.96404 
L 205.129574 89.347878 
L 215.403452 89.731715 
L 225.67733 89.975975 
L 235.951208 90.052742 
L 246.225086 90.408664 
L 256.498964 90.79948 
L 266.772842 91.385705 
L 277.04672 91.706732 
L 287.320598 93.053652 
L 297.594476 92.969906 
L 307.868354 94.142354 
L 318.142232 94.002777 
L 328.41611 94.400572 
L 338.689988 95.321782 
L 348.963867 96.738491 
L 359.237745 98.134263 
L 369.511623 97.513144 
L 379.785501 98.448311 
L 390.059379 100.53499 
L 400.333257 101.972636 
L 410.607135 103.514964 
L 420.881013 103.410281 
L 431.154891 106.069227 
L 441.428769 107.311464 
L 451.702647 109.258566 
L 461.976525 111.896575 
L 472.250403 115.406942 
L 482.524281 115.281322 
L 492.798159 123.760637 
L 503.072037 130.125358 
L 513.345915 131.688623 
L 523.619793 140.39824 
L 533.893671 143.810903 
L 544.167549 153.448709 
L 554.441427 154.523453 
L 564.715305 170.295678 
L 574.989183 174.462057 
L 585.263061 178.070128 
L 595.536939 193.542261 
L 605.810817 202.189069 
L 616.084695 204.778226 
L 626.358573 226.566228 
L 636.632451 226.175412 
L 646.906329 238.576846 
L 657.180207 244.111083 
L 667.454085 250.454866 
L 677.727963 258.6969 
L 688.001841 274.483082 
L 698.275719 280.854782 
L 708.549597 279.228707 
L 718.823475 288.231437 
L 729.097353 296.229211 
L 739.371231 303.256923 
L 749.645109 323.076886 
L 759.918987 322.860542 
L 770.192865 344.66948 
L 780.466743 364.307993 
L 790.740621 369.639842 
L 801.014499 382.425114 
L 811.288377 386.444937 
L 821.562255 392.586334 
L 831.836133 412.887839 
L 842.110012 404.49227 
L 852.38389 417.849809 
L 862.657768 418.275519 
L 872.931646 423.726009 
L 883.205524 442.052496 
L 893.479402 432.470521 
L 903.75328 437.655814 
L 914.027158 441.103371 
L 924.301036 446.163045 
L 934.574914 468.690805 
L 944.848792 484.232727 
L 955.12267 469.681804 
L 965.396548 464.677961 
L 975.670426 464.677961 
L 985.944304 464.677961 
L 996.218182 464.677961 
" style="fill:none;stroke:#8c564b;stroke-linecap:square;stroke-width:1.5;"/>
   </g>
   <g id="line2d_21">
    <path clip-path="url(#pfe6772dee2)" d="M 184.581818 88.915188 
L 194.855696 88.950082 
L 205.129574 89.019871 
L 215.403452 89.033829 
L 225.67733 89.047787 
L 235.951208 89.054765 
L 246.225086 89.145491 
L 256.498964 89.215279 
L 266.772842 89.340899 
L 277.04672 89.501412 
L 287.320598 89.682863 
L 297.594476 90.031806 
L 307.868354 90.485432 
L 318.142232 91.190297 
L 328.41611 91.434557 
L 338.689988 91.211233 
L 348.963867 92.237126 
L 359.237745 93.92601 
L 369.511623 94.372657 
L 379.785501 94.735558 
L 390.059379 95.440423 
L 400.333257 96.215076 
L 410.607135 97.520123 
L 420.881013 99.055472 
L 431.154891 100.493117 
L 441.428769 102.056382 
L 451.702647 105.280615 
L 461.976525 109.858748 
L 472.250403 112.929446 
L 482.524281 126.293964 
L 492.798159 133.544999 
L 503.072037 142.240659 
L 513.345915 148.97526 
L 523.619793 156.882308 
L 533.893671 162.535185 
L 544.167549 167.685584 
L 554.441427 163.756486 
L 564.715305 171.370422 
L 574.989183 170.093291 
L 585.263061 178.007318 
L 595.536939 178.112001 
L 605.810817 183.653216 
L 616.084695 183.757899 
L 626.358573 192.488453 
L 636.632451 205.650584 
L 646.906329 217.954314 
L 657.180207 224.1655 
L 667.454085 246.707219 
L 677.727963 238.73736 
L 688.001841 268.886036 
L 698.275719 275.962601 
L 708.549597 277.044324 
L 718.823475 284.23255 
L 729.097353 295.00791 
L 739.371231 305.141215 
L 749.645109 308.435237 
L 759.918987 322.518577 
L 770.192865 338.290802 
L 780.466743 355.423904 
L 790.740621 364.38476 
L 801.014499 359.667051 
L 811.288377 366.317904 
L 821.562255 365.878236 
L 831.836133 366.241137 
L 842.110012 379.186923 
L 852.38389 373.785285 
L 862.657768 382.613543 
L 872.931646 385.349256 
L 883.205524 402.649851 
L 893.479402 411.387384 
L 903.75328 420.676247 
L 914.027158 428.06686 
L 924.301036 437.097505 
L 934.574914 440.391527 
L 944.848792 441.898961 
L 955.12267 446.246791 
L 965.396548 451.843837 
L 975.670426 451.257613 
L 985.944304 450.036312 
L 996.218182 447.60069 
" style="fill:none;stroke:#e377c2;stroke-linecap:square;stroke-width:1.5;"/>
   </g>
   <g id="line2d_22">
    <path clip-path="url(#pfe6772dee2)" d="M 184.581818 88.915188 
L 194.855696 88.936125 
L 205.129574 88.984977 
L 215.403452 89.047787 
L 225.67733 89.040808 
L 235.951208 89.264131 
L 246.225086 89.229237 
L 256.498964 89.375793 
L 266.772842 89.347878 
L 277.04672 89.340899 
L 287.320598 89.815461 
L 297.594476 89.927123 
L 307.868354 89.989933 
L 318.142232 90.108573 
L 328.41611 90.527305 
L 338.689988 91.225191 
L 348.963867 92.251083 
L 359.237745 92.788456 
L 369.511623 93.409574 
L 379.785501 94.135376 
L 390.059379 94.861177 
L 400.333257 94.840241 
L 410.607135 94.951902 
L 420.881013 98.685593 
L 431.154891 107.506872 
L 441.428769 142.889693 
L 451.702647 144.110994 
L 461.976525 146.455891 
L 472.250403 148.612359 
L 482.524281 150.077919 
L 492.798159 158.473488 
L 503.072037 173.715319 
L 513.345915 182.662218 
L 523.619793 200.877043 
L 533.893671 190.694886 
L 544.167549 202.510097 
L 554.441427 214.91851 
L 564.715305 278.509885 
L 574.989183 280.338346 
L 585.263061 312.106118 
L 595.536939 324.053927 
L 605.810817 330.537288 
L 616.084695 333.552156 
L 626.358573 339.386483 
L 636.632451 337.976753 
L 646.906329 341.061409 
L 657.180207 336.057566 
L 667.454085 336.190165 
L 677.727963 334.194211 
L 688.001841 350.824835 
L 698.275719 359.066869 
L 708.549597 356.784781 
L 718.823475 373.303744 
L 729.097353 369.577032 
L 739.371231 367.427543 
L 749.645109 368.474372 
L 759.918987 387.666238 
L 770.192865 389.557509 
L 780.466743 386.912521 
L 790.740621 390.520592 
L 801.014499 412.413276 
L 811.288377 409.865992 
L 821.562255 406.87904 
L 831.836133 404.303841 
L 842.110012 398.804499 
L 852.38389 400.381721 
L 862.657768 445.779207 
L 872.931646 444.243858 
L 883.205524 443.915852 
L 893.479402 448.926673 
L 903.75328 449.37332 
L 914.027158 452.653385 
L 924.301036 455.717104 
L 934.574914 456.987257 
L 944.848792 455.884597 
L 955.12267 453.686256 
L 965.396548 451.725196 
L 975.670426 454.858704 
L 985.944304 456.29635 
L 996.218182 460.972186 
" style="fill:none;stroke:#7f7f7f;stroke-linecap:square;stroke-width:1.5;"/>
   </g>
   <g id="line2d_23">
    <path clip-path="url(#pfe6772dee2)" d="M 184.581818 88.887273 
L 194.855696 88.943104 
L 205.129574 88.96404 
L 215.403452 89.096639 
L 225.67733 89.124554 
L 235.951208 89.229237 
L 246.225086 89.375793 
L 256.498964 89.634011 
L 266.772842 89.815461 
L 277.04672 89.920144 
L 287.320598 90.366791 
L 297.594476 90.457516 
L 307.868354 90.694798 
L 318.142232 91.050719 
L 328.41611 91.197275 
L 338.689988 91.741627 
L 348.963867 91.957971 
L 359.237745 92.362745 
L 369.511623 92.495343 
L 379.785501 93.744559 
L 390.059379 94.10746 
L 400.333257 93.765496 
L 410.607135 95.82426 
L 420.881013 97.561996 
L 431.154891 103.005507 
L 441.428769 104.143061 
L 451.702647 104.708349 
L 461.976525 108.98639 
L 472.250403 109.78198 
L 482.524281 110.52174 
L 492.798159 118.338063 
L 503.072037 122.567252 
L 513.345915 129.232064 
L 523.619793 130.404512 
L 533.893671 136.748296 
L 544.167549 150.371032 
L 554.441427 146.407039 
L 564.715305 161.195244 
L 574.989183 176.297497 
L 585.263061 180.024209 
L 595.536939 182.34119 
L 605.810817 185.516572 
L 616.084695 188.182496 
L 626.358573 193.73069 
L 636.632451 198.762449 
L 646.906329 222.064863 
L 657.180207 226.203327 
L 667.454085 232.191189 
L 677.727963 238.925789 
L 688.001841 245.241658 
L 698.275719 255.130703 
L 708.549597 265.724613 
L 718.823475 282.257533 
L 729.097353 283.527685 
L 739.371231 282.124934 
L 749.645109 276.276649 
L 759.918987 283.185721 
L 770.192865 282.320342 
L 780.466743 304.359583 
L 790.740621 317.109961 
L 801.014499 314.806937 
L 811.288377 327.661997 
L 821.562255 330.95602 
L 831.836133 347.998396 
L 842.110012 357.077893 
L 852.38389 370.595946 
L 862.657768 392.111772 
L 872.931646 391.120774 
L 883.205524 396.948122 
L 893.479402 393.032981 
L 903.75328 396.389813 
L 914.027158 397.311023 
L 924.301036 410.766265 
L 934.574914 425.338126 
L 944.848792 435.890162 
L 955.12267 446.728332 
L 965.396548 455.423992 
L 975.670426 455.50076 
L 985.944304 459.464752 
L 996.218182 467.176393 
" style="fill:none;stroke:#bcbd22;stroke-dasharray:5.55,2.4;stroke-dashoffset:0;stroke-width:1.5;"/>
   </g>
   <g id="line2d_24">
    <path clip-path="url(#pfe6772dee2)" d="M 184.581818 88.887273 
L 194.855696 88.915188 
L 205.129574 88.957061 
L 215.403452 89.012892 
L 225.67733 89.068723 
L 235.951208 89.131533 
L 246.225086 89.131533 
L 256.498964 89.292047 
L 266.772842 89.494434 
L 277.04672 89.871292 
L 287.320598 90.164404 
L 297.594476 90.359812 
L 307.868354 90.380749 
L 318.142232 90.764586 
L 328.41611 90.9251 
L 338.689988 91.427578 
L 348.963867 91.497366 
L 359.237745 91.916098 
L 369.511623 93.786433 
L 379.785501 94.226101 
L 390.059379 95.691661 
L 400.333257 95.789366 
L 410.607135 96.61985 
L 420.881013 97.296799 
L 431.154891 98.692571 
L 441.428769 98.971726 
L 451.702647 98.720487 
L 461.976525 101.651608 
L 472.250403 105.783093 
L 482.524281 110.347268 
L 492.798159 116.711989 
L 503.072037 118.693985 
L 513.345915 121.84843 
L 523.619793 135.219926 
L 533.893671 141.403196 
L 544.167549 146.434954 
L 554.441427 149.059006 
L 564.715305 158.110588 
L 574.989183 161.641891 
L 585.263061 169.088335 
L 595.536939 173.108158 
L 605.810817 173.240757 
L 616.084695 185.062946 
L 626.358573 185.509593 
L 636.632451 187.289202 
L 646.906329 196.940966 
L 657.180207 196.250059 
L 667.454085 202.726441 
L 677.727963 213.32733 
L 688.001841 232.337745 
L 698.275719 243.441112 
L 708.549597 242.415219 
L 718.823475 258.012972 
L 729.097353 256.198468 
L 739.371231 266.973829 
L 749.645109 270.267851 
L 759.918987 271.454257 
L 770.192865 276.472058 
L 780.466743 287.128777 
L 790.740621 295.754648 
L 801.014499 302.1752 
L 811.288377 303.591908 
L 821.562255 298.706706 
L 831.836133 300.535168 
L 842.110012 335.171251 
L 852.38389 339.079413 
L 862.657768 350.810877 
L 872.931646 357.52454 
L 883.205524 369.786398 
L 893.479402 367.783465 
L 903.75328 385.984333 
L 914.027158 408.114298 
L 924.301036 404.855171 
L 934.574914 400.297975 
L 944.848792 417.605548 
L 955.12267 414.772131 
L 965.396548 410.549921 
L 975.670426 422.19066 
L 985.944304 437.223125 
L 996.218182 441.801257 
" style="fill:none;stroke:#17becf;stroke-dasharray:5.55,2.4;stroke-dashoffset:0;stroke-width:1.5;"/>
   </g>
   <g id="line2d_25">
    <path clip-path="url(#pfe6772dee2)" d="M 184.581818 88.915188 
L 194.855696 89.124554 
L 205.129574 89.180385 
L 215.403452 89.187364 
L 225.67733 90.010869 
L 235.951208 90.073679 
L 246.225086 91.888183 
L 256.498964 94.337763 
L 266.772842 95.88707 
L 277.04672 97.275863 
L 287.320598 100.514054 
L 297.594476 101.072363 
L 307.868354 105.371341 
L 318.142232 110.731105 
L 328.41611 109.35627 
L 338.689988 113.236516 
L 348.963867 131.500193 
L 359.237745 133.11231 
L 369.511623 139.4212 
L 379.785501 156.93116 
L 390.059379 179.905568 
L 400.333257 198.671723 
L 410.607135 206.397322 
L 420.881013 207.430193 
L 431.154891 205.964632 
L 441.428769 230.704692 
L 451.702647 237.523038 
L 461.976525 240.223857 
L 472.250403 249.931452 
L 482.524281 264.489354 
L 492.798159 269.29081 
L 503.072037 276.897768 
L 513.345915 290.632165 
L 523.619793 297.15042 
L 533.893671 343.880869 
L 544.167549 325.017009 
L 554.441427 330.258133 
L 564.715305 338.821195 
L 574.989183 338.786301 
L 585.263061 344.334495 
L 595.536939 358.208469 
L 605.810817 374.55296 
L 616.084695 377.511996 
L 626.358573 383.095084 
L 636.632451 387.547597 
L 646.906329 384.679286 
L 657.180207 406.592907 
L 667.454085 409.468197 
L 677.727963 415.211799 
L 688.001841 416.837874 
L 698.275719 413.578746 
L 708.549597 415.323461 
L 718.823475 437.732581 
L 729.097353 441.466272 
L 739.371231 442.841107 
L 749.645109 443.099325 
L 759.918987 436.741583 
L 770.192865 441.340652 
L 780.466743 437.788412 
L 790.740621 437.997778 
L 801.014499 444.215943 
L 811.288377 441.682616 
L 821.562255 467.657934 
L 831.836133 469.409628 
L 842.110012 471.6638 
L 852.38389 464.677961 
L 862.657768 464.677961 
L 872.931646 464.677961 
L 883.205524 464.677961 
L 893.479402 464.677961 
L 903.75328 464.677961 
L 914.027158 464.677961 
L 924.301036 464.677961 
L 934.574914 464.677961 
L 944.848792 464.677961 
L 955.12267 464.677961 
L 965.396548 464.677961 
L 975.670426 464.677961 
L 985.944304 464.677961 
L 996.218182 464.677961 
" style="fill:none;stroke:#1f77b4;stroke-dasharray:5.55,2.4;stroke-dashoffset:0;stroke-width:1.5;"/>
   </g>
   <g id="patch_3">
    <path d="M 144 504 
L 144 69.12 
" style="fill:none;stroke:#000000;stroke-linecap:square;stroke-linejoin:miter;stroke-width:0.8;"/>
   </g>
   <g id="patch_4">
    <path d="M 1036.8 504 
L 1036.8 69.12 
" style="fill:none;stroke:#000000;stroke-linecap:square;stroke-linejoin:miter;stroke-width:0.8;"/>
   </g>
   <g id="patch_5">
    <path d="M 144 504 
L 1036.8 504 
" style="fill:none;stroke:#000000;stroke-linecap:square;stroke-linejoin:miter;stroke-width:0.8;"/>
   </g>
   <g id="patch_6">
    <path d="M 144 69.12 
L 1036.8 69.12 
" style="fill:none;stroke:#000000;stroke-linecap:square;stroke-linejoin:miter;stroke-width:0.8;"/>
   </g>
   <g id="legend_1">
    <g id="patch_7">
     <path d="M 879.920312 240.52625 
L 1029.8 240.52625 
Q 1031.8 240.52625 1031.8 238.52625 
L 1031.8 76.12 
Q 1031.8 74.12 1029.8 74.12 
L 879.920312 74.12 
Q 877.920312 74.12 877.920312 76.12 
L 877.920312 238.52625 
Q 877.920312 240.52625 879.920312 240.52625 
z
" style="fill:#ffffff;opacity:0.8;stroke:#cccccc;stroke-linejoin:miter;"/>
    </g>
    <g id="line2d_26">
     <path d="M 881.920312 82.218437 
L 901.920312 82.218437 
" style="fill:none;stroke:#1f77b4;stroke-linecap:square;stroke-width:1.5;"/>
    </g>
    <g id="line2d_27"/>
    <g id="text_17">
     <!-- taylorfo noBN -->
     <defs>
      <path d="M 18.3125 70.21875 
L 18.3125 54.6875 
L 36.8125 54.6875 
L 36.8125 47.703125 
L 18.3125 47.703125 
L 18.3125 18.015625 
Q 18.3125 11.328125 20.140625 9.421875 
Q 21.96875 7.515625 27.59375 7.515625 
L 36.8125 7.515625 
L 36.8125 0 
L 27.59375 0 
Q 17.1875 0 13.234375 3.875 
Q 9.28125 7.765625 9.28125 18.015625 
L 9.28125 47.703125 
L 2.6875 47.703125 
L 2.6875 54.6875 
L 9.28125 54.6875 
L 9.28125 70.21875 
z
" id="DejaVuSans-116"/>
      <path d="M 9.421875 75.984375 
L 18.40625 75.984375 
L 18.40625 0 
L 9.421875 0 
z
" id="DejaVuSans-108"/>
      <path d="M 19.671875 34.8125 
L 19.671875 8.109375 
L 35.5 8.109375 
Q 43.453125 8.109375 47.28125 11.40625 
Q 51.125 14.703125 51.125 21.484375 
Q 51.125 28.328125 47.28125 31.5625 
Q 43.453125 34.8125 35.5 34.8125 
z
M 19.671875 64.796875 
L 19.671875 42.828125 
L 34.28125 42.828125 
Q 41.5 42.828125 45.03125 45.53125 
Q 48.578125 48.25 48.578125 53.8125 
Q 48.578125 59.328125 45.03125 62.0625 
Q 41.5 64.796875 34.28125 64.796875 
z
M 9.8125 72.90625 
L 35.015625 72.90625 
Q 46.296875 72.90625 52.390625 68.21875 
Q 58.5 63.53125 58.5 54.890625 
Q 58.5 48.1875 55.375 44.234375 
Q 52.25 40.28125 46.1875 39.3125 
Q 53.46875 37.75 57.5 32.78125 
Q 61.53125 27.828125 61.53125 20.40625 
Q 61.53125 10.640625 54.890625 5.3125 
Q 48.25 0 35.984375 0 
L 9.8125 0 
z
" id="DejaVuSans-66"/>
     </defs>
     <g transform="translate(909.920312 85.718437)scale(0.1 -0.1)">
      <use xlink:href="#DejaVuSans-116"/>
      <use x="39.208984" xlink:href="#DejaVuSans-97"/>
      <use x="100.488281" xlink:href="#DejaVuSans-121"/>
      <use x="159.667969" xlink:href="#DejaVuSans-108"/>
      <use x="187.451172" xlink:href="#DejaVuSans-111"/>
      <use x="248.632812" xlink:href="#DejaVuSans-114"/>
      <use x="289.746094" xlink:href="#DejaVuSans-102"/>
      <use x="324.951172" xlink:href="#DejaVuSans-111"/>
      <use x="386.132812" xlink:href="#DejaVuSans-32"/>
      <use x="417.919922" xlink:href="#DejaVuSans-110"/>
      <use x="481.298828" xlink:href="#DejaVuSans-111"/>
      <use x="542.480469" xlink:href="#DejaVuSans-66"/>
      <use x="611.083984" xlink:href="#DejaVuSans-78"/>
     </g>
    </g>
    <g id="line2d_28">
     <path d="M 881.920312 96.896563 
L 901.920312 96.896563 
" style="fill:none;stroke:#ff7f0e;stroke-linecap:square;stroke-width:1.5;"/>
    </g>
    <g id="line2d_29"/>
    <g id="text_18">
     <!-- taylorfo_abs noBN -->
     <defs>
      <path d="M 50.984375 -16.609375 
L 50.984375 -23.578125 
L -0.984375 -23.578125 
L -0.984375 -16.609375 
z
" id="DejaVuSans-95"/>
     </defs>
     <g transform="translate(909.920312 100.396563)scale(0.1 -0.1)">
      <use xlink:href="#DejaVuSans-116"/>
      <use x="39.208984" xlink:href="#DejaVuSans-97"/>
      <use x="100.488281" xlink:href="#DejaVuSans-121"/>
      <use x="159.667969" xlink:href="#DejaVuSans-108"/>
      <use x="187.451172" xlink:href="#DejaVuSans-111"/>
      <use x="248.632812" xlink:href="#DejaVuSans-114"/>
      <use x="289.746094" xlink:href="#DejaVuSans-102"/>
      <use x="324.951172" xlink:href="#DejaVuSans-111"/>
      <use x="386.132812" xlink:href="#DejaVuSans-95"/>
      <use x="436.132812" xlink:href="#DejaVuSans-97"/>
      <use x="497.412109" xlink:href="#DejaVuSans-98"/>
      <use x="560.888672" xlink:href="#DejaVuSans-115"/>
      <use x="612.988281" xlink:href="#DejaVuSans-32"/>
      <use x="644.775391" xlink:href="#DejaVuSans-110"/>
      <use x="708.154297" xlink:href="#DejaVuSans-111"/>
      <use x="769.335938" xlink:href="#DejaVuSans-66"/>
      <use x="837.939453" xlink:href="#DejaVuSans-78"/>
     </g>
    </g>
    <g id="line2d_30">
     <path d="M 881.920312 111.852813 
L 901.920312 111.852813 
" style="fill:none;stroke:#2ca02c;stroke-linecap:square;stroke-width:1.5;"/>
    </g>
    <g id="line2d_31"/>
    <g id="text_19">
     <!-- taylorfo_sq noBN -->
     <defs>
      <path d="M 14.796875 27.296875 
Q 14.796875 17.390625 18.875 11.75 
Q 22.953125 6.109375 30.078125 6.109375 
Q 37.203125 6.109375 41.296875 11.75 
Q 45.40625 17.390625 45.40625 27.296875 
Q 45.40625 37.203125 41.296875 42.84375 
Q 37.203125 48.484375 30.078125 48.484375 
Q 22.953125 48.484375 18.875 42.84375 
Q 14.796875 37.203125 14.796875 27.296875 
z
M 45.40625 8.203125 
Q 42.578125 3.328125 38.25 0.953125 
Q 33.9375 -1.421875 27.875 -1.421875 
Q 17.96875 -1.421875 11.734375 6.484375 
Q 5.515625 14.40625 5.515625 27.296875 
Q 5.515625 40.1875 11.734375 48.09375 
Q 17.96875 56 27.875 56 
Q 33.9375 56 38.25 53.625 
Q 42.578125 51.265625 45.40625 46.390625 
L 45.40625 54.6875 
L 54.390625 54.6875 
L 54.390625 -20.796875 
L 45.40625 -20.796875 
z
" id="DejaVuSans-113"/>
     </defs>
     <g transform="translate(909.920312 115.352813)scale(0.1 -0.1)">
      <use xlink:href="#DejaVuSans-116"/>
      <use x="39.208984" xlink:href="#DejaVuSans-97"/>
      <use x="100.488281" xlink:href="#DejaVuSans-121"/>
      <use x="159.667969" xlink:href="#DejaVuSans-108"/>
      <use x="187.451172" xlink:href="#DejaVuSans-111"/>
      <use x="248.632812" xlink:href="#DejaVuSans-114"/>
      <use x="289.746094" xlink:href="#DejaVuSans-102"/>
      <use x="324.951172" xlink:href="#DejaVuSans-111"/>
      <use x="386.132812" xlink:href="#DejaVuSans-95"/>
      <use x="436.132812" xlink:href="#DejaVuSans-115"/>
      <use x="488.232422" xlink:href="#DejaVuSans-113"/>
      <use x="551.708984" xlink:href="#DejaVuSans-32"/>
      <use x="583.496094" xlink:href="#DejaVuSans-110"/>
      <use x="646.875" xlink:href="#DejaVuSans-111"/>
      <use x="708.056641" xlink:href="#DejaVuSans-66"/>
      <use x="776.660156" xlink:href="#DejaVuSans-78"/>
     </g>
    </g>
    <g id="line2d_32">
     <path d="M 881.920312 126.809062 
L 901.920312 126.809062 
" style="fill:none;stroke:#d62728;stroke-dasharray:5.55,2.4;stroke-dashoffset:0;stroke-width:1.5;"/>
    </g>
    <g id="line2d_33"/>
    <g id="text_20">
     <!-- Molchanov_group noBN -->
     <defs>
      <path d="M 9.8125 72.90625 
L 24.515625 72.90625 
L 43.109375 23.296875 
L 61.8125 72.90625 
L 76.515625 72.90625 
L 76.515625 0 
L 66.890625 0 
L 66.890625 64.015625 
L 48.09375 14.015625 
L 38.1875 14.015625 
L 19.390625 64.015625 
L 19.390625 0 
L 9.8125 0 
z
" id="DejaVuSans-77"/>
      <path d="M 54.890625 33.015625 
L 54.890625 0 
L 45.90625 0 
L 45.90625 32.71875 
Q 45.90625 40.484375 42.875 44.328125 
Q 39.84375 48.1875 33.796875 48.1875 
Q 26.515625 48.1875 22.3125 43.546875 
Q 18.109375 38.921875 18.109375 30.90625 
L 18.109375 0 
L 9.078125 0 
L 9.078125 75.984375 
L 18.109375 75.984375 
L 18.109375 46.1875 
Q 21.34375 51.125 25.703125 53.5625 
Q 30.078125 56 35.796875 56 
Q 45.21875 56 50.046875 50.171875 
Q 54.890625 44.34375 54.890625 33.015625 
z
" id="DejaVuSans-104"/>
      <path d="M 2.984375 54.6875 
L 12.5 54.6875 
L 29.59375 8.796875 
L 46.6875 54.6875 
L 56.203125 54.6875 
L 35.6875 0 
L 23.484375 0 
z
" id="DejaVuSans-118"/>
      <path d="M 45.40625 27.984375 
Q 45.40625 37.75 41.375 43.109375 
Q 37.359375 48.484375 30.078125 48.484375 
Q 22.859375 48.484375 18.828125 43.109375 
Q 14.796875 37.75 14.796875 27.984375 
Q 14.796875 18.265625 18.828125 12.890625 
Q 22.859375 7.515625 30.078125 7.515625 
Q 37.359375 7.515625 41.375 12.890625 
Q 45.40625 18.265625 45.40625 27.984375 
z
M 54.390625 6.78125 
Q 54.390625 -7.171875 48.1875 -13.984375 
Q 42 -20.796875 29.203125 -20.796875 
Q 24.46875 -20.796875 20.265625 -20.09375 
Q 16.0625 -19.390625 12.109375 -17.921875 
L 12.109375 -9.1875 
Q 16.0625 -11.328125 19.921875 -12.34375 
Q 23.78125 -13.375 27.78125 -13.375 
Q 36.625 -13.375 41.015625 -8.765625 
Q 45.40625 -4.15625 45.40625 5.171875 
L 45.40625 9.625 
Q 42.625 4.78125 38.28125 2.390625 
Q 33.9375 0 27.875 0 
Q 17.828125 0 11.671875 7.65625 
Q 5.515625 15.328125 5.515625 27.984375 
Q 5.515625 40.671875 11.671875 48.328125 
Q 17.828125 56 27.875 56 
Q 33.9375 56 38.28125 53.609375 
Q 42.625 51.21875 45.40625 46.390625 
L 45.40625 54.6875 
L 54.390625 54.6875 
z
" id="DejaVuSans-103"/>
     </defs>
     <g transform="translate(909.920312 130.309062)scale(0.1 -0.1)">
      <use xlink:href="#DejaVuSans-77"/>
      <use x="86.279297" xlink:href="#DejaVuSans-111"/>
      <use x="147.460938" xlink:href="#DejaVuSans-108"/>
      <use x="175.244141" xlink:href="#DejaVuSans-99"/>
      <use x="230.224609" xlink:href="#DejaVuSans-104"/>
      <use x="293.603516" xlink:href="#DejaVuSans-97"/>
      <use x="354.882812" xlink:href="#DejaVuSans-110"/>
      <use x="418.261719" xlink:href="#DejaVuSans-111"/>
      <use x="479.443359" xlink:href="#DejaVuSans-118"/>
      <use x="538.623047" xlink:href="#DejaVuSans-95"/>
      <use x="588.623047" xlink:href="#DejaVuSans-103"/>
      <use x="652.099609" xlink:href="#DejaVuSans-114"/>
      <use x="690.962891" xlink:href="#DejaVuSans-111"/>
      <use x="752.144531" xlink:href="#DejaVuSans-117"/>
      <use x="815.523438" xlink:href="#DejaVuSans-112"/>
      <use x="879" xlink:href="#DejaVuSans-32"/>
      <use x="910.787109" xlink:href="#DejaVuSans-110"/>
      <use x="974.166016" xlink:href="#DejaVuSans-111"/>
      <use x="1035.347656" xlink:href="#DejaVuSans-66"/>
      <use x="1103.951172" xlink:href="#DejaVuSans-78"/>
     </g>
    </g>
    <g id="line2d_34">
     <path d="M 881.920312 141.765312 
L 901.920312 141.765312 
" style="fill:none;stroke:#9467bd;stroke-dasharray:5.55,2.4;stroke-dashoffset:0;stroke-width:1.5;"/>
    </g>
    <g id="line2d_35"/>
    <g id="text_21">
     <!-- APnZ noBN -->
     <defs>
      <path d="M 19.671875 64.796875 
L 19.671875 37.40625 
L 32.078125 37.40625 
Q 38.96875 37.40625 42.71875 40.96875 
Q 46.484375 44.53125 46.484375 51.125 
Q 46.484375 57.671875 42.71875 61.234375 
Q 38.96875 64.796875 32.078125 64.796875 
z
M 9.8125 72.90625 
L 32.078125 72.90625 
Q 44.34375 72.90625 50.609375 67.359375 
Q 56.890625 61.8125 56.890625 51.125 
Q 56.890625 40.328125 50.609375 34.8125 
Q 44.34375 29.296875 32.078125 29.296875 
L 19.671875 29.296875 
L 19.671875 0 
L 9.8125 0 
z
" id="DejaVuSans-80"/>
      <path d="M 5.609375 72.90625 
L 62.890625 72.90625 
L 62.890625 65.375 
L 16.796875 8.296875 
L 64.015625 8.296875 
L 64.015625 0 
L 4.5 0 
L 4.5 7.515625 
L 50.59375 64.59375 
L 5.609375 64.59375 
z
" id="DejaVuSans-90"/>
     </defs>
     <g transform="translate(909.920312 145.265312)scale(0.1 -0.1)">
      <use xlink:href="#DejaVuSans-65"/>
      <use x="68.408203" xlink:href="#DejaVuSans-80"/>
      <use x="126.960938" xlink:href="#DejaVuSans-110"/>
      <use x="190.339844" xlink:href="#DejaVuSans-90"/>
      <use x="258.845703" xlink:href="#DejaVuSans-32"/>
      <use x="290.632812" xlink:href="#DejaVuSans-110"/>
      <use x="354.011719" xlink:href="#DejaVuSans-111"/>
      <use x="415.193359" xlink:href="#DejaVuSans-66"/>
      <use x="483.796875" xlink:href="#DejaVuSans-78"/>
     </g>
    </g>
    <g id="line2d_36">
     <path d="M 881.920312 156.443438 
L 901.920312 156.443438 
" style="fill:none;stroke:#8c564b;stroke-linecap:square;stroke-width:1.5;"/>
    </g>
    <g id="line2d_37"/>
    <g id="text_22">
     <!-- taylorfo BN -->
     <g transform="translate(909.920312 159.943438)scale(0.1 -0.1)">
      <use xlink:href="#DejaVuSans-116"/>
      <use x="39.208984" xlink:href="#DejaVuSans-97"/>
      <use x="100.488281" xlink:href="#DejaVuSans-121"/>
      <use x="159.667969" xlink:href="#DejaVuSans-108"/>
      <use x="187.451172" xlink:href="#DejaVuSans-111"/>
      <use x="248.632812" xlink:href="#DejaVuSans-114"/>
      <use x="289.746094" xlink:href="#DejaVuSans-102"/>
      <use x="324.951172" xlink:href="#DejaVuSans-111"/>
      <use x="386.132812" xlink:href="#DejaVuSans-32"/>
      <use x="417.919922" xlink:href="#DejaVuSans-66"/>
      <use x="486.523438" xlink:href="#DejaVuSans-78"/>
     </g>
    </g>
    <g id="line2d_38">
     <path d="M 881.920312 171.121562 
L 901.920312 171.121562 
" style="fill:none;stroke:#e377c2;stroke-linecap:square;stroke-width:1.5;"/>
    </g>
    <g id="line2d_39"/>
    <g id="text_23">
     <!-- taylorfo_abs BN -->
     <g transform="translate(909.920312 174.621562)scale(0.1 -0.1)">
      <use xlink:href="#DejaVuSans-116"/>
      <use x="39.208984" xlink:href="#DejaVuSans-97"/>
      <use x="100.488281" xlink:href="#DejaVuSans-121"/>
      <use x="159.667969" xlink:href="#DejaVuSans-108"/>
      <use x="187.451172" xlink:href="#DejaVuSans-111"/>
      <use x="248.632812" xlink:href="#DejaVuSans-114"/>
      <use x="289.746094" xlink:href="#DejaVuSans-102"/>
      <use x="324.951172" xlink:href="#DejaVuSans-111"/>
      <use x="386.132812" xlink:href="#DejaVuSans-95"/>
      <use x="436.132812" xlink:href="#DejaVuSans-97"/>
      <use x="497.412109" xlink:href="#DejaVuSans-98"/>
      <use x="560.888672" xlink:href="#DejaVuSans-115"/>
      <use x="612.988281" xlink:href="#DejaVuSans-32"/>
      <use x="644.775391" xlink:href="#DejaVuSans-66"/>
      <use x="713.378906" xlink:href="#DejaVuSans-78"/>
     </g>
    </g>
    <g id="line2d_40">
     <path d="M 881.920312 186.077812 
L 901.920312 186.077812 
" style="fill:none;stroke:#7f7f7f;stroke-linecap:square;stroke-width:1.5;"/>
    </g>
    <g id="line2d_41"/>
    <g id="text_24">
     <!-- taylorfo_sq BN -->
     <g transform="translate(909.920312 189.577812)scale(0.1 -0.1)">
      <use xlink:href="#DejaVuSans-116"/>
      <use x="39.208984" xlink:href="#DejaVuSans-97"/>
      <use x="100.488281" xlink:href="#DejaVuSans-121"/>
      <use x="159.667969" xlink:href="#DejaVuSans-108"/>
      <use x="187.451172" xlink:href="#DejaVuSans-111"/>
      <use x="248.632812" xlink:href="#DejaVuSans-114"/>
      <use x="289.746094" xlink:href="#DejaVuSans-102"/>
      <use x="324.951172" xlink:href="#DejaVuSans-111"/>
      <use x="386.132812" xlink:href="#DejaVuSans-95"/>
      <use x="436.132812" xlink:href="#DejaVuSans-115"/>
      <use x="488.232422" xlink:href="#DejaVuSans-113"/>
      <use x="551.708984" xlink:href="#DejaVuSans-32"/>
      <use x="583.496094" xlink:href="#DejaVuSans-66"/>
      <use x="652.099609" xlink:href="#DejaVuSans-78"/>
     </g>
    </g>
    <g id="line2d_42">
     <path d="M 881.920312 201.034063 
L 901.920312 201.034063 
" style="fill:none;stroke:#bcbd22;stroke-dasharray:5.55,2.4;stroke-dashoffset:0;stroke-width:1.5;"/>
    </g>
    <g id="line2d_43"/>
    <g id="text_25">
     <!-- Molchanov_group BN -->
     <g transform="translate(909.920312 204.534063)scale(0.1 -0.1)">
      <use xlink:href="#DejaVuSans-77"/>
      <use x="86.279297" xlink:href="#DejaVuSans-111"/>
      <use x="147.460938" xlink:href="#DejaVuSans-108"/>
      <use x="175.244141" xlink:href="#DejaVuSans-99"/>
      <use x="230.224609" xlink:href="#DejaVuSans-104"/>
      <use x="293.603516" xlink:href="#DejaVuSans-97"/>
      <use x="354.882812" xlink:href="#DejaVuSans-110"/>
      <use x="418.261719" xlink:href="#DejaVuSans-111"/>
      <use x="479.443359" xlink:href="#DejaVuSans-118"/>
      <use x="538.623047" xlink:href="#DejaVuSans-95"/>
      <use x="588.623047" xlink:href="#DejaVuSans-103"/>
      <use x="652.099609" xlink:href="#DejaVuSans-114"/>
      <use x="690.962891" xlink:href="#DejaVuSans-111"/>
      <use x="752.144531" xlink:href="#DejaVuSans-117"/>
      <use x="815.523438" xlink:href="#DejaVuSans-112"/>
      <use x="879" xlink:href="#DejaVuSans-32"/>
      <use x="910.787109" xlink:href="#DejaVuSans-66"/>
      <use x="979.390625" xlink:href="#DejaVuSans-78"/>
     </g>
    </g>
    <g id="line2d_44">
     <path d="M 881.920312 215.990312 
L 901.920312 215.990312 
" style="fill:none;stroke:#17becf;stroke-dasharray:5.55,2.4;stroke-dashoffset:0;stroke-width:1.5;"/>
    </g>
    <g id="line2d_45"/>
    <g id="text_26">
     <!-- Molchanov_BN BN -->
     <g transform="translate(909.920312 219.490312)scale(0.1 -0.1)">
      <use xlink:href="#DejaVuSans-77"/>
      <use x="86.279297" xlink:href="#DejaVuSans-111"/>
      <use x="147.460938" xlink:href="#DejaVuSans-108"/>
      <use x="175.244141" xlink:href="#DejaVuSans-99"/>
      <use x="230.224609" xlink:href="#DejaVuSans-104"/>
      <use x="293.603516" xlink:href="#DejaVuSans-97"/>
      <use x="354.882812" xlink:href="#DejaVuSans-110"/>
      <use x="418.261719" xlink:href="#DejaVuSans-111"/>
      <use x="479.443359" xlink:href="#DejaVuSans-118"/>
      <use x="538.623047" xlink:href="#DejaVuSans-95"/>
      <use x="588.623047" xlink:href="#DejaVuSans-66"/>
      <use x="657.226562" xlink:href="#DejaVuSans-78"/>
      <use x="732.03125" xlink:href="#DejaVuSans-32"/>
      <use x="763.818359" xlink:href="#DejaVuSans-66"/>
      <use x="832.421875" xlink:href="#DejaVuSans-78"/>
     </g>
    </g>
    <g id="line2d_46">
     <path d="M 881.920312 230.946563 
L 901.920312 230.946563 
" style="fill:none;stroke:#1f77b4;stroke-dasharray:5.55,2.4;stroke-dashoffset:0;stroke-width:1.5;"/>
    </g>
    <g id="line2d_47"/>
    <g id="text_27">
     <!-- APnZ BN -->
     <g transform="translate(909.920312 234.446563)scale(0.1 -0.1)">
      <use xlink:href="#DejaVuSans-65"/>
      <use x="68.408203" xlink:href="#DejaVuSans-80"/>
      <use x="126.960938" xlink:href="#DejaVuSans-110"/>
      <use x="190.339844" xlink:href="#DejaVuSans-90"/>
      <use x="258.845703" xlink:href="#DejaVuSans-32"/>
      <use x="290.632812" xlink:href="#DejaVuSans-66"/>
      <use x="359.236328" xlink:href="#DejaVuSans-78"/>
     </g>
    </g>
   </g>
  </g>
 </g>
 <defs>
  <clipPath id="pfe6772dee2">
   <rect height="434.88" width="892.8" x="144" y="69.12"/>
  </clipPath>
 </defs>
</svg>
