<?xml version="1.0" encoding="utf-8" standalone="no"?>
<!DOCTYPE svg PUBLIC "-//W3C//DTD SVG 1.1//EN"
  "http://www.w3.org/Graphics/SVG/1.1/DTD/svg11.dtd">
<!-- Created with matplotlib (https://matplotlib.org/) -->
<svg height="576pt" version="1.1" viewBox="0 0 1152 576" width="1152pt" xmlns="http://www.w3.org/2000/svg" xmlns:xlink="http://www.w3.org/1999/xlink">
 <defs>
  <style type="text/css">
*{stroke-linecap:butt;stroke-linejoin:round;}
  </style>
 </defs>
 <g id="figure_1">
  <g id="patch_1">
   <path d="M 0 576 
L 1152 576 
L 1152 0 
L 0 0 
z
" style="fill:#ffffff;"/>
  </g>
  <g id="axes_1">
   <g id="patch_2">
    <path d="M 144 504 
L 1036.8 504 
L 1036.8 69.12 
L 144 69.12 
z
" style="fill:#ffffff;"/>
   </g>
   <g id="matplotlib.axis_1">
    <g id="xtick_1">
     <g id="line2d_1">
      <defs>
       <path d="M 0 0 
L 0 3.5 
" id="m56a6b9b052" style="stroke:#000000;stroke-width:0.8;"/>
      </defs>
      <g>
       <use style="stroke:#000000;stroke-width:0.8;" x="182.527043" xlink:href="#m56a6b9b052" y="504"/>
      </g>
     </g>
     <g id="text_1">
      <!-- 0 -->
      <defs>
       <path d="M 31.78125 66.40625 
Q 24.171875 66.40625 20.328125 58.90625 
Q 16.5 51.421875 16.5 36.375 
Q 16.5 21.390625 20.328125 13.890625 
Q 24.171875 6.390625 31.78125 6.390625 
Q 39.453125 6.390625 43.28125 13.890625 
Q 47.125 21.390625 47.125 36.375 
Q 47.125 51.421875 43.28125 58.90625 
Q 39.453125 66.40625 31.78125 66.40625 
z
M 31.78125 74.21875 
Q 44.046875 74.21875 50.515625 64.515625 
Q 56.984375 54.828125 56.984375 36.375 
Q 56.984375 17.96875 50.515625 8.265625 
Q 44.046875 -1.421875 31.78125 -1.421875 
Q 19.53125 -1.421875 13.0625 8.265625 
Q 6.59375 17.96875 6.59375 36.375 
Q 6.59375 54.828125 13.0625 64.515625 
Q 19.53125 74.21875 31.78125 74.21875 
z
" id="DejaVuSans-48"/>
      </defs>
      <g transform="translate(179.345793 518.598438)scale(0.1 -0.1)">
       <use xlink:href="#DejaVuSans-48"/>
      </g>
     </g>
    </g>
    <g id="xtick_2">
     <g id="line2d_2">
      <g>
       <use style="stroke:#000000;stroke-width:0.8;" x="285.265823" xlink:href="#m56a6b9b052" y="504"/>
      </g>
     </g>
     <g id="text_2">
      <!-- 50 -->
      <defs>
       <path d="M 10.796875 72.90625 
L 49.515625 72.90625 
L 49.515625 64.59375 
L 19.828125 64.59375 
L 19.828125 46.734375 
Q 21.96875 47.46875 24.109375 47.828125 
Q 26.265625 48.1875 28.421875 48.1875 
Q 40.625 48.1875 47.75 41.5 
Q 54.890625 34.8125 54.890625 23.390625 
Q 54.890625 11.625 47.5625 5.09375 
Q 40.234375 -1.421875 26.90625 -1.421875 
Q 22.3125 -1.421875 17.546875 -0.640625 
Q 12.796875 0.140625 7.71875 1.703125 
L 7.71875 11.625 
Q 12.109375 9.234375 16.796875 8.0625 
Q 21.484375 6.890625 26.703125 6.890625 
Q 35.15625 6.890625 40.078125 11.328125 
Q 45.015625 15.765625 45.015625 23.390625 
Q 45.015625 31 40.078125 35.4375 
Q 35.15625 39.890625 26.703125 39.890625 
Q 22.75 39.890625 18.8125 39.015625 
Q 14.890625 38.140625 10.796875 36.28125 
z
" id="DejaVuSans-53"/>
      </defs>
      <g transform="translate(278.903323 518.598438)scale(0.1 -0.1)">
       <use xlink:href="#DejaVuSans-53"/>
       <use x="63.623047" xlink:href="#DejaVuSans-48"/>
      </g>
     </g>
    </g>
    <g id="xtick_3">
     <g id="line2d_3">
      <g>
       <use style="stroke:#000000;stroke-width:0.8;" x="388.004603" xlink:href="#m56a6b9b052" y="504"/>
      </g>
     </g>
     <g id="text_3">
      <!-- 100 -->
      <defs>
       <path d="M 12.40625 8.296875 
L 28.515625 8.296875 
L 28.515625 63.921875 
L 10.984375 60.40625 
L 10.984375 69.390625 
L 28.421875 72.90625 
L 38.28125 72.90625 
L 38.28125 8.296875 
L 54.390625 8.296875 
L 54.390625 0 
L 12.40625 0 
z
" id="DejaVuSans-49"/>
      </defs>
      <g transform="translate(378.460853 518.598438)scale(0.1 -0.1)">
       <use xlink:href="#DejaVuSans-49"/>
       <use x="63.623047" xlink:href="#DejaVuSans-48"/>
       <use x="127.246094" xlink:href="#DejaVuSans-48"/>
      </g>
     </g>
    </g>
    <g id="xtick_4">
     <g id="line2d_4">
      <g>
       <use style="stroke:#000000;stroke-width:0.8;" x="490.743383" xlink:href="#m56a6b9b052" y="504"/>
      </g>
     </g>
     <g id="text_4">
      <!-- 150 -->
      <g transform="translate(481.199633 518.598438)scale(0.1 -0.1)">
       <use xlink:href="#DejaVuSans-49"/>
       <use x="63.623047" xlink:href="#DejaVuSans-53"/>
       <use x="127.246094" xlink:href="#DejaVuSans-48"/>
      </g>
     </g>
    </g>
    <g id="xtick_5">
     <g id="line2d_5">
      <g>
       <use style="stroke:#000000;stroke-width:0.8;" x="593.482163" xlink:href="#m56a6b9b052" y="504"/>
      </g>
     </g>
     <g id="text_5">
      <!-- 200 -->
      <defs>
       <path d="M 19.1875 8.296875 
L 53.609375 8.296875 
L 53.609375 0 
L 7.328125 0 
L 7.328125 8.296875 
Q 12.9375 14.109375 22.625 23.890625 
Q 32.328125 33.6875 34.8125 36.53125 
Q 39.546875 41.84375 41.421875 45.53125 
Q 43.3125 49.21875 43.3125 52.78125 
Q 43.3125 58.59375 39.234375 62.25 
Q 35.15625 65.921875 28.609375 65.921875 
Q 23.96875 65.921875 18.8125 64.3125 
Q 13.671875 62.703125 7.8125 59.421875 
L 7.8125 69.390625 
Q 13.765625 71.78125 18.9375 73 
Q 24.125 74.21875 28.421875 74.21875 
Q 39.75 74.21875 46.484375 68.546875 
Q 53.21875 62.890625 53.21875 53.421875 
Q 53.21875 48.921875 51.53125 44.890625 
Q 49.859375 40.875 45.40625 35.40625 
Q 44.1875 33.984375 37.640625 27.21875 
Q 31.109375 20.453125 19.1875 8.296875 
z
" id="DejaVuSans-50"/>
      </defs>
      <g transform="translate(583.938413 518.598438)scale(0.1 -0.1)">
       <use xlink:href="#DejaVuSans-50"/>
       <use x="63.623047" xlink:href="#DejaVuSans-48"/>
       <use x="127.246094" xlink:href="#DejaVuSans-48"/>
      </g>
     </g>
    </g>
    <g id="xtick_6">
     <g id="line2d_6">
      <g>
       <use style="stroke:#000000;stroke-width:0.8;" x="696.220944" xlink:href="#m56a6b9b052" y="504"/>
      </g>
     </g>
     <g id="text_6">
      <!-- 250 -->
      <g transform="translate(686.677194 518.598438)scale(0.1 -0.1)">
       <use xlink:href="#DejaVuSans-50"/>
       <use x="63.623047" xlink:href="#DejaVuSans-53"/>
       <use x="127.246094" xlink:href="#DejaVuSans-48"/>
      </g>
     </g>
    </g>
    <g id="xtick_7">
     <g id="line2d_7">
      <g>
       <use style="stroke:#000000;stroke-width:0.8;" x="798.959724" xlink:href="#m56a6b9b052" y="504"/>
      </g>
     </g>
     <g id="text_7">
      <!-- 300 -->
      <defs>
       <path d="M 40.578125 39.3125 
Q 47.65625 37.796875 51.625 33 
Q 55.609375 28.21875 55.609375 21.1875 
Q 55.609375 10.40625 48.1875 4.484375 
Q 40.765625 -1.421875 27.09375 -1.421875 
Q 22.515625 -1.421875 17.65625 -0.515625 
Q 12.796875 0.390625 7.625 2.203125 
L 7.625 11.71875 
Q 11.71875 9.328125 16.59375 8.109375 
Q 21.484375 6.890625 26.8125 6.890625 
Q 36.078125 6.890625 40.9375 10.546875 
Q 45.796875 14.203125 45.796875 21.1875 
Q 45.796875 27.640625 41.28125 31.265625 
Q 36.765625 34.90625 28.71875 34.90625 
L 20.21875 34.90625 
L 20.21875 43.015625 
L 29.109375 43.015625 
Q 36.375 43.015625 40.234375 45.921875 
Q 44.09375 48.828125 44.09375 54.296875 
Q 44.09375 59.90625 40.109375 62.90625 
Q 36.140625 65.921875 28.71875 65.921875 
Q 24.65625 65.921875 20.015625 65.03125 
Q 15.375 64.15625 9.8125 62.3125 
L 9.8125 71.09375 
Q 15.4375 72.65625 20.34375 73.4375 
Q 25.25 74.21875 29.59375 74.21875 
Q 40.828125 74.21875 47.359375 69.109375 
Q 53.90625 64.015625 53.90625 55.328125 
Q 53.90625 49.265625 50.4375 45.09375 
Q 46.96875 40.921875 40.578125 39.3125 
z
" id="DejaVuSans-51"/>
      </defs>
      <g transform="translate(789.415974 518.598438)scale(0.1 -0.1)">
       <use xlink:href="#DejaVuSans-51"/>
       <use x="63.623047" xlink:href="#DejaVuSans-48"/>
       <use x="127.246094" xlink:href="#DejaVuSans-48"/>
      </g>
     </g>
    </g>
    <g id="xtick_8">
     <g id="line2d_8">
      <g>
       <use style="stroke:#000000;stroke-width:0.8;" x="901.698504" xlink:href="#m56a6b9b052" y="504"/>
      </g>
     </g>
     <g id="text_8">
      <!-- 350 -->
      <g transform="translate(892.154754 518.598438)scale(0.1 -0.1)">
       <use xlink:href="#DejaVuSans-51"/>
       <use x="63.623047" xlink:href="#DejaVuSans-53"/>
       <use x="127.246094" xlink:href="#DejaVuSans-48"/>
      </g>
     </g>
    </g>
    <g id="xtick_9">
     <g id="line2d_9">
      <g>
       <use style="stroke:#000000;stroke-width:0.8;" x="1004.437284" xlink:href="#m56a6b9b052" y="504"/>
      </g>
     </g>
     <g id="text_9">
      <!-- 400 -->
      <defs>
       <path d="M 37.796875 64.3125 
L 12.890625 25.390625 
L 37.796875 25.390625 
z
M 35.203125 72.90625 
L 47.609375 72.90625 
L 47.609375 25.390625 
L 58.015625 25.390625 
L 58.015625 17.1875 
L 47.609375 17.1875 
L 47.609375 0 
L 37.796875 0 
L 37.796875 17.1875 
L 4.890625 17.1875 
L 4.890625 26.703125 
z
" id="DejaVuSans-52"/>
      </defs>
      <g transform="translate(994.893534 518.598438)scale(0.1 -0.1)">
       <use xlink:href="#DejaVuSans-52"/>
       <use x="63.623047" xlink:href="#DejaVuSans-48"/>
       <use x="127.246094" xlink:href="#DejaVuSans-48"/>
      </g>
     </g>
    </g>
    <g id="text_10">
     <!-- Number of Neurons pruned -->
     <defs>
      <path d="M 9.8125 72.90625 
L 23.09375 72.90625 
L 55.421875 11.921875 
L 55.421875 72.90625 
L 64.984375 72.90625 
L 64.984375 0 
L 51.703125 0 
L 19.390625 60.984375 
L 19.390625 0 
L 9.8125 0 
z
" id="DejaVuSans-78"/>
      <path d="M 8.5 21.578125 
L 8.5 54.6875 
L 17.484375 54.6875 
L 17.484375 21.921875 
Q 17.484375 14.15625 20.5 10.265625 
Q 23.53125 6.390625 29.59375 6.390625 
Q 36.859375 6.390625 41.078125 11.03125 
Q 45.3125 15.671875 45.3125 23.6875 
L 45.3125 54.6875 
L 54.296875 54.6875 
L 54.296875 0 
L 45.3125 0 
L 45.3125 8.40625 
Q 42.046875 3.421875 37.71875 1 
Q 33.40625 -1.421875 27.6875 -1.421875 
Q 18.265625 -1.421875 13.375 4.4375 
Q 8.5 10.296875 8.5 21.578125 
z
M 31.109375 56 
z
" id="DejaVuSans-117"/>
      <path d="M 52 44.1875 
Q 55.375 50.25 60.0625 53.125 
Q 64.75 56 71.09375 56 
Q 79.640625 56 84.28125 50.015625 
Q 88.921875 44.046875 88.921875 33.015625 
L 88.921875 0 
L 79.890625 0 
L 79.890625 32.71875 
Q 79.890625 40.578125 77.09375 44.375 
Q 74.3125 48.1875 68.609375 48.1875 
Q 61.625 48.1875 57.5625 43.546875 
Q 53.515625 38.921875 53.515625 30.90625 
L 53.515625 0 
L 44.484375 0 
L 44.484375 32.71875 
Q 44.484375 40.625 41.703125 44.40625 
Q 38.921875 48.1875 33.109375 48.1875 
Q 26.21875 48.1875 22.15625 43.53125 
Q 18.109375 38.875 18.109375 30.90625 
L 18.109375 0 
L 9.078125 0 
L 9.078125 54.6875 
L 18.109375 54.6875 
L 18.109375 46.1875 
Q 21.1875 51.21875 25.484375 53.609375 
Q 29.78125 56 35.6875 56 
Q 41.65625 56 45.828125 52.96875 
Q 50 49.953125 52 44.1875 
z
" id="DejaVuSans-109"/>
      <path d="M 48.6875 27.296875 
Q 48.6875 37.203125 44.609375 42.84375 
Q 40.53125 48.484375 33.40625 48.484375 
Q 26.265625 48.484375 22.1875 42.84375 
Q 18.109375 37.203125 18.109375 27.296875 
Q 18.109375 17.390625 22.1875 11.75 
Q 26.265625 6.109375 33.40625 6.109375 
Q 40.53125 6.109375 44.609375 11.75 
Q 48.6875 17.390625 48.6875 27.296875 
z
M 18.109375 46.390625 
Q 20.953125 51.265625 25.265625 53.625 
Q 29.59375 56 35.59375 56 
Q 45.5625 56 51.78125 48.09375 
Q 58.015625 40.1875 58.015625 27.296875 
Q 58.015625 14.40625 51.78125 6.484375 
Q 45.5625 -1.421875 35.59375 -1.421875 
Q 29.59375 -1.421875 25.265625 0.953125 
Q 20.953125 3.328125 18.109375 8.203125 
L 18.109375 0 
L 9.078125 0 
L 9.078125 75.984375 
L 18.109375 75.984375 
z
" id="DejaVuSans-98"/>
      <path d="M 56.203125 29.59375 
L 56.203125 25.203125 
L 14.890625 25.203125 
Q 15.484375 15.921875 20.484375 11.0625 
Q 25.484375 6.203125 34.421875 6.203125 
Q 39.59375 6.203125 44.453125 7.46875 
Q 49.3125 8.734375 54.109375 11.28125 
L 54.109375 2.78125 
Q 49.265625 0.734375 44.1875 -0.34375 
Q 39.109375 -1.421875 33.890625 -1.421875 
Q 20.796875 -1.421875 13.15625 6.1875 
Q 5.515625 13.8125 5.515625 26.8125 
Q 5.515625 40.234375 12.765625 48.109375 
Q 20.015625 56 32.328125 56 
Q 43.359375 56 49.78125 48.890625 
Q 56.203125 41.796875 56.203125 29.59375 
z
M 47.21875 32.234375 
Q 47.125 39.59375 43.09375 43.984375 
Q 39.0625 48.390625 32.421875 48.390625 
Q 24.90625 48.390625 20.390625 44.140625 
Q 15.875 39.890625 15.1875 32.171875 
z
" id="DejaVuSans-101"/>
      <path d="M 41.109375 46.296875 
Q 39.59375 47.171875 37.8125 47.578125 
Q 36.03125 48 33.890625 48 
Q 26.265625 48 22.1875 43.046875 
Q 18.109375 38.09375 18.109375 28.8125 
L 18.109375 0 
L 9.078125 0 
L 9.078125 54.6875 
L 18.109375 54.6875 
L 18.109375 46.1875 
Q 20.953125 51.171875 25.484375 53.578125 
Q 30.03125 56 36.53125 56 
Q 37.453125 56 38.578125 55.875 
Q 39.703125 55.765625 41.0625 55.515625 
z
" id="DejaVuSans-114"/>
      <path id="DejaVuSans-32"/>
      <path d="M 30.609375 48.390625 
Q 23.390625 48.390625 19.1875 42.75 
Q 14.984375 37.109375 14.984375 27.296875 
Q 14.984375 17.484375 19.15625 11.84375 
Q 23.34375 6.203125 30.609375 6.203125 
Q 37.796875 6.203125 41.984375 11.859375 
Q 46.1875 17.53125 46.1875 27.296875 
Q 46.1875 37.015625 41.984375 42.703125 
Q 37.796875 48.390625 30.609375 48.390625 
z
M 30.609375 56 
Q 42.328125 56 49.015625 48.375 
Q 55.71875 40.765625 55.71875 27.296875 
Q 55.71875 13.875 49.015625 6.21875 
Q 42.328125 -1.421875 30.609375 -1.421875 
Q 18.84375 -1.421875 12.171875 6.21875 
Q 5.515625 13.875 5.515625 27.296875 
Q 5.515625 40.765625 12.171875 48.375 
Q 18.84375 56 30.609375 56 
z
" id="DejaVuSans-111"/>
      <path d="M 37.109375 75.984375 
L 37.109375 68.5 
L 28.515625 68.5 
Q 23.6875 68.5 21.796875 66.546875 
Q 19.921875 64.59375 19.921875 59.515625 
L 19.921875 54.6875 
L 34.71875 54.6875 
L 34.71875 47.703125 
L 19.921875 47.703125 
L 19.921875 0 
L 10.890625 0 
L 10.890625 47.703125 
L 2.296875 47.703125 
L 2.296875 54.6875 
L 10.890625 54.6875 
L 10.890625 58.5 
Q 10.890625 67.625 15.140625 71.796875 
Q 19.390625 75.984375 28.609375 75.984375 
z
" id="DejaVuSans-102"/>
      <path d="M 54.890625 33.015625 
L 54.890625 0 
L 45.90625 0 
L 45.90625 32.71875 
Q 45.90625 40.484375 42.875 44.328125 
Q 39.84375 48.1875 33.796875 48.1875 
Q 26.515625 48.1875 22.3125 43.546875 
Q 18.109375 38.921875 18.109375 30.90625 
L 18.109375 0 
L 9.078125 0 
L 9.078125 54.6875 
L 18.109375 54.6875 
L 18.109375 46.1875 
Q 21.34375 51.125 25.703125 53.5625 
Q 30.078125 56 35.796875 56 
Q 45.21875 56 50.046875 50.171875 
Q 54.890625 44.34375 54.890625 33.015625 
z
" id="DejaVuSans-110"/>
      <path d="M 44.28125 53.078125 
L 44.28125 44.578125 
Q 40.484375 46.53125 36.375 47.5 
Q 32.28125 48.484375 27.875 48.484375 
Q 21.1875 48.484375 17.84375 46.4375 
Q 14.5 44.390625 14.5 40.28125 
Q 14.5 37.15625 16.890625 35.375 
Q 19.28125 33.59375 26.515625 31.984375 
L 29.59375 31.296875 
Q 39.15625 29.25 43.1875 25.515625 
Q 47.21875 21.78125 47.21875 15.09375 
Q 47.21875 7.46875 41.1875 3.015625 
Q 35.15625 -1.421875 24.609375 -1.421875 
Q 20.21875 -1.421875 15.453125 -0.5625 
Q 10.6875 0.296875 5.421875 2 
L 5.421875 11.28125 
Q 10.40625 8.6875 15.234375 7.390625 
Q 20.0625 6.109375 24.8125 6.109375 
Q 31.15625 6.109375 34.5625 8.28125 
Q 37.984375 10.453125 37.984375 14.40625 
Q 37.984375 18.0625 35.515625 20.015625 
Q 33.0625 21.96875 24.703125 23.78125 
L 21.578125 24.515625 
Q 13.234375 26.265625 9.515625 29.90625 
Q 5.8125 33.546875 5.8125 39.890625 
Q 5.8125 47.609375 11.28125 51.796875 
Q 16.75 56 26.8125 56 
Q 31.78125 56 36.171875 55.265625 
Q 40.578125 54.546875 44.28125 53.078125 
z
" id="DejaVuSans-115"/>
      <path d="M 18.109375 8.203125 
L 18.109375 -20.796875 
L 9.078125 -20.796875 
L 9.078125 54.6875 
L 18.109375 54.6875 
L 18.109375 46.390625 
Q 20.953125 51.265625 25.265625 53.625 
Q 29.59375 56 35.59375 56 
Q 45.5625 56 51.78125 48.09375 
Q 58.015625 40.1875 58.015625 27.296875 
Q 58.015625 14.40625 51.78125 6.484375 
Q 45.5625 -1.421875 35.59375 -1.421875 
Q 29.59375 -1.421875 25.265625 0.953125 
Q 20.953125 3.328125 18.109375 8.203125 
z
M 48.6875 27.296875 
Q 48.6875 37.203125 44.609375 42.84375 
Q 40.53125 48.484375 33.40625 48.484375 
Q 26.265625 48.484375 22.1875 42.84375 
Q 18.109375 37.203125 18.109375 27.296875 
Q 18.109375 17.390625 22.1875 11.75 
Q 26.265625 6.109375 33.40625 6.109375 
Q 40.53125 6.109375 44.609375 11.75 
Q 48.6875 17.390625 48.6875 27.296875 
z
" id="DejaVuSans-112"/>
      <path d="M 45.40625 46.390625 
L 45.40625 75.984375 
L 54.390625 75.984375 
L 54.390625 0 
L 45.40625 0 
L 45.40625 8.203125 
Q 42.578125 3.328125 38.25 0.953125 
Q 33.9375 -1.421875 27.875 -1.421875 
Q 17.96875 -1.421875 11.734375 6.484375 
Q 5.515625 14.40625 5.515625 27.296875 
Q 5.515625 40.1875 11.734375 48.09375 
Q 17.96875 56 27.875 56 
Q 33.9375 56 38.25 53.625 
Q 42.578125 51.265625 45.40625 46.390625 
z
M 14.796875 27.296875 
Q 14.796875 17.390625 18.875 11.75 
Q 22.953125 6.109375 30.078125 6.109375 
Q 37.203125 6.109375 41.296875 11.75 
Q 45.40625 17.390625 45.40625 27.296875 
Q 45.40625 37.203125 41.296875 42.84375 
Q 37.203125 48.484375 30.078125 48.484375 
Q 22.953125 48.484375 18.875 42.84375 
Q 14.796875 37.203125 14.796875 27.296875 
z
" id="DejaVuSans-100"/>
     </defs>
     <g transform="translate(522.147656 532.276562)scale(0.1 -0.1)">
      <use xlink:href="#DejaVuSans-78"/>
      <use x="74.804688" xlink:href="#DejaVuSans-117"/>
      <use x="138.183594" xlink:href="#DejaVuSans-109"/>
      <use x="235.595703" xlink:href="#DejaVuSans-98"/>
      <use x="299.072266" xlink:href="#DejaVuSans-101"/>
      <use x="360.595703" xlink:href="#DejaVuSans-114"/>
      <use x="401.708984" xlink:href="#DejaVuSans-32"/>
      <use x="433.496094" xlink:href="#DejaVuSans-111"/>
      <use x="494.677734" xlink:href="#DejaVuSans-102"/>
      <use x="529.882812" xlink:href="#DejaVuSans-32"/>
      <use x="561.669922" xlink:href="#DejaVuSans-78"/>
      <use x="636.474609" xlink:href="#DejaVuSans-101"/>
      <use x="697.998047" xlink:href="#DejaVuSans-117"/>
      <use x="761.376953" xlink:href="#DejaVuSans-114"/>
      <use x="800.240234" xlink:href="#DejaVuSans-111"/>
      <use x="861.421875" xlink:href="#DejaVuSans-110"/>
      <use x="924.800781" xlink:href="#DejaVuSans-115"/>
      <use x="976.900391" xlink:href="#DejaVuSans-32"/>
      <use x="1008.6875" xlink:href="#DejaVuSans-112"/>
      <use x="1072.164062" xlink:href="#DejaVuSans-114"/>
      <use x="1113.277344" xlink:href="#DejaVuSans-117"/>
      <use x="1176.65625" xlink:href="#DejaVuSans-110"/>
      <use x="1240.035156" xlink:href="#DejaVuSans-101"/>
      <use x="1301.558594" xlink:href="#DejaVuSans-100"/>
     </g>
    </g>
   </g>
   <g id="matplotlib.axis_2">
    <g id="ytick_1">
     <g id="line2d_10">
      <defs>
       <path d="M 0 0 
L -3.5 0 
" id="me2299adbda" style="stroke:#000000;stroke-width:0.8;"/>
      </defs>
      <g>
       <use style="stroke:#000000;stroke-width:0.8;" x="144" xlink:href="#me2299adbda" y="432.324686"/>
      </g>
     </g>
     <g id="text_11">
      <!-- 0.2 -->
      <defs>
       <path d="M 10.6875 12.40625 
L 21 12.40625 
L 21 0 
L 10.6875 0 
z
" id="DejaVuSans-46"/>
      </defs>
      <g transform="translate(121.096875 436.123905)scale(0.1 -0.1)">
       <use xlink:href="#DejaVuSans-48"/>
       <use x="63.623047" xlink:href="#DejaVuSans-46"/>
       <use x="95.410156" xlink:href="#DejaVuSans-50"/>
      </g>
     </g>
    </g>
    <g id="ytick_2">
     <g id="line2d_11">
      <g>
       <use style="stroke:#000000;stroke-width:0.8;" x="144" xlink:href="#me2299adbda" y="345.27934"/>
      </g>
     </g>
     <g id="text_12">
      <!-- 0.4 -->
      <g transform="translate(121.096875 349.078558)scale(0.1 -0.1)">
       <use xlink:href="#DejaVuSans-48"/>
       <use x="63.623047" xlink:href="#DejaVuSans-46"/>
       <use x="95.410156" xlink:href="#DejaVuSans-52"/>
      </g>
     </g>
    </g>
    <g id="ytick_3">
     <g id="line2d_12">
      <g>
       <use style="stroke:#000000;stroke-width:0.8;" x="144" xlink:href="#me2299adbda" y="258.233994"/>
      </g>
     </g>
     <g id="text_13">
      <!-- 0.6 -->
      <defs>
       <path d="M 33.015625 40.375 
Q 26.375 40.375 22.484375 35.828125 
Q 18.609375 31.296875 18.609375 23.390625 
Q 18.609375 15.53125 22.484375 10.953125 
Q 26.375 6.390625 33.015625 6.390625 
Q 39.65625 6.390625 43.53125 10.953125 
Q 47.40625 15.53125 47.40625 23.390625 
Q 47.40625 31.296875 43.53125 35.828125 
Q 39.65625 40.375 33.015625 40.375 
z
M 52.59375 71.296875 
L 52.59375 62.3125 
Q 48.875 64.0625 45.09375 64.984375 
Q 41.3125 65.921875 37.59375 65.921875 
Q 27.828125 65.921875 22.671875 59.328125 
Q 17.53125 52.734375 16.796875 39.40625 
Q 19.671875 43.65625 24.015625 45.921875 
Q 28.375 48.1875 33.59375 48.1875 
Q 44.578125 48.1875 50.953125 41.515625 
Q 57.328125 34.859375 57.328125 23.390625 
Q 57.328125 12.15625 50.6875 5.359375 
Q 44.046875 -1.421875 33.015625 -1.421875 
Q 20.359375 -1.421875 13.671875 8.265625 
Q 6.984375 17.96875 6.984375 36.375 
Q 6.984375 53.65625 15.1875 63.9375 
Q 23.390625 74.21875 37.203125 74.21875 
Q 40.921875 74.21875 44.703125 73.484375 
Q 48.484375 72.75 52.59375 71.296875 
z
" id="DejaVuSans-54"/>
      </defs>
      <g transform="translate(121.096875 262.033212)scale(0.1 -0.1)">
       <use xlink:href="#DejaVuSans-48"/>
       <use x="63.623047" xlink:href="#DejaVuSans-46"/>
       <use x="95.410156" xlink:href="#DejaVuSans-54"/>
      </g>
     </g>
    </g>
    <g id="ytick_4">
     <g id="line2d_13">
      <g>
       <use style="stroke:#000000;stroke-width:0.8;" x="144" xlink:href="#me2299adbda" y="171.188647"/>
      </g>
     </g>
     <g id="text_14">
      <!-- 0.8 -->
      <defs>
       <path d="M 31.78125 34.625 
Q 24.75 34.625 20.71875 30.859375 
Q 16.703125 27.09375 16.703125 20.515625 
Q 16.703125 13.921875 20.71875 10.15625 
Q 24.75 6.390625 31.78125 6.390625 
Q 38.8125 6.390625 42.859375 10.171875 
Q 46.921875 13.96875 46.921875 20.515625 
Q 46.921875 27.09375 42.890625 30.859375 
Q 38.875 34.625 31.78125 34.625 
z
M 21.921875 38.8125 
Q 15.578125 40.375 12.03125 44.71875 
Q 8.5 49.078125 8.5 55.328125 
Q 8.5 64.0625 14.71875 69.140625 
Q 20.953125 74.21875 31.78125 74.21875 
Q 42.671875 74.21875 48.875 69.140625 
Q 55.078125 64.0625 55.078125 55.328125 
Q 55.078125 49.078125 51.53125 44.71875 
Q 48 40.375 41.703125 38.8125 
Q 48.828125 37.15625 52.796875 32.3125 
Q 56.78125 27.484375 56.78125 20.515625 
Q 56.78125 9.90625 50.3125 4.234375 
Q 43.84375 -1.421875 31.78125 -1.421875 
Q 19.734375 -1.421875 13.25 4.234375 
Q 6.78125 9.90625 6.78125 20.515625 
Q 6.78125 27.484375 10.78125 32.3125 
Q 14.796875 37.15625 21.921875 38.8125 
z
M 18.3125 54.390625 
Q 18.3125 48.734375 21.84375 45.5625 
Q 25.390625 42.390625 31.78125 42.390625 
Q 38.140625 42.390625 41.71875 45.5625 
Q 45.3125 48.734375 45.3125 54.390625 
Q 45.3125 60.0625 41.71875 63.234375 
Q 38.140625 66.40625 31.78125 66.40625 
Q 25.390625 66.40625 21.84375 63.234375 
Q 18.3125 60.0625 18.3125 54.390625 
z
" id="DejaVuSans-56"/>
      </defs>
      <g transform="translate(121.096875 174.987866)scale(0.1 -0.1)">
       <use xlink:href="#DejaVuSans-48"/>
       <use x="63.623047" xlink:href="#DejaVuSans-46"/>
       <use x="95.410156" xlink:href="#DejaVuSans-56"/>
      </g>
     </g>
    </g>
    <g id="ytick_5">
     <g id="line2d_14">
      <g>
       <use style="stroke:#000000;stroke-width:0.8;" x="144" xlink:href="#me2299adbda" y="84.143301"/>
      </g>
     </g>
     <g id="text_15">
      <!-- 1.0 -->
      <g transform="translate(121.096875 87.94252)scale(0.1 -0.1)">
       <use xlink:href="#DejaVuSans-49"/>
       <use x="63.623047" xlink:href="#DejaVuSans-46"/>
       <use x="95.410156" xlink:href="#DejaVuSans-48"/>
      </g>
     </g>
    </g>
    <g id="text_16">
     <!-- Accuracy -->
     <defs>
      <path d="M 34.1875 63.1875 
L 20.796875 26.90625 
L 47.609375 26.90625 
z
M 28.609375 72.90625 
L 39.796875 72.90625 
L 67.578125 0 
L 57.328125 0 
L 50.6875 18.703125 
L 17.828125 18.703125 
L 11.1875 0 
L 0.78125 0 
z
" id="DejaVuSans-65"/>
      <path d="M 48.78125 52.59375 
L 48.78125 44.1875 
Q 44.96875 46.296875 41.140625 47.34375 
Q 37.3125 48.390625 33.40625 48.390625 
Q 24.65625 48.390625 19.8125 42.84375 
Q 14.984375 37.3125 14.984375 27.296875 
Q 14.984375 17.28125 19.8125 11.734375 
Q 24.65625 6.203125 33.40625 6.203125 
Q 37.3125 6.203125 41.140625 7.25 
Q 44.96875 8.296875 48.78125 10.40625 
L 48.78125 2.09375 
Q 45.015625 0.34375 40.984375 -0.53125 
Q 36.96875 -1.421875 32.421875 -1.421875 
Q 20.0625 -1.421875 12.78125 6.34375 
Q 5.515625 14.109375 5.515625 27.296875 
Q 5.515625 40.671875 12.859375 48.328125 
Q 20.21875 56 33.015625 56 
Q 37.15625 56 41.109375 55.140625 
Q 45.0625 54.296875 48.78125 52.59375 
z
" id="DejaVuSans-99"/>
      <path d="M 34.28125 27.484375 
Q 23.390625 27.484375 19.1875 25 
Q 14.984375 22.515625 14.984375 16.5 
Q 14.984375 11.71875 18.140625 8.90625 
Q 21.296875 6.109375 26.703125 6.109375 
Q 34.1875 6.109375 38.703125 11.40625 
Q 43.21875 16.703125 43.21875 25.484375 
L 43.21875 27.484375 
z
M 52.203125 31.203125 
L 52.203125 0 
L 43.21875 0 
L 43.21875 8.296875 
Q 40.140625 3.328125 35.546875 0.953125 
Q 30.953125 -1.421875 24.3125 -1.421875 
Q 15.921875 -1.421875 10.953125 3.296875 
Q 6 8.015625 6 15.921875 
Q 6 25.140625 12.171875 29.828125 
Q 18.359375 34.515625 30.609375 34.515625 
L 43.21875 34.515625 
L 43.21875 35.40625 
Q 43.21875 41.609375 39.140625 45 
Q 35.0625 48.390625 27.6875 48.390625 
Q 23 48.390625 18.546875 47.265625 
Q 14.109375 46.140625 10.015625 43.890625 
L 10.015625 52.203125 
Q 14.9375 54.109375 19.578125 55.046875 
Q 24.21875 56 28.609375 56 
Q 40.484375 56 46.34375 49.84375 
Q 52.203125 43.703125 52.203125 31.203125 
z
" id="DejaVuSans-97"/>
      <path d="M 32.171875 -5.078125 
Q 28.375 -14.84375 24.75 -17.8125 
Q 21.140625 -20.796875 15.09375 -20.796875 
L 7.90625 -20.796875 
L 7.90625 -13.28125 
L 13.1875 -13.28125 
Q 16.890625 -13.28125 18.9375 -11.515625 
Q 21 -9.765625 23.484375 -3.21875 
L 25.09375 0.875 
L 2.984375 54.6875 
L 12.5 54.6875 
L 29.59375 11.921875 
L 46.6875 54.6875 
L 56.203125 54.6875 
z
" id="DejaVuSans-121"/>
     </defs>
     <g transform="translate(115.017187 309.388125)rotate(-90)scale(0.1 -0.1)">
      <use xlink:href="#DejaVuSans-65"/>
      <use x="66.658203" xlink:href="#DejaVuSans-99"/>
      <use x="121.638672" xlink:href="#DejaVuSans-99"/>
      <use x="176.619141" xlink:href="#DejaVuSans-117"/>
      <use x="239.998047" xlink:href="#DejaVuSans-114"/>
      <use x="281.111328" xlink:href="#DejaVuSans-97"/>
      <use x="342.390625" xlink:href="#DejaVuSans-99"/>
      <use x="397.371094" xlink:href="#DejaVuSans-121"/>
     </g>
    </g>
   </g>
   <g id="line2d_15">
    <path clip-path="url(#p0f58be5fce)" d="M 184.581818 89.032348 
L 194.855696 89.191931 
L 205.129574 89.641666 
L 215.403452 90.03337 
L 225.67733 90.838539 
L 235.951208 91.643709 
L 246.225086 91.701739 
L 256.498964 92.456132 
L 266.772842 93.428138 
L 277.04672 95.082 
L 287.320598 99.666388 
L 297.594476 103.242501 
L 307.868354 106.630016 
L 318.142232 109.596811 
L 328.41611 120.542764 
L 338.689988 129.065954 
L 348.963867 133.737387 
L 359.237745 148.535096 
L 369.511623 158.320444 
L 379.785501 165.327594 
L 390.059379 200.298062 
L 400.333257 209.894811 
L 410.607135 211.345567 
L 420.881013 227.963974 
L 431.154891 252.387448 
L 441.428769 281.583908 
L 451.702647 301.452008 
L 461.976525 321.378138 
L 472.250403 320.435147 
L 482.524281 337.706395 
L 492.798159 356.290576 
L 503.072037 376.202199 
L 513.345915 381.258083 
L 523.619793 383.869443 
L 533.893671 383.470485 
L 544.167549 391.805077 
L 554.441427 402.65673 
L 564.715305 401.517887 
L 574.989183 402.366579 
L 585.263061 412.231718 
L 595.536939 410.309467 
L 605.810817 411.60064 
L 616.084695 418.216086 
L 626.358573 427.529938 
L 636.632451 426.354826 
L 646.906329 425.215983 
L 657.180207 432.955765 
L 667.454085 434.660403 
L 677.727963 435.204436 
L 688.001841 433.760934 
L 698.275719 433.760934 
L 708.549597 435.407542 
L 718.823475 436.51737 
L 729.097353 437.416839 
L 739.371231 440.572232 
L 749.645109 444.721394 
L 759.918987 446.897528 
L 770.192865 444.917246 
L 780.466743 451.33684 
L 790.740621 461.354309 
L 801.014499 458.590619 
L 811.288377 461.506638 
L 821.562255 472.060886 
L 831.836133 464.132506 
L 842.110012 475.832851 
L 852.38389 476.645275 
L 862.657768 476.928172 
L 872.931646 476.928172 
L 883.205524 476.928172 
L 893.479402 476.928172 
L 903.75328 476.899157 
L 914.027158 476.623513 
L 924.301036 476.928172 
L 934.574914 476.217302 
L 944.848792 476.217302 
L 955.12267 476.217302 
L 965.396548 476.217302 
L 975.670426 476.217302 
L 985.944304 476.152018 
L 996.218182 476.217302 
" style="fill:none;stroke:#1f77b4;stroke-linecap:square;stroke-width:1.5;"/>
   </g>
   <g id="line2d_16">
    <path clip-path="url(#p0f58be5fce)" d="M 184.581818 88.909034 
L 194.855696 89.068617 
L 205.129574 89.097632 
L 215.403452 88.981572 
L 225.67733 89.315246 
L 235.951208 89.590889 
L 246.225086 89.692442 
L 256.498964 89.750472 
L 266.772842 90.236476 
L 277.04672 90.584657 
L 287.320598 90.961853 
L 297.594476 92.622969 
L 307.868354 93.783573 
L 318.142232 98.273663 
L 328.41611 101.153413 
L 338.689988 100.39902 
L 348.963867 103.402084 
L 359.237745 106.274581 
L 369.511623 108.914956 
L 379.785501 112.418531 
L 390.059379 114.420574 
L 400.333257 122.689882 
L 410.607135 123.988309 
L 420.881013 137.284485 
L 431.154891 146.16311 
L 441.428769 149.325758 
L 451.702647 150.82729 
L 461.976525 165.407386 
L 472.250403 176.440383 
L 482.524281 189.888889 
L 492.798159 191.317884 
L 503.072037 195.32197 
L 513.345915 198.52814 
L 523.619793 208.436802 
L 533.893671 206.485535 
L 544.167549 219.498815 
L 554.441427 230.916262 
L 564.715305 262.426678 
L 574.989183 265.611087 
L 585.263061 255.143884 
L 595.536939 259.692003 
L 605.810817 274.301114 
L 616.084695 282.751766 
L 626.358573 285.914414 
L 636.632451 300.139074 
L 646.906329 311.95548 
L 657.180207 319.310811 
L 667.454085 309.917168 
L 677.727963 323.481734 
L 688.001841 338.293951 
L 698.275719 347.034754 
L 708.549597 348.797422 
L 718.823475 356.798341 
L 729.097353 355.246032 
L 739.371231 363.537101 
L 749.645109 367.628232 
L 759.918987 364.008597 
L 770.192865 368.310088 
L 780.466743 369.746336 
L 790.740621 373.692391 
L 801.014499 372.125575 
L 811.288377 369.746336 
L 821.562255 367.134975 
L 831.836133 379.988672 
L 842.110012 401.184213 
L 852.38389 400.944839 
L 862.657768 407.364433 
L 872.931646 390.100439 
L 883.205524 397.716907 
L 893.479402 445.562832 
L 903.75328 448.34103 
L 914.027158 450.227012 
L 924.301036 476.507453 
L 934.574914 463.145992 
L 944.848792 466.90345 
L 955.12267 468.230891 
L 965.396548 461.956372 
L 975.670426 457.161625 
L 985.944304 453.396913 
L 996.218182 475.27431 
" style="fill:none;stroke:#ff7f0e;stroke-linecap:square;stroke-width:1.5;"/>
   </g>
   <g id="line2d_17">
    <path clip-path="url(#p0f58be5fce)" d="M 184.581818 88.945303 
L 194.855696 89.068617 
L 205.129574 89.068617 
L 215.403452 89.104886 
L 225.67733 89.249962 
L 235.951208 89.561874 
L 246.225086 89.540113 
L 256.498964 89.786741 
L 266.772842 89.960832 
L 277.04672 90.599165 
L 287.320598 90.874808 
L 297.594476 91.099675 
L 307.868354 91.527648 
L 318.142232 91.846814 
L 328.41611 93.000165 
L 338.689988 93.174256 
L 348.963867 96.576278 
L 359.237745 99.042563 
L 369.511623 101.160667 
L 379.785501 105.273559 
L 390.059379 109.234122 
L 400.333257 111.410256 
L 410.607135 108.588536 
L 420.881013 120.673332 
L 431.154891 127.049403 
L 441.428769 129.573718 
L 451.702647 133.643088 
L 461.976525 131.619284 
L 472.250403 145.39421 
L 482.524281 148.085362 
L 492.798159 156.245863 
L 503.072037 174.655954 
L 513.345915 175.874589 
L 523.619793 182.678633 
L 533.893671 188.684762 
L 544.167549 178.210305 
L 554.441427 185.210202 
L 564.715305 197.556134 
L 574.989183 213.173519 
L 585.263061 226.527726 
L 595.536939 243.458046 
L 605.810817 270.231744 
L 616.084695 252.85169 
L 626.358573 294.510142 
L 636.632451 314.167882 
L 646.906329 333.557233 
L 657.180207 341.710481 
L 667.454085 356.986939 
L 677.727963 349.305187 
L 688.001841 346.497975 
L 698.275719 353.708231 
L 708.549597 368.622 
L 718.823475 395.627819 
L 729.097353 415.242037 
L 739.371231 415.909384 
L 749.645109 417.947696 
L 759.918987 422.176649 
L 770.192865 472.111663 
L 780.466743 467.208108 
L 790.740621 464.364627 
L 801.014499 469.478541 
L 811.288377 476.217302 
L 821.562255 476.217302 
L 831.836133 476.217302 
L 842.110012 476.217302 
L 852.38389 476.217302 
L 862.657768 476.217302 
L 872.931646 476.217302 
L 883.205524 476.217302 
L 893.479402 476.217302 
L 903.75328 476.217302 
L 914.027158 476.217302 
L 924.301036 476.217302 
L 934.574914 476.217302 
L 944.848792 476.217302 
L 955.12267 476.217302 
L 965.396548 476.217302 
L 975.670426 476.217302 
L 985.944304 476.217302 
L 996.218182 476.217302 
" style="fill:none;stroke:#2ca02c;stroke-linecap:square;stroke-width:1.5;"/>
   </g>
   <g id="line2d_18">
    <path clip-path="url(#p0f58be5fce)" d="M 184.581818 89.003333 
L 194.855696 89.141155 
L 205.129574 89.424052 
L 215.403452 89.728711 
L 225.67733 89.982593 
L 235.951208 90.03337 
L 246.225086 90.664449 
L 256.498964 91.447857 
L 266.772842 92.485147 
L 277.04672 94.363876 
L 287.320598 95.488211 
L 297.594476 96.7141 
L 307.868354 97.156581 
L 318.142232 99.53582 
L 328.41611 106.550224 
L 338.689988 111.867244 
L 348.963867 120.129298 
L 359.237745 125.497095 
L 369.511623 131.307371 
L 379.785501 141.332094 
L 390.059379 148.33199 
L 400.333257 154.098745 
L 410.607135 153.728802 
L 420.881013 170.412493 
L 431.154891 171.021811 
L 441.428769 186.97287 
L 451.702647 190.374893 
L 461.976525 200.689766 
L 472.250403 208.248204 
L 482.524281 211.918616 
L 492.798159 221.471842 
L 503.072037 235.457128 
L 513.345915 243.189656 
L 523.619793 255.006062 
L 533.893671 247.520162 
L 544.167549 261.505448 
L 554.441427 272.386116 
L 564.715305 297.984702 
L 574.989183 320.580223 
L 585.263061 338.482549 
L 595.536939 356.776579 
L 605.810817 372.328681 
L 616.084695 370.326638 
L 626.358573 390.796802 
L 636.632451 399.174917 
L 646.906329 414.785049 
L 657.180207 433.63762 
L 667.454085 429.35789 
L 677.727963 438.693504 
L 688.001841 450.277789 
L 698.275719 449.291275 
L 708.549597 458.293214 
L 718.823475 468.622595 
L 729.097353 472.938594 
L 739.371231 475.143742 
L 749.645109 475.281564 
L 759.918987 476.275332 
L 770.192865 476.739574 
L 780.466743 476.812112 
L 790.740621 476.899157 
L 801.014499 476.928172 
L 811.288377 476.928172 
L 821.562255 476.928172 
L 831.836133 476.906411 
L 842.110012 476.928172 
L 852.38389 476.928172 
L 862.657768 476.928172 
L 872.931646 476.928172 
L 883.205524 476.928172 
L 893.479402 476.928172 
L 903.75328 476.928172 
L 914.027158 476.928172 
L 924.301036 476.928172 
L 934.574914 476.928172 
L 944.848792 476.928172 
L 955.12267 476.928172 
L 965.396548 476.928172 
L 975.670426 476.928172 
L 985.944304 476.928172 
L 996.218182 476.928172 
" style="fill:none;stroke:#d62728;stroke-dasharray:5.55,2.4;stroke-dashoffset:0;stroke-width:1.5;"/>
   </g>
   <g id="line2d_19">
    <path clip-path="url(#p0f58be5fce)" d="M 184.581818 88.981572 
L 194.855696 89.155663 
L 205.129574 89.569128 
L 215.403452 90.722479 
L 225.67733 92.006398 
L 235.951208 93.384616 
L 246.225086 95.14003 
L 256.498964 97.809421 
L 266.772842 98.440499 
L 277.04672 96.801145 
L 287.320598 94.646773 
L 297.594476 106.615508 
L 307.868354 156.963987 
L 318.142232 160.989834 
L 328.41611 163.949376 
L 338.689988 203.642054 
L 348.963867 188.213266 
L 359.237745 199.536415 
L 369.511623 220.920555 
L 379.785501 232.098628 
L 390.059379 348.637839 
L 400.333257 349.087574 
L 410.607135 351.162154 
L 420.881013 414.045163 
L 431.154891 426.594201 
L 441.428769 426.666738 
L 451.702647 425.585925 
L 461.976525 440.593994 
L 472.250403 416.083475 
L 482.524281 429.423174 
L 492.798159 428.059464 
L 503.072037 433.057318 
L 513.345915 436.793014 
L 523.619793 476.217302 
L 533.893671 476.217302 
L 544.167549 476.217302 
L 554.441427 476.217302 
L 564.715305 476.217302 
L 574.989183 476.217302 
L 585.263061 476.217302 
L 595.536939 476.217302 
L 605.810817 476.217302 
L 616.084695 476.217302 
L 626.358573 476.217302 
L 636.632451 476.217302 
L 646.906329 476.217302 
L 657.180207 476.217302 
L 667.454085 476.217302 
L 677.727963 476.217302 
L 688.001841 476.217302 
L 698.275719 476.217302 
L 708.549597 476.217302 
L 718.823475 476.217302 
L 729.097353 476.217302 
L 739.371231 476.217302 
L 749.645109 476.217302 
L 759.918987 476.217302 
L 770.192865 476.217302 
L 780.466743 476.217302 
L 790.740621 476.217302 
L 801.014499 476.217302 
L 811.288377 476.217302 
L 821.562255 476.217302 
L 831.836133 476.217302 
L 842.110012 476.217302 
L 852.38389 476.217302 
L 862.657768 476.217302 
L 872.931646 476.217302 
L 883.205524 476.217302 
L 893.479402 476.217302 
L 903.75328 476.217302 
L 914.027158 476.217302 
L 924.301036 476.217302 
L 934.574914 476.217302 
L 944.848792 476.217302 
L 955.12267 476.217302 
L 965.396548 476.217302 
L 975.670426 476.217302 
L 985.944304 476.217302 
L 996.218182 476.217302 
" style="fill:none;stroke:#9467bd;stroke-dasharray:5.55,2.4;stroke-dashoffset:0;stroke-width:1.5;"/>
   </g>
   <g id="line2d_20">
    <path clip-path="url(#p0f58be5fce)" d="M 184.581818 89.177424 
L 194.855696 89.191931 
L 205.129574 89.416799 
L 215.403452 89.576382 
L 225.67733 89.772234 
L 235.951208 89.837518 
L 246.225086 90.221968 
L 256.498964 90.47585 
L 266.772842 90.758748 
L 277.04672 91.077914 
L 287.320598 91.491379 
L 297.594476 91.825053 
L 307.868354 92.37634 
L 318.142232 93.18151 
L 328.41611 93.362854 
L 338.689988 94.458175 
L 348.963867 95.089254 
L 359.237745 97.062281 
L 369.511623 98.099572 
L 379.785501 98.447753 
L 390.059379 99.492297 
L 400.333257 99.818717 
L 410.607135 101.015591 
L 420.881013 104.860094 
L 431.154891 106.434164 
L 441.428769 107.369901 
L 451.702647 107.087004 
L 461.976525 112.686921 
L 472.250403 114.899324 
L 482.524281 117.213279 
L 492.798159 116.52417 
L 503.072037 117.510684 
L 513.345915 119.679564 
L 523.619793 121.260888 
L 533.893671 123.850487 
L 544.167549 123.857741 
L 554.441427 126.585161 
L 564.715305 129.399628 
L 574.989183 135.920775 
L 585.263061 143.631542 
L 595.536939 156.615806 
L 605.810817 173.060122 
L 616.084695 178.377142 
L 626.358573 182.830963 
L 636.632451 190.766597 
L 646.906329 197.403804 
L 657.180207 211.577688 
L 667.454085 217.859461 
L 677.727963 237.393887 
L 688.001841 230.901755 
L 698.275719 239.903694 
L 708.549597 254.773941 
L 718.823475 272.879373 
L 729.097353 291.318479 
L 739.371231 297.897656 
L 749.645109 322.611281 
L 759.918987 325.882735 
L 770.192865 343.959152 
L 780.466743 366.728764 
L 790.740621 377.870568 
L 801.014499 382.7306 
L 811.288377 392.994697 
L 821.562255 393.509715 
L 831.836133 407.603808 
L 842.110012 398.754197 
L 852.38389 404.11474 
L 862.657768 407.843182 
L 872.931646 424.9621 
L 883.205524 428.371376 
L 893.479402 444.902738 
L 903.75328 447.144156 
L 914.027158 456.900489 
L 924.301036 454.274621 
L 934.574914 466.80915 
L 944.848792 484.232727 
L 955.12267 482.1654 
L 965.396548 482.738449 
L 975.670426 476.217302 
L 985.944304 476.217302 
L 996.218182 476.217302 
" style="fill:none;stroke:#8c564b;stroke-linecap:square;stroke-width:1.5;"/>
   </g>
   <g id="line2d_21">
    <path clip-path="url(#p0f58be5fce)" d="M 184.581818 88.887273 
L 194.855696 89.017841 
L 205.129574 88.930795 
L 215.403452 89.155663 
L 225.67733 89.278977 
L 235.951208 89.518351 
L 246.225086 89.721457 
L 256.498964 89.772234 
L 266.772842 90.004355 
L 277.04672 89.88104 
L 287.320598 90.004355 
L 297.594476 90.178445 
L 307.868354 90.678956 
L 318.142232 90.903823 
L 328.41611 91.955621 
L 338.689988 92.405355 
L 348.963867 92.746283 
L 359.237745 93.83435 
L 369.511623 94.363876 
L 379.785501 98.88298 
L 390.059379 97.976258 
L 400.333257 102.350286 
L 410.607135 105.433142 
L 420.881013 105.752309 
L 431.154891 107.703575 
L 441.428769 107.246587 
L 451.702647 118.475437 
L 461.976525 120.571779 
L 472.250403 122.283671 
L 482.524281 128.115709 
L 492.798159 133.99127 
L 503.072037 133.918732 
L 513.345915 135.790207 
L 523.619793 132.707351 
L 533.893671 129.914646 
L 544.167549 132.932218 
L 554.441427 142.586998 
L 564.715305 156.340162 
L 574.989183 157.370199 
L 585.263061 161.584644 
L 595.536939 162.701726 
L 605.810817 160.677922 
L 616.084695 184.288972 
L 626.358573 189.613246 
L 636.632451 203.540501 
L 646.906329 217.170352 
L 657.180207 226.643787 
L 667.454085 238.895419 
L 677.727963 241.688124 
L 688.001841 245.402059 
L 698.275719 254.766687 
L 708.549597 262.049481 
L 718.823475 276.107305 
L 729.097353 295.772299 
L 739.371231 310.947204 
L 749.645109 317.279753 
L 759.918987 326.405007 
L 770.192865 325.715898 
L 780.466743 333.963445 
L 790.740621 333.774846 
L 801.014499 346.251346 
L 811.288377 359.199341 
L 821.562255 360.584813 
L 831.836133 367.58471 
L 842.110012 398.384255 
L 852.38389 402.497147 
L 862.657768 389.259001 
L 872.931646 408.30017 
L 883.205524 406.443203 
L 893.479402 389.244493 
L 903.75328 398.406016 
L 914.027158 411.06386 
L 924.301036 439.883123 
L 934.574914 447.310993 
L 944.848792 454.194829 
L 955.12267 458.416528 
L 965.396548 464.894153 
L 975.670426 467.157332 
L 985.944304 464.683793 
L 996.218182 470.16765 
" style="fill:none;stroke:#e377c2;stroke-linecap:square;stroke-width:1.5;"/>
   </g>
   <g id="line2d_22">
    <path clip-path="url(#p0f58be5fce)" d="M 184.581818 88.909034 
L 194.855696 89.017841 
L 205.129574 88.988826 
L 215.403452 88.988826 
L 225.67733 89.155663 
L 235.951208 89.445814 
L 246.225086 89.627158 
L 256.498964 89.815756 
L 266.772842 90.018862 
L 277.04672 90.294506 
L 287.320598 90.243729 
L 297.594476 90.367044 
L 307.868354 90.47585 
L 318.142232 91.244751 
L 328.41611 91.984636 
L 338.689988 92.506908 
L 348.963867 92.347325 
L 359.237745 92.775298 
L 369.511623 94.494444 
L 379.785501 95.103761 
L 390.059379 96.112036 
L 400.333257 96.92446 
L 410.607135 96.496487 
L 420.881013 97.149327 
L 431.154891 100.652902 
L 441.428769 102.350286 
L 451.702647 102.016612 
L 461.976525 104.033163 
L 472.250403 107.892173 
L 482.524281 112.302471 
L 492.798159 116.611215 
L 503.072037 120.586286 
L 513.345915 122.029788 
L 523.619793 140.599462 
L 533.893671 145.633585 
L 544.167549 170.985542 
L 554.441427 181.459998 
L 564.715305 192.848431 
L 574.989183 227.325642 
L 585.263061 290.041814 
L 595.536939 303.882024 
L 605.810817 298.020971 
L 616.084695 298.956708 
L 626.358573 305.06439 
L 636.632451 313.31919 
L 646.906329 334.043236 
L 657.180207 322.712834 
L 667.454085 328.972845 
L 677.727963 343.995421 
L 688.001841 366.424105 
L 698.275719 371.00124 
L 708.549597 370.819895 
L 718.823475 379.495415 
L 729.097353 392.581232 
L 739.371231 401.50338 
L 749.645109 401.394573 
L 759.918987 393.42267 
L 770.192865 390.499397 
L 780.466743 384.130579 
L 790.740621 384.029026 
L 801.014499 381.874654 
L 811.288377 386.785462 
L 821.562255 386.306713 
L 831.836133 386.14713 
L 842.110012 393.248579 
L 852.38389 411.564371 
L 862.657768 413.094918 
L 872.931646 428.095733 
L 883.205524 437.358808 
L 893.479402 433.449022 
L 903.75328 437.199225 
L 914.027158 437.010627 
L 924.301036 444.605333 
L 934.574914 449.240498 
L 944.848792 476.217302 
L 955.12267 476.217302 
L 965.396548 476.217302 
L 975.670426 476.217302 
L 985.944304 476.217302 
L 996.218182 476.217302 
" style="fill:none;stroke:#7f7f7f;stroke-linecap:square;stroke-width:1.5;"/>
   </g>
   <g id="line2d_23">
    <path clip-path="url(#p0f58be5fce)" d="M 184.581818 88.909034 
L 194.855696 88.909034 
L 205.129574 88.938049 
L 215.403452 88.974318 
L 225.67733 89.293484 
L 235.951208 89.307992 
L 246.225086 89.424052 
L 256.498964 89.532859 
L 266.772842 89.946324 
L 277.04672 89.960832 
L 287.320598 90.236476 
L 297.594476 90.294506 
L 307.868354 90.555642 
L 318.142232 91.39708 
L 328.41611 91.636455 
L 338.689988 92.282041 
L 348.963867 92.427117 
L 359.237745 92.688253 
L 369.511623 93.348347 
L 379.785501 93.609483 
L 390.059379 95.111015 
L 400.333257 95.161791 
L 410.607135 96.569025 
L 420.881013 97.279895 
L 431.154891 98.82495 
L 441.428769 101.298488 
L 451.702647 102.444585 
L 461.976525 103.481876 
L 472.250403 104.250776 
L 482.524281 107.094258 
L 492.798159 108.146056 
L 503.072037 114.543888 
L 513.345915 114.514873 
L 523.619793 116.915874 
L 533.893671 119.889924 
L 544.167549 122.668121 
L 554.441427 131.118773 
L 564.715305 138.488612 
L 574.989183 145.379702 
L 585.263061 141.230541 
L 595.536939 146.148603 
L 605.810817 150.210719 
L 616.084695 156.862434 
L 626.358573 161.649928 
L 636.632451 173.575141 
L 646.906329 184.673422 
L 657.180207 199.318802 
L 667.454085 218.925766 
L 677.727963 218.026297 
L 688.001841 221.334021 
L 698.275719 236.044684 
L 708.549597 241.122329 
L 718.823475 261.781091 
L 729.097353 264.450482 
L 739.371231 276.644084 
L 749.645109 275.788138 
L 759.918987 296.105973 
L 770.192865 300.857198 
L 780.466743 308.0602 
L 790.740621 320.26831 
L 801.014499 336.001757 
L 811.288377 339.193419 
L 821.562255 338.293951 
L 831.836133 343.872107 
L 842.110012 339.788229 
L 852.38389 355.260539 
L 862.657768 366.714256 
L 872.931646 368.672777 
L 883.205524 372.778415 
L 893.479402 381.715071 
L 903.75328 386.401012 
L 914.027158 396.78117 
L 924.301036 413.421338 
L 934.574914 422.118619 
L 944.848792 415.887623 
L 955.12267 438.062425 
L 965.396548 429.822132 
L 975.670426 437.743259 
L 985.944304 427.334086 
L 996.218182 436.183696 
" style="fill:none;stroke:#bcbd22;stroke-dasharray:5.55,2.4;stroke-dashoffset:0;stroke-width:1.5;"/>
   </g>
   <g id="line2d_24">
    <path clip-path="url(#p0f58be5fce)" d="M 184.581818 88.909034 
L 194.855696 88.996079 
L 205.129574 88.952557 
L 215.403452 89.010587 
L 225.67733 89.075871 
L 235.951208 89.2282 
L 246.225086 89.424052 
L 256.498964 89.525605 
L 266.772842 89.605397 
L 277.04672 89.663427 
L 287.320598 89.670681 
L 297.594476 89.82301 
L 307.868354 90.084146 
L 318.142232 90.388805 
L 328.41611 90.599165 
L 338.689988 90.853047 
L 348.963867 91.114183 
L 359.237745 91.114183 
L 369.511623 91.767023 
L 379.785501 91.955621 
L 390.059379 92.31831 
L 400.333257 92.543177 
L 410.607135 93.812589 
L 420.881013 94.712057 
L 431.154891 95.908931 
L 441.428769 96.38768 
L 451.702647 96.133798 
L 461.976525 96.989744 
L 472.250403 98.607336 
L 482.524281 101.508848 
L 492.798159 102.792767 
L 503.072037 105.0632 
L 513.345915 105.0632 
L 523.619793 108.86418 
L 533.893671 116.988412 
L 544.167549 118.823618 
L 554.441427 117.525192 
L 564.715305 122.718897 
L 574.989183 125.381034 
L 585.263061 124.075354 
L 595.536939 126.106412 
L 605.810817 129.348851 
L 616.084695 134.789185 
L 626.358573 138.82954 
L 636.632451 140.94039 
L 646.906329 146.902996 
L 657.180207 151.081173 
L 667.454085 158.247906 
L 677.727963 164.036422 
L 688.001841 165.74106 
L 698.275719 168.961737 
L 708.549597 175.519153 
L 718.823475 193.443241 
L 729.097353 185.928326 
L 739.371231 196.272215 
L 749.645109 193.414226 
L 759.918987 205.890725 
L 770.192865 211.947631 
L 780.466743 229.900733 
L 790.740621 232.127644 
L 801.014499 247.026905 
L 811.288377 243.124372 
L 821.562255 247.070428 
L 831.836133 266.292942 
L 842.110012 276.528024 
L 852.38389 282.084418 
L 862.657768 306.841566 
L 872.931646 321.095241 
L 883.205524 335.733367 
L 893.479402 339.440048 
L 903.75328 360.505022 
L 914.027158 366.032401 
L 924.301036 388.243472 
L 934.574914 386.045577 
L 944.848792 396.824692 
L 955.12267 431.309157 
L 965.396548 437.511138 
L 975.670426 431.185843 
L 985.944304 422.212918 
L 996.218182 455.449733 
" style="fill:none;stroke:#17becf;stroke-dasharray:5.55,2.4;stroke-dashoffset:0;stroke-width:1.5;"/>
   </g>
   <g id="line2d_25">
    <path clip-path="url(#p0f58be5fce)" d="M 184.581818 88.959811 
L 194.855696 89.191931 
L 205.129574 89.191931 
L 215.403452 89.97534 
L 225.67733 90.947346 
L 235.951208 91.650962 
L 246.225086 92.543177 
L 256.498964 93.957664 
L 266.772842 94.204293 
L 277.04672 93.587721 
L 287.320598 94.54522 
L 297.594476 101.726461 
L 307.868354 107.449693 
L 318.142232 116.487901 
L 328.41611 124.496073 
L 338.689988 140.439879 
L 348.963867 161.396046 
L 359.237745 162.469605 
L 369.511623 168.635317 
L 379.785501 170.289179 
L 390.059379 176.578205 
L 400.333257 181.111817 
L 410.607135 188.7573 
L 420.881013 196.526097 
L 431.154891 209.111403 
L 441.428769 282.933111 
L 451.702647 285.152767 
L 461.976525 295.191997 
L 472.250403 310.475709 
L 482.524281 333.564487 
L 492.798159 333.383142 
L 503.072037 376.194945 
L 513.345915 434.638641 
L 523.619793 434.40652 
L 533.893671 434.725687 
L 544.167549 434.740194 
L 554.441427 434.580611 
L 564.715305 434.254191 
L 574.989183 434.0801 
L 585.263061 434.051085 
L 595.536939 434.058339 
L 605.810817 436.539131 
L 616.084695 436.256234 
L 626.358573 435.131898 
L 636.632451 434.392013 
L 646.906329 434.486312 
L 657.180207 434.645895 
L 667.454085 433.913263 
L 677.727963 433.920517 
L 688.001841 434.914285 
L 698.275719 434.254191 
L 708.549597 434.123623 
L 718.823475 433.96404 
L 729.097353 433.48529 
L 739.371231 433.615859 
L 749.645109 476.217302 
L 759.918987 476.217302 
L 770.192865 476.217302 
L 780.466743 476.217302 
L 790.740621 476.217302 
L 801.014499 476.217302 
L 811.288377 476.217302 
L 821.562255 476.217302 
L 831.836133 476.217302 
L 842.110012 476.217302 
L 852.38389 476.217302 
L 862.657768 476.217302 
L 872.931646 476.217302 
L 883.205524 476.217302 
L 893.479402 476.217302 
L 903.75328 476.217302 
L 914.027158 476.217302 
L 924.301036 476.217302 
L 934.574914 476.217302 
L 944.848792 476.217302 
L 955.12267 476.217302 
L 965.396548 476.217302 
L 975.670426 476.217302 
L 985.944304 476.217302 
L 996.218182 476.217302 
" style="fill:none;stroke:#1f77b4;stroke-dasharray:5.55,2.4;stroke-dashoffset:0;stroke-width:1.5;"/>
   </g>
   <g id="patch_3">
    <path d="M 144 504 
L 144 69.12 
" style="fill:none;stroke:#000000;stroke-linecap:square;stroke-linejoin:miter;stroke-width:0.8;"/>
   </g>
   <g id="patch_4">
    <path d="M 1036.8 504 
L 1036.8 69.12 
" style="fill:none;stroke:#000000;stroke-linecap:square;stroke-linejoin:miter;stroke-width:0.8;"/>
   </g>
   <g id="patch_5">
    <path d="M 144 504 
L 1036.8 504 
" style="fill:none;stroke:#000000;stroke-linecap:square;stroke-linejoin:miter;stroke-width:0.8;"/>
   </g>
   <g id="patch_6">
    <path d="M 144 69.12 
L 1036.8 69.12 
" style="fill:none;stroke:#000000;stroke-linecap:square;stroke-linejoin:miter;stroke-width:0.8;"/>
   </g>
   <g id="legend_1">
    <g id="patch_7">
     <path d="M 879.920312 240.52625 
L 1029.8 240.52625 
Q 1031.8 240.52625 1031.8 238.52625 
L 1031.8 76.12 
Q 1031.8 74.12 1029.8 74.12 
L 879.920312 74.12 
Q 877.920312 74.12 877.920312 76.12 
L 877.920312 238.52625 
Q 877.920312 240.52625 879.920312 240.52625 
z
" style="fill:#ffffff;opacity:0.8;stroke:#cccccc;stroke-linejoin:miter;"/>
    </g>
    <g id="line2d_26">
     <path d="M 881.920312 82.218437 
L 901.920312 82.218437 
" style="fill:none;stroke:#1f77b4;stroke-linecap:square;stroke-width:1.5;"/>
    </g>
    <g id="line2d_27"/>
    <g id="text_17">
     <!-- taylorfo noBN -->
     <defs>
      <path d="M 18.3125 70.21875 
L 18.3125 54.6875 
L 36.8125 54.6875 
L 36.8125 47.703125 
L 18.3125 47.703125 
L 18.3125 18.015625 
Q 18.3125 11.328125 20.140625 9.421875 
Q 21.96875 7.515625 27.59375 7.515625 
L 36.8125 7.515625 
L 36.8125 0 
L 27.59375 0 
Q 17.1875 0 13.234375 3.875 
Q 9.28125 7.765625 9.28125 18.015625 
L 9.28125 47.703125 
L 2.6875 47.703125 
L 2.6875 54.6875 
L 9.28125 54.6875 
L 9.28125 70.21875 
z
" id="DejaVuSans-116"/>
      <path d="M 9.421875 75.984375 
L 18.40625 75.984375 
L 18.40625 0 
L 9.421875 0 
z
" id="DejaVuSans-108"/>
      <path d="M 19.671875 34.8125 
L 19.671875 8.109375 
L 35.5 8.109375 
Q 43.453125 8.109375 47.28125 11.40625 
Q 51.125 14.703125 51.125 21.484375 
Q 51.125 28.328125 47.28125 31.5625 
Q 43.453125 34.8125 35.5 34.8125 
z
M 19.671875 64.796875 
L 19.671875 42.828125 
L 34.28125 42.828125 
Q 41.5 42.828125 45.03125 45.53125 
Q 48.578125 48.25 48.578125 53.8125 
Q 48.578125 59.328125 45.03125 62.0625 
Q 41.5 64.796875 34.28125 64.796875 
z
M 9.8125 72.90625 
L 35.015625 72.90625 
Q 46.296875 72.90625 52.390625 68.21875 
Q 58.5 63.53125 58.5 54.890625 
Q 58.5 48.1875 55.375 44.234375 
Q 52.25 40.28125 46.1875 39.3125 
Q 53.46875 37.75 57.5 32.78125 
Q 61.53125 27.828125 61.53125 20.40625 
Q 61.53125 10.640625 54.890625 5.3125 
Q 48.25 0 35.984375 0 
L 9.8125 0 
z
" id="DejaVuSans-66"/>
     </defs>
     <g transform="translate(909.920312 85.718437)scale(0.1 -0.1)">
      <use xlink:href="#DejaVuSans-116"/>
      <use x="39.208984" xlink:href="#DejaVuSans-97"/>
      <use x="100.488281" xlink:href="#DejaVuSans-121"/>
      <use x="159.667969" xlink:href="#DejaVuSans-108"/>
      <use x="187.451172" xlink:href="#DejaVuSans-111"/>
      <use x="248.632812" xlink:href="#DejaVuSans-114"/>
      <use x="289.746094" xlink:href="#DejaVuSans-102"/>
      <use x="324.951172" xlink:href="#DejaVuSans-111"/>
      <use x="386.132812" xlink:href="#DejaVuSans-32"/>
      <use x="417.919922" xlink:href="#DejaVuSans-110"/>
      <use x="481.298828" xlink:href="#DejaVuSans-111"/>
      <use x="542.480469" xlink:href="#DejaVuSans-66"/>
      <use x="611.083984" xlink:href="#DejaVuSans-78"/>
     </g>
    </g>
    <g id="line2d_28">
     <path d="M 881.920312 96.896563 
L 901.920312 96.896563 
" style="fill:none;stroke:#ff7f0e;stroke-linecap:square;stroke-width:1.5;"/>
    </g>
    <g id="line2d_29"/>
    <g id="text_18">
     <!-- taylorfo_abs noBN -->
     <defs>
      <path d="M 50.984375 -16.609375 
L 50.984375 -23.578125 
L -0.984375 -23.578125 
L -0.984375 -16.609375 
z
" id="DejaVuSans-95"/>
     </defs>
     <g transform="translate(909.920312 100.396563)scale(0.1 -0.1)">
      <use xlink:href="#DejaVuSans-116"/>
      <use x="39.208984" xlink:href="#DejaVuSans-97"/>
      <use x="100.488281" xlink:href="#DejaVuSans-121"/>
      <use x="159.667969" xlink:href="#DejaVuSans-108"/>
      <use x="187.451172" xlink:href="#DejaVuSans-111"/>
      <use x="248.632812" xlink:href="#DejaVuSans-114"/>
      <use x="289.746094" xlink:href="#DejaVuSans-102"/>
      <use x="324.951172" xlink:href="#DejaVuSans-111"/>
      <use x="386.132812" xlink:href="#DejaVuSans-95"/>
      <use x="436.132812" xlink:href="#DejaVuSans-97"/>
      <use x="497.412109" xlink:href="#DejaVuSans-98"/>
      <use x="560.888672" xlink:href="#DejaVuSans-115"/>
      <use x="612.988281" xlink:href="#DejaVuSans-32"/>
      <use x="644.775391" xlink:href="#DejaVuSans-110"/>
      <use x="708.154297" xlink:href="#DejaVuSans-111"/>
      <use x="769.335938" xlink:href="#DejaVuSans-66"/>
      <use x="837.939453" xlink:href="#DejaVuSans-78"/>
     </g>
    </g>
    <g id="line2d_30">
     <path d="M 881.920312 111.852813 
L 901.920312 111.852813 
" style="fill:none;stroke:#2ca02c;stroke-linecap:square;stroke-width:1.5;"/>
    </g>
    <g id="line2d_31"/>
    <g id="text_19">
     <!-- taylorfo_sq noBN -->
     <defs>
      <path d="M 14.796875 27.296875 
Q 14.796875 17.390625 18.875 11.75 
Q 22.953125 6.109375 30.078125 6.109375 
Q 37.203125 6.109375 41.296875 11.75 
Q 45.40625 17.390625 45.40625 27.296875 
Q 45.40625 37.203125 41.296875 42.84375 
Q 37.203125 48.484375 30.078125 48.484375 
Q 22.953125 48.484375 18.875 42.84375 
Q 14.796875 37.203125 14.796875 27.296875 
z
M 45.40625 8.203125 
Q 42.578125 3.328125 38.25 0.953125 
Q 33.9375 -1.421875 27.875 -1.421875 
Q 17.96875 -1.421875 11.734375 6.484375 
Q 5.515625 14.40625 5.515625 27.296875 
Q 5.515625 40.1875 11.734375 48.09375 
Q 17.96875 56 27.875 56 
Q 33.9375 56 38.25 53.625 
Q 42.578125 51.265625 45.40625 46.390625 
L 45.40625 54.6875 
L 54.390625 54.6875 
L 54.390625 -20.796875 
L 45.40625 -20.796875 
z
" id="DejaVuSans-113"/>
     </defs>
     <g transform="translate(909.920312 115.352813)scale(0.1 -0.1)">
      <use xlink:href="#DejaVuSans-116"/>
      <use x="39.208984" xlink:href="#DejaVuSans-97"/>
      <use x="100.488281" xlink:href="#DejaVuSans-121"/>
      <use x="159.667969" xlink:href="#DejaVuSans-108"/>
      <use x="187.451172" xlink:href="#DejaVuSans-111"/>
      <use x="248.632812" xlink:href="#DejaVuSans-114"/>
      <use x="289.746094" xlink:href="#DejaVuSans-102"/>
      <use x="324.951172" xlink:href="#DejaVuSans-111"/>
      <use x="386.132812" xlink:href="#DejaVuSans-95"/>
      <use x="436.132812" xlink:href="#DejaVuSans-115"/>
      <use x="488.232422" xlink:href="#DejaVuSans-113"/>
      <use x="551.708984" xlink:href="#DejaVuSans-32"/>
      <use x="583.496094" xlink:href="#DejaVuSans-110"/>
      <use x="646.875" xlink:href="#DejaVuSans-111"/>
      <use x="708.056641" xlink:href="#DejaVuSans-66"/>
      <use x="776.660156" xlink:href="#DejaVuSans-78"/>
     </g>
    </g>
    <g id="line2d_32">
     <path d="M 881.920312 126.809062 
L 901.920312 126.809062 
" style="fill:none;stroke:#d62728;stroke-dasharray:5.55,2.4;stroke-dashoffset:0;stroke-width:1.5;"/>
    </g>
    <g id="line2d_33"/>
    <g id="text_20">
     <!-- Molchanov_group noBN -->
     <defs>
      <path d="M 9.8125 72.90625 
L 24.515625 72.90625 
L 43.109375 23.296875 
L 61.8125 72.90625 
L 76.515625 72.90625 
L 76.515625 0 
L 66.890625 0 
L 66.890625 64.015625 
L 48.09375 14.015625 
L 38.1875 14.015625 
L 19.390625 64.015625 
L 19.390625 0 
L 9.8125 0 
z
" id="DejaVuSans-77"/>
      <path d="M 54.890625 33.015625 
L 54.890625 0 
L 45.90625 0 
L 45.90625 32.71875 
Q 45.90625 40.484375 42.875 44.328125 
Q 39.84375 48.1875 33.796875 48.1875 
Q 26.515625 48.1875 22.3125 43.546875 
Q 18.109375 38.921875 18.109375 30.90625 
L 18.109375 0 
L 9.078125 0 
L 9.078125 75.984375 
L 18.109375 75.984375 
L 18.109375 46.1875 
Q 21.34375 51.125 25.703125 53.5625 
Q 30.078125 56 35.796875 56 
Q 45.21875 56 50.046875 50.171875 
Q 54.890625 44.34375 54.890625 33.015625 
z
" id="DejaVuSans-104"/>
      <path d="M 2.984375 54.6875 
L 12.5 54.6875 
L 29.59375 8.796875 
L 46.6875 54.6875 
L 56.203125 54.6875 
L 35.6875 0 
L 23.484375 0 
z
" id="DejaVuSans-118"/>
      <path d="M 45.40625 27.984375 
Q 45.40625 37.75 41.375 43.109375 
Q 37.359375 48.484375 30.078125 48.484375 
Q 22.859375 48.484375 18.828125 43.109375 
Q 14.796875 37.75 14.796875 27.984375 
Q 14.796875 18.265625 18.828125 12.890625 
Q 22.859375 7.515625 30.078125 7.515625 
Q 37.359375 7.515625 41.375 12.890625 
Q 45.40625 18.265625 45.40625 27.984375 
z
M 54.390625 6.78125 
Q 54.390625 -7.171875 48.1875 -13.984375 
Q 42 -20.796875 29.203125 -20.796875 
Q 24.46875 -20.796875 20.265625 -20.09375 
Q 16.0625 -19.390625 12.109375 -17.921875 
L 12.109375 -9.1875 
Q 16.0625 -11.328125 19.921875 -12.34375 
Q 23.78125 -13.375 27.78125 -13.375 
Q 36.625 -13.375 41.015625 -8.765625 
Q 45.40625 -4.15625 45.40625 5.171875 
L 45.40625 9.625 
Q 42.625 4.78125 38.28125 2.390625 
Q 33.9375 0 27.875 0 
Q 17.828125 0 11.671875 7.65625 
Q 5.515625 15.328125 5.515625 27.984375 
Q 5.515625 40.671875 11.671875 48.328125 
Q 17.828125 56 27.875 56 
Q 33.9375 56 38.28125 53.609375 
Q 42.625 51.21875 45.40625 46.390625 
L 45.40625 54.6875 
L 54.390625 54.6875 
z
" id="DejaVuSans-103"/>
     </defs>
     <g transform="translate(909.920312 130.309062)scale(0.1 -0.1)">
      <use xlink:href="#DejaVuSans-77"/>
      <use x="86.279297" xlink:href="#DejaVuSans-111"/>
      <use x="147.460938" xlink:href="#DejaVuSans-108"/>
      <use x="175.244141" xlink:href="#DejaVuSans-99"/>
      <use x="230.224609" xlink:href="#DejaVuSans-104"/>
      <use x="293.603516" xlink:href="#DejaVuSans-97"/>
      <use x="354.882812" xlink:href="#DejaVuSans-110"/>
      <use x="418.261719" xlink:href="#DejaVuSans-111"/>
      <use x="479.443359" xlink:href="#DejaVuSans-118"/>
      <use x="538.623047" xlink:href="#DejaVuSans-95"/>
      <use x="588.623047" xlink:href="#DejaVuSans-103"/>
      <use x="652.099609" xlink:href="#DejaVuSans-114"/>
      <use x="690.962891" xlink:href="#DejaVuSans-111"/>
      <use x="752.144531" xlink:href="#DejaVuSans-117"/>
      <use x="815.523438" xlink:href="#DejaVuSans-112"/>
      <use x="879" xlink:href="#DejaVuSans-32"/>
      <use x="910.787109" xlink:href="#DejaVuSans-110"/>
      <use x="974.166016" xlink:href="#DejaVuSans-111"/>
      <use x="1035.347656" xlink:href="#DejaVuSans-66"/>
      <use x="1103.951172" xlink:href="#DejaVuSans-78"/>
     </g>
    </g>
    <g id="line2d_34">
     <path d="M 881.920312 141.765312 
L 901.920312 141.765312 
" style="fill:none;stroke:#9467bd;stroke-dasharray:5.55,2.4;stroke-dashoffset:0;stroke-width:1.5;"/>
    </g>
    <g id="line2d_35"/>
    <g id="text_21">
     <!-- APnZ noBN -->
     <defs>
      <path d="M 19.671875 64.796875 
L 19.671875 37.40625 
L 32.078125 37.40625 
Q 38.96875 37.40625 42.71875 40.96875 
Q 46.484375 44.53125 46.484375 51.125 
Q 46.484375 57.671875 42.71875 61.234375 
Q 38.96875 64.796875 32.078125 64.796875 
z
M 9.8125 72.90625 
L 32.078125 72.90625 
Q 44.34375 72.90625 50.609375 67.359375 
Q 56.890625 61.8125 56.890625 51.125 
Q 56.890625 40.328125 50.609375 34.8125 
Q 44.34375 29.296875 32.078125 29.296875 
L 19.671875 29.296875 
L 19.671875 0 
L 9.8125 0 
z
" id="DejaVuSans-80"/>
      <path d="M 5.609375 72.90625 
L 62.890625 72.90625 
L 62.890625 65.375 
L 16.796875 8.296875 
L 64.015625 8.296875 
L 64.015625 0 
L 4.5 0 
L 4.5 7.515625 
L 50.59375 64.59375 
L 5.609375 64.59375 
z
" id="DejaVuSans-90"/>
     </defs>
     <g transform="translate(909.920312 145.265312)scale(0.1 -0.1)">
      <use xlink:href="#DejaVuSans-65"/>
      <use x="68.408203" xlink:href="#DejaVuSans-80"/>
      <use x="126.960938" xlink:href="#DejaVuSans-110"/>
      <use x="190.339844" xlink:href="#DejaVuSans-90"/>
      <use x="258.845703" xlink:href="#DejaVuSans-32"/>
      <use x="290.632812" xlink:href="#DejaVuSans-110"/>
      <use x="354.011719" xlink:href="#DejaVuSans-111"/>
      <use x="415.193359" xlink:href="#DejaVuSans-66"/>
      <use x="483.796875" xlink:href="#DejaVuSans-78"/>
     </g>
    </g>
    <g id="line2d_36">
     <path d="M 881.920312 156.443438 
L 901.920312 156.443438 
" style="fill:none;stroke:#8c564b;stroke-linecap:square;stroke-width:1.5;"/>
    </g>
    <g id="line2d_37"/>
    <g id="text_22">
     <!-- taylorfo BN -->
     <g transform="translate(909.920312 159.943438)scale(0.1 -0.1)">
      <use xlink:href="#DejaVuSans-116"/>
      <use x="39.208984" xlink:href="#DejaVuSans-97"/>
      <use x="100.488281" xlink:href="#DejaVuSans-121"/>
      <use x="159.667969" xlink:href="#DejaVuSans-108"/>
      <use x="187.451172" xlink:href="#DejaVuSans-111"/>
      <use x="248.632812" xlink:href="#DejaVuSans-114"/>
      <use x="289.746094" xlink:href="#DejaVuSans-102"/>
      <use x="324.951172" xlink:href="#DejaVuSans-111"/>
      <use x="386.132812" xlink:href="#DejaVuSans-32"/>
      <use x="417.919922" xlink:href="#DejaVuSans-66"/>
      <use x="486.523438" xlink:href="#DejaVuSans-78"/>
     </g>
    </g>
    <g id="line2d_38">
     <path d="M 881.920312 171.121562 
L 901.920312 171.121562 
" style="fill:none;stroke:#e377c2;stroke-linecap:square;stroke-width:1.5;"/>
    </g>
    <g id="line2d_39"/>
    <g id="text_23">
     <!-- taylorfo_abs BN -->
     <g transform="translate(909.920312 174.621562)scale(0.1 -0.1)">
      <use xlink:href="#DejaVuSans-116"/>
      <use x="39.208984" xlink:href="#DejaVuSans-97"/>
      <use x="100.488281" xlink:href="#DejaVuSans-121"/>
      <use x="159.667969" xlink:href="#DejaVuSans-108"/>
      <use x="187.451172" xlink:href="#DejaVuSans-111"/>
      <use x="248.632812" xlink:href="#DejaVuSans-114"/>
      <use x="289.746094" xlink:href="#DejaVuSans-102"/>
      <use x="324.951172" xlink:href="#DejaVuSans-111"/>
      <use x="386.132812" xlink:href="#DejaVuSans-95"/>
      <use x="436.132812" xlink:href="#DejaVuSans-97"/>
      <use x="497.412109" xlink:href="#DejaVuSans-98"/>
      <use x="560.888672" xlink:href="#DejaVuSans-115"/>
      <use x="612.988281" xlink:href="#DejaVuSans-32"/>
      <use x="644.775391" xlink:href="#DejaVuSans-66"/>
      <use x="713.378906" xlink:href="#DejaVuSans-78"/>
     </g>
    </g>
    <g id="line2d_40">
     <path d="M 881.920312 186.077812 
L 901.920312 186.077812 
" style="fill:none;stroke:#7f7f7f;stroke-linecap:square;stroke-width:1.5;"/>
    </g>
    <g id="line2d_41"/>
    <g id="text_24">
     <!-- taylorfo_sq BN -->
     <g transform="translate(909.920312 189.577812)scale(0.1 -0.1)">
      <use xlink:href="#DejaVuSans-116"/>
      <use x="39.208984" xlink:href="#DejaVuSans-97"/>
      <use x="100.488281" xlink:href="#DejaVuSans-121"/>
      <use x="159.667969" xlink:href="#DejaVuSans-108"/>
      <use x="187.451172" xlink:href="#DejaVuSans-111"/>
      <use x="248.632812" xlink:href="#DejaVuSans-114"/>
      <use x="289.746094" xlink:href="#DejaVuSans-102"/>
      <use x="324.951172" xlink:href="#DejaVuSans-111"/>
      <use x="386.132812" xlink:href="#DejaVuSans-95"/>
      <use x="436.132812" xlink:href="#DejaVuSans-115"/>
      <use x="488.232422" xlink:href="#DejaVuSans-113"/>
      <use x="551.708984" xlink:href="#DejaVuSans-32"/>
      <use x="583.496094" xlink:href="#DejaVuSans-66"/>
      <use x="652.099609" xlink:href="#DejaVuSans-78"/>
     </g>
    </g>
    <g id="line2d_42">
     <path d="M 881.920312 201.034063 
L 901.920312 201.034063 
" style="fill:none;stroke:#bcbd22;stroke-dasharray:5.55,2.4;stroke-dashoffset:0;stroke-width:1.5;"/>
    </g>
    <g id="line2d_43"/>
    <g id="text_25">
     <!-- Molchanov_group BN -->
     <g transform="translate(909.920312 204.534063)scale(0.1 -0.1)">
      <use xlink:href="#DejaVuSans-77"/>
      <use x="86.279297" xlink:href="#DejaVuSans-111"/>
      <use x="147.460938" xlink:href="#DejaVuSans-108"/>
      <use x="175.244141" xlink:href="#DejaVuSans-99"/>
      <use x="230.224609" xlink:href="#DejaVuSans-104"/>
      <use x="293.603516" xlink:href="#DejaVuSans-97"/>
      <use x="354.882812" xlink:href="#DejaVuSans-110"/>
      <use x="418.261719" xlink:href="#DejaVuSans-111"/>
      <use x="479.443359" xlink:href="#DejaVuSans-118"/>
      <use x="538.623047" xlink:href="#DejaVuSans-95"/>
      <use x="588.623047" xlink:href="#DejaVuSans-103"/>
      <use x="652.099609" xlink:href="#DejaVuSans-114"/>
      <use x="690.962891" xlink:href="#DejaVuSans-111"/>
      <use x="752.144531" xlink:href="#DejaVuSans-117"/>
      <use x="815.523438" xlink:href="#DejaVuSans-112"/>
      <use x="879" xlink:href="#DejaVuSans-32"/>
      <use x="910.787109" xlink:href="#DejaVuSans-66"/>
      <use x="979.390625" xlink:href="#DejaVuSans-78"/>
     </g>
    </g>
    <g id="line2d_44">
     <path d="M 881.920312 215.990312 
L 901.920312 215.990312 
" style="fill:none;stroke:#17becf;stroke-dasharray:5.55,2.4;stroke-dashoffset:0;stroke-width:1.5;"/>
    </g>
    <g id="line2d_45"/>
    <g id="text_26">
     <!-- Molchanov_BN BN -->
     <g transform="translate(909.920312 219.490312)scale(0.1 -0.1)">
      <use xlink:href="#DejaVuSans-77"/>
      <use x="86.279297" xlink:href="#DejaVuSans-111"/>
      <use x="147.460938" xlink:href="#DejaVuSans-108"/>
      <use x="175.244141" xlink:href="#DejaVuSans-99"/>
      <use x="230.224609" xlink:href="#DejaVuSans-104"/>
      <use x="293.603516" xlink:href="#DejaVuSans-97"/>
      <use x="354.882812" xlink:href="#DejaVuSans-110"/>
      <use x="418.261719" xlink:href="#DejaVuSans-111"/>
      <use x="479.443359" xlink:href="#DejaVuSans-118"/>
      <use x="538.623047" xlink:href="#DejaVuSans-95"/>
      <use x="588.623047" xlink:href="#DejaVuSans-66"/>
      <use x="657.226562" xlink:href="#DejaVuSans-78"/>
      <use x="732.03125" xlink:href="#DejaVuSans-32"/>
      <use x="763.818359" xlink:href="#DejaVuSans-66"/>
      <use x="832.421875" xlink:href="#DejaVuSans-78"/>
     </g>
    </g>
    <g id="line2d_46">
     <path d="M 881.920312 230.946563 
L 901.920312 230.946563 
" style="fill:none;stroke:#1f77b4;stroke-dasharray:5.55,2.4;stroke-dashoffset:0;stroke-width:1.5;"/>
    </g>
    <g id="line2d_47"/>
    <g id="text_27">
     <!-- APnZ BN -->
     <g transform="translate(909.920312 234.446563)scale(0.1 -0.1)">
      <use xlink:href="#DejaVuSans-65"/>
      <use x="68.408203" xlink:href="#DejaVuSans-80"/>
      <use x="126.960938" xlink:href="#DejaVuSans-110"/>
      <use x="190.339844" xlink:href="#DejaVuSans-90"/>
      <use x="258.845703" xlink:href="#DejaVuSans-32"/>
      <use x="290.632812" xlink:href="#DejaVuSans-66"/>
      <use x="359.236328" xlink:href="#DejaVuSans-78"/>
     </g>
    </g>
   </g>
  </g>
 </g>
 <defs>
  <clipPath id="p0f58be5fce">
   <rect height="434.88" width="892.8" x="144" y="69.12"/>
  </clipPath>
 </defs>
</svg>
