<?xml version="1.0" encoding="utf-8" standalone="no"?>
<!DOCTYPE svg PUBLIC "-//W3C//DTD SVG 1.1//EN"
  "http://www.w3.org/Graphics/SVG/1.1/DTD/svg11.dtd">
<!-- Created with matplotlib (https://matplotlib.org/) -->
<svg height="576pt" version="1.1" viewBox="0 0 1152 576" width="1152pt" xmlns="http://www.w3.org/2000/svg" xmlns:xlink="http://www.w3.org/1999/xlink">
 <defs>
  <style type="text/css">
*{stroke-linecap:butt;stroke-linejoin:round;}
  </style>
 </defs>
 <g id="figure_1">
  <g id="patch_1">
   <path d="M 0 576 
L 1152 576 
L 1152 0 
L 0 0 
z
" style="fill:#ffffff;"/>
  </g>
  <g id="axes_1">
   <g id="patch_2">
    <path d="M 144 504 
L 1036.8 504 
L 1036.8 69.12 
L 144 69.12 
z
" style="fill:#ffffff;"/>
   </g>
   <g id="matplotlib.axis_1">
    <g id="xtick_1">
     <g id="line2d_1">
      <defs>
       <path d="M 0 0 
L 0 3.5 
" id="m9eea31bba3" style="stroke:#000000;stroke-width:0.8;"/>
      </defs>
      <g>
       <use style="stroke:#000000;stroke-width:0.8;" x="182.527043" xlink:href="#m9eea31bba3" y="504"/>
      </g>
     </g>
     <g id="text_1">
      <!-- 0 -->
      <defs>
       <path d="M 31.78125 66.40625 
Q 24.171875 66.40625 20.328125 58.90625 
Q 16.5 51.421875 16.5 36.375 
Q 16.5 21.390625 20.328125 13.890625 
Q 24.171875 6.390625 31.78125 6.390625 
Q 39.453125 6.390625 43.28125 13.890625 
Q 47.125 21.390625 47.125 36.375 
Q 47.125 51.421875 43.28125 58.90625 
Q 39.453125 66.40625 31.78125 66.40625 
z
M 31.78125 74.21875 
Q 44.046875 74.21875 50.515625 64.515625 
Q 56.984375 54.828125 56.984375 36.375 
Q 56.984375 17.96875 50.515625 8.265625 
Q 44.046875 -1.421875 31.78125 -1.421875 
Q 19.53125 -1.421875 13.0625 8.265625 
Q 6.59375 17.96875 6.59375 36.375 
Q 6.59375 54.828125 13.0625 64.515625 
Q 19.53125 74.21875 31.78125 74.21875 
z
" id="DejaVuSans-48"/>
      </defs>
      <g transform="translate(179.345793 518.598438)scale(0.1 -0.1)">
       <use xlink:href="#DejaVuSans-48"/>
      </g>
     </g>
    </g>
    <g id="xtick_2">
     <g id="line2d_2">
      <g>
       <use style="stroke:#000000;stroke-width:0.8;" x="285.265823" xlink:href="#m9eea31bba3" y="504"/>
      </g>
     </g>
     <g id="text_2">
      <!-- 50 -->
      <defs>
       <path d="M 10.796875 72.90625 
L 49.515625 72.90625 
L 49.515625 64.59375 
L 19.828125 64.59375 
L 19.828125 46.734375 
Q 21.96875 47.46875 24.109375 47.828125 
Q 26.265625 48.1875 28.421875 48.1875 
Q 40.625 48.1875 47.75 41.5 
Q 54.890625 34.8125 54.890625 23.390625 
Q 54.890625 11.625 47.5625 5.09375 
Q 40.234375 -1.421875 26.90625 -1.421875 
Q 22.3125 -1.421875 17.546875 -0.640625 
Q 12.796875 0.140625 7.71875 1.703125 
L 7.71875 11.625 
Q 12.109375 9.234375 16.796875 8.0625 
Q 21.484375 6.890625 26.703125 6.890625 
Q 35.15625 6.890625 40.078125 11.328125 
Q 45.015625 15.765625 45.015625 23.390625 
Q 45.015625 31 40.078125 35.4375 
Q 35.15625 39.890625 26.703125 39.890625 
Q 22.75 39.890625 18.8125 39.015625 
Q 14.890625 38.140625 10.796875 36.28125 
z
" id="DejaVuSans-53"/>
      </defs>
      <g transform="translate(278.903323 518.598438)scale(0.1 -0.1)">
       <use xlink:href="#DejaVuSans-53"/>
       <use x="63.623047" xlink:href="#DejaVuSans-48"/>
      </g>
     </g>
    </g>
    <g id="xtick_3">
     <g id="line2d_3">
      <g>
       <use style="stroke:#000000;stroke-width:0.8;" x="388.004603" xlink:href="#m9eea31bba3" y="504"/>
      </g>
     </g>
     <g id="text_3">
      <!-- 100 -->
      <defs>
       <path d="M 12.40625 8.296875 
L 28.515625 8.296875 
L 28.515625 63.921875 
L 10.984375 60.40625 
L 10.984375 69.390625 
L 28.421875 72.90625 
L 38.28125 72.90625 
L 38.28125 8.296875 
L 54.390625 8.296875 
L 54.390625 0 
L 12.40625 0 
z
" id="DejaVuSans-49"/>
      </defs>
      <g transform="translate(378.460853 518.598438)scale(0.1 -0.1)">
       <use xlink:href="#DejaVuSans-49"/>
       <use x="63.623047" xlink:href="#DejaVuSans-48"/>
       <use x="127.246094" xlink:href="#DejaVuSans-48"/>
      </g>
     </g>
    </g>
    <g id="xtick_4">
     <g id="line2d_4">
      <g>
       <use style="stroke:#000000;stroke-width:0.8;" x="490.743383" xlink:href="#m9eea31bba3" y="504"/>
      </g>
     </g>
     <g id="text_4">
      <!-- 150 -->
      <g transform="translate(481.199633 518.598438)scale(0.1 -0.1)">
       <use xlink:href="#DejaVuSans-49"/>
       <use x="63.623047" xlink:href="#DejaVuSans-53"/>
       <use x="127.246094" xlink:href="#DejaVuSans-48"/>
      </g>
     </g>
    </g>
    <g id="xtick_5">
     <g id="line2d_5">
      <g>
       <use style="stroke:#000000;stroke-width:0.8;" x="593.482163" xlink:href="#m9eea31bba3" y="504"/>
      </g>
     </g>
     <g id="text_5">
      <!-- 200 -->
      <defs>
       <path d="M 19.1875 8.296875 
L 53.609375 8.296875 
L 53.609375 0 
L 7.328125 0 
L 7.328125 8.296875 
Q 12.9375 14.109375 22.625 23.890625 
Q 32.328125 33.6875 34.8125 36.53125 
Q 39.546875 41.84375 41.421875 45.53125 
Q 43.3125 49.21875 43.3125 52.78125 
Q 43.3125 58.59375 39.234375 62.25 
Q 35.15625 65.921875 28.609375 65.921875 
Q 23.96875 65.921875 18.8125 64.3125 
Q 13.671875 62.703125 7.8125 59.421875 
L 7.8125 69.390625 
Q 13.765625 71.78125 18.9375 73 
Q 24.125 74.21875 28.421875 74.21875 
Q 39.75 74.21875 46.484375 68.546875 
Q 53.21875 62.890625 53.21875 53.421875 
Q 53.21875 48.921875 51.53125 44.890625 
Q 49.859375 40.875 45.40625 35.40625 
Q 44.1875 33.984375 37.640625 27.21875 
Q 31.109375 20.453125 19.1875 8.296875 
z
" id="DejaVuSans-50"/>
      </defs>
      <g transform="translate(583.938413 518.598438)scale(0.1 -0.1)">
       <use xlink:href="#DejaVuSans-50"/>
       <use x="63.623047" xlink:href="#DejaVuSans-48"/>
       <use x="127.246094" xlink:href="#DejaVuSans-48"/>
      </g>
     </g>
    </g>
    <g id="xtick_6">
     <g id="line2d_6">
      <g>
       <use style="stroke:#000000;stroke-width:0.8;" x="696.220944" xlink:href="#m9eea31bba3" y="504"/>
      </g>
     </g>
     <g id="text_6">
      <!-- 250 -->
      <g transform="translate(686.677194 518.598438)scale(0.1 -0.1)">
       <use xlink:href="#DejaVuSans-50"/>
       <use x="63.623047" xlink:href="#DejaVuSans-53"/>
       <use x="127.246094" xlink:href="#DejaVuSans-48"/>
      </g>
     </g>
    </g>
    <g id="xtick_7">
     <g id="line2d_7">
      <g>
       <use style="stroke:#000000;stroke-width:0.8;" x="798.959724" xlink:href="#m9eea31bba3" y="504"/>
      </g>
     </g>
     <g id="text_7">
      <!-- 300 -->
      <defs>
       <path d="M 40.578125 39.3125 
Q 47.65625 37.796875 51.625 33 
Q 55.609375 28.21875 55.609375 21.1875 
Q 55.609375 10.40625 48.1875 4.484375 
Q 40.765625 -1.421875 27.09375 -1.421875 
Q 22.515625 -1.421875 17.65625 -0.515625 
Q 12.796875 0.390625 7.625 2.203125 
L 7.625 11.71875 
Q 11.71875 9.328125 16.59375 8.109375 
Q 21.484375 6.890625 26.8125 6.890625 
Q 36.078125 6.890625 40.9375 10.546875 
Q 45.796875 14.203125 45.796875 21.1875 
Q 45.796875 27.640625 41.28125 31.265625 
Q 36.765625 34.90625 28.71875 34.90625 
L 20.21875 34.90625 
L 20.21875 43.015625 
L 29.109375 43.015625 
Q 36.375 43.015625 40.234375 45.921875 
Q 44.09375 48.828125 44.09375 54.296875 
Q 44.09375 59.90625 40.109375 62.90625 
Q 36.140625 65.921875 28.71875 65.921875 
Q 24.65625 65.921875 20.015625 65.03125 
Q 15.375 64.15625 9.8125 62.3125 
L 9.8125 71.09375 
Q 15.4375 72.65625 20.34375 73.4375 
Q 25.25 74.21875 29.59375 74.21875 
Q 40.828125 74.21875 47.359375 69.109375 
Q 53.90625 64.015625 53.90625 55.328125 
Q 53.90625 49.265625 50.4375 45.09375 
Q 46.96875 40.921875 40.578125 39.3125 
z
" id="DejaVuSans-51"/>
      </defs>
      <g transform="translate(789.415974 518.598438)scale(0.1 -0.1)">
       <use xlink:href="#DejaVuSans-51"/>
       <use x="63.623047" xlink:href="#DejaVuSans-48"/>
       <use x="127.246094" xlink:href="#DejaVuSans-48"/>
      </g>
     </g>
    </g>
    <g id="xtick_8">
     <g id="line2d_8">
      <g>
       <use style="stroke:#000000;stroke-width:0.8;" x="901.698504" xlink:href="#m9eea31bba3" y="504"/>
      </g>
     </g>
     <g id="text_8">
      <!-- 350 -->
      <g transform="translate(892.154754 518.598438)scale(0.1 -0.1)">
       <use xlink:href="#DejaVuSans-51"/>
       <use x="63.623047" xlink:href="#DejaVuSans-53"/>
       <use x="127.246094" xlink:href="#DejaVuSans-48"/>
      </g>
     </g>
    </g>
    <g id="xtick_9">
     <g id="line2d_9">
      <g>
       <use style="stroke:#000000;stroke-width:0.8;" x="1004.437284" xlink:href="#m9eea31bba3" y="504"/>
      </g>
     </g>
     <g id="text_9">
      <!-- 400 -->
      <defs>
       <path d="M 37.796875 64.3125 
L 12.890625 25.390625 
L 37.796875 25.390625 
z
M 35.203125 72.90625 
L 47.609375 72.90625 
L 47.609375 25.390625 
L 58.015625 25.390625 
L 58.015625 17.1875 
L 47.609375 17.1875 
L 47.609375 0 
L 37.796875 0 
L 37.796875 17.1875 
L 4.890625 17.1875 
L 4.890625 26.703125 
z
" id="DejaVuSans-52"/>
      </defs>
      <g transform="translate(994.893534 518.598438)scale(0.1 -0.1)">
       <use xlink:href="#DejaVuSans-52"/>
       <use x="63.623047" xlink:href="#DejaVuSans-48"/>
       <use x="127.246094" xlink:href="#DejaVuSans-48"/>
      </g>
     </g>
    </g>
    <g id="text_10">
     <!-- Number of Neurons pruned -->
     <defs>
      <path d="M 9.8125 72.90625 
L 23.09375 72.90625 
L 55.421875 11.921875 
L 55.421875 72.90625 
L 64.984375 72.90625 
L 64.984375 0 
L 51.703125 0 
L 19.390625 60.984375 
L 19.390625 0 
L 9.8125 0 
z
" id="DejaVuSans-78"/>
      <path d="M 8.5 21.578125 
L 8.5 54.6875 
L 17.484375 54.6875 
L 17.484375 21.921875 
Q 17.484375 14.15625 20.5 10.265625 
Q 23.53125 6.390625 29.59375 6.390625 
Q 36.859375 6.390625 41.078125 11.03125 
Q 45.3125 15.671875 45.3125 23.6875 
L 45.3125 54.6875 
L 54.296875 54.6875 
L 54.296875 0 
L 45.3125 0 
L 45.3125 8.40625 
Q 42.046875 3.421875 37.71875 1 
Q 33.40625 -1.421875 27.6875 -1.421875 
Q 18.265625 -1.421875 13.375 4.4375 
Q 8.5 10.296875 8.5 21.578125 
z
M 31.109375 56 
z
" id="DejaVuSans-117"/>
      <path d="M 52 44.1875 
Q 55.375 50.25 60.0625 53.125 
Q 64.75 56 71.09375 56 
Q 79.640625 56 84.28125 50.015625 
Q 88.921875 44.046875 88.921875 33.015625 
L 88.921875 0 
L 79.890625 0 
L 79.890625 32.71875 
Q 79.890625 40.578125 77.09375 44.375 
Q 74.3125 48.1875 68.609375 48.1875 
Q 61.625 48.1875 57.5625 43.546875 
Q 53.515625 38.921875 53.515625 30.90625 
L 53.515625 0 
L 44.484375 0 
L 44.484375 32.71875 
Q 44.484375 40.625 41.703125 44.40625 
Q 38.921875 48.1875 33.109375 48.1875 
Q 26.21875 48.1875 22.15625 43.53125 
Q 18.109375 38.875 18.109375 30.90625 
L 18.109375 0 
L 9.078125 0 
L 9.078125 54.6875 
L 18.109375 54.6875 
L 18.109375 46.1875 
Q 21.1875 51.21875 25.484375 53.609375 
Q 29.78125 56 35.6875 56 
Q 41.65625 56 45.828125 52.96875 
Q 50 49.953125 52 44.1875 
z
" id="DejaVuSans-109"/>
      <path d="M 48.6875 27.296875 
Q 48.6875 37.203125 44.609375 42.84375 
Q 40.53125 48.484375 33.40625 48.484375 
Q 26.265625 48.484375 22.1875 42.84375 
Q 18.109375 37.203125 18.109375 27.296875 
Q 18.109375 17.390625 22.1875 11.75 
Q 26.265625 6.109375 33.40625 6.109375 
Q 40.53125 6.109375 44.609375 11.75 
Q 48.6875 17.390625 48.6875 27.296875 
z
M 18.109375 46.390625 
Q 20.953125 51.265625 25.265625 53.625 
Q 29.59375 56 35.59375 56 
Q 45.5625 56 51.78125 48.09375 
Q 58.015625 40.1875 58.015625 27.296875 
Q 58.015625 14.40625 51.78125 6.484375 
Q 45.5625 -1.421875 35.59375 -1.421875 
Q 29.59375 -1.421875 25.265625 0.953125 
Q 20.953125 3.328125 18.109375 8.203125 
L 18.109375 0 
L 9.078125 0 
L 9.078125 75.984375 
L 18.109375 75.984375 
z
" id="DejaVuSans-98"/>
      <path d="M 56.203125 29.59375 
L 56.203125 25.203125 
L 14.890625 25.203125 
Q 15.484375 15.921875 20.484375 11.0625 
Q 25.484375 6.203125 34.421875 6.203125 
Q 39.59375 6.203125 44.453125 7.46875 
Q 49.3125 8.734375 54.109375 11.28125 
L 54.109375 2.78125 
Q 49.265625 0.734375 44.1875 -0.34375 
Q 39.109375 -1.421875 33.890625 -1.421875 
Q 20.796875 -1.421875 13.15625 6.1875 
Q 5.515625 13.8125 5.515625 26.8125 
Q 5.515625 40.234375 12.765625 48.109375 
Q 20.015625 56 32.328125 56 
Q 43.359375 56 49.78125 48.890625 
Q 56.203125 41.796875 56.203125 29.59375 
z
M 47.21875 32.234375 
Q 47.125 39.59375 43.09375 43.984375 
Q 39.0625 48.390625 32.421875 48.390625 
Q 24.90625 48.390625 20.390625 44.140625 
Q 15.875 39.890625 15.1875 32.171875 
z
" id="DejaVuSans-101"/>
      <path d="M 41.109375 46.296875 
Q 39.59375 47.171875 37.8125 47.578125 
Q 36.03125 48 33.890625 48 
Q 26.265625 48 22.1875 43.046875 
Q 18.109375 38.09375 18.109375 28.8125 
L 18.109375 0 
L 9.078125 0 
L 9.078125 54.6875 
L 18.109375 54.6875 
L 18.109375 46.1875 
Q 20.953125 51.171875 25.484375 53.578125 
Q 30.03125 56 36.53125 56 
Q 37.453125 56 38.578125 55.875 
Q 39.703125 55.765625 41.0625 55.515625 
z
" id="DejaVuSans-114"/>
      <path id="DejaVuSans-32"/>
      <path d="M 30.609375 48.390625 
Q 23.390625 48.390625 19.1875 42.75 
Q 14.984375 37.109375 14.984375 27.296875 
Q 14.984375 17.484375 19.15625 11.84375 
Q 23.34375 6.203125 30.609375 6.203125 
Q 37.796875 6.203125 41.984375 11.859375 
Q 46.1875 17.53125 46.1875 27.296875 
Q 46.1875 37.015625 41.984375 42.703125 
Q 37.796875 48.390625 30.609375 48.390625 
z
M 30.609375 56 
Q 42.328125 56 49.015625 48.375 
Q 55.71875 40.765625 55.71875 27.296875 
Q 55.71875 13.875 49.015625 6.21875 
Q 42.328125 -1.421875 30.609375 -1.421875 
Q 18.84375 -1.421875 12.171875 6.21875 
Q 5.515625 13.875 5.515625 27.296875 
Q 5.515625 40.765625 12.171875 48.375 
Q 18.84375 56 30.609375 56 
z
" id="DejaVuSans-111"/>
      <path d="M 37.109375 75.984375 
L 37.109375 68.5 
L 28.515625 68.5 
Q 23.6875 68.5 21.796875 66.546875 
Q 19.921875 64.59375 19.921875 59.515625 
L 19.921875 54.6875 
L 34.71875 54.6875 
L 34.71875 47.703125 
L 19.921875 47.703125 
L 19.921875 0 
L 10.890625 0 
L 10.890625 47.703125 
L 2.296875 47.703125 
L 2.296875 54.6875 
L 10.890625 54.6875 
L 10.890625 58.5 
Q 10.890625 67.625 15.140625 71.796875 
Q 19.390625 75.984375 28.609375 75.984375 
z
" id="DejaVuSans-102"/>
      <path d="M 54.890625 33.015625 
L 54.890625 0 
L 45.90625 0 
L 45.90625 32.71875 
Q 45.90625 40.484375 42.875 44.328125 
Q 39.84375 48.1875 33.796875 48.1875 
Q 26.515625 48.1875 22.3125 43.546875 
Q 18.109375 38.921875 18.109375 30.90625 
L 18.109375 0 
L 9.078125 0 
L 9.078125 54.6875 
L 18.109375 54.6875 
L 18.109375 46.1875 
Q 21.34375 51.125 25.703125 53.5625 
Q 30.078125 56 35.796875 56 
Q 45.21875 56 50.046875 50.171875 
Q 54.890625 44.34375 54.890625 33.015625 
z
" id="DejaVuSans-110"/>
      <path d="M 44.28125 53.078125 
L 44.28125 44.578125 
Q 40.484375 46.53125 36.375 47.5 
Q 32.28125 48.484375 27.875 48.484375 
Q 21.1875 48.484375 17.84375 46.4375 
Q 14.5 44.390625 14.5 40.28125 
Q 14.5 37.15625 16.890625 35.375 
Q 19.28125 33.59375 26.515625 31.984375 
L 29.59375 31.296875 
Q 39.15625 29.25 43.1875 25.515625 
Q 47.21875 21.78125 47.21875 15.09375 
Q 47.21875 7.46875 41.1875 3.015625 
Q 35.15625 -1.421875 24.609375 -1.421875 
Q 20.21875 -1.421875 15.453125 -0.5625 
Q 10.6875 0.296875 5.421875 2 
L 5.421875 11.28125 
Q 10.40625 8.6875 15.234375 7.390625 
Q 20.0625 6.109375 24.8125 6.109375 
Q 31.15625 6.109375 34.5625 8.28125 
Q 37.984375 10.453125 37.984375 14.40625 
Q 37.984375 18.0625 35.515625 20.015625 
Q 33.0625 21.96875 24.703125 23.78125 
L 21.578125 24.515625 
Q 13.234375 26.265625 9.515625 29.90625 
Q 5.8125 33.546875 5.8125 39.890625 
Q 5.8125 47.609375 11.28125 51.796875 
Q 16.75 56 26.8125 56 
Q 31.78125 56 36.171875 55.265625 
Q 40.578125 54.546875 44.28125 53.078125 
z
" id="DejaVuSans-115"/>
      <path d="M 18.109375 8.203125 
L 18.109375 -20.796875 
L 9.078125 -20.796875 
L 9.078125 54.6875 
L 18.109375 54.6875 
L 18.109375 46.390625 
Q 20.953125 51.265625 25.265625 53.625 
Q 29.59375 56 35.59375 56 
Q 45.5625 56 51.78125 48.09375 
Q 58.015625 40.1875 58.015625 27.296875 
Q 58.015625 14.40625 51.78125 6.484375 
Q 45.5625 -1.421875 35.59375 -1.421875 
Q 29.59375 -1.421875 25.265625 0.953125 
Q 20.953125 3.328125 18.109375 8.203125 
z
M 48.6875 27.296875 
Q 48.6875 37.203125 44.609375 42.84375 
Q 40.53125 48.484375 33.40625 48.484375 
Q 26.265625 48.484375 22.1875 42.84375 
Q 18.109375 37.203125 18.109375 27.296875 
Q 18.109375 17.390625 22.1875 11.75 
Q 26.265625 6.109375 33.40625 6.109375 
Q 40.53125 6.109375 44.609375 11.75 
Q 48.6875 17.390625 48.6875 27.296875 
z
" id="DejaVuSans-112"/>
      <path d="M 45.40625 46.390625 
L 45.40625 75.984375 
L 54.390625 75.984375 
L 54.390625 0 
L 45.40625 0 
L 45.40625 8.203125 
Q 42.578125 3.328125 38.25 0.953125 
Q 33.9375 -1.421875 27.875 -1.421875 
Q 17.96875 -1.421875 11.734375 6.484375 
Q 5.515625 14.40625 5.515625 27.296875 
Q 5.515625 40.1875 11.734375 48.09375 
Q 17.96875 56 27.875 56 
Q 33.9375 56 38.25 53.625 
Q 42.578125 51.265625 45.40625 46.390625 
z
M 14.796875 27.296875 
Q 14.796875 17.390625 18.875 11.75 
Q 22.953125 6.109375 30.078125 6.109375 
Q 37.203125 6.109375 41.296875 11.75 
Q 45.40625 17.390625 45.40625 27.296875 
Q 45.40625 37.203125 41.296875 42.84375 
Q 37.203125 48.484375 30.078125 48.484375 
Q 22.953125 48.484375 18.875 42.84375 
Q 14.796875 37.203125 14.796875 27.296875 
z
" id="DejaVuSans-100"/>
     </defs>
     <g transform="translate(522.147656 532.276562)scale(0.1 -0.1)">
      <use xlink:href="#DejaVuSans-78"/>
      <use x="74.804688" xlink:href="#DejaVuSans-117"/>
      <use x="138.183594" xlink:href="#DejaVuSans-109"/>
      <use x="235.595703" xlink:href="#DejaVuSans-98"/>
      <use x="299.072266" xlink:href="#DejaVuSans-101"/>
      <use x="360.595703" xlink:href="#DejaVuSans-114"/>
      <use x="401.708984" xlink:href="#DejaVuSans-32"/>
      <use x="433.496094" xlink:href="#DejaVuSans-111"/>
      <use x="494.677734" xlink:href="#DejaVuSans-102"/>
      <use x="529.882812" xlink:href="#DejaVuSans-32"/>
      <use x="561.669922" xlink:href="#DejaVuSans-78"/>
      <use x="636.474609" xlink:href="#DejaVuSans-101"/>
      <use x="697.998047" xlink:href="#DejaVuSans-117"/>
      <use x="761.376953" xlink:href="#DejaVuSans-114"/>
      <use x="800.240234" xlink:href="#DejaVuSans-111"/>
      <use x="861.421875" xlink:href="#DejaVuSans-110"/>
      <use x="924.800781" xlink:href="#DejaVuSans-115"/>
      <use x="976.900391" xlink:href="#DejaVuSans-32"/>
      <use x="1008.6875" xlink:href="#DejaVuSans-112"/>
      <use x="1072.164062" xlink:href="#DejaVuSans-114"/>
      <use x="1113.277344" xlink:href="#DejaVuSans-117"/>
      <use x="1176.65625" xlink:href="#DejaVuSans-110"/>
      <use x="1240.035156" xlink:href="#DejaVuSans-101"/>
      <use x="1301.558594" xlink:href="#DejaVuSans-100"/>
     </g>
    </g>
   </g>
   <g id="matplotlib.axis_2">
    <g id="ytick_1">
     <g id="line2d_10">
      <defs>
       <path d="M 0 0 
L -3.5 0 
" id="m89ae1c4258" style="stroke:#000000;stroke-width:0.8;"/>
      </defs>
      <g>
       <use style="stroke:#000000;stroke-width:0.8;" x="144" xlink:href="#m89ae1c4258" y="490.654651"/>
      </g>
     </g>
     <g id="text_11">
      <!-- 0 -->
      <g transform="translate(130.6375 494.45387)scale(0.1 -0.1)">
       <use xlink:href="#DejaVuSans-48"/>
      </g>
     </g>
    </g>
    <g id="ytick_2">
     <g id="line2d_11">
      <g>
       <use style="stroke:#000000;stroke-width:0.8;" x="144" xlink:href="#m89ae1c4258" y="399.51392"/>
      </g>
     </g>
     <g id="text_12">
      <!-- 1 -->
      <g transform="translate(130.6375 403.313139)scale(0.1 -0.1)">
       <use xlink:href="#DejaVuSans-49"/>
      </g>
     </g>
    </g>
    <g id="ytick_3">
     <g id="line2d_12">
      <g>
       <use style="stroke:#000000;stroke-width:0.8;" x="144" xlink:href="#m89ae1c4258" y="308.373188"/>
      </g>
     </g>
     <g id="text_13">
      <!-- 2 -->
      <g transform="translate(130.6375 312.172407)scale(0.1 -0.1)">
       <use xlink:href="#DejaVuSans-50"/>
      </g>
     </g>
    </g>
    <g id="ytick_4">
     <g id="line2d_13">
      <g>
       <use style="stroke:#000000;stroke-width:0.8;" x="144" xlink:href="#m89ae1c4258" y="217.232457"/>
      </g>
     </g>
     <g id="text_14">
      <!-- 3 -->
      <g transform="translate(130.6375 221.031676)scale(0.1 -0.1)">
       <use xlink:href="#DejaVuSans-51"/>
      </g>
     </g>
    </g>
    <g id="ytick_5">
     <g id="line2d_14">
      <g>
       <use style="stroke:#000000;stroke-width:0.8;" x="144" xlink:href="#m89ae1c4258" y="126.091726"/>
      </g>
     </g>
     <g id="text_15">
      <!-- 4 -->
      <g transform="translate(130.6375 129.890944)scale(0.1 -0.1)">
       <use xlink:href="#DejaVuSans-52"/>
      </g>
     </g>
    </g>
    <g id="text_16">
     <!-- Loss -->
     <defs>
      <path d="M 9.8125 72.90625 
L 19.671875 72.90625 
L 19.671875 8.296875 
L 55.171875 8.296875 
L 55.171875 0 
L 9.8125 0 
z
" id="DejaVuSans-76"/>
     </defs>
     <g transform="translate(124.557812 297.527188)rotate(-90)scale(0.1 -0.1)">
      <use xlink:href="#DejaVuSans-76"/>
      <use x="53.962891" xlink:href="#DejaVuSans-111"/>
      <use x="115.144531" xlink:href="#DejaVuSans-115"/>
      <use x="167.244141" xlink:href="#DejaVuSans-115"/>
     </g>
    </g>
   </g>
   <g id="line2d_15">
    <path clip-path="url(#pff59b92efd)" d="M 184.581818 483.072914 
L 194.855696 481.870911 
L 205.129574 481.075267 
L 215.403452 474.797188 
L 225.67733 468.974164 
L 235.951208 462.646352 
L 246.225086 450.485889 
L 256.498964 447.746444 
L 266.772842 435.216919 
L 277.04672 417.19877 
L 287.320598 402.217614 
L 297.594476 379.02216 
L 307.868354 367.920995 
L 318.142232 345.976956 
L 328.41611 331.634924 
L 338.689988 297.665776 
L 348.963867 310.165623 
L 359.237745 297.867405 
L 369.511623 276.367249 
L 379.785501 263.078681 
L 390.059379 271.023755 
L 400.333257 261.146437 
L 410.607135 239.271618 
L 420.881013 221.675126 
L 431.154891 175.079686 
L 441.428769 179.999951 
L 451.702647 176.829857 
L 461.976525 134.509464 
L 472.250403 150.415606 
L 482.524281 153.744848 
L 492.798159 139.309064 
L 503.072037 126.926839 
L 513.345915 140.173838 
L 523.619793 123.538406 
L 533.893671 107.797234 
L 544.167549 88.887273 
L 554.441427 103.14683 
L 564.715305 101.980078 
L 574.989183 94.83359 
L 585.263061 124.882688 
L 595.536939 139.891049 
L 605.810817 120.700644 
L 616.084695 114.148809 
L 626.358573 125.215673 
L 636.632451 149.505656 
L 646.906329 157.811138 
L 657.180207 175.963648 
L 667.454085 218.39747 
L 677.727963 222.044204 
L 688.001841 213.919838 
L 698.275719 202.300541 
L 708.549597 224.322775 
L 718.823475 258.159632 
L 729.097353 261.409474 
L 739.371231 275.533417 
L 749.645109 277.215204 
L 759.918987 280.967414 
L 770.192865 280.884146 
L 780.466743 280.25416 
L 790.740621 280.25416 
L 801.014499 280.25416 
L 811.288377 280.25416 
L 821.562255 280.25416 
L 831.836133 280.25416 
L 842.110012 280.25416 
L 852.38389 280.25416 
L 862.657768 280.25416 
L 872.931646 280.25416 
L 883.205524 280.25416 
L 893.479402 280.25416 
L 903.75328 280.25416 
L 914.027158 280.25416 
L 924.301036 280.25416 
L 934.574914 280.25416 
L 944.848792 280.25416 
L 955.12267 280.25416 
L 965.396548 280.25416 
L 975.670426 280.25416 
L 985.944304 280.25416 
L 996.218182 280.25416 
" style="fill:none;stroke:#1f77b4;stroke-linecap:square;stroke-width:1.5;"/>
   </g>
   <g id="line2d_16">
    <path clip-path="url(#pff59b92efd)" d="M 184.581818 483.858552 
L 194.855696 483.423217 
L 205.129574 482.983029 
L 215.403452 482.291372 
L 225.67733 480.98273 
L 235.951208 480.326575 
L 246.225086 478.401937 
L 256.498964 476.350096 
L 266.772842 473.436243 
L 277.04672 469.329943 
L 287.320598 465.080401 
L 297.594476 456.875314 
L 307.868354 451.14062 
L 318.142232 446.271783 
L 328.41611 437.299684 
L 338.689988 431.453546 
L 348.963867 420.869439 
L 359.237745 406.125859 
L 369.511623 397.453319 
L 379.785501 374.49984 
L 390.059379 359.187765 
L 400.333257 336.752918 
L 410.607135 322.556811 
L 420.881013 313.886303 
L 431.154891 312.583133 
L 441.428769 305.022543 
L 451.702647 295.095594 
L 461.976525 289.92496 
L 472.250403 285.507019 
L 482.524281 285.27901 
L 492.798159 280.25416 
L 503.072037 280.25416 
L 513.345915 280.25416 
L 523.619793 280.25416 
L 533.893671 280.25416 
L 544.167549 280.25416 
L 554.441427 280.25416 
L 564.715305 280.25416 
L 574.989183 280.25416 
L 585.263061 280.25416 
L 595.536939 280.25416 
L 605.810817 280.25416 
L 616.084695 280.25416 
L 626.358573 280.25416 
L 636.632451 280.25416 
L 646.906329 280.25416 
L 657.180207 280.25416 
L 667.454085 280.25416 
L 677.727963 280.25416 
L 688.001841 280.25416 
L 698.275719 280.25416 
L 708.549597 280.25416 
L 718.823475 280.25416 
L 729.097353 280.25416 
L 739.371231 280.25416 
L 749.645109 280.25416 
L 759.918987 280.25416 
L 770.192865 280.25416 
L 780.466743 280.25416 
L 790.740621 280.25416 
L 801.014499 280.25416 
L 811.288377 280.25416 
L 821.562255 280.25416 
L 831.836133 280.25416 
L 842.110012 280.25416 
L 852.38389 280.25416 
L 862.657768 280.25416 
L 872.931646 280.25416 
L 883.205524 280.25416 
L 893.479402 280.25416 
L 903.75328 280.25416 
L 914.027158 280.25416 
L 924.301036 280.25416 
L 934.574914 280.25416 
L 944.848792 280.25416 
L 955.12267 280.25416 
L 965.396548 280.25416 
L 975.670426 280.25416 
L 985.944304 280.25416 
L 996.218182 280.25416 
" style="fill:none;stroke:#ff7f0e;stroke-linecap:square;stroke-width:1.5;"/>
   </g>
   <g id="line2d_17">
    <path clip-path="url(#pff59b92efd)" d="M 184.581818 483.858552 
L 194.855696 483.402106 
L 205.129574 482.926769 
L 215.403452 482.364016 
L 225.67733 481.041049 
L 235.951208 479.773653 
L 246.225086 477.470992 
L 256.498964 475.274602 
L 266.772842 471.861766 
L 277.04672 468.572426 
L 287.320598 465.576184 
L 297.594476 458.345458 
L 307.868354 451.52788 
L 318.142232 438.377681 
L 328.41611 427.362609 
L 338.689988 417.115013 
L 348.963867 405.557575 
L 359.237745 388.592938 
L 369.511623 375.27962 
L 379.785501 360.541261 
L 390.059379 339.314484 
L 400.333257 319.277819 
L 410.607135 306.457221 
L 420.881013 295.843789 
L 431.154891 289.367681 
L 441.428769 280.25416 
L 451.702647 280.25416 
L 461.976525 280.25416 
L 472.250403 280.25416 
L 482.524281 280.25416 
L 492.798159 280.25416 
L 503.072037 280.25416 
L 513.345915 280.25416 
L 523.619793 280.25416 
L 533.893671 280.25416 
L 544.167549 280.25416 
L 554.441427 280.25416 
L 564.715305 280.25416 
L 574.989183 280.25416 
L 585.263061 280.25416 
L 595.536939 280.25416 
L 605.810817 280.25416 
L 616.084695 280.25416 
L 626.358573 280.25416 
L 636.632451 280.25416 
L 646.906329 280.25416 
L 657.180207 280.25416 
L 667.454085 280.25416 
L 677.727963 280.25416 
L 688.001841 280.25416 
L 698.275719 280.25416 
L 708.549597 280.25416 
L 718.823475 280.25416 
L 729.097353 280.25416 
L 739.371231 280.25416 
L 749.645109 280.25416 
L 759.918987 280.25416 
L 770.192865 280.25416 
L 780.466743 280.25416 
L 790.740621 280.25416 
L 801.014499 280.25416 
L 811.288377 280.25416 
L 821.562255 280.25416 
L 831.836133 280.25416 
L 842.110012 280.25416 
L 852.38389 280.25416 
L 862.657768 280.25416 
L 872.931646 280.25416 
L 883.205524 280.25416 
L 893.479402 280.25416 
L 903.75328 280.25416 
L 914.027158 280.25416 
L 924.301036 280.25416 
L 934.574914 280.25416 
L 944.848792 280.25416 
L 955.12267 280.25416 
L 965.396548 280.25416 
L 975.670426 280.25416 
L 985.944304 280.25416 
L 996.218182 280.25416 
" style="fill:none;stroke:#2ca02c;stroke-linecap:square;stroke-width:1.5;"/>
   </g>
   <g id="line2d_18">
    <path clip-path="url(#pff59b92efd)" d="M 184.581818 483.858552 
L 194.855696 483.26082 
L 205.129574 482.652328 
L 215.403452 481.624102 
L 225.67733 480.436611 
L 235.951208 478.090422 
L 246.225086 475.053666 
L 256.498964 472.238382 
L 266.772842 469.374776 
L 277.04672 463.639649 
L 287.320598 454.515603 
L 297.594476 448.930269 
L 307.868354 438.114051 
L 318.142232 429.568912 
L 328.41611 419.444485 
L 338.689988 414.680391 
L 348.963867 403.983262 
L 359.237745 388.518144 
L 369.511623 376.353781 
L 379.785501 367.052657 
L 390.059379 356.814942 
L 400.333257 354.470346 
L 410.607135 349.066194 
L 420.881013 342.207602 
L 431.154891 339.053022 
L 441.428769 327.484964 
L 451.702647 320.34707 
L 461.976525 317.573596 
L 472.250403 310.799216 
L 482.524281 304.100554 
L 492.798159 302.660769 
L 503.072037 295.547114 
L 513.345915 292.583777 
L 523.619793 289.14504 
L 533.893671 287.989088 
L 544.167549 287.745542 
L 554.441427 286.125532 
L 564.715305 283.037489 
L 574.989183 284.885117 
L 585.263061 284.159151 
L 595.536939 282.921974 
L 605.810817 282.150354 
L 616.084695 282.590879 
L 626.358573 282.576625 
L 636.632451 281.739534 
L 646.906329 280.772869 
L 657.180207 280.806028 
L 667.454085 280.25416 
L 677.727963 280.25416 
L 688.001841 280.25416 
L 698.275719 280.25416 
L 708.549597 280.25416 
L 718.823475 280.25416 
L 729.097353 280.25416 
L 739.371231 280.25416 
L 749.645109 280.25416 
L 759.918987 280.25416 
L 770.192865 280.25416 
L 780.466743 280.25416 
L 790.740621 280.25416 
L 801.014499 280.25416 
L 811.288377 280.25416 
L 821.562255 280.25416 
L 831.836133 280.25416 
L 842.110012 280.25416 
L 852.38389 280.25416 
L 862.657768 280.25416 
L 872.931646 280.25416 
L 883.205524 280.25416 
L 893.479402 280.25416 
L 903.75328 280.25416 
L 914.027158 280.25416 
L 924.301036 280.25416 
L 934.574914 280.25416 
L 944.848792 280.25416 
L 955.12267 280.25416 
L 965.396548 280.25416 
L 975.670426 280.25416 
L 985.944304 280.25416 
L 996.218182 280.25416 
" style="fill:none;stroke:#d62728;stroke-dasharray:5.55,2.4;stroke-dashoffset:0;stroke-width:1.5;"/>
   </g>
   <g id="line2d_19">
    <path clip-path="url(#pff59b92efd)" d="M 184.581818 483.809242 
L 194.855696 482.660754 
L 205.129574 481.253322 
L 215.403452 479.414014 
L 225.67733 477.102833 
L 235.951208 474.424688 
L 246.225086 471.067101 
L 256.498964 463.848862 
L 266.772842 461.280573 
L 277.04672 456.506736 
L 287.320598 448.286013 
L 297.594476 443.025532 
L 307.868354 433.314576 
L 318.142232 425.038678 
L 328.41611 413.960824 
L 338.689988 402.045483 
L 348.963867 389.649422 
L 359.237745 382.125642 
L 369.511623 377.035614 
L 379.785501 370.808604 
L 390.059379 365.31346 
L 400.333257 358.380563 
L 410.607135 348.684839 
L 420.881013 341.666914 
L 431.154891 334.968469 
L 441.428769 325.502949 
L 451.702647 321.931649 
L 461.976525 316.548152 
L 472.250403 311.755777 
L 482.524281 307.082665 
L 492.798159 302.658097 
L 503.072037 298.331029 
L 513.345915 295.999265 
L 523.619793 292.009984 
L 533.893671 289.861075 
L 544.167549 285.666406 
L 554.441427 286.354236 
L 564.715305 281.191034 
L 574.989183 280.977301 
L 585.263061 279.839733 
L 595.536939 278.413247 
L 605.810817 276.542802 
L 616.084695 277.482436 
L 626.358573 277.195561 
L 636.632451 278.52209 
L 646.906329 279.93417 
L 657.180207 279.720459 
L 667.454085 279.627738 
L 677.727963 279.654183 
L 688.001841 279.645491 
L 698.275719 279.89347 
L 708.549597 279.593992 
L 718.823475 279.538603 
L 729.097353 279.518438 
L 739.371231 279.365918 
L 749.645109 280.25416 
L 759.918987 280.25416 
L 770.192865 280.25416 
L 780.466743 280.25416 
L 790.740621 280.25416 
L 801.014499 280.25416 
L 811.288377 280.25416 
L 821.562255 280.25416 
L 831.836133 280.25416 
L 842.110012 280.25416 
L 852.38389 280.25416 
L 862.657768 280.25416 
L 872.931646 280.25416 
L 883.205524 280.25416 
L 893.479402 280.25416 
L 903.75328 280.25416 
L 914.027158 280.25416 
L 924.301036 280.25416 
L 934.574914 280.25416 
L 944.848792 280.25416 
L 955.12267 280.25416 
L 965.396548 280.25416 
L 975.670426 280.25416 
L 985.944304 280.25416 
L 996.218182 280.25416 
" style="fill:none;stroke:#9467bd;stroke-dasharray:5.55,2.4;stroke-dashoffset:0;stroke-width:1.5;"/>
   </g>
   <g id="line2d_20">
    <path clip-path="url(#pff59b92efd)" d="M 184.581818 484.152883 
L 194.855696 483.711135 
L 205.129574 482.892122 
L 215.403452 482.05764 
L 225.67733 480.568404 
L 235.951208 479.199787 
L 246.225086 477.149524 
L 256.498964 474.632484 
L 266.772842 471.499949 
L 277.04672 469.883353 
L 287.320598 469.780667 
L 297.594476 468.617825 
L 307.868354 466.511021 
L 318.142232 465.271274 
L 328.41611 461.998586 
L 338.689988 459.792242 
L 348.963867 456.364646 
L 359.237745 455.102007 
L 369.511623 453.22588 
L 379.785501 439.064691 
L 390.059379 433.988945 
L 400.333257 420.317935 
L 410.607135 413.576889 
L 420.881013 401.003519 
L 431.154891 397.041043 
L 441.428769 386.211716 
L 451.702647 377.904832 
L 461.976525 366.840391 
L 472.250403 343.054471 
L 482.524281 329.411417 
L 492.798159 334.695131 
L 503.072037 313.650645 
L 513.345915 279.658877 
L 523.619793 267.502075 
L 533.893671 260.013019 
L 544.167549 246.40194 
L 554.441427 242.071591 
L 564.715305 228.405405 
L 574.989183 244.879735 
L 585.263061 280.288319 
L 595.536939 280.288319 
L 605.810817 280.288319 
L 616.084695 280.288319 
L 626.358573 280.288319 
L 636.632451 280.288319 
L 646.906329 280.288319 
L 657.180207 280.288319 
L 667.454085 280.288319 
L 677.727963 280.288319 
L 688.001841 280.288319 
L 698.275719 280.288319 
L 708.549597 280.288319 
L 718.823475 280.288319 
L 729.097353 280.288319 
L 739.371231 280.288319 
L 749.645109 280.288319 
L 759.918987 280.288319 
L 770.192865 280.288319 
L 780.466743 280.288319 
L 790.740621 280.288319 
L 801.014499 280.288319 
L 811.288377 280.288319 
L 821.562255 280.288319 
L 831.836133 280.288319 
L 842.110012 280.288319 
L 852.38389 280.288319 
L 862.657768 280.288319 
L 872.931646 280.288319 
L 883.205524 280.288319 
L 893.479402 280.288319 
L 903.75328 280.288319 
L 914.027158 280.288319 
L 924.301036 280.288319 
L 934.574914 280.288319 
L 944.848792 280.288319 
L 955.12267 280.288319 
L 965.396548 280.288319 
L 975.670426 280.288319 
L 985.944304 280.288319 
L 996.218182 280.288319 
" style="fill:none;stroke:#8c564b;stroke-linecap:square;stroke-width:1.5;"/>
   </g>
   <g id="line2d_21">
    <path clip-path="url(#pff59b92efd)" d="M 184.581818 484.200362 
L 194.855696 483.907707 
L 205.129574 483.440109 
L 215.403452 482.382109 
L 225.67733 481.767486 
L 235.951208 480.472004 
L 246.225086 478.726908 
L 256.498964 475.343975 
L 266.772842 471.546875 
L 277.04672 469.660496 
L 287.320598 466.988951 
L 297.594476 461.301059 
L 307.868354 454.806913 
L 318.142232 451.471929 
L 328.41611 444.648421 
L 338.689988 435.937898 
L 348.963867 426.602072 
L 359.237745 426.06152 
L 369.511623 415.743372 
L 379.785501 400.340336 
L 390.059379 387.485878 
L 400.333257 381.83164 
L 410.607135 372.668433 
L 420.881013 362.758738 
L 431.154891 348.952918 
L 441.428769 347.77642 
L 451.702647 346.549369 
L 461.976525 342.803678 
L 472.250403 340.166026 
L 482.524281 334.529019 
L 492.798159 325.061978 
L 503.072037 321.621578 
L 513.345915 307.67684 
L 523.619793 305.553267 
L 533.893671 304.618502 
L 544.167549 299.865424 
L 554.441427 297.004934 
L 564.715305 293.410916 
L 574.989183 283.819647 
L 585.263061 281.090078 
L 595.536939 280.881821 
L 605.810817 280.923564 
L 616.084695 281.236666 
L 626.358573 280.684277 
L 636.632451 280.258354 
L 646.906329 280.288319 
L 657.180207 280.288319 
L 667.454085 280.288319 
L 677.727963 280.288319 
L 688.001841 280.288319 
L 698.275719 280.288319 
L 708.549597 280.288319 
L 718.823475 280.288319 
L 729.097353 280.288319 
L 739.371231 280.288319 
L 749.645109 280.288319 
L 759.918987 280.288319 
L 770.192865 280.288319 
L 780.466743 280.288319 
L 790.740621 280.288319 
L 801.014499 280.288319 
L 811.288377 280.288319 
L 821.562255 280.288319 
L 831.836133 280.288319 
L 842.110012 280.288319 
L 852.38389 280.288319 
L 862.657768 280.288319 
L 872.931646 280.288319 
L 883.205524 280.288319 
L 893.479402 280.288319 
L 903.75328 280.288319 
L 914.027158 280.288319 
L 924.301036 280.288319 
L 934.574914 280.288319 
L 944.848792 280.288319 
L 955.12267 280.288319 
L 965.396548 280.288319 
L 975.670426 280.288319 
L 985.944304 280.288319 
L 996.218182 280.288319 
" style="fill:none;stroke:#e377c2;stroke-linecap:square;stroke-width:1.5;"/>
   </g>
   <g id="line2d_22">
    <path clip-path="url(#pff59b92efd)" d="M 184.581818 484.189294 
L 194.855696 483.736115 
L 205.129574 483.103057 
L 215.403452 482.57138 
L 225.67733 481.537653 
L 235.951208 480.204752 
L 246.225086 478.337538 
L 256.498964 474.265328 
L 266.772842 471.79499 
L 277.04672 465.762904 
L 287.320598 461.558093 
L 297.594476 458.049109 
L 307.868354 452.520284 
L 318.142232 446.269996 
L 328.41611 440.133903 
L 338.689988 430.354798 
L 348.963867 419.447304 
L 359.237745 407.875356 
L 369.511623 394.938113 
L 379.785501 385.190575 
L 390.059379 377.219284 
L 400.333257 370.412701 
L 410.607135 356.496635 
L 420.881013 354.284786 
L 431.154891 344.134608 
L 441.428769 338.292268 
L 451.702647 333.509247 
L 461.976525 322.796533 
L 472.250403 308.236183 
L 482.524281 304.320436 
L 492.798159 303.296079 
L 503.072037 293.810785 
L 513.345915 287.017316 
L 523.619793 285.886636 
L 533.893671 282.430254 
L 544.167549 280.288319 
L 554.441427 280.288319 
L 564.715305 280.288319 
L 574.989183 280.288319 
L 585.263061 280.288319 
L 595.536939 280.288319 
L 605.810817 280.288319 
L 616.084695 280.288319 
L 626.358573 280.288319 
L 636.632451 280.288319 
L 646.906329 280.288319 
L 657.180207 280.288319 
L 667.454085 280.288319 
L 677.727963 280.288319 
L 688.001841 280.288319 
L 698.275719 280.288319 
L 708.549597 280.288319 
L 718.823475 280.288319 
L 729.097353 280.288319 
L 739.371231 280.288319 
L 749.645109 280.288319 
L 759.918987 280.288319 
L 770.192865 280.288319 
L 780.466743 280.288319 
L 790.740621 280.288319 
L 801.014499 280.288319 
L 811.288377 280.288319 
L 821.562255 280.288319 
L 831.836133 280.288319 
L 842.110012 280.288319 
L 852.38389 280.288319 
L 862.657768 280.288319 
L 872.931646 280.288319 
L 883.205524 280.288319 
L 893.479402 280.288319 
L 903.75328 280.288319 
L 914.027158 280.288319 
L 924.301036 280.288319 
L 934.574914 280.288319 
L 944.848792 280.288319 
L 955.12267 280.288319 
L 965.396548 280.288319 
L 975.670426 280.288319 
L 985.944304 280.288319 
L 996.218182 280.288319 
" style="fill:none;stroke:#7f7f7f;stroke-linecap:square;stroke-width:1.5;"/>
   </g>
   <g id="line2d_23">
    <path clip-path="url(#pff59b92efd)" d="M 184.581818 484.20572 
L 194.855696 483.778922 
L 205.129574 483.361972 
L 215.403452 482.38301 
L 225.67733 481.306543 
L 235.951208 480.461443 
L 246.225086 478.694979 
L 256.498964 476.485563 
L 266.772842 474.232742 
L 277.04672 470.787993 
L 287.320598 465.793386 
L 297.594476 459.110434 
L 307.868354 451.386048 
L 318.142232 444.407163 
L 328.41611 435.042273 
L 338.689988 420.694292 
L 348.963867 411.831374 
L 359.237745 400.121855 
L 369.511623 394.740927 
L 379.785501 386.486651 
L 390.059379 374.229361 
L 400.333257 367.464499 
L 410.607135 351.438028 
L 420.881013 328.703769 
L 431.154891 327.109802 
L 441.428769 320.86555 
L 451.702647 316.611266 
L 461.976525 312.33045 
L 472.250403 303.348339 
L 482.524281 300.383437 
L 492.798159 299.50167 
L 503.072037 296.522645 
L 513.345915 284.993113 
L 523.619793 284.965277 
L 533.893671 280.288319 
L 544.167549 280.288319 
L 554.441427 280.288319 
L 564.715305 280.288319 
L 574.989183 280.288319 
L 585.263061 280.288319 
L 595.536939 280.288319 
L 605.810817 280.288319 
L 616.084695 280.288319 
L 626.358573 280.288319 
L 636.632451 280.288319 
L 646.906329 280.288319 
L 657.180207 280.288319 
L 667.454085 280.288319 
L 677.727963 280.288319 
L 688.001841 280.288319 
L 698.275719 280.288319 
L 708.549597 280.288319 
L 718.823475 280.288319 
L 729.097353 280.288319 
L 739.371231 280.288319 
L 749.645109 280.288319 
L 759.918987 280.288319 
L 770.192865 280.288319 
L 780.466743 280.288319 
L 790.740621 280.288319 
L 801.014499 280.288319 
L 811.288377 280.288319 
L 821.562255 280.288319 
L 831.836133 280.288319 
L 842.110012 280.288319 
L 852.38389 280.288319 
L 862.657768 280.288319 
L 872.931646 280.288319 
L 883.205524 280.288319 
L 893.479402 280.288319 
L 903.75328 280.288319 
L 914.027158 280.288319 
L 924.301036 280.288319 
L 934.574914 280.288319 
L 944.848792 280.288319 
L 955.12267 280.288319 
L 965.396548 280.288319 
L 975.670426 280.288319 
L 985.944304 280.288319 
L 996.218182 280.288319 
" style="fill:none;stroke:#bcbd22;stroke-dasharray:5.55,2.4;stroke-dashoffset:0;stroke-width:1.5;"/>
   </g>
   <g id="line2d_24">
    <path clip-path="url(#pff59b92efd)" d="M 184.581818 484.232727 
L 194.855696 484.031999 
L 205.129574 483.843434 
L 215.403452 483.585357 
L 225.67733 483.179187 
L 235.951208 482.742438 
L 246.225086 482.463373 
L 256.498964 481.438719 
L 266.772842 480.823866 
L 277.04672 479.317294 
L 287.320598 477.647363 
L 297.594476 475.712785 
L 307.868354 473.624107 
L 318.142232 470.654182 
L 328.41611 466.341899 
L 338.689988 460.390291 
L 348.963867 453.632586 
L 359.237745 448.090905 
L 369.511623 440.387542 
L 379.785501 433.701532 
L 390.059379 427.580112 
L 400.333257 420.940804 
L 410.607135 414.929097 
L 420.881013 403.847414 
L 431.154891 394.236387 
L 441.428769 382.132008 
L 451.702647 366.018141 
L 461.976525 344.424025 
L 472.250403 335.552757 
L 482.524281 323.007788 
L 492.798159 314.192517 
L 503.072037 306.972539 
L 513.345915 298.510668 
L 523.619793 292.021566 
L 533.893671 291.168895 
L 544.167549 290.872307 
L 554.441427 286.249456 
L 564.715305 280.288319 
L 574.989183 280.288319 
L 585.263061 280.288319 
L 595.536939 280.288319 
L 605.810817 280.288319 
L 616.084695 280.288319 
L 626.358573 280.288319 
L 636.632451 280.288319 
L 646.906329 280.288319 
L 657.180207 280.288319 
L 667.454085 280.288319 
L 677.727963 280.288319 
L 688.001841 280.288319 
L 698.275719 280.288319 
L 708.549597 280.288319 
L 718.823475 280.288319 
L 729.097353 280.288319 
L 739.371231 280.288319 
L 749.645109 280.288319 
L 759.918987 280.288319 
L 770.192865 280.288319 
L 780.466743 280.288319 
L 790.740621 280.288319 
L 801.014499 280.288319 
L 811.288377 280.288319 
L 821.562255 280.288319 
L 831.836133 280.288319 
L 842.110012 280.288319 
L 852.38389 280.288319 
L 862.657768 280.288319 
L 872.931646 280.288319 
L 883.205524 280.288319 
L 893.479402 280.288319 
L 903.75328 280.288319 
L 914.027158 280.288319 
L 924.301036 280.288319 
L 934.574914 280.288319 
L 944.848792 280.288319 
L 955.12267 280.288319 
L 965.396548 280.288319 
L 975.670426 280.288319 
L 985.944304 280.288319 
L 996.218182 280.288319 
" style="fill:none;stroke:#17becf;stroke-dasharray:5.55,2.4;stroke-dashoffset:0;stroke-width:1.5;"/>
   </g>
   <g id="line2d_25">
    <path clip-path="url(#pff59b92efd)" d="M 184.581818 484.175851 
L 194.855696 483.569304 
L 205.129574 482.77412 
L 215.403452 481.271409 
L 225.67733 480.044101 
L 235.951208 477.393615 
L 246.225086 474.757145 
L 256.498964 471.646687 
L 266.772842 466.616714 
L 277.04672 462.697115 
L 287.320598 459.497335 
L 297.594476 453.552387 
L 307.868354 447.61816 
L 318.142232 439.217624 
L 328.41611 430.194688 
L 338.689988 421.200962 
L 348.963867 412.504754 
L 359.237745 396.940543 
L 369.511623 391.061588 
L 379.785501 383.798737 
L 390.059379 373.55384 
L 400.333257 367.66816 
L 410.607135 359.652225 
L 420.881013 354.94239 
L 431.154891 347.643413 
L 441.428769 336.445237 
L 451.702647 331.727883 
L 461.976525 328.238559 
L 472.250403 320.511411 
L 482.524281 318.074985 
L 492.798159 312.943736 
L 503.072037 308.954934 
L 513.345915 304.480844 
L 523.619793 299.240762 
L 533.893671 294.894377 
L 544.167549 294.719541 
L 554.441427 290.973741 
L 564.715305 290.389887 
L 574.989183 290.673394 
L 585.263061 288.188935 
L 595.536939 287.442957 
L 605.810817 287.202127 
L 616.084695 287.225008 
L 626.358573 283.30987 
L 636.632451 283.459696 
L 646.906329 283.791007 
L 657.180207 283.248136 
L 667.454085 283.52232 
L 677.727963 282.976211 
L 688.001841 280.288319 
L 698.275719 280.288319 
L 708.549597 280.288319 
L 718.823475 280.288319 
L 729.097353 280.288319 
L 739.371231 280.288319 
L 749.645109 280.288319 
L 759.918987 280.288319 
L 770.192865 280.288319 
L 780.466743 280.288319 
L 790.740621 280.288319 
L 801.014499 280.288319 
L 811.288377 280.288319 
L 821.562255 280.288319 
L 831.836133 280.288319 
L 842.110012 280.288319 
L 852.38389 280.288319 
L 862.657768 280.288319 
L 872.931646 280.288319 
L 883.205524 280.288319 
L 893.479402 280.288319 
L 903.75328 280.288319 
L 914.027158 280.288319 
L 924.301036 280.288319 
L 934.574914 280.288319 
L 944.848792 280.288319 
L 955.12267 280.288319 
L 965.396548 280.288319 
L 975.670426 280.288319 
L 985.944304 280.288319 
L 996.218182 280.288319 
" style="fill:none;stroke:#1f77b4;stroke-dasharray:5.55,2.4;stroke-dashoffset:0;stroke-width:1.5;"/>
   </g>
   <g id="patch_3">
    <path d="M 144 504 
L 144 69.12 
" style="fill:none;stroke:#000000;stroke-linecap:square;stroke-linejoin:miter;stroke-width:0.8;"/>
   </g>
   <g id="patch_4">
    <path d="M 1036.8 504 
L 1036.8 69.12 
" style="fill:none;stroke:#000000;stroke-linecap:square;stroke-linejoin:miter;stroke-width:0.8;"/>
   </g>
   <g id="patch_5">
    <path d="M 144 504 
L 1036.8 504 
" style="fill:none;stroke:#000000;stroke-linecap:square;stroke-linejoin:miter;stroke-width:0.8;"/>
   </g>
   <g id="patch_6">
    <path d="M 144 69.12 
L 1036.8 69.12 
" style="fill:none;stroke:#000000;stroke-linecap:square;stroke-linejoin:miter;stroke-width:0.8;"/>
   </g>
   <g id="legend_1">
    <g id="patch_7">
     <path d="M 879.920312 240.52625 
L 1029.8 240.52625 
Q 1031.8 240.52625 1031.8 238.52625 
L 1031.8 76.12 
Q 1031.8 74.12 1029.8 74.12 
L 879.920312 74.12 
Q 877.920312 74.12 877.920312 76.12 
L 877.920312 238.52625 
Q 877.920312 240.52625 879.920312 240.52625 
z
" style="fill:#ffffff;opacity:0.8;stroke:#cccccc;stroke-linejoin:miter;"/>
    </g>
    <g id="line2d_26">
     <path d="M 881.920312 82.218437 
L 901.920312 82.218437 
" style="fill:none;stroke:#1f77b4;stroke-linecap:square;stroke-width:1.5;"/>
    </g>
    <g id="line2d_27"/>
    <g id="text_17">
     <!-- taylorfo noBN -->
     <defs>
      <path d="M 18.3125 70.21875 
L 18.3125 54.6875 
L 36.8125 54.6875 
L 36.8125 47.703125 
L 18.3125 47.703125 
L 18.3125 18.015625 
Q 18.3125 11.328125 20.140625 9.421875 
Q 21.96875 7.515625 27.59375 7.515625 
L 36.8125 7.515625 
L 36.8125 0 
L 27.59375 0 
Q 17.1875 0 13.234375 3.875 
Q 9.28125 7.765625 9.28125 18.015625 
L 9.28125 47.703125 
L 2.6875 47.703125 
L 2.6875 54.6875 
L 9.28125 54.6875 
L 9.28125 70.21875 
z
" id="DejaVuSans-116"/>
      <path d="M 34.28125 27.484375 
Q 23.390625 27.484375 19.1875 25 
Q 14.984375 22.515625 14.984375 16.5 
Q 14.984375 11.71875 18.140625 8.90625 
Q 21.296875 6.109375 26.703125 6.109375 
Q 34.1875 6.109375 38.703125 11.40625 
Q 43.21875 16.703125 43.21875 25.484375 
L 43.21875 27.484375 
z
M 52.203125 31.203125 
L 52.203125 0 
L 43.21875 0 
L 43.21875 8.296875 
Q 40.140625 3.328125 35.546875 0.953125 
Q 30.953125 -1.421875 24.3125 -1.421875 
Q 15.921875 -1.421875 10.953125 3.296875 
Q 6 8.015625 6 15.921875 
Q 6 25.140625 12.171875 29.828125 
Q 18.359375 34.515625 30.609375 34.515625 
L 43.21875 34.515625 
L 43.21875 35.40625 
Q 43.21875 41.609375 39.140625 45 
Q 35.0625 48.390625 27.6875 48.390625 
Q 23 48.390625 18.546875 47.265625 
Q 14.109375 46.140625 10.015625 43.890625 
L 10.015625 52.203125 
Q 14.9375 54.109375 19.578125 55.046875 
Q 24.21875 56 28.609375 56 
Q 40.484375 56 46.34375 49.84375 
Q 52.203125 43.703125 52.203125 31.203125 
z
" id="DejaVuSans-97"/>
      <path d="M 32.171875 -5.078125 
Q 28.375 -14.84375 24.75 -17.8125 
Q 21.140625 -20.796875 15.09375 -20.796875 
L 7.90625 -20.796875 
L 7.90625 -13.28125 
L 13.1875 -13.28125 
Q 16.890625 -13.28125 18.9375 -11.515625 
Q 21 -9.765625 23.484375 -3.21875 
L 25.09375 0.875 
L 2.984375 54.6875 
L 12.5 54.6875 
L 29.59375 11.921875 
L 46.6875 54.6875 
L 56.203125 54.6875 
z
" id="DejaVuSans-121"/>
      <path d="M 9.421875 75.984375 
L 18.40625 75.984375 
L 18.40625 0 
L 9.421875 0 
z
" id="DejaVuSans-108"/>
      <path d="M 19.671875 34.8125 
L 19.671875 8.109375 
L 35.5 8.109375 
Q 43.453125 8.109375 47.28125 11.40625 
Q 51.125 14.703125 51.125 21.484375 
Q 51.125 28.328125 47.28125 31.5625 
Q 43.453125 34.8125 35.5 34.8125 
z
M 19.671875 64.796875 
L 19.671875 42.828125 
L 34.28125 42.828125 
Q 41.5 42.828125 45.03125 45.53125 
Q 48.578125 48.25 48.578125 53.8125 
Q 48.578125 59.328125 45.03125 62.0625 
Q 41.5 64.796875 34.28125 64.796875 
z
M 9.8125 72.90625 
L 35.015625 72.90625 
Q 46.296875 72.90625 52.390625 68.21875 
Q 58.5 63.53125 58.5 54.890625 
Q 58.5 48.1875 55.375 44.234375 
Q 52.25 40.28125 46.1875 39.3125 
Q 53.46875 37.75 57.5 32.78125 
Q 61.53125 27.828125 61.53125 20.40625 
Q 61.53125 10.640625 54.890625 5.3125 
Q 48.25 0 35.984375 0 
L 9.8125 0 
z
" id="DejaVuSans-66"/>
     </defs>
     <g transform="translate(909.920312 85.718437)scale(0.1 -0.1)">
      <use xlink:href="#DejaVuSans-116"/>
      <use x="39.208984" xlink:href="#DejaVuSans-97"/>
      <use x="100.488281" xlink:href="#DejaVuSans-121"/>
      <use x="159.667969" xlink:href="#DejaVuSans-108"/>
      <use x="187.451172" xlink:href="#DejaVuSans-111"/>
      <use x="248.632812" xlink:href="#DejaVuSans-114"/>
      <use x="289.746094" xlink:href="#DejaVuSans-102"/>
      <use x="324.951172" xlink:href="#DejaVuSans-111"/>
      <use x="386.132812" xlink:href="#DejaVuSans-32"/>
      <use x="417.919922" xlink:href="#DejaVuSans-110"/>
      <use x="481.298828" xlink:href="#DejaVuSans-111"/>
      <use x="542.480469" xlink:href="#DejaVuSans-66"/>
      <use x="611.083984" xlink:href="#DejaVuSans-78"/>
     </g>
    </g>
    <g id="line2d_28">
     <path d="M 881.920312 96.896563 
L 901.920312 96.896563 
" style="fill:none;stroke:#ff7f0e;stroke-linecap:square;stroke-width:1.5;"/>
    </g>
    <g id="line2d_29"/>
    <g id="text_18">
     <!-- taylorfo_abs noBN -->
     <defs>
      <path d="M 50.984375 -16.609375 
L 50.984375 -23.578125 
L -0.984375 -23.578125 
L -0.984375 -16.609375 
z
" id="DejaVuSans-95"/>
     </defs>
     <g transform="translate(909.920312 100.396563)scale(0.1 -0.1)">
      <use xlink:href="#DejaVuSans-116"/>
      <use x="39.208984" xlink:href="#DejaVuSans-97"/>
      <use x="100.488281" xlink:href="#DejaVuSans-121"/>
      <use x="159.667969" xlink:href="#DejaVuSans-108"/>
      <use x="187.451172" xlink:href="#DejaVuSans-111"/>
      <use x="248.632812" xlink:href="#DejaVuSans-114"/>
      <use x="289.746094" xlink:href="#DejaVuSans-102"/>
      <use x="324.951172" xlink:href="#DejaVuSans-111"/>
      <use x="386.132812" xlink:href="#DejaVuSans-95"/>
      <use x="436.132812" xlink:href="#DejaVuSans-97"/>
      <use x="497.412109" xlink:href="#DejaVuSans-98"/>
      <use x="560.888672" xlink:href="#DejaVuSans-115"/>
      <use x="612.988281" xlink:href="#DejaVuSans-32"/>
      <use x="644.775391" xlink:href="#DejaVuSans-110"/>
      <use x="708.154297" xlink:href="#DejaVuSans-111"/>
      <use x="769.335938" xlink:href="#DejaVuSans-66"/>
      <use x="837.939453" xlink:href="#DejaVuSans-78"/>
     </g>
    </g>
    <g id="line2d_30">
     <path d="M 881.920312 111.852813 
L 901.920312 111.852813 
" style="fill:none;stroke:#2ca02c;stroke-linecap:square;stroke-width:1.5;"/>
    </g>
    <g id="line2d_31"/>
    <g id="text_19">
     <!-- taylorfo_sq noBN -->
     <defs>
      <path d="M 14.796875 27.296875 
Q 14.796875 17.390625 18.875 11.75 
Q 22.953125 6.109375 30.078125 6.109375 
Q 37.203125 6.109375 41.296875 11.75 
Q 45.40625 17.390625 45.40625 27.296875 
Q 45.40625 37.203125 41.296875 42.84375 
Q 37.203125 48.484375 30.078125 48.484375 
Q 22.953125 48.484375 18.875 42.84375 
Q 14.796875 37.203125 14.796875 27.296875 
z
M 45.40625 8.203125 
Q 42.578125 3.328125 38.25 0.953125 
Q 33.9375 -1.421875 27.875 -1.421875 
Q 17.96875 -1.421875 11.734375 6.484375 
Q 5.515625 14.40625 5.515625 27.296875 
Q 5.515625 40.1875 11.734375 48.09375 
Q 17.96875 56 27.875 56 
Q 33.9375 56 38.25 53.625 
Q 42.578125 51.265625 45.40625 46.390625 
L 45.40625 54.6875 
L 54.390625 54.6875 
L 54.390625 -20.796875 
L 45.40625 -20.796875 
z
" id="DejaVuSans-113"/>
     </defs>
     <g transform="translate(909.920312 115.352813)scale(0.1 -0.1)">
      <use xlink:href="#DejaVuSans-116"/>
      <use x="39.208984" xlink:href="#DejaVuSans-97"/>
      <use x="100.488281" xlink:href="#DejaVuSans-121"/>
      <use x="159.667969" xlink:href="#DejaVuSans-108"/>
      <use x="187.451172" xlink:href="#DejaVuSans-111"/>
      <use x="248.632812" xlink:href="#DejaVuSans-114"/>
      <use x="289.746094" xlink:href="#DejaVuSans-102"/>
      <use x="324.951172" xlink:href="#DejaVuSans-111"/>
      <use x="386.132812" xlink:href="#DejaVuSans-95"/>
      <use x="436.132812" xlink:href="#DejaVuSans-115"/>
      <use x="488.232422" xlink:href="#DejaVuSans-113"/>
      <use x="551.708984" xlink:href="#DejaVuSans-32"/>
      <use x="583.496094" xlink:href="#DejaVuSans-110"/>
      <use x="646.875" xlink:href="#DejaVuSans-111"/>
      <use x="708.056641" xlink:href="#DejaVuSans-66"/>
      <use x="776.660156" xlink:href="#DejaVuSans-78"/>
     </g>
    </g>
    <g id="line2d_32">
     <path d="M 881.920312 126.809062 
L 901.920312 126.809062 
" style="fill:none;stroke:#d62728;stroke-dasharray:5.55,2.4;stroke-dashoffset:0;stroke-width:1.5;"/>
    </g>
    <g id="line2d_33"/>
    <g id="text_20">
     <!-- Molchanov_group noBN -->
     <defs>
      <path d="M 9.8125 72.90625 
L 24.515625 72.90625 
L 43.109375 23.296875 
L 61.8125 72.90625 
L 76.515625 72.90625 
L 76.515625 0 
L 66.890625 0 
L 66.890625 64.015625 
L 48.09375 14.015625 
L 38.1875 14.015625 
L 19.390625 64.015625 
L 19.390625 0 
L 9.8125 0 
z
" id="DejaVuSans-77"/>
      <path d="M 48.78125 52.59375 
L 48.78125 44.1875 
Q 44.96875 46.296875 41.140625 47.34375 
Q 37.3125 48.390625 33.40625 48.390625 
Q 24.65625 48.390625 19.8125 42.84375 
Q 14.984375 37.3125 14.984375 27.296875 
Q 14.984375 17.28125 19.8125 11.734375 
Q 24.65625 6.203125 33.40625 6.203125 
Q 37.3125 6.203125 41.140625 7.25 
Q 44.96875 8.296875 48.78125 10.40625 
L 48.78125 2.09375 
Q 45.015625 0.34375 40.984375 -0.53125 
Q 36.96875 -1.421875 32.421875 -1.421875 
Q 20.0625 -1.421875 12.78125 6.34375 
Q 5.515625 14.109375 5.515625 27.296875 
Q 5.515625 40.671875 12.859375 48.328125 
Q 20.21875 56 33.015625 56 
Q 37.15625 56 41.109375 55.140625 
Q 45.0625 54.296875 48.78125 52.59375 
z
" id="DejaVuSans-99"/>
      <path d="M 54.890625 33.015625 
L 54.890625 0 
L 45.90625 0 
L 45.90625 32.71875 
Q 45.90625 40.484375 42.875 44.328125 
Q 39.84375 48.1875 33.796875 48.1875 
Q 26.515625 48.1875 22.3125 43.546875 
Q 18.109375 38.921875 18.109375 30.90625 
L 18.109375 0 
L 9.078125 0 
L 9.078125 75.984375 
L 18.109375 75.984375 
L 18.109375 46.1875 
Q 21.34375 51.125 25.703125 53.5625 
Q 30.078125 56 35.796875 56 
Q 45.21875 56 50.046875 50.171875 
Q 54.890625 44.34375 54.890625 33.015625 
z
" id="DejaVuSans-104"/>
      <path d="M 2.984375 54.6875 
L 12.5 54.6875 
L 29.59375 8.796875 
L 46.6875 54.6875 
L 56.203125 54.6875 
L 35.6875 0 
L 23.484375 0 
z
" id="DejaVuSans-118"/>
      <path d="M 45.40625 27.984375 
Q 45.40625 37.75 41.375 43.109375 
Q 37.359375 48.484375 30.078125 48.484375 
Q 22.859375 48.484375 18.828125 43.109375 
Q 14.796875 37.75 14.796875 27.984375 
Q 14.796875 18.265625 18.828125 12.890625 
Q 22.859375 7.515625 30.078125 7.515625 
Q 37.359375 7.515625 41.375 12.890625 
Q 45.40625 18.265625 45.40625 27.984375 
z
M 54.390625 6.78125 
Q 54.390625 -7.171875 48.1875 -13.984375 
Q 42 -20.796875 29.203125 -20.796875 
Q 24.46875 -20.796875 20.265625 -20.09375 
Q 16.0625 -19.390625 12.109375 -17.921875 
L 12.109375 -9.1875 
Q 16.0625 -11.328125 19.921875 -12.34375 
Q 23.78125 -13.375 27.78125 -13.375 
Q 36.625 -13.375 41.015625 -8.765625 
Q 45.40625 -4.15625 45.40625 5.171875 
L 45.40625 9.625 
Q 42.625 4.78125 38.28125 2.390625 
Q 33.9375 0 27.875 0 
Q 17.828125 0 11.671875 7.65625 
Q 5.515625 15.328125 5.515625 27.984375 
Q 5.515625 40.671875 11.671875 48.328125 
Q 17.828125 56 27.875 56 
Q 33.9375 56 38.28125 53.609375 
Q 42.625 51.21875 45.40625 46.390625 
L 45.40625 54.6875 
L 54.390625 54.6875 
z
" id="DejaVuSans-103"/>
     </defs>
     <g transform="translate(909.920312 130.309062)scale(0.1 -0.1)">
      <use xlink:href="#DejaVuSans-77"/>
      <use x="86.279297" xlink:href="#DejaVuSans-111"/>
      <use x="147.460938" xlink:href="#DejaVuSans-108"/>
      <use x="175.244141" xlink:href="#DejaVuSans-99"/>
      <use x="230.224609" xlink:href="#DejaVuSans-104"/>
      <use x="293.603516" xlink:href="#DejaVuSans-97"/>
      <use x="354.882812" xlink:href="#DejaVuSans-110"/>
      <use x="418.261719" xlink:href="#DejaVuSans-111"/>
      <use x="479.443359" xlink:href="#DejaVuSans-118"/>
      <use x="538.623047" xlink:href="#DejaVuSans-95"/>
      <use x="588.623047" xlink:href="#DejaVuSans-103"/>
      <use x="652.099609" xlink:href="#DejaVuSans-114"/>
      <use x="690.962891" xlink:href="#DejaVuSans-111"/>
      <use x="752.144531" xlink:href="#DejaVuSans-117"/>
      <use x="815.523438" xlink:href="#DejaVuSans-112"/>
      <use x="879" xlink:href="#DejaVuSans-32"/>
      <use x="910.787109" xlink:href="#DejaVuSans-110"/>
      <use x="974.166016" xlink:href="#DejaVuSans-111"/>
      <use x="1035.347656" xlink:href="#DejaVuSans-66"/>
      <use x="1103.951172" xlink:href="#DejaVuSans-78"/>
     </g>
    </g>
    <g id="line2d_34">
     <path d="M 881.920312 141.765312 
L 901.920312 141.765312 
" style="fill:none;stroke:#9467bd;stroke-dasharray:5.55,2.4;stroke-dashoffset:0;stroke-width:1.5;"/>
    </g>
    <g id="line2d_35"/>
    <g id="text_21">
     <!-- APnZ noBN -->
     <defs>
      <path d="M 34.1875 63.1875 
L 20.796875 26.90625 
L 47.609375 26.90625 
z
M 28.609375 72.90625 
L 39.796875 72.90625 
L 67.578125 0 
L 57.328125 0 
L 50.6875 18.703125 
L 17.828125 18.703125 
L 11.1875 0 
L 0.78125 0 
z
" id="DejaVuSans-65"/>
      <path d="M 19.671875 64.796875 
L 19.671875 37.40625 
L 32.078125 37.40625 
Q 38.96875 37.40625 42.71875 40.96875 
Q 46.484375 44.53125 46.484375 51.125 
Q 46.484375 57.671875 42.71875 61.234375 
Q 38.96875 64.796875 32.078125 64.796875 
z
M 9.8125 72.90625 
L 32.078125 72.90625 
Q 44.34375 72.90625 50.609375 67.359375 
Q 56.890625 61.8125 56.890625 51.125 
Q 56.890625 40.328125 50.609375 34.8125 
Q 44.34375 29.296875 32.078125 29.296875 
L 19.671875 29.296875 
L 19.671875 0 
L 9.8125 0 
z
" id="DejaVuSans-80"/>
      <path d="M 5.609375 72.90625 
L 62.890625 72.90625 
L 62.890625 65.375 
L 16.796875 8.296875 
L 64.015625 8.296875 
L 64.015625 0 
L 4.5 0 
L 4.5 7.515625 
L 50.59375 64.59375 
L 5.609375 64.59375 
z
" id="DejaVuSans-90"/>
     </defs>
     <g transform="translate(909.920312 145.265312)scale(0.1 -0.1)">
      <use xlink:href="#DejaVuSans-65"/>
      <use x="68.408203" xlink:href="#DejaVuSans-80"/>
      <use x="126.960938" xlink:href="#DejaVuSans-110"/>
      <use x="190.339844" xlink:href="#DejaVuSans-90"/>
      <use x="258.845703" xlink:href="#DejaVuSans-32"/>
      <use x="290.632812" xlink:href="#DejaVuSans-110"/>
      <use x="354.011719" xlink:href="#DejaVuSans-111"/>
      <use x="415.193359" xlink:href="#DejaVuSans-66"/>
      <use x="483.796875" xlink:href="#DejaVuSans-78"/>
     </g>
    </g>
    <g id="line2d_36">
     <path d="M 881.920312 156.443438 
L 901.920312 156.443438 
" style="fill:none;stroke:#8c564b;stroke-linecap:square;stroke-width:1.5;"/>
    </g>
    <g id="line2d_37"/>
    <g id="text_22">
     <!-- taylorfo BN -->
     <g transform="translate(909.920312 159.943438)scale(0.1 -0.1)">
      <use xlink:href="#DejaVuSans-116"/>
      <use x="39.208984" xlink:href="#DejaVuSans-97"/>
      <use x="100.488281" xlink:href="#DejaVuSans-121"/>
      <use x="159.667969" xlink:href="#DejaVuSans-108"/>
      <use x="187.451172" xlink:href="#DejaVuSans-111"/>
      <use x="248.632812" xlink:href="#DejaVuSans-114"/>
      <use x="289.746094" xlink:href="#DejaVuSans-102"/>
      <use x="324.951172" xlink:href="#DejaVuSans-111"/>
      <use x="386.132812" xlink:href="#DejaVuSans-32"/>
      <use x="417.919922" xlink:href="#DejaVuSans-66"/>
      <use x="486.523438" xlink:href="#DejaVuSans-78"/>
     </g>
    </g>
    <g id="line2d_38">
     <path d="M 881.920312 171.121562 
L 901.920312 171.121562 
" style="fill:none;stroke:#e377c2;stroke-linecap:square;stroke-width:1.5;"/>
    </g>
    <g id="line2d_39"/>
    <g id="text_23">
     <!-- taylorfo_abs BN -->
     <g transform="translate(909.920312 174.621562)scale(0.1 -0.1)">
      <use xlink:href="#DejaVuSans-116"/>
      <use x="39.208984" xlink:href="#DejaVuSans-97"/>
      <use x="100.488281" xlink:href="#DejaVuSans-121"/>
      <use x="159.667969" xlink:href="#DejaVuSans-108"/>
      <use x="187.451172" xlink:href="#DejaVuSans-111"/>
      <use x="248.632812" xlink:href="#DejaVuSans-114"/>
      <use x="289.746094" xlink:href="#DejaVuSans-102"/>
      <use x="324.951172" xlink:href="#DejaVuSans-111"/>
      <use x="386.132812" xlink:href="#DejaVuSans-95"/>
      <use x="436.132812" xlink:href="#DejaVuSans-97"/>
      <use x="497.412109" xlink:href="#DejaVuSans-98"/>
      <use x="560.888672" xlink:href="#DejaVuSans-115"/>
      <use x="612.988281" xlink:href="#DejaVuSans-32"/>
      <use x="644.775391" xlink:href="#DejaVuSans-66"/>
      <use x="713.378906" xlink:href="#DejaVuSans-78"/>
     </g>
    </g>
    <g id="line2d_40">
     <path d="M 881.920312 186.077812 
L 901.920312 186.077812 
" style="fill:none;stroke:#7f7f7f;stroke-linecap:square;stroke-width:1.5;"/>
    </g>
    <g id="line2d_41"/>
    <g id="text_24">
     <!-- taylorfo_sq BN -->
     <g transform="translate(909.920312 189.577812)scale(0.1 -0.1)">
      <use xlink:href="#DejaVuSans-116"/>
      <use x="39.208984" xlink:href="#DejaVuSans-97"/>
      <use x="100.488281" xlink:href="#DejaVuSans-121"/>
      <use x="159.667969" xlink:href="#DejaVuSans-108"/>
      <use x="187.451172" xlink:href="#DejaVuSans-111"/>
      <use x="248.632812" xlink:href="#DejaVuSans-114"/>
      <use x="289.746094" xlink:href="#DejaVuSans-102"/>
      <use x="324.951172" xlink:href="#DejaVuSans-111"/>
      <use x="386.132812" xlink:href="#DejaVuSans-95"/>
      <use x="436.132812" xlink:href="#DejaVuSans-115"/>
      <use x="488.232422" xlink:href="#DejaVuSans-113"/>
      <use x="551.708984" xlink:href="#DejaVuSans-32"/>
      <use x="583.496094" xlink:href="#DejaVuSans-66"/>
      <use x="652.099609" xlink:href="#DejaVuSans-78"/>
     </g>
    </g>
    <g id="line2d_42">
     <path d="M 881.920312 201.034063 
L 901.920312 201.034063 
" style="fill:none;stroke:#bcbd22;stroke-dasharray:5.55,2.4;stroke-dashoffset:0;stroke-width:1.5;"/>
    </g>
    <g id="line2d_43"/>
    <g id="text_25">
     <!-- Molchanov_group BN -->
     <g transform="translate(909.920312 204.534063)scale(0.1 -0.1)">
      <use xlink:href="#DejaVuSans-77"/>
      <use x="86.279297" xlink:href="#DejaVuSans-111"/>
      <use x="147.460938" xlink:href="#DejaVuSans-108"/>
      <use x="175.244141" xlink:href="#DejaVuSans-99"/>
      <use x="230.224609" xlink:href="#DejaVuSans-104"/>
      <use x="293.603516" xlink:href="#DejaVuSans-97"/>
      <use x="354.882812" xlink:href="#DejaVuSans-110"/>
      <use x="418.261719" xlink:href="#DejaVuSans-111"/>
      <use x="479.443359" xlink:href="#DejaVuSans-118"/>
      <use x="538.623047" xlink:href="#DejaVuSans-95"/>
      <use x="588.623047" xlink:href="#DejaVuSans-103"/>
      <use x="652.099609" xlink:href="#DejaVuSans-114"/>
      <use x="690.962891" xlink:href="#DejaVuSans-111"/>
      <use x="752.144531" xlink:href="#DejaVuSans-117"/>
      <use x="815.523438" xlink:href="#DejaVuSans-112"/>
      <use x="879" xlink:href="#DejaVuSans-32"/>
      <use x="910.787109" xlink:href="#DejaVuSans-66"/>
      <use x="979.390625" xlink:href="#DejaVuSans-78"/>
     </g>
    </g>
    <g id="line2d_44">
     <path d="M 881.920312 215.990312 
L 901.920312 215.990312 
" style="fill:none;stroke:#17becf;stroke-dasharray:5.55,2.4;stroke-dashoffset:0;stroke-width:1.5;"/>
    </g>
    <g id="line2d_45"/>
    <g id="text_26">
     <!-- Molchanov_BN BN -->
     <g transform="translate(909.920312 219.490312)scale(0.1 -0.1)">
      <use xlink:href="#DejaVuSans-77"/>
      <use x="86.279297" xlink:href="#DejaVuSans-111"/>
      <use x="147.460938" xlink:href="#DejaVuSans-108"/>
      <use x="175.244141" xlink:href="#DejaVuSans-99"/>
      <use x="230.224609" xlink:href="#DejaVuSans-104"/>
      <use x="293.603516" xlink:href="#DejaVuSans-97"/>
      <use x="354.882812" xlink:href="#DejaVuSans-110"/>
      <use x="418.261719" xlink:href="#DejaVuSans-111"/>
      <use x="479.443359" xlink:href="#DejaVuSans-118"/>
      <use x="538.623047" xlink:href="#DejaVuSans-95"/>
      <use x="588.623047" xlink:href="#DejaVuSans-66"/>
      <use x="657.226562" xlink:href="#DejaVuSans-78"/>
      <use x="732.03125" xlink:href="#DejaVuSans-32"/>
      <use x="763.818359" xlink:href="#DejaVuSans-66"/>
      <use x="832.421875" xlink:href="#DejaVuSans-78"/>
     </g>
    </g>
    <g id="line2d_46">
     <path d="M 881.920312 230.946563 
L 901.920312 230.946563 
" style="fill:none;stroke:#1f77b4;stroke-dasharray:5.55,2.4;stroke-dashoffset:0;stroke-width:1.5;"/>
    </g>
    <g id="line2d_47"/>
    <g id="text_27">
     <!-- APnZ BN -->
     <g transform="translate(909.920312 234.446563)scale(0.1 -0.1)">
      <use xlink:href="#DejaVuSans-65"/>
      <use x="68.408203" xlink:href="#DejaVuSans-80"/>
      <use x="126.960938" xlink:href="#DejaVuSans-110"/>
      <use x="190.339844" xlink:href="#DejaVuSans-90"/>
      <use x="258.845703" xlink:href="#DejaVuSans-32"/>
      <use x="290.632812" xlink:href="#DejaVuSans-66"/>
      <use x="359.236328" xlink:href="#DejaVuSans-78"/>
     </g>
    </g>
   </g>
  </g>
 </g>
 <defs>
  <clipPath id="pff59b92efd">
   <rect height="434.88" width="892.8" x="144" y="69.12"/>
  </clipPath>
 </defs>
</svg>
