<?xml version="1.0" encoding="utf-8" standalone="no"?>
<!DOCTYPE svg PUBLIC "-//W3C//DTD SVG 1.1//EN"
  "http://www.w3.org/Graphics/SVG/1.1/DTD/svg11.dtd">
<!-- Created with matplotlib (https://matplotlib.org/) -->
<svg height="576pt" version="1.1" viewBox="0 0 1152 576" width="1152pt" xmlns="http://www.w3.org/2000/svg" xmlns:xlink="http://www.w3.org/1999/xlink">
 <defs>
  <style type="text/css">
*{stroke-linecap:butt;stroke-linejoin:round;}
  </style>
 </defs>
 <g id="figure_1">
  <g id="patch_1">
   <path d="M 0 576 
L 1152 576 
L 1152 0 
L 0 0 
z
" style="fill:#ffffff;"/>
  </g>
  <g id="axes_1">
   <g id="patch_2">
    <path d="M 144 504 
L 1036.8 504 
L 1036.8 69.12 
L 144 69.12 
z
" style="fill:#ffffff;"/>
   </g>
   <g id="matplotlib.axis_1">
    <g id="xtick_1">
     <g id="line2d_1">
      <defs>
       <path d="M 0 0 
L 0 3.5 
" id="m3ad3ba51d5" style="stroke:#000000;stroke-width:0.8;"/>
      </defs>
      <g>
       <use style="stroke:#000000;stroke-width:0.8;" x="182.527043" xlink:href="#m3ad3ba51d5" y="504"/>
      </g>
     </g>
     <g id="text_1">
      <!-- 0 -->
      <defs>
       <path d="M 31.78125 66.40625 
Q 24.171875 66.40625 20.328125 58.90625 
Q 16.5 51.421875 16.5 36.375 
Q 16.5 21.390625 20.328125 13.890625 
Q 24.171875 6.390625 31.78125 6.390625 
Q 39.453125 6.390625 43.28125 13.890625 
Q 47.125 21.390625 47.125 36.375 
Q 47.125 51.421875 43.28125 58.90625 
Q 39.453125 66.40625 31.78125 66.40625 
z
M 31.78125 74.21875 
Q 44.046875 74.21875 50.515625 64.515625 
Q 56.984375 54.828125 56.984375 36.375 
Q 56.984375 17.96875 50.515625 8.265625 
Q 44.046875 -1.421875 31.78125 -1.421875 
Q 19.53125 -1.421875 13.0625 8.265625 
Q 6.59375 17.96875 6.59375 36.375 
Q 6.59375 54.828125 13.0625 64.515625 
Q 19.53125 74.21875 31.78125 74.21875 
z
" id="DejaVuSans-48"/>
      </defs>
      <g transform="translate(179.345793 518.598438)scale(0.1 -0.1)">
       <use xlink:href="#DejaVuSans-48"/>
      </g>
     </g>
    </g>
    <g id="xtick_2">
     <g id="line2d_2">
      <g>
       <use style="stroke:#000000;stroke-width:0.8;" x="285.265823" xlink:href="#m3ad3ba51d5" y="504"/>
      </g>
     </g>
     <g id="text_2">
      <!-- 50 -->
      <defs>
       <path d="M 10.796875 72.90625 
L 49.515625 72.90625 
L 49.515625 64.59375 
L 19.828125 64.59375 
L 19.828125 46.734375 
Q 21.96875 47.46875 24.109375 47.828125 
Q 26.265625 48.1875 28.421875 48.1875 
Q 40.625 48.1875 47.75 41.5 
Q 54.890625 34.8125 54.890625 23.390625 
Q 54.890625 11.625 47.5625 5.09375 
Q 40.234375 -1.421875 26.90625 -1.421875 
Q 22.3125 -1.421875 17.546875 -0.640625 
Q 12.796875 0.140625 7.71875 1.703125 
L 7.71875 11.625 
Q 12.109375 9.234375 16.796875 8.0625 
Q 21.484375 6.890625 26.703125 6.890625 
Q 35.15625 6.890625 40.078125 11.328125 
Q 45.015625 15.765625 45.015625 23.390625 
Q 45.015625 31 40.078125 35.4375 
Q 35.15625 39.890625 26.703125 39.890625 
Q 22.75 39.890625 18.8125 39.015625 
Q 14.890625 38.140625 10.796875 36.28125 
z
" id="DejaVuSans-53"/>
      </defs>
      <g transform="translate(278.903323 518.598438)scale(0.1 -0.1)">
       <use xlink:href="#DejaVuSans-53"/>
       <use x="63.623047" xlink:href="#DejaVuSans-48"/>
      </g>
     </g>
    </g>
    <g id="xtick_3">
     <g id="line2d_3">
      <g>
       <use style="stroke:#000000;stroke-width:0.8;" x="388.004603" xlink:href="#m3ad3ba51d5" y="504"/>
      </g>
     </g>
     <g id="text_3">
      <!-- 100 -->
      <defs>
       <path d="M 12.40625 8.296875 
L 28.515625 8.296875 
L 28.515625 63.921875 
L 10.984375 60.40625 
L 10.984375 69.390625 
L 28.421875 72.90625 
L 38.28125 72.90625 
L 38.28125 8.296875 
L 54.390625 8.296875 
L 54.390625 0 
L 12.40625 0 
z
" id="DejaVuSans-49"/>
      </defs>
      <g transform="translate(378.460853 518.598438)scale(0.1 -0.1)">
       <use xlink:href="#DejaVuSans-49"/>
       <use x="63.623047" xlink:href="#DejaVuSans-48"/>
       <use x="127.246094" xlink:href="#DejaVuSans-48"/>
      </g>
     </g>
    </g>
    <g id="xtick_4">
     <g id="line2d_4">
      <g>
       <use style="stroke:#000000;stroke-width:0.8;" x="490.743383" xlink:href="#m3ad3ba51d5" y="504"/>
      </g>
     </g>
     <g id="text_4">
      <!-- 150 -->
      <g transform="translate(481.199633 518.598438)scale(0.1 -0.1)">
       <use xlink:href="#DejaVuSans-49"/>
       <use x="63.623047" xlink:href="#DejaVuSans-53"/>
       <use x="127.246094" xlink:href="#DejaVuSans-48"/>
      </g>
     </g>
    </g>
    <g id="xtick_5">
     <g id="line2d_5">
      <g>
       <use style="stroke:#000000;stroke-width:0.8;" x="593.482163" xlink:href="#m3ad3ba51d5" y="504"/>
      </g>
     </g>
     <g id="text_5">
      <!-- 200 -->
      <defs>
       <path d="M 19.1875 8.296875 
L 53.609375 8.296875 
L 53.609375 0 
L 7.328125 0 
L 7.328125 8.296875 
Q 12.9375 14.109375 22.625 23.890625 
Q 32.328125 33.6875 34.8125 36.53125 
Q 39.546875 41.84375 41.421875 45.53125 
Q 43.3125 49.21875 43.3125 52.78125 
Q 43.3125 58.59375 39.234375 62.25 
Q 35.15625 65.921875 28.609375 65.921875 
Q 23.96875 65.921875 18.8125 64.3125 
Q 13.671875 62.703125 7.8125 59.421875 
L 7.8125 69.390625 
Q 13.765625 71.78125 18.9375 73 
Q 24.125 74.21875 28.421875 74.21875 
Q 39.75 74.21875 46.484375 68.546875 
Q 53.21875 62.890625 53.21875 53.421875 
Q 53.21875 48.921875 51.53125 44.890625 
Q 49.859375 40.875 45.40625 35.40625 
Q 44.1875 33.984375 37.640625 27.21875 
Q 31.109375 20.453125 19.1875 8.296875 
z
" id="DejaVuSans-50"/>
      </defs>
      <g transform="translate(583.938413 518.598438)scale(0.1 -0.1)">
       <use xlink:href="#DejaVuSans-50"/>
       <use x="63.623047" xlink:href="#DejaVuSans-48"/>
       <use x="127.246094" xlink:href="#DejaVuSans-48"/>
      </g>
     </g>
    </g>
    <g id="xtick_6">
     <g id="line2d_6">
      <g>
       <use style="stroke:#000000;stroke-width:0.8;" x="696.220944" xlink:href="#m3ad3ba51d5" y="504"/>
      </g>
     </g>
     <g id="text_6">
      <!-- 250 -->
      <g transform="translate(686.677194 518.598438)scale(0.1 -0.1)">
       <use xlink:href="#DejaVuSans-50"/>
       <use x="63.623047" xlink:href="#DejaVuSans-53"/>
       <use x="127.246094" xlink:href="#DejaVuSans-48"/>
      </g>
     </g>
    </g>
    <g id="xtick_7">
     <g id="line2d_7">
      <g>
       <use style="stroke:#000000;stroke-width:0.8;" x="798.959724" xlink:href="#m3ad3ba51d5" y="504"/>
      </g>
     </g>
     <g id="text_7">
      <!-- 300 -->
      <defs>
       <path d="M 40.578125 39.3125 
Q 47.65625 37.796875 51.625 33 
Q 55.609375 28.21875 55.609375 21.1875 
Q 55.609375 10.40625 48.1875 4.484375 
Q 40.765625 -1.421875 27.09375 -1.421875 
Q 22.515625 -1.421875 17.65625 -0.515625 
Q 12.796875 0.390625 7.625 2.203125 
L 7.625 11.71875 
Q 11.71875 9.328125 16.59375 8.109375 
Q 21.484375 6.890625 26.8125 6.890625 
Q 36.078125 6.890625 40.9375 10.546875 
Q 45.796875 14.203125 45.796875 21.1875 
Q 45.796875 27.640625 41.28125 31.265625 
Q 36.765625 34.90625 28.71875 34.90625 
L 20.21875 34.90625 
L 20.21875 43.015625 
L 29.109375 43.015625 
Q 36.375 43.015625 40.234375 45.921875 
Q 44.09375 48.828125 44.09375 54.296875 
Q 44.09375 59.90625 40.109375 62.90625 
Q 36.140625 65.921875 28.71875 65.921875 
Q 24.65625 65.921875 20.015625 65.03125 
Q 15.375 64.15625 9.8125 62.3125 
L 9.8125 71.09375 
Q 15.4375 72.65625 20.34375 73.4375 
Q 25.25 74.21875 29.59375 74.21875 
Q 40.828125 74.21875 47.359375 69.109375 
Q 53.90625 64.015625 53.90625 55.328125 
Q 53.90625 49.265625 50.4375 45.09375 
Q 46.96875 40.921875 40.578125 39.3125 
z
" id="DejaVuSans-51"/>
      </defs>
      <g transform="translate(789.415974 518.598438)scale(0.1 -0.1)">
       <use xlink:href="#DejaVuSans-51"/>
       <use x="63.623047" xlink:href="#DejaVuSans-48"/>
       <use x="127.246094" xlink:href="#DejaVuSans-48"/>
      </g>
     </g>
    </g>
    <g id="xtick_8">
     <g id="line2d_8">
      <g>
       <use style="stroke:#000000;stroke-width:0.8;" x="901.698504" xlink:href="#m3ad3ba51d5" y="504"/>
      </g>
     </g>
     <g id="text_8">
      <!-- 350 -->
      <g transform="translate(892.154754 518.598438)scale(0.1 -0.1)">
       <use xlink:href="#DejaVuSans-51"/>
       <use x="63.623047" xlink:href="#DejaVuSans-53"/>
       <use x="127.246094" xlink:href="#DejaVuSans-48"/>
      </g>
     </g>
    </g>
    <g id="xtick_9">
     <g id="line2d_9">
      <g>
       <use style="stroke:#000000;stroke-width:0.8;" x="1004.437284" xlink:href="#m3ad3ba51d5" y="504"/>
      </g>
     </g>
     <g id="text_9">
      <!-- 400 -->
      <defs>
       <path d="M 37.796875 64.3125 
L 12.890625 25.390625 
L 37.796875 25.390625 
z
M 35.203125 72.90625 
L 47.609375 72.90625 
L 47.609375 25.390625 
L 58.015625 25.390625 
L 58.015625 17.1875 
L 47.609375 17.1875 
L 47.609375 0 
L 37.796875 0 
L 37.796875 17.1875 
L 4.890625 17.1875 
L 4.890625 26.703125 
z
" id="DejaVuSans-52"/>
      </defs>
      <g transform="translate(994.893534 518.598438)scale(0.1 -0.1)">
       <use xlink:href="#DejaVuSans-52"/>
       <use x="63.623047" xlink:href="#DejaVuSans-48"/>
       <use x="127.246094" xlink:href="#DejaVuSans-48"/>
      </g>
     </g>
    </g>
    <g id="text_10">
     <!-- Number of Neurons pruned -->
     <defs>
      <path d="M 9.8125 72.90625 
L 23.09375 72.90625 
L 55.421875 11.921875 
L 55.421875 72.90625 
L 64.984375 72.90625 
L 64.984375 0 
L 51.703125 0 
L 19.390625 60.984375 
L 19.390625 0 
L 9.8125 0 
z
" id="DejaVuSans-78"/>
      <path d="M 8.5 21.578125 
L 8.5 54.6875 
L 17.484375 54.6875 
L 17.484375 21.921875 
Q 17.484375 14.15625 20.5 10.265625 
Q 23.53125 6.390625 29.59375 6.390625 
Q 36.859375 6.390625 41.078125 11.03125 
Q 45.3125 15.671875 45.3125 23.6875 
L 45.3125 54.6875 
L 54.296875 54.6875 
L 54.296875 0 
L 45.3125 0 
L 45.3125 8.40625 
Q 42.046875 3.421875 37.71875 1 
Q 33.40625 -1.421875 27.6875 -1.421875 
Q 18.265625 -1.421875 13.375 4.4375 
Q 8.5 10.296875 8.5 21.578125 
z
M 31.109375 56 
z
" id="DejaVuSans-117"/>
      <path d="M 52 44.1875 
Q 55.375 50.25 60.0625 53.125 
Q 64.75 56 71.09375 56 
Q 79.640625 56 84.28125 50.015625 
Q 88.921875 44.046875 88.921875 33.015625 
L 88.921875 0 
L 79.890625 0 
L 79.890625 32.71875 
Q 79.890625 40.578125 77.09375 44.375 
Q 74.3125 48.1875 68.609375 48.1875 
Q 61.625 48.1875 57.5625 43.546875 
Q 53.515625 38.921875 53.515625 30.90625 
L 53.515625 0 
L 44.484375 0 
L 44.484375 32.71875 
Q 44.484375 40.625 41.703125 44.40625 
Q 38.921875 48.1875 33.109375 48.1875 
Q 26.21875 48.1875 22.15625 43.53125 
Q 18.109375 38.875 18.109375 30.90625 
L 18.109375 0 
L 9.078125 0 
L 9.078125 54.6875 
L 18.109375 54.6875 
L 18.109375 46.1875 
Q 21.1875 51.21875 25.484375 53.609375 
Q 29.78125 56 35.6875 56 
Q 41.65625 56 45.828125 52.96875 
Q 50 49.953125 52 44.1875 
z
" id="DejaVuSans-109"/>
      <path d="M 48.6875 27.296875 
Q 48.6875 37.203125 44.609375 42.84375 
Q 40.53125 48.484375 33.40625 48.484375 
Q 26.265625 48.484375 22.1875 42.84375 
Q 18.109375 37.203125 18.109375 27.296875 
Q 18.109375 17.390625 22.1875 11.75 
Q 26.265625 6.109375 33.40625 6.109375 
Q 40.53125 6.109375 44.609375 11.75 
Q 48.6875 17.390625 48.6875 27.296875 
z
M 18.109375 46.390625 
Q 20.953125 51.265625 25.265625 53.625 
Q 29.59375 56 35.59375 56 
Q 45.5625 56 51.78125 48.09375 
Q 58.015625 40.1875 58.015625 27.296875 
Q 58.015625 14.40625 51.78125 6.484375 
Q 45.5625 -1.421875 35.59375 -1.421875 
Q 29.59375 -1.421875 25.265625 0.953125 
Q 20.953125 3.328125 18.109375 8.203125 
L 18.109375 0 
L 9.078125 0 
L 9.078125 75.984375 
L 18.109375 75.984375 
z
" id="DejaVuSans-98"/>
      <path d="M 56.203125 29.59375 
L 56.203125 25.203125 
L 14.890625 25.203125 
Q 15.484375 15.921875 20.484375 11.0625 
Q 25.484375 6.203125 34.421875 6.203125 
Q 39.59375 6.203125 44.453125 7.46875 
Q 49.3125 8.734375 54.109375 11.28125 
L 54.109375 2.78125 
Q 49.265625 0.734375 44.1875 -0.34375 
Q 39.109375 -1.421875 33.890625 -1.421875 
Q 20.796875 -1.421875 13.15625 6.1875 
Q 5.515625 13.8125 5.515625 26.8125 
Q 5.515625 40.234375 12.765625 48.109375 
Q 20.015625 56 32.328125 56 
Q 43.359375 56 49.78125 48.890625 
Q 56.203125 41.796875 56.203125 29.59375 
z
M 47.21875 32.234375 
Q 47.125 39.59375 43.09375 43.984375 
Q 39.0625 48.390625 32.421875 48.390625 
Q 24.90625 48.390625 20.390625 44.140625 
Q 15.875 39.890625 15.1875 32.171875 
z
" id="DejaVuSans-101"/>
      <path d="M 41.109375 46.296875 
Q 39.59375 47.171875 37.8125 47.578125 
Q 36.03125 48 33.890625 48 
Q 26.265625 48 22.1875 43.046875 
Q 18.109375 38.09375 18.109375 28.8125 
L 18.109375 0 
L 9.078125 0 
L 9.078125 54.6875 
L 18.109375 54.6875 
L 18.109375 46.1875 
Q 20.953125 51.171875 25.484375 53.578125 
Q 30.03125 56 36.53125 56 
Q 37.453125 56 38.578125 55.875 
Q 39.703125 55.765625 41.0625 55.515625 
z
" id="DejaVuSans-114"/>
      <path id="DejaVuSans-32"/>
      <path d="M 30.609375 48.390625 
Q 23.390625 48.390625 19.1875 42.75 
Q 14.984375 37.109375 14.984375 27.296875 
Q 14.984375 17.484375 19.15625 11.84375 
Q 23.34375 6.203125 30.609375 6.203125 
Q 37.796875 6.203125 41.984375 11.859375 
Q 46.1875 17.53125 46.1875 27.296875 
Q 46.1875 37.015625 41.984375 42.703125 
Q 37.796875 48.390625 30.609375 48.390625 
z
M 30.609375 56 
Q 42.328125 56 49.015625 48.375 
Q 55.71875 40.765625 55.71875 27.296875 
Q 55.71875 13.875 49.015625 6.21875 
Q 42.328125 -1.421875 30.609375 -1.421875 
Q 18.84375 -1.421875 12.171875 6.21875 
Q 5.515625 13.875 5.515625 27.296875 
Q 5.515625 40.765625 12.171875 48.375 
Q 18.84375 56 30.609375 56 
z
" id="DejaVuSans-111"/>
      <path d="M 37.109375 75.984375 
L 37.109375 68.5 
L 28.515625 68.5 
Q 23.6875 68.5 21.796875 66.546875 
Q 19.921875 64.59375 19.921875 59.515625 
L 19.921875 54.6875 
L 34.71875 54.6875 
L 34.71875 47.703125 
L 19.921875 47.703125 
L 19.921875 0 
L 10.890625 0 
L 10.890625 47.703125 
L 2.296875 47.703125 
L 2.296875 54.6875 
L 10.890625 54.6875 
L 10.890625 58.5 
Q 10.890625 67.625 15.140625 71.796875 
Q 19.390625 75.984375 28.609375 75.984375 
z
" id="DejaVuSans-102"/>
      <path d="M 54.890625 33.015625 
L 54.890625 0 
L 45.90625 0 
L 45.90625 32.71875 
Q 45.90625 40.484375 42.875 44.328125 
Q 39.84375 48.1875 33.796875 48.1875 
Q 26.515625 48.1875 22.3125 43.546875 
Q 18.109375 38.921875 18.109375 30.90625 
L 18.109375 0 
L 9.078125 0 
L 9.078125 54.6875 
L 18.109375 54.6875 
L 18.109375 46.1875 
Q 21.34375 51.125 25.703125 53.5625 
Q 30.078125 56 35.796875 56 
Q 45.21875 56 50.046875 50.171875 
Q 54.890625 44.34375 54.890625 33.015625 
z
" id="DejaVuSans-110"/>
      <path d="M 44.28125 53.078125 
L 44.28125 44.578125 
Q 40.484375 46.53125 36.375 47.5 
Q 32.28125 48.484375 27.875 48.484375 
Q 21.1875 48.484375 17.84375 46.4375 
Q 14.5 44.390625 14.5 40.28125 
Q 14.5 37.15625 16.890625 35.375 
Q 19.28125 33.59375 26.515625 31.984375 
L 29.59375 31.296875 
Q 39.15625 29.25 43.1875 25.515625 
Q 47.21875 21.78125 47.21875 15.09375 
Q 47.21875 7.46875 41.1875 3.015625 
Q 35.15625 -1.421875 24.609375 -1.421875 
Q 20.21875 -1.421875 15.453125 -0.5625 
Q 10.6875 0.296875 5.421875 2 
L 5.421875 11.28125 
Q 10.40625 8.6875 15.234375 7.390625 
Q 20.0625 6.109375 24.8125 6.109375 
Q 31.15625 6.109375 34.5625 8.28125 
Q 37.984375 10.453125 37.984375 14.40625 
Q 37.984375 18.0625 35.515625 20.015625 
Q 33.0625 21.96875 24.703125 23.78125 
L 21.578125 24.515625 
Q 13.234375 26.265625 9.515625 29.90625 
Q 5.8125 33.546875 5.8125 39.890625 
Q 5.8125 47.609375 11.28125 51.796875 
Q 16.75 56 26.8125 56 
Q 31.78125 56 36.171875 55.265625 
Q 40.578125 54.546875 44.28125 53.078125 
z
" id="DejaVuSans-115"/>
      <path d="M 18.109375 8.203125 
L 18.109375 -20.796875 
L 9.078125 -20.796875 
L 9.078125 54.6875 
L 18.109375 54.6875 
L 18.109375 46.390625 
Q 20.953125 51.265625 25.265625 53.625 
Q 29.59375 56 35.59375 56 
Q 45.5625 56 51.78125 48.09375 
Q 58.015625 40.1875 58.015625 27.296875 
Q 58.015625 14.40625 51.78125 6.484375 
Q 45.5625 -1.421875 35.59375 -1.421875 
Q 29.59375 -1.421875 25.265625 0.953125 
Q 20.953125 3.328125 18.109375 8.203125 
z
M 48.6875 27.296875 
Q 48.6875 37.203125 44.609375 42.84375 
Q 40.53125 48.484375 33.40625 48.484375 
Q 26.265625 48.484375 22.1875 42.84375 
Q 18.109375 37.203125 18.109375 27.296875 
Q 18.109375 17.390625 22.1875 11.75 
Q 26.265625 6.109375 33.40625 6.109375 
Q 40.53125 6.109375 44.609375 11.75 
Q 48.6875 17.390625 48.6875 27.296875 
z
" id="DejaVuSans-112"/>
      <path d="M 45.40625 46.390625 
L 45.40625 75.984375 
L 54.390625 75.984375 
L 54.390625 0 
L 45.40625 0 
L 45.40625 8.203125 
Q 42.578125 3.328125 38.25 0.953125 
Q 33.9375 -1.421875 27.875 -1.421875 
Q 17.96875 -1.421875 11.734375 6.484375 
Q 5.515625 14.40625 5.515625 27.296875 
Q 5.515625 40.1875 11.734375 48.09375 
Q 17.96875 56 27.875 56 
Q 33.9375 56 38.25 53.625 
Q 42.578125 51.265625 45.40625 46.390625 
z
M 14.796875 27.296875 
Q 14.796875 17.390625 18.875 11.75 
Q 22.953125 6.109375 30.078125 6.109375 
Q 37.203125 6.109375 41.296875 11.75 
Q 45.40625 17.390625 45.40625 27.296875 
Q 45.40625 37.203125 41.296875 42.84375 
Q 37.203125 48.484375 30.078125 48.484375 
Q 22.953125 48.484375 18.875 42.84375 
Q 14.796875 37.203125 14.796875 27.296875 
z
" id="DejaVuSans-100"/>
     </defs>
     <g transform="translate(522.147656 532.276562)scale(0.1 -0.1)">
      <use xlink:href="#DejaVuSans-78"/>
      <use x="74.804688" xlink:href="#DejaVuSans-117"/>
      <use x="138.183594" xlink:href="#DejaVuSans-109"/>
      <use x="235.595703" xlink:href="#DejaVuSans-98"/>
      <use x="299.072266" xlink:href="#DejaVuSans-101"/>
      <use x="360.595703" xlink:href="#DejaVuSans-114"/>
      <use x="401.708984" xlink:href="#DejaVuSans-32"/>
      <use x="433.496094" xlink:href="#DejaVuSans-111"/>
      <use x="494.677734" xlink:href="#DejaVuSans-102"/>
      <use x="529.882812" xlink:href="#DejaVuSans-32"/>
      <use x="561.669922" xlink:href="#DejaVuSans-78"/>
      <use x="636.474609" xlink:href="#DejaVuSans-101"/>
      <use x="697.998047" xlink:href="#DejaVuSans-117"/>
      <use x="761.376953" xlink:href="#DejaVuSans-114"/>
      <use x="800.240234" xlink:href="#DejaVuSans-111"/>
      <use x="861.421875" xlink:href="#DejaVuSans-110"/>
      <use x="924.800781" xlink:href="#DejaVuSans-115"/>
      <use x="976.900391" xlink:href="#DejaVuSans-32"/>
      <use x="1008.6875" xlink:href="#DejaVuSans-112"/>
      <use x="1072.164062" xlink:href="#DejaVuSans-114"/>
      <use x="1113.277344" xlink:href="#DejaVuSans-117"/>
      <use x="1176.65625" xlink:href="#DejaVuSans-110"/>
      <use x="1240.035156" xlink:href="#DejaVuSans-101"/>
      <use x="1301.558594" xlink:href="#DejaVuSans-100"/>
     </g>
    </g>
   </g>
   <g id="matplotlib.axis_2">
    <g id="ytick_1">
     <g id="line2d_10">
      <defs>
       <path d="M 0 0 
L -3.5 0 
" id="mbcced4fbe6" style="stroke:#000000;stroke-width:0.8;"/>
      </defs>
      <g>
       <use style="stroke:#000000;stroke-width:0.8;" x="144" xlink:href="#mbcced4fbe6" y="487.441951"/>
      </g>
     </g>
     <g id="text_11">
      <!-- 0 -->
      <g transform="translate(130.6375 491.24117)scale(0.1 -0.1)">
       <use xlink:href="#DejaVuSans-48"/>
      </g>
     </g>
    </g>
    <g id="ytick_2">
     <g id="line2d_11">
      <g>
       <use style="stroke:#000000;stroke-width:0.8;" x="144" xlink:href="#mbcced4fbe6" y="401.570821"/>
      </g>
     </g>
     <g id="text_12">
      <!-- 1 -->
      <g transform="translate(130.6375 405.370039)scale(0.1 -0.1)">
       <use xlink:href="#DejaVuSans-49"/>
      </g>
     </g>
    </g>
    <g id="ytick_3">
     <g id="line2d_12">
      <g>
       <use style="stroke:#000000;stroke-width:0.8;" x="144" xlink:href="#mbcced4fbe6" y="315.69969"/>
      </g>
     </g>
     <g id="text_13">
      <!-- 2 -->
      <g transform="translate(130.6375 319.498909)scale(0.1 -0.1)">
       <use xlink:href="#DejaVuSans-50"/>
      </g>
     </g>
    </g>
    <g id="ytick_4">
     <g id="line2d_13">
      <g>
       <use style="stroke:#000000;stroke-width:0.8;" x="144" xlink:href="#mbcced4fbe6" y="229.828559"/>
      </g>
     </g>
     <g id="text_14">
      <!-- 3 -->
      <g transform="translate(130.6375 233.627778)scale(0.1 -0.1)">
       <use xlink:href="#DejaVuSans-51"/>
      </g>
     </g>
    </g>
    <g id="ytick_5">
     <g id="line2d_14">
      <g>
       <use style="stroke:#000000;stroke-width:0.8;" x="144" xlink:href="#mbcced4fbe6" y="143.957429"/>
      </g>
     </g>
     <g id="text_15">
      <!-- 4 -->
      <g transform="translate(130.6375 147.756648)scale(0.1 -0.1)">
       <use xlink:href="#DejaVuSans-52"/>
      </g>
     </g>
    </g>
    <g id="text_16">
     <!-- Loss -->
     <defs>
      <path d="M 9.8125 72.90625 
L 19.671875 72.90625 
L 19.671875 8.296875 
L 55.171875 8.296875 
L 55.171875 0 
L 9.8125 0 
z
" id="DejaVuSans-76"/>
     </defs>
     <g transform="translate(124.557812 297.527188)rotate(-90)scale(0.1 -0.1)">
      <use xlink:href="#DejaVuSans-76"/>
      <use x="53.962891" xlink:href="#DejaVuSans-111"/>
      <use x="115.144531" xlink:href="#DejaVuSans-115"/>
      <use x="167.244141" xlink:href="#DejaVuSans-115"/>
     </g>
    </g>
   </g>
   <g id="line2d_15">
    <path clip-path="url(#p8c7132f295)" d="M 184.581818 483.837173 
L 194.855696 483.334247 
L 205.129574 482.938263 
L 215.403452 482.318624 
L 225.67733 481.607892 
L 235.951208 480.285457 
L 246.225086 479.780529 
L 256.498964 478.043246 
L 266.772842 476.770682 
L 277.04672 476.236031 
L 287.320598 470.758971 
L 297.594476 468.83139 
L 307.868354 451.561291 
L 318.142232 446.361766 
L 328.41611 432.3761 
L 338.689988 425.00698 
L 348.963867 428.472578 
L 359.237745 421.873776 
L 369.511623 414.959599 
L 379.785501 396.908063 
L 390.059379 372.173627 
L 400.333257 368.916073 
L 410.607135 373.044273 
L 420.881013 373.652401 
L 431.154891 349.167237 
L 441.428769 322.673306 
L 451.702647 317.869386 
L 461.976525 306.605053 
L 472.250403 299.990589 
L 482.524281 297.796673 
L 492.798159 259.538145 
L 503.072037 244.678684 
L 513.345915 237.676989 
L 523.619793 237.454649 
L 533.893671 287.368222 
L 544.167549 253.737862 
L 554.441427 255.734252 
L 564.715305 241.825181 
L 574.989183 232.223625 
L 585.263061 224.356115 
L 595.536939 214.682596 
L 605.810817 208.037913 
L 616.084695 206.564861 
L 626.358573 207.102878 
L 636.632451 206.17679 
L 646.906329 191.182554 
L 657.180207 168.607495 
L 667.454085 144.22524 
L 677.727963 157.394365 
L 688.001841 172.834366 
L 698.275719 167.732324 
L 708.549597 165.318402 
L 718.823475 165.936552 
L 729.097353 167.518829 
L 739.371231 159.963966 
L 749.645109 147.063634 
L 759.918987 143.898875 
L 770.192865 181.857265 
L 780.466743 168.041368 
L 790.740621 143.725712 
L 801.014499 142.509354 
L 811.288377 151.6433 
L 821.562255 149.078941 
L 831.836133 156.709289 
L 842.110012 147.363915 
L 852.38389 145.107924 
L 862.657768 132.00243 
L 872.931646 102.675694 
L 883.205524 101.410037 
L 893.479402 101.383299 
L 903.75328 106.797005 
L 914.027158 88.887273 
L 924.301036 100.443289 
L 934.574914 94.091128 
L 944.848792 121.067777 
L 955.12267 135.839326 
L 965.396548 143.021514 
L 975.670426 148.419783 
L 985.944304 143.847078 
L 996.218182 164.567095 
" style="fill:none;stroke:#1f77b4;stroke-linecap:square;stroke-width:1.5;"/>
   </g>
   <g id="line2d_16">
    <path clip-path="url(#p8c7132f295)" d="M 184.581818 483.933666 
L 194.855696 483.720972 
L 205.129574 483.271297 
L 215.403452 482.485717 
L 225.67733 481.870838 
L 235.951208 480.802916 
L 246.225086 479.227358 
L 256.498964 476.0814 
L 266.772842 474.190142 
L 277.04672 472.774994 
L 287.320598 470.940404 
L 297.594476 466.971745 
L 307.868354 458.897426 
L 318.142232 455.927455 
L 328.41611 448.758155 
L 338.689988 442.642458 
L 348.963867 438.216408 
L 359.237745 431.050542 
L 369.511623 427.283286 
L 379.785501 421.282119 
L 390.059379 408.505743 
L 400.333257 403.677244 
L 410.607135 399.896782 
L 420.881013 391.294507 
L 431.154891 382.538098 
L 441.428769 379.359582 
L 451.702647 363.973712 
L 461.976525 359.383594 
L 472.250403 343.575187 
L 482.524281 338.319227 
L 492.798159 335.555909 
L 503.072037 323.879479 
L 513.345915 312.049367 
L 523.619793 311.344329 
L 533.893671 303.834937 
L 544.167549 302.758657 
L 554.441427 302.40451 
L 564.715305 302.321286 
L 574.989183 297.2995 
L 585.263061 296.926231 
L 595.536939 296.272888 
L 605.810817 293.228287 
L 616.084695 293.209165 
L 626.358573 289.369341 
L 636.632451 289.369341 
L 646.906329 289.369341 
L 657.180207 289.369341 
L 667.454085 289.369341 
L 677.727963 289.369341 
L 688.001841 289.369341 
L 698.275719 289.369341 
L 708.549597 289.369341 
L 718.823475 289.369341 
L 729.097353 289.369341 
L 739.371231 289.369341 
L 749.645109 289.369341 
L 759.918987 289.369341 
L 770.192865 289.369341 
L 780.466743 289.369341 
L 790.740621 289.369341 
L 801.014499 289.369341 
L 811.288377 289.369341 
L 821.562255 289.369341 
L 831.836133 289.369341 
L 842.110012 289.369341 
L 852.38389 289.369341 
L 862.657768 289.369341 
L 872.931646 289.369341 
L 883.205524 289.369341 
L 893.479402 289.369341 
L 903.75328 289.369341 
L 914.027158 289.369341 
L 924.301036 289.369341 
L 934.574914 289.369341 
L 944.848792 289.369341 
L 955.12267 289.369341 
L 965.396548 289.369341 
L 975.670426 289.369341 
L 985.944304 289.369341 
L 996.218182 289.369341 
" style="fill:none;stroke:#ff7f0e;stroke-linecap:square;stroke-width:1.5;"/>
   </g>
   <g id="line2d_17">
    <path clip-path="url(#p8c7132f295)" d="M 184.581818 483.933666 
L 194.855696 483.616114 
L 205.129574 483.178208 
L 215.403452 482.519857 
L 225.67733 481.540498 
L 235.951208 480.681163 
L 246.225086 477.384996 
L 256.498964 473.202913 
L 266.772842 470.615701 
L 277.04672 467.589292 
L 287.320598 459.794211 
L 297.594476 455.848505 
L 307.868354 447.615355 
L 318.142232 439.931561 
L 328.41611 432.553347 
L 338.689988 423.910836 
L 348.963867 417.973817 
L 359.237745 414.887374 
L 369.511623 408.987561 
L 379.785501 402.314133 
L 390.059379 395.838038 
L 400.333257 387.999395 
L 410.607135 378.560254 
L 420.881013 363.848262 
L 431.154891 355.933633 
L 441.428769 346.526348 
L 451.702647 337.573243 
L 461.976525 331.957199 
L 472.250403 323.699437 
L 482.524281 314.487836 
L 492.798159 303.065797 
L 503.072037 289.369341 
L 513.345915 289.369341 
L 523.619793 289.369341 
L 533.893671 289.369341 
L 544.167549 289.369341 
L 554.441427 289.369341 
L 564.715305 289.369341 
L 574.989183 289.369341 
L 585.263061 289.369341 
L 595.536939 289.369341 
L 605.810817 289.369341 
L 616.084695 289.369341 
L 626.358573 289.369341 
L 636.632451 289.369341 
L 646.906329 289.369341 
L 657.180207 289.369341 
L 667.454085 289.369341 
L 677.727963 289.369341 
L 688.001841 289.369341 
L 698.275719 289.369341 
L 708.549597 289.369341 
L 718.823475 289.369341 
L 729.097353 289.369341 
L 739.371231 289.369341 
L 749.645109 289.369341 
L 759.918987 289.369341 
L 770.192865 289.369341 
L 780.466743 289.369341 
L 790.740621 289.369341 
L 801.014499 289.369341 
L 811.288377 289.369341 
L 821.562255 289.369341 
L 831.836133 289.369341 
L 842.110012 289.369341 
L 852.38389 289.369341 
L 862.657768 289.369341 
L 872.931646 289.369341 
L 883.205524 289.369341 
L 893.479402 289.369341 
L 903.75328 289.369341 
L 914.027158 289.369341 
L 924.301036 289.369341 
L 934.574914 289.369341 
L 944.848792 289.369341 
L 955.12267 289.369341 
L 965.396548 289.369341 
L 975.670426 289.369341 
L 985.944304 289.369341 
L 996.218182 289.369341 
" style="fill:none;stroke:#2ca02c;stroke-linecap:square;stroke-width:1.5;"/>
   </g>
   <g id="line2d_18">
    <path clip-path="url(#p8c7132f295)" d="M 184.581818 483.896203 
L 194.855696 483.36888 
L 205.129574 482.802512 
L 215.403452 482.084413 
L 225.67733 481.293715 
L 235.951208 479.38095 
L 246.225086 477.575511 
L 256.498964 474.312175 
L 266.772842 472.066382 
L 277.04672 466.48813 
L 287.320598 462.969209 
L 297.594476 460.089492 
L 307.868354 454.844199 
L 318.142232 444.309346 
L 328.41611 434.598852 
L 338.689988 429.898926 
L 348.963867 420.869291 
L 359.237745 412.006841 
L 369.511623 409.566463 
L 379.785501 401.966339 
L 390.059379 384.944977 
L 400.333257 374.774613 
L 410.607135 366.460284 
L 420.881013 361.963616 
L 431.154891 358.073325 
L 441.428769 353.954502 
L 451.702647 351.759388 
L 461.976525 344.997353 
L 472.250403 341.558939 
L 482.524281 335.037597 
L 492.798159 325.816865 
L 503.072037 324.650134 
L 513.345915 322.97323 
L 523.619793 319.331556 
L 533.893671 318.312284 
L 544.167549 316.593819 
L 554.441427 315.536682 
L 564.715305 309.86538 
L 574.989183 305.885622 
L 585.263061 305.177636 
L 595.536939 304.790343 
L 605.810817 303.46521 
L 616.084695 301.355521 
L 626.358573 301.411638 
L 636.632451 301.697159 
L 646.906329 298.639578 
L 657.180207 295.871653 
L 667.454085 296.037507 
L 677.727963 295.405886 
L 688.001841 290.989268 
L 698.275719 290.572883 
L 708.549597 290.316312 
L 718.823475 290.170235 
L 729.097353 289.979916 
L 739.371231 289.345183 
L 749.645109 288.970809 
L 759.918987 288.543081 
L 770.192865 288.244826 
L 780.466743 288.019293 
L 790.740621 288.203859 
L 801.014499 287.833702 
L 811.288377 287.270831 
L 821.562255 286.571382 
L 831.836133 289.369341 
L 842.110012 289.369341 
L 852.38389 289.369341 
L 862.657768 289.369341 
L 872.931646 289.369341 
L 883.205524 289.369341 
L 893.479402 289.369341 
L 903.75328 289.369341 
L 914.027158 289.369341 
L 924.301036 289.369341 
L 934.574914 289.369341 
L 944.848792 289.369341 
L 955.12267 289.369341 
L 965.396548 289.369341 
L 975.670426 289.369341 
L 985.944304 289.369341 
L 996.218182 289.369341 
" style="fill:none;stroke:#d62728;stroke-dasharray:5.55,2.4;stroke-dashoffset:0;stroke-width:1.5;"/>
   </g>
   <g id="line2d_19">
    <path clip-path="url(#p8c7132f295)" d="M 184.581818 483.850871 
L 194.855696 483.176051 
L 205.129574 482.303624 
L 215.403452 480.802045 
L 225.67733 478.834738 
L 235.951208 476.221818 
L 246.225086 473.588729 
L 256.498964 469.539575 
L 266.772842 465.528455 
L 277.04672 460.174037 
L 287.320598 454.060786 
L 297.594476 448.134721 
L 307.868354 442.253246 
L 318.142232 436.283219 
L 328.41611 429.483262 
L 338.689988 421.944517 
L 348.963867 411.967527 
L 359.237745 402.409002 
L 369.511623 393.978635 
L 379.785501 386.149573 
L 390.059379 375.01371 
L 400.333257 357.239592 
L 410.607135 350.709325 
L 420.881013 345.460868 
L 431.154891 339.549098 
L 441.428769 336.224719 
L 451.702647 332.441166 
L 461.976525 322.823048 
L 472.250403 318.173813 
L 482.524281 316.948222 
L 492.798159 311.138572 
L 503.072037 310.16902 
L 513.345915 308.261422 
L 523.619793 304.590667 
L 533.893671 304.479558 
L 544.167549 300.937129 
L 554.441427 299.731192 
L 564.715305 298.661095 
L 574.989183 298.158333 
L 585.263061 297.943957 
L 595.536939 296.71681 
L 605.810817 296.090962 
L 616.084695 296.122123 
L 626.358573 295.020456 
L 636.632451 293.949622 
L 646.906329 292.858642 
L 657.180207 292.147544 
L 667.454085 292.215106 
L 677.727963 292.235702 
L 688.001841 291.727719 
L 698.275719 291.140197 
L 708.549597 291.13686 
L 718.823475 290.998481 
L 729.097353 290.714845 
L 739.371231 290.475758 
L 749.645109 290.559023 
L 759.918987 290.537771 
L 770.192865 290.47326 
L 780.466743 290.265661 
L 790.740621 289.952379 
L 801.014499 289.803805 
L 811.288377 289.594731 
L 821.562255 289.583307 
L 831.836133 289.3987 
L 842.110012 289.332776 
L 852.38389 288.718168 
L 862.657768 288.448924 
L 872.931646 288.606548 
L 883.205524 288.535629 
L 893.479402 288.564455 
L 903.75328 288.441226 
L 914.027158 288.473615 
L 924.301036 288.436047 
L 934.574914 288.583884 
L 944.848792 288.471445 
L 955.12267 288.54607 
L 965.396548 289.369341 
L 975.670426 289.369341 
L 985.944304 289.369341 
L 996.218182 289.369341 
" style="fill:none;stroke:#9467bd;stroke-dasharray:5.55,2.4;stroke-dashoffset:0;stroke-width:1.5;"/>
   </g>
   <g id="line2d_20">
    <path clip-path="url(#p8c7132f295)" d="M 184.581818 484.185296 
L 194.855696 483.949086 
L 205.129574 483.712145 
L 215.403452 483.561284 
L 225.67733 483.361909 
L 235.951208 483.029824 
L 246.225086 482.668584 
L 256.498964 482.026305 
L 266.772842 481.783624 
L 277.04672 481.449545 
L 287.320598 480.888229 
L 297.594476 480.600977 
L 307.868354 479.826466 
L 318.142232 479.730719 
L 328.41611 478.674197 
L 338.689988 477.617275 
L 348.963867 476.411997 
L 359.237745 474.819674 
L 369.511623 472.891623 
L 379.785501 470.228616 
L 390.059379 468.479355 
L 400.333257 467.798423 
L 410.607135 465.958466 
L 420.881013 464.176805 
L 431.154891 462.034 
L 441.428769 456.528241 
L 451.702647 452.727958 
L 461.976525 447.129378 
L 472.250403 445.37173 
L 482.524281 444.447541 
L 492.798159 441.90952 
L 503.072037 440.371368 
L 513.345915 435.639401 
L 523.619793 435.561833 
L 533.893671 427.098376 
L 544.167549 419.294451 
L 554.441427 412.715872 
L 564.715305 410.221434 
L 574.989183 396.824758 
L 585.263061 391.731273 
L 595.536939 371.819531 
L 605.810817 370.964025 
L 616.084695 366.954959 
L 626.358573 361.418464 
L 636.632451 364.836047 
L 646.906329 363.519728 
L 657.180207 347.702558 
L 667.454085 343.729208 
L 677.727963 340.736046 
L 688.001841 333.248397 
L 698.275719 328.449902 
L 708.549597 318.619803 
L 718.823475 307.921627 
L 729.097353 301.025963 
L 739.371231 289.458113 
L 749.645109 278.407582 
L 759.918987 269.502589 
L 770.192865 269.394613 
L 780.466743 253.481823 
L 790.740621 253.764764 
L 801.014499 246.090398 
L 811.288377 221.281255 
L 821.562255 219.055093 
L 831.836133 209.673892 
L 842.110012 217.34015 
L 852.38389 210.297077 
L 862.657768 207.99148 
L 872.931646 196.190317 
L 883.205524 198.245874 
L 893.479402 196.448178 
L 903.75328 214.371668 
L 914.027158 229.725579 
L 924.301036 220.01056 
L 934.574914 205.466859 
L 944.848792 216.776889 
L 955.12267 227.259942 
L 965.396548 230.427362 
L 975.670426 225.9967 
L 985.944304 211.712538 
L 996.218182 289.474799 
" style="fill:none;stroke:#8c564b;stroke-linecap:square;stroke-width:1.5;"/>
   </g>
   <g id="line2d_21">
    <path clip-path="url(#p8c7132f295)" d="M 184.581818 484.227183 
L 194.855696 484.105795 
L 205.129574 483.838678 
L 215.403452 483.503014 
L 225.67733 483.079288 
L 235.951208 482.528697 
L 246.225086 481.676994 
L 256.498964 481.203479 
L 266.772842 480.57741 
L 277.04672 479.025773 
L 287.320598 477.364066 
L 297.594476 475.282803 
L 307.868354 473.497742 
L 318.142232 470.943704 
L 328.41611 469.743308 
L 338.689988 465.943482 
L 348.963867 464.068567 
L 359.237745 454.930752 
L 369.511623 446.923527 
L 379.785501 438.740524 
L 390.059379 435.62639 
L 400.333257 429.872275 
L 410.607135 428.854635 
L 420.881013 422.829791 
L 431.154891 416.501052 
L 441.428769 415.495717 
L 451.702647 405.060756 
L 461.976525 401.511632 
L 472.250403 393.319088 
L 482.524281 378.680268 
L 492.798159 374.856229 
L 503.072037 371.993052 
L 513.345915 365.091993 
L 523.619793 358.284661 
L 533.893671 352.256776 
L 544.167549 351.324925 
L 554.441427 348.556836 
L 564.715305 345.325796 
L 574.989183 341.037095 
L 585.263061 338.10566 
L 595.536939 332.418595 
L 605.810817 326.738909 
L 616.084695 321.879425 
L 626.358573 319.786391 
L 636.632451 315.519832 
L 646.906329 311.571132 
L 657.180207 310.033323 
L 667.454085 305.914858 
L 677.727963 303.536007 
L 688.001841 302.509722 
L 698.275719 300.646716 
L 708.549597 299.560527 
L 718.823475 297.99686 
L 729.097353 297.59239 
L 739.371231 297.714943 
L 749.645109 297.520918 
L 759.918987 296.076263 
L 770.192865 294.274287 
L 780.466743 293.494665 
L 790.740621 291.792046 
L 801.014499 291.748479 
L 811.288377 291.368208 
L 821.562255 289.972136 
L 831.836133 290.918062 
L 842.110012 289.189074 
L 852.38389 289.558965 
L 862.657768 288.747609 
L 872.931646 288.543736 
L 883.205524 288.577353 
L 893.479402 288.720768 
L 903.75328 288.688052 
L 914.027158 288.786979 
L 924.301036 289.281265 
L 934.574914 288.974248 
L 944.848792 288.208773 
L 955.12267 287.939385 
L 965.396548 287.42825 
L 975.670426 287.349407 
L 985.944304 287.498964 
L 996.218182 287.086203 
" style="fill:none;stroke:#e377c2;stroke-linecap:square;stroke-width:1.5;"/>
   </g>
   <g id="line2d_22">
    <path clip-path="url(#p8c7132f295)" d="M 184.581818 484.227183 
L 194.855696 483.926582 
L 205.129574 483.718829 
L 215.403452 483.411636 
L 225.67733 482.630607 
L 235.951208 481.944705 
L 246.225086 481.051406 
L 256.498964 480.110328 
L 266.772842 478.394866 
L 277.04672 476.42672 
L 287.320598 472.957845 
L 297.594476 470.225563 
L 307.868354 466.624773 
L 318.142232 464.401069 
L 328.41611 459.973749 
L 338.689988 452.509002 
L 348.963867 447.861267 
L 359.237745 439.363489 
L 369.511623 436.023695 
L 379.785501 428.510822 
L 390.059379 421.391047 
L 400.333257 417.609014 
L 410.607135 406.598826 
L 420.881013 400.112079 
L 431.154891 387.117673 
L 441.428769 380.839503 
L 451.702647 368.49677 
L 461.976525 365.296869 
L 472.250403 361.288632 
L 482.524281 355.280505 
L 492.798159 349.67091 
L 503.072037 340.838515 
L 513.345915 336.0928 
L 523.619793 331.878213 
L 533.893671 330.728301 
L 544.167549 328.085815 
L 554.441427 326.654498 
L 564.715305 318.793591 
L 574.989183 311.607144 
L 585.263061 307.215197 
L 595.536939 306.315028 
L 605.810817 302.974363 
L 616.084695 298.424793 
L 626.358573 298.381348 
L 636.632451 298.108153 
L 646.906329 296.105396 
L 657.180207 296.251473 
L 667.454085 293.077338 
L 677.727963 293.442478 
L 688.001841 294.032682 
L 698.275719 294.03952 
L 708.549597 293.017617 
L 718.823475 292.677576 
L 729.097353 291.649695 
L 739.371231 292.129527 
L 749.645109 291.654916 
L 759.918987 291.599249 
L 770.192865 291.260457 
L 780.466743 291.149165 
L 790.740621 290.891877 
L 801.014499 290.369768 
L 811.288377 290.954505 
L 821.562255 290.983188 
L 831.836133 290.605251 
L 842.110012 290.635675 
L 852.38389 290.376299 
L 862.657768 289.896037 
L 872.931646 290.463167 
L 883.205524 289.653039 
L 893.479402 290.144459 
L 903.75328 289.108327 
L 914.027158 288.549305 
L 924.301036 288.288373 
L 934.574914 288.397721 
L 944.848792 288.063065 
L 955.12267 287.808459 
L 965.396548 287.025929 
L 975.670426 286.973252 
L 985.944304 287.137243 
L 996.218182 286.807091 
" style="fill:none;stroke:#7f7f7f;stroke-linecap:square;stroke-width:1.5;"/>
   </g>
   <g id="line2d_23">
    <path clip-path="url(#p8c7132f295)" d="M 184.581818 484.175222 
L 194.855696 483.94787 
L 205.129574 483.509024 
L 215.403452 482.990613 
L 225.67733 482.014028 
L 235.951208 481.18095 
L 246.225086 479.833965 
L 256.498964 478.398027 
L 266.772842 476.912998 
L 277.04672 474.338803 
L 287.320598 472.974895 
L 297.594476 468.361405 
L 307.868354 462.061273 
L 318.142232 458.545488 
L 328.41611 453.653568 
L 338.689988 446.494911 
L 348.963867 438.417629 
L 359.237745 428.268194 
L 369.511623 424.520965 
L 379.785501 418.359728 
L 390.059379 412.960558 
L 400.333257 402.815463 
L 410.607135 392.561588 
L 420.881013 391.986237 
L 431.154891 379.634046 
L 441.428769 368.298906 
L 451.702647 359.228837 
L 461.976525 354.770679 
L 472.250403 337.555503 
L 482.524281 329.319678 
L 492.798159 324.168848 
L 503.072037 324.051465 
L 513.345915 323.646852 
L 523.619793 322.693831 
L 533.893671 317.666496 
L 544.167549 317.744765 
L 554.441427 317.284065 
L 564.715305 317.063927 
L 574.989183 311.027546 
L 585.263061 305.322054 
L 595.536939 300.488519 
L 605.810817 300.314742 
L 616.084695 299.991141 
L 626.358573 295.452974 
L 636.632451 289.474799 
L 646.906329 289.474799 
L 657.180207 289.474799 
L 667.454085 289.474799 
L 677.727963 289.474799 
L 688.001841 289.474799 
L 698.275719 289.474799 
L 708.549597 289.474799 
L 718.823475 289.474799 
L 729.097353 289.474799 
L 739.371231 289.474799 
L 749.645109 289.474799 
L 759.918987 289.474799 
L 770.192865 289.474799 
L 780.466743 289.474799 
L 790.740621 289.474799 
L 801.014499 289.474799 
L 811.288377 289.474799 
L 821.562255 289.474799 
L 831.836133 289.474799 
L 842.110012 289.474799 
L 852.38389 289.474799 
L 862.657768 289.474799 
L 872.931646 289.474799 
L 883.205524 289.474799 
L 893.479402 289.474799 
L 903.75328 289.474799 
L 914.027158 289.474799 
L 924.301036 289.474799 
L 934.574914 289.474799 
L 944.848792 289.474799 
L 955.12267 289.474799 
L 965.396548 289.474799 
L 975.670426 289.474799 
L 985.944304 289.474799 
L 996.218182 289.474799 
" style="fill:none;stroke:#bcbd22;stroke-dasharray:5.55,2.4;stroke-dashoffset:0;stroke-width:1.5;"/>
   </g>
   <g id="line2d_24">
    <path clip-path="url(#p8c7132f295)" d="M 184.581818 484.232727 
L 194.855696 484.185982 
L 205.129574 484.068199 
L 215.403452 483.891554 
L 225.67733 483.654278 
L 235.951208 483.455608 
L 246.225086 483.153489 
L 256.498964 482.752287 
L 266.772842 482.300505 
L 277.04672 481.689418 
L 287.320598 480.8682 
L 297.594476 480.150367 
L 307.868354 478.765677 
L 318.142232 477.916016 
L 328.41611 475.954229 
L 338.689988 471.523255 
L 348.963867 469.701087 
L 359.237745 466.357725 
L 369.511623 462.689636 
L 379.785501 462.573484 
L 390.059379 456.634039 
L 400.333257 453.252161 
L 410.607135 446.644666 
L 420.881013 442.006512 
L 431.154891 435.228339 
L 441.428769 432.210793 
L 451.702647 424.378149 
L 461.976525 418.51098 
L 472.250403 411.262914 
L 482.524281 405.206654 
L 492.798159 396.614917 
L 503.072037 391.101444 
L 513.345915 386.031494 
L 523.619793 375.639916 
L 533.893671 371.29821 
L 544.167549 367.722021 
L 554.441427 362.228304 
L 564.715305 361.733179 
L 574.989183 356.758296 
L 585.263061 352.987631 
L 595.536939 346.404717 
L 605.810817 334.938732 
L 616.084695 327.761304 
L 626.358573 318.317249 
L 636.632451 314.39978 
L 646.906329 309.693835 
L 657.180207 305.860358 
L 667.454085 303.472519 
L 677.727963 301.66305 
L 688.001841 299.333724 
L 698.275719 299.187791 
L 708.549597 298.507402 
L 718.823475 295.478115 
L 729.097353 293.446634 
L 739.371231 294.117892 
L 749.645109 290.785641 
L 759.918987 288.503097 
L 770.192865 288.697634 
L 780.466743 288.455025 
L 790.740621 288.44788 
L 801.014499 288.13683 
L 811.288377 289.308249 
L 821.562255 289.418682 
L 831.836133 289.474799 
L 842.110012 289.474799 
L 852.38389 289.474799 
L 862.657768 289.474799 
L 872.931646 289.474799 
L 883.205524 289.474799 
L 893.479402 289.474799 
L 903.75328 289.474799 
L 914.027158 289.474799 
L 924.301036 289.474799 
L 934.574914 289.474799 
L 944.848792 289.474799 
L 955.12267 289.474799 
L 965.396548 289.474799 
L 975.670426 289.474799 
L 985.944304 289.474799 
L 996.218182 289.474799 
" style="fill:none;stroke:#17becf;stroke-dasharray:5.55,2.4;stroke-dashoffset:0;stroke-width:1.5;"/>
   </g>
   <g id="line2d_25">
    <path clip-path="url(#p8c7132f295)" d="M 184.581818 484.174431 
L 194.855696 483.683285 
L 205.129574 482.88284 
L 215.403452 481.964088 
L 225.67733 481.46402 
L 235.951208 479.904219 
L 246.225086 477.416817 
L 256.498964 474.882383 
L 266.772842 472.220029 
L 277.04672 466.827051 
L 287.320598 459.71262 
L 297.594476 452.85121 
L 307.868354 445.095261 
L 318.142232 438.827192 
L 328.41611 432.421914 
L 338.689988 418.282959 
L 348.963867 411.036219 
L 359.237745 397.421441 
L 369.511623 387.864036 
L 379.785501 382.389196 
L 390.059379 377.442413 
L 400.333257 369.924576 
L 410.607135 356.739277 
L 420.881013 351.160279 
L 431.154891 349.791293 
L 441.428769 348.321793 
L 451.702647 343.669385 
L 461.976525 336.367449 
L 472.250403 332.793767 
L 482.524281 324.100918 
L 492.798159 319.322518 
L 503.072037 312.435186 
L 513.345915 311.780328 
L 523.619793 311.376697 
L 533.893671 311.437523 
L 544.167549 311.567098 
L 554.441427 307.314349 
L 564.715305 306.964727 
L 574.989183 305.692477 
L 585.263061 301.438684 
L 595.536939 301.20058 
L 605.810817 301.006022 
L 616.084695 297.931796 
L 626.358573 297.538095 
L 636.632451 297.676699 
L 646.906329 297.867142 
L 657.180207 297.67674 
L 667.454085 297.618269 
L 677.727963 295.126999 
L 688.001841 294.330589 
L 698.275719 294.587282 
L 708.549597 293.985143 
L 718.823475 293.951976 
L 729.097353 293.760306 
L 739.371231 293.445345 
L 749.645109 292.974091 
L 759.918987 291.910177 
L 770.192865 291.522659 
L 780.466743 291.011277 
L 790.740621 290.806626 
L 801.014499 290.37851 
L 811.288377 290.458745 
L 821.562255 290.253336 
L 831.836133 289.829437 
L 842.110012 289.435695 
L 852.38389 289.679552 
L 862.657768 289.39958 
L 872.931646 289.487759 
L 883.205524 289.66993 
L 893.479402 289.716363 
L 903.75328 288.94102 
L 914.027158 289.000536 
L 924.301036 289.146592 
L 934.574914 288.981332 
L 944.848792 288.875935 
L 955.12267 288.456581 
L 965.396548 288.40331 
L 975.670426 288.430007 
L 985.944304 289.474799 
L 996.218182 289.474799 
" style="fill:none;stroke:#1f77b4;stroke-dasharray:5.55,2.4;stroke-dashoffset:0;stroke-width:1.5;"/>
   </g>
   <g id="patch_3">
    <path d="M 144 504 
L 144 69.12 
" style="fill:none;stroke:#000000;stroke-linecap:square;stroke-linejoin:miter;stroke-width:0.8;"/>
   </g>
   <g id="patch_4">
    <path d="M 1036.8 504 
L 1036.8 69.12 
" style="fill:none;stroke:#000000;stroke-linecap:square;stroke-linejoin:miter;stroke-width:0.8;"/>
   </g>
   <g id="patch_5">
    <path d="M 144 504 
L 1036.8 504 
" style="fill:none;stroke:#000000;stroke-linecap:square;stroke-linejoin:miter;stroke-width:0.8;"/>
   </g>
   <g id="patch_6">
    <path d="M 144 69.12 
L 1036.8 69.12 
" style="fill:none;stroke:#000000;stroke-linecap:square;stroke-linejoin:miter;stroke-width:0.8;"/>
   </g>
   <g id="legend_1">
    <g id="patch_7">
     <path d="M 151 240.52625 
L 300.879687 240.52625 
Q 302.879687 240.52625 302.879687 238.52625 
L 302.879687 76.12 
Q 302.879687 74.12 300.879687 74.12 
L 151 74.12 
Q 149 74.12 149 76.12 
L 149 238.52625 
Q 149 240.52625 151 240.52625 
z
" style="fill:#ffffff;opacity:0.8;stroke:#cccccc;stroke-linejoin:miter;"/>
    </g>
    <g id="line2d_26">
     <path d="M 153 82.218437 
L 173 82.218437 
" style="fill:none;stroke:#1f77b4;stroke-linecap:square;stroke-width:1.5;"/>
    </g>
    <g id="line2d_27"/>
    <g id="text_17">
     <!-- taylorfo noBN -->
     <defs>
      <path d="M 18.3125 70.21875 
L 18.3125 54.6875 
L 36.8125 54.6875 
L 36.8125 47.703125 
L 18.3125 47.703125 
L 18.3125 18.015625 
Q 18.3125 11.328125 20.140625 9.421875 
Q 21.96875 7.515625 27.59375 7.515625 
L 36.8125 7.515625 
L 36.8125 0 
L 27.59375 0 
Q 17.1875 0 13.234375 3.875 
Q 9.28125 7.765625 9.28125 18.015625 
L 9.28125 47.703125 
L 2.6875 47.703125 
L 2.6875 54.6875 
L 9.28125 54.6875 
L 9.28125 70.21875 
z
" id="DejaVuSans-116"/>
      <path d="M 34.28125 27.484375 
Q 23.390625 27.484375 19.1875 25 
Q 14.984375 22.515625 14.984375 16.5 
Q 14.984375 11.71875 18.140625 8.90625 
Q 21.296875 6.109375 26.703125 6.109375 
Q 34.1875 6.109375 38.703125 11.40625 
Q 43.21875 16.703125 43.21875 25.484375 
L 43.21875 27.484375 
z
M 52.203125 31.203125 
L 52.203125 0 
L 43.21875 0 
L 43.21875 8.296875 
Q 40.140625 3.328125 35.546875 0.953125 
Q 30.953125 -1.421875 24.3125 -1.421875 
Q 15.921875 -1.421875 10.953125 3.296875 
Q 6 8.015625 6 15.921875 
Q 6 25.140625 12.171875 29.828125 
Q 18.359375 34.515625 30.609375 34.515625 
L 43.21875 34.515625 
L 43.21875 35.40625 
Q 43.21875 41.609375 39.140625 45 
Q 35.0625 48.390625 27.6875 48.390625 
Q 23 48.390625 18.546875 47.265625 
Q 14.109375 46.140625 10.015625 43.890625 
L 10.015625 52.203125 
Q 14.9375 54.109375 19.578125 55.046875 
Q 24.21875 56 28.609375 56 
Q 40.484375 56 46.34375 49.84375 
Q 52.203125 43.703125 52.203125 31.203125 
z
" id="DejaVuSans-97"/>
      <path d="M 32.171875 -5.078125 
Q 28.375 -14.84375 24.75 -17.8125 
Q 21.140625 -20.796875 15.09375 -20.796875 
L 7.90625 -20.796875 
L 7.90625 -13.28125 
L 13.1875 -13.28125 
Q 16.890625 -13.28125 18.9375 -11.515625 
Q 21 -9.765625 23.484375 -3.21875 
L 25.09375 0.875 
L 2.984375 54.6875 
L 12.5 54.6875 
L 29.59375 11.921875 
L 46.6875 54.6875 
L 56.203125 54.6875 
z
" id="DejaVuSans-121"/>
      <path d="M 9.421875 75.984375 
L 18.40625 75.984375 
L 18.40625 0 
L 9.421875 0 
z
" id="DejaVuSans-108"/>
      <path d="M 19.671875 34.8125 
L 19.671875 8.109375 
L 35.5 8.109375 
Q 43.453125 8.109375 47.28125 11.40625 
Q 51.125 14.703125 51.125 21.484375 
Q 51.125 28.328125 47.28125 31.5625 
Q 43.453125 34.8125 35.5 34.8125 
z
M 19.671875 64.796875 
L 19.671875 42.828125 
L 34.28125 42.828125 
Q 41.5 42.828125 45.03125 45.53125 
Q 48.578125 48.25 48.578125 53.8125 
Q 48.578125 59.328125 45.03125 62.0625 
Q 41.5 64.796875 34.28125 64.796875 
z
M 9.8125 72.90625 
L 35.015625 72.90625 
Q 46.296875 72.90625 52.390625 68.21875 
Q 58.5 63.53125 58.5 54.890625 
Q 58.5 48.1875 55.375 44.234375 
Q 52.25 40.28125 46.1875 39.3125 
Q 53.46875 37.75 57.5 32.78125 
Q 61.53125 27.828125 61.53125 20.40625 
Q 61.53125 10.640625 54.890625 5.3125 
Q 48.25 0 35.984375 0 
L 9.8125 0 
z
" id="DejaVuSans-66"/>
     </defs>
     <g transform="translate(181 85.718437)scale(0.1 -0.1)">
      <use xlink:href="#DejaVuSans-116"/>
      <use x="39.208984" xlink:href="#DejaVuSans-97"/>
      <use x="100.488281" xlink:href="#DejaVuSans-121"/>
      <use x="159.667969" xlink:href="#DejaVuSans-108"/>
      <use x="187.451172" xlink:href="#DejaVuSans-111"/>
      <use x="248.632812" xlink:href="#DejaVuSans-114"/>
      <use x="289.746094" xlink:href="#DejaVuSans-102"/>
      <use x="324.951172" xlink:href="#DejaVuSans-111"/>
      <use x="386.132812" xlink:href="#DejaVuSans-32"/>
      <use x="417.919922" xlink:href="#DejaVuSans-110"/>
      <use x="481.298828" xlink:href="#DejaVuSans-111"/>
      <use x="542.480469" xlink:href="#DejaVuSans-66"/>
      <use x="611.083984" xlink:href="#DejaVuSans-78"/>
     </g>
    </g>
    <g id="line2d_28">
     <path d="M 153 96.896563 
L 173 96.896563 
" style="fill:none;stroke:#ff7f0e;stroke-linecap:square;stroke-width:1.5;"/>
    </g>
    <g id="line2d_29"/>
    <g id="text_18">
     <!-- taylorfo_abs noBN -->
     <defs>
      <path d="M 50.984375 -16.609375 
L 50.984375 -23.578125 
L -0.984375 -23.578125 
L -0.984375 -16.609375 
z
" id="DejaVuSans-95"/>
     </defs>
     <g transform="translate(181 100.396563)scale(0.1 -0.1)">
      <use xlink:href="#DejaVuSans-116"/>
      <use x="39.208984" xlink:href="#DejaVuSans-97"/>
      <use x="100.488281" xlink:href="#DejaVuSans-121"/>
      <use x="159.667969" xlink:href="#DejaVuSans-108"/>
      <use x="187.451172" xlink:href="#DejaVuSans-111"/>
      <use x="248.632812" xlink:href="#DejaVuSans-114"/>
      <use x="289.746094" xlink:href="#DejaVuSans-102"/>
      <use x="324.951172" xlink:href="#DejaVuSans-111"/>
      <use x="386.132812" xlink:href="#DejaVuSans-95"/>
      <use x="436.132812" xlink:href="#DejaVuSans-97"/>
      <use x="497.412109" xlink:href="#DejaVuSans-98"/>
      <use x="560.888672" xlink:href="#DejaVuSans-115"/>
      <use x="612.988281" xlink:href="#DejaVuSans-32"/>
      <use x="644.775391" xlink:href="#DejaVuSans-110"/>
      <use x="708.154297" xlink:href="#DejaVuSans-111"/>
      <use x="769.335938" xlink:href="#DejaVuSans-66"/>
      <use x="837.939453" xlink:href="#DejaVuSans-78"/>
     </g>
    </g>
    <g id="line2d_30">
     <path d="M 153 111.852813 
L 173 111.852813 
" style="fill:none;stroke:#2ca02c;stroke-linecap:square;stroke-width:1.5;"/>
    </g>
    <g id="line2d_31"/>
    <g id="text_19">
     <!-- taylorfo_sq noBN -->
     <defs>
      <path d="M 14.796875 27.296875 
Q 14.796875 17.390625 18.875 11.75 
Q 22.953125 6.109375 30.078125 6.109375 
Q 37.203125 6.109375 41.296875 11.75 
Q 45.40625 17.390625 45.40625 27.296875 
Q 45.40625 37.203125 41.296875 42.84375 
Q 37.203125 48.484375 30.078125 48.484375 
Q 22.953125 48.484375 18.875 42.84375 
Q 14.796875 37.203125 14.796875 27.296875 
z
M 45.40625 8.203125 
Q 42.578125 3.328125 38.25 0.953125 
Q 33.9375 -1.421875 27.875 -1.421875 
Q 17.96875 -1.421875 11.734375 6.484375 
Q 5.515625 14.40625 5.515625 27.296875 
Q 5.515625 40.1875 11.734375 48.09375 
Q 17.96875 56 27.875 56 
Q 33.9375 56 38.25 53.625 
Q 42.578125 51.265625 45.40625 46.390625 
L 45.40625 54.6875 
L 54.390625 54.6875 
L 54.390625 -20.796875 
L 45.40625 -20.796875 
z
" id="DejaVuSans-113"/>
     </defs>
     <g transform="translate(181 115.352813)scale(0.1 -0.1)">
      <use xlink:href="#DejaVuSans-116"/>
      <use x="39.208984" xlink:href="#DejaVuSans-97"/>
      <use x="100.488281" xlink:href="#DejaVuSans-121"/>
      <use x="159.667969" xlink:href="#DejaVuSans-108"/>
      <use x="187.451172" xlink:href="#DejaVuSans-111"/>
      <use x="248.632812" xlink:href="#DejaVuSans-114"/>
      <use x="289.746094" xlink:href="#DejaVuSans-102"/>
      <use x="324.951172" xlink:href="#DejaVuSans-111"/>
      <use x="386.132812" xlink:href="#DejaVuSans-95"/>
      <use x="436.132812" xlink:href="#DejaVuSans-115"/>
      <use x="488.232422" xlink:href="#DejaVuSans-113"/>
      <use x="551.708984" xlink:href="#DejaVuSans-32"/>
      <use x="583.496094" xlink:href="#DejaVuSans-110"/>
      <use x="646.875" xlink:href="#DejaVuSans-111"/>
      <use x="708.056641" xlink:href="#DejaVuSans-66"/>
      <use x="776.660156" xlink:href="#DejaVuSans-78"/>
     </g>
    </g>
    <g id="line2d_32">
     <path d="M 153 126.809062 
L 173 126.809062 
" style="fill:none;stroke:#d62728;stroke-dasharray:5.55,2.4;stroke-dashoffset:0;stroke-width:1.5;"/>
    </g>
    <g id="line2d_33"/>
    <g id="text_20">
     <!-- Molchanov_group noBN -->
     <defs>
      <path d="M 9.8125 72.90625 
L 24.515625 72.90625 
L 43.109375 23.296875 
L 61.8125 72.90625 
L 76.515625 72.90625 
L 76.515625 0 
L 66.890625 0 
L 66.890625 64.015625 
L 48.09375 14.015625 
L 38.1875 14.015625 
L 19.390625 64.015625 
L 19.390625 0 
L 9.8125 0 
z
" id="DejaVuSans-77"/>
      <path d="M 48.78125 52.59375 
L 48.78125 44.1875 
Q 44.96875 46.296875 41.140625 47.34375 
Q 37.3125 48.390625 33.40625 48.390625 
Q 24.65625 48.390625 19.8125 42.84375 
Q 14.984375 37.3125 14.984375 27.296875 
Q 14.984375 17.28125 19.8125 11.734375 
Q 24.65625 6.203125 33.40625 6.203125 
Q 37.3125 6.203125 41.140625 7.25 
Q 44.96875 8.296875 48.78125 10.40625 
L 48.78125 2.09375 
Q 45.015625 0.34375 40.984375 -0.53125 
Q 36.96875 -1.421875 32.421875 -1.421875 
Q 20.0625 -1.421875 12.78125 6.34375 
Q 5.515625 14.109375 5.515625 27.296875 
Q 5.515625 40.671875 12.859375 48.328125 
Q 20.21875 56 33.015625 56 
Q 37.15625 56 41.109375 55.140625 
Q 45.0625 54.296875 48.78125 52.59375 
z
" id="DejaVuSans-99"/>
      <path d="M 54.890625 33.015625 
L 54.890625 0 
L 45.90625 0 
L 45.90625 32.71875 
Q 45.90625 40.484375 42.875 44.328125 
Q 39.84375 48.1875 33.796875 48.1875 
Q 26.515625 48.1875 22.3125 43.546875 
Q 18.109375 38.921875 18.109375 30.90625 
L 18.109375 0 
L 9.078125 0 
L 9.078125 75.984375 
L 18.109375 75.984375 
L 18.109375 46.1875 
Q 21.34375 51.125 25.703125 53.5625 
Q 30.078125 56 35.796875 56 
Q 45.21875 56 50.046875 50.171875 
Q 54.890625 44.34375 54.890625 33.015625 
z
" id="DejaVuSans-104"/>
      <path d="M 2.984375 54.6875 
L 12.5 54.6875 
L 29.59375 8.796875 
L 46.6875 54.6875 
L 56.203125 54.6875 
L 35.6875 0 
L 23.484375 0 
z
" id="DejaVuSans-118"/>
      <path d="M 45.40625 27.984375 
Q 45.40625 37.75 41.375 43.109375 
Q 37.359375 48.484375 30.078125 48.484375 
Q 22.859375 48.484375 18.828125 43.109375 
Q 14.796875 37.75 14.796875 27.984375 
Q 14.796875 18.265625 18.828125 12.890625 
Q 22.859375 7.515625 30.078125 7.515625 
Q 37.359375 7.515625 41.375 12.890625 
Q 45.40625 18.265625 45.40625 27.984375 
z
M 54.390625 6.78125 
Q 54.390625 -7.171875 48.1875 -13.984375 
Q 42 -20.796875 29.203125 -20.796875 
Q 24.46875 -20.796875 20.265625 -20.09375 
Q 16.0625 -19.390625 12.109375 -17.921875 
L 12.109375 -9.1875 
Q 16.0625 -11.328125 19.921875 -12.34375 
Q 23.78125 -13.375 27.78125 -13.375 
Q 36.625 -13.375 41.015625 -8.765625 
Q 45.40625 -4.15625 45.40625 5.171875 
L 45.40625 9.625 
Q 42.625 4.78125 38.28125 2.390625 
Q 33.9375 0 27.875 0 
Q 17.828125 0 11.671875 7.65625 
Q 5.515625 15.328125 5.515625 27.984375 
Q 5.515625 40.671875 11.671875 48.328125 
Q 17.828125 56 27.875 56 
Q 33.9375 56 38.28125 53.609375 
Q 42.625 51.21875 45.40625 46.390625 
L 45.40625 54.6875 
L 54.390625 54.6875 
z
" id="DejaVuSans-103"/>
     </defs>
     <g transform="translate(181 130.309062)scale(0.1 -0.1)">
      <use xlink:href="#DejaVuSans-77"/>
      <use x="86.279297" xlink:href="#DejaVuSans-111"/>
      <use x="147.460938" xlink:href="#DejaVuSans-108"/>
      <use x="175.244141" xlink:href="#DejaVuSans-99"/>
      <use x="230.224609" xlink:href="#DejaVuSans-104"/>
      <use x="293.603516" xlink:href="#DejaVuSans-97"/>
      <use x="354.882812" xlink:href="#DejaVuSans-110"/>
      <use x="418.261719" xlink:href="#DejaVuSans-111"/>
      <use x="479.443359" xlink:href="#DejaVuSans-118"/>
      <use x="538.623047" xlink:href="#DejaVuSans-95"/>
      <use x="588.623047" xlink:href="#DejaVuSans-103"/>
      <use x="652.099609" xlink:href="#DejaVuSans-114"/>
      <use x="690.962891" xlink:href="#DejaVuSans-111"/>
      <use x="752.144531" xlink:href="#DejaVuSans-117"/>
      <use x="815.523438" xlink:href="#DejaVuSans-112"/>
      <use x="879" xlink:href="#DejaVuSans-32"/>
      <use x="910.787109" xlink:href="#DejaVuSans-110"/>
      <use x="974.166016" xlink:href="#DejaVuSans-111"/>
      <use x="1035.347656" xlink:href="#DejaVuSans-66"/>
      <use x="1103.951172" xlink:href="#DejaVuSans-78"/>
     </g>
    </g>
    <g id="line2d_34">
     <path d="M 153 141.765312 
L 173 141.765312 
" style="fill:none;stroke:#9467bd;stroke-dasharray:5.55,2.4;stroke-dashoffset:0;stroke-width:1.5;"/>
    </g>
    <g id="line2d_35"/>
    <g id="text_21">
     <!-- APnZ noBN -->
     <defs>
      <path d="M 34.1875 63.1875 
L 20.796875 26.90625 
L 47.609375 26.90625 
z
M 28.609375 72.90625 
L 39.796875 72.90625 
L 67.578125 0 
L 57.328125 0 
L 50.6875 18.703125 
L 17.828125 18.703125 
L 11.1875 0 
L 0.78125 0 
z
" id="DejaVuSans-65"/>
      <path d="M 19.671875 64.796875 
L 19.671875 37.40625 
L 32.078125 37.40625 
Q 38.96875 37.40625 42.71875 40.96875 
Q 46.484375 44.53125 46.484375 51.125 
Q 46.484375 57.671875 42.71875 61.234375 
Q 38.96875 64.796875 32.078125 64.796875 
z
M 9.8125 72.90625 
L 32.078125 72.90625 
Q 44.34375 72.90625 50.609375 67.359375 
Q 56.890625 61.8125 56.890625 51.125 
Q 56.890625 40.328125 50.609375 34.8125 
Q 44.34375 29.296875 32.078125 29.296875 
L 19.671875 29.296875 
L 19.671875 0 
L 9.8125 0 
z
" id="DejaVuSans-80"/>
      <path d="M 5.609375 72.90625 
L 62.890625 72.90625 
L 62.890625 65.375 
L 16.796875 8.296875 
L 64.015625 8.296875 
L 64.015625 0 
L 4.5 0 
L 4.5 7.515625 
L 50.59375 64.59375 
L 5.609375 64.59375 
z
" id="DejaVuSans-90"/>
     </defs>
     <g transform="translate(181 145.265312)scale(0.1 -0.1)">
      <use xlink:href="#DejaVuSans-65"/>
      <use x="68.408203" xlink:href="#DejaVuSans-80"/>
      <use x="126.960938" xlink:href="#DejaVuSans-110"/>
      <use x="190.339844" xlink:href="#DejaVuSans-90"/>
      <use x="258.845703" xlink:href="#DejaVuSans-32"/>
      <use x="290.632812" xlink:href="#DejaVuSans-110"/>
      <use x="354.011719" xlink:href="#DejaVuSans-111"/>
      <use x="415.193359" xlink:href="#DejaVuSans-66"/>
      <use x="483.796875" xlink:href="#DejaVuSans-78"/>
     </g>
    </g>
    <g id="line2d_36">
     <path d="M 153 156.443438 
L 173 156.443438 
" style="fill:none;stroke:#8c564b;stroke-linecap:square;stroke-width:1.5;"/>
    </g>
    <g id="line2d_37"/>
    <g id="text_22">
     <!-- taylorfo BN -->
     <g transform="translate(181 159.943438)scale(0.1 -0.1)">
      <use xlink:href="#DejaVuSans-116"/>
      <use x="39.208984" xlink:href="#DejaVuSans-97"/>
      <use x="100.488281" xlink:href="#DejaVuSans-121"/>
      <use x="159.667969" xlink:href="#DejaVuSans-108"/>
      <use x="187.451172" xlink:href="#DejaVuSans-111"/>
      <use x="248.632812" xlink:href="#DejaVuSans-114"/>
      <use x="289.746094" xlink:href="#DejaVuSans-102"/>
      <use x="324.951172" xlink:href="#DejaVuSans-111"/>
      <use x="386.132812" xlink:href="#DejaVuSans-32"/>
      <use x="417.919922" xlink:href="#DejaVuSans-66"/>
      <use x="486.523438" xlink:href="#DejaVuSans-78"/>
     </g>
    </g>
    <g id="line2d_38">
     <path d="M 153 171.121562 
L 173 171.121562 
" style="fill:none;stroke:#e377c2;stroke-linecap:square;stroke-width:1.5;"/>
    </g>
    <g id="line2d_39"/>
    <g id="text_23">
     <!-- taylorfo_abs BN -->
     <g transform="translate(181 174.621562)scale(0.1 -0.1)">
      <use xlink:href="#DejaVuSans-116"/>
      <use x="39.208984" xlink:href="#DejaVuSans-97"/>
      <use x="100.488281" xlink:href="#DejaVuSans-121"/>
      <use x="159.667969" xlink:href="#DejaVuSans-108"/>
      <use x="187.451172" xlink:href="#DejaVuSans-111"/>
      <use x="248.632812" xlink:href="#DejaVuSans-114"/>
      <use x="289.746094" xlink:href="#DejaVuSans-102"/>
      <use x="324.951172" xlink:href="#DejaVuSans-111"/>
      <use x="386.132812" xlink:href="#DejaVuSans-95"/>
      <use x="436.132812" xlink:href="#DejaVuSans-97"/>
      <use x="497.412109" xlink:href="#DejaVuSans-98"/>
      <use x="560.888672" xlink:href="#DejaVuSans-115"/>
      <use x="612.988281" xlink:href="#DejaVuSans-32"/>
      <use x="644.775391" xlink:href="#DejaVuSans-66"/>
      <use x="713.378906" xlink:href="#DejaVuSans-78"/>
     </g>
    </g>
    <g id="line2d_40">
     <path d="M 153 186.077812 
L 173 186.077812 
" style="fill:none;stroke:#7f7f7f;stroke-linecap:square;stroke-width:1.5;"/>
    </g>
    <g id="line2d_41"/>
    <g id="text_24">
     <!-- taylorfo_sq BN -->
     <g transform="translate(181 189.577812)scale(0.1 -0.1)">
      <use xlink:href="#DejaVuSans-116"/>
      <use x="39.208984" xlink:href="#DejaVuSans-97"/>
      <use x="100.488281" xlink:href="#DejaVuSans-121"/>
      <use x="159.667969" xlink:href="#DejaVuSans-108"/>
      <use x="187.451172" xlink:href="#DejaVuSans-111"/>
      <use x="248.632812" xlink:href="#DejaVuSans-114"/>
      <use x="289.746094" xlink:href="#DejaVuSans-102"/>
      <use x="324.951172" xlink:href="#DejaVuSans-111"/>
      <use x="386.132812" xlink:href="#DejaVuSans-95"/>
      <use x="436.132812" xlink:href="#DejaVuSans-115"/>
      <use x="488.232422" xlink:href="#DejaVuSans-113"/>
      <use x="551.708984" xlink:href="#DejaVuSans-32"/>
      <use x="583.496094" xlink:href="#DejaVuSans-66"/>
      <use x="652.099609" xlink:href="#DejaVuSans-78"/>
     </g>
    </g>
    <g id="line2d_42">
     <path d="M 153 201.034063 
L 173 201.034063 
" style="fill:none;stroke:#bcbd22;stroke-dasharray:5.55,2.4;stroke-dashoffset:0;stroke-width:1.5;"/>
    </g>
    <g id="line2d_43"/>
    <g id="text_25">
     <!-- Molchanov_group BN -->
     <g transform="translate(181 204.534063)scale(0.1 -0.1)">
      <use xlink:href="#DejaVuSans-77"/>
      <use x="86.279297" xlink:href="#DejaVuSans-111"/>
      <use x="147.460938" xlink:href="#DejaVuSans-108"/>
      <use x="175.244141" xlink:href="#DejaVuSans-99"/>
      <use x="230.224609" xlink:href="#DejaVuSans-104"/>
      <use x="293.603516" xlink:href="#DejaVuSans-97"/>
      <use x="354.882812" xlink:href="#DejaVuSans-110"/>
      <use x="418.261719" xlink:href="#DejaVuSans-111"/>
      <use x="479.443359" xlink:href="#DejaVuSans-118"/>
      <use x="538.623047" xlink:href="#DejaVuSans-95"/>
      <use x="588.623047" xlink:href="#DejaVuSans-103"/>
      <use x="652.099609" xlink:href="#DejaVuSans-114"/>
      <use x="690.962891" xlink:href="#DejaVuSans-111"/>
      <use x="752.144531" xlink:href="#DejaVuSans-117"/>
      <use x="815.523438" xlink:href="#DejaVuSans-112"/>
      <use x="879" xlink:href="#DejaVuSans-32"/>
      <use x="910.787109" xlink:href="#DejaVuSans-66"/>
      <use x="979.390625" xlink:href="#DejaVuSans-78"/>
     </g>
    </g>
    <g id="line2d_44">
     <path d="M 153 215.990312 
L 173 215.990312 
" style="fill:none;stroke:#17becf;stroke-dasharray:5.55,2.4;stroke-dashoffset:0;stroke-width:1.5;"/>
    </g>
    <g id="line2d_45"/>
    <g id="text_26">
     <!-- Molchanov_BN BN -->
     <g transform="translate(181 219.490312)scale(0.1 -0.1)">
      <use xlink:href="#DejaVuSans-77"/>
      <use x="86.279297" xlink:href="#DejaVuSans-111"/>
      <use x="147.460938" xlink:href="#DejaVuSans-108"/>
      <use x="175.244141" xlink:href="#DejaVuSans-99"/>
      <use x="230.224609" xlink:href="#DejaVuSans-104"/>
      <use x="293.603516" xlink:href="#DejaVuSans-97"/>
      <use x="354.882812" xlink:href="#DejaVuSans-110"/>
      <use x="418.261719" xlink:href="#DejaVuSans-111"/>
      <use x="479.443359" xlink:href="#DejaVuSans-118"/>
      <use x="538.623047" xlink:href="#DejaVuSans-95"/>
      <use x="588.623047" xlink:href="#DejaVuSans-66"/>
      <use x="657.226562" xlink:href="#DejaVuSans-78"/>
      <use x="732.03125" xlink:href="#DejaVuSans-32"/>
      <use x="763.818359" xlink:href="#DejaVuSans-66"/>
      <use x="832.421875" xlink:href="#DejaVuSans-78"/>
     </g>
    </g>
    <g id="line2d_46">
     <path d="M 153 230.946563 
L 173 230.946563 
" style="fill:none;stroke:#1f77b4;stroke-dasharray:5.55,2.4;stroke-dashoffset:0;stroke-width:1.5;"/>
    </g>
    <g id="line2d_47"/>
    <g id="text_27">
     <!-- APnZ BN -->
     <g transform="translate(181 234.446563)scale(0.1 -0.1)">
      <use xlink:href="#DejaVuSans-65"/>
      <use x="68.408203" xlink:href="#DejaVuSans-80"/>
      <use x="126.960938" xlink:href="#DejaVuSans-110"/>
      <use x="190.339844" xlink:href="#DejaVuSans-90"/>
      <use x="258.845703" xlink:href="#DejaVuSans-32"/>
      <use x="290.632812" xlink:href="#DejaVuSans-66"/>
      <use x="359.236328" xlink:href="#DejaVuSans-78"/>
     </g>
    </g>
   </g>
  </g>
 </g>
 <defs>
  <clipPath id="p8c7132f295">
   <rect height="434.88" width="892.8" x="144" y="69.12"/>
  </clipPath>
 </defs>
</svg>
