<?xml version="1.0" encoding="utf-8" standalone="no"?>
<!DOCTYPE svg PUBLIC "-//W3C//DTD SVG 1.1//EN"
  "http://www.w3.org/Graphics/SVG/1.1/DTD/svg11.dtd">
<!-- Created with matplotlib (https://matplotlib.org/) -->
<svg height="576pt" version="1.1" viewBox="0 0 1152 576" width="1152pt" xmlns="http://www.w3.org/2000/svg" xmlns:xlink="http://www.w3.org/1999/xlink">
 <defs>
  <style type="text/css">
*{stroke-linecap:butt;stroke-linejoin:round;}
  </style>
 </defs>
 <g id="figure_1">
  <g id="patch_1">
   <path d="M 0 576 
L 1152 576 
L 1152 0 
L 0 0 
z
" style="fill:#ffffff;"/>
  </g>
  <g id="axes_1">
   <g id="patch_2">
    <path d="M 144 504 
L 1036.8 504 
L 1036.8 69.12 
L 144 69.12 
z
" style="fill:#ffffff;"/>
   </g>
   <g id="matplotlib.axis_1">
    <g id="xtick_1">
     <g id="line2d_1">
      <defs>
       <path d="M 0 0 
L 0 3.5 
" id="maf8672099a" style="stroke:#000000;stroke-width:0.8;"/>
      </defs>
      <g>
       <use style="stroke:#000000;stroke-width:0.8;" x="182.527043" xlink:href="#maf8672099a" y="504"/>
      </g>
     </g>
     <g id="text_1">
      <!-- 0 -->
      <defs>
       <path d="M 31.78125 66.40625 
Q 24.171875 66.40625 20.328125 58.90625 
Q 16.5 51.421875 16.5 36.375 
Q 16.5 21.390625 20.328125 13.890625 
Q 24.171875 6.390625 31.78125 6.390625 
Q 39.453125 6.390625 43.28125 13.890625 
Q 47.125 21.390625 47.125 36.375 
Q 47.125 51.421875 43.28125 58.90625 
Q 39.453125 66.40625 31.78125 66.40625 
z
M 31.78125 74.21875 
Q 44.046875 74.21875 50.515625 64.515625 
Q 56.984375 54.828125 56.984375 36.375 
Q 56.984375 17.96875 50.515625 8.265625 
Q 44.046875 -1.421875 31.78125 -1.421875 
Q 19.53125 -1.421875 13.0625 8.265625 
Q 6.59375 17.96875 6.59375 36.375 
Q 6.59375 54.828125 13.0625 64.515625 
Q 19.53125 74.21875 31.78125 74.21875 
z
" id="DejaVuSans-48"/>
      </defs>
      <g transform="translate(179.345793 518.598438)scale(0.1 -0.1)">
       <use xlink:href="#DejaVuSans-48"/>
      </g>
     </g>
    </g>
    <g id="xtick_2">
     <g id="line2d_2">
      <g>
       <use style="stroke:#000000;stroke-width:0.8;" x="285.265823" xlink:href="#maf8672099a" y="504"/>
      </g>
     </g>
     <g id="text_2">
      <!-- 50 -->
      <defs>
       <path d="M 10.796875 72.90625 
L 49.515625 72.90625 
L 49.515625 64.59375 
L 19.828125 64.59375 
L 19.828125 46.734375 
Q 21.96875 47.46875 24.109375 47.828125 
Q 26.265625 48.1875 28.421875 48.1875 
Q 40.625 48.1875 47.75 41.5 
Q 54.890625 34.8125 54.890625 23.390625 
Q 54.890625 11.625 47.5625 5.09375 
Q 40.234375 -1.421875 26.90625 -1.421875 
Q 22.3125 -1.421875 17.546875 -0.640625 
Q 12.796875 0.140625 7.71875 1.703125 
L 7.71875 11.625 
Q 12.109375 9.234375 16.796875 8.0625 
Q 21.484375 6.890625 26.703125 6.890625 
Q 35.15625 6.890625 40.078125 11.328125 
Q 45.015625 15.765625 45.015625 23.390625 
Q 45.015625 31 40.078125 35.4375 
Q 35.15625 39.890625 26.703125 39.890625 
Q 22.75 39.890625 18.8125 39.015625 
Q 14.890625 38.140625 10.796875 36.28125 
z
" id="DejaVuSans-53"/>
      </defs>
      <g transform="translate(278.903323 518.598438)scale(0.1 -0.1)">
       <use xlink:href="#DejaVuSans-53"/>
       <use x="63.623047" xlink:href="#DejaVuSans-48"/>
      </g>
     </g>
    </g>
    <g id="xtick_3">
     <g id="line2d_3">
      <g>
       <use style="stroke:#000000;stroke-width:0.8;" x="388.004603" xlink:href="#maf8672099a" y="504"/>
      </g>
     </g>
     <g id="text_3">
      <!-- 100 -->
      <defs>
       <path d="M 12.40625 8.296875 
L 28.515625 8.296875 
L 28.515625 63.921875 
L 10.984375 60.40625 
L 10.984375 69.390625 
L 28.421875 72.90625 
L 38.28125 72.90625 
L 38.28125 8.296875 
L 54.390625 8.296875 
L 54.390625 0 
L 12.40625 0 
z
" id="DejaVuSans-49"/>
      </defs>
      <g transform="translate(378.460853 518.598438)scale(0.1 -0.1)">
       <use xlink:href="#DejaVuSans-49"/>
       <use x="63.623047" xlink:href="#DejaVuSans-48"/>
       <use x="127.246094" xlink:href="#DejaVuSans-48"/>
      </g>
     </g>
    </g>
    <g id="xtick_4">
     <g id="line2d_4">
      <g>
       <use style="stroke:#000000;stroke-width:0.8;" x="490.743383" xlink:href="#maf8672099a" y="504"/>
      </g>
     </g>
     <g id="text_4">
      <!-- 150 -->
      <g transform="translate(481.199633 518.598438)scale(0.1 -0.1)">
       <use xlink:href="#DejaVuSans-49"/>
       <use x="63.623047" xlink:href="#DejaVuSans-53"/>
       <use x="127.246094" xlink:href="#DejaVuSans-48"/>
      </g>
     </g>
    </g>
    <g id="xtick_5">
     <g id="line2d_5">
      <g>
       <use style="stroke:#000000;stroke-width:0.8;" x="593.482163" xlink:href="#maf8672099a" y="504"/>
      </g>
     </g>
     <g id="text_5">
      <!-- 200 -->
      <defs>
       <path d="M 19.1875 8.296875 
L 53.609375 8.296875 
L 53.609375 0 
L 7.328125 0 
L 7.328125 8.296875 
Q 12.9375 14.109375 22.625 23.890625 
Q 32.328125 33.6875 34.8125 36.53125 
Q 39.546875 41.84375 41.421875 45.53125 
Q 43.3125 49.21875 43.3125 52.78125 
Q 43.3125 58.59375 39.234375 62.25 
Q 35.15625 65.921875 28.609375 65.921875 
Q 23.96875 65.921875 18.8125 64.3125 
Q 13.671875 62.703125 7.8125 59.421875 
L 7.8125 69.390625 
Q 13.765625 71.78125 18.9375 73 
Q 24.125 74.21875 28.421875 74.21875 
Q 39.75 74.21875 46.484375 68.546875 
Q 53.21875 62.890625 53.21875 53.421875 
Q 53.21875 48.921875 51.53125 44.890625 
Q 49.859375 40.875 45.40625 35.40625 
Q 44.1875 33.984375 37.640625 27.21875 
Q 31.109375 20.453125 19.1875 8.296875 
z
" id="DejaVuSans-50"/>
      </defs>
      <g transform="translate(583.938413 518.598438)scale(0.1 -0.1)">
       <use xlink:href="#DejaVuSans-50"/>
       <use x="63.623047" xlink:href="#DejaVuSans-48"/>
       <use x="127.246094" xlink:href="#DejaVuSans-48"/>
      </g>
     </g>
    </g>
    <g id="xtick_6">
     <g id="line2d_6">
      <g>
       <use style="stroke:#000000;stroke-width:0.8;" x="696.220944" xlink:href="#maf8672099a" y="504"/>
      </g>
     </g>
     <g id="text_6">
      <!-- 250 -->
      <g transform="translate(686.677194 518.598438)scale(0.1 -0.1)">
       <use xlink:href="#DejaVuSans-50"/>
       <use x="63.623047" xlink:href="#DejaVuSans-53"/>
       <use x="127.246094" xlink:href="#DejaVuSans-48"/>
      </g>
     </g>
    </g>
    <g id="xtick_7">
     <g id="line2d_7">
      <g>
       <use style="stroke:#000000;stroke-width:0.8;" x="798.959724" xlink:href="#maf8672099a" y="504"/>
      </g>
     </g>
     <g id="text_7">
      <!-- 300 -->
      <defs>
       <path d="M 40.578125 39.3125 
Q 47.65625 37.796875 51.625 33 
Q 55.609375 28.21875 55.609375 21.1875 
Q 55.609375 10.40625 48.1875 4.484375 
Q 40.765625 -1.421875 27.09375 -1.421875 
Q 22.515625 -1.421875 17.65625 -0.515625 
Q 12.796875 0.390625 7.625 2.203125 
L 7.625 11.71875 
Q 11.71875 9.328125 16.59375 8.109375 
Q 21.484375 6.890625 26.8125 6.890625 
Q 36.078125 6.890625 40.9375 10.546875 
Q 45.796875 14.203125 45.796875 21.1875 
Q 45.796875 27.640625 41.28125 31.265625 
Q 36.765625 34.90625 28.71875 34.90625 
L 20.21875 34.90625 
L 20.21875 43.015625 
L 29.109375 43.015625 
Q 36.375 43.015625 40.234375 45.921875 
Q 44.09375 48.828125 44.09375 54.296875 
Q 44.09375 59.90625 40.109375 62.90625 
Q 36.140625 65.921875 28.71875 65.921875 
Q 24.65625 65.921875 20.015625 65.03125 
Q 15.375 64.15625 9.8125 62.3125 
L 9.8125 71.09375 
Q 15.4375 72.65625 20.34375 73.4375 
Q 25.25 74.21875 29.59375 74.21875 
Q 40.828125 74.21875 47.359375 69.109375 
Q 53.90625 64.015625 53.90625 55.328125 
Q 53.90625 49.265625 50.4375 45.09375 
Q 46.96875 40.921875 40.578125 39.3125 
z
" id="DejaVuSans-51"/>
      </defs>
      <g transform="translate(789.415974 518.598438)scale(0.1 -0.1)">
       <use xlink:href="#DejaVuSans-51"/>
       <use x="63.623047" xlink:href="#DejaVuSans-48"/>
       <use x="127.246094" xlink:href="#DejaVuSans-48"/>
      </g>
     </g>
    </g>
    <g id="xtick_8">
     <g id="line2d_8">
      <g>
       <use style="stroke:#000000;stroke-width:0.8;" x="901.698504" xlink:href="#maf8672099a" y="504"/>
      </g>
     </g>
     <g id="text_8">
      <!-- 350 -->
      <g transform="translate(892.154754 518.598438)scale(0.1 -0.1)">
       <use xlink:href="#DejaVuSans-51"/>
       <use x="63.623047" xlink:href="#DejaVuSans-53"/>
       <use x="127.246094" xlink:href="#DejaVuSans-48"/>
      </g>
     </g>
    </g>
    <g id="xtick_9">
     <g id="line2d_9">
      <g>
       <use style="stroke:#000000;stroke-width:0.8;" x="1004.437284" xlink:href="#maf8672099a" y="504"/>
      </g>
     </g>
     <g id="text_9">
      <!-- 400 -->
      <defs>
       <path d="M 37.796875 64.3125 
L 12.890625 25.390625 
L 37.796875 25.390625 
z
M 35.203125 72.90625 
L 47.609375 72.90625 
L 47.609375 25.390625 
L 58.015625 25.390625 
L 58.015625 17.1875 
L 47.609375 17.1875 
L 47.609375 0 
L 37.796875 0 
L 37.796875 17.1875 
L 4.890625 17.1875 
L 4.890625 26.703125 
z
" id="DejaVuSans-52"/>
      </defs>
      <g transform="translate(994.893534 518.598438)scale(0.1 -0.1)">
       <use xlink:href="#DejaVuSans-52"/>
       <use x="63.623047" xlink:href="#DejaVuSans-48"/>
       <use x="127.246094" xlink:href="#DejaVuSans-48"/>
      </g>
     </g>
    </g>
    <g id="text_10">
     <!-- Number of Neurons pruned -->
     <defs>
      <path d="M 9.8125 72.90625 
L 23.09375 72.90625 
L 55.421875 11.921875 
L 55.421875 72.90625 
L 64.984375 72.90625 
L 64.984375 0 
L 51.703125 0 
L 19.390625 60.984375 
L 19.390625 0 
L 9.8125 0 
z
" id="DejaVuSans-78"/>
      <path d="M 8.5 21.578125 
L 8.5 54.6875 
L 17.484375 54.6875 
L 17.484375 21.921875 
Q 17.484375 14.15625 20.5 10.265625 
Q 23.53125 6.390625 29.59375 6.390625 
Q 36.859375 6.390625 41.078125 11.03125 
Q 45.3125 15.671875 45.3125 23.6875 
L 45.3125 54.6875 
L 54.296875 54.6875 
L 54.296875 0 
L 45.3125 0 
L 45.3125 8.40625 
Q 42.046875 3.421875 37.71875 1 
Q 33.40625 -1.421875 27.6875 -1.421875 
Q 18.265625 -1.421875 13.375 4.4375 
Q 8.5 10.296875 8.5 21.578125 
z
M 31.109375 56 
z
" id="DejaVuSans-117"/>
      <path d="M 52 44.1875 
Q 55.375 50.25 60.0625 53.125 
Q 64.75 56 71.09375 56 
Q 79.640625 56 84.28125 50.015625 
Q 88.921875 44.046875 88.921875 33.015625 
L 88.921875 0 
L 79.890625 0 
L 79.890625 32.71875 
Q 79.890625 40.578125 77.09375 44.375 
Q 74.3125 48.1875 68.609375 48.1875 
Q 61.625 48.1875 57.5625 43.546875 
Q 53.515625 38.921875 53.515625 30.90625 
L 53.515625 0 
L 44.484375 0 
L 44.484375 32.71875 
Q 44.484375 40.625 41.703125 44.40625 
Q 38.921875 48.1875 33.109375 48.1875 
Q 26.21875 48.1875 22.15625 43.53125 
Q 18.109375 38.875 18.109375 30.90625 
L 18.109375 0 
L 9.078125 0 
L 9.078125 54.6875 
L 18.109375 54.6875 
L 18.109375 46.1875 
Q 21.1875 51.21875 25.484375 53.609375 
Q 29.78125 56 35.6875 56 
Q 41.65625 56 45.828125 52.96875 
Q 50 49.953125 52 44.1875 
z
" id="DejaVuSans-109"/>
      <path d="M 48.6875 27.296875 
Q 48.6875 37.203125 44.609375 42.84375 
Q 40.53125 48.484375 33.40625 48.484375 
Q 26.265625 48.484375 22.1875 42.84375 
Q 18.109375 37.203125 18.109375 27.296875 
Q 18.109375 17.390625 22.1875 11.75 
Q 26.265625 6.109375 33.40625 6.109375 
Q 40.53125 6.109375 44.609375 11.75 
Q 48.6875 17.390625 48.6875 27.296875 
z
M 18.109375 46.390625 
Q 20.953125 51.265625 25.265625 53.625 
Q 29.59375 56 35.59375 56 
Q 45.5625 56 51.78125 48.09375 
Q 58.015625 40.1875 58.015625 27.296875 
Q 58.015625 14.40625 51.78125 6.484375 
Q 45.5625 -1.421875 35.59375 -1.421875 
Q 29.59375 -1.421875 25.265625 0.953125 
Q 20.953125 3.328125 18.109375 8.203125 
L 18.109375 0 
L 9.078125 0 
L 9.078125 75.984375 
L 18.109375 75.984375 
z
" id="DejaVuSans-98"/>
      <path d="M 56.203125 29.59375 
L 56.203125 25.203125 
L 14.890625 25.203125 
Q 15.484375 15.921875 20.484375 11.0625 
Q 25.484375 6.203125 34.421875 6.203125 
Q 39.59375 6.203125 44.453125 7.46875 
Q 49.3125 8.734375 54.109375 11.28125 
L 54.109375 2.78125 
Q 49.265625 0.734375 44.1875 -0.34375 
Q 39.109375 -1.421875 33.890625 -1.421875 
Q 20.796875 -1.421875 13.15625 6.1875 
Q 5.515625 13.8125 5.515625 26.8125 
Q 5.515625 40.234375 12.765625 48.109375 
Q 20.015625 56 32.328125 56 
Q 43.359375 56 49.78125 48.890625 
Q 56.203125 41.796875 56.203125 29.59375 
z
M 47.21875 32.234375 
Q 47.125 39.59375 43.09375 43.984375 
Q 39.0625 48.390625 32.421875 48.390625 
Q 24.90625 48.390625 20.390625 44.140625 
Q 15.875 39.890625 15.1875 32.171875 
z
" id="DejaVuSans-101"/>
      <path d="M 41.109375 46.296875 
Q 39.59375 47.171875 37.8125 47.578125 
Q 36.03125 48 33.890625 48 
Q 26.265625 48 22.1875 43.046875 
Q 18.109375 38.09375 18.109375 28.8125 
L 18.109375 0 
L 9.078125 0 
L 9.078125 54.6875 
L 18.109375 54.6875 
L 18.109375 46.1875 
Q 20.953125 51.171875 25.484375 53.578125 
Q 30.03125 56 36.53125 56 
Q 37.453125 56 38.578125 55.875 
Q 39.703125 55.765625 41.0625 55.515625 
z
" id="DejaVuSans-114"/>
      <path id="DejaVuSans-32"/>
      <path d="M 30.609375 48.390625 
Q 23.390625 48.390625 19.1875 42.75 
Q 14.984375 37.109375 14.984375 27.296875 
Q 14.984375 17.484375 19.15625 11.84375 
Q 23.34375 6.203125 30.609375 6.203125 
Q 37.796875 6.203125 41.984375 11.859375 
Q 46.1875 17.53125 46.1875 27.296875 
Q 46.1875 37.015625 41.984375 42.703125 
Q 37.796875 48.390625 30.609375 48.390625 
z
M 30.609375 56 
Q 42.328125 56 49.015625 48.375 
Q 55.71875 40.765625 55.71875 27.296875 
Q 55.71875 13.875 49.015625 6.21875 
Q 42.328125 -1.421875 30.609375 -1.421875 
Q 18.84375 -1.421875 12.171875 6.21875 
Q 5.515625 13.875 5.515625 27.296875 
Q 5.515625 40.765625 12.171875 48.375 
Q 18.84375 56 30.609375 56 
z
" id="DejaVuSans-111"/>
      <path d="M 37.109375 75.984375 
L 37.109375 68.5 
L 28.515625 68.5 
Q 23.6875 68.5 21.796875 66.546875 
Q 19.921875 64.59375 19.921875 59.515625 
L 19.921875 54.6875 
L 34.71875 54.6875 
L 34.71875 47.703125 
L 19.921875 47.703125 
L 19.921875 0 
L 10.890625 0 
L 10.890625 47.703125 
L 2.296875 47.703125 
L 2.296875 54.6875 
L 10.890625 54.6875 
L 10.890625 58.5 
Q 10.890625 67.625 15.140625 71.796875 
Q 19.390625 75.984375 28.609375 75.984375 
z
" id="DejaVuSans-102"/>
      <path d="M 54.890625 33.015625 
L 54.890625 0 
L 45.90625 0 
L 45.90625 32.71875 
Q 45.90625 40.484375 42.875 44.328125 
Q 39.84375 48.1875 33.796875 48.1875 
Q 26.515625 48.1875 22.3125 43.546875 
Q 18.109375 38.921875 18.109375 30.90625 
L 18.109375 0 
L 9.078125 0 
L 9.078125 54.6875 
L 18.109375 54.6875 
L 18.109375 46.1875 
Q 21.34375 51.125 25.703125 53.5625 
Q 30.078125 56 35.796875 56 
Q 45.21875 56 50.046875 50.171875 
Q 54.890625 44.34375 54.890625 33.015625 
z
" id="DejaVuSans-110"/>
      <path d="M 44.28125 53.078125 
L 44.28125 44.578125 
Q 40.484375 46.53125 36.375 47.5 
Q 32.28125 48.484375 27.875 48.484375 
Q 21.1875 48.484375 17.84375 46.4375 
Q 14.5 44.390625 14.5 40.28125 
Q 14.5 37.15625 16.890625 35.375 
Q 19.28125 33.59375 26.515625 31.984375 
L 29.59375 31.296875 
Q 39.15625 29.25 43.1875 25.515625 
Q 47.21875 21.78125 47.21875 15.09375 
Q 47.21875 7.46875 41.1875 3.015625 
Q 35.15625 -1.421875 24.609375 -1.421875 
Q 20.21875 -1.421875 15.453125 -0.5625 
Q 10.6875 0.296875 5.421875 2 
L 5.421875 11.28125 
Q 10.40625 8.6875 15.234375 7.390625 
Q 20.0625 6.109375 24.8125 6.109375 
Q 31.15625 6.109375 34.5625 8.28125 
Q 37.984375 10.453125 37.984375 14.40625 
Q 37.984375 18.0625 35.515625 20.015625 
Q 33.0625 21.96875 24.703125 23.78125 
L 21.578125 24.515625 
Q 13.234375 26.265625 9.515625 29.90625 
Q 5.8125 33.546875 5.8125 39.890625 
Q 5.8125 47.609375 11.28125 51.796875 
Q 16.75 56 26.8125 56 
Q 31.78125 56 36.171875 55.265625 
Q 40.578125 54.546875 44.28125 53.078125 
z
" id="DejaVuSans-115"/>
      <path d="M 18.109375 8.203125 
L 18.109375 -20.796875 
L 9.078125 -20.796875 
L 9.078125 54.6875 
L 18.109375 54.6875 
L 18.109375 46.390625 
Q 20.953125 51.265625 25.265625 53.625 
Q 29.59375 56 35.59375 56 
Q 45.5625 56 51.78125 48.09375 
Q 58.015625 40.1875 58.015625 27.296875 
Q 58.015625 14.40625 51.78125 6.484375 
Q 45.5625 -1.421875 35.59375 -1.421875 
Q 29.59375 -1.421875 25.265625 0.953125 
Q 20.953125 3.328125 18.109375 8.203125 
z
M 48.6875 27.296875 
Q 48.6875 37.203125 44.609375 42.84375 
Q 40.53125 48.484375 33.40625 48.484375 
Q 26.265625 48.484375 22.1875 42.84375 
Q 18.109375 37.203125 18.109375 27.296875 
Q 18.109375 17.390625 22.1875 11.75 
Q 26.265625 6.109375 33.40625 6.109375 
Q 40.53125 6.109375 44.609375 11.75 
Q 48.6875 17.390625 48.6875 27.296875 
z
" id="DejaVuSans-112"/>
      <path d="M 45.40625 46.390625 
L 45.40625 75.984375 
L 54.390625 75.984375 
L 54.390625 0 
L 45.40625 0 
L 45.40625 8.203125 
Q 42.578125 3.328125 38.25 0.953125 
Q 33.9375 -1.421875 27.875 -1.421875 
Q 17.96875 -1.421875 11.734375 6.484375 
Q 5.515625 14.40625 5.515625 27.296875 
Q 5.515625 40.1875 11.734375 48.09375 
Q 17.96875 56 27.875 56 
Q 33.9375 56 38.25 53.625 
Q 42.578125 51.265625 45.40625 46.390625 
z
M 14.796875 27.296875 
Q 14.796875 17.390625 18.875 11.75 
Q 22.953125 6.109375 30.078125 6.109375 
Q 37.203125 6.109375 41.296875 11.75 
Q 45.40625 17.390625 45.40625 27.296875 
Q 45.40625 37.203125 41.296875 42.84375 
Q 37.203125 48.484375 30.078125 48.484375 
Q 22.953125 48.484375 18.875 42.84375 
Q 14.796875 37.203125 14.796875 27.296875 
z
" id="DejaVuSans-100"/>
     </defs>
     <g transform="translate(522.147656 532.276562)scale(0.1 -0.1)">
      <use xlink:href="#DejaVuSans-78"/>
      <use x="74.804688" xlink:href="#DejaVuSans-117"/>
      <use x="138.183594" xlink:href="#DejaVuSans-109"/>
      <use x="235.595703" xlink:href="#DejaVuSans-98"/>
      <use x="299.072266" xlink:href="#DejaVuSans-101"/>
      <use x="360.595703" xlink:href="#DejaVuSans-114"/>
      <use x="401.708984" xlink:href="#DejaVuSans-32"/>
      <use x="433.496094" xlink:href="#DejaVuSans-111"/>
      <use x="494.677734" xlink:href="#DejaVuSans-102"/>
      <use x="529.882812" xlink:href="#DejaVuSans-32"/>
      <use x="561.669922" xlink:href="#DejaVuSans-78"/>
      <use x="636.474609" xlink:href="#DejaVuSans-101"/>
      <use x="697.998047" xlink:href="#DejaVuSans-117"/>
      <use x="761.376953" xlink:href="#DejaVuSans-114"/>
      <use x="800.240234" xlink:href="#DejaVuSans-111"/>
      <use x="861.421875" xlink:href="#DejaVuSans-110"/>
      <use x="924.800781" xlink:href="#DejaVuSans-115"/>
      <use x="976.900391" xlink:href="#DejaVuSans-32"/>
      <use x="1008.6875" xlink:href="#DejaVuSans-112"/>
      <use x="1072.164062" xlink:href="#DejaVuSans-114"/>
      <use x="1113.277344" xlink:href="#DejaVuSans-117"/>
      <use x="1176.65625" xlink:href="#DejaVuSans-110"/>
      <use x="1240.035156" xlink:href="#DejaVuSans-101"/>
      <use x="1301.558594" xlink:href="#DejaVuSans-100"/>
     </g>
    </g>
   </g>
   <g id="matplotlib.axis_2">
    <g id="ytick_1">
     <g id="line2d_10">
      <defs>
       <path d="M 0 0 
L -3.5 0 
" id="m4ca04e02eb" style="stroke:#000000;stroke-width:0.8;"/>
      </defs>
      <g>
       <use style="stroke:#000000;stroke-width:0.8;" x="144" xlink:href="#m4ca04e02eb" y="486.733714"/>
      </g>
     </g>
     <g id="text_11">
      <!-- 0.0 -->
      <defs>
       <path d="M 10.6875 12.40625 
L 21 12.40625 
L 21 0 
L 10.6875 0 
z
" id="DejaVuSans-46"/>
      </defs>
      <g transform="translate(121.096875 490.532933)scale(0.1 -0.1)">
       <use xlink:href="#DejaVuSans-48"/>
       <use x="63.623047" xlink:href="#DejaVuSans-46"/>
       <use x="95.410156" xlink:href="#DejaVuSans-48"/>
      </g>
     </g>
    </g>
    <g id="ytick_2">
     <g id="line2d_11">
      <g>
       <use style="stroke:#000000;stroke-width:0.8;" x="144" xlink:href="#m4ca04e02eb" y="404.940683"/>
      </g>
     </g>
     <g id="text_12">
      <!-- 0.5 -->
      <g transform="translate(121.096875 408.739901)scale(0.1 -0.1)">
       <use xlink:href="#DejaVuSans-48"/>
       <use x="63.623047" xlink:href="#DejaVuSans-46"/>
       <use x="95.410156" xlink:href="#DejaVuSans-53"/>
      </g>
     </g>
    </g>
    <g id="ytick_3">
     <g id="line2d_12">
      <g>
       <use style="stroke:#000000;stroke-width:0.8;" x="144" xlink:href="#m4ca04e02eb" y="323.147651"/>
      </g>
     </g>
     <g id="text_13">
      <!-- 1.0 -->
      <g transform="translate(121.096875 326.94687)scale(0.1 -0.1)">
       <use xlink:href="#DejaVuSans-49"/>
       <use x="63.623047" xlink:href="#DejaVuSans-46"/>
       <use x="95.410156" xlink:href="#DejaVuSans-48"/>
      </g>
     </g>
    </g>
    <g id="ytick_4">
     <g id="line2d_13">
      <g>
       <use style="stroke:#000000;stroke-width:0.8;" x="144" xlink:href="#m4ca04e02eb" y="241.354619"/>
      </g>
     </g>
     <g id="text_14">
      <!-- 1.5 -->
      <g transform="translate(121.096875 245.153838)scale(0.1 -0.1)">
       <use xlink:href="#DejaVuSans-49"/>
       <use x="63.623047" xlink:href="#DejaVuSans-46"/>
       <use x="95.410156" xlink:href="#DejaVuSans-53"/>
      </g>
     </g>
    </g>
    <g id="ytick_5">
     <g id="line2d_14">
      <g>
       <use style="stroke:#000000;stroke-width:0.8;" x="144" xlink:href="#m4ca04e02eb" y="159.561588"/>
      </g>
     </g>
     <g id="text_15">
      <!-- 2.0 -->
      <g transform="translate(121.096875 163.360806)scale(0.1 -0.1)">
       <use xlink:href="#DejaVuSans-50"/>
       <use x="63.623047" xlink:href="#DejaVuSans-46"/>
       <use x="95.410156" xlink:href="#DejaVuSans-48"/>
      </g>
     </g>
    </g>
    <g id="ytick_6">
     <g id="line2d_15">
      <g>
       <use style="stroke:#000000;stroke-width:0.8;" x="144" xlink:href="#m4ca04e02eb" y="77.768556"/>
      </g>
     </g>
     <g id="text_16">
      <!-- 2.5 -->
      <g transform="translate(121.096875 81.567775)scale(0.1 -0.1)">
       <use xlink:href="#DejaVuSans-50"/>
       <use x="63.623047" xlink:href="#DejaVuSans-46"/>
       <use x="95.410156" xlink:href="#DejaVuSans-53"/>
      </g>
     </g>
    </g>
    <g id="text_17">
     <!-- Loss -->
     <defs>
      <path d="M 9.8125 72.90625 
L 19.671875 72.90625 
L 19.671875 8.296875 
L 55.171875 8.296875 
L 55.171875 0 
L 9.8125 0 
z
" id="DejaVuSans-76"/>
     </defs>
     <g transform="translate(115.017187 297.527188)rotate(-90)scale(0.1 -0.1)">
      <use xlink:href="#DejaVuSans-76"/>
      <use x="53.962891" xlink:href="#DejaVuSans-111"/>
      <use x="115.144531" xlink:href="#DejaVuSans-115"/>
      <use x="167.244141" xlink:href="#DejaVuSans-115"/>
     </g>
    </g>
   </g>
   <g id="line2d_16">
    <path clip-path="url(#p127011556d)" d="M 184.581818 483.814481 
L 194.855696 483.73756 
L 205.129574 483.662218 
L 215.403452 483.275893 
L 225.67733 482.900488 
L 235.951208 482.438619 
L 246.225086 482.316245 
L 256.498964 482.089627 
L 266.772842 481.593035 
L 277.04672 481.245394 
L 287.320598 480.546129 
L 297.594476 480.025827 
L 307.868354 479.422149 
L 318.142232 479.421103 
L 328.41611 479.257554 
L 338.689988 479.091985 
L 348.963867 478.626147 
L 359.237745 476.703666 
L 369.511623 475.22649 
L 379.785501 473.081254 
L 390.059379 473.464453 
L 400.333257 470.097046 
L 410.607135 469.285443 
L 420.881013 468.476807 
L 431.154891 456.888086 
L 441.428769 455.499409 
L 451.702647 454.552832 
L 461.976525 455.763275 
L 472.250403 456.344872 
L 482.524281 457.510106 
L 492.798159 457.083359 
L 503.072037 458.365583 
L 513.345915 454.56843 
L 523.619793 448.52601 
L 533.893671 445.921708 
L 544.167549 443.287046 
L 554.441427 438.012221 
L 564.715305 432.296104 
L 574.989183 432.699043 
L 585.263061 430.684456 
L 595.536939 425.535983 
L 605.810817 422.298026 
L 616.084695 417.589354 
L 626.358573 414.523268 
L 636.632451 415.509228 
L 646.906329 406.46601 
L 657.180207 401.371857 
L 667.454085 392.917335 
L 677.727963 375.62257 
L 688.001841 368.858198 
L 698.275719 365.940968 
L 708.549597 355.321067 
L 718.823475 352.883523 
L 729.097353 351.439768 
L 739.371231 354.923549 
L 749.645109 340.53914 
L 759.918987 336.262897 
L 770.192865 322.50601 
L 780.466743 316.964749 
L 790.740621 307.914364 
L 801.014499 299.092356 
L 811.288377 304.843155 
L 821.562255 291.366789 
L 831.836133 284.427581 
L 842.110012 281.228582 
L 852.38389 275.596231 
L 862.657768 271.70249 
L 872.931646 268.958508 
L 883.205524 266.419149 
L 893.479402 275.529187 
L 903.75328 278.380873 
L 914.027158 271.545449 
L 924.301036 270.500002 
L 934.574914 275.965814 
L 944.848792 270.341088 
L 955.12267 262.940096 
L 965.396548 265.657577 
L 975.670426 258.390771 
L 985.944304 251.552753 
L 996.218182 243.196584 
" style="fill:none;stroke:#1f77b4;stroke-linecap:square;stroke-width:1.5;"/>
   </g>
   <g id="line2d_17">
    <path clip-path="url(#p127011556d)" d="M 184.581818 483.846555 
L 194.855696 483.851256 
L 205.129574 483.81722 
L 215.403452 483.760462 
L 225.67733 483.688528 
L 235.951208 483.588492 
L 246.225086 483.51605 
L 256.498964 483.479421 
L 266.772842 483.359593 
L 277.04672 483.138481 
L 287.320598 482.79104 
L 297.594476 482.57135 
L 307.868354 482.511603 
L 318.142232 482.123479 
L 328.41611 481.785463 
L 338.689988 481.469217 
L 348.963867 480.338808 
L 359.237745 479.792061 
L 369.511623 478.428995 
L 379.785501 475.937666 
L 390.059379 474.234964 
L 400.333257 472.969011 
L 410.607135 470.675174 
L 420.881013 471.930943 
L 431.154891 467.984262 
L 441.428769 467.227216 
L 451.702647 466.025204 
L 461.976525 464.978447 
L 472.250403 462.839772 
L 482.524281 459.465408 
L 492.798159 453.509873 
L 503.072037 451.818487 
L 513.345915 447.322673 
L 523.619793 449.105333 
L 533.893671 447.806146 
L 544.167549 440.993711 
L 554.441427 437.108838 
L 564.715305 439.367764 
L 574.989183 436.134974 
L 585.263061 428.819909 
L 595.536939 415.488562 
L 605.810817 416.819596 
L 616.084695 415.638598 
L 626.358573 415.800046 
L 636.632451 417.236693 
L 646.906329 408.505852 
L 657.180207 406.696931 
L 667.454085 405.161946 
L 677.727963 403.783446 
L 688.001841 399.436941 
L 698.275719 387.506311 
L 708.549597 386.917108 
L 718.823475 382.149801 
L 729.097353 377.931545 
L 739.371231 378.082365 
L 749.645109 373.636172 
L 759.918987 365.003225 
L 770.192865 364.69313 
L 780.466743 357.185097 
L 790.740621 351.100032 
L 801.014499 346.704189 
L 811.288377 343.668014 
L 821.562255 326.892551 
L 831.836133 322.958355 
L 842.110012 315.892877 
L 852.38389 303.139238 
L 862.657768 302.532991 
L 872.931646 291.095453 
L 883.205524 279.931572 
L 893.479402 264.619755 
L 903.75328 265.208957 
L 914.027158 251.761414 
L 924.301036 245.057738 
L 934.574914 234.212347 
L 944.848792 240.947127 
L 955.12267 238.389437 
L 965.396548 234.926005 
L 975.670426 221.631759 
L 985.944304 211.849034 
L 996.218182 228.45168 
" style="fill:none;stroke:#ff7f0e;stroke-linecap:square;stroke-width:1.5;"/>
   </g>
   <g id="line2d_18">
    <path clip-path="url(#p127011556d)" d="M 184.581818 483.876497 
L 194.855696 483.864618 
L 205.129574 483.76633 
L 215.403452 483.728094 
L 225.67733 483.637548 
L 235.951208 483.45147 
L 246.225086 483.426032 
L 256.498964 483.286834 
L 266.772842 483.21941 
L 277.04672 482.67583 
L 287.320598 482.495457 
L 297.594476 482.016376 
L 307.868354 481.147327 
L 318.142232 481.066147 
L 328.41611 479.447076 
L 338.689988 478.440287 
L 348.963867 478.283402 
L 359.237745 476.864323 
L 369.511623 475.645409 
L 379.785501 474.660548 
L 390.059379 473.157652 
L 400.333257 471.669614 
L 410.607135 468.746281 
L 420.881013 467.124371 
L 431.154891 466.470332 
L 441.428769 462.922381 
L 451.702647 458.732286 
L 461.976525 453.505103 
L 472.250403 453.753236 
L 482.524281 448.988786 
L 492.798159 445.603206 
L 503.072037 445.047648 
L 513.345915 440.205696 
L 523.619793 434.168851 
L 533.893671 426.763696 
L 544.167549 419.488427 
L 554.441427 420.207989 
L 564.715305 418.686303 
L 574.989183 416.223466 
L 585.263061 405.372293 
L 595.536939 398.386423 
L 605.810817 397.931075 
L 616.084695 393.152887 
L 626.358573 388.46765 
L 636.632451 393.047562 
L 646.906329 383.059181 
L 657.180207 371.692782 
L 667.454085 366.446707 
L 677.727963 358.273749 
L 688.001841 349.502268 
L 698.275719 341.966485 
L 708.549597 328.190575 
L 718.823475 327.336393 
L 729.097353 320.160511 
L 739.371231 318.348948 
L 749.645109 312.916463 
L 759.918987 309.562996 
L 770.192865 302.358087 
L 780.466743 295.924656 
L 790.740621 288.183508 
L 801.014499 279.932898 
L 811.288377 257.208466 
L 821.562255 248.449543 
L 831.836133 248.45865 
L 842.110012 254.13677 
L 852.38389 254.921528 
L 862.657768 253.78936 
L 872.931646 253.830507 
L 883.205524 255.127361 
L 893.479402 251.575784 
L 903.75328 245.329172 
L 914.027158 234.708725 
L 924.301036 232.701158 
L 934.574914 225.192598 
L 944.848792 205.880818 
L 955.12267 203.396257 
L 965.396548 197.387128 
L 975.670426 192.253535 
L 985.944304 189.643972 
L 996.218182 183.433418 
" style="fill:none;stroke:#2ca02c;stroke-linecap:square;stroke-width:1.5;"/>
   </g>
   <g id="line2d_19">
    <path clip-path="url(#p127011556d)" d="M 184.581818 483.843953 
L 194.855696 483.832808 
L 205.129574 483.75905 
L 215.403452 483.4237 
L 225.67733 483.187865 
L 235.951208 483.198853 
L 246.225086 482.86404 
L 256.498964 482.08945 
L 266.772842 481.304121 
L 277.04672 480.809964 
L 287.320598 480.26464 
L 297.594476 479.759302 
L 307.868354 478.970971 
L 318.142232 475.015748 
L 328.41611 475.088226 
L 338.689988 472.881687 
L 348.963867 468.974407 
L 359.237745 462.107867 
L 369.511623 458.449308 
L 379.785501 456.705927 
L 390.059379 454.751839 
L 400.333257 452.097276 
L 410.607135 446.940542 
L 420.881013 440.875092 
L 431.154891 439.676055 
L 441.428769 436.658146 
L 451.702647 434.09878 
L 461.976525 425.801123 
L 472.250403 414.826723 
L 482.524281 407.309608 
L 492.798159 401.030288 
L 503.072037 395.210796 
L 513.345915 381.473449 
L 523.619793 370.74325 
L 533.893671 361.868998 
L 544.167549 349.92069 
L 554.441427 339.682657 
L 564.715305 331.705139 
L 574.989183 322.484793 
L 585.263061 321.529596 
L 595.536939 309.214514 
L 605.810817 311.106791 
L 616.084695 297.283133 
L 626.358573 288.369275 
L 636.632451 276.408408 
L 646.906329 271.065276 
L 657.180207 258.333946 
L 667.454085 251.322213 
L 677.727963 241.316436 
L 688.001841 237.076631 
L 698.275719 225.66733 
L 708.549597 223.126021 
L 718.823475 207.977486 
L 729.097353 209.138691 
L 739.371231 200.328227 
L 749.645109 194.653403 
L 759.918987 193.069768 
L 770.192865 194.139864 
L 780.466743 186.67214 
L 790.740621 182.753107 
L 801.014499 178.146234 
L 811.288377 172.028992 
L 821.562255 166.029536 
L 831.836133 157.386721 
L 842.110012 154.431543 
L 852.38389 145.773148 
L 862.657768 146.208566 
L 872.931646 149.914259 
L 883.205524 149.228799 
L 893.479402 140.379996 
L 903.75328 133.347397 
L 914.027158 130.020491 
L 924.301036 126.462577 
L 934.574914 117.350628 
L 944.848792 121.487682 
L 955.12267 105.686391 
L 965.396548 97.450815 
L 975.670426 90.445674 
L 985.944304 88.887273 
L 996.218182 92.820737 
" style="fill:none;stroke:#d62728;stroke-dasharray:5.55,2.4;stroke-dashoffset:0;stroke-width:1.5;"/>
   </g>
   <g id="line2d_20">
    <path clip-path="url(#p127011556d)" d="M 184.581818 483.674499 
L 194.855696 482.673109 
L 205.129574 481.907944 
L 215.403452 480.26673 
L 225.67733 478.639096 
L 235.951208 476.003856 
L 246.225086 471.559395 
L 256.498964 464.987418 
L 266.772842 456.044903 
L 277.04672 445.122883 
L 287.320598 435.682405 
L 297.594476 422.545401 
L 307.868354 405.023557 
L 318.142232 392.544993 
L 328.41611 381.45817 
L 338.689988 355.946337 
L 348.963867 337.706116 
L 359.237745 325.08169 
L 369.511623 310.74848 
L 379.785501 301.203765 
L 390.059379 284.437078 
L 400.333257 275.572557 
L 410.607135 268.347776 
L 420.881013 266.381297 
L 431.154891 263.796111 
L 441.428769 246.103927 
L 451.702647 237.756903 
L 461.976525 234.258662 
L 472.250403 232.396299 
L 482.524281 226.696709 
L 492.798159 219.61723 
L 503.072037 207.693434 
L 513.345915 207.095573 
L 523.619793 198.916473 
L 533.893671 190.822748 
L 544.167549 175.091172 
L 554.441427 175.489675 
L 564.715305 174.491849 
L 574.989183 173.922713 
L 585.263061 172.666616 
L 595.536939 152.563349 
L 605.810817 150.717933 
L 616.084695 150.867622 
L 626.358573 144.327618 
L 636.632451 135.512981 
L 646.906329 134.329662 
L 657.180207 133.324542 
L 667.454085 133.115804 
L 677.727963 132.747664 
L 688.001841 132.345866 
L 698.275719 131.517465 
L 708.549597 125.646617 
L 718.823475 123.852215 
L 729.097353 123.692346 
L 739.371231 123.468514 
L 749.645109 123.514146 
L 759.918987 122.787735 
L 770.192865 122.351732 
L 780.466743 122.409728 
L 790.740621 121.672552 
L 801.014499 121.146337 
L 811.288377 121.382806 
L 821.562255 122.204031 
L 831.836133 121.230152 
L 842.110012 114.997367 
L 852.38389 114.649898 
L 862.657768 114.339326 
L 872.931646 114.468695 
L 883.205524 114.708557 
L 893.479402 114.847326 
L 903.75328 114.272905 
L 914.027158 114.162959 
L 924.301036 109.484986 
L 934.574914 109.484986 
L 944.848792 109.484986 
L 955.12267 109.484986 
L 965.396548 109.484986 
L 975.670426 109.484986 
L 985.944304 109.484986 
L 996.218182 109.484986 
" style="fill:none;stroke:#9467bd;stroke-dasharray:5.55,2.4;stroke-dashoffset:0;stroke-width:1.5;"/>
   </g>
   <g id="line2d_21">
    <path clip-path="url(#p127011556d)" d="M 184.581818 484.228149 
L 194.855696 484.184142 
L 205.129574 484.111277 
L 215.403452 484.043409 
L 225.67733 483.944663 
L 235.951208 483.843805 
L 246.225086 483.658509 
L 256.498964 483.547286 
L 266.772842 483.247725 
L 277.04672 483.234605 
L 287.320598 483.050108 
L 297.594476 482.988216 
L 307.868354 482.820926 
L 318.142232 482.781659 
L 328.41611 482.653143 
L 338.689988 482.52127 
L 348.963867 482.485359 
L 359.237745 482.374503 
L 369.511623 482.013914 
L 379.785501 481.763806 
L 390.059379 481.485618 
L 400.333257 481.32034 
L 410.607135 481.177848 
L 420.881013 481.266831 
L 431.154891 481.179866 
L 441.428769 481.026006 
L 451.702647 480.892845 
L 461.976525 480.357526 
L 472.250403 480.029708 
L 482.524281 479.731903 
L 492.798159 479.697628 
L 503.072037 479.601515 
L 513.345915 479.440801 
L 523.619793 478.610253 
L 533.893671 478.140543 
L 544.167549 477.489631 
L 554.441427 477.494675 
L 564.715305 477.373497 
L 574.989183 476.892909 
L 585.263061 475.316162 
L 595.536939 475.519097 
L 605.810817 475.658462 
L 616.084695 474.864496 
L 626.358573 474.110618 
L 636.632451 472.121684 
L 646.906329 471.348979 
L 657.180207 470.378645 
L 667.454085 469.579855 
L 677.727963 468.506408 
L 688.001841 466.048634 
L 698.275719 465.213795 
L 708.549597 464.976495 
L 718.823475 460.816675 
L 729.097353 459.381615 
L 739.371231 458.361075 
L 749.645109 458.327707 
L 759.918987 454.822954 
L 770.192865 451.682536 
L 780.466743 450.592293 
L 790.740621 448.870561 
L 801.014499 447.533462 
L 811.288377 442.856459 
L 821.562255 438.856238 
L 831.836133 440.31183 
L 842.110012 436.697075 
L 852.38389 429.219089 
L 862.657768 427.669634 
L 872.931646 423.653768 
L 883.205524 418.715213 
L 893.479402 408.499991 
L 903.75328 400.384484 
L 914.027158 398.087386 
L 924.301036 396.350014 
L 934.574914 395.570004 
L 944.848792 391.164333 
L 955.12267 393.121686 
L 965.396548 393.274603 
L 975.670426 385.073651 
L 985.944304 378.031058 
L 996.218182 370.849647 
" style="fill:none;stroke:#8c564b;stroke-linecap:square;stroke-width:1.5;"/>
   </g>
   <g id="line2d_22">
    <path clip-path="url(#p127011556d)" d="M 184.581818 484.231826 
L 194.855696 484.206016 
L 205.129574 484.162663 
L 215.403452 484.133727 
L 225.67733 484.090277 
L 235.951208 484.057034 
L 246.225086 484.01393 
L 256.498964 483.967345 
L 266.772842 483.933041 
L 277.04672 483.866553 
L 287.320598 483.799671 
L 297.594476 483.775608 
L 307.868354 483.738358 
L 318.142232 483.681992 
L 328.41611 483.594698 
L 338.689988 483.504119 
L 348.963867 483.448298 
L 359.237745 483.281458 
L 369.511623 483.20258 
L 379.785501 483.088833 
L 390.059379 482.807346 
L 400.333257 482.677619 
L 410.607135 482.610347 
L 420.881013 482.424094 
L 431.154891 482.050825 
L 441.428769 481.857063 
L 451.702647 481.807024 
L 461.976525 481.670173 
L 472.250403 481.62513 
L 482.524281 481.499227 
L 492.798159 481.405797 
L 503.072037 481.20828 
L 513.345915 480.5279 
L 523.619793 479.953239 
L 533.893671 479.447601 
L 544.167549 479.192134 
L 554.441427 478.846787 
L 564.715305 478.470651 
L 574.989183 477.932625 
L 585.263061 476.780544 
L 595.536939 476.253797 
L 605.810817 475.645625 
L 616.084695 475.046526 
L 626.358573 473.381633 
L 636.632451 472.093118 
L 646.906329 470.85714 
L 657.180207 470.07177 
L 667.454085 469.561047 
L 677.727963 468.877797 
L 688.001841 467.072073 
L 698.275719 466.679045 
L 708.549597 466.369735 
L 718.823475 464.816506 
L 729.097353 464.502058 
L 739.371231 462.726131 
L 749.645109 461.063038 
L 759.918987 457.550685 
L 770.192865 456.665083 
L 780.466743 455.245914 
L 790.740621 451.313232 
L 801.014499 450.351714 
L 811.288377 446.446004 
L 821.562255 444.022028 
L 831.836133 439.443408 
L 842.110012 435.448043 
L 852.38389 431.022456 
L 862.657768 426.863912 
L 872.931646 422.948822 
L 883.205524 421.400186 
L 893.479402 416.37982 
L 903.75328 410.752701 
L 914.027158 410.395789 
L 924.301036 406.111965 
L 934.574914 403.196934 
L 944.848792 400.207142 
L 955.12267 393.277723 
L 965.396548 388.791766 
L 975.670426 378.956828 
L 985.944304 372.603458 
L 996.218182 367.867782 
" style="fill:none;stroke:#e377c2;stroke-linecap:square;stroke-width:1.5;"/>
   </g>
   <g id="line2d_23">
    <path clip-path="url(#p127011556d)" d="M 184.581818 484.230085 
L 194.855696 484.192736 
L 205.129574 484.100757 
L 215.403452 484.048566 
L 225.67733 484.004826 
L 235.951208 483.906854 
L 246.225086 483.69392 
L 256.498964 483.416295 
L 266.772842 483.379776 
L 277.04672 483.213035 
L 287.320598 483.168399 
L 297.594476 482.950124 
L 307.868354 482.888654 
L 318.142232 482.510324 
L 328.41611 482.272588 
L 338.689988 481.861248 
L 348.963867 481.054101 
L 359.237745 480.896878 
L 369.511623 479.548661 
L 379.785501 478.288509 
L 390.059379 477.021214 
L 400.333257 474.951611 
L 410.607135 474.740422 
L 420.881013 473.238969 
L 431.154891 471.372539 
L 441.428769 470.676618 
L 451.702647 469.742039 
L 461.976525 466.953677 
L 472.250403 462.787922 
L 482.524281 458.445751 
L 492.798159 451.778313 
L 503.072037 451.285916 
L 513.345915 447.697665 
L 523.619793 438.69203 
L 533.893671 433.369955 
L 544.167549 429.914182 
L 554.441427 426.391359 
L 564.715305 425.468661 
L 574.989183 415.570612 
L 585.263061 409.196581 
L 595.536939 404.66918 
L 605.810817 402.717347 
L 616.084695 401.609457 
L 626.358573 399.711505 
L 636.632451 394.29269 
L 646.906329 393.160405 
L 657.180207 392.079066 
L 667.454085 389.33678 
L 677.727963 384.989592 
L 688.001841 385.075914 
L 698.275719 382.025229 
L 708.549597 367.820434 
L 718.823475 361.480753 
L 729.097353 353.785199 
L 739.371231 353.345667 
L 749.645109 345.094686 
L 759.918987 332.152169 
L 770.192865 327.229137 
L 780.466743 324.251377 
L 790.740621 319.342503 
L 801.014499 316.586176 
L 811.288377 314.912017 
L 821.562255 310.134629 
L 831.836133 301.364434 
L 842.110012 299.555094 
L 852.38389 295.086055 
L 862.657768 287.565678 
L 872.931646 282.048637 
L 883.205524 275.223217 
L 893.479402 265.725889 
L 903.75328 253.858803 
L 914.027158 241.276888 
L 924.301036 231.170877 
L 934.574914 231.143575 
L 944.848792 231.060638 
L 955.12267 231.836309 
L 965.396548 223.689307 
L 975.670426 223.437296 
L 985.944304 221.946563 
L 996.218182 217.584994 
" style="fill:none;stroke:#7f7f7f;stroke-linecap:square;stroke-width:1.5;"/>
   </g>
   <g id="line2d_24">
    <path clip-path="url(#p127011556d)" d="M 184.581818 484.228728 
L 194.855696 484.200352 
L 205.129574 484.179095 
L 215.403452 484.156295 
L 225.67733 484.056592 
L 235.951208 483.957906 
L 246.225086 483.626095 
L 256.498964 483.353622 
L 266.772842 483.291593 
L 277.04672 483.261736 
L 287.320598 483.217666 
L 297.594476 483.002291 
L 307.868354 482.448362 
L 318.142232 482.271555 
L 328.41611 481.983955 
L 338.689988 481.552638 
L 348.963867 481.300825 
L 359.237745 480.528969 
L 369.511623 479.820373 
L 379.785501 478.894982 
L 390.059379 478.508842 
L 400.333257 477.724363 
L 410.607135 477.009823 
L 420.881013 473.617222 
L 431.154891 473.33523 
L 441.428769 472.160616 
L 451.702647 471.222891 
L 461.976525 470.087364 
L 472.250403 468.927528 
L 482.524281 468.465105 
L 492.798159 467.420527 
L 503.072037 463.785058 
L 513.345915 461.510683 
L 523.619793 460.203374 
L 533.893671 452.855449 
L 544.167549 448.478969 
L 554.441427 441.189984 
L 564.715305 437.771823 
L 574.989183 434.650282 
L 585.263061 434.8479 
L 595.536939 431.54832 
L 605.810817 424.191264 
L 616.084695 421.37659 
L 626.358573 417.27667 
L 636.632451 414.923658 
L 646.906329 411.793897 
L 657.180207 406.718957 
L 667.454085 406.645078 
L 677.727963 399.107882 
L 688.001841 397.820905 
L 698.275719 392.069481 
L 708.549597 384.635338 
L 718.823475 372.646 
L 729.097353 368.516804 
L 739.371231 366.197094 
L 749.645109 364.662484 
L 759.918987 365.577363 
L 770.192865 362.459157 
L 780.466743 356.786956 
L 790.740621 350.983942 
L 801.014499 344.674186 
L 811.288377 343.617691 
L 821.562255 344.140337 
L 831.836133 342.902425 
L 842.110012 334.199977 
L 852.38389 325.778489 
L 862.657768 323.443988 
L 872.931646 317.03659 
L 883.205524 314.390639 
L 893.479402 311.970646 
L 903.75328 305.875576 
L 914.027158 285.034354 
L 924.301036 283.951601 
L 934.574914 280.899561 
L 944.848792 278.92811 
L 955.12267 278.667265 
L 965.396548 277.443149 
L 975.670426 275.594476 
L 985.944304 275.226122 
L 996.218182 275.721311 
" style="fill:none;stroke:#bcbd22;stroke-dasharray:5.55,2.4;stroke-dashoffset:0;stroke-width:1.5;"/>
   </g>
   <g id="line2d_25">
    <path clip-path="url(#p127011556d)" d="M 184.581818 484.232727 
L 194.855696 484.212823 
L 205.129574 484.191416 
L 215.403452 484.153664 
L 225.67733 484.123654 
L 235.951208 484.073822 
L 246.225086 484.024517 
L 256.498964 484.007385 
L 266.772842 483.940988 
L 277.04672 483.916902 
L 287.320598 483.816122 
L 297.594476 483.739499 
L 307.868354 483.660187 
L 318.142232 483.554734 
L 328.41611 483.455676 
L 338.689988 483.387236 
L 348.963867 483.236544 
L 359.237745 483.00884 
L 369.511623 482.737437 
L 379.785501 482.696542 
L 390.059379 482.650496 
L 400.333257 482.594368 
L 410.607135 482.426526 
L 420.881013 482.483143 
L 431.154891 482.347382 
L 441.428769 482.034754 
L 451.702647 481.671576 
L 461.976525 481.456427 
L 472.250403 481.216214 
L 482.524281 480.736252 
L 492.798159 480.242182 
L 503.072037 480.298798 
L 513.345915 479.469519 
L 523.619793 479.037433 
L 533.893671 478.805175 
L 544.167549 478.617166 
L 554.441427 478.116264 
L 564.715305 476.579933 
L 574.989183 476.039702 
L 585.263061 474.839028 
L 595.536939 470.874447 
L 605.810817 471.704034 
L 616.084695 469.796517 
L 626.358573 470.213102 
L 636.632451 465.916561 
L 646.906329 465.195569 
L 657.180207 459.732679 
L 667.454085 456.747723 
L 677.727963 455.95669 
L 688.001841 454.355404 
L 698.275719 453.911986 
L 708.549597 449.180836 
L 718.823475 448.18439 
L 729.097353 446.611187 
L 739.371231 442.910643 
L 749.645109 438.422137 
L 759.918987 434.833006 
L 770.192865 431.412837 
L 780.466743 427.241914 
L 790.740621 423.681479 
L 801.014499 423.233215 
L 811.288377 421.518411 
L 821.562255 421.601938 
L 831.836133 424.228018 
L 842.110012 424.198118 
L 852.38389 421.135002 
L 862.657768 423.798421 
L 872.931646 421.887857 
L 883.205524 417.338703 
L 893.479402 412.735516 
L 903.75328 408.098832 
L 914.027158 408.805084 
L 924.301036 403.379191 
L 934.574914 403.924389 
L 944.848792 402.467929 
L 955.12267 397.824239 
L 965.396548 391.88545 
L 975.670426 393.036661 
L 985.944304 381.39916 
L 996.218182 378.582673 
" style="fill:none;stroke:#17becf;stroke-dasharray:5.55,2.4;stroke-dashoffset:0;stroke-width:1.5;"/>
   </g>
   <g id="line2d_26">
    <path clip-path="url(#p127011556d)" d="M 184.581818 484.109879 
L 194.855696 483.474361 
L 205.129574 482.730617 
L 215.403452 481.246995 
L 225.67733 479.513617 
L 235.951208 476.777835 
L 246.225086 474.779829 
L 256.498964 470.722325 
L 266.772842 466.758035 
L 277.04672 456.931076 
L 287.320598 448.279006 
L 297.594476 434.986513 
L 307.868354 422.945756 
L 318.142232 404.242275 
L 328.41611 389.808235 
L 338.689988 374.389056 
L 348.963867 355.94777 
L 359.237745 350.588745 
L 369.511623 337.124616 
L 379.785501 323.480162 
L 390.059379 301.446046 
L 400.333257 292.154668 
L 410.607135 291.545282 
L 420.881013 290.353928 
L 431.154891 280.819744 
L 441.428769 264.78327 
L 451.702647 263.79732 
L 461.976525 257.271805 
L 472.250403 255.776665 
L 482.524281 255.473679 
L 492.798159 254.134624 
L 503.072037 245.886647 
L 513.345915 218.701932 
L 523.619793 201.081394 
L 533.893671 199.808272 
L 544.167549 199.489236 
L 554.441427 198.906313 
L 564.715305 189.003307 
L 574.989183 188.393492 
L 585.263061 179.085168 
L 595.536939 162.082986 
L 605.810817 161.74244 
L 616.084695 151.142664 
L 626.358573 151.140207 
L 636.632451 146.075296 
L 646.906329 145.330086 
L 657.180207 144.911322 
L 667.454085 137.704735 
L 677.727963 128.733349 
L 688.001841 128.056197 
L 698.275719 127.79075 
L 708.549597 127.590358 
L 718.823475 117.518648 
L 729.097353 117.229215 
L 739.371231 116.951092 
L 749.645109 116.871333 
L 759.918987 116.910569 
L 770.192865 117.163613 
L 780.466743 116.82141 
L 790.740621 116.780302 
L 801.014499 116.569185 
L 811.288377 110.042948 
L 821.562255 110.042948 
L 831.836133 110.042948 
L 842.110012 110.042948 
L 852.38389 110.042948 
L 862.657768 110.042948 
L 872.931646 110.042948 
L 883.205524 110.042948 
L 893.479402 110.042948 
L 903.75328 110.042948 
L 914.027158 110.042948 
L 924.301036 110.042948 
L 934.574914 110.042948 
L 944.848792 110.042948 
L 955.12267 110.042948 
L 965.396548 110.042948 
L 975.670426 110.042948 
L 985.944304 110.042948 
L 996.218182 110.042948 
" style="fill:none;stroke:#1f77b4;stroke-dasharray:5.55,2.4;stroke-dashoffset:0;stroke-width:1.5;"/>
   </g>
   <g id="patch_3">
    <path d="M 144 504 
L 144 69.12 
" style="fill:none;stroke:#000000;stroke-linecap:square;stroke-linejoin:miter;stroke-width:0.8;"/>
   </g>
   <g id="patch_4">
    <path d="M 1036.8 504 
L 1036.8 69.12 
" style="fill:none;stroke:#000000;stroke-linecap:square;stroke-linejoin:miter;stroke-width:0.8;"/>
   </g>
   <g id="patch_5">
    <path d="M 144 504 
L 1036.8 504 
" style="fill:none;stroke:#000000;stroke-linecap:square;stroke-linejoin:miter;stroke-width:0.8;"/>
   </g>
   <g id="patch_6">
    <path d="M 144 69.12 
L 1036.8 69.12 
" style="fill:none;stroke:#000000;stroke-linecap:square;stroke-linejoin:miter;stroke-width:0.8;"/>
   </g>
   <g id="legend_1">
    <g id="patch_7">
     <path d="M 151 240.52625 
L 300.879687 240.52625 
Q 302.879687 240.52625 302.879687 238.52625 
L 302.879687 76.12 
Q 302.879687 74.12 300.879687 74.12 
L 151 74.12 
Q 149 74.12 149 76.12 
L 149 238.52625 
Q 149 240.52625 151 240.52625 
z
" style="fill:#ffffff;opacity:0.8;stroke:#cccccc;stroke-linejoin:miter;"/>
    </g>
    <g id="line2d_27">
     <path d="M 153 82.218437 
L 173 82.218437 
" style="fill:none;stroke:#1f77b4;stroke-linecap:square;stroke-width:1.5;"/>
    </g>
    <g id="line2d_28"/>
    <g id="text_18">
     <!-- taylorfo noBN -->
     <defs>
      <path d="M 18.3125 70.21875 
L 18.3125 54.6875 
L 36.8125 54.6875 
L 36.8125 47.703125 
L 18.3125 47.703125 
L 18.3125 18.015625 
Q 18.3125 11.328125 20.140625 9.421875 
Q 21.96875 7.515625 27.59375 7.515625 
L 36.8125 7.515625 
L 36.8125 0 
L 27.59375 0 
Q 17.1875 0 13.234375 3.875 
Q 9.28125 7.765625 9.28125 18.015625 
L 9.28125 47.703125 
L 2.6875 47.703125 
L 2.6875 54.6875 
L 9.28125 54.6875 
L 9.28125 70.21875 
z
" id="DejaVuSans-116"/>
      <path d="M 34.28125 27.484375 
Q 23.390625 27.484375 19.1875 25 
Q 14.984375 22.515625 14.984375 16.5 
Q 14.984375 11.71875 18.140625 8.90625 
Q 21.296875 6.109375 26.703125 6.109375 
Q 34.1875 6.109375 38.703125 11.40625 
Q 43.21875 16.703125 43.21875 25.484375 
L 43.21875 27.484375 
z
M 52.203125 31.203125 
L 52.203125 0 
L 43.21875 0 
L 43.21875 8.296875 
Q 40.140625 3.328125 35.546875 0.953125 
Q 30.953125 -1.421875 24.3125 -1.421875 
Q 15.921875 -1.421875 10.953125 3.296875 
Q 6 8.015625 6 15.921875 
Q 6 25.140625 12.171875 29.828125 
Q 18.359375 34.515625 30.609375 34.515625 
L 43.21875 34.515625 
L 43.21875 35.40625 
Q 43.21875 41.609375 39.140625 45 
Q 35.0625 48.390625 27.6875 48.390625 
Q 23 48.390625 18.546875 47.265625 
Q 14.109375 46.140625 10.015625 43.890625 
L 10.015625 52.203125 
Q 14.9375 54.109375 19.578125 55.046875 
Q 24.21875 56 28.609375 56 
Q 40.484375 56 46.34375 49.84375 
Q 52.203125 43.703125 52.203125 31.203125 
z
" id="DejaVuSans-97"/>
      <path d="M 32.171875 -5.078125 
Q 28.375 -14.84375 24.75 -17.8125 
Q 21.140625 -20.796875 15.09375 -20.796875 
L 7.90625 -20.796875 
L 7.90625 -13.28125 
L 13.1875 -13.28125 
Q 16.890625 -13.28125 18.9375 -11.515625 
Q 21 -9.765625 23.484375 -3.21875 
L 25.09375 0.875 
L 2.984375 54.6875 
L 12.5 54.6875 
L 29.59375 11.921875 
L 46.6875 54.6875 
L 56.203125 54.6875 
z
" id="DejaVuSans-121"/>
      <path d="M 9.421875 75.984375 
L 18.40625 75.984375 
L 18.40625 0 
L 9.421875 0 
z
" id="DejaVuSans-108"/>
      <path d="M 19.671875 34.8125 
L 19.671875 8.109375 
L 35.5 8.109375 
Q 43.453125 8.109375 47.28125 11.40625 
Q 51.125 14.703125 51.125 21.484375 
Q 51.125 28.328125 47.28125 31.5625 
Q 43.453125 34.8125 35.5 34.8125 
z
M 19.671875 64.796875 
L 19.671875 42.828125 
L 34.28125 42.828125 
Q 41.5 42.828125 45.03125 45.53125 
Q 48.578125 48.25 48.578125 53.8125 
Q 48.578125 59.328125 45.03125 62.0625 
Q 41.5 64.796875 34.28125 64.796875 
z
M 9.8125 72.90625 
L 35.015625 72.90625 
Q 46.296875 72.90625 52.390625 68.21875 
Q 58.5 63.53125 58.5 54.890625 
Q 58.5 48.1875 55.375 44.234375 
Q 52.25 40.28125 46.1875 39.3125 
Q 53.46875 37.75 57.5 32.78125 
Q 61.53125 27.828125 61.53125 20.40625 
Q 61.53125 10.640625 54.890625 5.3125 
Q 48.25 0 35.984375 0 
L 9.8125 0 
z
" id="DejaVuSans-66"/>
     </defs>
     <g transform="translate(181 85.718437)scale(0.1 -0.1)">
      <use xlink:href="#DejaVuSans-116"/>
      <use x="39.208984" xlink:href="#DejaVuSans-97"/>
      <use x="100.488281" xlink:href="#DejaVuSans-121"/>
      <use x="159.667969" xlink:href="#DejaVuSans-108"/>
      <use x="187.451172" xlink:href="#DejaVuSans-111"/>
      <use x="248.632812" xlink:href="#DejaVuSans-114"/>
      <use x="289.746094" xlink:href="#DejaVuSans-102"/>
      <use x="324.951172" xlink:href="#DejaVuSans-111"/>
      <use x="386.132812" xlink:href="#DejaVuSans-32"/>
      <use x="417.919922" xlink:href="#DejaVuSans-110"/>
      <use x="481.298828" xlink:href="#DejaVuSans-111"/>
      <use x="542.480469" xlink:href="#DejaVuSans-66"/>
      <use x="611.083984" xlink:href="#DejaVuSans-78"/>
     </g>
    </g>
    <g id="line2d_29">
     <path d="M 153 96.896563 
L 173 96.896563 
" style="fill:none;stroke:#ff7f0e;stroke-linecap:square;stroke-width:1.5;"/>
    </g>
    <g id="line2d_30"/>
    <g id="text_19">
     <!-- taylorfo_abs noBN -->
     <defs>
      <path d="M 50.984375 -16.609375 
L 50.984375 -23.578125 
L -0.984375 -23.578125 
L -0.984375 -16.609375 
z
" id="DejaVuSans-95"/>
     </defs>
     <g transform="translate(181 100.396563)scale(0.1 -0.1)">
      <use xlink:href="#DejaVuSans-116"/>
      <use x="39.208984" xlink:href="#DejaVuSans-97"/>
      <use x="100.488281" xlink:href="#DejaVuSans-121"/>
      <use x="159.667969" xlink:href="#DejaVuSans-108"/>
      <use x="187.451172" xlink:href="#DejaVuSans-111"/>
      <use x="248.632812" xlink:href="#DejaVuSans-114"/>
      <use x="289.746094" xlink:href="#DejaVuSans-102"/>
      <use x="324.951172" xlink:href="#DejaVuSans-111"/>
      <use x="386.132812" xlink:href="#DejaVuSans-95"/>
      <use x="436.132812" xlink:href="#DejaVuSans-97"/>
      <use x="497.412109" xlink:href="#DejaVuSans-98"/>
      <use x="560.888672" xlink:href="#DejaVuSans-115"/>
      <use x="612.988281" xlink:href="#DejaVuSans-32"/>
      <use x="644.775391" xlink:href="#DejaVuSans-110"/>
      <use x="708.154297" xlink:href="#DejaVuSans-111"/>
      <use x="769.335938" xlink:href="#DejaVuSans-66"/>
      <use x="837.939453" xlink:href="#DejaVuSans-78"/>
     </g>
    </g>
    <g id="line2d_31">
     <path d="M 153 111.852813 
L 173 111.852813 
" style="fill:none;stroke:#2ca02c;stroke-linecap:square;stroke-width:1.5;"/>
    </g>
    <g id="line2d_32"/>
    <g id="text_20">
     <!-- taylorfo_sq noBN -->
     <defs>
      <path d="M 14.796875 27.296875 
Q 14.796875 17.390625 18.875 11.75 
Q 22.953125 6.109375 30.078125 6.109375 
Q 37.203125 6.109375 41.296875 11.75 
Q 45.40625 17.390625 45.40625 27.296875 
Q 45.40625 37.203125 41.296875 42.84375 
Q 37.203125 48.484375 30.078125 48.484375 
Q 22.953125 48.484375 18.875 42.84375 
Q 14.796875 37.203125 14.796875 27.296875 
z
M 45.40625 8.203125 
Q 42.578125 3.328125 38.25 0.953125 
Q 33.9375 -1.421875 27.875 -1.421875 
Q 17.96875 -1.421875 11.734375 6.484375 
Q 5.515625 14.40625 5.515625 27.296875 
Q 5.515625 40.1875 11.734375 48.09375 
Q 17.96875 56 27.875 56 
Q 33.9375 56 38.25 53.625 
Q 42.578125 51.265625 45.40625 46.390625 
L 45.40625 54.6875 
L 54.390625 54.6875 
L 54.390625 -20.796875 
L 45.40625 -20.796875 
z
" id="DejaVuSans-113"/>
     </defs>
     <g transform="translate(181 115.352813)scale(0.1 -0.1)">
      <use xlink:href="#DejaVuSans-116"/>
      <use x="39.208984" xlink:href="#DejaVuSans-97"/>
      <use x="100.488281" xlink:href="#DejaVuSans-121"/>
      <use x="159.667969" xlink:href="#DejaVuSans-108"/>
      <use x="187.451172" xlink:href="#DejaVuSans-111"/>
      <use x="248.632812" xlink:href="#DejaVuSans-114"/>
      <use x="289.746094" xlink:href="#DejaVuSans-102"/>
      <use x="324.951172" xlink:href="#DejaVuSans-111"/>
      <use x="386.132812" xlink:href="#DejaVuSans-95"/>
      <use x="436.132812" xlink:href="#DejaVuSans-115"/>
      <use x="488.232422" xlink:href="#DejaVuSans-113"/>
      <use x="551.708984" xlink:href="#DejaVuSans-32"/>
      <use x="583.496094" xlink:href="#DejaVuSans-110"/>
      <use x="646.875" xlink:href="#DejaVuSans-111"/>
      <use x="708.056641" xlink:href="#DejaVuSans-66"/>
      <use x="776.660156" xlink:href="#DejaVuSans-78"/>
     </g>
    </g>
    <g id="line2d_33">
     <path d="M 153 126.809062 
L 173 126.809062 
" style="fill:none;stroke:#d62728;stroke-dasharray:5.55,2.4;stroke-dashoffset:0;stroke-width:1.5;"/>
    </g>
    <g id="line2d_34"/>
    <g id="text_21">
     <!-- Molchanov_group noBN -->
     <defs>
      <path d="M 9.8125 72.90625 
L 24.515625 72.90625 
L 43.109375 23.296875 
L 61.8125 72.90625 
L 76.515625 72.90625 
L 76.515625 0 
L 66.890625 0 
L 66.890625 64.015625 
L 48.09375 14.015625 
L 38.1875 14.015625 
L 19.390625 64.015625 
L 19.390625 0 
L 9.8125 0 
z
" id="DejaVuSans-77"/>
      <path d="M 48.78125 52.59375 
L 48.78125 44.1875 
Q 44.96875 46.296875 41.140625 47.34375 
Q 37.3125 48.390625 33.40625 48.390625 
Q 24.65625 48.390625 19.8125 42.84375 
Q 14.984375 37.3125 14.984375 27.296875 
Q 14.984375 17.28125 19.8125 11.734375 
Q 24.65625 6.203125 33.40625 6.203125 
Q 37.3125 6.203125 41.140625 7.25 
Q 44.96875 8.296875 48.78125 10.40625 
L 48.78125 2.09375 
Q 45.015625 0.34375 40.984375 -0.53125 
Q 36.96875 -1.421875 32.421875 -1.421875 
Q 20.0625 -1.421875 12.78125 6.34375 
Q 5.515625 14.109375 5.515625 27.296875 
Q 5.515625 40.671875 12.859375 48.328125 
Q 20.21875 56 33.015625 56 
Q 37.15625 56 41.109375 55.140625 
Q 45.0625 54.296875 48.78125 52.59375 
z
" id="DejaVuSans-99"/>
      <path d="M 54.890625 33.015625 
L 54.890625 0 
L 45.90625 0 
L 45.90625 32.71875 
Q 45.90625 40.484375 42.875 44.328125 
Q 39.84375 48.1875 33.796875 48.1875 
Q 26.515625 48.1875 22.3125 43.546875 
Q 18.109375 38.921875 18.109375 30.90625 
L 18.109375 0 
L 9.078125 0 
L 9.078125 75.984375 
L 18.109375 75.984375 
L 18.109375 46.1875 
Q 21.34375 51.125 25.703125 53.5625 
Q 30.078125 56 35.796875 56 
Q 45.21875 56 50.046875 50.171875 
Q 54.890625 44.34375 54.890625 33.015625 
z
" id="DejaVuSans-104"/>
      <path d="M 2.984375 54.6875 
L 12.5 54.6875 
L 29.59375 8.796875 
L 46.6875 54.6875 
L 56.203125 54.6875 
L 35.6875 0 
L 23.484375 0 
z
" id="DejaVuSans-118"/>
      <path d="M 45.40625 27.984375 
Q 45.40625 37.75 41.375 43.109375 
Q 37.359375 48.484375 30.078125 48.484375 
Q 22.859375 48.484375 18.828125 43.109375 
Q 14.796875 37.75 14.796875 27.984375 
Q 14.796875 18.265625 18.828125 12.890625 
Q 22.859375 7.515625 30.078125 7.515625 
Q 37.359375 7.515625 41.375 12.890625 
Q 45.40625 18.265625 45.40625 27.984375 
z
M 54.390625 6.78125 
Q 54.390625 -7.171875 48.1875 -13.984375 
Q 42 -20.796875 29.203125 -20.796875 
Q 24.46875 -20.796875 20.265625 -20.09375 
Q 16.0625 -19.390625 12.109375 -17.921875 
L 12.109375 -9.1875 
Q 16.0625 -11.328125 19.921875 -12.34375 
Q 23.78125 -13.375 27.78125 -13.375 
Q 36.625 -13.375 41.015625 -8.765625 
Q 45.40625 -4.15625 45.40625 5.171875 
L 45.40625 9.625 
Q 42.625 4.78125 38.28125 2.390625 
Q 33.9375 0 27.875 0 
Q 17.828125 0 11.671875 7.65625 
Q 5.515625 15.328125 5.515625 27.984375 
Q 5.515625 40.671875 11.671875 48.328125 
Q 17.828125 56 27.875 56 
Q 33.9375 56 38.28125 53.609375 
Q 42.625 51.21875 45.40625 46.390625 
L 45.40625 54.6875 
L 54.390625 54.6875 
z
" id="DejaVuSans-103"/>
     </defs>
     <g transform="translate(181 130.309062)scale(0.1 -0.1)">
      <use xlink:href="#DejaVuSans-77"/>
      <use x="86.279297" xlink:href="#DejaVuSans-111"/>
      <use x="147.460938" xlink:href="#DejaVuSans-108"/>
      <use x="175.244141" xlink:href="#DejaVuSans-99"/>
      <use x="230.224609" xlink:href="#DejaVuSans-104"/>
      <use x="293.603516" xlink:href="#DejaVuSans-97"/>
      <use x="354.882812" xlink:href="#DejaVuSans-110"/>
      <use x="418.261719" xlink:href="#DejaVuSans-111"/>
      <use x="479.443359" xlink:href="#DejaVuSans-118"/>
      <use x="538.623047" xlink:href="#DejaVuSans-95"/>
      <use x="588.623047" xlink:href="#DejaVuSans-103"/>
      <use x="652.099609" xlink:href="#DejaVuSans-114"/>
      <use x="690.962891" xlink:href="#DejaVuSans-111"/>
      <use x="752.144531" xlink:href="#DejaVuSans-117"/>
      <use x="815.523438" xlink:href="#DejaVuSans-112"/>
      <use x="879" xlink:href="#DejaVuSans-32"/>
      <use x="910.787109" xlink:href="#DejaVuSans-110"/>
      <use x="974.166016" xlink:href="#DejaVuSans-111"/>
      <use x="1035.347656" xlink:href="#DejaVuSans-66"/>
      <use x="1103.951172" xlink:href="#DejaVuSans-78"/>
     </g>
    </g>
    <g id="line2d_35">
     <path d="M 153 141.765312 
L 173 141.765312 
" style="fill:none;stroke:#9467bd;stroke-dasharray:5.55,2.4;stroke-dashoffset:0;stroke-width:1.5;"/>
    </g>
    <g id="line2d_36"/>
    <g id="text_22">
     <!-- APnZ noBN -->
     <defs>
      <path d="M 34.1875 63.1875 
L 20.796875 26.90625 
L 47.609375 26.90625 
z
M 28.609375 72.90625 
L 39.796875 72.90625 
L 67.578125 0 
L 57.328125 0 
L 50.6875 18.703125 
L 17.828125 18.703125 
L 11.1875 0 
L 0.78125 0 
z
" id="DejaVuSans-65"/>
      <path d="M 19.671875 64.796875 
L 19.671875 37.40625 
L 32.078125 37.40625 
Q 38.96875 37.40625 42.71875 40.96875 
Q 46.484375 44.53125 46.484375 51.125 
Q 46.484375 57.671875 42.71875 61.234375 
Q 38.96875 64.796875 32.078125 64.796875 
z
M 9.8125 72.90625 
L 32.078125 72.90625 
Q 44.34375 72.90625 50.609375 67.359375 
Q 56.890625 61.8125 56.890625 51.125 
Q 56.890625 40.328125 50.609375 34.8125 
Q 44.34375 29.296875 32.078125 29.296875 
L 19.671875 29.296875 
L 19.671875 0 
L 9.8125 0 
z
" id="DejaVuSans-80"/>
      <path d="M 5.609375 72.90625 
L 62.890625 72.90625 
L 62.890625 65.375 
L 16.796875 8.296875 
L 64.015625 8.296875 
L 64.015625 0 
L 4.5 0 
L 4.5 7.515625 
L 50.59375 64.59375 
L 5.609375 64.59375 
z
" id="DejaVuSans-90"/>
     </defs>
     <g transform="translate(181 145.265312)scale(0.1 -0.1)">
      <use xlink:href="#DejaVuSans-65"/>
      <use x="68.408203" xlink:href="#DejaVuSans-80"/>
      <use x="126.960938" xlink:href="#DejaVuSans-110"/>
      <use x="190.339844" xlink:href="#DejaVuSans-90"/>
      <use x="258.845703" xlink:href="#DejaVuSans-32"/>
      <use x="290.632812" xlink:href="#DejaVuSans-110"/>
      <use x="354.011719" xlink:href="#DejaVuSans-111"/>
      <use x="415.193359" xlink:href="#DejaVuSans-66"/>
      <use x="483.796875" xlink:href="#DejaVuSans-78"/>
     </g>
    </g>
    <g id="line2d_37">
     <path d="M 153 156.443438 
L 173 156.443438 
" style="fill:none;stroke:#8c564b;stroke-linecap:square;stroke-width:1.5;"/>
    </g>
    <g id="line2d_38"/>
    <g id="text_23">
     <!-- taylorfo BN -->
     <g transform="translate(181 159.943438)scale(0.1 -0.1)">
      <use xlink:href="#DejaVuSans-116"/>
      <use x="39.208984" xlink:href="#DejaVuSans-97"/>
      <use x="100.488281" xlink:href="#DejaVuSans-121"/>
      <use x="159.667969" xlink:href="#DejaVuSans-108"/>
      <use x="187.451172" xlink:href="#DejaVuSans-111"/>
      <use x="248.632812" xlink:href="#DejaVuSans-114"/>
      <use x="289.746094" xlink:href="#DejaVuSans-102"/>
      <use x="324.951172" xlink:href="#DejaVuSans-111"/>
      <use x="386.132812" xlink:href="#DejaVuSans-32"/>
      <use x="417.919922" xlink:href="#DejaVuSans-66"/>
      <use x="486.523438" xlink:href="#DejaVuSans-78"/>
     </g>
    </g>
    <g id="line2d_39">
     <path d="M 153 171.121562 
L 173 171.121562 
" style="fill:none;stroke:#e377c2;stroke-linecap:square;stroke-width:1.5;"/>
    </g>
    <g id="line2d_40"/>
    <g id="text_24">
     <!-- taylorfo_abs BN -->
     <g transform="translate(181 174.621562)scale(0.1 -0.1)">
      <use xlink:href="#DejaVuSans-116"/>
      <use x="39.208984" xlink:href="#DejaVuSans-97"/>
      <use x="100.488281" xlink:href="#DejaVuSans-121"/>
      <use x="159.667969" xlink:href="#DejaVuSans-108"/>
      <use x="187.451172" xlink:href="#DejaVuSans-111"/>
      <use x="248.632812" xlink:href="#DejaVuSans-114"/>
      <use x="289.746094" xlink:href="#DejaVuSans-102"/>
      <use x="324.951172" xlink:href="#DejaVuSans-111"/>
      <use x="386.132812" xlink:href="#DejaVuSans-95"/>
      <use x="436.132812" xlink:href="#DejaVuSans-97"/>
      <use x="497.412109" xlink:href="#DejaVuSans-98"/>
      <use x="560.888672" xlink:href="#DejaVuSans-115"/>
      <use x="612.988281" xlink:href="#DejaVuSans-32"/>
      <use x="644.775391" xlink:href="#DejaVuSans-66"/>
      <use x="713.378906" xlink:href="#DejaVuSans-78"/>
     </g>
    </g>
    <g id="line2d_41">
     <path d="M 153 186.077812 
L 173 186.077812 
" style="fill:none;stroke:#7f7f7f;stroke-linecap:square;stroke-width:1.5;"/>
    </g>
    <g id="line2d_42"/>
    <g id="text_25">
     <!-- taylorfo_sq BN -->
     <g transform="translate(181 189.577812)scale(0.1 -0.1)">
      <use xlink:href="#DejaVuSans-116"/>
      <use x="39.208984" xlink:href="#DejaVuSans-97"/>
      <use x="100.488281" xlink:href="#DejaVuSans-121"/>
      <use x="159.667969" xlink:href="#DejaVuSans-108"/>
      <use x="187.451172" xlink:href="#DejaVuSans-111"/>
      <use x="248.632812" xlink:href="#DejaVuSans-114"/>
      <use x="289.746094" xlink:href="#DejaVuSans-102"/>
      <use x="324.951172" xlink:href="#DejaVuSans-111"/>
      <use x="386.132812" xlink:href="#DejaVuSans-95"/>
      <use x="436.132812" xlink:href="#DejaVuSans-115"/>
      <use x="488.232422" xlink:href="#DejaVuSans-113"/>
      <use x="551.708984" xlink:href="#DejaVuSans-32"/>
      <use x="583.496094" xlink:href="#DejaVuSans-66"/>
      <use x="652.099609" xlink:href="#DejaVuSans-78"/>
     </g>
    </g>
    <g id="line2d_43">
     <path d="M 153 201.034063 
L 173 201.034063 
" style="fill:none;stroke:#bcbd22;stroke-dasharray:5.55,2.4;stroke-dashoffset:0;stroke-width:1.5;"/>
    </g>
    <g id="line2d_44"/>
    <g id="text_26">
     <!-- Molchanov_group BN -->
     <g transform="translate(181 204.534063)scale(0.1 -0.1)">
      <use xlink:href="#DejaVuSans-77"/>
      <use x="86.279297" xlink:href="#DejaVuSans-111"/>
      <use x="147.460938" xlink:href="#DejaVuSans-108"/>
      <use x="175.244141" xlink:href="#DejaVuSans-99"/>
      <use x="230.224609" xlink:href="#DejaVuSans-104"/>
      <use x="293.603516" xlink:href="#DejaVuSans-97"/>
      <use x="354.882812" xlink:href="#DejaVuSans-110"/>
      <use x="418.261719" xlink:href="#DejaVuSans-111"/>
      <use x="479.443359" xlink:href="#DejaVuSans-118"/>
      <use x="538.623047" xlink:href="#DejaVuSans-95"/>
      <use x="588.623047" xlink:href="#DejaVuSans-103"/>
      <use x="652.099609" xlink:href="#DejaVuSans-114"/>
      <use x="690.962891" xlink:href="#DejaVuSans-111"/>
      <use x="752.144531" xlink:href="#DejaVuSans-117"/>
      <use x="815.523438" xlink:href="#DejaVuSans-112"/>
      <use x="879" xlink:href="#DejaVuSans-32"/>
      <use x="910.787109" xlink:href="#DejaVuSans-66"/>
      <use x="979.390625" xlink:href="#DejaVuSans-78"/>
     </g>
    </g>
    <g id="line2d_45">
     <path d="M 153 215.990312 
L 173 215.990312 
" style="fill:none;stroke:#17becf;stroke-dasharray:5.55,2.4;stroke-dashoffset:0;stroke-width:1.5;"/>
    </g>
    <g id="line2d_46"/>
    <g id="text_27">
     <!-- Molchanov_BN BN -->
     <g transform="translate(181 219.490312)scale(0.1 -0.1)">
      <use xlink:href="#DejaVuSans-77"/>
      <use x="86.279297" xlink:href="#DejaVuSans-111"/>
      <use x="147.460938" xlink:href="#DejaVuSans-108"/>
      <use x="175.244141" xlink:href="#DejaVuSans-99"/>
      <use x="230.224609" xlink:href="#DejaVuSans-104"/>
      <use x="293.603516" xlink:href="#DejaVuSans-97"/>
      <use x="354.882812" xlink:href="#DejaVuSans-110"/>
      <use x="418.261719" xlink:href="#DejaVuSans-111"/>
      <use x="479.443359" xlink:href="#DejaVuSans-118"/>
      <use x="538.623047" xlink:href="#DejaVuSans-95"/>
      <use x="588.623047" xlink:href="#DejaVuSans-66"/>
      <use x="657.226562" xlink:href="#DejaVuSans-78"/>
      <use x="732.03125" xlink:href="#DejaVuSans-32"/>
      <use x="763.818359" xlink:href="#DejaVuSans-66"/>
      <use x="832.421875" xlink:href="#DejaVuSans-78"/>
     </g>
    </g>
    <g id="line2d_47">
     <path d="M 153 230.946563 
L 173 230.946563 
" style="fill:none;stroke:#1f77b4;stroke-dasharray:5.55,2.4;stroke-dashoffset:0;stroke-width:1.5;"/>
    </g>
    <g id="line2d_48"/>
    <g id="text_28">
     <!-- APnZ BN -->
     <g transform="translate(181 234.446563)scale(0.1 -0.1)">
      <use xlink:href="#DejaVuSans-65"/>
      <use x="68.408203" xlink:href="#DejaVuSans-80"/>
      <use x="126.960938" xlink:href="#DejaVuSans-110"/>
      <use x="190.339844" xlink:href="#DejaVuSans-90"/>
      <use x="258.845703" xlink:href="#DejaVuSans-32"/>
      <use x="290.632812" xlink:href="#DejaVuSans-66"/>
      <use x="359.236328" xlink:href="#DejaVuSans-78"/>
     </g>
    </g>
   </g>
  </g>
 </g>
 <defs>
  <clipPath id="p127011556d">
   <rect height="434.88" width="892.8" x="144" y="69.12"/>
  </clipPath>
 </defs>
</svg>
