<?xml version="1.0" encoding="utf-8" standalone="no"?>
<!DOCTYPE svg PUBLIC "-//W3C//DTD SVG 1.1//EN"
  "http://www.w3.org/Graphics/SVG/1.1/DTD/svg11.dtd">
<!-- Created with matplotlib (https://matplotlib.org/) -->
<svg height="576pt" version="1.1" viewBox="0 0 1152 576" width="1152pt" xmlns="http://www.w3.org/2000/svg" xmlns:xlink="http://www.w3.org/1999/xlink">
 <defs>
  <style type="text/css">
*{stroke-linecap:butt;stroke-linejoin:round;}
  </style>
 </defs>
 <g id="figure_1">
  <g id="patch_1">
   <path d="M 0 576 
L 1152 576 
L 1152 0 
L 0 0 
z
" style="fill:#ffffff;"/>
  </g>
  <g id="axes_1">
   <g id="patch_2">
    <path d="M 144 504 
L 1036.8 504 
L 1036.8 69.12 
L 144 69.12 
z
" style="fill:#ffffff;"/>
   </g>
   <g id="matplotlib.axis_1">
    <g id="xtick_1">
     <g id="line2d_1">
      <defs>
       <path d="M 0 0 
L 0 3.5 
" id="m3cb67ecb66" style="stroke:#000000;stroke-width:0.8;"/>
      </defs>
      <g>
       <use style="stroke:#000000;stroke-width:0.8;" x="182.527043" xlink:href="#m3cb67ecb66" y="504"/>
      </g>
     </g>
     <g id="text_1">
      <!-- 0 -->
      <defs>
       <path d="M 31.78125 66.40625 
Q 24.171875 66.40625 20.328125 58.90625 
Q 16.5 51.421875 16.5 36.375 
Q 16.5 21.390625 20.328125 13.890625 
Q 24.171875 6.390625 31.78125 6.390625 
Q 39.453125 6.390625 43.28125 13.890625 
Q 47.125 21.390625 47.125 36.375 
Q 47.125 51.421875 43.28125 58.90625 
Q 39.453125 66.40625 31.78125 66.40625 
z
M 31.78125 74.21875 
Q 44.046875 74.21875 50.515625 64.515625 
Q 56.984375 54.828125 56.984375 36.375 
Q 56.984375 17.96875 50.515625 8.265625 
Q 44.046875 -1.421875 31.78125 -1.421875 
Q 19.53125 -1.421875 13.0625 8.265625 
Q 6.59375 17.96875 6.59375 36.375 
Q 6.59375 54.828125 13.0625 64.515625 
Q 19.53125 74.21875 31.78125 74.21875 
z
" id="DejaVuSans-48"/>
      </defs>
      <g transform="translate(179.345793 518.598438)scale(0.1 -0.1)">
       <use xlink:href="#DejaVuSans-48"/>
      </g>
     </g>
    </g>
    <g id="xtick_2">
     <g id="line2d_2">
      <g>
       <use style="stroke:#000000;stroke-width:0.8;" x="285.265823" xlink:href="#m3cb67ecb66" y="504"/>
      </g>
     </g>
     <g id="text_2">
      <!-- 50 -->
      <defs>
       <path d="M 10.796875 72.90625 
L 49.515625 72.90625 
L 49.515625 64.59375 
L 19.828125 64.59375 
L 19.828125 46.734375 
Q 21.96875 47.46875 24.109375 47.828125 
Q 26.265625 48.1875 28.421875 48.1875 
Q 40.625 48.1875 47.75 41.5 
Q 54.890625 34.8125 54.890625 23.390625 
Q 54.890625 11.625 47.5625 5.09375 
Q 40.234375 -1.421875 26.90625 -1.421875 
Q 22.3125 -1.421875 17.546875 -0.640625 
Q 12.796875 0.140625 7.71875 1.703125 
L 7.71875 11.625 
Q 12.109375 9.234375 16.796875 8.0625 
Q 21.484375 6.890625 26.703125 6.890625 
Q 35.15625 6.890625 40.078125 11.328125 
Q 45.015625 15.765625 45.015625 23.390625 
Q 45.015625 31 40.078125 35.4375 
Q 35.15625 39.890625 26.703125 39.890625 
Q 22.75 39.890625 18.8125 39.015625 
Q 14.890625 38.140625 10.796875 36.28125 
z
" id="DejaVuSans-53"/>
      </defs>
      <g transform="translate(278.903323 518.598438)scale(0.1 -0.1)">
       <use xlink:href="#DejaVuSans-53"/>
       <use x="63.623047" xlink:href="#DejaVuSans-48"/>
      </g>
     </g>
    </g>
    <g id="xtick_3">
     <g id="line2d_3">
      <g>
       <use style="stroke:#000000;stroke-width:0.8;" x="388.004603" xlink:href="#m3cb67ecb66" y="504"/>
      </g>
     </g>
     <g id="text_3">
      <!-- 100 -->
      <defs>
       <path d="M 12.40625 8.296875 
L 28.515625 8.296875 
L 28.515625 63.921875 
L 10.984375 60.40625 
L 10.984375 69.390625 
L 28.421875 72.90625 
L 38.28125 72.90625 
L 38.28125 8.296875 
L 54.390625 8.296875 
L 54.390625 0 
L 12.40625 0 
z
" id="DejaVuSans-49"/>
      </defs>
      <g transform="translate(378.460853 518.598438)scale(0.1 -0.1)">
       <use xlink:href="#DejaVuSans-49"/>
       <use x="63.623047" xlink:href="#DejaVuSans-48"/>
       <use x="127.246094" xlink:href="#DejaVuSans-48"/>
      </g>
     </g>
    </g>
    <g id="xtick_4">
     <g id="line2d_4">
      <g>
       <use style="stroke:#000000;stroke-width:0.8;" x="490.743383" xlink:href="#m3cb67ecb66" y="504"/>
      </g>
     </g>
     <g id="text_4">
      <!-- 150 -->
      <g transform="translate(481.199633 518.598438)scale(0.1 -0.1)">
       <use xlink:href="#DejaVuSans-49"/>
       <use x="63.623047" xlink:href="#DejaVuSans-53"/>
       <use x="127.246094" xlink:href="#DejaVuSans-48"/>
      </g>
     </g>
    </g>
    <g id="xtick_5">
     <g id="line2d_5">
      <g>
       <use style="stroke:#000000;stroke-width:0.8;" x="593.482163" xlink:href="#m3cb67ecb66" y="504"/>
      </g>
     </g>
     <g id="text_5">
      <!-- 200 -->
      <defs>
       <path d="M 19.1875 8.296875 
L 53.609375 8.296875 
L 53.609375 0 
L 7.328125 0 
L 7.328125 8.296875 
Q 12.9375 14.109375 22.625 23.890625 
Q 32.328125 33.6875 34.8125 36.53125 
Q 39.546875 41.84375 41.421875 45.53125 
Q 43.3125 49.21875 43.3125 52.78125 
Q 43.3125 58.59375 39.234375 62.25 
Q 35.15625 65.921875 28.609375 65.921875 
Q 23.96875 65.921875 18.8125 64.3125 
Q 13.671875 62.703125 7.8125 59.421875 
L 7.8125 69.390625 
Q 13.765625 71.78125 18.9375 73 
Q 24.125 74.21875 28.421875 74.21875 
Q 39.75 74.21875 46.484375 68.546875 
Q 53.21875 62.890625 53.21875 53.421875 
Q 53.21875 48.921875 51.53125 44.890625 
Q 49.859375 40.875 45.40625 35.40625 
Q 44.1875 33.984375 37.640625 27.21875 
Q 31.109375 20.453125 19.1875 8.296875 
z
" id="DejaVuSans-50"/>
      </defs>
      <g transform="translate(583.938413 518.598438)scale(0.1 -0.1)">
       <use xlink:href="#DejaVuSans-50"/>
       <use x="63.623047" xlink:href="#DejaVuSans-48"/>
       <use x="127.246094" xlink:href="#DejaVuSans-48"/>
      </g>
     </g>
    </g>
    <g id="xtick_6">
     <g id="line2d_6">
      <g>
       <use style="stroke:#000000;stroke-width:0.8;" x="696.220944" xlink:href="#m3cb67ecb66" y="504"/>
      </g>
     </g>
     <g id="text_6">
      <!-- 250 -->
      <g transform="translate(686.677194 518.598438)scale(0.1 -0.1)">
       <use xlink:href="#DejaVuSans-50"/>
       <use x="63.623047" xlink:href="#DejaVuSans-53"/>
       <use x="127.246094" xlink:href="#DejaVuSans-48"/>
      </g>
     </g>
    </g>
    <g id="xtick_7">
     <g id="line2d_7">
      <g>
       <use style="stroke:#000000;stroke-width:0.8;" x="798.959724" xlink:href="#m3cb67ecb66" y="504"/>
      </g>
     </g>
     <g id="text_7">
      <!-- 300 -->
      <defs>
       <path d="M 40.578125 39.3125 
Q 47.65625 37.796875 51.625 33 
Q 55.609375 28.21875 55.609375 21.1875 
Q 55.609375 10.40625 48.1875 4.484375 
Q 40.765625 -1.421875 27.09375 -1.421875 
Q 22.515625 -1.421875 17.65625 -0.515625 
Q 12.796875 0.390625 7.625 2.203125 
L 7.625 11.71875 
Q 11.71875 9.328125 16.59375 8.109375 
Q 21.484375 6.890625 26.8125 6.890625 
Q 36.078125 6.890625 40.9375 10.546875 
Q 45.796875 14.203125 45.796875 21.1875 
Q 45.796875 27.640625 41.28125 31.265625 
Q 36.765625 34.90625 28.71875 34.90625 
L 20.21875 34.90625 
L 20.21875 43.015625 
L 29.109375 43.015625 
Q 36.375 43.015625 40.234375 45.921875 
Q 44.09375 48.828125 44.09375 54.296875 
Q 44.09375 59.90625 40.109375 62.90625 
Q 36.140625 65.921875 28.71875 65.921875 
Q 24.65625 65.921875 20.015625 65.03125 
Q 15.375 64.15625 9.8125 62.3125 
L 9.8125 71.09375 
Q 15.4375 72.65625 20.34375 73.4375 
Q 25.25 74.21875 29.59375 74.21875 
Q 40.828125 74.21875 47.359375 69.109375 
Q 53.90625 64.015625 53.90625 55.328125 
Q 53.90625 49.265625 50.4375 45.09375 
Q 46.96875 40.921875 40.578125 39.3125 
z
" id="DejaVuSans-51"/>
      </defs>
      <g transform="translate(789.415974 518.598438)scale(0.1 -0.1)">
       <use xlink:href="#DejaVuSans-51"/>
       <use x="63.623047" xlink:href="#DejaVuSans-48"/>
       <use x="127.246094" xlink:href="#DejaVuSans-48"/>
      </g>
     </g>
    </g>
    <g id="xtick_8">
     <g id="line2d_8">
      <g>
       <use style="stroke:#000000;stroke-width:0.8;" x="901.698504" xlink:href="#m3cb67ecb66" y="504"/>
      </g>
     </g>
     <g id="text_8">
      <!-- 350 -->
      <g transform="translate(892.154754 518.598438)scale(0.1 -0.1)">
       <use xlink:href="#DejaVuSans-51"/>
       <use x="63.623047" xlink:href="#DejaVuSans-53"/>
       <use x="127.246094" xlink:href="#DejaVuSans-48"/>
      </g>
     </g>
    </g>
    <g id="xtick_9">
     <g id="line2d_9">
      <g>
       <use style="stroke:#000000;stroke-width:0.8;" x="1004.437284" xlink:href="#m3cb67ecb66" y="504"/>
      </g>
     </g>
     <g id="text_9">
      <!-- 400 -->
      <defs>
       <path d="M 37.796875 64.3125 
L 12.890625 25.390625 
L 37.796875 25.390625 
z
M 35.203125 72.90625 
L 47.609375 72.90625 
L 47.609375 25.390625 
L 58.015625 25.390625 
L 58.015625 17.1875 
L 47.609375 17.1875 
L 47.609375 0 
L 37.796875 0 
L 37.796875 17.1875 
L 4.890625 17.1875 
L 4.890625 26.703125 
z
" id="DejaVuSans-52"/>
      </defs>
      <g transform="translate(994.893534 518.598438)scale(0.1 -0.1)">
       <use xlink:href="#DejaVuSans-52"/>
       <use x="63.623047" xlink:href="#DejaVuSans-48"/>
       <use x="127.246094" xlink:href="#DejaVuSans-48"/>
      </g>
     </g>
    </g>
    <g id="text_10">
     <!-- Number of Neurons pruned -->
     <defs>
      <path d="M 9.8125 72.90625 
L 23.09375 72.90625 
L 55.421875 11.921875 
L 55.421875 72.90625 
L 64.984375 72.90625 
L 64.984375 0 
L 51.703125 0 
L 19.390625 60.984375 
L 19.390625 0 
L 9.8125 0 
z
" id="DejaVuSans-78"/>
      <path d="M 8.5 21.578125 
L 8.5 54.6875 
L 17.484375 54.6875 
L 17.484375 21.921875 
Q 17.484375 14.15625 20.5 10.265625 
Q 23.53125 6.390625 29.59375 6.390625 
Q 36.859375 6.390625 41.078125 11.03125 
Q 45.3125 15.671875 45.3125 23.6875 
L 45.3125 54.6875 
L 54.296875 54.6875 
L 54.296875 0 
L 45.3125 0 
L 45.3125 8.40625 
Q 42.046875 3.421875 37.71875 1 
Q 33.40625 -1.421875 27.6875 -1.421875 
Q 18.265625 -1.421875 13.375 4.4375 
Q 8.5 10.296875 8.5 21.578125 
z
M 31.109375 56 
z
" id="DejaVuSans-117"/>
      <path d="M 52 44.1875 
Q 55.375 50.25 60.0625 53.125 
Q 64.75 56 71.09375 56 
Q 79.640625 56 84.28125 50.015625 
Q 88.921875 44.046875 88.921875 33.015625 
L 88.921875 0 
L 79.890625 0 
L 79.890625 32.71875 
Q 79.890625 40.578125 77.09375 44.375 
Q 74.3125 48.1875 68.609375 48.1875 
Q 61.625 48.1875 57.5625 43.546875 
Q 53.515625 38.921875 53.515625 30.90625 
L 53.515625 0 
L 44.484375 0 
L 44.484375 32.71875 
Q 44.484375 40.625 41.703125 44.40625 
Q 38.921875 48.1875 33.109375 48.1875 
Q 26.21875 48.1875 22.15625 43.53125 
Q 18.109375 38.875 18.109375 30.90625 
L 18.109375 0 
L 9.078125 0 
L 9.078125 54.6875 
L 18.109375 54.6875 
L 18.109375 46.1875 
Q 21.1875 51.21875 25.484375 53.609375 
Q 29.78125 56 35.6875 56 
Q 41.65625 56 45.828125 52.96875 
Q 50 49.953125 52 44.1875 
z
" id="DejaVuSans-109"/>
      <path d="M 48.6875 27.296875 
Q 48.6875 37.203125 44.609375 42.84375 
Q 40.53125 48.484375 33.40625 48.484375 
Q 26.265625 48.484375 22.1875 42.84375 
Q 18.109375 37.203125 18.109375 27.296875 
Q 18.109375 17.390625 22.1875 11.75 
Q 26.265625 6.109375 33.40625 6.109375 
Q 40.53125 6.109375 44.609375 11.75 
Q 48.6875 17.390625 48.6875 27.296875 
z
M 18.109375 46.390625 
Q 20.953125 51.265625 25.265625 53.625 
Q 29.59375 56 35.59375 56 
Q 45.5625 56 51.78125 48.09375 
Q 58.015625 40.1875 58.015625 27.296875 
Q 58.015625 14.40625 51.78125 6.484375 
Q 45.5625 -1.421875 35.59375 -1.421875 
Q 29.59375 -1.421875 25.265625 0.953125 
Q 20.953125 3.328125 18.109375 8.203125 
L 18.109375 0 
L 9.078125 0 
L 9.078125 75.984375 
L 18.109375 75.984375 
z
" id="DejaVuSans-98"/>
      <path d="M 56.203125 29.59375 
L 56.203125 25.203125 
L 14.890625 25.203125 
Q 15.484375 15.921875 20.484375 11.0625 
Q 25.484375 6.203125 34.421875 6.203125 
Q 39.59375 6.203125 44.453125 7.46875 
Q 49.3125 8.734375 54.109375 11.28125 
L 54.109375 2.78125 
Q 49.265625 0.734375 44.1875 -0.34375 
Q 39.109375 -1.421875 33.890625 -1.421875 
Q 20.796875 -1.421875 13.15625 6.1875 
Q 5.515625 13.8125 5.515625 26.8125 
Q 5.515625 40.234375 12.765625 48.109375 
Q 20.015625 56 32.328125 56 
Q 43.359375 56 49.78125 48.890625 
Q 56.203125 41.796875 56.203125 29.59375 
z
M 47.21875 32.234375 
Q 47.125 39.59375 43.09375 43.984375 
Q 39.0625 48.390625 32.421875 48.390625 
Q 24.90625 48.390625 20.390625 44.140625 
Q 15.875 39.890625 15.1875 32.171875 
z
" id="DejaVuSans-101"/>
      <path d="M 41.109375 46.296875 
Q 39.59375 47.171875 37.8125 47.578125 
Q 36.03125 48 33.890625 48 
Q 26.265625 48 22.1875 43.046875 
Q 18.109375 38.09375 18.109375 28.8125 
L 18.109375 0 
L 9.078125 0 
L 9.078125 54.6875 
L 18.109375 54.6875 
L 18.109375 46.1875 
Q 20.953125 51.171875 25.484375 53.578125 
Q 30.03125 56 36.53125 56 
Q 37.453125 56 38.578125 55.875 
Q 39.703125 55.765625 41.0625 55.515625 
z
" id="DejaVuSans-114"/>
      <path id="DejaVuSans-32"/>
      <path d="M 30.609375 48.390625 
Q 23.390625 48.390625 19.1875 42.75 
Q 14.984375 37.109375 14.984375 27.296875 
Q 14.984375 17.484375 19.15625 11.84375 
Q 23.34375 6.203125 30.609375 6.203125 
Q 37.796875 6.203125 41.984375 11.859375 
Q 46.1875 17.53125 46.1875 27.296875 
Q 46.1875 37.015625 41.984375 42.703125 
Q 37.796875 48.390625 30.609375 48.390625 
z
M 30.609375 56 
Q 42.328125 56 49.015625 48.375 
Q 55.71875 40.765625 55.71875 27.296875 
Q 55.71875 13.875 49.015625 6.21875 
Q 42.328125 -1.421875 30.609375 -1.421875 
Q 18.84375 -1.421875 12.171875 6.21875 
Q 5.515625 13.875 5.515625 27.296875 
Q 5.515625 40.765625 12.171875 48.375 
Q 18.84375 56 30.609375 56 
z
" id="DejaVuSans-111"/>
      <path d="M 37.109375 75.984375 
L 37.109375 68.5 
L 28.515625 68.5 
Q 23.6875 68.5 21.796875 66.546875 
Q 19.921875 64.59375 19.921875 59.515625 
L 19.921875 54.6875 
L 34.71875 54.6875 
L 34.71875 47.703125 
L 19.921875 47.703125 
L 19.921875 0 
L 10.890625 0 
L 10.890625 47.703125 
L 2.296875 47.703125 
L 2.296875 54.6875 
L 10.890625 54.6875 
L 10.890625 58.5 
Q 10.890625 67.625 15.140625 71.796875 
Q 19.390625 75.984375 28.609375 75.984375 
z
" id="DejaVuSans-102"/>
      <path d="M 54.890625 33.015625 
L 54.890625 0 
L 45.90625 0 
L 45.90625 32.71875 
Q 45.90625 40.484375 42.875 44.328125 
Q 39.84375 48.1875 33.796875 48.1875 
Q 26.515625 48.1875 22.3125 43.546875 
Q 18.109375 38.921875 18.109375 30.90625 
L 18.109375 0 
L 9.078125 0 
L 9.078125 54.6875 
L 18.109375 54.6875 
L 18.109375 46.1875 
Q 21.34375 51.125 25.703125 53.5625 
Q 30.078125 56 35.796875 56 
Q 45.21875 56 50.046875 50.171875 
Q 54.890625 44.34375 54.890625 33.015625 
z
" id="DejaVuSans-110"/>
      <path d="M 44.28125 53.078125 
L 44.28125 44.578125 
Q 40.484375 46.53125 36.375 47.5 
Q 32.28125 48.484375 27.875 48.484375 
Q 21.1875 48.484375 17.84375 46.4375 
Q 14.5 44.390625 14.5 40.28125 
Q 14.5 37.15625 16.890625 35.375 
Q 19.28125 33.59375 26.515625 31.984375 
L 29.59375 31.296875 
Q 39.15625 29.25 43.1875 25.515625 
Q 47.21875 21.78125 47.21875 15.09375 
Q 47.21875 7.46875 41.1875 3.015625 
Q 35.15625 -1.421875 24.609375 -1.421875 
Q 20.21875 -1.421875 15.453125 -0.5625 
Q 10.6875 0.296875 5.421875 2 
L 5.421875 11.28125 
Q 10.40625 8.6875 15.234375 7.390625 
Q 20.0625 6.109375 24.8125 6.109375 
Q 31.15625 6.109375 34.5625 8.28125 
Q 37.984375 10.453125 37.984375 14.40625 
Q 37.984375 18.0625 35.515625 20.015625 
Q 33.0625 21.96875 24.703125 23.78125 
L 21.578125 24.515625 
Q 13.234375 26.265625 9.515625 29.90625 
Q 5.8125 33.546875 5.8125 39.890625 
Q 5.8125 47.609375 11.28125 51.796875 
Q 16.75 56 26.8125 56 
Q 31.78125 56 36.171875 55.265625 
Q 40.578125 54.546875 44.28125 53.078125 
z
" id="DejaVuSans-115"/>
      <path d="M 18.109375 8.203125 
L 18.109375 -20.796875 
L 9.078125 -20.796875 
L 9.078125 54.6875 
L 18.109375 54.6875 
L 18.109375 46.390625 
Q 20.953125 51.265625 25.265625 53.625 
Q 29.59375 56 35.59375 56 
Q 45.5625 56 51.78125 48.09375 
Q 58.015625 40.1875 58.015625 27.296875 
Q 58.015625 14.40625 51.78125 6.484375 
Q 45.5625 -1.421875 35.59375 -1.421875 
Q 29.59375 -1.421875 25.265625 0.953125 
Q 20.953125 3.328125 18.109375 8.203125 
z
M 48.6875 27.296875 
Q 48.6875 37.203125 44.609375 42.84375 
Q 40.53125 48.484375 33.40625 48.484375 
Q 26.265625 48.484375 22.1875 42.84375 
Q 18.109375 37.203125 18.109375 27.296875 
Q 18.109375 17.390625 22.1875 11.75 
Q 26.265625 6.109375 33.40625 6.109375 
Q 40.53125 6.109375 44.609375 11.75 
Q 48.6875 17.390625 48.6875 27.296875 
z
" id="DejaVuSans-112"/>
      <path d="M 45.40625 46.390625 
L 45.40625 75.984375 
L 54.390625 75.984375 
L 54.390625 0 
L 45.40625 0 
L 45.40625 8.203125 
Q 42.578125 3.328125 38.25 0.953125 
Q 33.9375 -1.421875 27.875 -1.421875 
Q 17.96875 -1.421875 11.734375 6.484375 
Q 5.515625 14.40625 5.515625 27.296875 
Q 5.515625 40.1875 11.734375 48.09375 
Q 17.96875 56 27.875 56 
Q 33.9375 56 38.25 53.625 
Q 42.578125 51.265625 45.40625 46.390625 
z
M 14.796875 27.296875 
Q 14.796875 17.390625 18.875 11.75 
Q 22.953125 6.109375 30.078125 6.109375 
Q 37.203125 6.109375 41.296875 11.75 
Q 45.40625 17.390625 45.40625 27.296875 
Q 45.40625 37.203125 41.296875 42.84375 
Q 37.203125 48.484375 30.078125 48.484375 
Q 22.953125 48.484375 18.875 42.84375 
Q 14.796875 37.203125 14.796875 27.296875 
z
" id="DejaVuSans-100"/>
     </defs>
     <g transform="translate(522.147656 532.276562)scale(0.1 -0.1)">
      <use xlink:href="#DejaVuSans-78"/>
      <use x="74.804688" xlink:href="#DejaVuSans-117"/>
      <use x="138.183594" xlink:href="#DejaVuSans-109"/>
      <use x="235.595703" xlink:href="#DejaVuSans-98"/>
      <use x="299.072266" xlink:href="#DejaVuSans-101"/>
      <use x="360.595703" xlink:href="#DejaVuSans-114"/>
      <use x="401.708984" xlink:href="#DejaVuSans-32"/>
      <use x="433.496094" xlink:href="#DejaVuSans-111"/>
      <use x="494.677734" xlink:href="#DejaVuSans-102"/>
      <use x="529.882812" xlink:href="#DejaVuSans-32"/>
      <use x="561.669922" xlink:href="#DejaVuSans-78"/>
      <use x="636.474609" xlink:href="#DejaVuSans-101"/>
      <use x="697.998047" xlink:href="#DejaVuSans-117"/>
      <use x="761.376953" xlink:href="#DejaVuSans-114"/>
      <use x="800.240234" xlink:href="#DejaVuSans-111"/>
      <use x="861.421875" xlink:href="#DejaVuSans-110"/>
      <use x="924.800781" xlink:href="#DejaVuSans-115"/>
      <use x="976.900391" xlink:href="#DejaVuSans-32"/>
      <use x="1008.6875" xlink:href="#DejaVuSans-112"/>
      <use x="1072.164062" xlink:href="#DejaVuSans-114"/>
      <use x="1113.277344" xlink:href="#DejaVuSans-117"/>
      <use x="1176.65625" xlink:href="#DejaVuSans-110"/>
      <use x="1240.035156" xlink:href="#DejaVuSans-101"/>
      <use x="1301.558594" xlink:href="#DejaVuSans-100"/>
     </g>
    </g>
   </g>
   <g id="matplotlib.axis_2">
    <g id="ytick_1">
     <g id="line2d_10">
      <defs>
       <path d="M 0 0 
L -3.5 0 
" id="mded8e8b5e5" style="stroke:#000000;stroke-width:0.8;"/>
      </defs>
      <g>
       <use style="stroke:#000000;stroke-width:0.8;" x="144" xlink:href="#mded8e8b5e5" y="484.245567"/>
      </g>
     </g>
     <g id="text_11">
      <!-- 0 -->
      <g transform="translate(130.6375 488.044786)scale(0.1 -0.1)">
       <use xlink:href="#DejaVuSans-48"/>
      </g>
     </g>
    </g>
    <g id="ytick_2">
     <g id="line2d_11">
      <g>
       <use style="stroke:#000000;stroke-width:0.8;" x="144" xlink:href="#mded8e8b5e5" y="429.84485"/>
      </g>
     </g>
     <g id="text_12">
      <!-- 1 -->
      <g transform="translate(130.6375 433.644069)scale(0.1 -0.1)">
       <use xlink:href="#DejaVuSans-49"/>
      </g>
     </g>
    </g>
    <g id="ytick_3">
     <g id="line2d_12">
      <g>
       <use style="stroke:#000000;stroke-width:0.8;" x="144" xlink:href="#mded8e8b5e5" y="375.444133"/>
      </g>
     </g>
     <g id="text_13">
      <!-- 2 -->
      <g transform="translate(130.6375 379.243352)scale(0.1 -0.1)">
       <use xlink:href="#DejaVuSans-50"/>
      </g>
     </g>
    </g>
    <g id="ytick_4">
     <g id="line2d_13">
      <g>
       <use style="stroke:#000000;stroke-width:0.8;" x="144" xlink:href="#mded8e8b5e5" y="321.043417"/>
      </g>
     </g>
     <g id="text_14">
      <!-- 3 -->
      <g transform="translate(130.6375 324.842636)scale(0.1 -0.1)">
       <use xlink:href="#DejaVuSans-51"/>
      </g>
     </g>
    </g>
    <g id="ytick_5">
     <g id="line2d_14">
      <g>
       <use style="stroke:#000000;stroke-width:0.8;" x="144" xlink:href="#mded8e8b5e5" y="266.6427"/>
      </g>
     </g>
     <g id="text_15">
      <!-- 4 -->
      <g transform="translate(130.6375 270.441919)scale(0.1 -0.1)">
       <use xlink:href="#DejaVuSans-52"/>
      </g>
     </g>
    </g>
    <g id="ytick_6">
     <g id="line2d_15">
      <g>
       <use style="stroke:#000000;stroke-width:0.8;" x="144" xlink:href="#mded8e8b5e5" y="212.241983"/>
      </g>
     </g>
     <g id="text_16">
      <!-- 5 -->
      <g transform="translate(130.6375 216.041202)scale(0.1 -0.1)">
       <use xlink:href="#DejaVuSans-53"/>
      </g>
     </g>
    </g>
    <g id="ytick_7">
     <g id="line2d_16">
      <g>
       <use style="stroke:#000000;stroke-width:0.8;" x="144" xlink:href="#mded8e8b5e5" y="157.841267"/>
      </g>
     </g>
     <g id="text_17">
      <!-- 6 -->
      <defs>
       <path d="M 33.015625 40.375 
Q 26.375 40.375 22.484375 35.828125 
Q 18.609375 31.296875 18.609375 23.390625 
Q 18.609375 15.53125 22.484375 10.953125 
Q 26.375 6.390625 33.015625 6.390625 
Q 39.65625 6.390625 43.53125 10.953125 
Q 47.40625 15.53125 47.40625 23.390625 
Q 47.40625 31.296875 43.53125 35.828125 
Q 39.65625 40.375 33.015625 40.375 
z
M 52.59375 71.296875 
L 52.59375 62.3125 
Q 48.875 64.0625 45.09375 64.984375 
Q 41.3125 65.921875 37.59375 65.921875 
Q 27.828125 65.921875 22.671875 59.328125 
Q 17.53125 52.734375 16.796875 39.40625 
Q 19.671875 43.65625 24.015625 45.921875 
Q 28.375 48.1875 33.59375 48.1875 
Q 44.578125 48.1875 50.953125 41.515625 
Q 57.328125 34.859375 57.328125 23.390625 
Q 57.328125 12.15625 50.6875 5.359375 
Q 44.046875 -1.421875 33.015625 -1.421875 
Q 20.359375 -1.421875 13.671875 8.265625 
Q 6.984375 17.96875 6.984375 36.375 
Q 6.984375 53.65625 15.1875 63.9375 
Q 23.390625 74.21875 37.203125 74.21875 
Q 40.921875 74.21875 44.703125 73.484375 
Q 48.484375 72.75 52.59375 71.296875 
z
" id="DejaVuSans-54"/>
      </defs>
      <g transform="translate(130.6375 161.640485)scale(0.1 -0.1)">
       <use xlink:href="#DejaVuSans-54"/>
      </g>
     </g>
    </g>
    <g id="ytick_8">
     <g id="line2d_17">
      <g>
       <use style="stroke:#000000;stroke-width:0.8;" x="144" xlink:href="#mded8e8b5e5" y="103.44055"/>
      </g>
     </g>
     <g id="text_18">
      <!-- 7 -->
      <defs>
       <path d="M 8.203125 72.90625 
L 55.078125 72.90625 
L 55.078125 68.703125 
L 28.609375 0 
L 18.3125 0 
L 43.21875 64.59375 
L 8.203125 64.59375 
z
" id="DejaVuSans-55"/>
      </defs>
      <g transform="translate(130.6375 107.239769)scale(0.1 -0.1)">
       <use xlink:href="#DejaVuSans-55"/>
      </g>
     </g>
    </g>
    <g id="text_19">
     <!-- Squared Deviation -->
     <defs>
      <path d="M 53.515625 70.515625 
L 53.515625 60.890625 
Q 47.90625 63.578125 42.921875 64.890625 
Q 37.9375 66.21875 33.296875 66.21875 
Q 25.25 66.21875 20.875 63.09375 
Q 16.5 59.96875 16.5 54.203125 
Q 16.5 49.359375 19.40625 46.890625 
Q 22.3125 44.4375 30.421875 42.921875 
L 36.375 41.703125 
Q 47.40625 39.59375 52.65625 34.296875 
Q 57.90625 29 57.90625 20.125 
Q 57.90625 9.515625 50.796875 4.046875 
Q 43.703125 -1.421875 29.984375 -1.421875 
Q 24.8125 -1.421875 18.96875 -0.25 
Q 13.140625 0.921875 6.890625 3.21875 
L 6.890625 13.375 
Q 12.890625 10.015625 18.65625 8.296875 
Q 24.421875 6.59375 29.984375 6.59375 
Q 38.421875 6.59375 43.015625 9.90625 
Q 47.609375 13.234375 47.609375 19.390625 
Q 47.609375 24.75 44.3125 27.78125 
Q 41.015625 30.8125 33.5 32.328125 
L 27.484375 33.5 
Q 16.453125 35.6875 11.515625 40.375 
Q 6.59375 45.0625 6.59375 53.421875 
Q 6.59375 63.09375 13.40625 68.65625 
Q 20.21875 74.21875 32.171875 74.21875 
Q 37.3125 74.21875 42.625 73.28125 
Q 47.953125 72.359375 53.515625 70.515625 
z
" id="DejaVuSans-83"/>
      <path d="M 14.796875 27.296875 
Q 14.796875 17.390625 18.875 11.75 
Q 22.953125 6.109375 30.078125 6.109375 
Q 37.203125 6.109375 41.296875 11.75 
Q 45.40625 17.390625 45.40625 27.296875 
Q 45.40625 37.203125 41.296875 42.84375 
Q 37.203125 48.484375 30.078125 48.484375 
Q 22.953125 48.484375 18.875 42.84375 
Q 14.796875 37.203125 14.796875 27.296875 
z
M 45.40625 8.203125 
Q 42.578125 3.328125 38.25 0.953125 
Q 33.9375 -1.421875 27.875 -1.421875 
Q 17.96875 -1.421875 11.734375 6.484375 
Q 5.515625 14.40625 5.515625 27.296875 
Q 5.515625 40.1875 11.734375 48.09375 
Q 17.96875 56 27.875 56 
Q 33.9375 56 38.25 53.625 
Q 42.578125 51.265625 45.40625 46.390625 
L 45.40625 54.6875 
L 54.390625 54.6875 
L 54.390625 -20.796875 
L 45.40625 -20.796875 
z
" id="DejaVuSans-113"/>
      <path d="M 34.28125 27.484375 
Q 23.390625 27.484375 19.1875 25 
Q 14.984375 22.515625 14.984375 16.5 
Q 14.984375 11.71875 18.140625 8.90625 
Q 21.296875 6.109375 26.703125 6.109375 
Q 34.1875 6.109375 38.703125 11.40625 
Q 43.21875 16.703125 43.21875 25.484375 
L 43.21875 27.484375 
z
M 52.203125 31.203125 
L 52.203125 0 
L 43.21875 0 
L 43.21875 8.296875 
Q 40.140625 3.328125 35.546875 0.953125 
Q 30.953125 -1.421875 24.3125 -1.421875 
Q 15.921875 -1.421875 10.953125 3.296875 
Q 6 8.015625 6 15.921875 
Q 6 25.140625 12.171875 29.828125 
Q 18.359375 34.515625 30.609375 34.515625 
L 43.21875 34.515625 
L 43.21875 35.40625 
Q 43.21875 41.609375 39.140625 45 
Q 35.0625 48.390625 27.6875 48.390625 
Q 23 48.390625 18.546875 47.265625 
Q 14.109375 46.140625 10.015625 43.890625 
L 10.015625 52.203125 
Q 14.9375 54.109375 19.578125 55.046875 
Q 24.21875 56 28.609375 56 
Q 40.484375 56 46.34375 49.84375 
Q 52.203125 43.703125 52.203125 31.203125 
z
" id="DejaVuSans-97"/>
      <path d="M 19.671875 64.796875 
L 19.671875 8.109375 
L 31.59375 8.109375 
Q 46.6875 8.109375 53.6875 14.9375 
Q 60.6875 21.78125 60.6875 36.53125 
Q 60.6875 51.171875 53.6875 57.984375 
Q 46.6875 64.796875 31.59375 64.796875 
z
M 9.8125 72.90625 
L 30.078125 72.90625 
Q 51.265625 72.90625 61.171875 64.09375 
Q 71.09375 55.28125 71.09375 36.53125 
Q 71.09375 17.671875 61.125 8.828125 
Q 51.171875 0 30.078125 0 
L 9.8125 0 
z
" id="DejaVuSans-68"/>
      <path d="M 2.984375 54.6875 
L 12.5 54.6875 
L 29.59375 8.796875 
L 46.6875 54.6875 
L 56.203125 54.6875 
L 35.6875 0 
L 23.484375 0 
z
" id="DejaVuSans-118"/>
      <path d="M 9.421875 54.6875 
L 18.40625 54.6875 
L 18.40625 0 
L 9.421875 0 
z
M 9.421875 75.984375 
L 18.40625 75.984375 
L 18.40625 64.59375 
L 9.421875 64.59375 
z
" id="DejaVuSans-105"/>
      <path d="M 18.3125 70.21875 
L 18.3125 54.6875 
L 36.8125 54.6875 
L 36.8125 47.703125 
L 18.3125 47.703125 
L 18.3125 18.015625 
Q 18.3125 11.328125 20.140625 9.421875 
Q 21.96875 7.515625 27.59375 7.515625 
L 36.8125 7.515625 
L 36.8125 0 
L 27.59375 0 
Q 17.1875 0 13.234375 3.875 
Q 9.28125 7.765625 9.28125 18.015625 
L 9.28125 47.703125 
L 2.6875 47.703125 
L 2.6875 54.6875 
L 9.28125 54.6875 
L 9.28125 70.21875 
z
" id="DejaVuSans-116"/>
     </defs>
     <g transform="translate(124.557812 332.840469)rotate(-90)scale(0.1 -0.1)">
      <use xlink:href="#DejaVuSans-83"/>
      <use x="63.476562" xlink:href="#DejaVuSans-113"/>
      <use x="126.953125" xlink:href="#DejaVuSans-117"/>
      <use x="190.332031" xlink:href="#DejaVuSans-97"/>
      <use x="251.611328" xlink:href="#DejaVuSans-114"/>
      <use x="290.474609" xlink:href="#DejaVuSans-101"/>
      <use x="351.998047" xlink:href="#DejaVuSans-100"/>
      <use x="415.474609" xlink:href="#DejaVuSans-32"/>
      <use x="447.261719" xlink:href="#DejaVuSans-68"/>
      <use x="524.263672" xlink:href="#DejaVuSans-101"/>
      <use x="585.787109" xlink:href="#DejaVuSans-118"/>
      <use x="644.966797" xlink:href="#DejaVuSans-105"/>
      <use x="672.75" xlink:href="#DejaVuSans-97"/>
      <use x="734.029297" xlink:href="#DejaVuSans-116"/>
      <use x="773.238281" xlink:href="#DejaVuSans-105"/>
      <use x="801.021484" xlink:href="#DejaVuSans-111"/>
      <use x="862.203125" xlink:href="#DejaVuSans-110"/>
     </g>
    </g>
   </g>
   <g id="line2d_18">
    <path clip-path="url(#p3c876483d0)" d="M 184.581818 484.139551 
L 194.855696 483.734387 
L 205.129574 483.391929 
L 215.403452 482.18877 
L 225.67733 481.008634 
L 235.951208 479.595577 
L 246.225086 479.346973 
L 256.498964 478.822377 
L 266.772842 477.551008 
L 277.04672 476.419093 
L 287.320598 474.860609 
L 297.594476 473.25274 
L 307.868354 471.57143 
L 318.142232 471.607805 
L 328.41611 471.148481 
L 338.689988 470.594483 
L 348.963867 469.748421 
L 359.237745 466.018102 
L 369.511623 464.173402 
L 379.785501 461.128775 
L 390.059379 460.536994 
L 400.333257 455.557861 
L 410.607135 454.135231 
L 420.881013 453.219007 
L 431.154891 443.959931 
L 441.428769 443.777266 
L 451.702647 441.691761 
L 461.976525 438.439709 
L 472.250403 438.300076 
L 482.524281 439.253329 
L 492.798159 436.623763 
L 503.072037 438.246496 
L 513.345915 434.311443 
L 523.619793 431.702742 
L 533.893671 428.113447 
L 544.167549 424.881235 
L 554.441427 420.623851 
L 564.715305 415.927188 
L 574.989183 414.866996 
L 585.263061 413.166681 
L 595.536939 406.892758 
L 605.810817 400.645365 
L 616.084695 396.063682 
L 626.358573 392.944065 
L 636.632451 393.022112 
L 646.906329 384.403071 
L 657.180207 379.368782 
L 667.454085 374.152476 
L 677.727963 360.309288 
L 688.001841 352.381432 
L 698.275719 347.665151 
L 708.549597 338.704638 
L 718.823475 335.104243 
L 729.097353 331.484095 
L 739.371231 332.73906 
L 749.645109 320.990745 
L 759.918987 314.590693 
L 770.192865 302.183547 
L 780.466743 297.277643 
L 790.740621 286.199806 
L 801.014499 277.439111 
L 811.288377 280.486951 
L 821.562255 277.547917 
L 831.836133 267.475707 
L 842.110012 268.633682 
L 852.38389 266.465865 
L 862.657768 262.047301 
L 872.931646 260.722686 
L 883.205524 255.394604 
L 893.479402 258.791017 
L 903.75328 258.673663 
L 914.027158 250.899724 
L 924.301036 247.010082 
L 934.574914 245.589125 
L 944.848792 238.233939 
L 955.12267 228.044207 
L 965.396548 229.540858 
L 975.670426 233.447412 
L 985.944304 226.047246 
L 996.218182 218.187885 
" style="fill:none;stroke:#1f77b4;stroke-linecap:square;stroke-width:1.5;"/>
   </g>
   <g id="line2d_19">
    <path clip-path="url(#p3c876483d0)" d="M 184.581818 484.196866 
L 194.855696 483.975784 
L 205.129574 483.634636 
L 215.403452 483.209673 
L 225.67733 483.058785 
L 235.951208 482.566943 
L 246.225086 482.155427 
L 256.498964 481.530762 
L 266.772842 480.749092 
L 277.04672 480.186989 
L 287.320598 478.530264 
L 297.594476 477.748997 
L 307.868354 477.793769 
L 318.142232 476.081895 
L 328.41611 474.6764 
L 338.689988 473.6045 
L 348.963867 469.725202 
L 359.237745 468.180001 
L 369.511623 464.6498 
L 379.785501 459.216151 
L 390.059379 456.09808 
L 400.333257 453.167587 
L 410.607135 450.188514 
L 420.881013 450.394233 
L 431.154891 445.290794 
L 441.428769 445.113168 
L 451.702647 443.336304 
L 461.976525 443.021337 
L 472.250403 439.44045 
L 482.524281 435.559602 
L 492.798159 429.392893 
L 503.072037 426.930161 
L 513.345915 422.942614 
L 523.619793 423.678099 
L 533.893671 420.504079 
L 544.167549 414.816055 
L 554.441427 411.291698 
L 564.715305 412.939276 
L 574.989183 408.215725 
L 585.263061 401.278729 
L 595.536939 389.795394 
L 605.810817 390.633946 
L 616.084695 385.968476 
L 626.358573 384.863167 
L 636.632451 385.091895 
L 646.906329 378.093538 
L 657.180207 378.381066 
L 667.454085 374.643642 
L 677.727963 373.927639 
L 688.001841 363.4284 
L 698.275719 354.70428 
L 708.549597 355.040972 
L 718.823475 350.919399 
L 729.097353 349.930918 
L 739.371231 350.726195 
L 749.645109 347.487188 
L 759.918987 340.629511 
L 770.192865 340.988044 
L 780.466743 335.350417 
L 790.740621 328.834192 
L 801.014499 324.242736 
L 811.288377 319.355729 
L 821.562255 305.90852 
L 831.836133 301.242148 
L 842.110012 294.737531 
L 852.38389 286.730985 
L 862.657768 284.301133 
L 872.931646 273.956381 
L 883.205524 264.244028 
L 893.479402 251.563276 
L 903.75328 254.936992 
L 914.027158 247.139135 
L 924.301036 240.910562 
L 934.574914 233.424715 
L 944.848792 246.336102 
L 955.12267 244.49831 
L 965.396548 242.890091 
L 975.670426 232.642849 
L 985.944304 225.922837 
L 996.218182 242.141713 
" style="fill:none;stroke:#ff7f0e;stroke-linecap:square;stroke-width:1.5;"/>
   </g>
   <g id="line2d_20">
    <path clip-path="url(#p3c876483d0)" d="M 184.581818 484.202591 
L 194.855696 483.938524 
L 205.129574 483.665088 
L 215.403452 483.193866 
L 225.67733 482.754074 
L 235.951208 481.988666 
L 246.225086 481.389305 
L 256.498964 480.615618 
L 266.772842 480.105387 
L 277.04672 478.256659 
L 287.320598 477.489779 
L 297.594476 475.970944 
L 307.868354 473.084797 
L 318.142232 472.265799 
L 328.41611 467.646292 
L 338.689988 464.819395 
L 348.963867 463.932662 
L 359.237745 460.615279 
L 369.511623 457.784126 
L 379.785501 455.213828 
L 390.059379 451.927376 
L 400.333257 449.682847 
L 410.607135 446.378305 
L 420.881013 443.872652 
L 431.154891 442.328748 
L 441.428769 437.944444 
L 451.702647 431.924068 
L 461.976525 426.482399 
L 472.250403 425.911888 
L 482.524281 421.565535 
L 492.798159 419.011066 
L 503.072037 415.691981 
L 513.345915 411.000921 
L 523.619793 403.793368 
L 533.893671 397.393913 
L 544.167549 387.612578 
L 554.441427 385.080099 
L 564.715305 381.437188 
L 574.989183 378.246527 
L 585.263061 370.257542 
L 595.536939 364.970887 
L 605.810817 362.89106 
L 616.084695 358.382768 
L 626.358573 355.236251 
L 636.632451 356.563524 
L 646.906329 348.082297 
L 657.180207 339.151213 
L 667.454085 331.833005 
L 677.727963 322.619133 
L 688.001841 317.092932 
L 698.275719 311.106758 
L 708.549597 301.292109 
L 718.823475 300.923861 
L 729.097353 296.234247 
L 739.371231 292.924772 
L 749.645109 283.439007 
L 759.918987 281.436301 
L 770.192865 274.676094 
L 780.466743 270.983339 
L 790.740621 266.925358 
L 801.014499 261.224164 
L 811.288377 242.786693 
L 821.562255 235.254024 
L 831.836133 236.766472 
L 842.110012 239.227582 
L 852.38389 238.027299 
L 862.657768 235.694126 
L 872.931646 233.599241 
L 883.205524 231.12267 
L 893.479402 227.580032 
L 903.75328 221.930809 
L 914.027158 211.065488 
L 924.301036 209.98785 
L 934.574914 204.537719 
L 944.848792 192.576862 
L 955.12267 192.004023 
L 965.396548 184.895841 
L 975.670426 179.821765 
L 985.944304 178.202677 
L 996.218182 173.708912 
" style="fill:none;stroke:#2ca02c;stroke-linecap:square;stroke-width:1.5;"/>
   </g>
   <g id="line2d_21">
    <path clip-path="url(#p3c876483d0)" d="M 184.581818 484.21214 
L 194.855696 483.893249 
L 205.129574 483.66749 
L 215.403452 482.307253 
L 225.67733 481.438539 
L 235.951208 481.388403 
L 246.225086 480.297165 
L 256.498964 477.917154 
L 266.772842 476.129557 
L 277.04672 474.333935 
L 287.320598 473.444305 
L 297.594476 471.396398 
L 307.868354 468.466574 
L 318.142232 461.000789 
L 328.41611 459.261987 
L 338.689988 455.11233 
L 348.963867 448.028149 
L 359.237745 440.63059 
L 369.511623 435.231201 
L 379.785501 433.188929 
L 390.059379 429.089579 
L 400.333257 427.337521 
L 410.607135 420.448093 
L 420.881013 414.546244 
L 431.154891 413.236415 
L 441.428769 411.314526 
L 451.702647 407.140903 
L 461.976525 403.506617 
L 472.250403 394.95954 
L 482.524281 388.844547 
L 492.798159 384.044505 
L 503.072037 379.728236 
L 513.345915 369.761655 
L 523.619793 361.353566 
L 533.893671 353.976059 
L 544.167549 338.291682 
L 554.441427 331.324174 
L 564.715305 323.815564 
L 574.989183 317.153243 
L 585.263061 316.950286 
L 595.536939 308.770913 
L 605.810817 310.166773 
L 616.084695 301.383315 
L 626.358573 293.196458 
L 636.632451 284.638888 
L 646.906329 281.696858 
L 657.180207 272.422234 
L 667.454085 268.279869 
L 677.727963 260.794645 
L 688.001841 255.66498 
L 698.275719 249.259779 
L 708.549597 248.695293 
L 718.823475 240.667864 
L 729.097353 241.526929 
L 739.371231 235.400456 
L 749.645109 231.483085 
L 759.918987 230.04275 
L 770.192865 230.215902 
L 780.466743 225.36372 
L 790.740621 220.484067 
L 801.014499 215.925867 
L 811.288377 211.26598 
L 821.562255 207.771046 
L 831.836133 200.377702 
L 842.110012 194.94521 
L 852.38389 190.263689 
L 862.657768 188.761332 
L 872.931646 188.203979 
L 883.205524 188.537234 
L 893.479402 181.815847 
L 903.75328 176.861253 
L 914.027158 174.620713 
L 924.301036 172.81392 
L 934.574914 167.782543 
L 944.848792 165.22937 
L 955.12267 156.114266 
L 965.396548 149.123645 
L 975.670426 144.626793 
L 985.944304 144.951332 
L 996.218182 143.821036 
" style="fill:none;stroke:#d62728;stroke-dasharray:5.55,2.4;stroke-dashoffset:0;stroke-width:1.5;"/>
   </g>
   <g id="line2d_22">
    <path clip-path="url(#p3c876483d0)" d="M 184.581818 483.381339 
L 194.855696 477.226452 
L 205.129574 472.44879 
L 215.403452 462.36903 
L 225.67733 453.922277 
L 235.951208 440.825064 
L 246.225086 427.767805 
L 256.498964 409.624555 
L 266.772842 394.331941 
L 277.04672 374.083125 
L 287.320598 357.12329 
L 297.594476 341.279548 
L 307.868354 319.863134 
L 318.142232 305.521945 
L 328.41611 295.439709 
L 338.689988 271.310693 
L 348.963867 254.956239 
L 359.237745 237.929556 
L 369.511623 223.302194 
L 379.785501 216.655645 
L 390.059379 206.11961 
L 400.333257 200.188701 
L 410.607135 195.127389 
L 420.881013 193.844616 
L 431.154891 192.341247 
L 441.428769 181.774706 
L 451.702647 178.591963 
L 461.976525 176.358193 
L 472.250403 175.736119 
L 482.524281 173.036695 
L 492.798159 169.549699 
L 503.072037 161.59991 
L 513.345915 161.210857 
L 523.619793 156.055122 
L 533.893671 150.19293 
L 544.167549 139.771654 
L 554.441427 139.862809 
L 564.715305 139.203562 
L 574.989183 138.42346 
L 585.263061 137.905069 
L 595.536939 123.789509 
L 605.810817 122.593091 
L 616.084695 122.589252 
L 626.358573 118.78376 
L 636.632451 113.176379 
L 646.906329 112.494876 
L 657.180207 111.973632 
L 667.454085 111.915603 
L 677.727963 111.648522 
L 688.001841 111.520637 
L 698.275719 111.009042 
L 708.549597 108.817192 
L 718.823475 107.753796 
L 729.097353 107.637324 
L 739.371231 107.361839 
L 749.645109 107.414264 
L 759.918987 107.152916 
L 770.192865 106.937378 
L 780.466743 106.800283 
L 790.740621 106.415356 
L 801.014499 106.342671 
L 811.288377 106.623993 
L 821.562255 107.173875 
L 831.836133 106.423605 
L 842.110012 101.456196 
L 852.38389 101.348855 
L 862.657768 101.13368 
L 872.931646 101.225483 
L 883.205524 101.411864 
L 893.479402 101.338738 
L 903.75328 100.796042 
L 914.027158 100.682242 
L 924.301036 102.327789 
L 934.574914 102.327789 
L 944.848792 102.327789 
L 955.12267 102.327789 
L 965.396548 102.327789 
L 975.670426 102.327789 
L 985.944304 102.327789 
L 996.218182 102.327789 
" style="fill:none;stroke:#9467bd;stroke-dasharray:5.55,2.4;stroke-dashoffset:0;stroke-width:1.5;"/>
   </g>
   <g id="line2d_23">
    <path clip-path="url(#p3c876483d0)" d="M 184.581818 484.201805 
L 194.855696 484.029121 
L 205.129574 483.78484 
L 215.403452 483.518941 
L 225.67733 483.153912 
L 235.951208 482.676364 
L 246.225086 481.774008 
L 256.498964 481.381068 
L 266.772842 480.186744 
L 277.04672 480.070861 
L 287.320598 479.342658 
L 297.594476 478.865109 
L 307.868354 478.427483 
L 318.142232 478.277732 
L 328.41611 477.787344 
L 338.689988 477.323161 
L 348.963867 477.301674 
L 359.237745 476.76277 
L 369.511623 475.630144 
L 379.785501 474.514072 
L 390.059379 473.73859 
L 400.333257 473.319621 
L 410.607135 472.902063 
L 420.881013 473.1038 
L 431.154891 472.562014 
L 441.428769 471.332211 
L 451.702647 470.716749 
L 461.976525 469.400935 
L 472.250403 468.544329 
L 482.524281 467.578256 
L 492.798159 466.684029 
L 503.072037 466.323887 
L 513.345915 465.558009 
L 523.619793 463.901008 
L 533.893671 463.169304 
L 544.167549 461.629917 
L 554.441427 461.351861 
L 564.715305 461.435071 
L 574.989183 460.684369 
L 585.263061 456.911165 
L 595.536939 457.183665 
L 605.810817 457.940871 
L 616.084695 456.827385 
L 626.358573 455.553905 
L 636.632451 451.672068 
L 646.906329 450.573834 
L 657.180207 448.632071 
L 667.454085 447.324298 
L 677.727963 445.916918 
L 688.001841 442.714467 
L 698.275719 441.486934 
L 708.549597 441.292274 
L 718.823475 437.340794 
L 729.097353 435.299297 
L 739.371231 433.323358 
L 749.645109 430.834365 
L 759.918987 427.516904 
L 770.192865 423.471478 
L 780.466743 419.848619 
L 790.740621 418.211301 
L 801.014499 416.086208 
L 811.288377 410.583859 
L 821.562255 405.638928 
L 831.836133 404.855259 
L 842.110012 400.380074 
L 852.38389 392.545687 
L 862.657768 389.573456 
L 872.931646 385.29862 
L 883.205524 378.074841 
L 893.479402 370.400525 
L 903.75328 361.657249 
L 914.027158 357.741486 
L 924.301036 355.79682 
L 934.574914 354.340468 
L 944.848792 349.168559 
L 955.12267 350.408466 
L 965.396548 351.246739 
L 975.670426 344.88137 
L 985.944304 340.135322 
L 996.218182 335.711544 
" style="fill:none;stroke:#8c564b;stroke-linecap:square;stroke-width:1.5;"/>
   </g>
   <g id="line2d_24">
    <path clip-path="url(#p3c876483d0)" d="M 184.581818 484.21347 
L 194.855696 484.07285 
L 205.129574 483.821806 
L 215.403452 483.755836 
L 225.67733 483.513823 
L 235.951208 483.337647 
L 246.225086 483.10259 
L 256.498964 482.893533 
L 266.772842 482.709601 
L 277.04672 482.445863 
L 287.320598 482.074947 
L 297.594476 481.919062 
L 307.868354 481.792653 
L 318.142232 481.520454 
L 328.41611 481.139978 
L 338.689988 480.579711 
L 348.963867 480.434638 
L 359.237745 479.54238 
L 369.511623 479.218575 
L 379.785501 478.397475 
L 390.059379 476.933069 
L 400.333257 476.342479 
L 410.607135 475.844424 
L 420.881013 475.113786 
L 431.154891 473.159193 
L 441.428769 472.539841 
L 451.702647 472.131259 
L 461.976525 471.963468 
L 472.250403 471.678946 
L 482.524281 471.448756 
L 492.798159 471.174638 
L 503.072037 470.158834 
L 513.345915 467.361491 
L 523.619793 465.556952 
L 533.893671 463.833176 
L 544.167549 462.773595 
L 554.441427 461.992877 
L 564.715305 460.609656 
L 574.989183 459.25458 
L 585.263061 455.977841 
L 595.536939 454.282076 
L 605.810817 452.233166 
L 616.084695 449.806456 
L 626.358573 445.13726 
L 636.632451 442.160531 
L 646.906329 439.770825 
L 657.180207 437.83317 
L 667.454085 436.007788 
L 677.727963 435.192825 
L 688.001841 432.57014 
L 698.275719 431.317331 
L 708.549597 430.468724 
L 718.823475 427.583954 
L 729.097353 427.595302 
L 739.371231 425.514529 
L 749.645109 421.684757 
L 759.918987 418.154751 
L 770.192865 415.609478 
L 780.466743 412.450081 
L 790.740621 406.790294 
L 801.014499 405.961041 
L 811.288377 401.622821 
L 821.562255 399.924997 
L 831.836133 395.92732 
L 842.110012 389.505998 
L 852.38389 384.028921 
L 862.657768 376.870791 
L 872.931646 369.814366 
L 883.205524 364.334637 
L 893.479402 358.017477 
L 903.75328 353.150406 
L 914.027158 353.047332 
L 924.301036 349.346094 
L 934.574914 345.125299 
L 944.848792 340.886021 
L 955.12267 333.370136 
L 965.396548 328.447279 
L 975.670426 321.428345 
L 985.944304 317.288911 
L 996.218182 311.135279 
" style="fill:none;stroke:#e377c2;stroke-linecap:square;stroke-width:1.5;"/>
   </g>
   <g id="line2d_25">
    <path clip-path="url(#p3c876483d0)" d="M 184.581818 484.207391 
L 194.855696 483.972452 
L 205.129574 483.482466 
L 215.403452 483.280531 
L 225.67733 483.090274 
L 235.951208 482.596779 
L 246.225086 481.210955 
L 256.498964 479.727235 
L 266.772842 479.334636 
L 277.04672 478.042351 
L 287.320598 477.856089 
L 297.594476 476.612943 
L 307.868354 476.399817 
L 318.142232 474.217948 
L 328.41611 473.041892 
L 338.689988 470.740555 
L 348.963867 466.526468 
L 359.237745 465.78693 
L 369.511623 460.303386 
L 379.785501 455.403604 
L 390.059379 449.093931 
L 400.333257 443.115598 
L 410.607135 442.205833 
L 420.881013 437.09667 
L 431.154891 430.337881 
L 441.428769 427.365108 
L 451.702647 423.353463 
L 461.976525 417.268767 
L 472.250403 407.833677 
L 482.524281 398.985602 
L 492.798159 387.735535 
L 503.072037 387.273817 
L 513.345915 380.835847 
L 523.619793 368.750438 
L 533.893671 360.064049 
L 544.167549 356.333201 
L 554.441427 351.636453 
L 564.715305 349.252048 
L 574.989183 337.721333 
L 585.263061 330.515031 
L 595.536939 326.394469 
L 605.810817 324.846664 
L 616.084695 324.197664 
L 626.358573 323.323217 
L 636.632451 318.014162 
L 646.906329 316.496513 
L 657.180207 316.053596 
L 667.454085 312.70595 
L 677.727963 307.253264 
L 688.001841 307.063783 
L 698.275719 302.603909 
L 708.549597 290.636904 
L 718.823475 284.07885 
L 729.097353 277.669162 
L 739.371231 277.361912 
L 749.645109 269.856532 
L 759.918987 260.232285 
L 770.192865 256.59429 
L 780.466743 254.574139 
L 790.740621 249.073113 
L 801.014499 247.134673 
L 811.288377 245.928268 
L 821.562255 238.962083 
L 831.836133 232.191566 
L 842.110012 230.925498 
L 852.38389 226.194561 
L 862.657768 220.272628 
L 872.931646 215.804103 
L 883.205524 209.735737 
L 893.479402 202.627191 
L 903.75328 191.168901 
L 914.027158 183.526531 
L 924.301036 176.402655 
L 934.574914 176.219023 
L 944.848792 176.266027 
L 955.12267 176.676999 
L 965.396548 170.305547 
L 975.670426 170.072292 
L 985.944304 168.927625 
L 996.218182 164.491162 
" style="fill:none;stroke:#7f7f7f;stroke-linecap:square;stroke-width:1.5;"/>
   </g>
   <g id="line2d_26">
    <path clip-path="url(#p3c876483d0)" d="M 184.581818 484.221356 
L 194.855696 484.029677 
L 205.129574 483.922879 
L 215.403452 483.840391 
L 225.67733 483.510153 
L 235.951208 482.818986 
L 246.225086 481.02122 
L 256.498964 479.162286 
L 266.772842 478.731805 
L 277.04672 478.670597 
L 287.320598 478.577892 
L 297.594476 477.850322 
L 307.868354 475.189461 
L 318.142232 474.058285 
L 328.41611 472.630554 
L 338.689988 471.113163 
L 348.963867 469.78899 
L 359.237745 466.923573 
L 369.511623 463.803262 
L 379.785501 461.626157 
L 390.059379 460.503784 
L 400.333257 456.274857 
L 410.607135 453.547278 
L 420.881013 444.717546 
L 431.154891 444.02269 
L 441.428769 440.441612 
L 451.702647 436.29567 
L 461.976525 432.371765 
L 472.250403 430.104341 
L 482.524281 427.645497 
L 492.798159 424.749089 
L 503.072037 415.980722 
L 513.345915 408.61254 
L 523.619793 406.221897 
L 533.893671 396.465374 
L 544.167549 385.088666 
L 554.441427 371.114104 
L 564.715305 362.371489 
L 574.989183 360.055463 
L 585.263061 359.531339 
L 595.536939 353.237708 
L 605.810817 343.669012 
L 616.084695 340.225789 
L 626.358573 336.597755 
L 636.632451 333.384117 
L 646.906329 331.363486 
L 657.180207 328.287643 
L 667.454085 328.345256 
L 677.727963 320.419851 
L 688.001841 317.312581 
L 698.275719 313.274198 
L 708.549597 306.672578 
L 718.823475 297.372623 
L 729.097353 292.788677 
L 739.371231 291.370547 
L 749.645109 291.034309 
L 759.918987 291.845942 
L 770.192865 289.934208 
L 780.466743 282.085301 
L 790.740621 275.916688 
L 801.014499 269.397779 
L 811.288377 268.736496 
L 821.562255 268.364408 
L 831.836133 267.613749 
L 842.110012 260.645877 
L 852.38389 253.233104 
L 862.657768 252.068463 
L 872.931646 248.019937 
L 883.205524 246.832365 
L 893.479402 245.823418 
L 903.75328 240.679174 
L 914.027158 220.406272 
L 924.301036 219.749283 
L 934.574914 215.531497 
L 944.848792 214.541122 
L 955.12267 214.150332 
L 965.396548 213.779153 
L 975.670426 210.809301 
L 985.944304 210.1782 
L 996.218182 210.595917 
" style="fill:none;stroke:#bcbd22;stroke-dasharray:5.55,2.4;stroke-dashoffset:0;stroke-width:1.5;"/>
   </g>
   <g id="line2d_27">
    <path clip-path="url(#p3c876483d0)" d="M 184.581818 484.232727 
L 194.855696 484.115731 
L 205.129574 483.971968 
L 215.403452 483.813039 
L 225.67733 483.657125 
L 235.951208 483.442969 
L 246.225086 483.144886 
L 256.498964 483.005951 
L 266.772842 482.614628 
L 277.04672 482.438654 
L 287.320598 481.848342 
L 297.594476 481.443221 
L 307.868354 481.103462 
L 318.142232 480.436987 
L 328.41611 479.932194 
L 338.689988 479.579516 
L 348.963867 478.937773 
L 359.237745 478.017711 
L 369.511623 476.886687 
L 379.785501 476.626346 
L 390.059379 476.372888 
L 400.333257 476.087596 
L 410.607135 475.22455 
L 420.881013 475.559282 
L 431.154891 474.712629 
L 441.428769 473.436685 
L 451.702647 472.46424 
L 461.976525 471.673618 
L 472.250403 470.694867 
L 482.524281 468.970288 
L 492.798159 467.041636 
L 503.072037 466.580364 
L 513.345915 464.532795 
L 523.619793 463.639968 
L 533.893671 462.017941 
L 544.167549 461.775243 
L 554.441427 460.388193 
L 564.715305 456.912696 
L 574.989183 454.661086 
L 585.263061 451.036625 
L 595.536939 443.992862 
L 605.810817 444.537148 
L 616.084695 441.387787 
L 626.358573 442.662447 
L 636.632451 435.625526 
L 646.906329 434.891558 
L 657.180207 428.615748 
L 667.454085 424.916508 
L 677.727963 423.900991 
L 688.001841 421.262041 
L 698.275719 420.00622 
L 708.549597 414.458948 
L 718.823475 413.834482 
L 729.097353 411.245356 
L 739.371231 407.87856 
L 749.645109 405.147762 
L 759.918987 402.904952 
L 770.192865 399.023073 
L 780.466743 394.804456 
L 790.740621 392.910822 
L 801.014499 391.534937 
L 811.288377 388.353568 
L 821.562255 388.994851 
L 831.836133 390.085666 
L 842.110012 386.150175 
L 852.38389 383.970017 
L 862.657768 386.377476 
L 872.931646 381.940398 
L 883.205524 377.722028 
L 893.479402 374.078857 
L 903.75328 370.460733 
L 914.027158 369.905079 
L 924.301036 365.849627 
L 934.574914 366.426785 
L 944.848792 363.31351 
L 955.12267 360.615656 
L 965.396548 354.226409 
L 975.670426 353.883841 
L 985.944304 344.370385 
L 996.218182 342.13384 
" style="fill:none;stroke:#17becf;stroke-dasharray:5.55,2.4;stroke-dashoffset:0;stroke-width:1.5;"/>
   </g>
   <g id="line2d_28">
    <path clip-path="url(#p3c876483d0)" d="M 184.581818 483.348255 
L 194.855696 478.886627 
L 205.129574 473.680989 
L 215.403452 462.96049 
L 225.67733 451.222938 
L 235.951208 438.345254 
L 246.225086 427.904997 
L 256.498964 416.08519 
L 266.772842 404.243431 
L 277.04672 385.13805 
L 287.320598 367.102348 
L 297.594476 345.114897 
L 307.868354 329.550714 
L 318.142232 308.244974 
L 328.41611 291.455385 
L 338.689988 272.82829 
L 348.963867 253.442364 
L 359.237745 248.152855 
L 369.511623 235.596046 
L 379.785501 224.211271 
L 390.059379 207.531747 
L 400.333257 201.114172 
L 410.607135 200.640996 
L 420.881013 200.170102 
L 431.154891 193.263527 
L 441.428769 184.231588 
L 451.702647 183.717503 
L 461.976525 179.788562 
L 472.250403 178.994815 
L 482.524281 178.717124 
L 492.798159 178.112534 
L 503.072037 173.080275 
L 513.345915 156.060959 
L 523.619793 144.122618 
L 533.893671 143.345369 
L 544.167549 142.913256 
L 554.441427 142.820338 
L 564.715305 136.316953 
L 574.989183 135.817914 
L 585.263061 129.233959 
L 595.536939 117.166669 
L 605.810817 116.958576 
L 616.084695 109.587463 
L 626.358573 109.517813 
L 636.632451 107.476521 
L 646.906329 107.003992 
L 657.180207 106.73647 
L 667.454085 103.851807 
L 677.727963 98.612674 
L 688.001841 98.119264 
L 698.275719 98.069329 
L 708.549597 98.027124 
L 718.823475 92.257253 
L 729.097353 92.090068 
L 739.371231 91.93248 
L 749.645109 91.920652 
L 759.918987 91.981585 
L 770.192865 92.207084 
L 780.466743 91.994192 
L 790.740621 91.948045 
L 801.014499 91.802286 
L 811.288377 88.887273 
L 821.562255 88.887273 
L 831.836133 88.887273 
L 842.110012 88.887273 
L 852.38389 88.887273 
L 862.657768 88.887273 
L 872.931646 88.887273 
L 883.205524 88.887273 
L 893.479402 88.887273 
L 903.75328 88.887273 
L 914.027158 88.887273 
L 924.301036 88.887273 
L 934.574914 88.887273 
L 944.848792 88.887273 
L 955.12267 88.887273 
L 965.396548 88.887273 
L 975.670426 88.887273 
L 985.944304 88.887273 
L 996.218182 88.887273 
" style="fill:none;stroke:#1f77b4;stroke-dasharray:5.55,2.4;stroke-dashoffset:0;stroke-width:1.5;"/>
   </g>
   <g id="patch_3">
    <path d="M 144 504 
L 144 69.12 
" style="fill:none;stroke:#000000;stroke-linecap:square;stroke-linejoin:miter;stroke-width:0.8;"/>
   </g>
   <g id="patch_4">
    <path d="M 1036.8 504 
L 1036.8 69.12 
" style="fill:none;stroke:#000000;stroke-linecap:square;stroke-linejoin:miter;stroke-width:0.8;"/>
   </g>
   <g id="patch_5">
    <path d="M 144 504 
L 1036.8 504 
" style="fill:none;stroke:#000000;stroke-linecap:square;stroke-linejoin:miter;stroke-width:0.8;"/>
   </g>
   <g id="patch_6">
    <path d="M 144 69.12 
L 1036.8 69.12 
" style="fill:none;stroke:#000000;stroke-linecap:square;stroke-linejoin:miter;stroke-width:0.8;"/>
   </g>
   <g id="legend_1">
    <g id="patch_7">
     <path d="M 151 240.52625 
L 300.879687 240.52625 
Q 302.879687 240.52625 302.879687 238.52625 
L 302.879687 76.12 
Q 302.879687 74.12 300.879687 74.12 
L 151 74.12 
Q 149 74.12 149 76.12 
L 149 238.52625 
Q 149 240.52625 151 240.52625 
z
" style="fill:#ffffff;opacity:0.8;stroke:#cccccc;stroke-linejoin:miter;"/>
    </g>
    <g id="line2d_29">
     <path d="M 153 82.218437 
L 173 82.218437 
" style="fill:none;stroke:#1f77b4;stroke-linecap:square;stroke-width:1.5;"/>
    </g>
    <g id="line2d_30"/>
    <g id="text_20">
     <!-- taylorfo noBN -->
     <defs>
      <path d="M 32.171875 -5.078125 
Q 28.375 -14.84375 24.75 -17.8125 
Q 21.140625 -20.796875 15.09375 -20.796875 
L 7.90625 -20.796875 
L 7.90625 -13.28125 
L 13.1875 -13.28125 
Q 16.890625 -13.28125 18.9375 -11.515625 
Q 21 -9.765625 23.484375 -3.21875 
L 25.09375 0.875 
L 2.984375 54.6875 
L 12.5 54.6875 
L 29.59375 11.921875 
L 46.6875 54.6875 
L 56.203125 54.6875 
z
" id="DejaVuSans-121"/>
      <path d="M 9.421875 75.984375 
L 18.40625 75.984375 
L 18.40625 0 
L 9.421875 0 
z
" id="DejaVuSans-108"/>
      <path d="M 19.671875 34.8125 
L 19.671875 8.109375 
L 35.5 8.109375 
Q 43.453125 8.109375 47.28125 11.40625 
Q 51.125 14.703125 51.125 21.484375 
Q 51.125 28.328125 47.28125 31.5625 
Q 43.453125 34.8125 35.5 34.8125 
z
M 19.671875 64.796875 
L 19.671875 42.828125 
L 34.28125 42.828125 
Q 41.5 42.828125 45.03125 45.53125 
Q 48.578125 48.25 48.578125 53.8125 
Q 48.578125 59.328125 45.03125 62.0625 
Q 41.5 64.796875 34.28125 64.796875 
z
M 9.8125 72.90625 
L 35.015625 72.90625 
Q 46.296875 72.90625 52.390625 68.21875 
Q 58.5 63.53125 58.5 54.890625 
Q 58.5 48.1875 55.375 44.234375 
Q 52.25 40.28125 46.1875 39.3125 
Q 53.46875 37.75 57.5 32.78125 
Q 61.53125 27.828125 61.53125 20.40625 
Q 61.53125 10.640625 54.890625 5.3125 
Q 48.25 0 35.984375 0 
L 9.8125 0 
z
" id="DejaVuSans-66"/>
     </defs>
     <g transform="translate(181 85.718437)scale(0.1 -0.1)">
      <use xlink:href="#DejaVuSans-116"/>
      <use x="39.208984" xlink:href="#DejaVuSans-97"/>
      <use x="100.488281" xlink:href="#DejaVuSans-121"/>
      <use x="159.667969" xlink:href="#DejaVuSans-108"/>
      <use x="187.451172" xlink:href="#DejaVuSans-111"/>
      <use x="248.632812" xlink:href="#DejaVuSans-114"/>
      <use x="289.746094" xlink:href="#DejaVuSans-102"/>
      <use x="324.951172" xlink:href="#DejaVuSans-111"/>
      <use x="386.132812" xlink:href="#DejaVuSans-32"/>
      <use x="417.919922" xlink:href="#DejaVuSans-110"/>
      <use x="481.298828" xlink:href="#DejaVuSans-111"/>
      <use x="542.480469" xlink:href="#DejaVuSans-66"/>
      <use x="611.083984" xlink:href="#DejaVuSans-78"/>
     </g>
    </g>
    <g id="line2d_31">
     <path d="M 153 96.896563 
L 173 96.896563 
" style="fill:none;stroke:#ff7f0e;stroke-linecap:square;stroke-width:1.5;"/>
    </g>
    <g id="line2d_32"/>
    <g id="text_21">
     <!-- taylorfo_abs noBN -->
     <defs>
      <path d="M 50.984375 -16.609375 
L 50.984375 -23.578125 
L -0.984375 -23.578125 
L -0.984375 -16.609375 
z
" id="DejaVuSans-95"/>
     </defs>
     <g transform="translate(181 100.396563)scale(0.1 -0.1)">
      <use xlink:href="#DejaVuSans-116"/>
      <use x="39.208984" xlink:href="#DejaVuSans-97"/>
      <use x="100.488281" xlink:href="#DejaVuSans-121"/>
      <use x="159.667969" xlink:href="#DejaVuSans-108"/>
      <use x="187.451172" xlink:href="#DejaVuSans-111"/>
      <use x="248.632812" xlink:href="#DejaVuSans-114"/>
      <use x="289.746094" xlink:href="#DejaVuSans-102"/>
      <use x="324.951172" xlink:href="#DejaVuSans-111"/>
      <use x="386.132812" xlink:href="#DejaVuSans-95"/>
      <use x="436.132812" xlink:href="#DejaVuSans-97"/>
      <use x="497.412109" xlink:href="#DejaVuSans-98"/>
      <use x="560.888672" xlink:href="#DejaVuSans-115"/>
      <use x="612.988281" xlink:href="#DejaVuSans-32"/>
      <use x="644.775391" xlink:href="#DejaVuSans-110"/>
      <use x="708.154297" xlink:href="#DejaVuSans-111"/>
      <use x="769.335938" xlink:href="#DejaVuSans-66"/>
      <use x="837.939453" xlink:href="#DejaVuSans-78"/>
     </g>
    </g>
    <g id="line2d_33">
     <path d="M 153 111.852813 
L 173 111.852813 
" style="fill:none;stroke:#2ca02c;stroke-linecap:square;stroke-width:1.5;"/>
    </g>
    <g id="line2d_34"/>
    <g id="text_22">
     <!-- taylorfo_sq noBN -->
     <g transform="translate(181 115.352813)scale(0.1 -0.1)">
      <use xlink:href="#DejaVuSans-116"/>
      <use x="39.208984" xlink:href="#DejaVuSans-97"/>
      <use x="100.488281" xlink:href="#DejaVuSans-121"/>
      <use x="159.667969" xlink:href="#DejaVuSans-108"/>
      <use x="187.451172" xlink:href="#DejaVuSans-111"/>
      <use x="248.632812" xlink:href="#DejaVuSans-114"/>
      <use x="289.746094" xlink:href="#DejaVuSans-102"/>
      <use x="324.951172" xlink:href="#DejaVuSans-111"/>
      <use x="386.132812" xlink:href="#DejaVuSans-95"/>
      <use x="436.132812" xlink:href="#DejaVuSans-115"/>
      <use x="488.232422" xlink:href="#DejaVuSans-113"/>
      <use x="551.708984" xlink:href="#DejaVuSans-32"/>
      <use x="583.496094" xlink:href="#DejaVuSans-110"/>
      <use x="646.875" xlink:href="#DejaVuSans-111"/>
      <use x="708.056641" xlink:href="#DejaVuSans-66"/>
      <use x="776.660156" xlink:href="#DejaVuSans-78"/>
     </g>
    </g>
    <g id="line2d_35">
     <path d="M 153 126.809062 
L 173 126.809062 
" style="fill:none;stroke:#d62728;stroke-dasharray:5.55,2.4;stroke-dashoffset:0;stroke-width:1.5;"/>
    </g>
    <g id="line2d_36"/>
    <g id="text_23">
     <!-- Molchanov_group noBN -->
     <defs>
      <path d="M 9.8125 72.90625 
L 24.515625 72.90625 
L 43.109375 23.296875 
L 61.8125 72.90625 
L 76.515625 72.90625 
L 76.515625 0 
L 66.890625 0 
L 66.890625 64.015625 
L 48.09375 14.015625 
L 38.1875 14.015625 
L 19.390625 64.015625 
L 19.390625 0 
L 9.8125 0 
z
" id="DejaVuSans-77"/>
      <path d="M 48.78125 52.59375 
L 48.78125 44.1875 
Q 44.96875 46.296875 41.140625 47.34375 
Q 37.3125 48.390625 33.40625 48.390625 
Q 24.65625 48.390625 19.8125 42.84375 
Q 14.984375 37.3125 14.984375 27.296875 
Q 14.984375 17.28125 19.8125 11.734375 
Q 24.65625 6.203125 33.40625 6.203125 
Q 37.3125 6.203125 41.140625 7.25 
Q 44.96875 8.296875 48.78125 10.40625 
L 48.78125 2.09375 
Q 45.015625 0.34375 40.984375 -0.53125 
Q 36.96875 -1.421875 32.421875 -1.421875 
Q 20.0625 -1.421875 12.78125 6.34375 
Q 5.515625 14.109375 5.515625 27.296875 
Q 5.515625 40.671875 12.859375 48.328125 
Q 20.21875 56 33.015625 56 
Q 37.15625 56 41.109375 55.140625 
Q 45.0625 54.296875 48.78125 52.59375 
z
" id="DejaVuSans-99"/>
      <path d="M 54.890625 33.015625 
L 54.890625 0 
L 45.90625 0 
L 45.90625 32.71875 
Q 45.90625 40.484375 42.875 44.328125 
Q 39.84375 48.1875 33.796875 48.1875 
Q 26.515625 48.1875 22.3125 43.546875 
Q 18.109375 38.921875 18.109375 30.90625 
L 18.109375 0 
L 9.078125 0 
L 9.078125 75.984375 
L 18.109375 75.984375 
L 18.109375 46.1875 
Q 21.34375 51.125 25.703125 53.5625 
Q 30.078125 56 35.796875 56 
Q 45.21875 56 50.046875 50.171875 
Q 54.890625 44.34375 54.890625 33.015625 
z
" id="DejaVuSans-104"/>
      <path d="M 45.40625 27.984375 
Q 45.40625 37.75 41.375 43.109375 
Q 37.359375 48.484375 30.078125 48.484375 
Q 22.859375 48.484375 18.828125 43.109375 
Q 14.796875 37.75 14.796875 27.984375 
Q 14.796875 18.265625 18.828125 12.890625 
Q 22.859375 7.515625 30.078125 7.515625 
Q 37.359375 7.515625 41.375 12.890625 
Q 45.40625 18.265625 45.40625 27.984375 
z
M 54.390625 6.78125 
Q 54.390625 -7.171875 48.1875 -13.984375 
Q 42 -20.796875 29.203125 -20.796875 
Q 24.46875 -20.796875 20.265625 -20.09375 
Q 16.0625 -19.390625 12.109375 -17.921875 
L 12.109375 -9.1875 
Q 16.0625 -11.328125 19.921875 -12.34375 
Q 23.78125 -13.375 27.78125 -13.375 
Q 36.625 -13.375 41.015625 -8.765625 
Q 45.40625 -4.15625 45.40625 5.171875 
L 45.40625 9.625 
Q 42.625 4.78125 38.28125 2.390625 
Q 33.9375 0 27.875 0 
Q 17.828125 0 11.671875 7.65625 
Q 5.515625 15.328125 5.515625 27.984375 
Q 5.515625 40.671875 11.671875 48.328125 
Q 17.828125 56 27.875 56 
Q 33.9375 56 38.28125 53.609375 
Q 42.625 51.21875 45.40625 46.390625 
L 45.40625 54.6875 
L 54.390625 54.6875 
z
" id="DejaVuSans-103"/>
     </defs>
     <g transform="translate(181 130.309062)scale(0.1 -0.1)">
      <use xlink:href="#DejaVuSans-77"/>
      <use x="86.279297" xlink:href="#DejaVuSans-111"/>
      <use x="147.460938" xlink:href="#DejaVuSans-108"/>
      <use x="175.244141" xlink:href="#DejaVuSans-99"/>
      <use x="230.224609" xlink:href="#DejaVuSans-104"/>
      <use x="293.603516" xlink:href="#DejaVuSans-97"/>
      <use x="354.882812" xlink:href="#DejaVuSans-110"/>
      <use x="418.261719" xlink:href="#DejaVuSans-111"/>
      <use x="479.443359" xlink:href="#DejaVuSans-118"/>
      <use x="538.623047" xlink:href="#DejaVuSans-95"/>
      <use x="588.623047" xlink:href="#DejaVuSans-103"/>
      <use x="652.099609" xlink:href="#DejaVuSans-114"/>
      <use x="690.962891" xlink:href="#DejaVuSans-111"/>
      <use x="752.144531" xlink:href="#DejaVuSans-117"/>
      <use x="815.523438" xlink:href="#DejaVuSans-112"/>
      <use x="879" xlink:href="#DejaVuSans-32"/>
      <use x="910.787109" xlink:href="#DejaVuSans-110"/>
      <use x="974.166016" xlink:href="#DejaVuSans-111"/>
      <use x="1035.347656" xlink:href="#DejaVuSans-66"/>
      <use x="1103.951172" xlink:href="#DejaVuSans-78"/>
     </g>
    </g>
    <g id="line2d_37">
     <path d="M 153 141.765312 
L 173 141.765312 
" style="fill:none;stroke:#9467bd;stroke-dasharray:5.55,2.4;stroke-dashoffset:0;stroke-width:1.5;"/>
    </g>
    <g id="line2d_38"/>
    <g id="text_24">
     <!-- APnZ noBN -->
     <defs>
      <path d="M 34.1875 63.1875 
L 20.796875 26.90625 
L 47.609375 26.90625 
z
M 28.609375 72.90625 
L 39.796875 72.90625 
L 67.578125 0 
L 57.328125 0 
L 50.6875 18.703125 
L 17.828125 18.703125 
L 11.1875 0 
L 0.78125 0 
z
" id="DejaVuSans-65"/>
      <path d="M 19.671875 64.796875 
L 19.671875 37.40625 
L 32.078125 37.40625 
Q 38.96875 37.40625 42.71875 40.96875 
Q 46.484375 44.53125 46.484375 51.125 
Q 46.484375 57.671875 42.71875 61.234375 
Q 38.96875 64.796875 32.078125 64.796875 
z
M 9.8125 72.90625 
L 32.078125 72.90625 
Q 44.34375 72.90625 50.609375 67.359375 
Q 56.890625 61.8125 56.890625 51.125 
Q 56.890625 40.328125 50.609375 34.8125 
Q 44.34375 29.296875 32.078125 29.296875 
L 19.671875 29.296875 
L 19.671875 0 
L 9.8125 0 
z
" id="DejaVuSans-80"/>
      <path d="M 5.609375 72.90625 
L 62.890625 72.90625 
L 62.890625 65.375 
L 16.796875 8.296875 
L 64.015625 8.296875 
L 64.015625 0 
L 4.5 0 
L 4.5 7.515625 
L 50.59375 64.59375 
L 5.609375 64.59375 
z
" id="DejaVuSans-90"/>
     </defs>
     <g transform="translate(181 145.265312)scale(0.1 -0.1)">
      <use xlink:href="#DejaVuSans-65"/>
      <use x="68.408203" xlink:href="#DejaVuSans-80"/>
      <use x="126.960938" xlink:href="#DejaVuSans-110"/>
      <use x="190.339844" xlink:href="#DejaVuSans-90"/>
      <use x="258.845703" xlink:href="#DejaVuSans-32"/>
      <use x="290.632812" xlink:href="#DejaVuSans-110"/>
      <use x="354.011719" xlink:href="#DejaVuSans-111"/>
      <use x="415.193359" xlink:href="#DejaVuSans-66"/>
      <use x="483.796875" xlink:href="#DejaVuSans-78"/>
     </g>
    </g>
    <g id="line2d_39">
     <path d="M 153 156.443438 
L 173 156.443438 
" style="fill:none;stroke:#8c564b;stroke-linecap:square;stroke-width:1.5;"/>
    </g>
    <g id="line2d_40"/>
    <g id="text_25">
     <!-- taylorfo BN -->
     <g transform="translate(181 159.943438)scale(0.1 -0.1)">
      <use xlink:href="#DejaVuSans-116"/>
      <use x="39.208984" xlink:href="#DejaVuSans-97"/>
      <use x="100.488281" xlink:href="#DejaVuSans-121"/>
      <use x="159.667969" xlink:href="#DejaVuSans-108"/>
      <use x="187.451172" xlink:href="#DejaVuSans-111"/>
      <use x="248.632812" xlink:href="#DejaVuSans-114"/>
      <use x="289.746094" xlink:href="#DejaVuSans-102"/>
      <use x="324.951172" xlink:href="#DejaVuSans-111"/>
      <use x="386.132812" xlink:href="#DejaVuSans-32"/>
      <use x="417.919922" xlink:href="#DejaVuSans-66"/>
      <use x="486.523438" xlink:href="#DejaVuSans-78"/>
     </g>
    </g>
    <g id="line2d_41">
     <path d="M 153 171.121562 
L 173 171.121562 
" style="fill:none;stroke:#e377c2;stroke-linecap:square;stroke-width:1.5;"/>
    </g>
    <g id="line2d_42"/>
    <g id="text_26">
     <!-- taylorfo_abs BN -->
     <g transform="translate(181 174.621562)scale(0.1 -0.1)">
      <use xlink:href="#DejaVuSans-116"/>
      <use x="39.208984" xlink:href="#DejaVuSans-97"/>
      <use x="100.488281" xlink:href="#DejaVuSans-121"/>
      <use x="159.667969" xlink:href="#DejaVuSans-108"/>
      <use x="187.451172" xlink:href="#DejaVuSans-111"/>
      <use x="248.632812" xlink:href="#DejaVuSans-114"/>
      <use x="289.746094" xlink:href="#DejaVuSans-102"/>
      <use x="324.951172" xlink:href="#DejaVuSans-111"/>
      <use x="386.132812" xlink:href="#DejaVuSans-95"/>
      <use x="436.132812" xlink:href="#DejaVuSans-97"/>
      <use x="497.412109" xlink:href="#DejaVuSans-98"/>
      <use x="560.888672" xlink:href="#DejaVuSans-115"/>
      <use x="612.988281" xlink:href="#DejaVuSans-32"/>
      <use x="644.775391" xlink:href="#DejaVuSans-66"/>
      <use x="713.378906" xlink:href="#DejaVuSans-78"/>
     </g>
    </g>
    <g id="line2d_43">
     <path d="M 153 186.077812 
L 173 186.077812 
" style="fill:none;stroke:#7f7f7f;stroke-linecap:square;stroke-width:1.5;"/>
    </g>
    <g id="line2d_44"/>
    <g id="text_27">
     <!-- taylorfo_sq BN -->
     <g transform="translate(181 189.577812)scale(0.1 -0.1)">
      <use xlink:href="#DejaVuSans-116"/>
      <use x="39.208984" xlink:href="#DejaVuSans-97"/>
      <use x="100.488281" xlink:href="#DejaVuSans-121"/>
      <use x="159.667969" xlink:href="#DejaVuSans-108"/>
      <use x="187.451172" xlink:href="#DejaVuSans-111"/>
      <use x="248.632812" xlink:href="#DejaVuSans-114"/>
      <use x="289.746094" xlink:href="#DejaVuSans-102"/>
      <use x="324.951172" xlink:href="#DejaVuSans-111"/>
      <use x="386.132812" xlink:href="#DejaVuSans-95"/>
      <use x="436.132812" xlink:href="#DejaVuSans-115"/>
      <use x="488.232422" xlink:href="#DejaVuSans-113"/>
      <use x="551.708984" xlink:href="#DejaVuSans-32"/>
      <use x="583.496094" xlink:href="#DejaVuSans-66"/>
      <use x="652.099609" xlink:href="#DejaVuSans-78"/>
     </g>
    </g>
    <g id="line2d_45">
     <path d="M 153 201.034063 
L 173 201.034063 
" style="fill:none;stroke:#bcbd22;stroke-dasharray:5.55,2.4;stroke-dashoffset:0;stroke-width:1.5;"/>
    </g>
    <g id="line2d_46"/>
    <g id="text_28">
     <!-- Molchanov_group BN -->
     <g transform="translate(181 204.534063)scale(0.1 -0.1)">
      <use xlink:href="#DejaVuSans-77"/>
      <use x="86.279297" xlink:href="#DejaVuSans-111"/>
      <use x="147.460938" xlink:href="#DejaVuSans-108"/>
      <use x="175.244141" xlink:href="#DejaVuSans-99"/>
      <use x="230.224609" xlink:href="#DejaVuSans-104"/>
      <use x="293.603516" xlink:href="#DejaVuSans-97"/>
      <use x="354.882812" xlink:href="#DejaVuSans-110"/>
      <use x="418.261719" xlink:href="#DejaVuSans-111"/>
      <use x="479.443359" xlink:href="#DejaVuSans-118"/>
      <use x="538.623047" xlink:href="#DejaVuSans-95"/>
      <use x="588.623047" xlink:href="#DejaVuSans-103"/>
      <use x="652.099609" xlink:href="#DejaVuSans-114"/>
      <use x="690.962891" xlink:href="#DejaVuSans-111"/>
      <use x="752.144531" xlink:href="#DejaVuSans-117"/>
      <use x="815.523438" xlink:href="#DejaVuSans-112"/>
      <use x="879" xlink:href="#DejaVuSans-32"/>
      <use x="910.787109" xlink:href="#DejaVuSans-66"/>
      <use x="979.390625" xlink:href="#DejaVuSans-78"/>
     </g>
    </g>
    <g id="line2d_47">
     <path d="M 153 215.990312 
L 173 215.990312 
" style="fill:none;stroke:#17becf;stroke-dasharray:5.55,2.4;stroke-dashoffset:0;stroke-width:1.5;"/>
    </g>
    <g id="line2d_48"/>
    <g id="text_29">
     <!-- Molchanov_BN BN -->
     <g transform="translate(181 219.490312)scale(0.1 -0.1)">
      <use xlink:href="#DejaVuSans-77"/>
      <use x="86.279297" xlink:href="#DejaVuSans-111"/>
      <use x="147.460938" xlink:href="#DejaVuSans-108"/>
      <use x="175.244141" xlink:href="#DejaVuSans-99"/>
      <use x="230.224609" xlink:href="#DejaVuSans-104"/>
      <use x="293.603516" xlink:href="#DejaVuSans-97"/>
      <use x="354.882812" xlink:href="#DejaVuSans-110"/>
      <use x="418.261719" xlink:href="#DejaVuSans-111"/>
      <use x="479.443359" xlink:href="#DejaVuSans-118"/>
      <use x="538.623047" xlink:href="#DejaVuSans-95"/>
      <use x="588.623047" xlink:href="#DejaVuSans-66"/>
      <use x="657.226562" xlink:href="#DejaVuSans-78"/>
      <use x="732.03125" xlink:href="#DejaVuSans-32"/>
      <use x="763.818359" xlink:href="#DejaVuSans-66"/>
      <use x="832.421875" xlink:href="#DejaVuSans-78"/>
     </g>
    </g>
    <g id="line2d_49">
     <path d="M 153 230.946563 
L 173 230.946563 
" style="fill:none;stroke:#1f77b4;stroke-dasharray:5.55,2.4;stroke-dashoffset:0;stroke-width:1.5;"/>
    </g>
    <g id="line2d_50"/>
    <g id="text_30">
     <!-- APnZ BN -->
     <g transform="translate(181 234.446563)scale(0.1 -0.1)">
      <use xlink:href="#DejaVuSans-65"/>
      <use x="68.408203" xlink:href="#DejaVuSans-80"/>
      <use x="126.960938" xlink:href="#DejaVuSans-110"/>
      <use x="190.339844" xlink:href="#DejaVuSans-90"/>
      <use x="258.845703" xlink:href="#DejaVuSans-32"/>
      <use x="290.632812" xlink:href="#DejaVuSans-66"/>
      <use x="359.236328" xlink:href="#DejaVuSans-78"/>
     </g>
    </g>
   </g>
  </g>
 </g>
 <defs>
  <clipPath id="p3c876483d0">
   <rect height="434.88" width="892.8" x="144" y="69.12"/>
  </clipPath>
 </defs>
</svg>
