<?xml version="1.0" encoding="utf-8" standalone="no"?>
<!DOCTYPE svg PUBLIC "-//W3C//DTD SVG 1.1//EN"
  "http://www.w3.org/Graphics/SVG/1.1/DTD/svg11.dtd">
<!-- Created with matplotlib (https://matplotlib.org/) -->
<svg height="576pt" version="1.1" viewBox="0 0 1152 576" width="1152pt" xmlns="http://www.w3.org/2000/svg" xmlns:xlink="http://www.w3.org/1999/xlink">
 <defs>
  <style type="text/css">
*{stroke-linecap:butt;stroke-linejoin:round;}
  </style>
 </defs>
 <g id="figure_1">
  <g id="patch_1">
   <path d="M 0 576 
L 1152 576 
L 1152 0 
L 0 0 
z
" style="fill:#ffffff;"/>
  </g>
  <g id="axes_1">
   <g id="patch_2">
    <path d="M 144 504 
L 1036.8 504 
L 1036.8 69.12 
L 144 69.12 
z
" style="fill:#ffffff;"/>
   </g>
   <g id="matplotlib.axis_1">
    <g id="xtick_1">
     <g id="line2d_1">
      <defs>
       <path d="M 0 0 
L 0 3.5 
" id="m2b2b250afa" style="stroke:#000000;stroke-width:0.8;"/>
      </defs>
      <g>
       <use style="stroke:#000000;stroke-width:0.8;" x="182.527043" xlink:href="#m2b2b250afa" y="504"/>
      </g>
     </g>
     <g id="text_1">
      <!-- 0 -->
      <defs>
       <path d="M 31.78125 66.40625 
Q 24.171875 66.40625 20.328125 58.90625 
Q 16.5 51.421875 16.5 36.375 
Q 16.5 21.390625 20.328125 13.890625 
Q 24.171875 6.390625 31.78125 6.390625 
Q 39.453125 6.390625 43.28125 13.890625 
Q 47.125 21.390625 47.125 36.375 
Q 47.125 51.421875 43.28125 58.90625 
Q 39.453125 66.40625 31.78125 66.40625 
z
M 31.78125 74.21875 
Q 44.046875 74.21875 50.515625 64.515625 
Q 56.984375 54.828125 56.984375 36.375 
Q 56.984375 17.96875 50.515625 8.265625 
Q 44.046875 -1.421875 31.78125 -1.421875 
Q 19.53125 -1.421875 13.0625 8.265625 
Q 6.59375 17.96875 6.59375 36.375 
Q 6.59375 54.828125 13.0625 64.515625 
Q 19.53125 74.21875 31.78125 74.21875 
z
" id="DejaVuSans-48"/>
      </defs>
      <g transform="translate(179.345793 518.598438)scale(0.1 -0.1)">
       <use xlink:href="#DejaVuSans-48"/>
      </g>
     </g>
    </g>
    <g id="xtick_2">
     <g id="line2d_2">
      <g>
       <use style="stroke:#000000;stroke-width:0.8;" x="285.265823" xlink:href="#m2b2b250afa" y="504"/>
      </g>
     </g>
     <g id="text_2">
      <!-- 50 -->
      <defs>
       <path d="M 10.796875 72.90625 
L 49.515625 72.90625 
L 49.515625 64.59375 
L 19.828125 64.59375 
L 19.828125 46.734375 
Q 21.96875 47.46875 24.109375 47.828125 
Q 26.265625 48.1875 28.421875 48.1875 
Q 40.625 48.1875 47.75 41.5 
Q 54.890625 34.8125 54.890625 23.390625 
Q 54.890625 11.625 47.5625 5.09375 
Q 40.234375 -1.421875 26.90625 -1.421875 
Q 22.3125 -1.421875 17.546875 -0.640625 
Q 12.796875 0.140625 7.71875 1.703125 
L 7.71875 11.625 
Q 12.109375 9.234375 16.796875 8.0625 
Q 21.484375 6.890625 26.703125 6.890625 
Q 35.15625 6.890625 40.078125 11.328125 
Q 45.015625 15.765625 45.015625 23.390625 
Q 45.015625 31 40.078125 35.4375 
Q 35.15625 39.890625 26.703125 39.890625 
Q 22.75 39.890625 18.8125 39.015625 
Q 14.890625 38.140625 10.796875 36.28125 
z
" id="DejaVuSans-53"/>
      </defs>
      <g transform="translate(278.903323 518.598438)scale(0.1 -0.1)">
       <use xlink:href="#DejaVuSans-53"/>
       <use x="63.623047" xlink:href="#DejaVuSans-48"/>
      </g>
     </g>
    </g>
    <g id="xtick_3">
     <g id="line2d_3">
      <g>
       <use style="stroke:#000000;stroke-width:0.8;" x="388.004603" xlink:href="#m2b2b250afa" y="504"/>
      </g>
     </g>
     <g id="text_3">
      <!-- 100 -->
      <defs>
       <path d="M 12.40625 8.296875 
L 28.515625 8.296875 
L 28.515625 63.921875 
L 10.984375 60.40625 
L 10.984375 69.390625 
L 28.421875 72.90625 
L 38.28125 72.90625 
L 38.28125 8.296875 
L 54.390625 8.296875 
L 54.390625 0 
L 12.40625 0 
z
" id="DejaVuSans-49"/>
      </defs>
      <g transform="translate(378.460853 518.598438)scale(0.1 -0.1)">
       <use xlink:href="#DejaVuSans-49"/>
       <use x="63.623047" xlink:href="#DejaVuSans-48"/>
       <use x="127.246094" xlink:href="#DejaVuSans-48"/>
      </g>
     </g>
    </g>
    <g id="xtick_4">
     <g id="line2d_4">
      <g>
       <use style="stroke:#000000;stroke-width:0.8;" x="490.743383" xlink:href="#m2b2b250afa" y="504"/>
      </g>
     </g>
     <g id="text_4">
      <!-- 150 -->
      <g transform="translate(481.199633 518.598438)scale(0.1 -0.1)">
       <use xlink:href="#DejaVuSans-49"/>
       <use x="63.623047" xlink:href="#DejaVuSans-53"/>
       <use x="127.246094" xlink:href="#DejaVuSans-48"/>
      </g>
     </g>
    </g>
    <g id="xtick_5">
     <g id="line2d_5">
      <g>
       <use style="stroke:#000000;stroke-width:0.8;" x="593.482163" xlink:href="#m2b2b250afa" y="504"/>
      </g>
     </g>
     <g id="text_5">
      <!-- 200 -->
      <defs>
       <path d="M 19.1875 8.296875 
L 53.609375 8.296875 
L 53.609375 0 
L 7.328125 0 
L 7.328125 8.296875 
Q 12.9375 14.109375 22.625 23.890625 
Q 32.328125 33.6875 34.8125 36.53125 
Q 39.546875 41.84375 41.421875 45.53125 
Q 43.3125 49.21875 43.3125 52.78125 
Q 43.3125 58.59375 39.234375 62.25 
Q 35.15625 65.921875 28.609375 65.921875 
Q 23.96875 65.921875 18.8125 64.3125 
Q 13.671875 62.703125 7.8125 59.421875 
L 7.8125 69.390625 
Q 13.765625 71.78125 18.9375 73 
Q 24.125 74.21875 28.421875 74.21875 
Q 39.75 74.21875 46.484375 68.546875 
Q 53.21875 62.890625 53.21875 53.421875 
Q 53.21875 48.921875 51.53125 44.890625 
Q 49.859375 40.875 45.40625 35.40625 
Q 44.1875 33.984375 37.640625 27.21875 
Q 31.109375 20.453125 19.1875 8.296875 
z
" id="DejaVuSans-50"/>
      </defs>
      <g transform="translate(583.938413 518.598438)scale(0.1 -0.1)">
       <use xlink:href="#DejaVuSans-50"/>
       <use x="63.623047" xlink:href="#DejaVuSans-48"/>
       <use x="127.246094" xlink:href="#DejaVuSans-48"/>
      </g>
     </g>
    </g>
    <g id="xtick_6">
     <g id="line2d_6">
      <g>
       <use style="stroke:#000000;stroke-width:0.8;" x="696.220944" xlink:href="#m2b2b250afa" y="504"/>
      </g>
     </g>
     <g id="text_6">
      <!-- 250 -->
      <g transform="translate(686.677194 518.598438)scale(0.1 -0.1)">
       <use xlink:href="#DejaVuSans-50"/>
       <use x="63.623047" xlink:href="#DejaVuSans-53"/>
       <use x="127.246094" xlink:href="#DejaVuSans-48"/>
      </g>
     </g>
    </g>
    <g id="xtick_7">
     <g id="line2d_7">
      <g>
       <use style="stroke:#000000;stroke-width:0.8;" x="798.959724" xlink:href="#m2b2b250afa" y="504"/>
      </g>
     </g>
     <g id="text_7">
      <!-- 300 -->
      <defs>
       <path d="M 40.578125 39.3125 
Q 47.65625 37.796875 51.625 33 
Q 55.609375 28.21875 55.609375 21.1875 
Q 55.609375 10.40625 48.1875 4.484375 
Q 40.765625 -1.421875 27.09375 -1.421875 
Q 22.515625 -1.421875 17.65625 -0.515625 
Q 12.796875 0.390625 7.625 2.203125 
L 7.625 11.71875 
Q 11.71875 9.328125 16.59375 8.109375 
Q 21.484375 6.890625 26.8125 6.890625 
Q 36.078125 6.890625 40.9375 10.546875 
Q 45.796875 14.203125 45.796875 21.1875 
Q 45.796875 27.640625 41.28125 31.265625 
Q 36.765625 34.90625 28.71875 34.90625 
L 20.21875 34.90625 
L 20.21875 43.015625 
L 29.109375 43.015625 
Q 36.375 43.015625 40.234375 45.921875 
Q 44.09375 48.828125 44.09375 54.296875 
Q 44.09375 59.90625 40.109375 62.90625 
Q 36.140625 65.921875 28.71875 65.921875 
Q 24.65625 65.921875 20.015625 65.03125 
Q 15.375 64.15625 9.8125 62.3125 
L 9.8125 71.09375 
Q 15.4375 72.65625 20.34375 73.4375 
Q 25.25 74.21875 29.59375 74.21875 
Q 40.828125 74.21875 47.359375 69.109375 
Q 53.90625 64.015625 53.90625 55.328125 
Q 53.90625 49.265625 50.4375 45.09375 
Q 46.96875 40.921875 40.578125 39.3125 
z
" id="DejaVuSans-51"/>
      </defs>
      <g transform="translate(789.415974 518.598438)scale(0.1 -0.1)">
       <use xlink:href="#DejaVuSans-51"/>
       <use x="63.623047" xlink:href="#DejaVuSans-48"/>
       <use x="127.246094" xlink:href="#DejaVuSans-48"/>
      </g>
     </g>
    </g>
    <g id="xtick_8">
     <g id="line2d_8">
      <g>
       <use style="stroke:#000000;stroke-width:0.8;" x="901.698504" xlink:href="#m2b2b250afa" y="504"/>
      </g>
     </g>
     <g id="text_8">
      <!-- 350 -->
      <g transform="translate(892.154754 518.598438)scale(0.1 -0.1)">
       <use xlink:href="#DejaVuSans-51"/>
       <use x="63.623047" xlink:href="#DejaVuSans-53"/>
       <use x="127.246094" xlink:href="#DejaVuSans-48"/>
      </g>
     </g>
    </g>
    <g id="xtick_9">
     <g id="line2d_9">
      <g>
       <use style="stroke:#000000;stroke-width:0.8;" x="1004.437284" xlink:href="#m2b2b250afa" y="504"/>
      </g>
     </g>
     <g id="text_9">
      <!-- 400 -->
      <defs>
       <path d="M 37.796875 64.3125 
L 12.890625 25.390625 
L 37.796875 25.390625 
z
M 35.203125 72.90625 
L 47.609375 72.90625 
L 47.609375 25.390625 
L 58.015625 25.390625 
L 58.015625 17.1875 
L 47.609375 17.1875 
L 47.609375 0 
L 37.796875 0 
L 37.796875 17.1875 
L 4.890625 17.1875 
L 4.890625 26.703125 
z
" id="DejaVuSans-52"/>
      </defs>
      <g transform="translate(994.893534 518.598438)scale(0.1 -0.1)">
       <use xlink:href="#DejaVuSans-52"/>
       <use x="63.623047" xlink:href="#DejaVuSans-48"/>
       <use x="127.246094" xlink:href="#DejaVuSans-48"/>
      </g>
     </g>
    </g>
    <g id="text_10">
     <!-- Number of Neurons pruned -->
     <defs>
      <path d="M 9.8125 72.90625 
L 23.09375 72.90625 
L 55.421875 11.921875 
L 55.421875 72.90625 
L 64.984375 72.90625 
L 64.984375 0 
L 51.703125 0 
L 19.390625 60.984375 
L 19.390625 0 
L 9.8125 0 
z
" id="DejaVuSans-78"/>
      <path d="M 8.5 21.578125 
L 8.5 54.6875 
L 17.484375 54.6875 
L 17.484375 21.921875 
Q 17.484375 14.15625 20.5 10.265625 
Q 23.53125 6.390625 29.59375 6.390625 
Q 36.859375 6.390625 41.078125 11.03125 
Q 45.3125 15.671875 45.3125 23.6875 
L 45.3125 54.6875 
L 54.296875 54.6875 
L 54.296875 0 
L 45.3125 0 
L 45.3125 8.40625 
Q 42.046875 3.421875 37.71875 1 
Q 33.40625 -1.421875 27.6875 -1.421875 
Q 18.265625 -1.421875 13.375 4.4375 
Q 8.5 10.296875 8.5 21.578125 
z
M 31.109375 56 
z
" id="DejaVuSans-117"/>
      <path d="M 52 44.1875 
Q 55.375 50.25 60.0625 53.125 
Q 64.75 56 71.09375 56 
Q 79.640625 56 84.28125 50.015625 
Q 88.921875 44.046875 88.921875 33.015625 
L 88.921875 0 
L 79.890625 0 
L 79.890625 32.71875 
Q 79.890625 40.578125 77.09375 44.375 
Q 74.3125 48.1875 68.609375 48.1875 
Q 61.625 48.1875 57.5625 43.546875 
Q 53.515625 38.921875 53.515625 30.90625 
L 53.515625 0 
L 44.484375 0 
L 44.484375 32.71875 
Q 44.484375 40.625 41.703125 44.40625 
Q 38.921875 48.1875 33.109375 48.1875 
Q 26.21875 48.1875 22.15625 43.53125 
Q 18.109375 38.875 18.109375 30.90625 
L 18.109375 0 
L 9.078125 0 
L 9.078125 54.6875 
L 18.109375 54.6875 
L 18.109375 46.1875 
Q 21.1875 51.21875 25.484375 53.609375 
Q 29.78125 56 35.6875 56 
Q 41.65625 56 45.828125 52.96875 
Q 50 49.953125 52 44.1875 
z
" id="DejaVuSans-109"/>
      <path d="M 48.6875 27.296875 
Q 48.6875 37.203125 44.609375 42.84375 
Q 40.53125 48.484375 33.40625 48.484375 
Q 26.265625 48.484375 22.1875 42.84375 
Q 18.109375 37.203125 18.109375 27.296875 
Q 18.109375 17.390625 22.1875 11.75 
Q 26.265625 6.109375 33.40625 6.109375 
Q 40.53125 6.109375 44.609375 11.75 
Q 48.6875 17.390625 48.6875 27.296875 
z
M 18.109375 46.390625 
Q 20.953125 51.265625 25.265625 53.625 
Q 29.59375 56 35.59375 56 
Q 45.5625 56 51.78125 48.09375 
Q 58.015625 40.1875 58.015625 27.296875 
Q 58.015625 14.40625 51.78125 6.484375 
Q 45.5625 -1.421875 35.59375 -1.421875 
Q 29.59375 -1.421875 25.265625 0.953125 
Q 20.953125 3.328125 18.109375 8.203125 
L 18.109375 0 
L 9.078125 0 
L 9.078125 75.984375 
L 18.109375 75.984375 
z
" id="DejaVuSans-98"/>
      <path d="M 56.203125 29.59375 
L 56.203125 25.203125 
L 14.890625 25.203125 
Q 15.484375 15.921875 20.484375 11.0625 
Q 25.484375 6.203125 34.421875 6.203125 
Q 39.59375 6.203125 44.453125 7.46875 
Q 49.3125 8.734375 54.109375 11.28125 
L 54.109375 2.78125 
Q 49.265625 0.734375 44.1875 -0.34375 
Q 39.109375 -1.421875 33.890625 -1.421875 
Q 20.796875 -1.421875 13.15625 6.1875 
Q 5.515625 13.8125 5.515625 26.8125 
Q 5.515625 40.234375 12.765625 48.109375 
Q 20.015625 56 32.328125 56 
Q 43.359375 56 49.78125 48.890625 
Q 56.203125 41.796875 56.203125 29.59375 
z
M 47.21875 32.234375 
Q 47.125 39.59375 43.09375 43.984375 
Q 39.0625 48.390625 32.421875 48.390625 
Q 24.90625 48.390625 20.390625 44.140625 
Q 15.875 39.890625 15.1875 32.171875 
z
" id="DejaVuSans-101"/>
      <path d="M 41.109375 46.296875 
Q 39.59375 47.171875 37.8125 47.578125 
Q 36.03125 48 33.890625 48 
Q 26.265625 48 22.1875 43.046875 
Q 18.109375 38.09375 18.109375 28.8125 
L 18.109375 0 
L 9.078125 0 
L 9.078125 54.6875 
L 18.109375 54.6875 
L 18.109375 46.1875 
Q 20.953125 51.171875 25.484375 53.578125 
Q 30.03125 56 36.53125 56 
Q 37.453125 56 38.578125 55.875 
Q 39.703125 55.765625 41.0625 55.515625 
z
" id="DejaVuSans-114"/>
      <path id="DejaVuSans-32"/>
      <path d="M 30.609375 48.390625 
Q 23.390625 48.390625 19.1875 42.75 
Q 14.984375 37.109375 14.984375 27.296875 
Q 14.984375 17.484375 19.15625 11.84375 
Q 23.34375 6.203125 30.609375 6.203125 
Q 37.796875 6.203125 41.984375 11.859375 
Q 46.1875 17.53125 46.1875 27.296875 
Q 46.1875 37.015625 41.984375 42.703125 
Q 37.796875 48.390625 30.609375 48.390625 
z
M 30.609375 56 
Q 42.328125 56 49.015625 48.375 
Q 55.71875 40.765625 55.71875 27.296875 
Q 55.71875 13.875 49.015625 6.21875 
Q 42.328125 -1.421875 30.609375 -1.421875 
Q 18.84375 -1.421875 12.171875 6.21875 
Q 5.515625 13.875 5.515625 27.296875 
Q 5.515625 40.765625 12.171875 48.375 
Q 18.84375 56 30.609375 56 
z
" id="DejaVuSans-111"/>
      <path d="M 37.109375 75.984375 
L 37.109375 68.5 
L 28.515625 68.5 
Q 23.6875 68.5 21.796875 66.546875 
Q 19.921875 64.59375 19.921875 59.515625 
L 19.921875 54.6875 
L 34.71875 54.6875 
L 34.71875 47.703125 
L 19.921875 47.703125 
L 19.921875 0 
L 10.890625 0 
L 10.890625 47.703125 
L 2.296875 47.703125 
L 2.296875 54.6875 
L 10.890625 54.6875 
L 10.890625 58.5 
Q 10.890625 67.625 15.140625 71.796875 
Q 19.390625 75.984375 28.609375 75.984375 
z
" id="DejaVuSans-102"/>
      <path d="M 54.890625 33.015625 
L 54.890625 0 
L 45.90625 0 
L 45.90625 32.71875 
Q 45.90625 40.484375 42.875 44.328125 
Q 39.84375 48.1875 33.796875 48.1875 
Q 26.515625 48.1875 22.3125 43.546875 
Q 18.109375 38.921875 18.109375 30.90625 
L 18.109375 0 
L 9.078125 0 
L 9.078125 54.6875 
L 18.109375 54.6875 
L 18.109375 46.1875 
Q 21.34375 51.125 25.703125 53.5625 
Q 30.078125 56 35.796875 56 
Q 45.21875 56 50.046875 50.171875 
Q 54.890625 44.34375 54.890625 33.015625 
z
" id="DejaVuSans-110"/>
      <path d="M 44.28125 53.078125 
L 44.28125 44.578125 
Q 40.484375 46.53125 36.375 47.5 
Q 32.28125 48.484375 27.875 48.484375 
Q 21.1875 48.484375 17.84375 46.4375 
Q 14.5 44.390625 14.5 40.28125 
Q 14.5 37.15625 16.890625 35.375 
Q 19.28125 33.59375 26.515625 31.984375 
L 29.59375 31.296875 
Q 39.15625 29.25 43.1875 25.515625 
Q 47.21875 21.78125 47.21875 15.09375 
Q 47.21875 7.46875 41.1875 3.015625 
Q 35.15625 -1.421875 24.609375 -1.421875 
Q 20.21875 -1.421875 15.453125 -0.5625 
Q 10.6875 0.296875 5.421875 2 
L 5.421875 11.28125 
Q 10.40625 8.6875 15.234375 7.390625 
Q 20.0625 6.109375 24.8125 6.109375 
Q 31.15625 6.109375 34.5625 8.28125 
Q 37.984375 10.453125 37.984375 14.40625 
Q 37.984375 18.0625 35.515625 20.015625 
Q 33.0625 21.96875 24.703125 23.78125 
L 21.578125 24.515625 
Q 13.234375 26.265625 9.515625 29.90625 
Q 5.8125 33.546875 5.8125 39.890625 
Q 5.8125 47.609375 11.28125 51.796875 
Q 16.75 56 26.8125 56 
Q 31.78125 56 36.171875 55.265625 
Q 40.578125 54.546875 44.28125 53.078125 
z
" id="DejaVuSans-115"/>
      <path d="M 18.109375 8.203125 
L 18.109375 -20.796875 
L 9.078125 -20.796875 
L 9.078125 54.6875 
L 18.109375 54.6875 
L 18.109375 46.390625 
Q 20.953125 51.265625 25.265625 53.625 
Q 29.59375 56 35.59375 56 
Q 45.5625 56 51.78125 48.09375 
Q 58.015625 40.1875 58.015625 27.296875 
Q 58.015625 14.40625 51.78125 6.484375 
Q 45.5625 -1.421875 35.59375 -1.421875 
Q 29.59375 -1.421875 25.265625 0.953125 
Q 20.953125 3.328125 18.109375 8.203125 
z
M 48.6875 27.296875 
Q 48.6875 37.203125 44.609375 42.84375 
Q 40.53125 48.484375 33.40625 48.484375 
Q 26.265625 48.484375 22.1875 42.84375 
Q 18.109375 37.203125 18.109375 27.296875 
Q 18.109375 17.390625 22.1875 11.75 
Q 26.265625 6.109375 33.40625 6.109375 
Q 40.53125 6.109375 44.609375 11.75 
Q 48.6875 17.390625 48.6875 27.296875 
z
" id="DejaVuSans-112"/>
      <path d="M 45.40625 46.390625 
L 45.40625 75.984375 
L 54.390625 75.984375 
L 54.390625 0 
L 45.40625 0 
L 45.40625 8.203125 
Q 42.578125 3.328125 38.25 0.953125 
Q 33.9375 -1.421875 27.875 -1.421875 
Q 17.96875 -1.421875 11.734375 6.484375 
Q 5.515625 14.40625 5.515625 27.296875 
Q 5.515625 40.1875 11.734375 48.09375 
Q 17.96875 56 27.875 56 
Q 33.9375 56 38.25 53.625 
Q 42.578125 51.265625 45.40625 46.390625 
z
M 14.796875 27.296875 
Q 14.796875 17.390625 18.875 11.75 
Q 22.953125 6.109375 30.078125 6.109375 
Q 37.203125 6.109375 41.296875 11.75 
Q 45.40625 17.390625 45.40625 27.296875 
Q 45.40625 37.203125 41.296875 42.84375 
Q 37.203125 48.484375 30.078125 48.484375 
Q 22.953125 48.484375 18.875 42.84375 
Q 14.796875 37.203125 14.796875 27.296875 
z
" id="DejaVuSans-100"/>
     </defs>
     <g transform="translate(522.147656 532.276562)scale(0.1 -0.1)">
      <use xlink:href="#DejaVuSans-78"/>
      <use x="74.804688" xlink:href="#DejaVuSans-117"/>
      <use x="138.183594" xlink:href="#DejaVuSans-109"/>
      <use x="235.595703" xlink:href="#DejaVuSans-98"/>
      <use x="299.072266" xlink:href="#DejaVuSans-101"/>
      <use x="360.595703" xlink:href="#DejaVuSans-114"/>
      <use x="401.708984" xlink:href="#DejaVuSans-32"/>
      <use x="433.496094" xlink:href="#DejaVuSans-111"/>
      <use x="494.677734" xlink:href="#DejaVuSans-102"/>
      <use x="529.882812" xlink:href="#DejaVuSans-32"/>
      <use x="561.669922" xlink:href="#DejaVuSans-78"/>
      <use x="636.474609" xlink:href="#DejaVuSans-101"/>
      <use x="697.998047" xlink:href="#DejaVuSans-117"/>
      <use x="761.376953" xlink:href="#DejaVuSans-114"/>
      <use x="800.240234" xlink:href="#DejaVuSans-111"/>
      <use x="861.421875" xlink:href="#DejaVuSans-110"/>
      <use x="924.800781" xlink:href="#DejaVuSans-115"/>
      <use x="976.900391" xlink:href="#DejaVuSans-32"/>
      <use x="1008.6875" xlink:href="#DejaVuSans-112"/>
      <use x="1072.164062" xlink:href="#DejaVuSans-114"/>
      <use x="1113.277344" xlink:href="#DejaVuSans-117"/>
      <use x="1176.65625" xlink:href="#DejaVuSans-110"/>
      <use x="1240.035156" xlink:href="#DejaVuSans-101"/>
      <use x="1301.558594" xlink:href="#DejaVuSans-100"/>
     </g>
    </g>
   </g>
   <g id="matplotlib.axis_2">
    <g id="ytick_1">
     <g id="line2d_10">
      <defs>
       <path d="M 0 0 
L -3.5 0 
" id="mb09ec80ee2" style="stroke:#000000;stroke-width:0.8;"/>
      </defs>
      <g>
       <use style="stroke:#000000;stroke-width:0.8;" x="144" xlink:href="#mb09ec80ee2" y="484.285482"/>
      </g>
     </g>
     <g id="text_11">
      <!-- 0.0 -->
      <defs>
       <path d="M 10.6875 12.40625 
L 21 12.40625 
L 21 0 
L 10.6875 0 
z
" id="DejaVuSans-46"/>
      </defs>
      <g transform="translate(121.096875 488.0847)scale(0.1 -0.1)">
       <use xlink:href="#DejaVuSans-48"/>
       <use x="63.623047" xlink:href="#DejaVuSans-46"/>
       <use x="95.410156" xlink:href="#DejaVuSans-48"/>
      </g>
     </g>
    </g>
    <g id="ytick_2">
     <g id="line2d_11">
      <g>
       <use style="stroke:#000000;stroke-width:0.8;" x="144" xlink:href="#mb09ec80ee2" y="426.868292"/>
      </g>
     </g>
     <g id="text_12">
      <!-- 2.5 -->
      <g transform="translate(121.096875 430.667511)scale(0.1 -0.1)">
       <use xlink:href="#DejaVuSans-50"/>
       <use x="63.623047" xlink:href="#DejaVuSans-46"/>
       <use x="95.410156" xlink:href="#DejaVuSans-53"/>
      </g>
     </g>
    </g>
    <g id="ytick_3">
     <g id="line2d_12">
      <g>
       <use style="stroke:#000000;stroke-width:0.8;" x="144" xlink:href="#mb09ec80ee2" y="369.451102"/>
      </g>
     </g>
     <g id="text_13">
      <!-- 5.0 -->
      <g transform="translate(121.096875 373.250321)scale(0.1 -0.1)">
       <use xlink:href="#DejaVuSans-53"/>
       <use x="63.623047" xlink:href="#DejaVuSans-46"/>
       <use x="95.410156" xlink:href="#DejaVuSans-48"/>
      </g>
     </g>
    </g>
    <g id="ytick_4">
     <g id="line2d_13">
      <g>
       <use style="stroke:#000000;stroke-width:0.8;" x="144" xlink:href="#mb09ec80ee2" y="312.033912"/>
      </g>
     </g>
     <g id="text_14">
      <!-- 7.5 -->
      <defs>
       <path d="M 8.203125 72.90625 
L 55.078125 72.90625 
L 55.078125 68.703125 
L 28.609375 0 
L 18.3125 0 
L 43.21875 64.59375 
L 8.203125 64.59375 
z
" id="DejaVuSans-55"/>
      </defs>
      <g transform="translate(121.096875 315.833131)scale(0.1 -0.1)">
       <use xlink:href="#DejaVuSans-55"/>
       <use x="63.623047" xlink:href="#DejaVuSans-46"/>
       <use x="95.410156" xlink:href="#DejaVuSans-53"/>
      </g>
     </g>
    </g>
    <g id="ytick_5">
     <g id="line2d_14">
      <g>
       <use style="stroke:#000000;stroke-width:0.8;" x="144" xlink:href="#mb09ec80ee2" y="254.616722"/>
      </g>
     </g>
     <g id="text_15">
      <!-- 10.0 -->
      <g transform="translate(114.734375 258.415941)scale(0.1 -0.1)">
       <use xlink:href="#DejaVuSans-49"/>
       <use x="63.623047" xlink:href="#DejaVuSans-48"/>
       <use x="127.246094" xlink:href="#DejaVuSans-46"/>
       <use x="159.033203" xlink:href="#DejaVuSans-48"/>
      </g>
     </g>
    </g>
    <g id="ytick_6">
     <g id="line2d_15">
      <g>
       <use style="stroke:#000000;stroke-width:0.8;" x="144" xlink:href="#mb09ec80ee2" y="197.199532"/>
      </g>
     </g>
     <g id="text_16">
      <!-- 12.5 -->
      <g transform="translate(114.734375 200.998751)scale(0.1 -0.1)">
       <use xlink:href="#DejaVuSans-49"/>
       <use x="63.623047" xlink:href="#DejaVuSans-50"/>
       <use x="127.246094" xlink:href="#DejaVuSans-46"/>
       <use x="159.033203" xlink:href="#DejaVuSans-53"/>
      </g>
     </g>
    </g>
    <g id="ytick_7">
     <g id="line2d_16">
      <g>
       <use style="stroke:#000000;stroke-width:0.8;" x="144" xlink:href="#mb09ec80ee2" y="139.782343"/>
      </g>
     </g>
     <g id="text_17">
      <!-- 15.0 -->
      <g transform="translate(114.734375 143.581561)scale(0.1 -0.1)">
       <use xlink:href="#DejaVuSans-49"/>
       <use x="63.623047" xlink:href="#DejaVuSans-53"/>
       <use x="127.246094" xlink:href="#DejaVuSans-46"/>
       <use x="159.033203" xlink:href="#DejaVuSans-48"/>
      </g>
     </g>
    </g>
    <g id="ytick_8">
     <g id="line2d_17">
      <g>
       <use style="stroke:#000000;stroke-width:0.8;" x="144" xlink:href="#mb09ec80ee2" y="82.365153"/>
      </g>
     </g>
     <g id="text_18">
      <!-- 17.5 -->
      <g transform="translate(114.734375 86.164371)scale(0.1 -0.1)">
       <use xlink:href="#DejaVuSans-49"/>
       <use x="63.623047" xlink:href="#DejaVuSans-55"/>
       <use x="127.246094" xlink:href="#DejaVuSans-46"/>
       <use x="159.033203" xlink:href="#DejaVuSans-53"/>
      </g>
     </g>
    </g>
    <g id="text_19">
     <!-- Squared Deviation -->
     <defs>
      <path d="M 53.515625 70.515625 
L 53.515625 60.890625 
Q 47.90625 63.578125 42.921875 64.890625 
Q 37.9375 66.21875 33.296875 66.21875 
Q 25.25 66.21875 20.875 63.09375 
Q 16.5 59.96875 16.5 54.203125 
Q 16.5 49.359375 19.40625 46.890625 
Q 22.3125 44.4375 30.421875 42.921875 
L 36.375 41.703125 
Q 47.40625 39.59375 52.65625 34.296875 
Q 57.90625 29 57.90625 20.125 
Q 57.90625 9.515625 50.796875 4.046875 
Q 43.703125 -1.421875 29.984375 -1.421875 
Q 24.8125 -1.421875 18.96875 -0.25 
Q 13.140625 0.921875 6.890625 3.21875 
L 6.890625 13.375 
Q 12.890625 10.015625 18.65625 8.296875 
Q 24.421875 6.59375 29.984375 6.59375 
Q 38.421875 6.59375 43.015625 9.90625 
Q 47.609375 13.234375 47.609375 19.390625 
Q 47.609375 24.75 44.3125 27.78125 
Q 41.015625 30.8125 33.5 32.328125 
L 27.484375 33.5 
Q 16.453125 35.6875 11.515625 40.375 
Q 6.59375 45.0625 6.59375 53.421875 
Q 6.59375 63.09375 13.40625 68.65625 
Q 20.21875 74.21875 32.171875 74.21875 
Q 37.3125 74.21875 42.625 73.28125 
Q 47.953125 72.359375 53.515625 70.515625 
z
" id="DejaVuSans-83"/>
      <path d="M 14.796875 27.296875 
Q 14.796875 17.390625 18.875 11.75 
Q 22.953125 6.109375 30.078125 6.109375 
Q 37.203125 6.109375 41.296875 11.75 
Q 45.40625 17.390625 45.40625 27.296875 
Q 45.40625 37.203125 41.296875 42.84375 
Q 37.203125 48.484375 30.078125 48.484375 
Q 22.953125 48.484375 18.875 42.84375 
Q 14.796875 37.203125 14.796875 27.296875 
z
M 45.40625 8.203125 
Q 42.578125 3.328125 38.25 0.953125 
Q 33.9375 -1.421875 27.875 -1.421875 
Q 17.96875 -1.421875 11.734375 6.484375 
Q 5.515625 14.40625 5.515625 27.296875 
Q 5.515625 40.1875 11.734375 48.09375 
Q 17.96875 56 27.875 56 
Q 33.9375 56 38.25 53.625 
Q 42.578125 51.265625 45.40625 46.390625 
L 45.40625 54.6875 
L 54.390625 54.6875 
L 54.390625 -20.796875 
L 45.40625 -20.796875 
z
" id="DejaVuSans-113"/>
      <path d="M 34.28125 27.484375 
Q 23.390625 27.484375 19.1875 25 
Q 14.984375 22.515625 14.984375 16.5 
Q 14.984375 11.71875 18.140625 8.90625 
Q 21.296875 6.109375 26.703125 6.109375 
Q 34.1875 6.109375 38.703125 11.40625 
Q 43.21875 16.703125 43.21875 25.484375 
L 43.21875 27.484375 
z
M 52.203125 31.203125 
L 52.203125 0 
L 43.21875 0 
L 43.21875 8.296875 
Q 40.140625 3.328125 35.546875 0.953125 
Q 30.953125 -1.421875 24.3125 -1.421875 
Q 15.921875 -1.421875 10.953125 3.296875 
Q 6 8.015625 6 15.921875 
Q 6 25.140625 12.171875 29.828125 
Q 18.359375 34.515625 30.609375 34.515625 
L 43.21875 34.515625 
L 43.21875 35.40625 
Q 43.21875 41.609375 39.140625 45 
Q 35.0625 48.390625 27.6875 48.390625 
Q 23 48.390625 18.546875 47.265625 
Q 14.109375 46.140625 10.015625 43.890625 
L 10.015625 52.203125 
Q 14.9375 54.109375 19.578125 55.046875 
Q 24.21875 56 28.609375 56 
Q 40.484375 56 46.34375 49.84375 
Q 52.203125 43.703125 52.203125 31.203125 
z
" id="DejaVuSans-97"/>
      <path d="M 19.671875 64.796875 
L 19.671875 8.109375 
L 31.59375 8.109375 
Q 46.6875 8.109375 53.6875 14.9375 
Q 60.6875 21.78125 60.6875 36.53125 
Q 60.6875 51.171875 53.6875 57.984375 
Q 46.6875 64.796875 31.59375 64.796875 
z
M 9.8125 72.90625 
L 30.078125 72.90625 
Q 51.265625 72.90625 61.171875 64.09375 
Q 71.09375 55.28125 71.09375 36.53125 
Q 71.09375 17.671875 61.125 8.828125 
Q 51.171875 0 30.078125 0 
L 9.8125 0 
z
" id="DejaVuSans-68"/>
      <path d="M 2.984375 54.6875 
L 12.5 54.6875 
L 29.59375 8.796875 
L 46.6875 54.6875 
L 56.203125 54.6875 
L 35.6875 0 
L 23.484375 0 
z
" id="DejaVuSans-118"/>
      <path d="M 9.421875 54.6875 
L 18.40625 54.6875 
L 18.40625 0 
L 9.421875 0 
z
M 9.421875 75.984375 
L 18.40625 75.984375 
L 18.40625 64.59375 
L 9.421875 64.59375 
z
" id="DejaVuSans-105"/>
      <path d="M 18.3125 70.21875 
L 18.3125 54.6875 
L 36.8125 54.6875 
L 36.8125 47.703125 
L 18.3125 47.703125 
L 18.3125 18.015625 
Q 18.3125 11.328125 20.140625 9.421875 
Q 21.96875 7.515625 27.59375 7.515625 
L 36.8125 7.515625 
L 36.8125 0 
L 27.59375 0 
Q 17.1875 0 13.234375 3.875 
Q 9.28125 7.765625 9.28125 18.015625 
L 9.28125 47.703125 
L 2.6875 47.703125 
L 2.6875 54.6875 
L 9.28125 54.6875 
L 9.28125 70.21875 
z
" id="DejaVuSans-116"/>
     </defs>
     <g transform="translate(108.654687 332.840469)rotate(-90)scale(0.1 -0.1)">
      <use xlink:href="#DejaVuSans-83"/>
      <use x="63.476562" xlink:href="#DejaVuSans-113"/>
      <use x="126.953125" xlink:href="#DejaVuSans-117"/>
      <use x="190.332031" xlink:href="#DejaVuSans-97"/>
      <use x="251.611328" xlink:href="#DejaVuSans-114"/>
      <use x="290.474609" xlink:href="#DejaVuSans-101"/>
      <use x="351.998047" xlink:href="#DejaVuSans-100"/>
      <use x="415.474609" xlink:href="#DejaVuSans-32"/>
      <use x="447.261719" xlink:href="#DejaVuSans-68"/>
      <use x="524.263672" xlink:href="#DejaVuSans-101"/>
      <use x="585.787109" xlink:href="#DejaVuSans-118"/>
      <use x="644.966797" xlink:href="#DejaVuSans-105"/>
      <use x="672.75" xlink:href="#DejaVuSans-97"/>
      <use x="734.029297" xlink:href="#DejaVuSans-116"/>
      <use x="773.238281" xlink:href="#DejaVuSans-105"/>
      <use x="801.021484" xlink:href="#DejaVuSans-111"/>
      <use x="862.203125" xlink:href="#DejaVuSans-110"/>
     </g>
    </g>
   </g>
   <g id="line2d_18">
    <path clip-path="url(#p81dd2b0471)" d="M 184.581818 484.18981 
L 194.855696 483.120463 
L 205.129574 481.115728 
L 215.403452 478.65415 
L 225.67733 477.132904 
L 235.951208 468.053432 
L 246.225086 463.463664 
L 256.498964 457.771699 
L 266.772842 448.198447 
L 277.04672 438.647715 
L 287.320598 435.940832 
L 297.594476 426.976213 
L 307.868354 423.717792 
L 318.142232 421.766308 
L 328.41611 412.059213 
L 338.689988 403.865523 
L 348.963867 396.540244 
L 359.237745 388.187977 
L 369.511623 375.985729 
L 379.785501 375.007062 
L 390.059379 360.305023 
L 400.333257 356.856617 
L 410.607135 354.567729 
L 420.881013 359.949385 
L 431.154891 351.992558 
L 441.428769 343.446433 
L 451.702647 331.944356 
L 461.976525 328.773076 
L 472.250403 323.557312 
L 482.524281 320.377698 
L 492.798159 322.658635 
L 503.072037 322.53519 
L 513.345915 308.995189 
L 523.619793 304.135281 
L 533.893671 280.912338 
L 544.167549 269.926031 
L 554.441427 272.186237 
L 564.715305 265.212347 
L 574.989183 256.57112 
L 585.263061 250.686594 
L 595.536939 227.242804 
L 605.810817 221.042547 
L 616.084695 218.190415 
L 626.358573 218.948015 
L 636.632451 217.176003 
L 646.906329 205.476142 
L 657.180207 188.294922 
L 667.454085 179.796151 
L 677.727963 173.327847 
L 688.001841 152.443785 
L 698.275719 152.588213 
L 708.549597 181.453195 
L 718.823475 182.188147 
L 729.097353 163.435547 
L 739.371231 159.000183 
L 749.645109 168.860089 
L 759.918987 164.01087 
L 770.192865 144.941619 
L 780.466743 129.346806 
L 790.740621 151.174993 
L 801.014499 159.741181 
L 811.288377 156.292588 
L 821.562255 155.742934 
L 831.836133 146.976992 
L 842.110012 146.86958 
L 852.38389 145.740024 
L 862.657768 88.887273 
L 872.931646 89.001299 
L 883.205524 94.468794 
L 893.479402 90.639988 
L 903.75328 111.910264 
L 914.027158 128.266751 
L 924.301036 123.296803 
L 934.574914 142.826454 
L 944.848792 144.680712 
L 955.12267 140.166126 
L 965.396548 135.27516 
L 975.670426 147.356504 
L 985.944304 144.813093 
L 996.218182 147.432835 
" style="fill:none;stroke:#1f77b4;stroke-linecap:square;stroke-width:1.5;"/>
   </g>
   <g id="line2d_19">
    <path clip-path="url(#p81dd2b0471)" d="M 184.581818 484.210601 
L 194.855696 483.519856 
L 205.129574 481.3655 
L 215.403452 479.440431 
L 225.67733 478.745167 
L 235.951208 475.509551 
L 246.225086 474.16331 
L 256.498964 471.134372 
L 266.772842 467.139211 
L 277.04672 462.175132 
L 287.320598 459.182573 
L 297.594476 453.581583 
L 307.868354 447.161101 
L 318.142232 442.054804 
L 328.41611 435.500994 
L 338.689988 429.086975 
L 348.963867 422.333249 
L 359.237745 412.932192 
L 369.511623 405.596127 
L 379.785501 399.228565 
L 390.059379 390.242558 
L 400.333257 382.613377 
L 410.607135 376.169538 
L 420.881013 370.144494 
L 431.154891 366.7409 
L 441.428769 360.339466 
L 451.702647 355.068572 
L 461.976525 350.325275 
L 472.250403 347.076065 
L 482.524281 339.989813 
L 492.798159 334.318479 
L 503.072037 332.071426 
L 513.345915 324.599081 
L 523.619793 324.247648 
L 533.893671 324.3508 
L 544.167549 321.552264 
L 554.441427 317.850506 
L 564.715305 317.850506 
L 574.989183 317.850506 
L 585.263061 317.850506 
L 595.536939 317.850506 
L 605.810817 317.850506 
L 616.084695 317.850506 
L 626.358573 317.850506 
L 636.632451 317.850506 
L 646.906329 317.850506 
L 657.180207 317.850506 
L 667.454085 317.850506 
L 677.727963 317.850506 
L 688.001841 317.850506 
L 698.275719 317.850506 
L 708.549597 317.850506 
L 718.823475 317.850506 
L 729.097353 317.850506 
L 739.371231 317.850506 
L 749.645109 317.850506 
L 759.918987 317.850506 
L 770.192865 317.850506 
L 780.466743 317.850506 
L 790.740621 317.850506 
L 801.014499 317.850506 
L 811.288377 317.850506 
L 821.562255 317.850506 
L 831.836133 317.850506 
L 842.110012 317.850506 
L 852.38389 317.850506 
L 862.657768 317.850506 
L 872.931646 317.850506 
L 883.205524 317.850506 
L 893.479402 317.850506 
L 903.75328 317.850506 
L 914.027158 317.850506 
L 924.301036 317.850506 
L 934.574914 317.850506 
L 944.848792 317.850506 
L 955.12267 317.850506 
L 965.396548 317.850506 
L 975.670426 317.850506 
L 985.944304 317.850506 
L 996.218182 317.850506 
" style="fill:none;stroke:#ff7f0e;stroke-linecap:square;stroke-width:1.5;"/>
   </g>
   <g id="line2d_20">
    <path clip-path="url(#p81dd2b0471)" d="M 184.581818 484.128551 
L 194.855696 483.276544 
L 205.129574 480.713748 
L 215.403452 478.950809 
L 225.67733 475.655964 
L 235.951208 472.407491 
L 246.225086 469.766521 
L 256.498964 464.606958 
L 266.772842 460.359482 
L 277.04672 457.015605 
L 287.320598 452.364213 
L 297.594476 445.524252 
L 307.868354 437.777649 
L 318.142232 432.321916 
L 328.41611 428.205931 
L 338.689988 421.173286 
L 348.963867 411.902695 
L 359.237745 403.453085 
L 369.511623 392.221344 
L 379.785501 380.40737 
L 390.059379 371.611464 
L 400.333257 361.143237 
L 410.607135 352.27734 
L 420.881013 343.678703 
L 431.154891 339.586909 
L 441.428769 331.967803 
L 451.702647 327.864554 
L 461.976525 320.812909 
L 472.250403 320.861676 
L 482.524281 317.850506 
L 492.798159 317.850506 
L 503.072037 317.850506 
L 513.345915 317.850506 
L 523.619793 317.850506 
L 533.893671 317.850506 
L 544.167549 317.850506 
L 554.441427 317.850506 
L 564.715305 317.850506 
L 574.989183 317.850506 
L 585.263061 317.850506 
L 595.536939 317.850506 
L 605.810817 317.850506 
L 616.084695 317.850506 
L 626.358573 317.850506 
L 636.632451 317.850506 
L 646.906329 317.850506 
L 657.180207 317.850506 
L 667.454085 317.850506 
L 677.727963 317.850506 
L 688.001841 317.850506 
L 698.275719 317.850506 
L 708.549597 317.850506 
L 718.823475 317.850506 
L 729.097353 317.850506 
L 739.371231 317.850506 
L 749.645109 317.850506 
L 759.918987 317.850506 
L 770.192865 317.850506 
L 780.466743 317.850506 
L 790.740621 317.850506 
L 801.014499 317.850506 
L 811.288377 317.850506 
L 821.562255 317.850506 
L 831.836133 317.850506 
L 842.110012 317.850506 
L 852.38389 317.850506 
L 862.657768 317.850506 
L 872.931646 317.850506 
L 883.205524 317.850506 
L 893.479402 317.850506 
L 903.75328 317.850506 
L 914.027158 317.850506 
L 924.301036 317.850506 
L 934.574914 317.850506 
L 944.848792 317.850506 
L 955.12267 317.850506 
L 965.396548 317.850506 
L 975.670426 317.850506 
L 985.944304 317.850506 
L 996.218182 317.850506 
" style="fill:none;stroke:#2ca02c;stroke-linecap:square;stroke-width:1.5;"/>
   </g>
   <g id="line2d_21">
    <path clip-path="url(#p81dd2b0471)" d="M 184.581818 484.124446 
L 194.855696 482.722707 
L 205.129574 480.389032 
L 215.403452 477.830318 
L 225.67733 474.487149 
L 235.951208 471.130683 
L 246.225086 468.427198 
L 256.498964 464.069576 
L 266.772842 460.003943 
L 277.04672 455.105487 
L 287.320598 447.608355 
L 297.594476 441.667115 
L 307.868354 433.242901 
L 318.142232 428.768206 
L 328.41611 421.747055 
L 338.689988 416.343216 
L 348.963867 410.720715 
L 359.237745 405.224057 
L 369.511623 398.766309 
L 379.785501 391.001012 
L 390.059379 382.644994 
L 400.333257 374.152783 
L 410.607135 368.075226 
L 420.881013 364.97731 
L 431.154891 359.497276 
L 441.428769 359.194917 
L 451.702647 356.12829 
L 461.976525 350.549517 
L 472.250403 347.518832 
L 482.524281 347.048489 
L 492.798159 343.495463 
L 503.072037 339.2232 
L 513.345915 334.073156 
L 523.619793 330.790861 
L 533.893671 327.221769 
L 544.167549 327.327232 
L 554.441427 326.988339 
L 564.715305 323.646008 
L 574.989183 323.163158 
L 585.263061 322.815526 
L 595.536939 321.452671 
L 605.810817 321.511371 
L 616.084695 321.397739 
L 626.358573 321.559174 
L 636.632451 321.513375 
L 646.906329 321.449736 
L 657.180207 321.371444 
L 667.454085 322.038323 
L 677.727963 322.061058 
L 688.001841 322.077058 
L 698.275719 322.021961 
L 708.549597 322.314617 
L 718.823475 322.413443 
L 729.097353 322.773494 
L 739.371231 322.976534 
L 749.645109 322.712155 
L 759.918987 322.590791 
L 770.192865 322.790261 
L 780.466743 322.979393 
L 790.740621 322.895833 
L 801.014499 322.684382 
L 811.288377 322.540568 
L 821.562255 322.392854 
L 831.836133 322.35171 
L 842.110012 322.44011 
L 852.38389 322.475417 
L 862.657768 317.850506 
L 872.931646 317.850506 
L 883.205524 317.850506 
L 893.479402 317.850506 
L 903.75328 317.850506 
L 914.027158 317.850506 
L 924.301036 317.850506 
L 934.574914 317.850506 
L 944.848792 317.850506 
L 955.12267 317.850506 
L 965.396548 317.850506 
L 975.670426 317.850506 
L 985.944304 317.850506 
L 996.218182 317.850506 
" style="fill:none;stroke:#d62728;stroke-dasharray:5.55,2.4;stroke-dashoffset:0;stroke-width:1.5;"/>
   </g>
   <g id="line2d_22">
    <path clip-path="url(#p81dd2b0471)" d="M 184.581818 484.014452 
L 194.855696 482.729585 
L 205.129574 480.428379 
L 215.403452 478.319958 
L 225.67733 473.592613 
L 235.951208 468.817073 
L 246.225086 462.781161 
L 256.498964 457.36828 
L 266.772842 451.106181 
L 277.04672 444.205362 
L 287.320598 435.487052 
L 297.594476 427.122207 
L 307.868354 418.193394 
L 318.142232 413.087238 
L 328.41611 404.529581 
L 338.689988 398.252845 
L 348.963867 393.091876 
L 359.237745 386.130274 
L 369.511623 377.782907 
L 379.785501 376.541428 
L 390.059379 372.017139 
L 400.333257 368.183679 
L 410.607135 361.770285 
L 420.881013 357.636864 
L 431.154891 349.211413 
L 441.428769 347.874733 
L 451.702647 346.469507 
L 461.976525 344.104704 
L 472.250403 342.011102 
L 482.524281 337.010677 
L 492.798159 334.448769 
L 503.072037 331.967267 
L 513.345915 332.231701 
L 523.619793 331.496409 
L 533.893671 331.001468 
L 544.167549 330.002717 
L 554.441427 327.389743 
L 564.715305 326.773252 
L 574.989183 326.973291 
L 585.263061 326.757416 
L 595.536939 326.056304 
L 605.810817 325.65041 
L 616.084695 325.500506 
L 626.358573 322.937131 
L 636.632451 322.96969 
L 646.906329 322.900652 
L 657.180207 322.42849 
L 667.454085 322.182477 
L 677.727963 320.262905 
L 688.001841 320.258163 
L 698.275719 320.247288 
L 708.549597 320.697941 
L 718.823475 320.666258 
L 729.097353 320.836575 
L 739.371231 320.702113 
L 749.645109 320.401682 
L 759.918987 320.063019 
L 770.192865 319.948872 
L 780.466743 320.127665 
L 790.740621 319.927473 
L 801.014499 319.827475 
L 811.288377 319.577573 
L 821.562255 319.553688 
L 831.836133 319.611676 
L 842.110012 319.616068 
L 852.38389 319.511427 
L 862.657768 319.136821 
L 872.931646 319.05129 
L 883.205524 318.779015 
L 893.479402 318.766771 
L 903.75328 317.934175 
L 914.027158 317.916456 
L 924.301036 317.896973 
L 934.574914 317.860341 
L 944.848792 317.865105 
L 955.12267 317.850506 
L 965.396548 317.850506 
L 975.670426 317.850506 
L 985.944304 317.850506 
L 996.218182 317.850506 
" style="fill:none;stroke:#9467bd;stroke-dasharray:5.55,2.4;stroke-dashoffset:0;stroke-width:1.5;"/>
   </g>
   <g id="line2d_23">
    <path clip-path="url(#p81dd2b0471)" d="M 184.581818 484.13659 
L 194.855696 483.361946 
L 205.129574 482.789282 
L 215.403452 482.030924 
L 225.67733 478.221975 
L 235.951208 477.058716 
L 246.225086 472.121668 
L 256.498964 470.332981 
L 266.772842 468.213676 
L 277.04672 458.316099 
L 287.320598 452.6824 
L 297.594476 449.855954 
L 307.868354 447.116602 
L 318.142232 442.124327 
L 328.41611 443.881533 
L 338.689988 444.541145 
L 348.963867 442.427666 
L 359.237745 437.311763 
L 369.511623 436.832127 
L 379.785501 430.048755 
L 390.059379 428.136975 
L 400.333257 415.341793 
L 410.607135 403.146942 
L 420.881013 399.031307 
L 431.154891 396.882653 
L 441.428769 382.696893 
L 451.702647 378.214121 
L 461.976525 375.423853 
L 472.250403 372.530674 
L 482.524281 373.428552 
L 492.798159 365.302196 
L 503.072037 363.342838 
L 513.345915 351.693463 
L 523.619793 348.150983 
L 533.893671 342.130178 
L 544.167549 337.079342 
L 554.441427 341.334477 
L 564.715305 340.020006 
L 574.989183 343.410502 
L 585.263061 334.326978 
L 595.536939 325.229469 
L 605.810817 326.313926 
L 616.084695 326.992445 
L 626.358573 328.770765 
L 636.632451 326.97535 
L 646.906329 321.103605 
L 657.180207 314.145945 
L 667.454085 306.827939 
L 677.727963 305.642005 
L 688.001841 309.244006 
L 698.275719 308.819637 
L 708.549597 306.842307 
L 718.823475 303.948581 
L 729.097353 309.177826 
L 739.371231 305.429174 
L 749.645109 304.87479 
L 759.918987 303.553321 
L 770.192865 302.411992 
L 780.466743 300.986156 
L 790.740621 294.87488 
L 801.014499 297.572926 
L 811.288377 300.149541 
L 821.562255 303.697091 
L 831.836133 306.923019 
L 842.110012 311.329427 
L 852.38389 314.334507 
L 862.657768 313.954711 
L 872.931646 314.597211 
L 883.205524 313.51283 
L 893.479402 318.65695 
L 903.75328 318.954446 
L 914.027158 320.586739 
L 924.301036 319.844526 
L 934.574914 323.703941 
L 944.848792 331.124979 
L 955.12267 331.258893 
L 965.396548 330.592836 
L 975.670426 330.517228 
L 985.944304 328.746179 
L 996.218182 325.466644 
" style="fill:none;stroke:#8c564b;stroke-linecap:square;stroke-width:1.5;"/>
   </g>
   <g id="line2d_24">
    <path clip-path="url(#p81dd2b0471)" d="M 184.581818 484.232727 
L 194.855696 483.313568 
L 205.129574 481.727739 
L 215.403452 479.387923 
L 225.67733 475.883373 
L 235.951208 473.901851 
L 246.225086 471.07238 
L 256.498964 468.238551 
L 266.772842 464.417967 
L 277.04672 458.869528 
L 287.320598 451.763909 
L 297.594476 446.519219 
L 307.868354 439.705484 
L 318.142232 434.610021 
L 328.41611 426.120827 
L 338.689988 422.301473 
L 348.963867 416.312788 
L 359.237745 407.955329 
L 369.511623 403.539448 
L 379.785501 395.827638 
L 390.059379 394.996105 
L 400.333257 391.685566 
L 410.607135 385.559002 
L 420.881013 379.55102 
L 431.154891 377.905706 
L 441.428769 373.529787 
L 451.702647 369.088379 
L 461.976525 365.49757 
L 472.250403 363.181391 
L 482.524281 359.576193 
L 492.798159 357.619922 
L 503.072037 354.407914 
L 513.345915 353.603628 
L 523.619793 352.118292 
L 533.893671 351.534689 
L 544.167549 351.457437 
L 554.441427 351.175109 
L 564.715305 350.849697 
L 574.989183 350.4867 
L 585.263061 349.396767 
L 595.536939 348.282719 
L 605.810817 345.196148 
L 616.084695 344.849951 
L 626.358573 343.116367 
L 636.632451 342.87929 
L 646.906329 342.836371 
L 657.180207 342.631842 
L 667.454085 342.312716 
L 677.727963 342.483264 
L 688.001841 342.373519 
L 698.275719 342.268363 
L 708.549597 342.058358 
L 718.823475 341.602219 
L 729.097353 341.584499 
L 739.371231 341.353007 
L 749.645109 341.189984 
L 759.918987 341.100269 
L 770.192865 341.51464 
L 780.466743 341.504816 
L 790.740621 341.420895 
L 801.014499 341.372282 
L 811.288377 340.055533 
L 821.562255 340.001082 
L 831.836133 339.628349 
L 842.110012 339.580787 
L 852.38389 339.824523 
L 862.657768 339.815576 
L 872.931646 339.844203 
L 883.205524 337.679395 
L 893.479402 337.679395 
L 903.75328 337.679395 
L 914.027158 337.679395 
L 924.301036 337.679395 
L 934.574914 337.679395 
L 944.848792 337.679395 
L 955.12267 337.679395 
L 965.396548 337.679395 
L 975.670426 337.679395 
L 985.944304 337.679395 
L 996.218182 337.679395 
" style="fill:none;stroke:#e377c2;stroke-linecap:square;stroke-width:1.5;"/>
   </g>
   <g id="line2d_25">
    <path clip-path="url(#p81dd2b0471)" d="M 184.581818 484.214163 
L 194.855696 483.083502 
L 205.129574 481.36109 
L 215.403452 479.281749 
L 225.67733 476.16395 
L 235.951208 472.702286 
L 246.225086 468.641743 
L 256.498964 465.475502 
L 266.772842 460.4884 
L 277.04672 455.657659 
L 287.320598 448.981575 
L 297.594476 442.283162 
L 307.868354 435.389316 
L 318.142232 428.356097 
L 328.41611 424.092458 
L 338.689988 414.933763 
L 348.963867 405.372608 
L 359.237745 398.76833 
L 369.511623 394.01406 
L 379.785501 389.318485 
L 390.059379 382.484303 
L 400.333257 378.706444 
L 410.607135 372.705427 
L 420.881013 367.292942 
L 431.154891 365.569116 
L 441.428769 363.521741 
L 451.702647 358.951302 
L 461.976525 358.432433 
L 472.250403 356.220611 
L 482.524281 353.665887 
L 492.798159 351.653534 
L 503.072037 350.524756 
L 513.345915 348.657007 
L 523.619793 346.179896 
L 533.893671 345.990874 
L 544.167549 345.463134 
L 554.441427 344.586152 
L 564.715305 344.622204 
L 574.989183 344.338288 
L 585.263061 342.569901 
L 595.536939 342.008671 
L 605.810817 341.743733 
L 616.084695 341.378655 
L 626.358573 341.343436 
L 636.632451 340.808194 
L 646.906329 340.041844 
L 657.180207 340.347422 
L 667.454085 340.244982 
L 677.727963 340.458273 
L 688.001841 340.25324 
L 698.275719 339.667041 
L 708.549597 339.581762 
L 718.823475 339.612557 
L 729.097353 339.649234 
L 739.371231 339.620442 
L 749.645109 339.797232 
L 759.918987 339.752659 
L 770.192865 337.679395 
L 780.466743 337.679395 
L 790.740621 337.679395 
L 801.014499 337.679395 
L 811.288377 337.679395 
L 821.562255 337.679395 
L 831.836133 337.679395 
L 842.110012 337.679395 
L 852.38389 337.679395 
L 862.657768 337.679395 
L 872.931646 337.679395 
L 883.205524 337.679395 
L 893.479402 337.679395 
L 903.75328 337.679395 
L 914.027158 337.679395 
L 924.301036 337.679395 
L 934.574914 337.679395 
L 944.848792 337.679395 
L 955.12267 337.679395 
L 965.396548 337.679395 
L 975.670426 337.679395 
L 985.944304 337.679395 
L 996.218182 337.679395 
" style="fill:none;stroke:#7f7f7f;stroke-linecap:square;stroke-width:1.5;"/>
   </g>
   <g id="line2d_26">
    <path clip-path="url(#p81dd2b0471)" d="M 184.581818 484.124456 
L 194.855696 483.122793 
L 205.129574 481.248366 
L 215.403452 478.021342 
L 225.67733 476.216376 
L 235.951208 472.097142 
L 246.225086 467.916153 
L 256.498964 463.354481 
L 266.772842 458.71986 
L 277.04672 454.015956 
L 287.320598 447.847086 
L 297.594476 442.085263 
L 307.868354 439.222185 
L 318.142232 433.106966 
L 328.41611 425.817505 
L 338.689988 419.730453 
L 348.963867 413.681601 
L 359.237745 407.951501 
L 369.511623 399.477442 
L 379.785501 393.503487 
L 390.059379 384.667706 
L 400.333257 380.749154 
L 410.607135 377.793891 
L 420.881013 374.211559 
L 431.154891 372.059959 
L 441.428769 366.74469 
L 451.702647 364.63166 
L 461.976525 362.027447 
L 472.250403 361.701082 
L 482.524281 354.914539 
L 492.798159 354.928415 
L 503.072037 352.293275 
L 513.345915 351.611634 
L 523.619793 349.410555 
L 533.893671 347.242396 
L 544.167549 345.402408 
L 554.441427 342.714635 
L 564.715305 340.028965 
L 574.989183 337.679395 
L 585.263061 337.679395 
L 595.536939 337.679395 
L 605.810817 337.679395 
L 616.084695 337.679395 
L 626.358573 337.679395 
L 636.632451 337.679395 
L 646.906329 337.679395 
L 657.180207 337.679395 
L 667.454085 337.679395 
L 677.727963 337.679395 
L 688.001841 337.679395 
L 698.275719 337.679395 
L 708.549597 337.679395 
L 718.823475 337.679395 
L 729.097353 337.679395 
L 739.371231 337.679395 
L 749.645109 337.679395 
L 759.918987 337.679395 
L 770.192865 337.679395 
L 780.466743 337.679395 
L 790.740621 337.679395 
L 801.014499 337.679395 
L 811.288377 337.679395 
L 821.562255 337.679395 
L 831.836133 337.679395 
L 842.110012 337.679395 
L 852.38389 337.679395 
L 862.657768 337.679395 
L 872.931646 337.679395 
L 883.205524 337.679395 
L 893.479402 337.679395 
L 903.75328 337.679395 
L 914.027158 337.679395 
L 924.301036 337.679395 
L 934.574914 337.679395 
L 944.848792 337.679395 
L 955.12267 337.679395 
L 965.396548 337.679395 
L 975.670426 337.679395 
L 985.944304 337.679395 
L 996.218182 337.679395 
" style="fill:none;stroke:#bcbd22;stroke-dasharray:5.55,2.4;stroke-dashoffset:0;stroke-width:1.5;"/>
   </g>
   <g id="line2d_27">
    <path clip-path="url(#p81dd2b0471)" d="M 184.581818 484.232727 
L 194.855696 483.419317 
L 205.129574 481.249693 
L 215.403452 479.595358 
L 225.67733 478.063423 
L 235.951208 474.86315 
L 246.225086 471.072252 
L 256.498964 467.760702 
L 266.772842 463.467507 
L 277.04672 457.735721 
L 287.320598 454.538639 
L 297.594476 448.7558 
L 307.868354 442.093819 
L 318.142232 435.508693 
L 328.41611 430.048054 
L 338.689988 422.469956 
L 348.963867 414.40903 
L 359.237745 406.551094 
L 369.511623 397.026807 
L 379.785501 388.489799 
L 390.059379 382.324204 
L 400.333257 376.536927 
L 410.607135 371.146399 
L 420.881013 367.351335 
L 431.154891 359.40708 
L 441.428769 354.636898 
L 451.702647 350.264035 
L 461.976525 339.532973 
L 472.250403 337.679395 
L 482.524281 337.679395 
L 492.798159 337.679395 
L 503.072037 337.679395 
L 513.345915 337.679395 
L 523.619793 337.679395 
L 533.893671 337.679395 
L 544.167549 337.679395 
L 554.441427 337.679395 
L 564.715305 337.679395 
L 574.989183 337.679395 
L 585.263061 337.679395 
L 595.536939 337.679395 
L 605.810817 337.679395 
L 616.084695 337.679395 
L 626.358573 337.679395 
L 636.632451 337.679395 
L 646.906329 337.679395 
L 657.180207 337.679395 
L 667.454085 337.679395 
L 677.727963 337.679395 
L 688.001841 337.679395 
L 698.275719 337.679395 
L 708.549597 337.679395 
L 718.823475 337.679395 
L 729.097353 337.679395 
L 739.371231 337.679395 
L 749.645109 337.679395 
L 759.918987 337.679395 
L 770.192865 337.679395 
L 780.466743 337.679395 
L 790.740621 337.679395 
L 801.014499 337.679395 
L 811.288377 337.679395 
L 821.562255 337.679395 
L 831.836133 337.679395 
L 842.110012 337.679395 
L 852.38389 337.679395 
L 862.657768 337.679395 
L 872.931646 337.679395 
L 883.205524 337.679395 
L 893.479402 337.679395 
L 903.75328 337.679395 
L 914.027158 337.679395 
L 924.301036 337.679395 
L 934.574914 337.679395 
L 944.848792 337.679395 
L 955.12267 337.679395 
L 965.396548 337.679395 
L 975.670426 337.679395 
L 985.944304 337.679395 
L 996.218182 337.679395 
" style="fill:none;stroke:#17becf;stroke-dasharray:5.55,2.4;stroke-dashoffset:0;stroke-width:1.5;"/>
   </g>
   <g id="line2d_28">
    <path clip-path="url(#p81dd2b0471)" d="M 184.581818 484.070567 
L 194.855696 482.844096 
L 205.129574 480.959159 
L 215.403452 478.822722 
L 225.67733 475.027642 
L 235.951208 470.783458 
L 246.225086 466.362239 
L 256.498964 461.785152 
L 266.772842 455.808225 
L 277.04672 450.521983 
L 287.320598 443.570484 
L 297.594476 436.785688 
L 307.868354 430.180802 
L 318.142232 424.218285 
L 328.41611 416.467471 
L 338.689988 411.14182 
L 348.963867 406.308744 
L 359.237745 400.207549 
L 369.511623 393.288444 
L 379.785501 392.359114 
L 390.059379 388.867909 
L 400.333257 384.999426 
L 410.607135 378.803244 
L 420.881013 374.621735 
L 431.154891 366.425728 
L 441.428769 361.700458 
L 451.702647 359.479436 
L 461.976525 356.570072 
L 472.250403 354.384982 
L 482.524281 352.158736 
L 492.798159 349.035281 
L 503.072037 347.489395 
L 513.345915 347.367527 
L 523.619793 345.690771 
L 533.893671 345.225662 
L 544.167549 344.441001 
L 554.441427 341.704757 
L 564.715305 341.890866 
L 574.989183 340.631076 
L 585.263061 340.499899 
L 595.536939 340.175167 
L 605.810817 340.049137 
L 616.084695 340.055511 
L 626.358573 339.451505 
L 636.632451 339.428069 
L 646.906329 339.423064 
L 657.180207 338.921882 
L 667.454085 338.947541 
L 677.727963 338.592965 
L 688.001841 339.323461 
L 698.275719 339.335058 
L 708.549597 338.975719 
L 718.823475 338.769021 
L 729.097353 338.702382 
L 739.371231 339.00876 
L 749.645109 338.856983 
L 759.918987 339.080546 
L 770.192865 339.333985 
L 780.466743 339.204583 
L 790.740621 339.272985 
L 801.014499 339.180621 
L 811.288377 338.708284 
L 821.562255 339.136147 
L 831.836133 339.183183 
L 842.110012 339.248476 
L 852.38389 338.94523 
L 862.657768 339.231436 
L 872.931646 339.241369 
L 883.205524 339.253974 
L 893.479402 339.227745 
L 903.75328 338.974514 
L 914.027158 339.006438 
L 924.301036 339.111079 
L 934.574914 339.234885 
L 944.848792 339.2278 
L 955.12267 337.679395 
L 965.396548 337.679395 
L 975.670426 337.679395 
L 985.944304 337.679395 
L 996.218182 337.679395 
" style="fill:none;stroke:#1f77b4;stroke-dasharray:5.55,2.4;stroke-dashoffset:0;stroke-width:1.5;"/>
   </g>
   <g id="patch_3">
    <path d="M 144 504 
L 144 69.12 
" style="fill:none;stroke:#000000;stroke-linecap:square;stroke-linejoin:miter;stroke-width:0.8;"/>
   </g>
   <g id="patch_4">
    <path d="M 1036.8 504 
L 1036.8 69.12 
" style="fill:none;stroke:#000000;stroke-linecap:square;stroke-linejoin:miter;stroke-width:0.8;"/>
   </g>
   <g id="patch_5">
    <path d="M 144 504 
L 1036.8 504 
" style="fill:none;stroke:#000000;stroke-linecap:square;stroke-linejoin:miter;stroke-width:0.8;"/>
   </g>
   <g id="patch_6">
    <path d="M 144 69.12 
L 1036.8 69.12 
" style="fill:none;stroke:#000000;stroke-linecap:square;stroke-linejoin:miter;stroke-width:0.8;"/>
   </g>
   <g id="legend_1">
    <g id="patch_7">
     <path d="M 151 240.52625 
L 300.879687 240.52625 
Q 302.879687 240.52625 302.879687 238.52625 
L 302.879687 76.12 
Q 302.879687 74.12 300.879687 74.12 
L 151 74.12 
Q 149 74.12 149 76.12 
L 149 238.52625 
Q 149 240.52625 151 240.52625 
z
" style="fill:#ffffff;opacity:0.8;stroke:#cccccc;stroke-linejoin:miter;"/>
    </g>
    <g id="line2d_29">
     <path d="M 153 82.218437 
L 173 82.218437 
" style="fill:none;stroke:#1f77b4;stroke-linecap:square;stroke-width:1.5;"/>
    </g>
    <g id="line2d_30"/>
    <g id="text_20">
     <!-- taylorfo noBN -->
     <defs>
      <path d="M 32.171875 -5.078125 
Q 28.375 -14.84375 24.75 -17.8125 
Q 21.140625 -20.796875 15.09375 -20.796875 
L 7.90625 -20.796875 
L 7.90625 -13.28125 
L 13.1875 -13.28125 
Q 16.890625 -13.28125 18.9375 -11.515625 
Q 21 -9.765625 23.484375 -3.21875 
L 25.09375 0.875 
L 2.984375 54.6875 
L 12.5 54.6875 
L 29.59375 11.921875 
L 46.6875 54.6875 
L 56.203125 54.6875 
z
" id="DejaVuSans-121"/>
      <path d="M 9.421875 75.984375 
L 18.40625 75.984375 
L 18.40625 0 
L 9.421875 0 
z
" id="DejaVuSans-108"/>
      <path d="M 19.671875 34.8125 
L 19.671875 8.109375 
L 35.5 8.109375 
Q 43.453125 8.109375 47.28125 11.40625 
Q 51.125 14.703125 51.125 21.484375 
Q 51.125 28.328125 47.28125 31.5625 
Q 43.453125 34.8125 35.5 34.8125 
z
M 19.671875 64.796875 
L 19.671875 42.828125 
L 34.28125 42.828125 
Q 41.5 42.828125 45.03125 45.53125 
Q 48.578125 48.25 48.578125 53.8125 
Q 48.578125 59.328125 45.03125 62.0625 
Q 41.5 64.796875 34.28125 64.796875 
z
M 9.8125 72.90625 
L 35.015625 72.90625 
Q 46.296875 72.90625 52.390625 68.21875 
Q 58.5 63.53125 58.5 54.890625 
Q 58.5 48.1875 55.375 44.234375 
Q 52.25 40.28125 46.1875 39.3125 
Q 53.46875 37.75 57.5 32.78125 
Q 61.53125 27.828125 61.53125 20.40625 
Q 61.53125 10.640625 54.890625 5.3125 
Q 48.25 0 35.984375 0 
L 9.8125 0 
z
" id="DejaVuSans-66"/>
     </defs>
     <g transform="translate(181 85.718437)scale(0.1 -0.1)">
      <use xlink:href="#DejaVuSans-116"/>
      <use x="39.208984" xlink:href="#DejaVuSans-97"/>
      <use x="100.488281" xlink:href="#DejaVuSans-121"/>
      <use x="159.667969" xlink:href="#DejaVuSans-108"/>
      <use x="187.451172" xlink:href="#DejaVuSans-111"/>
      <use x="248.632812" xlink:href="#DejaVuSans-114"/>
      <use x="289.746094" xlink:href="#DejaVuSans-102"/>
      <use x="324.951172" xlink:href="#DejaVuSans-111"/>
      <use x="386.132812" xlink:href="#DejaVuSans-32"/>
      <use x="417.919922" xlink:href="#DejaVuSans-110"/>
      <use x="481.298828" xlink:href="#DejaVuSans-111"/>
      <use x="542.480469" xlink:href="#DejaVuSans-66"/>
      <use x="611.083984" xlink:href="#DejaVuSans-78"/>
     </g>
    </g>
    <g id="line2d_31">
     <path d="M 153 96.896563 
L 173 96.896563 
" style="fill:none;stroke:#ff7f0e;stroke-linecap:square;stroke-width:1.5;"/>
    </g>
    <g id="line2d_32"/>
    <g id="text_21">
     <!-- taylorfo_abs noBN -->
     <defs>
      <path d="M 50.984375 -16.609375 
L 50.984375 -23.578125 
L -0.984375 -23.578125 
L -0.984375 -16.609375 
z
" id="DejaVuSans-95"/>
     </defs>
     <g transform="translate(181 100.396563)scale(0.1 -0.1)">
      <use xlink:href="#DejaVuSans-116"/>
      <use x="39.208984" xlink:href="#DejaVuSans-97"/>
      <use x="100.488281" xlink:href="#DejaVuSans-121"/>
      <use x="159.667969" xlink:href="#DejaVuSans-108"/>
      <use x="187.451172" xlink:href="#DejaVuSans-111"/>
      <use x="248.632812" xlink:href="#DejaVuSans-114"/>
      <use x="289.746094" xlink:href="#DejaVuSans-102"/>
      <use x="324.951172" xlink:href="#DejaVuSans-111"/>
      <use x="386.132812" xlink:href="#DejaVuSans-95"/>
      <use x="436.132812" xlink:href="#DejaVuSans-97"/>
      <use x="497.412109" xlink:href="#DejaVuSans-98"/>
      <use x="560.888672" xlink:href="#DejaVuSans-115"/>
      <use x="612.988281" xlink:href="#DejaVuSans-32"/>
      <use x="644.775391" xlink:href="#DejaVuSans-110"/>
      <use x="708.154297" xlink:href="#DejaVuSans-111"/>
      <use x="769.335938" xlink:href="#DejaVuSans-66"/>
      <use x="837.939453" xlink:href="#DejaVuSans-78"/>
     </g>
    </g>
    <g id="line2d_33">
     <path d="M 153 111.852813 
L 173 111.852813 
" style="fill:none;stroke:#2ca02c;stroke-linecap:square;stroke-width:1.5;"/>
    </g>
    <g id="line2d_34"/>
    <g id="text_22">
     <!-- taylorfo_sq noBN -->
     <g transform="translate(181 115.352813)scale(0.1 -0.1)">
      <use xlink:href="#DejaVuSans-116"/>
      <use x="39.208984" xlink:href="#DejaVuSans-97"/>
      <use x="100.488281" xlink:href="#DejaVuSans-121"/>
      <use x="159.667969" xlink:href="#DejaVuSans-108"/>
      <use x="187.451172" xlink:href="#DejaVuSans-111"/>
      <use x="248.632812" xlink:href="#DejaVuSans-114"/>
      <use x="289.746094" xlink:href="#DejaVuSans-102"/>
      <use x="324.951172" xlink:href="#DejaVuSans-111"/>
      <use x="386.132812" xlink:href="#DejaVuSans-95"/>
      <use x="436.132812" xlink:href="#DejaVuSans-115"/>
      <use x="488.232422" xlink:href="#DejaVuSans-113"/>
      <use x="551.708984" xlink:href="#DejaVuSans-32"/>
      <use x="583.496094" xlink:href="#DejaVuSans-110"/>
      <use x="646.875" xlink:href="#DejaVuSans-111"/>
      <use x="708.056641" xlink:href="#DejaVuSans-66"/>
      <use x="776.660156" xlink:href="#DejaVuSans-78"/>
     </g>
    </g>
    <g id="line2d_35">
     <path d="M 153 126.809062 
L 173 126.809062 
" style="fill:none;stroke:#d62728;stroke-dasharray:5.55,2.4;stroke-dashoffset:0;stroke-width:1.5;"/>
    </g>
    <g id="line2d_36"/>
    <g id="text_23">
     <!-- Molchanov_group noBN -->
     <defs>
      <path d="M 9.8125 72.90625 
L 24.515625 72.90625 
L 43.109375 23.296875 
L 61.8125 72.90625 
L 76.515625 72.90625 
L 76.515625 0 
L 66.890625 0 
L 66.890625 64.015625 
L 48.09375 14.015625 
L 38.1875 14.015625 
L 19.390625 64.015625 
L 19.390625 0 
L 9.8125 0 
z
" id="DejaVuSans-77"/>
      <path d="M 48.78125 52.59375 
L 48.78125 44.1875 
Q 44.96875 46.296875 41.140625 47.34375 
Q 37.3125 48.390625 33.40625 48.390625 
Q 24.65625 48.390625 19.8125 42.84375 
Q 14.984375 37.3125 14.984375 27.296875 
Q 14.984375 17.28125 19.8125 11.734375 
Q 24.65625 6.203125 33.40625 6.203125 
Q 37.3125 6.203125 41.140625 7.25 
Q 44.96875 8.296875 48.78125 10.40625 
L 48.78125 2.09375 
Q 45.015625 0.34375 40.984375 -0.53125 
Q 36.96875 -1.421875 32.421875 -1.421875 
Q 20.0625 -1.421875 12.78125 6.34375 
Q 5.515625 14.109375 5.515625 27.296875 
Q 5.515625 40.671875 12.859375 48.328125 
Q 20.21875 56 33.015625 56 
Q 37.15625 56 41.109375 55.140625 
Q 45.0625 54.296875 48.78125 52.59375 
z
" id="DejaVuSans-99"/>
      <path d="M 54.890625 33.015625 
L 54.890625 0 
L 45.90625 0 
L 45.90625 32.71875 
Q 45.90625 40.484375 42.875 44.328125 
Q 39.84375 48.1875 33.796875 48.1875 
Q 26.515625 48.1875 22.3125 43.546875 
Q 18.109375 38.921875 18.109375 30.90625 
L 18.109375 0 
L 9.078125 0 
L 9.078125 75.984375 
L 18.109375 75.984375 
L 18.109375 46.1875 
Q 21.34375 51.125 25.703125 53.5625 
Q 30.078125 56 35.796875 56 
Q 45.21875 56 50.046875 50.171875 
Q 54.890625 44.34375 54.890625 33.015625 
z
" id="DejaVuSans-104"/>
      <path d="M 45.40625 27.984375 
Q 45.40625 37.75 41.375 43.109375 
Q 37.359375 48.484375 30.078125 48.484375 
Q 22.859375 48.484375 18.828125 43.109375 
Q 14.796875 37.75 14.796875 27.984375 
Q 14.796875 18.265625 18.828125 12.890625 
Q 22.859375 7.515625 30.078125 7.515625 
Q 37.359375 7.515625 41.375 12.890625 
Q 45.40625 18.265625 45.40625 27.984375 
z
M 54.390625 6.78125 
Q 54.390625 -7.171875 48.1875 -13.984375 
Q 42 -20.796875 29.203125 -20.796875 
Q 24.46875 -20.796875 20.265625 -20.09375 
Q 16.0625 -19.390625 12.109375 -17.921875 
L 12.109375 -9.1875 
Q 16.0625 -11.328125 19.921875 -12.34375 
Q 23.78125 -13.375 27.78125 -13.375 
Q 36.625 -13.375 41.015625 -8.765625 
Q 45.40625 -4.15625 45.40625 5.171875 
L 45.40625 9.625 
Q 42.625 4.78125 38.28125 2.390625 
Q 33.9375 0 27.875 0 
Q 17.828125 0 11.671875 7.65625 
Q 5.515625 15.328125 5.515625 27.984375 
Q 5.515625 40.671875 11.671875 48.328125 
Q 17.828125 56 27.875 56 
Q 33.9375 56 38.28125 53.609375 
Q 42.625 51.21875 45.40625 46.390625 
L 45.40625 54.6875 
L 54.390625 54.6875 
z
" id="DejaVuSans-103"/>
     </defs>
     <g transform="translate(181 130.309062)scale(0.1 -0.1)">
      <use xlink:href="#DejaVuSans-77"/>
      <use x="86.279297" xlink:href="#DejaVuSans-111"/>
      <use x="147.460938" xlink:href="#DejaVuSans-108"/>
      <use x="175.244141" xlink:href="#DejaVuSans-99"/>
      <use x="230.224609" xlink:href="#DejaVuSans-104"/>
      <use x="293.603516" xlink:href="#DejaVuSans-97"/>
      <use x="354.882812" xlink:href="#DejaVuSans-110"/>
      <use x="418.261719" xlink:href="#DejaVuSans-111"/>
      <use x="479.443359" xlink:href="#DejaVuSans-118"/>
      <use x="538.623047" xlink:href="#DejaVuSans-95"/>
      <use x="588.623047" xlink:href="#DejaVuSans-103"/>
      <use x="652.099609" xlink:href="#DejaVuSans-114"/>
      <use x="690.962891" xlink:href="#DejaVuSans-111"/>
      <use x="752.144531" xlink:href="#DejaVuSans-117"/>
      <use x="815.523438" xlink:href="#DejaVuSans-112"/>
      <use x="879" xlink:href="#DejaVuSans-32"/>
      <use x="910.787109" xlink:href="#DejaVuSans-110"/>
      <use x="974.166016" xlink:href="#DejaVuSans-111"/>
      <use x="1035.347656" xlink:href="#DejaVuSans-66"/>
      <use x="1103.951172" xlink:href="#DejaVuSans-78"/>
     </g>
    </g>
    <g id="line2d_37">
     <path d="M 153 141.765312 
L 173 141.765312 
" style="fill:none;stroke:#9467bd;stroke-dasharray:5.55,2.4;stroke-dashoffset:0;stroke-width:1.5;"/>
    </g>
    <g id="line2d_38"/>
    <g id="text_24">
     <!-- APnZ noBN -->
     <defs>
      <path d="M 34.1875 63.1875 
L 20.796875 26.90625 
L 47.609375 26.90625 
z
M 28.609375 72.90625 
L 39.796875 72.90625 
L 67.578125 0 
L 57.328125 0 
L 50.6875 18.703125 
L 17.828125 18.703125 
L 11.1875 0 
L 0.78125 0 
z
" id="DejaVuSans-65"/>
      <path d="M 19.671875 64.796875 
L 19.671875 37.40625 
L 32.078125 37.40625 
Q 38.96875 37.40625 42.71875 40.96875 
Q 46.484375 44.53125 46.484375 51.125 
Q 46.484375 57.671875 42.71875 61.234375 
Q 38.96875 64.796875 32.078125 64.796875 
z
M 9.8125 72.90625 
L 32.078125 72.90625 
Q 44.34375 72.90625 50.609375 67.359375 
Q 56.890625 61.8125 56.890625 51.125 
Q 56.890625 40.328125 50.609375 34.8125 
Q 44.34375 29.296875 32.078125 29.296875 
L 19.671875 29.296875 
L 19.671875 0 
L 9.8125 0 
z
" id="DejaVuSans-80"/>
      <path d="M 5.609375 72.90625 
L 62.890625 72.90625 
L 62.890625 65.375 
L 16.796875 8.296875 
L 64.015625 8.296875 
L 64.015625 0 
L 4.5 0 
L 4.5 7.515625 
L 50.59375 64.59375 
L 5.609375 64.59375 
z
" id="DejaVuSans-90"/>
     </defs>
     <g transform="translate(181 145.265312)scale(0.1 -0.1)">
      <use xlink:href="#DejaVuSans-65"/>
      <use x="68.408203" xlink:href="#DejaVuSans-80"/>
      <use x="126.960938" xlink:href="#DejaVuSans-110"/>
      <use x="190.339844" xlink:href="#DejaVuSans-90"/>
      <use x="258.845703" xlink:href="#DejaVuSans-32"/>
      <use x="290.632812" xlink:href="#DejaVuSans-110"/>
      <use x="354.011719" xlink:href="#DejaVuSans-111"/>
      <use x="415.193359" xlink:href="#DejaVuSans-66"/>
      <use x="483.796875" xlink:href="#DejaVuSans-78"/>
     </g>
    </g>
    <g id="line2d_39">
     <path d="M 153 156.443438 
L 173 156.443438 
" style="fill:none;stroke:#8c564b;stroke-linecap:square;stroke-width:1.5;"/>
    </g>
    <g id="line2d_40"/>
    <g id="text_25">
     <!-- taylorfo BN -->
     <g transform="translate(181 159.943438)scale(0.1 -0.1)">
      <use xlink:href="#DejaVuSans-116"/>
      <use x="39.208984" xlink:href="#DejaVuSans-97"/>
      <use x="100.488281" xlink:href="#DejaVuSans-121"/>
      <use x="159.667969" xlink:href="#DejaVuSans-108"/>
      <use x="187.451172" xlink:href="#DejaVuSans-111"/>
      <use x="248.632812" xlink:href="#DejaVuSans-114"/>
      <use x="289.746094" xlink:href="#DejaVuSans-102"/>
      <use x="324.951172" xlink:href="#DejaVuSans-111"/>
      <use x="386.132812" xlink:href="#DejaVuSans-32"/>
      <use x="417.919922" xlink:href="#DejaVuSans-66"/>
      <use x="486.523438" xlink:href="#DejaVuSans-78"/>
     </g>
    </g>
    <g id="line2d_41">
     <path d="M 153 171.121562 
L 173 171.121562 
" style="fill:none;stroke:#e377c2;stroke-linecap:square;stroke-width:1.5;"/>
    </g>
    <g id="line2d_42"/>
    <g id="text_26">
     <!-- taylorfo_abs BN -->
     <g transform="translate(181 174.621562)scale(0.1 -0.1)">
      <use xlink:href="#DejaVuSans-116"/>
      <use x="39.208984" xlink:href="#DejaVuSans-97"/>
      <use x="100.488281" xlink:href="#DejaVuSans-121"/>
      <use x="159.667969" xlink:href="#DejaVuSans-108"/>
      <use x="187.451172" xlink:href="#DejaVuSans-111"/>
      <use x="248.632812" xlink:href="#DejaVuSans-114"/>
      <use x="289.746094" xlink:href="#DejaVuSans-102"/>
      <use x="324.951172" xlink:href="#DejaVuSans-111"/>
      <use x="386.132812" xlink:href="#DejaVuSans-95"/>
      <use x="436.132812" xlink:href="#DejaVuSans-97"/>
      <use x="497.412109" xlink:href="#DejaVuSans-98"/>
      <use x="560.888672" xlink:href="#DejaVuSans-115"/>
      <use x="612.988281" xlink:href="#DejaVuSans-32"/>
      <use x="644.775391" xlink:href="#DejaVuSans-66"/>
      <use x="713.378906" xlink:href="#DejaVuSans-78"/>
     </g>
    </g>
    <g id="line2d_43">
     <path d="M 153 186.077812 
L 173 186.077812 
" style="fill:none;stroke:#7f7f7f;stroke-linecap:square;stroke-width:1.5;"/>
    </g>
    <g id="line2d_44"/>
    <g id="text_27">
     <!-- taylorfo_sq BN -->
     <g transform="translate(181 189.577812)scale(0.1 -0.1)">
      <use xlink:href="#DejaVuSans-116"/>
      <use x="39.208984" xlink:href="#DejaVuSans-97"/>
      <use x="100.488281" xlink:href="#DejaVuSans-121"/>
      <use x="159.667969" xlink:href="#DejaVuSans-108"/>
      <use x="187.451172" xlink:href="#DejaVuSans-111"/>
      <use x="248.632812" xlink:href="#DejaVuSans-114"/>
      <use x="289.746094" xlink:href="#DejaVuSans-102"/>
      <use x="324.951172" xlink:href="#DejaVuSans-111"/>
      <use x="386.132812" xlink:href="#DejaVuSans-95"/>
      <use x="436.132812" xlink:href="#DejaVuSans-115"/>
      <use x="488.232422" xlink:href="#DejaVuSans-113"/>
      <use x="551.708984" xlink:href="#DejaVuSans-32"/>
      <use x="583.496094" xlink:href="#DejaVuSans-66"/>
      <use x="652.099609" xlink:href="#DejaVuSans-78"/>
     </g>
    </g>
    <g id="line2d_45">
     <path d="M 153 201.034063 
L 173 201.034063 
" style="fill:none;stroke:#bcbd22;stroke-dasharray:5.55,2.4;stroke-dashoffset:0;stroke-width:1.5;"/>
    </g>
    <g id="line2d_46"/>
    <g id="text_28">
     <!-- Molchanov_group BN -->
     <g transform="translate(181 204.534063)scale(0.1 -0.1)">
      <use xlink:href="#DejaVuSans-77"/>
      <use x="86.279297" xlink:href="#DejaVuSans-111"/>
      <use x="147.460938" xlink:href="#DejaVuSans-108"/>
      <use x="175.244141" xlink:href="#DejaVuSans-99"/>
      <use x="230.224609" xlink:href="#DejaVuSans-104"/>
      <use x="293.603516" xlink:href="#DejaVuSans-97"/>
      <use x="354.882812" xlink:href="#DejaVuSans-110"/>
      <use x="418.261719" xlink:href="#DejaVuSans-111"/>
      <use x="479.443359" xlink:href="#DejaVuSans-118"/>
      <use x="538.623047" xlink:href="#DejaVuSans-95"/>
      <use x="588.623047" xlink:href="#DejaVuSans-103"/>
      <use x="652.099609" xlink:href="#DejaVuSans-114"/>
      <use x="690.962891" xlink:href="#DejaVuSans-111"/>
      <use x="752.144531" xlink:href="#DejaVuSans-117"/>
      <use x="815.523438" xlink:href="#DejaVuSans-112"/>
      <use x="879" xlink:href="#DejaVuSans-32"/>
      <use x="910.787109" xlink:href="#DejaVuSans-66"/>
      <use x="979.390625" xlink:href="#DejaVuSans-78"/>
     </g>
    </g>
    <g id="line2d_47">
     <path d="M 153 215.990312 
L 173 215.990312 
" style="fill:none;stroke:#17becf;stroke-dasharray:5.55,2.4;stroke-dashoffset:0;stroke-width:1.5;"/>
    </g>
    <g id="line2d_48"/>
    <g id="text_29">
     <!-- Molchanov_BN BN -->
     <g transform="translate(181 219.490312)scale(0.1 -0.1)">
      <use xlink:href="#DejaVuSans-77"/>
      <use x="86.279297" xlink:href="#DejaVuSans-111"/>
      <use x="147.460938" xlink:href="#DejaVuSans-108"/>
      <use x="175.244141" xlink:href="#DejaVuSans-99"/>
      <use x="230.224609" xlink:href="#DejaVuSans-104"/>
      <use x="293.603516" xlink:href="#DejaVuSans-97"/>
      <use x="354.882812" xlink:href="#DejaVuSans-110"/>
      <use x="418.261719" xlink:href="#DejaVuSans-111"/>
      <use x="479.443359" xlink:href="#DejaVuSans-118"/>
      <use x="538.623047" xlink:href="#DejaVuSans-95"/>
      <use x="588.623047" xlink:href="#DejaVuSans-66"/>
      <use x="657.226562" xlink:href="#DejaVuSans-78"/>
      <use x="732.03125" xlink:href="#DejaVuSans-32"/>
      <use x="763.818359" xlink:href="#DejaVuSans-66"/>
      <use x="832.421875" xlink:href="#DejaVuSans-78"/>
     </g>
    </g>
    <g id="line2d_49">
     <path d="M 153 230.946563 
L 173 230.946563 
" style="fill:none;stroke:#1f77b4;stroke-dasharray:5.55,2.4;stroke-dashoffset:0;stroke-width:1.5;"/>
    </g>
    <g id="line2d_50"/>
    <g id="text_30">
     <!-- APnZ BN -->
     <g transform="translate(181 234.446563)scale(0.1 -0.1)">
      <use xlink:href="#DejaVuSans-65"/>
      <use x="68.408203" xlink:href="#DejaVuSans-80"/>
      <use x="126.960938" xlink:href="#DejaVuSans-110"/>
      <use x="190.339844" xlink:href="#DejaVuSans-90"/>
      <use x="258.845703" xlink:href="#DejaVuSans-32"/>
      <use x="290.632812" xlink:href="#DejaVuSans-66"/>
      <use x="359.236328" xlink:href="#DejaVuSans-78"/>
     </g>
    </g>
   </g>
  </g>
 </g>
 <defs>
  <clipPath id="p81dd2b0471">
   <rect height="434.88" width="892.8" x="144" y="69.12"/>
  </clipPath>
 </defs>
</svg>
