<?xml version="1.0" encoding="utf-8" standalone="no"?>
<!DOCTYPE svg PUBLIC "-//W3C//DTD SVG 1.1//EN"
  "http://www.w3.org/Graphics/SVG/1.1/DTD/svg11.dtd">
<!-- Created with matplotlib (https://matplotlib.org/) -->
<svg height="576pt" version="1.1" viewBox="0 0 1152 576" width="1152pt" xmlns="http://www.w3.org/2000/svg" xmlns:xlink="http://www.w3.org/1999/xlink">
 <defs>
  <style type="text/css">
*{stroke-linecap:butt;stroke-linejoin:round;}
  </style>
 </defs>
 <g id="figure_1">
  <g id="patch_1">
   <path d="M 0 576 
L 1152 576 
L 1152 0 
L 0 0 
z
" style="fill:#ffffff;"/>
  </g>
  <g id="axes_1">
   <g id="patch_2">
    <path d="M 144 504 
L 1036.8 504 
L 1036.8 69.12 
L 144 69.12 
z
" style="fill:#ffffff;"/>
   </g>
   <g id="matplotlib.axis_1">
    <g id="xtick_1">
     <g id="line2d_1">
      <defs>
       <path d="M 0 0 
L 0 3.5 
" id="mf3af44978d" style="stroke:#000000;stroke-width:0.8;"/>
      </defs>
      <g>
       <use style="stroke:#000000;stroke-width:0.8;" x="182.527043" xlink:href="#mf3af44978d" y="504"/>
      </g>
     </g>
     <g id="text_1">
      <!-- 0 -->
      <defs>
       <path d="M 31.78125 66.40625 
Q 24.171875 66.40625 20.328125 58.90625 
Q 16.5 51.421875 16.5 36.375 
Q 16.5 21.390625 20.328125 13.890625 
Q 24.171875 6.390625 31.78125 6.390625 
Q 39.453125 6.390625 43.28125 13.890625 
Q 47.125 21.390625 47.125 36.375 
Q 47.125 51.421875 43.28125 58.90625 
Q 39.453125 66.40625 31.78125 66.40625 
z
M 31.78125 74.21875 
Q 44.046875 74.21875 50.515625 64.515625 
Q 56.984375 54.828125 56.984375 36.375 
Q 56.984375 17.96875 50.515625 8.265625 
Q 44.046875 -1.421875 31.78125 -1.421875 
Q 19.53125 -1.421875 13.0625 8.265625 
Q 6.59375 17.96875 6.59375 36.375 
Q 6.59375 54.828125 13.0625 64.515625 
Q 19.53125 74.21875 31.78125 74.21875 
z
" id="DejaVuSans-48"/>
      </defs>
      <g transform="translate(179.345793 518.598438)scale(0.1 -0.1)">
       <use xlink:href="#DejaVuSans-48"/>
      </g>
     </g>
    </g>
    <g id="xtick_2">
     <g id="line2d_2">
      <g>
       <use style="stroke:#000000;stroke-width:0.8;" x="285.265823" xlink:href="#mf3af44978d" y="504"/>
      </g>
     </g>
     <g id="text_2">
      <!-- 50 -->
      <defs>
       <path d="M 10.796875 72.90625 
L 49.515625 72.90625 
L 49.515625 64.59375 
L 19.828125 64.59375 
L 19.828125 46.734375 
Q 21.96875 47.46875 24.109375 47.828125 
Q 26.265625 48.1875 28.421875 48.1875 
Q 40.625 48.1875 47.75 41.5 
Q 54.890625 34.8125 54.890625 23.390625 
Q 54.890625 11.625 47.5625 5.09375 
Q 40.234375 -1.421875 26.90625 -1.421875 
Q 22.3125 -1.421875 17.546875 -0.640625 
Q 12.796875 0.140625 7.71875 1.703125 
L 7.71875 11.625 
Q 12.109375 9.234375 16.796875 8.0625 
Q 21.484375 6.890625 26.703125 6.890625 
Q 35.15625 6.890625 40.078125 11.328125 
Q 45.015625 15.765625 45.015625 23.390625 
Q 45.015625 31 40.078125 35.4375 
Q 35.15625 39.890625 26.703125 39.890625 
Q 22.75 39.890625 18.8125 39.015625 
Q 14.890625 38.140625 10.796875 36.28125 
z
" id="DejaVuSans-53"/>
      </defs>
      <g transform="translate(278.903323 518.598438)scale(0.1 -0.1)">
       <use xlink:href="#DejaVuSans-53"/>
       <use x="63.623047" xlink:href="#DejaVuSans-48"/>
      </g>
     </g>
    </g>
    <g id="xtick_3">
     <g id="line2d_3">
      <g>
       <use style="stroke:#000000;stroke-width:0.8;" x="388.004603" xlink:href="#mf3af44978d" y="504"/>
      </g>
     </g>
     <g id="text_3">
      <!-- 100 -->
      <defs>
       <path d="M 12.40625 8.296875 
L 28.515625 8.296875 
L 28.515625 63.921875 
L 10.984375 60.40625 
L 10.984375 69.390625 
L 28.421875 72.90625 
L 38.28125 72.90625 
L 38.28125 8.296875 
L 54.390625 8.296875 
L 54.390625 0 
L 12.40625 0 
z
" id="DejaVuSans-49"/>
      </defs>
      <g transform="translate(378.460853 518.598438)scale(0.1 -0.1)">
       <use xlink:href="#DejaVuSans-49"/>
       <use x="63.623047" xlink:href="#DejaVuSans-48"/>
       <use x="127.246094" xlink:href="#DejaVuSans-48"/>
      </g>
     </g>
    </g>
    <g id="xtick_4">
     <g id="line2d_4">
      <g>
       <use style="stroke:#000000;stroke-width:0.8;" x="490.743383" xlink:href="#mf3af44978d" y="504"/>
      </g>
     </g>
     <g id="text_4">
      <!-- 150 -->
      <g transform="translate(481.199633 518.598438)scale(0.1 -0.1)">
       <use xlink:href="#DejaVuSans-49"/>
       <use x="63.623047" xlink:href="#DejaVuSans-53"/>
       <use x="127.246094" xlink:href="#DejaVuSans-48"/>
      </g>
     </g>
    </g>
    <g id="xtick_5">
     <g id="line2d_5">
      <g>
       <use style="stroke:#000000;stroke-width:0.8;" x="593.482163" xlink:href="#mf3af44978d" y="504"/>
      </g>
     </g>
     <g id="text_5">
      <!-- 200 -->
      <defs>
       <path d="M 19.1875 8.296875 
L 53.609375 8.296875 
L 53.609375 0 
L 7.328125 0 
L 7.328125 8.296875 
Q 12.9375 14.109375 22.625 23.890625 
Q 32.328125 33.6875 34.8125 36.53125 
Q 39.546875 41.84375 41.421875 45.53125 
Q 43.3125 49.21875 43.3125 52.78125 
Q 43.3125 58.59375 39.234375 62.25 
Q 35.15625 65.921875 28.609375 65.921875 
Q 23.96875 65.921875 18.8125 64.3125 
Q 13.671875 62.703125 7.8125 59.421875 
L 7.8125 69.390625 
Q 13.765625 71.78125 18.9375 73 
Q 24.125 74.21875 28.421875 74.21875 
Q 39.75 74.21875 46.484375 68.546875 
Q 53.21875 62.890625 53.21875 53.421875 
Q 53.21875 48.921875 51.53125 44.890625 
Q 49.859375 40.875 45.40625 35.40625 
Q 44.1875 33.984375 37.640625 27.21875 
Q 31.109375 20.453125 19.1875 8.296875 
z
" id="DejaVuSans-50"/>
      </defs>
      <g transform="translate(583.938413 518.598438)scale(0.1 -0.1)">
       <use xlink:href="#DejaVuSans-50"/>
       <use x="63.623047" xlink:href="#DejaVuSans-48"/>
       <use x="127.246094" xlink:href="#DejaVuSans-48"/>
      </g>
     </g>
    </g>
    <g id="xtick_6">
     <g id="line2d_6">
      <g>
       <use style="stroke:#000000;stroke-width:0.8;" x="696.220944" xlink:href="#mf3af44978d" y="504"/>
      </g>
     </g>
     <g id="text_6">
      <!-- 250 -->
      <g transform="translate(686.677194 518.598438)scale(0.1 -0.1)">
       <use xlink:href="#DejaVuSans-50"/>
       <use x="63.623047" xlink:href="#DejaVuSans-53"/>
       <use x="127.246094" xlink:href="#DejaVuSans-48"/>
      </g>
     </g>
    </g>
    <g id="xtick_7">
     <g id="line2d_7">
      <g>
       <use style="stroke:#000000;stroke-width:0.8;" x="798.959724" xlink:href="#mf3af44978d" y="504"/>
      </g>
     </g>
     <g id="text_7">
      <!-- 300 -->
      <defs>
       <path d="M 40.578125 39.3125 
Q 47.65625 37.796875 51.625 33 
Q 55.609375 28.21875 55.609375 21.1875 
Q 55.609375 10.40625 48.1875 4.484375 
Q 40.765625 -1.421875 27.09375 -1.421875 
Q 22.515625 -1.421875 17.65625 -0.515625 
Q 12.796875 0.390625 7.625 2.203125 
L 7.625 11.71875 
Q 11.71875 9.328125 16.59375 8.109375 
Q 21.484375 6.890625 26.8125 6.890625 
Q 36.078125 6.890625 40.9375 10.546875 
Q 45.796875 14.203125 45.796875 21.1875 
Q 45.796875 27.640625 41.28125 31.265625 
Q 36.765625 34.90625 28.71875 34.90625 
L 20.21875 34.90625 
L 20.21875 43.015625 
L 29.109375 43.015625 
Q 36.375 43.015625 40.234375 45.921875 
Q 44.09375 48.828125 44.09375 54.296875 
Q 44.09375 59.90625 40.109375 62.90625 
Q 36.140625 65.921875 28.71875 65.921875 
Q 24.65625 65.921875 20.015625 65.03125 
Q 15.375 64.15625 9.8125 62.3125 
L 9.8125 71.09375 
Q 15.4375 72.65625 20.34375 73.4375 
Q 25.25 74.21875 29.59375 74.21875 
Q 40.828125 74.21875 47.359375 69.109375 
Q 53.90625 64.015625 53.90625 55.328125 
Q 53.90625 49.265625 50.4375 45.09375 
Q 46.96875 40.921875 40.578125 39.3125 
z
" id="DejaVuSans-51"/>
      </defs>
      <g transform="translate(789.415974 518.598438)scale(0.1 -0.1)">
       <use xlink:href="#DejaVuSans-51"/>
       <use x="63.623047" xlink:href="#DejaVuSans-48"/>
       <use x="127.246094" xlink:href="#DejaVuSans-48"/>
      </g>
     </g>
    </g>
    <g id="xtick_8">
     <g id="line2d_8">
      <g>
       <use style="stroke:#000000;stroke-width:0.8;" x="901.698504" xlink:href="#mf3af44978d" y="504"/>
      </g>
     </g>
     <g id="text_8">
      <!-- 350 -->
      <g transform="translate(892.154754 518.598438)scale(0.1 -0.1)">
       <use xlink:href="#DejaVuSans-51"/>
       <use x="63.623047" xlink:href="#DejaVuSans-53"/>
       <use x="127.246094" xlink:href="#DejaVuSans-48"/>
      </g>
     </g>
    </g>
    <g id="xtick_9">
     <g id="line2d_9">
      <g>
       <use style="stroke:#000000;stroke-width:0.8;" x="1004.437284" xlink:href="#mf3af44978d" y="504"/>
      </g>
     </g>
     <g id="text_9">
      <!-- 400 -->
      <defs>
       <path d="M 37.796875 64.3125 
L 12.890625 25.390625 
L 37.796875 25.390625 
z
M 35.203125 72.90625 
L 47.609375 72.90625 
L 47.609375 25.390625 
L 58.015625 25.390625 
L 58.015625 17.1875 
L 47.609375 17.1875 
L 47.609375 0 
L 37.796875 0 
L 37.796875 17.1875 
L 4.890625 17.1875 
L 4.890625 26.703125 
z
" id="DejaVuSans-52"/>
      </defs>
      <g transform="translate(994.893534 518.598438)scale(0.1 -0.1)">
       <use xlink:href="#DejaVuSans-52"/>
       <use x="63.623047" xlink:href="#DejaVuSans-48"/>
       <use x="127.246094" xlink:href="#DejaVuSans-48"/>
      </g>
     </g>
    </g>
    <g id="text_10">
     <!-- Number of Neurons pruned -->
     <defs>
      <path d="M 9.8125 72.90625 
L 23.09375 72.90625 
L 55.421875 11.921875 
L 55.421875 72.90625 
L 64.984375 72.90625 
L 64.984375 0 
L 51.703125 0 
L 19.390625 60.984375 
L 19.390625 0 
L 9.8125 0 
z
" id="DejaVuSans-78"/>
      <path d="M 8.5 21.578125 
L 8.5 54.6875 
L 17.484375 54.6875 
L 17.484375 21.921875 
Q 17.484375 14.15625 20.5 10.265625 
Q 23.53125 6.390625 29.59375 6.390625 
Q 36.859375 6.390625 41.078125 11.03125 
Q 45.3125 15.671875 45.3125 23.6875 
L 45.3125 54.6875 
L 54.296875 54.6875 
L 54.296875 0 
L 45.3125 0 
L 45.3125 8.40625 
Q 42.046875 3.421875 37.71875 1 
Q 33.40625 -1.421875 27.6875 -1.421875 
Q 18.265625 -1.421875 13.375 4.4375 
Q 8.5 10.296875 8.5 21.578125 
z
M 31.109375 56 
z
" id="DejaVuSans-117"/>
      <path d="M 52 44.1875 
Q 55.375 50.25 60.0625 53.125 
Q 64.75 56 71.09375 56 
Q 79.640625 56 84.28125 50.015625 
Q 88.921875 44.046875 88.921875 33.015625 
L 88.921875 0 
L 79.890625 0 
L 79.890625 32.71875 
Q 79.890625 40.578125 77.09375 44.375 
Q 74.3125 48.1875 68.609375 48.1875 
Q 61.625 48.1875 57.5625 43.546875 
Q 53.515625 38.921875 53.515625 30.90625 
L 53.515625 0 
L 44.484375 0 
L 44.484375 32.71875 
Q 44.484375 40.625 41.703125 44.40625 
Q 38.921875 48.1875 33.109375 48.1875 
Q 26.21875 48.1875 22.15625 43.53125 
Q 18.109375 38.875 18.109375 30.90625 
L 18.109375 0 
L 9.078125 0 
L 9.078125 54.6875 
L 18.109375 54.6875 
L 18.109375 46.1875 
Q 21.1875 51.21875 25.484375 53.609375 
Q 29.78125 56 35.6875 56 
Q 41.65625 56 45.828125 52.96875 
Q 50 49.953125 52 44.1875 
z
" id="DejaVuSans-109"/>
      <path d="M 48.6875 27.296875 
Q 48.6875 37.203125 44.609375 42.84375 
Q 40.53125 48.484375 33.40625 48.484375 
Q 26.265625 48.484375 22.1875 42.84375 
Q 18.109375 37.203125 18.109375 27.296875 
Q 18.109375 17.390625 22.1875 11.75 
Q 26.265625 6.109375 33.40625 6.109375 
Q 40.53125 6.109375 44.609375 11.75 
Q 48.6875 17.390625 48.6875 27.296875 
z
M 18.109375 46.390625 
Q 20.953125 51.265625 25.265625 53.625 
Q 29.59375 56 35.59375 56 
Q 45.5625 56 51.78125 48.09375 
Q 58.015625 40.1875 58.015625 27.296875 
Q 58.015625 14.40625 51.78125 6.484375 
Q 45.5625 -1.421875 35.59375 -1.421875 
Q 29.59375 -1.421875 25.265625 0.953125 
Q 20.953125 3.328125 18.109375 8.203125 
L 18.109375 0 
L 9.078125 0 
L 9.078125 75.984375 
L 18.109375 75.984375 
z
" id="DejaVuSans-98"/>
      <path d="M 56.203125 29.59375 
L 56.203125 25.203125 
L 14.890625 25.203125 
Q 15.484375 15.921875 20.484375 11.0625 
Q 25.484375 6.203125 34.421875 6.203125 
Q 39.59375 6.203125 44.453125 7.46875 
Q 49.3125 8.734375 54.109375 11.28125 
L 54.109375 2.78125 
Q 49.265625 0.734375 44.1875 -0.34375 
Q 39.109375 -1.421875 33.890625 -1.421875 
Q 20.796875 -1.421875 13.15625 6.1875 
Q 5.515625 13.8125 5.515625 26.8125 
Q 5.515625 40.234375 12.765625 48.109375 
Q 20.015625 56 32.328125 56 
Q 43.359375 56 49.78125 48.890625 
Q 56.203125 41.796875 56.203125 29.59375 
z
M 47.21875 32.234375 
Q 47.125 39.59375 43.09375 43.984375 
Q 39.0625 48.390625 32.421875 48.390625 
Q 24.90625 48.390625 20.390625 44.140625 
Q 15.875 39.890625 15.1875 32.171875 
z
" id="DejaVuSans-101"/>
      <path d="M 41.109375 46.296875 
Q 39.59375 47.171875 37.8125 47.578125 
Q 36.03125 48 33.890625 48 
Q 26.265625 48 22.1875 43.046875 
Q 18.109375 38.09375 18.109375 28.8125 
L 18.109375 0 
L 9.078125 0 
L 9.078125 54.6875 
L 18.109375 54.6875 
L 18.109375 46.1875 
Q 20.953125 51.171875 25.484375 53.578125 
Q 30.03125 56 36.53125 56 
Q 37.453125 56 38.578125 55.875 
Q 39.703125 55.765625 41.0625 55.515625 
z
" id="DejaVuSans-114"/>
      <path id="DejaVuSans-32"/>
      <path d="M 30.609375 48.390625 
Q 23.390625 48.390625 19.1875 42.75 
Q 14.984375 37.109375 14.984375 27.296875 
Q 14.984375 17.484375 19.15625 11.84375 
Q 23.34375 6.203125 30.609375 6.203125 
Q 37.796875 6.203125 41.984375 11.859375 
Q 46.1875 17.53125 46.1875 27.296875 
Q 46.1875 37.015625 41.984375 42.703125 
Q 37.796875 48.390625 30.609375 48.390625 
z
M 30.609375 56 
Q 42.328125 56 49.015625 48.375 
Q 55.71875 40.765625 55.71875 27.296875 
Q 55.71875 13.875 49.015625 6.21875 
Q 42.328125 -1.421875 30.609375 -1.421875 
Q 18.84375 -1.421875 12.171875 6.21875 
Q 5.515625 13.875 5.515625 27.296875 
Q 5.515625 40.765625 12.171875 48.375 
Q 18.84375 56 30.609375 56 
z
" id="DejaVuSans-111"/>
      <path d="M 37.109375 75.984375 
L 37.109375 68.5 
L 28.515625 68.5 
Q 23.6875 68.5 21.796875 66.546875 
Q 19.921875 64.59375 19.921875 59.515625 
L 19.921875 54.6875 
L 34.71875 54.6875 
L 34.71875 47.703125 
L 19.921875 47.703125 
L 19.921875 0 
L 10.890625 0 
L 10.890625 47.703125 
L 2.296875 47.703125 
L 2.296875 54.6875 
L 10.890625 54.6875 
L 10.890625 58.5 
Q 10.890625 67.625 15.140625 71.796875 
Q 19.390625 75.984375 28.609375 75.984375 
z
" id="DejaVuSans-102"/>
      <path d="M 54.890625 33.015625 
L 54.890625 0 
L 45.90625 0 
L 45.90625 32.71875 
Q 45.90625 40.484375 42.875 44.328125 
Q 39.84375 48.1875 33.796875 48.1875 
Q 26.515625 48.1875 22.3125 43.546875 
Q 18.109375 38.921875 18.109375 30.90625 
L 18.109375 0 
L 9.078125 0 
L 9.078125 54.6875 
L 18.109375 54.6875 
L 18.109375 46.1875 
Q 21.34375 51.125 25.703125 53.5625 
Q 30.078125 56 35.796875 56 
Q 45.21875 56 50.046875 50.171875 
Q 54.890625 44.34375 54.890625 33.015625 
z
" id="DejaVuSans-110"/>
      <path d="M 44.28125 53.078125 
L 44.28125 44.578125 
Q 40.484375 46.53125 36.375 47.5 
Q 32.28125 48.484375 27.875 48.484375 
Q 21.1875 48.484375 17.84375 46.4375 
Q 14.5 44.390625 14.5 40.28125 
Q 14.5 37.15625 16.890625 35.375 
Q 19.28125 33.59375 26.515625 31.984375 
L 29.59375 31.296875 
Q 39.15625 29.25 43.1875 25.515625 
Q 47.21875 21.78125 47.21875 15.09375 
Q 47.21875 7.46875 41.1875 3.015625 
Q 35.15625 -1.421875 24.609375 -1.421875 
Q 20.21875 -1.421875 15.453125 -0.5625 
Q 10.6875 0.296875 5.421875 2 
L 5.421875 11.28125 
Q 10.40625 8.6875 15.234375 7.390625 
Q 20.0625 6.109375 24.8125 6.109375 
Q 31.15625 6.109375 34.5625 8.28125 
Q 37.984375 10.453125 37.984375 14.40625 
Q 37.984375 18.0625 35.515625 20.015625 
Q 33.0625 21.96875 24.703125 23.78125 
L 21.578125 24.515625 
Q 13.234375 26.265625 9.515625 29.90625 
Q 5.8125 33.546875 5.8125 39.890625 
Q 5.8125 47.609375 11.28125 51.796875 
Q 16.75 56 26.8125 56 
Q 31.78125 56 36.171875 55.265625 
Q 40.578125 54.546875 44.28125 53.078125 
z
" id="DejaVuSans-115"/>
      <path d="M 18.109375 8.203125 
L 18.109375 -20.796875 
L 9.078125 -20.796875 
L 9.078125 54.6875 
L 18.109375 54.6875 
L 18.109375 46.390625 
Q 20.953125 51.265625 25.265625 53.625 
Q 29.59375 56 35.59375 56 
Q 45.5625 56 51.78125 48.09375 
Q 58.015625 40.1875 58.015625 27.296875 
Q 58.015625 14.40625 51.78125 6.484375 
Q 45.5625 -1.421875 35.59375 -1.421875 
Q 29.59375 -1.421875 25.265625 0.953125 
Q 20.953125 3.328125 18.109375 8.203125 
z
M 48.6875 27.296875 
Q 48.6875 37.203125 44.609375 42.84375 
Q 40.53125 48.484375 33.40625 48.484375 
Q 26.265625 48.484375 22.1875 42.84375 
Q 18.109375 37.203125 18.109375 27.296875 
Q 18.109375 17.390625 22.1875 11.75 
Q 26.265625 6.109375 33.40625 6.109375 
Q 40.53125 6.109375 44.609375 11.75 
Q 48.6875 17.390625 48.6875 27.296875 
z
" id="DejaVuSans-112"/>
      <path d="M 45.40625 46.390625 
L 45.40625 75.984375 
L 54.390625 75.984375 
L 54.390625 0 
L 45.40625 0 
L 45.40625 8.203125 
Q 42.578125 3.328125 38.25 0.953125 
Q 33.9375 -1.421875 27.875 -1.421875 
Q 17.96875 -1.421875 11.734375 6.484375 
Q 5.515625 14.40625 5.515625 27.296875 
Q 5.515625 40.1875 11.734375 48.09375 
Q 17.96875 56 27.875 56 
Q 33.9375 56 38.25 53.625 
Q 42.578125 51.265625 45.40625 46.390625 
z
M 14.796875 27.296875 
Q 14.796875 17.390625 18.875 11.75 
Q 22.953125 6.109375 30.078125 6.109375 
Q 37.203125 6.109375 41.296875 11.75 
Q 45.40625 17.390625 45.40625 27.296875 
Q 45.40625 37.203125 41.296875 42.84375 
Q 37.203125 48.484375 30.078125 48.484375 
Q 22.953125 48.484375 18.875 42.84375 
Q 14.796875 37.203125 14.796875 27.296875 
z
" id="DejaVuSans-100"/>
     </defs>
     <g transform="translate(522.147656 532.276562)scale(0.1 -0.1)">
      <use xlink:href="#DejaVuSans-78"/>
      <use x="74.804688" xlink:href="#DejaVuSans-117"/>
      <use x="138.183594" xlink:href="#DejaVuSans-109"/>
      <use x="235.595703" xlink:href="#DejaVuSans-98"/>
      <use x="299.072266" xlink:href="#DejaVuSans-101"/>
      <use x="360.595703" xlink:href="#DejaVuSans-114"/>
      <use x="401.708984" xlink:href="#DejaVuSans-32"/>
      <use x="433.496094" xlink:href="#DejaVuSans-111"/>
      <use x="494.677734" xlink:href="#DejaVuSans-102"/>
      <use x="529.882812" xlink:href="#DejaVuSans-32"/>
      <use x="561.669922" xlink:href="#DejaVuSans-78"/>
      <use x="636.474609" xlink:href="#DejaVuSans-101"/>
      <use x="697.998047" xlink:href="#DejaVuSans-117"/>
      <use x="761.376953" xlink:href="#DejaVuSans-114"/>
      <use x="800.240234" xlink:href="#DejaVuSans-111"/>
      <use x="861.421875" xlink:href="#DejaVuSans-110"/>
      <use x="924.800781" xlink:href="#DejaVuSans-115"/>
      <use x="976.900391" xlink:href="#DejaVuSans-32"/>
      <use x="1008.6875" xlink:href="#DejaVuSans-112"/>
      <use x="1072.164062" xlink:href="#DejaVuSans-114"/>
      <use x="1113.277344" xlink:href="#DejaVuSans-117"/>
      <use x="1176.65625" xlink:href="#DejaVuSans-110"/>
      <use x="1240.035156" xlink:href="#DejaVuSans-101"/>
      <use x="1301.558594" xlink:href="#DejaVuSans-100"/>
     </g>
    </g>
   </g>
   <g id="matplotlib.axis_2">
    <g id="ytick_1">
     <g id="line2d_10">
      <defs>
       <path d="M 0 0 
L -3.5 0 
" id="m0279d399c4" style="stroke:#000000;stroke-width:0.8;"/>
      </defs>
      <g>
       <use style="stroke:#000000;stroke-width:0.8;" x="144" xlink:href="#m0279d399c4" y="436.551269"/>
      </g>
     </g>
     <g id="text_11">
      <!-- 0.2 -->
      <defs>
       <path d="M 10.6875 12.40625 
L 21 12.40625 
L 21 0 
L 10.6875 0 
z
" id="DejaVuSans-46"/>
      </defs>
      <g transform="translate(121.096875 440.350488)scale(0.1 -0.1)">
       <use xlink:href="#DejaVuSans-48"/>
       <use x="63.623047" xlink:href="#DejaVuSans-46"/>
       <use x="95.410156" xlink:href="#DejaVuSans-50"/>
      </g>
     </g>
    </g>
    <g id="ytick_2">
     <g id="line2d_11">
      <g>
       <use style="stroke:#000000;stroke-width:0.8;" x="144" xlink:href="#m0279d399c4" y="349.488351"/>
      </g>
     </g>
     <g id="text_12">
      <!-- 0.4 -->
      <g transform="translate(121.096875 353.28757)scale(0.1 -0.1)">
       <use xlink:href="#DejaVuSans-48"/>
       <use x="63.623047" xlink:href="#DejaVuSans-46"/>
       <use x="95.410156" xlink:href="#DejaVuSans-52"/>
      </g>
     </g>
    </g>
    <g id="ytick_3">
     <g id="line2d_12">
      <g>
       <use style="stroke:#000000;stroke-width:0.8;" x="144" xlink:href="#m0279d399c4" y="262.425434"/>
      </g>
     </g>
     <g id="text_13">
      <!-- 0.6 -->
      <defs>
       <path d="M 33.015625 40.375 
Q 26.375 40.375 22.484375 35.828125 
Q 18.609375 31.296875 18.609375 23.390625 
Q 18.609375 15.53125 22.484375 10.953125 
Q 26.375 6.390625 33.015625 6.390625 
Q 39.65625 6.390625 43.53125 10.953125 
Q 47.40625 15.53125 47.40625 23.390625 
Q 47.40625 31.296875 43.53125 35.828125 
Q 39.65625 40.375 33.015625 40.375 
z
M 52.59375 71.296875 
L 52.59375 62.3125 
Q 48.875 64.0625 45.09375 64.984375 
Q 41.3125 65.921875 37.59375 65.921875 
Q 27.828125 65.921875 22.671875 59.328125 
Q 17.53125 52.734375 16.796875 39.40625 
Q 19.671875 43.65625 24.015625 45.921875 
Q 28.375 48.1875 33.59375 48.1875 
Q 44.578125 48.1875 50.953125 41.515625 
Q 57.328125 34.859375 57.328125 23.390625 
Q 57.328125 12.15625 50.6875 5.359375 
Q 44.046875 -1.421875 33.015625 -1.421875 
Q 20.359375 -1.421875 13.671875 8.265625 
Q 6.984375 17.96875 6.984375 36.375 
Q 6.984375 53.65625 15.1875 63.9375 
Q 23.390625 74.21875 37.203125 74.21875 
Q 40.921875 74.21875 44.703125 73.484375 
Q 48.484375 72.75 52.59375 71.296875 
z
" id="DejaVuSans-54"/>
      </defs>
      <g transform="translate(121.096875 266.224652)scale(0.1 -0.1)">
       <use xlink:href="#DejaVuSans-48"/>
       <use x="63.623047" xlink:href="#DejaVuSans-46"/>
       <use x="95.410156" xlink:href="#DejaVuSans-54"/>
      </g>
     </g>
    </g>
    <g id="ytick_4">
     <g id="line2d_13">
      <g>
       <use style="stroke:#000000;stroke-width:0.8;" x="144" xlink:href="#m0279d399c4" y="175.362516"/>
      </g>
     </g>
     <g id="text_14">
      <!-- 0.8 -->
      <defs>
       <path d="M 31.78125 34.625 
Q 24.75 34.625 20.71875 30.859375 
Q 16.703125 27.09375 16.703125 20.515625 
Q 16.703125 13.921875 20.71875 10.15625 
Q 24.75 6.390625 31.78125 6.390625 
Q 38.8125 6.390625 42.859375 10.171875 
Q 46.921875 13.96875 46.921875 20.515625 
Q 46.921875 27.09375 42.890625 30.859375 
Q 38.875 34.625 31.78125 34.625 
z
M 21.921875 38.8125 
Q 15.578125 40.375 12.03125 44.71875 
Q 8.5 49.078125 8.5 55.328125 
Q 8.5 64.0625 14.71875 69.140625 
Q 20.953125 74.21875 31.78125 74.21875 
Q 42.671875 74.21875 48.875 69.140625 
Q 55.078125 64.0625 55.078125 55.328125 
Q 55.078125 49.078125 51.53125 44.71875 
Q 48 40.375 41.703125 38.8125 
Q 48.828125 37.15625 52.796875 32.3125 
Q 56.78125 27.484375 56.78125 20.515625 
Q 56.78125 9.90625 50.3125 4.234375 
Q 43.84375 -1.421875 31.78125 -1.421875 
Q 19.734375 -1.421875 13.25 4.234375 
Q 6.78125 9.90625 6.78125 20.515625 
Q 6.78125 27.484375 10.78125 32.3125 
Q 14.796875 37.15625 21.921875 38.8125 
z
M 18.3125 54.390625 
Q 18.3125 48.734375 21.84375 45.5625 
Q 25.390625 42.390625 31.78125 42.390625 
Q 38.140625 42.390625 41.71875 45.5625 
Q 45.3125 48.734375 45.3125 54.390625 
Q 45.3125 60.0625 41.71875 63.234375 
Q 38.140625 66.40625 31.78125 66.40625 
Q 25.390625 66.40625 21.84375 63.234375 
Q 18.3125 60.0625 18.3125 54.390625 
z
" id="DejaVuSans-56"/>
      </defs>
      <g transform="translate(121.096875 179.161735)scale(0.1 -0.1)">
       <use xlink:href="#DejaVuSans-48"/>
       <use x="63.623047" xlink:href="#DejaVuSans-46"/>
       <use x="95.410156" xlink:href="#DejaVuSans-56"/>
      </g>
     </g>
    </g>
    <g id="ytick_5">
     <g id="line2d_14">
      <g>
       <use style="stroke:#000000;stroke-width:0.8;" x="144" xlink:href="#m0279d399c4" y="88.299598"/>
      </g>
     </g>
     <g id="text_15">
      <!-- 1.0 -->
      <g transform="translate(121.096875 92.098817)scale(0.1 -0.1)">
       <use xlink:href="#DejaVuSans-49"/>
       <use x="63.623047" xlink:href="#DejaVuSans-46"/>
       <use x="95.410156" xlink:href="#DejaVuSans-48"/>
      </g>
     </g>
    </g>
    <g id="text_16">
     <!-- Accuracy -->
     <defs>
      <path d="M 34.1875 63.1875 
L 20.796875 26.90625 
L 47.609375 26.90625 
z
M 28.609375 72.90625 
L 39.796875 72.90625 
L 67.578125 0 
L 57.328125 0 
L 50.6875 18.703125 
L 17.828125 18.703125 
L 11.1875 0 
L 0.78125 0 
z
" id="DejaVuSans-65"/>
      <path d="M 48.78125 52.59375 
L 48.78125 44.1875 
Q 44.96875 46.296875 41.140625 47.34375 
Q 37.3125 48.390625 33.40625 48.390625 
Q 24.65625 48.390625 19.8125 42.84375 
Q 14.984375 37.3125 14.984375 27.296875 
Q 14.984375 17.28125 19.8125 11.734375 
Q 24.65625 6.203125 33.40625 6.203125 
Q 37.3125 6.203125 41.140625 7.25 
Q 44.96875 8.296875 48.78125 10.40625 
L 48.78125 2.09375 
Q 45.015625 0.34375 40.984375 -0.53125 
Q 36.96875 -1.421875 32.421875 -1.421875 
Q 20.0625 -1.421875 12.78125 6.34375 
Q 5.515625 14.109375 5.515625 27.296875 
Q 5.515625 40.671875 12.859375 48.328125 
Q 20.21875 56 33.015625 56 
Q 37.15625 56 41.109375 55.140625 
Q 45.0625 54.296875 48.78125 52.59375 
z
" id="DejaVuSans-99"/>
      <path d="M 34.28125 27.484375 
Q 23.390625 27.484375 19.1875 25 
Q 14.984375 22.515625 14.984375 16.5 
Q 14.984375 11.71875 18.140625 8.90625 
Q 21.296875 6.109375 26.703125 6.109375 
Q 34.1875 6.109375 38.703125 11.40625 
Q 43.21875 16.703125 43.21875 25.484375 
L 43.21875 27.484375 
z
M 52.203125 31.203125 
L 52.203125 0 
L 43.21875 0 
L 43.21875 8.296875 
Q 40.140625 3.328125 35.546875 0.953125 
Q 30.953125 -1.421875 24.3125 -1.421875 
Q 15.921875 -1.421875 10.953125 3.296875 
Q 6 8.015625 6 15.921875 
Q 6 25.140625 12.171875 29.828125 
Q 18.359375 34.515625 30.609375 34.515625 
L 43.21875 34.515625 
L 43.21875 35.40625 
Q 43.21875 41.609375 39.140625 45 
Q 35.0625 48.390625 27.6875 48.390625 
Q 23 48.390625 18.546875 47.265625 
Q 14.109375 46.140625 10.015625 43.890625 
L 10.015625 52.203125 
Q 14.9375 54.109375 19.578125 55.046875 
Q 24.21875 56 28.609375 56 
Q 40.484375 56 46.34375 49.84375 
Q 52.203125 43.703125 52.203125 31.203125 
z
" id="DejaVuSans-97"/>
      <path d="M 32.171875 -5.078125 
Q 28.375 -14.84375 24.75 -17.8125 
Q 21.140625 -20.796875 15.09375 -20.796875 
L 7.90625 -20.796875 
L 7.90625 -13.28125 
L 13.1875 -13.28125 
Q 16.890625 -13.28125 18.9375 -11.515625 
Q 21 -9.765625 23.484375 -3.21875 
L 25.09375 0.875 
L 2.984375 54.6875 
L 12.5 54.6875 
L 29.59375 11.921875 
L 46.6875 54.6875 
L 56.203125 54.6875 
z
" id="DejaVuSans-121"/>
     </defs>
     <g transform="translate(115.017187 309.388125)rotate(-90)scale(0.1 -0.1)">
      <use xlink:href="#DejaVuSans-65"/>
      <use x="66.658203" xlink:href="#DejaVuSans-99"/>
      <use x="121.638672" xlink:href="#DejaVuSans-99"/>
      <use x="176.619141" xlink:href="#DejaVuSans-117"/>
      <use x="239.998047" xlink:href="#DejaVuSans-114"/>
      <use x="281.111328" xlink:href="#DejaVuSans-97"/>
      <use x="342.390625" xlink:href="#DejaVuSans-99"/>
      <use x="397.371094" xlink:href="#DejaVuSans-121"/>
     </g>
    </g>
   </g>
   <g id="line2d_15">
    <path clip-path="url(#p6ef3d97ff9)" d="M 184.581818 88.96708 
L 194.855696 89.235524 
L 205.129574 89.380629 
L 215.403452 89.888496 
L 225.67733 90.302045 
L 235.951208 90.497937 
L 246.225086 90.643042 
L 256.498964 90.75187 
L 266.772842 91.230716 
L 277.04672 91.3468 
L 287.320598 92.130366 
L 297.594476 93.13159 
L 307.868354 94.198111 
L 318.142232 94.33596 
L 328.41611 94.364981 
L 338.689988 94.901869 
L 348.963867 94.546362 
L 359.237745 94.742254 
L 369.511623 94.705978 
L 379.785501 96.918827 
L 390.059379 101.04706 
L 400.333257 105.777479 
L 410.607135 106.793213 
L 420.881013 102.788319 
L 431.154891 102.846361 
L 441.428769 105.051954 
L 451.702647 105.929839 
L 461.976525 103.88386 
L 472.250403 105.349419 
L 482.524281 113.409995 
L 492.798159 117.059382 
L 503.072037 117.61078 
L 513.345915 127.942247 
L 523.619793 127.659292 
L 533.893671 132.66541 
L 544.167549 134.130969 
L 554.441427 136.162437 
L 564.715305 145.18796 
L 574.989183 155.599234 
L 585.263061 154.380353 
L 595.536939 163.935508 
L 605.810817 168.411993 
L 616.084695 172.416887 
L 626.358573 178.866798 
L 636.632451 205.370202 
L 646.906329 220.656999 
L 657.180207 222.579638 
L 667.454085 215.897559 
L 677.727963 228.289515 
L 688.001841 225.539777 
L 698.275719 233.23759 
L 708.549597 251.70944 
L 718.823475 252.870278 
L 729.097353 259.02998 
L 739.371231 271.799208 
L 749.645109 281.753401 
L 759.918987 280.179014 
L 770.192865 282.551478 
L 780.466743 280.331374 
L 790.740621 276.754539 
L 801.014499 283.683296 
L 811.288377 289.269833 
L 821.562255 294.522629 
L 831.836133 301.70532 
L 842.110012 308.089934 
L 852.38389 318.689844 
L 862.657768 319.553218 
L 872.931646 322.426295 
L 883.205524 330.784335 
L 893.479402 330.733548 
L 903.75328 342.87157 
L 914.027158 350.663701 
L 924.301036 352.651637 
L 934.574914 365.957753 
L 944.848792 375.752332 
L 955.12267 376.528643 
L 965.396548 388.84079 
L 975.670426 398.468498 
L 985.944304 402.023567 
L 996.218182 405.317448 
" style="fill:none;stroke:#1f77b4;stroke-linecap:square;stroke-width:1.5;"/>
   </g>
   <g id="line2d_16">
    <path clip-path="url(#p6ef3d97ff9)" d="M 184.581818 88.945315 
L 194.855696 88.923549 
L 205.129574 88.923549 
L 215.403452 88.938059 
L 225.67733 88.96708 
L 235.951208 88.974336 
L 246.225086 89.032378 
L 256.498964 89.054143 
L 266.772842 89.097675 
L 277.04672 89.221014 
L 287.320598 89.264545 
L 297.594476 89.329843 
L 307.868354 89.453182 
L 318.142232 89.591031 
L 328.41611 89.707115 
L 338.689988 89.895752 
L 348.963867 90.135175 
L 359.237745 90.410874 
L 369.511623 90.75187 
L 379.785501 91.114632 
L 390.059379 90.918741 
L 400.333257 91.172674 
L 410.607135 92.101345 
L 420.881013 92.529405 
L 431.154891 93.487097 
L 441.428769 94.604404 
L 451.702647 94.212621 
L 461.976525 94.328705 
L 472.250403 95.460523 
L 482.524281 95.772498 
L 492.798159 97.521012 
L 503.072037 97.789456 
L 513.345915 98.616554 
L 523.619793 100.952742 
L 533.893671 101.04706 
L 544.167549 102.694 
L 554.441427 102.824595 
L 564.715305 104.297409 
L 574.989183 104.957636 
L 585.263061 107.366377 
L 595.536939 112.357984 
L 605.810817 112.945659 
L 616.084695 119.156147 
L 626.358573 119.526165 
L 636.632451 121.16585 
L 646.906329 127.122404 
L 657.180207 136.663049 
L 667.454085 134.203521 
L 677.727963 136.23499 
L 688.001841 144.433414 
L 698.275719 163.761382 
L 708.549597 190.598526 
L 718.823475 190.787163 
L 729.097353 195.829557 
L 739.371231 202.678506 
L 749.645109 202.206916 
L 759.918987 205.181565 
L 770.192865 212.197385 
L 780.466743 231.053762 
L 790.740621 230.473343 
L 801.014499 237.010317 
L 811.288377 250.142307 
L 821.562255 261.765207 
L 831.836133 269.593614 
L 842.110012 269.716953 
L 852.38389 273.758123 
L 862.657768 270.326393 
L 872.931646 279.31564 
L 883.205524 280.331374 
L 893.479402 287.129537 
L 903.75328 295.43679 
L 914.027158 300.065635 
L 924.301036 309.961787 
L 934.574914 315.649897 
L 944.848792 317.848236 
L 955.12267 329.355052 
L 965.396548 339.548668 
L 975.670426 346.063877 
L 985.944304 349.73503 
L 996.218182 347.391586 
" style="fill:none;stroke:#ff7f0e;stroke-linecap:square;stroke-width:1.5;"/>
   </g>
   <g id="line2d_17">
    <path clip-path="url(#p6ef3d97ff9)" d="M 184.581818 88.945315 
L 194.855696 88.959825 
L 205.129574 88.96708 
L 215.403452 88.959825 
L 225.67733 88.938059 
L 235.951208 88.945315 
L 246.225086 88.981591 
L 256.498964 89.010612 
L 266.772842 89.054143 
L 277.04672 89.039633 
L 287.320598 89.112185 
L 297.594476 89.191993 
L 307.868354 89.235524 
L 318.142232 89.373374 
L 328.41611 89.569266 
L 338.689988 89.554755 
L 348.963867 89.743391 
L 359.237745 89.85222 
L 369.511623 90.048112 
L 379.785501 90.214982 
L 390.059379 90.374598 
L 400.333257 90.614021 
L 410.607135 90.744615 
L 420.881013 90.998548 
L 431.154891 90.795402 
L 441.428769 91.303269 
L 451.702647 91.586223 
L 461.976525 92.24645 
L 472.250403 92.848635 
L 482.524281 93.653967 
L 492.798159 93.835349 
L 503.072037 94.009474 
L 513.345915 95.562096 
L 523.619793 96.135261 
L 533.893671 98.282813 
L 544.167549 99.059124 
L 554.441427 99.835435 
L 564.715305 110.312006 
L 574.989183 114.599854 
L 585.263061 121.768035 
L 595.536939 117.995308 
L 605.810817 120.287965 
L 616.084695 123.516548 
L 626.358573 130.786302 
L 636.632451 141.538572 
L 646.906329 149.53385 
L 657.180207 171.270559 
L 667.454085 200.248 
L 677.727963 215.005164 
L 688.001841 233.121507 
L 698.275719 241.675438 
L 708.549597 250.345454 
L 718.823475 255.4604 
L 729.097353 261.474997 
L 739.371231 267.52587 
L 749.645109 269.869313 
L 759.918987 278.662668 
L 770.192865 281.72438 
L 780.466743 307.97385 
L 790.740621 315.512048 
L 801.014499 310.556717 
L 811.288377 316.375422 
L 821.562255 334.912568 
L 831.836133 337.35033 
L 842.110012 329.064842 
L 852.38389 328.99229 
L 862.657768 331.8436 
L 872.931646 322.165106 
L 883.205524 322.14334 
L 893.479402 318.646313 
L 903.75328 325.234074 
L 914.027158 326.503741 
L 924.301036 330.530401 
L 934.574914 337.988791 
L 944.848792 346.593509 
L 955.12267 348.98774 
L 965.396548 340.956186 
L 975.670426 364.891233 
L 985.944304 354.66134 
L 996.218182 357.331269 
" style="fill:none;stroke:#2ca02c;stroke-linecap:square;stroke-width:1.5;"/>
   </g>
   <g id="line2d_18">
    <path clip-path="url(#p6ef3d97ff9)" d="M 184.581818 88.945315 
L 194.855696 88.959825 
L 205.129574 88.95257 
L 215.403452 89.017867 
L 225.67733 89.046888 
L 235.951208 89.293566 
L 246.225086 89.39514 
L 256.498964 89.416905 
L 266.772842 89.532989 
L 277.04672 89.518479 
L 287.320598 89.794178 
L 297.594476 90.048112 
L 307.868354 90.113409 
L 318.142232 90.628531 
L 328.41611 90.90423 
L 338.689988 91.005804 
L 348.963867 91.520926 
L 359.237745 92.144877 
L 369.511623 92.659999 
L 379.785501 93.305716 
L 390.059379 93.407289 
L 400.333257 93.247674 
L 410.607135 93.842604 
L 420.881013 93.624947 
L 431.154891 94.47381 
L 441.428769 95.990156 
L 451.702647 99.167952 
L 461.976525 100.887445 
L 472.250403 103.296186 
L 482.524281 105.704926 
L 492.798159 106.742426 
L 503.072037 109.811394 
L 513.345915 115.419697 
L 523.619793 132.425987 
L 533.893671 145.079131 
L 544.167549 133.572315 
L 554.441427 141.146789 
L 564.715305 150.019952 
L 574.989183 157.971698 
L 585.263061 165.9307 
L 595.536939 156.39731 
L 605.810817 163.463917 
L 616.084695 187.166796 
L 626.358573 202.250447 
L 636.632451 228.216962 
L 646.906329 236.683831 
L 657.180207 256.505155 
L 667.454085 258.790557 
L 677.727963 265.523422 
L 688.001841 282.15244 
L 698.275719 280.403926 
L 708.549597 288.500778 
L 718.823475 292.237228 
L 729.097353 295.277175 
L 739.371231 304.607417 
L 749.645109 308.655843 
L 759.918987 296.808031 
L 770.192865 313.34273 
L 780.466743 320.626994 
L 790.740621 335.231799 
L 801.014499 335.609071 
L 811.288377 334.81825 
L 821.562255 336.60304 
L 831.836133 345.28031 
L 842.110012 348.095345 
L 852.38389 358.201898 
L 862.657768 362.71466 
L 872.931646 364.746128 
L 883.205524 363.483716 
L 893.479402 362.903296 
L 903.75328 369.614396 
L 914.027158 369.715969 
L 924.301036 377.537121 
L 934.574914 384.589218 
L 944.848792 384.240966 
L 955.12267 385.648483 
L 965.396548 387.309934 
L 975.670426 389.334147 
L 985.944304 391.206 
L 996.218182 394.94245 
" style="fill:none;stroke:#d62728;stroke-dasharray:5.55,2.4;stroke-dashoffset:0;stroke-width:1.5;"/>
   </g>
   <g id="line2d_19">
    <path clip-path="url(#p6ef3d97ff9)" d="M 184.581818 88.945315 
L 194.855696 88.938059 
L 205.129574 88.981591 
L 215.403452 89.032378 
L 225.67733 89.141206 
L 235.951208 89.525734 
L 246.225086 89.779668 
L 256.498964 90.135175 
L 266.772842 90.229493 
L 277.04672 90.59951 
L 287.320598 91.143653 
L 297.594476 91.274248 
L 307.868354 93.262184 
L 318.142232 95.163058 
L 328.41611 98.36262 
L 338.689988 99.088145 
L 348.963867 97.666117 
L 359.237745 99.987795 
L 369.511623 100.1329 
L 379.785501 102.280452 
L 390.059379 103.339717 
L 400.333257 135.088661 
L 410.607135 153.473447 
L 420.881013 154.15544 
L 431.154891 174.071083 
L 441.428769 186.724227 
L 451.702647 214.867315 
L 461.976525 217.319587 
L 472.250403 218.719849 
L 482.524281 223.609883 
L 492.798159 262.788196 
L 503.072037 265.421849 
L 513.345915 279.92508 
L 523.619793 285.424554 
L 533.893671 299.013625 
L 544.167549 303.802085 
L 554.441427 305.209603 
L 564.715305 323.739494 
L 574.989183 335.093949 
L 585.263061 327.628304 
L 595.536939 329.405838 
L 605.810817 342.682933 
L 616.084695 348.54517 
L 626.358573 374.105391 
L 636.632451 427.656341 
L 646.906329 430.543928 
L 657.180207 430.950222 
L 667.454085 424.696202 
L 677.727963 424.551097 
L 688.001841 420.923476 
L 698.275719 440.839118 
L 708.549597 438.459398 
L 718.823475 440.207912 
L 729.097353 438.336059 
L 739.371231 443.320411 
L 749.645109 441.100307 
L 759.918987 470.941122 
L 770.192865 467.371542 
L 780.466743 468.256682 
L 790.740621 474.61953 
L 801.014499 469.613412 
L 811.288377 473.574775 
L 821.562255 477.528883 
L 831.836133 478.667956 
L 842.110012 481.359651 
L 852.38389 482.085175 
L 862.657768 481.48299 
L 872.931646 481.62084 
L 883.205524 481.410438 
L 893.479402 482.38264 
L 903.75328 482.680105 
L 914.027158 483.775647 
L 924.301036 483.790157 
L 934.574914 483.543479 
L 944.848792 483.681329 
L 955.12267 483.463671 
L 965.396548 483.246014 
L 975.670426 484.210962 
L 985.944304 484.232727 
L 996.218182 484.232727 
" style="fill:none;stroke:#9467bd;stroke-dasharray:5.55,2.4;stroke-dashoffset:0;stroke-width:1.5;"/>
   </g>
   <g id="line2d_20">
    <path clip-path="url(#p6ef3d97ff9)" d="M 184.581818 88.894528 
L 194.855696 88.959825 
L 205.129574 89.039633 
L 215.403452 89.068654 
L 225.67733 89.083164 
L 235.951208 89.25729 
L 246.225086 89.308077 
L 256.498964 89.308077 
L 266.772842 89.300822 
L 277.04672 89.351608 
L 287.320598 89.445926 
L 297.594476 89.518479 
L 307.868354 89.801433 
L 318.142232 89.924772 
L 328.41611 90.555979 
L 338.689988 90.657552 
L 348.963867 90.831678 
L 359.237745 90.88972 
L 369.511623 90.882465 
L 379.785501 91.078356 
L 390.059379 91.390332 
L 400.333257 91.477395 
L 410.607135 91.695052 
L 420.881013 91.760349 
L 431.154891 91.956241 
L 441.428769 92.057814 
L 451.702647 92.413321 
L 461.976525 92.413321 
L 472.250403 92.601957 
L 482.524281 93.073548 
L 492.798159 93.066293 
L 503.072037 93.28395 
L 513.345915 93.57416 
L 523.619793 93.523373 
L 533.893671 94.132814 
L 544.167549 93.958688 
L 554.441427 94.118303 
L 564.715305 94.33596 
L 574.989183 95.431502 
L 585.263061 96.57783 
L 595.536939 97.658862 
L 605.810817 98.573022 
L 616.084695 100.053092 
L 626.358573 100.930976 
L 636.632451 100.241728 
L 646.906329 100.756851 
L 657.180207 103.368738 
L 667.454085 103.557374 
L 677.727963 102.360259 
L 688.001841 104.972147 
L 698.275719 105.784734 
L 708.549597 107.91052 
L 718.823475 108.251517 
L 729.097353 109.637268 
L 739.371231 110.268474 
L 749.645109 112.648194 
L 759.918987 114.556323 
L 770.192865 116.660344 
L 780.466743 118.742598 
L 790.740621 123.980884 
L 801.014499 125.272317 
L 811.288377 127.557719 
L 821.562255 129.531145 
L 831.836133 128.05833 
L 842.110012 131.685952 
L 852.38389 132.636389 
L 862.657768 134.537263 
L 872.931646 132.759728 
L 883.205524 134.718644 
L 893.479402 135.523976 
L 903.75328 136.198713 
L 914.027158 136.663049 
L 924.301036 138.063311 
L 934.574914 146.210949 
L 944.848792 149.461298 
L 955.12267 151.891804 
L 965.396548 159.683935 
L 975.670426 161.454215 
L 985.944304 161.896785 
L 996.218182 173.838915 
" style="fill:none;stroke:#8c564b;stroke-linecap:square;stroke-width:1.5;"/>
   </g>
   <g id="line2d_21">
    <path clip-path="url(#p6ef3d97ff9)" d="M 184.581818 88.887273 
L 194.855696 88.909038 
L 205.129574 88.909038 
L 215.403452 88.923549 
L 225.67733 88.916294 
L 235.951208 88.916294 
L 246.225086 88.930804 
L 256.498964 88.95257 
L 266.772842 88.945315 
L 277.04672 88.945315 
L 287.320598 88.974336 
L 297.594476 88.981591 
L 307.868354 89.010612 
L 318.142232 89.075909 
L 328.41611 89.025122 
L 338.689988 89.025122 
L 348.963867 89.133951 
L 359.237745 89.155717 
L 369.511623 89.250035 
L 379.785501 89.416905 
L 390.059379 89.474947 
L 400.333257 89.467692 
L 410.607135 89.540245 
L 420.881013 89.83771 
L 431.154891 89.99007 
L 441.428769 90.113409 
L 451.702647 90.331066 
L 461.976525 90.389108 
L 472.250403 90.468916 
L 482.524281 90.715594 
L 492.798159 90.396363 
L 503.072037 90.374598 
L 513.345915 90.766381 
L 523.619793 90.940507 
L 533.893671 91.05659 
L 544.167549 91.150909 
L 554.441427 91.383076 
L 564.715305 91.520926 
L 574.989183 91.919964 
L 585.263061 92.377045 
L 595.536939 92.587447 
L 605.810817 93.109824 
L 616.084695 93.697499 
L 626.358573 93.371013 
L 636.632451 93.697499 
L 646.906329 94.785785 
L 657.180207 96.084474 
L 667.454085 96.048198 
L 677.727963 97.375907 
L 688.001841 98.478704 
L 698.275719 100.053092 
L 708.549597 101.018039 
L 718.823475 101.04706 
L 729.097353 102.077305 
L 739.371231 102.469088 
L 749.645109 102.120836 
L 759.918987 102.839105 
L 770.192865 103.42678 
L 780.466743 105.037444 
L 790.740621 105.421972 
L 801.014499 107.794436 
L 811.288377 107.518737 
L 821.562255 107.293825 
L 831.836133 108.237006 
L 842.110012 111.378526 
L 852.38389 109.666289 
L 862.657768 118.604749 
L 872.931646 117.327826 
L 883.205524 117.973543 
L 893.479402 124.815237 
L 903.75328 127.151425 
L 914.027158 129.98097 
L 924.301036 133.543294 
L 934.574914 135.052385 
L 944.848792 134.355882 
L 955.12267 130.691984 
L 965.396548 131.091022 
L 975.670426 130.002736 
L 985.944304 132.83228 
L 996.218182 145.7974 
" style="fill:none;stroke:#e377c2;stroke-linecap:square;stroke-width:1.5;"/>
   </g>
   <g id="line2d_22">
    <path clip-path="url(#p6ef3d97ff9)" d="M 184.581818 88.901783 
L 194.855696 88.916294 
L 205.129574 88.916294 
L 215.403452 88.923549 
L 225.67733 88.923549 
L 235.951208 88.916294 
L 246.225086 88.909038 
L 256.498964 88.945315 
L 266.772842 88.96708 
L 277.04672 88.945315 
L 287.320598 88.945315 
L 297.594476 89.032378 
L 307.868354 89.126696 
L 318.142232 89.126696 
L 328.41611 89.170227 
L 338.689988 89.24278 
L 348.963867 89.344353 
L 359.237745 89.329843 
L 369.511623 89.387885 
L 379.785501 89.358864 
L 390.059379 89.511224 
L 400.333257 89.656329 
L 410.607135 89.670839 
L 420.881013 89.620052 
L 431.154891 89.953793 
L 441.428769 89.844965 
L 451.702647 89.975559 
L 461.976525 90.323811 
L 472.250403 90.817167 
L 482.524281 90.831678 
L 492.798159 91.013059 
L 503.072037 91.187185 
L 513.345915 92.159387 
L 523.619793 92.616468 
L 533.893671 93.225908 
L 544.167549 94.263408 
L 554.441427 93.690244 
L 564.715305 94.154579 
L 574.989183 94.444789 
L 585.263061 94.597149 
L 595.536939 97.535523 
L 605.810817 96.447236 
L 616.084695 100.154665 
L 626.358573 101.787095 
L 636.632451 102.353004 
L 646.906329 105.36393 
L 657.180207 105.65414 
L 667.454085 106.40143 
L 677.727963 107.061657 
L 688.001841 107.395398 
L 698.275719 110.536918 
L 708.549597 122.566111 
L 718.823475 148.03927 
L 729.097353 154.467416 
L 739.371231 154.075632 
L 749.645109 150.273885 
L 759.918987 156.150632 
L 770.192865 156.143377 
L 780.466743 162.636819 
L 790.740621 166.075805 
L 801.014499 169.986381 
L 811.288377 169.246346 
L 821.562255 181.144945 
L 831.836133 179.033669 
L 842.110012 179.309368 
L 852.38389 178.061466 
L 862.657768 188.690398 
L 872.931646 195.698962 
L 883.205524 191.802897 
L 893.479402 195.568368 
L 903.75328 196.286637 
L 914.027158 203.026758 
L 924.301036 213.387245 
L 934.574914 214.120025 
L 944.848792 224.023432 
L 955.12267 222.33296 
L 965.396548 225.104463 
L 975.670426 226.51198 
L 985.944304 226.809445 
L 996.218182 220.047558 
" style="fill:none;stroke:#7f7f7f;stroke-linecap:square;stroke-width:1.5;"/>
   </g>
   <g id="line2d_23">
    <path clip-path="url(#p6ef3d97ff9)" d="M 184.581818 88.909038 
L 194.855696 88.901783 
L 205.129574 88.916294 
L 215.403452 88.923549 
L 225.67733 88.945315 
L 235.951208 88.930804 
L 246.225086 88.974336 
L 256.498964 88.95257 
L 266.772842 88.901783 
L 277.04672 88.959825 
L 287.320598 88.988846 
L 297.594476 89.017867 
L 307.868354 89.032378 
L 318.142232 89.054143 
L 328.41611 89.075909 
L 338.689988 89.221014 
L 348.963867 89.293566 
L 359.237745 89.489458 
L 369.511623 89.634563 
L 379.785501 89.866731 
L 390.059379 89.953793 
L 400.333257 89.953793 
L 410.607135 90.200472 
L 420.881013 90.425384 
L 431.154891 90.73736 
L 441.428769 90.90423 
L 451.702647 90.795402 
L 461.976525 90.635786 
L 472.250403 90.788146 
L 482.524281 90.846188 
L 492.798159 91.092867 
L 503.072037 91.165419 
L 513.345915 91.622499 
L 523.619793 92.101345 
L 533.893671 92.681765 
L 544.167549 94.023985 
L 554.441427 94.306939 
L 564.715305 95.039719 
L 574.989183 95.112271 
L 585.263061 94.662446 
L 595.536939 94.742254 
L 605.810817 95.126782 
L 616.084695 93.987709 
L 626.358573 95.017953 
L 636.632451 95.750733 
L 646.906329 99.153442 
L 657.180207 98.63832 
L 667.454085 102.839105 
L 677.727963 102.360259 
L 688.001841 102.947934 
L 698.275719 105.886307 
L 708.549597 105.523545 
L 718.823475 105.095486 
L 729.097353 108.665066 
L 739.371231 113.068998 
L 749.645109 117.175466 
L 759.918987 118.858682 
L 770.192865 122.225115 
L 780.466743 122.319433 
L 790.740621 122.732982 
L 801.014499 123.342422 
L 811.288377 126.404135 
L 821.562255 127.942247 
L 831.836133 129.625463 
L 842.110012 137.359552 
L 852.38389 139.013748 
L 862.657768 140.363223 
L 872.931646 143.054918 
L 883.205524 146.53018 
L 893.479402 142.293118 
L 903.75328 143.599061 
L 914.027158 152.544776 
L 924.301036 169.442237 
L 934.574914 186.992671 
L 944.848792 187.326412 
L 955.12267 191.853684 
L 965.396548 197.200798 
L 975.670426 201.096863 
L 985.944304 200.545465 
L 996.218182 203.512859 
" style="fill:none;stroke:#bcbd22;stroke-dasharray:5.55,2.4;stroke-dashoffset:0;stroke-width:1.5;"/>
   </g>
   <g id="line2d_24">
    <path clip-path="url(#p6ef3d97ff9)" d="M 184.581818 88.894528 
L 194.855696 88.930804 
L 205.129574 88.909038 
L 215.403452 88.894528 
L 225.67733 88.930804 
L 235.951208 88.901783 
L 246.225086 88.887273 
L 256.498964 88.923549 
L 266.772842 88.96708 
L 277.04672 88.96708 
L 287.320598 88.974336 
L 297.594476 88.96708 
L 307.868354 88.95257 
L 318.142232 88.988846 
L 328.41611 88.988846 
L 338.689988 89.075909 
L 348.963867 89.075909 
L 359.237745 89.155717 
L 369.511623 89.293566 
L 379.785501 89.264545 
L 390.059379 89.453182 
L 400.333257 89.482203 
L 410.607135 89.438671 
L 420.881013 89.598287 
L 431.154891 89.71437 
L 441.428769 90.026346 
L 451.702647 90.439895 
L 461.976525 90.3093 
L 472.250403 90.497937 
L 482.524281 90.657552 
L 492.798159 91.078356 
L 503.072037 91.208951 
L 513.345915 91.19444 
L 523.619793 90.955017 
L 533.893671 91.013059 
L 544.167549 91.477395 
L 554.441427 91.520926 
L 564.715305 91.760349 
L 574.989183 91.869178 
L 585.263061 92.543915 
L 595.536939 92.768828 
L 605.810817 93.037272 
L 616.084695 94.147324 
L 626.358573 97.44846 
L 636.632451 96.940593 
L 646.906329 97.303355 
L 657.180207 97.571799 
L 667.454085 97.194526 
L 677.727963 100.771361 
L 688.001841 102.440067 
L 698.275719 103.463056 
L 708.549597 102.723021 
L 718.823475 111.059296 
L 729.097353 111.92267 
L 739.371231 112.437792 
L 749.645109 114.991638 
L 759.918987 113.56961 
L 770.192865 115.579312 
L 780.466743 118.474154 
L 790.740621 116.609557 
L 801.014499 126.68709 
L 811.288377 129.908418 
L 821.562255 133.419955 
L 831.836133 140.319691 
L 842.110012 150.781752 
L 852.38389 155.845912 
L 862.657768 159.263131 
L 872.931646 166.039528 
L 883.205524 180.978074 
L 893.479402 181.210242 
L 903.75328 188.690398 
L 914.027158 192.557442 
L 924.301036 193.39905 
L 934.574914 204.354467 
L 944.848792 204.281915 
L 955.12267 202.18515 
L 965.396548 203.418541 
L 975.670426 204.020726 
L 985.944304 206.284362 
L 996.218182 214.649658 
" style="fill:none;stroke:#17becf;stroke-dasharray:5.55,2.4;stroke-dashoffset:0;stroke-width:1.5;"/>
   </g>
   <g id="line2d_25">
    <path clip-path="url(#p6ef3d97ff9)" d="M 184.581818 88.887273 
L 194.855696 88.916294 
L 205.129574 88.923549 
L 215.403452 88.981591 
L 225.67733 89.032378 
L 235.951208 89.177482 
L 246.225086 89.431416 
L 256.498964 89.772412 
L 266.772842 89.953793 
L 277.04672 89.903007 
L 287.320598 90.338321 
L 297.594476 91.013059 
L 307.868354 91.027569 
L 318.142232 91.049335 
L 328.41611 92.739807 
L 338.689988 92.137622 
L 348.963867 91.985262 
L 359.237745 92.776083 
L 369.511623 93.008251 
L 379.785501 93.138845 
L 390.059379 92.739807 
L 400.333257 103.484822 
L 410.607135 113.388229 
L 420.881013 117.255273 
L 431.154891 141.277384 
L 441.428769 145.028344 
L 451.702647 143.294341 
L 461.976525 146.08761 
L 472.250403 150.194077 
L 482.524281 150.810773 
L 492.798159 198.978332 
L 503.072037 198.876759 
L 513.345915 198.376147 
L 523.619793 225.481736 
L 533.893671 232.192835 
L 544.167549 246.268007 
L 554.441427 251.760226 
L 564.715305 260.169053 
L 574.989183 258.834088 
L 585.263061 263.201745 
L 595.536939 268.091779 
L 605.810817 270.37718 
L 616.084695 271.922547 
L 626.358573 290.263802 
L 636.632451 296.03172 
L 646.906329 295.037752 
L 657.180207 298.766947 
L 667.454085 304.636438 
L 677.727963 352.941847 
L 688.001841 353.18127 
L 698.275719 354.153473 
L 708.549597 362.968593 
L 718.823475 365.116145 
L 729.097353 363.055656 
L 739.371231 364.37611 
L 749.645109 362.642107 
L 759.918987 365.007317 
L 770.192865 388.340179 
L 780.466743 387.201105 
L 790.740621 379.155041 
L 801.014499 382.855215 
L 811.288377 384.422347 
L 821.562255 385.895162 
L 831.836133 385.568676 
L 842.110012 394.311244 
L 852.38389 394.013779 
L 862.657768 390.545772 
L 872.931646 399.128725 
L 883.205524 393.817887 
L 893.479402 401.689826 
L 903.75328 405.273916 
L 914.027158 409.097429 
L 924.301036 408.662115 
L 934.574914 446.229764 
L 944.848792 446.701354 
L 955.12267 446.904501 
L 965.396548 452.128276 
L 975.670426 453.949342 
L 985.944304 449.683259 
L 996.218182 454.551528 
" style="fill:none;stroke:#1f77b4;stroke-dasharray:5.55,2.4;stroke-dashoffset:0;stroke-width:1.5;"/>
   </g>
   <g id="patch_3">
    <path d="M 144 504 
L 144 69.12 
" style="fill:none;stroke:#000000;stroke-linecap:square;stroke-linejoin:miter;stroke-width:0.8;"/>
   </g>
   <g id="patch_4">
    <path d="M 1036.8 504 
L 1036.8 69.12 
" style="fill:none;stroke:#000000;stroke-linecap:square;stroke-linejoin:miter;stroke-width:0.8;"/>
   </g>
   <g id="patch_5">
    <path d="M 144 504 
L 1036.8 504 
" style="fill:none;stroke:#000000;stroke-linecap:square;stroke-linejoin:miter;stroke-width:0.8;"/>
   </g>
   <g id="patch_6">
    <path d="M 144 69.12 
L 1036.8 69.12 
" style="fill:none;stroke:#000000;stroke-linecap:square;stroke-linejoin:miter;stroke-width:0.8;"/>
   </g>
   <g id="legend_1">
    <g id="patch_7">
     <path d="M 151 499 
L 300.879687 499 
Q 302.879687 499 302.879687 497 
L 302.879687 334.59375 
Q 302.879687 332.59375 300.879687 332.59375 
L 151 332.59375 
Q 149 332.59375 149 334.59375 
L 149 497 
Q 149 499 151 499 
z
" style="fill:#ffffff;opacity:0.8;stroke:#cccccc;stroke-linejoin:miter;"/>
    </g>
    <g id="line2d_26">
     <path d="M 153 340.692187 
L 173 340.692187 
" style="fill:none;stroke:#1f77b4;stroke-linecap:square;stroke-width:1.5;"/>
    </g>
    <g id="line2d_27"/>
    <g id="text_17">
     <!-- taylorfo noBN -->
     <defs>
      <path d="M 18.3125 70.21875 
L 18.3125 54.6875 
L 36.8125 54.6875 
L 36.8125 47.703125 
L 18.3125 47.703125 
L 18.3125 18.015625 
Q 18.3125 11.328125 20.140625 9.421875 
Q 21.96875 7.515625 27.59375 7.515625 
L 36.8125 7.515625 
L 36.8125 0 
L 27.59375 0 
Q 17.1875 0 13.234375 3.875 
Q 9.28125 7.765625 9.28125 18.015625 
L 9.28125 47.703125 
L 2.6875 47.703125 
L 2.6875 54.6875 
L 9.28125 54.6875 
L 9.28125 70.21875 
z
" id="DejaVuSans-116"/>
      <path d="M 9.421875 75.984375 
L 18.40625 75.984375 
L 18.40625 0 
L 9.421875 0 
z
" id="DejaVuSans-108"/>
      <path d="M 19.671875 34.8125 
L 19.671875 8.109375 
L 35.5 8.109375 
Q 43.453125 8.109375 47.28125 11.40625 
Q 51.125 14.703125 51.125 21.484375 
Q 51.125 28.328125 47.28125 31.5625 
Q 43.453125 34.8125 35.5 34.8125 
z
M 19.671875 64.796875 
L 19.671875 42.828125 
L 34.28125 42.828125 
Q 41.5 42.828125 45.03125 45.53125 
Q 48.578125 48.25 48.578125 53.8125 
Q 48.578125 59.328125 45.03125 62.0625 
Q 41.5 64.796875 34.28125 64.796875 
z
M 9.8125 72.90625 
L 35.015625 72.90625 
Q 46.296875 72.90625 52.390625 68.21875 
Q 58.5 63.53125 58.5 54.890625 
Q 58.5 48.1875 55.375 44.234375 
Q 52.25 40.28125 46.1875 39.3125 
Q 53.46875 37.75 57.5 32.78125 
Q 61.53125 27.828125 61.53125 20.40625 
Q 61.53125 10.640625 54.890625 5.3125 
Q 48.25 0 35.984375 0 
L 9.8125 0 
z
" id="DejaVuSans-66"/>
     </defs>
     <g transform="translate(181 344.192187)scale(0.1 -0.1)">
      <use xlink:href="#DejaVuSans-116"/>
      <use x="39.208984" xlink:href="#DejaVuSans-97"/>
      <use x="100.488281" xlink:href="#DejaVuSans-121"/>
      <use x="159.667969" xlink:href="#DejaVuSans-108"/>
      <use x="187.451172" xlink:href="#DejaVuSans-111"/>
      <use x="248.632812" xlink:href="#DejaVuSans-114"/>
      <use x="289.746094" xlink:href="#DejaVuSans-102"/>
      <use x="324.951172" xlink:href="#DejaVuSans-111"/>
      <use x="386.132812" xlink:href="#DejaVuSans-32"/>
      <use x="417.919922" xlink:href="#DejaVuSans-110"/>
      <use x="481.298828" xlink:href="#DejaVuSans-111"/>
      <use x="542.480469" xlink:href="#DejaVuSans-66"/>
      <use x="611.083984" xlink:href="#DejaVuSans-78"/>
     </g>
    </g>
    <g id="line2d_28">
     <path d="M 153 355.370313 
L 173 355.370313 
" style="fill:none;stroke:#ff7f0e;stroke-linecap:square;stroke-width:1.5;"/>
    </g>
    <g id="line2d_29"/>
    <g id="text_18">
     <!-- taylorfo_abs noBN -->
     <defs>
      <path d="M 50.984375 -16.609375 
L 50.984375 -23.578125 
L -0.984375 -23.578125 
L -0.984375 -16.609375 
z
" id="DejaVuSans-95"/>
     </defs>
     <g transform="translate(181 358.870313)scale(0.1 -0.1)">
      <use xlink:href="#DejaVuSans-116"/>
      <use x="39.208984" xlink:href="#DejaVuSans-97"/>
      <use x="100.488281" xlink:href="#DejaVuSans-121"/>
      <use x="159.667969" xlink:href="#DejaVuSans-108"/>
      <use x="187.451172" xlink:href="#DejaVuSans-111"/>
      <use x="248.632812" xlink:href="#DejaVuSans-114"/>
      <use x="289.746094" xlink:href="#DejaVuSans-102"/>
      <use x="324.951172" xlink:href="#DejaVuSans-111"/>
      <use x="386.132812" xlink:href="#DejaVuSans-95"/>
      <use x="436.132812" xlink:href="#DejaVuSans-97"/>
      <use x="497.412109" xlink:href="#DejaVuSans-98"/>
      <use x="560.888672" xlink:href="#DejaVuSans-115"/>
      <use x="612.988281" xlink:href="#DejaVuSans-32"/>
      <use x="644.775391" xlink:href="#DejaVuSans-110"/>
      <use x="708.154297" xlink:href="#DejaVuSans-111"/>
      <use x="769.335938" xlink:href="#DejaVuSans-66"/>
      <use x="837.939453" xlink:href="#DejaVuSans-78"/>
     </g>
    </g>
    <g id="line2d_30">
     <path d="M 153 370.326563 
L 173 370.326563 
" style="fill:none;stroke:#2ca02c;stroke-linecap:square;stroke-width:1.5;"/>
    </g>
    <g id="line2d_31"/>
    <g id="text_19">
     <!-- taylorfo_sq noBN -->
     <defs>
      <path d="M 14.796875 27.296875 
Q 14.796875 17.390625 18.875 11.75 
Q 22.953125 6.109375 30.078125 6.109375 
Q 37.203125 6.109375 41.296875 11.75 
Q 45.40625 17.390625 45.40625 27.296875 
Q 45.40625 37.203125 41.296875 42.84375 
Q 37.203125 48.484375 30.078125 48.484375 
Q 22.953125 48.484375 18.875 42.84375 
Q 14.796875 37.203125 14.796875 27.296875 
z
M 45.40625 8.203125 
Q 42.578125 3.328125 38.25 0.953125 
Q 33.9375 -1.421875 27.875 -1.421875 
Q 17.96875 -1.421875 11.734375 6.484375 
Q 5.515625 14.40625 5.515625 27.296875 
Q 5.515625 40.1875 11.734375 48.09375 
Q 17.96875 56 27.875 56 
Q 33.9375 56 38.25 53.625 
Q 42.578125 51.265625 45.40625 46.390625 
L 45.40625 54.6875 
L 54.390625 54.6875 
L 54.390625 -20.796875 
L 45.40625 -20.796875 
z
" id="DejaVuSans-113"/>
     </defs>
     <g transform="translate(181 373.826563)scale(0.1 -0.1)">
      <use xlink:href="#DejaVuSans-116"/>
      <use x="39.208984" xlink:href="#DejaVuSans-97"/>
      <use x="100.488281" xlink:href="#DejaVuSans-121"/>
      <use x="159.667969" xlink:href="#DejaVuSans-108"/>
      <use x="187.451172" xlink:href="#DejaVuSans-111"/>
      <use x="248.632812" xlink:href="#DejaVuSans-114"/>
      <use x="289.746094" xlink:href="#DejaVuSans-102"/>
      <use x="324.951172" xlink:href="#DejaVuSans-111"/>
      <use x="386.132812" xlink:href="#DejaVuSans-95"/>
      <use x="436.132812" xlink:href="#DejaVuSans-115"/>
      <use x="488.232422" xlink:href="#DejaVuSans-113"/>
      <use x="551.708984" xlink:href="#DejaVuSans-32"/>
      <use x="583.496094" xlink:href="#DejaVuSans-110"/>
      <use x="646.875" xlink:href="#DejaVuSans-111"/>
      <use x="708.056641" xlink:href="#DejaVuSans-66"/>
      <use x="776.660156" xlink:href="#DejaVuSans-78"/>
     </g>
    </g>
    <g id="line2d_32">
     <path d="M 153 385.282812 
L 173 385.282812 
" style="fill:none;stroke:#d62728;stroke-dasharray:5.55,2.4;stroke-dashoffset:0;stroke-width:1.5;"/>
    </g>
    <g id="line2d_33"/>
    <g id="text_20">
     <!-- Molchanov_group noBN -->
     <defs>
      <path d="M 9.8125 72.90625 
L 24.515625 72.90625 
L 43.109375 23.296875 
L 61.8125 72.90625 
L 76.515625 72.90625 
L 76.515625 0 
L 66.890625 0 
L 66.890625 64.015625 
L 48.09375 14.015625 
L 38.1875 14.015625 
L 19.390625 64.015625 
L 19.390625 0 
L 9.8125 0 
z
" id="DejaVuSans-77"/>
      <path d="M 54.890625 33.015625 
L 54.890625 0 
L 45.90625 0 
L 45.90625 32.71875 
Q 45.90625 40.484375 42.875 44.328125 
Q 39.84375 48.1875 33.796875 48.1875 
Q 26.515625 48.1875 22.3125 43.546875 
Q 18.109375 38.921875 18.109375 30.90625 
L 18.109375 0 
L 9.078125 0 
L 9.078125 75.984375 
L 18.109375 75.984375 
L 18.109375 46.1875 
Q 21.34375 51.125 25.703125 53.5625 
Q 30.078125 56 35.796875 56 
Q 45.21875 56 50.046875 50.171875 
Q 54.890625 44.34375 54.890625 33.015625 
z
" id="DejaVuSans-104"/>
      <path d="M 2.984375 54.6875 
L 12.5 54.6875 
L 29.59375 8.796875 
L 46.6875 54.6875 
L 56.203125 54.6875 
L 35.6875 0 
L 23.484375 0 
z
" id="DejaVuSans-118"/>
      <path d="M 45.40625 27.984375 
Q 45.40625 37.75 41.375 43.109375 
Q 37.359375 48.484375 30.078125 48.484375 
Q 22.859375 48.484375 18.828125 43.109375 
Q 14.796875 37.75 14.796875 27.984375 
Q 14.796875 18.265625 18.828125 12.890625 
Q 22.859375 7.515625 30.078125 7.515625 
Q 37.359375 7.515625 41.375 12.890625 
Q 45.40625 18.265625 45.40625 27.984375 
z
M 54.390625 6.78125 
Q 54.390625 -7.171875 48.1875 -13.984375 
Q 42 -20.796875 29.203125 -20.796875 
Q 24.46875 -20.796875 20.265625 -20.09375 
Q 16.0625 -19.390625 12.109375 -17.921875 
L 12.109375 -9.1875 
Q 16.0625 -11.328125 19.921875 -12.34375 
Q 23.78125 -13.375 27.78125 -13.375 
Q 36.625 -13.375 41.015625 -8.765625 
Q 45.40625 -4.15625 45.40625 5.171875 
L 45.40625 9.625 
Q 42.625 4.78125 38.28125 2.390625 
Q 33.9375 0 27.875 0 
Q 17.828125 0 11.671875 7.65625 
Q 5.515625 15.328125 5.515625 27.984375 
Q 5.515625 40.671875 11.671875 48.328125 
Q 17.828125 56 27.875 56 
Q 33.9375 56 38.28125 53.609375 
Q 42.625 51.21875 45.40625 46.390625 
L 45.40625 54.6875 
L 54.390625 54.6875 
z
" id="DejaVuSans-103"/>
     </defs>
     <g transform="translate(181 388.782812)scale(0.1 -0.1)">
      <use xlink:href="#DejaVuSans-77"/>
      <use x="86.279297" xlink:href="#DejaVuSans-111"/>
      <use x="147.460938" xlink:href="#DejaVuSans-108"/>
      <use x="175.244141" xlink:href="#DejaVuSans-99"/>
      <use x="230.224609" xlink:href="#DejaVuSans-104"/>
      <use x="293.603516" xlink:href="#DejaVuSans-97"/>
      <use x="354.882812" xlink:href="#DejaVuSans-110"/>
      <use x="418.261719" xlink:href="#DejaVuSans-111"/>
      <use x="479.443359" xlink:href="#DejaVuSans-118"/>
      <use x="538.623047" xlink:href="#DejaVuSans-95"/>
      <use x="588.623047" xlink:href="#DejaVuSans-103"/>
      <use x="652.099609" xlink:href="#DejaVuSans-114"/>
      <use x="690.962891" xlink:href="#DejaVuSans-111"/>
      <use x="752.144531" xlink:href="#DejaVuSans-117"/>
      <use x="815.523438" xlink:href="#DejaVuSans-112"/>
      <use x="879" xlink:href="#DejaVuSans-32"/>
      <use x="910.787109" xlink:href="#DejaVuSans-110"/>
      <use x="974.166016" xlink:href="#DejaVuSans-111"/>
      <use x="1035.347656" xlink:href="#DejaVuSans-66"/>
      <use x="1103.951172" xlink:href="#DejaVuSans-78"/>
     </g>
    </g>
    <g id="line2d_34">
     <path d="M 153 400.239062 
L 173 400.239062 
" style="fill:none;stroke:#9467bd;stroke-dasharray:5.55,2.4;stroke-dashoffset:0;stroke-width:1.5;"/>
    </g>
    <g id="line2d_35"/>
    <g id="text_21">
     <!-- APnZ noBN -->
     <defs>
      <path d="M 19.671875 64.796875 
L 19.671875 37.40625 
L 32.078125 37.40625 
Q 38.96875 37.40625 42.71875 40.96875 
Q 46.484375 44.53125 46.484375 51.125 
Q 46.484375 57.671875 42.71875 61.234375 
Q 38.96875 64.796875 32.078125 64.796875 
z
M 9.8125 72.90625 
L 32.078125 72.90625 
Q 44.34375 72.90625 50.609375 67.359375 
Q 56.890625 61.8125 56.890625 51.125 
Q 56.890625 40.328125 50.609375 34.8125 
Q 44.34375 29.296875 32.078125 29.296875 
L 19.671875 29.296875 
L 19.671875 0 
L 9.8125 0 
z
" id="DejaVuSans-80"/>
      <path d="M 5.609375 72.90625 
L 62.890625 72.90625 
L 62.890625 65.375 
L 16.796875 8.296875 
L 64.015625 8.296875 
L 64.015625 0 
L 4.5 0 
L 4.5 7.515625 
L 50.59375 64.59375 
L 5.609375 64.59375 
z
" id="DejaVuSans-90"/>
     </defs>
     <g transform="translate(181 403.739062)scale(0.1 -0.1)">
      <use xlink:href="#DejaVuSans-65"/>
      <use x="68.408203" xlink:href="#DejaVuSans-80"/>
      <use x="126.960938" xlink:href="#DejaVuSans-110"/>
      <use x="190.339844" xlink:href="#DejaVuSans-90"/>
      <use x="258.845703" xlink:href="#DejaVuSans-32"/>
      <use x="290.632812" xlink:href="#DejaVuSans-110"/>
      <use x="354.011719" xlink:href="#DejaVuSans-111"/>
      <use x="415.193359" xlink:href="#DejaVuSans-66"/>
      <use x="483.796875" xlink:href="#DejaVuSans-78"/>
     </g>
    </g>
    <g id="line2d_36">
     <path d="M 153 414.917188 
L 173 414.917188 
" style="fill:none;stroke:#8c564b;stroke-linecap:square;stroke-width:1.5;"/>
    </g>
    <g id="line2d_37"/>
    <g id="text_22">
     <!-- taylorfo BN -->
     <g transform="translate(181 418.417188)scale(0.1 -0.1)">
      <use xlink:href="#DejaVuSans-116"/>
      <use x="39.208984" xlink:href="#DejaVuSans-97"/>
      <use x="100.488281" xlink:href="#DejaVuSans-121"/>
      <use x="159.667969" xlink:href="#DejaVuSans-108"/>
      <use x="187.451172" xlink:href="#DejaVuSans-111"/>
      <use x="248.632812" xlink:href="#DejaVuSans-114"/>
      <use x="289.746094" xlink:href="#DejaVuSans-102"/>
      <use x="324.951172" xlink:href="#DejaVuSans-111"/>
      <use x="386.132812" xlink:href="#DejaVuSans-32"/>
      <use x="417.919922" xlink:href="#DejaVuSans-66"/>
      <use x="486.523438" xlink:href="#DejaVuSans-78"/>
     </g>
    </g>
    <g id="line2d_38">
     <path d="M 153 429.595312 
L 173 429.595312 
" style="fill:none;stroke:#e377c2;stroke-linecap:square;stroke-width:1.5;"/>
    </g>
    <g id="line2d_39"/>
    <g id="text_23">
     <!-- taylorfo_abs BN -->
     <g transform="translate(181 433.095312)scale(0.1 -0.1)">
      <use xlink:href="#DejaVuSans-116"/>
      <use x="39.208984" xlink:href="#DejaVuSans-97"/>
      <use x="100.488281" xlink:href="#DejaVuSans-121"/>
      <use x="159.667969" xlink:href="#DejaVuSans-108"/>
      <use x="187.451172" xlink:href="#DejaVuSans-111"/>
      <use x="248.632812" xlink:href="#DejaVuSans-114"/>
      <use x="289.746094" xlink:href="#DejaVuSans-102"/>
      <use x="324.951172" xlink:href="#DejaVuSans-111"/>
      <use x="386.132812" xlink:href="#DejaVuSans-95"/>
      <use x="436.132812" xlink:href="#DejaVuSans-97"/>
      <use x="497.412109" xlink:href="#DejaVuSans-98"/>
      <use x="560.888672" xlink:href="#DejaVuSans-115"/>
      <use x="612.988281" xlink:href="#DejaVuSans-32"/>
      <use x="644.775391" xlink:href="#DejaVuSans-66"/>
      <use x="713.378906" xlink:href="#DejaVuSans-78"/>
     </g>
    </g>
    <g id="line2d_40">
     <path d="M 153 444.551562 
L 173 444.551562 
" style="fill:none;stroke:#7f7f7f;stroke-linecap:square;stroke-width:1.5;"/>
    </g>
    <g id="line2d_41"/>
    <g id="text_24">
     <!-- taylorfo_sq BN -->
     <g transform="translate(181 448.051562)scale(0.1 -0.1)">
      <use xlink:href="#DejaVuSans-116"/>
      <use x="39.208984" xlink:href="#DejaVuSans-97"/>
      <use x="100.488281" xlink:href="#DejaVuSans-121"/>
      <use x="159.667969" xlink:href="#DejaVuSans-108"/>
      <use x="187.451172" xlink:href="#DejaVuSans-111"/>
      <use x="248.632812" xlink:href="#DejaVuSans-114"/>
      <use x="289.746094" xlink:href="#DejaVuSans-102"/>
      <use x="324.951172" xlink:href="#DejaVuSans-111"/>
      <use x="386.132812" xlink:href="#DejaVuSans-95"/>
      <use x="436.132812" xlink:href="#DejaVuSans-115"/>
      <use x="488.232422" xlink:href="#DejaVuSans-113"/>
      <use x="551.708984" xlink:href="#DejaVuSans-32"/>
      <use x="583.496094" xlink:href="#DejaVuSans-66"/>
      <use x="652.099609" xlink:href="#DejaVuSans-78"/>
     </g>
    </g>
    <g id="line2d_42">
     <path d="M 153 459.507812 
L 173 459.507812 
" style="fill:none;stroke:#bcbd22;stroke-dasharray:5.55,2.4;stroke-dashoffset:0;stroke-width:1.5;"/>
    </g>
    <g id="line2d_43"/>
    <g id="text_25">
     <!-- Molchanov_group BN -->
     <g transform="translate(181 463.007812)scale(0.1 -0.1)">
      <use xlink:href="#DejaVuSans-77"/>
      <use x="86.279297" xlink:href="#DejaVuSans-111"/>
      <use x="147.460938" xlink:href="#DejaVuSans-108"/>
      <use x="175.244141" xlink:href="#DejaVuSans-99"/>
      <use x="230.224609" xlink:href="#DejaVuSans-104"/>
      <use x="293.603516" xlink:href="#DejaVuSans-97"/>
      <use x="354.882812" xlink:href="#DejaVuSans-110"/>
      <use x="418.261719" xlink:href="#DejaVuSans-111"/>
      <use x="479.443359" xlink:href="#DejaVuSans-118"/>
      <use x="538.623047" xlink:href="#DejaVuSans-95"/>
      <use x="588.623047" xlink:href="#DejaVuSans-103"/>
      <use x="652.099609" xlink:href="#DejaVuSans-114"/>
      <use x="690.962891" xlink:href="#DejaVuSans-111"/>
      <use x="752.144531" xlink:href="#DejaVuSans-117"/>
      <use x="815.523438" xlink:href="#DejaVuSans-112"/>
      <use x="879" xlink:href="#DejaVuSans-32"/>
      <use x="910.787109" xlink:href="#DejaVuSans-66"/>
      <use x="979.390625" xlink:href="#DejaVuSans-78"/>
     </g>
    </g>
    <g id="line2d_44">
     <path d="M 153 474.464062 
L 173 474.464062 
" style="fill:none;stroke:#17becf;stroke-dasharray:5.55,2.4;stroke-dashoffset:0;stroke-width:1.5;"/>
    </g>
    <g id="line2d_45"/>
    <g id="text_26">
     <!-- Molchanov_BN BN -->
     <g transform="translate(181 477.964062)scale(0.1 -0.1)">
      <use xlink:href="#DejaVuSans-77"/>
      <use x="86.279297" xlink:href="#DejaVuSans-111"/>
      <use x="147.460938" xlink:href="#DejaVuSans-108"/>
      <use x="175.244141" xlink:href="#DejaVuSans-99"/>
      <use x="230.224609" xlink:href="#DejaVuSans-104"/>
      <use x="293.603516" xlink:href="#DejaVuSans-97"/>
      <use x="354.882812" xlink:href="#DejaVuSans-110"/>
      <use x="418.261719" xlink:href="#DejaVuSans-111"/>
      <use x="479.443359" xlink:href="#DejaVuSans-118"/>
      <use x="538.623047" xlink:href="#DejaVuSans-95"/>
      <use x="588.623047" xlink:href="#DejaVuSans-66"/>
      <use x="657.226562" xlink:href="#DejaVuSans-78"/>
      <use x="732.03125" xlink:href="#DejaVuSans-32"/>
      <use x="763.818359" xlink:href="#DejaVuSans-66"/>
      <use x="832.421875" xlink:href="#DejaVuSans-78"/>
     </g>
    </g>
    <g id="line2d_46">
     <path d="M 153 489.420313 
L 173 489.420313 
" style="fill:none;stroke:#1f77b4;stroke-dasharray:5.55,2.4;stroke-dashoffset:0;stroke-width:1.5;"/>
    </g>
    <g id="line2d_47"/>
    <g id="text_27">
     <!-- APnZ BN -->
     <g transform="translate(181 492.920313)scale(0.1 -0.1)">
      <use xlink:href="#DejaVuSans-65"/>
      <use x="68.408203" xlink:href="#DejaVuSans-80"/>
      <use x="126.960938" xlink:href="#DejaVuSans-110"/>
      <use x="190.339844" xlink:href="#DejaVuSans-90"/>
      <use x="258.845703" xlink:href="#DejaVuSans-32"/>
      <use x="290.632812" xlink:href="#DejaVuSans-66"/>
      <use x="359.236328" xlink:href="#DejaVuSans-78"/>
     </g>
    </g>
   </g>
  </g>
 </g>
 <defs>
  <clipPath id="p6ef3d97ff9">
   <rect height="434.88" width="892.8" x="144" y="69.12"/>
  </clipPath>
 </defs>
</svg>
