<?xml version="1.0" encoding="utf-8" standalone="no"?>
<!DOCTYPE svg PUBLIC "-//W3C//DTD SVG 1.1//EN"
  "http://www.w3.org/Graphics/SVG/1.1/DTD/svg11.dtd">
<!-- Created with matplotlib (https://matplotlib.org/) -->
<svg height="576pt" version="1.1" viewBox="0 0 1152 576" width="1152pt" xmlns="http://www.w3.org/2000/svg" xmlns:xlink="http://www.w3.org/1999/xlink">
 <defs>
  <style type="text/css">
*{stroke-linecap:butt;stroke-linejoin:round;}
  </style>
 </defs>
 <g id="figure_1">
  <g id="patch_1">
   <path d="M 0 576 
L 1152 576 
L 1152 0 
L 0 0 
z
" style="fill:#ffffff;"/>
  </g>
  <g id="axes_1">
   <g id="patch_2">
    <path d="M 144 504 
L 1036.8 504 
L 1036.8 69.12 
L 144 69.12 
z
" style="fill:#ffffff;"/>
   </g>
   <g id="matplotlib.axis_1">
    <g id="xtick_1">
     <g id="line2d_1">
      <defs>
       <path d="M 0 0 
L 0 3.5 
" id="m8f19cdc243" style="stroke:#000000;stroke-width:0.8;"/>
      </defs>
      <g>
       <use style="stroke:#000000;stroke-width:0.8;" x="182.527043" xlink:href="#m8f19cdc243" y="504"/>
      </g>
     </g>
     <g id="text_1">
      <!-- 0 -->
      <defs>
       <path d="M 31.78125 66.40625 
Q 24.171875 66.40625 20.328125 58.90625 
Q 16.5 51.421875 16.5 36.375 
Q 16.5 21.390625 20.328125 13.890625 
Q 24.171875 6.390625 31.78125 6.390625 
Q 39.453125 6.390625 43.28125 13.890625 
Q 47.125 21.390625 47.125 36.375 
Q 47.125 51.421875 43.28125 58.90625 
Q 39.453125 66.40625 31.78125 66.40625 
z
M 31.78125 74.21875 
Q 44.046875 74.21875 50.515625 64.515625 
Q 56.984375 54.828125 56.984375 36.375 
Q 56.984375 17.96875 50.515625 8.265625 
Q 44.046875 -1.421875 31.78125 -1.421875 
Q 19.53125 -1.421875 13.0625 8.265625 
Q 6.59375 17.96875 6.59375 36.375 
Q 6.59375 54.828125 13.0625 64.515625 
Q 19.53125 74.21875 31.78125 74.21875 
z
" id="DejaVuSans-48"/>
      </defs>
      <g transform="translate(179.345793 518.598438)scale(0.1 -0.1)">
       <use xlink:href="#DejaVuSans-48"/>
      </g>
     </g>
    </g>
    <g id="xtick_2">
     <g id="line2d_2">
      <g>
       <use style="stroke:#000000;stroke-width:0.8;" x="285.265823" xlink:href="#m8f19cdc243" y="504"/>
      </g>
     </g>
     <g id="text_2">
      <!-- 50 -->
      <defs>
       <path d="M 10.796875 72.90625 
L 49.515625 72.90625 
L 49.515625 64.59375 
L 19.828125 64.59375 
L 19.828125 46.734375 
Q 21.96875 47.46875 24.109375 47.828125 
Q 26.265625 48.1875 28.421875 48.1875 
Q 40.625 48.1875 47.75 41.5 
Q 54.890625 34.8125 54.890625 23.390625 
Q 54.890625 11.625 47.5625 5.09375 
Q 40.234375 -1.421875 26.90625 -1.421875 
Q 22.3125 -1.421875 17.546875 -0.640625 
Q 12.796875 0.140625 7.71875 1.703125 
L 7.71875 11.625 
Q 12.109375 9.234375 16.796875 8.0625 
Q 21.484375 6.890625 26.703125 6.890625 
Q 35.15625 6.890625 40.078125 11.328125 
Q 45.015625 15.765625 45.015625 23.390625 
Q 45.015625 31 40.078125 35.4375 
Q 35.15625 39.890625 26.703125 39.890625 
Q 22.75 39.890625 18.8125 39.015625 
Q 14.890625 38.140625 10.796875 36.28125 
z
" id="DejaVuSans-53"/>
      </defs>
      <g transform="translate(278.903323 518.598438)scale(0.1 -0.1)">
       <use xlink:href="#DejaVuSans-53"/>
       <use x="63.623047" xlink:href="#DejaVuSans-48"/>
      </g>
     </g>
    </g>
    <g id="xtick_3">
     <g id="line2d_3">
      <g>
       <use style="stroke:#000000;stroke-width:0.8;" x="388.004603" xlink:href="#m8f19cdc243" y="504"/>
      </g>
     </g>
     <g id="text_3">
      <!-- 100 -->
      <defs>
       <path d="M 12.40625 8.296875 
L 28.515625 8.296875 
L 28.515625 63.921875 
L 10.984375 60.40625 
L 10.984375 69.390625 
L 28.421875 72.90625 
L 38.28125 72.90625 
L 38.28125 8.296875 
L 54.390625 8.296875 
L 54.390625 0 
L 12.40625 0 
z
" id="DejaVuSans-49"/>
      </defs>
      <g transform="translate(378.460853 518.598438)scale(0.1 -0.1)">
       <use xlink:href="#DejaVuSans-49"/>
       <use x="63.623047" xlink:href="#DejaVuSans-48"/>
       <use x="127.246094" xlink:href="#DejaVuSans-48"/>
      </g>
     </g>
    </g>
    <g id="xtick_4">
     <g id="line2d_4">
      <g>
       <use style="stroke:#000000;stroke-width:0.8;" x="490.743383" xlink:href="#m8f19cdc243" y="504"/>
      </g>
     </g>
     <g id="text_4">
      <!-- 150 -->
      <g transform="translate(481.199633 518.598438)scale(0.1 -0.1)">
       <use xlink:href="#DejaVuSans-49"/>
       <use x="63.623047" xlink:href="#DejaVuSans-53"/>
       <use x="127.246094" xlink:href="#DejaVuSans-48"/>
      </g>
     </g>
    </g>
    <g id="xtick_5">
     <g id="line2d_5">
      <g>
       <use style="stroke:#000000;stroke-width:0.8;" x="593.482163" xlink:href="#m8f19cdc243" y="504"/>
      </g>
     </g>
     <g id="text_5">
      <!-- 200 -->
      <defs>
       <path d="M 19.1875 8.296875 
L 53.609375 8.296875 
L 53.609375 0 
L 7.328125 0 
L 7.328125 8.296875 
Q 12.9375 14.109375 22.625 23.890625 
Q 32.328125 33.6875 34.8125 36.53125 
Q 39.546875 41.84375 41.421875 45.53125 
Q 43.3125 49.21875 43.3125 52.78125 
Q 43.3125 58.59375 39.234375 62.25 
Q 35.15625 65.921875 28.609375 65.921875 
Q 23.96875 65.921875 18.8125 64.3125 
Q 13.671875 62.703125 7.8125 59.421875 
L 7.8125 69.390625 
Q 13.765625 71.78125 18.9375 73 
Q 24.125 74.21875 28.421875 74.21875 
Q 39.75 74.21875 46.484375 68.546875 
Q 53.21875 62.890625 53.21875 53.421875 
Q 53.21875 48.921875 51.53125 44.890625 
Q 49.859375 40.875 45.40625 35.40625 
Q 44.1875 33.984375 37.640625 27.21875 
Q 31.109375 20.453125 19.1875 8.296875 
z
" id="DejaVuSans-50"/>
      </defs>
      <g transform="translate(583.938413 518.598438)scale(0.1 -0.1)">
       <use xlink:href="#DejaVuSans-50"/>
       <use x="63.623047" xlink:href="#DejaVuSans-48"/>
       <use x="127.246094" xlink:href="#DejaVuSans-48"/>
      </g>
     </g>
    </g>
    <g id="xtick_6">
     <g id="line2d_6">
      <g>
       <use style="stroke:#000000;stroke-width:0.8;" x="696.220944" xlink:href="#m8f19cdc243" y="504"/>
      </g>
     </g>
     <g id="text_6">
      <!-- 250 -->
      <g transform="translate(686.677194 518.598438)scale(0.1 -0.1)">
       <use xlink:href="#DejaVuSans-50"/>
       <use x="63.623047" xlink:href="#DejaVuSans-53"/>
       <use x="127.246094" xlink:href="#DejaVuSans-48"/>
      </g>
     </g>
    </g>
    <g id="xtick_7">
     <g id="line2d_7">
      <g>
       <use style="stroke:#000000;stroke-width:0.8;" x="798.959724" xlink:href="#m8f19cdc243" y="504"/>
      </g>
     </g>
     <g id="text_7">
      <!-- 300 -->
      <defs>
       <path d="M 40.578125 39.3125 
Q 47.65625 37.796875 51.625 33 
Q 55.609375 28.21875 55.609375 21.1875 
Q 55.609375 10.40625 48.1875 4.484375 
Q 40.765625 -1.421875 27.09375 -1.421875 
Q 22.515625 -1.421875 17.65625 -0.515625 
Q 12.796875 0.390625 7.625 2.203125 
L 7.625 11.71875 
Q 11.71875 9.328125 16.59375 8.109375 
Q 21.484375 6.890625 26.8125 6.890625 
Q 36.078125 6.890625 40.9375 10.546875 
Q 45.796875 14.203125 45.796875 21.1875 
Q 45.796875 27.640625 41.28125 31.265625 
Q 36.765625 34.90625 28.71875 34.90625 
L 20.21875 34.90625 
L 20.21875 43.015625 
L 29.109375 43.015625 
Q 36.375 43.015625 40.234375 45.921875 
Q 44.09375 48.828125 44.09375 54.296875 
Q 44.09375 59.90625 40.109375 62.90625 
Q 36.140625 65.921875 28.71875 65.921875 
Q 24.65625 65.921875 20.015625 65.03125 
Q 15.375 64.15625 9.8125 62.3125 
L 9.8125 71.09375 
Q 15.4375 72.65625 20.34375 73.4375 
Q 25.25 74.21875 29.59375 74.21875 
Q 40.828125 74.21875 47.359375 69.109375 
Q 53.90625 64.015625 53.90625 55.328125 
Q 53.90625 49.265625 50.4375 45.09375 
Q 46.96875 40.921875 40.578125 39.3125 
z
" id="DejaVuSans-51"/>
      </defs>
      <g transform="translate(789.415974 518.598438)scale(0.1 -0.1)">
       <use xlink:href="#DejaVuSans-51"/>
       <use x="63.623047" xlink:href="#DejaVuSans-48"/>
       <use x="127.246094" xlink:href="#DejaVuSans-48"/>
      </g>
     </g>
    </g>
    <g id="xtick_8">
     <g id="line2d_8">
      <g>
       <use style="stroke:#000000;stroke-width:0.8;" x="901.698504" xlink:href="#m8f19cdc243" y="504"/>
      </g>
     </g>
     <g id="text_8">
      <!-- 350 -->
      <g transform="translate(892.154754 518.598438)scale(0.1 -0.1)">
       <use xlink:href="#DejaVuSans-51"/>
       <use x="63.623047" xlink:href="#DejaVuSans-53"/>
       <use x="127.246094" xlink:href="#DejaVuSans-48"/>
      </g>
     </g>
    </g>
    <g id="xtick_9">
     <g id="line2d_9">
      <g>
       <use style="stroke:#000000;stroke-width:0.8;" x="1004.437284" xlink:href="#m8f19cdc243" y="504"/>
      </g>
     </g>
     <g id="text_9">
      <!-- 400 -->
      <defs>
       <path d="M 37.796875 64.3125 
L 12.890625 25.390625 
L 37.796875 25.390625 
z
M 35.203125 72.90625 
L 47.609375 72.90625 
L 47.609375 25.390625 
L 58.015625 25.390625 
L 58.015625 17.1875 
L 47.609375 17.1875 
L 47.609375 0 
L 37.796875 0 
L 37.796875 17.1875 
L 4.890625 17.1875 
L 4.890625 26.703125 
z
" id="DejaVuSans-52"/>
      </defs>
      <g transform="translate(994.893534 518.598438)scale(0.1 -0.1)">
       <use xlink:href="#DejaVuSans-52"/>
       <use x="63.623047" xlink:href="#DejaVuSans-48"/>
       <use x="127.246094" xlink:href="#DejaVuSans-48"/>
      </g>
     </g>
    </g>
    <g id="text_10">
     <!-- Number of Neurons pruned -->
     <defs>
      <path d="M 9.8125 72.90625 
L 23.09375 72.90625 
L 55.421875 11.921875 
L 55.421875 72.90625 
L 64.984375 72.90625 
L 64.984375 0 
L 51.703125 0 
L 19.390625 60.984375 
L 19.390625 0 
L 9.8125 0 
z
" id="DejaVuSans-78"/>
      <path d="M 8.5 21.578125 
L 8.5 54.6875 
L 17.484375 54.6875 
L 17.484375 21.921875 
Q 17.484375 14.15625 20.5 10.265625 
Q 23.53125 6.390625 29.59375 6.390625 
Q 36.859375 6.390625 41.078125 11.03125 
Q 45.3125 15.671875 45.3125 23.6875 
L 45.3125 54.6875 
L 54.296875 54.6875 
L 54.296875 0 
L 45.3125 0 
L 45.3125 8.40625 
Q 42.046875 3.421875 37.71875 1 
Q 33.40625 -1.421875 27.6875 -1.421875 
Q 18.265625 -1.421875 13.375 4.4375 
Q 8.5 10.296875 8.5 21.578125 
z
M 31.109375 56 
z
" id="DejaVuSans-117"/>
      <path d="M 52 44.1875 
Q 55.375 50.25 60.0625 53.125 
Q 64.75 56 71.09375 56 
Q 79.640625 56 84.28125 50.015625 
Q 88.921875 44.046875 88.921875 33.015625 
L 88.921875 0 
L 79.890625 0 
L 79.890625 32.71875 
Q 79.890625 40.578125 77.09375 44.375 
Q 74.3125 48.1875 68.609375 48.1875 
Q 61.625 48.1875 57.5625 43.546875 
Q 53.515625 38.921875 53.515625 30.90625 
L 53.515625 0 
L 44.484375 0 
L 44.484375 32.71875 
Q 44.484375 40.625 41.703125 44.40625 
Q 38.921875 48.1875 33.109375 48.1875 
Q 26.21875 48.1875 22.15625 43.53125 
Q 18.109375 38.875 18.109375 30.90625 
L 18.109375 0 
L 9.078125 0 
L 9.078125 54.6875 
L 18.109375 54.6875 
L 18.109375 46.1875 
Q 21.1875 51.21875 25.484375 53.609375 
Q 29.78125 56 35.6875 56 
Q 41.65625 56 45.828125 52.96875 
Q 50 49.953125 52 44.1875 
z
" id="DejaVuSans-109"/>
      <path d="M 48.6875 27.296875 
Q 48.6875 37.203125 44.609375 42.84375 
Q 40.53125 48.484375 33.40625 48.484375 
Q 26.265625 48.484375 22.1875 42.84375 
Q 18.109375 37.203125 18.109375 27.296875 
Q 18.109375 17.390625 22.1875 11.75 
Q 26.265625 6.109375 33.40625 6.109375 
Q 40.53125 6.109375 44.609375 11.75 
Q 48.6875 17.390625 48.6875 27.296875 
z
M 18.109375 46.390625 
Q 20.953125 51.265625 25.265625 53.625 
Q 29.59375 56 35.59375 56 
Q 45.5625 56 51.78125 48.09375 
Q 58.015625 40.1875 58.015625 27.296875 
Q 58.015625 14.40625 51.78125 6.484375 
Q 45.5625 -1.421875 35.59375 -1.421875 
Q 29.59375 -1.421875 25.265625 0.953125 
Q 20.953125 3.328125 18.109375 8.203125 
L 18.109375 0 
L 9.078125 0 
L 9.078125 75.984375 
L 18.109375 75.984375 
z
" id="DejaVuSans-98"/>
      <path d="M 56.203125 29.59375 
L 56.203125 25.203125 
L 14.890625 25.203125 
Q 15.484375 15.921875 20.484375 11.0625 
Q 25.484375 6.203125 34.421875 6.203125 
Q 39.59375 6.203125 44.453125 7.46875 
Q 49.3125 8.734375 54.109375 11.28125 
L 54.109375 2.78125 
Q 49.265625 0.734375 44.1875 -0.34375 
Q 39.109375 -1.421875 33.890625 -1.421875 
Q 20.796875 -1.421875 13.15625 6.1875 
Q 5.515625 13.8125 5.515625 26.8125 
Q 5.515625 40.234375 12.765625 48.109375 
Q 20.015625 56 32.328125 56 
Q 43.359375 56 49.78125 48.890625 
Q 56.203125 41.796875 56.203125 29.59375 
z
M 47.21875 32.234375 
Q 47.125 39.59375 43.09375 43.984375 
Q 39.0625 48.390625 32.421875 48.390625 
Q 24.90625 48.390625 20.390625 44.140625 
Q 15.875 39.890625 15.1875 32.171875 
z
" id="DejaVuSans-101"/>
      <path d="M 41.109375 46.296875 
Q 39.59375 47.171875 37.8125 47.578125 
Q 36.03125 48 33.890625 48 
Q 26.265625 48 22.1875 43.046875 
Q 18.109375 38.09375 18.109375 28.8125 
L 18.109375 0 
L 9.078125 0 
L 9.078125 54.6875 
L 18.109375 54.6875 
L 18.109375 46.1875 
Q 20.953125 51.171875 25.484375 53.578125 
Q 30.03125 56 36.53125 56 
Q 37.453125 56 38.578125 55.875 
Q 39.703125 55.765625 41.0625 55.515625 
z
" id="DejaVuSans-114"/>
      <path id="DejaVuSans-32"/>
      <path d="M 30.609375 48.390625 
Q 23.390625 48.390625 19.1875 42.75 
Q 14.984375 37.109375 14.984375 27.296875 
Q 14.984375 17.484375 19.15625 11.84375 
Q 23.34375 6.203125 30.609375 6.203125 
Q 37.796875 6.203125 41.984375 11.859375 
Q 46.1875 17.53125 46.1875 27.296875 
Q 46.1875 37.015625 41.984375 42.703125 
Q 37.796875 48.390625 30.609375 48.390625 
z
M 30.609375 56 
Q 42.328125 56 49.015625 48.375 
Q 55.71875 40.765625 55.71875 27.296875 
Q 55.71875 13.875 49.015625 6.21875 
Q 42.328125 -1.421875 30.609375 -1.421875 
Q 18.84375 -1.421875 12.171875 6.21875 
Q 5.515625 13.875 5.515625 27.296875 
Q 5.515625 40.765625 12.171875 48.375 
Q 18.84375 56 30.609375 56 
z
" id="DejaVuSans-111"/>
      <path d="M 37.109375 75.984375 
L 37.109375 68.5 
L 28.515625 68.5 
Q 23.6875 68.5 21.796875 66.546875 
Q 19.921875 64.59375 19.921875 59.515625 
L 19.921875 54.6875 
L 34.71875 54.6875 
L 34.71875 47.703125 
L 19.921875 47.703125 
L 19.921875 0 
L 10.890625 0 
L 10.890625 47.703125 
L 2.296875 47.703125 
L 2.296875 54.6875 
L 10.890625 54.6875 
L 10.890625 58.5 
Q 10.890625 67.625 15.140625 71.796875 
Q 19.390625 75.984375 28.609375 75.984375 
z
" id="DejaVuSans-102"/>
      <path d="M 54.890625 33.015625 
L 54.890625 0 
L 45.90625 0 
L 45.90625 32.71875 
Q 45.90625 40.484375 42.875 44.328125 
Q 39.84375 48.1875 33.796875 48.1875 
Q 26.515625 48.1875 22.3125 43.546875 
Q 18.109375 38.921875 18.109375 30.90625 
L 18.109375 0 
L 9.078125 0 
L 9.078125 54.6875 
L 18.109375 54.6875 
L 18.109375 46.1875 
Q 21.34375 51.125 25.703125 53.5625 
Q 30.078125 56 35.796875 56 
Q 45.21875 56 50.046875 50.171875 
Q 54.890625 44.34375 54.890625 33.015625 
z
" id="DejaVuSans-110"/>
      <path d="M 44.28125 53.078125 
L 44.28125 44.578125 
Q 40.484375 46.53125 36.375 47.5 
Q 32.28125 48.484375 27.875 48.484375 
Q 21.1875 48.484375 17.84375 46.4375 
Q 14.5 44.390625 14.5 40.28125 
Q 14.5 37.15625 16.890625 35.375 
Q 19.28125 33.59375 26.515625 31.984375 
L 29.59375 31.296875 
Q 39.15625 29.25 43.1875 25.515625 
Q 47.21875 21.78125 47.21875 15.09375 
Q 47.21875 7.46875 41.1875 3.015625 
Q 35.15625 -1.421875 24.609375 -1.421875 
Q 20.21875 -1.421875 15.453125 -0.5625 
Q 10.6875 0.296875 5.421875 2 
L 5.421875 11.28125 
Q 10.40625 8.6875 15.234375 7.390625 
Q 20.0625 6.109375 24.8125 6.109375 
Q 31.15625 6.109375 34.5625 8.28125 
Q 37.984375 10.453125 37.984375 14.40625 
Q 37.984375 18.0625 35.515625 20.015625 
Q 33.0625 21.96875 24.703125 23.78125 
L 21.578125 24.515625 
Q 13.234375 26.265625 9.515625 29.90625 
Q 5.8125 33.546875 5.8125 39.890625 
Q 5.8125 47.609375 11.28125 51.796875 
Q 16.75 56 26.8125 56 
Q 31.78125 56 36.171875 55.265625 
Q 40.578125 54.546875 44.28125 53.078125 
z
" id="DejaVuSans-115"/>
      <path d="M 18.109375 8.203125 
L 18.109375 -20.796875 
L 9.078125 -20.796875 
L 9.078125 54.6875 
L 18.109375 54.6875 
L 18.109375 46.390625 
Q 20.953125 51.265625 25.265625 53.625 
Q 29.59375 56 35.59375 56 
Q 45.5625 56 51.78125 48.09375 
Q 58.015625 40.1875 58.015625 27.296875 
Q 58.015625 14.40625 51.78125 6.484375 
Q 45.5625 -1.421875 35.59375 -1.421875 
Q 29.59375 -1.421875 25.265625 0.953125 
Q 20.953125 3.328125 18.109375 8.203125 
z
M 48.6875 27.296875 
Q 48.6875 37.203125 44.609375 42.84375 
Q 40.53125 48.484375 33.40625 48.484375 
Q 26.265625 48.484375 22.1875 42.84375 
Q 18.109375 37.203125 18.109375 27.296875 
Q 18.109375 17.390625 22.1875 11.75 
Q 26.265625 6.109375 33.40625 6.109375 
Q 40.53125 6.109375 44.609375 11.75 
Q 48.6875 17.390625 48.6875 27.296875 
z
" id="DejaVuSans-112"/>
      <path d="M 45.40625 46.390625 
L 45.40625 75.984375 
L 54.390625 75.984375 
L 54.390625 0 
L 45.40625 0 
L 45.40625 8.203125 
Q 42.578125 3.328125 38.25 0.953125 
Q 33.9375 -1.421875 27.875 -1.421875 
Q 17.96875 -1.421875 11.734375 6.484375 
Q 5.515625 14.40625 5.515625 27.296875 
Q 5.515625 40.1875 11.734375 48.09375 
Q 17.96875 56 27.875 56 
Q 33.9375 56 38.25 53.625 
Q 42.578125 51.265625 45.40625 46.390625 
z
M 14.796875 27.296875 
Q 14.796875 17.390625 18.875 11.75 
Q 22.953125 6.109375 30.078125 6.109375 
Q 37.203125 6.109375 41.296875 11.75 
Q 45.40625 17.390625 45.40625 27.296875 
Q 45.40625 37.203125 41.296875 42.84375 
Q 37.203125 48.484375 30.078125 48.484375 
Q 22.953125 48.484375 18.875 42.84375 
Q 14.796875 37.203125 14.796875 27.296875 
z
" id="DejaVuSans-100"/>
     </defs>
     <g transform="translate(522.147656 532.276562)scale(0.1 -0.1)">
      <use xlink:href="#DejaVuSans-78"/>
      <use x="74.804688" xlink:href="#DejaVuSans-117"/>
      <use x="138.183594" xlink:href="#DejaVuSans-109"/>
      <use x="235.595703" xlink:href="#DejaVuSans-98"/>
      <use x="299.072266" xlink:href="#DejaVuSans-101"/>
      <use x="360.595703" xlink:href="#DejaVuSans-114"/>
      <use x="401.708984" xlink:href="#DejaVuSans-32"/>
      <use x="433.496094" xlink:href="#DejaVuSans-111"/>
      <use x="494.677734" xlink:href="#DejaVuSans-102"/>
      <use x="529.882812" xlink:href="#DejaVuSans-32"/>
      <use x="561.669922" xlink:href="#DejaVuSans-78"/>
      <use x="636.474609" xlink:href="#DejaVuSans-101"/>
      <use x="697.998047" xlink:href="#DejaVuSans-117"/>
      <use x="761.376953" xlink:href="#DejaVuSans-114"/>
      <use x="800.240234" xlink:href="#DejaVuSans-111"/>
      <use x="861.421875" xlink:href="#DejaVuSans-110"/>
      <use x="924.800781" xlink:href="#DejaVuSans-115"/>
      <use x="976.900391" xlink:href="#DejaVuSans-32"/>
      <use x="1008.6875" xlink:href="#DejaVuSans-112"/>
      <use x="1072.164062" xlink:href="#DejaVuSans-114"/>
      <use x="1113.277344" xlink:href="#DejaVuSans-117"/>
      <use x="1176.65625" xlink:href="#DejaVuSans-110"/>
      <use x="1240.035156" xlink:href="#DejaVuSans-101"/>
      <use x="1301.558594" xlink:href="#DejaVuSans-100"/>
     </g>
    </g>
   </g>
   <g id="matplotlib.axis_2">
    <g id="ytick_1">
     <g id="line2d_10">
      <defs>
       <path d="M 0 0 
L -3.5 0 
" id="mb8471b5282" style="stroke:#000000;stroke-width:0.8;"/>
      </defs>
      <g>
       <use style="stroke:#000000;stroke-width:0.8;" x="144" xlink:href="#mb8471b5282" y="433.260877"/>
      </g>
     </g>
     <g id="text_11">
      <!-- 0.2 -->
      <defs>
       <path d="M 10.6875 12.40625 
L 21 12.40625 
L 21 0 
L 10.6875 0 
z
" id="DejaVuSans-46"/>
      </defs>
      <g transform="translate(121.096875 437.060096)scale(0.1 -0.1)">
       <use xlink:href="#DejaVuSans-48"/>
       <use x="63.623047" xlink:href="#DejaVuSans-46"/>
       <use x="95.410156" xlink:href="#DejaVuSans-50"/>
      </g>
     </g>
    </g>
    <g id="ytick_2">
     <g id="line2d_11">
      <g>
       <use style="stroke:#000000;stroke-width:0.8;" x="144" xlink:href="#mb8471b5282" y="346.745715"/>
      </g>
     </g>
     <g id="text_12">
      <!-- 0.4 -->
      <g transform="translate(121.096875 350.544934)scale(0.1 -0.1)">
       <use xlink:href="#DejaVuSans-48"/>
       <use x="63.623047" xlink:href="#DejaVuSans-46"/>
       <use x="95.410156" xlink:href="#DejaVuSans-52"/>
      </g>
     </g>
    </g>
    <g id="ytick_3">
     <g id="line2d_12">
      <g>
       <use style="stroke:#000000;stroke-width:0.8;" x="144" xlink:href="#mb8471b5282" y="260.230552"/>
      </g>
     </g>
     <g id="text_13">
      <!-- 0.6 -->
      <defs>
       <path d="M 33.015625 40.375 
Q 26.375 40.375 22.484375 35.828125 
Q 18.609375 31.296875 18.609375 23.390625 
Q 18.609375 15.53125 22.484375 10.953125 
Q 26.375 6.390625 33.015625 6.390625 
Q 39.65625 6.390625 43.53125 10.953125 
Q 47.40625 15.53125 47.40625 23.390625 
Q 47.40625 31.296875 43.53125 35.828125 
Q 39.65625 40.375 33.015625 40.375 
z
M 52.59375 71.296875 
L 52.59375 62.3125 
Q 48.875 64.0625 45.09375 64.984375 
Q 41.3125 65.921875 37.59375 65.921875 
Q 27.828125 65.921875 22.671875 59.328125 
Q 17.53125 52.734375 16.796875 39.40625 
Q 19.671875 43.65625 24.015625 45.921875 
Q 28.375 48.1875 33.59375 48.1875 
Q 44.578125 48.1875 50.953125 41.515625 
Q 57.328125 34.859375 57.328125 23.390625 
Q 57.328125 12.15625 50.6875 5.359375 
Q 44.046875 -1.421875 33.015625 -1.421875 
Q 20.359375 -1.421875 13.671875 8.265625 
Q 6.984375 17.96875 6.984375 36.375 
Q 6.984375 53.65625 15.1875 63.9375 
Q 23.390625 74.21875 37.203125 74.21875 
Q 40.921875 74.21875 44.703125 73.484375 
Q 48.484375 72.75 52.59375 71.296875 
z
" id="DejaVuSans-54"/>
      </defs>
      <g transform="translate(121.096875 264.029771)scale(0.1 -0.1)">
       <use xlink:href="#DejaVuSans-48"/>
       <use x="63.623047" xlink:href="#DejaVuSans-46"/>
       <use x="95.410156" xlink:href="#DejaVuSans-54"/>
      </g>
     </g>
    </g>
    <g id="ytick_4">
     <g id="line2d_13">
      <g>
       <use style="stroke:#000000;stroke-width:0.8;" x="144" xlink:href="#mb8471b5282" y="173.71539"/>
      </g>
     </g>
     <g id="text_14">
      <!-- 0.8 -->
      <defs>
       <path d="M 31.78125 34.625 
Q 24.75 34.625 20.71875 30.859375 
Q 16.703125 27.09375 16.703125 20.515625 
Q 16.703125 13.921875 20.71875 10.15625 
Q 24.75 6.390625 31.78125 6.390625 
Q 38.8125 6.390625 42.859375 10.171875 
Q 46.921875 13.96875 46.921875 20.515625 
Q 46.921875 27.09375 42.890625 30.859375 
Q 38.875 34.625 31.78125 34.625 
z
M 21.921875 38.8125 
Q 15.578125 40.375 12.03125 44.71875 
Q 8.5 49.078125 8.5 55.328125 
Q 8.5 64.0625 14.71875 69.140625 
Q 20.953125 74.21875 31.78125 74.21875 
Q 42.671875 74.21875 48.875 69.140625 
Q 55.078125 64.0625 55.078125 55.328125 
Q 55.078125 49.078125 51.53125 44.71875 
Q 48 40.375 41.703125 38.8125 
Q 48.828125 37.15625 52.796875 32.3125 
Q 56.78125 27.484375 56.78125 20.515625 
Q 56.78125 9.90625 50.3125 4.234375 
Q 43.84375 -1.421875 31.78125 -1.421875 
Q 19.734375 -1.421875 13.25 4.234375 
Q 6.78125 9.90625 6.78125 20.515625 
Q 6.78125 27.484375 10.78125 32.3125 
Q 14.796875 37.15625 21.921875 38.8125 
z
M 18.3125 54.390625 
Q 18.3125 48.734375 21.84375 45.5625 
Q 25.390625 42.390625 31.78125 42.390625 
Q 38.140625 42.390625 41.71875 45.5625 
Q 45.3125 48.734375 45.3125 54.390625 
Q 45.3125 60.0625 41.71875 63.234375 
Q 38.140625 66.40625 31.78125 66.40625 
Q 25.390625 66.40625 21.84375 63.234375 
Q 18.3125 60.0625 18.3125 54.390625 
z
" id="DejaVuSans-56"/>
      </defs>
      <g transform="translate(121.096875 177.514608)scale(0.1 -0.1)">
       <use xlink:href="#DejaVuSans-48"/>
       <use x="63.623047" xlink:href="#DejaVuSans-46"/>
       <use x="95.410156" xlink:href="#DejaVuSans-56"/>
      </g>
     </g>
    </g>
    <g id="ytick_5">
     <g id="line2d_14">
      <g>
       <use style="stroke:#000000;stroke-width:0.8;" x="144" xlink:href="#mb8471b5282" y="87.200227"/>
      </g>
     </g>
     <g id="text_15">
      <!-- 1.0 -->
      <g transform="translate(121.096875 90.999446)scale(0.1 -0.1)">
       <use xlink:href="#DejaVuSans-49"/>
       <use x="63.623047" xlink:href="#DejaVuSans-46"/>
       <use x="95.410156" xlink:href="#DejaVuSans-48"/>
      </g>
     </g>
    </g>
    <g id="text_16">
     <!-- Accuracy -->
     <defs>
      <path d="M 34.1875 63.1875 
L 20.796875 26.90625 
L 47.609375 26.90625 
z
M 28.609375 72.90625 
L 39.796875 72.90625 
L 67.578125 0 
L 57.328125 0 
L 50.6875 18.703125 
L 17.828125 18.703125 
L 11.1875 0 
L 0.78125 0 
z
" id="DejaVuSans-65"/>
      <path d="M 48.78125 52.59375 
L 48.78125 44.1875 
Q 44.96875 46.296875 41.140625 47.34375 
Q 37.3125 48.390625 33.40625 48.390625 
Q 24.65625 48.390625 19.8125 42.84375 
Q 14.984375 37.3125 14.984375 27.296875 
Q 14.984375 17.28125 19.8125 11.734375 
Q 24.65625 6.203125 33.40625 6.203125 
Q 37.3125 6.203125 41.140625 7.25 
Q 44.96875 8.296875 48.78125 10.40625 
L 48.78125 2.09375 
Q 45.015625 0.34375 40.984375 -0.53125 
Q 36.96875 -1.421875 32.421875 -1.421875 
Q 20.0625 -1.421875 12.78125 6.34375 
Q 5.515625 14.109375 5.515625 27.296875 
Q 5.515625 40.671875 12.859375 48.328125 
Q 20.21875 56 33.015625 56 
Q 37.15625 56 41.109375 55.140625 
Q 45.0625 54.296875 48.78125 52.59375 
z
" id="DejaVuSans-99"/>
      <path d="M 34.28125 27.484375 
Q 23.390625 27.484375 19.1875 25 
Q 14.984375 22.515625 14.984375 16.5 
Q 14.984375 11.71875 18.140625 8.90625 
Q 21.296875 6.109375 26.703125 6.109375 
Q 34.1875 6.109375 38.703125 11.40625 
Q 43.21875 16.703125 43.21875 25.484375 
L 43.21875 27.484375 
z
M 52.203125 31.203125 
L 52.203125 0 
L 43.21875 0 
L 43.21875 8.296875 
Q 40.140625 3.328125 35.546875 0.953125 
Q 30.953125 -1.421875 24.3125 -1.421875 
Q 15.921875 -1.421875 10.953125 3.296875 
Q 6 8.015625 6 15.921875 
Q 6 25.140625 12.171875 29.828125 
Q 18.359375 34.515625 30.609375 34.515625 
L 43.21875 34.515625 
L 43.21875 35.40625 
Q 43.21875 41.609375 39.140625 45 
Q 35.0625 48.390625 27.6875 48.390625 
Q 23 48.390625 18.546875 47.265625 
Q 14.109375 46.140625 10.015625 43.890625 
L 10.015625 52.203125 
Q 14.9375 54.109375 19.578125 55.046875 
Q 24.21875 56 28.609375 56 
Q 40.484375 56 46.34375 49.84375 
Q 52.203125 43.703125 52.203125 31.203125 
z
" id="DejaVuSans-97"/>
      <path d="M 32.171875 -5.078125 
Q 28.375 -14.84375 24.75 -17.8125 
Q 21.140625 -20.796875 15.09375 -20.796875 
L 7.90625 -20.796875 
L 7.90625 -13.28125 
L 13.1875 -13.28125 
Q 16.890625 -13.28125 18.9375 -11.515625 
Q 21 -9.765625 23.484375 -3.21875 
L 25.09375 0.875 
L 2.984375 54.6875 
L 12.5 54.6875 
L 29.59375 11.921875 
L 46.6875 54.6875 
L 56.203125 54.6875 
z
" id="DejaVuSans-121"/>
     </defs>
     <g transform="translate(115.017187 309.388125)rotate(-90)scale(0.1 -0.1)">
      <use xlink:href="#DejaVuSans-65"/>
      <use x="66.658203" xlink:href="#DejaVuSans-99"/>
      <use x="121.638672" xlink:href="#DejaVuSans-99"/>
      <use x="176.619141" xlink:href="#DejaVuSans-117"/>
      <use x="239.998047" xlink:href="#DejaVuSans-114"/>
      <use x="281.111328" xlink:href="#DejaVuSans-97"/>
      <use x="342.390625" xlink:href="#DejaVuSans-99"/>
      <use x="397.371094" xlink:href="#DejaVuSans-121"/>
     </g>
    </g>
   </g>
   <g id="line2d_15">
    <path clip-path="url(#p8b3e3ed9e8)" d="M 184.581818 88.966578 
L 194.855696 89.29101 
L 205.129574 90.603157 
L 215.403452 92.751617 
L 225.67733 93.328384 
L 235.951208 93.544672 
L 246.225086 93.40769 
L 256.498964 95.224508 
L 266.772842 109.542768 
L 277.04672 115.497895 
L 287.320598 124.992934 
L 297.594476 144.076737 
L 307.868354 151.596346 
L 318.142232 151.033998 
L 328.41611 157.414491 
L 338.689988 170.002447 
L 348.963867 187.312689 
L 359.237745 193.080367 
L 369.511623 194.745784 
L 379.785501 199.749244 
L 390.059379 210.794346 
L 400.333257 219.258413 
L 410.607135 247.296535 
L 420.881013 272.126387 
L 431.154891 277.569633 
L 441.428769 287.136768 
L 451.702647 301.094547 
L 461.976525 294.620329 
L 472.250403 294.267059 
L 482.524281 316.436569 
L 492.798159 317.229625 
L 503.072037 315.009069 
L 513.345915 313.451796 
L 523.619793 332.052556 
L 533.893671 337.185789 
L 544.167549 334.950814 
L 554.441427 336.63786 
L 564.715305 314.706266 
L 574.989183 329.716647 
L 585.263061 346.630361 
L 595.536939 362.03006 
L 605.810817 359.261575 
L 616.084695 370.674367 
L 626.358573 370.6239 
L 636.632451 390.839609 
L 646.906329 407.955192 
L 657.180207 418.351431 
L 667.454085 436.404262 
L 677.727963 438.358062 
L 688.001841 447.478202 
L 698.275719 456.973241 
L 708.549597 456.151347 
L 718.823475 463.670957 
L 729.097353 462.481373 
L 739.371231 475.004443 
L 749.645109 474.953976 
L 759.918987 477.239418 
L 770.192865 477.152903 
L 780.466743 477.520593 
L 790.740621 477.56385 
L 801.014499 477.592689 
L 811.288377 477.412449 
L 821.562255 477.585479 
L 831.836133 477.592689 
L 842.110012 477.592689 
L 852.38389 477.56385 
L 862.657768 477.592689 
L 872.931646 477.592689 
L 883.205524 477.592689 
L 893.479402 477.592689 
L 903.75328 477.592689 
L 914.027158 482.055429 
L 924.301036 476.886148 
L 934.574914 476.886148 
L 944.848792 476.886148 
L 955.12267 476.886148 
L 965.396548 476.886148 
L 975.670426 476.886148 
L 985.944304 477.592689 
L 996.218182 477.592689 
" style="fill:none;stroke:#1f77b4;stroke-linecap:square;stroke-width:1.5;"/>
   </g>
   <g id="line2d_16">
    <path clip-path="url(#p8b3e3ed9e8)" d="M 184.581818 89.017045 
L 194.855696 89.009836 
L 205.129574 88.952159 
L 215.403452 89.002626 
L 225.67733 89.182866 
L 235.951208 89.47846 
L 246.225086 89.420783 
L 256.498964 89.82452 
L 266.772842 90.098485 
L 277.04672 90.408498 
L 287.320598 91.215973 
L 297.594476 92.15322 
L 307.868354 92.888599 
L 318.142232 95.512892 
L 328.41611 97.582047 
L 338.689988 97.646933 
L 348.963867 105.736101 
L 359.237745 107.927818 
L 369.511623 105.772149 
L 379.785501 109.896038 
L 390.059379 123.442871 
L 400.333257 125.908553 
L 410.607135 135.576622 
L 420.881013 143.572065 
L 431.154891 171.040629 
L 441.428769 176.318054 
L 451.702647 188.358081 
L 461.976525 192.373826 
L 472.250403 199.720406 
L 482.524281 196.086769 
L 492.798159 212.120912 
L 503.072037 219.84239 
L 513.345915 235.833276 
L 523.619793 249.127773 
L 533.893671 264.779808 
L 544.167549 267.375263 
L 554.441427 283.322891 
L 564.715305 295.168259 
L 574.989183 305.009358 
L 585.263061 323.675005 
L 595.536939 336.472039 
L 605.810817 355.015122 
L 616.084695 358.403633 
L 626.358573 363.032194 
L 636.632451 373.608673 
L 646.906329 384.264457 
L 657.180207 391.740809 
L 667.454085 407.436101 
L 677.727963 415.546898 
L 688.001841 421.314575 
L 698.275719 433.195991 
L 708.549597 424.616571 
L 718.823475 407.782162 
L 729.097353 432.655271 
L 739.371231 418.221658 
L 749.645109 423.72979 
L 759.918987 425.834993 
L 770.192865 441.688896 
L 780.466743 436.519615 
L 790.740621 454.745476 
L 801.014499 450.398089 
L 811.288377 455.228519 
L 821.562255 472.243168 
L 831.836133 435.164211 
L 842.110012 430.70868 
L 852.38389 445.387419 
L 862.657768 470.145175 
L 872.931646 469.827953 
L 883.205524 465.985238 
L 893.479402 461.911815 
L 903.75328 467.55693 
L 914.027158 458.999138 
L 924.301036 456.064832 
L 934.574914 469.330491 
L 944.848792 463.663747 
L 955.12267 467.275755 
L 965.396548 475.574001 
L 975.670426 475.574001 
L 985.944304 475.574001 
L 996.218182 475.574001 
" style="fill:none;stroke:#ff7f0e;stroke-linecap:square;stroke-width:1.5;"/>
   </g>
   <g id="line2d_17">
    <path clip-path="url(#p8b3e3ed9e8)" d="M 184.581818 88.973788 
L 194.855696 88.995417 
L 205.129574 88.952159 
L 215.403452 89.031465 
L 225.67733 89.146818 
L 235.951208 89.226124 
L 246.225086 89.46404 
L 256.498964 89.492879 
L 266.772842 89.536136 
L 277.04672 89.795682 
L 287.320598 90.336402 
L 297.594476 91.43947 
L 307.868354 90.790606 
L 318.142232 91.778321 
L 328.41611 93.328384 
L 338.689988 93.335594 
L 348.963867 96.998069 
L 359.237745 104.589775 
L 369.511623 115.555572 
L 379.785501 112.066127 
L 390.059379 134.920549 
L 400.333257 118.958501 
L 410.607135 123.414032 
L 420.881013 125.865295 
L 431.154891 140.212393 
L 441.428769 167.45746 
L 451.702647 171.509253 
L 461.976525 184.991199 
L 472.250403 199.424812 
L 482.524281 211.515306 
L 492.798159 253.266082 
L 503.072037 257.59184 
L 513.345915 282.558674 
L 523.619793 295.644092 
L 533.893671 307.316429 
L 544.167549 320.72628 
L 554.441427 325.693692 
L 564.715305 328.966849 
L 574.989183 336.774842 
L 585.263061 349.896309 
L 595.536939 357.192421 
L 605.810817 356.341688 
L 616.084695 325.044828 
L 626.358573 330.257367 
L 636.632451 403.478033 
L 646.906329 416.339953 
L 657.180207 417.897226 
L 667.454085 423.852353 
L 677.727963 422.626722 
L 688.001841 420.68734 
L 698.275719 423.390939 
L 708.549597 421.538073 
L 718.823475 450.729731 
L 729.097353 454.550817 
L 739.371231 455.149213 
L 749.645109 454.125451 
L 759.918987 475.574001 
L 770.192865 475.574001 
L 780.466743 475.574001 
L 790.740621 475.574001 
L 801.014499 475.574001 
L 811.288377 475.574001 
L 821.562255 475.574001 
L 831.836133 475.574001 
L 842.110012 475.574001 
L 852.38389 475.574001 
L 862.657768 475.574001 
L 872.931646 475.574001 
L 883.205524 475.574001 
L 893.479402 475.574001 
L 903.75328 475.574001 
L 914.027158 475.574001 
L 924.301036 475.574001 
L 934.574914 475.574001 
L 944.848792 475.574001 
L 955.12267 475.574001 
L 965.396548 475.574001 
L 975.670426 475.574001 
L 985.944304 475.574001 
L 996.218182 475.574001 
" style="fill:none;stroke:#2ca02c;stroke-linecap:square;stroke-width:1.5;"/>
   </g>
   <g id="line2d_18">
    <path clip-path="url(#p8b3e3ed9e8)" d="M 184.581818 89.017045 
L 194.855696 89.002626 
L 205.129574 89.197285 
L 215.403452 89.312639 
L 225.67733 89.485669 
L 235.951208 89.788472 
L 246.225086 90.54548 
L 256.498964 91.071781 
L 266.772842 91.389003 
L 277.04672 93.184192 
L 287.320598 94.222374 
L 297.594476 93.76096 
L 307.868354 94.763094 
L 318.142232 95.974306 
L 328.41611 97.834382 
L 338.689988 103.890444 
L 348.963867 103.032502 
L 359.237745 108.324346 
L 369.511623 113.673867 
L 379.785501 126.889058 
L 390.059379 144.992356 
L 400.333257 150.846548 
L 410.607135 172.727675 
L 420.881013 196.757261 
L 431.154891 206.418121 
L 441.428769 208.775659 
L 451.702647 224.341179 
L 461.976525 237.621256 
L 472.250403 240.050891 
L 482.524281 243.742204 
L 492.798159 269.39395 
L 503.072037 276.740529 
L 513.345915 302.312969 
L 523.619793 332.989804 
L 533.893671 357.870123 
L 544.167549 368.799872 
L 554.441427 391.387539 
L 564.715305 390.161907 
L 574.989183 404.227831 
L 585.263061 423.982126 
L 595.536939 433.952999 
L 605.810817 442.020538 
L 616.084695 445.279275 
L 626.358573 451.205564 
L 636.632451 453.894744 
L 646.906329 452.056296 
L 657.180207 458.746802 
L 667.454085 471.176147 
L 677.727963 472.798307 
L 688.001841 474.319532 
L 698.275719 475.177474 
L 708.549597 475.271198 
L 718.823475 474.802575 
L 729.097353 474.946766 
L 739.371231 474.780946 
L 749.645109 473.937423 
L 759.918987 477.347562 
L 770.192865 477.369191 
L 780.466743 477.318724 
L 790.740621 477.426868 
L 801.014499 477.491754 
L 811.288377 477.578269 
L 821.562255 477.578269 
L 831.836133 477.56385 
L 842.110012 477.585479 
L 852.38389 477.578269 
L 862.657768 477.592689 
L 872.931646 477.592689 
L 883.205524 477.592689 
L 893.479402 477.592689 
L 903.75328 477.592689 
L 914.027158 477.592689 
L 924.301036 477.592689 
L 934.574914 477.592689 
L 944.848792 477.585479 
L 955.12267 475.725403 
L 965.396548 475.696565 
L 975.670426 476.958244 
L 985.944304 484.232727 
L 996.218182 477.592689 
" style="fill:none;stroke:#d62728;stroke-dasharray:5.55,2.4;stroke-dashoffset:0;stroke-width:1.5;"/>
   </g>
   <g id="line2d_19">
    <path clip-path="url(#p8b3e3ed9e8)" d="M 184.581818 88.973788 
L 194.855696 89.11077 
L 205.129574 89.579394 
L 215.403452 90.271515 
L 225.67733 90.913169 
L 235.951208 92.852551 
L 246.225086 96.226642 
L 256.498964 97.365759 
L 266.772842 97.589256 
L 277.04672 102.599926 
L 287.320598 100.501933 
L 297.594476 113.565723 
L 307.868354 127.552341 
L 318.142232 153.232925 
L 328.41611 185.272373 
L 338.689988 202.842161 
L 348.963867 199.554585 
L 359.237745 212.142541 
L 369.511623 211.897415 
L 379.785501 306.05475 
L 390.059379 300.568247 
L 400.333257 329.529197 
L 410.607135 324.540156 
L 420.881013 332.376988 
L 431.154891 399.188322 
L 441.428769 406.506063 
L 451.702647 411.668135 
L 461.976525 372.390251 
L 472.250403 374.870352 
L 482.524281 430.730309 
L 492.798159 433.246458 
L 503.072037 445.834414 
L 513.345915 448.501965 
L 523.619793 463.130237 
L 533.893671 462.791386 
L 544.167549 464.853331 
L 554.441427 466.223154 
L 564.715305 470.137965 
L 574.989183 466.864808 
L 585.263061 471.017536 
L 595.536939 468.905124 
L 605.810817 472.502713 
L 616.084695 472.805516 
L 626.358573 475.574001 
L 636.632451 475.574001 
L 646.906329 475.574001 
L 657.180207 475.574001 
L 667.454085 475.574001 
L 677.727963 475.574001 
L 688.001841 475.574001 
L 698.275719 475.574001 
L 708.549597 475.574001 
L 718.823475 475.574001 
L 729.097353 475.574001 
L 739.371231 475.574001 
L 749.645109 475.574001 
L 759.918987 475.574001 
L 770.192865 475.574001 
L 780.466743 475.574001 
L 790.740621 475.574001 
L 801.014499 475.574001 
L 811.288377 475.574001 
L 821.562255 475.574001 
L 831.836133 475.574001 
L 842.110012 475.574001 
L 852.38389 475.574001 
L 862.657768 475.574001 
L 872.931646 475.574001 
L 883.205524 475.574001 
L 893.479402 475.574001 
L 903.75328 475.574001 
L 914.027158 475.574001 
L 924.301036 475.574001 
L 934.574914 475.574001 
L 944.848792 475.574001 
L 955.12267 475.574001 
L 965.396548 475.574001 
L 975.670426 475.574001 
L 985.944304 475.574001 
L 996.218182 475.574001 
" style="fill:none;stroke:#9467bd;stroke-dasharray:5.55,2.4;stroke-dashoffset:0;stroke-width:1.5;"/>
   </g>
   <g id="line2d_20">
    <path clip-path="url(#p8b3e3ed9e8)" d="M 184.581818 89.089141 
L 194.855696 89.29822 
L 205.129574 89.399154 
L 215.403452 89.622652 
L 225.67733 89.954293 
L 235.951208 90.408498 
L 246.225086 90.502222 
L 256.498964 91.129457 
L 266.772842 91.302488 
L 277.04672 91.533195 
L 287.320598 91.97298 
L 297.594476 92.427185 
L 307.868354 92.802084 
L 318.142232 93.40048 
L 328.41611 94.179117 
L 338.689988 95.318233 
L 348.963867 96.724105 
L 359.237745 98.641857 
L 369.511623 101.979901 
L 379.785501 102.426896 
L 390.059379 106.666139 
L 400.333257 110.025811 
L 410.607135 117.141683 
L 420.881013 122.765168 
L 431.154891 127.343262 
L 441.428769 145.936813 
L 451.702647 146.650563 
L 461.976525 146.679401 
L 472.250403 148.272722 
L 482.524281 152.050551 
L 492.798159 158.611284 
L 503.072037 160.182976 
L 513.345915 165.597384 
L 523.619793 175.078003 
L 533.893671 175.784544 
L 544.167549 184.126048 
L 554.441427 188.531111 
L 564.715305 191.220291 
L 574.989183 192.633372 
L 585.263061 191.797059 
L 595.536939 193.801327 
L 605.810817 199.684358 
L 616.084695 203.75778 
L 626.358573 212.546278 
L 636.632451 214.990332 
L 646.906329 221.010345 
L 657.180207 229.488831 
L 667.454085 248.154477 
L 677.727963 248.514957 
L 688.001841 260.2666 
L 698.275719 263.633482 
L 708.549597 278.910618 
L 718.823475 292.716996 
L 729.097353 312.175698 
L 739.371231 309.782112 
L 749.645109 335.787128 
L 759.918987 352.174541 
L 770.192865 350.112597 
L 780.466743 352.90271 
L 790.740621 372.599329 
L 801.014499 372.455137 
L 811.288377 383.291161 
L 821.562255 394.956289 
L 831.836133 402.223563 
L 842.110012 403.88898 
L 852.38389 410.485761 
L 862.657768 411.105786 
L 872.931646 410.305521 
L 883.205524 413.549839 
L 893.479402 413.917529 
L 903.75328 407.003525 
L 914.027158 444.154578 
L 924.301036 469.763066 
L 934.574914 470.786829 
L 944.848792 475.372133 
L 955.12267 475.574001 
L 965.396548 475.574001 
L 975.670426 475.574001 
L 985.944304 475.574001 
L 996.218182 475.574001 
" style="fill:none;stroke:#8c564b;stroke-linecap:square;stroke-width:1.5;"/>
   </g>
   <g id="line2d_21">
    <path clip-path="url(#p8b3e3ed9e8)" d="M 184.581818 88.93053 
L 194.855696 88.973788 
L 205.129574 88.966578 
L 215.403452 88.966578 
L 225.67733 89.11077 
L 235.951208 89.204495 
L 246.225086 89.247753 
L 256.498964 89.406364 
L 266.772842 89.420783 
L 277.04672 89.932664 
L 287.320598 89.990341 
L 297.594476 90.112904 
L 307.868354 90.394078 
L 318.142232 90.783397 
L 328.41611 91.057361 
L 338.689988 91.338536 
L 348.963867 91.706225 
L 359.237745 92.311831 
L 369.511623 92.081124 
L 379.785501 92.600215 
L 390.059379 92.802084 
L 400.333257 93.94841 
L 410.607135 94.193536 
L 420.881013 95.397539 
L 431.154891 96.414092 
L 441.428769 98.014622 
L 451.702647 99.391655 
L 461.976525 103.003663 
L 472.250403 105.058399 
L 482.524281 110.883753 
L 492.798159 119.470383 
L 503.072037 116.773993 
L 513.345915 120.638337 
L 523.619793 133.752594 
L 533.893671 146.412646 
L 544.167549 154.992067 
L 554.441427 160.096461 
L 564.715305 181.480125 
L 574.989183 187.327109 
L 585.263061 200.809055 
L 595.536939 220.195661 
L 605.810817 228.010864 
L 616.084695 234.196698 
L 626.358573 238.053832 
L 636.632451 244.463164 
L 646.906329 267.007573 
L 657.180207 276.300744 
L 667.454085 282.162146 
L 677.727963 281.751199 
L 688.001841 283.733838 
L 698.275719 317.871279 
L 708.549597 325.203439 
L 718.823475 323.422669 
L 729.097353 336.234123 
L 739.371231 357.870123 
L 749.645109 360.883734 
L 759.918987 375.922953 
L 770.192865 383.377677 
L 780.466743 383.824672 
L 790.740621 393.161099 
L 801.014499 429.136988 
L 811.288377 435.020019 
L 821.562255 444.853909 
L 831.836133 450.513443 
L 842.110012 450.253897 
L 852.38389 445.524402 
L 862.657768 450.823455 
L 872.931646 444.096901 
L 883.205524 452.077925 
L 893.479402 464.218886 
L 903.75328 468.494177 
L 914.027158 472.02688 
L 924.301036 470.844506 
L 934.574914 472.437827 
L 944.848792 475.566792 
L 955.12267 468.321147 
L 965.396548 469.928887 
L 975.670426 469.150251 
L 985.944304 464.319821 
L 996.218182 462.89953 
" style="fill:none;stroke:#e377c2;stroke-linecap:square;stroke-width:1.5;"/>
   </g>
   <g id="line2d_22">
    <path clip-path="url(#p8b3e3ed9e8)" d="M 184.581818 88.93053 
L 194.855696 88.93774 
L 205.129574 89.002626 
L 215.403452 89.081932 
L 225.67733 89.190076 
L 235.951208 89.305429 
L 246.225086 89.485669 
L 256.498964 89.586604 
L 266.772842 89.6587 
L 277.04672 89.774053 
L 287.320598 89.788472 
L 297.594476 90.386869 
L 307.868354 90.581528 
L 318.142232 90.992475 
L 328.41611 91.735063 
L 338.689988 91.965771 
L 348.963867 94.049344 
L 359.237745 94.532387 
L 369.511623 94.964963 
L 379.785501 97.509951 
L 390.059379 98.555342 
L 400.333257 99.196996 
L 410.607135 99.254673 
L 420.881013 110.090697 
L 431.154891 120.24181 
L 441.428769 119.232466 
L 451.702647 121.755825 
L 461.976525 123.046343 
L 472.250403 150.500488 
L 482.524281 154.105286 
L 492.798159 154.509024 
L 503.072037 168.15679 
L 513.345915 180.809633 
L 523.619793 187.017096 
L 533.893671 182.092941 
L 544.167549 196.05793 
L 554.441427 201.292098 
L 564.715305 226.28777 
L 574.989183 261.066865 
L 585.263061 275.514898 
L 595.536939 275.709557 
L 605.810817 347.171081 
L 616.084695 365.569972 
L 626.358573 373.154468 
L 636.632451 391.293814 
L 646.906329 406.989106 
L 657.180207 403.312212 
L 667.454085 405.835571 
L 677.727963 408.070546 
L 688.001841 408.805925 
L 698.275719 415.171999 
L 708.549597 421.538073 
L 718.823475 409.656657 
L 729.097353 426.354084 
L 739.371231 424.667038 
L 749.645109 435.279564 
L 759.918987 436.490777 
L 770.192865 437.774085 
L 780.466743 445.113455 
L 790.740621 448.977799 
L 801.014499 442.467533 
L 811.288377 444.277141 
L 821.562255 449.186877 
L 831.836133 446.432811 
L 842.110012 450.253897 
L 852.38389 465.999657 
L 862.657768 469.799114 
L 872.931646 469.604455 
L 883.205524 469.618874 
L 893.479402 468.717675 
L 903.75328 472.978547 
L 914.027158 472.322473 
L 924.301036 475.444229 
L 934.574914 476.367057 
L 944.848792 478.883206 
L 955.12267 479.806035 
L 965.396548 478.573194 
L 975.670426 475.574001 
L 985.944304 475.574001 
L 996.218182 475.574001 
" style="fill:none;stroke:#7f7f7f;stroke-linecap:square;stroke-width:1.5;"/>
   </g>
   <g id="line2d_23">
    <path clip-path="url(#p8b3e3ed9e8)" d="M 184.581818 88.94495 
L 194.855696 88.887273 
L 205.129574 88.93053 
L 215.403452 89.009836 
L 225.67733 89.103561 
L 235.951208 89.154028 
L 246.225086 89.11077 
L 256.498964 89.283801 
L 266.772842 89.312639 
L 277.04672 89.507298 
L 287.320598 89.738005 
L 297.594476 89.903826 
L 307.868354 90.048018 
L 318.142232 90.343611 
L 328.41611 90.53827 
L 338.689988 91.014104 
L 348.963867 91.100619 
L 359.237745 91.735063 
L 369.511623 92.484862 
L 379.785501 92.852551 
L 390.059379 92.967905 
L 400.333257 93.674445 
L 410.607135 93.962829 
L 420.881013 97.956946 
L 431.154891 102.131302 
L 441.428769 108.24504 
L 451.702647 109.744637 
L 461.976525 114.308311 
L 472.250403 115.822327 
L 482.524281 117.357971 
L 492.798159 121.705358 
L 503.072037 125.497606 
L 513.345915 135.410801 
L 523.619793 140.334956 
L 533.893671 142.858315 
L 544.167549 154.840665 
L 554.441427 155.093001 
L 564.715305 161.286045 
L 574.989183 172.698836 
L 585.263061 175.13568 
L 595.536939 177.64462 
L 605.810817 188.112955 
L 616.084695 194.767413 
L 626.358573 205.567389 
L 636.632451 211.62345 
L 646.906329 218.24907 
L 657.180207 208.862174 
L 667.454085 217.448804 
L 677.727963 212.15696 
L 688.001841 222.88484 
L 698.275719 221.082441 
L 708.549597 232.935018 
L 718.823475 235.451168 
L 729.097353 239.077595 
L 739.371231 263.085553 
L 749.645109 274.267637 
L 759.918987 305.384257 
L 770.192865 317.337769 
L 780.466743 326.861647 
L 790.740621 345.635437 
L 801.014499 347.37295 
L 811.288377 364.192939 
L 821.562255 378.561666 
L 831.836133 372.447928 
L 842.110012 376.117612 
L 852.38389 393.478322 
L 862.657768 386.722929 
L 872.931646 398.323171 
L 883.205524 411.415799 
L 893.479402 416.512984 
L 903.75328 424.27051 
L 914.027158 431.869425 
L 924.301036 427.832051 
L 934.574914 443.289427 
L 944.848792 437.118012 
L 955.12267 445.409048 
L 965.396548 462.19299 
L 975.670426 459.446133 
L 985.944304 461.205275 
L 996.218182 468.256261 
" style="fill:none;stroke:#bcbd22;stroke-dasharray:5.55,2.4;stroke-dashoffset:0;stroke-width:1.5;"/>
   </g>
   <g id="line2d_24">
    <path clip-path="url(#p8b3e3ed9e8)" d="M 184.581818 88.93053 
L 194.855696 88.93774 
L 205.129574 88.93053 
L 215.403452 88.93774 
L 225.67733 89.053093 
L 235.951208 89.009836 
L 246.225086 89.175657 
L 256.498964 89.283801 
L 266.772842 89.312639 
L 277.04672 89.327058 
L 287.320598 89.528927 
L 297.594476 89.622652 
L 307.868354 89.911035 
L 318.142232 90.163371 
L 328.41611 90.329192 
L 338.689988 90.559899 
L 348.963867 91.021313 
L 359.237745 91.497147 
L 369.511623 91.677387 
L 379.785501 92.290202 
L 390.059379 92.037867 
L 400.333257 92.607425 
L 410.607135 93.198612 
L 420.881013 93.970039 
L 431.154891 94.388195 
L 441.428769 94.878448 
L 451.702647 96.291529 
L 461.976525 98.468827 
L 472.250403 101.021024 
L 482.524281 100.336113 
L 492.798159 105.137704 
L 503.072037 111.994031 
L 513.345915 118.871986 
L 523.619793 118.194284 
L 533.893671 123.745674 
L 544.167549 132.858604 
L 554.441427 144.393959 
L 564.715305 161.18511 
L 574.989183 158.517559 
L 585.263061 171.38669 
L 595.536939 185.33005 
L 605.810817 187.947134 
L 616.084695 190.441654 
L 626.358573 197.932426 
L 636.632451 210.628526 
L 646.906329 207.629333 
L 657.180207 219.582845 
L 667.454085 230.058389 
L 677.727963 234.449034 
L 688.001841 233.129678 
L 698.275719 237.412178 
L 708.549597 253.10747 
L 718.823475 256.113872 
L 729.097353 259.257257 
L 739.371231 269.57419 
L 749.645109 280.496729 
L 759.918987 299.955431 
L 770.192865 315.1821 
L 780.466743 335.779918 
L 790.740621 339.081913 
L 801.014499 349.276283 
L 811.288377 355.851436 
L 821.562255 364.560629 
L 831.836133 366.269303 
L 842.110012 369.773167 
L 852.38389 372.375832 
L 862.657768 379.38356 
L 872.931646 379.888232 
L 883.205524 376.009468 
L 893.479402 395.633991 
L 903.75328 404.126896 
L 914.027158 403.067086 
L 924.301036 402.98778 
L 934.574914 399.483916 
L 944.848792 407.681228 
L 955.12267 411.300445 
L 965.396548 437.774085 
L 975.670426 448.047761 
L 985.944304 444.096901 
L 996.218182 455.711562 
" style="fill:none;stroke:#17becf;stroke-dasharray:5.55,2.4;stroke-dashoffset:0;stroke-width:1.5;"/>
   </g>
   <g id="line2d_25">
    <path clip-path="url(#p8b3e3ed9e8)" d="M 184.581818 88.952159 
L 194.855696 89.045884 
L 205.129574 89.29822 
L 215.403452 89.46404 
L 225.67733 90.076856 
L 235.951208 90.631995 
L 246.225086 91.576452 
L 256.498964 92.737197 
L 266.772842 93.724912 
L 277.04672 97.88485 
L 287.320598 104.784434 
L 297.594476 106.507528 
L 307.868354 109.85278 
L 318.142232 115.476266 
L 328.41611 117.841014 
L 338.689988 140.43589 
L 348.963867 154.674844 
L 359.237745 157.594731 
L 369.511623 170.435023 
L 379.785501 173.780276 
L 390.059379 204.327338 
L 400.333257 236.820991 
L 410.607135 238.09709 
L 420.881013 236.864249 
L 431.154891 255.378493 
L 441.428769 319.003186 
L 451.702647 328.159374 
L 461.976525 344.719818 
L 472.250403 407.753324 
L 482.524281 409.937831 
L 492.798159 428.798137 
L 503.072037 457.989795 
L 513.345915 461.017825 
L 523.619793 475.574001 
L 533.893671 475.574001 
L 544.167549 475.574001 
L 554.441427 475.574001 
L 564.715305 475.574001 
L 574.989183 475.574001 
L 585.263061 475.574001 
L 595.536939 475.574001 
L 605.810817 475.574001 
L 616.084695 475.574001 
L 626.358573 475.574001 
L 636.632451 475.574001 
L 646.906329 475.574001 
L 657.180207 475.574001 
L 667.454085 475.574001 
L 677.727963 475.574001 
L 688.001841 475.574001 
L 698.275719 475.574001 
L 708.549597 475.574001 
L 718.823475 475.574001 
L 729.097353 475.574001 
L 739.371231 475.574001 
L 749.645109 475.574001 
L 759.918987 475.574001 
L 770.192865 475.574001 
L 780.466743 475.574001 
L 790.740621 475.574001 
L 801.014499 475.574001 
L 811.288377 475.574001 
L 821.562255 475.574001 
L 831.836133 475.574001 
L 842.110012 475.574001 
L 852.38389 475.574001 
L 862.657768 475.574001 
L 872.931646 475.574001 
L 883.205524 475.574001 
L 893.479402 475.574001 
L 903.75328 475.574001 
L 914.027158 475.574001 
L 924.301036 475.574001 
L 934.574914 475.574001 
L 944.848792 475.574001 
L 955.12267 475.574001 
L 965.396548 475.574001 
L 975.670426 475.574001 
L 985.944304 475.574001 
L 996.218182 475.574001 
" style="fill:none;stroke:#1f77b4;stroke-dasharray:5.55,2.4;stroke-dashoffset:0;stroke-width:1.5;"/>
   </g>
   <g id="patch_3">
    <path d="M 144 504 
L 144 69.12 
" style="fill:none;stroke:#000000;stroke-linecap:square;stroke-linejoin:miter;stroke-width:0.8;"/>
   </g>
   <g id="patch_4">
    <path d="M 1036.8 504 
L 1036.8 69.12 
" style="fill:none;stroke:#000000;stroke-linecap:square;stroke-linejoin:miter;stroke-width:0.8;"/>
   </g>
   <g id="patch_5">
    <path d="M 144 504 
L 1036.8 504 
" style="fill:none;stroke:#000000;stroke-linecap:square;stroke-linejoin:miter;stroke-width:0.8;"/>
   </g>
   <g id="patch_6">
    <path d="M 144 69.12 
L 1036.8 69.12 
" style="fill:none;stroke:#000000;stroke-linecap:square;stroke-linejoin:miter;stroke-width:0.8;"/>
   </g>
   <g id="legend_1">
    <g id="patch_7">
     <path d="M 879.920312 240.52625 
L 1029.8 240.52625 
Q 1031.8 240.52625 1031.8 238.52625 
L 1031.8 76.12 
Q 1031.8 74.12 1029.8 74.12 
L 879.920312 74.12 
Q 877.920312 74.12 877.920312 76.12 
L 877.920312 238.52625 
Q 877.920312 240.52625 879.920312 240.52625 
z
" style="fill:#ffffff;opacity:0.8;stroke:#cccccc;stroke-linejoin:miter;"/>
    </g>
    <g id="line2d_26">
     <path d="M 881.920312 82.218437 
L 901.920312 82.218437 
" style="fill:none;stroke:#1f77b4;stroke-linecap:square;stroke-width:1.5;"/>
    </g>
    <g id="line2d_27"/>
    <g id="text_17">
     <!-- taylorfo noBN -->
     <defs>
      <path d="M 18.3125 70.21875 
L 18.3125 54.6875 
L 36.8125 54.6875 
L 36.8125 47.703125 
L 18.3125 47.703125 
L 18.3125 18.015625 
Q 18.3125 11.328125 20.140625 9.421875 
Q 21.96875 7.515625 27.59375 7.515625 
L 36.8125 7.515625 
L 36.8125 0 
L 27.59375 0 
Q 17.1875 0 13.234375 3.875 
Q 9.28125 7.765625 9.28125 18.015625 
L 9.28125 47.703125 
L 2.6875 47.703125 
L 2.6875 54.6875 
L 9.28125 54.6875 
L 9.28125 70.21875 
z
" id="DejaVuSans-116"/>
      <path d="M 9.421875 75.984375 
L 18.40625 75.984375 
L 18.40625 0 
L 9.421875 0 
z
" id="DejaVuSans-108"/>
      <path d="M 19.671875 34.8125 
L 19.671875 8.109375 
L 35.5 8.109375 
Q 43.453125 8.109375 47.28125 11.40625 
Q 51.125 14.703125 51.125 21.484375 
Q 51.125 28.328125 47.28125 31.5625 
Q 43.453125 34.8125 35.5 34.8125 
z
M 19.671875 64.796875 
L 19.671875 42.828125 
L 34.28125 42.828125 
Q 41.5 42.828125 45.03125 45.53125 
Q 48.578125 48.25 48.578125 53.8125 
Q 48.578125 59.328125 45.03125 62.0625 
Q 41.5 64.796875 34.28125 64.796875 
z
M 9.8125 72.90625 
L 35.015625 72.90625 
Q 46.296875 72.90625 52.390625 68.21875 
Q 58.5 63.53125 58.5 54.890625 
Q 58.5 48.1875 55.375 44.234375 
Q 52.25 40.28125 46.1875 39.3125 
Q 53.46875 37.75 57.5 32.78125 
Q 61.53125 27.828125 61.53125 20.40625 
Q 61.53125 10.640625 54.890625 5.3125 
Q 48.25 0 35.984375 0 
L 9.8125 0 
z
" id="DejaVuSans-66"/>
     </defs>
     <g transform="translate(909.920312 85.718437)scale(0.1 -0.1)">
      <use xlink:href="#DejaVuSans-116"/>
      <use x="39.208984" xlink:href="#DejaVuSans-97"/>
      <use x="100.488281" xlink:href="#DejaVuSans-121"/>
      <use x="159.667969" xlink:href="#DejaVuSans-108"/>
      <use x="187.451172" xlink:href="#DejaVuSans-111"/>
      <use x="248.632812" xlink:href="#DejaVuSans-114"/>
      <use x="289.746094" xlink:href="#DejaVuSans-102"/>
      <use x="324.951172" xlink:href="#DejaVuSans-111"/>
      <use x="386.132812" xlink:href="#DejaVuSans-32"/>
      <use x="417.919922" xlink:href="#DejaVuSans-110"/>
      <use x="481.298828" xlink:href="#DejaVuSans-111"/>
      <use x="542.480469" xlink:href="#DejaVuSans-66"/>
      <use x="611.083984" xlink:href="#DejaVuSans-78"/>
     </g>
    </g>
    <g id="line2d_28">
     <path d="M 881.920312 96.896563 
L 901.920312 96.896563 
" style="fill:none;stroke:#ff7f0e;stroke-linecap:square;stroke-width:1.5;"/>
    </g>
    <g id="line2d_29"/>
    <g id="text_18">
     <!-- taylorfo_abs noBN -->
     <defs>
      <path d="M 50.984375 -16.609375 
L 50.984375 -23.578125 
L -0.984375 -23.578125 
L -0.984375 -16.609375 
z
" id="DejaVuSans-95"/>
     </defs>
     <g transform="translate(909.920312 100.396563)scale(0.1 -0.1)">
      <use xlink:href="#DejaVuSans-116"/>
      <use x="39.208984" xlink:href="#DejaVuSans-97"/>
      <use x="100.488281" xlink:href="#DejaVuSans-121"/>
      <use x="159.667969" xlink:href="#DejaVuSans-108"/>
      <use x="187.451172" xlink:href="#DejaVuSans-111"/>
      <use x="248.632812" xlink:href="#DejaVuSans-114"/>
      <use x="289.746094" xlink:href="#DejaVuSans-102"/>
      <use x="324.951172" xlink:href="#DejaVuSans-111"/>
      <use x="386.132812" xlink:href="#DejaVuSans-95"/>
      <use x="436.132812" xlink:href="#DejaVuSans-97"/>
      <use x="497.412109" xlink:href="#DejaVuSans-98"/>
      <use x="560.888672" xlink:href="#DejaVuSans-115"/>
      <use x="612.988281" xlink:href="#DejaVuSans-32"/>
      <use x="644.775391" xlink:href="#DejaVuSans-110"/>
      <use x="708.154297" xlink:href="#DejaVuSans-111"/>
      <use x="769.335938" xlink:href="#DejaVuSans-66"/>
      <use x="837.939453" xlink:href="#DejaVuSans-78"/>
     </g>
    </g>
    <g id="line2d_30">
     <path d="M 881.920312 111.852813 
L 901.920312 111.852813 
" style="fill:none;stroke:#2ca02c;stroke-linecap:square;stroke-width:1.5;"/>
    </g>
    <g id="line2d_31"/>
    <g id="text_19">
     <!-- taylorfo_sq noBN -->
     <defs>
      <path d="M 14.796875 27.296875 
Q 14.796875 17.390625 18.875 11.75 
Q 22.953125 6.109375 30.078125 6.109375 
Q 37.203125 6.109375 41.296875 11.75 
Q 45.40625 17.390625 45.40625 27.296875 
Q 45.40625 37.203125 41.296875 42.84375 
Q 37.203125 48.484375 30.078125 48.484375 
Q 22.953125 48.484375 18.875 42.84375 
Q 14.796875 37.203125 14.796875 27.296875 
z
M 45.40625 8.203125 
Q 42.578125 3.328125 38.25 0.953125 
Q 33.9375 -1.421875 27.875 -1.421875 
Q 17.96875 -1.421875 11.734375 6.484375 
Q 5.515625 14.40625 5.515625 27.296875 
Q 5.515625 40.1875 11.734375 48.09375 
Q 17.96875 56 27.875 56 
Q 33.9375 56 38.25 53.625 
Q 42.578125 51.265625 45.40625 46.390625 
L 45.40625 54.6875 
L 54.390625 54.6875 
L 54.390625 -20.796875 
L 45.40625 -20.796875 
z
" id="DejaVuSans-113"/>
     </defs>
     <g transform="translate(909.920312 115.352813)scale(0.1 -0.1)">
      <use xlink:href="#DejaVuSans-116"/>
      <use x="39.208984" xlink:href="#DejaVuSans-97"/>
      <use x="100.488281" xlink:href="#DejaVuSans-121"/>
      <use x="159.667969" xlink:href="#DejaVuSans-108"/>
      <use x="187.451172" xlink:href="#DejaVuSans-111"/>
      <use x="248.632812" xlink:href="#DejaVuSans-114"/>
      <use x="289.746094" xlink:href="#DejaVuSans-102"/>
      <use x="324.951172" xlink:href="#DejaVuSans-111"/>
      <use x="386.132812" xlink:href="#DejaVuSans-95"/>
      <use x="436.132812" xlink:href="#DejaVuSans-115"/>
      <use x="488.232422" xlink:href="#DejaVuSans-113"/>
      <use x="551.708984" xlink:href="#DejaVuSans-32"/>
      <use x="583.496094" xlink:href="#DejaVuSans-110"/>
      <use x="646.875" xlink:href="#DejaVuSans-111"/>
      <use x="708.056641" xlink:href="#DejaVuSans-66"/>
      <use x="776.660156" xlink:href="#DejaVuSans-78"/>
     </g>
    </g>
    <g id="line2d_32">
     <path d="M 881.920312 126.809062 
L 901.920312 126.809062 
" style="fill:none;stroke:#d62728;stroke-dasharray:5.55,2.4;stroke-dashoffset:0;stroke-width:1.5;"/>
    </g>
    <g id="line2d_33"/>
    <g id="text_20">
     <!-- Molchanov_group noBN -->
     <defs>
      <path d="M 9.8125 72.90625 
L 24.515625 72.90625 
L 43.109375 23.296875 
L 61.8125 72.90625 
L 76.515625 72.90625 
L 76.515625 0 
L 66.890625 0 
L 66.890625 64.015625 
L 48.09375 14.015625 
L 38.1875 14.015625 
L 19.390625 64.015625 
L 19.390625 0 
L 9.8125 0 
z
" id="DejaVuSans-77"/>
      <path d="M 54.890625 33.015625 
L 54.890625 0 
L 45.90625 0 
L 45.90625 32.71875 
Q 45.90625 40.484375 42.875 44.328125 
Q 39.84375 48.1875 33.796875 48.1875 
Q 26.515625 48.1875 22.3125 43.546875 
Q 18.109375 38.921875 18.109375 30.90625 
L 18.109375 0 
L 9.078125 0 
L 9.078125 75.984375 
L 18.109375 75.984375 
L 18.109375 46.1875 
Q 21.34375 51.125 25.703125 53.5625 
Q 30.078125 56 35.796875 56 
Q 45.21875 56 50.046875 50.171875 
Q 54.890625 44.34375 54.890625 33.015625 
z
" id="DejaVuSans-104"/>
      <path d="M 2.984375 54.6875 
L 12.5 54.6875 
L 29.59375 8.796875 
L 46.6875 54.6875 
L 56.203125 54.6875 
L 35.6875 0 
L 23.484375 0 
z
" id="DejaVuSans-118"/>
      <path d="M 45.40625 27.984375 
Q 45.40625 37.75 41.375 43.109375 
Q 37.359375 48.484375 30.078125 48.484375 
Q 22.859375 48.484375 18.828125 43.109375 
Q 14.796875 37.75 14.796875 27.984375 
Q 14.796875 18.265625 18.828125 12.890625 
Q 22.859375 7.515625 30.078125 7.515625 
Q 37.359375 7.515625 41.375 12.890625 
Q 45.40625 18.265625 45.40625 27.984375 
z
M 54.390625 6.78125 
Q 54.390625 -7.171875 48.1875 -13.984375 
Q 42 -20.796875 29.203125 -20.796875 
Q 24.46875 -20.796875 20.265625 -20.09375 
Q 16.0625 -19.390625 12.109375 -17.921875 
L 12.109375 -9.1875 
Q 16.0625 -11.328125 19.921875 -12.34375 
Q 23.78125 -13.375 27.78125 -13.375 
Q 36.625 -13.375 41.015625 -8.765625 
Q 45.40625 -4.15625 45.40625 5.171875 
L 45.40625 9.625 
Q 42.625 4.78125 38.28125 2.390625 
Q 33.9375 0 27.875 0 
Q 17.828125 0 11.671875 7.65625 
Q 5.515625 15.328125 5.515625 27.984375 
Q 5.515625 40.671875 11.671875 48.328125 
Q 17.828125 56 27.875 56 
Q 33.9375 56 38.28125 53.609375 
Q 42.625 51.21875 45.40625 46.390625 
L 45.40625 54.6875 
L 54.390625 54.6875 
z
" id="DejaVuSans-103"/>
     </defs>
     <g transform="translate(909.920312 130.309062)scale(0.1 -0.1)">
      <use xlink:href="#DejaVuSans-77"/>
      <use x="86.279297" xlink:href="#DejaVuSans-111"/>
      <use x="147.460938" xlink:href="#DejaVuSans-108"/>
      <use x="175.244141" xlink:href="#DejaVuSans-99"/>
      <use x="230.224609" xlink:href="#DejaVuSans-104"/>
      <use x="293.603516" xlink:href="#DejaVuSans-97"/>
      <use x="354.882812" xlink:href="#DejaVuSans-110"/>
      <use x="418.261719" xlink:href="#DejaVuSans-111"/>
      <use x="479.443359" xlink:href="#DejaVuSans-118"/>
      <use x="538.623047" xlink:href="#DejaVuSans-95"/>
      <use x="588.623047" xlink:href="#DejaVuSans-103"/>
      <use x="652.099609" xlink:href="#DejaVuSans-114"/>
      <use x="690.962891" xlink:href="#DejaVuSans-111"/>
      <use x="752.144531" xlink:href="#DejaVuSans-117"/>
      <use x="815.523438" xlink:href="#DejaVuSans-112"/>
      <use x="879" xlink:href="#DejaVuSans-32"/>
      <use x="910.787109" xlink:href="#DejaVuSans-110"/>
      <use x="974.166016" xlink:href="#DejaVuSans-111"/>
      <use x="1035.347656" xlink:href="#DejaVuSans-66"/>
      <use x="1103.951172" xlink:href="#DejaVuSans-78"/>
     </g>
    </g>
    <g id="line2d_34">
     <path d="M 881.920312 141.765312 
L 901.920312 141.765312 
" style="fill:none;stroke:#9467bd;stroke-dasharray:5.55,2.4;stroke-dashoffset:0;stroke-width:1.5;"/>
    </g>
    <g id="line2d_35"/>
    <g id="text_21">
     <!-- APnZ noBN -->
     <defs>
      <path d="M 19.671875 64.796875 
L 19.671875 37.40625 
L 32.078125 37.40625 
Q 38.96875 37.40625 42.71875 40.96875 
Q 46.484375 44.53125 46.484375 51.125 
Q 46.484375 57.671875 42.71875 61.234375 
Q 38.96875 64.796875 32.078125 64.796875 
z
M 9.8125 72.90625 
L 32.078125 72.90625 
Q 44.34375 72.90625 50.609375 67.359375 
Q 56.890625 61.8125 56.890625 51.125 
Q 56.890625 40.328125 50.609375 34.8125 
Q 44.34375 29.296875 32.078125 29.296875 
L 19.671875 29.296875 
L 19.671875 0 
L 9.8125 0 
z
" id="DejaVuSans-80"/>
      <path d="M 5.609375 72.90625 
L 62.890625 72.90625 
L 62.890625 65.375 
L 16.796875 8.296875 
L 64.015625 8.296875 
L 64.015625 0 
L 4.5 0 
L 4.5 7.515625 
L 50.59375 64.59375 
L 5.609375 64.59375 
z
" id="DejaVuSans-90"/>
     </defs>
     <g transform="translate(909.920312 145.265312)scale(0.1 -0.1)">
      <use xlink:href="#DejaVuSans-65"/>
      <use x="68.408203" xlink:href="#DejaVuSans-80"/>
      <use x="126.960938" xlink:href="#DejaVuSans-110"/>
      <use x="190.339844" xlink:href="#DejaVuSans-90"/>
      <use x="258.845703" xlink:href="#DejaVuSans-32"/>
      <use x="290.632812" xlink:href="#DejaVuSans-110"/>
      <use x="354.011719" xlink:href="#DejaVuSans-111"/>
      <use x="415.193359" xlink:href="#DejaVuSans-66"/>
      <use x="483.796875" xlink:href="#DejaVuSans-78"/>
     </g>
    </g>
    <g id="line2d_36">
     <path d="M 881.920312 156.443438 
L 901.920312 156.443438 
" style="fill:none;stroke:#8c564b;stroke-linecap:square;stroke-width:1.5;"/>
    </g>
    <g id="line2d_37"/>
    <g id="text_22">
     <!-- taylorfo BN -->
     <g transform="translate(909.920312 159.943438)scale(0.1 -0.1)">
      <use xlink:href="#DejaVuSans-116"/>
      <use x="39.208984" xlink:href="#DejaVuSans-97"/>
      <use x="100.488281" xlink:href="#DejaVuSans-121"/>
      <use x="159.667969" xlink:href="#DejaVuSans-108"/>
      <use x="187.451172" xlink:href="#DejaVuSans-111"/>
      <use x="248.632812" xlink:href="#DejaVuSans-114"/>
      <use x="289.746094" xlink:href="#DejaVuSans-102"/>
      <use x="324.951172" xlink:href="#DejaVuSans-111"/>
      <use x="386.132812" xlink:href="#DejaVuSans-32"/>
      <use x="417.919922" xlink:href="#DejaVuSans-66"/>
      <use x="486.523438" xlink:href="#DejaVuSans-78"/>
     </g>
    </g>
    <g id="line2d_38">
     <path d="M 881.920312 171.121562 
L 901.920312 171.121562 
" style="fill:none;stroke:#e377c2;stroke-linecap:square;stroke-width:1.5;"/>
    </g>
    <g id="line2d_39"/>
    <g id="text_23">
     <!-- taylorfo_abs BN -->
     <g transform="translate(909.920312 174.621562)scale(0.1 -0.1)">
      <use xlink:href="#DejaVuSans-116"/>
      <use x="39.208984" xlink:href="#DejaVuSans-97"/>
      <use x="100.488281" xlink:href="#DejaVuSans-121"/>
      <use x="159.667969" xlink:href="#DejaVuSans-108"/>
      <use x="187.451172" xlink:href="#DejaVuSans-111"/>
      <use x="248.632812" xlink:href="#DejaVuSans-114"/>
      <use x="289.746094" xlink:href="#DejaVuSans-102"/>
      <use x="324.951172" xlink:href="#DejaVuSans-111"/>
      <use x="386.132812" xlink:href="#DejaVuSans-95"/>
      <use x="436.132812" xlink:href="#DejaVuSans-97"/>
      <use x="497.412109" xlink:href="#DejaVuSans-98"/>
      <use x="560.888672" xlink:href="#DejaVuSans-115"/>
      <use x="612.988281" xlink:href="#DejaVuSans-32"/>
      <use x="644.775391" xlink:href="#DejaVuSans-66"/>
      <use x="713.378906" xlink:href="#DejaVuSans-78"/>
     </g>
    </g>
    <g id="line2d_40">
     <path d="M 881.920312 186.077812 
L 901.920312 186.077812 
" style="fill:none;stroke:#7f7f7f;stroke-linecap:square;stroke-width:1.5;"/>
    </g>
    <g id="line2d_41"/>
    <g id="text_24">
     <!-- taylorfo_sq BN -->
     <g transform="translate(909.920312 189.577812)scale(0.1 -0.1)">
      <use xlink:href="#DejaVuSans-116"/>
      <use x="39.208984" xlink:href="#DejaVuSans-97"/>
      <use x="100.488281" xlink:href="#DejaVuSans-121"/>
      <use x="159.667969" xlink:href="#DejaVuSans-108"/>
      <use x="187.451172" xlink:href="#DejaVuSans-111"/>
      <use x="248.632812" xlink:href="#DejaVuSans-114"/>
      <use x="289.746094" xlink:href="#DejaVuSans-102"/>
      <use x="324.951172" xlink:href="#DejaVuSans-111"/>
      <use x="386.132812" xlink:href="#DejaVuSans-95"/>
      <use x="436.132812" xlink:href="#DejaVuSans-115"/>
      <use x="488.232422" xlink:href="#DejaVuSans-113"/>
      <use x="551.708984" xlink:href="#DejaVuSans-32"/>
      <use x="583.496094" xlink:href="#DejaVuSans-66"/>
      <use x="652.099609" xlink:href="#DejaVuSans-78"/>
     </g>
    </g>
    <g id="line2d_42">
     <path d="M 881.920312 201.034063 
L 901.920312 201.034063 
" style="fill:none;stroke:#bcbd22;stroke-dasharray:5.55,2.4;stroke-dashoffset:0;stroke-width:1.5;"/>
    </g>
    <g id="line2d_43"/>
    <g id="text_25">
     <!-- Molchanov_group BN -->
     <g transform="translate(909.920312 204.534063)scale(0.1 -0.1)">
      <use xlink:href="#DejaVuSans-77"/>
      <use x="86.279297" xlink:href="#DejaVuSans-111"/>
      <use x="147.460938" xlink:href="#DejaVuSans-108"/>
      <use x="175.244141" xlink:href="#DejaVuSans-99"/>
      <use x="230.224609" xlink:href="#DejaVuSans-104"/>
      <use x="293.603516" xlink:href="#DejaVuSans-97"/>
      <use x="354.882812" xlink:href="#DejaVuSans-110"/>
      <use x="418.261719" xlink:href="#DejaVuSans-111"/>
      <use x="479.443359" xlink:href="#DejaVuSans-118"/>
      <use x="538.623047" xlink:href="#DejaVuSans-95"/>
      <use x="588.623047" xlink:href="#DejaVuSans-103"/>
      <use x="652.099609" xlink:href="#DejaVuSans-114"/>
      <use x="690.962891" xlink:href="#DejaVuSans-111"/>
      <use x="752.144531" xlink:href="#DejaVuSans-117"/>
      <use x="815.523438" xlink:href="#DejaVuSans-112"/>
      <use x="879" xlink:href="#DejaVuSans-32"/>
      <use x="910.787109" xlink:href="#DejaVuSans-66"/>
      <use x="979.390625" xlink:href="#DejaVuSans-78"/>
     </g>
    </g>
    <g id="line2d_44">
     <path d="M 881.920312 215.990312 
L 901.920312 215.990312 
" style="fill:none;stroke:#17becf;stroke-dasharray:5.55,2.4;stroke-dashoffset:0;stroke-width:1.5;"/>
    </g>
    <g id="line2d_45"/>
    <g id="text_26">
     <!-- Molchanov_BN BN -->
     <g transform="translate(909.920312 219.490312)scale(0.1 -0.1)">
      <use xlink:href="#DejaVuSans-77"/>
      <use x="86.279297" xlink:href="#DejaVuSans-111"/>
      <use x="147.460938" xlink:href="#DejaVuSans-108"/>
      <use x="175.244141" xlink:href="#DejaVuSans-99"/>
      <use x="230.224609" xlink:href="#DejaVuSans-104"/>
      <use x="293.603516" xlink:href="#DejaVuSans-97"/>
      <use x="354.882812" xlink:href="#DejaVuSans-110"/>
      <use x="418.261719" xlink:href="#DejaVuSans-111"/>
      <use x="479.443359" xlink:href="#DejaVuSans-118"/>
      <use x="538.623047" xlink:href="#DejaVuSans-95"/>
      <use x="588.623047" xlink:href="#DejaVuSans-66"/>
      <use x="657.226562" xlink:href="#DejaVuSans-78"/>
      <use x="732.03125" xlink:href="#DejaVuSans-32"/>
      <use x="763.818359" xlink:href="#DejaVuSans-66"/>
      <use x="832.421875" xlink:href="#DejaVuSans-78"/>
     </g>
    </g>
    <g id="line2d_46">
     <path d="M 881.920312 230.946563 
L 901.920312 230.946563 
" style="fill:none;stroke:#1f77b4;stroke-dasharray:5.55,2.4;stroke-dashoffset:0;stroke-width:1.5;"/>
    </g>
    <g id="line2d_47"/>
    <g id="text_27">
     <!-- APnZ BN -->
     <g transform="translate(909.920312 234.446563)scale(0.1 -0.1)">
      <use xlink:href="#DejaVuSans-65"/>
      <use x="68.408203" xlink:href="#DejaVuSans-80"/>
      <use x="126.960938" xlink:href="#DejaVuSans-110"/>
      <use x="190.339844" xlink:href="#DejaVuSans-90"/>
      <use x="258.845703" xlink:href="#DejaVuSans-32"/>
      <use x="290.632812" xlink:href="#DejaVuSans-66"/>
      <use x="359.236328" xlink:href="#DejaVuSans-78"/>
     </g>
    </g>
   </g>
  </g>
 </g>
 <defs>
  <clipPath id="p8b3e3ed9e8">
   <rect height="434.88" width="892.8" x="144" y="69.12"/>
  </clipPath>
 </defs>
</svg>
