<?xml version="1.0" encoding="utf-8" standalone="no"?>
<!DOCTYPE svg PUBLIC "-//W3C//DTD SVG 1.1//EN"
  "http://www.w3.org/Graphics/SVG/1.1/DTD/svg11.dtd">
<!-- Created with matplotlib (https://matplotlib.org/) -->
<svg height="576pt" version="1.1" viewBox="0 0 1152 576" width="1152pt" xmlns="http://www.w3.org/2000/svg" xmlns:xlink="http://www.w3.org/1999/xlink">
 <defs>
  <style type="text/css">
*{stroke-linecap:butt;stroke-linejoin:round;}
  </style>
 </defs>
 <g id="figure_1">
  <g id="patch_1">
   <path d="M 0 576 
L 1152 576 
L 1152 0 
L 0 0 
z
" style="fill:#ffffff;"/>
  </g>
  <g id="axes_1">
   <g id="patch_2">
    <path d="M 144 504 
L 1036.8 504 
L 1036.8 69.12 
L 144 69.12 
z
" style="fill:#ffffff;"/>
   </g>
   <g id="matplotlib.axis_1">
    <g id="xtick_1">
     <g id="line2d_1">
      <defs>
       <path d="M 0 0 
L 0 3.5 
" id="m70f3821919" style="stroke:#000000;stroke-width:0.8;"/>
      </defs>
      <g>
       <use style="stroke:#000000;stroke-width:0.8;" x="182.527043" xlink:href="#m70f3821919" y="504"/>
      </g>
     </g>
     <g id="text_1">
      <!-- 0 -->
      <defs>
       <path d="M 31.78125 66.40625 
Q 24.171875 66.40625 20.328125 58.90625 
Q 16.5 51.421875 16.5 36.375 
Q 16.5 21.390625 20.328125 13.890625 
Q 24.171875 6.390625 31.78125 6.390625 
Q 39.453125 6.390625 43.28125 13.890625 
Q 47.125 21.390625 47.125 36.375 
Q 47.125 51.421875 43.28125 58.90625 
Q 39.453125 66.40625 31.78125 66.40625 
z
M 31.78125 74.21875 
Q 44.046875 74.21875 50.515625 64.515625 
Q 56.984375 54.828125 56.984375 36.375 
Q 56.984375 17.96875 50.515625 8.265625 
Q 44.046875 -1.421875 31.78125 -1.421875 
Q 19.53125 -1.421875 13.0625 8.265625 
Q 6.59375 17.96875 6.59375 36.375 
Q 6.59375 54.828125 13.0625 64.515625 
Q 19.53125 74.21875 31.78125 74.21875 
z
" id="DejaVuSans-48"/>
      </defs>
      <g transform="translate(179.345793 518.598438)scale(0.1 -0.1)">
       <use xlink:href="#DejaVuSans-48"/>
      </g>
     </g>
    </g>
    <g id="xtick_2">
     <g id="line2d_2">
      <g>
       <use style="stroke:#000000;stroke-width:0.8;" x="285.265823" xlink:href="#m70f3821919" y="504"/>
      </g>
     </g>
     <g id="text_2">
      <!-- 50 -->
      <defs>
       <path d="M 10.796875 72.90625 
L 49.515625 72.90625 
L 49.515625 64.59375 
L 19.828125 64.59375 
L 19.828125 46.734375 
Q 21.96875 47.46875 24.109375 47.828125 
Q 26.265625 48.1875 28.421875 48.1875 
Q 40.625 48.1875 47.75 41.5 
Q 54.890625 34.8125 54.890625 23.390625 
Q 54.890625 11.625 47.5625 5.09375 
Q 40.234375 -1.421875 26.90625 -1.421875 
Q 22.3125 -1.421875 17.546875 -0.640625 
Q 12.796875 0.140625 7.71875 1.703125 
L 7.71875 11.625 
Q 12.109375 9.234375 16.796875 8.0625 
Q 21.484375 6.890625 26.703125 6.890625 
Q 35.15625 6.890625 40.078125 11.328125 
Q 45.015625 15.765625 45.015625 23.390625 
Q 45.015625 31 40.078125 35.4375 
Q 35.15625 39.890625 26.703125 39.890625 
Q 22.75 39.890625 18.8125 39.015625 
Q 14.890625 38.140625 10.796875 36.28125 
z
" id="DejaVuSans-53"/>
      </defs>
      <g transform="translate(278.903323 518.598438)scale(0.1 -0.1)">
       <use xlink:href="#DejaVuSans-53"/>
       <use x="63.623047" xlink:href="#DejaVuSans-48"/>
      </g>
     </g>
    </g>
    <g id="xtick_3">
     <g id="line2d_3">
      <g>
       <use style="stroke:#000000;stroke-width:0.8;" x="388.004603" xlink:href="#m70f3821919" y="504"/>
      </g>
     </g>
     <g id="text_3">
      <!-- 100 -->
      <defs>
       <path d="M 12.40625 8.296875 
L 28.515625 8.296875 
L 28.515625 63.921875 
L 10.984375 60.40625 
L 10.984375 69.390625 
L 28.421875 72.90625 
L 38.28125 72.90625 
L 38.28125 8.296875 
L 54.390625 8.296875 
L 54.390625 0 
L 12.40625 0 
z
" id="DejaVuSans-49"/>
      </defs>
      <g transform="translate(378.460853 518.598438)scale(0.1 -0.1)">
       <use xlink:href="#DejaVuSans-49"/>
       <use x="63.623047" xlink:href="#DejaVuSans-48"/>
       <use x="127.246094" xlink:href="#DejaVuSans-48"/>
      </g>
     </g>
    </g>
    <g id="xtick_4">
     <g id="line2d_4">
      <g>
       <use style="stroke:#000000;stroke-width:0.8;" x="490.743383" xlink:href="#m70f3821919" y="504"/>
      </g>
     </g>
     <g id="text_4">
      <!-- 150 -->
      <g transform="translate(481.199633 518.598438)scale(0.1 -0.1)">
       <use xlink:href="#DejaVuSans-49"/>
       <use x="63.623047" xlink:href="#DejaVuSans-53"/>
       <use x="127.246094" xlink:href="#DejaVuSans-48"/>
      </g>
     </g>
    </g>
    <g id="xtick_5">
     <g id="line2d_5">
      <g>
       <use style="stroke:#000000;stroke-width:0.8;" x="593.482163" xlink:href="#m70f3821919" y="504"/>
      </g>
     </g>
     <g id="text_5">
      <!-- 200 -->
      <defs>
       <path d="M 19.1875 8.296875 
L 53.609375 8.296875 
L 53.609375 0 
L 7.328125 0 
L 7.328125 8.296875 
Q 12.9375 14.109375 22.625 23.890625 
Q 32.328125 33.6875 34.8125 36.53125 
Q 39.546875 41.84375 41.421875 45.53125 
Q 43.3125 49.21875 43.3125 52.78125 
Q 43.3125 58.59375 39.234375 62.25 
Q 35.15625 65.921875 28.609375 65.921875 
Q 23.96875 65.921875 18.8125 64.3125 
Q 13.671875 62.703125 7.8125 59.421875 
L 7.8125 69.390625 
Q 13.765625 71.78125 18.9375 73 
Q 24.125 74.21875 28.421875 74.21875 
Q 39.75 74.21875 46.484375 68.546875 
Q 53.21875 62.890625 53.21875 53.421875 
Q 53.21875 48.921875 51.53125 44.890625 
Q 49.859375 40.875 45.40625 35.40625 
Q 44.1875 33.984375 37.640625 27.21875 
Q 31.109375 20.453125 19.1875 8.296875 
z
" id="DejaVuSans-50"/>
      </defs>
      <g transform="translate(583.938413 518.598438)scale(0.1 -0.1)">
       <use xlink:href="#DejaVuSans-50"/>
       <use x="63.623047" xlink:href="#DejaVuSans-48"/>
       <use x="127.246094" xlink:href="#DejaVuSans-48"/>
      </g>
     </g>
    </g>
    <g id="xtick_6">
     <g id="line2d_6">
      <g>
       <use style="stroke:#000000;stroke-width:0.8;" x="696.220944" xlink:href="#m70f3821919" y="504"/>
      </g>
     </g>
     <g id="text_6">
      <!-- 250 -->
      <g transform="translate(686.677194 518.598438)scale(0.1 -0.1)">
       <use xlink:href="#DejaVuSans-50"/>
       <use x="63.623047" xlink:href="#DejaVuSans-53"/>
       <use x="127.246094" xlink:href="#DejaVuSans-48"/>
      </g>
     </g>
    </g>
    <g id="xtick_7">
     <g id="line2d_7">
      <g>
       <use style="stroke:#000000;stroke-width:0.8;" x="798.959724" xlink:href="#m70f3821919" y="504"/>
      </g>
     </g>
     <g id="text_7">
      <!-- 300 -->
      <defs>
       <path d="M 40.578125 39.3125 
Q 47.65625 37.796875 51.625 33 
Q 55.609375 28.21875 55.609375 21.1875 
Q 55.609375 10.40625 48.1875 4.484375 
Q 40.765625 -1.421875 27.09375 -1.421875 
Q 22.515625 -1.421875 17.65625 -0.515625 
Q 12.796875 0.390625 7.625 2.203125 
L 7.625 11.71875 
Q 11.71875 9.328125 16.59375 8.109375 
Q 21.484375 6.890625 26.8125 6.890625 
Q 36.078125 6.890625 40.9375 10.546875 
Q 45.796875 14.203125 45.796875 21.1875 
Q 45.796875 27.640625 41.28125 31.265625 
Q 36.765625 34.90625 28.71875 34.90625 
L 20.21875 34.90625 
L 20.21875 43.015625 
L 29.109375 43.015625 
Q 36.375 43.015625 40.234375 45.921875 
Q 44.09375 48.828125 44.09375 54.296875 
Q 44.09375 59.90625 40.109375 62.90625 
Q 36.140625 65.921875 28.71875 65.921875 
Q 24.65625 65.921875 20.015625 65.03125 
Q 15.375 64.15625 9.8125 62.3125 
L 9.8125 71.09375 
Q 15.4375 72.65625 20.34375 73.4375 
Q 25.25 74.21875 29.59375 74.21875 
Q 40.828125 74.21875 47.359375 69.109375 
Q 53.90625 64.015625 53.90625 55.328125 
Q 53.90625 49.265625 50.4375 45.09375 
Q 46.96875 40.921875 40.578125 39.3125 
z
" id="DejaVuSans-51"/>
      </defs>
      <g transform="translate(789.415974 518.598438)scale(0.1 -0.1)">
       <use xlink:href="#DejaVuSans-51"/>
       <use x="63.623047" xlink:href="#DejaVuSans-48"/>
       <use x="127.246094" xlink:href="#DejaVuSans-48"/>
      </g>
     </g>
    </g>
    <g id="xtick_8">
     <g id="line2d_8">
      <g>
       <use style="stroke:#000000;stroke-width:0.8;" x="901.698504" xlink:href="#m70f3821919" y="504"/>
      </g>
     </g>
     <g id="text_8">
      <!-- 350 -->
      <g transform="translate(892.154754 518.598438)scale(0.1 -0.1)">
       <use xlink:href="#DejaVuSans-51"/>
       <use x="63.623047" xlink:href="#DejaVuSans-53"/>
       <use x="127.246094" xlink:href="#DejaVuSans-48"/>
      </g>
     </g>
    </g>
    <g id="xtick_9">
     <g id="line2d_9">
      <g>
       <use style="stroke:#000000;stroke-width:0.8;" x="1004.437284" xlink:href="#m70f3821919" y="504"/>
      </g>
     </g>
     <g id="text_9">
      <!-- 400 -->
      <defs>
       <path d="M 37.796875 64.3125 
L 12.890625 25.390625 
L 37.796875 25.390625 
z
M 35.203125 72.90625 
L 47.609375 72.90625 
L 47.609375 25.390625 
L 58.015625 25.390625 
L 58.015625 17.1875 
L 47.609375 17.1875 
L 47.609375 0 
L 37.796875 0 
L 37.796875 17.1875 
L 4.890625 17.1875 
L 4.890625 26.703125 
z
" id="DejaVuSans-52"/>
      </defs>
      <g transform="translate(994.893534 518.598438)scale(0.1 -0.1)">
       <use xlink:href="#DejaVuSans-52"/>
       <use x="63.623047" xlink:href="#DejaVuSans-48"/>
       <use x="127.246094" xlink:href="#DejaVuSans-48"/>
      </g>
     </g>
    </g>
    <g id="text_10">
     <!-- Number of Neurons pruned -->
     <defs>
      <path d="M 9.8125 72.90625 
L 23.09375 72.90625 
L 55.421875 11.921875 
L 55.421875 72.90625 
L 64.984375 72.90625 
L 64.984375 0 
L 51.703125 0 
L 19.390625 60.984375 
L 19.390625 0 
L 9.8125 0 
z
" id="DejaVuSans-78"/>
      <path d="M 8.5 21.578125 
L 8.5 54.6875 
L 17.484375 54.6875 
L 17.484375 21.921875 
Q 17.484375 14.15625 20.5 10.265625 
Q 23.53125 6.390625 29.59375 6.390625 
Q 36.859375 6.390625 41.078125 11.03125 
Q 45.3125 15.671875 45.3125 23.6875 
L 45.3125 54.6875 
L 54.296875 54.6875 
L 54.296875 0 
L 45.3125 0 
L 45.3125 8.40625 
Q 42.046875 3.421875 37.71875 1 
Q 33.40625 -1.421875 27.6875 -1.421875 
Q 18.265625 -1.421875 13.375 4.4375 
Q 8.5 10.296875 8.5 21.578125 
z
M 31.109375 56 
z
" id="DejaVuSans-117"/>
      <path d="M 52 44.1875 
Q 55.375 50.25 60.0625 53.125 
Q 64.75 56 71.09375 56 
Q 79.640625 56 84.28125 50.015625 
Q 88.921875 44.046875 88.921875 33.015625 
L 88.921875 0 
L 79.890625 0 
L 79.890625 32.71875 
Q 79.890625 40.578125 77.09375 44.375 
Q 74.3125 48.1875 68.609375 48.1875 
Q 61.625 48.1875 57.5625 43.546875 
Q 53.515625 38.921875 53.515625 30.90625 
L 53.515625 0 
L 44.484375 0 
L 44.484375 32.71875 
Q 44.484375 40.625 41.703125 44.40625 
Q 38.921875 48.1875 33.109375 48.1875 
Q 26.21875 48.1875 22.15625 43.53125 
Q 18.109375 38.875 18.109375 30.90625 
L 18.109375 0 
L 9.078125 0 
L 9.078125 54.6875 
L 18.109375 54.6875 
L 18.109375 46.1875 
Q 21.1875 51.21875 25.484375 53.609375 
Q 29.78125 56 35.6875 56 
Q 41.65625 56 45.828125 52.96875 
Q 50 49.953125 52 44.1875 
z
" id="DejaVuSans-109"/>
      <path d="M 48.6875 27.296875 
Q 48.6875 37.203125 44.609375 42.84375 
Q 40.53125 48.484375 33.40625 48.484375 
Q 26.265625 48.484375 22.1875 42.84375 
Q 18.109375 37.203125 18.109375 27.296875 
Q 18.109375 17.390625 22.1875 11.75 
Q 26.265625 6.109375 33.40625 6.109375 
Q 40.53125 6.109375 44.609375 11.75 
Q 48.6875 17.390625 48.6875 27.296875 
z
M 18.109375 46.390625 
Q 20.953125 51.265625 25.265625 53.625 
Q 29.59375 56 35.59375 56 
Q 45.5625 56 51.78125 48.09375 
Q 58.015625 40.1875 58.015625 27.296875 
Q 58.015625 14.40625 51.78125 6.484375 
Q 45.5625 -1.421875 35.59375 -1.421875 
Q 29.59375 -1.421875 25.265625 0.953125 
Q 20.953125 3.328125 18.109375 8.203125 
L 18.109375 0 
L 9.078125 0 
L 9.078125 75.984375 
L 18.109375 75.984375 
z
" id="DejaVuSans-98"/>
      <path d="M 56.203125 29.59375 
L 56.203125 25.203125 
L 14.890625 25.203125 
Q 15.484375 15.921875 20.484375 11.0625 
Q 25.484375 6.203125 34.421875 6.203125 
Q 39.59375 6.203125 44.453125 7.46875 
Q 49.3125 8.734375 54.109375 11.28125 
L 54.109375 2.78125 
Q 49.265625 0.734375 44.1875 -0.34375 
Q 39.109375 -1.421875 33.890625 -1.421875 
Q 20.796875 -1.421875 13.15625 6.1875 
Q 5.515625 13.8125 5.515625 26.8125 
Q 5.515625 40.234375 12.765625 48.109375 
Q 20.015625 56 32.328125 56 
Q 43.359375 56 49.78125 48.890625 
Q 56.203125 41.796875 56.203125 29.59375 
z
M 47.21875 32.234375 
Q 47.125 39.59375 43.09375 43.984375 
Q 39.0625 48.390625 32.421875 48.390625 
Q 24.90625 48.390625 20.390625 44.140625 
Q 15.875 39.890625 15.1875 32.171875 
z
" id="DejaVuSans-101"/>
      <path d="M 41.109375 46.296875 
Q 39.59375 47.171875 37.8125 47.578125 
Q 36.03125 48 33.890625 48 
Q 26.265625 48 22.1875 43.046875 
Q 18.109375 38.09375 18.109375 28.8125 
L 18.109375 0 
L 9.078125 0 
L 9.078125 54.6875 
L 18.109375 54.6875 
L 18.109375 46.1875 
Q 20.953125 51.171875 25.484375 53.578125 
Q 30.03125 56 36.53125 56 
Q 37.453125 56 38.578125 55.875 
Q 39.703125 55.765625 41.0625 55.515625 
z
" id="DejaVuSans-114"/>
      <path id="DejaVuSans-32"/>
      <path d="M 30.609375 48.390625 
Q 23.390625 48.390625 19.1875 42.75 
Q 14.984375 37.109375 14.984375 27.296875 
Q 14.984375 17.484375 19.15625 11.84375 
Q 23.34375 6.203125 30.609375 6.203125 
Q 37.796875 6.203125 41.984375 11.859375 
Q 46.1875 17.53125 46.1875 27.296875 
Q 46.1875 37.015625 41.984375 42.703125 
Q 37.796875 48.390625 30.609375 48.390625 
z
M 30.609375 56 
Q 42.328125 56 49.015625 48.375 
Q 55.71875 40.765625 55.71875 27.296875 
Q 55.71875 13.875 49.015625 6.21875 
Q 42.328125 -1.421875 30.609375 -1.421875 
Q 18.84375 -1.421875 12.171875 6.21875 
Q 5.515625 13.875 5.515625 27.296875 
Q 5.515625 40.765625 12.171875 48.375 
Q 18.84375 56 30.609375 56 
z
" id="DejaVuSans-111"/>
      <path d="M 37.109375 75.984375 
L 37.109375 68.5 
L 28.515625 68.5 
Q 23.6875 68.5 21.796875 66.546875 
Q 19.921875 64.59375 19.921875 59.515625 
L 19.921875 54.6875 
L 34.71875 54.6875 
L 34.71875 47.703125 
L 19.921875 47.703125 
L 19.921875 0 
L 10.890625 0 
L 10.890625 47.703125 
L 2.296875 47.703125 
L 2.296875 54.6875 
L 10.890625 54.6875 
L 10.890625 58.5 
Q 10.890625 67.625 15.140625 71.796875 
Q 19.390625 75.984375 28.609375 75.984375 
z
" id="DejaVuSans-102"/>
      <path d="M 54.890625 33.015625 
L 54.890625 0 
L 45.90625 0 
L 45.90625 32.71875 
Q 45.90625 40.484375 42.875 44.328125 
Q 39.84375 48.1875 33.796875 48.1875 
Q 26.515625 48.1875 22.3125 43.546875 
Q 18.109375 38.921875 18.109375 30.90625 
L 18.109375 0 
L 9.078125 0 
L 9.078125 54.6875 
L 18.109375 54.6875 
L 18.109375 46.1875 
Q 21.34375 51.125 25.703125 53.5625 
Q 30.078125 56 35.796875 56 
Q 45.21875 56 50.046875 50.171875 
Q 54.890625 44.34375 54.890625 33.015625 
z
" id="DejaVuSans-110"/>
      <path d="M 44.28125 53.078125 
L 44.28125 44.578125 
Q 40.484375 46.53125 36.375 47.5 
Q 32.28125 48.484375 27.875 48.484375 
Q 21.1875 48.484375 17.84375 46.4375 
Q 14.5 44.390625 14.5 40.28125 
Q 14.5 37.15625 16.890625 35.375 
Q 19.28125 33.59375 26.515625 31.984375 
L 29.59375 31.296875 
Q 39.15625 29.25 43.1875 25.515625 
Q 47.21875 21.78125 47.21875 15.09375 
Q 47.21875 7.46875 41.1875 3.015625 
Q 35.15625 -1.421875 24.609375 -1.421875 
Q 20.21875 -1.421875 15.453125 -0.5625 
Q 10.6875 0.296875 5.421875 2 
L 5.421875 11.28125 
Q 10.40625 8.6875 15.234375 7.390625 
Q 20.0625 6.109375 24.8125 6.109375 
Q 31.15625 6.109375 34.5625 8.28125 
Q 37.984375 10.453125 37.984375 14.40625 
Q 37.984375 18.0625 35.515625 20.015625 
Q 33.0625 21.96875 24.703125 23.78125 
L 21.578125 24.515625 
Q 13.234375 26.265625 9.515625 29.90625 
Q 5.8125 33.546875 5.8125 39.890625 
Q 5.8125 47.609375 11.28125 51.796875 
Q 16.75 56 26.8125 56 
Q 31.78125 56 36.171875 55.265625 
Q 40.578125 54.546875 44.28125 53.078125 
z
" id="DejaVuSans-115"/>
      <path d="M 18.109375 8.203125 
L 18.109375 -20.796875 
L 9.078125 -20.796875 
L 9.078125 54.6875 
L 18.109375 54.6875 
L 18.109375 46.390625 
Q 20.953125 51.265625 25.265625 53.625 
Q 29.59375 56 35.59375 56 
Q 45.5625 56 51.78125 48.09375 
Q 58.015625 40.1875 58.015625 27.296875 
Q 58.015625 14.40625 51.78125 6.484375 
Q 45.5625 -1.421875 35.59375 -1.421875 
Q 29.59375 -1.421875 25.265625 0.953125 
Q 20.953125 3.328125 18.109375 8.203125 
z
M 48.6875 27.296875 
Q 48.6875 37.203125 44.609375 42.84375 
Q 40.53125 48.484375 33.40625 48.484375 
Q 26.265625 48.484375 22.1875 42.84375 
Q 18.109375 37.203125 18.109375 27.296875 
Q 18.109375 17.390625 22.1875 11.75 
Q 26.265625 6.109375 33.40625 6.109375 
Q 40.53125 6.109375 44.609375 11.75 
Q 48.6875 17.390625 48.6875 27.296875 
z
" id="DejaVuSans-112"/>
      <path d="M 45.40625 46.390625 
L 45.40625 75.984375 
L 54.390625 75.984375 
L 54.390625 0 
L 45.40625 0 
L 45.40625 8.203125 
Q 42.578125 3.328125 38.25 0.953125 
Q 33.9375 -1.421875 27.875 -1.421875 
Q 17.96875 -1.421875 11.734375 6.484375 
Q 5.515625 14.40625 5.515625 27.296875 
Q 5.515625 40.1875 11.734375 48.09375 
Q 17.96875 56 27.875 56 
Q 33.9375 56 38.25 53.625 
Q 42.578125 51.265625 45.40625 46.390625 
z
M 14.796875 27.296875 
Q 14.796875 17.390625 18.875 11.75 
Q 22.953125 6.109375 30.078125 6.109375 
Q 37.203125 6.109375 41.296875 11.75 
Q 45.40625 17.390625 45.40625 27.296875 
Q 45.40625 37.203125 41.296875 42.84375 
Q 37.203125 48.484375 30.078125 48.484375 
Q 22.953125 48.484375 18.875 42.84375 
Q 14.796875 37.203125 14.796875 27.296875 
z
" id="DejaVuSans-100"/>
     </defs>
     <g transform="translate(522.147656 532.276562)scale(0.1 -0.1)">
      <use xlink:href="#DejaVuSans-78"/>
      <use x="74.804688" xlink:href="#DejaVuSans-117"/>
      <use x="138.183594" xlink:href="#DejaVuSans-109"/>
      <use x="235.595703" xlink:href="#DejaVuSans-98"/>
      <use x="299.072266" xlink:href="#DejaVuSans-101"/>
      <use x="360.595703" xlink:href="#DejaVuSans-114"/>
      <use x="401.708984" xlink:href="#DejaVuSans-32"/>
      <use x="433.496094" xlink:href="#DejaVuSans-111"/>
      <use x="494.677734" xlink:href="#DejaVuSans-102"/>
      <use x="529.882812" xlink:href="#DejaVuSans-32"/>
      <use x="561.669922" xlink:href="#DejaVuSans-78"/>
      <use x="636.474609" xlink:href="#DejaVuSans-101"/>
      <use x="697.998047" xlink:href="#DejaVuSans-117"/>
      <use x="761.376953" xlink:href="#DejaVuSans-114"/>
      <use x="800.240234" xlink:href="#DejaVuSans-111"/>
      <use x="861.421875" xlink:href="#DejaVuSans-110"/>
      <use x="924.800781" xlink:href="#DejaVuSans-115"/>
      <use x="976.900391" xlink:href="#DejaVuSans-32"/>
      <use x="1008.6875" xlink:href="#DejaVuSans-112"/>
      <use x="1072.164062" xlink:href="#DejaVuSans-114"/>
      <use x="1113.277344" xlink:href="#DejaVuSans-117"/>
      <use x="1176.65625" xlink:href="#DejaVuSans-110"/>
      <use x="1240.035156" xlink:href="#DejaVuSans-101"/>
      <use x="1301.558594" xlink:href="#DejaVuSans-100"/>
     </g>
    </g>
   </g>
   <g id="matplotlib.axis_2">
    <g id="ytick_1">
     <g id="line2d_10">
      <defs>
       <path d="M 0 0 
L -3.5 0 
" id="mda667458b5" style="stroke:#000000;stroke-width:0.8;"/>
      </defs>
      <g>
       <use style="stroke:#000000;stroke-width:0.8;" x="144" xlink:href="#mda667458b5" y="486.725402"/>
      </g>
     </g>
     <g id="text_11">
      <!-- 0 -->
      <g transform="translate(130.6375 490.524621)scale(0.1 -0.1)">
       <use xlink:href="#DejaVuSans-48"/>
      </g>
     </g>
    </g>
    <g id="ytick_2">
     <g id="line2d_11">
      <g>
       <use style="stroke:#000000;stroke-width:0.8;" x="144" xlink:href="#mda667458b5" y="404.556166"/>
      </g>
     </g>
     <g id="text_12">
      <!-- 1 -->
      <g transform="translate(130.6375 408.355385)scale(0.1 -0.1)">
       <use xlink:href="#DejaVuSans-49"/>
      </g>
     </g>
    </g>
    <g id="ytick_3">
     <g id="line2d_12">
      <g>
       <use style="stroke:#000000;stroke-width:0.8;" x="144" xlink:href="#mda667458b5" y="322.386931"/>
      </g>
     </g>
     <g id="text_13">
      <!-- 2 -->
      <g transform="translate(130.6375 326.186149)scale(0.1 -0.1)">
       <use xlink:href="#DejaVuSans-50"/>
      </g>
     </g>
    </g>
    <g id="ytick_4">
     <g id="line2d_13">
      <g>
       <use style="stroke:#000000;stroke-width:0.8;" x="144" xlink:href="#mda667458b5" y="240.217695"/>
      </g>
     </g>
     <g id="text_14">
      <!-- 3 -->
      <g transform="translate(130.6375 244.016913)scale(0.1 -0.1)">
       <use xlink:href="#DejaVuSans-51"/>
      </g>
     </g>
    </g>
    <g id="ytick_5">
     <g id="line2d_14">
      <g>
       <use style="stroke:#000000;stroke-width:0.8;" x="144" xlink:href="#mda667458b5" y="158.048459"/>
      </g>
     </g>
     <g id="text_15">
      <!-- 4 -->
      <g transform="translate(130.6375 161.847678)scale(0.1 -0.1)">
       <use xlink:href="#DejaVuSans-52"/>
      </g>
     </g>
    </g>
    <g id="ytick_6">
     <g id="line2d_15">
      <g>
       <use style="stroke:#000000;stroke-width:0.8;" x="144" xlink:href="#mda667458b5" y="75.879223"/>
      </g>
     </g>
     <g id="text_16">
      <!-- 5 -->
      <g transform="translate(130.6375 79.678442)scale(0.1 -0.1)">
       <use xlink:href="#DejaVuSans-53"/>
      </g>
     </g>
    </g>
    <g id="text_17">
     <!-- Loss -->
     <defs>
      <path d="M 9.8125 72.90625 
L 19.671875 72.90625 
L 19.671875 8.296875 
L 55.171875 8.296875 
L 55.171875 0 
L 9.8125 0 
z
" id="DejaVuSans-76"/>
     </defs>
     <g transform="translate(124.557812 297.527188)rotate(-90)scale(0.1 -0.1)">
      <use xlink:href="#DejaVuSans-76"/>
      <use x="53.962891" xlink:href="#DejaVuSans-111"/>
      <use x="115.144531" xlink:href="#DejaVuSans-115"/>
      <use x="167.244141" xlink:href="#DejaVuSans-115"/>
     </g>
    </g>
   </g>
   <g id="line2d_16">
    <path clip-path="url(#p4a0827f70e)" d="M 184.581818 483.921006 
L 194.855696 483.689321 
L 205.129574 483.428724 
L 215.403452 483.046513 
L 225.67733 482.809798 
L 235.951208 482.360635 
L 246.225086 482.08953 
L 256.498964 481.929998 
L 266.772842 480.956752 
L 277.04672 481.093645 
L 287.320598 480.616038 
L 297.594476 479.248092 
L 307.868354 478.002128 
L 318.142232 477.710211 
L 328.41611 477.447545 
L 338.689988 476.184001 
L 348.963867 473.124121 
L 359.237745 470.009155 
L 369.511623 468.783098 
L 379.785501 467.581081 
L 390.059379 465.124499 
L 400.333257 464.293683 
L 410.607135 463.695134 
L 420.881013 460.835589 
L 431.154891 462.136459 
L 441.428769 462.53878 
L 451.702647 462.554127 
L 461.976525 461.29607 
L 472.250403 462.449932 
L 482.524281 461.844673 
L 492.798159 454.921359 
L 503.072037 445.37897 
L 513.345915 445.680385 
L 523.619793 441.017631 
L 533.893671 426.507104 
L 544.167549 430.092579 
L 554.441427 425.13488 
L 564.715305 422.490908 
L 574.989183 419.929619 
L 585.263061 411.577155 
L 595.536939 411.302028 
L 605.810817 400.059872 
L 616.084695 393.298318 
L 626.358573 380.481209 
L 636.632451 367.022867 
L 646.906329 354.344979 
L 657.180207 351.059026 
L 667.454085 344.940056 
L 677.727963 339.642209 
L 688.001841 335.594619 
L 698.275719 317.352872 
L 708.549597 319.291056 
L 718.823475 314.782106 
L 729.097353 303.08048 
L 739.371231 303.952813 
L 749.645109 289.583133 
L 759.918987 280.366584 
L 770.192865 279.427289 
L 780.466743 266.958022 
L 790.740621 260.104519 
L 801.014499 238.727178 
L 811.288377 248.547649 
L 821.562255 232.431539 
L 831.836133 227.405493 
L 842.110012 248.639176 
L 852.38389 227.707738 
L 862.657768 218.361322 
L 872.931646 228.68496 
L 883.205524 126.963782 
L 893.479402 157.190544 
L 903.75328 88.887273 
L 914.027158 148.689407 
L 924.301036 192.94548 
L 934.574914 190.426394 
L 944.848792 186.229014 
L 955.12267 236.415419 
L 965.396548 250.620714 
L 975.670426 248.376289 
L 985.944304 242.553236 
L 996.218182 242.686413 
" style="fill:none;stroke:#1f77b4;stroke-linecap:square;stroke-width:1.5;"/>
   </g>
   <g id="line2d_17">
    <path clip-path="url(#p4a0827f70e)" d="M 184.581818 483.975283 
L 194.855696 483.90686 
L 205.129574 483.733177 
L 215.403452 483.574399 
L 225.67733 483.46177 
L 235.951208 483.009656 
L 246.225086 482.584393 
L 256.498964 482.155813 
L 266.772842 481.153759 
L 277.04672 481.129127 
L 287.320598 480.261296 
L 297.594476 479.537119 
L 307.868354 478.404965 
L 318.142232 475.43117 
L 328.41611 470.660173 
L 338.689988 468.975125 
L 348.963867 470.01473 
L 359.237745 467.283919 
L 369.511623 466.790012 
L 379.785501 464.38451 
L 390.059379 465.526732 
L 400.333257 461.966791 
L 410.607135 458.985338 
L 420.881013 460.215728 
L 431.154891 457.044738 
L 441.428769 453.719762 
L 451.702647 446.783993 
L 461.976525 445.801528 
L 472.250403 441.572879 
L 482.524281 431.696354 
L 492.798159 434.126499 
L 503.072037 425.537453 
L 513.345915 411.035772 
L 523.619793 401.099706 
L 533.893671 392.895867 
L 544.167549 397.895632 
L 554.441427 390.292159 
L 564.715305 374.650584 
L 574.989183 367.793104 
L 585.263061 350.35625 
L 595.536939 347.73013 
L 605.810817 329.588893 
L 616.084695 335.754215 
L 626.358573 333.623856 
L 636.632451 322.808982 
L 646.906329 318.692874 
L 657.180207 322.063077 
L 667.454085 325.2782 
L 677.727963 332.250628 
L 688.001841 328.485615 
L 698.275719 307.707013 
L 708.549597 303.138781 
L 718.823475 301.914286 
L 729.097353 297.776697 
L 739.371231 281.825207 
L 749.645109 272.013376 
L 759.918987 262.217942 
L 770.192865 257.358495 
L 780.466743 252.211614 
L 790.740621 260.565684 
L 801.014499 248.762754 
L 811.288377 268.569806 
L 821.562255 263.94004 
L 831.836133 258.966262 
L 842.110012 254.391958 
L 852.38389 252.773082 
L 862.657768 259.245821 
L 872.931646 255.369885 
L 883.205524 244.789648 
L 893.479402 239.846804 
L 903.75328 272.414573 
L 914.027158 272.734117 
L 924.301036 270.004724 
L 934.574914 288.913191 
L 944.848792 290.945997 
L 955.12267 291.09426 
L 965.396548 297.007626 
L 975.670426 297.007626 
L 985.944304 297.007626 
L 996.218182 297.007626 
" style="fill:none;stroke:#ff7f0e;stroke-linecap:square;stroke-width:1.5;"/>
   </g>
   <g id="line2d_18">
    <path clip-path="url(#p4a0827f70e)" d="M 184.581818 483.975283 
L 194.855696 483.818275 
L 205.129574 483.771254 
L 215.403452 483.295786 
L 225.67733 483.17947 
L 235.951208 482.390618 
L 246.225086 481.64144 
L 256.498964 481.06307 
L 266.772842 479.850629 
L 277.04672 479.657884 
L 287.320598 478.447943 
L 297.594476 476.48562 
L 307.868354 474.748872 
L 318.142232 473.121832 
L 328.41611 469.862947 
L 338.689988 465.82994 
L 348.963867 463.68146 
L 359.237745 457.322431 
L 369.511623 458.920767 
L 379.785501 457.653082 
L 390.059379 451.178994 
L 400.333257 448.868578 
L 410.607135 445.414772 
L 420.881013 437.606013 
L 431.154891 434.469419 
L 441.428769 427.380965 
L 451.702647 427.864967 
L 461.976525 421.255505 
L 472.250403 416.361672 
L 482.524281 409.899077 
L 492.798159 405.387888 
L 503.072037 398.582148 
L 513.345915 390.854421 
L 523.619793 383.783951 
L 533.893671 383.091862 
L 544.167549 373.486692 
L 554.441427 359.18173 
L 564.715305 351.944926 
L 574.989183 341.631651 
L 585.263061 332.408314 
L 595.536939 327.511919 
L 605.810817 318.569806 
L 616.084695 316.689199 
L 626.358573 315.831735 
L 636.632451 311.948785 
L 646.906329 310.072214 
L 657.180207 309.551788 
L 667.454085 306.391558 
L 677.727963 305.859083 
L 688.001841 302.697541 
L 698.275719 302.293561 
L 708.549597 300.96598 
L 718.823475 300.783336 
L 729.097353 297.007626 
L 739.371231 297.007626 
L 749.645109 297.007626 
L 759.918987 297.007626 
L 770.192865 297.007626 
L 780.466743 297.007626 
L 790.740621 297.007626 
L 801.014499 297.007626 
L 811.288377 297.007626 
L 821.562255 297.007626 
L 831.836133 297.007626 
L 842.110012 297.007626 
L 852.38389 297.007626 
L 862.657768 297.007626 
L 872.931646 297.007626 
L 883.205524 297.007626 
L 893.479402 297.007626 
L 903.75328 297.007626 
L 914.027158 297.007626 
L 924.301036 297.007626 
L 934.574914 297.007626 
L 944.848792 297.007626 
L 955.12267 297.007626 
L 965.396548 297.007626 
L 975.670426 297.007626 
L 985.944304 297.007626 
L 996.218182 297.007626 
" style="fill:none;stroke:#2ca02c;stroke-linecap:square;stroke-width:1.5;"/>
   </g>
   <g id="line2d_19">
    <path clip-path="url(#p4a0827f70e)" d="M 184.581818 483.975283 
L 194.855696 483.740194 
L 205.129574 483.480344 
L 215.403452 483.13528 
L 225.67733 482.646436 
L 235.951208 482.295773 
L 246.225086 481.265915 
L 256.498964 478.669992 
L 266.772842 477.142337 
L 277.04672 477.251623 
L 287.320598 475.698479 
L 297.594476 475.985362 
L 307.868354 474.874283 
L 318.142232 472.139137 
L 328.41611 470.319361 
L 338.689988 467.078097 
L 348.963867 468.449211 
L 359.237745 465.548346 
L 369.511623 466.104393 
L 379.785501 461.168048 
L 390.059379 458.642435 
L 400.333257 455.857016 
L 410.607135 448.141132 
L 420.881013 443.530805 
L 431.154891 441.294339 
L 441.428769 433.670884 
L 451.702647 422.849589 
L 461.976525 419.179746 
L 472.250403 414.932675 
L 482.524281 406.644028 
L 492.798159 396.061896 
L 503.072037 395.506755 
L 513.345915 390.995483 
L 523.619793 379.658214 
L 533.893671 371.771401 
L 544.167549 372.967735 
L 554.441427 356.623443 
L 564.715305 342.702311 
L 574.989183 328.748874 
L 585.263061 340.031564 
L 595.536939 321.494477 
L 605.810817 310.822165 
L 616.084695 291.043775 
L 626.358573 282.211104 
L 636.632451 271.610454 
L 646.906329 260.238147 
L 657.180207 274.090222 
L 667.454085 278.093556 
L 677.727963 271.22828 
L 688.001841 262.628993 
L 698.275719 262.770183 
L 708.549597 264.015288 
L 718.823475 252.523948 
L 729.097353 246.454718 
L 739.371231 259.019255 
L 749.645109 251.930527 
L 759.918987 235.690447 
L 770.192865 219.463493 
L 780.466743 221.868072 
L 790.740621 216.681187 
L 801.014499 237.153616 
L 811.288377 227.277918 
L 821.562255 220.364253 
L 831.836133 209.848763 
L 842.110012 229.67325 
L 852.38389 232.574688 
L 862.657768 224.22722 
L 872.931646 221.050847 
L 883.205524 213.006114 
L 893.479402 213.264867 
L 903.75328 216.501618 
L 914.027158 244.72639 
L 924.301036 247.059463 
L 934.574914 227.723743 
L 944.848792 262.559877 
L 955.12267 264.712441 
L 965.396548 264.23057 
L 975.670426 253.892141 
L 985.944304 251.670657 
L 996.218182 269.533843 
" style="fill:none;stroke:#d62728;stroke-dasharray:5.55,2.4;stroke-dashoffset:0;stroke-width:1.5;"/>
   </g>
   <g id="line2d_20">
    <path clip-path="url(#p4a0827f70e)" d="M 184.581818 483.73255 
L 194.855696 482.326177 
L 205.129574 479.730551 
L 215.403452 477.754431 
L 225.67733 474.934484 
L 235.951208 468.488331 
L 246.225086 461.428476 
L 256.498964 453.672186 
L 266.772842 440.825177 
L 277.04672 434.820631 
L 287.320598 424.775582 
L 297.594476 418.658909 
L 307.868354 409.507185 
L 318.142232 400.825289 
L 328.41611 391.219865 
L 338.689988 382.132448 
L 348.963867 372.428678 
L 359.237745 370.010739 
L 369.511623 363.030053 
L 379.785501 351.415889 
L 390.059379 346.590795 
L 400.333257 346.063404 
L 410.607135 344.707044 
L 420.881013 341.235156 
L 431.154891 337.613996 
L 441.428769 331.524618 
L 451.702647 329.843121 
L 461.976525 326.582391 
L 472.250403 324.058485 
L 482.524281 323.940804 
L 492.798159 318.385007 
L 503.072037 318.479199 
L 513.345915 315.911449 
L 523.619793 315.009887 
L 533.893671 315.241194 
L 544.167549 314.180711 
L 554.441427 309.312978 
L 564.715305 308.568767 
L 574.989183 304.116023 
L 585.263061 303.909204 
L 595.536939 303.952598 
L 605.810817 303.784549 
L 616.084695 302.404445 
L 626.358573 300.913986 
L 636.632451 299.382995 
L 646.906329 298.65191 
L 657.180207 296.021412 
L 667.454085 295.30261 
L 677.727963 294.844874 
L 688.001841 297.805084 
L 698.275719 297.805221 
L 708.549597 297.636271 
L 718.823475 297.398832 
L 729.097353 297.365293 
L 739.371231 297.736125 
L 749.645109 297.733617 
L 759.918987 297.751229 
L 770.192865 297.763551 
L 780.466743 297.542353 
L 790.740621 297.574168 
L 801.014499 297.591624 
L 811.288377 297.507325 
L 821.562255 297.292494 
L 831.836133 297.007626 
L 842.110012 297.007626 
L 852.38389 297.007626 
L 862.657768 297.007626 
L 872.931646 297.007626 
L 883.205524 297.007626 
L 893.479402 297.007626 
L 903.75328 297.007626 
L 914.027158 297.007626 
L 924.301036 297.007626 
L 934.574914 297.007626 
L 944.848792 297.007626 
L 955.12267 297.007626 
L 965.396548 297.007626 
L 975.670426 297.007626 
L 985.944304 297.007626 
L 996.218182 297.007626 
" style="fill:none;stroke:#9467bd;stroke-dasharray:5.55,2.4;stroke-dashoffset:0;stroke-width:1.5;"/>
   </g>
   <g id="line2d_21">
    <path clip-path="url(#p4a0827f70e)" d="M 184.581818 484.223053 
L 194.855696 484.103321 
L 205.129574 483.802006 
L 215.403452 483.427839 
L 225.67733 483.256647 
L 235.951208 483.068975 
L 246.225086 482.768564 
L 256.498964 482.265686 
L 266.772842 481.650849 
L 277.04672 481.344217 
L 287.320598 480.334567 
L 297.594476 480.29104 
L 307.868354 479.432459 
L 318.142232 479.478247 
L 328.41611 479.068903 
L 338.689988 478.077392 
L 348.963867 477.223148 
L 359.237745 476.194134 
L 369.511623 476.213448 
L 379.785501 475.64106 
L 390.059379 473.925868 
L 400.333257 473.343924 
L 410.607135 472.295737 
L 420.881013 472.375609 
L 431.154891 470.596554 
L 441.428769 469.848711 
L 451.702647 468.604155 
L 461.976525 467.111563 
L 472.250403 464.860187 
L 482.524281 464.15456 
L 492.798159 460.495436 
L 503.072037 457.07214 
L 513.345915 454.859959 
L 523.619793 451.153715 
L 533.893671 449.24803 
L 544.167549 444.85419 
L 554.441427 443.767382 
L 564.715305 436.234494 
L 574.989183 434.281682 
L 585.263061 431.346029 
L 595.536939 423.846636 
L 605.810817 418.112471 
L 616.084695 415.533173 
L 626.358573 399.658665 
L 636.632451 401.037868 
L 646.906329 391.287757 
L 657.180207 386.99833 
L 667.454085 382.901078 
L 677.727963 377.070649 
L 688.001841 367.793829 
L 698.275719 361.624217 
L 708.549597 364.716252 
L 718.823475 357.944951 
L 729.097353 353.562077 
L 739.371231 347.385099 
L 749.645109 333.941558 
L 759.918987 337.604162 
L 770.192865 322.055182 
L 780.466743 298.771668 
L 790.740621 292.053674 
L 801.014499 278.943792 
L 811.288377 274.88192 
L 821.562255 267.052841 
L 831.836133 244.835393 
L 842.110012 250.159236 
L 852.38389 239.959842 
L 862.657768 228.074495 
L 872.931646 238.605108 
L 883.205524 224.923511 
L 893.479402 245.511388 
L 903.75328 231.243521 
L 914.027158 227.752992 
L 924.301036 228.914876 
L 934.574914 214.335282 
L 944.848792 217.383199 
L 955.12267 214.25016 
L 965.396548 297.325328 
L 975.670426 297.325328 
L 985.944304 297.325328 
L 996.218182 297.325328 
" style="fill:none;stroke:#8c564b;stroke-linecap:square;stroke-width:1.5;"/>
   </g>
   <g id="line2d_22">
    <path clip-path="url(#p4a0827f70e)" d="M 184.581818 484.226407 
L 194.855696 484.16936 
L 205.129574 484.066244 
L 215.403452 483.968994 
L 225.67733 483.854311 
L 235.951208 483.701963 
L 246.225086 483.544347 
L 256.498964 483.346788 
L 266.772842 483.215948 
L 277.04672 482.819707 
L 287.320598 482.360069 
L 297.594476 482.161657 
L 307.868354 481.636209 
L 318.142232 481.150523 
L 328.41611 480.453763 
L 338.689988 480.485436 
L 348.963867 479.226866 
L 359.237745 477.708186 
L 369.511623 477.15399 
L 379.785501 476.35712 
L 390.059379 475.289797 
L 400.333257 473.930724 
L 410.607135 472.351574 
L 420.881013 469.096406 
L 431.154891 467.875513 
L 441.428769 465.596595 
L 451.702647 462.818168 
L 461.976525 458.173579 
L 472.250403 455.01905 
L 482.524281 449.922737 
L 492.798159 445.660204 
L 503.072037 438.962858 
L 513.345915 434.557141 
L 523.619793 429.401694 
L 533.893671 427.610093 
L 544.167549 424.329101 
L 554.441427 423.890823 
L 564.715305 421.006454 
L 574.989183 421.463338 
L 585.263061 416.467055 
L 595.536939 413.645279 
L 605.810817 409.299181 
L 616.084695 408.084451 
L 626.358573 399.85989 
L 636.632451 394.457008 
L 646.906329 390.092275 
L 657.180207 384.066184 
L 667.454085 376.579423 
L 677.727963 373.438558 
L 688.001841 361.460233 
L 698.275719 359.061629 
L 708.549597 359.434597 
L 718.823475 356.231512 
L 729.097353 353.500043 
L 739.371231 347.146298 
L 749.645109 345.198701 
L 759.918987 339.963368 
L 770.192865 334.044791 
L 780.466743 330.735133 
L 790.740621 330.546455 
L 801.014499 328.811545 
L 811.288377 324.747127 
L 821.562255 324.541993 
L 831.836133 323.892415 
L 842.110012 320.82863 
L 852.38389 320.013325 
L 862.657768 317.932443 
L 872.931646 315.709391 
L 883.205524 313.106378 
L 893.479402 311.288619 
L 903.75328 308.093067 
L 914.027158 305.653852 
L 924.301036 304.255078 
L 934.574914 304.249631 
L 944.848792 304.160102 
L 955.12267 301.074493 
L 965.396548 300.997815 
L 975.670426 299.382407 
L 985.944304 300.148912 
L 996.218182 299.183621 
" style="fill:none;stroke:#e377c2;stroke-linecap:square;stroke-width:1.5;"/>
   </g>
   <g id="line2d_23">
    <path clip-path="url(#p4a0827f70e)" d="M 184.581818 484.226407 
L 194.855696 484.149662 
L 205.129574 483.963867 
L 215.403452 483.619042 
L 225.67733 483.32385 
L 235.951208 482.737331 
L 246.225086 482.063274 
L 256.498964 480.905787 
L 266.772842 479.801402 
L 277.04672 478.615872 
L 287.320598 477.406724 
L 297.594476 475.631337 
L 307.868354 472.995378 
L 318.142232 470.085887 
L 328.41611 467.222567 
L 338.689988 461.564752 
L 348.963867 455.734802 
L 359.237745 450.845252 
L 369.511623 449.493672 
L 379.785501 444.874872 
L 390.059379 443.360797 
L 400.333257 443.411067 
L 410.607135 439.814709 
L 420.881013 434.484822 
L 431.154891 427.833245 
L 441.428769 411.454708 
L 451.702647 411.134905 
L 461.976525 409.883169 
L 472.250403 408.96657 
L 482.524281 408.677226 
L 492.798159 406.307661 
L 503.072037 399.425369 
L 513.345915 393.432269 
L 523.619793 389.575248 
L 533.893671 387.322134 
L 544.167549 383.741782 
L 554.441427 376.356853 
L 564.715305 361.472781 
L 574.989183 354.583241 
L 585.263061 348.429154 
L 595.536939 344.234174 
L 605.810817 340.815416 
L 616.084695 339.229933 
L 626.358573 337.717455 
L 636.632451 337.091905 
L 646.906329 335.790673 
L 657.180207 335.737758 
L 667.454085 336.363416 
L 677.727963 335.989224 
L 688.001841 332.410518 
L 698.275719 330.700468 
L 708.549597 328.734877 
L 718.823475 324.197961 
L 729.097353 324.185648 
L 739.371231 322.65834 
L 749.645109 322.424741 
L 759.918987 318.775684 
L 770.192865 318.227008 
L 780.466743 318.377425 
L 790.740621 316.705616 
L 801.014499 312.166418 
L 811.288377 313.225882 
L 821.562255 309.57612 
L 831.836133 310.162371 
L 842.110012 311.000087 
L 852.38389 311.358577 
L 862.657768 304.785201 
L 872.931646 304.304701 
L 883.205524 303.706715 
L 893.479402 304.208648 
L 903.75328 303.172712 
L 914.027158 301.592294 
L 924.301036 300.922528 
L 934.574914 300.43666 
L 944.848792 300.663402 
L 955.12267 300.176456 
L 965.396548 298.332758 
L 975.670426 298.406302 
L 985.944304 298.496615 
L 996.218182 297.566998 
" style="fill:none;stroke:#7f7f7f;stroke-linecap:square;stroke-width:1.5;"/>
   </g>
   <g id="line2d_24">
    <path clip-path="url(#p4a0827f70e)" d="M 184.581818 484.232727 
L 194.855696 484.167395 
L 205.129574 484.104755 
L 215.403452 484.007815 
L 225.67733 483.885962 
L 235.951208 483.757593 
L 246.225086 483.486622 
L 256.498964 483.413188 
L 266.772842 483.193406 
L 277.04672 482.979136 
L 287.320598 482.592186 
L 297.594476 482.050058 
L 307.868354 481.584945 
L 318.142232 480.689699 
L 328.41611 480.31362 
L 338.689988 479.736041 
L 348.963867 479.094818 
L 359.237745 478.805492 
L 369.511623 478.207327 
L 379.785501 477.089193 
L 390.059379 476.740955 
L 400.333257 476.868261 
L 410.607135 475.504457 
L 420.881013 474.056972 
L 431.154891 471.95963 
L 441.428769 471.071735 
L 451.702647 470.42454 
L 461.976525 468.195063 
L 472.250403 466.53268 
L 482.524281 465.784097 
L 492.798159 461.220115 
L 503.072037 458.874666 
L 513.345915 455.011351 
L 523.619793 453.798394 
L 533.893671 450.128219 
L 544.167549 442.676956 
L 554.441427 441.63053 
L 564.715305 434.995815 
L 574.989183 428.082385 
L 585.263061 427.297142 
L 595.536939 423.521857 
L 605.810817 421.349741 
L 616.084695 420.005087 
L 626.358573 415.870039 
L 636.632451 412.610151 
L 646.906329 401.198482 
L 657.180207 397.639484 
L 667.454085 395.322475 
L 677.727963 391.976085 
L 688.001841 389.376344 
L 698.275719 385.071058 
L 708.549597 377.999168 
L 718.823475 373.261556 
L 729.097353 370.14469 
L 739.371231 366.037104 
L 749.645109 368.902661 
L 759.918987 362.103228 
L 770.192865 360.82911 
L 780.466743 353.300796 
L 790.740621 349.889237 
L 801.014499 351.24403 
L 811.288377 345.824143 
L 821.562255 344.442237 
L 831.836133 338.636943 
L 842.110012 331.629046 
L 852.38389 325.968879 
L 862.657768 315.796178 
L 872.931646 311.377443 
L 883.205524 310.507186 
L 893.479402 310.868908 
L 903.75328 309.664807 
L 914.027158 309.448193 
L 924.301036 307.758262 
L 934.574914 305.775216 
L 944.848792 303.524581 
L 955.12267 303.07664 
L 965.396548 297.148737 
L 975.670426 297.391407 
L 985.944304 297.293101 
L 996.218182 297.975523 
" style="fill:none;stroke:#bcbd22;stroke-dasharray:5.55,2.4;stroke-dashoffset:0;stroke-width:1.5;"/>
   </g>
   <g id="line2d_25">
    <path clip-path="url(#p4a0827f70e)" d="M 184.581818 484.232727 
L 194.855696 484.166921 
L 205.129574 484.078231 
L 215.403452 483.973045 
L 225.67733 483.872744 
L 235.951208 483.666068 
L 246.225086 483.512212 
L 256.498964 483.320782 
L 266.772842 483.111585 
L 277.04672 482.597721 
L 287.320598 482.267891 
L 297.594476 482.014259 
L 307.868354 481.803689 
L 318.142232 481.150446 
L 328.41611 480.921498 
L 338.689988 480.43547 
L 348.963867 480.389856 
L 359.237745 479.950596 
L 369.511623 478.233065 
L 379.785501 477.795146 
L 390.059379 476.926247 
L 400.333257 476.44797 
L 410.607135 475.494765 
L 420.881013 474.960691 
L 431.154891 473.792026 
L 441.428769 473.542278 
L 451.702647 473.392215 
L 461.976525 471.503409 
L 472.250403 468.905874 
L 482.524281 466.962481 
L 492.798159 464.724107 
L 503.072037 463.663304 
L 513.345915 461.196435 
L 523.619793 454.337228 
L 533.893671 449.887961 
L 544.167549 446.669998 
L 554.441427 445.540216 
L 564.715305 438.12618 
L 574.989183 435.655757 
L 585.263061 430.409414 
L 595.536939 429.457831 
L 605.810817 430.810724 
L 616.084695 422.570681 
L 626.358573 421.616429 
L 636.632451 418.789299 
L 646.906329 414.555589 
L 657.180207 415.211048 
L 667.454085 410.635182 
L 677.727963 405.664308 
L 688.001841 395.974492 
L 698.275719 384.187333 
L 708.549597 381.29862 
L 718.823475 374.941623 
L 729.097353 377.085087 
L 739.371231 372.097371 
L 749.645109 369.741083 
L 759.918987 368.708547 
L 770.192865 362.983594 
L 780.466743 356.968111 
L 790.740621 350.128655 
L 801.014499 347.673689 
L 811.288377 343.05223 
L 821.562255 346.095249 
L 831.836133 344.573602 
L 842.110012 335.143064 
L 852.38389 331.644444 
L 862.657768 328.853743 
L 872.931646 326.204036 
L 883.205524 321.716087 
L 893.479402 320.331751 
L 903.75328 320.256092 
L 914.027158 314.017639 
L 924.301036 313.624571 
L 934.574914 312.230636 
L 944.848792 306.679129 
L 955.12267 307.186469 
L 965.396548 305.568495 
L 975.670426 303.402707 
L 985.944304 299.028717 
L 996.218182 298.72226 
" style="fill:none;stroke:#17becf;stroke-dasharray:5.55,2.4;stroke-dashoffset:0;stroke-width:1.5;"/>
   </g>
   <g id="line2d_26">
    <path clip-path="url(#p4a0827f70e)" d="M 184.581818 484.172486 
L 194.855696 483.114132 
L 205.129574 481.648312 
L 215.403452 480.137526 
L 225.67733 477.044842 
L 235.951208 474.029166 
L 246.225086 465.723163 
L 256.498964 461.363776 
L 266.772842 451.440684 
L 277.04672 441.064937 
L 287.320598 429.560045 
L 297.594476 422.847101 
L 307.868354 414.466221 
L 318.142232 400.479269 
L 328.41611 396.152885 
L 338.689988 395.021562 
L 348.963867 384.170093 
L 359.237745 373.538333 
L 369.511623 366.295808 
L 379.785501 365.723722 
L 390.059379 358.487887 
L 400.333257 354.936657 
L 410.607135 354.214035 
L 420.881013 351.531935 
L 431.154891 349.137465 
L 441.428769 342.055172 
L 451.702647 341.523139 
L 461.976525 340.870583 
L 472.250403 339.517632 
L 482.524281 335.692132 
L 492.798159 335.333936 
L 503.072037 334.03815 
L 513.345915 331.62023 
L 523.619793 326.656247 
L 533.893671 321.074649 
L 544.167549 319.370888 
L 554.441427 318.504098 
L 564.715305 317.859154 
L 574.989183 318.189335 
L 585.263061 316.744288 
L 595.536939 314.991883 
L 605.810817 310.656643 
L 616.084695 310.022983 
L 626.358573 309.228444 
L 636.632451 307.952308 
L 646.906329 308.230299 
L 657.180207 305.168453 
L 667.454085 304.547527 
L 677.727963 303.798262 
L 688.001841 303.486398 
L 698.275719 303.31739 
L 708.549597 302.367222 
L 718.823475 301.087873 
L 729.097353 300.891163 
L 739.371231 300.500799 
L 749.645109 300.736828 
L 759.918987 300.229527 
L 770.192865 300.110044 
L 780.466743 300.063261 
L 790.740621 299.570007 
L 801.014499 299.218002 
L 811.288377 299.127101 
L 821.562255 297.352069 
L 831.836133 297.430118 
L 842.110012 297.340177 
L 852.38389 297.325328 
L 862.657768 297.325328 
L 872.931646 297.325328 
L 883.205524 297.325328 
L 893.479402 297.325328 
L 903.75328 297.325328 
L 914.027158 297.325328 
L 924.301036 297.325328 
L 934.574914 297.325328 
L 944.848792 297.325328 
L 955.12267 297.325328 
L 965.396548 297.325328 
L 975.670426 297.325328 
L 985.944304 297.325328 
L 996.218182 297.325328 
" style="fill:none;stroke:#1f77b4;stroke-dasharray:5.55,2.4;stroke-dashoffset:0;stroke-width:1.5;"/>
   </g>
   <g id="patch_3">
    <path d="M 144 504 
L 144 69.12 
" style="fill:none;stroke:#000000;stroke-linecap:square;stroke-linejoin:miter;stroke-width:0.8;"/>
   </g>
   <g id="patch_4">
    <path d="M 1036.8 504 
L 1036.8 69.12 
" style="fill:none;stroke:#000000;stroke-linecap:square;stroke-linejoin:miter;stroke-width:0.8;"/>
   </g>
   <g id="patch_5">
    <path d="M 144 504 
L 1036.8 504 
" style="fill:none;stroke:#000000;stroke-linecap:square;stroke-linejoin:miter;stroke-width:0.8;"/>
   </g>
   <g id="patch_6">
    <path d="M 144 69.12 
L 1036.8 69.12 
" style="fill:none;stroke:#000000;stroke-linecap:square;stroke-linejoin:miter;stroke-width:0.8;"/>
   </g>
   <g id="legend_1">
    <g id="patch_7">
     <path d="M 151 240.52625 
L 300.879687 240.52625 
Q 302.879687 240.52625 302.879687 238.52625 
L 302.879687 76.12 
Q 302.879687 74.12 300.879687 74.12 
L 151 74.12 
Q 149 74.12 149 76.12 
L 149 238.52625 
Q 149 240.52625 151 240.52625 
z
" style="fill:#ffffff;opacity:0.8;stroke:#cccccc;stroke-linejoin:miter;"/>
    </g>
    <g id="line2d_27">
     <path d="M 153 82.218437 
L 173 82.218437 
" style="fill:none;stroke:#1f77b4;stroke-linecap:square;stroke-width:1.5;"/>
    </g>
    <g id="line2d_28"/>
    <g id="text_18">
     <!-- taylorfo noBN -->
     <defs>
      <path d="M 18.3125 70.21875 
L 18.3125 54.6875 
L 36.8125 54.6875 
L 36.8125 47.703125 
L 18.3125 47.703125 
L 18.3125 18.015625 
Q 18.3125 11.328125 20.140625 9.421875 
Q 21.96875 7.515625 27.59375 7.515625 
L 36.8125 7.515625 
L 36.8125 0 
L 27.59375 0 
Q 17.1875 0 13.234375 3.875 
Q 9.28125 7.765625 9.28125 18.015625 
L 9.28125 47.703125 
L 2.6875 47.703125 
L 2.6875 54.6875 
L 9.28125 54.6875 
L 9.28125 70.21875 
z
" id="DejaVuSans-116"/>
      <path d="M 34.28125 27.484375 
Q 23.390625 27.484375 19.1875 25 
Q 14.984375 22.515625 14.984375 16.5 
Q 14.984375 11.71875 18.140625 8.90625 
Q 21.296875 6.109375 26.703125 6.109375 
Q 34.1875 6.109375 38.703125 11.40625 
Q 43.21875 16.703125 43.21875 25.484375 
L 43.21875 27.484375 
z
M 52.203125 31.203125 
L 52.203125 0 
L 43.21875 0 
L 43.21875 8.296875 
Q 40.140625 3.328125 35.546875 0.953125 
Q 30.953125 -1.421875 24.3125 -1.421875 
Q 15.921875 -1.421875 10.953125 3.296875 
Q 6 8.015625 6 15.921875 
Q 6 25.140625 12.171875 29.828125 
Q 18.359375 34.515625 30.609375 34.515625 
L 43.21875 34.515625 
L 43.21875 35.40625 
Q 43.21875 41.609375 39.140625 45 
Q 35.0625 48.390625 27.6875 48.390625 
Q 23 48.390625 18.546875 47.265625 
Q 14.109375 46.140625 10.015625 43.890625 
L 10.015625 52.203125 
Q 14.9375 54.109375 19.578125 55.046875 
Q 24.21875 56 28.609375 56 
Q 40.484375 56 46.34375 49.84375 
Q 52.203125 43.703125 52.203125 31.203125 
z
" id="DejaVuSans-97"/>
      <path d="M 32.171875 -5.078125 
Q 28.375 -14.84375 24.75 -17.8125 
Q 21.140625 -20.796875 15.09375 -20.796875 
L 7.90625 -20.796875 
L 7.90625 -13.28125 
L 13.1875 -13.28125 
Q 16.890625 -13.28125 18.9375 -11.515625 
Q 21 -9.765625 23.484375 -3.21875 
L 25.09375 0.875 
L 2.984375 54.6875 
L 12.5 54.6875 
L 29.59375 11.921875 
L 46.6875 54.6875 
L 56.203125 54.6875 
z
" id="DejaVuSans-121"/>
      <path d="M 9.421875 75.984375 
L 18.40625 75.984375 
L 18.40625 0 
L 9.421875 0 
z
" id="DejaVuSans-108"/>
      <path d="M 19.671875 34.8125 
L 19.671875 8.109375 
L 35.5 8.109375 
Q 43.453125 8.109375 47.28125 11.40625 
Q 51.125 14.703125 51.125 21.484375 
Q 51.125 28.328125 47.28125 31.5625 
Q 43.453125 34.8125 35.5 34.8125 
z
M 19.671875 64.796875 
L 19.671875 42.828125 
L 34.28125 42.828125 
Q 41.5 42.828125 45.03125 45.53125 
Q 48.578125 48.25 48.578125 53.8125 
Q 48.578125 59.328125 45.03125 62.0625 
Q 41.5 64.796875 34.28125 64.796875 
z
M 9.8125 72.90625 
L 35.015625 72.90625 
Q 46.296875 72.90625 52.390625 68.21875 
Q 58.5 63.53125 58.5 54.890625 
Q 58.5 48.1875 55.375 44.234375 
Q 52.25 40.28125 46.1875 39.3125 
Q 53.46875 37.75 57.5 32.78125 
Q 61.53125 27.828125 61.53125 20.40625 
Q 61.53125 10.640625 54.890625 5.3125 
Q 48.25 0 35.984375 0 
L 9.8125 0 
z
" id="DejaVuSans-66"/>
     </defs>
     <g transform="translate(181 85.718437)scale(0.1 -0.1)">
      <use xlink:href="#DejaVuSans-116"/>
      <use x="39.208984" xlink:href="#DejaVuSans-97"/>
      <use x="100.488281" xlink:href="#DejaVuSans-121"/>
      <use x="159.667969" xlink:href="#DejaVuSans-108"/>
      <use x="187.451172" xlink:href="#DejaVuSans-111"/>
      <use x="248.632812" xlink:href="#DejaVuSans-114"/>
      <use x="289.746094" xlink:href="#DejaVuSans-102"/>
      <use x="324.951172" xlink:href="#DejaVuSans-111"/>
      <use x="386.132812" xlink:href="#DejaVuSans-32"/>
      <use x="417.919922" xlink:href="#DejaVuSans-110"/>
      <use x="481.298828" xlink:href="#DejaVuSans-111"/>
      <use x="542.480469" xlink:href="#DejaVuSans-66"/>
      <use x="611.083984" xlink:href="#DejaVuSans-78"/>
     </g>
    </g>
    <g id="line2d_29">
     <path d="M 153 96.896563 
L 173 96.896563 
" style="fill:none;stroke:#ff7f0e;stroke-linecap:square;stroke-width:1.5;"/>
    </g>
    <g id="line2d_30"/>
    <g id="text_19">
     <!-- taylorfo_abs noBN -->
     <defs>
      <path d="M 50.984375 -16.609375 
L 50.984375 -23.578125 
L -0.984375 -23.578125 
L -0.984375 -16.609375 
z
" id="DejaVuSans-95"/>
     </defs>
     <g transform="translate(181 100.396563)scale(0.1 -0.1)">
      <use xlink:href="#DejaVuSans-116"/>
      <use x="39.208984" xlink:href="#DejaVuSans-97"/>
      <use x="100.488281" xlink:href="#DejaVuSans-121"/>
      <use x="159.667969" xlink:href="#DejaVuSans-108"/>
      <use x="187.451172" xlink:href="#DejaVuSans-111"/>
      <use x="248.632812" xlink:href="#DejaVuSans-114"/>
      <use x="289.746094" xlink:href="#DejaVuSans-102"/>
      <use x="324.951172" xlink:href="#DejaVuSans-111"/>
      <use x="386.132812" xlink:href="#DejaVuSans-95"/>
      <use x="436.132812" xlink:href="#DejaVuSans-97"/>
      <use x="497.412109" xlink:href="#DejaVuSans-98"/>
      <use x="560.888672" xlink:href="#DejaVuSans-115"/>
      <use x="612.988281" xlink:href="#DejaVuSans-32"/>
      <use x="644.775391" xlink:href="#DejaVuSans-110"/>
      <use x="708.154297" xlink:href="#DejaVuSans-111"/>
      <use x="769.335938" xlink:href="#DejaVuSans-66"/>
      <use x="837.939453" xlink:href="#DejaVuSans-78"/>
     </g>
    </g>
    <g id="line2d_31">
     <path d="M 153 111.852813 
L 173 111.852813 
" style="fill:none;stroke:#2ca02c;stroke-linecap:square;stroke-width:1.5;"/>
    </g>
    <g id="line2d_32"/>
    <g id="text_20">
     <!-- taylorfo_sq noBN -->
     <defs>
      <path d="M 14.796875 27.296875 
Q 14.796875 17.390625 18.875 11.75 
Q 22.953125 6.109375 30.078125 6.109375 
Q 37.203125 6.109375 41.296875 11.75 
Q 45.40625 17.390625 45.40625 27.296875 
Q 45.40625 37.203125 41.296875 42.84375 
Q 37.203125 48.484375 30.078125 48.484375 
Q 22.953125 48.484375 18.875 42.84375 
Q 14.796875 37.203125 14.796875 27.296875 
z
M 45.40625 8.203125 
Q 42.578125 3.328125 38.25 0.953125 
Q 33.9375 -1.421875 27.875 -1.421875 
Q 17.96875 -1.421875 11.734375 6.484375 
Q 5.515625 14.40625 5.515625 27.296875 
Q 5.515625 40.1875 11.734375 48.09375 
Q 17.96875 56 27.875 56 
Q 33.9375 56 38.25 53.625 
Q 42.578125 51.265625 45.40625 46.390625 
L 45.40625 54.6875 
L 54.390625 54.6875 
L 54.390625 -20.796875 
L 45.40625 -20.796875 
z
" id="DejaVuSans-113"/>
     </defs>
     <g transform="translate(181 115.352813)scale(0.1 -0.1)">
      <use xlink:href="#DejaVuSans-116"/>
      <use x="39.208984" xlink:href="#DejaVuSans-97"/>
      <use x="100.488281" xlink:href="#DejaVuSans-121"/>
      <use x="159.667969" xlink:href="#DejaVuSans-108"/>
      <use x="187.451172" xlink:href="#DejaVuSans-111"/>
      <use x="248.632812" xlink:href="#DejaVuSans-114"/>
      <use x="289.746094" xlink:href="#DejaVuSans-102"/>
      <use x="324.951172" xlink:href="#DejaVuSans-111"/>
      <use x="386.132812" xlink:href="#DejaVuSans-95"/>
      <use x="436.132812" xlink:href="#DejaVuSans-115"/>
      <use x="488.232422" xlink:href="#DejaVuSans-113"/>
      <use x="551.708984" xlink:href="#DejaVuSans-32"/>
      <use x="583.496094" xlink:href="#DejaVuSans-110"/>
      <use x="646.875" xlink:href="#DejaVuSans-111"/>
      <use x="708.056641" xlink:href="#DejaVuSans-66"/>
      <use x="776.660156" xlink:href="#DejaVuSans-78"/>
     </g>
    </g>
    <g id="line2d_33">
     <path d="M 153 126.809062 
L 173 126.809062 
" style="fill:none;stroke:#d62728;stroke-dasharray:5.55,2.4;stroke-dashoffset:0;stroke-width:1.5;"/>
    </g>
    <g id="line2d_34"/>
    <g id="text_21">
     <!-- Molchanov_group noBN -->
     <defs>
      <path d="M 9.8125 72.90625 
L 24.515625 72.90625 
L 43.109375 23.296875 
L 61.8125 72.90625 
L 76.515625 72.90625 
L 76.515625 0 
L 66.890625 0 
L 66.890625 64.015625 
L 48.09375 14.015625 
L 38.1875 14.015625 
L 19.390625 64.015625 
L 19.390625 0 
L 9.8125 0 
z
" id="DejaVuSans-77"/>
      <path d="M 48.78125 52.59375 
L 48.78125 44.1875 
Q 44.96875 46.296875 41.140625 47.34375 
Q 37.3125 48.390625 33.40625 48.390625 
Q 24.65625 48.390625 19.8125 42.84375 
Q 14.984375 37.3125 14.984375 27.296875 
Q 14.984375 17.28125 19.8125 11.734375 
Q 24.65625 6.203125 33.40625 6.203125 
Q 37.3125 6.203125 41.140625 7.25 
Q 44.96875 8.296875 48.78125 10.40625 
L 48.78125 2.09375 
Q 45.015625 0.34375 40.984375 -0.53125 
Q 36.96875 -1.421875 32.421875 -1.421875 
Q 20.0625 -1.421875 12.78125 6.34375 
Q 5.515625 14.109375 5.515625 27.296875 
Q 5.515625 40.671875 12.859375 48.328125 
Q 20.21875 56 33.015625 56 
Q 37.15625 56 41.109375 55.140625 
Q 45.0625 54.296875 48.78125 52.59375 
z
" id="DejaVuSans-99"/>
      <path d="M 54.890625 33.015625 
L 54.890625 0 
L 45.90625 0 
L 45.90625 32.71875 
Q 45.90625 40.484375 42.875 44.328125 
Q 39.84375 48.1875 33.796875 48.1875 
Q 26.515625 48.1875 22.3125 43.546875 
Q 18.109375 38.921875 18.109375 30.90625 
L 18.109375 0 
L 9.078125 0 
L 9.078125 75.984375 
L 18.109375 75.984375 
L 18.109375 46.1875 
Q 21.34375 51.125 25.703125 53.5625 
Q 30.078125 56 35.796875 56 
Q 45.21875 56 50.046875 50.171875 
Q 54.890625 44.34375 54.890625 33.015625 
z
" id="DejaVuSans-104"/>
      <path d="M 2.984375 54.6875 
L 12.5 54.6875 
L 29.59375 8.796875 
L 46.6875 54.6875 
L 56.203125 54.6875 
L 35.6875 0 
L 23.484375 0 
z
" id="DejaVuSans-118"/>
      <path d="M 45.40625 27.984375 
Q 45.40625 37.75 41.375 43.109375 
Q 37.359375 48.484375 30.078125 48.484375 
Q 22.859375 48.484375 18.828125 43.109375 
Q 14.796875 37.75 14.796875 27.984375 
Q 14.796875 18.265625 18.828125 12.890625 
Q 22.859375 7.515625 30.078125 7.515625 
Q 37.359375 7.515625 41.375 12.890625 
Q 45.40625 18.265625 45.40625 27.984375 
z
M 54.390625 6.78125 
Q 54.390625 -7.171875 48.1875 -13.984375 
Q 42 -20.796875 29.203125 -20.796875 
Q 24.46875 -20.796875 20.265625 -20.09375 
Q 16.0625 -19.390625 12.109375 -17.921875 
L 12.109375 -9.1875 
Q 16.0625 -11.328125 19.921875 -12.34375 
Q 23.78125 -13.375 27.78125 -13.375 
Q 36.625 -13.375 41.015625 -8.765625 
Q 45.40625 -4.15625 45.40625 5.171875 
L 45.40625 9.625 
Q 42.625 4.78125 38.28125 2.390625 
Q 33.9375 0 27.875 0 
Q 17.828125 0 11.671875 7.65625 
Q 5.515625 15.328125 5.515625 27.984375 
Q 5.515625 40.671875 11.671875 48.328125 
Q 17.828125 56 27.875 56 
Q 33.9375 56 38.28125 53.609375 
Q 42.625 51.21875 45.40625 46.390625 
L 45.40625 54.6875 
L 54.390625 54.6875 
z
" id="DejaVuSans-103"/>
     </defs>
     <g transform="translate(181 130.309062)scale(0.1 -0.1)">
      <use xlink:href="#DejaVuSans-77"/>
      <use x="86.279297" xlink:href="#DejaVuSans-111"/>
      <use x="147.460938" xlink:href="#DejaVuSans-108"/>
      <use x="175.244141" xlink:href="#DejaVuSans-99"/>
      <use x="230.224609" xlink:href="#DejaVuSans-104"/>
      <use x="293.603516" xlink:href="#DejaVuSans-97"/>
      <use x="354.882812" xlink:href="#DejaVuSans-110"/>
      <use x="418.261719" xlink:href="#DejaVuSans-111"/>
      <use x="479.443359" xlink:href="#DejaVuSans-118"/>
      <use x="538.623047" xlink:href="#DejaVuSans-95"/>
      <use x="588.623047" xlink:href="#DejaVuSans-103"/>
      <use x="652.099609" xlink:href="#DejaVuSans-114"/>
      <use x="690.962891" xlink:href="#DejaVuSans-111"/>
      <use x="752.144531" xlink:href="#DejaVuSans-117"/>
      <use x="815.523438" xlink:href="#DejaVuSans-112"/>
      <use x="879" xlink:href="#DejaVuSans-32"/>
      <use x="910.787109" xlink:href="#DejaVuSans-110"/>
      <use x="974.166016" xlink:href="#DejaVuSans-111"/>
      <use x="1035.347656" xlink:href="#DejaVuSans-66"/>
      <use x="1103.951172" xlink:href="#DejaVuSans-78"/>
     </g>
    </g>
    <g id="line2d_35">
     <path d="M 153 141.765312 
L 173 141.765312 
" style="fill:none;stroke:#9467bd;stroke-dasharray:5.55,2.4;stroke-dashoffset:0;stroke-width:1.5;"/>
    </g>
    <g id="line2d_36"/>
    <g id="text_22">
     <!-- APnZ noBN -->
     <defs>
      <path d="M 34.1875 63.1875 
L 20.796875 26.90625 
L 47.609375 26.90625 
z
M 28.609375 72.90625 
L 39.796875 72.90625 
L 67.578125 0 
L 57.328125 0 
L 50.6875 18.703125 
L 17.828125 18.703125 
L 11.1875 0 
L 0.78125 0 
z
" id="DejaVuSans-65"/>
      <path d="M 19.671875 64.796875 
L 19.671875 37.40625 
L 32.078125 37.40625 
Q 38.96875 37.40625 42.71875 40.96875 
Q 46.484375 44.53125 46.484375 51.125 
Q 46.484375 57.671875 42.71875 61.234375 
Q 38.96875 64.796875 32.078125 64.796875 
z
M 9.8125 72.90625 
L 32.078125 72.90625 
Q 44.34375 72.90625 50.609375 67.359375 
Q 56.890625 61.8125 56.890625 51.125 
Q 56.890625 40.328125 50.609375 34.8125 
Q 44.34375 29.296875 32.078125 29.296875 
L 19.671875 29.296875 
L 19.671875 0 
L 9.8125 0 
z
" id="DejaVuSans-80"/>
      <path d="M 5.609375 72.90625 
L 62.890625 72.90625 
L 62.890625 65.375 
L 16.796875 8.296875 
L 64.015625 8.296875 
L 64.015625 0 
L 4.5 0 
L 4.5 7.515625 
L 50.59375 64.59375 
L 5.609375 64.59375 
z
" id="DejaVuSans-90"/>
     </defs>
     <g transform="translate(181 145.265312)scale(0.1 -0.1)">
      <use xlink:href="#DejaVuSans-65"/>
      <use x="68.408203" xlink:href="#DejaVuSans-80"/>
      <use x="126.960938" xlink:href="#DejaVuSans-110"/>
      <use x="190.339844" xlink:href="#DejaVuSans-90"/>
      <use x="258.845703" xlink:href="#DejaVuSans-32"/>
      <use x="290.632812" xlink:href="#DejaVuSans-110"/>
      <use x="354.011719" xlink:href="#DejaVuSans-111"/>
      <use x="415.193359" xlink:href="#DejaVuSans-66"/>
      <use x="483.796875" xlink:href="#DejaVuSans-78"/>
     </g>
    </g>
    <g id="line2d_37">
     <path d="M 153 156.443438 
L 173 156.443438 
" style="fill:none;stroke:#8c564b;stroke-linecap:square;stroke-width:1.5;"/>
    </g>
    <g id="line2d_38"/>
    <g id="text_23">
     <!-- taylorfo BN -->
     <g transform="translate(181 159.943438)scale(0.1 -0.1)">
      <use xlink:href="#DejaVuSans-116"/>
      <use x="39.208984" xlink:href="#DejaVuSans-97"/>
      <use x="100.488281" xlink:href="#DejaVuSans-121"/>
      <use x="159.667969" xlink:href="#DejaVuSans-108"/>
      <use x="187.451172" xlink:href="#DejaVuSans-111"/>
      <use x="248.632812" xlink:href="#DejaVuSans-114"/>
      <use x="289.746094" xlink:href="#DejaVuSans-102"/>
      <use x="324.951172" xlink:href="#DejaVuSans-111"/>
      <use x="386.132812" xlink:href="#DejaVuSans-32"/>
      <use x="417.919922" xlink:href="#DejaVuSans-66"/>
      <use x="486.523438" xlink:href="#DejaVuSans-78"/>
     </g>
    </g>
    <g id="line2d_39">
     <path d="M 153 171.121562 
L 173 171.121562 
" style="fill:none;stroke:#e377c2;stroke-linecap:square;stroke-width:1.5;"/>
    </g>
    <g id="line2d_40"/>
    <g id="text_24">
     <!-- taylorfo_abs BN -->
     <g transform="translate(181 174.621562)scale(0.1 -0.1)">
      <use xlink:href="#DejaVuSans-116"/>
      <use x="39.208984" xlink:href="#DejaVuSans-97"/>
      <use x="100.488281" xlink:href="#DejaVuSans-121"/>
      <use x="159.667969" xlink:href="#DejaVuSans-108"/>
      <use x="187.451172" xlink:href="#DejaVuSans-111"/>
      <use x="248.632812" xlink:href="#DejaVuSans-114"/>
      <use x="289.746094" xlink:href="#DejaVuSans-102"/>
      <use x="324.951172" xlink:href="#DejaVuSans-111"/>
      <use x="386.132812" xlink:href="#DejaVuSans-95"/>
      <use x="436.132812" xlink:href="#DejaVuSans-97"/>
      <use x="497.412109" xlink:href="#DejaVuSans-98"/>
      <use x="560.888672" xlink:href="#DejaVuSans-115"/>
      <use x="612.988281" xlink:href="#DejaVuSans-32"/>
      <use x="644.775391" xlink:href="#DejaVuSans-66"/>
      <use x="713.378906" xlink:href="#DejaVuSans-78"/>
     </g>
    </g>
    <g id="line2d_41">
     <path d="M 153 186.077812 
L 173 186.077812 
" style="fill:none;stroke:#7f7f7f;stroke-linecap:square;stroke-width:1.5;"/>
    </g>
    <g id="line2d_42"/>
    <g id="text_25">
     <!-- taylorfo_sq BN -->
     <g transform="translate(181 189.577812)scale(0.1 -0.1)">
      <use xlink:href="#DejaVuSans-116"/>
      <use x="39.208984" xlink:href="#DejaVuSans-97"/>
      <use x="100.488281" xlink:href="#DejaVuSans-121"/>
      <use x="159.667969" xlink:href="#DejaVuSans-108"/>
      <use x="187.451172" xlink:href="#DejaVuSans-111"/>
      <use x="248.632812" xlink:href="#DejaVuSans-114"/>
      <use x="289.746094" xlink:href="#DejaVuSans-102"/>
      <use x="324.951172" xlink:href="#DejaVuSans-111"/>
      <use x="386.132812" xlink:href="#DejaVuSans-95"/>
      <use x="436.132812" xlink:href="#DejaVuSans-115"/>
      <use x="488.232422" xlink:href="#DejaVuSans-113"/>
      <use x="551.708984" xlink:href="#DejaVuSans-32"/>
      <use x="583.496094" xlink:href="#DejaVuSans-66"/>
      <use x="652.099609" xlink:href="#DejaVuSans-78"/>
     </g>
    </g>
    <g id="line2d_43">
     <path d="M 153 201.034063 
L 173 201.034063 
" style="fill:none;stroke:#bcbd22;stroke-dasharray:5.55,2.4;stroke-dashoffset:0;stroke-width:1.5;"/>
    </g>
    <g id="line2d_44"/>
    <g id="text_26">
     <!-- Molchanov_group BN -->
     <g transform="translate(181 204.534063)scale(0.1 -0.1)">
      <use xlink:href="#DejaVuSans-77"/>
      <use x="86.279297" xlink:href="#DejaVuSans-111"/>
      <use x="147.460938" xlink:href="#DejaVuSans-108"/>
      <use x="175.244141" xlink:href="#DejaVuSans-99"/>
      <use x="230.224609" xlink:href="#DejaVuSans-104"/>
      <use x="293.603516" xlink:href="#DejaVuSans-97"/>
      <use x="354.882812" xlink:href="#DejaVuSans-110"/>
      <use x="418.261719" xlink:href="#DejaVuSans-111"/>
      <use x="479.443359" xlink:href="#DejaVuSans-118"/>
      <use x="538.623047" xlink:href="#DejaVuSans-95"/>
      <use x="588.623047" xlink:href="#DejaVuSans-103"/>
      <use x="652.099609" xlink:href="#DejaVuSans-114"/>
      <use x="690.962891" xlink:href="#DejaVuSans-111"/>
      <use x="752.144531" xlink:href="#DejaVuSans-117"/>
      <use x="815.523438" xlink:href="#DejaVuSans-112"/>
      <use x="879" xlink:href="#DejaVuSans-32"/>
      <use x="910.787109" xlink:href="#DejaVuSans-66"/>
      <use x="979.390625" xlink:href="#DejaVuSans-78"/>
     </g>
    </g>
    <g id="line2d_45">
     <path d="M 153 215.990312 
L 173 215.990312 
" style="fill:none;stroke:#17becf;stroke-dasharray:5.55,2.4;stroke-dashoffset:0;stroke-width:1.5;"/>
    </g>
    <g id="line2d_46"/>
    <g id="text_27">
     <!-- Molchanov_BN BN -->
     <g transform="translate(181 219.490312)scale(0.1 -0.1)">
      <use xlink:href="#DejaVuSans-77"/>
      <use x="86.279297" xlink:href="#DejaVuSans-111"/>
      <use x="147.460938" xlink:href="#DejaVuSans-108"/>
      <use x="175.244141" xlink:href="#DejaVuSans-99"/>
      <use x="230.224609" xlink:href="#DejaVuSans-104"/>
      <use x="293.603516" xlink:href="#DejaVuSans-97"/>
      <use x="354.882812" xlink:href="#DejaVuSans-110"/>
      <use x="418.261719" xlink:href="#DejaVuSans-111"/>
      <use x="479.443359" xlink:href="#DejaVuSans-118"/>
      <use x="538.623047" xlink:href="#DejaVuSans-95"/>
      <use x="588.623047" xlink:href="#DejaVuSans-66"/>
      <use x="657.226562" xlink:href="#DejaVuSans-78"/>
      <use x="732.03125" xlink:href="#DejaVuSans-32"/>
      <use x="763.818359" xlink:href="#DejaVuSans-66"/>
      <use x="832.421875" xlink:href="#DejaVuSans-78"/>
     </g>
    </g>
    <g id="line2d_47">
     <path d="M 153 230.946563 
L 173 230.946563 
" style="fill:none;stroke:#1f77b4;stroke-dasharray:5.55,2.4;stroke-dashoffset:0;stroke-width:1.5;"/>
    </g>
    <g id="line2d_48"/>
    <g id="text_28">
     <!-- APnZ BN -->
     <g transform="translate(181 234.446563)scale(0.1 -0.1)">
      <use xlink:href="#DejaVuSans-65"/>
      <use x="68.408203" xlink:href="#DejaVuSans-80"/>
      <use x="126.960938" xlink:href="#DejaVuSans-110"/>
      <use x="190.339844" xlink:href="#DejaVuSans-90"/>
      <use x="258.845703" xlink:href="#DejaVuSans-32"/>
      <use x="290.632812" xlink:href="#DejaVuSans-66"/>
      <use x="359.236328" xlink:href="#DejaVuSans-78"/>
     </g>
    </g>
   </g>
  </g>
 </g>
 <defs>
  <clipPath id="p4a0827f70e">
   <rect height="434.88" width="892.8" x="144" y="69.12"/>
  </clipPath>
 </defs>
</svg>
