<?xml version="1.0" encoding="utf-8" standalone="no"?>
<!DOCTYPE svg PUBLIC "-//W3C//DTD SVG 1.1//EN"
  "http://www.w3.org/Graphics/SVG/1.1/DTD/svg11.dtd">
<!-- Created with matplotlib (https://matplotlib.org/) -->
<svg height="576pt" version="1.1" viewBox="0 0 1152 576" width="1152pt" xmlns="http://www.w3.org/2000/svg" xmlns:xlink="http://www.w3.org/1999/xlink">
 <defs>
  <style type="text/css">
*{stroke-linecap:butt;stroke-linejoin:round;}
  </style>
 </defs>
 <g id="figure_1">
  <g id="patch_1">
   <path d="M 0 576 
L 1152 576 
L 1152 0 
L 0 0 
z
" style="fill:#ffffff;"/>
  </g>
  <g id="axes_1">
   <g id="patch_2">
    <path d="M 144 504 
L 1036.8 504 
L 1036.8 69.12 
L 144 69.12 
z
" style="fill:#ffffff;"/>
   </g>
   <g id="matplotlib.axis_1">
    <g id="xtick_1">
     <g id="line2d_1">
      <defs>
       <path d="M 0 0 
L 0 3.5 
" id="m375e3ba65e" style="stroke:#000000;stroke-width:0.8;"/>
      </defs>
      <g>
       <use style="stroke:#000000;stroke-width:0.8;" x="182.527043" xlink:href="#m375e3ba65e" y="504"/>
      </g>
     </g>
     <g id="text_1">
      <!-- 0 -->
      <defs>
       <path d="M 31.78125 66.40625 
Q 24.171875 66.40625 20.328125 58.90625 
Q 16.5 51.421875 16.5 36.375 
Q 16.5 21.390625 20.328125 13.890625 
Q 24.171875 6.390625 31.78125 6.390625 
Q 39.453125 6.390625 43.28125 13.890625 
Q 47.125 21.390625 47.125 36.375 
Q 47.125 51.421875 43.28125 58.90625 
Q 39.453125 66.40625 31.78125 66.40625 
z
M 31.78125 74.21875 
Q 44.046875 74.21875 50.515625 64.515625 
Q 56.984375 54.828125 56.984375 36.375 
Q 56.984375 17.96875 50.515625 8.265625 
Q 44.046875 -1.421875 31.78125 -1.421875 
Q 19.53125 -1.421875 13.0625 8.265625 
Q 6.59375 17.96875 6.59375 36.375 
Q 6.59375 54.828125 13.0625 64.515625 
Q 19.53125 74.21875 31.78125 74.21875 
z
" id="DejaVuSans-48"/>
      </defs>
      <g transform="translate(179.345793 518.598438)scale(0.1 -0.1)">
       <use xlink:href="#DejaVuSans-48"/>
      </g>
     </g>
    </g>
    <g id="xtick_2">
     <g id="line2d_2">
      <g>
       <use style="stroke:#000000;stroke-width:0.8;" x="285.265823" xlink:href="#m375e3ba65e" y="504"/>
      </g>
     </g>
     <g id="text_2">
      <!-- 50 -->
      <defs>
       <path d="M 10.796875 72.90625 
L 49.515625 72.90625 
L 49.515625 64.59375 
L 19.828125 64.59375 
L 19.828125 46.734375 
Q 21.96875 47.46875 24.109375 47.828125 
Q 26.265625 48.1875 28.421875 48.1875 
Q 40.625 48.1875 47.75 41.5 
Q 54.890625 34.8125 54.890625 23.390625 
Q 54.890625 11.625 47.5625 5.09375 
Q 40.234375 -1.421875 26.90625 -1.421875 
Q 22.3125 -1.421875 17.546875 -0.640625 
Q 12.796875 0.140625 7.71875 1.703125 
L 7.71875 11.625 
Q 12.109375 9.234375 16.796875 8.0625 
Q 21.484375 6.890625 26.703125 6.890625 
Q 35.15625 6.890625 40.078125 11.328125 
Q 45.015625 15.765625 45.015625 23.390625 
Q 45.015625 31 40.078125 35.4375 
Q 35.15625 39.890625 26.703125 39.890625 
Q 22.75 39.890625 18.8125 39.015625 
Q 14.890625 38.140625 10.796875 36.28125 
z
" id="DejaVuSans-53"/>
      </defs>
      <g transform="translate(278.903323 518.598438)scale(0.1 -0.1)">
       <use xlink:href="#DejaVuSans-53"/>
       <use x="63.623047" xlink:href="#DejaVuSans-48"/>
      </g>
     </g>
    </g>
    <g id="xtick_3">
     <g id="line2d_3">
      <g>
       <use style="stroke:#000000;stroke-width:0.8;" x="388.004603" xlink:href="#m375e3ba65e" y="504"/>
      </g>
     </g>
     <g id="text_3">
      <!-- 100 -->
      <defs>
       <path d="M 12.40625 8.296875 
L 28.515625 8.296875 
L 28.515625 63.921875 
L 10.984375 60.40625 
L 10.984375 69.390625 
L 28.421875 72.90625 
L 38.28125 72.90625 
L 38.28125 8.296875 
L 54.390625 8.296875 
L 54.390625 0 
L 12.40625 0 
z
" id="DejaVuSans-49"/>
      </defs>
      <g transform="translate(378.460853 518.598438)scale(0.1 -0.1)">
       <use xlink:href="#DejaVuSans-49"/>
       <use x="63.623047" xlink:href="#DejaVuSans-48"/>
       <use x="127.246094" xlink:href="#DejaVuSans-48"/>
      </g>
     </g>
    </g>
    <g id="xtick_4">
     <g id="line2d_4">
      <g>
       <use style="stroke:#000000;stroke-width:0.8;" x="490.743383" xlink:href="#m375e3ba65e" y="504"/>
      </g>
     </g>
     <g id="text_4">
      <!-- 150 -->
      <g transform="translate(481.199633 518.598438)scale(0.1 -0.1)">
       <use xlink:href="#DejaVuSans-49"/>
       <use x="63.623047" xlink:href="#DejaVuSans-53"/>
       <use x="127.246094" xlink:href="#DejaVuSans-48"/>
      </g>
     </g>
    </g>
    <g id="xtick_5">
     <g id="line2d_5">
      <g>
       <use style="stroke:#000000;stroke-width:0.8;" x="593.482163" xlink:href="#m375e3ba65e" y="504"/>
      </g>
     </g>
     <g id="text_5">
      <!-- 200 -->
      <defs>
       <path d="M 19.1875 8.296875 
L 53.609375 8.296875 
L 53.609375 0 
L 7.328125 0 
L 7.328125 8.296875 
Q 12.9375 14.109375 22.625 23.890625 
Q 32.328125 33.6875 34.8125 36.53125 
Q 39.546875 41.84375 41.421875 45.53125 
Q 43.3125 49.21875 43.3125 52.78125 
Q 43.3125 58.59375 39.234375 62.25 
Q 35.15625 65.921875 28.609375 65.921875 
Q 23.96875 65.921875 18.8125 64.3125 
Q 13.671875 62.703125 7.8125 59.421875 
L 7.8125 69.390625 
Q 13.765625 71.78125 18.9375 73 
Q 24.125 74.21875 28.421875 74.21875 
Q 39.75 74.21875 46.484375 68.546875 
Q 53.21875 62.890625 53.21875 53.421875 
Q 53.21875 48.921875 51.53125 44.890625 
Q 49.859375 40.875 45.40625 35.40625 
Q 44.1875 33.984375 37.640625 27.21875 
Q 31.109375 20.453125 19.1875 8.296875 
z
" id="DejaVuSans-50"/>
      </defs>
      <g transform="translate(583.938413 518.598438)scale(0.1 -0.1)">
       <use xlink:href="#DejaVuSans-50"/>
       <use x="63.623047" xlink:href="#DejaVuSans-48"/>
       <use x="127.246094" xlink:href="#DejaVuSans-48"/>
      </g>
     </g>
    </g>
    <g id="xtick_6">
     <g id="line2d_6">
      <g>
       <use style="stroke:#000000;stroke-width:0.8;" x="696.220944" xlink:href="#m375e3ba65e" y="504"/>
      </g>
     </g>
     <g id="text_6">
      <!-- 250 -->
      <g transform="translate(686.677194 518.598438)scale(0.1 -0.1)">
       <use xlink:href="#DejaVuSans-50"/>
       <use x="63.623047" xlink:href="#DejaVuSans-53"/>
       <use x="127.246094" xlink:href="#DejaVuSans-48"/>
      </g>
     </g>
    </g>
    <g id="xtick_7">
     <g id="line2d_7">
      <g>
       <use style="stroke:#000000;stroke-width:0.8;" x="798.959724" xlink:href="#m375e3ba65e" y="504"/>
      </g>
     </g>
     <g id="text_7">
      <!-- 300 -->
      <defs>
       <path d="M 40.578125 39.3125 
Q 47.65625 37.796875 51.625 33 
Q 55.609375 28.21875 55.609375 21.1875 
Q 55.609375 10.40625 48.1875 4.484375 
Q 40.765625 -1.421875 27.09375 -1.421875 
Q 22.515625 -1.421875 17.65625 -0.515625 
Q 12.796875 0.390625 7.625 2.203125 
L 7.625 11.71875 
Q 11.71875 9.328125 16.59375 8.109375 
Q 21.484375 6.890625 26.8125 6.890625 
Q 36.078125 6.890625 40.9375 10.546875 
Q 45.796875 14.203125 45.796875 21.1875 
Q 45.796875 27.640625 41.28125 31.265625 
Q 36.765625 34.90625 28.71875 34.90625 
L 20.21875 34.90625 
L 20.21875 43.015625 
L 29.109375 43.015625 
Q 36.375 43.015625 40.234375 45.921875 
Q 44.09375 48.828125 44.09375 54.296875 
Q 44.09375 59.90625 40.109375 62.90625 
Q 36.140625 65.921875 28.71875 65.921875 
Q 24.65625 65.921875 20.015625 65.03125 
Q 15.375 64.15625 9.8125 62.3125 
L 9.8125 71.09375 
Q 15.4375 72.65625 20.34375 73.4375 
Q 25.25 74.21875 29.59375 74.21875 
Q 40.828125 74.21875 47.359375 69.109375 
Q 53.90625 64.015625 53.90625 55.328125 
Q 53.90625 49.265625 50.4375 45.09375 
Q 46.96875 40.921875 40.578125 39.3125 
z
" id="DejaVuSans-51"/>
      </defs>
      <g transform="translate(789.415974 518.598438)scale(0.1 -0.1)">
       <use xlink:href="#DejaVuSans-51"/>
       <use x="63.623047" xlink:href="#DejaVuSans-48"/>
       <use x="127.246094" xlink:href="#DejaVuSans-48"/>
      </g>
     </g>
    </g>
    <g id="xtick_8">
     <g id="line2d_8">
      <g>
       <use style="stroke:#000000;stroke-width:0.8;" x="901.698504" xlink:href="#m375e3ba65e" y="504"/>
      </g>
     </g>
     <g id="text_8">
      <!-- 350 -->
      <g transform="translate(892.154754 518.598438)scale(0.1 -0.1)">
       <use xlink:href="#DejaVuSans-51"/>
       <use x="63.623047" xlink:href="#DejaVuSans-53"/>
       <use x="127.246094" xlink:href="#DejaVuSans-48"/>
      </g>
     </g>
    </g>
    <g id="xtick_9">
     <g id="line2d_9">
      <g>
       <use style="stroke:#000000;stroke-width:0.8;" x="1004.437284" xlink:href="#m375e3ba65e" y="504"/>
      </g>
     </g>
     <g id="text_9">
      <!-- 400 -->
      <defs>
       <path d="M 37.796875 64.3125 
L 12.890625 25.390625 
L 37.796875 25.390625 
z
M 35.203125 72.90625 
L 47.609375 72.90625 
L 47.609375 25.390625 
L 58.015625 25.390625 
L 58.015625 17.1875 
L 47.609375 17.1875 
L 47.609375 0 
L 37.796875 0 
L 37.796875 17.1875 
L 4.890625 17.1875 
L 4.890625 26.703125 
z
" id="DejaVuSans-52"/>
      </defs>
      <g transform="translate(994.893534 518.598438)scale(0.1 -0.1)">
       <use xlink:href="#DejaVuSans-52"/>
       <use x="63.623047" xlink:href="#DejaVuSans-48"/>
       <use x="127.246094" xlink:href="#DejaVuSans-48"/>
      </g>
     </g>
    </g>
    <g id="text_10">
     <!-- Number of Neurons pruned -->
     <defs>
      <path d="M 9.8125 72.90625 
L 23.09375 72.90625 
L 55.421875 11.921875 
L 55.421875 72.90625 
L 64.984375 72.90625 
L 64.984375 0 
L 51.703125 0 
L 19.390625 60.984375 
L 19.390625 0 
L 9.8125 0 
z
" id="DejaVuSans-78"/>
      <path d="M 8.5 21.578125 
L 8.5 54.6875 
L 17.484375 54.6875 
L 17.484375 21.921875 
Q 17.484375 14.15625 20.5 10.265625 
Q 23.53125 6.390625 29.59375 6.390625 
Q 36.859375 6.390625 41.078125 11.03125 
Q 45.3125 15.671875 45.3125 23.6875 
L 45.3125 54.6875 
L 54.296875 54.6875 
L 54.296875 0 
L 45.3125 0 
L 45.3125 8.40625 
Q 42.046875 3.421875 37.71875 1 
Q 33.40625 -1.421875 27.6875 -1.421875 
Q 18.265625 -1.421875 13.375 4.4375 
Q 8.5 10.296875 8.5 21.578125 
z
M 31.109375 56 
z
" id="DejaVuSans-117"/>
      <path d="M 52 44.1875 
Q 55.375 50.25 60.0625 53.125 
Q 64.75 56 71.09375 56 
Q 79.640625 56 84.28125 50.015625 
Q 88.921875 44.046875 88.921875 33.015625 
L 88.921875 0 
L 79.890625 0 
L 79.890625 32.71875 
Q 79.890625 40.578125 77.09375 44.375 
Q 74.3125 48.1875 68.609375 48.1875 
Q 61.625 48.1875 57.5625 43.546875 
Q 53.515625 38.921875 53.515625 30.90625 
L 53.515625 0 
L 44.484375 0 
L 44.484375 32.71875 
Q 44.484375 40.625 41.703125 44.40625 
Q 38.921875 48.1875 33.109375 48.1875 
Q 26.21875 48.1875 22.15625 43.53125 
Q 18.109375 38.875 18.109375 30.90625 
L 18.109375 0 
L 9.078125 0 
L 9.078125 54.6875 
L 18.109375 54.6875 
L 18.109375 46.1875 
Q 21.1875 51.21875 25.484375 53.609375 
Q 29.78125 56 35.6875 56 
Q 41.65625 56 45.828125 52.96875 
Q 50 49.953125 52 44.1875 
z
" id="DejaVuSans-109"/>
      <path d="M 48.6875 27.296875 
Q 48.6875 37.203125 44.609375 42.84375 
Q 40.53125 48.484375 33.40625 48.484375 
Q 26.265625 48.484375 22.1875 42.84375 
Q 18.109375 37.203125 18.109375 27.296875 
Q 18.109375 17.390625 22.1875 11.75 
Q 26.265625 6.109375 33.40625 6.109375 
Q 40.53125 6.109375 44.609375 11.75 
Q 48.6875 17.390625 48.6875 27.296875 
z
M 18.109375 46.390625 
Q 20.953125 51.265625 25.265625 53.625 
Q 29.59375 56 35.59375 56 
Q 45.5625 56 51.78125 48.09375 
Q 58.015625 40.1875 58.015625 27.296875 
Q 58.015625 14.40625 51.78125 6.484375 
Q 45.5625 -1.421875 35.59375 -1.421875 
Q 29.59375 -1.421875 25.265625 0.953125 
Q 20.953125 3.328125 18.109375 8.203125 
L 18.109375 0 
L 9.078125 0 
L 9.078125 75.984375 
L 18.109375 75.984375 
z
" id="DejaVuSans-98"/>
      <path d="M 56.203125 29.59375 
L 56.203125 25.203125 
L 14.890625 25.203125 
Q 15.484375 15.921875 20.484375 11.0625 
Q 25.484375 6.203125 34.421875 6.203125 
Q 39.59375 6.203125 44.453125 7.46875 
Q 49.3125 8.734375 54.109375 11.28125 
L 54.109375 2.78125 
Q 49.265625 0.734375 44.1875 -0.34375 
Q 39.109375 -1.421875 33.890625 -1.421875 
Q 20.796875 -1.421875 13.15625 6.1875 
Q 5.515625 13.8125 5.515625 26.8125 
Q 5.515625 40.234375 12.765625 48.109375 
Q 20.015625 56 32.328125 56 
Q 43.359375 56 49.78125 48.890625 
Q 56.203125 41.796875 56.203125 29.59375 
z
M 47.21875 32.234375 
Q 47.125 39.59375 43.09375 43.984375 
Q 39.0625 48.390625 32.421875 48.390625 
Q 24.90625 48.390625 20.390625 44.140625 
Q 15.875 39.890625 15.1875 32.171875 
z
" id="DejaVuSans-101"/>
      <path d="M 41.109375 46.296875 
Q 39.59375 47.171875 37.8125 47.578125 
Q 36.03125 48 33.890625 48 
Q 26.265625 48 22.1875 43.046875 
Q 18.109375 38.09375 18.109375 28.8125 
L 18.109375 0 
L 9.078125 0 
L 9.078125 54.6875 
L 18.109375 54.6875 
L 18.109375 46.1875 
Q 20.953125 51.171875 25.484375 53.578125 
Q 30.03125 56 36.53125 56 
Q 37.453125 56 38.578125 55.875 
Q 39.703125 55.765625 41.0625 55.515625 
z
" id="DejaVuSans-114"/>
      <path id="DejaVuSans-32"/>
      <path d="M 30.609375 48.390625 
Q 23.390625 48.390625 19.1875 42.75 
Q 14.984375 37.109375 14.984375 27.296875 
Q 14.984375 17.484375 19.15625 11.84375 
Q 23.34375 6.203125 30.609375 6.203125 
Q 37.796875 6.203125 41.984375 11.859375 
Q 46.1875 17.53125 46.1875 27.296875 
Q 46.1875 37.015625 41.984375 42.703125 
Q 37.796875 48.390625 30.609375 48.390625 
z
M 30.609375 56 
Q 42.328125 56 49.015625 48.375 
Q 55.71875 40.765625 55.71875 27.296875 
Q 55.71875 13.875 49.015625 6.21875 
Q 42.328125 -1.421875 30.609375 -1.421875 
Q 18.84375 -1.421875 12.171875 6.21875 
Q 5.515625 13.875 5.515625 27.296875 
Q 5.515625 40.765625 12.171875 48.375 
Q 18.84375 56 30.609375 56 
z
" id="DejaVuSans-111"/>
      <path d="M 37.109375 75.984375 
L 37.109375 68.5 
L 28.515625 68.5 
Q 23.6875 68.5 21.796875 66.546875 
Q 19.921875 64.59375 19.921875 59.515625 
L 19.921875 54.6875 
L 34.71875 54.6875 
L 34.71875 47.703125 
L 19.921875 47.703125 
L 19.921875 0 
L 10.890625 0 
L 10.890625 47.703125 
L 2.296875 47.703125 
L 2.296875 54.6875 
L 10.890625 54.6875 
L 10.890625 58.5 
Q 10.890625 67.625 15.140625 71.796875 
Q 19.390625 75.984375 28.609375 75.984375 
z
" id="DejaVuSans-102"/>
      <path d="M 54.890625 33.015625 
L 54.890625 0 
L 45.90625 0 
L 45.90625 32.71875 
Q 45.90625 40.484375 42.875 44.328125 
Q 39.84375 48.1875 33.796875 48.1875 
Q 26.515625 48.1875 22.3125 43.546875 
Q 18.109375 38.921875 18.109375 30.90625 
L 18.109375 0 
L 9.078125 0 
L 9.078125 54.6875 
L 18.109375 54.6875 
L 18.109375 46.1875 
Q 21.34375 51.125 25.703125 53.5625 
Q 30.078125 56 35.796875 56 
Q 45.21875 56 50.046875 50.171875 
Q 54.890625 44.34375 54.890625 33.015625 
z
" id="DejaVuSans-110"/>
      <path d="M 44.28125 53.078125 
L 44.28125 44.578125 
Q 40.484375 46.53125 36.375 47.5 
Q 32.28125 48.484375 27.875 48.484375 
Q 21.1875 48.484375 17.84375 46.4375 
Q 14.5 44.390625 14.5 40.28125 
Q 14.5 37.15625 16.890625 35.375 
Q 19.28125 33.59375 26.515625 31.984375 
L 29.59375 31.296875 
Q 39.15625 29.25 43.1875 25.515625 
Q 47.21875 21.78125 47.21875 15.09375 
Q 47.21875 7.46875 41.1875 3.015625 
Q 35.15625 -1.421875 24.609375 -1.421875 
Q 20.21875 -1.421875 15.453125 -0.5625 
Q 10.6875 0.296875 5.421875 2 
L 5.421875 11.28125 
Q 10.40625 8.6875 15.234375 7.390625 
Q 20.0625 6.109375 24.8125 6.109375 
Q 31.15625 6.109375 34.5625 8.28125 
Q 37.984375 10.453125 37.984375 14.40625 
Q 37.984375 18.0625 35.515625 20.015625 
Q 33.0625 21.96875 24.703125 23.78125 
L 21.578125 24.515625 
Q 13.234375 26.265625 9.515625 29.90625 
Q 5.8125 33.546875 5.8125 39.890625 
Q 5.8125 47.609375 11.28125 51.796875 
Q 16.75 56 26.8125 56 
Q 31.78125 56 36.171875 55.265625 
Q 40.578125 54.546875 44.28125 53.078125 
z
" id="DejaVuSans-115"/>
      <path d="M 18.109375 8.203125 
L 18.109375 -20.796875 
L 9.078125 -20.796875 
L 9.078125 54.6875 
L 18.109375 54.6875 
L 18.109375 46.390625 
Q 20.953125 51.265625 25.265625 53.625 
Q 29.59375 56 35.59375 56 
Q 45.5625 56 51.78125 48.09375 
Q 58.015625 40.1875 58.015625 27.296875 
Q 58.015625 14.40625 51.78125 6.484375 
Q 45.5625 -1.421875 35.59375 -1.421875 
Q 29.59375 -1.421875 25.265625 0.953125 
Q 20.953125 3.328125 18.109375 8.203125 
z
M 48.6875 27.296875 
Q 48.6875 37.203125 44.609375 42.84375 
Q 40.53125 48.484375 33.40625 48.484375 
Q 26.265625 48.484375 22.1875 42.84375 
Q 18.109375 37.203125 18.109375 27.296875 
Q 18.109375 17.390625 22.1875 11.75 
Q 26.265625 6.109375 33.40625 6.109375 
Q 40.53125 6.109375 44.609375 11.75 
Q 48.6875 17.390625 48.6875 27.296875 
z
" id="DejaVuSans-112"/>
      <path d="M 45.40625 46.390625 
L 45.40625 75.984375 
L 54.390625 75.984375 
L 54.390625 0 
L 45.40625 0 
L 45.40625 8.203125 
Q 42.578125 3.328125 38.25 0.953125 
Q 33.9375 -1.421875 27.875 -1.421875 
Q 17.96875 -1.421875 11.734375 6.484375 
Q 5.515625 14.40625 5.515625 27.296875 
Q 5.515625 40.1875 11.734375 48.09375 
Q 17.96875 56 27.875 56 
Q 33.9375 56 38.25 53.625 
Q 42.578125 51.265625 45.40625 46.390625 
z
M 14.796875 27.296875 
Q 14.796875 17.390625 18.875 11.75 
Q 22.953125 6.109375 30.078125 6.109375 
Q 37.203125 6.109375 41.296875 11.75 
Q 45.40625 17.390625 45.40625 27.296875 
Q 45.40625 37.203125 41.296875 42.84375 
Q 37.203125 48.484375 30.078125 48.484375 
Q 22.953125 48.484375 18.875 42.84375 
Q 14.796875 37.203125 14.796875 27.296875 
z
" id="DejaVuSans-100"/>
     </defs>
     <g transform="translate(522.147656 532.276562)scale(0.1 -0.1)">
      <use xlink:href="#DejaVuSans-78"/>
      <use x="74.804688" xlink:href="#DejaVuSans-117"/>
      <use x="138.183594" xlink:href="#DejaVuSans-109"/>
      <use x="235.595703" xlink:href="#DejaVuSans-98"/>
      <use x="299.072266" xlink:href="#DejaVuSans-101"/>
      <use x="360.595703" xlink:href="#DejaVuSans-114"/>
      <use x="401.708984" xlink:href="#DejaVuSans-32"/>
      <use x="433.496094" xlink:href="#DejaVuSans-111"/>
      <use x="494.677734" xlink:href="#DejaVuSans-102"/>
      <use x="529.882812" xlink:href="#DejaVuSans-32"/>
      <use x="561.669922" xlink:href="#DejaVuSans-78"/>
      <use x="636.474609" xlink:href="#DejaVuSans-101"/>
      <use x="697.998047" xlink:href="#DejaVuSans-117"/>
      <use x="761.376953" xlink:href="#DejaVuSans-114"/>
      <use x="800.240234" xlink:href="#DejaVuSans-111"/>
      <use x="861.421875" xlink:href="#DejaVuSans-110"/>
      <use x="924.800781" xlink:href="#DejaVuSans-115"/>
      <use x="976.900391" xlink:href="#DejaVuSans-32"/>
      <use x="1008.6875" xlink:href="#DejaVuSans-112"/>
      <use x="1072.164062" xlink:href="#DejaVuSans-114"/>
      <use x="1113.277344" xlink:href="#DejaVuSans-117"/>
      <use x="1176.65625" xlink:href="#DejaVuSans-110"/>
      <use x="1240.035156" xlink:href="#DejaVuSans-101"/>
      <use x="1301.558594" xlink:href="#DejaVuSans-100"/>
     </g>
    </g>
   </g>
   <g id="matplotlib.axis_2">
    <g id="ytick_1">
     <g id="line2d_10">
      <defs>
       <path d="M 0 0 
L -3.5 0 
" id="m76b5b6a651" style="stroke:#000000;stroke-width:0.8;"/>
      </defs>
      <g>
       <use style="stroke:#000000;stroke-width:0.8;" x="144" xlink:href="#m76b5b6a651" y="487.715027"/>
      </g>
     </g>
     <g id="text_11">
      <!-- 0 -->
      <g transform="translate(130.6375 491.514245)scale(0.1 -0.1)">
       <use xlink:href="#DejaVuSans-48"/>
      </g>
     </g>
    </g>
    <g id="ytick_2">
     <g id="line2d_11">
      <g>
       <use style="stroke:#000000;stroke-width:0.8;" x="144" xlink:href="#m76b5b6a651" y="426.616339"/>
      </g>
     </g>
     <g id="text_12">
      <!-- 1 -->
      <g transform="translate(130.6375 430.415557)scale(0.1 -0.1)">
       <use xlink:href="#DejaVuSans-49"/>
      </g>
     </g>
    </g>
    <g id="ytick_3">
     <g id="line2d_12">
      <g>
       <use style="stroke:#000000;stroke-width:0.8;" x="144" xlink:href="#m76b5b6a651" y="365.517651"/>
      </g>
     </g>
     <g id="text_13">
      <!-- 2 -->
      <g transform="translate(130.6375 369.31687)scale(0.1 -0.1)">
       <use xlink:href="#DejaVuSans-50"/>
      </g>
     </g>
    </g>
    <g id="ytick_4">
     <g id="line2d_13">
      <g>
       <use style="stroke:#000000;stroke-width:0.8;" x="144" xlink:href="#m76b5b6a651" y="304.418963"/>
      </g>
     </g>
     <g id="text_14">
      <!-- 3 -->
      <g transform="translate(130.6375 308.218182)scale(0.1 -0.1)">
       <use xlink:href="#DejaVuSans-51"/>
      </g>
     </g>
    </g>
    <g id="ytick_5">
     <g id="line2d_14">
      <g>
       <use style="stroke:#000000;stroke-width:0.8;" x="144" xlink:href="#m76b5b6a651" y="243.320275"/>
      </g>
     </g>
     <g id="text_15">
      <!-- 4 -->
      <g transform="translate(130.6375 247.119494)scale(0.1 -0.1)">
       <use xlink:href="#DejaVuSans-52"/>
      </g>
     </g>
    </g>
    <g id="ytick_6">
     <g id="line2d_15">
      <g>
       <use style="stroke:#000000;stroke-width:0.8;" x="144" xlink:href="#m76b5b6a651" y="182.221588"/>
      </g>
     </g>
     <g id="text_16">
      <!-- 5 -->
      <g transform="translate(130.6375 186.020806)scale(0.1 -0.1)">
       <use xlink:href="#DejaVuSans-53"/>
      </g>
     </g>
    </g>
    <g id="ytick_7">
     <g id="line2d_16">
      <g>
       <use style="stroke:#000000;stroke-width:0.8;" x="144" xlink:href="#m76b5b6a651" y="121.1229"/>
      </g>
     </g>
     <g id="text_17">
      <!-- 6 -->
      <defs>
       <path d="M 33.015625 40.375 
Q 26.375 40.375 22.484375 35.828125 
Q 18.609375 31.296875 18.609375 23.390625 
Q 18.609375 15.53125 22.484375 10.953125 
Q 26.375 6.390625 33.015625 6.390625 
Q 39.65625 6.390625 43.53125 10.953125 
Q 47.40625 15.53125 47.40625 23.390625 
Q 47.40625 31.296875 43.53125 35.828125 
Q 39.65625 40.375 33.015625 40.375 
z
M 52.59375 71.296875 
L 52.59375 62.3125 
Q 48.875 64.0625 45.09375 64.984375 
Q 41.3125 65.921875 37.59375 65.921875 
Q 27.828125 65.921875 22.671875 59.328125 
Q 17.53125 52.734375 16.796875 39.40625 
Q 19.671875 43.65625 24.015625 45.921875 
Q 28.375 48.1875 33.59375 48.1875 
Q 44.578125 48.1875 50.953125 41.515625 
Q 57.328125 34.859375 57.328125 23.390625 
Q 57.328125 12.15625 50.6875 5.359375 
Q 44.046875 -1.421875 33.015625 -1.421875 
Q 20.359375 -1.421875 13.671875 8.265625 
Q 6.984375 17.96875 6.984375 36.375 
Q 6.984375 53.65625 15.1875 63.9375 
Q 23.390625 74.21875 37.203125 74.21875 
Q 40.921875 74.21875 44.703125 73.484375 
Q 48.484375 72.75 52.59375 71.296875 
z
" id="DejaVuSans-54"/>
      </defs>
      <g transform="translate(130.6375 124.922119)scale(0.1 -0.1)">
       <use xlink:href="#DejaVuSans-54"/>
      </g>
     </g>
    </g>
    <g id="text_18">
     <!-- Loss -->
     <defs>
      <path d="M 9.8125 72.90625 
L 19.671875 72.90625 
L 19.671875 8.296875 
L 55.171875 8.296875 
L 55.171875 0 
L 9.8125 0 
z
" id="DejaVuSans-76"/>
     </defs>
     <g transform="translate(124.557812 297.527188)rotate(-90)scale(0.1 -0.1)">
      <use xlink:href="#DejaVuSans-76"/>
      <use x="53.962891" xlink:href="#DejaVuSans-111"/>
      <use x="115.144531" xlink:href="#DejaVuSans-115"/>
      <use x="167.244141" xlink:href="#DejaVuSans-115"/>
     </g>
    </g>
   </g>
   <g id="line2d_17">
    <path clip-path="url(#p7041e34046)" d="M 184.581818 483.861138 
L 194.855696 483.728958 
L 205.129574 483.500433 
L 215.403452 483.268416 
L 225.67733 482.895109 
L 235.951208 482.460277 
L 246.225086 482.377131 
L 256.498964 482.057741 
L 266.772842 481.683265 
L 277.04672 480.925347 
L 287.320598 478.875121 
L 297.594476 477.328931 
L 307.868354 476.039306 
L 318.142232 474.534363 
L 328.41611 470.123696 
L 338.689988 467.195586 
L 348.963867 465.629663 
L 359.237745 460.303643 
L 369.511623 456.98476 
L 379.785501 454.448248 
L 390.059379 441.044511 
L 400.333257 438.579164 
L 410.607135 438.194626 
L 420.881013 432.036094 
L 431.154891 424.127032 
L 441.428769 411.183549 
L 451.702647 401.093942 
L 461.976525 390.083924 
L 472.250403 391.04819 
L 482.524281 378.548515 
L 492.798159 362.396614 
L 503.072037 342.693147 
L 513.345915 336.935196 
L 523.619793 323.088562 
L 533.893671 317.625374 
L 544.167549 308.193799 
L 554.441427 293.716703 
L 564.715305 297.541664 
L 574.989183 295.15976 
L 585.263061 277.811408 
L 595.536939 276.875591 
L 605.810817 270.434895 
L 616.084695 265.250507 
L 626.358573 257.549018 
L 636.632451 255.240502 
L 646.906329 250.721552 
L 657.180207 231.87642 
L 667.454085 223.979091 
L 677.727963 210.421789 
L 688.001841 210.948126 
L 698.275719 197.971029 
L 708.549597 194.74189 
L 718.823475 185.381824 
L 729.097353 188.026999 
L 739.371231 174.626292 
L 749.645109 158.854883 
L 759.918987 146.690279 
L 770.192865 158.947763 
L 780.466743 141.78756 
L 790.740621 145.771884 
L 801.014499 140.735672 
L 811.288377 109.830863 
L 821.562255 88.887273 
L 831.836133 120.443754 
L 842.110012 120.432304 
L 852.38389 127.969594 
L 862.657768 113.693436 
L 872.931646 94.181468 
L 883.205524 130.860398 
L 893.479402 113.807117 
L 903.75328 160.659801 
L 914.027158 212.548609 
L 924.301036 206.647026 
L 934.574914 204.320957 
L 944.848792 264.292693 
L 955.12267 272.229426 
L 965.396548 276.755325 
L 975.670426 273.294745 
L 985.944304 277.098846 
L 996.218182 252.893122 
" style="fill:none;stroke:#1f77b4;stroke-linecap:square;stroke-width:1.5;"/>
   </g>
   <g id="line2d_18">
    <path clip-path="url(#p7041e34046)" d="M 184.581818 483.875867 
L 194.855696 483.79478 
L 205.129574 483.701886 
L 215.403452 483.613903 
L 225.67733 483.594887 
L 235.951208 483.434165 
L 246.225086 483.22772 
L 256.498964 483.125937 
L 266.772842 482.722623 
L 277.04672 482.705773 
L 287.320598 482.278292 
L 297.594476 480.998716 
L 307.868354 480.570197 
L 318.142232 478.038153 
L 328.41611 476.862917 
L 338.689988 477.118011 
L 348.963867 476.137005 
L 359.237745 475.259134 
L 369.511623 474.678394 
L 379.785501 472.867659 
L 390.059379 471.947777 
L 400.333257 469.456175 
L 410.607135 468.795359 
L 420.881013 463.8431 
L 431.154891 460.687935 
L 441.428769 459.440375 
L 451.702647 458.86605 
L 461.976525 455.913964 
L 472.250403 451.962597 
L 482.524281 444.338944 
L 492.798159 444.7901 
L 503.072037 441.630384 
L 513.345915 439.895025 
L 523.619793 436.334157 
L 533.893671 434.629447 
L 544.167549 429.498137 
L 554.441427 424.827715 
L 564.715305 415.238982 
L 574.989183 411.891486 
L 585.263061 416.426162 
L 595.536939 414.760433 
L 605.810817 408.923979 
L 616.084695 405.390738 
L 626.358573 405.296591 
L 636.632451 398.156655 
L 646.906329 391.550368 
L 657.180207 384.426077 
L 667.454085 388.528977 
L 677.727963 380.610162 
L 688.001841 371.437945 
L 698.275719 363.336262 
L 708.549597 361.698764 
L 718.823475 358.078908 
L 729.097353 355.584837 
L 739.371231 352.491813 
L 749.645109 354.267785 
L 759.918987 356.791616 
L 770.192865 351.655168 
L 780.466743 348.712301 
L 790.740621 348.738493 
L 801.014499 345.106866 
L 811.288377 349.575254 
L 821.562255 348.313193 
L 831.836133 347.035239 
L 842.110012 342.99674 
L 852.38389 341.41027 
L 862.657768 336.036568 
L 872.931646 336.209188 
L 883.205524 336.561609 
L 893.479402 337.963645 
L 903.75328 346.576173 
L 914.027158 344.166329 
L 924.301036 343.082044 
L 934.574914 345.083952 
L 944.848792 342.130203 
L 955.12267 341.716805 
L 965.396548 340.941312 
L 975.670426 341.01677 
L 985.944304 340.57718 
L 996.218182 345.813223 
" style="fill:none;stroke:#ff7f0e;stroke-linecap:square;stroke-width:1.5;"/>
   </g>
   <g id="line2d_19">
    <path clip-path="url(#p7041e34046)" d="M 184.581818 483.908002 
L 194.855696 483.79478 
L 205.129574 483.684109 
L 215.403452 483.618287 
L 225.67733 483.498243 
L 235.951208 483.202643 
L 246.225086 483.097916 
L 256.498964 483.023559 
L 266.772842 482.181508 
L 277.04672 481.289453 
L 287.320598 480.849046 
L 297.594476 480.68658 
L 307.868354 479.783202 
L 318.142232 479.695046 
L 328.41611 478.295152 
L 338.689988 477.532457 
L 348.963867 475.055917 
L 359.237745 472.875568 
L 369.511623 472.138796 
L 379.785501 471.255894 
L 390.059379 469.092729 
L 400.333257 468.198601 
L 410.607135 465.734231 
L 420.881013 460.366654 
L 431.154891 457.589737 
L 441.428769 457.842758 
L 451.702647 453.3104 
L 461.976525 449.911919 
L 472.250403 446.344915 
L 482.524281 445.524316 
L 492.798159 444.884535 
L 503.072037 439.783102 
L 513.345915 437.847638 
L 523.619793 432.593751 
L 533.893671 425.932277 
L 544.167549 424.30684 
L 554.441427 419.351869 
L 564.715305 415.185376 
L 574.989183 407.30048 
L 585.263061 401.70195 
L 595.536939 397.097279 
L 605.810817 387.790799 
L 616.084695 385.650788 
L 626.358573 377.662699 
L 636.632451 371.839588 
L 646.906329 370.700386 
L 657.180207 368.868971 
L 667.454085 367.455515 
L 677.727963 367.379839 
L 688.001841 366.955784 
L 698.275719 366.308482 
L 708.549597 363.971882 
L 718.823475 359.699391 
L 729.097353 356.924774 
L 739.371231 356.863549 
L 749.645109 356.979065 
L 759.918987 356.642027 
L 770.192865 349.658345 
L 780.466743 349.628205 
L 790.740621 349.246111 
L 801.014499 348.915089 
L 811.288377 346.889029 
L 821.562255 346.889029 
L 831.836133 346.889029 
L 842.110012 346.889029 
L 852.38389 346.889029 
L 862.657768 346.889029 
L 872.931646 346.889029 
L 883.205524 346.889029 
L 893.479402 346.889029 
L 903.75328 346.889029 
L 914.027158 346.889029 
L 924.301036 346.889029 
L 934.574914 346.889029 
L 944.848792 346.889029 
L 955.12267 346.889029 
L 965.396548 346.889029 
L 975.670426 346.889029 
L 985.944304 346.889029 
L 996.218182 346.889029 
" style="fill:none;stroke:#2ca02c;stroke-linecap:square;stroke-width:1.5;"/>
   </g>
   <g id="line2d_20">
    <path clip-path="url(#p7041e34046)" d="M 184.581818 483.900839 
L 194.855696 483.886931 
L 205.129574 483.74373 
L 215.403452 483.600122 
L 225.67733 483.276767 
L 235.951208 483.126777 
L 246.225086 482.698209 
L 256.498964 482.014513 
L 266.772842 481.040704 
L 277.04672 479.62224 
L 287.320598 478.742204 
L 297.594476 477.42084 
L 307.868354 476.816343 
L 318.142232 475.056463 
L 328.41611 471.592093 
L 338.689988 469.657427 
L 348.963867 467.372064 
L 359.237745 464.927503 
L 369.511623 462.937887 
L 379.785501 459.587737 
L 390.059379 457.464397 
L 400.333257 455.424063 
L 410.607135 455.096887 
L 420.881013 451.042393 
L 431.154891 450.739958 
L 441.428769 446.580862 
L 451.702647 445.613962 
L 461.976525 441.757638 
L 472.250403 439.259646 
L 482.524281 438.462678 
L 492.798159 430.403884 
L 503.072037 426.103207 
L 513.345915 422.043061 
L 523.619793 416.772726 
L 533.893671 419.15734 
L 544.167549 415.661893 
L 554.441427 410.581659 
L 564.715305 400.925933 
L 574.989183 391.473235 
L 585.263061 380.653149 
L 595.536939 370.164544 
L 605.810817 361.617713 
L 616.084695 359.623686 
L 626.358573 348.634105 
L 636.632451 337.199996 
L 646.906329 323.853726 
L 657.180207 303.070884 
L 667.454085 305.951302 
L 677.727963 309.662319 
L 688.001841 306.619289 
L 698.275719 306.489496 
L 708.549597 300.473096 
L 718.823475 284.453828 
L 729.097353 273.254263 
L 739.371231 265.508184 
L 749.645109 278.22418 
L 759.918987 259.172648 
L 770.192865 253.977524 
L 780.466743 252.410574 
L 790.740621 244.019247 
L 801.014499 227.794759 
L 811.288377 213.120803 
L 821.562255 219.256858 
L 831.836133 238.342594 
L 842.110012 234.005775 
L 852.38389 248.898965 
L 862.657768 249.712229 
L 872.931646 243.461386 
L 883.205524 229.465455 
L 893.479402 255.141301 
L 903.75328 251.489149 
L 914.027158 247.008903 
L 924.301036 264.221373 
L 934.574914 254.980597 
L 944.848792 246.258306 
L 955.12267 264.227171 
L 965.396548 260.258346 
L 975.670426 256.394986 
L 985.944304 250.506367 
L 996.218182 304.532484 
" style="fill:none;stroke:#d62728;stroke-dasharray:5.55,2.4;stroke-dashoffset:0;stroke-width:1.5;"/>
   </g>
   <g id="line2d_21">
    <path clip-path="url(#p7041e34046)" d="M 184.581818 483.692929 
L 194.855696 482.657654 
L 205.129574 480.979172 
L 215.403452 478.186678 
L 225.67733 474.537682 
L 235.951208 470.857873 
L 246.225086 467.497747 
L 256.498964 463.156139 
L 266.772842 458.225415 
L 277.04672 452.423503 
L 287.320598 449.034458 
L 297.594476 438.573814 
L 307.868354 429.220125 
L 318.142232 423.405241 
L 328.41611 419.843769 
L 338.689988 413.513958 
L 348.963867 405.278484 
L 359.237745 401.84156 
L 369.511623 394.961719 
L 379.785501 390.500039 
L 390.059379 381.687403 
L 400.333257 380.886972 
L 410.607135 376.936159 
L 420.881013 372.972017 
L 431.154891 368.108993 
L 441.428769 363.4373 
L 451.702647 363.919397 
L 461.976525 362.125113 
L 472.250403 357.546904 
L 482.524281 356.940259 
L 492.798159 356.718198 
L 503.072037 353.057321 
L 513.345915 352.689925 
L 523.619793 348.040483 
L 533.893671 348.068699 
L 544.167549 348.094876 
L 554.441427 348.044474 
L 564.715305 347.962331 
L 574.989183 347.935644 
L 585.263061 348.031204 
L 595.536939 348.068947 
L 605.810817 348.155694 
L 616.084695 346.889029 
L 626.358573 346.889029 
L 636.632451 346.889029 
L 646.906329 346.889029 
L 657.180207 346.889029 
L 667.454085 346.889029 
L 677.727963 346.889029 
L 688.001841 346.889029 
L 698.275719 346.889029 
L 708.549597 346.889029 
L 718.823475 346.889029 
L 729.097353 346.889029 
L 739.371231 346.889029 
L 749.645109 346.889029 
L 759.918987 346.889029 
L 770.192865 346.889029 
L 780.466743 346.889029 
L 790.740621 346.889029 
L 801.014499 346.889029 
L 811.288377 346.889029 
L 821.562255 346.889029 
L 831.836133 346.889029 
L 842.110012 346.889029 
L 852.38389 346.889029 
L 862.657768 346.889029 
L 872.931646 346.889029 
L 883.205524 346.889029 
L 893.479402 346.889029 
L 903.75328 346.889029 
L 914.027158 346.889029 
L 924.301036 346.889029 
L 934.574914 346.889029 
L 944.848792 346.889029 
L 955.12267 346.889029 
L 965.396548 346.889029 
L 975.670426 346.889029 
L 985.944304 346.889029 
L 996.218182 346.889029 
" style="fill:none;stroke:#9467bd;stroke-dasharray:5.55,2.4;stroke-dashoffset:0;stroke-width:1.5;"/>
   </g>
   <g id="line2d_22">
    <path clip-path="url(#p7041e34046)" d="M 184.581818 484.173671 
L 194.855696 484.011462 
L 205.129574 483.92446 
L 215.403452 483.731669 
L 225.67733 483.6399 
L 235.951208 483.49498 
L 246.225086 483.291617 
L 256.498964 483.167673 
L 266.772842 482.797531 
L 277.04672 482.747621 
L 287.320598 482.229161 
L 297.594476 481.876223 
L 307.868354 481.632058 
L 318.142232 481.062784 
L 328.41611 481.097379 
L 338.689988 480.250144 
L 348.963867 480.027195 
L 359.237745 478.91985 
L 369.511623 478.595133 
L 379.785501 478.304912 
L 390.059379 478.051854 
L 400.333257 477.593043 
L 410.607135 476.94529 
L 420.881013 475.151141 
L 431.154891 474.569828 
L 441.428769 473.957837 
L 451.702647 473.58784 
L 461.976525 472.260317 
L 472.250403 471.170471 
L 482.524281 469.759088 
L 492.798159 469.514744 
L 503.072037 469.098346 
L 513.345915 467.990682 
L 523.619793 466.748575 
L 533.893671 465.480611 
L 544.167549 465.530199 
L 554.441427 464.807236 
L 564.715305 463.424213 
L 574.989183 460.362514 
L 585.263061 458.253402 
L 595.536939 453.882201 
L 605.810817 447.991624 
L 616.084695 446.419138 
L 626.358573 444.012773 
L 636.632451 440.954458 
L 646.906329 437.690485 
L 657.180207 433.436291 
L 667.454085 430.699472 
L 677.727963 423.363091 
L 688.001841 423.985331 
L 698.275719 420.657456 
L 708.549597 415.899781 
L 718.823475 409.62976 
L 729.097353 396.683619 
L 739.371231 394.763804 
L 749.645109 386.016581 
L 759.918987 384.321019 
L 770.192865 371.003446 
L 780.466743 361.096635 
L 790.740621 354.497056 
L 801.014499 352.164549 
L 811.288377 344.819589 
L 821.562255 345.66241 
L 831.836133 333.687469 
L 842.110012 342.179702 
L 852.38389 339.813006 
L 862.657768 335.539219 
L 872.931646 321.681617 
L 883.205524 312.872521 
L 893.479402 304.374126 
L 903.75328 308.916704 
L 914.027158 300.312261 
L 924.301036 295.961633 
L 934.574914 294.892614 
L 944.848792 286.447214 
L 955.12267 294.235232 
L 965.396548 285.271332 
L 975.670426 346.936649 
L 985.944304 346.936649 
L 996.218182 346.936649 
" style="fill:none;stroke:#8c564b;stroke-linecap:square;stroke-width:1.5;"/>
   </g>
   <g id="line2d_23">
    <path clip-path="url(#p7041e34046)" d="M 184.581818 484.230262 
L 194.855696 484.190805 
L 205.129574 484.12395 
L 215.403452 484.007849 
L 225.67733 483.850417 
L 235.951208 483.72374 
L 246.225086 483.532545 
L 256.498964 483.421592 
L 266.772842 483.252558 
L 277.04672 483.177614 
L 287.320598 483.003063 
L 297.594476 482.804315 
L 307.868354 482.383602 
L 318.142232 481.985487 
L 328.41611 481.172517 
L 338.689988 480.61914 
L 348.963867 480.234535 
L 359.237745 479.335583 
L 369.511623 478.711987 
L 379.785501 476.069674 
L 390.059379 476.167925 
L 400.333257 474.374862 
L 410.607135 472.772293 
L 420.881013 472.325959 
L 431.154891 471.383767 
L 441.428769 470.777 
L 451.702647 468.293287 
L 461.976525 467.60332 
L 472.250403 465.148012 
L 482.524281 463.110648 
L 492.798159 460.799052 
L 503.072037 459.901819 
L 513.345915 457.000547 
L 523.619793 454.259051 
L 533.893671 454.011564 
L 544.167549 450.06228 
L 554.441427 444.361533 
L 564.715305 440.449523 
L 574.989183 438.482861 
L 585.263061 436.363222 
L 595.536939 435.748186 
L 605.810817 429.993676 
L 616.084695 422.17431 
L 626.358573 417.687509 
L 636.632451 412.89327 
L 646.906329 407.516116 
L 657.180207 404.871356 
L 667.454085 402.856134 
L 677.727963 402.373346 
L 688.001841 399.000466 
L 698.275719 395.557446 
L 708.549597 394.846901 
L 718.823475 391.991196 
L 729.097353 387.897655 
L 739.371231 381.922763 
L 749.645109 381.987842 
L 759.918987 379.334641 
L 770.192865 379.414628 
L 780.466743 377.152575 
L 790.740621 375.436065 
L 801.014499 373.268202 
L 811.288377 372.672533 
L 821.562255 371.714545 
L 831.836133 370.717655 
L 842.110012 366.895557 
L 852.38389 366.012807 
L 862.657768 364.082912 
L 872.931646 360.723587 
L 883.205524 359.849651 
L 893.479402 358.582753 
L 903.75328 357.205583 
L 914.027158 355.834852 
L 924.301036 352.782047 
L 934.574914 349.315611 
L 944.848792 349.048538 
L 955.12267 349.801612 
L 965.396548 347.787453 
L 975.670426 347.785079 
L 985.944304 347.457888 
L 996.218182 347.945433 
" style="fill:none;stroke:#e377c2;stroke-linecap:square;stroke-width:1.5;"/>
   </g>
   <g id="line2d_24">
    <path clip-path="url(#p7041e34046)" d="M 184.581818 484.232727 
L 194.855696 484.190805 
L 205.129574 484.120634 
L 215.403452 483.91586 
L 225.67733 483.670575 
L 235.951208 483.218296 
L 246.225086 482.771053 
L 256.498964 482.434259 
L 266.772842 482.079286 
L 277.04672 481.233867 
L 287.320598 480.412851 
L 297.594476 478.753848 
L 307.868354 477.693941 
L 318.142232 475.425442 
L 328.41611 474.141937 
L 338.689988 473.051934 
L 348.963867 470.703183 
L 359.237745 469.012834 
L 369.511623 465.686711 
L 379.785501 465.130107 
L 390.059379 462.079262 
L 400.333257 459.82608 
L 410.607135 457.368897 
L 420.881013 457.014342 
L 431.154891 451.37612 
L 441.428769 451.046304 
L 451.702647 445.123005 
L 461.976525 442.06319 
L 472.250403 439.160058 
L 482.524281 431.50341 
L 492.798159 424.152415 
L 503.072037 420.308997 
L 513.345915 419.257416 
L 523.619793 414.093829 
L 533.893671 412.538191 
L 544.167549 407.866548 
L 554.441427 406.655843 
L 564.715305 400.30121 
L 574.989183 388.900328 
L 585.263061 385.092811 
L 595.536939 384.423149 
L 605.810817 384.026888 
L 616.084695 383.298506 
L 626.358573 383.202181 
L 636.632451 381.099797 
L 646.906329 378.616244 
L 657.180207 375.750109 
L 667.454085 374.839872 
L 677.727963 373.338736 
L 688.001841 369.593195 
L 698.275719 369.326217 
L 708.549597 369.324505 
L 718.823475 366.244576 
L 729.097353 365.341856 
L 739.371231 362.704198 
L 749.645109 361.343692 
L 759.918987 361.676287 
L 770.192865 362.134815 
L 780.466743 362.106875 
L 790.740621 361.767739 
L 801.014499 361.021819 
L 811.288377 359.767638 
L 821.562255 359.784652 
L 831.836133 360.230914 
L 842.110012 359.318885 
L 852.38389 352.591 
L 862.657768 352.259629 
L 872.931646 350.113274 
L 883.205524 350.472454 
L 893.479402 350.478922 
L 903.75328 350.059434 
L 914.027158 349.694296 
L 924.301036 348.703663 
L 934.574914 347.984312 
L 944.848792 346.936649 
L 955.12267 346.936649 
L 965.396548 346.936649 
L 975.670426 346.936649 
L 985.944304 346.936649 
L 996.218182 346.936649 
" style="fill:none;stroke:#7f7f7f;stroke-linecap:square;stroke-width:1.5;"/>
   </g>
   <g id="line2d_25">
    <path clip-path="url(#p7041e34046)" d="M 184.581818 484.232727 
L 194.855696 484.195822 
L 205.129574 484.141256 
L 215.403452 484.075859 
L 225.67733 483.951525 
L 235.951208 483.917534 
L 246.225086 483.70267 
L 256.498964 483.670164 
L 266.772842 482.897516 
L 277.04672 482.869921 
L 287.320598 482.703868 
L 297.594476 482.566678 
L 307.868354 482.47332 
L 318.142232 481.710576 
L 328.41611 481.455973 
L 338.689988 480.937434 
L 348.963867 480.819759 
L 359.237745 480.560038 
L 369.511623 479.886661 
L 379.785501 479.406114 
L 390.059379 478.568833 
L 400.333257 478.465469 
L 410.607135 476.408211 
L 420.881013 475.85622 
L 431.154891 474.350167 
L 441.428769 473.377202 
L 451.702647 472.476687 
L 461.976525 472.039509 
L 472.250403 471.128671 
L 482.524281 469.794082 
L 492.798159 469.470761 
L 503.072037 468.079355 
L 513.345915 467.695311 
L 523.619793 466.778221 
L 533.893671 465.12313 
L 544.167549 464.208642 
L 554.441427 460.769745 
L 564.715305 457.63672 
L 574.989183 455.204333 
L 585.263061 455.638861 
L 595.536939 453.257125 
L 605.810817 451.886124 
L 616.084695 449.380287 
L 626.358573 446.377837 
L 636.632451 443.155344 
L 646.906329 439.177648 
L 657.180207 435.434168 
L 667.454085 429.361749 
L 677.727963 428.602547 
L 688.001841 427.957026 
L 698.275719 422.180391 
L 708.549597 420.050782 
L 718.823475 411.132812 
L 729.097353 410.06592 
L 739.371231 405.546656 
L 749.645109 405.278848 
L 759.918987 398.922773 
L 770.192865 397.544947 
L 780.466743 393.762537 
L 790.740621 389.13359 
L 801.014499 380.168532 
L 811.288377 380.469735 
L 821.562255 380.339069 
L 831.836133 376.418985 
L 842.110012 377.246307 
L 852.38389 370.102881 
L 862.657768 365.521147 
L 872.931646 364.431167 
L 883.205524 363.981816 
L 893.479402 359.144925 
L 903.75328 358.579447 
L 914.027158 357.704607 
L 924.301036 351.375918 
L 934.574914 350.727669 
L 944.848792 354.651263 
L 955.12267 351.008187 
L 965.396548 350.459504 
L 975.670426 349.547081 
L 985.944304 352.094234 
L 996.218182 352.188512 
" style="fill:none;stroke:#bcbd22;stroke-dasharray:5.55,2.4;stroke-dashoffset:0;stroke-width:1.5;"/>
   </g>
   <g id="line2d_26">
    <path clip-path="url(#p7041e34046)" d="M 184.581818 484.225954 
L 194.855696 484.190655 
L 205.129574 484.130769 
L 215.403452 484.055322 
L 225.67733 483.953657 
L 235.951208 483.779938 
L 246.225086 483.593711 
L 256.498964 483.566148 
L 266.772842 483.454977 
L 277.04672 483.405058 
L 287.320598 483.360909 
L 297.594476 483.281738 
L 307.868354 483.091326 
L 318.142232 482.926977 
L 328.41611 482.83526 
L 338.689988 482.65786 
L 348.963867 482.422069 
L 359.237745 482.239474 
L 369.511623 481.792025 
L 379.785501 481.490371 
L 390.059379 481.200533 
L 400.333257 480.729323 
L 410.607135 479.815956 
L 420.881013 479.03072 
L 431.154891 477.955787 
L 441.428769 477.862527 
L 451.702647 477.944552 
L 461.976525 477.484676 
L 472.250403 476.650489 
L 482.524281 475.358104 
L 492.798159 474.712843 
L 503.072037 473.633046 
L 513.345915 472.830827 
L 523.619793 471.059239 
L 533.893671 468.417302 
L 544.167549 467.309537 
L 554.441427 467.214765 
L 564.715305 465.398384 
L 574.989183 464.034337 
L 585.263061 463.510347 
L 595.536939 462.347201 
L 605.810817 460.950464 
L 616.084695 458.740364 
L 626.358573 456.357586 
L 636.632451 455.16167 
L 646.906329 452.644798 
L 657.180207 451.266208 
L 667.454085 448.763015 
L 677.727963 447.310227 
L 688.001841 445.132095 
L 698.275719 444.327927 
L 708.549597 441.531463 
L 718.823475 436.12599 
L 729.097353 436.614537 
L 739.371231 433.720702 
L 749.645109 433.926859 
L 759.918987 428.780749 
L 770.192865 427.617577 
L 780.466743 421.117972 
L 790.740621 418.426831 
L 801.014499 411.598258 
L 811.288377 413.19896 
L 821.562255 411.547397 
L 831.836133 404.363716 
L 842.110012 401.037415 
L 852.38389 398.776257 
L 862.657768 389.711968 
L 872.931646 384.6662 
L 883.205524 380.566111 
L 893.479402 377.628969 
L 903.75328 371.427982 
L 914.027158 367.445755 
L 924.301036 364.431516 
L 934.574914 364.897211 
L 944.848792 362.182493 
L 955.12267 353.929553 
L 965.396548 354.008987 
L 975.670426 351.537729 
L 985.944304 353.301436 
L 996.218182 350.895132 
" style="fill:none;stroke:#17becf;stroke-dasharray:5.55,2.4;stroke-dashoffset:0;stroke-width:1.5;"/>
   </g>
   <g id="line2d_27">
    <path clip-path="url(#p7041e34046)" d="M 184.581818 484.076082 
L 194.855696 483.072116 
L 205.129574 482.089803 
L 215.403452 478.915505 
L 225.67733 474.728696 
L 235.951208 471.626961 
L 246.225086 469.510341 
L 256.498964 466.806534 
L 266.772842 462.580318 
L 277.04672 456.791469 
L 287.320598 449.979226 
L 297.594476 441.40116 
L 307.868354 434.513999 
L 318.142232 424.240065 
L 328.41611 418.425964 
L 338.689988 416.558365 
L 348.963867 405.752263 
L 359.237745 405.485846 
L 369.511623 401.150033 
L 379.785501 396.434332 
L 390.059379 391.252355 
L 400.333257 390.466695 
L 410.607135 389.878419 
L 420.881013 386.217177 
L 431.154891 381.848923 
L 441.428769 374.321823 
L 451.702647 370.440153 
L 461.976525 367.89898 
L 472.250403 363.158282 
L 482.524281 359.277194 
L 492.798159 358.956719 
L 503.072037 355.064647 
L 513.345915 350.1457 
L 523.619793 350.050971 
L 533.893671 349.69415 
L 544.167549 349.582843 
L 554.441427 349.723532 
L 564.715305 349.34977 
L 574.989183 349.298028 
L 585.263061 349.464763 
L 595.536939 349.300228 
L 605.810817 349.41423 
L 616.084695 349.557919 
L 626.358573 349.54427 
L 636.632451 349.424791 
L 646.906329 349.398832 
L 657.180207 349.287729 
L 667.454085 349.232418 
L 677.727963 349.031203 
L 688.001841 349.189154 
L 698.275719 349.02191 
L 708.549597 348.979345 
L 718.823475 348.939256 
L 729.097353 348.952905 
L 739.371231 348.783957 
L 749.645109 346.936649 
L 759.918987 346.936649 
L 770.192865 346.936649 
L 780.466743 346.936649 
L 790.740621 346.936649 
L 801.014499 346.936649 
L 811.288377 346.936649 
L 821.562255 346.936649 
L 831.836133 346.936649 
L 842.110012 346.936649 
L 852.38389 346.936649 
L 862.657768 346.936649 
L 872.931646 346.936649 
L 883.205524 346.936649 
L 893.479402 346.936649 
L 903.75328 346.936649 
L 914.027158 346.936649 
L 924.301036 346.936649 
L 934.574914 346.936649 
L 944.848792 346.936649 
L 955.12267 346.936649 
L 965.396548 346.936649 
L 975.670426 346.936649 
L 985.944304 346.936649 
L 996.218182 346.936649 
" style="fill:none;stroke:#1f77b4;stroke-dasharray:5.55,2.4;stroke-dashoffset:0;stroke-width:1.5;"/>
   </g>
   <g id="patch_3">
    <path d="M 144 504 
L 144 69.12 
" style="fill:none;stroke:#000000;stroke-linecap:square;stroke-linejoin:miter;stroke-width:0.8;"/>
   </g>
   <g id="patch_4">
    <path d="M 1036.8 504 
L 1036.8 69.12 
" style="fill:none;stroke:#000000;stroke-linecap:square;stroke-linejoin:miter;stroke-width:0.8;"/>
   </g>
   <g id="patch_5">
    <path d="M 144 504 
L 1036.8 504 
" style="fill:none;stroke:#000000;stroke-linecap:square;stroke-linejoin:miter;stroke-width:0.8;"/>
   </g>
   <g id="patch_6">
    <path d="M 144 69.12 
L 1036.8 69.12 
" style="fill:none;stroke:#000000;stroke-linecap:square;stroke-linejoin:miter;stroke-width:0.8;"/>
   </g>
   <g id="legend_1">
    <g id="patch_7">
     <path d="M 151 240.52625 
L 300.879687 240.52625 
Q 302.879687 240.52625 302.879687 238.52625 
L 302.879687 76.12 
Q 302.879687 74.12 300.879687 74.12 
L 151 74.12 
Q 149 74.12 149 76.12 
L 149 238.52625 
Q 149 240.52625 151 240.52625 
z
" style="fill:#ffffff;opacity:0.8;stroke:#cccccc;stroke-linejoin:miter;"/>
    </g>
    <g id="line2d_28">
     <path d="M 153 82.218437 
L 173 82.218437 
" style="fill:none;stroke:#1f77b4;stroke-linecap:square;stroke-width:1.5;"/>
    </g>
    <g id="line2d_29"/>
    <g id="text_19">
     <!-- taylorfo noBN -->
     <defs>
      <path d="M 18.3125 70.21875 
L 18.3125 54.6875 
L 36.8125 54.6875 
L 36.8125 47.703125 
L 18.3125 47.703125 
L 18.3125 18.015625 
Q 18.3125 11.328125 20.140625 9.421875 
Q 21.96875 7.515625 27.59375 7.515625 
L 36.8125 7.515625 
L 36.8125 0 
L 27.59375 0 
Q 17.1875 0 13.234375 3.875 
Q 9.28125 7.765625 9.28125 18.015625 
L 9.28125 47.703125 
L 2.6875 47.703125 
L 2.6875 54.6875 
L 9.28125 54.6875 
L 9.28125 70.21875 
z
" id="DejaVuSans-116"/>
      <path d="M 34.28125 27.484375 
Q 23.390625 27.484375 19.1875 25 
Q 14.984375 22.515625 14.984375 16.5 
Q 14.984375 11.71875 18.140625 8.90625 
Q 21.296875 6.109375 26.703125 6.109375 
Q 34.1875 6.109375 38.703125 11.40625 
Q 43.21875 16.703125 43.21875 25.484375 
L 43.21875 27.484375 
z
M 52.203125 31.203125 
L 52.203125 0 
L 43.21875 0 
L 43.21875 8.296875 
Q 40.140625 3.328125 35.546875 0.953125 
Q 30.953125 -1.421875 24.3125 -1.421875 
Q 15.921875 -1.421875 10.953125 3.296875 
Q 6 8.015625 6 15.921875 
Q 6 25.140625 12.171875 29.828125 
Q 18.359375 34.515625 30.609375 34.515625 
L 43.21875 34.515625 
L 43.21875 35.40625 
Q 43.21875 41.609375 39.140625 45 
Q 35.0625 48.390625 27.6875 48.390625 
Q 23 48.390625 18.546875 47.265625 
Q 14.109375 46.140625 10.015625 43.890625 
L 10.015625 52.203125 
Q 14.9375 54.109375 19.578125 55.046875 
Q 24.21875 56 28.609375 56 
Q 40.484375 56 46.34375 49.84375 
Q 52.203125 43.703125 52.203125 31.203125 
z
" id="DejaVuSans-97"/>
      <path d="M 32.171875 -5.078125 
Q 28.375 -14.84375 24.75 -17.8125 
Q 21.140625 -20.796875 15.09375 -20.796875 
L 7.90625 -20.796875 
L 7.90625 -13.28125 
L 13.1875 -13.28125 
Q 16.890625 -13.28125 18.9375 -11.515625 
Q 21 -9.765625 23.484375 -3.21875 
L 25.09375 0.875 
L 2.984375 54.6875 
L 12.5 54.6875 
L 29.59375 11.921875 
L 46.6875 54.6875 
L 56.203125 54.6875 
z
" id="DejaVuSans-121"/>
      <path d="M 9.421875 75.984375 
L 18.40625 75.984375 
L 18.40625 0 
L 9.421875 0 
z
" id="DejaVuSans-108"/>
      <path d="M 19.671875 34.8125 
L 19.671875 8.109375 
L 35.5 8.109375 
Q 43.453125 8.109375 47.28125 11.40625 
Q 51.125 14.703125 51.125 21.484375 
Q 51.125 28.328125 47.28125 31.5625 
Q 43.453125 34.8125 35.5 34.8125 
z
M 19.671875 64.796875 
L 19.671875 42.828125 
L 34.28125 42.828125 
Q 41.5 42.828125 45.03125 45.53125 
Q 48.578125 48.25 48.578125 53.8125 
Q 48.578125 59.328125 45.03125 62.0625 
Q 41.5 64.796875 34.28125 64.796875 
z
M 9.8125 72.90625 
L 35.015625 72.90625 
Q 46.296875 72.90625 52.390625 68.21875 
Q 58.5 63.53125 58.5 54.890625 
Q 58.5 48.1875 55.375 44.234375 
Q 52.25 40.28125 46.1875 39.3125 
Q 53.46875 37.75 57.5 32.78125 
Q 61.53125 27.828125 61.53125 20.40625 
Q 61.53125 10.640625 54.890625 5.3125 
Q 48.25 0 35.984375 0 
L 9.8125 0 
z
" id="DejaVuSans-66"/>
     </defs>
     <g transform="translate(181 85.718437)scale(0.1 -0.1)">
      <use xlink:href="#DejaVuSans-116"/>
      <use x="39.208984" xlink:href="#DejaVuSans-97"/>
      <use x="100.488281" xlink:href="#DejaVuSans-121"/>
      <use x="159.667969" xlink:href="#DejaVuSans-108"/>
      <use x="187.451172" xlink:href="#DejaVuSans-111"/>
      <use x="248.632812" xlink:href="#DejaVuSans-114"/>
      <use x="289.746094" xlink:href="#DejaVuSans-102"/>
      <use x="324.951172" xlink:href="#DejaVuSans-111"/>
      <use x="386.132812" xlink:href="#DejaVuSans-32"/>
      <use x="417.919922" xlink:href="#DejaVuSans-110"/>
      <use x="481.298828" xlink:href="#DejaVuSans-111"/>
      <use x="542.480469" xlink:href="#DejaVuSans-66"/>
      <use x="611.083984" xlink:href="#DejaVuSans-78"/>
     </g>
    </g>
    <g id="line2d_30">
     <path d="M 153 96.896563 
L 173 96.896563 
" style="fill:none;stroke:#ff7f0e;stroke-linecap:square;stroke-width:1.5;"/>
    </g>
    <g id="line2d_31"/>
    <g id="text_20">
     <!-- taylorfo_abs noBN -->
     <defs>
      <path d="M 50.984375 -16.609375 
L 50.984375 -23.578125 
L -0.984375 -23.578125 
L -0.984375 -16.609375 
z
" id="DejaVuSans-95"/>
     </defs>
     <g transform="translate(181 100.396563)scale(0.1 -0.1)">
      <use xlink:href="#DejaVuSans-116"/>
      <use x="39.208984" xlink:href="#DejaVuSans-97"/>
      <use x="100.488281" xlink:href="#DejaVuSans-121"/>
      <use x="159.667969" xlink:href="#DejaVuSans-108"/>
      <use x="187.451172" xlink:href="#DejaVuSans-111"/>
      <use x="248.632812" xlink:href="#DejaVuSans-114"/>
      <use x="289.746094" xlink:href="#DejaVuSans-102"/>
      <use x="324.951172" xlink:href="#DejaVuSans-111"/>
      <use x="386.132812" xlink:href="#DejaVuSans-95"/>
      <use x="436.132812" xlink:href="#DejaVuSans-97"/>
      <use x="497.412109" xlink:href="#DejaVuSans-98"/>
      <use x="560.888672" xlink:href="#DejaVuSans-115"/>
      <use x="612.988281" xlink:href="#DejaVuSans-32"/>
      <use x="644.775391" xlink:href="#DejaVuSans-110"/>
      <use x="708.154297" xlink:href="#DejaVuSans-111"/>
      <use x="769.335938" xlink:href="#DejaVuSans-66"/>
      <use x="837.939453" xlink:href="#DejaVuSans-78"/>
     </g>
    </g>
    <g id="line2d_32">
     <path d="M 153 111.852813 
L 173 111.852813 
" style="fill:none;stroke:#2ca02c;stroke-linecap:square;stroke-width:1.5;"/>
    </g>
    <g id="line2d_33"/>
    <g id="text_21">
     <!-- taylorfo_sq noBN -->
     <defs>
      <path d="M 14.796875 27.296875 
Q 14.796875 17.390625 18.875 11.75 
Q 22.953125 6.109375 30.078125 6.109375 
Q 37.203125 6.109375 41.296875 11.75 
Q 45.40625 17.390625 45.40625 27.296875 
Q 45.40625 37.203125 41.296875 42.84375 
Q 37.203125 48.484375 30.078125 48.484375 
Q 22.953125 48.484375 18.875 42.84375 
Q 14.796875 37.203125 14.796875 27.296875 
z
M 45.40625 8.203125 
Q 42.578125 3.328125 38.25 0.953125 
Q 33.9375 -1.421875 27.875 -1.421875 
Q 17.96875 -1.421875 11.734375 6.484375 
Q 5.515625 14.40625 5.515625 27.296875 
Q 5.515625 40.1875 11.734375 48.09375 
Q 17.96875 56 27.875 56 
Q 33.9375 56 38.25 53.625 
Q 42.578125 51.265625 45.40625 46.390625 
L 45.40625 54.6875 
L 54.390625 54.6875 
L 54.390625 -20.796875 
L 45.40625 -20.796875 
z
" id="DejaVuSans-113"/>
     </defs>
     <g transform="translate(181 115.352813)scale(0.1 -0.1)">
      <use xlink:href="#DejaVuSans-116"/>
      <use x="39.208984" xlink:href="#DejaVuSans-97"/>
      <use x="100.488281" xlink:href="#DejaVuSans-121"/>
      <use x="159.667969" xlink:href="#DejaVuSans-108"/>
      <use x="187.451172" xlink:href="#DejaVuSans-111"/>
      <use x="248.632812" xlink:href="#DejaVuSans-114"/>
      <use x="289.746094" xlink:href="#DejaVuSans-102"/>
      <use x="324.951172" xlink:href="#DejaVuSans-111"/>
      <use x="386.132812" xlink:href="#DejaVuSans-95"/>
      <use x="436.132812" xlink:href="#DejaVuSans-115"/>
      <use x="488.232422" xlink:href="#DejaVuSans-113"/>
      <use x="551.708984" xlink:href="#DejaVuSans-32"/>
      <use x="583.496094" xlink:href="#DejaVuSans-110"/>
      <use x="646.875" xlink:href="#DejaVuSans-111"/>
      <use x="708.056641" xlink:href="#DejaVuSans-66"/>
      <use x="776.660156" xlink:href="#DejaVuSans-78"/>
     </g>
    </g>
    <g id="line2d_34">
     <path d="M 153 126.809062 
L 173 126.809062 
" style="fill:none;stroke:#d62728;stroke-dasharray:5.55,2.4;stroke-dashoffset:0;stroke-width:1.5;"/>
    </g>
    <g id="line2d_35"/>
    <g id="text_22">
     <!-- Molchanov_group noBN -->
     <defs>
      <path d="M 9.8125 72.90625 
L 24.515625 72.90625 
L 43.109375 23.296875 
L 61.8125 72.90625 
L 76.515625 72.90625 
L 76.515625 0 
L 66.890625 0 
L 66.890625 64.015625 
L 48.09375 14.015625 
L 38.1875 14.015625 
L 19.390625 64.015625 
L 19.390625 0 
L 9.8125 0 
z
" id="DejaVuSans-77"/>
      <path d="M 48.78125 52.59375 
L 48.78125 44.1875 
Q 44.96875 46.296875 41.140625 47.34375 
Q 37.3125 48.390625 33.40625 48.390625 
Q 24.65625 48.390625 19.8125 42.84375 
Q 14.984375 37.3125 14.984375 27.296875 
Q 14.984375 17.28125 19.8125 11.734375 
Q 24.65625 6.203125 33.40625 6.203125 
Q 37.3125 6.203125 41.140625 7.25 
Q 44.96875 8.296875 48.78125 10.40625 
L 48.78125 2.09375 
Q 45.015625 0.34375 40.984375 -0.53125 
Q 36.96875 -1.421875 32.421875 -1.421875 
Q 20.0625 -1.421875 12.78125 6.34375 
Q 5.515625 14.109375 5.515625 27.296875 
Q 5.515625 40.671875 12.859375 48.328125 
Q 20.21875 56 33.015625 56 
Q 37.15625 56 41.109375 55.140625 
Q 45.0625 54.296875 48.78125 52.59375 
z
" id="DejaVuSans-99"/>
      <path d="M 54.890625 33.015625 
L 54.890625 0 
L 45.90625 0 
L 45.90625 32.71875 
Q 45.90625 40.484375 42.875 44.328125 
Q 39.84375 48.1875 33.796875 48.1875 
Q 26.515625 48.1875 22.3125 43.546875 
Q 18.109375 38.921875 18.109375 30.90625 
L 18.109375 0 
L 9.078125 0 
L 9.078125 75.984375 
L 18.109375 75.984375 
L 18.109375 46.1875 
Q 21.34375 51.125 25.703125 53.5625 
Q 30.078125 56 35.796875 56 
Q 45.21875 56 50.046875 50.171875 
Q 54.890625 44.34375 54.890625 33.015625 
z
" id="DejaVuSans-104"/>
      <path d="M 2.984375 54.6875 
L 12.5 54.6875 
L 29.59375 8.796875 
L 46.6875 54.6875 
L 56.203125 54.6875 
L 35.6875 0 
L 23.484375 0 
z
" id="DejaVuSans-118"/>
      <path d="M 45.40625 27.984375 
Q 45.40625 37.75 41.375 43.109375 
Q 37.359375 48.484375 30.078125 48.484375 
Q 22.859375 48.484375 18.828125 43.109375 
Q 14.796875 37.75 14.796875 27.984375 
Q 14.796875 18.265625 18.828125 12.890625 
Q 22.859375 7.515625 30.078125 7.515625 
Q 37.359375 7.515625 41.375 12.890625 
Q 45.40625 18.265625 45.40625 27.984375 
z
M 54.390625 6.78125 
Q 54.390625 -7.171875 48.1875 -13.984375 
Q 42 -20.796875 29.203125 -20.796875 
Q 24.46875 -20.796875 20.265625 -20.09375 
Q 16.0625 -19.390625 12.109375 -17.921875 
L 12.109375 -9.1875 
Q 16.0625 -11.328125 19.921875 -12.34375 
Q 23.78125 -13.375 27.78125 -13.375 
Q 36.625 -13.375 41.015625 -8.765625 
Q 45.40625 -4.15625 45.40625 5.171875 
L 45.40625 9.625 
Q 42.625 4.78125 38.28125 2.390625 
Q 33.9375 0 27.875 0 
Q 17.828125 0 11.671875 7.65625 
Q 5.515625 15.328125 5.515625 27.984375 
Q 5.515625 40.671875 11.671875 48.328125 
Q 17.828125 56 27.875 56 
Q 33.9375 56 38.28125 53.609375 
Q 42.625 51.21875 45.40625 46.390625 
L 45.40625 54.6875 
L 54.390625 54.6875 
z
" id="DejaVuSans-103"/>
     </defs>
     <g transform="translate(181 130.309062)scale(0.1 -0.1)">
      <use xlink:href="#DejaVuSans-77"/>
      <use x="86.279297" xlink:href="#DejaVuSans-111"/>
      <use x="147.460938" xlink:href="#DejaVuSans-108"/>
      <use x="175.244141" xlink:href="#DejaVuSans-99"/>
      <use x="230.224609" xlink:href="#DejaVuSans-104"/>
      <use x="293.603516" xlink:href="#DejaVuSans-97"/>
      <use x="354.882812" xlink:href="#DejaVuSans-110"/>
      <use x="418.261719" xlink:href="#DejaVuSans-111"/>
      <use x="479.443359" xlink:href="#DejaVuSans-118"/>
      <use x="538.623047" xlink:href="#DejaVuSans-95"/>
      <use x="588.623047" xlink:href="#DejaVuSans-103"/>
      <use x="652.099609" xlink:href="#DejaVuSans-114"/>
      <use x="690.962891" xlink:href="#DejaVuSans-111"/>
      <use x="752.144531" xlink:href="#DejaVuSans-117"/>
      <use x="815.523438" xlink:href="#DejaVuSans-112"/>
      <use x="879" xlink:href="#DejaVuSans-32"/>
      <use x="910.787109" xlink:href="#DejaVuSans-110"/>
      <use x="974.166016" xlink:href="#DejaVuSans-111"/>
      <use x="1035.347656" xlink:href="#DejaVuSans-66"/>
      <use x="1103.951172" xlink:href="#DejaVuSans-78"/>
     </g>
    </g>
    <g id="line2d_36">
     <path d="M 153 141.765312 
L 173 141.765312 
" style="fill:none;stroke:#9467bd;stroke-dasharray:5.55,2.4;stroke-dashoffset:0;stroke-width:1.5;"/>
    </g>
    <g id="line2d_37"/>
    <g id="text_23">
     <!-- APnZ noBN -->
     <defs>
      <path d="M 34.1875 63.1875 
L 20.796875 26.90625 
L 47.609375 26.90625 
z
M 28.609375 72.90625 
L 39.796875 72.90625 
L 67.578125 0 
L 57.328125 0 
L 50.6875 18.703125 
L 17.828125 18.703125 
L 11.1875 0 
L 0.78125 0 
z
" id="DejaVuSans-65"/>
      <path d="M 19.671875 64.796875 
L 19.671875 37.40625 
L 32.078125 37.40625 
Q 38.96875 37.40625 42.71875 40.96875 
Q 46.484375 44.53125 46.484375 51.125 
Q 46.484375 57.671875 42.71875 61.234375 
Q 38.96875 64.796875 32.078125 64.796875 
z
M 9.8125 72.90625 
L 32.078125 72.90625 
Q 44.34375 72.90625 50.609375 67.359375 
Q 56.890625 61.8125 56.890625 51.125 
Q 56.890625 40.328125 50.609375 34.8125 
Q 44.34375 29.296875 32.078125 29.296875 
L 19.671875 29.296875 
L 19.671875 0 
L 9.8125 0 
z
" id="DejaVuSans-80"/>
      <path d="M 5.609375 72.90625 
L 62.890625 72.90625 
L 62.890625 65.375 
L 16.796875 8.296875 
L 64.015625 8.296875 
L 64.015625 0 
L 4.5 0 
L 4.5 7.515625 
L 50.59375 64.59375 
L 5.609375 64.59375 
z
" id="DejaVuSans-90"/>
     </defs>
     <g transform="translate(181 145.265312)scale(0.1 -0.1)">
      <use xlink:href="#DejaVuSans-65"/>
      <use x="68.408203" xlink:href="#DejaVuSans-80"/>
      <use x="126.960938" xlink:href="#DejaVuSans-110"/>
      <use x="190.339844" xlink:href="#DejaVuSans-90"/>
      <use x="258.845703" xlink:href="#DejaVuSans-32"/>
      <use x="290.632812" xlink:href="#DejaVuSans-110"/>
      <use x="354.011719" xlink:href="#DejaVuSans-111"/>
      <use x="415.193359" xlink:href="#DejaVuSans-66"/>
      <use x="483.796875" xlink:href="#DejaVuSans-78"/>
     </g>
    </g>
    <g id="line2d_38">
     <path d="M 153 156.443438 
L 173 156.443438 
" style="fill:none;stroke:#8c564b;stroke-linecap:square;stroke-width:1.5;"/>
    </g>
    <g id="line2d_39"/>
    <g id="text_24">
     <!-- taylorfo BN -->
     <g transform="translate(181 159.943438)scale(0.1 -0.1)">
      <use xlink:href="#DejaVuSans-116"/>
      <use x="39.208984" xlink:href="#DejaVuSans-97"/>
      <use x="100.488281" xlink:href="#DejaVuSans-121"/>
      <use x="159.667969" xlink:href="#DejaVuSans-108"/>
      <use x="187.451172" xlink:href="#DejaVuSans-111"/>
      <use x="248.632812" xlink:href="#DejaVuSans-114"/>
      <use x="289.746094" xlink:href="#DejaVuSans-102"/>
      <use x="324.951172" xlink:href="#DejaVuSans-111"/>
      <use x="386.132812" xlink:href="#DejaVuSans-32"/>
      <use x="417.919922" xlink:href="#DejaVuSans-66"/>
      <use x="486.523438" xlink:href="#DejaVuSans-78"/>
     </g>
    </g>
    <g id="line2d_40">
     <path d="M 153 171.121562 
L 173 171.121562 
" style="fill:none;stroke:#e377c2;stroke-linecap:square;stroke-width:1.5;"/>
    </g>
    <g id="line2d_41"/>
    <g id="text_25">
     <!-- taylorfo_abs BN -->
     <g transform="translate(181 174.621562)scale(0.1 -0.1)">
      <use xlink:href="#DejaVuSans-116"/>
      <use x="39.208984" xlink:href="#DejaVuSans-97"/>
      <use x="100.488281" xlink:href="#DejaVuSans-121"/>
      <use x="159.667969" xlink:href="#DejaVuSans-108"/>
      <use x="187.451172" xlink:href="#DejaVuSans-111"/>
      <use x="248.632812" xlink:href="#DejaVuSans-114"/>
      <use x="289.746094" xlink:href="#DejaVuSans-102"/>
      <use x="324.951172" xlink:href="#DejaVuSans-111"/>
      <use x="386.132812" xlink:href="#DejaVuSans-95"/>
      <use x="436.132812" xlink:href="#DejaVuSans-97"/>
      <use x="497.412109" xlink:href="#DejaVuSans-98"/>
      <use x="560.888672" xlink:href="#DejaVuSans-115"/>
      <use x="612.988281" xlink:href="#DejaVuSans-32"/>
      <use x="644.775391" xlink:href="#DejaVuSans-66"/>
      <use x="713.378906" xlink:href="#DejaVuSans-78"/>
     </g>
    </g>
    <g id="line2d_42">
     <path d="M 153 186.077812 
L 173 186.077812 
" style="fill:none;stroke:#7f7f7f;stroke-linecap:square;stroke-width:1.5;"/>
    </g>
    <g id="line2d_43"/>
    <g id="text_26">
     <!-- taylorfo_sq BN -->
     <g transform="translate(181 189.577812)scale(0.1 -0.1)">
      <use xlink:href="#DejaVuSans-116"/>
      <use x="39.208984" xlink:href="#DejaVuSans-97"/>
      <use x="100.488281" xlink:href="#DejaVuSans-121"/>
      <use x="159.667969" xlink:href="#DejaVuSans-108"/>
      <use x="187.451172" xlink:href="#DejaVuSans-111"/>
      <use x="248.632812" xlink:href="#DejaVuSans-114"/>
      <use x="289.746094" xlink:href="#DejaVuSans-102"/>
      <use x="324.951172" xlink:href="#DejaVuSans-111"/>
      <use x="386.132812" xlink:href="#DejaVuSans-95"/>
      <use x="436.132812" xlink:href="#DejaVuSans-115"/>
      <use x="488.232422" xlink:href="#DejaVuSans-113"/>
      <use x="551.708984" xlink:href="#DejaVuSans-32"/>
      <use x="583.496094" xlink:href="#DejaVuSans-66"/>
      <use x="652.099609" xlink:href="#DejaVuSans-78"/>
     </g>
    </g>
    <g id="line2d_44">
     <path d="M 153 201.034063 
L 173 201.034063 
" style="fill:none;stroke:#bcbd22;stroke-dasharray:5.55,2.4;stroke-dashoffset:0;stroke-width:1.5;"/>
    </g>
    <g id="line2d_45"/>
    <g id="text_27">
     <!-- Molchanov_group BN -->
     <g transform="translate(181 204.534063)scale(0.1 -0.1)">
      <use xlink:href="#DejaVuSans-77"/>
      <use x="86.279297" xlink:href="#DejaVuSans-111"/>
      <use x="147.460938" xlink:href="#DejaVuSans-108"/>
      <use x="175.244141" xlink:href="#DejaVuSans-99"/>
      <use x="230.224609" xlink:href="#DejaVuSans-104"/>
      <use x="293.603516" xlink:href="#DejaVuSans-97"/>
      <use x="354.882812" xlink:href="#DejaVuSans-110"/>
      <use x="418.261719" xlink:href="#DejaVuSans-111"/>
      <use x="479.443359" xlink:href="#DejaVuSans-118"/>
      <use x="538.623047" xlink:href="#DejaVuSans-95"/>
      <use x="588.623047" xlink:href="#DejaVuSans-103"/>
      <use x="652.099609" xlink:href="#DejaVuSans-114"/>
      <use x="690.962891" xlink:href="#DejaVuSans-111"/>
      <use x="752.144531" xlink:href="#DejaVuSans-117"/>
      <use x="815.523438" xlink:href="#DejaVuSans-112"/>
      <use x="879" xlink:href="#DejaVuSans-32"/>
      <use x="910.787109" xlink:href="#DejaVuSans-66"/>
      <use x="979.390625" xlink:href="#DejaVuSans-78"/>
     </g>
    </g>
    <g id="line2d_46">
     <path d="M 153 215.990312 
L 173 215.990312 
" style="fill:none;stroke:#17becf;stroke-dasharray:5.55,2.4;stroke-dashoffset:0;stroke-width:1.5;"/>
    </g>
    <g id="line2d_47"/>
    <g id="text_28">
     <!-- Molchanov_BN BN -->
     <g transform="translate(181 219.490312)scale(0.1 -0.1)">
      <use xlink:href="#DejaVuSans-77"/>
      <use x="86.279297" xlink:href="#DejaVuSans-111"/>
      <use x="147.460938" xlink:href="#DejaVuSans-108"/>
      <use x="175.244141" xlink:href="#DejaVuSans-99"/>
      <use x="230.224609" xlink:href="#DejaVuSans-104"/>
      <use x="293.603516" xlink:href="#DejaVuSans-97"/>
      <use x="354.882812" xlink:href="#DejaVuSans-110"/>
      <use x="418.261719" xlink:href="#DejaVuSans-111"/>
      <use x="479.443359" xlink:href="#DejaVuSans-118"/>
      <use x="538.623047" xlink:href="#DejaVuSans-95"/>
      <use x="588.623047" xlink:href="#DejaVuSans-66"/>
      <use x="657.226562" xlink:href="#DejaVuSans-78"/>
      <use x="732.03125" xlink:href="#DejaVuSans-32"/>
      <use x="763.818359" xlink:href="#DejaVuSans-66"/>
      <use x="832.421875" xlink:href="#DejaVuSans-78"/>
     </g>
    </g>
    <g id="line2d_48">
     <path d="M 153 230.946563 
L 173 230.946563 
" style="fill:none;stroke:#1f77b4;stroke-dasharray:5.55,2.4;stroke-dashoffset:0;stroke-width:1.5;"/>
    </g>
    <g id="line2d_49"/>
    <g id="text_29">
     <!-- APnZ BN -->
     <g transform="translate(181 234.446563)scale(0.1 -0.1)">
      <use xlink:href="#DejaVuSans-65"/>
      <use x="68.408203" xlink:href="#DejaVuSans-80"/>
      <use x="126.960938" xlink:href="#DejaVuSans-110"/>
      <use x="190.339844" xlink:href="#DejaVuSans-90"/>
      <use x="258.845703" xlink:href="#DejaVuSans-32"/>
      <use x="290.632812" xlink:href="#DejaVuSans-66"/>
      <use x="359.236328" xlink:href="#DejaVuSans-78"/>
     </g>
    </g>
   </g>
  </g>
 </g>
 <defs>
  <clipPath id="p7041e34046">
   <rect height="434.88" width="892.8" x="144" y="69.12"/>
  </clipPath>
 </defs>
</svg>
