<?xml version="1.0" encoding="utf-8" standalone="no"?>
<!DOCTYPE svg PUBLIC "-//W3C//DTD SVG 1.1//EN"
  "http://www.w3.org/Graphics/SVG/1.1/DTD/svg11.dtd">
<!-- Created with matplotlib (https://matplotlib.org/) -->
<svg height="576pt" version="1.1" viewBox="0 0 1152 576" width="1152pt" xmlns="http://www.w3.org/2000/svg" xmlns:xlink="http://www.w3.org/1999/xlink">
 <defs>
  <style type="text/css">
*{stroke-linecap:butt;stroke-linejoin:round;}
  </style>
 </defs>
 <g id="figure_1">
  <g id="patch_1">
   <path d="M 0 576 
L 1152 576 
L 1152 0 
L 0 0 
z
" style="fill:#ffffff;"/>
  </g>
  <g id="axes_1">
   <g id="patch_2">
    <path d="M 144 504 
L 1036.8 504 
L 1036.8 69.12 
L 144 69.12 
z
" style="fill:#ffffff;"/>
   </g>
   <g id="matplotlib.axis_1">
    <g id="xtick_1">
     <g id="line2d_1">
      <defs>
       <path d="M 0 0 
L 0 3.5 
" id="m0a3f2d0af9" style="stroke:#000000;stroke-width:0.8;"/>
      </defs>
      <g>
       <use style="stroke:#000000;stroke-width:0.8;" x="182.527043" xlink:href="#m0a3f2d0af9" y="504"/>
      </g>
     </g>
     <g id="text_1">
      <!-- 0 -->
      <defs>
       <path d="M 31.78125 66.40625 
Q 24.171875 66.40625 20.328125 58.90625 
Q 16.5 51.421875 16.5 36.375 
Q 16.5 21.390625 20.328125 13.890625 
Q 24.171875 6.390625 31.78125 6.390625 
Q 39.453125 6.390625 43.28125 13.890625 
Q 47.125 21.390625 47.125 36.375 
Q 47.125 51.421875 43.28125 58.90625 
Q 39.453125 66.40625 31.78125 66.40625 
z
M 31.78125 74.21875 
Q 44.046875 74.21875 50.515625 64.515625 
Q 56.984375 54.828125 56.984375 36.375 
Q 56.984375 17.96875 50.515625 8.265625 
Q 44.046875 -1.421875 31.78125 -1.421875 
Q 19.53125 -1.421875 13.0625 8.265625 
Q 6.59375 17.96875 6.59375 36.375 
Q 6.59375 54.828125 13.0625 64.515625 
Q 19.53125 74.21875 31.78125 74.21875 
z
" id="DejaVuSans-48"/>
      </defs>
      <g transform="translate(179.345793 518.598438)scale(0.1 -0.1)">
       <use xlink:href="#DejaVuSans-48"/>
      </g>
     </g>
    </g>
    <g id="xtick_2">
     <g id="line2d_2">
      <g>
       <use style="stroke:#000000;stroke-width:0.8;" x="285.265823" xlink:href="#m0a3f2d0af9" y="504"/>
      </g>
     </g>
     <g id="text_2">
      <!-- 50 -->
      <defs>
       <path d="M 10.796875 72.90625 
L 49.515625 72.90625 
L 49.515625 64.59375 
L 19.828125 64.59375 
L 19.828125 46.734375 
Q 21.96875 47.46875 24.109375 47.828125 
Q 26.265625 48.1875 28.421875 48.1875 
Q 40.625 48.1875 47.75 41.5 
Q 54.890625 34.8125 54.890625 23.390625 
Q 54.890625 11.625 47.5625 5.09375 
Q 40.234375 -1.421875 26.90625 -1.421875 
Q 22.3125 -1.421875 17.546875 -0.640625 
Q 12.796875 0.140625 7.71875 1.703125 
L 7.71875 11.625 
Q 12.109375 9.234375 16.796875 8.0625 
Q 21.484375 6.890625 26.703125 6.890625 
Q 35.15625 6.890625 40.078125 11.328125 
Q 45.015625 15.765625 45.015625 23.390625 
Q 45.015625 31 40.078125 35.4375 
Q 35.15625 39.890625 26.703125 39.890625 
Q 22.75 39.890625 18.8125 39.015625 
Q 14.890625 38.140625 10.796875 36.28125 
z
" id="DejaVuSans-53"/>
      </defs>
      <g transform="translate(278.903323 518.598438)scale(0.1 -0.1)">
       <use xlink:href="#DejaVuSans-53"/>
       <use x="63.623047" xlink:href="#DejaVuSans-48"/>
      </g>
     </g>
    </g>
    <g id="xtick_3">
     <g id="line2d_3">
      <g>
       <use style="stroke:#000000;stroke-width:0.8;" x="388.004603" xlink:href="#m0a3f2d0af9" y="504"/>
      </g>
     </g>
     <g id="text_3">
      <!-- 100 -->
      <defs>
       <path d="M 12.40625 8.296875 
L 28.515625 8.296875 
L 28.515625 63.921875 
L 10.984375 60.40625 
L 10.984375 69.390625 
L 28.421875 72.90625 
L 38.28125 72.90625 
L 38.28125 8.296875 
L 54.390625 8.296875 
L 54.390625 0 
L 12.40625 0 
z
" id="DejaVuSans-49"/>
      </defs>
      <g transform="translate(378.460853 518.598438)scale(0.1 -0.1)">
       <use xlink:href="#DejaVuSans-49"/>
       <use x="63.623047" xlink:href="#DejaVuSans-48"/>
       <use x="127.246094" xlink:href="#DejaVuSans-48"/>
      </g>
     </g>
    </g>
    <g id="xtick_4">
     <g id="line2d_4">
      <g>
       <use style="stroke:#000000;stroke-width:0.8;" x="490.743383" xlink:href="#m0a3f2d0af9" y="504"/>
      </g>
     </g>
     <g id="text_4">
      <!-- 150 -->
      <g transform="translate(481.199633 518.598438)scale(0.1 -0.1)">
       <use xlink:href="#DejaVuSans-49"/>
       <use x="63.623047" xlink:href="#DejaVuSans-53"/>
       <use x="127.246094" xlink:href="#DejaVuSans-48"/>
      </g>
     </g>
    </g>
    <g id="xtick_5">
     <g id="line2d_5">
      <g>
       <use style="stroke:#000000;stroke-width:0.8;" x="593.482163" xlink:href="#m0a3f2d0af9" y="504"/>
      </g>
     </g>
     <g id="text_5">
      <!-- 200 -->
      <defs>
       <path d="M 19.1875 8.296875 
L 53.609375 8.296875 
L 53.609375 0 
L 7.328125 0 
L 7.328125 8.296875 
Q 12.9375 14.109375 22.625 23.890625 
Q 32.328125 33.6875 34.8125 36.53125 
Q 39.546875 41.84375 41.421875 45.53125 
Q 43.3125 49.21875 43.3125 52.78125 
Q 43.3125 58.59375 39.234375 62.25 
Q 35.15625 65.921875 28.609375 65.921875 
Q 23.96875 65.921875 18.8125 64.3125 
Q 13.671875 62.703125 7.8125 59.421875 
L 7.8125 69.390625 
Q 13.765625 71.78125 18.9375 73 
Q 24.125 74.21875 28.421875 74.21875 
Q 39.75 74.21875 46.484375 68.546875 
Q 53.21875 62.890625 53.21875 53.421875 
Q 53.21875 48.921875 51.53125 44.890625 
Q 49.859375 40.875 45.40625 35.40625 
Q 44.1875 33.984375 37.640625 27.21875 
Q 31.109375 20.453125 19.1875 8.296875 
z
" id="DejaVuSans-50"/>
      </defs>
      <g transform="translate(583.938413 518.598438)scale(0.1 -0.1)">
       <use xlink:href="#DejaVuSans-50"/>
       <use x="63.623047" xlink:href="#DejaVuSans-48"/>
       <use x="127.246094" xlink:href="#DejaVuSans-48"/>
      </g>
     </g>
    </g>
    <g id="xtick_6">
     <g id="line2d_6">
      <g>
       <use style="stroke:#000000;stroke-width:0.8;" x="696.220944" xlink:href="#m0a3f2d0af9" y="504"/>
      </g>
     </g>
     <g id="text_6">
      <!-- 250 -->
      <g transform="translate(686.677194 518.598438)scale(0.1 -0.1)">
       <use xlink:href="#DejaVuSans-50"/>
       <use x="63.623047" xlink:href="#DejaVuSans-53"/>
       <use x="127.246094" xlink:href="#DejaVuSans-48"/>
      </g>
     </g>
    </g>
    <g id="xtick_7">
     <g id="line2d_7">
      <g>
       <use style="stroke:#000000;stroke-width:0.8;" x="798.959724" xlink:href="#m0a3f2d0af9" y="504"/>
      </g>
     </g>
     <g id="text_7">
      <!-- 300 -->
      <defs>
       <path d="M 40.578125 39.3125 
Q 47.65625 37.796875 51.625 33 
Q 55.609375 28.21875 55.609375 21.1875 
Q 55.609375 10.40625 48.1875 4.484375 
Q 40.765625 -1.421875 27.09375 -1.421875 
Q 22.515625 -1.421875 17.65625 -0.515625 
Q 12.796875 0.390625 7.625 2.203125 
L 7.625 11.71875 
Q 11.71875 9.328125 16.59375 8.109375 
Q 21.484375 6.890625 26.8125 6.890625 
Q 36.078125 6.890625 40.9375 10.546875 
Q 45.796875 14.203125 45.796875 21.1875 
Q 45.796875 27.640625 41.28125 31.265625 
Q 36.765625 34.90625 28.71875 34.90625 
L 20.21875 34.90625 
L 20.21875 43.015625 
L 29.109375 43.015625 
Q 36.375 43.015625 40.234375 45.921875 
Q 44.09375 48.828125 44.09375 54.296875 
Q 44.09375 59.90625 40.109375 62.90625 
Q 36.140625 65.921875 28.71875 65.921875 
Q 24.65625 65.921875 20.015625 65.03125 
Q 15.375 64.15625 9.8125 62.3125 
L 9.8125 71.09375 
Q 15.4375 72.65625 20.34375 73.4375 
Q 25.25 74.21875 29.59375 74.21875 
Q 40.828125 74.21875 47.359375 69.109375 
Q 53.90625 64.015625 53.90625 55.328125 
Q 53.90625 49.265625 50.4375 45.09375 
Q 46.96875 40.921875 40.578125 39.3125 
z
" id="DejaVuSans-51"/>
      </defs>
      <g transform="translate(789.415974 518.598438)scale(0.1 -0.1)">
       <use xlink:href="#DejaVuSans-51"/>
       <use x="63.623047" xlink:href="#DejaVuSans-48"/>
       <use x="127.246094" xlink:href="#DejaVuSans-48"/>
      </g>
     </g>
    </g>
    <g id="xtick_8">
     <g id="line2d_8">
      <g>
       <use style="stroke:#000000;stroke-width:0.8;" x="901.698504" xlink:href="#m0a3f2d0af9" y="504"/>
      </g>
     </g>
     <g id="text_8">
      <!-- 350 -->
      <g transform="translate(892.154754 518.598438)scale(0.1 -0.1)">
       <use xlink:href="#DejaVuSans-51"/>
       <use x="63.623047" xlink:href="#DejaVuSans-53"/>
       <use x="127.246094" xlink:href="#DejaVuSans-48"/>
      </g>
     </g>
    </g>
    <g id="xtick_9">
     <g id="line2d_9">
      <g>
       <use style="stroke:#000000;stroke-width:0.8;" x="1004.437284" xlink:href="#m0a3f2d0af9" y="504"/>
      </g>
     </g>
     <g id="text_9">
      <!-- 400 -->
      <defs>
       <path d="M 37.796875 64.3125 
L 12.890625 25.390625 
L 37.796875 25.390625 
z
M 35.203125 72.90625 
L 47.609375 72.90625 
L 47.609375 25.390625 
L 58.015625 25.390625 
L 58.015625 17.1875 
L 47.609375 17.1875 
L 47.609375 0 
L 37.796875 0 
L 37.796875 17.1875 
L 4.890625 17.1875 
L 4.890625 26.703125 
z
" id="DejaVuSans-52"/>
      </defs>
      <g transform="translate(994.893534 518.598438)scale(0.1 -0.1)">
       <use xlink:href="#DejaVuSans-52"/>
       <use x="63.623047" xlink:href="#DejaVuSans-48"/>
       <use x="127.246094" xlink:href="#DejaVuSans-48"/>
      </g>
     </g>
    </g>
    <g id="text_10">
     <!-- Number of Neurons pruned -->
     <defs>
      <path d="M 9.8125 72.90625 
L 23.09375 72.90625 
L 55.421875 11.921875 
L 55.421875 72.90625 
L 64.984375 72.90625 
L 64.984375 0 
L 51.703125 0 
L 19.390625 60.984375 
L 19.390625 0 
L 9.8125 0 
z
" id="DejaVuSans-78"/>
      <path d="M 8.5 21.578125 
L 8.5 54.6875 
L 17.484375 54.6875 
L 17.484375 21.921875 
Q 17.484375 14.15625 20.5 10.265625 
Q 23.53125 6.390625 29.59375 6.390625 
Q 36.859375 6.390625 41.078125 11.03125 
Q 45.3125 15.671875 45.3125 23.6875 
L 45.3125 54.6875 
L 54.296875 54.6875 
L 54.296875 0 
L 45.3125 0 
L 45.3125 8.40625 
Q 42.046875 3.421875 37.71875 1 
Q 33.40625 -1.421875 27.6875 -1.421875 
Q 18.265625 -1.421875 13.375 4.4375 
Q 8.5 10.296875 8.5 21.578125 
z
M 31.109375 56 
z
" id="DejaVuSans-117"/>
      <path d="M 52 44.1875 
Q 55.375 50.25 60.0625 53.125 
Q 64.75 56 71.09375 56 
Q 79.640625 56 84.28125 50.015625 
Q 88.921875 44.046875 88.921875 33.015625 
L 88.921875 0 
L 79.890625 0 
L 79.890625 32.71875 
Q 79.890625 40.578125 77.09375 44.375 
Q 74.3125 48.1875 68.609375 48.1875 
Q 61.625 48.1875 57.5625 43.546875 
Q 53.515625 38.921875 53.515625 30.90625 
L 53.515625 0 
L 44.484375 0 
L 44.484375 32.71875 
Q 44.484375 40.625 41.703125 44.40625 
Q 38.921875 48.1875 33.109375 48.1875 
Q 26.21875 48.1875 22.15625 43.53125 
Q 18.109375 38.875 18.109375 30.90625 
L 18.109375 0 
L 9.078125 0 
L 9.078125 54.6875 
L 18.109375 54.6875 
L 18.109375 46.1875 
Q 21.1875 51.21875 25.484375 53.609375 
Q 29.78125 56 35.6875 56 
Q 41.65625 56 45.828125 52.96875 
Q 50 49.953125 52 44.1875 
z
" id="DejaVuSans-109"/>
      <path d="M 48.6875 27.296875 
Q 48.6875 37.203125 44.609375 42.84375 
Q 40.53125 48.484375 33.40625 48.484375 
Q 26.265625 48.484375 22.1875 42.84375 
Q 18.109375 37.203125 18.109375 27.296875 
Q 18.109375 17.390625 22.1875 11.75 
Q 26.265625 6.109375 33.40625 6.109375 
Q 40.53125 6.109375 44.609375 11.75 
Q 48.6875 17.390625 48.6875 27.296875 
z
M 18.109375 46.390625 
Q 20.953125 51.265625 25.265625 53.625 
Q 29.59375 56 35.59375 56 
Q 45.5625 56 51.78125 48.09375 
Q 58.015625 40.1875 58.015625 27.296875 
Q 58.015625 14.40625 51.78125 6.484375 
Q 45.5625 -1.421875 35.59375 -1.421875 
Q 29.59375 -1.421875 25.265625 0.953125 
Q 20.953125 3.328125 18.109375 8.203125 
L 18.109375 0 
L 9.078125 0 
L 9.078125 75.984375 
L 18.109375 75.984375 
z
" id="DejaVuSans-98"/>
      <path d="M 56.203125 29.59375 
L 56.203125 25.203125 
L 14.890625 25.203125 
Q 15.484375 15.921875 20.484375 11.0625 
Q 25.484375 6.203125 34.421875 6.203125 
Q 39.59375 6.203125 44.453125 7.46875 
Q 49.3125 8.734375 54.109375 11.28125 
L 54.109375 2.78125 
Q 49.265625 0.734375 44.1875 -0.34375 
Q 39.109375 -1.421875 33.890625 -1.421875 
Q 20.796875 -1.421875 13.15625 6.1875 
Q 5.515625 13.8125 5.515625 26.8125 
Q 5.515625 40.234375 12.765625 48.109375 
Q 20.015625 56 32.328125 56 
Q 43.359375 56 49.78125 48.890625 
Q 56.203125 41.796875 56.203125 29.59375 
z
M 47.21875 32.234375 
Q 47.125 39.59375 43.09375 43.984375 
Q 39.0625 48.390625 32.421875 48.390625 
Q 24.90625 48.390625 20.390625 44.140625 
Q 15.875 39.890625 15.1875 32.171875 
z
" id="DejaVuSans-101"/>
      <path d="M 41.109375 46.296875 
Q 39.59375 47.171875 37.8125 47.578125 
Q 36.03125 48 33.890625 48 
Q 26.265625 48 22.1875 43.046875 
Q 18.109375 38.09375 18.109375 28.8125 
L 18.109375 0 
L 9.078125 0 
L 9.078125 54.6875 
L 18.109375 54.6875 
L 18.109375 46.1875 
Q 20.953125 51.171875 25.484375 53.578125 
Q 30.03125 56 36.53125 56 
Q 37.453125 56 38.578125 55.875 
Q 39.703125 55.765625 41.0625 55.515625 
z
" id="DejaVuSans-114"/>
      <path id="DejaVuSans-32"/>
      <path d="M 30.609375 48.390625 
Q 23.390625 48.390625 19.1875 42.75 
Q 14.984375 37.109375 14.984375 27.296875 
Q 14.984375 17.484375 19.15625 11.84375 
Q 23.34375 6.203125 30.609375 6.203125 
Q 37.796875 6.203125 41.984375 11.859375 
Q 46.1875 17.53125 46.1875 27.296875 
Q 46.1875 37.015625 41.984375 42.703125 
Q 37.796875 48.390625 30.609375 48.390625 
z
M 30.609375 56 
Q 42.328125 56 49.015625 48.375 
Q 55.71875 40.765625 55.71875 27.296875 
Q 55.71875 13.875 49.015625 6.21875 
Q 42.328125 -1.421875 30.609375 -1.421875 
Q 18.84375 -1.421875 12.171875 6.21875 
Q 5.515625 13.875 5.515625 27.296875 
Q 5.515625 40.765625 12.171875 48.375 
Q 18.84375 56 30.609375 56 
z
" id="DejaVuSans-111"/>
      <path d="M 37.109375 75.984375 
L 37.109375 68.5 
L 28.515625 68.5 
Q 23.6875 68.5 21.796875 66.546875 
Q 19.921875 64.59375 19.921875 59.515625 
L 19.921875 54.6875 
L 34.71875 54.6875 
L 34.71875 47.703125 
L 19.921875 47.703125 
L 19.921875 0 
L 10.890625 0 
L 10.890625 47.703125 
L 2.296875 47.703125 
L 2.296875 54.6875 
L 10.890625 54.6875 
L 10.890625 58.5 
Q 10.890625 67.625 15.140625 71.796875 
Q 19.390625 75.984375 28.609375 75.984375 
z
" id="DejaVuSans-102"/>
      <path d="M 54.890625 33.015625 
L 54.890625 0 
L 45.90625 0 
L 45.90625 32.71875 
Q 45.90625 40.484375 42.875 44.328125 
Q 39.84375 48.1875 33.796875 48.1875 
Q 26.515625 48.1875 22.3125 43.546875 
Q 18.109375 38.921875 18.109375 30.90625 
L 18.109375 0 
L 9.078125 0 
L 9.078125 54.6875 
L 18.109375 54.6875 
L 18.109375 46.1875 
Q 21.34375 51.125 25.703125 53.5625 
Q 30.078125 56 35.796875 56 
Q 45.21875 56 50.046875 50.171875 
Q 54.890625 44.34375 54.890625 33.015625 
z
" id="DejaVuSans-110"/>
      <path d="M 44.28125 53.078125 
L 44.28125 44.578125 
Q 40.484375 46.53125 36.375 47.5 
Q 32.28125 48.484375 27.875 48.484375 
Q 21.1875 48.484375 17.84375 46.4375 
Q 14.5 44.390625 14.5 40.28125 
Q 14.5 37.15625 16.890625 35.375 
Q 19.28125 33.59375 26.515625 31.984375 
L 29.59375 31.296875 
Q 39.15625 29.25 43.1875 25.515625 
Q 47.21875 21.78125 47.21875 15.09375 
Q 47.21875 7.46875 41.1875 3.015625 
Q 35.15625 -1.421875 24.609375 -1.421875 
Q 20.21875 -1.421875 15.453125 -0.5625 
Q 10.6875 0.296875 5.421875 2 
L 5.421875 11.28125 
Q 10.40625 8.6875 15.234375 7.390625 
Q 20.0625 6.109375 24.8125 6.109375 
Q 31.15625 6.109375 34.5625 8.28125 
Q 37.984375 10.453125 37.984375 14.40625 
Q 37.984375 18.0625 35.515625 20.015625 
Q 33.0625 21.96875 24.703125 23.78125 
L 21.578125 24.515625 
Q 13.234375 26.265625 9.515625 29.90625 
Q 5.8125 33.546875 5.8125 39.890625 
Q 5.8125 47.609375 11.28125 51.796875 
Q 16.75 56 26.8125 56 
Q 31.78125 56 36.171875 55.265625 
Q 40.578125 54.546875 44.28125 53.078125 
z
" id="DejaVuSans-115"/>
      <path d="M 18.109375 8.203125 
L 18.109375 -20.796875 
L 9.078125 -20.796875 
L 9.078125 54.6875 
L 18.109375 54.6875 
L 18.109375 46.390625 
Q 20.953125 51.265625 25.265625 53.625 
Q 29.59375 56 35.59375 56 
Q 45.5625 56 51.78125 48.09375 
Q 58.015625 40.1875 58.015625 27.296875 
Q 58.015625 14.40625 51.78125 6.484375 
Q 45.5625 -1.421875 35.59375 -1.421875 
Q 29.59375 -1.421875 25.265625 0.953125 
Q 20.953125 3.328125 18.109375 8.203125 
z
M 48.6875 27.296875 
Q 48.6875 37.203125 44.609375 42.84375 
Q 40.53125 48.484375 33.40625 48.484375 
Q 26.265625 48.484375 22.1875 42.84375 
Q 18.109375 37.203125 18.109375 27.296875 
Q 18.109375 17.390625 22.1875 11.75 
Q 26.265625 6.109375 33.40625 6.109375 
Q 40.53125 6.109375 44.609375 11.75 
Q 48.6875 17.390625 48.6875 27.296875 
z
" id="DejaVuSans-112"/>
      <path d="M 45.40625 46.390625 
L 45.40625 75.984375 
L 54.390625 75.984375 
L 54.390625 0 
L 45.40625 0 
L 45.40625 8.203125 
Q 42.578125 3.328125 38.25 0.953125 
Q 33.9375 -1.421875 27.875 -1.421875 
Q 17.96875 -1.421875 11.734375 6.484375 
Q 5.515625 14.40625 5.515625 27.296875 
Q 5.515625 40.1875 11.734375 48.09375 
Q 17.96875 56 27.875 56 
Q 33.9375 56 38.25 53.625 
Q 42.578125 51.265625 45.40625 46.390625 
z
M 14.796875 27.296875 
Q 14.796875 17.390625 18.875 11.75 
Q 22.953125 6.109375 30.078125 6.109375 
Q 37.203125 6.109375 41.296875 11.75 
Q 45.40625 17.390625 45.40625 27.296875 
Q 45.40625 37.203125 41.296875 42.84375 
Q 37.203125 48.484375 30.078125 48.484375 
Q 22.953125 48.484375 18.875 42.84375 
Q 14.796875 37.203125 14.796875 27.296875 
z
" id="DejaVuSans-100"/>
     </defs>
     <g transform="translate(522.147656 532.276562)scale(0.1 -0.1)">
      <use xlink:href="#DejaVuSans-78"/>
      <use x="74.804688" xlink:href="#DejaVuSans-117"/>
      <use x="138.183594" xlink:href="#DejaVuSans-109"/>
      <use x="235.595703" xlink:href="#DejaVuSans-98"/>
      <use x="299.072266" xlink:href="#DejaVuSans-101"/>
      <use x="360.595703" xlink:href="#DejaVuSans-114"/>
      <use x="401.708984" xlink:href="#DejaVuSans-32"/>
      <use x="433.496094" xlink:href="#DejaVuSans-111"/>
      <use x="494.677734" xlink:href="#DejaVuSans-102"/>
      <use x="529.882812" xlink:href="#DejaVuSans-32"/>
      <use x="561.669922" xlink:href="#DejaVuSans-78"/>
      <use x="636.474609" xlink:href="#DejaVuSans-101"/>
      <use x="697.998047" xlink:href="#DejaVuSans-117"/>
      <use x="761.376953" xlink:href="#DejaVuSans-114"/>
      <use x="800.240234" xlink:href="#DejaVuSans-111"/>
      <use x="861.421875" xlink:href="#DejaVuSans-110"/>
      <use x="924.800781" xlink:href="#DejaVuSans-115"/>
      <use x="976.900391" xlink:href="#DejaVuSans-32"/>
      <use x="1008.6875" xlink:href="#DejaVuSans-112"/>
      <use x="1072.164062" xlink:href="#DejaVuSans-114"/>
      <use x="1113.277344" xlink:href="#DejaVuSans-117"/>
      <use x="1176.65625" xlink:href="#DejaVuSans-110"/>
      <use x="1240.035156" xlink:href="#DejaVuSans-101"/>
      <use x="1301.558594" xlink:href="#DejaVuSans-100"/>
     </g>
    </g>
   </g>
   <g id="matplotlib.axis_2">
    <g id="ytick_1">
     <g id="line2d_10">
      <defs>
       <path d="M 0 0 
L -3.5 0 
" id="m43a119e6ad" style="stroke:#000000;stroke-width:0.8;"/>
      </defs>
      <g>
       <use style="stroke:#000000;stroke-width:0.8;" x="144" xlink:href="#m43a119e6ad" y="485.872985"/>
      </g>
     </g>
     <g id="text_11">
      <!-- 0 -->
      <g transform="translate(130.6375 489.672203)scale(0.1 -0.1)">
       <use xlink:href="#DejaVuSans-48"/>
      </g>
     </g>
    </g>
    <g id="ytick_2">
     <g id="line2d_11">
      <g>
       <use style="stroke:#000000;stroke-width:0.8;" x="144" xlink:href="#m43a119e6ad" y="432.339313"/>
      </g>
     </g>
     <g id="text_12">
      <!-- 1 -->
      <g transform="translate(130.6375 436.138532)scale(0.1 -0.1)">
       <use xlink:href="#DejaVuSans-49"/>
      </g>
     </g>
    </g>
    <g id="ytick_3">
     <g id="line2d_12">
      <g>
       <use style="stroke:#000000;stroke-width:0.8;" x="144" xlink:href="#m43a119e6ad" y="378.805642"/>
      </g>
     </g>
     <g id="text_13">
      <!-- 2 -->
      <g transform="translate(130.6375 382.604861)scale(0.1 -0.1)">
       <use xlink:href="#DejaVuSans-50"/>
      </g>
     </g>
    </g>
    <g id="ytick_4">
     <g id="line2d_13">
      <g>
       <use style="stroke:#000000;stroke-width:0.8;" x="144" xlink:href="#m43a119e6ad" y="325.271971"/>
      </g>
     </g>
     <g id="text_14">
      <!-- 3 -->
      <g transform="translate(130.6375 329.07119)scale(0.1 -0.1)">
       <use xlink:href="#DejaVuSans-51"/>
      </g>
     </g>
    </g>
    <g id="ytick_5">
     <g id="line2d_14">
      <g>
       <use style="stroke:#000000;stroke-width:0.8;" x="144" xlink:href="#m43a119e6ad" y="271.7383"/>
      </g>
     </g>
     <g id="text_15">
      <!-- 4 -->
      <g transform="translate(130.6375 275.537519)scale(0.1 -0.1)">
       <use xlink:href="#DejaVuSans-52"/>
      </g>
     </g>
    </g>
    <g id="ytick_6">
     <g id="line2d_15">
      <g>
       <use style="stroke:#000000;stroke-width:0.8;" x="144" xlink:href="#m43a119e6ad" y="218.204629"/>
      </g>
     </g>
     <g id="text_16">
      <!-- 5 -->
      <g transform="translate(130.6375 222.003848)scale(0.1 -0.1)">
       <use xlink:href="#DejaVuSans-53"/>
      </g>
     </g>
    </g>
    <g id="ytick_7">
     <g id="line2d_16">
      <g>
       <use style="stroke:#000000;stroke-width:0.8;" x="144" xlink:href="#m43a119e6ad" y="164.670958"/>
      </g>
     </g>
     <g id="text_17">
      <!-- 6 -->
      <defs>
       <path d="M 33.015625 40.375 
Q 26.375 40.375 22.484375 35.828125 
Q 18.609375 31.296875 18.609375 23.390625 
Q 18.609375 15.53125 22.484375 10.953125 
Q 26.375 6.390625 33.015625 6.390625 
Q 39.65625 6.390625 43.53125 10.953125 
Q 47.40625 15.53125 47.40625 23.390625 
Q 47.40625 31.296875 43.53125 35.828125 
Q 39.65625 40.375 33.015625 40.375 
z
M 52.59375 71.296875 
L 52.59375 62.3125 
Q 48.875 64.0625 45.09375 64.984375 
Q 41.3125 65.921875 37.59375 65.921875 
Q 27.828125 65.921875 22.671875 59.328125 
Q 17.53125 52.734375 16.796875 39.40625 
Q 19.671875 43.65625 24.015625 45.921875 
Q 28.375 48.1875 33.59375 48.1875 
Q 44.578125 48.1875 50.953125 41.515625 
Q 57.328125 34.859375 57.328125 23.390625 
Q 57.328125 12.15625 50.6875 5.359375 
Q 44.046875 -1.421875 33.015625 -1.421875 
Q 20.359375 -1.421875 13.671875 8.265625 
Q 6.984375 17.96875 6.984375 36.375 
Q 6.984375 53.65625 15.1875 63.9375 
Q 23.390625 74.21875 37.203125 74.21875 
Q 40.921875 74.21875 44.703125 73.484375 
Q 48.484375 72.75 52.59375 71.296875 
z
" id="DejaVuSans-54"/>
      </defs>
      <g transform="translate(130.6375 168.470176)scale(0.1 -0.1)">
       <use xlink:href="#DejaVuSans-54"/>
      </g>
     </g>
    </g>
    <g id="ytick_8">
     <g id="line2d_17">
      <g>
       <use style="stroke:#000000;stroke-width:0.8;" x="144" xlink:href="#m43a119e6ad" y="111.137286"/>
      </g>
     </g>
     <g id="text_18">
      <!-- 7 -->
      <defs>
       <path d="M 8.203125 72.90625 
L 55.078125 72.90625 
L 55.078125 68.703125 
L 28.609375 0 
L 18.3125 0 
L 43.21875 64.59375 
L 8.203125 64.59375 
z
" id="DejaVuSans-55"/>
      </defs>
      <g transform="translate(130.6375 114.936505)scale(0.1 -0.1)">
       <use xlink:href="#DejaVuSans-55"/>
      </g>
     </g>
    </g>
    <g id="text_19">
     <!-- Loss -->
     <defs>
      <path d="M 9.8125 72.90625 
L 19.671875 72.90625 
L 19.671875 8.296875 
L 55.171875 8.296875 
L 55.171875 0 
L 9.8125 0 
z
" id="DejaVuSans-76"/>
     </defs>
     <g transform="translate(124.557812 297.527188)rotate(-90)scale(0.1 -0.1)">
      <use xlink:href="#DejaVuSans-76"/>
      <use x="53.962891" xlink:href="#DejaVuSans-111"/>
      <use x="115.144531" xlink:href="#DejaVuSans-115"/>
      <use x="167.244141" xlink:href="#DejaVuSans-115"/>
     </g>
    </g>
   </g>
   <g id="line2d_18">
    <path clip-path="url(#p39cc176343)" d="M 184.581818 484.057636 
L 194.855696 483.898762 
L 205.129574 483.389651 
L 215.403452 482.573113 
L 225.67733 482.404292 
L 235.951208 482.331161 
L 246.225086 482.32704 
L 256.498964 481.693206 
L 266.772842 477.337323 
L 277.04672 475.176444 
L 287.320598 471.143726 
L 297.594476 463.266557 
L 307.868354 459.911224 
L 318.142232 459.995185 
L 328.41611 456.902145 
L 338.689988 450.116092 
L 348.963867 440.510884 
L 359.237745 437.784754 
L 369.511623 436.637798 
L 379.785501 433.387439 
L 390.059379 428.332199 
L 400.333257 424.808358 
L 410.607135 412.035779 
L 420.881013 398.477075 
L 431.154891 389.369461 
L 441.428769 381.669601 
L 451.702647 367.853095 
L 461.976525 374.804386 
L 472.250403 380.427363 
L 482.524281 371.730405 
L 492.798159 372.789527 
L 503.072037 370.808937 
L 513.345915 374.206496 
L 523.619793 361.467351 
L 533.893671 354.491451 
L 544.167549 351.699083 
L 554.441427 349.198014 
L 564.715305 374.551007 
L 574.989183 365.681462 
L 585.263061 359.45738 
L 595.536939 351.619273 
L 605.810817 346.272395 
L 616.084695 338.153608 
L 626.358573 337.315625 
L 636.632451 325.720784 
L 646.906329 312.044165 
L 657.180207 303.440036 
L 667.454085 275.642414 
L 677.727963 266.543996 
L 688.001841 238.994379 
L 698.275719 223.870184 
L 708.549597 225.755341 
L 718.823475 188.30279 
L 729.097353 206.068835 
L 739.371231 180.456502 
L 749.645109 177.546978 
L 759.918987 168.541031 
L 770.192865 134.651568 
L 780.466743 127.784286 
L 790.740621 121.778687 
L 801.014499 116.261366 
L 811.288377 201.424992 
L 821.562255 171.799278 
L 831.836133 183.019295 
L 842.110012 165.96596 
L 852.38389 162.161822 
L 862.657768 141.237162 
L 872.931646 121.036188 
L 883.205524 126.420616 
L 893.479402 88.887273 
L 903.75328 154.638832 
L 914.027158 166.116926 
L 924.301036 159.016124 
L 934.574914 212.018811 
L 944.848792 177.974808 
L 955.12267 262.280911 
L 965.396548 276.711516 
L 975.670426 297.698347 
L 985.944304 316.958759 
L 996.218182 325.311142 
" style="fill:none;stroke:#1f77b4;stroke-linecap:square;stroke-width:1.5;"/>
   </g>
   <g id="line2d_19">
    <path clip-path="url(#p39cc176343)" d="M 184.581818 484.080919 
L 194.855696 484.070522 
L 205.129574 484.01224 
L 215.403452 483.925141 
L 225.67733 483.803993 
L 235.951208 483.73398 
L 246.225086 483.728406 
L 256.498964 483.464276 
L 266.772842 483.192379 
L 277.04672 482.945299 
L 287.320598 482.660999 
L 297.594476 482.18278 
L 307.868354 481.401688 
L 318.142232 480.081471 
L 328.41611 479.199921 
L 338.689988 478.832552 
L 348.963867 476.674861 
L 359.237745 475.822611 
L 369.511623 476.102545 
L 379.785501 475.053988 
L 390.059379 470.989274 
L 400.333257 469.88105 
L 410.607135 467.879231 
L 420.881013 465.957983 
L 431.154891 460.426008 
L 441.428769 458.721638 
L 451.702647 451.563126 
L 461.976525 446.399441 
L 472.250403 440.343992 
L 482.524281 444.572294 
L 492.798159 438.837229 
L 503.072037 436.915086 
L 513.345915 430.343663 
L 523.619793 423.957498 
L 533.893671 421.021413 
L 544.167549 419.31973 
L 554.441427 414.022578 
L 564.715305 406.676054 
L 574.989183 400.169402 
L 585.263061 392.826229 
L 595.536939 388.495096 
L 605.810817 379.149265 
L 616.084695 382.325124 
L 626.358573 381.475354 
L 636.632451 376.878391 
L 646.906329 370.749932 
L 657.180207 367.203041 
L 667.454085 362.233628 
L 677.727963 356.814828 
L 688.001841 354.18661 
L 698.275719 338.612734 
L 708.549597 358.664439 
L 718.823475 367.156059 
L 729.097353 357.308466 
L 739.371231 360.548959 
L 749.645109 356.911932 
L 759.918987 358.911233 
L 770.192865 352.416693 
L 780.466743 355.803965 
L 790.740621 351.89689 
L 801.014499 355.612399 
L 811.288377 354.963698 
L 821.562255 344.52849 
L 831.836133 358.422445 
L 842.110012 357.677635 
L 852.38389 360.335797 
L 862.657768 356.206945 
L 872.931646 355.406972 
L 883.205524 360.430986 
L 893.479402 360.075959 
L 903.75328 358.685537 
L 914.027158 358.499191 
L 924.301036 358.830287 
L 934.574914 357.644923 
L 944.848792 356.867094 
L 955.12267 356.130134 
L 965.396548 359.691665 
L 975.670426 359.211186 
L 985.944304 358.609391 
L 996.218182 362.221911 
" style="fill:none;stroke:#ff7f0e;stroke-linecap:square;stroke-width:1.5;"/>
   </g>
   <g id="line2d_20">
    <path clip-path="url(#p39cc176343)" d="M 184.581818 484.045664 
L 194.855696 484.025461 
L 205.129574 483.990774 
L 215.403452 483.87375 
L 225.67733 483.805419 
L 235.951208 483.740387 
L 246.225086 483.632075 
L 256.498964 483.447525 
L 266.772842 483.215785 
L 277.04672 482.771733 
L 287.320598 482.271676 
L 297.594476 481.50309 
L 307.868354 481.378639 
L 318.142232 480.400829 
L 328.41611 479.666713 
L 338.689988 478.695077 
L 348.963867 476.095529 
L 359.237745 473.246221 
L 369.511623 469.713846 
L 379.785501 469.150258 
L 390.059379 464.518456 
L 400.333257 463.903495 
L 410.607135 462.688385 
L 420.881013 460.06338 
L 431.154891 455.875312 
L 441.428769 451.403756 
L 451.702647 449.328666 
L 461.976525 443.156821 
L 472.250403 438.790588 
L 482.524281 437.863463 
L 492.798159 432.051466 
L 503.072037 427.722082 
L 513.345915 422.817124 
L 523.619793 417.411758 
L 533.893671 412.954567 
L 544.167549 405.826042 
L 554.441427 402.806102 
L 564.715305 396.714421 
L 574.989183 394.480196 
L 585.263061 390.406106 
L 595.536939 387.290006 
L 605.810817 386.089695 
L 616.084695 386.500486 
L 626.358573 381.221375 
L 636.632451 376.13071 
L 646.906329 374.592513 
L 657.180207 374.508173 
L 667.454085 372.417179 
L 677.727963 372.977609 
L 688.001841 373.228882 
L 698.275719 371.525093 
L 708.549597 369.974133 
L 718.823475 365.134703 
L 729.097353 364.197663 
L 739.371231 364.06232 
L 749.645109 363.722494 
L 759.918987 365.00643 
L 770.192865 362.541482 
L 780.466743 362.541482 
L 790.740621 362.541482 
L 801.014499 362.541482 
L 811.288377 362.541482 
L 821.562255 362.541482 
L 831.836133 362.541482 
L 842.110012 362.541482 
L 852.38389 362.541482 
L 862.657768 362.541482 
L 872.931646 362.541482 
L 883.205524 362.541482 
L 893.479402 362.541482 
L 903.75328 362.541482 
L 914.027158 362.541482 
L 924.301036 362.541482 
L 934.574914 362.541482 
L 944.848792 362.541482 
L 955.12267 362.541482 
L 965.396548 362.541482 
L 975.670426 362.541482 
L 985.944304 362.541482 
L 996.218182 362.541482 
" style="fill:none;stroke:#2ca02c;stroke-linecap:square;stroke-width:1.5;"/>
   </g>
   <g id="line2d_21">
    <path clip-path="url(#p39cc176343)" d="M 184.581818 484.097157 
L 194.855696 484.001832 
L 205.129574 483.834821 
L 215.403452 483.756935 
L 225.67733 483.60944 
L 235.951208 483.272684 
L 246.225086 482.895615 
L 256.498964 482.651979 
L 266.772842 482.273948 
L 277.04672 481.380941 
L 287.320598 480.68841 
L 297.594476 480.939562 
L 307.868354 480.556244 
L 318.142232 479.785924 
L 328.41611 478.645579 
L 338.689988 476.310893 
L 348.963867 475.905379 
L 359.237745 472.997258 
L 369.511623 471.145119 
L 379.785501 466.690169 
L 390.059379 462.17367 
L 400.333257 459.659833 
L 410.607135 454.660668 
L 420.881013 447.451221 
L 431.154891 442.900774 
L 441.428769 441.33332 
L 451.702647 436.937588 
L 461.976525 432.647116 
L 472.250403 431.095397 
L 482.524281 430.182059 
L 492.798159 422.530745 
L 503.072037 419.48903 
L 513.345915 410.579938 
L 523.619793 403.032895 
L 533.893671 392.917596 
L 544.167549 387.856051 
L 554.441427 374.083342 
L 564.715305 380.449967 
L 574.989183 371.330923 
L 585.263061 356.139962 
L 595.536939 344.037264 
L 605.810817 336.197001 
L 616.084695 334.568133 
L 626.358573 313.977466 
L 636.632451 309.875762 
L 646.906329 321.365266 
L 657.180207 302.510757 
L 667.454085 279.812326 
L 677.727963 281.803317 
L 688.001841 290.76495 
L 698.275719 278.134548 
L 708.549597 265.169937 
L 718.823475 259.825279 
L 729.097353 256.260839 
L 739.371231 247.495074 
L 749.645109 271.193914 
L 759.918987 257.384173 
L 770.192865 249.587815 
L 780.466743 261.03252 
L 790.740621 245.234187 
L 801.014499 239.174165 
L 811.288377 233.900472 
L 821.562255 228.379705 
L 831.836133 226.783384 
L 842.110012 240.933935 
L 852.38389 244.99477 
L 862.657768 270.127658 
L 872.931646 257.931647 
L 883.205524 251.486272 
L 893.479402 268.096743 
L 903.75328 264.177759 
L 914.027158 290.51799 
L 924.301036 310.518017 
L 934.574914 304.921997 
L 944.848792 337.740941 
L 955.12267 340.405037 
L 965.396548 339.109333 
L 975.670426 335.325667 
L 985.944304 353.730981 
L 996.218182 354.017137 
" style="fill:none;stroke:#d62728;stroke-dasharray:5.55,2.4;stroke-dashoffset:0;stroke-width:1.5;"/>
   </g>
   <g id="line2d_22">
    <path clip-path="url(#p39cc176343)" d="M 184.581818 483.993086 
L 194.855696 483.301938 
L 205.129574 481.813411 
L 215.403452 479.967681 
L 225.67733 477.948017 
L 235.951208 474.837557 
L 246.225086 469.504209 
L 256.498964 466.693745 
L 266.772842 463.609483 
L 277.04672 455.046057 
L 287.320598 449.446929 
L 297.594476 442.251629 
L 307.868354 431.365209 
L 318.142232 424.156511 
L 328.41611 416.500079 
L 338.689988 410.464685 
L 348.963867 407.925612 
L 359.237745 403.006634 
L 369.511623 401.860881 
L 379.785501 396.059 
L 390.059379 394.138979 
L 400.333257 386.707126 
L 410.607135 380.734457 
L 420.881013 377.743879 
L 431.154891 373.880097 
L 441.428769 373.164695 
L 451.702647 373.197484 
L 461.976525 370.170383 
L 472.250403 369.182775 
L 482.524281 366.920331 
L 492.798159 366.648062 
L 503.072037 366.15907 
L 513.345915 365.632412 
L 523.619793 363.891086 
L 533.893671 363.825865 
L 544.167549 363.652206 
L 554.441427 363.513046 
L 564.715305 363.155683 
L 574.989183 363.161669 
L 585.263061 363.20832 
L 595.536939 363.335099 
L 605.810817 363.181299 
L 616.084695 363.151969 
L 626.358573 362.541482 
L 636.632451 362.541482 
L 646.906329 362.541482 
L 657.180207 362.541482 
L 667.454085 362.541482 
L 677.727963 362.541482 
L 688.001841 362.541482 
L 698.275719 362.541482 
L 708.549597 362.541482 
L 718.823475 362.541482 
L 729.097353 362.541482 
L 739.371231 362.541482 
L 749.645109 362.541482 
L 759.918987 362.541482 
L 770.192865 362.541482 
L 780.466743 362.541482 
L 790.740621 362.541482 
L 801.014499 362.541482 
L 811.288377 362.541482 
L 821.562255 362.541482 
L 831.836133 362.541482 
L 842.110012 362.541482 
L 852.38389 362.541482 
L 862.657768 362.541482 
L 872.931646 362.541482 
L 883.205524 362.541482 
L 893.479402 362.541482 
L 903.75328 362.541482 
L 914.027158 362.541482 
L 924.301036 362.541482 
L 934.574914 362.541482 
L 944.848792 362.541482 
L 955.12267 362.541482 
L 965.396548 362.541482 
L 975.670426 362.541482 
L 985.944304 362.541482 
L 996.218182 362.541482 
" style="fill:none;stroke:#9467bd;stroke-dasharray:5.55,2.4;stroke-dashoffset:0;stroke-width:1.5;"/>
   </g>
   <g id="line2d_23">
    <path clip-path="url(#p39cc176343)" d="M 184.581818 484.166437 
L 194.855696 484.043084 
L 205.129574 483.960916 
L 215.403452 483.798409 
L 225.67733 483.682384 
L 235.951208 483.507225 
L 246.225086 483.384927 
L 256.498964 482.967848 
L 266.772842 482.717064 
L 277.04672 482.627606 
L 287.320598 482.340427 
L 297.594476 482.074108 
L 307.868354 481.949693 
L 318.142232 481.600059 
L 328.41611 481.107259 
L 338.689988 480.62055 
L 348.963867 479.806427 
L 359.237745 478.759946 
L 369.511623 477.401779 
L 379.785501 477.159589 
L 390.059379 475.634664 
L 400.333257 474.347958 
L 410.607135 472.016762 
L 420.881013 470.419711 
L 431.154891 468.707473 
L 441.428769 462.060765 
L 451.702647 461.572285 
L 461.976525 461.709359 
L 472.250403 461.027631 
L 482.524281 459.858543 
L 492.798159 457.936228 
L 503.072037 457.204109 
L 513.345915 456.035346 
L 523.619793 452.317151 
L 533.893671 451.600727 
L 544.167549 448.983856 
L 554.441427 447.56575 
L 564.715305 445.389692 
L 574.989183 444.425151 
L 585.263061 444.238269 
L 595.536939 442.516406 
L 605.810817 439.354275 
L 616.084695 437.701504 
L 626.358573 434.512544 
L 636.632451 432.709188 
L 646.906329 429.162255 
L 657.180207 425.376758 
L 667.454085 418.254597 
L 677.727963 416.971637 
L 688.001841 413.749249 
L 698.275719 412.315381 
L 708.549597 406.431552 
L 718.823475 400.897645 
L 729.097353 389.834438 
L 739.371231 392.442069 
L 749.645109 379.480444 
L 759.918987 369.487438 
L 770.192865 369.609444 
L 780.466743 370.741151 
L 790.740621 357.371977 
L 801.014499 353.974597 
L 811.288377 349.753975 
L 821.562255 340.763051 
L 831.836133 333.819711 
L 842.110012 329.080997 
L 852.38389 330.511024 
L 862.657768 336.328094 
L 872.931646 332.233601 
L 883.205524 328.086076 
L 893.479402 333.332493 
L 903.75328 322.9422 
L 914.027158 291.081891 
L 924.301036 282.865017 
L 934.574914 297.000239 
L 944.848792 299.028078 
L 955.12267 362.590098 
L 965.396548 362.590098 
L 975.670426 362.590098 
L 985.944304 362.590098 
L 996.218182 362.590098 
" style="fill:none;stroke:#8c564b;stroke-linecap:square;stroke-width:1.5;"/>
   </g>
   <g id="line2d_24">
    <path clip-path="url(#p39cc176343)" d="M 184.581818 484.231856 
L 194.855696 484.188098 
L 205.129574 484.131993 
L 215.403452 484.080436 
L 225.67733 484.011719 
L 235.951208 483.941054 
L 246.225086 483.82992 
L 256.498964 483.775871 
L 266.772842 483.707876 
L 277.04672 483.53917 
L 287.320598 483.326538 
L 297.594476 483.252649 
L 307.868354 482.884189 
L 318.142232 482.398615 
L 328.41611 482.300766 
L 338.689988 482.072246 
L 348.963867 481.702004 
L 359.237745 481.306163 
L 369.511623 481.197817 
L 379.785501 480.761908 
L 390.059379 480.063417 
L 400.333257 479.09825 
L 410.607135 478.413422 
L 420.881013 476.473974 
L 431.154891 474.883717 
L 441.428769 473.148164 
L 451.702647 471.723458 
L 461.976525 468.855379 
L 472.250403 466.731606 
L 482.524281 463.107494 
L 492.798159 460.743592 
L 503.072037 461.018483 
L 513.345915 458.959944 
L 523.619793 454.736359 
L 533.893671 452.139832 
L 544.167549 449.399615 
L 554.441427 446.761881 
L 564.715305 438.554991 
L 574.989183 436.063673 
L 585.263061 431.26619 
L 595.536939 424.786782 
L 605.810817 422.199662 
L 616.084695 420.54743 
L 626.358573 417.933935 
L 636.632451 415.260847 
L 646.906329 406.555006 
L 657.180207 403.881197 
L 667.454085 402.343881 
L 677.727963 401.996346 
L 688.001841 399.128315 
L 698.275719 393.270473 
L 708.549597 391.137086 
L 718.823475 391.536505 
L 729.097353 389.441899 
L 739.371231 384.936833 
L 749.645109 383.810595 
L 759.918987 380.857701 
L 770.192865 377.782603 
L 780.466743 378.362471 
L 790.740621 375.275318 
L 801.014499 372.226953 
L 811.288377 372.223163 
L 821.562255 370.678367 
L 831.836133 369.494343 
L 842.110012 368.931259 
L 852.38389 370.249682 
L 862.657768 369.243695 
L 872.931646 369.606074 
L 883.205524 366.110645 
L 893.479402 364.421521 
L 903.75328 364.824424 
L 914.027158 363.973117 
L 924.301036 363.420473 
L 934.574914 363.628147 
L 944.848792 362.603244 
L 955.12267 362.400127 
L 965.396548 362.304197 
L 975.670426 362.102458 
L 985.944304 362.44836 
L 996.218182 362.70054 
" style="fill:none;stroke:#e377c2;stroke-linecap:square;stroke-width:1.5;"/>
   </g>
   <g id="line2d_25">
    <path clip-path="url(#p39cc176343)" d="M 184.581818 484.231856 
L 194.855696 484.196035 
L 205.129574 484.076587 
L 215.403452 483.801704 
L 225.67733 483.568746 
L 235.951208 482.857017 
L 246.225086 482.271298 
L 256.498964 481.323611 
L 266.772842 480.54323 
L 277.04672 479.242614 
L 287.320598 478.644918 
L 297.594476 477.143734 
L 307.868354 475.839206 
L 318.142232 474.797924 
L 328.41611 471.462529 
L 338.689988 469.785941 
L 348.963867 466.828416 
L 359.237745 465.808554 
L 369.511623 459.649957 
L 379.785501 455.117736 
L 390.059379 451.691099 
L 400.333257 451.20882 
L 410.607135 449.596918 
L 420.881013 443.599791 
L 431.154891 440.525313 
L 441.428769 434.920262 
L 451.702647 433.915583 
L 461.976525 433.481372 
L 472.250403 429.366834 
L 482.524281 428.693959 
L 492.798159 427.695317 
L 503.072037 421.206782 
L 513.345915 414.387516 
L 523.619793 413.90347 
L 533.893671 411.259233 
L 544.167549 405.256685 
L 554.441427 405.143812 
L 564.715305 401.286438 
L 574.989183 393.621505 
L 585.263061 385.379704 
L 595.536939 385.24609 
L 605.810817 380.82897 
L 616.084695 377.371174 
L 626.358573 376.950619 
L 636.632451 373.192953 
L 646.906329 372.033894 
L 657.180207 372.167476 
L 667.454085 371.851351 
L 677.727963 371.516797 
L 688.001841 371.453184 
L 698.275719 371.070434 
L 708.549597 370.218323 
L 718.823475 370.10432 
L 729.097353 366.36548 
L 739.371231 366.544997 
L 749.645109 365.898019 
L 759.918987 366.098571 
L 770.192865 365.925792 
L 780.466743 365.719127 
L 790.740621 365.654863 
L 801.014499 365.94287 
L 811.288377 366.087301 
L 821.562255 365.553139 
L 831.836133 365.853717 
L 842.110012 365.408019 
L 852.38389 363.062012 
L 862.657768 362.745365 
L 872.931646 362.950894 
L 883.205524 362.783323 
L 893.479402 363.180355 
L 903.75328 362.970563 
L 914.027158 363.288704 
L 924.301036 362.999842 
L 934.574914 362.54346 
L 944.848792 362.377 
L 955.12267 362.450032 
L 965.396548 362.575203 
L 975.670426 362.590098 
L 985.944304 362.590098 
L 996.218182 362.590098 
" style="fill:none;stroke:#7f7f7f;stroke-linecap:square;stroke-width:1.5;"/>
   </g>
   <g id="line2d_26">
    <path clip-path="url(#p39cc176343)" d="M 184.581818 484.232727 
L 194.855696 484.193298 
L 205.129574 484.142245 
L 215.403452 484.042479 
L 225.67733 483.965232 
L 235.951208 483.855036 
L 246.225086 483.777232 
L 256.498964 483.729216 
L 266.772842 483.71112 
L 277.04672 483.582736 
L 287.320598 483.456818 
L 297.594476 483.155086 
L 307.868354 482.777259 
L 318.142232 482.659301 
L 328.41611 482.273482 
L 338.689988 482.065452 
L 348.963867 482.109002 
L 359.237745 481.203544 
L 369.511623 480.396614 
L 379.785501 480.241573 
L 390.059379 479.990078 
L 400.333257 478.949541 
L 410.607135 478.989615 
L 420.881013 476.790676 
L 431.154891 475.381805 
L 441.428769 473.002391 
L 451.702647 472.64919 
L 461.976525 471.374727 
L 472.250403 471.001569 
L 482.524281 470.203062 
L 492.798159 468.365351 
L 503.072037 466.481958 
L 513.345915 463.275831 
L 523.619793 460.747259 
L 533.893671 459.660715 
L 544.167549 454.065593 
L 554.441427 453.77266 
L 564.715305 452.051193 
L 574.989183 448.055234 
L 585.263061 446.535203 
L 595.536939 446.218858 
L 605.810817 443.601119 
L 616.084695 440.678426 
L 626.358573 436.713865 
L 636.632451 434.280158 
L 646.906329 432.711718 
L 657.180207 433.990469 
L 667.454085 431.290122 
L 677.727963 432.118596 
L 688.001841 427.214697 
L 698.275719 427.126968 
L 708.549597 423.321388 
L 718.823475 423.240181 
L 729.097353 422.070215 
L 739.371231 416.683343 
L 749.645109 412.065065 
L 759.918987 404.981538 
L 770.192865 402.428707 
L 780.466743 398.56504 
L 790.740621 392.770536 
L 801.014499 392.532824 
L 811.288377 387.315354 
L 821.562255 383.759541 
L 831.836133 384.502985 
L 842.110012 383.886856 
L 852.38389 380.710698 
L 862.657768 381.363011 
L 872.931646 378.766714 
L 883.205524 375.239657 
L 893.479402 372.906772 
L 903.75328 372.07115 
L 914.027158 370.113714 
L 924.301036 367.903102 
L 934.574914 365.700671 
L 944.848792 362.706806 
L 955.12267 362.967423 
L 965.396548 361.841804 
L 975.670426 362.208293 
L 985.944304 361.632637 
L 996.218182 361.326621 
" style="fill:none;stroke:#bcbd22;stroke-dasharray:5.55,2.4;stroke-dashoffset:0;stroke-width:1.5;"/>
   </g>
   <g id="line2d_27">
    <path clip-path="url(#p39cc176343)" d="M 184.581818 484.231856 
L 194.855696 484.199909 
L 205.129574 484.157171 
L 215.403452 484.089445 
L 225.67733 484.02554 
L 235.951208 483.931472 
L 246.225086 483.889852 
L 256.498964 483.806364 
L 266.772842 483.675401 
L 277.04672 483.572576 
L 287.320598 483.484309 
L 297.594476 483.436166 
L 307.868354 483.191282 
L 318.142232 482.976881 
L 328.41611 482.900787 
L 338.689988 482.707973 
L 348.963867 482.486797 
L 359.237745 482.122761 
L 369.511623 482.106525 
L 379.785501 481.72301 
L 390.059379 481.794631 
L 400.333257 481.360817 
L 410.607135 480.82531 
L 420.881013 480.430622 
L 431.154891 480.021281 
L 441.428769 479.700702 
L 451.702647 478.762017 
L 461.976525 477.572363 
L 472.250403 476.168639 
L 482.524281 475.873998 
L 492.798159 473.343263 
L 503.072037 471.141896 
L 513.345915 469.145046 
L 523.619793 468.470319 
L 533.893671 466.798942 
L 544.167549 464.081163 
L 554.441427 461.272547 
L 564.715305 456.317849 
L 574.989183 455.954334 
L 585.263061 451.841161 
L 595.536939 447.429947 
L 605.810817 446.385373 
L 616.084695 444.664143 
L 626.358573 441.691392 
L 636.632451 436.307691 
L 646.906329 437.715155 
L 657.180207 433.407497 
L 667.454085 429.001359 
L 677.727963 425.588593 
L 688.001841 426.409638 
L 698.275719 423.050663 
L 708.549597 418.468352 
L 718.823475 417.85059 
L 729.097353 415.976249 
L 739.371231 413.695866 
L 749.645109 410.187565 
L 759.918987 404.718656 
L 770.192865 402.771487 
L 780.466743 394.978066 
L 790.740621 392.559997 
L 801.014499 388.842255 
L 811.288377 385.485251 
L 821.562255 386.326125 
L 831.836133 384.928575 
L 842.110012 383.852586 
L 852.38389 383.445918 
L 862.657768 382.901309 
L 872.931646 382.795482 
L 883.205524 381.19879 
L 893.479402 377.591049 
L 903.75328 374.341023 
L 914.027158 371.672383 
L 924.301036 371.872603 
L 934.574914 371.204067 
L 944.848792 370.273563 
L 955.12267 367.718351 
L 965.396548 366.858148 
L 975.670426 364.912747 
L 985.944304 363.297855 
L 996.218182 361.876227 
" style="fill:none;stroke:#17becf;stroke-dasharray:5.55,2.4;stroke-dashoffset:0;stroke-width:1.5;"/>
   </g>
   <g id="line2d_28">
    <path clip-path="url(#p39cc176343)" d="M 184.581818 484.165906 
L 194.855696 483.600579 
L 205.129574 482.587605 
L 215.403452 481.207325 
L 225.67733 479.704136 
L 235.951208 477.326337 
L 246.225086 474.653134 
L 256.498964 469.593979 
L 266.772842 464.538868 
L 277.04672 456.566652 
L 287.320598 449.227082 
L 297.594476 440.792757 
L 307.868354 431.022766 
L 318.142232 426.480156 
L 328.41611 425.157234 
L 338.689988 413.859002 
L 348.963867 412.384367 
L 359.237745 408.640064 
L 369.511623 407.045964 
L 379.785501 401.105906 
L 390.059379 396.502969 
L 400.333257 391.177597 
L 410.607135 390.785486 
L 420.881013 390.656932 
L 431.154891 389.493362 
L 441.428769 378.954776 
L 451.702647 376.110582 
L 461.976525 375.495487 
L 472.250403 372.321709 
L 482.524281 372.091036 
L 492.798159 368.278819 
L 503.072037 365.172763 
L 513.345915 364.867411 
L 523.619793 362.590098 
L 533.893671 362.590098 
L 544.167549 362.590098 
L 554.441427 362.590098 
L 564.715305 362.590098 
L 574.989183 362.590098 
L 585.263061 362.590098 
L 595.536939 362.590098 
L 605.810817 362.590098 
L 616.084695 362.590098 
L 626.358573 362.590098 
L 636.632451 362.590098 
L 646.906329 362.590098 
L 657.180207 362.590098 
L 667.454085 362.590098 
L 677.727963 362.590098 
L 688.001841 362.590098 
L 698.275719 362.590098 
L 708.549597 362.590098 
L 718.823475 362.590098 
L 729.097353 362.590098 
L 739.371231 362.590098 
L 749.645109 362.590098 
L 759.918987 362.590098 
L 770.192865 362.590098 
L 780.466743 362.590098 
L 790.740621 362.590098 
L 801.014499 362.590098 
L 811.288377 362.590098 
L 821.562255 362.590098 
L 831.836133 362.590098 
L 842.110012 362.590098 
L 852.38389 362.590098 
L 862.657768 362.590098 
L 872.931646 362.590098 
L 883.205524 362.590098 
L 893.479402 362.590098 
L 903.75328 362.590098 
L 914.027158 362.590098 
L 924.301036 362.590098 
L 934.574914 362.590098 
L 944.848792 362.590098 
L 955.12267 362.590098 
L 965.396548 362.590098 
L 975.670426 362.590098 
L 985.944304 362.590098 
L 996.218182 362.590098 
" style="fill:none;stroke:#1f77b4;stroke-dasharray:5.55,2.4;stroke-dashoffset:0;stroke-width:1.5;"/>
   </g>
   <g id="patch_3">
    <path d="M 144 504 
L 144 69.12 
" style="fill:none;stroke:#000000;stroke-linecap:square;stroke-linejoin:miter;stroke-width:0.8;"/>
   </g>
   <g id="patch_4">
    <path d="M 1036.8 504 
L 1036.8 69.12 
" style="fill:none;stroke:#000000;stroke-linecap:square;stroke-linejoin:miter;stroke-width:0.8;"/>
   </g>
   <g id="patch_5">
    <path d="M 144 504 
L 1036.8 504 
" style="fill:none;stroke:#000000;stroke-linecap:square;stroke-linejoin:miter;stroke-width:0.8;"/>
   </g>
   <g id="patch_6">
    <path d="M 144 69.12 
L 1036.8 69.12 
" style="fill:none;stroke:#000000;stroke-linecap:square;stroke-linejoin:miter;stroke-width:0.8;"/>
   </g>
   <g id="legend_1">
    <g id="patch_7">
     <path d="M 151 240.52625 
L 300.879687 240.52625 
Q 302.879687 240.52625 302.879687 238.52625 
L 302.879687 76.12 
Q 302.879687 74.12 300.879687 74.12 
L 151 74.12 
Q 149 74.12 149 76.12 
L 149 238.52625 
Q 149 240.52625 151 240.52625 
z
" style="fill:#ffffff;opacity:0.8;stroke:#cccccc;stroke-linejoin:miter;"/>
    </g>
    <g id="line2d_29">
     <path d="M 153 82.218437 
L 173 82.218437 
" style="fill:none;stroke:#1f77b4;stroke-linecap:square;stroke-width:1.5;"/>
    </g>
    <g id="line2d_30"/>
    <g id="text_20">
     <!-- taylorfo noBN -->
     <defs>
      <path d="M 18.3125 70.21875 
L 18.3125 54.6875 
L 36.8125 54.6875 
L 36.8125 47.703125 
L 18.3125 47.703125 
L 18.3125 18.015625 
Q 18.3125 11.328125 20.140625 9.421875 
Q 21.96875 7.515625 27.59375 7.515625 
L 36.8125 7.515625 
L 36.8125 0 
L 27.59375 0 
Q 17.1875 0 13.234375 3.875 
Q 9.28125 7.765625 9.28125 18.015625 
L 9.28125 47.703125 
L 2.6875 47.703125 
L 2.6875 54.6875 
L 9.28125 54.6875 
L 9.28125 70.21875 
z
" id="DejaVuSans-116"/>
      <path d="M 34.28125 27.484375 
Q 23.390625 27.484375 19.1875 25 
Q 14.984375 22.515625 14.984375 16.5 
Q 14.984375 11.71875 18.140625 8.90625 
Q 21.296875 6.109375 26.703125 6.109375 
Q 34.1875 6.109375 38.703125 11.40625 
Q 43.21875 16.703125 43.21875 25.484375 
L 43.21875 27.484375 
z
M 52.203125 31.203125 
L 52.203125 0 
L 43.21875 0 
L 43.21875 8.296875 
Q 40.140625 3.328125 35.546875 0.953125 
Q 30.953125 -1.421875 24.3125 -1.421875 
Q 15.921875 -1.421875 10.953125 3.296875 
Q 6 8.015625 6 15.921875 
Q 6 25.140625 12.171875 29.828125 
Q 18.359375 34.515625 30.609375 34.515625 
L 43.21875 34.515625 
L 43.21875 35.40625 
Q 43.21875 41.609375 39.140625 45 
Q 35.0625 48.390625 27.6875 48.390625 
Q 23 48.390625 18.546875 47.265625 
Q 14.109375 46.140625 10.015625 43.890625 
L 10.015625 52.203125 
Q 14.9375 54.109375 19.578125 55.046875 
Q 24.21875 56 28.609375 56 
Q 40.484375 56 46.34375 49.84375 
Q 52.203125 43.703125 52.203125 31.203125 
z
" id="DejaVuSans-97"/>
      <path d="M 32.171875 -5.078125 
Q 28.375 -14.84375 24.75 -17.8125 
Q 21.140625 -20.796875 15.09375 -20.796875 
L 7.90625 -20.796875 
L 7.90625 -13.28125 
L 13.1875 -13.28125 
Q 16.890625 -13.28125 18.9375 -11.515625 
Q 21 -9.765625 23.484375 -3.21875 
L 25.09375 0.875 
L 2.984375 54.6875 
L 12.5 54.6875 
L 29.59375 11.921875 
L 46.6875 54.6875 
L 56.203125 54.6875 
z
" id="DejaVuSans-121"/>
      <path d="M 9.421875 75.984375 
L 18.40625 75.984375 
L 18.40625 0 
L 9.421875 0 
z
" id="DejaVuSans-108"/>
      <path d="M 19.671875 34.8125 
L 19.671875 8.109375 
L 35.5 8.109375 
Q 43.453125 8.109375 47.28125 11.40625 
Q 51.125 14.703125 51.125 21.484375 
Q 51.125 28.328125 47.28125 31.5625 
Q 43.453125 34.8125 35.5 34.8125 
z
M 19.671875 64.796875 
L 19.671875 42.828125 
L 34.28125 42.828125 
Q 41.5 42.828125 45.03125 45.53125 
Q 48.578125 48.25 48.578125 53.8125 
Q 48.578125 59.328125 45.03125 62.0625 
Q 41.5 64.796875 34.28125 64.796875 
z
M 9.8125 72.90625 
L 35.015625 72.90625 
Q 46.296875 72.90625 52.390625 68.21875 
Q 58.5 63.53125 58.5 54.890625 
Q 58.5 48.1875 55.375 44.234375 
Q 52.25 40.28125 46.1875 39.3125 
Q 53.46875 37.75 57.5 32.78125 
Q 61.53125 27.828125 61.53125 20.40625 
Q 61.53125 10.640625 54.890625 5.3125 
Q 48.25 0 35.984375 0 
L 9.8125 0 
z
" id="DejaVuSans-66"/>
     </defs>
     <g transform="translate(181 85.718437)scale(0.1 -0.1)">
      <use xlink:href="#DejaVuSans-116"/>
      <use x="39.208984" xlink:href="#DejaVuSans-97"/>
      <use x="100.488281" xlink:href="#DejaVuSans-121"/>
      <use x="159.667969" xlink:href="#DejaVuSans-108"/>
      <use x="187.451172" xlink:href="#DejaVuSans-111"/>
      <use x="248.632812" xlink:href="#DejaVuSans-114"/>
      <use x="289.746094" xlink:href="#DejaVuSans-102"/>
      <use x="324.951172" xlink:href="#DejaVuSans-111"/>
      <use x="386.132812" xlink:href="#DejaVuSans-32"/>
      <use x="417.919922" xlink:href="#DejaVuSans-110"/>
      <use x="481.298828" xlink:href="#DejaVuSans-111"/>
      <use x="542.480469" xlink:href="#DejaVuSans-66"/>
      <use x="611.083984" xlink:href="#DejaVuSans-78"/>
     </g>
    </g>
    <g id="line2d_31">
     <path d="M 153 96.896563 
L 173 96.896563 
" style="fill:none;stroke:#ff7f0e;stroke-linecap:square;stroke-width:1.5;"/>
    </g>
    <g id="line2d_32"/>
    <g id="text_21">
     <!-- taylorfo_abs noBN -->
     <defs>
      <path d="M 50.984375 -16.609375 
L 50.984375 -23.578125 
L -0.984375 -23.578125 
L -0.984375 -16.609375 
z
" id="DejaVuSans-95"/>
     </defs>
     <g transform="translate(181 100.396563)scale(0.1 -0.1)">
      <use xlink:href="#DejaVuSans-116"/>
      <use x="39.208984" xlink:href="#DejaVuSans-97"/>
      <use x="100.488281" xlink:href="#DejaVuSans-121"/>
      <use x="159.667969" xlink:href="#DejaVuSans-108"/>
      <use x="187.451172" xlink:href="#DejaVuSans-111"/>
      <use x="248.632812" xlink:href="#DejaVuSans-114"/>
      <use x="289.746094" xlink:href="#DejaVuSans-102"/>
      <use x="324.951172" xlink:href="#DejaVuSans-111"/>
      <use x="386.132812" xlink:href="#DejaVuSans-95"/>
      <use x="436.132812" xlink:href="#DejaVuSans-97"/>
      <use x="497.412109" xlink:href="#DejaVuSans-98"/>
      <use x="560.888672" xlink:href="#DejaVuSans-115"/>
      <use x="612.988281" xlink:href="#DejaVuSans-32"/>
      <use x="644.775391" xlink:href="#DejaVuSans-110"/>
      <use x="708.154297" xlink:href="#DejaVuSans-111"/>
      <use x="769.335938" xlink:href="#DejaVuSans-66"/>
      <use x="837.939453" xlink:href="#DejaVuSans-78"/>
     </g>
    </g>
    <g id="line2d_33">
     <path d="M 153 111.852813 
L 173 111.852813 
" style="fill:none;stroke:#2ca02c;stroke-linecap:square;stroke-width:1.5;"/>
    </g>
    <g id="line2d_34"/>
    <g id="text_22">
     <!-- taylorfo_sq noBN -->
     <defs>
      <path d="M 14.796875 27.296875 
Q 14.796875 17.390625 18.875 11.75 
Q 22.953125 6.109375 30.078125 6.109375 
Q 37.203125 6.109375 41.296875 11.75 
Q 45.40625 17.390625 45.40625 27.296875 
Q 45.40625 37.203125 41.296875 42.84375 
Q 37.203125 48.484375 30.078125 48.484375 
Q 22.953125 48.484375 18.875 42.84375 
Q 14.796875 37.203125 14.796875 27.296875 
z
M 45.40625 8.203125 
Q 42.578125 3.328125 38.25 0.953125 
Q 33.9375 -1.421875 27.875 -1.421875 
Q 17.96875 -1.421875 11.734375 6.484375 
Q 5.515625 14.40625 5.515625 27.296875 
Q 5.515625 40.1875 11.734375 48.09375 
Q 17.96875 56 27.875 56 
Q 33.9375 56 38.25 53.625 
Q 42.578125 51.265625 45.40625 46.390625 
L 45.40625 54.6875 
L 54.390625 54.6875 
L 54.390625 -20.796875 
L 45.40625 -20.796875 
z
" id="DejaVuSans-113"/>
     </defs>
     <g transform="translate(181 115.352813)scale(0.1 -0.1)">
      <use xlink:href="#DejaVuSans-116"/>
      <use x="39.208984" xlink:href="#DejaVuSans-97"/>
      <use x="100.488281" xlink:href="#DejaVuSans-121"/>
      <use x="159.667969" xlink:href="#DejaVuSans-108"/>
      <use x="187.451172" xlink:href="#DejaVuSans-111"/>
      <use x="248.632812" xlink:href="#DejaVuSans-114"/>
      <use x="289.746094" xlink:href="#DejaVuSans-102"/>
      <use x="324.951172" xlink:href="#DejaVuSans-111"/>
      <use x="386.132812" xlink:href="#DejaVuSans-95"/>
      <use x="436.132812" xlink:href="#DejaVuSans-115"/>
      <use x="488.232422" xlink:href="#DejaVuSans-113"/>
      <use x="551.708984" xlink:href="#DejaVuSans-32"/>
      <use x="583.496094" xlink:href="#DejaVuSans-110"/>
      <use x="646.875" xlink:href="#DejaVuSans-111"/>
      <use x="708.056641" xlink:href="#DejaVuSans-66"/>
      <use x="776.660156" xlink:href="#DejaVuSans-78"/>
     </g>
    </g>
    <g id="line2d_35">
     <path d="M 153 126.809062 
L 173 126.809062 
" style="fill:none;stroke:#d62728;stroke-dasharray:5.55,2.4;stroke-dashoffset:0;stroke-width:1.5;"/>
    </g>
    <g id="line2d_36"/>
    <g id="text_23">
     <!-- Molchanov_group noBN -->
     <defs>
      <path d="M 9.8125 72.90625 
L 24.515625 72.90625 
L 43.109375 23.296875 
L 61.8125 72.90625 
L 76.515625 72.90625 
L 76.515625 0 
L 66.890625 0 
L 66.890625 64.015625 
L 48.09375 14.015625 
L 38.1875 14.015625 
L 19.390625 64.015625 
L 19.390625 0 
L 9.8125 0 
z
" id="DejaVuSans-77"/>
      <path d="M 48.78125 52.59375 
L 48.78125 44.1875 
Q 44.96875 46.296875 41.140625 47.34375 
Q 37.3125 48.390625 33.40625 48.390625 
Q 24.65625 48.390625 19.8125 42.84375 
Q 14.984375 37.3125 14.984375 27.296875 
Q 14.984375 17.28125 19.8125 11.734375 
Q 24.65625 6.203125 33.40625 6.203125 
Q 37.3125 6.203125 41.140625 7.25 
Q 44.96875 8.296875 48.78125 10.40625 
L 48.78125 2.09375 
Q 45.015625 0.34375 40.984375 -0.53125 
Q 36.96875 -1.421875 32.421875 -1.421875 
Q 20.0625 -1.421875 12.78125 6.34375 
Q 5.515625 14.109375 5.515625 27.296875 
Q 5.515625 40.671875 12.859375 48.328125 
Q 20.21875 56 33.015625 56 
Q 37.15625 56 41.109375 55.140625 
Q 45.0625 54.296875 48.78125 52.59375 
z
" id="DejaVuSans-99"/>
      <path d="M 54.890625 33.015625 
L 54.890625 0 
L 45.90625 0 
L 45.90625 32.71875 
Q 45.90625 40.484375 42.875 44.328125 
Q 39.84375 48.1875 33.796875 48.1875 
Q 26.515625 48.1875 22.3125 43.546875 
Q 18.109375 38.921875 18.109375 30.90625 
L 18.109375 0 
L 9.078125 0 
L 9.078125 75.984375 
L 18.109375 75.984375 
L 18.109375 46.1875 
Q 21.34375 51.125 25.703125 53.5625 
Q 30.078125 56 35.796875 56 
Q 45.21875 56 50.046875 50.171875 
Q 54.890625 44.34375 54.890625 33.015625 
z
" id="DejaVuSans-104"/>
      <path d="M 2.984375 54.6875 
L 12.5 54.6875 
L 29.59375 8.796875 
L 46.6875 54.6875 
L 56.203125 54.6875 
L 35.6875 0 
L 23.484375 0 
z
" id="DejaVuSans-118"/>
      <path d="M 45.40625 27.984375 
Q 45.40625 37.75 41.375 43.109375 
Q 37.359375 48.484375 30.078125 48.484375 
Q 22.859375 48.484375 18.828125 43.109375 
Q 14.796875 37.75 14.796875 27.984375 
Q 14.796875 18.265625 18.828125 12.890625 
Q 22.859375 7.515625 30.078125 7.515625 
Q 37.359375 7.515625 41.375 12.890625 
Q 45.40625 18.265625 45.40625 27.984375 
z
M 54.390625 6.78125 
Q 54.390625 -7.171875 48.1875 -13.984375 
Q 42 -20.796875 29.203125 -20.796875 
Q 24.46875 -20.796875 20.265625 -20.09375 
Q 16.0625 -19.390625 12.109375 -17.921875 
L 12.109375 -9.1875 
Q 16.0625 -11.328125 19.921875 -12.34375 
Q 23.78125 -13.375 27.78125 -13.375 
Q 36.625 -13.375 41.015625 -8.765625 
Q 45.40625 -4.15625 45.40625 5.171875 
L 45.40625 9.625 
Q 42.625 4.78125 38.28125 2.390625 
Q 33.9375 0 27.875 0 
Q 17.828125 0 11.671875 7.65625 
Q 5.515625 15.328125 5.515625 27.984375 
Q 5.515625 40.671875 11.671875 48.328125 
Q 17.828125 56 27.875 56 
Q 33.9375 56 38.28125 53.609375 
Q 42.625 51.21875 45.40625 46.390625 
L 45.40625 54.6875 
L 54.390625 54.6875 
z
" id="DejaVuSans-103"/>
     </defs>
     <g transform="translate(181 130.309062)scale(0.1 -0.1)">
      <use xlink:href="#DejaVuSans-77"/>
      <use x="86.279297" xlink:href="#DejaVuSans-111"/>
      <use x="147.460938" xlink:href="#DejaVuSans-108"/>
      <use x="175.244141" xlink:href="#DejaVuSans-99"/>
      <use x="230.224609" xlink:href="#DejaVuSans-104"/>
      <use x="293.603516" xlink:href="#DejaVuSans-97"/>
      <use x="354.882812" xlink:href="#DejaVuSans-110"/>
      <use x="418.261719" xlink:href="#DejaVuSans-111"/>
      <use x="479.443359" xlink:href="#DejaVuSans-118"/>
      <use x="538.623047" xlink:href="#DejaVuSans-95"/>
      <use x="588.623047" xlink:href="#DejaVuSans-103"/>
      <use x="652.099609" xlink:href="#DejaVuSans-114"/>
      <use x="690.962891" xlink:href="#DejaVuSans-111"/>
      <use x="752.144531" xlink:href="#DejaVuSans-117"/>
      <use x="815.523438" xlink:href="#DejaVuSans-112"/>
      <use x="879" xlink:href="#DejaVuSans-32"/>
      <use x="910.787109" xlink:href="#DejaVuSans-110"/>
      <use x="974.166016" xlink:href="#DejaVuSans-111"/>
      <use x="1035.347656" xlink:href="#DejaVuSans-66"/>
      <use x="1103.951172" xlink:href="#DejaVuSans-78"/>
     </g>
    </g>
    <g id="line2d_37">
     <path d="M 153 141.765312 
L 173 141.765312 
" style="fill:none;stroke:#9467bd;stroke-dasharray:5.55,2.4;stroke-dashoffset:0;stroke-width:1.5;"/>
    </g>
    <g id="line2d_38"/>
    <g id="text_24">
     <!-- APnZ noBN -->
     <defs>
      <path d="M 34.1875 63.1875 
L 20.796875 26.90625 
L 47.609375 26.90625 
z
M 28.609375 72.90625 
L 39.796875 72.90625 
L 67.578125 0 
L 57.328125 0 
L 50.6875 18.703125 
L 17.828125 18.703125 
L 11.1875 0 
L 0.78125 0 
z
" id="DejaVuSans-65"/>
      <path d="M 19.671875 64.796875 
L 19.671875 37.40625 
L 32.078125 37.40625 
Q 38.96875 37.40625 42.71875 40.96875 
Q 46.484375 44.53125 46.484375 51.125 
Q 46.484375 57.671875 42.71875 61.234375 
Q 38.96875 64.796875 32.078125 64.796875 
z
M 9.8125 72.90625 
L 32.078125 72.90625 
Q 44.34375 72.90625 50.609375 67.359375 
Q 56.890625 61.8125 56.890625 51.125 
Q 56.890625 40.328125 50.609375 34.8125 
Q 44.34375 29.296875 32.078125 29.296875 
L 19.671875 29.296875 
L 19.671875 0 
L 9.8125 0 
z
" id="DejaVuSans-80"/>
      <path d="M 5.609375 72.90625 
L 62.890625 72.90625 
L 62.890625 65.375 
L 16.796875 8.296875 
L 64.015625 8.296875 
L 64.015625 0 
L 4.5 0 
L 4.5 7.515625 
L 50.59375 64.59375 
L 5.609375 64.59375 
z
" id="DejaVuSans-90"/>
     </defs>
     <g transform="translate(181 145.265312)scale(0.1 -0.1)">
      <use xlink:href="#DejaVuSans-65"/>
      <use x="68.408203" xlink:href="#DejaVuSans-80"/>
      <use x="126.960938" xlink:href="#DejaVuSans-110"/>
      <use x="190.339844" xlink:href="#DejaVuSans-90"/>
      <use x="258.845703" xlink:href="#DejaVuSans-32"/>
      <use x="290.632812" xlink:href="#DejaVuSans-110"/>
      <use x="354.011719" xlink:href="#DejaVuSans-111"/>
      <use x="415.193359" xlink:href="#DejaVuSans-66"/>
      <use x="483.796875" xlink:href="#DejaVuSans-78"/>
     </g>
    </g>
    <g id="line2d_39">
     <path d="M 153 156.443438 
L 173 156.443438 
" style="fill:none;stroke:#8c564b;stroke-linecap:square;stroke-width:1.5;"/>
    </g>
    <g id="line2d_40"/>
    <g id="text_25">
     <!-- taylorfo BN -->
     <g transform="translate(181 159.943438)scale(0.1 -0.1)">
      <use xlink:href="#DejaVuSans-116"/>
      <use x="39.208984" xlink:href="#DejaVuSans-97"/>
      <use x="100.488281" xlink:href="#DejaVuSans-121"/>
      <use x="159.667969" xlink:href="#DejaVuSans-108"/>
      <use x="187.451172" xlink:href="#DejaVuSans-111"/>
      <use x="248.632812" xlink:href="#DejaVuSans-114"/>
      <use x="289.746094" xlink:href="#DejaVuSans-102"/>
      <use x="324.951172" xlink:href="#DejaVuSans-111"/>
      <use x="386.132812" xlink:href="#DejaVuSans-32"/>
      <use x="417.919922" xlink:href="#DejaVuSans-66"/>
      <use x="486.523438" xlink:href="#DejaVuSans-78"/>
     </g>
    </g>
    <g id="line2d_41">
     <path d="M 153 171.121562 
L 173 171.121562 
" style="fill:none;stroke:#e377c2;stroke-linecap:square;stroke-width:1.5;"/>
    </g>
    <g id="line2d_42"/>
    <g id="text_26">
     <!-- taylorfo_abs BN -->
     <g transform="translate(181 174.621562)scale(0.1 -0.1)">
      <use xlink:href="#DejaVuSans-116"/>
      <use x="39.208984" xlink:href="#DejaVuSans-97"/>
      <use x="100.488281" xlink:href="#DejaVuSans-121"/>
      <use x="159.667969" xlink:href="#DejaVuSans-108"/>
      <use x="187.451172" xlink:href="#DejaVuSans-111"/>
      <use x="248.632812" xlink:href="#DejaVuSans-114"/>
      <use x="289.746094" xlink:href="#DejaVuSans-102"/>
      <use x="324.951172" xlink:href="#DejaVuSans-111"/>
      <use x="386.132812" xlink:href="#DejaVuSans-95"/>
      <use x="436.132812" xlink:href="#DejaVuSans-97"/>
      <use x="497.412109" xlink:href="#DejaVuSans-98"/>
      <use x="560.888672" xlink:href="#DejaVuSans-115"/>
      <use x="612.988281" xlink:href="#DejaVuSans-32"/>
      <use x="644.775391" xlink:href="#DejaVuSans-66"/>
      <use x="713.378906" xlink:href="#DejaVuSans-78"/>
     </g>
    </g>
    <g id="line2d_43">
     <path d="M 153 186.077812 
L 173 186.077812 
" style="fill:none;stroke:#7f7f7f;stroke-linecap:square;stroke-width:1.5;"/>
    </g>
    <g id="line2d_44"/>
    <g id="text_27">
     <!-- taylorfo_sq BN -->
     <g transform="translate(181 189.577812)scale(0.1 -0.1)">
      <use xlink:href="#DejaVuSans-116"/>
      <use x="39.208984" xlink:href="#DejaVuSans-97"/>
      <use x="100.488281" xlink:href="#DejaVuSans-121"/>
      <use x="159.667969" xlink:href="#DejaVuSans-108"/>
      <use x="187.451172" xlink:href="#DejaVuSans-111"/>
      <use x="248.632812" xlink:href="#DejaVuSans-114"/>
      <use x="289.746094" xlink:href="#DejaVuSans-102"/>
      <use x="324.951172" xlink:href="#DejaVuSans-111"/>
      <use x="386.132812" xlink:href="#DejaVuSans-95"/>
      <use x="436.132812" xlink:href="#DejaVuSans-115"/>
      <use x="488.232422" xlink:href="#DejaVuSans-113"/>
      <use x="551.708984" xlink:href="#DejaVuSans-32"/>
      <use x="583.496094" xlink:href="#DejaVuSans-66"/>
      <use x="652.099609" xlink:href="#DejaVuSans-78"/>
     </g>
    </g>
    <g id="line2d_45">
     <path d="M 153 201.034063 
L 173 201.034063 
" style="fill:none;stroke:#bcbd22;stroke-dasharray:5.55,2.4;stroke-dashoffset:0;stroke-width:1.5;"/>
    </g>
    <g id="line2d_46"/>
    <g id="text_28">
     <!-- Molchanov_group BN -->
     <g transform="translate(181 204.534063)scale(0.1 -0.1)">
      <use xlink:href="#DejaVuSans-77"/>
      <use x="86.279297" xlink:href="#DejaVuSans-111"/>
      <use x="147.460938" xlink:href="#DejaVuSans-108"/>
      <use x="175.244141" xlink:href="#DejaVuSans-99"/>
      <use x="230.224609" xlink:href="#DejaVuSans-104"/>
      <use x="293.603516" xlink:href="#DejaVuSans-97"/>
      <use x="354.882812" xlink:href="#DejaVuSans-110"/>
      <use x="418.261719" xlink:href="#DejaVuSans-111"/>
      <use x="479.443359" xlink:href="#DejaVuSans-118"/>
      <use x="538.623047" xlink:href="#DejaVuSans-95"/>
      <use x="588.623047" xlink:href="#DejaVuSans-103"/>
      <use x="652.099609" xlink:href="#DejaVuSans-114"/>
      <use x="690.962891" xlink:href="#DejaVuSans-111"/>
      <use x="752.144531" xlink:href="#DejaVuSans-117"/>
      <use x="815.523438" xlink:href="#DejaVuSans-112"/>
      <use x="879" xlink:href="#DejaVuSans-32"/>
      <use x="910.787109" xlink:href="#DejaVuSans-66"/>
      <use x="979.390625" xlink:href="#DejaVuSans-78"/>
     </g>
    </g>
    <g id="line2d_47">
     <path d="M 153 215.990312 
L 173 215.990312 
" style="fill:none;stroke:#17becf;stroke-dasharray:5.55,2.4;stroke-dashoffset:0;stroke-width:1.5;"/>
    </g>
    <g id="line2d_48"/>
    <g id="text_29">
     <!-- Molchanov_BN BN -->
     <g transform="translate(181 219.490312)scale(0.1 -0.1)">
      <use xlink:href="#DejaVuSans-77"/>
      <use x="86.279297" xlink:href="#DejaVuSans-111"/>
      <use x="147.460938" xlink:href="#DejaVuSans-108"/>
      <use x="175.244141" xlink:href="#DejaVuSans-99"/>
      <use x="230.224609" xlink:href="#DejaVuSans-104"/>
      <use x="293.603516" xlink:href="#DejaVuSans-97"/>
      <use x="354.882812" xlink:href="#DejaVuSans-110"/>
      <use x="418.261719" xlink:href="#DejaVuSans-111"/>
      <use x="479.443359" xlink:href="#DejaVuSans-118"/>
      <use x="538.623047" xlink:href="#DejaVuSans-95"/>
      <use x="588.623047" xlink:href="#DejaVuSans-66"/>
      <use x="657.226562" xlink:href="#DejaVuSans-78"/>
      <use x="732.03125" xlink:href="#DejaVuSans-32"/>
      <use x="763.818359" xlink:href="#DejaVuSans-66"/>
      <use x="832.421875" xlink:href="#DejaVuSans-78"/>
     </g>
    </g>
    <g id="line2d_49">
     <path d="M 153 230.946563 
L 173 230.946563 
" style="fill:none;stroke:#1f77b4;stroke-dasharray:5.55,2.4;stroke-dashoffset:0;stroke-width:1.5;"/>
    </g>
    <g id="line2d_50"/>
    <g id="text_30">
     <!-- APnZ BN -->
     <g transform="translate(181 234.446563)scale(0.1 -0.1)">
      <use xlink:href="#DejaVuSans-65"/>
      <use x="68.408203" xlink:href="#DejaVuSans-80"/>
      <use x="126.960938" xlink:href="#DejaVuSans-110"/>
      <use x="190.339844" xlink:href="#DejaVuSans-90"/>
      <use x="258.845703" xlink:href="#DejaVuSans-32"/>
      <use x="290.632812" xlink:href="#DejaVuSans-66"/>
      <use x="359.236328" xlink:href="#DejaVuSans-78"/>
     </g>
    </g>
   </g>
  </g>
 </g>
 <defs>
  <clipPath id="p39cc176343">
   <rect height="434.88" width="892.8" x="144" y="69.12"/>
  </clipPath>
 </defs>
</svg>
