<?xml version="1.0" encoding="utf-8" standalone="no"?>
<!DOCTYPE svg PUBLIC "-//W3C//DTD SVG 1.1//EN"
  "http://www.w3.org/Graphics/SVG/1.1/DTD/svg11.dtd">
<!-- Created with matplotlib (https://matplotlib.org/) -->
<svg height="576pt" version="1.1" viewBox="0 0 1152 576" width="1152pt" xmlns="http://www.w3.org/2000/svg" xmlns:xlink="http://www.w3.org/1999/xlink">
 <defs>
  <style type="text/css">
*{stroke-linecap:butt;stroke-linejoin:round;}
  </style>
 </defs>
 <g id="figure_1">
  <g id="patch_1">
   <path d="M 0 576 
L 1152 576 
L 1152 0 
L 0 0 
z
" style="fill:#ffffff;"/>
  </g>
  <g id="axes_1">
   <g id="patch_2">
    <path d="M 144 504 
L 1036.8 504 
L 1036.8 69.12 
L 144 69.12 
z
" style="fill:#ffffff;"/>
   </g>
   <g id="matplotlib.axis_1">
    <g id="xtick_1">
     <g id="line2d_1">
      <defs>
       <path d="M 0 0 
L 0 3.5 
" id="m1e63d97654" style="stroke:#000000;stroke-width:0.8;"/>
      </defs>
      <g>
       <use style="stroke:#000000;stroke-width:0.8;" x="182.527043" xlink:href="#m1e63d97654" y="504"/>
      </g>
     </g>
     <g id="text_1">
      <!-- 0 -->
      <defs>
       <path d="M 31.78125 66.40625 
Q 24.171875 66.40625 20.328125 58.90625 
Q 16.5 51.421875 16.5 36.375 
Q 16.5 21.390625 20.328125 13.890625 
Q 24.171875 6.390625 31.78125 6.390625 
Q 39.453125 6.390625 43.28125 13.890625 
Q 47.125 21.390625 47.125 36.375 
Q 47.125 51.421875 43.28125 58.90625 
Q 39.453125 66.40625 31.78125 66.40625 
z
M 31.78125 74.21875 
Q 44.046875 74.21875 50.515625 64.515625 
Q 56.984375 54.828125 56.984375 36.375 
Q 56.984375 17.96875 50.515625 8.265625 
Q 44.046875 -1.421875 31.78125 -1.421875 
Q 19.53125 -1.421875 13.0625 8.265625 
Q 6.59375 17.96875 6.59375 36.375 
Q 6.59375 54.828125 13.0625 64.515625 
Q 19.53125 74.21875 31.78125 74.21875 
z
" id="DejaVuSans-48"/>
      </defs>
      <g transform="translate(179.345793 518.598438)scale(0.1 -0.1)">
       <use xlink:href="#DejaVuSans-48"/>
      </g>
     </g>
    </g>
    <g id="xtick_2">
     <g id="line2d_2">
      <g>
       <use style="stroke:#000000;stroke-width:0.8;" x="285.265823" xlink:href="#m1e63d97654" y="504"/>
      </g>
     </g>
     <g id="text_2">
      <!-- 50 -->
      <defs>
       <path d="M 10.796875 72.90625 
L 49.515625 72.90625 
L 49.515625 64.59375 
L 19.828125 64.59375 
L 19.828125 46.734375 
Q 21.96875 47.46875 24.109375 47.828125 
Q 26.265625 48.1875 28.421875 48.1875 
Q 40.625 48.1875 47.75 41.5 
Q 54.890625 34.8125 54.890625 23.390625 
Q 54.890625 11.625 47.5625 5.09375 
Q 40.234375 -1.421875 26.90625 -1.421875 
Q 22.3125 -1.421875 17.546875 -0.640625 
Q 12.796875 0.140625 7.71875 1.703125 
L 7.71875 11.625 
Q 12.109375 9.234375 16.796875 8.0625 
Q 21.484375 6.890625 26.703125 6.890625 
Q 35.15625 6.890625 40.078125 11.328125 
Q 45.015625 15.765625 45.015625 23.390625 
Q 45.015625 31 40.078125 35.4375 
Q 35.15625 39.890625 26.703125 39.890625 
Q 22.75 39.890625 18.8125 39.015625 
Q 14.890625 38.140625 10.796875 36.28125 
z
" id="DejaVuSans-53"/>
      </defs>
      <g transform="translate(278.903323 518.598438)scale(0.1 -0.1)">
       <use xlink:href="#DejaVuSans-53"/>
       <use x="63.623047" xlink:href="#DejaVuSans-48"/>
      </g>
     </g>
    </g>
    <g id="xtick_3">
     <g id="line2d_3">
      <g>
       <use style="stroke:#000000;stroke-width:0.8;" x="388.004603" xlink:href="#m1e63d97654" y="504"/>
      </g>
     </g>
     <g id="text_3">
      <!-- 100 -->
      <defs>
       <path d="M 12.40625 8.296875 
L 28.515625 8.296875 
L 28.515625 63.921875 
L 10.984375 60.40625 
L 10.984375 69.390625 
L 28.421875 72.90625 
L 38.28125 72.90625 
L 38.28125 8.296875 
L 54.390625 8.296875 
L 54.390625 0 
L 12.40625 0 
z
" id="DejaVuSans-49"/>
      </defs>
      <g transform="translate(378.460853 518.598438)scale(0.1 -0.1)">
       <use xlink:href="#DejaVuSans-49"/>
       <use x="63.623047" xlink:href="#DejaVuSans-48"/>
       <use x="127.246094" xlink:href="#DejaVuSans-48"/>
      </g>
     </g>
    </g>
    <g id="xtick_4">
     <g id="line2d_4">
      <g>
       <use style="stroke:#000000;stroke-width:0.8;" x="490.743383" xlink:href="#m1e63d97654" y="504"/>
      </g>
     </g>
     <g id="text_4">
      <!-- 150 -->
      <g transform="translate(481.199633 518.598438)scale(0.1 -0.1)">
       <use xlink:href="#DejaVuSans-49"/>
       <use x="63.623047" xlink:href="#DejaVuSans-53"/>
       <use x="127.246094" xlink:href="#DejaVuSans-48"/>
      </g>
     </g>
    </g>
    <g id="xtick_5">
     <g id="line2d_5">
      <g>
       <use style="stroke:#000000;stroke-width:0.8;" x="593.482163" xlink:href="#m1e63d97654" y="504"/>
      </g>
     </g>
     <g id="text_5">
      <!-- 200 -->
      <defs>
       <path d="M 19.1875 8.296875 
L 53.609375 8.296875 
L 53.609375 0 
L 7.328125 0 
L 7.328125 8.296875 
Q 12.9375 14.109375 22.625 23.890625 
Q 32.328125 33.6875 34.8125 36.53125 
Q 39.546875 41.84375 41.421875 45.53125 
Q 43.3125 49.21875 43.3125 52.78125 
Q 43.3125 58.59375 39.234375 62.25 
Q 35.15625 65.921875 28.609375 65.921875 
Q 23.96875 65.921875 18.8125 64.3125 
Q 13.671875 62.703125 7.8125 59.421875 
L 7.8125 69.390625 
Q 13.765625 71.78125 18.9375 73 
Q 24.125 74.21875 28.421875 74.21875 
Q 39.75 74.21875 46.484375 68.546875 
Q 53.21875 62.890625 53.21875 53.421875 
Q 53.21875 48.921875 51.53125 44.890625 
Q 49.859375 40.875 45.40625 35.40625 
Q 44.1875 33.984375 37.640625 27.21875 
Q 31.109375 20.453125 19.1875 8.296875 
z
" id="DejaVuSans-50"/>
      </defs>
      <g transform="translate(583.938413 518.598438)scale(0.1 -0.1)">
       <use xlink:href="#DejaVuSans-50"/>
       <use x="63.623047" xlink:href="#DejaVuSans-48"/>
       <use x="127.246094" xlink:href="#DejaVuSans-48"/>
      </g>
     </g>
    </g>
    <g id="xtick_6">
     <g id="line2d_6">
      <g>
       <use style="stroke:#000000;stroke-width:0.8;" x="696.220944" xlink:href="#m1e63d97654" y="504"/>
      </g>
     </g>
     <g id="text_6">
      <!-- 250 -->
      <g transform="translate(686.677194 518.598438)scale(0.1 -0.1)">
       <use xlink:href="#DejaVuSans-50"/>
       <use x="63.623047" xlink:href="#DejaVuSans-53"/>
       <use x="127.246094" xlink:href="#DejaVuSans-48"/>
      </g>
     </g>
    </g>
    <g id="xtick_7">
     <g id="line2d_7">
      <g>
       <use style="stroke:#000000;stroke-width:0.8;" x="798.959724" xlink:href="#m1e63d97654" y="504"/>
      </g>
     </g>
     <g id="text_7">
      <!-- 300 -->
      <defs>
       <path d="M 40.578125 39.3125 
Q 47.65625 37.796875 51.625 33 
Q 55.609375 28.21875 55.609375 21.1875 
Q 55.609375 10.40625 48.1875 4.484375 
Q 40.765625 -1.421875 27.09375 -1.421875 
Q 22.515625 -1.421875 17.65625 -0.515625 
Q 12.796875 0.390625 7.625 2.203125 
L 7.625 11.71875 
Q 11.71875 9.328125 16.59375 8.109375 
Q 21.484375 6.890625 26.8125 6.890625 
Q 36.078125 6.890625 40.9375 10.546875 
Q 45.796875 14.203125 45.796875 21.1875 
Q 45.796875 27.640625 41.28125 31.265625 
Q 36.765625 34.90625 28.71875 34.90625 
L 20.21875 34.90625 
L 20.21875 43.015625 
L 29.109375 43.015625 
Q 36.375 43.015625 40.234375 45.921875 
Q 44.09375 48.828125 44.09375 54.296875 
Q 44.09375 59.90625 40.109375 62.90625 
Q 36.140625 65.921875 28.71875 65.921875 
Q 24.65625 65.921875 20.015625 65.03125 
Q 15.375 64.15625 9.8125 62.3125 
L 9.8125 71.09375 
Q 15.4375 72.65625 20.34375 73.4375 
Q 25.25 74.21875 29.59375 74.21875 
Q 40.828125 74.21875 47.359375 69.109375 
Q 53.90625 64.015625 53.90625 55.328125 
Q 53.90625 49.265625 50.4375 45.09375 
Q 46.96875 40.921875 40.578125 39.3125 
z
" id="DejaVuSans-51"/>
      </defs>
      <g transform="translate(789.415974 518.598438)scale(0.1 -0.1)">
       <use xlink:href="#DejaVuSans-51"/>
       <use x="63.623047" xlink:href="#DejaVuSans-48"/>
       <use x="127.246094" xlink:href="#DejaVuSans-48"/>
      </g>
     </g>
    </g>
    <g id="xtick_8">
     <g id="line2d_8">
      <g>
       <use style="stroke:#000000;stroke-width:0.8;" x="901.698504" xlink:href="#m1e63d97654" y="504"/>
      </g>
     </g>
     <g id="text_8">
      <!-- 350 -->
      <g transform="translate(892.154754 518.598438)scale(0.1 -0.1)">
       <use xlink:href="#DejaVuSans-51"/>
       <use x="63.623047" xlink:href="#DejaVuSans-53"/>
       <use x="127.246094" xlink:href="#DejaVuSans-48"/>
      </g>
     </g>
    </g>
    <g id="xtick_9">
     <g id="line2d_9">
      <g>
       <use style="stroke:#000000;stroke-width:0.8;" x="1004.437284" xlink:href="#m1e63d97654" y="504"/>
      </g>
     </g>
     <g id="text_9">
      <!-- 400 -->
      <defs>
       <path d="M 37.796875 64.3125 
L 12.890625 25.390625 
L 37.796875 25.390625 
z
M 35.203125 72.90625 
L 47.609375 72.90625 
L 47.609375 25.390625 
L 58.015625 25.390625 
L 58.015625 17.1875 
L 47.609375 17.1875 
L 47.609375 0 
L 37.796875 0 
L 37.796875 17.1875 
L 4.890625 17.1875 
L 4.890625 26.703125 
z
" id="DejaVuSans-52"/>
      </defs>
      <g transform="translate(994.893534 518.598438)scale(0.1 -0.1)">
       <use xlink:href="#DejaVuSans-52"/>
       <use x="63.623047" xlink:href="#DejaVuSans-48"/>
       <use x="127.246094" xlink:href="#DejaVuSans-48"/>
      </g>
     </g>
    </g>
    <g id="text_10">
     <!-- Number of Neurons pruned -->
     <defs>
      <path d="M 9.8125 72.90625 
L 23.09375 72.90625 
L 55.421875 11.921875 
L 55.421875 72.90625 
L 64.984375 72.90625 
L 64.984375 0 
L 51.703125 0 
L 19.390625 60.984375 
L 19.390625 0 
L 9.8125 0 
z
" id="DejaVuSans-78"/>
      <path d="M 8.5 21.578125 
L 8.5 54.6875 
L 17.484375 54.6875 
L 17.484375 21.921875 
Q 17.484375 14.15625 20.5 10.265625 
Q 23.53125 6.390625 29.59375 6.390625 
Q 36.859375 6.390625 41.078125 11.03125 
Q 45.3125 15.671875 45.3125 23.6875 
L 45.3125 54.6875 
L 54.296875 54.6875 
L 54.296875 0 
L 45.3125 0 
L 45.3125 8.40625 
Q 42.046875 3.421875 37.71875 1 
Q 33.40625 -1.421875 27.6875 -1.421875 
Q 18.265625 -1.421875 13.375 4.4375 
Q 8.5 10.296875 8.5 21.578125 
z
M 31.109375 56 
z
" id="DejaVuSans-117"/>
      <path d="M 52 44.1875 
Q 55.375 50.25 60.0625 53.125 
Q 64.75 56 71.09375 56 
Q 79.640625 56 84.28125 50.015625 
Q 88.921875 44.046875 88.921875 33.015625 
L 88.921875 0 
L 79.890625 0 
L 79.890625 32.71875 
Q 79.890625 40.578125 77.09375 44.375 
Q 74.3125 48.1875 68.609375 48.1875 
Q 61.625 48.1875 57.5625 43.546875 
Q 53.515625 38.921875 53.515625 30.90625 
L 53.515625 0 
L 44.484375 0 
L 44.484375 32.71875 
Q 44.484375 40.625 41.703125 44.40625 
Q 38.921875 48.1875 33.109375 48.1875 
Q 26.21875 48.1875 22.15625 43.53125 
Q 18.109375 38.875 18.109375 30.90625 
L 18.109375 0 
L 9.078125 0 
L 9.078125 54.6875 
L 18.109375 54.6875 
L 18.109375 46.1875 
Q 21.1875 51.21875 25.484375 53.609375 
Q 29.78125 56 35.6875 56 
Q 41.65625 56 45.828125 52.96875 
Q 50 49.953125 52 44.1875 
z
" id="DejaVuSans-109"/>
      <path d="M 48.6875 27.296875 
Q 48.6875 37.203125 44.609375 42.84375 
Q 40.53125 48.484375 33.40625 48.484375 
Q 26.265625 48.484375 22.1875 42.84375 
Q 18.109375 37.203125 18.109375 27.296875 
Q 18.109375 17.390625 22.1875 11.75 
Q 26.265625 6.109375 33.40625 6.109375 
Q 40.53125 6.109375 44.609375 11.75 
Q 48.6875 17.390625 48.6875 27.296875 
z
M 18.109375 46.390625 
Q 20.953125 51.265625 25.265625 53.625 
Q 29.59375 56 35.59375 56 
Q 45.5625 56 51.78125 48.09375 
Q 58.015625 40.1875 58.015625 27.296875 
Q 58.015625 14.40625 51.78125 6.484375 
Q 45.5625 -1.421875 35.59375 -1.421875 
Q 29.59375 -1.421875 25.265625 0.953125 
Q 20.953125 3.328125 18.109375 8.203125 
L 18.109375 0 
L 9.078125 0 
L 9.078125 75.984375 
L 18.109375 75.984375 
z
" id="DejaVuSans-98"/>
      <path d="M 56.203125 29.59375 
L 56.203125 25.203125 
L 14.890625 25.203125 
Q 15.484375 15.921875 20.484375 11.0625 
Q 25.484375 6.203125 34.421875 6.203125 
Q 39.59375 6.203125 44.453125 7.46875 
Q 49.3125 8.734375 54.109375 11.28125 
L 54.109375 2.78125 
Q 49.265625 0.734375 44.1875 -0.34375 
Q 39.109375 -1.421875 33.890625 -1.421875 
Q 20.796875 -1.421875 13.15625 6.1875 
Q 5.515625 13.8125 5.515625 26.8125 
Q 5.515625 40.234375 12.765625 48.109375 
Q 20.015625 56 32.328125 56 
Q 43.359375 56 49.78125 48.890625 
Q 56.203125 41.796875 56.203125 29.59375 
z
M 47.21875 32.234375 
Q 47.125 39.59375 43.09375 43.984375 
Q 39.0625 48.390625 32.421875 48.390625 
Q 24.90625 48.390625 20.390625 44.140625 
Q 15.875 39.890625 15.1875 32.171875 
z
" id="DejaVuSans-101"/>
      <path d="M 41.109375 46.296875 
Q 39.59375 47.171875 37.8125 47.578125 
Q 36.03125 48 33.890625 48 
Q 26.265625 48 22.1875 43.046875 
Q 18.109375 38.09375 18.109375 28.8125 
L 18.109375 0 
L 9.078125 0 
L 9.078125 54.6875 
L 18.109375 54.6875 
L 18.109375 46.1875 
Q 20.953125 51.171875 25.484375 53.578125 
Q 30.03125 56 36.53125 56 
Q 37.453125 56 38.578125 55.875 
Q 39.703125 55.765625 41.0625 55.515625 
z
" id="DejaVuSans-114"/>
      <path id="DejaVuSans-32"/>
      <path d="M 30.609375 48.390625 
Q 23.390625 48.390625 19.1875 42.75 
Q 14.984375 37.109375 14.984375 27.296875 
Q 14.984375 17.484375 19.15625 11.84375 
Q 23.34375 6.203125 30.609375 6.203125 
Q 37.796875 6.203125 41.984375 11.859375 
Q 46.1875 17.53125 46.1875 27.296875 
Q 46.1875 37.015625 41.984375 42.703125 
Q 37.796875 48.390625 30.609375 48.390625 
z
M 30.609375 56 
Q 42.328125 56 49.015625 48.375 
Q 55.71875 40.765625 55.71875 27.296875 
Q 55.71875 13.875 49.015625 6.21875 
Q 42.328125 -1.421875 30.609375 -1.421875 
Q 18.84375 -1.421875 12.171875 6.21875 
Q 5.515625 13.875 5.515625 27.296875 
Q 5.515625 40.765625 12.171875 48.375 
Q 18.84375 56 30.609375 56 
z
" id="DejaVuSans-111"/>
      <path d="M 37.109375 75.984375 
L 37.109375 68.5 
L 28.515625 68.5 
Q 23.6875 68.5 21.796875 66.546875 
Q 19.921875 64.59375 19.921875 59.515625 
L 19.921875 54.6875 
L 34.71875 54.6875 
L 34.71875 47.703125 
L 19.921875 47.703125 
L 19.921875 0 
L 10.890625 0 
L 10.890625 47.703125 
L 2.296875 47.703125 
L 2.296875 54.6875 
L 10.890625 54.6875 
L 10.890625 58.5 
Q 10.890625 67.625 15.140625 71.796875 
Q 19.390625 75.984375 28.609375 75.984375 
z
" id="DejaVuSans-102"/>
      <path d="M 54.890625 33.015625 
L 54.890625 0 
L 45.90625 0 
L 45.90625 32.71875 
Q 45.90625 40.484375 42.875 44.328125 
Q 39.84375 48.1875 33.796875 48.1875 
Q 26.515625 48.1875 22.3125 43.546875 
Q 18.109375 38.921875 18.109375 30.90625 
L 18.109375 0 
L 9.078125 0 
L 9.078125 54.6875 
L 18.109375 54.6875 
L 18.109375 46.1875 
Q 21.34375 51.125 25.703125 53.5625 
Q 30.078125 56 35.796875 56 
Q 45.21875 56 50.046875 50.171875 
Q 54.890625 44.34375 54.890625 33.015625 
z
" id="DejaVuSans-110"/>
      <path d="M 44.28125 53.078125 
L 44.28125 44.578125 
Q 40.484375 46.53125 36.375 47.5 
Q 32.28125 48.484375 27.875 48.484375 
Q 21.1875 48.484375 17.84375 46.4375 
Q 14.5 44.390625 14.5 40.28125 
Q 14.5 37.15625 16.890625 35.375 
Q 19.28125 33.59375 26.515625 31.984375 
L 29.59375 31.296875 
Q 39.15625 29.25 43.1875 25.515625 
Q 47.21875 21.78125 47.21875 15.09375 
Q 47.21875 7.46875 41.1875 3.015625 
Q 35.15625 -1.421875 24.609375 -1.421875 
Q 20.21875 -1.421875 15.453125 -0.5625 
Q 10.6875 0.296875 5.421875 2 
L 5.421875 11.28125 
Q 10.40625 8.6875 15.234375 7.390625 
Q 20.0625 6.109375 24.8125 6.109375 
Q 31.15625 6.109375 34.5625 8.28125 
Q 37.984375 10.453125 37.984375 14.40625 
Q 37.984375 18.0625 35.515625 20.015625 
Q 33.0625 21.96875 24.703125 23.78125 
L 21.578125 24.515625 
Q 13.234375 26.265625 9.515625 29.90625 
Q 5.8125 33.546875 5.8125 39.890625 
Q 5.8125 47.609375 11.28125 51.796875 
Q 16.75 56 26.8125 56 
Q 31.78125 56 36.171875 55.265625 
Q 40.578125 54.546875 44.28125 53.078125 
z
" id="DejaVuSans-115"/>
      <path d="M 18.109375 8.203125 
L 18.109375 -20.796875 
L 9.078125 -20.796875 
L 9.078125 54.6875 
L 18.109375 54.6875 
L 18.109375 46.390625 
Q 20.953125 51.265625 25.265625 53.625 
Q 29.59375 56 35.59375 56 
Q 45.5625 56 51.78125 48.09375 
Q 58.015625 40.1875 58.015625 27.296875 
Q 58.015625 14.40625 51.78125 6.484375 
Q 45.5625 -1.421875 35.59375 -1.421875 
Q 29.59375 -1.421875 25.265625 0.953125 
Q 20.953125 3.328125 18.109375 8.203125 
z
M 48.6875 27.296875 
Q 48.6875 37.203125 44.609375 42.84375 
Q 40.53125 48.484375 33.40625 48.484375 
Q 26.265625 48.484375 22.1875 42.84375 
Q 18.109375 37.203125 18.109375 27.296875 
Q 18.109375 17.390625 22.1875 11.75 
Q 26.265625 6.109375 33.40625 6.109375 
Q 40.53125 6.109375 44.609375 11.75 
Q 48.6875 17.390625 48.6875 27.296875 
z
" id="DejaVuSans-112"/>
      <path d="M 45.40625 46.390625 
L 45.40625 75.984375 
L 54.390625 75.984375 
L 54.390625 0 
L 45.40625 0 
L 45.40625 8.203125 
Q 42.578125 3.328125 38.25 0.953125 
Q 33.9375 -1.421875 27.875 -1.421875 
Q 17.96875 -1.421875 11.734375 6.484375 
Q 5.515625 14.40625 5.515625 27.296875 
Q 5.515625 40.1875 11.734375 48.09375 
Q 17.96875 56 27.875 56 
Q 33.9375 56 38.25 53.625 
Q 42.578125 51.265625 45.40625 46.390625 
z
M 14.796875 27.296875 
Q 14.796875 17.390625 18.875 11.75 
Q 22.953125 6.109375 30.078125 6.109375 
Q 37.203125 6.109375 41.296875 11.75 
Q 45.40625 17.390625 45.40625 27.296875 
Q 45.40625 37.203125 41.296875 42.84375 
Q 37.203125 48.484375 30.078125 48.484375 
Q 22.953125 48.484375 18.875 42.84375 
Q 14.796875 37.203125 14.796875 27.296875 
z
" id="DejaVuSans-100"/>
     </defs>
     <g transform="translate(522.147656 532.276562)scale(0.1 -0.1)">
      <use xlink:href="#DejaVuSans-78"/>
      <use x="74.804688" xlink:href="#DejaVuSans-117"/>
      <use x="138.183594" xlink:href="#DejaVuSans-109"/>
      <use x="235.595703" xlink:href="#DejaVuSans-98"/>
      <use x="299.072266" xlink:href="#DejaVuSans-101"/>
      <use x="360.595703" xlink:href="#DejaVuSans-114"/>
      <use x="401.708984" xlink:href="#DejaVuSans-32"/>
      <use x="433.496094" xlink:href="#DejaVuSans-111"/>
      <use x="494.677734" xlink:href="#DejaVuSans-102"/>
      <use x="529.882812" xlink:href="#DejaVuSans-32"/>
      <use x="561.669922" xlink:href="#DejaVuSans-78"/>
      <use x="636.474609" xlink:href="#DejaVuSans-101"/>
      <use x="697.998047" xlink:href="#DejaVuSans-117"/>
      <use x="761.376953" xlink:href="#DejaVuSans-114"/>
      <use x="800.240234" xlink:href="#DejaVuSans-111"/>
      <use x="861.421875" xlink:href="#DejaVuSans-110"/>
      <use x="924.800781" xlink:href="#DejaVuSans-115"/>
      <use x="976.900391" xlink:href="#DejaVuSans-32"/>
      <use x="1008.6875" xlink:href="#DejaVuSans-112"/>
      <use x="1072.164062" xlink:href="#DejaVuSans-114"/>
      <use x="1113.277344" xlink:href="#DejaVuSans-117"/>
      <use x="1176.65625" xlink:href="#DejaVuSans-110"/>
      <use x="1240.035156" xlink:href="#DejaVuSans-101"/>
      <use x="1301.558594" xlink:href="#DejaVuSans-100"/>
     </g>
    </g>
   </g>
   <g id="matplotlib.axis_2">
    <g id="ytick_1">
     <g id="line2d_10">
      <defs>
       <path d="M 0 0 
L -3.5 0 
" id="m00b0f6f39e" style="stroke:#000000;stroke-width:0.8;"/>
      </defs>
      <g>
       <use style="stroke:#000000;stroke-width:0.8;" x="144" xlink:href="#m00b0f6f39e" y="427.050556"/>
      </g>
     </g>
     <g id="text_11">
      <!-- 0.2 -->
      <defs>
       <path d="M 10.6875 12.40625 
L 21 12.40625 
L 21 0 
L 10.6875 0 
z
" id="DejaVuSans-46"/>
      </defs>
      <g transform="translate(121.096875 430.849775)scale(0.1 -0.1)">
       <use xlink:href="#DejaVuSans-48"/>
       <use x="63.623047" xlink:href="#DejaVuSans-46"/>
       <use x="95.410156" xlink:href="#DejaVuSans-50"/>
      </g>
     </g>
    </g>
    <g id="ytick_2">
     <g id="line2d_11">
      <g>
       <use style="stroke:#000000;stroke-width:0.8;" x="144" xlink:href="#m00b0f6f39e" y="340.563783"/>
      </g>
     </g>
     <g id="text_12">
      <!-- 0.4 -->
      <g transform="translate(121.096875 344.363001)scale(0.1 -0.1)">
       <use xlink:href="#DejaVuSans-48"/>
       <use x="63.623047" xlink:href="#DejaVuSans-46"/>
       <use x="95.410156" xlink:href="#DejaVuSans-52"/>
      </g>
     </g>
    </g>
    <g id="ytick_3">
     <g id="line2d_12">
      <g>
       <use style="stroke:#000000;stroke-width:0.8;" x="144" xlink:href="#m00b0f6f39e" y="254.077009"/>
      </g>
     </g>
     <g id="text_13">
      <!-- 0.6 -->
      <defs>
       <path d="M 33.015625 40.375 
Q 26.375 40.375 22.484375 35.828125 
Q 18.609375 31.296875 18.609375 23.390625 
Q 18.609375 15.53125 22.484375 10.953125 
Q 26.375 6.390625 33.015625 6.390625 
Q 39.65625 6.390625 43.53125 10.953125 
Q 47.40625 15.53125 47.40625 23.390625 
Q 47.40625 31.296875 43.53125 35.828125 
Q 39.65625 40.375 33.015625 40.375 
z
M 52.59375 71.296875 
L 52.59375 62.3125 
Q 48.875 64.0625 45.09375 64.984375 
Q 41.3125 65.921875 37.59375 65.921875 
Q 27.828125 65.921875 22.671875 59.328125 
Q 17.53125 52.734375 16.796875 39.40625 
Q 19.671875 43.65625 24.015625 45.921875 
Q 28.375 48.1875 33.59375 48.1875 
Q 44.578125 48.1875 50.953125 41.515625 
Q 57.328125 34.859375 57.328125 23.390625 
Q 57.328125 12.15625 50.6875 5.359375 
Q 44.046875 -1.421875 33.015625 -1.421875 
Q 20.359375 -1.421875 13.671875 8.265625 
Q 6.984375 17.96875 6.984375 36.375 
Q 6.984375 53.65625 15.1875 63.9375 
Q 23.390625 74.21875 37.203125 74.21875 
Q 40.921875 74.21875 44.703125 73.484375 
Q 48.484375 72.75 52.59375 71.296875 
z
" id="DejaVuSans-54"/>
      </defs>
      <g transform="translate(121.096875 257.876228)scale(0.1 -0.1)">
       <use xlink:href="#DejaVuSans-48"/>
       <use x="63.623047" xlink:href="#DejaVuSans-46"/>
       <use x="95.410156" xlink:href="#DejaVuSans-54"/>
      </g>
     </g>
    </g>
    <g id="ytick_4">
     <g id="line2d_13">
      <g>
       <use style="stroke:#000000;stroke-width:0.8;" x="144" xlink:href="#m00b0f6f39e" y="167.590236"/>
      </g>
     </g>
     <g id="text_14">
      <!-- 0.8 -->
      <defs>
       <path d="M 31.78125 34.625 
Q 24.75 34.625 20.71875 30.859375 
Q 16.703125 27.09375 16.703125 20.515625 
Q 16.703125 13.921875 20.71875 10.15625 
Q 24.75 6.390625 31.78125 6.390625 
Q 38.8125 6.390625 42.859375 10.171875 
Q 46.921875 13.96875 46.921875 20.515625 
Q 46.921875 27.09375 42.890625 30.859375 
Q 38.875 34.625 31.78125 34.625 
z
M 21.921875 38.8125 
Q 15.578125 40.375 12.03125 44.71875 
Q 8.5 49.078125 8.5 55.328125 
Q 8.5 64.0625 14.71875 69.140625 
Q 20.953125 74.21875 31.78125 74.21875 
Q 42.671875 74.21875 48.875 69.140625 
Q 55.078125 64.0625 55.078125 55.328125 
Q 55.078125 49.078125 51.53125 44.71875 
Q 48 40.375 41.703125 38.8125 
Q 48.828125 37.15625 52.796875 32.3125 
Q 56.78125 27.484375 56.78125 20.515625 
Q 56.78125 9.90625 50.3125 4.234375 
Q 43.84375 -1.421875 31.78125 -1.421875 
Q 19.734375 -1.421875 13.25 4.234375 
Q 6.78125 9.90625 6.78125 20.515625 
Q 6.78125 27.484375 10.78125 32.3125 
Q 14.796875 37.15625 21.921875 38.8125 
z
M 18.3125 54.390625 
Q 18.3125 48.734375 21.84375 45.5625 
Q 25.390625 42.390625 31.78125 42.390625 
Q 38.140625 42.390625 41.71875 45.5625 
Q 45.3125 48.734375 45.3125 54.390625 
Q 45.3125 60.0625 41.71875 63.234375 
Q 38.140625 66.40625 31.78125 66.40625 
Q 25.390625 66.40625 21.84375 63.234375 
Q 18.3125 60.0625 18.3125 54.390625 
z
" id="DejaVuSans-56"/>
      </defs>
      <g transform="translate(121.096875 171.389455)scale(0.1 -0.1)">
       <use xlink:href="#DejaVuSans-48"/>
       <use x="63.623047" xlink:href="#DejaVuSans-46"/>
       <use x="95.410156" xlink:href="#DejaVuSans-56"/>
      </g>
     </g>
    </g>
    <g id="ytick_5">
     <g id="line2d_14">
      <g>
       <use style="stroke:#000000;stroke-width:0.8;" x="144" xlink:href="#m00b0f6f39e" y="81.103463"/>
      </g>
     </g>
     <g id="text_15">
      <!-- 1.0 -->
      <g transform="translate(121.096875 84.902682)scale(0.1 -0.1)">
       <use xlink:href="#DejaVuSans-49"/>
       <use x="63.623047" xlink:href="#DejaVuSans-46"/>
       <use x="95.410156" xlink:href="#DejaVuSans-48"/>
      </g>
     </g>
    </g>
    <g id="text_16">
     <!-- Accuracy -->
     <defs>
      <path d="M 34.1875 63.1875 
L 20.796875 26.90625 
L 47.609375 26.90625 
z
M 28.609375 72.90625 
L 39.796875 72.90625 
L 67.578125 0 
L 57.328125 0 
L 50.6875 18.703125 
L 17.828125 18.703125 
L 11.1875 0 
L 0.78125 0 
z
" id="DejaVuSans-65"/>
      <path d="M 48.78125 52.59375 
L 48.78125 44.1875 
Q 44.96875 46.296875 41.140625 47.34375 
Q 37.3125 48.390625 33.40625 48.390625 
Q 24.65625 48.390625 19.8125 42.84375 
Q 14.984375 37.3125 14.984375 27.296875 
Q 14.984375 17.28125 19.8125 11.734375 
Q 24.65625 6.203125 33.40625 6.203125 
Q 37.3125 6.203125 41.140625 7.25 
Q 44.96875 8.296875 48.78125 10.40625 
L 48.78125 2.09375 
Q 45.015625 0.34375 40.984375 -0.53125 
Q 36.96875 -1.421875 32.421875 -1.421875 
Q 20.0625 -1.421875 12.78125 6.34375 
Q 5.515625 14.109375 5.515625 27.296875 
Q 5.515625 40.671875 12.859375 48.328125 
Q 20.21875 56 33.015625 56 
Q 37.15625 56 41.109375 55.140625 
Q 45.0625 54.296875 48.78125 52.59375 
z
" id="DejaVuSans-99"/>
      <path d="M 34.28125 27.484375 
Q 23.390625 27.484375 19.1875 25 
Q 14.984375 22.515625 14.984375 16.5 
Q 14.984375 11.71875 18.140625 8.90625 
Q 21.296875 6.109375 26.703125 6.109375 
Q 34.1875 6.109375 38.703125 11.40625 
Q 43.21875 16.703125 43.21875 25.484375 
L 43.21875 27.484375 
z
M 52.203125 31.203125 
L 52.203125 0 
L 43.21875 0 
L 43.21875 8.296875 
Q 40.140625 3.328125 35.546875 0.953125 
Q 30.953125 -1.421875 24.3125 -1.421875 
Q 15.921875 -1.421875 10.953125 3.296875 
Q 6 8.015625 6 15.921875 
Q 6 25.140625 12.171875 29.828125 
Q 18.359375 34.515625 30.609375 34.515625 
L 43.21875 34.515625 
L 43.21875 35.40625 
Q 43.21875 41.609375 39.140625 45 
Q 35.0625 48.390625 27.6875 48.390625 
Q 23 48.390625 18.546875 47.265625 
Q 14.109375 46.140625 10.015625 43.890625 
L 10.015625 52.203125 
Q 14.9375 54.109375 19.578125 55.046875 
Q 24.21875 56 28.609375 56 
Q 40.484375 56 46.34375 49.84375 
Q 52.203125 43.703125 52.203125 31.203125 
z
" id="DejaVuSans-97"/>
      <path d="M 32.171875 -5.078125 
Q 28.375 -14.84375 24.75 -17.8125 
Q 21.140625 -20.796875 15.09375 -20.796875 
L 7.90625 -20.796875 
L 7.90625 -13.28125 
L 13.1875 -13.28125 
Q 16.890625 -13.28125 18.9375 -11.515625 
Q 21 -9.765625 23.484375 -3.21875 
L 25.09375 0.875 
L 2.984375 54.6875 
L 12.5 54.6875 
L 29.59375 11.921875 
L 46.6875 54.6875 
L 56.203125 54.6875 
z
" id="DejaVuSans-121"/>
     </defs>
     <g transform="translate(115.017187 309.388125)rotate(-90)scale(0.1 -0.1)">
      <use xlink:href="#DejaVuSans-65"/>
      <use x="66.658203" xlink:href="#DejaVuSans-99"/>
      <use x="121.638672" xlink:href="#DejaVuSans-99"/>
      <use x="176.619141" xlink:href="#DejaVuSans-117"/>
      <use x="239.998047" xlink:href="#DejaVuSans-114"/>
      <use x="281.111328" xlink:href="#DejaVuSans-97"/>
      <use x="342.390625" xlink:href="#DejaVuSans-99"/>
      <use x="397.371094" xlink:href="#DejaVuSans-121"/>
     </g>
    </g>
   </g>
   <g id="line2d_15">
    <path clip-path="url(#p900193cc2d)" d="M 184.581818 89.665654 
L 194.855696 90.717909 
L 205.129574 92.916115 
L 215.403452 97.074687 
L 225.67733 102.934166 
L 235.951208 110.710768 
L 246.225086 126.487397 
L 256.498964 143.287453 
L 266.772842 151.200993 
L 277.04672 152.527123 
L 287.320598 154.206408 
L 297.594476 154.184786 
L 307.868354 159.388407 
L 318.142232 172.930795 
L 328.41611 190.473195 
L 338.689988 211.604797 
L 348.963867 242.783278 
L 359.237745 249.132849 
L 369.511623 257.031974 
L 379.785501 261.176132 
L 390.059379 281.594218 
L 400.333257 311.778102 
L 410.607135 337.118726 
L 420.881013 342.019643 
L 431.154891 354.891758 
L 441.428769 381.190944 
L 451.702647 401.443264 
L 461.976525 415.180246 
L 472.250403 418.29377 
L 482.524281 442.192948 
L 492.798159 458.113722 
L 503.072037 463.929957 
L 513.345915 464.578608 
L 523.619793 463.634461 
L 533.893671 465.003835 
L 544.167549 463.58401 
L 554.441427 460.232648 
L 564.715305 459.266879 
L 574.989183 463.504731 
L 585.263061 462.834458 
L 595.536939 461.558778 
L 605.810817 466.063298 
L 616.084695 466.156992 
L 626.358573 468.420062 
L 636.632451 470.668718 
L 646.906329 471.403856 
L 657.180207 471.432685 
L 667.454085 471.432685 
L 677.727963 471.432685 
L 688.001841 471.432685 
L 698.275719 471.432685 
L 708.549597 471.432685 
L 718.823475 471.432685 
L 729.097353 471.432685 
L 739.371231 471.432685 
L 749.645109 471.432685 
L 759.918987 470.661511 
L 770.192865 470.661511 
L 780.466743 470.661511 
L 790.740621 470.661511 
L 801.014499 470.661511 
L 811.288377 470.661511 
L 821.562255 470.661511 
L 831.836133 470.661511 
L 842.110012 470.661511 
L 852.38389 470.661511 
L 862.657768 470.661511 
L 872.931646 470.661511 
L 883.205524 470.661511 
L 893.479402 470.661511 
L 903.75328 470.661511 
L 914.027158 470.661511 
L 924.301036 470.661511 
L 934.574914 470.661511 
L 944.848792 470.661511 
L 955.12267 470.661511 
L 965.396548 470.661511 
L 975.670426 470.661511 
L 985.944304 470.661511 
L 996.218182 470.661511 
" style="fill:none;stroke:#1f77b4;stroke-linecap:square;stroke-width:1.5;"/>
   </g>
   <g id="line2d_16">
    <path clip-path="url(#p900193cc2d)" d="M 184.581818 89.089075 
L 194.855696 89.28367 
L 205.129574 89.36295 
L 215.403452 89.507095 
L 225.67733 89.874663 
L 235.951208 90.400791 
L 246.225086 90.696288 
L 256.498964 91.31611 
L 266.772842 91.171965 
L 277.04672 92.25305 
L 287.320598 92.404402 
L 297.594476 95.013419 
L 307.868354 98.746765 
L 318.142232 105.889131 
L 328.41611 113.117984 
L 338.689988 118.163045 
L 348.963867 139.07843 
L 359.237745 157.89651 
L 369.511623 182.898395 
L 379.785501 183.662362 
L 390.059379 264.563531 
L 400.333257 280.981603 
L 410.607135 315.208744 
L 420.881013 331.936727 
L 431.154891 373.399927 
L 441.428769 423.619914 
L 451.702647 470.603853 
L 461.976525 470.611061 
L 472.250403 470.611061 
L 482.524281 470.661511 
L 492.798159 470.661511 
L 503.072037 470.661511 
L 513.345915 470.661511 
L 523.619793 470.661511 
L 533.893671 470.661511 
L 544.167549 470.661511 
L 554.441427 470.661511 
L 564.715305 470.661511 
L 574.989183 470.661511 
L 585.263061 470.661511 
L 595.536939 470.661511 
L 605.810817 470.661511 
L 616.084695 470.661511 
L 626.358573 470.661511 
L 636.632451 470.661511 
L 646.906329 470.661511 
L 657.180207 470.661511 
L 667.454085 470.661511 
L 677.727963 470.661511 
L 688.001841 470.661511 
L 698.275719 470.661511 
L 708.549597 470.661511 
L 718.823475 470.661511 
L 729.097353 470.661511 
L 739.371231 470.661511 
L 749.645109 470.661511 
L 759.918987 470.661511 
L 770.192865 470.661511 
L 780.466743 470.661511 
L 790.740621 470.661511 
L 801.014499 470.661511 
L 811.288377 470.661511 
L 821.562255 470.661511 
L 831.836133 470.661511 
L 842.110012 470.661511 
L 852.38389 470.661511 
L 862.657768 470.661511 
L 872.931646 470.661511 
L 883.205524 470.661511 
L 893.479402 470.661511 
L 903.75328 470.661511 
L 914.027158 470.661511 
L 924.301036 470.661511 
L 934.574914 470.661511 
L 944.848792 470.661511 
L 955.12267 470.661511 
L 965.396548 470.661511 
L 975.670426 470.661511 
L 985.944304 470.661511 
L 996.218182 470.661511 
" style="fill:none;stroke:#ff7f0e;stroke-linecap:square;stroke-width:1.5;"/>
   </g>
   <g id="line2d_17">
    <path clip-path="url(#p900193cc2d)" d="M 184.581818 89.074661 
L 194.855696 89.290878 
L 205.129574 89.247634 
L 215.403452 89.449437 
L 225.67733 89.471058 
L 235.951208 89.795384 
L 246.225086 90.292683 
L 256.498964 90.22061 
L 266.772842 90.804396 
L 277.04672 91.164758 
L 287.320598 91.7053 
L 297.594476 91.986382 
L 307.868354 94.919725 
L 318.142232 107.438686 
L 328.41611 131.784712 
L 338.689988 158.537954 
L 348.963867 157.5866 
L 359.237745 160.555979 
L 369.511623 168.527176 
L 379.785501 215.230034 
L 390.059379 238.559841 
L 400.333257 305.233936 
L 410.607135 339.143958 
L 420.881013 450.776761 
L 431.154891 453.991186 
L 441.428769 458.185794 
L 451.702647 470.661511 
L 461.976525 470.661511 
L 472.250403 470.661511 
L 482.524281 470.661511 
L 492.798159 470.661511 
L 503.072037 470.661511 
L 513.345915 470.661511 
L 523.619793 470.661511 
L 533.893671 470.661511 
L 544.167549 470.661511 
L 554.441427 470.661511 
L 564.715305 470.661511 
L 574.989183 470.661511 
L 585.263061 470.661511 
L 595.536939 470.661511 
L 605.810817 470.661511 
L 616.084695 470.661511 
L 626.358573 470.661511 
L 636.632451 470.661511 
L 646.906329 470.661511 
L 657.180207 470.661511 
L 667.454085 470.661511 
L 677.727963 470.661511 
L 688.001841 470.661511 
L 698.275719 470.661511 
L 708.549597 470.661511 
L 718.823475 470.661511 
L 729.097353 470.661511 
L 739.371231 470.661511 
L 749.645109 470.661511 
L 759.918987 470.661511 
L 770.192865 470.661511 
L 780.466743 470.661511 
L 790.740621 470.661511 
L 801.014499 470.661511 
L 811.288377 470.661511 
L 821.562255 470.661511 
L 831.836133 470.661511 
L 842.110012 470.661511 
L 852.38389 470.661511 
L 862.657768 470.661511 
L 872.931646 470.661511 
L 883.205524 470.661511 
L 893.479402 470.661511 
L 903.75328 470.661511 
L 914.027158 470.661511 
L 924.301036 470.661511 
L 934.574914 470.661511 
L 944.848792 470.661511 
L 955.12267 470.661511 
L 965.396548 470.661511 
L 975.670426 470.661511 
L 985.944304 470.661511 
L 996.218182 470.661511 
" style="fill:none;stroke:#2ca02c;stroke-linecap:square;stroke-width:1.5;"/>
   </g>
   <g id="line2d_18">
    <path clip-path="url(#p900193cc2d)" d="M 184.581818 89.089075 
L 194.855696 89.276463 
L 205.129574 89.49268 
L 215.403452 89.802591 
L 225.67733 90.227818 
L 235.951208 90.609801 
L 246.225086 90.617008 
L 256.498964 91.337731 
L 266.772842 92.325122 
L 277.04672 93.420621 
L 287.320598 97.687302 
L 297.594476 99.056676 
L 307.868354 102.126956 
L 318.142232 108.851303 
L 328.41611 140.772129 
L 338.689988 164.210045 
L 348.963867 168.534384 
L 359.237745 215.403007 
L 369.511623 251.035558 
L 379.785501 251.547271 
L 390.059379 268.073452 
L 400.333257 271.929321 
L 410.607135 269.911296 
L 420.881013 283.086115 
L 431.154891 287.842887 
L 441.428769 307.165474 
L 451.702647 317.745689 
L 461.976525 320.13849 
L 472.250403 331.864655 
L 482.524281 330.10609 
L 492.798159 358.834113 
L 503.072037 388.794573 
L 513.345915 434.733464 
L 523.619793 440.023572 
L 533.893671 443.02178 
L 544.167549 443.403763 
L 554.441427 448.081256 
L 564.715305 448.484861 
L 574.989183 447.461434 
L 585.263061 450.38757 
L 595.536939 445.767735 
L 605.810817 445.010976 
L 616.084695 439.627174 
L 626.358573 439.223569 
L 636.632451 470.661511 
L 646.906329 470.661511 
L 657.180207 470.661511 
L 667.454085 470.661511 
L 677.727963 470.661511 
L 688.001841 470.661511 
L 698.275719 470.661511 
L 708.549597 470.661511 
L 718.823475 470.661511 
L 729.097353 470.661511 
L 739.371231 470.661511 
L 749.645109 470.661511 
L 759.918987 470.661511 
L 770.192865 470.661511 
L 780.466743 470.661511 
L 790.740621 470.661511 
L 801.014499 470.661511 
L 811.288377 470.661511 
L 821.562255 470.661511 
L 831.836133 470.661511 
L 842.110012 470.661511 
L 852.38389 470.661511 
L 862.657768 470.661511 
L 872.931646 470.661511 
L 883.205524 470.661511 
L 893.479402 470.661511 
L 903.75328 470.661511 
L 914.027158 470.661511 
L 924.301036 470.661511 
L 934.574914 470.661511 
L 944.848792 470.661511 
L 955.12267 470.661511 
L 965.396548 470.661511 
L 975.670426 470.661511 
L 985.944304 470.661511 
L 996.218182 470.661511 
" style="fill:none;stroke:#d62728;stroke-dasharray:5.55,2.4;stroke-dashoffset:0;stroke-width:1.5;"/>
   </g>
   <g id="line2d_19">
    <path clip-path="url(#p900193cc2d)" d="M 184.581818 89.110697 
L 194.855696 89.427815 
L 205.129574 89.917907 
L 215.403452 90.458449 
L 225.67733 91.582777 
L 235.951208 93.355756 
L 246.225086 94.573778 
L 256.498964 96.620632 
L 266.772842 100.253076 
L 277.04672 114.955828 
L 287.320598 118.818903 
L 297.594476 124.209912 
L 307.868354 137.154099 
L 318.142232 166.314556 
L 328.41611 170.127182 
L 338.689988 179.352437 
L 348.963867 183.193892 
L 359.237745 190.487609 
L 369.511623 212.397592 
L 379.785501 218.177791 
L 390.059379 260.239192 
L 400.333257 273.197794 
L 410.607135 289.875326 
L 420.881013 315.943881 
L 431.154891 332.837631 
L 441.428769 357.962038 
L 451.702647 365.580082 
L 461.976525 381.724279 
L 472.250403 389.284665 
L 482.524281 409.0541 
L 492.798159 427.728035 
L 503.072037 429.515429 
L 513.345915 429.594708 
L 523.619793 438.589333 
L 533.893671 436.636173 
L 544.167549 442.236192 
L 554.441427 441.87583 
L 564.715305 435.879414 
L 574.989183 470.517366 
L 585.263061 470.531781 
L 595.536939 470.661511 
L 605.810817 470.661511 
L 616.084695 470.661511 
L 626.358573 470.661511 
L 636.632451 470.661511 
L 646.906329 470.661511 
L 657.180207 470.661511 
L 667.454085 470.661511 
L 677.727963 470.661511 
L 688.001841 470.661511 
L 698.275719 470.661511 
L 708.549597 470.661511 
L 718.823475 470.661511 
L 729.097353 470.661511 
L 739.371231 470.661511 
L 749.645109 470.661511 
L 759.918987 470.661511 
L 770.192865 470.661511 
L 780.466743 470.661511 
L 790.740621 470.661511 
L 801.014499 470.661511 
L 811.288377 470.661511 
L 821.562255 470.661511 
L 831.836133 470.661511 
L 842.110012 470.661511 
L 852.38389 470.661511 
L 862.657768 470.661511 
L 872.931646 470.661511 
L 883.205524 470.661511 
L 893.479402 470.661511 
L 903.75328 470.661511 
L 914.027158 470.661511 
L 924.301036 470.661511 
L 934.574914 470.661511 
L 944.848792 470.661511 
L 955.12267 470.661511 
L 965.396548 470.661511 
L 975.670426 470.661511 
L 985.944304 470.661511 
L 996.218182 470.661511 
" style="fill:none;stroke:#9467bd;stroke-dasharray:5.55,2.4;stroke-dashoffset:0;stroke-width:1.5;"/>
   </g>
   <g id="line2d_20">
    <path clip-path="url(#p900193cc2d)" d="M 184.581818 88.887273 
L 194.855696 89.62241 
L 205.129574 90.732324 
L 215.403452 91.96476 
L 225.67733 92.815214 
L 235.951208 96.180991 
L 246.225086 98.148565 
L 256.498964 101.089115 
L 266.772842 101.485513 
L 277.04672 104.505343 
L 287.320598 109.499954 
L 297.594476 120.570261 
L 307.868354 119.928817 
L 318.142232 125.694602 
L 328.41611 136.721666 
L 338.689988 143.791959 
L 348.963867 148.844228 
L 359.237745 169.074926 
L 369.511623 185.802909 
L 379.785501 200.06602 
L 390.059379 210.876866 
L 400.333257 241.197687 
L 410.607135 228.484132 
L 420.881013 240.707596 
L 431.154891 237.421098 
L 441.428769 261.313069 
L 451.702647 285.435672 
L 461.976525 306.459165 
L 472.250403 312.945673 
L 482.524281 328.585365 
L 492.798159 343.04307 
L 503.072037 371.533255 
L 513.345915 377.075615 
L 523.619793 419.425305 
L 533.893671 430.272188 
L 544.167549 459.483096 
L 554.441427 456.931736 
L 564.715305 450.250633 
L 574.989183 480.117398 
L 585.263061 470.661511 
L 595.536939 470.661511 
L 605.810817 470.661511 
L 616.084695 470.661511 
L 626.358573 470.661511 
L 636.632451 470.661511 
L 646.906329 470.661511 
L 657.180207 470.661511 
L 667.454085 470.661511 
L 677.727963 470.661511 
L 688.001841 470.661511 
L 698.275719 470.661511 
L 708.549597 470.661511 
L 718.823475 470.661511 
L 729.097353 470.661511 
L 739.371231 470.661511 
L 749.645109 470.661511 
L 759.918987 470.661511 
L 770.192865 470.661511 
L 780.466743 470.661511 
L 790.740621 470.661511 
L 801.014499 470.661511 
L 811.288377 470.661511 
L 821.562255 470.661511 
L 831.836133 470.661511 
L 842.110012 470.661511 
L 852.38389 470.661511 
L 862.657768 470.661511 
L 872.931646 470.661511 
L 883.205524 470.661511 
L 893.479402 470.661511 
L 903.75328 470.661511 
L 914.027158 470.661511 
L 924.301036 470.661511 
L 934.574914 470.661511 
L 944.848792 470.661511 
L 955.12267 470.661511 
L 965.396548 470.661511 
L 975.670426 470.661511 
L 985.944304 470.661511 
L 996.218182 470.661511 
" style="fill:none;stroke:#8c564b;stroke-linecap:square;stroke-width:1.5;"/>
   </g>
   <g id="line2d_21">
    <path clip-path="url(#p900193cc2d)" d="M 184.581818 88.916102 
L 194.855696 89.017003 
L 205.129574 89.117904 
L 215.403452 89.413401 
L 225.67733 89.607996 
L 235.951208 90.026015 
L 246.225086 90.054844 
L 256.498964 89.997186 
L 266.772842 89.96115 
L 277.04672 90.588179 
L 287.320598 91.337731 
L 297.594476 97.060273 
L 307.868354 98.227844 
L 318.142232 106.609854 
L 328.41611 110.963022 
L 338.689988 114.076545 
L 348.963867 116.036912 
L 359.237745 120.036926 
L 369.511623 122.559456 
L 379.785501 121.384678 
L 390.059379 126.811723 
L 400.333257 134.999137 
L 410.607135 133.896431 
L 420.881013 157.694708 
L 431.154891 165.399238 
L 441.428769 163.085717 
L 451.702647 180.563252 
L 461.976525 214.87688 
L 472.250403 236.541816 
L 482.524281 254.040973 
L 492.798159 288.722169 
L 503.072037 319.821372 
L 513.345915 332.095286 
L 523.619793 372.945872 
L 533.893671 378.019763 
L 544.167549 385.536905 
L 554.441427 418.855934 
L 564.715305 420.275759 
L 574.989183 422.286576 
L 585.263061 424.174871 
L 595.536939 438.401945 
L 605.810817 434.459589 
L 616.084695 445.119084 
L 626.358573 439.79294 
L 636.632451 448.17495 
L 646.906329 453.400193 
L 657.180207 456.002003 
L 667.454085 469.28493 
L 677.727963 470.265113 
L 688.001841 472.470526 
L 698.275719 464.319148 
L 708.549597 470.661511 
L 718.823475 470.661511 
L 729.097353 470.661511 
L 739.371231 470.661511 
L 749.645109 470.661511 
L 759.918987 470.661511 
L 770.192865 470.661511 
L 780.466743 470.661511 
L 790.740621 470.661511 
L 801.014499 470.661511 
L 811.288377 470.661511 
L 821.562255 470.661511 
L 831.836133 470.661511 
L 842.110012 470.661511 
L 852.38389 470.661511 
L 862.657768 470.661511 
L 872.931646 470.661511 
L 883.205524 470.661511 
L 893.479402 470.661511 
L 903.75328 470.661511 
L 914.027158 470.661511 
L 924.301036 470.661511 
L 934.574914 470.661511 
L 944.848792 470.661511 
L 955.12267 470.661511 
L 965.396548 470.661511 
L 975.670426 470.661511 
L 985.944304 470.661511 
L 996.218182 470.661511 
" style="fill:none;stroke:#e377c2;stroke-linecap:square;stroke-width:1.5;"/>
   </g>
   <g id="line2d_22">
    <path clip-path="url(#p900193cc2d)" d="M 184.581818 88.930516 
L 194.855696 89.002588 
L 205.129574 89.067454 
L 215.403452 89.269256 
L 225.67733 89.766555 
L 235.951208 90.184574 
L 246.225086 90.501692 
L 256.498964 90.451242 
L 266.772842 90.703495 
L 277.04672 91.157551 
L 287.320598 92.051247 
L 297.594476 94.090894 
L 307.868354 97.226039 
L 318.142232 100.707132 
L 328.41611 102.999031 
L 338.689988 106.393637 
L 348.963867 110.73239 
L 359.237745 116.829708 
L 369.511623 123.172071 
L 379.785501 130.018941 
L 390.059379 127.143255 
L 400.333257 133.485619 
L 410.607135 148.901886 
L 420.881013 162.948779 
L 431.154891 165.355995 
L 441.428769 204.707476 
L 451.702647 281.226649 
L 461.976525 299.763647 
L 472.250403 311.698822 
L 482.524281 323.533096 
L 492.798159 335.007007 
L 503.072037 368.217928 
L 513.345915 413.342402 
L 523.619793 430.683 
L 533.893671 433.414541 
L 544.167549 427.929838 
L 554.441427 427.043349 
L 564.715305 431.591111 
L 574.989183 444.268631 
L 585.263061 440.023572 
L 595.536939 447.807381 
L 605.810817 451.879467 
L 616.084695 453.811005 
L 626.358573 463.425451 
L 636.632451 460.830848 
L 646.906329 464.888519 
L 657.180207 470.661511 
L 667.454085 470.661511 
L 677.727963 470.661511 
L 688.001841 470.661511 
L 698.275719 470.661511 
L 708.549597 470.661511 
L 718.823475 470.661511 
L 729.097353 470.661511 
L 739.371231 470.661511 
L 749.645109 470.661511 
L 759.918987 470.661511 
L 770.192865 470.661511 
L 780.466743 470.661511 
L 790.740621 470.661511 
L 801.014499 470.661511 
L 811.288377 470.661511 
L 821.562255 470.661511 
L 831.836133 470.661511 
L 842.110012 470.661511 
L 852.38389 470.661511 
L 862.657768 470.661511 
L 872.931646 470.661511 
L 883.205524 470.661511 
L 893.479402 470.661511 
L 903.75328 470.661511 
L 914.027158 470.661511 
L 924.301036 470.661511 
L 934.574914 470.661511 
L 944.848792 470.661511 
L 955.12267 470.661511 
L 965.396548 470.661511 
L 975.670426 470.661511 
L 985.944304 470.661511 
L 996.218182 470.661511 
" style="fill:none;stroke:#7f7f7f;stroke-linecap:square;stroke-width:1.5;"/>
   </g>
   <g id="line2d_23">
    <path clip-path="url(#p900193cc2d)" d="M 184.581818 89.017003 
L 194.855696 89.081868 
L 205.129574 89.096282 
L 215.403452 89.081868 
L 225.67733 89.254842 
L 235.951208 89.456644 
L 246.225086 89.579167 
L 256.498964 90.227818 
L 266.772842 90.689081 
L 277.04672 91.460254 
L 287.320598 92.454852 
L 297.594476 93.262062 
L 307.868354 93.752154 
L 318.142232 95.806215 
L 328.41611 101.060286 
L 338.689988 106.04769 
L 348.963867 109.658513 
L 359.237745 120.26035 
L 369.511623 148.822607 
L 379.785501 152.159555 
L 390.059379 150.091079 
L 400.333257 198.184932 
L 410.607135 229.053503 
L 420.881013 251.849975 
L 431.154891 256.00134 
L 441.428769 277.925737 
L 451.702647 286.437477 
L 461.976525 364.160257 
L 472.250403 382.509868 
L 482.524281 431.331651 
L 492.798159 431.418138 
L 503.072037 437.342482 
L 513.345915 447.980355 
L 523.619793 451.367753 
L 533.893671 449.284864 
L 544.167549 477.184055 
L 554.441427 484.232727 
L 564.715305 475.749816 
L 574.989183 476.304773 
L 585.263061 481.933621 
L 595.536939 470.661511 
L 605.810817 470.661511 
L 616.084695 470.661511 
L 626.358573 470.661511 
L 636.632451 470.661511 
L 646.906329 470.661511 
L 657.180207 470.661511 
L 667.454085 470.661511 
L 677.727963 470.661511 
L 688.001841 470.661511 
L 698.275719 470.661511 
L 708.549597 470.661511 
L 718.823475 470.661511 
L 729.097353 470.661511 
L 739.371231 470.661511 
L 749.645109 470.661511 
L 759.918987 470.661511 
L 770.192865 470.661511 
L 780.466743 470.661511 
L 790.740621 470.661511 
L 801.014499 470.661511 
L 811.288377 470.661511 
L 821.562255 470.661511 
L 831.836133 470.661511 
L 842.110012 470.661511 
L 852.38389 470.661511 
L 862.657768 470.661511 
L 872.931646 470.661511 
L 883.205524 470.661511 
L 893.479402 470.661511 
L 903.75328 470.661511 
L 914.027158 470.661511 
L 924.301036 470.661511 
L 934.574914 470.661511 
L 944.848792 470.661511 
L 955.12267 470.661511 
L 965.396548 470.661511 
L 975.670426 470.661511 
L 985.944304 470.661511 
L 996.218182 470.661511 
" style="fill:none;stroke:#bcbd22;stroke-dasharray:5.55,2.4;stroke-dashoffset:0;stroke-width:1.5;"/>
   </g>
   <g id="line2d_24">
    <path clip-path="url(#p900193cc2d)" d="M 184.581818 88.937723 
L 194.855696 88.952138 
L 205.129574 89.02421 
L 215.403452 89.197184 
L 225.67733 89.125111 
L 235.951208 89.36295 
L 246.225086 89.514302 
L 256.498964 89.672861 
L 266.772842 89.809798 
L 277.04672 90.004394 
L 287.320598 89.975565 
L 297.594476 90.285476 
L 307.868354 90.703495 
L 318.142232 91.128722 
L 328.41611 91.7053 
L 338.689988 91.806201 
L 348.963867 92.880079 
L 359.237745 96.159369 
L 369.511623 102.047677 
L 379.785501 104.757596 
L 390.059379 112.995461 
L 400.333257 119.84233 
L 410.607135 129.442362 
L 420.881013 134.999137 
L 431.154891 149.046031 
L 441.428769 158.415431 
L 451.702647 188.073187 
L 461.976525 211.489481 
L 472.250403 224.058892 
L 482.524281 251.698623 
L 492.798159 363.403498 
L 503.072037 357.190865 
L 513.345915 390.214398 
L 523.619793 393.652247 
L 533.893671 445.28485 
L 544.167549 447.187559 
L 554.441427 470.683133 
L 564.715305 470.69034 
L 574.989183 470.661511 
L 585.263061 470.661511 
L 595.536939 470.661511 
L 605.810817 470.661511 
L 616.084695 470.661511 
L 626.358573 470.661511 
L 636.632451 470.661511 
L 646.906329 470.661511 
L 657.180207 470.661511 
L 667.454085 470.661511 
L 677.727963 470.661511 
L 688.001841 470.661511 
L 698.275719 470.661511 
L 708.549597 470.661511 
L 718.823475 470.661511 
L 729.097353 470.661511 
L 739.371231 470.661511 
L 749.645109 470.661511 
L 759.918987 470.661511 
L 770.192865 470.661511 
L 780.466743 470.661511 
L 790.740621 470.661511 
L 801.014499 470.661511 
L 811.288377 470.661511 
L 821.562255 470.661511 
L 831.836133 470.661511 
L 842.110012 470.661511 
L 852.38389 470.661511 
L 862.657768 470.661511 
L 872.931646 470.661511 
L 883.205524 470.661511 
L 893.479402 470.661511 
L 903.75328 470.661511 
L 914.027158 470.661511 
L 924.301036 470.661511 
L 934.574914 470.661511 
L 944.848792 470.661511 
L 955.12267 470.661511 
L 965.396548 470.661511 
L 975.670426 470.661511 
L 985.944304 470.661511 
L 996.218182 470.661511 
" style="fill:none;stroke:#17becf;stroke-dasharray:5.55,2.4;stroke-dashoffset:0;stroke-width:1.5;"/>
   </g>
   <g id="line2d_25">
    <path clip-path="url(#p900193cc2d)" d="M 184.581818 88.89448 
L 194.855696 89.074661 
L 205.129574 89.312499 
L 215.403452 89.860249 
L 225.67733 90.407998 
L 235.951208 90.364755 
L 246.225086 91.287281 
L 256.498964 91.424218 
L 266.772842 91.741336 
L 277.04672 92.3035 
L 287.320598 93.881884 
L 297.594476 96.562974 
L 307.868354 98.977396 
L 318.142232 103.597231 
L 328.41611 113.017082 
L 338.689988 116.836915 
L 348.963867 143.42439 
L 359.237745 141.903665 
L 369.511623 151.712706 
L 379.785501 162.249678 
L 390.059379 172.923587 
L 400.333257 180.894785 
L 410.607135 190.588511 
L 420.881013 196.512855 
L 431.154891 207.057034 
L 441.428769 240.844533 
L 451.702647 253.904036 
L 461.976525 273.817615 
L 472.250403 309.67359 
L 482.524281 302.04834 
L 492.798159 311.115036 
L 503.072037 311.669993 
L 513.345915 324.621387 
L 523.619793 344.066497 
L 533.893671 393.702697 
L 544.167549 398.336947 
L 554.441427 389.017997 
L 564.715305 384.441406 
L 574.989183 419.893775 
L 585.263061 422.661352 
L 595.536939 424.131627 
L 605.810817 427.396503 
L 616.084695 438.04879 
L 626.358573 435.699233 
L 636.632451 470.661511 
L 646.906329 470.661511 
L 657.180207 470.661511 
L 667.454085 470.661511 
L 677.727963 470.661511 
L 688.001841 470.661511 
L 698.275719 470.661511 
L 708.549597 470.661511 
L 718.823475 470.661511 
L 729.097353 470.661511 
L 739.371231 470.661511 
L 749.645109 470.661511 
L 759.918987 470.661511 
L 770.192865 470.661511 
L 780.466743 470.661511 
L 790.740621 470.661511 
L 801.014499 470.661511 
L 811.288377 470.661511 
L 821.562255 470.661511 
L 831.836133 470.661511 
L 842.110012 470.661511 
L 852.38389 470.661511 
L 862.657768 470.661511 
L 872.931646 470.661511 
L 883.205524 470.661511 
L 893.479402 470.661511 
L 903.75328 470.661511 
L 914.027158 470.661511 
L 924.301036 470.661511 
L 934.574914 470.661511 
L 944.848792 470.661511 
L 955.12267 470.661511 
L 965.396548 470.661511 
L 975.670426 470.661511 
L 985.944304 470.661511 
L 996.218182 470.661511 
" style="fill:none;stroke:#1f77b4;stroke-dasharray:5.55,2.4;stroke-dashoffset:0;stroke-width:1.5;"/>
   </g>
   <g id="patch_3">
    <path d="M 144 504 
L 144 69.12 
" style="fill:none;stroke:#000000;stroke-linecap:square;stroke-linejoin:miter;stroke-width:0.8;"/>
   </g>
   <g id="patch_4">
    <path d="M 1036.8 504 
L 1036.8 69.12 
" style="fill:none;stroke:#000000;stroke-linecap:square;stroke-linejoin:miter;stroke-width:0.8;"/>
   </g>
   <g id="patch_5">
    <path d="M 144 504 
L 1036.8 504 
" style="fill:none;stroke:#000000;stroke-linecap:square;stroke-linejoin:miter;stroke-width:0.8;"/>
   </g>
   <g id="patch_6">
    <path d="M 144 69.12 
L 1036.8 69.12 
" style="fill:none;stroke:#000000;stroke-linecap:square;stroke-linejoin:miter;stroke-width:0.8;"/>
   </g>
   <g id="legend_1">
    <g id="patch_7">
     <path d="M 879.920312 240.52625 
L 1029.8 240.52625 
Q 1031.8 240.52625 1031.8 238.52625 
L 1031.8 76.12 
Q 1031.8 74.12 1029.8 74.12 
L 879.920312 74.12 
Q 877.920312 74.12 877.920312 76.12 
L 877.920312 238.52625 
Q 877.920312 240.52625 879.920312 240.52625 
z
" style="fill:#ffffff;opacity:0.8;stroke:#cccccc;stroke-linejoin:miter;"/>
    </g>
    <g id="line2d_26">
     <path d="M 881.920312 82.218437 
L 901.920312 82.218437 
" style="fill:none;stroke:#1f77b4;stroke-linecap:square;stroke-width:1.5;"/>
    </g>
    <g id="line2d_27"/>
    <g id="text_17">
     <!-- taylorfo noBN -->
     <defs>
      <path d="M 18.3125 70.21875 
L 18.3125 54.6875 
L 36.8125 54.6875 
L 36.8125 47.703125 
L 18.3125 47.703125 
L 18.3125 18.015625 
Q 18.3125 11.328125 20.140625 9.421875 
Q 21.96875 7.515625 27.59375 7.515625 
L 36.8125 7.515625 
L 36.8125 0 
L 27.59375 0 
Q 17.1875 0 13.234375 3.875 
Q 9.28125 7.765625 9.28125 18.015625 
L 9.28125 47.703125 
L 2.6875 47.703125 
L 2.6875 54.6875 
L 9.28125 54.6875 
L 9.28125 70.21875 
z
" id="DejaVuSans-116"/>
      <path d="M 9.421875 75.984375 
L 18.40625 75.984375 
L 18.40625 0 
L 9.421875 0 
z
" id="DejaVuSans-108"/>
      <path d="M 19.671875 34.8125 
L 19.671875 8.109375 
L 35.5 8.109375 
Q 43.453125 8.109375 47.28125 11.40625 
Q 51.125 14.703125 51.125 21.484375 
Q 51.125 28.328125 47.28125 31.5625 
Q 43.453125 34.8125 35.5 34.8125 
z
M 19.671875 64.796875 
L 19.671875 42.828125 
L 34.28125 42.828125 
Q 41.5 42.828125 45.03125 45.53125 
Q 48.578125 48.25 48.578125 53.8125 
Q 48.578125 59.328125 45.03125 62.0625 
Q 41.5 64.796875 34.28125 64.796875 
z
M 9.8125 72.90625 
L 35.015625 72.90625 
Q 46.296875 72.90625 52.390625 68.21875 
Q 58.5 63.53125 58.5 54.890625 
Q 58.5 48.1875 55.375 44.234375 
Q 52.25 40.28125 46.1875 39.3125 
Q 53.46875 37.75 57.5 32.78125 
Q 61.53125 27.828125 61.53125 20.40625 
Q 61.53125 10.640625 54.890625 5.3125 
Q 48.25 0 35.984375 0 
L 9.8125 0 
z
" id="DejaVuSans-66"/>
     </defs>
     <g transform="translate(909.920312 85.718437)scale(0.1 -0.1)">
      <use xlink:href="#DejaVuSans-116"/>
      <use x="39.208984" xlink:href="#DejaVuSans-97"/>
      <use x="100.488281" xlink:href="#DejaVuSans-121"/>
      <use x="159.667969" xlink:href="#DejaVuSans-108"/>
      <use x="187.451172" xlink:href="#DejaVuSans-111"/>
      <use x="248.632812" xlink:href="#DejaVuSans-114"/>
      <use x="289.746094" xlink:href="#DejaVuSans-102"/>
      <use x="324.951172" xlink:href="#DejaVuSans-111"/>
      <use x="386.132812" xlink:href="#DejaVuSans-32"/>
      <use x="417.919922" xlink:href="#DejaVuSans-110"/>
      <use x="481.298828" xlink:href="#DejaVuSans-111"/>
      <use x="542.480469" xlink:href="#DejaVuSans-66"/>
      <use x="611.083984" xlink:href="#DejaVuSans-78"/>
     </g>
    </g>
    <g id="line2d_28">
     <path d="M 881.920312 96.896563 
L 901.920312 96.896563 
" style="fill:none;stroke:#ff7f0e;stroke-linecap:square;stroke-width:1.5;"/>
    </g>
    <g id="line2d_29"/>
    <g id="text_18">
     <!-- taylorfo_abs noBN -->
     <defs>
      <path d="M 50.984375 -16.609375 
L 50.984375 -23.578125 
L -0.984375 -23.578125 
L -0.984375 -16.609375 
z
" id="DejaVuSans-95"/>
     </defs>
     <g transform="translate(909.920312 100.396563)scale(0.1 -0.1)">
      <use xlink:href="#DejaVuSans-116"/>
      <use x="39.208984" xlink:href="#DejaVuSans-97"/>
      <use x="100.488281" xlink:href="#DejaVuSans-121"/>
      <use x="159.667969" xlink:href="#DejaVuSans-108"/>
      <use x="187.451172" xlink:href="#DejaVuSans-111"/>
      <use x="248.632812" xlink:href="#DejaVuSans-114"/>
      <use x="289.746094" xlink:href="#DejaVuSans-102"/>
      <use x="324.951172" xlink:href="#DejaVuSans-111"/>
      <use x="386.132812" xlink:href="#DejaVuSans-95"/>
      <use x="436.132812" xlink:href="#DejaVuSans-97"/>
      <use x="497.412109" xlink:href="#DejaVuSans-98"/>
      <use x="560.888672" xlink:href="#DejaVuSans-115"/>
      <use x="612.988281" xlink:href="#DejaVuSans-32"/>
      <use x="644.775391" xlink:href="#DejaVuSans-110"/>
      <use x="708.154297" xlink:href="#DejaVuSans-111"/>
      <use x="769.335938" xlink:href="#DejaVuSans-66"/>
      <use x="837.939453" xlink:href="#DejaVuSans-78"/>
     </g>
    </g>
    <g id="line2d_30">
     <path d="M 881.920312 111.852813 
L 901.920312 111.852813 
" style="fill:none;stroke:#2ca02c;stroke-linecap:square;stroke-width:1.5;"/>
    </g>
    <g id="line2d_31"/>
    <g id="text_19">
     <!-- taylorfo_sq noBN -->
     <defs>
      <path d="M 14.796875 27.296875 
Q 14.796875 17.390625 18.875 11.75 
Q 22.953125 6.109375 30.078125 6.109375 
Q 37.203125 6.109375 41.296875 11.75 
Q 45.40625 17.390625 45.40625 27.296875 
Q 45.40625 37.203125 41.296875 42.84375 
Q 37.203125 48.484375 30.078125 48.484375 
Q 22.953125 48.484375 18.875 42.84375 
Q 14.796875 37.203125 14.796875 27.296875 
z
M 45.40625 8.203125 
Q 42.578125 3.328125 38.25 0.953125 
Q 33.9375 -1.421875 27.875 -1.421875 
Q 17.96875 -1.421875 11.734375 6.484375 
Q 5.515625 14.40625 5.515625 27.296875 
Q 5.515625 40.1875 11.734375 48.09375 
Q 17.96875 56 27.875 56 
Q 33.9375 56 38.25 53.625 
Q 42.578125 51.265625 45.40625 46.390625 
L 45.40625 54.6875 
L 54.390625 54.6875 
L 54.390625 -20.796875 
L 45.40625 -20.796875 
z
" id="DejaVuSans-113"/>
     </defs>
     <g transform="translate(909.920312 115.352813)scale(0.1 -0.1)">
      <use xlink:href="#DejaVuSans-116"/>
      <use x="39.208984" xlink:href="#DejaVuSans-97"/>
      <use x="100.488281" xlink:href="#DejaVuSans-121"/>
      <use x="159.667969" xlink:href="#DejaVuSans-108"/>
      <use x="187.451172" xlink:href="#DejaVuSans-111"/>
      <use x="248.632812" xlink:href="#DejaVuSans-114"/>
      <use x="289.746094" xlink:href="#DejaVuSans-102"/>
      <use x="324.951172" xlink:href="#DejaVuSans-111"/>
      <use x="386.132812" xlink:href="#DejaVuSans-95"/>
      <use x="436.132812" xlink:href="#DejaVuSans-115"/>
      <use x="488.232422" xlink:href="#DejaVuSans-113"/>
      <use x="551.708984" xlink:href="#DejaVuSans-32"/>
      <use x="583.496094" xlink:href="#DejaVuSans-110"/>
      <use x="646.875" xlink:href="#DejaVuSans-111"/>
      <use x="708.056641" xlink:href="#DejaVuSans-66"/>
      <use x="776.660156" xlink:href="#DejaVuSans-78"/>
     </g>
    </g>
    <g id="line2d_32">
     <path d="M 881.920312 126.809062 
L 901.920312 126.809062 
" style="fill:none;stroke:#d62728;stroke-dasharray:5.55,2.4;stroke-dashoffset:0;stroke-width:1.5;"/>
    </g>
    <g id="line2d_33"/>
    <g id="text_20">
     <!-- Molchanov_group noBN -->
     <defs>
      <path d="M 9.8125 72.90625 
L 24.515625 72.90625 
L 43.109375 23.296875 
L 61.8125 72.90625 
L 76.515625 72.90625 
L 76.515625 0 
L 66.890625 0 
L 66.890625 64.015625 
L 48.09375 14.015625 
L 38.1875 14.015625 
L 19.390625 64.015625 
L 19.390625 0 
L 9.8125 0 
z
" id="DejaVuSans-77"/>
      <path d="M 54.890625 33.015625 
L 54.890625 0 
L 45.90625 0 
L 45.90625 32.71875 
Q 45.90625 40.484375 42.875 44.328125 
Q 39.84375 48.1875 33.796875 48.1875 
Q 26.515625 48.1875 22.3125 43.546875 
Q 18.109375 38.921875 18.109375 30.90625 
L 18.109375 0 
L 9.078125 0 
L 9.078125 75.984375 
L 18.109375 75.984375 
L 18.109375 46.1875 
Q 21.34375 51.125 25.703125 53.5625 
Q 30.078125 56 35.796875 56 
Q 45.21875 56 50.046875 50.171875 
Q 54.890625 44.34375 54.890625 33.015625 
z
" id="DejaVuSans-104"/>
      <path d="M 2.984375 54.6875 
L 12.5 54.6875 
L 29.59375 8.796875 
L 46.6875 54.6875 
L 56.203125 54.6875 
L 35.6875 0 
L 23.484375 0 
z
" id="DejaVuSans-118"/>
      <path d="M 45.40625 27.984375 
Q 45.40625 37.75 41.375 43.109375 
Q 37.359375 48.484375 30.078125 48.484375 
Q 22.859375 48.484375 18.828125 43.109375 
Q 14.796875 37.75 14.796875 27.984375 
Q 14.796875 18.265625 18.828125 12.890625 
Q 22.859375 7.515625 30.078125 7.515625 
Q 37.359375 7.515625 41.375 12.890625 
Q 45.40625 18.265625 45.40625 27.984375 
z
M 54.390625 6.78125 
Q 54.390625 -7.171875 48.1875 -13.984375 
Q 42 -20.796875 29.203125 -20.796875 
Q 24.46875 -20.796875 20.265625 -20.09375 
Q 16.0625 -19.390625 12.109375 -17.921875 
L 12.109375 -9.1875 
Q 16.0625 -11.328125 19.921875 -12.34375 
Q 23.78125 -13.375 27.78125 -13.375 
Q 36.625 -13.375 41.015625 -8.765625 
Q 45.40625 -4.15625 45.40625 5.171875 
L 45.40625 9.625 
Q 42.625 4.78125 38.28125 2.390625 
Q 33.9375 0 27.875 0 
Q 17.828125 0 11.671875 7.65625 
Q 5.515625 15.328125 5.515625 27.984375 
Q 5.515625 40.671875 11.671875 48.328125 
Q 17.828125 56 27.875 56 
Q 33.9375 56 38.28125 53.609375 
Q 42.625 51.21875 45.40625 46.390625 
L 45.40625 54.6875 
L 54.390625 54.6875 
z
" id="DejaVuSans-103"/>
     </defs>
     <g transform="translate(909.920312 130.309062)scale(0.1 -0.1)">
      <use xlink:href="#DejaVuSans-77"/>
      <use x="86.279297" xlink:href="#DejaVuSans-111"/>
      <use x="147.460938" xlink:href="#DejaVuSans-108"/>
      <use x="175.244141" xlink:href="#DejaVuSans-99"/>
      <use x="230.224609" xlink:href="#DejaVuSans-104"/>
      <use x="293.603516" xlink:href="#DejaVuSans-97"/>
      <use x="354.882812" xlink:href="#DejaVuSans-110"/>
      <use x="418.261719" xlink:href="#DejaVuSans-111"/>
      <use x="479.443359" xlink:href="#DejaVuSans-118"/>
      <use x="538.623047" xlink:href="#DejaVuSans-95"/>
      <use x="588.623047" xlink:href="#DejaVuSans-103"/>
      <use x="652.099609" xlink:href="#DejaVuSans-114"/>
      <use x="690.962891" xlink:href="#DejaVuSans-111"/>
      <use x="752.144531" xlink:href="#DejaVuSans-117"/>
      <use x="815.523438" xlink:href="#DejaVuSans-112"/>
      <use x="879" xlink:href="#DejaVuSans-32"/>
      <use x="910.787109" xlink:href="#DejaVuSans-110"/>
      <use x="974.166016" xlink:href="#DejaVuSans-111"/>
      <use x="1035.347656" xlink:href="#DejaVuSans-66"/>
      <use x="1103.951172" xlink:href="#DejaVuSans-78"/>
     </g>
    </g>
    <g id="line2d_34">
     <path d="M 881.920312 141.765312 
L 901.920312 141.765312 
" style="fill:none;stroke:#9467bd;stroke-dasharray:5.55,2.4;stroke-dashoffset:0;stroke-width:1.5;"/>
    </g>
    <g id="line2d_35"/>
    <g id="text_21">
     <!-- APnZ noBN -->
     <defs>
      <path d="M 19.671875 64.796875 
L 19.671875 37.40625 
L 32.078125 37.40625 
Q 38.96875 37.40625 42.71875 40.96875 
Q 46.484375 44.53125 46.484375 51.125 
Q 46.484375 57.671875 42.71875 61.234375 
Q 38.96875 64.796875 32.078125 64.796875 
z
M 9.8125 72.90625 
L 32.078125 72.90625 
Q 44.34375 72.90625 50.609375 67.359375 
Q 56.890625 61.8125 56.890625 51.125 
Q 56.890625 40.328125 50.609375 34.8125 
Q 44.34375 29.296875 32.078125 29.296875 
L 19.671875 29.296875 
L 19.671875 0 
L 9.8125 0 
z
" id="DejaVuSans-80"/>
      <path d="M 5.609375 72.90625 
L 62.890625 72.90625 
L 62.890625 65.375 
L 16.796875 8.296875 
L 64.015625 8.296875 
L 64.015625 0 
L 4.5 0 
L 4.5 7.515625 
L 50.59375 64.59375 
L 5.609375 64.59375 
z
" id="DejaVuSans-90"/>
     </defs>
     <g transform="translate(909.920312 145.265312)scale(0.1 -0.1)">
      <use xlink:href="#DejaVuSans-65"/>
      <use x="68.408203" xlink:href="#DejaVuSans-80"/>
      <use x="126.960938" xlink:href="#DejaVuSans-110"/>
      <use x="190.339844" xlink:href="#DejaVuSans-90"/>
      <use x="258.845703" xlink:href="#DejaVuSans-32"/>
      <use x="290.632812" xlink:href="#DejaVuSans-110"/>
      <use x="354.011719" xlink:href="#DejaVuSans-111"/>
      <use x="415.193359" xlink:href="#DejaVuSans-66"/>
      <use x="483.796875" xlink:href="#DejaVuSans-78"/>
     </g>
    </g>
    <g id="line2d_36">
     <path d="M 881.920312 156.443438 
L 901.920312 156.443438 
" style="fill:none;stroke:#8c564b;stroke-linecap:square;stroke-width:1.5;"/>
    </g>
    <g id="line2d_37"/>
    <g id="text_22">
     <!-- taylorfo BN -->
     <g transform="translate(909.920312 159.943438)scale(0.1 -0.1)">
      <use xlink:href="#DejaVuSans-116"/>
      <use x="39.208984" xlink:href="#DejaVuSans-97"/>
      <use x="100.488281" xlink:href="#DejaVuSans-121"/>
      <use x="159.667969" xlink:href="#DejaVuSans-108"/>
      <use x="187.451172" xlink:href="#DejaVuSans-111"/>
      <use x="248.632812" xlink:href="#DejaVuSans-114"/>
      <use x="289.746094" xlink:href="#DejaVuSans-102"/>
      <use x="324.951172" xlink:href="#DejaVuSans-111"/>
      <use x="386.132812" xlink:href="#DejaVuSans-32"/>
      <use x="417.919922" xlink:href="#DejaVuSans-66"/>
      <use x="486.523438" xlink:href="#DejaVuSans-78"/>
     </g>
    </g>
    <g id="line2d_38">
     <path d="M 881.920312 171.121562 
L 901.920312 171.121562 
" style="fill:none;stroke:#e377c2;stroke-linecap:square;stroke-width:1.5;"/>
    </g>
    <g id="line2d_39"/>
    <g id="text_23">
     <!-- taylorfo_abs BN -->
     <g transform="translate(909.920312 174.621562)scale(0.1 -0.1)">
      <use xlink:href="#DejaVuSans-116"/>
      <use x="39.208984" xlink:href="#DejaVuSans-97"/>
      <use x="100.488281" xlink:href="#DejaVuSans-121"/>
      <use x="159.667969" xlink:href="#DejaVuSans-108"/>
      <use x="187.451172" xlink:href="#DejaVuSans-111"/>
      <use x="248.632812" xlink:href="#DejaVuSans-114"/>
      <use x="289.746094" xlink:href="#DejaVuSans-102"/>
      <use x="324.951172" xlink:href="#DejaVuSans-111"/>
      <use x="386.132812" xlink:href="#DejaVuSans-95"/>
      <use x="436.132812" xlink:href="#DejaVuSans-97"/>
      <use x="497.412109" xlink:href="#DejaVuSans-98"/>
      <use x="560.888672" xlink:href="#DejaVuSans-115"/>
      <use x="612.988281" xlink:href="#DejaVuSans-32"/>
      <use x="644.775391" xlink:href="#DejaVuSans-66"/>
      <use x="713.378906" xlink:href="#DejaVuSans-78"/>
     </g>
    </g>
    <g id="line2d_40">
     <path d="M 881.920312 186.077812 
L 901.920312 186.077812 
" style="fill:none;stroke:#7f7f7f;stroke-linecap:square;stroke-width:1.5;"/>
    </g>
    <g id="line2d_41"/>
    <g id="text_24">
     <!-- taylorfo_sq BN -->
     <g transform="translate(909.920312 189.577812)scale(0.1 -0.1)">
      <use xlink:href="#DejaVuSans-116"/>
      <use x="39.208984" xlink:href="#DejaVuSans-97"/>
      <use x="100.488281" xlink:href="#DejaVuSans-121"/>
      <use x="159.667969" xlink:href="#DejaVuSans-108"/>
      <use x="187.451172" xlink:href="#DejaVuSans-111"/>
      <use x="248.632812" xlink:href="#DejaVuSans-114"/>
      <use x="289.746094" xlink:href="#DejaVuSans-102"/>
      <use x="324.951172" xlink:href="#DejaVuSans-111"/>
      <use x="386.132812" xlink:href="#DejaVuSans-95"/>
      <use x="436.132812" xlink:href="#DejaVuSans-115"/>
      <use x="488.232422" xlink:href="#DejaVuSans-113"/>
      <use x="551.708984" xlink:href="#DejaVuSans-32"/>
      <use x="583.496094" xlink:href="#DejaVuSans-66"/>
      <use x="652.099609" xlink:href="#DejaVuSans-78"/>
     </g>
    </g>
    <g id="line2d_42">
     <path d="M 881.920312 201.034063 
L 901.920312 201.034063 
" style="fill:none;stroke:#bcbd22;stroke-dasharray:5.55,2.4;stroke-dashoffset:0;stroke-width:1.5;"/>
    </g>
    <g id="line2d_43"/>
    <g id="text_25">
     <!-- Molchanov_group BN -->
     <g transform="translate(909.920312 204.534063)scale(0.1 -0.1)">
      <use xlink:href="#DejaVuSans-77"/>
      <use x="86.279297" xlink:href="#DejaVuSans-111"/>
      <use x="147.460938" xlink:href="#DejaVuSans-108"/>
      <use x="175.244141" xlink:href="#DejaVuSans-99"/>
      <use x="230.224609" xlink:href="#DejaVuSans-104"/>
      <use x="293.603516" xlink:href="#DejaVuSans-97"/>
      <use x="354.882812" xlink:href="#DejaVuSans-110"/>
      <use x="418.261719" xlink:href="#DejaVuSans-111"/>
      <use x="479.443359" xlink:href="#DejaVuSans-118"/>
      <use x="538.623047" xlink:href="#DejaVuSans-95"/>
      <use x="588.623047" xlink:href="#DejaVuSans-103"/>
      <use x="652.099609" xlink:href="#DejaVuSans-114"/>
      <use x="690.962891" xlink:href="#DejaVuSans-111"/>
      <use x="752.144531" xlink:href="#DejaVuSans-117"/>
      <use x="815.523438" xlink:href="#DejaVuSans-112"/>
      <use x="879" xlink:href="#DejaVuSans-32"/>
      <use x="910.787109" xlink:href="#DejaVuSans-66"/>
      <use x="979.390625" xlink:href="#DejaVuSans-78"/>
     </g>
    </g>
    <g id="line2d_44">
     <path d="M 881.920312 215.990312 
L 901.920312 215.990312 
" style="fill:none;stroke:#17becf;stroke-dasharray:5.55,2.4;stroke-dashoffset:0;stroke-width:1.5;"/>
    </g>
    <g id="line2d_45"/>
    <g id="text_26">
     <!-- Molchanov_BN BN -->
     <g transform="translate(909.920312 219.490312)scale(0.1 -0.1)">
      <use xlink:href="#DejaVuSans-77"/>
      <use x="86.279297" xlink:href="#DejaVuSans-111"/>
      <use x="147.460938" xlink:href="#DejaVuSans-108"/>
      <use x="175.244141" xlink:href="#DejaVuSans-99"/>
      <use x="230.224609" xlink:href="#DejaVuSans-104"/>
      <use x="293.603516" xlink:href="#DejaVuSans-97"/>
      <use x="354.882812" xlink:href="#DejaVuSans-110"/>
      <use x="418.261719" xlink:href="#DejaVuSans-111"/>
      <use x="479.443359" xlink:href="#DejaVuSans-118"/>
      <use x="538.623047" xlink:href="#DejaVuSans-95"/>
      <use x="588.623047" xlink:href="#DejaVuSans-66"/>
      <use x="657.226562" xlink:href="#DejaVuSans-78"/>
      <use x="732.03125" xlink:href="#DejaVuSans-32"/>
      <use x="763.818359" xlink:href="#DejaVuSans-66"/>
      <use x="832.421875" xlink:href="#DejaVuSans-78"/>
     </g>
    </g>
    <g id="line2d_46">
     <path d="M 881.920312 230.946563 
L 901.920312 230.946563 
" style="fill:none;stroke:#1f77b4;stroke-dasharray:5.55,2.4;stroke-dashoffset:0;stroke-width:1.5;"/>
    </g>
    <g id="line2d_47"/>
    <g id="text_27">
     <!-- APnZ BN -->
     <g transform="translate(909.920312 234.446563)scale(0.1 -0.1)">
      <use xlink:href="#DejaVuSans-65"/>
      <use x="68.408203" xlink:href="#DejaVuSans-80"/>
      <use x="126.960938" xlink:href="#DejaVuSans-110"/>
      <use x="190.339844" xlink:href="#DejaVuSans-90"/>
      <use x="258.845703" xlink:href="#DejaVuSans-32"/>
      <use x="290.632812" xlink:href="#DejaVuSans-66"/>
      <use x="359.236328" xlink:href="#DejaVuSans-78"/>
     </g>
    </g>
   </g>
  </g>
 </g>
 <defs>
  <clipPath id="p900193cc2d">
   <rect height="434.88" width="892.8" x="144" y="69.12"/>
  </clipPath>
 </defs>
</svg>
