<?xml version="1.0" encoding="utf-8" standalone="no"?>
<!DOCTYPE svg PUBLIC "-//W3C//DTD SVG 1.1//EN"
  "http://www.w3.org/Graphics/SVG/1.1/DTD/svg11.dtd">
<!-- Created with matplotlib (https://matplotlib.org/) -->
<svg height="576pt" version="1.1" viewBox="0 0 1152 576" width="1152pt" xmlns="http://www.w3.org/2000/svg" xmlns:xlink="http://www.w3.org/1999/xlink">
 <defs>
  <style type="text/css">
*{stroke-linecap:butt;stroke-linejoin:round;}
  </style>
 </defs>
 <g id="figure_1">
  <g id="patch_1">
   <path d="M 0 576 
L 1152 576 
L 1152 0 
L 0 0 
z
" style="fill:#ffffff;"/>
  </g>
  <g id="axes_1">
   <g id="patch_2">
    <path d="M 144 504 
L 1036.8 504 
L 1036.8 69.12 
L 144 69.12 
z
" style="fill:#ffffff;"/>
   </g>
   <g id="matplotlib.axis_1">
    <g id="xtick_1">
     <g id="line2d_1">
      <defs>
       <path d="M 0 0 
L 0 3.5 
" id="m7d677a89c1" style="stroke:#000000;stroke-width:0.8;"/>
      </defs>
      <g>
       <use style="stroke:#000000;stroke-width:0.8;" x="182.527043" xlink:href="#m7d677a89c1" y="504"/>
      </g>
     </g>
     <g id="text_1">
      <!-- 0 -->
      <defs>
       <path d="M 31.78125 66.40625 
Q 24.171875 66.40625 20.328125 58.90625 
Q 16.5 51.421875 16.5 36.375 
Q 16.5 21.390625 20.328125 13.890625 
Q 24.171875 6.390625 31.78125 6.390625 
Q 39.453125 6.390625 43.28125 13.890625 
Q 47.125 21.390625 47.125 36.375 
Q 47.125 51.421875 43.28125 58.90625 
Q 39.453125 66.40625 31.78125 66.40625 
z
M 31.78125 74.21875 
Q 44.046875 74.21875 50.515625 64.515625 
Q 56.984375 54.828125 56.984375 36.375 
Q 56.984375 17.96875 50.515625 8.265625 
Q 44.046875 -1.421875 31.78125 -1.421875 
Q 19.53125 -1.421875 13.0625 8.265625 
Q 6.59375 17.96875 6.59375 36.375 
Q 6.59375 54.828125 13.0625 64.515625 
Q 19.53125 74.21875 31.78125 74.21875 
z
" id="DejaVuSans-48"/>
      </defs>
      <g transform="translate(179.345793 518.598438)scale(0.1 -0.1)">
       <use xlink:href="#DejaVuSans-48"/>
      </g>
     </g>
    </g>
    <g id="xtick_2">
     <g id="line2d_2">
      <g>
       <use style="stroke:#000000;stroke-width:0.8;" x="285.265823" xlink:href="#m7d677a89c1" y="504"/>
      </g>
     </g>
     <g id="text_2">
      <!-- 50 -->
      <defs>
       <path d="M 10.796875 72.90625 
L 49.515625 72.90625 
L 49.515625 64.59375 
L 19.828125 64.59375 
L 19.828125 46.734375 
Q 21.96875 47.46875 24.109375 47.828125 
Q 26.265625 48.1875 28.421875 48.1875 
Q 40.625 48.1875 47.75 41.5 
Q 54.890625 34.8125 54.890625 23.390625 
Q 54.890625 11.625 47.5625 5.09375 
Q 40.234375 -1.421875 26.90625 -1.421875 
Q 22.3125 -1.421875 17.546875 -0.640625 
Q 12.796875 0.140625 7.71875 1.703125 
L 7.71875 11.625 
Q 12.109375 9.234375 16.796875 8.0625 
Q 21.484375 6.890625 26.703125 6.890625 
Q 35.15625 6.890625 40.078125 11.328125 
Q 45.015625 15.765625 45.015625 23.390625 
Q 45.015625 31 40.078125 35.4375 
Q 35.15625 39.890625 26.703125 39.890625 
Q 22.75 39.890625 18.8125 39.015625 
Q 14.890625 38.140625 10.796875 36.28125 
z
" id="DejaVuSans-53"/>
      </defs>
      <g transform="translate(278.903323 518.598438)scale(0.1 -0.1)">
       <use xlink:href="#DejaVuSans-53"/>
       <use x="63.623047" xlink:href="#DejaVuSans-48"/>
      </g>
     </g>
    </g>
    <g id="xtick_3">
     <g id="line2d_3">
      <g>
       <use style="stroke:#000000;stroke-width:0.8;" x="388.004603" xlink:href="#m7d677a89c1" y="504"/>
      </g>
     </g>
     <g id="text_3">
      <!-- 100 -->
      <defs>
       <path d="M 12.40625 8.296875 
L 28.515625 8.296875 
L 28.515625 63.921875 
L 10.984375 60.40625 
L 10.984375 69.390625 
L 28.421875 72.90625 
L 38.28125 72.90625 
L 38.28125 8.296875 
L 54.390625 8.296875 
L 54.390625 0 
L 12.40625 0 
z
" id="DejaVuSans-49"/>
      </defs>
      <g transform="translate(378.460853 518.598438)scale(0.1 -0.1)">
       <use xlink:href="#DejaVuSans-49"/>
       <use x="63.623047" xlink:href="#DejaVuSans-48"/>
       <use x="127.246094" xlink:href="#DejaVuSans-48"/>
      </g>
     </g>
    </g>
    <g id="xtick_4">
     <g id="line2d_4">
      <g>
       <use style="stroke:#000000;stroke-width:0.8;" x="490.743383" xlink:href="#m7d677a89c1" y="504"/>
      </g>
     </g>
     <g id="text_4">
      <!-- 150 -->
      <g transform="translate(481.199633 518.598438)scale(0.1 -0.1)">
       <use xlink:href="#DejaVuSans-49"/>
       <use x="63.623047" xlink:href="#DejaVuSans-53"/>
       <use x="127.246094" xlink:href="#DejaVuSans-48"/>
      </g>
     </g>
    </g>
    <g id="xtick_5">
     <g id="line2d_5">
      <g>
       <use style="stroke:#000000;stroke-width:0.8;" x="593.482163" xlink:href="#m7d677a89c1" y="504"/>
      </g>
     </g>
     <g id="text_5">
      <!-- 200 -->
      <defs>
       <path d="M 19.1875 8.296875 
L 53.609375 8.296875 
L 53.609375 0 
L 7.328125 0 
L 7.328125 8.296875 
Q 12.9375 14.109375 22.625 23.890625 
Q 32.328125 33.6875 34.8125 36.53125 
Q 39.546875 41.84375 41.421875 45.53125 
Q 43.3125 49.21875 43.3125 52.78125 
Q 43.3125 58.59375 39.234375 62.25 
Q 35.15625 65.921875 28.609375 65.921875 
Q 23.96875 65.921875 18.8125 64.3125 
Q 13.671875 62.703125 7.8125 59.421875 
L 7.8125 69.390625 
Q 13.765625 71.78125 18.9375 73 
Q 24.125 74.21875 28.421875 74.21875 
Q 39.75 74.21875 46.484375 68.546875 
Q 53.21875 62.890625 53.21875 53.421875 
Q 53.21875 48.921875 51.53125 44.890625 
Q 49.859375 40.875 45.40625 35.40625 
Q 44.1875 33.984375 37.640625 27.21875 
Q 31.109375 20.453125 19.1875 8.296875 
z
" id="DejaVuSans-50"/>
      </defs>
      <g transform="translate(583.938413 518.598438)scale(0.1 -0.1)">
       <use xlink:href="#DejaVuSans-50"/>
       <use x="63.623047" xlink:href="#DejaVuSans-48"/>
       <use x="127.246094" xlink:href="#DejaVuSans-48"/>
      </g>
     </g>
    </g>
    <g id="xtick_6">
     <g id="line2d_6">
      <g>
       <use style="stroke:#000000;stroke-width:0.8;" x="696.220944" xlink:href="#m7d677a89c1" y="504"/>
      </g>
     </g>
     <g id="text_6">
      <!-- 250 -->
      <g transform="translate(686.677194 518.598438)scale(0.1 -0.1)">
       <use xlink:href="#DejaVuSans-50"/>
       <use x="63.623047" xlink:href="#DejaVuSans-53"/>
       <use x="127.246094" xlink:href="#DejaVuSans-48"/>
      </g>
     </g>
    </g>
    <g id="xtick_7">
     <g id="line2d_7">
      <g>
       <use style="stroke:#000000;stroke-width:0.8;" x="798.959724" xlink:href="#m7d677a89c1" y="504"/>
      </g>
     </g>
     <g id="text_7">
      <!-- 300 -->
      <defs>
       <path d="M 40.578125 39.3125 
Q 47.65625 37.796875 51.625 33 
Q 55.609375 28.21875 55.609375 21.1875 
Q 55.609375 10.40625 48.1875 4.484375 
Q 40.765625 -1.421875 27.09375 -1.421875 
Q 22.515625 -1.421875 17.65625 -0.515625 
Q 12.796875 0.390625 7.625 2.203125 
L 7.625 11.71875 
Q 11.71875 9.328125 16.59375 8.109375 
Q 21.484375 6.890625 26.8125 6.890625 
Q 36.078125 6.890625 40.9375 10.546875 
Q 45.796875 14.203125 45.796875 21.1875 
Q 45.796875 27.640625 41.28125 31.265625 
Q 36.765625 34.90625 28.71875 34.90625 
L 20.21875 34.90625 
L 20.21875 43.015625 
L 29.109375 43.015625 
Q 36.375 43.015625 40.234375 45.921875 
Q 44.09375 48.828125 44.09375 54.296875 
Q 44.09375 59.90625 40.109375 62.90625 
Q 36.140625 65.921875 28.71875 65.921875 
Q 24.65625 65.921875 20.015625 65.03125 
Q 15.375 64.15625 9.8125 62.3125 
L 9.8125 71.09375 
Q 15.4375 72.65625 20.34375 73.4375 
Q 25.25 74.21875 29.59375 74.21875 
Q 40.828125 74.21875 47.359375 69.109375 
Q 53.90625 64.015625 53.90625 55.328125 
Q 53.90625 49.265625 50.4375 45.09375 
Q 46.96875 40.921875 40.578125 39.3125 
z
" id="DejaVuSans-51"/>
      </defs>
      <g transform="translate(789.415974 518.598438)scale(0.1 -0.1)">
       <use xlink:href="#DejaVuSans-51"/>
       <use x="63.623047" xlink:href="#DejaVuSans-48"/>
       <use x="127.246094" xlink:href="#DejaVuSans-48"/>
      </g>
     </g>
    </g>
    <g id="xtick_8">
     <g id="line2d_8">
      <g>
       <use style="stroke:#000000;stroke-width:0.8;" x="901.698504" xlink:href="#m7d677a89c1" y="504"/>
      </g>
     </g>
     <g id="text_8">
      <!-- 350 -->
      <g transform="translate(892.154754 518.598438)scale(0.1 -0.1)">
       <use xlink:href="#DejaVuSans-51"/>
       <use x="63.623047" xlink:href="#DejaVuSans-53"/>
       <use x="127.246094" xlink:href="#DejaVuSans-48"/>
      </g>
     </g>
    </g>
    <g id="xtick_9">
     <g id="line2d_9">
      <g>
       <use style="stroke:#000000;stroke-width:0.8;" x="1004.437284" xlink:href="#m7d677a89c1" y="504"/>
      </g>
     </g>
     <g id="text_9">
      <!-- 400 -->
      <defs>
       <path d="M 37.796875 64.3125 
L 12.890625 25.390625 
L 37.796875 25.390625 
z
M 35.203125 72.90625 
L 47.609375 72.90625 
L 47.609375 25.390625 
L 58.015625 25.390625 
L 58.015625 17.1875 
L 47.609375 17.1875 
L 47.609375 0 
L 37.796875 0 
L 37.796875 17.1875 
L 4.890625 17.1875 
L 4.890625 26.703125 
z
" id="DejaVuSans-52"/>
      </defs>
      <g transform="translate(994.893534 518.598438)scale(0.1 -0.1)">
       <use xlink:href="#DejaVuSans-52"/>
       <use x="63.623047" xlink:href="#DejaVuSans-48"/>
       <use x="127.246094" xlink:href="#DejaVuSans-48"/>
      </g>
     </g>
    </g>
    <g id="text_10">
     <!-- Number of Neurons pruned -->
     <defs>
      <path d="M 9.8125 72.90625 
L 23.09375 72.90625 
L 55.421875 11.921875 
L 55.421875 72.90625 
L 64.984375 72.90625 
L 64.984375 0 
L 51.703125 0 
L 19.390625 60.984375 
L 19.390625 0 
L 9.8125 0 
z
" id="DejaVuSans-78"/>
      <path d="M 8.5 21.578125 
L 8.5 54.6875 
L 17.484375 54.6875 
L 17.484375 21.921875 
Q 17.484375 14.15625 20.5 10.265625 
Q 23.53125 6.390625 29.59375 6.390625 
Q 36.859375 6.390625 41.078125 11.03125 
Q 45.3125 15.671875 45.3125 23.6875 
L 45.3125 54.6875 
L 54.296875 54.6875 
L 54.296875 0 
L 45.3125 0 
L 45.3125 8.40625 
Q 42.046875 3.421875 37.71875 1 
Q 33.40625 -1.421875 27.6875 -1.421875 
Q 18.265625 -1.421875 13.375 4.4375 
Q 8.5 10.296875 8.5 21.578125 
z
M 31.109375 56 
z
" id="DejaVuSans-117"/>
      <path d="M 52 44.1875 
Q 55.375 50.25 60.0625 53.125 
Q 64.75 56 71.09375 56 
Q 79.640625 56 84.28125 50.015625 
Q 88.921875 44.046875 88.921875 33.015625 
L 88.921875 0 
L 79.890625 0 
L 79.890625 32.71875 
Q 79.890625 40.578125 77.09375 44.375 
Q 74.3125 48.1875 68.609375 48.1875 
Q 61.625 48.1875 57.5625 43.546875 
Q 53.515625 38.921875 53.515625 30.90625 
L 53.515625 0 
L 44.484375 0 
L 44.484375 32.71875 
Q 44.484375 40.625 41.703125 44.40625 
Q 38.921875 48.1875 33.109375 48.1875 
Q 26.21875 48.1875 22.15625 43.53125 
Q 18.109375 38.875 18.109375 30.90625 
L 18.109375 0 
L 9.078125 0 
L 9.078125 54.6875 
L 18.109375 54.6875 
L 18.109375 46.1875 
Q 21.1875 51.21875 25.484375 53.609375 
Q 29.78125 56 35.6875 56 
Q 41.65625 56 45.828125 52.96875 
Q 50 49.953125 52 44.1875 
z
" id="DejaVuSans-109"/>
      <path d="M 48.6875 27.296875 
Q 48.6875 37.203125 44.609375 42.84375 
Q 40.53125 48.484375 33.40625 48.484375 
Q 26.265625 48.484375 22.1875 42.84375 
Q 18.109375 37.203125 18.109375 27.296875 
Q 18.109375 17.390625 22.1875 11.75 
Q 26.265625 6.109375 33.40625 6.109375 
Q 40.53125 6.109375 44.609375 11.75 
Q 48.6875 17.390625 48.6875 27.296875 
z
M 18.109375 46.390625 
Q 20.953125 51.265625 25.265625 53.625 
Q 29.59375 56 35.59375 56 
Q 45.5625 56 51.78125 48.09375 
Q 58.015625 40.1875 58.015625 27.296875 
Q 58.015625 14.40625 51.78125 6.484375 
Q 45.5625 -1.421875 35.59375 -1.421875 
Q 29.59375 -1.421875 25.265625 0.953125 
Q 20.953125 3.328125 18.109375 8.203125 
L 18.109375 0 
L 9.078125 0 
L 9.078125 75.984375 
L 18.109375 75.984375 
z
" id="DejaVuSans-98"/>
      <path d="M 56.203125 29.59375 
L 56.203125 25.203125 
L 14.890625 25.203125 
Q 15.484375 15.921875 20.484375 11.0625 
Q 25.484375 6.203125 34.421875 6.203125 
Q 39.59375 6.203125 44.453125 7.46875 
Q 49.3125 8.734375 54.109375 11.28125 
L 54.109375 2.78125 
Q 49.265625 0.734375 44.1875 -0.34375 
Q 39.109375 -1.421875 33.890625 -1.421875 
Q 20.796875 -1.421875 13.15625 6.1875 
Q 5.515625 13.8125 5.515625 26.8125 
Q 5.515625 40.234375 12.765625 48.109375 
Q 20.015625 56 32.328125 56 
Q 43.359375 56 49.78125 48.890625 
Q 56.203125 41.796875 56.203125 29.59375 
z
M 47.21875 32.234375 
Q 47.125 39.59375 43.09375 43.984375 
Q 39.0625 48.390625 32.421875 48.390625 
Q 24.90625 48.390625 20.390625 44.140625 
Q 15.875 39.890625 15.1875 32.171875 
z
" id="DejaVuSans-101"/>
      <path d="M 41.109375 46.296875 
Q 39.59375 47.171875 37.8125 47.578125 
Q 36.03125 48 33.890625 48 
Q 26.265625 48 22.1875 43.046875 
Q 18.109375 38.09375 18.109375 28.8125 
L 18.109375 0 
L 9.078125 0 
L 9.078125 54.6875 
L 18.109375 54.6875 
L 18.109375 46.1875 
Q 20.953125 51.171875 25.484375 53.578125 
Q 30.03125 56 36.53125 56 
Q 37.453125 56 38.578125 55.875 
Q 39.703125 55.765625 41.0625 55.515625 
z
" id="DejaVuSans-114"/>
      <path id="DejaVuSans-32"/>
      <path d="M 30.609375 48.390625 
Q 23.390625 48.390625 19.1875 42.75 
Q 14.984375 37.109375 14.984375 27.296875 
Q 14.984375 17.484375 19.15625 11.84375 
Q 23.34375 6.203125 30.609375 6.203125 
Q 37.796875 6.203125 41.984375 11.859375 
Q 46.1875 17.53125 46.1875 27.296875 
Q 46.1875 37.015625 41.984375 42.703125 
Q 37.796875 48.390625 30.609375 48.390625 
z
M 30.609375 56 
Q 42.328125 56 49.015625 48.375 
Q 55.71875 40.765625 55.71875 27.296875 
Q 55.71875 13.875 49.015625 6.21875 
Q 42.328125 -1.421875 30.609375 -1.421875 
Q 18.84375 -1.421875 12.171875 6.21875 
Q 5.515625 13.875 5.515625 27.296875 
Q 5.515625 40.765625 12.171875 48.375 
Q 18.84375 56 30.609375 56 
z
" id="DejaVuSans-111"/>
      <path d="M 37.109375 75.984375 
L 37.109375 68.5 
L 28.515625 68.5 
Q 23.6875 68.5 21.796875 66.546875 
Q 19.921875 64.59375 19.921875 59.515625 
L 19.921875 54.6875 
L 34.71875 54.6875 
L 34.71875 47.703125 
L 19.921875 47.703125 
L 19.921875 0 
L 10.890625 0 
L 10.890625 47.703125 
L 2.296875 47.703125 
L 2.296875 54.6875 
L 10.890625 54.6875 
L 10.890625 58.5 
Q 10.890625 67.625 15.140625 71.796875 
Q 19.390625 75.984375 28.609375 75.984375 
z
" id="DejaVuSans-102"/>
      <path d="M 54.890625 33.015625 
L 54.890625 0 
L 45.90625 0 
L 45.90625 32.71875 
Q 45.90625 40.484375 42.875 44.328125 
Q 39.84375 48.1875 33.796875 48.1875 
Q 26.515625 48.1875 22.3125 43.546875 
Q 18.109375 38.921875 18.109375 30.90625 
L 18.109375 0 
L 9.078125 0 
L 9.078125 54.6875 
L 18.109375 54.6875 
L 18.109375 46.1875 
Q 21.34375 51.125 25.703125 53.5625 
Q 30.078125 56 35.796875 56 
Q 45.21875 56 50.046875 50.171875 
Q 54.890625 44.34375 54.890625 33.015625 
z
" id="DejaVuSans-110"/>
      <path d="M 44.28125 53.078125 
L 44.28125 44.578125 
Q 40.484375 46.53125 36.375 47.5 
Q 32.28125 48.484375 27.875 48.484375 
Q 21.1875 48.484375 17.84375 46.4375 
Q 14.5 44.390625 14.5 40.28125 
Q 14.5 37.15625 16.890625 35.375 
Q 19.28125 33.59375 26.515625 31.984375 
L 29.59375 31.296875 
Q 39.15625 29.25 43.1875 25.515625 
Q 47.21875 21.78125 47.21875 15.09375 
Q 47.21875 7.46875 41.1875 3.015625 
Q 35.15625 -1.421875 24.609375 -1.421875 
Q 20.21875 -1.421875 15.453125 -0.5625 
Q 10.6875 0.296875 5.421875 2 
L 5.421875 11.28125 
Q 10.40625 8.6875 15.234375 7.390625 
Q 20.0625 6.109375 24.8125 6.109375 
Q 31.15625 6.109375 34.5625 8.28125 
Q 37.984375 10.453125 37.984375 14.40625 
Q 37.984375 18.0625 35.515625 20.015625 
Q 33.0625 21.96875 24.703125 23.78125 
L 21.578125 24.515625 
Q 13.234375 26.265625 9.515625 29.90625 
Q 5.8125 33.546875 5.8125 39.890625 
Q 5.8125 47.609375 11.28125 51.796875 
Q 16.75 56 26.8125 56 
Q 31.78125 56 36.171875 55.265625 
Q 40.578125 54.546875 44.28125 53.078125 
z
" id="DejaVuSans-115"/>
      <path d="M 18.109375 8.203125 
L 18.109375 -20.796875 
L 9.078125 -20.796875 
L 9.078125 54.6875 
L 18.109375 54.6875 
L 18.109375 46.390625 
Q 20.953125 51.265625 25.265625 53.625 
Q 29.59375 56 35.59375 56 
Q 45.5625 56 51.78125 48.09375 
Q 58.015625 40.1875 58.015625 27.296875 
Q 58.015625 14.40625 51.78125 6.484375 
Q 45.5625 -1.421875 35.59375 -1.421875 
Q 29.59375 -1.421875 25.265625 0.953125 
Q 20.953125 3.328125 18.109375 8.203125 
z
M 48.6875 27.296875 
Q 48.6875 37.203125 44.609375 42.84375 
Q 40.53125 48.484375 33.40625 48.484375 
Q 26.265625 48.484375 22.1875 42.84375 
Q 18.109375 37.203125 18.109375 27.296875 
Q 18.109375 17.390625 22.1875 11.75 
Q 26.265625 6.109375 33.40625 6.109375 
Q 40.53125 6.109375 44.609375 11.75 
Q 48.6875 17.390625 48.6875 27.296875 
z
" id="DejaVuSans-112"/>
      <path d="M 45.40625 46.390625 
L 45.40625 75.984375 
L 54.390625 75.984375 
L 54.390625 0 
L 45.40625 0 
L 45.40625 8.203125 
Q 42.578125 3.328125 38.25 0.953125 
Q 33.9375 -1.421875 27.875 -1.421875 
Q 17.96875 -1.421875 11.734375 6.484375 
Q 5.515625 14.40625 5.515625 27.296875 
Q 5.515625 40.1875 11.734375 48.09375 
Q 17.96875 56 27.875 56 
Q 33.9375 56 38.25 53.625 
Q 42.578125 51.265625 45.40625 46.390625 
z
M 14.796875 27.296875 
Q 14.796875 17.390625 18.875 11.75 
Q 22.953125 6.109375 30.078125 6.109375 
Q 37.203125 6.109375 41.296875 11.75 
Q 45.40625 17.390625 45.40625 27.296875 
Q 45.40625 37.203125 41.296875 42.84375 
Q 37.203125 48.484375 30.078125 48.484375 
Q 22.953125 48.484375 18.875 42.84375 
Q 14.796875 37.203125 14.796875 27.296875 
z
" id="DejaVuSans-100"/>
     </defs>
     <g transform="translate(522.147656 532.276562)scale(0.1 -0.1)">
      <use xlink:href="#DejaVuSans-78"/>
      <use x="74.804688" xlink:href="#DejaVuSans-117"/>
      <use x="138.183594" xlink:href="#DejaVuSans-109"/>
      <use x="235.595703" xlink:href="#DejaVuSans-98"/>
      <use x="299.072266" xlink:href="#DejaVuSans-101"/>
      <use x="360.595703" xlink:href="#DejaVuSans-114"/>
      <use x="401.708984" xlink:href="#DejaVuSans-32"/>
      <use x="433.496094" xlink:href="#DejaVuSans-111"/>
      <use x="494.677734" xlink:href="#DejaVuSans-102"/>
      <use x="529.882812" xlink:href="#DejaVuSans-32"/>
      <use x="561.669922" xlink:href="#DejaVuSans-78"/>
      <use x="636.474609" xlink:href="#DejaVuSans-101"/>
      <use x="697.998047" xlink:href="#DejaVuSans-117"/>
      <use x="761.376953" xlink:href="#DejaVuSans-114"/>
      <use x="800.240234" xlink:href="#DejaVuSans-111"/>
      <use x="861.421875" xlink:href="#DejaVuSans-110"/>
      <use x="924.800781" xlink:href="#DejaVuSans-115"/>
      <use x="976.900391" xlink:href="#DejaVuSans-32"/>
      <use x="1008.6875" xlink:href="#DejaVuSans-112"/>
      <use x="1072.164062" xlink:href="#DejaVuSans-114"/>
      <use x="1113.277344" xlink:href="#DejaVuSans-117"/>
      <use x="1176.65625" xlink:href="#DejaVuSans-110"/>
      <use x="1240.035156" xlink:href="#DejaVuSans-101"/>
      <use x="1301.558594" xlink:href="#DejaVuSans-100"/>
     </g>
    </g>
   </g>
   <g id="matplotlib.axis_2">
    <g id="ytick_1">
     <g id="line2d_10">
      <defs>
       <path d="M 0 0 
L -3.5 0 
" id="mda4e7a5c37" style="stroke:#000000;stroke-width:0.8;"/>
      </defs>
      <g>
       <use style="stroke:#000000;stroke-width:0.8;" x="144" xlink:href="#mda4e7a5c37" y="484.274702"/>
      </g>
     </g>
     <g id="text_11">
      <!-- 0 -->
      <g transform="translate(130.6375 488.073921)scale(0.1 -0.1)">
       <use xlink:href="#DejaVuSans-48"/>
      </g>
     </g>
    </g>
    <g id="ytick_2">
     <g id="line2d_11">
      <g>
       <use style="stroke:#000000;stroke-width:0.8;" x="144" xlink:href="#mda4e7a5c37" y="411.391127"/>
      </g>
     </g>
     <g id="text_12">
      <!-- 2 -->
      <g transform="translate(130.6375 415.190346)scale(0.1 -0.1)">
       <use xlink:href="#DejaVuSans-50"/>
      </g>
     </g>
    </g>
    <g id="ytick_3">
     <g id="line2d_12">
      <g>
       <use style="stroke:#000000;stroke-width:0.8;" x="144" xlink:href="#mda4e7a5c37" y="338.507553"/>
      </g>
     </g>
     <g id="text_13">
      <!-- 4 -->
      <g transform="translate(130.6375 342.306771)scale(0.1 -0.1)">
       <use xlink:href="#DejaVuSans-52"/>
      </g>
     </g>
    </g>
    <g id="ytick_4">
     <g id="line2d_13">
      <g>
       <use style="stroke:#000000;stroke-width:0.8;" x="144" xlink:href="#mda4e7a5c37" y="265.623978"/>
      </g>
     </g>
     <g id="text_14">
      <!-- 6 -->
      <defs>
       <path d="M 33.015625 40.375 
Q 26.375 40.375 22.484375 35.828125 
Q 18.609375 31.296875 18.609375 23.390625 
Q 18.609375 15.53125 22.484375 10.953125 
Q 26.375 6.390625 33.015625 6.390625 
Q 39.65625 6.390625 43.53125 10.953125 
Q 47.40625 15.53125 47.40625 23.390625 
Q 47.40625 31.296875 43.53125 35.828125 
Q 39.65625 40.375 33.015625 40.375 
z
M 52.59375 71.296875 
L 52.59375 62.3125 
Q 48.875 64.0625 45.09375 64.984375 
Q 41.3125 65.921875 37.59375 65.921875 
Q 27.828125 65.921875 22.671875 59.328125 
Q 17.53125 52.734375 16.796875 39.40625 
Q 19.671875 43.65625 24.015625 45.921875 
Q 28.375 48.1875 33.59375 48.1875 
Q 44.578125 48.1875 50.953125 41.515625 
Q 57.328125 34.859375 57.328125 23.390625 
Q 57.328125 12.15625 50.6875 5.359375 
Q 44.046875 -1.421875 33.015625 -1.421875 
Q 20.359375 -1.421875 13.671875 8.265625 
Q 6.984375 17.96875 6.984375 36.375 
Q 6.984375 53.65625 15.1875 63.9375 
Q 23.390625 74.21875 37.203125 74.21875 
Q 40.921875 74.21875 44.703125 73.484375 
Q 48.484375 72.75 52.59375 71.296875 
z
" id="DejaVuSans-54"/>
      </defs>
      <g transform="translate(130.6375 269.423197)scale(0.1 -0.1)">
       <use xlink:href="#DejaVuSans-54"/>
      </g>
     </g>
    </g>
    <g id="ytick_5">
     <g id="line2d_14">
      <g>
       <use style="stroke:#000000;stroke-width:0.8;" x="144" xlink:href="#mda4e7a5c37" y="192.740403"/>
      </g>
     </g>
     <g id="text_15">
      <!-- 8 -->
      <defs>
       <path d="M 31.78125 34.625 
Q 24.75 34.625 20.71875 30.859375 
Q 16.703125 27.09375 16.703125 20.515625 
Q 16.703125 13.921875 20.71875 10.15625 
Q 24.75 6.390625 31.78125 6.390625 
Q 38.8125 6.390625 42.859375 10.171875 
Q 46.921875 13.96875 46.921875 20.515625 
Q 46.921875 27.09375 42.890625 30.859375 
Q 38.875 34.625 31.78125 34.625 
z
M 21.921875 38.8125 
Q 15.578125 40.375 12.03125 44.71875 
Q 8.5 49.078125 8.5 55.328125 
Q 8.5 64.0625 14.71875 69.140625 
Q 20.953125 74.21875 31.78125 74.21875 
Q 42.671875 74.21875 48.875 69.140625 
Q 55.078125 64.0625 55.078125 55.328125 
Q 55.078125 49.078125 51.53125 44.71875 
Q 48 40.375 41.703125 38.8125 
Q 48.828125 37.15625 52.796875 32.3125 
Q 56.78125 27.484375 56.78125 20.515625 
Q 56.78125 9.90625 50.3125 4.234375 
Q 43.84375 -1.421875 31.78125 -1.421875 
Q 19.734375 -1.421875 13.25 4.234375 
Q 6.78125 9.90625 6.78125 20.515625 
Q 6.78125 27.484375 10.78125 32.3125 
Q 14.796875 37.15625 21.921875 38.8125 
z
M 18.3125 54.390625 
Q 18.3125 48.734375 21.84375 45.5625 
Q 25.390625 42.390625 31.78125 42.390625 
Q 38.140625 42.390625 41.71875 45.5625 
Q 45.3125 48.734375 45.3125 54.390625 
Q 45.3125 60.0625 41.71875 63.234375 
Q 38.140625 66.40625 31.78125 66.40625 
Q 25.390625 66.40625 21.84375 63.234375 
Q 18.3125 60.0625 18.3125 54.390625 
z
" id="DejaVuSans-56"/>
      </defs>
      <g transform="translate(130.6375 196.539622)scale(0.1 -0.1)">
       <use xlink:href="#DejaVuSans-56"/>
      </g>
     </g>
    </g>
    <g id="ytick_6">
     <g id="line2d_15">
      <g>
       <use style="stroke:#000000;stroke-width:0.8;" x="144" xlink:href="#mda4e7a5c37" y="119.856828"/>
      </g>
     </g>
     <g id="text_16">
      <!-- 10 -->
      <g transform="translate(124.275 123.656047)scale(0.1 -0.1)">
       <use xlink:href="#DejaVuSans-49"/>
       <use x="63.623047" xlink:href="#DejaVuSans-48"/>
      </g>
     </g>
    </g>
    <g id="text_17">
     <!-- Squared Deviation -->
     <defs>
      <path d="M 53.515625 70.515625 
L 53.515625 60.890625 
Q 47.90625 63.578125 42.921875 64.890625 
Q 37.9375 66.21875 33.296875 66.21875 
Q 25.25 66.21875 20.875 63.09375 
Q 16.5 59.96875 16.5 54.203125 
Q 16.5 49.359375 19.40625 46.890625 
Q 22.3125 44.4375 30.421875 42.921875 
L 36.375 41.703125 
Q 47.40625 39.59375 52.65625 34.296875 
Q 57.90625 29 57.90625 20.125 
Q 57.90625 9.515625 50.796875 4.046875 
Q 43.703125 -1.421875 29.984375 -1.421875 
Q 24.8125 -1.421875 18.96875 -0.25 
Q 13.140625 0.921875 6.890625 3.21875 
L 6.890625 13.375 
Q 12.890625 10.015625 18.65625 8.296875 
Q 24.421875 6.59375 29.984375 6.59375 
Q 38.421875 6.59375 43.015625 9.90625 
Q 47.609375 13.234375 47.609375 19.390625 
Q 47.609375 24.75 44.3125 27.78125 
Q 41.015625 30.8125 33.5 32.328125 
L 27.484375 33.5 
Q 16.453125 35.6875 11.515625 40.375 
Q 6.59375 45.0625 6.59375 53.421875 
Q 6.59375 63.09375 13.40625 68.65625 
Q 20.21875 74.21875 32.171875 74.21875 
Q 37.3125 74.21875 42.625 73.28125 
Q 47.953125 72.359375 53.515625 70.515625 
z
" id="DejaVuSans-83"/>
      <path d="M 14.796875 27.296875 
Q 14.796875 17.390625 18.875 11.75 
Q 22.953125 6.109375 30.078125 6.109375 
Q 37.203125 6.109375 41.296875 11.75 
Q 45.40625 17.390625 45.40625 27.296875 
Q 45.40625 37.203125 41.296875 42.84375 
Q 37.203125 48.484375 30.078125 48.484375 
Q 22.953125 48.484375 18.875 42.84375 
Q 14.796875 37.203125 14.796875 27.296875 
z
M 45.40625 8.203125 
Q 42.578125 3.328125 38.25 0.953125 
Q 33.9375 -1.421875 27.875 -1.421875 
Q 17.96875 -1.421875 11.734375 6.484375 
Q 5.515625 14.40625 5.515625 27.296875 
Q 5.515625 40.1875 11.734375 48.09375 
Q 17.96875 56 27.875 56 
Q 33.9375 56 38.25 53.625 
Q 42.578125 51.265625 45.40625 46.390625 
L 45.40625 54.6875 
L 54.390625 54.6875 
L 54.390625 -20.796875 
L 45.40625 -20.796875 
z
" id="DejaVuSans-113"/>
      <path d="M 34.28125 27.484375 
Q 23.390625 27.484375 19.1875 25 
Q 14.984375 22.515625 14.984375 16.5 
Q 14.984375 11.71875 18.140625 8.90625 
Q 21.296875 6.109375 26.703125 6.109375 
Q 34.1875 6.109375 38.703125 11.40625 
Q 43.21875 16.703125 43.21875 25.484375 
L 43.21875 27.484375 
z
M 52.203125 31.203125 
L 52.203125 0 
L 43.21875 0 
L 43.21875 8.296875 
Q 40.140625 3.328125 35.546875 0.953125 
Q 30.953125 -1.421875 24.3125 -1.421875 
Q 15.921875 -1.421875 10.953125 3.296875 
Q 6 8.015625 6 15.921875 
Q 6 25.140625 12.171875 29.828125 
Q 18.359375 34.515625 30.609375 34.515625 
L 43.21875 34.515625 
L 43.21875 35.40625 
Q 43.21875 41.609375 39.140625 45 
Q 35.0625 48.390625 27.6875 48.390625 
Q 23 48.390625 18.546875 47.265625 
Q 14.109375 46.140625 10.015625 43.890625 
L 10.015625 52.203125 
Q 14.9375 54.109375 19.578125 55.046875 
Q 24.21875 56 28.609375 56 
Q 40.484375 56 46.34375 49.84375 
Q 52.203125 43.703125 52.203125 31.203125 
z
" id="DejaVuSans-97"/>
      <path d="M 19.671875 64.796875 
L 19.671875 8.109375 
L 31.59375 8.109375 
Q 46.6875 8.109375 53.6875 14.9375 
Q 60.6875 21.78125 60.6875 36.53125 
Q 60.6875 51.171875 53.6875 57.984375 
Q 46.6875 64.796875 31.59375 64.796875 
z
M 9.8125 72.90625 
L 30.078125 72.90625 
Q 51.265625 72.90625 61.171875 64.09375 
Q 71.09375 55.28125 71.09375 36.53125 
Q 71.09375 17.671875 61.125 8.828125 
Q 51.171875 0 30.078125 0 
L 9.8125 0 
z
" id="DejaVuSans-68"/>
      <path d="M 2.984375 54.6875 
L 12.5 54.6875 
L 29.59375 8.796875 
L 46.6875 54.6875 
L 56.203125 54.6875 
L 35.6875 0 
L 23.484375 0 
z
" id="DejaVuSans-118"/>
      <path d="M 9.421875 54.6875 
L 18.40625 54.6875 
L 18.40625 0 
L 9.421875 0 
z
M 9.421875 75.984375 
L 18.40625 75.984375 
L 18.40625 64.59375 
L 9.421875 64.59375 
z
" id="DejaVuSans-105"/>
      <path d="M 18.3125 70.21875 
L 18.3125 54.6875 
L 36.8125 54.6875 
L 36.8125 47.703125 
L 18.3125 47.703125 
L 18.3125 18.015625 
Q 18.3125 11.328125 20.140625 9.421875 
Q 21.96875 7.515625 27.59375 7.515625 
L 36.8125 7.515625 
L 36.8125 0 
L 27.59375 0 
Q 17.1875 0 13.234375 3.875 
Q 9.28125 7.765625 9.28125 18.015625 
L 9.28125 47.703125 
L 2.6875 47.703125 
L 2.6875 54.6875 
L 9.28125 54.6875 
L 9.28125 70.21875 
z
" id="DejaVuSans-116"/>
     </defs>
     <g transform="translate(118.195312 332.840469)rotate(-90)scale(0.1 -0.1)">
      <use xlink:href="#DejaVuSans-83"/>
      <use x="63.476562" xlink:href="#DejaVuSans-113"/>
      <use x="126.953125" xlink:href="#DejaVuSans-117"/>
      <use x="190.332031" xlink:href="#DejaVuSans-97"/>
      <use x="251.611328" xlink:href="#DejaVuSans-114"/>
      <use x="290.474609" xlink:href="#DejaVuSans-101"/>
      <use x="351.998047" xlink:href="#DejaVuSans-100"/>
      <use x="415.474609" xlink:href="#DejaVuSans-32"/>
      <use x="447.261719" xlink:href="#DejaVuSans-68"/>
      <use x="524.263672" xlink:href="#DejaVuSans-101"/>
      <use x="585.787109" xlink:href="#DejaVuSans-118"/>
      <use x="644.966797" xlink:href="#DejaVuSans-105"/>
      <use x="672.75" xlink:href="#DejaVuSans-97"/>
      <use x="734.029297" xlink:href="#DejaVuSans-116"/>
      <use x="773.238281" xlink:href="#DejaVuSans-105"/>
      <use x="801.021484" xlink:href="#DejaVuSans-111"/>
      <use x="862.203125" xlink:href="#DejaVuSans-110"/>
     </g>
    </g>
   </g>
   <g id="line2d_16">
    <path clip-path="url(#p9925f1a439)" d="M 184.581818 484.045981 
L 194.855696 483.121956 
L 205.129574 482.1222 
L 215.403452 480.681205 
L 225.67733 479.583617 
L 235.951208 477.863277 
L 246.225086 476.86297 
L 256.498964 475.701365 
L 266.772842 472.390178 
L 277.04672 472.51147 
L 287.320598 470.668451 
L 297.594476 468.015782 
L 307.868354 464.438772 
L 318.142232 462.678663 
L 328.41611 460.93557 
L 338.689988 455.793122 
L 348.963867 448.555807 
L 359.237745 441.563362 
L 369.511623 441.192841 
L 379.785501 438.855983 
L 390.059379 432.050577 
L 400.333257 430.111917 
L 410.607135 430.926433 
L 420.881013 425.797445 
L 431.154891 427.921328 
L 441.428769 428.621948 
L 451.702647 427.202984 
L 461.976525 426.907826 
L 472.250403 426.093341 
L 482.524281 425.700239 
L 492.798159 416.001057 
L 503.072037 409.148426 
L 513.345915 406.320717 
L 523.619793 400.078884 
L 533.893671 378.63707 
L 544.167549 379.730575 
L 554.441427 372.840031 
L 564.715305 367.094567 
L 574.989183 360.232156 
L 585.263061 349.781168 
L 595.536939 355.616809 
L 605.810817 345.333072 
L 616.084695 335.10097 
L 626.358573 316.73432 
L 636.632451 299.756754 
L 646.906329 283.33349 
L 657.180207 275.561265 
L 667.454085 260.254061 
L 677.727963 260.278909 
L 688.001841 260.797781 
L 698.275719 237.355958 
L 708.549597 236.508961 
L 718.823475 227.299362 
L 729.097353 212.19498 
L 739.371231 210.238352 
L 749.645109 185.81627 
L 759.918987 173.365516 
L 770.192865 168.354708 
L 780.466743 199.619617 
L 790.740621 195.20869 
L 801.014499 165.578382 
L 811.288377 182.150843 
L 821.562255 170.007241 
L 831.836133 167.982566 
L 842.110012 191.259518 
L 852.38389 164.783011 
L 862.657768 169.421226 
L 872.931646 184.36072 
L 883.205524 113.11967 
L 893.479402 126.12238 
L 903.75328 88.887273 
L 914.027158 142.575532 
L 924.301036 188.317139 
L 934.574914 182.353283 
L 944.848792 187.07018 
L 955.12267 230.810657 
L 965.396548 240.097722 
L 975.670426 245.073603 
L 985.944304 240.60012 
L 996.218182 240.367184 
" style="fill:none;stroke:#1f77b4;stroke-linecap:square;stroke-width:1.5;"/>
   </g>
   <g id="line2d_17">
    <path clip-path="url(#p9925f1a439)" d="M 184.581818 484.216305 
L 194.855696 483.616259 
L 205.129574 482.722948 
L 215.403452 482.136486 
L 225.67733 480.607537 
L 235.951208 479.362928 
L 246.225086 477.802436 
L 256.498964 476.134207 
L 266.772842 473.115109 
L 277.04672 472.724758 
L 287.320598 470.638195 
L 297.594476 469.574697 
L 307.868354 467.287822 
L 318.142232 461.656923 
L 328.41611 455.411102 
L 338.689988 453.084092 
L 348.963867 454.176628 
L 359.237745 452.755805 
L 369.511623 450.292766 
L 379.785501 447.359627 
L 390.059379 447.901827 
L 400.333257 443.00097 
L 410.607135 438.005984 
L 420.881013 438.286223 
L 431.154891 433.450261 
L 441.428769 428.01137 
L 451.702647 421.572654 
L 461.976525 417.764585 
L 472.250403 417.924721 
L 482.524281 403.983954 
L 492.798159 404.015085 
L 503.072037 395.151554 
L 513.345915 379.785425 
L 523.619793 371.095688 
L 533.893671 365.242452 
L 544.167549 369.758995 
L 554.441427 363.415134 
L 564.715305 351.22789 
L 574.989183 351.045139 
L 585.263061 337.099737 
L 595.536939 338.678341 
L 605.810817 326.762349 
L 616.084695 325.529656 
L 626.358573 322.927898 
L 636.632451 315.657445 
L 646.906329 312.365532 
L 657.180207 314.750967 
L 667.454085 316.396897 
L 677.727963 321.802976 
L 688.001841 317.816669 
L 698.275719 302.014782 
L 708.549597 299.032471 
L 718.823475 291.393196 
L 729.097353 286.153292 
L 739.371231 275.486249 
L 749.645109 268.730845 
L 759.918987 261.98684 
L 770.192865 258.007727 
L 780.466743 252.397159 
L 790.740621 253.451305 
L 801.014499 253.15536 
L 811.288377 261.206935 
L 821.562255 257.412763 
L 831.836133 253.670409 
L 842.110012 250.718039 
L 852.38389 249.503887 
L 862.657768 252.093047 
L 872.931646 249.511932 
L 883.205524 243.284192 
L 893.479402 240.507501 
L 903.75328 260.204624 
L 914.027158 260.084915 
L 924.301036 258.94915 
L 934.574914 256.034922 
L 944.848792 255.279466 
L 955.12267 255.380425 
L 965.396548 258.936569 
L 975.670426 258.936569 
L 985.944304 258.936569 
L 996.218182 258.936569 
" style="fill:none;stroke:#ff7f0e;stroke-linecap:square;stroke-width:1.5;"/>
   </g>
   <g id="line2d_18">
    <path clip-path="url(#p9925f1a439)" d="M 184.581818 484.216305 
L 194.855696 483.544598 
L 205.129574 482.909353 
L 215.403452 480.793378 
L 225.67733 479.883308 
L 235.951208 477.477424 
L 246.225086 475.266775 
L 256.498964 473.136551 
L 266.772842 468.134946 
L 277.04672 468.096861 
L 287.320598 465.524055 
L 297.594476 460.708173 
L 307.868354 456.969564 
L 318.142232 454.713625 
L 328.41611 450.8689 
L 338.689988 445.967407 
L 348.963867 444.966117 
L 359.237745 438.617921 
L 369.511623 437.807249 
L 379.785501 433.005163 
L 390.059379 423.936655 
L 400.333257 421.882057 
L 410.607135 416.938518 
L 420.881013 410.097199 
L 431.154891 405.778309 
L 441.428769 396.303366 
L 451.702647 394.032314 
L 461.976525 386.873942 
L 472.250403 381.813427 
L 482.524281 375.758621 
L 492.798159 370.860762 
L 503.072037 364.089197 
L 513.345915 357.719489 
L 523.619793 349.790447 
L 533.893671 348.337425 
L 544.167549 337.804592 
L 554.441427 323.215553 
L 564.715305 315.854237 
L 574.989183 305.415734 
L 585.263061 299.186777 
L 595.536939 293.506719 
L 605.810817 286.919905 
L 616.084695 286.086722 
L 626.358573 285.462304 
L 636.632451 280.271472 
L 646.906329 272.744347 
L 657.180207 272.854551 
L 667.454085 270.19915 
L 677.727963 267.40583 
L 688.001841 264.892936 
L 698.275719 264.809354 
L 708.549597 263.73552 
L 718.823475 263.543732 
L 729.097353 258.936569 
L 739.371231 258.936569 
L 749.645109 258.936569 
L 759.918987 258.936569 
L 770.192865 258.936569 
L 780.466743 258.936569 
L 790.740621 258.936569 
L 801.014499 258.936569 
L 811.288377 258.936569 
L 821.562255 258.936569 
L 831.836133 258.936569 
L 842.110012 258.936569 
L 852.38389 258.936569 
L 862.657768 258.936569 
L 872.931646 258.936569 
L 883.205524 258.936569 
L 893.479402 258.936569 
L 903.75328 258.936569 
L 914.027158 258.936569 
L 924.301036 258.936569 
L 934.574914 258.936569 
L 944.848792 258.936569 
L 955.12267 258.936569 
L 965.396548 258.936569 
L 975.670426 258.936569 
L 985.944304 258.936569 
L 996.218182 258.936569 
" style="fill:none;stroke:#2ca02c;stroke-linecap:square;stroke-width:1.5;"/>
   </g>
   <g id="line2d_19">
    <path clip-path="url(#p9925f1a439)" d="M 184.581818 484.216305 
L 194.855696 483.17257 
L 205.129574 482.496192 
L 215.403452 481.307403 
L 225.67733 479.982787 
L 235.951208 478.805017 
L 246.225086 476.105477 
L 256.498964 470.959736 
L 266.772842 466.67013 
L 277.04672 467.096351 
L 287.320598 464.757732 
L 297.594476 464.721123 
L 307.868354 461.758992 
L 318.142232 457.113411 
L 328.41611 454.753946 
L 338.689988 451.198245 
L 348.963867 451.296293 
L 359.237745 445.397435 
L 369.511623 446.57361 
L 379.785501 440.569313 
L 390.059379 436.306381 
L 400.333257 432.62531 
L 410.607135 425.837159 
L 420.881013 421.522891 
L 431.154891 417.559887 
L 441.428769 412.04903 
L 451.702647 400.221904 
L 461.976525 395.102525 
L 472.250403 389.856643 
L 482.524281 380.338441 
L 492.798159 372.926976 
L 503.072037 372.353637 
L 513.345915 369.127965 
L 523.619793 358.134003 
L 533.893671 351.263695 
L 544.167549 352.43179 
L 554.441427 339.196699 
L 564.715305 328.058171 
L 574.989183 318.585853 
L 585.263061 323.671364 
L 595.536939 310.054071 
L 605.810817 300.389843 
L 616.084695 286.721444 
L 626.358573 279.878513 
L 636.632451 272.213416 
L 646.906329 264.316895 
L 657.180207 276.439332 
L 667.454085 277.689888 
L 677.727963 272.950835 
L 688.001841 267.065001 
L 698.275719 265.642762 
L 708.549597 264.64973 
L 718.823475 255.604829 
L 729.097353 250.752323 
L 739.371231 258.111467 
L 749.645109 253.399835 
L 759.918987 242.959872 
L 770.192865 231.042846 
L 780.466743 232.660452 
L 790.740621 229.699932 
L 801.014499 241.606949 
L 811.288377 235.508857 
L 821.562255 231.352066 
L 831.836133 224.533063 
L 842.110012 231.110372 
L 852.38389 233.224937 
L 862.657768 225.800144 
L 872.931646 223.263201 
L 883.205524 216.999665 
L 893.479402 216.88569 
L 903.75328 219.059997 
L 914.027158 231.327947 
L 924.301036 232.994347 
L 934.574914 219.585002 
L 944.848792 238.638523 
L 955.12267 239.958812 
L 965.396548 239.288067 
L 975.670426 229.968178 
L 985.944304 228.158541 
L 996.218182 244.280282 
" style="fill:none;stroke:#d62728;stroke-dasharray:5.55,2.4;stroke-dashoffset:0;stroke-width:1.5;"/>
   </g>
   <g id="line2d_20">
    <path clip-path="url(#p9925f1a439)" d="M 184.581818 483.622337 
L 194.855696 478.745915 
L 205.129574 471.412156 
L 215.403452 464.398968 
L 225.67733 456.149731 
L 235.951208 443.531523 
L 246.225086 431.280024 
L 256.498964 422.131336 
L 266.772842 406.567737 
L 277.04672 396.635359 
L 287.320598 382.903743 
L 297.594476 372.545747 
L 307.868354 363.849606 
L 318.142232 356.126766 
L 328.41611 347.932945 
L 338.689988 342.567624 
L 348.963867 335.724346 
L 359.237745 327.827703 
L 369.511623 316.910747 
L 379.785501 306.125767 
L 390.059379 303.168341 
L 400.333257 302.328972 
L 410.607135 302.000376 
L 420.881013 299.261932 
L 431.154891 292.151572 
L 441.428769 286.935405 
L 451.702647 285.182798 
L 461.976525 282.296286 
L 472.250403 280.03937 
L 482.524281 279.996415 
L 492.798159 276.751941 
L 503.072037 276.919175 
L 513.345915 274.771038 
L 523.619793 273.911633 
L 533.893671 274.096661 
L 544.167549 273.569884 
L 554.441427 268.896081 
L 564.715305 268.473582 
L 574.989183 265.160434 
L 585.263061 264.898757 
L 595.536939 265.107261 
L 605.810817 265.163997 
L 616.084695 264.830188 
L 626.358573 263.892502 
L 636.632451 262.438654 
L 646.906329 261.705145 
L 657.180207 259.030682 
L 667.454085 258.38986 
L 677.727963 258.069936 
L 688.001841 259.685613 
L 698.275719 259.688237 
L 708.549597 259.564393 
L 718.823475 259.338807 
L 729.097353 259.317573 
L 739.371231 259.632006 
L 749.645109 259.616489 
L 759.918987 259.691018 
L 770.192865 259.720263 
L 780.466743 259.570457 
L 790.740621 259.594941 
L 801.014499 259.592926 
L 811.288377 259.631294 
L 821.562255 259.510073 
L 831.836133 258.936569 
L 842.110012 258.936569 
L 852.38389 258.936569 
L 862.657768 258.936569 
L 872.931646 258.936569 
L 883.205524 258.936569 
L 893.479402 258.936569 
L 903.75328 258.936569 
L 914.027158 258.936569 
L 924.301036 258.936569 
L 934.574914 258.936569 
L 944.848792 258.936569 
L 955.12267 258.936569 
L 965.396548 258.936569 
L 975.670426 258.936569 
L 985.944304 258.936569 
L 996.218182 258.936569 
" style="fill:none;stroke:#9467bd;stroke-dasharray:5.55,2.4;stroke-dashoffset:0;stroke-width:1.5;"/>
   </g>
   <g id="line2d_21">
    <path clip-path="url(#p9925f1a439)" d="M 184.581818 484.175305 
L 194.855696 483.655093 
L 205.129574 482.221147 
L 215.403452 480.878855 
L 225.67733 480.216702 
L 235.951208 479.281069 
L 246.225086 478.496581 
L 256.498964 476.225495 
L 266.772842 474.417474 
L 277.04672 473.3802 
L 287.320598 470.795986 
L 297.594476 470.853571 
L 307.868354 468.716858 
L 318.142232 468.418637 
L 328.41611 466.592976 
L 338.689988 463.755777 
L 348.963867 461.744871 
L 359.237745 459.567106 
L 369.511623 459.485212 
L 379.785501 458.178048 
L 390.059379 455.005193 
L 400.333257 453.957226 
L 410.607135 451.481178 
L 420.881013 451.688479 
L 431.154891 449.233782 
L 441.428769 448.302243 
L 451.702647 446.463871 
L 461.976525 443.79224 
L 472.250403 439.52061 
L 482.524281 437.990792 
L 492.798159 433.457307 
L 503.072037 429.43579 
L 513.345915 425.783396 
L 523.619793 420.388803 
L 533.893671 417.547089 
L 544.167549 412.978554 
L 554.441427 411.636692 
L 564.715305 404.080118 
L 574.989183 400.764503 
L 585.263061 396.616461 
L 595.536939 388.511071 
L 605.810817 382.972364 
L 616.084695 380.793948 
L 626.358573 368.197481 
L 636.632451 367.552376 
L 646.906329 359.032784 
L 657.180207 358.021584 
L 667.454085 353.968238 
L 677.727963 348.177976 
L 688.001841 339.284191 
L 698.275719 335.454484 
L 708.549597 337.032071 
L 718.823475 331.374134 
L 729.097353 324.576382 
L 739.371231 320.064132 
L 749.645109 309.133413 
L 759.918987 306.23465 
L 770.192865 295.617305 
L 780.466743 277.863326 
L 790.740621 272.959489 
L 801.014499 258.896881 
L 811.288377 253.668497 
L 821.562255 251.279309 
L 831.836133 235.973217 
L 842.110012 239.379608 
L 852.38389 228.051951 
L 862.657768 223.729647 
L 872.931646 225.899088 
L 883.205524 213.999265 
L 893.479402 228.596992 
L 903.75328 219.141929 
L 914.027158 212.754635 
L 924.301036 207.999335 
L 934.574914 188.386577 
L 944.848792 178.685875 
L 955.12267 213.887932 
L 965.396548 260.156073 
L 975.670426 260.156073 
L 985.944304 260.156073 
L 996.218182 260.156073 
" style="fill:none;stroke:#8c564b;stroke-linecap:square;stroke-width:1.5;"/>
   </g>
   <g id="line2d_22">
    <path clip-path="url(#p9925f1a439)" d="M 184.581818 484.206469 
L 194.855696 483.910779 
L 205.129574 483.412841 
L 215.403452 482.911261 
L 225.67733 482.310162 
L 235.951208 481.5322 
L 246.225086 480.678852 
L 256.498964 479.896063 
L 266.772842 479.334146 
L 277.04672 477.866205 
L 287.320598 476.415611 
L 297.594476 475.518648 
L 307.868354 474.369798 
L 318.142232 473.117652 
L 328.41611 470.359012 
L 338.689988 469.95441 
L 348.963867 466.524955 
L 359.237745 463.977653 
L 369.511623 461.496923 
L 379.785501 458.55229 
L 390.059379 456.410352 
L 400.333257 452.920511 
L 410.607135 449.630354 
L 420.881013 444.374741 
L 431.154891 441.869163 
L 441.428769 437.357673 
L 451.702647 433.123064 
L 461.976525 425.46888 
L 472.250403 421.209827 
L 482.524281 416.773495 
L 492.798159 411.505662 
L 503.072037 404.3819 
L 513.345915 398.164213 
L 523.619793 392.415003 
L 533.893671 391.085061 
L 544.167549 388.699948 
L 554.441427 385.546137 
L 564.715305 382.078085 
L 574.989183 381.667462 
L 585.263061 375.712894 
L 595.536939 372.105531 
L 605.810817 367.343029 
L 616.084695 364.240097 
L 626.358573 354.923518 
L 636.632451 350.150277 
L 646.906329 346.630459 
L 657.180207 341.464137 
L 667.454085 335.453685 
L 677.727963 333.319171 
L 688.001841 321.374447 
L 698.275719 319.871788 
L 708.549597 319.911529 
L 718.823475 316.672754 
L 729.097353 314.775381 
L 739.371231 308.671798 
L 749.645109 306.85707 
L 759.918987 302.06434 
L 770.192865 295.745094 
L 780.466743 293.86866 
L 790.740621 293.166516 
L 801.014499 291.031655 
L 811.288377 287.665665 
L 821.562255 287.349789 
L 831.836133 286.962512 
L 842.110012 284.511185 
L 852.38389 282.353612 
L 862.657768 280.657741 
L 872.931646 277.957178 
L 883.205524 275.411703 
L 893.479402 273.868139 
L 903.75328 271.849077 
L 914.027158 269.374968 
L 924.301036 268.207908 
L 934.574914 268.192425 
L 944.848792 268.055009 
L 955.12267 264.589276 
L 965.396548 263.992366 
L 975.670426 262.486024 
L 985.944304 263.167124 
L 996.218182 262.183511 
" style="fill:none;stroke:#e377c2;stroke-linecap:square;stroke-width:1.5;"/>
   </g>
   <g id="line2d_23">
    <path clip-path="url(#p9925f1a439)" d="M 184.581818 484.206469 
L 194.855696 483.865011 
L 205.129574 483.225734 
L 215.403452 481.510583 
L 225.67733 479.805837 
L 235.951208 477.034615 
L 246.225086 473.732755 
L 256.498964 469.100458 
L 266.772842 463.828138 
L 277.04672 459.117899 
L 287.320598 456.173656 
L 297.594476 450.63803 
L 307.868354 441.74418 
L 318.142232 435.696194 
L 328.41611 430.402483 
L 338.689988 420.17387 
L 348.963867 411.622122 
L 359.237745 403.577581 
L 369.511623 401.891727 
L 379.785501 396.181346 
L 390.059379 394.801046 
L 400.333257 394.759585 
L 410.607135 390.891623 
L 420.881013 384.543722 
L 431.154891 377.864698 
L 441.428769 363.835079 
L 451.702647 363.490402 
L 461.976525 362.56666 
L 472.250403 361.547797 
L 482.524281 361.291733 
L 492.798159 359.433579 
L 503.072037 352.295634 
L 513.345915 346.902675 
L 523.619793 343.077381 
L 533.893671 340.250393 
L 544.167549 337.391406 
L 554.441427 330.903466 
L 564.715305 317.252826 
L 574.989183 310.30911 
L 585.263061 305.323515 
L 595.536939 302.54752 
L 605.810817 299.34362 
L 616.084695 298.216752 
L 626.358573 297.018917 
L 636.632451 296.874829 
L 646.906329 295.973425 
L 657.180207 296.001245 
L 667.454085 296.528336 
L 677.727963 296.299518 
L 688.001841 293.776146 
L 698.275719 292.484859 
L 708.549597 289.461609 
L 718.823475 285.923415 
L 729.097353 285.800769 
L 739.371231 284.704988 
L 749.645109 284.497266 
L 759.918987 281.155795 
L 770.192865 280.503574 
L 780.466743 280.567868 
L 790.740621 278.399313 
L 801.014499 274.14874 
L 811.288377 274.612092 
L 821.562255 271.82395 
L 831.836133 272.246363 
L 842.110012 272.720784 
L 852.38389 273.044375 
L 862.657768 267.097687 
L 872.931646 266.815227 
L 883.205524 266.391563 
L 893.479402 266.773071 
L 903.75328 265.993078 
L 914.027158 264.744521 
L 924.301036 264.191018 
L 934.574914 263.746258 
L 944.848792 263.87754 
L 955.12267 263.416881 
L 965.396548 261.506146 
L 975.670426 261.572925 
L 985.944304 261.655969 
L 996.218182 260.807859 
" style="fill:none;stroke:#7f7f7f;stroke-linecap:square;stroke-width:1.5;"/>
   </g>
   <g id="line2d_24">
    <path clip-path="url(#p9925f1a439)" d="M 184.581818 484.232727 
L 194.855696 483.954157 
L 205.129574 483.683124 
L 215.403452 483.288065 
L 225.67733 482.86883 
L 235.951208 482.227817 
L 246.225086 481.042656 
L 256.498964 480.7659 
L 266.772842 480.02381 
L 277.04672 479.54648 
L 287.320598 477.839828 
L 297.594476 475.331003 
L 307.868354 473.921819 
L 318.142232 470.879872 
L 328.41611 469.750757 
L 338.689988 468.288541 
L 348.963867 465.939002 
L 359.237745 465.204192 
L 369.511623 462.583551 
L 379.785501 460.877569 
L 390.059379 459.636216 
L 400.333257 459.648204 
L 410.607135 457.520819 
L 420.881013 454.502515 
L 431.154891 453.099994 
L 441.428769 451.961549 
L 451.702647 450.724912 
L 461.976525 447.414121 
L 472.250403 444.21156 
L 482.524281 442.996952 
L 492.798159 437.222155 
L 503.072037 434.131913 
L 513.345915 430.03476 
L 523.619793 427.879911 
L 533.893671 423.49753 
L 544.167549 415.21368 
L 554.441427 411.917588 
L 564.715305 404.914968 
L 574.989183 398.350596 
L 585.263061 397.078901 
L 595.536939 391.773652 
L 605.810817 390.251896 
L 616.084695 387.758786 
L 626.358573 383.637904 
L 636.632451 380.367295 
L 646.906329 368.75406 
L 657.180207 364.59322 
L 667.454085 361.055313 
L 677.727963 355.95928 
L 688.001841 354.10336 
L 698.275719 350.42503 
L 708.549597 343.103229 
L 718.823475 336.919852 
L 729.097353 334.316512 
L 739.371231 330.567364 
L 749.645109 332.691399 
L 759.918987 327.536972 
L 770.192865 326.26963 
L 780.466743 319.110719 
L 790.740621 315.982339 
L 801.014499 315.69338 
L 811.288377 309.745146 
L 821.562255 308.806799 
L 831.836133 303.742261 
L 842.110012 295.931912 
L 852.38389 291.844698 
L 862.657768 280.986423 
L 872.931646 275.971688 
L 883.205524 273.906664 
L 893.479402 274.225371 
L 903.75328 272.985311 
L 914.027158 272.668932 
L 924.301036 271.54109 
L 934.574914 269.219151 
L 944.848792 266.897975 
L 955.12267 266.421086 
L 965.396548 260.875889 
L 975.670426 261.02573 
L 985.944304 260.881415 
L 996.218182 261.364977 
" style="fill:none;stroke:#bcbd22;stroke-dasharray:5.55,2.4;stroke-dashoffset:0;stroke-width:1.5;"/>
   </g>
   <g id="line2d_25">
    <path clip-path="url(#p9925f1a439)" d="M 184.581818 484.232727 
L 194.855696 483.92177 
L 205.129574 483.474269 
L 215.403452 482.958992 
L 225.67733 482.376252 
L 235.951208 481.386645 
L 246.225086 480.871946 
L 256.498964 480.073668 
L 266.772842 479.324988 
L 277.04672 477.912297 
L 287.320598 476.802336 
L 297.594476 476.176635 
L 307.868354 475.567422 
L 318.142232 473.637268 
L 328.41611 472.616108 
L 338.689988 471.022728 
L 348.963867 470.490716 
L 359.237745 469.482442 
L 369.511623 467.064155 
L 379.785501 465.98433 
L 390.059379 464.358204 
L 400.333257 462.693425 
L 410.607135 461.083469 
L 420.881013 459.592581 
L 431.154891 456.769507 
L 441.428769 455.449063 
L 451.702647 455.50057 
L 461.976525 451.697836 
L 472.250403 446.892139 
L 482.524281 444.104349 
L 492.798159 441.070981 
L 503.072037 439.131852 
L 513.345915 436.105461 
L 523.619793 430.370618 
L 533.893671 423.452059 
L 544.167549 417.751335 
L 554.441427 416.535203 
L 564.715305 408.610692 
L 574.989183 405.970461 
L 585.263061 400.13356 
L 595.536939 399.964049 
L 605.810817 399.900607 
L 616.084695 390.990132 
L 626.358573 389.357695 
L 636.632451 388.999124 
L 646.906329 383.723694 
L 657.180207 380.589249 
L 667.454085 377.782445 
L 677.727963 374.085852 
L 688.001841 365.583906 
L 698.275719 355.176577 
L 708.549597 352.217638 
L 718.823475 347.468463 
L 729.097353 347.029387 
L 739.371231 341.920278 
L 749.645109 339.564244 
L 759.918987 339.311273 
L 770.192865 334.097704 
L 780.466743 328.247092 
L 790.740621 320.884768 
L 801.014499 316.908053 
L 811.288377 311.85104 
L 821.562255 313.925448 
L 831.836133 310.378304 
L 842.110012 301.811769 
L 852.38389 298.793714 
L 862.657768 296.558137 
L 872.931646 294.3941 
L 883.205524 291.058102 
L 893.479402 288.253904 
L 903.75328 287.662537 
L 914.027158 282.37648 
L 924.301036 281.706882 
L 934.574914 280.619981 
L 944.848792 276.226953 
L 955.12267 275.855367 
L 965.396548 274.753365 
L 975.670426 272.354498 
L 985.944304 267.313715 
L 996.218182 265.809232 
" style="fill:none;stroke:#17becf;stroke-dasharray:5.55,2.4;stroke-dashoffset:0;stroke-width:1.5;"/>
   </g>
   <g id="line2d_26">
    <path clip-path="url(#p9925f1a439)" d="M 184.581818 483.883945 
L 194.855696 479.006394 
L 205.129574 473.747069 
L 215.403452 466.752523 
L 225.67733 457.390369 
L 235.951208 448.928969 
L 246.225086 432.391701 
L 256.498964 424.44705 
L 266.772842 408.885402 
L 277.04672 393.873603 
L 287.320598 379.279152 
L 297.594476 372.920382 
L 307.868354 364.324453 
L 318.142232 348.788466 
L 328.41611 343.509812 
L 338.689988 342.494772 
L 348.963867 331.744259 
L 359.237745 321.932311 
L 369.511623 314.799083 
L 379.785501 314.197603 
L 390.059379 308.495459 
L 400.333257 305.631119 
L 410.607135 305.070266 
L 420.881013 302.869581 
L 431.154891 300.778058 
L 441.428769 295.270985 
L 451.702647 294.928489 
L 461.976525 294.689297 
L 472.250403 293.586305 
L 482.524281 289.887775 
L 492.798159 289.867149 
L 503.072037 289.203233 
L 513.345915 287.366714 
L 523.619793 283.766068 
L 533.893671 278.518744 
L 544.167549 276.69882 
L 554.441427 276.182868 
L 564.715305 275.91662 
L 574.989183 276.247979 
L 585.263061 275.28864 
L 595.536939 273.84647 
L 605.810817 270.750377 
L 616.084695 270.459993 
L 626.358573 269.813593 
L 636.632451 268.971201 
L 646.906329 269.189958 
L 657.180207 266.349285 
L 667.454085 266.092648 
L 677.727963 265.508648 
L 688.001841 265.261133 
L 698.275719 265.160521 
L 708.549597 264.541873 
L 718.823475 263.533375 
L 729.097353 263.389617 
L 739.371231 263.149192 
L 749.645109 263.334376 
L 759.918987 262.899817 
L 770.192865 262.777849 
L 780.466743 262.696196 
L 790.740621 262.220124 
L 801.014499 261.954068 
L 811.288377 261.886072 
L 821.562255 260.341153 
L 831.836133 260.401346 
L 842.110012 260.386611 
L 852.38389 260.156073 
L 862.657768 260.156073 
L 872.931646 260.156073 
L 883.205524 260.156073 
L 893.479402 260.156073 
L 903.75328 260.156073 
L 914.027158 260.156073 
L 924.301036 260.156073 
L 934.574914 260.156073 
L 944.848792 260.156073 
L 955.12267 260.156073 
L 965.396548 260.156073 
L 975.670426 260.156073 
L 985.944304 260.156073 
L 996.218182 260.156073 
" style="fill:none;stroke:#1f77b4;stroke-dasharray:5.55,2.4;stroke-dashoffset:0;stroke-width:1.5;"/>
   </g>
   <g id="patch_3">
    <path d="M 144 504 
L 144 69.12 
" style="fill:none;stroke:#000000;stroke-linecap:square;stroke-linejoin:miter;stroke-width:0.8;"/>
   </g>
   <g id="patch_4">
    <path d="M 1036.8 504 
L 1036.8 69.12 
" style="fill:none;stroke:#000000;stroke-linecap:square;stroke-linejoin:miter;stroke-width:0.8;"/>
   </g>
   <g id="patch_5">
    <path d="M 144 504 
L 1036.8 504 
" style="fill:none;stroke:#000000;stroke-linecap:square;stroke-linejoin:miter;stroke-width:0.8;"/>
   </g>
   <g id="patch_6">
    <path d="M 144 69.12 
L 1036.8 69.12 
" style="fill:none;stroke:#000000;stroke-linecap:square;stroke-linejoin:miter;stroke-width:0.8;"/>
   </g>
   <g id="legend_1">
    <g id="patch_7">
     <path d="M 151 240.52625 
L 300.879687 240.52625 
Q 302.879687 240.52625 302.879687 238.52625 
L 302.879687 76.12 
Q 302.879687 74.12 300.879687 74.12 
L 151 74.12 
Q 149 74.12 149 76.12 
L 149 238.52625 
Q 149 240.52625 151 240.52625 
z
" style="fill:#ffffff;opacity:0.8;stroke:#cccccc;stroke-linejoin:miter;"/>
    </g>
    <g id="line2d_27">
     <path d="M 153 82.218437 
L 173 82.218437 
" style="fill:none;stroke:#1f77b4;stroke-linecap:square;stroke-width:1.5;"/>
    </g>
    <g id="line2d_28"/>
    <g id="text_18">
     <!-- taylorfo noBN -->
     <defs>
      <path d="M 32.171875 -5.078125 
Q 28.375 -14.84375 24.75 -17.8125 
Q 21.140625 -20.796875 15.09375 -20.796875 
L 7.90625 -20.796875 
L 7.90625 -13.28125 
L 13.1875 -13.28125 
Q 16.890625 -13.28125 18.9375 -11.515625 
Q 21 -9.765625 23.484375 -3.21875 
L 25.09375 0.875 
L 2.984375 54.6875 
L 12.5 54.6875 
L 29.59375 11.921875 
L 46.6875 54.6875 
L 56.203125 54.6875 
z
" id="DejaVuSans-121"/>
      <path d="M 9.421875 75.984375 
L 18.40625 75.984375 
L 18.40625 0 
L 9.421875 0 
z
" id="DejaVuSans-108"/>
      <path d="M 19.671875 34.8125 
L 19.671875 8.109375 
L 35.5 8.109375 
Q 43.453125 8.109375 47.28125 11.40625 
Q 51.125 14.703125 51.125 21.484375 
Q 51.125 28.328125 47.28125 31.5625 
Q 43.453125 34.8125 35.5 34.8125 
z
M 19.671875 64.796875 
L 19.671875 42.828125 
L 34.28125 42.828125 
Q 41.5 42.828125 45.03125 45.53125 
Q 48.578125 48.25 48.578125 53.8125 
Q 48.578125 59.328125 45.03125 62.0625 
Q 41.5 64.796875 34.28125 64.796875 
z
M 9.8125 72.90625 
L 35.015625 72.90625 
Q 46.296875 72.90625 52.390625 68.21875 
Q 58.5 63.53125 58.5 54.890625 
Q 58.5 48.1875 55.375 44.234375 
Q 52.25 40.28125 46.1875 39.3125 
Q 53.46875 37.75 57.5 32.78125 
Q 61.53125 27.828125 61.53125 20.40625 
Q 61.53125 10.640625 54.890625 5.3125 
Q 48.25 0 35.984375 0 
L 9.8125 0 
z
" id="DejaVuSans-66"/>
     </defs>
     <g transform="translate(181 85.718437)scale(0.1 -0.1)">
      <use xlink:href="#DejaVuSans-116"/>
      <use x="39.208984" xlink:href="#DejaVuSans-97"/>
      <use x="100.488281" xlink:href="#DejaVuSans-121"/>
      <use x="159.667969" xlink:href="#DejaVuSans-108"/>
      <use x="187.451172" xlink:href="#DejaVuSans-111"/>
      <use x="248.632812" xlink:href="#DejaVuSans-114"/>
      <use x="289.746094" xlink:href="#DejaVuSans-102"/>
      <use x="324.951172" xlink:href="#DejaVuSans-111"/>
      <use x="386.132812" xlink:href="#DejaVuSans-32"/>
      <use x="417.919922" xlink:href="#DejaVuSans-110"/>
      <use x="481.298828" xlink:href="#DejaVuSans-111"/>
      <use x="542.480469" xlink:href="#DejaVuSans-66"/>
      <use x="611.083984" xlink:href="#DejaVuSans-78"/>
     </g>
    </g>
    <g id="line2d_29">
     <path d="M 153 96.896563 
L 173 96.896563 
" style="fill:none;stroke:#ff7f0e;stroke-linecap:square;stroke-width:1.5;"/>
    </g>
    <g id="line2d_30"/>
    <g id="text_19">
     <!-- taylorfo_abs noBN -->
     <defs>
      <path d="M 50.984375 -16.609375 
L 50.984375 -23.578125 
L -0.984375 -23.578125 
L -0.984375 -16.609375 
z
" id="DejaVuSans-95"/>
     </defs>
     <g transform="translate(181 100.396563)scale(0.1 -0.1)">
      <use xlink:href="#DejaVuSans-116"/>
      <use x="39.208984" xlink:href="#DejaVuSans-97"/>
      <use x="100.488281" xlink:href="#DejaVuSans-121"/>
      <use x="159.667969" xlink:href="#DejaVuSans-108"/>
      <use x="187.451172" xlink:href="#DejaVuSans-111"/>
      <use x="248.632812" xlink:href="#DejaVuSans-114"/>
      <use x="289.746094" xlink:href="#DejaVuSans-102"/>
      <use x="324.951172" xlink:href="#DejaVuSans-111"/>
      <use x="386.132812" xlink:href="#DejaVuSans-95"/>
      <use x="436.132812" xlink:href="#DejaVuSans-97"/>
      <use x="497.412109" xlink:href="#DejaVuSans-98"/>
      <use x="560.888672" xlink:href="#DejaVuSans-115"/>
      <use x="612.988281" xlink:href="#DejaVuSans-32"/>
      <use x="644.775391" xlink:href="#DejaVuSans-110"/>
      <use x="708.154297" xlink:href="#DejaVuSans-111"/>
      <use x="769.335938" xlink:href="#DejaVuSans-66"/>
      <use x="837.939453" xlink:href="#DejaVuSans-78"/>
     </g>
    </g>
    <g id="line2d_31">
     <path d="M 153 111.852813 
L 173 111.852813 
" style="fill:none;stroke:#2ca02c;stroke-linecap:square;stroke-width:1.5;"/>
    </g>
    <g id="line2d_32"/>
    <g id="text_20">
     <!-- taylorfo_sq noBN -->
     <g transform="translate(181 115.352813)scale(0.1 -0.1)">
      <use xlink:href="#DejaVuSans-116"/>
      <use x="39.208984" xlink:href="#DejaVuSans-97"/>
      <use x="100.488281" xlink:href="#DejaVuSans-121"/>
      <use x="159.667969" xlink:href="#DejaVuSans-108"/>
      <use x="187.451172" xlink:href="#DejaVuSans-111"/>
      <use x="248.632812" xlink:href="#DejaVuSans-114"/>
      <use x="289.746094" xlink:href="#DejaVuSans-102"/>
      <use x="324.951172" xlink:href="#DejaVuSans-111"/>
      <use x="386.132812" xlink:href="#DejaVuSans-95"/>
      <use x="436.132812" xlink:href="#DejaVuSans-115"/>
      <use x="488.232422" xlink:href="#DejaVuSans-113"/>
      <use x="551.708984" xlink:href="#DejaVuSans-32"/>
      <use x="583.496094" xlink:href="#DejaVuSans-110"/>
      <use x="646.875" xlink:href="#DejaVuSans-111"/>
      <use x="708.056641" xlink:href="#DejaVuSans-66"/>
      <use x="776.660156" xlink:href="#DejaVuSans-78"/>
     </g>
    </g>
    <g id="line2d_33">
     <path d="M 153 126.809062 
L 173 126.809062 
" style="fill:none;stroke:#d62728;stroke-dasharray:5.55,2.4;stroke-dashoffset:0;stroke-width:1.5;"/>
    </g>
    <g id="line2d_34"/>
    <g id="text_21">
     <!-- Molchanov_group noBN -->
     <defs>
      <path d="M 9.8125 72.90625 
L 24.515625 72.90625 
L 43.109375 23.296875 
L 61.8125 72.90625 
L 76.515625 72.90625 
L 76.515625 0 
L 66.890625 0 
L 66.890625 64.015625 
L 48.09375 14.015625 
L 38.1875 14.015625 
L 19.390625 64.015625 
L 19.390625 0 
L 9.8125 0 
z
" id="DejaVuSans-77"/>
      <path d="M 48.78125 52.59375 
L 48.78125 44.1875 
Q 44.96875 46.296875 41.140625 47.34375 
Q 37.3125 48.390625 33.40625 48.390625 
Q 24.65625 48.390625 19.8125 42.84375 
Q 14.984375 37.3125 14.984375 27.296875 
Q 14.984375 17.28125 19.8125 11.734375 
Q 24.65625 6.203125 33.40625 6.203125 
Q 37.3125 6.203125 41.140625 7.25 
Q 44.96875 8.296875 48.78125 10.40625 
L 48.78125 2.09375 
Q 45.015625 0.34375 40.984375 -0.53125 
Q 36.96875 -1.421875 32.421875 -1.421875 
Q 20.0625 -1.421875 12.78125 6.34375 
Q 5.515625 14.109375 5.515625 27.296875 
Q 5.515625 40.671875 12.859375 48.328125 
Q 20.21875 56 33.015625 56 
Q 37.15625 56 41.109375 55.140625 
Q 45.0625 54.296875 48.78125 52.59375 
z
" id="DejaVuSans-99"/>
      <path d="M 54.890625 33.015625 
L 54.890625 0 
L 45.90625 0 
L 45.90625 32.71875 
Q 45.90625 40.484375 42.875 44.328125 
Q 39.84375 48.1875 33.796875 48.1875 
Q 26.515625 48.1875 22.3125 43.546875 
Q 18.109375 38.921875 18.109375 30.90625 
L 18.109375 0 
L 9.078125 0 
L 9.078125 75.984375 
L 18.109375 75.984375 
L 18.109375 46.1875 
Q 21.34375 51.125 25.703125 53.5625 
Q 30.078125 56 35.796875 56 
Q 45.21875 56 50.046875 50.171875 
Q 54.890625 44.34375 54.890625 33.015625 
z
" id="DejaVuSans-104"/>
      <path d="M 45.40625 27.984375 
Q 45.40625 37.75 41.375 43.109375 
Q 37.359375 48.484375 30.078125 48.484375 
Q 22.859375 48.484375 18.828125 43.109375 
Q 14.796875 37.75 14.796875 27.984375 
Q 14.796875 18.265625 18.828125 12.890625 
Q 22.859375 7.515625 30.078125 7.515625 
Q 37.359375 7.515625 41.375 12.890625 
Q 45.40625 18.265625 45.40625 27.984375 
z
M 54.390625 6.78125 
Q 54.390625 -7.171875 48.1875 -13.984375 
Q 42 -20.796875 29.203125 -20.796875 
Q 24.46875 -20.796875 20.265625 -20.09375 
Q 16.0625 -19.390625 12.109375 -17.921875 
L 12.109375 -9.1875 
Q 16.0625 -11.328125 19.921875 -12.34375 
Q 23.78125 -13.375 27.78125 -13.375 
Q 36.625 -13.375 41.015625 -8.765625 
Q 45.40625 -4.15625 45.40625 5.171875 
L 45.40625 9.625 
Q 42.625 4.78125 38.28125 2.390625 
Q 33.9375 0 27.875 0 
Q 17.828125 0 11.671875 7.65625 
Q 5.515625 15.328125 5.515625 27.984375 
Q 5.515625 40.671875 11.671875 48.328125 
Q 17.828125 56 27.875 56 
Q 33.9375 56 38.28125 53.609375 
Q 42.625 51.21875 45.40625 46.390625 
L 45.40625 54.6875 
L 54.390625 54.6875 
z
" id="DejaVuSans-103"/>
     </defs>
     <g transform="translate(181 130.309062)scale(0.1 -0.1)">
      <use xlink:href="#DejaVuSans-77"/>
      <use x="86.279297" xlink:href="#DejaVuSans-111"/>
      <use x="147.460938" xlink:href="#DejaVuSans-108"/>
      <use x="175.244141" xlink:href="#DejaVuSans-99"/>
      <use x="230.224609" xlink:href="#DejaVuSans-104"/>
      <use x="293.603516" xlink:href="#DejaVuSans-97"/>
      <use x="354.882812" xlink:href="#DejaVuSans-110"/>
      <use x="418.261719" xlink:href="#DejaVuSans-111"/>
      <use x="479.443359" xlink:href="#DejaVuSans-118"/>
      <use x="538.623047" xlink:href="#DejaVuSans-95"/>
      <use x="588.623047" xlink:href="#DejaVuSans-103"/>
      <use x="652.099609" xlink:href="#DejaVuSans-114"/>
      <use x="690.962891" xlink:href="#DejaVuSans-111"/>
      <use x="752.144531" xlink:href="#DejaVuSans-117"/>
      <use x="815.523438" xlink:href="#DejaVuSans-112"/>
      <use x="879" xlink:href="#DejaVuSans-32"/>
      <use x="910.787109" xlink:href="#DejaVuSans-110"/>
      <use x="974.166016" xlink:href="#DejaVuSans-111"/>
      <use x="1035.347656" xlink:href="#DejaVuSans-66"/>
      <use x="1103.951172" xlink:href="#DejaVuSans-78"/>
     </g>
    </g>
    <g id="line2d_35">
     <path d="M 153 141.765312 
L 173 141.765312 
" style="fill:none;stroke:#9467bd;stroke-dasharray:5.55,2.4;stroke-dashoffset:0;stroke-width:1.5;"/>
    </g>
    <g id="line2d_36"/>
    <g id="text_22">
     <!-- APnZ noBN -->
     <defs>
      <path d="M 34.1875 63.1875 
L 20.796875 26.90625 
L 47.609375 26.90625 
z
M 28.609375 72.90625 
L 39.796875 72.90625 
L 67.578125 0 
L 57.328125 0 
L 50.6875 18.703125 
L 17.828125 18.703125 
L 11.1875 0 
L 0.78125 0 
z
" id="DejaVuSans-65"/>
      <path d="M 19.671875 64.796875 
L 19.671875 37.40625 
L 32.078125 37.40625 
Q 38.96875 37.40625 42.71875 40.96875 
Q 46.484375 44.53125 46.484375 51.125 
Q 46.484375 57.671875 42.71875 61.234375 
Q 38.96875 64.796875 32.078125 64.796875 
z
M 9.8125 72.90625 
L 32.078125 72.90625 
Q 44.34375 72.90625 50.609375 67.359375 
Q 56.890625 61.8125 56.890625 51.125 
Q 56.890625 40.328125 50.609375 34.8125 
Q 44.34375 29.296875 32.078125 29.296875 
L 19.671875 29.296875 
L 19.671875 0 
L 9.8125 0 
z
" id="DejaVuSans-80"/>
      <path d="M 5.609375 72.90625 
L 62.890625 72.90625 
L 62.890625 65.375 
L 16.796875 8.296875 
L 64.015625 8.296875 
L 64.015625 0 
L 4.5 0 
L 4.5 7.515625 
L 50.59375 64.59375 
L 5.609375 64.59375 
z
" id="DejaVuSans-90"/>
     </defs>
     <g transform="translate(181 145.265312)scale(0.1 -0.1)">
      <use xlink:href="#DejaVuSans-65"/>
      <use x="68.408203" xlink:href="#DejaVuSans-80"/>
      <use x="126.960938" xlink:href="#DejaVuSans-110"/>
      <use x="190.339844" xlink:href="#DejaVuSans-90"/>
      <use x="258.845703" xlink:href="#DejaVuSans-32"/>
      <use x="290.632812" xlink:href="#DejaVuSans-110"/>
      <use x="354.011719" xlink:href="#DejaVuSans-111"/>
      <use x="415.193359" xlink:href="#DejaVuSans-66"/>
      <use x="483.796875" xlink:href="#DejaVuSans-78"/>
     </g>
    </g>
    <g id="line2d_37">
     <path d="M 153 156.443438 
L 173 156.443438 
" style="fill:none;stroke:#8c564b;stroke-linecap:square;stroke-width:1.5;"/>
    </g>
    <g id="line2d_38"/>
    <g id="text_23">
     <!-- taylorfo BN -->
     <g transform="translate(181 159.943438)scale(0.1 -0.1)">
      <use xlink:href="#DejaVuSans-116"/>
      <use x="39.208984" xlink:href="#DejaVuSans-97"/>
      <use x="100.488281" xlink:href="#DejaVuSans-121"/>
      <use x="159.667969" xlink:href="#DejaVuSans-108"/>
      <use x="187.451172" xlink:href="#DejaVuSans-111"/>
      <use x="248.632812" xlink:href="#DejaVuSans-114"/>
      <use x="289.746094" xlink:href="#DejaVuSans-102"/>
      <use x="324.951172" xlink:href="#DejaVuSans-111"/>
      <use x="386.132812" xlink:href="#DejaVuSans-32"/>
      <use x="417.919922" xlink:href="#DejaVuSans-66"/>
      <use x="486.523438" xlink:href="#DejaVuSans-78"/>
     </g>
    </g>
    <g id="line2d_39">
     <path d="M 153 171.121562 
L 173 171.121562 
" style="fill:none;stroke:#e377c2;stroke-linecap:square;stroke-width:1.5;"/>
    </g>
    <g id="line2d_40"/>
    <g id="text_24">
     <!-- taylorfo_abs BN -->
     <g transform="translate(181 174.621562)scale(0.1 -0.1)">
      <use xlink:href="#DejaVuSans-116"/>
      <use x="39.208984" xlink:href="#DejaVuSans-97"/>
      <use x="100.488281" xlink:href="#DejaVuSans-121"/>
      <use x="159.667969" xlink:href="#DejaVuSans-108"/>
      <use x="187.451172" xlink:href="#DejaVuSans-111"/>
      <use x="248.632812" xlink:href="#DejaVuSans-114"/>
      <use x="289.746094" xlink:href="#DejaVuSans-102"/>
      <use x="324.951172" xlink:href="#DejaVuSans-111"/>
      <use x="386.132812" xlink:href="#DejaVuSans-95"/>
      <use x="436.132812" xlink:href="#DejaVuSans-97"/>
      <use x="497.412109" xlink:href="#DejaVuSans-98"/>
      <use x="560.888672" xlink:href="#DejaVuSans-115"/>
      <use x="612.988281" xlink:href="#DejaVuSans-32"/>
      <use x="644.775391" xlink:href="#DejaVuSans-66"/>
      <use x="713.378906" xlink:href="#DejaVuSans-78"/>
     </g>
    </g>
    <g id="line2d_41">
     <path d="M 153 186.077812 
L 173 186.077812 
" style="fill:none;stroke:#7f7f7f;stroke-linecap:square;stroke-width:1.5;"/>
    </g>
    <g id="line2d_42"/>
    <g id="text_25">
     <!-- taylorfo_sq BN -->
     <g transform="translate(181 189.577812)scale(0.1 -0.1)">
      <use xlink:href="#DejaVuSans-116"/>
      <use x="39.208984" xlink:href="#DejaVuSans-97"/>
      <use x="100.488281" xlink:href="#DejaVuSans-121"/>
      <use x="159.667969" xlink:href="#DejaVuSans-108"/>
      <use x="187.451172" xlink:href="#DejaVuSans-111"/>
      <use x="248.632812" xlink:href="#DejaVuSans-114"/>
      <use x="289.746094" xlink:href="#DejaVuSans-102"/>
      <use x="324.951172" xlink:href="#DejaVuSans-111"/>
      <use x="386.132812" xlink:href="#DejaVuSans-95"/>
      <use x="436.132812" xlink:href="#DejaVuSans-115"/>
      <use x="488.232422" xlink:href="#DejaVuSans-113"/>
      <use x="551.708984" xlink:href="#DejaVuSans-32"/>
      <use x="583.496094" xlink:href="#DejaVuSans-66"/>
      <use x="652.099609" xlink:href="#DejaVuSans-78"/>
     </g>
    </g>
    <g id="line2d_43">
     <path d="M 153 201.034063 
L 173 201.034063 
" style="fill:none;stroke:#bcbd22;stroke-dasharray:5.55,2.4;stroke-dashoffset:0;stroke-width:1.5;"/>
    </g>
    <g id="line2d_44"/>
    <g id="text_26">
     <!-- Molchanov_group BN -->
     <g transform="translate(181 204.534063)scale(0.1 -0.1)">
      <use xlink:href="#DejaVuSans-77"/>
      <use x="86.279297" xlink:href="#DejaVuSans-111"/>
      <use x="147.460938" xlink:href="#DejaVuSans-108"/>
      <use x="175.244141" xlink:href="#DejaVuSans-99"/>
      <use x="230.224609" xlink:href="#DejaVuSans-104"/>
      <use x="293.603516" xlink:href="#DejaVuSans-97"/>
      <use x="354.882812" xlink:href="#DejaVuSans-110"/>
      <use x="418.261719" xlink:href="#DejaVuSans-111"/>
      <use x="479.443359" xlink:href="#DejaVuSans-118"/>
      <use x="538.623047" xlink:href="#DejaVuSans-95"/>
      <use x="588.623047" xlink:href="#DejaVuSans-103"/>
      <use x="652.099609" xlink:href="#DejaVuSans-114"/>
      <use x="690.962891" xlink:href="#DejaVuSans-111"/>
      <use x="752.144531" xlink:href="#DejaVuSans-117"/>
      <use x="815.523438" xlink:href="#DejaVuSans-112"/>
      <use x="879" xlink:href="#DejaVuSans-32"/>
      <use x="910.787109" xlink:href="#DejaVuSans-66"/>
      <use x="979.390625" xlink:href="#DejaVuSans-78"/>
     </g>
    </g>
    <g id="line2d_45">
     <path d="M 153 215.990312 
L 173 215.990312 
" style="fill:none;stroke:#17becf;stroke-dasharray:5.55,2.4;stroke-dashoffset:0;stroke-width:1.5;"/>
    </g>
    <g id="line2d_46"/>
    <g id="text_27">
     <!-- Molchanov_BN BN -->
     <g transform="translate(181 219.490312)scale(0.1 -0.1)">
      <use xlink:href="#DejaVuSans-77"/>
      <use x="86.279297" xlink:href="#DejaVuSans-111"/>
      <use x="147.460938" xlink:href="#DejaVuSans-108"/>
      <use x="175.244141" xlink:href="#DejaVuSans-99"/>
      <use x="230.224609" xlink:href="#DejaVuSans-104"/>
      <use x="293.603516" xlink:href="#DejaVuSans-97"/>
      <use x="354.882812" xlink:href="#DejaVuSans-110"/>
      <use x="418.261719" xlink:href="#DejaVuSans-111"/>
      <use x="479.443359" xlink:href="#DejaVuSans-118"/>
      <use x="538.623047" xlink:href="#DejaVuSans-95"/>
      <use x="588.623047" xlink:href="#DejaVuSans-66"/>
      <use x="657.226562" xlink:href="#DejaVuSans-78"/>
      <use x="732.03125" xlink:href="#DejaVuSans-32"/>
      <use x="763.818359" xlink:href="#DejaVuSans-66"/>
      <use x="832.421875" xlink:href="#DejaVuSans-78"/>
     </g>
    </g>
    <g id="line2d_47">
     <path d="M 153 230.946563 
L 173 230.946563 
" style="fill:none;stroke:#1f77b4;stroke-dasharray:5.55,2.4;stroke-dashoffset:0;stroke-width:1.5;"/>
    </g>
    <g id="line2d_48"/>
    <g id="text_28">
     <!-- APnZ BN -->
     <g transform="translate(181 234.446563)scale(0.1 -0.1)">
      <use xlink:href="#DejaVuSans-65"/>
      <use x="68.408203" xlink:href="#DejaVuSans-80"/>
      <use x="126.960938" xlink:href="#DejaVuSans-110"/>
      <use x="190.339844" xlink:href="#DejaVuSans-90"/>
      <use x="258.845703" xlink:href="#DejaVuSans-32"/>
      <use x="290.632812" xlink:href="#DejaVuSans-66"/>
      <use x="359.236328" xlink:href="#DejaVuSans-78"/>
     </g>
    </g>
   </g>
  </g>
 </g>
 <defs>
  <clipPath id="p9925f1a439">
   <rect height="434.88" width="892.8" x="144" y="69.12"/>
  </clipPath>
 </defs>
</svg>
