<?xml version="1.0" encoding="utf-8" standalone="no"?>
<!DOCTYPE svg PUBLIC "-//W3C//DTD SVG 1.1//EN"
  "http://www.w3.org/Graphics/SVG/1.1/DTD/svg11.dtd">
<!-- Created with matplotlib (https://matplotlib.org/) -->
<svg height="576pt" version="1.1" viewBox="0 0 1152 576" width="1152pt" xmlns="http://www.w3.org/2000/svg" xmlns:xlink="http://www.w3.org/1999/xlink">
 <defs>
  <style type="text/css">
*{stroke-linecap:butt;stroke-linejoin:round;}
  </style>
 </defs>
 <g id="figure_1">
  <g id="patch_1">
   <path d="M 0 576 
L 1152 576 
L 1152 0 
L 0 0 
z
" style="fill:#ffffff;"/>
  </g>
  <g id="axes_1">
   <g id="patch_2">
    <path d="M 144 504 
L 1036.8 504 
L 1036.8 69.12 
L 144 69.12 
z
" style="fill:#ffffff;"/>
   </g>
   <g id="matplotlib.axis_1">
    <g id="xtick_1">
     <g id="line2d_1">
      <defs>
       <path d="M 0 0 
L 0 3.5 
" id="me25149e6b0" style="stroke:#000000;stroke-width:0.8;"/>
      </defs>
      <g>
       <use style="stroke:#000000;stroke-width:0.8;" x="182.527043" xlink:href="#me25149e6b0" y="504"/>
      </g>
     </g>
     <g id="text_1">
      <!-- 0 -->
      <defs>
       <path d="M 31.78125 66.40625 
Q 24.171875 66.40625 20.328125 58.90625 
Q 16.5 51.421875 16.5 36.375 
Q 16.5 21.390625 20.328125 13.890625 
Q 24.171875 6.390625 31.78125 6.390625 
Q 39.453125 6.390625 43.28125 13.890625 
Q 47.125 21.390625 47.125 36.375 
Q 47.125 51.421875 43.28125 58.90625 
Q 39.453125 66.40625 31.78125 66.40625 
z
M 31.78125 74.21875 
Q 44.046875 74.21875 50.515625 64.515625 
Q 56.984375 54.828125 56.984375 36.375 
Q 56.984375 17.96875 50.515625 8.265625 
Q 44.046875 -1.421875 31.78125 -1.421875 
Q 19.53125 -1.421875 13.0625 8.265625 
Q 6.59375 17.96875 6.59375 36.375 
Q 6.59375 54.828125 13.0625 64.515625 
Q 19.53125 74.21875 31.78125 74.21875 
z
" id="DejaVuSans-48"/>
      </defs>
      <g transform="translate(179.345793 518.598438)scale(0.1 -0.1)">
       <use xlink:href="#DejaVuSans-48"/>
      </g>
     </g>
    </g>
    <g id="xtick_2">
     <g id="line2d_2">
      <g>
       <use style="stroke:#000000;stroke-width:0.8;" x="285.265823" xlink:href="#me25149e6b0" y="504"/>
      </g>
     </g>
     <g id="text_2">
      <!-- 50 -->
      <defs>
       <path d="M 10.796875 72.90625 
L 49.515625 72.90625 
L 49.515625 64.59375 
L 19.828125 64.59375 
L 19.828125 46.734375 
Q 21.96875 47.46875 24.109375 47.828125 
Q 26.265625 48.1875 28.421875 48.1875 
Q 40.625 48.1875 47.75 41.5 
Q 54.890625 34.8125 54.890625 23.390625 
Q 54.890625 11.625 47.5625 5.09375 
Q 40.234375 -1.421875 26.90625 -1.421875 
Q 22.3125 -1.421875 17.546875 -0.640625 
Q 12.796875 0.140625 7.71875 1.703125 
L 7.71875 11.625 
Q 12.109375 9.234375 16.796875 8.0625 
Q 21.484375 6.890625 26.703125 6.890625 
Q 35.15625 6.890625 40.078125 11.328125 
Q 45.015625 15.765625 45.015625 23.390625 
Q 45.015625 31 40.078125 35.4375 
Q 35.15625 39.890625 26.703125 39.890625 
Q 22.75 39.890625 18.8125 39.015625 
Q 14.890625 38.140625 10.796875 36.28125 
z
" id="DejaVuSans-53"/>
      </defs>
      <g transform="translate(278.903323 518.598438)scale(0.1 -0.1)">
       <use xlink:href="#DejaVuSans-53"/>
       <use x="63.623047" xlink:href="#DejaVuSans-48"/>
      </g>
     </g>
    </g>
    <g id="xtick_3">
     <g id="line2d_3">
      <g>
       <use style="stroke:#000000;stroke-width:0.8;" x="388.004603" xlink:href="#me25149e6b0" y="504"/>
      </g>
     </g>
     <g id="text_3">
      <!-- 100 -->
      <defs>
       <path d="M 12.40625 8.296875 
L 28.515625 8.296875 
L 28.515625 63.921875 
L 10.984375 60.40625 
L 10.984375 69.390625 
L 28.421875 72.90625 
L 38.28125 72.90625 
L 38.28125 8.296875 
L 54.390625 8.296875 
L 54.390625 0 
L 12.40625 0 
z
" id="DejaVuSans-49"/>
      </defs>
      <g transform="translate(378.460853 518.598438)scale(0.1 -0.1)">
       <use xlink:href="#DejaVuSans-49"/>
       <use x="63.623047" xlink:href="#DejaVuSans-48"/>
       <use x="127.246094" xlink:href="#DejaVuSans-48"/>
      </g>
     </g>
    </g>
    <g id="xtick_4">
     <g id="line2d_4">
      <g>
       <use style="stroke:#000000;stroke-width:0.8;" x="490.743383" xlink:href="#me25149e6b0" y="504"/>
      </g>
     </g>
     <g id="text_4">
      <!-- 150 -->
      <g transform="translate(481.199633 518.598438)scale(0.1 -0.1)">
       <use xlink:href="#DejaVuSans-49"/>
       <use x="63.623047" xlink:href="#DejaVuSans-53"/>
       <use x="127.246094" xlink:href="#DejaVuSans-48"/>
      </g>
     </g>
    </g>
    <g id="xtick_5">
     <g id="line2d_5">
      <g>
       <use style="stroke:#000000;stroke-width:0.8;" x="593.482163" xlink:href="#me25149e6b0" y="504"/>
      </g>
     </g>
     <g id="text_5">
      <!-- 200 -->
      <defs>
       <path d="M 19.1875 8.296875 
L 53.609375 8.296875 
L 53.609375 0 
L 7.328125 0 
L 7.328125 8.296875 
Q 12.9375 14.109375 22.625 23.890625 
Q 32.328125 33.6875 34.8125 36.53125 
Q 39.546875 41.84375 41.421875 45.53125 
Q 43.3125 49.21875 43.3125 52.78125 
Q 43.3125 58.59375 39.234375 62.25 
Q 35.15625 65.921875 28.609375 65.921875 
Q 23.96875 65.921875 18.8125 64.3125 
Q 13.671875 62.703125 7.8125 59.421875 
L 7.8125 69.390625 
Q 13.765625 71.78125 18.9375 73 
Q 24.125 74.21875 28.421875 74.21875 
Q 39.75 74.21875 46.484375 68.546875 
Q 53.21875 62.890625 53.21875 53.421875 
Q 53.21875 48.921875 51.53125 44.890625 
Q 49.859375 40.875 45.40625 35.40625 
Q 44.1875 33.984375 37.640625 27.21875 
Q 31.109375 20.453125 19.1875 8.296875 
z
" id="DejaVuSans-50"/>
      </defs>
      <g transform="translate(583.938413 518.598438)scale(0.1 -0.1)">
       <use xlink:href="#DejaVuSans-50"/>
       <use x="63.623047" xlink:href="#DejaVuSans-48"/>
       <use x="127.246094" xlink:href="#DejaVuSans-48"/>
      </g>
     </g>
    </g>
    <g id="xtick_6">
     <g id="line2d_6">
      <g>
       <use style="stroke:#000000;stroke-width:0.8;" x="696.220944" xlink:href="#me25149e6b0" y="504"/>
      </g>
     </g>
     <g id="text_6">
      <!-- 250 -->
      <g transform="translate(686.677194 518.598438)scale(0.1 -0.1)">
       <use xlink:href="#DejaVuSans-50"/>
       <use x="63.623047" xlink:href="#DejaVuSans-53"/>
       <use x="127.246094" xlink:href="#DejaVuSans-48"/>
      </g>
     </g>
    </g>
    <g id="xtick_7">
     <g id="line2d_7">
      <g>
       <use style="stroke:#000000;stroke-width:0.8;" x="798.959724" xlink:href="#me25149e6b0" y="504"/>
      </g>
     </g>
     <g id="text_7">
      <!-- 300 -->
      <defs>
       <path d="M 40.578125 39.3125 
Q 47.65625 37.796875 51.625 33 
Q 55.609375 28.21875 55.609375 21.1875 
Q 55.609375 10.40625 48.1875 4.484375 
Q 40.765625 -1.421875 27.09375 -1.421875 
Q 22.515625 -1.421875 17.65625 -0.515625 
Q 12.796875 0.390625 7.625 2.203125 
L 7.625 11.71875 
Q 11.71875 9.328125 16.59375 8.109375 
Q 21.484375 6.890625 26.8125 6.890625 
Q 36.078125 6.890625 40.9375 10.546875 
Q 45.796875 14.203125 45.796875 21.1875 
Q 45.796875 27.640625 41.28125 31.265625 
Q 36.765625 34.90625 28.71875 34.90625 
L 20.21875 34.90625 
L 20.21875 43.015625 
L 29.109375 43.015625 
Q 36.375 43.015625 40.234375 45.921875 
Q 44.09375 48.828125 44.09375 54.296875 
Q 44.09375 59.90625 40.109375 62.90625 
Q 36.140625 65.921875 28.71875 65.921875 
Q 24.65625 65.921875 20.015625 65.03125 
Q 15.375 64.15625 9.8125 62.3125 
L 9.8125 71.09375 
Q 15.4375 72.65625 20.34375 73.4375 
Q 25.25 74.21875 29.59375 74.21875 
Q 40.828125 74.21875 47.359375 69.109375 
Q 53.90625 64.015625 53.90625 55.328125 
Q 53.90625 49.265625 50.4375 45.09375 
Q 46.96875 40.921875 40.578125 39.3125 
z
" id="DejaVuSans-51"/>
      </defs>
      <g transform="translate(789.415974 518.598438)scale(0.1 -0.1)">
       <use xlink:href="#DejaVuSans-51"/>
       <use x="63.623047" xlink:href="#DejaVuSans-48"/>
       <use x="127.246094" xlink:href="#DejaVuSans-48"/>
      </g>
     </g>
    </g>
    <g id="xtick_8">
     <g id="line2d_8">
      <g>
       <use style="stroke:#000000;stroke-width:0.8;" x="901.698504" xlink:href="#me25149e6b0" y="504"/>
      </g>
     </g>
     <g id="text_8">
      <!-- 350 -->
      <g transform="translate(892.154754 518.598438)scale(0.1 -0.1)">
       <use xlink:href="#DejaVuSans-51"/>
       <use x="63.623047" xlink:href="#DejaVuSans-53"/>
       <use x="127.246094" xlink:href="#DejaVuSans-48"/>
      </g>
     </g>
    </g>
    <g id="xtick_9">
     <g id="line2d_9">
      <g>
       <use style="stroke:#000000;stroke-width:0.8;" x="1004.437284" xlink:href="#me25149e6b0" y="504"/>
      </g>
     </g>
     <g id="text_9">
      <!-- 400 -->
      <defs>
       <path d="M 37.796875 64.3125 
L 12.890625 25.390625 
L 37.796875 25.390625 
z
M 35.203125 72.90625 
L 47.609375 72.90625 
L 47.609375 25.390625 
L 58.015625 25.390625 
L 58.015625 17.1875 
L 47.609375 17.1875 
L 47.609375 0 
L 37.796875 0 
L 37.796875 17.1875 
L 4.890625 17.1875 
L 4.890625 26.703125 
z
" id="DejaVuSans-52"/>
      </defs>
      <g transform="translate(994.893534 518.598438)scale(0.1 -0.1)">
       <use xlink:href="#DejaVuSans-52"/>
       <use x="63.623047" xlink:href="#DejaVuSans-48"/>
       <use x="127.246094" xlink:href="#DejaVuSans-48"/>
      </g>
     </g>
    </g>
    <g id="text_10">
     <!-- Number of Neurons pruned -->
     <defs>
      <path d="M 9.8125 72.90625 
L 23.09375 72.90625 
L 55.421875 11.921875 
L 55.421875 72.90625 
L 64.984375 72.90625 
L 64.984375 0 
L 51.703125 0 
L 19.390625 60.984375 
L 19.390625 0 
L 9.8125 0 
z
" id="DejaVuSans-78"/>
      <path d="M 8.5 21.578125 
L 8.5 54.6875 
L 17.484375 54.6875 
L 17.484375 21.921875 
Q 17.484375 14.15625 20.5 10.265625 
Q 23.53125 6.390625 29.59375 6.390625 
Q 36.859375 6.390625 41.078125 11.03125 
Q 45.3125 15.671875 45.3125 23.6875 
L 45.3125 54.6875 
L 54.296875 54.6875 
L 54.296875 0 
L 45.3125 0 
L 45.3125 8.40625 
Q 42.046875 3.421875 37.71875 1 
Q 33.40625 -1.421875 27.6875 -1.421875 
Q 18.265625 -1.421875 13.375 4.4375 
Q 8.5 10.296875 8.5 21.578125 
z
M 31.109375 56 
z
" id="DejaVuSans-117"/>
      <path d="M 52 44.1875 
Q 55.375 50.25 60.0625 53.125 
Q 64.75 56 71.09375 56 
Q 79.640625 56 84.28125 50.015625 
Q 88.921875 44.046875 88.921875 33.015625 
L 88.921875 0 
L 79.890625 0 
L 79.890625 32.71875 
Q 79.890625 40.578125 77.09375 44.375 
Q 74.3125 48.1875 68.609375 48.1875 
Q 61.625 48.1875 57.5625 43.546875 
Q 53.515625 38.921875 53.515625 30.90625 
L 53.515625 0 
L 44.484375 0 
L 44.484375 32.71875 
Q 44.484375 40.625 41.703125 44.40625 
Q 38.921875 48.1875 33.109375 48.1875 
Q 26.21875 48.1875 22.15625 43.53125 
Q 18.109375 38.875 18.109375 30.90625 
L 18.109375 0 
L 9.078125 0 
L 9.078125 54.6875 
L 18.109375 54.6875 
L 18.109375 46.1875 
Q 21.1875 51.21875 25.484375 53.609375 
Q 29.78125 56 35.6875 56 
Q 41.65625 56 45.828125 52.96875 
Q 50 49.953125 52 44.1875 
z
" id="DejaVuSans-109"/>
      <path d="M 48.6875 27.296875 
Q 48.6875 37.203125 44.609375 42.84375 
Q 40.53125 48.484375 33.40625 48.484375 
Q 26.265625 48.484375 22.1875 42.84375 
Q 18.109375 37.203125 18.109375 27.296875 
Q 18.109375 17.390625 22.1875 11.75 
Q 26.265625 6.109375 33.40625 6.109375 
Q 40.53125 6.109375 44.609375 11.75 
Q 48.6875 17.390625 48.6875 27.296875 
z
M 18.109375 46.390625 
Q 20.953125 51.265625 25.265625 53.625 
Q 29.59375 56 35.59375 56 
Q 45.5625 56 51.78125 48.09375 
Q 58.015625 40.1875 58.015625 27.296875 
Q 58.015625 14.40625 51.78125 6.484375 
Q 45.5625 -1.421875 35.59375 -1.421875 
Q 29.59375 -1.421875 25.265625 0.953125 
Q 20.953125 3.328125 18.109375 8.203125 
L 18.109375 0 
L 9.078125 0 
L 9.078125 75.984375 
L 18.109375 75.984375 
z
" id="DejaVuSans-98"/>
      <path d="M 56.203125 29.59375 
L 56.203125 25.203125 
L 14.890625 25.203125 
Q 15.484375 15.921875 20.484375 11.0625 
Q 25.484375 6.203125 34.421875 6.203125 
Q 39.59375 6.203125 44.453125 7.46875 
Q 49.3125 8.734375 54.109375 11.28125 
L 54.109375 2.78125 
Q 49.265625 0.734375 44.1875 -0.34375 
Q 39.109375 -1.421875 33.890625 -1.421875 
Q 20.796875 -1.421875 13.15625 6.1875 
Q 5.515625 13.8125 5.515625 26.8125 
Q 5.515625 40.234375 12.765625 48.109375 
Q 20.015625 56 32.328125 56 
Q 43.359375 56 49.78125 48.890625 
Q 56.203125 41.796875 56.203125 29.59375 
z
M 47.21875 32.234375 
Q 47.125 39.59375 43.09375 43.984375 
Q 39.0625 48.390625 32.421875 48.390625 
Q 24.90625 48.390625 20.390625 44.140625 
Q 15.875 39.890625 15.1875 32.171875 
z
" id="DejaVuSans-101"/>
      <path d="M 41.109375 46.296875 
Q 39.59375 47.171875 37.8125 47.578125 
Q 36.03125 48 33.890625 48 
Q 26.265625 48 22.1875 43.046875 
Q 18.109375 38.09375 18.109375 28.8125 
L 18.109375 0 
L 9.078125 0 
L 9.078125 54.6875 
L 18.109375 54.6875 
L 18.109375 46.1875 
Q 20.953125 51.171875 25.484375 53.578125 
Q 30.03125 56 36.53125 56 
Q 37.453125 56 38.578125 55.875 
Q 39.703125 55.765625 41.0625 55.515625 
z
" id="DejaVuSans-114"/>
      <path id="DejaVuSans-32"/>
      <path d="M 30.609375 48.390625 
Q 23.390625 48.390625 19.1875 42.75 
Q 14.984375 37.109375 14.984375 27.296875 
Q 14.984375 17.484375 19.15625 11.84375 
Q 23.34375 6.203125 30.609375 6.203125 
Q 37.796875 6.203125 41.984375 11.859375 
Q 46.1875 17.53125 46.1875 27.296875 
Q 46.1875 37.015625 41.984375 42.703125 
Q 37.796875 48.390625 30.609375 48.390625 
z
M 30.609375 56 
Q 42.328125 56 49.015625 48.375 
Q 55.71875 40.765625 55.71875 27.296875 
Q 55.71875 13.875 49.015625 6.21875 
Q 42.328125 -1.421875 30.609375 -1.421875 
Q 18.84375 -1.421875 12.171875 6.21875 
Q 5.515625 13.875 5.515625 27.296875 
Q 5.515625 40.765625 12.171875 48.375 
Q 18.84375 56 30.609375 56 
z
" id="DejaVuSans-111"/>
      <path d="M 37.109375 75.984375 
L 37.109375 68.5 
L 28.515625 68.5 
Q 23.6875 68.5 21.796875 66.546875 
Q 19.921875 64.59375 19.921875 59.515625 
L 19.921875 54.6875 
L 34.71875 54.6875 
L 34.71875 47.703125 
L 19.921875 47.703125 
L 19.921875 0 
L 10.890625 0 
L 10.890625 47.703125 
L 2.296875 47.703125 
L 2.296875 54.6875 
L 10.890625 54.6875 
L 10.890625 58.5 
Q 10.890625 67.625 15.140625 71.796875 
Q 19.390625 75.984375 28.609375 75.984375 
z
" id="DejaVuSans-102"/>
      <path d="M 54.890625 33.015625 
L 54.890625 0 
L 45.90625 0 
L 45.90625 32.71875 
Q 45.90625 40.484375 42.875 44.328125 
Q 39.84375 48.1875 33.796875 48.1875 
Q 26.515625 48.1875 22.3125 43.546875 
Q 18.109375 38.921875 18.109375 30.90625 
L 18.109375 0 
L 9.078125 0 
L 9.078125 54.6875 
L 18.109375 54.6875 
L 18.109375 46.1875 
Q 21.34375 51.125 25.703125 53.5625 
Q 30.078125 56 35.796875 56 
Q 45.21875 56 50.046875 50.171875 
Q 54.890625 44.34375 54.890625 33.015625 
z
" id="DejaVuSans-110"/>
      <path d="M 44.28125 53.078125 
L 44.28125 44.578125 
Q 40.484375 46.53125 36.375 47.5 
Q 32.28125 48.484375 27.875 48.484375 
Q 21.1875 48.484375 17.84375 46.4375 
Q 14.5 44.390625 14.5 40.28125 
Q 14.5 37.15625 16.890625 35.375 
Q 19.28125 33.59375 26.515625 31.984375 
L 29.59375 31.296875 
Q 39.15625 29.25 43.1875 25.515625 
Q 47.21875 21.78125 47.21875 15.09375 
Q 47.21875 7.46875 41.1875 3.015625 
Q 35.15625 -1.421875 24.609375 -1.421875 
Q 20.21875 -1.421875 15.453125 -0.5625 
Q 10.6875 0.296875 5.421875 2 
L 5.421875 11.28125 
Q 10.40625 8.6875 15.234375 7.390625 
Q 20.0625 6.109375 24.8125 6.109375 
Q 31.15625 6.109375 34.5625 8.28125 
Q 37.984375 10.453125 37.984375 14.40625 
Q 37.984375 18.0625 35.515625 20.015625 
Q 33.0625 21.96875 24.703125 23.78125 
L 21.578125 24.515625 
Q 13.234375 26.265625 9.515625 29.90625 
Q 5.8125 33.546875 5.8125 39.890625 
Q 5.8125 47.609375 11.28125 51.796875 
Q 16.75 56 26.8125 56 
Q 31.78125 56 36.171875 55.265625 
Q 40.578125 54.546875 44.28125 53.078125 
z
" id="DejaVuSans-115"/>
      <path d="M 18.109375 8.203125 
L 18.109375 -20.796875 
L 9.078125 -20.796875 
L 9.078125 54.6875 
L 18.109375 54.6875 
L 18.109375 46.390625 
Q 20.953125 51.265625 25.265625 53.625 
Q 29.59375 56 35.59375 56 
Q 45.5625 56 51.78125 48.09375 
Q 58.015625 40.1875 58.015625 27.296875 
Q 58.015625 14.40625 51.78125 6.484375 
Q 45.5625 -1.421875 35.59375 -1.421875 
Q 29.59375 -1.421875 25.265625 0.953125 
Q 20.953125 3.328125 18.109375 8.203125 
z
M 48.6875 27.296875 
Q 48.6875 37.203125 44.609375 42.84375 
Q 40.53125 48.484375 33.40625 48.484375 
Q 26.265625 48.484375 22.1875 42.84375 
Q 18.109375 37.203125 18.109375 27.296875 
Q 18.109375 17.390625 22.1875 11.75 
Q 26.265625 6.109375 33.40625 6.109375 
Q 40.53125 6.109375 44.609375 11.75 
Q 48.6875 17.390625 48.6875 27.296875 
z
" id="DejaVuSans-112"/>
      <path d="M 45.40625 46.390625 
L 45.40625 75.984375 
L 54.390625 75.984375 
L 54.390625 0 
L 45.40625 0 
L 45.40625 8.203125 
Q 42.578125 3.328125 38.25 0.953125 
Q 33.9375 -1.421875 27.875 -1.421875 
Q 17.96875 -1.421875 11.734375 6.484375 
Q 5.515625 14.40625 5.515625 27.296875 
Q 5.515625 40.1875 11.734375 48.09375 
Q 17.96875 56 27.875 56 
Q 33.9375 56 38.25 53.625 
Q 42.578125 51.265625 45.40625 46.390625 
z
M 14.796875 27.296875 
Q 14.796875 17.390625 18.875 11.75 
Q 22.953125 6.109375 30.078125 6.109375 
Q 37.203125 6.109375 41.296875 11.75 
Q 45.40625 17.390625 45.40625 27.296875 
Q 45.40625 37.203125 41.296875 42.84375 
Q 37.203125 48.484375 30.078125 48.484375 
Q 22.953125 48.484375 18.875 42.84375 
Q 14.796875 37.203125 14.796875 27.296875 
z
" id="DejaVuSans-100"/>
     </defs>
     <g transform="translate(522.147656 532.276562)scale(0.1 -0.1)">
      <use xlink:href="#DejaVuSans-78"/>
      <use x="74.804688" xlink:href="#DejaVuSans-117"/>
      <use x="138.183594" xlink:href="#DejaVuSans-109"/>
      <use x="235.595703" xlink:href="#DejaVuSans-98"/>
      <use x="299.072266" xlink:href="#DejaVuSans-101"/>
      <use x="360.595703" xlink:href="#DejaVuSans-114"/>
      <use x="401.708984" xlink:href="#DejaVuSans-32"/>
      <use x="433.496094" xlink:href="#DejaVuSans-111"/>
      <use x="494.677734" xlink:href="#DejaVuSans-102"/>
      <use x="529.882812" xlink:href="#DejaVuSans-32"/>
      <use x="561.669922" xlink:href="#DejaVuSans-78"/>
      <use x="636.474609" xlink:href="#DejaVuSans-101"/>
      <use x="697.998047" xlink:href="#DejaVuSans-117"/>
      <use x="761.376953" xlink:href="#DejaVuSans-114"/>
      <use x="800.240234" xlink:href="#DejaVuSans-111"/>
      <use x="861.421875" xlink:href="#DejaVuSans-110"/>
      <use x="924.800781" xlink:href="#DejaVuSans-115"/>
      <use x="976.900391" xlink:href="#DejaVuSans-32"/>
      <use x="1008.6875" xlink:href="#DejaVuSans-112"/>
      <use x="1072.164062" xlink:href="#DejaVuSans-114"/>
      <use x="1113.277344" xlink:href="#DejaVuSans-117"/>
      <use x="1176.65625" xlink:href="#DejaVuSans-110"/>
      <use x="1240.035156" xlink:href="#DejaVuSans-101"/>
      <use x="1301.558594" xlink:href="#DejaVuSans-100"/>
     </g>
    </g>
   </g>
   <g id="matplotlib.axis_2">
    <g id="ytick_1">
     <g id="line2d_10">
      <defs>
       <path d="M 0 0 
L -3.5 0 
" id="m1c972a82ec" style="stroke:#000000;stroke-width:0.8;"/>
      </defs>
      <g>
       <use style="stroke:#000000;stroke-width:0.8;" x="144" xlink:href="#m1c972a82ec" y="485.941227"/>
      </g>
     </g>
     <g id="text_11">
      <!-- 0 -->
      <g transform="translate(130.6375 489.740445)scale(0.1 -0.1)">
       <use xlink:href="#DejaVuSans-48"/>
      </g>
     </g>
    </g>
    <g id="ytick_2">
     <g id="line2d_11">
      <g>
       <use style="stroke:#000000;stroke-width:0.8;" x="144" xlink:href="#m1c972a82ec" y="416.042506"/>
      </g>
     </g>
     <g id="text_12">
      <!-- 1 -->
      <g transform="translate(130.6375 419.841724)scale(0.1 -0.1)">
       <use xlink:href="#DejaVuSans-49"/>
      </g>
     </g>
    </g>
    <g id="ytick_3">
     <g id="line2d_12">
      <g>
       <use style="stroke:#000000;stroke-width:0.8;" x="144" xlink:href="#m1c972a82ec" y="346.143785"/>
      </g>
     </g>
     <g id="text_13">
      <!-- 2 -->
      <g transform="translate(130.6375 349.943003)scale(0.1 -0.1)">
       <use xlink:href="#DejaVuSans-50"/>
      </g>
     </g>
    </g>
    <g id="ytick_4">
     <g id="line2d_13">
      <g>
       <use style="stroke:#000000;stroke-width:0.8;" x="144" xlink:href="#m1c972a82ec" y="276.245064"/>
      </g>
     </g>
     <g id="text_14">
      <!-- 3 -->
      <g transform="translate(130.6375 280.044282)scale(0.1 -0.1)">
       <use xlink:href="#DejaVuSans-51"/>
      </g>
     </g>
    </g>
    <g id="ytick_5">
     <g id="line2d_14">
      <g>
       <use style="stroke:#000000;stroke-width:0.8;" x="144" xlink:href="#m1c972a82ec" y="206.346343"/>
      </g>
     </g>
     <g id="text_15">
      <!-- 4 -->
      <g transform="translate(130.6375 210.145561)scale(0.1 -0.1)">
       <use xlink:href="#DejaVuSans-52"/>
      </g>
     </g>
    </g>
    <g id="ytick_6">
     <g id="line2d_15">
      <g>
       <use style="stroke:#000000;stroke-width:0.8;" x="144" xlink:href="#m1c972a82ec" y="136.447622"/>
      </g>
     </g>
     <g id="text_16">
      <!-- 5 -->
      <g transform="translate(130.6375 140.24684)scale(0.1 -0.1)">
       <use xlink:href="#DejaVuSans-53"/>
      </g>
     </g>
    </g>
    <g id="text_17">
     <!-- Loss -->
     <defs>
      <path d="M 9.8125 72.90625 
L 19.671875 72.90625 
L 19.671875 8.296875 
L 55.171875 8.296875 
L 55.171875 0 
L 9.8125 0 
z
" id="DejaVuSans-76"/>
     </defs>
     <g transform="translate(124.557812 297.527188)rotate(-90)scale(0.1 -0.1)">
      <use xlink:href="#DejaVuSans-76"/>
      <use x="53.962891" xlink:href="#DejaVuSans-111"/>
      <use x="115.144531" xlink:href="#DejaVuSans-115"/>
      <use x="167.244141" xlink:href="#DejaVuSans-115"/>
     </g>
    </g>
   </g>
   <g id="line2d_16">
    <path clip-path="url(#p151b430e93)" d="M 184.581818 483.978386 
L 194.855696 482.695709 
L 205.129574 481.553204 
L 215.403452 480.314968 
L 225.67733 478.646713 
L 235.951208 477.75151 
L 246.225086 471.441412 
L 256.498964 460.393 
L 266.772842 452.920389 
L 277.04672 426.883338 
L 287.320598 403.757421 
L 297.594476 396.348202 
L 307.868354 396.625752 
L 318.142232 374.478896 
L 328.41611 359.843483 
L 338.689988 332.152138 
L 348.963867 316.977749 
L 359.237745 301.468757 
L 369.511623 282.314913 
L 379.785501 262.993183 
L 390.059379 228.195492 
L 400.333257 167.253625 
L 410.607135 123.480466 
L 420.881013 141.510195 
L 431.154891 191.154622 
L 441.428769 180.998277 
L 451.702647 179.175409 
L 461.976525 194.820422 
L 472.250403 142.643793 
L 482.524281 146.272696 
L 492.798159 116.050407 
L 503.072037 88.887273 
L 513.345915 132.592572 
L 523.619793 100.741897 
L 533.893671 141.511162 
L 544.167549 175.209569 
L 554.441427 208.473783 
L 564.715305 192.403375 
L 574.989183 176.063825 
L 585.263061 220.556186 
L 595.536939 259.83817 
L 605.810817 278.601883 
L 616.084695 292.663007 
L 626.358573 302.407739 
L 636.632451 300.371923 
L 646.906329 300.375623 
L 657.180207 297.339265 
L 667.454085 307.850061 
L 677.727963 306.741862 
L 688.001841 305.886556 
L 698.275719 311.536943 
L 708.549597 312.702037 
L 718.823475 315.195878 
L 729.097353 313.145314 
L 739.371231 314.423631 
L 749.645109 317.913281 
L 759.918987 323.372769 
L 770.192865 324.158981 
L 780.466743 324.779608 
L 790.740621 324.682433 
L 801.014499 324.781524 
L 811.288377 324.781524 
L 821.562255 324.781524 
L 831.836133 324.781524 
L 842.110012 324.781524 
L 852.38389 324.781524 
L 862.657768 324.781524 
L 872.931646 324.781524 
L 883.205524 324.781524 
L 893.479402 324.781524 
L 903.75328 324.781524 
L 914.027158 324.781524 
L 924.301036 324.781524 
L 934.574914 324.781524 
L 944.848792 324.781524 
L 955.12267 324.781524 
L 965.396548 324.781524 
L 975.670426 324.781524 
L 985.944304 324.781524 
L 996.218182 324.781524 
" style="fill:none;stroke:#1f77b4;stroke-linecap:square;stroke-width:1.5;"/>
   </g>
   <g id="line2d_17">
    <path clip-path="url(#p151b430e93)" d="M 184.581818 484.151175 
L 194.855696 483.949477 
L 205.129574 483.707047 
L 215.403452 483.424096 
L 225.67733 483.017284 
L 235.951208 482.506856 
L 246.225086 481.484985 
L 256.498964 479.513403 
L 266.772842 478.470583 
L 277.04672 476.883002 
L 287.320598 472.349856 
L 297.594476 468.063291 
L 307.868354 461.601051 
L 318.142232 455.510762 
L 328.41611 447.963487 
L 338.689988 437.143011 
L 348.963867 426.556005 
L 359.237745 418.036821 
L 369.511623 404.099573 
L 379.785501 392.319309 
L 390.059379 386.67423 
L 400.333257 370.406315 
L 410.607135 358.847648 
L 420.881013 348.187291 
L 431.154891 343.313325 
L 441.428769 334.395968 
L 451.702647 330.276209 
L 461.976525 330.112407 
L 472.250403 324.781524 
L 482.524281 324.781524 
L 492.798159 324.781524 
L 503.072037 324.781524 
L 513.345915 324.781524 
L 523.619793 324.781524 
L 533.893671 324.781524 
L 544.167549 324.781524 
L 554.441427 324.781524 
L 564.715305 324.781524 
L 574.989183 324.781524 
L 585.263061 324.781524 
L 595.536939 324.781524 
L 605.810817 324.781524 
L 616.084695 324.781524 
L 626.358573 324.781524 
L 636.632451 324.781524 
L 646.906329 324.781524 
L 657.180207 324.781524 
L 667.454085 324.781524 
L 677.727963 324.781524 
L 688.001841 324.781524 
L 698.275719 324.781524 
L 708.549597 324.781524 
L 718.823475 324.781524 
L 729.097353 324.781524 
L 739.371231 324.781524 
L 749.645109 324.781524 
L 759.918987 324.781524 
L 770.192865 324.781524 
L 780.466743 324.781524 
L 790.740621 324.781524 
L 801.014499 324.781524 
L 811.288377 324.781524 
L 821.562255 324.781524 
L 831.836133 324.781524 
L 842.110012 324.781524 
L 852.38389 324.781524 
L 862.657768 324.781524 
L 872.931646 324.781524 
L 883.205524 324.781524 
L 893.479402 324.781524 
L 903.75328 324.781524 
L 914.027158 324.781524 
L 924.301036 324.781524 
L 934.574914 324.781524 
L 944.848792 324.781524 
L 955.12267 324.781524 
L 965.396548 324.781524 
L 975.670426 324.781524 
L 985.944304 324.781524 
L 996.218182 324.781524 
" style="fill:none;stroke:#ff7f0e;stroke-linecap:square;stroke-width:1.5;"/>
   </g>
   <g id="line2d_18">
    <path clip-path="url(#p151b430e93)" d="M 184.581818 484.151175 
L 194.855696 483.94593 
L 205.129574 483.662971 
L 215.403452 483.366314 
L 225.67733 482.80051 
L 235.951208 482.122947 
L 246.225086 481.026934 
L 256.498964 479.823633 
L 266.772842 476.814343 
L 277.04672 474.47709 
L 287.320598 471.068111 
L 297.594476 466.528549 
L 307.868354 461.547702 
L 318.142232 448.943965 
L 328.41611 440.028857 
L 338.689988 432.151527 
L 348.963867 421.181468 
L 359.237745 410.940861 
L 369.511623 391.630572 
L 379.785501 377.312613 
L 390.059379 360.304024 
L 400.333257 344.609524 
L 410.607135 340.893495 
L 420.881013 329.816367 
L 431.154891 324.781524 
L 441.428769 324.781524 
L 451.702647 324.781524 
L 461.976525 324.781524 
L 472.250403 324.781524 
L 482.524281 324.781524 
L 492.798159 324.781524 
L 503.072037 324.781524 
L 513.345915 324.781524 
L 523.619793 324.781524 
L 533.893671 324.781524 
L 544.167549 324.781524 
L 554.441427 324.781524 
L 564.715305 324.781524 
L 574.989183 324.781524 
L 585.263061 324.781524 
L 595.536939 324.781524 
L 605.810817 324.781524 
L 616.084695 324.781524 
L 626.358573 324.781524 
L 636.632451 324.781524 
L 646.906329 324.781524 
L 657.180207 324.781524 
L 667.454085 324.781524 
L 677.727963 324.781524 
L 688.001841 324.781524 
L 698.275719 324.781524 
L 708.549597 324.781524 
L 718.823475 324.781524 
L 729.097353 324.781524 
L 739.371231 324.781524 
L 749.645109 324.781524 
L 759.918987 324.781524 
L 770.192865 324.781524 
L 780.466743 324.781524 
L 790.740621 324.781524 
L 801.014499 324.781524 
L 811.288377 324.781524 
L 821.562255 324.781524 
L 831.836133 324.781524 
L 842.110012 324.781524 
L 852.38389 324.781524 
L 862.657768 324.781524 
L 872.931646 324.781524 
L 883.205524 324.781524 
L 893.479402 324.781524 
L 903.75328 324.781524 
L 914.027158 324.781524 
L 924.301036 324.781524 
L 934.574914 324.781524 
L 944.848792 324.781524 
L 955.12267 324.781524 
L 965.396548 324.781524 
L 975.670426 324.781524 
L 985.944304 324.781524 
L 996.218182 324.781524 
" style="fill:none;stroke:#2ca02c;stroke-linecap:square;stroke-width:1.5;"/>
   </g>
   <g id="line2d_19">
    <path clip-path="url(#p151b430e93)" d="M 184.581818 484.151175 
L 194.855696 483.745637 
L 205.129574 483.389433 
L 215.403452 482.308334 
L 225.67733 481.131999 
L 235.951208 479.986064 
L 246.225086 478.858171 
L 256.498964 477.140325 
L 266.772842 474.164968 
L 277.04672 468.239865 
L 287.320598 465.345446 
L 297.594476 460.676849 
L 307.868354 453.487246 
L 318.142232 439.490056 
L 328.41611 426.019117 
L 338.689988 416.498556 
L 348.963867 407.520871 
L 359.237745 400.425815 
L 369.511623 395.333744 
L 379.785501 386.051695 
L 390.059379 373.670177 
L 400.333257 362.487251 
L 410.607135 360.171145 
L 420.881013 359.34007 
L 431.154891 357.400629 
L 441.428769 356.711125 
L 451.702647 354.356422 
L 461.976525 352.306525 
L 472.250403 348.82275 
L 482.524281 343.763134 
L 492.798159 342.371177 
L 503.072037 340.349744 
L 513.345915 335.442323 
L 523.619793 332.891105 
L 533.893671 332.039348 
L 544.167549 330.249094 
L 554.441427 329.006057 
L 564.715305 328.550449 
L 574.989183 329.296931 
L 585.263061 328.620975 
L 595.536939 327.903657 
L 605.810817 326.627473 
L 616.084695 326.796608 
L 626.358573 326.250807 
L 636.632451 326.032377 
L 646.906329 325.693175 
L 657.180207 325.880624 
L 667.454085 325.52264 
L 677.727963 324.781524 
L 688.001841 324.781524 
L 698.275719 324.781524 
L 708.549597 324.781524 
L 718.823475 324.781524 
L 729.097353 324.781524 
L 739.371231 324.781524 
L 749.645109 324.781524 
L 759.918987 324.781524 
L 770.192865 324.781524 
L 780.466743 324.781524 
L 790.740621 324.781524 
L 801.014499 324.781524 
L 811.288377 324.781524 
L 821.562255 324.781524 
L 831.836133 324.781524 
L 842.110012 324.781524 
L 852.38389 324.781524 
L 862.657768 324.781524 
L 872.931646 324.781524 
L 883.205524 324.781524 
L 893.479402 324.781524 
L 903.75328 324.781524 
L 914.027158 324.781524 
L 924.301036 324.781524 
L 934.574914 324.781524 
L 944.848792 324.781524 
L 955.12267 324.781524 
L 965.396548 324.781524 
L 975.670426 324.781524 
L 985.944304 324.781524 
L 996.218182 324.781524 
" style="fill:none;stroke:#d62728;stroke-dasharray:5.55,2.4;stroke-dashoffset:0;stroke-width:1.5;"/>
   </g>
   <g id="line2d_20">
    <path clip-path="url(#p151b430e93)" d="M 184.581818 484.202917 
L 194.855696 483.770543 
L 205.129574 483.539047 
L 215.403452 482.906675 
L 225.67733 481.416569 
L 235.951208 479.040604 
L 246.225086 478.958341 
L 256.498964 476.275702 
L 266.772842 474.624406 
L 277.04672 472.936818 
L 287.320598 475.304865 
L 297.594476 472.946472 
L 307.868354 470.56336 
L 318.142232 467.630987 
L 328.41611 465.052392 
L 338.689988 462.691227 
L 348.963867 455.229767 
L 359.237745 447.589438 
L 369.511623 445.068375 
L 379.785501 446.31017 
L 390.059379 434.648296 
L 400.333257 428.917145 
L 410.607135 416.09568 
L 420.881013 408.207017 
L 431.154891 386.751498 
L 441.428769 370.947725 
L 451.702647 367.62071 
L 461.976525 361.775766 
L 472.250403 344.751694 
L 482.524281 338.37374 
L 492.798159 349.053346 
L 503.072037 354.321267 
L 513.345915 344.734413 
L 523.619793 329.352809 
L 533.893671 321.176885 
L 544.167549 316.102079 
L 554.441427 303.851108 
L 564.715305 223.948995 
L 574.989183 259.839853 
L 585.263061 308.561113 
L 595.536939 324.966191 
L 605.810817 324.966191 
L 616.084695 324.966191 
L 626.358573 324.966191 
L 636.632451 324.966191 
L 646.906329 324.966191 
L 657.180207 324.966191 
L 667.454085 324.966191 
L 677.727963 324.966191 
L 688.001841 324.966191 
L 698.275719 324.966191 
L 708.549597 324.966191 
L 718.823475 324.966191 
L 729.097353 324.966191 
L 739.371231 324.966191 
L 749.645109 324.966191 
L 759.918987 324.966191 
L 770.192865 324.966191 
L 780.466743 324.966191 
L 790.740621 324.966191 
L 801.014499 324.966191 
L 811.288377 324.966191 
L 821.562255 324.966191 
L 831.836133 324.966191 
L 842.110012 324.966191 
L 852.38389 324.966191 
L 862.657768 324.966191 
L 872.931646 324.966191 
L 883.205524 324.966191 
L 893.479402 324.966191 
L 903.75328 324.966191 
L 914.027158 324.966191 
L 924.301036 324.966191 
L 934.574914 324.966191 
L 944.848792 324.966191 
L 955.12267 324.966191 
L 965.396548 324.966191 
L 975.670426 324.966191 
L 985.944304 324.966191 
L 996.218182 324.966191 
" style="fill:none;stroke:#9467bd;stroke-linecap:square;stroke-width:1.5;"/>
   </g>
   <g id="line2d_21">
    <path clip-path="url(#p151b430e93)" d="M 184.581818 484.232727 
L 194.855696 484.057465 
L 205.129574 483.817145 
L 215.403452 483.524201 
L 225.67733 483.133867 
L 235.951208 482.650443 
L 246.225086 481.70935 
L 256.498964 480.139408 
L 266.772842 478.734555 
L 277.04672 476.789714 
L 287.320598 472.845535 
L 297.594476 468.627064 
L 307.868354 462.425499 
L 318.142232 454.722428 
L 328.41611 447.105348 
L 338.689988 433.933436 
L 348.963867 427.394296 
L 359.237745 415.578015 
L 369.511623 400.442005 
L 379.785501 387.617561 
L 390.059379 369.372076 
L 400.333257 359.757274 
L 410.607135 344.632672 
L 420.881013 339.928416 
L 431.154891 330.48169 
L 441.428769 330.509537 
L 451.702647 324.966191 
L 461.976525 324.966191 
L 472.250403 324.966191 
L 482.524281 324.966191 
L 492.798159 324.966191 
L 503.072037 324.966191 
L 513.345915 324.966191 
L 523.619793 324.966191 
L 533.893671 324.966191 
L 544.167549 324.966191 
L 554.441427 324.966191 
L 564.715305 324.966191 
L 574.989183 324.966191 
L 585.263061 324.966191 
L 595.536939 324.966191 
L 605.810817 324.966191 
L 616.084695 324.966191 
L 626.358573 324.966191 
L 636.632451 324.966191 
L 646.906329 324.966191 
L 657.180207 324.966191 
L 667.454085 324.966191 
L 677.727963 324.966191 
L 688.001841 324.966191 
L 698.275719 324.966191 
L 708.549597 324.966191 
L 718.823475 324.966191 
L 729.097353 324.966191 
L 739.371231 324.966191 
L 749.645109 324.966191 
L 759.918987 324.966191 
L 770.192865 324.966191 
L 780.466743 324.966191 
L 790.740621 324.966191 
L 801.014499 324.966191 
L 811.288377 324.966191 
L 821.562255 324.966191 
L 831.836133 324.966191 
L 842.110012 324.966191 
L 852.38389 324.966191 
L 862.657768 324.966191 
L 872.931646 324.966191 
L 883.205524 324.966191 
L 893.479402 324.966191 
L 903.75328 324.966191 
L 914.027158 324.966191 
L 924.301036 324.966191 
L 934.574914 324.966191 
L 944.848792 324.966191 
L 955.12267 324.966191 
L 965.396548 324.966191 
L 975.670426 324.966191 
L 985.944304 324.966191 
L 996.218182 324.966191 
" style="fill:none;stroke:#8c564b;stroke-linecap:square;stroke-width:1.5;"/>
   </g>
   <g id="line2d_22">
    <path clip-path="url(#p151b430e93)" d="M 184.581818 484.232727 
L 194.855696 484.048268 
L 205.129574 483.805126 
L 215.403452 483.52344 
L 225.67733 483.024339 
L 235.951208 482.401873 
L 246.225086 481.603832 
L 256.498964 480.417279 
L 266.772842 477.606477 
L 277.04672 475.41059 
L 287.320598 473.052354 
L 297.594476 467.84599 
L 307.868354 462.223442 
L 318.142232 452.736558 
L 328.41611 442.848206 
L 338.689988 436.026862 
L 348.963867 423.182033 
L 359.237745 412.169457 
L 369.511623 392.456772 
L 379.785501 379.771699 
L 390.059379 361.499099 
L 400.333257 350.676798 
L 410.607135 340.590456 
L 420.881013 330.119973 
L 431.154891 324.966191 
L 441.428769 324.966191 
L 451.702647 324.966191 
L 461.976525 324.966191 
L 472.250403 324.966191 
L 482.524281 324.966191 
L 492.798159 324.966191 
L 503.072037 324.966191 
L 513.345915 324.966191 
L 523.619793 324.966191 
L 533.893671 324.966191 
L 544.167549 324.966191 
L 554.441427 324.966191 
L 564.715305 324.966191 
L 574.989183 324.966191 
L 585.263061 324.966191 
L 595.536939 324.966191 
L 605.810817 324.966191 
L 616.084695 324.966191 
L 626.358573 324.966191 
L 636.632451 324.966191 
L 646.906329 324.966191 
L 657.180207 324.966191 
L 667.454085 324.966191 
L 677.727963 324.966191 
L 688.001841 324.966191 
L 698.275719 324.966191 
L 708.549597 324.966191 
L 718.823475 324.966191 
L 729.097353 324.966191 
L 739.371231 324.966191 
L 749.645109 324.966191 
L 759.918987 324.966191 
L 770.192865 324.966191 
L 780.466743 324.966191 
L 790.740621 324.966191 
L 801.014499 324.966191 
L 811.288377 324.966191 
L 821.562255 324.966191 
L 831.836133 324.966191 
L 842.110012 324.966191 
L 852.38389 324.966191 
L 862.657768 324.966191 
L 872.931646 324.966191 
L 883.205524 324.966191 
L 893.479402 324.966191 
L 903.75328 324.966191 
L 914.027158 324.966191 
L 924.301036 324.966191 
L 934.574914 324.966191 
L 944.848792 324.966191 
L 955.12267 324.966191 
L 965.396548 324.966191 
L 975.670426 324.966191 
L 985.944304 324.966191 
L 996.218182 324.966191 
" style="fill:none;stroke:#e377c2;stroke-linecap:square;stroke-width:1.5;"/>
   </g>
   <g id="line2d_23">
    <path clip-path="url(#p151b430e93)" d="M 184.581818 484.220588 
L 194.855696 484.03375 
L 205.129574 483.646709 
L 215.403452 483.210657 
L 225.67733 482.28665 
L 235.951208 480.951454 
L 246.225086 479.509739 
L 256.498964 477.447825 
L 266.772842 475.109033 
L 277.04672 470.370198 
L 287.320598 468.774412 
L 297.594476 465.951777 
L 307.868354 460.619232 
L 318.142232 448.71971 
L 328.41611 443.525848 
L 338.689988 440.568937 
L 348.963867 431.208454 
L 359.237745 421.135023 
L 369.511623 408.37271 
L 379.785501 397.411639 
L 390.059379 379.089469 
L 400.333257 365.54804 
L 410.607135 351.619829 
L 420.881013 334.932319 
L 431.154891 330.534218 
L 441.428769 330.318255 
L 451.702647 324.966191 
L 461.976525 324.966191 
L 472.250403 324.966191 
L 482.524281 324.966191 
L 492.798159 324.966191 
L 503.072037 324.966191 
L 513.345915 324.966191 
L 523.619793 324.966191 
L 533.893671 324.966191 
L 544.167549 324.966191 
L 554.441427 324.966191 
L 564.715305 324.966191 
L 574.989183 324.966191 
L 585.263061 324.966191 
L 595.536939 324.966191 
L 605.810817 324.966191 
L 616.084695 324.966191 
L 626.358573 324.966191 
L 636.632451 324.966191 
L 646.906329 324.966191 
L 657.180207 324.966191 
L 667.454085 324.966191 
L 677.727963 324.966191 
L 688.001841 324.966191 
L 698.275719 324.966191 
L 708.549597 324.966191 
L 718.823475 324.966191 
L 729.097353 324.966191 
L 739.371231 324.966191 
L 749.645109 324.966191 
L 759.918987 324.966191 
L 770.192865 324.966191 
L 780.466743 324.966191 
L 790.740621 324.966191 
L 801.014499 324.966191 
L 811.288377 324.966191 
L 821.562255 324.966191 
L 831.836133 324.966191 
L 842.110012 324.966191 
L 852.38389 324.966191 
L 862.657768 324.966191 
L 872.931646 324.966191 
L 883.205524 324.966191 
L 893.479402 324.966191 
L 903.75328 324.966191 
L 914.027158 324.966191 
L 924.301036 324.966191 
L 934.574914 324.966191 
L 944.848792 324.966191 
L 955.12267 324.966191 
L 965.396548 324.966191 
L 975.670426 324.966191 
L 985.944304 324.966191 
L 996.218182 324.966191 
" style="fill:none;stroke:#7f7f7f;stroke-dasharray:5.55,2.4;stroke-dashoffset:0;stroke-width:1.5;"/>
   </g>
   <g id="line2d_24">
    <path clip-path="url(#p151b430e93)" d="M 184.581818 484.232727 
L 194.855696 484.065028 
L 205.129574 483.847635 
L 215.403452 483.605035 
L 225.67733 483.309964 
L 235.951208 482.942895 
L 246.225086 482.36584 
L 256.498964 481.790642 
L 266.772842 481.050859 
L 277.04672 480.113325 
L 287.320598 478.352102 
L 297.594476 474.59652 
L 307.868354 473.149053 
L 318.142232 468.149161 
L 328.41611 465.442586 
L 338.689988 458.857158 
L 348.963867 456.464313 
L 359.237745 449.86314 
L 369.511623 438.168222 
L 379.785501 431.7987 
L 390.059379 426.600581 
L 400.333257 416.738647 
L 410.607135 405.182958 
L 420.881013 388.068762 
L 431.154891 380.463994 
L 441.428769 371.107568 
L 451.702647 364.867885 
L 461.976525 355.644414 
L 472.250403 346.471605 
L 482.524281 338.325894 
L 492.798159 329.807518 
L 503.072037 329.816784 
L 513.345915 330.171285 
L 523.619793 330.00235 
L 533.893671 330.209815 
L 544.167549 324.966191 
L 554.441427 324.966191 
L 564.715305 324.966191 
L 574.989183 324.966191 
L 585.263061 324.966191 
L 595.536939 324.966191 
L 605.810817 324.966191 
L 616.084695 324.966191 
L 626.358573 324.966191 
L 636.632451 324.966191 
L 646.906329 324.966191 
L 657.180207 324.966191 
L 667.454085 324.966191 
L 677.727963 324.966191 
L 688.001841 324.966191 
L 698.275719 324.966191 
L 708.549597 324.966191 
L 718.823475 324.966191 
L 729.097353 324.966191 
L 739.371231 324.966191 
L 749.645109 324.966191 
L 759.918987 324.966191 
L 770.192865 324.966191 
L 780.466743 324.966191 
L 790.740621 324.966191 
L 801.014499 324.966191 
L 811.288377 324.966191 
L 821.562255 324.966191 
L 831.836133 324.966191 
L 842.110012 324.966191 
L 852.38389 324.966191 
L 862.657768 324.966191 
L 872.931646 324.966191 
L 883.205524 324.966191 
L 893.479402 324.966191 
L 903.75328 324.966191 
L 914.027158 324.966191 
L 924.301036 324.966191 
L 934.574914 324.966191 
L 944.848792 324.966191 
L 955.12267 324.966191 
L 965.396548 324.966191 
L 975.670426 324.966191 
L 985.944304 324.966191 
L 996.218182 324.966191 
" style="fill:none;stroke:#bcbd22;stroke-dasharray:5.55,2.4;stroke-dashoffset:0;stroke-width:1.5;"/>
   </g>
   <g id="patch_3">
    <path d="M 144 504 
L 144 69.12 
" style="fill:none;stroke:#000000;stroke-linecap:square;stroke-linejoin:miter;stroke-width:0.8;"/>
   </g>
   <g id="patch_4">
    <path d="M 1036.8 504 
L 1036.8 69.12 
" style="fill:none;stroke:#000000;stroke-linecap:square;stroke-linejoin:miter;stroke-width:0.8;"/>
   </g>
   <g id="patch_5">
    <path d="M 144 504 
L 1036.8 504 
" style="fill:none;stroke:#000000;stroke-linecap:square;stroke-linejoin:miter;stroke-width:0.8;"/>
   </g>
   <g id="patch_6">
    <path d="M 144 69.12 
L 1036.8 69.12 
" style="fill:none;stroke:#000000;stroke-linecap:square;stroke-linejoin:miter;stroke-width:0.8;"/>
   </g>
   <g id="legend_1">
    <g id="patch_7">
     <path d="M 879.920312 211.17 
L 1029.8 211.17 
Q 1031.8 211.17 1031.8 209.17 
L 1031.8 76.12 
Q 1031.8 74.12 1029.8 74.12 
L 879.920312 74.12 
Q 877.920312 74.12 877.920312 76.12 
L 877.920312 209.17 
Q 877.920312 211.17 879.920312 211.17 
z
" style="fill:#ffffff;opacity:0.8;stroke:#cccccc;stroke-linejoin:miter;"/>
    </g>
    <g id="line2d_25">
     <path d="M 881.920312 82.218437 
L 901.920312 82.218437 
" style="fill:none;stroke:#1f77b4;stroke-linecap:square;stroke-width:1.5;"/>
    </g>
    <g id="line2d_26"/>
    <g id="text_18">
     <!-- taylorfo noBN -->
     <defs>
      <path d="M 18.3125 70.21875 
L 18.3125 54.6875 
L 36.8125 54.6875 
L 36.8125 47.703125 
L 18.3125 47.703125 
L 18.3125 18.015625 
Q 18.3125 11.328125 20.140625 9.421875 
Q 21.96875 7.515625 27.59375 7.515625 
L 36.8125 7.515625 
L 36.8125 0 
L 27.59375 0 
Q 17.1875 0 13.234375 3.875 
Q 9.28125 7.765625 9.28125 18.015625 
L 9.28125 47.703125 
L 2.6875 47.703125 
L 2.6875 54.6875 
L 9.28125 54.6875 
L 9.28125 70.21875 
z
" id="DejaVuSans-116"/>
      <path d="M 34.28125 27.484375 
Q 23.390625 27.484375 19.1875 25 
Q 14.984375 22.515625 14.984375 16.5 
Q 14.984375 11.71875 18.140625 8.90625 
Q 21.296875 6.109375 26.703125 6.109375 
Q 34.1875 6.109375 38.703125 11.40625 
Q 43.21875 16.703125 43.21875 25.484375 
L 43.21875 27.484375 
z
M 52.203125 31.203125 
L 52.203125 0 
L 43.21875 0 
L 43.21875 8.296875 
Q 40.140625 3.328125 35.546875 0.953125 
Q 30.953125 -1.421875 24.3125 -1.421875 
Q 15.921875 -1.421875 10.953125 3.296875 
Q 6 8.015625 6 15.921875 
Q 6 25.140625 12.171875 29.828125 
Q 18.359375 34.515625 30.609375 34.515625 
L 43.21875 34.515625 
L 43.21875 35.40625 
Q 43.21875 41.609375 39.140625 45 
Q 35.0625 48.390625 27.6875 48.390625 
Q 23 48.390625 18.546875 47.265625 
Q 14.109375 46.140625 10.015625 43.890625 
L 10.015625 52.203125 
Q 14.9375 54.109375 19.578125 55.046875 
Q 24.21875 56 28.609375 56 
Q 40.484375 56 46.34375 49.84375 
Q 52.203125 43.703125 52.203125 31.203125 
z
" id="DejaVuSans-97"/>
      <path d="M 32.171875 -5.078125 
Q 28.375 -14.84375 24.75 -17.8125 
Q 21.140625 -20.796875 15.09375 -20.796875 
L 7.90625 -20.796875 
L 7.90625 -13.28125 
L 13.1875 -13.28125 
Q 16.890625 -13.28125 18.9375 -11.515625 
Q 21 -9.765625 23.484375 -3.21875 
L 25.09375 0.875 
L 2.984375 54.6875 
L 12.5 54.6875 
L 29.59375 11.921875 
L 46.6875 54.6875 
L 56.203125 54.6875 
z
" id="DejaVuSans-121"/>
      <path d="M 9.421875 75.984375 
L 18.40625 75.984375 
L 18.40625 0 
L 9.421875 0 
z
" id="DejaVuSans-108"/>
      <path d="M 19.671875 34.8125 
L 19.671875 8.109375 
L 35.5 8.109375 
Q 43.453125 8.109375 47.28125 11.40625 
Q 51.125 14.703125 51.125 21.484375 
Q 51.125 28.328125 47.28125 31.5625 
Q 43.453125 34.8125 35.5 34.8125 
z
M 19.671875 64.796875 
L 19.671875 42.828125 
L 34.28125 42.828125 
Q 41.5 42.828125 45.03125 45.53125 
Q 48.578125 48.25 48.578125 53.8125 
Q 48.578125 59.328125 45.03125 62.0625 
Q 41.5 64.796875 34.28125 64.796875 
z
M 9.8125 72.90625 
L 35.015625 72.90625 
Q 46.296875 72.90625 52.390625 68.21875 
Q 58.5 63.53125 58.5 54.890625 
Q 58.5 48.1875 55.375 44.234375 
Q 52.25 40.28125 46.1875 39.3125 
Q 53.46875 37.75 57.5 32.78125 
Q 61.53125 27.828125 61.53125 20.40625 
Q 61.53125 10.640625 54.890625 5.3125 
Q 48.25 0 35.984375 0 
L 9.8125 0 
z
" id="DejaVuSans-66"/>
     </defs>
     <g transform="translate(909.920312 85.718437)scale(0.1 -0.1)">
      <use xlink:href="#DejaVuSans-116"/>
      <use x="39.208984" xlink:href="#DejaVuSans-97"/>
      <use x="100.488281" xlink:href="#DejaVuSans-121"/>
      <use x="159.667969" xlink:href="#DejaVuSans-108"/>
      <use x="187.451172" xlink:href="#DejaVuSans-111"/>
      <use x="248.632812" xlink:href="#DejaVuSans-114"/>
      <use x="289.746094" xlink:href="#DejaVuSans-102"/>
      <use x="324.951172" xlink:href="#DejaVuSans-111"/>
      <use x="386.132812" xlink:href="#DejaVuSans-32"/>
      <use x="417.919922" xlink:href="#DejaVuSans-110"/>
      <use x="481.298828" xlink:href="#DejaVuSans-111"/>
      <use x="542.480469" xlink:href="#DejaVuSans-66"/>
      <use x="611.083984" xlink:href="#DejaVuSans-78"/>
     </g>
    </g>
    <g id="line2d_27">
     <path d="M 881.920312 96.896563 
L 901.920312 96.896563 
" style="fill:none;stroke:#ff7f0e;stroke-linecap:square;stroke-width:1.5;"/>
    </g>
    <g id="line2d_28"/>
    <g id="text_19">
     <!-- taylorfo_abs noBN -->
     <defs>
      <path d="M 50.984375 -16.609375 
L 50.984375 -23.578125 
L -0.984375 -23.578125 
L -0.984375 -16.609375 
z
" id="DejaVuSans-95"/>
     </defs>
     <g transform="translate(909.920312 100.396563)scale(0.1 -0.1)">
      <use xlink:href="#DejaVuSans-116"/>
      <use x="39.208984" xlink:href="#DejaVuSans-97"/>
      <use x="100.488281" xlink:href="#DejaVuSans-121"/>
      <use x="159.667969" xlink:href="#DejaVuSans-108"/>
      <use x="187.451172" xlink:href="#DejaVuSans-111"/>
      <use x="248.632812" xlink:href="#DejaVuSans-114"/>
      <use x="289.746094" xlink:href="#DejaVuSans-102"/>
      <use x="324.951172" xlink:href="#DejaVuSans-111"/>
      <use x="386.132812" xlink:href="#DejaVuSans-95"/>
      <use x="436.132812" xlink:href="#DejaVuSans-97"/>
      <use x="497.412109" xlink:href="#DejaVuSans-98"/>
      <use x="560.888672" xlink:href="#DejaVuSans-115"/>
      <use x="612.988281" xlink:href="#DejaVuSans-32"/>
      <use x="644.775391" xlink:href="#DejaVuSans-110"/>
      <use x="708.154297" xlink:href="#DejaVuSans-111"/>
      <use x="769.335938" xlink:href="#DejaVuSans-66"/>
      <use x="837.939453" xlink:href="#DejaVuSans-78"/>
     </g>
    </g>
    <g id="line2d_29">
     <path d="M 881.920312 111.852812 
L 901.920312 111.852812 
" style="fill:none;stroke:#2ca02c;stroke-linecap:square;stroke-width:1.5;"/>
    </g>
    <g id="line2d_30"/>
    <g id="text_20">
     <!-- taylorfo_sq noBN -->
     <defs>
      <path d="M 14.796875 27.296875 
Q 14.796875 17.390625 18.875 11.75 
Q 22.953125 6.109375 30.078125 6.109375 
Q 37.203125 6.109375 41.296875 11.75 
Q 45.40625 17.390625 45.40625 27.296875 
Q 45.40625 37.203125 41.296875 42.84375 
Q 37.203125 48.484375 30.078125 48.484375 
Q 22.953125 48.484375 18.875 42.84375 
Q 14.796875 37.203125 14.796875 27.296875 
z
M 45.40625 8.203125 
Q 42.578125 3.328125 38.25 0.953125 
Q 33.9375 -1.421875 27.875 -1.421875 
Q 17.96875 -1.421875 11.734375 6.484375 
Q 5.515625 14.40625 5.515625 27.296875 
Q 5.515625 40.1875 11.734375 48.09375 
Q 17.96875 56 27.875 56 
Q 33.9375 56 38.25 53.625 
Q 42.578125 51.265625 45.40625 46.390625 
L 45.40625 54.6875 
L 54.390625 54.6875 
L 54.390625 -20.796875 
L 45.40625 -20.796875 
z
" id="DejaVuSans-113"/>
     </defs>
     <g transform="translate(909.920312 115.352812)scale(0.1 -0.1)">
      <use xlink:href="#DejaVuSans-116"/>
      <use x="39.208984" xlink:href="#DejaVuSans-97"/>
      <use x="100.488281" xlink:href="#DejaVuSans-121"/>
      <use x="159.667969" xlink:href="#DejaVuSans-108"/>
      <use x="187.451172" xlink:href="#DejaVuSans-111"/>
      <use x="248.632812" xlink:href="#DejaVuSans-114"/>
      <use x="289.746094" xlink:href="#DejaVuSans-102"/>
      <use x="324.951172" xlink:href="#DejaVuSans-111"/>
      <use x="386.132812" xlink:href="#DejaVuSans-95"/>
      <use x="436.132812" xlink:href="#DejaVuSans-115"/>
      <use x="488.232422" xlink:href="#DejaVuSans-113"/>
      <use x="551.708984" xlink:href="#DejaVuSans-32"/>
      <use x="583.496094" xlink:href="#DejaVuSans-110"/>
      <use x="646.875" xlink:href="#DejaVuSans-111"/>
      <use x="708.056641" xlink:href="#DejaVuSans-66"/>
      <use x="776.660156" xlink:href="#DejaVuSans-78"/>
     </g>
    </g>
    <g id="line2d_31">
     <path d="M 881.920312 126.809062 
L 901.920312 126.809062 
" style="fill:none;stroke:#d62728;stroke-dasharray:5.55,2.4;stroke-dashoffset:0;stroke-width:1.5;"/>
    </g>
    <g id="line2d_32"/>
    <g id="text_21">
     <!-- Molchanov_group noBN -->
     <defs>
      <path d="M 9.8125 72.90625 
L 24.515625 72.90625 
L 43.109375 23.296875 
L 61.8125 72.90625 
L 76.515625 72.90625 
L 76.515625 0 
L 66.890625 0 
L 66.890625 64.015625 
L 48.09375 14.015625 
L 38.1875 14.015625 
L 19.390625 64.015625 
L 19.390625 0 
L 9.8125 0 
z
" id="DejaVuSans-77"/>
      <path d="M 48.78125 52.59375 
L 48.78125 44.1875 
Q 44.96875 46.296875 41.140625 47.34375 
Q 37.3125 48.390625 33.40625 48.390625 
Q 24.65625 48.390625 19.8125 42.84375 
Q 14.984375 37.3125 14.984375 27.296875 
Q 14.984375 17.28125 19.8125 11.734375 
Q 24.65625 6.203125 33.40625 6.203125 
Q 37.3125 6.203125 41.140625 7.25 
Q 44.96875 8.296875 48.78125 10.40625 
L 48.78125 2.09375 
Q 45.015625 0.34375 40.984375 -0.53125 
Q 36.96875 -1.421875 32.421875 -1.421875 
Q 20.0625 -1.421875 12.78125 6.34375 
Q 5.515625 14.109375 5.515625 27.296875 
Q 5.515625 40.671875 12.859375 48.328125 
Q 20.21875 56 33.015625 56 
Q 37.15625 56 41.109375 55.140625 
Q 45.0625 54.296875 48.78125 52.59375 
z
" id="DejaVuSans-99"/>
      <path d="M 54.890625 33.015625 
L 54.890625 0 
L 45.90625 0 
L 45.90625 32.71875 
Q 45.90625 40.484375 42.875 44.328125 
Q 39.84375 48.1875 33.796875 48.1875 
Q 26.515625 48.1875 22.3125 43.546875 
Q 18.109375 38.921875 18.109375 30.90625 
L 18.109375 0 
L 9.078125 0 
L 9.078125 75.984375 
L 18.109375 75.984375 
L 18.109375 46.1875 
Q 21.34375 51.125 25.703125 53.5625 
Q 30.078125 56 35.796875 56 
Q 45.21875 56 50.046875 50.171875 
Q 54.890625 44.34375 54.890625 33.015625 
z
" id="DejaVuSans-104"/>
      <path d="M 2.984375 54.6875 
L 12.5 54.6875 
L 29.59375 8.796875 
L 46.6875 54.6875 
L 56.203125 54.6875 
L 35.6875 0 
L 23.484375 0 
z
" id="DejaVuSans-118"/>
      <path d="M 45.40625 27.984375 
Q 45.40625 37.75 41.375 43.109375 
Q 37.359375 48.484375 30.078125 48.484375 
Q 22.859375 48.484375 18.828125 43.109375 
Q 14.796875 37.75 14.796875 27.984375 
Q 14.796875 18.265625 18.828125 12.890625 
Q 22.859375 7.515625 30.078125 7.515625 
Q 37.359375 7.515625 41.375 12.890625 
Q 45.40625 18.265625 45.40625 27.984375 
z
M 54.390625 6.78125 
Q 54.390625 -7.171875 48.1875 -13.984375 
Q 42 -20.796875 29.203125 -20.796875 
Q 24.46875 -20.796875 20.265625 -20.09375 
Q 16.0625 -19.390625 12.109375 -17.921875 
L 12.109375 -9.1875 
Q 16.0625 -11.328125 19.921875 -12.34375 
Q 23.78125 -13.375 27.78125 -13.375 
Q 36.625 -13.375 41.015625 -8.765625 
Q 45.40625 -4.15625 45.40625 5.171875 
L 45.40625 9.625 
Q 42.625 4.78125 38.28125 2.390625 
Q 33.9375 0 27.875 0 
Q 17.828125 0 11.671875 7.65625 
Q 5.515625 15.328125 5.515625 27.984375 
Q 5.515625 40.671875 11.671875 48.328125 
Q 17.828125 56 27.875 56 
Q 33.9375 56 38.28125 53.609375 
Q 42.625 51.21875 45.40625 46.390625 
L 45.40625 54.6875 
L 54.390625 54.6875 
z
" id="DejaVuSans-103"/>
     </defs>
     <g transform="translate(909.920312 130.309062)scale(0.1 -0.1)">
      <use xlink:href="#DejaVuSans-77"/>
      <use x="86.279297" xlink:href="#DejaVuSans-111"/>
      <use x="147.460938" xlink:href="#DejaVuSans-108"/>
      <use x="175.244141" xlink:href="#DejaVuSans-99"/>
      <use x="230.224609" xlink:href="#DejaVuSans-104"/>
      <use x="293.603516" xlink:href="#DejaVuSans-97"/>
      <use x="354.882812" xlink:href="#DejaVuSans-110"/>
      <use x="418.261719" xlink:href="#DejaVuSans-111"/>
      <use x="479.443359" xlink:href="#DejaVuSans-118"/>
      <use x="538.623047" xlink:href="#DejaVuSans-95"/>
      <use x="588.623047" xlink:href="#DejaVuSans-103"/>
      <use x="652.099609" xlink:href="#DejaVuSans-114"/>
      <use x="690.962891" xlink:href="#DejaVuSans-111"/>
      <use x="752.144531" xlink:href="#DejaVuSans-117"/>
      <use x="815.523438" xlink:href="#DejaVuSans-112"/>
      <use x="879" xlink:href="#DejaVuSans-32"/>
      <use x="910.787109" xlink:href="#DejaVuSans-110"/>
      <use x="974.166016" xlink:href="#DejaVuSans-111"/>
      <use x="1035.347656" xlink:href="#DejaVuSans-66"/>
      <use x="1103.951172" xlink:href="#DejaVuSans-78"/>
     </g>
    </g>
    <g id="line2d_33">
     <path d="M 881.920312 141.765312 
L 901.920312 141.765312 
" style="fill:none;stroke:#9467bd;stroke-linecap:square;stroke-width:1.5;"/>
    </g>
    <g id="line2d_34"/>
    <g id="text_22">
     <!-- taylorfo BN -->
     <g transform="translate(909.920312 145.265312)scale(0.1 -0.1)">
      <use xlink:href="#DejaVuSans-116"/>
      <use x="39.208984" xlink:href="#DejaVuSans-97"/>
      <use x="100.488281" xlink:href="#DejaVuSans-121"/>
      <use x="159.667969" xlink:href="#DejaVuSans-108"/>
      <use x="187.451172" xlink:href="#DejaVuSans-111"/>
      <use x="248.632812" xlink:href="#DejaVuSans-114"/>
      <use x="289.746094" xlink:href="#DejaVuSans-102"/>
      <use x="324.951172" xlink:href="#DejaVuSans-111"/>
      <use x="386.132812" xlink:href="#DejaVuSans-32"/>
      <use x="417.919922" xlink:href="#DejaVuSans-66"/>
      <use x="486.523438" xlink:href="#DejaVuSans-78"/>
     </g>
    </g>
    <g id="line2d_35">
     <path d="M 881.920312 156.443437 
L 901.920312 156.443437 
" style="fill:none;stroke:#8c564b;stroke-linecap:square;stroke-width:1.5;"/>
    </g>
    <g id="line2d_36"/>
    <g id="text_23">
     <!-- taylorfo_abs BN -->
     <g transform="translate(909.920312 159.943437)scale(0.1 -0.1)">
      <use xlink:href="#DejaVuSans-116"/>
      <use x="39.208984" xlink:href="#DejaVuSans-97"/>
      <use x="100.488281" xlink:href="#DejaVuSans-121"/>
      <use x="159.667969" xlink:href="#DejaVuSans-108"/>
      <use x="187.451172" xlink:href="#DejaVuSans-111"/>
      <use x="248.632812" xlink:href="#DejaVuSans-114"/>
      <use x="289.746094" xlink:href="#DejaVuSans-102"/>
      <use x="324.951172" xlink:href="#DejaVuSans-111"/>
      <use x="386.132812" xlink:href="#DejaVuSans-95"/>
      <use x="436.132812" xlink:href="#DejaVuSans-97"/>
      <use x="497.412109" xlink:href="#DejaVuSans-98"/>
      <use x="560.888672" xlink:href="#DejaVuSans-115"/>
      <use x="612.988281" xlink:href="#DejaVuSans-32"/>
      <use x="644.775391" xlink:href="#DejaVuSans-66"/>
      <use x="713.378906" xlink:href="#DejaVuSans-78"/>
     </g>
    </g>
    <g id="line2d_37">
     <path d="M 881.920312 171.399687 
L 901.920312 171.399687 
" style="fill:none;stroke:#e377c2;stroke-linecap:square;stroke-width:1.5;"/>
    </g>
    <g id="line2d_38"/>
    <g id="text_24">
     <!-- taylorfo_sq BN -->
     <g transform="translate(909.920312 174.899687)scale(0.1 -0.1)">
      <use xlink:href="#DejaVuSans-116"/>
      <use x="39.208984" xlink:href="#DejaVuSans-97"/>
      <use x="100.488281" xlink:href="#DejaVuSans-121"/>
      <use x="159.667969" xlink:href="#DejaVuSans-108"/>
      <use x="187.451172" xlink:href="#DejaVuSans-111"/>
      <use x="248.632812" xlink:href="#DejaVuSans-114"/>
      <use x="289.746094" xlink:href="#DejaVuSans-102"/>
      <use x="324.951172" xlink:href="#DejaVuSans-111"/>
      <use x="386.132812" xlink:href="#DejaVuSans-95"/>
      <use x="436.132812" xlink:href="#DejaVuSans-115"/>
      <use x="488.232422" xlink:href="#DejaVuSans-113"/>
      <use x="551.708984" xlink:href="#DejaVuSans-32"/>
      <use x="583.496094" xlink:href="#DejaVuSans-66"/>
      <use x="652.099609" xlink:href="#DejaVuSans-78"/>
     </g>
    </g>
    <g id="line2d_39">
     <path d="M 881.920312 186.355937 
L 901.920312 186.355937 
" style="fill:none;stroke:#7f7f7f;stroke-dasharray:5.55,2.4;stroke-dashoffset:0;stroke-width:1.5;"/>
    </g>
    <g id="line2d_40"/>
    <g id="text_25">
     <!-- Molchanov_group BN -->
     <g transform="translate(909.920312 189.855937)scale(0.1 -0.1)">
      <use xlink:href="#DejaVuSans-77"/>
      <use x="86.279297" xlink:href="#DejaVuSans-111"/>
      <use x="147.460938" xlink:href="#DejaVuSans-108"/>
      <use x="175.244141" xlink:href="#DejaVuSans-99"/>
      <use x="230.224609" xlink:href="#DejaVuSans-104"/>
      <use x="293.603516" xlink:href="#DejaVuSans-97"/>
      <use x="354.882812" xlink:href="#DejaVuSans-110"/>
      <use x="418.261719" xlink:href="#DejaVuSans-111"/>
      <use x="479.443359" xlink:href="#DejaVuSans-118"/>
      <use x="538.623047" xlink:href="#DejaVuSans-95"/>
      <use x="588.623047" xlink:href="#DejaVuSans-103"/>
      <use x="652.099609" xlink:href="#DejaVuSans-114"/>
      <use x="690.962891" xlink:href="#DejaVuSans-111"/>
      <use x="752.144531" xlink:href="#DejaVuSans-117"/>
      <use x="815.523438" xlink:href="#DejaVuSans-112"/>
      <use x="879" xlink:href="#DejaVuSans-32"/>
      <use x="910.787109" xlink:href="#DejaVuSans-66"/>
      <use x="979.390625" xlink:href="#DejaVuSans-78"/>
     </g>
    </g>
    <g id="line2d_41">
     <path d="M 881.920312 201.312187 
L 901.920312 201.312187 
" style="fill:none;stroke:#bcbd22;stroke-dasharray:5.55,2.4;stroke-dashoffset:0;stroke-width:1.5;"/>
    </g>
    <g id="line2d_42"/>
    <g id="text_26">
     <!-- Molchanov_BN BN -->
     <g transform="translate(909.920312 204.812187)scale(0.1 -0.1)">
      <use xlink:href="#DejaVuSans-77"/>
      <use x="86.279297" xlink:href="#DejaVuSans-111"/>
      <use x="147.460938" xlink:href="#DejaVuSans-108"/>
      <use x="175.244141" xlink:href="#DejaVuSans-99"/>
      <use x="230.224609" xlink:href="#DejaVuSans-104"/>
      <use x="293.603516" xlink:href="#DejaVuSans-97"/>
      <use x="354.882812" xlink:href="#DejaVuSans-110"/>
      <use x="418.261719" xlink:href="#DejaVuSans-111"/>
      <use x="479.443359" xlink:href="#DejaVuSans-118"/>
      <use x="538.623047" xlink:href="#DejaVuSans-95"/>
      <use x="588.623047" xlink:href="#DejaVuSans-66"/>
      <use x="657.226562" xlink:href="#DejaVuSans-78"/>
      <use x="732.03125" xlink:href="#DejaVuSans-32"/>
      <use x="763.818359" xlink:href="#DejaVuSans-66"/>
      <use x="832.421875" xlink:href="#DejaVuSans-78"/>
     </g>
    </g>
   </g>
  </g>
 </g>
 <defs>
  <clipPath id="p151b430e93">
   <rect height="434.88" width="892.8" x="144" y="69.12"/>
  </clipPath>
 </defs>
</svg>
