<?xml version="1.0" encoding="utf-8" standalone="no"?>
<!DOCTYPE svg PUBLIC "-//W3C//DTD SVG 1.1//EN"
  "http://www.w3.org/Graphics/SVG/1.1/DTD/svg11.dtd">
<!-- Created with matplotlib (https://matplotlib.org/) -->
<svg height="576pt" version="1.1" viewBox="0 0 1152 576" width="1152pt" xmlns="http://www.w3.org/2000/svg" xmlns:xlink="http://www.w3.org/1999/xlink">
 <defs>
  <style type="text/css">
*{stroke-linecap:butt;stroke-linejoin:round;}
  </style>
 </defs>
 <g id="figure_1">
  <g id="patch_1">
   <path d="M 0 576 
L 1152 576 
L 1152 0 
L 0 0 
z
" style="fill:#ffffff;"/>
  </g>
  <g id="axes_1">
   <g id="patch_2">
    <path d="M 144 504 
L 1036.8 504 
L 1036.8 69.12 
L 144 69.12 
z
" style="fill:#ffffff;"/>
   </g>
   <g id="matplotlib.axis_1">
    <g id="xtick_1">
     <g id="line2d_1">
      <defs>
       <path d="M 0 0 
L 0 3.5 
" id="m7bbd84ec1a" style="stroke:#000000;stroke-width:0.8;"/>
      </defs>
      <g>
       <use style="stroke:#000000;stroke-width:0.8;" x="182.527043" xlink:href="#m7bbd84ec1a" y="504"/>
      </g>
     </g>
     <g id="text_1">
      <!-- 0 -->
      <defs>
       <path d="M 31.78125 66.40625 
Q 24.171875 66.40625 20.328125 58.90625 
Q 16.5 51.421875 16.5 36.375 
Q 16.5 21.390625 20.328125 13.890625 
Q 24.171875 6.390625 31.78125 6.390625 
Q 39.453125 6.390625 43.28125 13.890625 
Q 47.125 21.390625 47.125 36.375 
Q 47.125 51.421875 43.28125 58.90625 
Q 39.453125 66.40625 31.78125 66.40625 
z
M 31.78125 74.21875 
Q 44.046875 74.21875 50.515625 64.515625 
Q 56.984375 54.828125 56.984375 36.375 
Q 56.984375 17.96875 50.515625 8.265625 
Q 44.046875 -1.421875 31.78125 -1.421875 
Q 19.53125 -1.421875 13.0625 8.265625 
Q 6.59375 17.96875 6.59375 36.375 
Q 6.59375 54.828125 13.0625 64.515625 
Q 19.53125 74.21875 31.78125 74.21875 
z
" id="DejaVuSans-48"/>
      </defs>
      <g transform="translate(179.345793 518.598438)scale(0.1 -0.1)">
       <use xlink:href="#DejaVuSans-48"/>
      </g>
     </g>
    </g>
    <g id="xtick_2">
     <g id="line2d_2">
      <g>
       <use style="stroke:#000000;stroke-width:0.8;" x="285.265823" xlink:href="#m7bbd84ec1a" y="504"/>
      </g>
     </g>
     <g id="text_2">
      <!-- 50 -->
      <defs>
       <path d="M 10.796875 72.90625 
L 49.515625 72.90625 
L 49.515625 64.59375 
L 19.828125 64.59375 
L 19.828125 46.734375 
Q 21.96875 47.46875 24.109375 47.828125 
Q 26.265625 48.1875 28.421875 48.1875 
Q 40.625 48.1875 47.75 41.5 
Q 54.890625 34.8125 54.890625 23.390625 
Q 54.890625 11.625 47.5625 5.09375 
Q 40.234375 -1.421875 26.90625 -1.421875 
Q 22.3125 -1.421875 17.546875 -0.640625 
Q 12.796875 0.140625 7.71875 1.703125 
L 7.71875 11.625 
Q 12.109375 9.234375 16.796875 8.0625 
Q 21.484375 6.890625 26.703125 6.890625 
Q 35.15625 6.890625 40.078125 11.328125 
Q 45.015625 15.765625 45.015625 23.390625 
Q 45.015625 31 40.078125 35.4375 
Q 35.15625 39.890625 26.703125 39.890625 
Q 22.75 39.890625 18.8125 39.015625 
Q 14.890625 38.140625 10.796875 36.28125 
z
" id="DejaVuSans-53"/>
      </defs>
      <g transform="translate(278.903323 518.598438)scale(0.1 -0.1)">
       <use xlink:href="#DejaVuSans-53"/>
       <use x="63.623047" xlink:href="#DejaVuSans-48"/>
      </g>
     </g>
    </g>
    <g id="xtick_3">
     <g id="line2d_3">
      <g>
       <use style="stroke:#000000;stroke-width:0.8;" x="388.004603" xlink:href="#m7bbd84ec1a" y="504"/>
      </g>
     </g>
     <g id="text_3">
      <!-- 100 -->
      <defs>
       <path d="M 12.40625 8.296875 
L 28.515625 8.296875 
L 28.515625 63.921875 
L 10.984375 60.40625 
L 10.984375 69.390625 
L 28.421875 72.90625 
L 38.28125 72.90625 
L 38.28125 8.296875 
L 54.390625 8.296875 
L 54.390625 0 
L 12.40625 0 
z
" id="DejaVuSans-49"/>
      </defs>
      <g transform="translate(378.460853 518.598438)scale(0.1 -0.1)">
       <use xlink:href="#DejaVuSans-49"/>
       <use x="63.623047" xlink:href="#DejaVuSans-48"/>
       <use x="127.246094" xlink:href="#DejaVuSans-48"/>
      </g>
     </g>
    </g>
    <g id="xtick_4">
     <g id="line2d_4">
      <g>
       <use style="stroke:#000000;stroke-width:0.8;" x="490.743383" xlink:href="#m7bbd84ec1a" y="504"/>
      </g>
     </g>
     <g id="text_4">
      <!-- 150 -->
      <g transform="translate(481.199633 518.598438)scale(0.1 -0.1)">
       <use xlink:href="#DejaVuSans-49"/>
       <use x="63.623047" xlink:href="#DejaVuSans-53"/>
       <use x="127.246094" xlink:href="#DejaVuSans-48"/>
      </g>
     </g>
    </g>
    <g id="xtick_5">
     <g id="line2d_5">
      <g>
       <use style="stroke:#000000;stroke-width:0.8;" x="593.482163" xlink:href="#m7bbd84ec1a" y="504"/>
      </g>
     </g>
     <g id="text_5">
      <!-- 200 -->
      <defs>
       <path d="M 19.1875 8.296875 
L 53.609375 8.296875 
L 53.609375 0 
L 7.328125 0 
L 7.328125 8.296875 
Q 12.9375 14.109375 22.625 23.890625 
Q 32.328125 33.6875 34.8125 36.53125 
Q 39.546875 41.84375 41.421875 45.53125 
Q 43.3125 49.21875 43.3125 52.78125 
Q 43.3125 58.59375 39.234375 62.25 
Q 35.15625 65.921875 28.609375 65.921875 
Q 23.96875 65.921875 18.8125 64.3125 
Q 13.671875 62.703125 7.8125 59.421875 
L 7.8125 69.390625 
Q 13.765625 71.78125 18.9375 73 
Q 24.125 74.21875 28.421875 74.21875 
Q 39.75 74.21875 46.484375 68.546875 
Q 53.21875 62.890625 53.21875 53.421875 
Q 53.21875 48.921875 51.53125 44.890625 
Q 49.859375 40.875 45.40625 35.40625 
Q 44.1875 33.984375 37.640625 27.21875 
Q 31.109375 20.453125 19.1875 8.296875 
z
" id="DejaVuSans-50"/>
      </defs>
      <g transform="translate(583.938413 518.598438)scale(0.1 -0.1)">
       <use xlink:href="#DejaVuSans-50"/>
       <use x="63.623047" xlink:href="#DejaVuSans-48"/>
       <use x="127.246094" xlink:href="#DejaVuSans-48"/>
      </g>
     </g>
    </g>
    <g id="xtick_6">
     <g id="line2d_6">
      <g>
       <use style="stroke:#000000;stroke-width:0.8;" x="696.220944" xlink:href="#m7bbd84ec1a" y="504"/>
      </g>
     </g>
     <g id="text_6">
      <!-- 250 -->
      <g transform="translate(686.677194 518.598438)scale(0.1 -0.1)">
       <use xlink:href="#DejaVuSans-50"/>
       <use x="63.623047" xlink:href="#DejaVuSans-53"/>
       <use x="127.246094" xlink:href="#DejaVuSans-48"/>
      </g>
     </g>
    </g>
    <g id="xtick_7">
     <g id="line2d_7">
      <g>
       <use style="stroke:#000000;stroke-width:0.8;" x="798.959724" xlink:href="#m7bbd84ec1a" y="504"/>
      </g>
     </g>
     <g id="text_7">
      <!-- 300 -->
      <defs>
       <path d="M 40.578125 39.3125 
Q 47.65625 37.796875 51.625 33 
Q 55.609375 28.21875 55.609375 21.1875 
Q 55.609375 10.40625 48.1875 4.484375 
Q 40.765625 -1.421875 27.09375 -1.421875 
Q 22.515625 -1.421875 17.65625 -0.515625 
Q 12.796875 0.390625 7.625 2.203125 
L 7.625 11.71875 
Q 11.71875 9.328125 16.59375 8.109375 
Q 21.484375 6.890625 26.8125 6.890625 
Q 36.078125 6.890625 40.9375 10.546875 
Q 45.796875 14.203125 45.796875 21.1875 
Q 45.796875 27.640625 41.28125 31.265625 
Q 36.765625 34.90625 28.71875 34.90625 
L 20.21875 34.90625 
L 20.21875 43.015625 
L 29.109375 43.015625 
Q 36.375 43.015625 40.234375 45.921875 
Q 44.09375 48.828125 44.09375 54.296875 
Q 44.09375 59.90625 40.109375 62.90625 
Q 36.140625 65.921875 28.71875 65.921875 
Q 24.65625 65.921875 20.015625 65.03125 
Q 15.375 64.15625 9.8125 62.3125 
L 9.8125 71.09375 
Q 15.4375 72.65625 20.34375 73.4375 
Q 25.25 74.21875 29.59375 74.21875 
Q 40.828125 74.21875 47.359375 69.109375 
Q 53.90625 64.015625 53.90625 55.328125 
Q 53.90625 49.265625 50.4375 45.09375 
Q 46.96875 40.921875 40.578125 39.3125 
z
" id="DejaVuSans-51"/>
      </defs>
      <g transform="translate(789.415974 518.598438)scale(0.1 -0.1)">
       <use xlink:href="#DejaVuSans-51"/>
       <use x="63.623047" xlink:href="#DejaVuSans-48"/>
       <use x="127.246094" xlink:href="#DejaVuSans-48"/>
      </g>
     </g>
    </g>
    <g id="xtick_8">
     <g id="line2d_8">
      <g>
       <use style="stroke:#000000;stroke-width:0.8;" x="901.698504" xlink:href="#m7bbd84ec1a" y="504"/>
      </g>
     </g>
     <g id="text_8">
      <!-- 350 -->
      <g transform="translate(892.154754 518.598438)scale(0.1 -0.1)">
       <use xlink:href="#DejaVuSans-51"/>
       <use x="63.623047" xlink:href="#DejaVuSans-53"/>
       <use x="127.246094" xlink:href="#DejaVuSans-48"/>
      </g>
     </g>
    </g>
    <g id="xtick_9">
     <g id="line2d_9">
      <g>
       <use style="stroke:#000000;stroke-width:0.8;" x="1004.437284" xlink:href="#m7bbd84ec1a" y="504"/>
      </g>
     </g>
     <g id="text_9">
      <!-- 400 -->
      <defs>
       <path d="M 37.796875 64.3125 
L 12.890625 25.390625 
L 37.796875 25.390625 
z
M 35.203125 72.90625 
L 47.609375 72.90625 
L 47.609375 25.390625 
L 58.015625 25.390625 
L 58.015625 17.1875 
L 47.609375 17.1875 
L 47.609375 0 
L 37.796875 0 
L 37.796875 17.1875 
L 4.890625 17.1875 
L 4.890625 26.703125 
z
" id="DejaVuSans-52"/>
      </defs>
      <g transform="translate(994.893534 518.598438)scale(0.1 -0.1)">
       <use xlink:href="#DejaVuSans-52"/>
       <use x="63.623047" xlink:href="#DejaVuSans-48"/>
       <use x="127.246094" xlink:href="#DejaVuSans-48"/>
      </g>
     </g>
    </g>
    <g id="text_10">
     <!-- Number of Neurons pruned -->
     <defs>
      <path d="M 9.8125 72.90625 
L 23.09375 72.90625 
L 55.421875 11.921875 
L 55.421875 72.90625 
L 64.984375 72.90625 
L 64.984375 0 
L 51.703125 0 
L 19.390625 60.984375 
L 19.390625 0 
L 9.8125 0 
z
" id="DejaVuSans-78"/>
      <path d="M 8.5 21.578125 
L 8.5 54.6875 
L 17.484375 54.6875 
L 17.484375 21.921875 
Q 17.484375 14.15625 20.5 10.265625 
Q 23.53125 6.390625 29.59375 6.390625 
Q 36.859375 6.390625 41.078125 11.03125 
Q 45.3125 15.671875 45.3125 23.6875 
L 45.3125 54.6875 
L 54.296875 54.6875 
L 54.296875 0 
L 45.3125 0 
L 45.3125 8.40625 
Q 42.046875 3.421875 37.71875 1 
Q 33.40625 -1.421875 27.6875 -1.421875 
Q 18.265625 -1.421875 13.375 4.4375 
Q 8.5 10.296875 8.5 21.578125 
z
M 31.109375 56 
z
" id="DejaVuSans-117"/>
      <path d="M 52 44.1875 
Q 55.375 50.25 60.0625 53.125 
Q 64.75 56 71.09375 56 
Q 79.640625 56 84.28125 50.015625 
Q 88.921875 44.046875 88.921875 33.015625 
L 88.921875 0 
L 79.890625 0 
L 79.890625 32.71875 
Q 79.890625 40.578125 77.09375 44.375 
Q 74.3125 48.1875 68.609375 48.1875 
Q 61.625 48.1875 57.5625 43.546875 
Q 53.515625 38.921875 53.515625 30.90625 
L 53.515625 0 
L 44.484375 0 
L 44.484375 32.71875 
Q 44.484375 40.625 41.703125 44.40625 
Q 38.921875 48.1875 33.109375 48.1875 
Q 26.21875 48.1875 22.15625 43.53125 
Q 18.109375 38.875 18.109375 30.90625 
L 18.109375 0 
L 9.078125 0 
L 9.078125 54.6875 
L 18.109375 54.6875 
L 18.109375 46.1875 
Q 21.1875 51.21875 25.484375 53.609375 
Q 29.78125 56 35.6875 56 
Q 41.65625 56 45.828125 52.96875 
Q 50 49.953125 52 44.1875 
z
" id="DejaVuSans-109"/>
      <path d="M 48.6875 27.296875 
Q 48.6875 37.203125 44.609375 42.84375 
Q 40.53125 48.484375 33.40625 48.484375 
Q 26.265625 48.484375 22.1875 42.84375 
Q 18.109375 37.203125 18.109375 27.296875 
Q 18.109375 17.390625 22.1875 11.75 
Q 26.265625 6.109375 33.40625 6.109375 
Q 40.53125 6.109375 44.609375 11.75 
Q 48.6875 17.390625 48.6875 27.296875 
z
M 18.109375 46.390625 
Q 20.953125 51.265625 25.265625 53.625 
Q 29.59375 56 35.59375 56 
Q 45.5625 56 51.78125 48.09375 
Q 58.015625 40.1875 58.015625 27.296875 
Q 58.015625 14.40625 51.78125 6.484375 
Q 45.5625 -1.421875 35.59375 -1.421875 
Q 29.59375 -1.421875 25.265625 0.953125 
Q 20.953125 3.328125 18.109375 8.203125 
L 18.109375 0 
L 9.078125 0 
L 9.078125 75.984375 
L 18.109375 75.984375 
z
" id="DejaVuSans-98"/>
      <path d="M 56.203125 29.59375 
L 56.203125 25.203125 
L 14.890625 25.203125 
Q 15.484375 15.921875 20.484375 11.0625 
Q 25.484375 6.203125 34.421875 6.203125 
Q 39.59375 6.203125 44.453125 7.46875 
Q 49.3125 8.734375 54.109375 11.28125 
L 54.109375 2.78125 
Q 49.265625 0.734375 44.1875 -0.34375 
Q 39.109375 -1.421875 33.890625 -1.421875 
Q 20.796875 -1.421875 13.15625 6.1875 
Q 5.515625 13.8125 5.515625 26.8125 
Q 5.515625 40.234375 12.765625 48.109375 
Q 20.015625 56 32.328125 56 
Q 43.359375 56 49.78125 48.890625 
Q 56.203125 41.796875 56.203125 29.59375 
z
M 47.21875 32.234375 
Q 47.125 39.59375 43.09375 43.984375 
Q 39.0625 48.390625 32.421875 48.390625 
Q 24.90625 48.390625 20.390625 44.140625 
Q 15.875 39.890625 15.1875 32.171875 
z
" id="DejaVuSans-101"/>
      <path d="M 41.109375 46.296875 
Q 39.59375 47.171875 37.8125 47.578125 
Q 36.03125 48 33.890625 48 
Q 26.265625 48 22.1875 43.046875 
Q 18.109375 38.09375 18.109375 28.8125 
L 18.109375 0 
L 9.078125 0 
L 9.078125 54.6875 
L 18.109375 54.6875 
L 18.109375 46.1875 
Q 20.953125 51.171875 25.484375 53.578125 
Q 30.03125 56 36.53125 56 
Q 37.453125 56 38.578125 55.875 
Q 39.703125 55.765625 41.0625 55.515625 
z
" id="DejaVuSans-114"/>
      <path id="DejaVuSans-32"/>
      <path d="M 30.609375 48.390625 
Q 23.390625 48.390625 19.1875 42.75 
Q 14.984375 37.109375 14.984375 27.296875 
Q 14.984375 17.484375 19.15625 11.84375 
Q 23.34375 6.203125 30.609375 6.203125 
Q 37.796875 6.203125 41.984375 11.859375 
Q 46.1875 17.53125 46.1875 27.296875 
Q 46.1875 37.015625 41.984375 42.703125 
Q 37.796875 48.390625 30.609375 48.390625 
z
M 30.609375 56 
Q 42.328125 56 49.015625 48.375 
Q 55.71875 40.765625 55.71875 27.296875 
Q 55.71875 13.875 49.015625 6.21875 
Q 42.328125 -1.421875 30.609375 -1.421875 
Q 18.84375 -1.421875 12.171875 6.21875 
Q 5.515625 13.875 5.515625 27.296875 
Q 5.515625 40.765625 12.171875 48.375 
Q 18.84375 56 30.609375 56 
z
" id="DejaVuSans-111"/>
      <path d="M 37.109375 75.984375 
L 37.109375 68.5 
L 28.515625 68.5 
Q 23.6875 68.5 21.796875 66.546875 
Q 19.921875 64.59375 19.921875 59.515625 
L 19.921875 54.6875 
L 34.71875 54.6875 
L 34.71875 47.703125 
L 19.921875 47.703125 
L 19.921875 0 
L 10.890625 0 
L 10.890625 47.703125 
L 2.296875 47.703125 
L 2.296875 54.6875 
L 10.890625 54.6875 
L 10.890625 58.5 
Q 10.890625 67.625 15.140625 71.796875 
Q 19.390625 75.984375 28.609375 75.984375 
z
" id="DejaVuSans-102"/>
      <path d="M 54.890625 33.015625 
L 54.890625 0 
L 45.90625 0 
L 45.90625 32.71875 
Q 45.90625 40.484375 42.875 44.328125 
Q 39.84375 48.1875 33.796875 48.1875 
Q 26.515625 48.1875 22.3125 43.546875 
Q 18.109375 38.921875 18.109375 30.90625 
L 18.109375 0 
L 9.078125 0 
L 9.078125 54.6875 
L 18.109375 54.6875 
L 18.109375 46.1875 
Q 21.34375 51.125 25.703125 53.5625 
Q 30.078125 56 35.796875 56 
Q 45.21875 56 50.046875 50.171875 
Q 54.890625 44.34375 54.890625 33.015625 
z
" id="DejaVuSans-110"/>
      <path d="M 44.28125 53.078125 
L 44.28125 44.578125 
Q 40.484375 46.53125 36.375 47.5 
Q 32.28125 48.484375 27.875 48.484375 
Q 21.1875 48.484375 17.84375 46.4375 
Q 14.5 44.390625 14.5 40.28125 
Q 14.5 37.15625 16.890625 35.375 
Q 19.28125 33.59375 26.515625 31.984375 
L 29.59375 31.296875 
Q 39.15625 29.25 43.1875 25.515625 
Q 47.21875 21.78125 47.21875 15.09375 
Q 47.21875 7.46875 41.1875 3.015625 
Q 35.15625 -1.421875 24.609375 -1.421875 
Q 20.21875 -1.421875 15.453125 -0.5625 
Q 10.6875 0.296875 5.421875 2 
L 5.421875 11.28125 
Q 10.40625 8.6875 15.234375 7.390625 
Q 20.0625 6.109375 24.8125 6.109375 
Q 31.15625 6.109375 34.5625 8.28125 
Q 37.984375 10.453125 37.984375 14.40625 
Q 37.984375 18.0625 35.515625 20.015625 
Q 33.0625 21.96875 24.703125 23.78125 
L 21.578125 24.515625 
Q 13.234375 26.265625 9.515625 29.90625 
Q 5.8125 33.546875 5.8125 39.890625 
Q 5.8125 47.609375 11.28125 51.796875 
Q 16.75 56 26.8125 56 
Q 31.78125 56 36.171875 55.265625 
Q 40.578125 54.546875 44.28125 53.078125 
z
" id="DejaVuSans-115"/>
      <path d="M 18.109375 8.203125 
L 18.109375 -20.796875 
L 9.078125 -20.796875 
L 9.078125 54.6875 
L 18.109375 54.6875 
L 18.109375 46.390625 
Q 20.953125 51.265625 25.265625 53.625 
Q 29.59375 56 35.59375 56 
Q 45.5625 56 51.78125 48.09375 
Q 58.015625 40.1875 58.015625 27.296875 
Q 58.015625 14.40625 51.78125 6.484375 
Q 45.5625 -1.421875 35.59375 -1.421875 
Q 29.59375 -1.421875 25.265625 0.953125 
Q 20.953125 3.328125 18.109375 8.203125 
z
M 48.6875 27.296875 
Q 48.6875 37.203125 44.609375 42.84375 
Q 40.53125 48.484375 33.40625 48.484375 
Q 26.265625 48.484375 22.1875 42.84375 
Q 18.109375 37.203125 18.109375 27.296875 
Q 18.109375 17.390625 22.1875 11.75 
Q 26.265625 6.109375 33.40625 6.109375 
Q 40.53125 6.109375 44.609375 11.75 
Q 48.6875 17.390625 48.6875 27.296875 
z
" id="DejaVuSans-112"/>
      <path d="M 45.40625 46.390625 
L 45.40625 75.984375 
L 54.390625 75.984375 
L 54.390625 0 
L 45.40625 0 
L 45.40625 8.203125 
Q 42.578125 3.328125 38.25 0.953125 
Q 33.9375 -1.421875 27.875 -1.421875 
Q 17.96875 -1.421875 11.734375 6.484375 
Q 5.515625 14.40625 5.515625 27.296875 
Q 5.515625 40.1875 11.734375 48.09375 
Q 17.96875 56 27.875 56 
Q 33.9375 56 38.25 53.625 
Q 42.578125 51.265625 45.40625 46.390625 
z
M 14.796875 27.296875 
Q 14.796875 17.390625 18.875 11.75 
Q 22.953125 6.109375 30.078125 6.109375 
Q 37.203125 6.109375 41.296875 11.75 
Q 45.40625 17.390625 45.40625 27.296875 
Q 45.40625 37.203125 41.296875 42.84375 
Q 37.203125 48.484375 30.078125 48.484375 
Q 22.953125 48.484375 18.875 42.84375 
Q 14.796875 37.203125 14.796875 27.296875 
z
" id="DejaVuSans-100"/>
     </defs>
     <g transform="translate(522.147656 532.276562)scale(0.1 -0.1)">
      <use xlink:href="#DejaVuSans-78"/>
      <use x="74.804688" xlink:href="#DejaVuSans-117"/>
      <use x="138.183594" xlink:href="#DejaVuSans-109"/>
      <use x="235.595703" xlink:href="#DejaVuSans-98"/>
      <use x="299.072266" xlink:href="#DejaVuSans-101"/>
      <use x="360.595703" xlink:href="#DejaVuSans-114"/>
      <use x="401.708984" xlink:href="#DejaVuSans-32"/>
      <use x="433.496094" xlink:href="#DejaVuSans-111"/>
      <use x="494.677734" xlink:href="#DejaVuSans-102"/>
      <use x="529.882812" xlink:href="#DejaVuSans-32"/>
      <use x="561.669922" xlink:href="#DejaVuSans-78"/>
      <use x="636.474609" xlink:href="#DejaVuSans-101"/>
      <use x="697.998047" xlink:href="#DejaVuSans-117"/>
      <use x="761.376953" xlink:href="#DejaVuSans-114"/>
      <use x="800.240234" xlink:href="#DejaVuSans-111"/>
      <use x="861.421875" xlink:href="#DejaVuSans-110"/>
      <use x="924.800781" xlink:href="#DejaVuSans-115"/>
      <use x="976.900391" xlink:href="#DejaVuSans-32"/>
      <use x="1008.6875" xlink:href="#DejaVuSans-112"/>
      <use x="1072.164062" xlink:href="#DejaVuSans-114"/>
      <use x="1113.277344" xlink:href="#DejaVuSans-117"/>
      <use x="1176.65625" xlink:href="#DejaVuSans-110"/>
      <use x="1240.035156" xlink:href="#DejaVuSans-101"/>
      <use x="1301.558594" xlink:href="#DejaVuSans-100"/>
     </g>
    </g>
   </g>
   <g id="matplotlib.axis_2">
    <g id="ytick_1">
     <g id="line2d_10">
      <defs>
       <path d="M 0 0 
L -3.5 0 
" id="mcbe8326cef" style="stroke:#000000;stroke-width:0.8;"/>
      </defs>
      <g>
       <use style="stroke:#000000;stroke-width:0.8;" x="144" xlink:href="#mcbe8326cef" y="484.607835"/>
      </g>
     </g>
     <g id="text_11">
      <!-- 0.0 -->
      <defs>
       <path d="M 10.6875 12.40625 
L 21 12.40625 
L 21 0 
L 10.6875 0 
z
" id="DejaVuSans-46"/>
      </defs>
      <g transform="translate(121.096875 488.407054)scale(0.1 -0.1)">
       <use xlink:href="#DejaVuSans-48"/>
       <use x="63.623047" xlink:href="#DejaVuSans-46"/>
       <use x="95.410156" xlink:href="#DejaVuSans-48"/>
      </g>
     </g>
    </g>
    <g id="ytick_2">
     <g id="line2d_11">
      <g>
       <use style="stroke:#000000;stroke-width:0.8;" x="144" xlink:href="#mcbe8326cef" y="426.603914"/>
      </g>
     </g>
     <g id="text_12">
      <!-- 0.5 -->
      <g transform="translate(121.096875 430.403133)scale(0.1 -0.1)">
       <use xlink:href="#DejaVuSans-48"/>
       <use x="63.623047" xlink:href="#DejaVuSans-46"/>
       <use x="95.410156" xlink:href="#DejaVuSans-53"/>
      </g>
     </g>
    </g>
    <g id="ytick_3">
     <g id="line2d_12">
      <g>
       <use style="stroke:#000000;stroke-width:0.8;" x="144" xlink:href="#mcbe8326cef" y="368.599993"/>
      </g>
     </g>
     <g id="text_13">
      <!-- 1.0 -->
      <g transform="translate(121.096875 372.399212)scale(0.1 -0.1)">
       <use xlink:href="#DejaVuSans-49"/>
       <use x="63.623047" xlink:href="#DejaVuSans-46"/>
       <use x="95.410156" xlink:href="#DejaVuSans-48"/>
      </g>
     </g>
    </g>
    <g id="ytick_4">
     <g id="line2d_13">
      <g>
       <use style="stroke:#000000;stroke-width:0.8;" x="144" xlink:href="#mcbe8326cef" y="310.596072"/>
      </g>
     </g>
     <g id="text_14">
      <!-- 1.5 -->
      <g transform="translate(121.096875 314.395291)scale(0.1 -0.1)">
       <use xlink:href="#DejaVuSans-49"/>
       <use x="63.623047" xlink:href="#DejaVuSans-46"/>
       <use x="95.410156" xlink:href="#DejaVuSans-53"/>
      </g>
     </g>
    </g>
    <g id="ytick_5">
     <g id="line2d_14">
      <g>
       <use style="stroke:#000000;stroke-width:0.8;" x="144" xlink:href="#mcbe8326cef" y="252.592151"/>
      </g>
     </g>
     <g id="text_15">
      <!-- 2.0 -->
      <g transform="translate(121.096875 256.39137)scale(0.1 -0.1)">
       <use xlink:href="#DejaVuSans-50"/>
       <use x="63.623047" xlink:href="#DejaVuSans-46"/>
       <use x="95.410156" xlink:href="#DejaVuSans-48"/>
      </g>
     </g>
    </g>
    <g id="ytick_6">
     <g id="line2d_15">
      <g>
       <use style="stroke:#000000;stroke-width:0.8;" x="144" xlink:href="#mcbe8326cef" y="194.58823"/>
      </g>
     </g>
     <g id="text_16">
      <!-- 2.5 -->
      <g transform="translate(121.096875 198.387449)scale(0.1 -0.1)">
       <use xlink:href="#DejaVuSans-50"/>
       <use x="63.623047" xlink:href="#DejaVuSans-46"/>
       <use x="95.410156" xlink:href="#DejaVuSans-53"/>
      </g>
     </g>
    </g>
    <g id="ytick_7">
     <g id="line2d_16">
      <g>
       <use style="stroke:#000000;stroke-width:0.8;" x="144" xlink:href="#mcbe8326cef" y="136.584309"/>
      </g>
     </g>
     <g id="text_17">
      <!-- 3.0 -->
      <g transform="translate(121.096875 140.383528)scale(0.1 -0.1)">
       <use xlink:href="#DejaVuSans-51"/>
       <use x="63.623047" xlink:href="#DejaVuSans-46"/>
       <use x="95.410156" xlink:href="#DejaVuSans-48"/>
      </g>
     </g>
    </g>
    <g id="ytick_8">
     <g id="line2d_17">
      <g>
       <use style="stroke:#000000;stroke-width:0.8;" x="144" xlink:href="#mcbe8326cef" y="78.580388"/>
      </g>
     </g>
     <g id="text_18">
      <!-- 3.5 -->
      <g transform="translate(121.096875 82.379607)scale(0.1 -0.1)">
       <use xlink:href="#DejaVuSans-51"/>
       <use x="63.623047" xlink:href="#DejaVuSans-46"/>
       <use x="95.410156" xlink:href="#DejaVuSans-53"/>
      </g>
     </g>
    </g>
    <g id="text_19">
     <!-- Loss -->
     <defs>
      <path d="M 9.8125 72.90625 
L 19.671875 72.90625 
L 19.671875 8.296875 
L 55.171875 8.296875 
L 55.171875 0 
L 9.8125 0 
z
" id="DejaVuSans-76"/>
     </defs>
     <g transform="translate(115.017187 297.527188)rotate(-90)scale(0.1 -0.1)">
      <use xlink:href="#DejaVuSans-76"/>
      <use x="53.962891" xlink:href="#DejaVuSans-111"/>
      <use x="115.144531" xlink:href="#DejaVuSans-115"/>
      <use x="167.244141" xlink:href="#DejaVuSans-115"/>
     </g>
    </g>
   </g>
   <g id="line2d_18">
    <path clip-path="url(#pe07c7a15fd)" d="M 184.581818 484.203647 
L 194.855696 484.171069 
L 205.129574 484.11765 
L 215.403452 483.998793 
L 225.67733 483.858461 
L 235.951208 483.612593 
L 246.225086 483.524351 
L 256.498964 483.484913 
L 266.772842 483.418847 
L 277.04672 482.854617 
L 287.320598 482.506114 
L 297.594476 481.786642 
L 307.868354 480.388763 
L 318.142232 480.120954 
L 328.41611 479.211013 
L 338.689988 479.787579 
L 348.963867 478.375436 
L 359.237745 478.473221 
L 369.511623 477.890028 
L 379.785501 475.784113 
L 390.059379 474.523167 
L 400.333257 473.053233 
L 410.607135 471.09902 
L 420.881013 466.703488 
L 431.154891 467.567608 
L 441.428769 466.964236 
L 451.702647 464.290399 
L 461.976525 462.396687 
L 472.250403 461.789372 
L 482.524281 457.708448 
L 492.798159 454.969033 
L 503.072037 449.450323 
L 513.345915 444.108983 
L 523.619793 440.340167 
L 533.893671 435.061529 
L 544.167549 432.492117 
L 554.441427 439.040335 
L 564.715305 437.33947 
L 574.989183 434.329244 
L 585.263061 434.847594 
L 595.536939 439.278716 
L 605.810817 434.190728 
L 616.084695 436.446403 
L 626.358573 432.688 
L 636.632451 426.948027 
L 646.906329 417.464264 
L 657.180207 413.570974 
L 667.454085 424.435459 
L 677.727963 418.105718 
L 688.001841 420.437973 
L 698.275719 411.011394 
L 708.549597 409.785836 
L 718.823475 399.662818 
L 729.097353 392.346784 
L 739.371231 376.350479 
L 749.645109 358.212582 
L 759.918987 397.07141 
L 770.192865 383.589539 
L 780.466743 392.346528 
L 790.740621 380.328175 
L 801.014499 367.221152 
L 811.288377 366.537975 
L 821.562255 367.764626 
L 831.836133 352.369518 
L 842.110012 352.471674 
L 852.38389 345.905343 
L 862.657768 330.170451 
L 872.931646 346.610094 
L 883.205524 340.669576 
L 893.479402 332.598529 
L 903.75328 328.532602 
L 914.027158 311.216147 
L 924.301036 291.521301 
L 934.574914 280.667997 
L 944.848792 269.714279 
L 955.12267 262.375199 
L 965.396548 254.368099 
L 975.670426 242.83011 
L 985.944304 244.862285 
L 996.218182 240.335597 
" style="fill:none;stroke:#1f77b4;stroke-linecap:square;stroke-width:1.5;"/>
   </g>
   <g id="line2d_19">
    <path clip-path="url(#pe07c7a15fd)" d="M 184.581818 484.219359 
L 194.855696 484.212213 
L 205.129574 484.204483 
L 215.403452 484.188148 
L 225.67733 484.165968 
L 235.951208 484.127165 
L 246.225086 484.101023 
L 256.498964 484.047887 
L 266.772842 483.992087 
L 277.04672 483.971464 
L 287.320598 483.971597 
L 297.594476 483.94328 
L 307.868354 483.860634 
L 318.142232 483.797853 
L 328.41611 483.621898 
L 338.689988 483.605352 
L 348.963867 483.458915 
L 359.237745 483.35524 
L 369.511623 483.268537 
L 379.785501 483.098042 
L 390.059379 482.86393 
L 400.333257 482.600828 
L 410.607135 482.449588 
L 420.881013 482.003632 
L 431.154891 481.981602 
L 441.428769 481.315168 
L 451.702647 480.162041 
L 461.976525 479.211494 
L 472.250403 477.741434 
L 482.524281 476.805918 
L 492.798159 475.937911 
L 503.072037 476.105542 
L 513.345915 475.379258 
L 523.619793 473.242108 
L 533.893671 469.875885 
L 544.167549 463.377292 
L 554.441427 462.079651 
L 564.715305 460.416546 
L 574.989183 460.645361 
L 585.263061 457.748603 
L 595.536939 456.072307 
L 605.810817 453.013095 
L 616.084695 451.930496 
L 626.358573 448.930663 
L 636.632451 446.534057 
L 646.906329 441.030255 
L 657.180207 439.318503 
L 667.454085 435.023623 
L 677.727963 434.04744 
L 688.001841 429.35683 
L 698.275719 427.709152 
L 708.549597 426.333242 
L 718.823475 421.148097 
L 729.097353 420.970792 
L 739.371231 418.907937 
L 749.645109 420.576777 
L 759.918987 419.325503 
L 770.192865 413.40445 
L 780.466743 412.575665 
L 790.740621 409.108716 
L 801.014499 394.803032 
L 811.288377 390.428686 
L 821.562255 383.129974 
L 831.836133 378.358128 
L 842.110012 359.905941 
L 852.38389 351.950465 
L 862.657768 352.036953 
L 872.931646 344.222535 
L 883.205524 340.434839 
L 893.479402 334.361436 
L 903.75328 325.903987 
L 914.027158 330.654709 
L 924.301036 327.518575 
L 934.574914 329.662325 
L 944.848792 334.332104 
L 955.12267 333.855701 
L 965.396548 322.290013 
L 975.670426 324.627537 
L 985.944304 324.950878 
L 996.218182 334.886227 
" style="fill:none;stroke:#ff7f0e;stroke-linecap:square;stroke-width:1.5;"/>
   </g>
   <g id="line2d_20">
    <path clip-path="url(#pe07c7a15fd)" d="M 184.581818 484.219359 
L 194.855696 484.213537 
L 205.129574 484.190551 
L 215.403452 484.189193 
L 225.67733 484.171488 
L 235.951208 484.146119 
L 246.225086 484.121536 
L 256.498964 484.106983 
L 266.772842 484.088005 
L 277.04672 484.048121 
L 287.320598 484.013138 
L 297.594476 483.969972 
L 307.868354 483.881576 
L 318.142232 483.777249 
L 328.41611 483.703883 
L 338.689988 483.563459 
L 348.963867 483.405389 
L 359.237745 482.946026 
L 369.511623 482.891276 
L 379.785501 482.518033 
L 390.059379 482.069997 
L 400.333257 481.150007 
L 410.607135 480.158134 
L 420.881013 478.378623 
L 431.154891 477.991335 
L 441.428769 472.683264 
L 451.702647 470.450222 
L 461.976525 470.666797 
L 472.250403 470.064932 
L 482.524281 468.933115 
L 492.798159 469.907953 
L 503.072037 470.059611 
L 513.345915 466.860474 
L 523.619793 468.519028 
L 533.893671 465.213582 
L 544.167549 461.569145 
L 554.441427 455.411803 
L 564.715305 454.726102 
L 574.989183 454.40906 
L 585.263061 450.237513 
L 595.536939 448.136022 
L 605.810817 448.05332 
L 616.084695 443.63703 
L 626.358573 437.067038 
L 636.632451 438.450471 
L 646.906329 430.905083 
L 657.180207 431.617688 
L 667.454085 429.09562 
L 677.727963 426.700871 
L 688.001841 419.883616 
L 698.275719 414.688776 
L 708.549597 402.823865 
L 718.823475 393.961732 
L 729.097353 389.348708 
L 739.371231 387.817378 
L 749.645109 386.658373 
L 759.918987 382.727896 
L 770.192865 367.526349 
L 780.466743 365.464662 
L 790.740621 369.383812 
L 801.014499 362.654691 
L 811.288377 358.935172 
L 821.562255 351.754021 
L 831.836133 353.291484 
L 842.110012 342.49907 
L 852.38389 336.925731 
L 862.657768 324.039657 
L 872.931646 316.052042 
L 883.205524 314.395814 
L 893.479402 314.550439 
L 903.75328 309.672087 
L 914.027158 303.590733 
L 924.301036 301.155892 
L 934.574914 300.898213 
L 944.848792 286.854343 
L 955.12267 286.822453 
L 965.396548 285.525273 
L 975.670426 275.883657 
L 985.944304 273.617685 
L 996.218182 272.434762 
" style="fill:none;stroke:#2ca02c;stroke-linecap:square;stroke-width:1.5;"/>
   </g>
   <g id="line2d_21">
    <path clip-path="url(#pe07c7a15fd)" d="M 184.581818 484.219927 
L 194.855696 484.201332 
L 205.129574 484.184895 
L 215.403452 484.190054 
L 225.67733 484.154598 
L 235.951208 484.094452 
L 246.225086 483.884379 
L 256.498964 483.776048 
L 266.772842 483.557673 
L 277.04672 483.374605 
L 287.320598 483.149407 
L 297.594476 482.789459 
L 307.868354 482.217092 
L 318.142232 481.634403 
L 328.41611 480.236896 
L 338.689988 478.467145 
L 348.963867 475.567517 
L 359.237745 473.198974 
L 369.511623 471.47957 
L 379.785501 469.760636 
L 390.059379 468.54686 
L 400.333257 463.882761 
L 410.607135 460.415091 
L 420.881013 457.236649 
L 431.154891 456.773047 
L 441.428769 455.412138 
L 451.702647 451.299451 
L 461.976525 448.991487 
L 472.250403 443.76996 
L 482.524281 448.15045 
L 492.798159 438.425696 
L 503.072037 436.379546 
L 513.345915 435.198573 
L 523.619793 430.509754 
L 533.893671 428.325883 
L 544.167549 427.115941 
L 554.441427 424.796706 
L 564.715305 422.115637 
L 574.989183 419.038706 
L 585.263061 411.402948 
L 595.536939 401.57815 
L 605.810817 399.893095 
L 616.084695 393.491691 
L 626.358573 386.441952 
L 636.632451 379.418662 
L 646.906329 375.817909 
L 657.180207 377.114508 
L 667.454085 364.83033 
L 677.727963 358.046797 
L 688.001841 354.42364 
L 698.275719 349.414727 
L 708.549597 332.435663 
L 718.823475 327.950033 
L 729.097353 339.095797 
L 739.371231 350.167631 
L 749.645109 341.650108 
L 759.918987 328.682719 
L 770.192865 310.784412 
L 780.466743 308.720237 
L 790.740621 305.274564 
L 801.014499 286.699332 
L 811.288377 280.514728 
L 821.562255 274.142351 
L 831.836133 271.396285 
L 842.110012 269.299859 
L 852.38389 273.094636 
L 862.657768 255.354606 
L 872.931646 240.597412 
L 883.205524 230.564401 
L 893.479402 211.706306 
L 903.75328 201.148726 
L 914.027158 187.920448 
L 924.301036 181.466963 
L 934.574914 162.996363 
L 944.848792 146.642904 
L 955.12267 119.453926 
L 965.396548 104.451111 
L 975.670426 96.726998 
L 985.944304 95.856809 
L 996.218182 88.887273 
" style="fill:none;stroke:#d62728;stroke-dasharray:5.55,2.4;stroke-dashoffset:0;stroke-width:1.5;"/>
   </g>
   <g id="line2d_22">
    <path clip-path="url(#pe07c7a15fd)" d="M 184.581818 484.230969 
L 194.855696 484.195081 
L 205.129574 484.134301 
L 215.403452 484.079317 
L 225.67733 484.028287 
L 235.951208 483.956671 
L 246.225086 483.919717 
L 256.498964 483.865327 
L 266.772842 483.783675 
L 277.04672 483.755527 
L 287.320598 483.705483 
L 297.594476 483.561779 
L 307.868354 483.436117 
L 318.142232 482.983318 
L 328.41611 482.807048 
L 338.689988 482.772911 
L 348.963867 482.753729 
L 359.237745 482.453602 
L 369.511623 482.254191 
L 379.785501 481.845207 
L 390.059379 480.738305 
L 400.333257 479.458276 
L 410.607135 478.50873 
L 420.881013 479.089222 
L 431.154891 479.018073 
L 441.428769 477.778716 
L 451.702647 476.886767 
L 461.976525 477.149309 
L 472.250403 474.567649 
L 482.524281 474.481153 
L 492.798159 472.935746 
L 503.072037 471.793215 
L 513.345915 471.509238 
L 523.619793 471.254915 
L 533.893671 470.819247 
L 544.167549 470.601361 
L 554.441427 469.727679 
L 564.715305 466.191005 
L 574.989183 463.088938 
L 585.263061 460.264397 
L 595.536939 461.247011 
L 605.810817 458.763897 
L 616.084695 461.765455 
L 626.358573 460.288043 
L 636.632451 460.953707 
L 646.906329 462.070339 
L 657.180207 465.091522 
L 667.454085 464.955404 
L 677.727963 464.228551 
L 688.001841 464.485104 
L 698.275719 464.211564 
L 708.549597 462.110393 
L 718.823475 459.043155 
L 729.097353 460.16813 
L 739.371231 459.856821 
L 749.645109 457.097295 
L 759.918987 458.022846 
L 770.192865 458.55567 
L 780.466743 456.282291 
L 790.740621 455.28892 
L 801.014499 456.434036 
L 811.288377 454.526851 
L 821.562255 452.602229 
L 831.836133 448.745984 
L 842.110012 447.049752 
L 852.38389 447.78178 
L 862.657768 446.722397 
L 872.931646 446.464994 
L 883.205524 443.485777 
L 893.479402 440.826367 
L 903.75328 437.346374 
L 914.027158 439.935493 
L 924.301036 440.670194 
L 934.574914 437.729163 
L 944.848792 437.883878 
L 955.12267 434.314056 
L 965.396548 433.211408 
L 975.670426 427.174504 
L 985.944304 423.764673 
L 996.218182 423.53822 
" style="fill:none;stroke:#9467bd;stroke-linecap:square;stroke-width:1.5;"/>
   </g>
   <g id="line2d_23">
    <path clip-path="url(#pe07c7a15fd)" d="M 184.581818 484.23228 
L 194.855696 484.223699 
L 205.129574 484.214515 
L 215.403452 484.206022 
L 225.67733 484.194173 
L 235.951208 484.179063 
L 246.225086 484.171135 
L 256.498964 484.150869 
L 266.772842 484.132868 
L 277.04672 484.116188 
L 287.320598 484.102594 
L 297.594476 484.095876 
L 307.868354 484.083105 
L 318.142232 484.065982 
L 328.41611 484.058076 
L 338.689988 484.036174 
L 348.963867 484.011112 
L 359.237745 483.992482 
L 369.511623 483.983853 
L 379.785501 483.954914 
L 390.059379 483.942886 
L 400.333257 483.904624 
L 410.607135 483.848257 
L 420.881013 483.795212 
L 431.154891 483.723564 
L 441.428769 483.669111 
L 451.702647 483.519562 
L 461.976525 483.126031 
L 472.250403 483.069426 
L 482.524281 482.780634 
L 492.798159 482.591581 
L 503.072037 482.60186 
L 513.345915 482.486312 
L 523.619793 482.066954 
L 533.893671 481.828096 
L 544.167549 481.799371 
L 554.441427 480.592479 
L 564.715305 479.783442 
L 574.989183 479.541327 
L 585.263061 479.005401 
L 595.536939 479.037635 
L 605.810817 479.224066 
L 616.084695 479.652256 
L 626.358573 478.860579 
L 636.632451 478.499356 
L 646.906329 478.808783 
L 657.180207 478.379375 
L 667.454085 477.978549 
L 677.727963 476.41634 
L 688.001841 474.614891 
L 698.275719 473.538674 
L 708.549597 471.84847 
L 718.823475 471.791914 
L 729.097353 471.81956 
L 739.371231 470.354407 
L 749.645109 467.386271 
L 759.918987 464.390524 
L 770.192865 464.249667 
L 780.466743 464.245112 
L 790.740621 457.781564 
L 801.014499 454.49105 
L 811.288377 452.400879 
L 821.562255 451.475431 
L 831.836133 453.442042 
L 842.110012 451.736403 
L 852.38389 451.663035 
L 862.657768 445.768316 
L 872.931646 443.664367 
L 883.205524 439.836172 
L 893.479402 440.016709 
L 903.75328 439.465635 
L 914.027158 436.39229 
L 924.301036 432.306553 
L 934.574914 432.167431 
L 944.848792 431.626923 
L 955.12267 431.221433 
L 965.396548 430.037984 
L 975.670426 428.736099 
L 985.944304 428.037274 
L 996.218182 424.367987 
" style="fill:none;stroke:#8c564b;stroke-linecap:square;stroke-width:1.5;"/>
   </g>
   <g id="line2d_24">
    <path clip-path="url(#pe07c7a15fd)" d="M 184.581818 484.23228 
L 194.855696 484.224604 
L 205.129574 484.214984 
L 215.403452 484.206727 
L 225.67733 484.197344 
L 235.951208 484.190436 
L 246.225086 484.179927 
L 256.498964 484.164676 
L 266.772842 484.136615 
L 277.04672 484.119067 
L 287.320598 484.109797 
L 297.594476 484.076078 
L 307.868354 484.062567 
L 318.142232 484.042192 
L 328.41611 484.0234 
L 338.689988 484.003283 
L 348.963867 483.974527 
L 359.237745 483.898901 
L 369.511623 483.855573 
L 379.785501 483.779827 
L 390.059379 483.685754 
L 400.333257 483.604725 
L 410.607135 483.545353 
L 420.881013 483.068663 
L 431.154891 482.907314 
L 441.428769 482.674866 
L 451.702647 482.548199 
L 461.976525 482.372045 
L 472.250403 482.291728 
L 482.524281 482.264546 
L 492.798159 482.172552 
L 503.072037 481.694688 
L 513.345915 481.811975 
L 523.619793 481.357161 
L 533.893671 480.476533 
L 544.167549 480.44501 
L 554.441427 479.106165 
L 564.715305 479.222284 
L 574.989183 478.219331 
L 585.263061 476.040393 
L 595.536939 474.268911 
L 605.810817 473.877826 
L 616.084695 474.487396 
L 626.358573 473.083202 
L 636.632451 472.725487 
L 646.906329 472.283485 
L 657.180207 468.221614 
L 667.454085 466.794468 
L 677.727963 464.617439 
L 688.001841 461.241238 
L 698.275719 459.980872 
L 708.549597 452.484546 
L 718.823475 451.715984 
L 729.097353 450.320661 
L 739.371231 447.062561 
L 749.645109 443.758983 
L 759.918987 439.460415 
L 770.192865 440.081868 
L 780.466743 438.29912 
L 790.740621 435.255425 
L 801.014499 434.853237 
L 811.288377 428.587297 
L 821.562255 423.862266 
L 831.836133 419.958736 
L 842.110012 418.930707 
L 852.38389 415.108015 
L 862.657768 411.575841 
L 872.931646 406.941443 
L 883.205524 401.544275 
L 893.479402 395.602056 
L 903.75328 395.189406 
L 914.027158 387.558302 
L 924.301036 384.779308 
L 934.574914 385.081822 
L 944.848792 379.047362 
L 955.12267 377.84346 
L 965.396548 373.303392 
L 975.670426 374.242644 
L 985.944304 372.509028 
L 996.218182 369.358463 
" style="fill:none;stroke:#e377c2;stroke-linecap:square;stroke-width:1.5;"/>
   </g>
   <g id="line2d_25">
    <path clip-path="url(#pe07c7a15fd)" d="M 184.581818 484.232727 
L 194.855696 484.208608 
L 205.129574 484.181822 
L 215.403452 484.173144 
L 225.67733 484.143017 
L 235.951208 484.130402 
L 246.225086 484.11504 
L 256.498964 484.018017 
L 266.772842 483.876607 
L 277.04672 483.693408 
L 287.320598 483.602584 
L 297.594476 483.047395 
L 307.868354 482.810503 
L 318.142232 482.728841 
L 328.41611 482.386285 
L 338.689988 482.149463 
L 348.963867 481.448509 
L 359.237745 481.171317 
L 369.511623 480.409518 
L 379.785501 479.936074 
L 390.059379 477.893282 
L 400.333257 475.24167 
L 410.607135 474.994393 
L 420.881013 474.451845 
L 431.154891 470.193022 
L 441.428769 469.555981 
L 451.702647 467.310078 
L 461.976525 462.304986 
L 472.250403 456.266443 
L 482.524281 451.571237 
L 492.798159 445.9656 
L 503.072037 440.651936 
L 513.345915 434.477739 
L 523.619793 429.583273 
L 533.893671 425.964514 
L 544.167549 425.072689 
L 554.441427 424.175685 
L 564.715305 420.448117 
L 574.989183 419.732739 
L 585.263061 416.115681 
L 595.536939 406.804873 
L 605.810817 398.346132 
L 616.084695 393.490612 
L 626.358573 380.111146 
L 636.632451 379.667173 
L 646.906329 366.153827 
L 657.180207 362.523659 
L 667.454085 362.317023 
L 677.727963 356.330177 
L 688.001841 356.174723 
L 698.275719 349.097111 
L 708.549597 349.416566 
L 718.823475 337.376785 
L 729.097353 324.594928 
L 739.371231 316.225392 
L 749.645109 314.657505 
L 759.918987 313.98322 
L 770.192865 313.550615 
L 780.466743 306.619634 
L 790.740621 307.477115 
L 801.014499 306.603261 
L 811.288377 297.206864 
L 821.562255 293.010431 
L 831.836133 293.161377 
L 842.110012 292.975651 
L 852.38389 292.624126 
L 862.657768 287.187904 
L 872.931646 286.73024 
L 883.205524 279.963205 
L 893.479402 280.15308 
L 903.75328 267.864318 
L 914.027158 254.529071 
L 924.301036 248.646483 
L 934.574914 248.722295 
L 944.848792 248.490518 
L 955.12267 248.789892 
L 965.396548 248.612242 
L 975.670426 247.956406 
L 985.944304 247.724075 
L 996.218182 247.282868 
" style="fill:none;stroke:#7f7f7f;stroke-dasharray:5.55,2.4;stroke-dashoffset:0;stroke-width:1.5;"/>
   </g>
   <g id="line2d_26">
    <path clip-path="url(#pe07c7a15fd)" d="M 184.581818 484.23228 
L 194.855696 484.223793 
L 205.129574 484.216179 
L 215.403452 484.205102 
L 225.67733 484.191996 
L 235.951208 484.180609 
L 246.225086 484.164519 
L 256.498964 484.13693 
L 266.772842 484.117088 
L 277.04672 484.100946 
L 287.320598 484.067721 
L 297.594476 484.039799 
L 307.868354 484.042063 
L 318.142232 484.025791 
L 328.41611 483.994711 
L 338.689988 483.967718 
L 348.963867 483.92574 
L 359.237745 483.850885 
L 369.511623 483.807202 
L 379.785501 483.700119 
L 390.059379 483.632829 
L 400.333257 483.593746 
L 410.607135 483.524665 
L 420.881013 483.433134 
L 431.154891 483.3221 
L 441.428769 483.212831 
L 451.702647 482.922039 
L 461.976525 482.421237 
L 472.250403 481.975829 
L 482.524281 481.971075 
L 492.798159 480.256845 
L 503.072037 480.526998 
L 513.345915 476.065315 
L 523.619793 474.912376 
L 533.893671 474.085276 
L 544.167549 469.928301 
L 554.441427 469.86961 
L 564.715305 470.243735 
L 574.989183 464.768527 
L 585.263061 463.278377 
L 595.536939 458.399122 
L 605.810817 456.839574 
L 616.084695 453.686187 
L 626.358573 454.227822 
L 636.632451 454.407128 
L 646.906329 455.52987 
L 657.180207 452.486634 
L 667.454085 450.69312 
L 677.727963 450.511936 
L 688.001841 449.145026 
L 698.275719 447.176068 
L 708.549597 447.685951 
L 718.823475 442.253912 
L 729.097353 437.963551 
L 739.371231 435.763144 
L 749.645109 434.985797 
L 759.918987 429.851256 
L 770.192865 429.330956 
L 780.466743 428.457769 
L 790.740621 428.031449 
L 801.014499 428.940571 
L 811.288377 423.477766 
L 821.562255 414.888898 
L 831.836133 412.874542 
L 842.110012 405.188618 
L 852.38389 403.48116 
L 862.657768 406.554205 
L 872.931646 404.180088 
L 883.205524 401.783189 
L 893.479402 393.771995 
L 903.75328 382.327119 
L 914.027158 381.618067 
L 924.301036 378.58577 
L 934.574914 369.854656 
L 944.848792 364.6313 
L 955.12267 361.680713 
L 965.396548 358.87099 
L 975.670426 355.974545 
L 985.944304 356.358209 
L 996.218182 351.840634 
" style="fill:none;stroke:#bcbd22;stroke-dasharray:5.55,2.4;stroke-dashoffset:0;stroke-width:1.5;"/>
   </g>
   <g id="patch_3">
    <path d="M 144 504 
L 144 69.12 
" style="fill:none;stroke:#000000;stroke-linecap:square;stroke-linejoin:miter;stroke-width:0.8;"/>
   </g>
   <g id="patch_4">
    <path d="M 1036.8 504 
L 1036.8 69.12 
" style="fill:none;stroke:#000000;stroke-linecap:square;stroke-linejoin:miter;stroke-width:0.8;"/>
   </g>
   <g id="patch_5">
    <path d="M 144 504 
L 1036.8 504 
" style="fill:none;stroke:#000000;stroke-linecap:square;stroke-linejoin:miter;stroke-width:0.8;"/>
   </g>
   <g id="patch_6">
    <path d="M 144 69.12 
L 1036.8 69.12 
" style="fill:none;stroke:#000000;stroke-linecap:square;stroke-linejoin:miter;stroke-width:0.8;"/>
   </g>
   <g id="legend_1">
    <g id="patch_7">
     <path d="M 151 211.17 
L 300.879687 211.17 
Q 302.879687 211.17 302.879687 209.17 
L 302.879687 76.12 
Q 302.879687 74.12 300.879687 74.12 
L 151 74.12 
Q 149 74.12 149 76.12 
L 149 209.17 
Q 149 211.17 151 211.17 
z
" style="fill:#ffffff;opacity:0.8;stroke:#cccccc;stroke-linejoin:miter;"/>
    </g>
    <g id="line2d_27">
     <path d="M 153 82.218437 
L 173 82.218437 
" style="fill:none;stroke:#1f77b4;stroke-linecap:square;stroke-width:1.5;"/>
    </g>
    <g id="line2d_28"/>
    <g id="text_20">
     <!-- taylorfo noBN -->
     <defs>
      <path d="M 18.3125 70.21875 
L 18.3125 54.6875 
L 36.8125 54.6875 
L 36.8125 47.703125 
L 18.3125 47.703125 
L 18.3125 18.015625 
Q 18.3125 11.328125 20.140625 9.421875 
Q 21.96875 7.515625 27.59375 7.515625 
L 36.8125 7.515625 
L 36.8125 0 
L 27.59375 0 
Q 17.1875 0 13.234375 3.875 
Q 9.28125 7.765625 9.28125 18.015625 
L 9.28125 47.703125 
L 2.6875 47.703125 
L 2.6875 54.6875 
L 9.28125 54.6875 
L 9.28125 70.21875 
z
" id="DejaVuSans-116"/>
      <path d="M 34.28125 27.484375 
Q 23.390625 27.484375 19.1875 25 
Q 14.984375 22.515625 14.984375 16.5 
Q 14.984375 11.71875 18.140625 8.90625 
Q 21.296875 6.109375 26.703125 6.109375 
Q 34.1875 6.109375 38.703125 11.40625 
Q 43.21875 16.703125 43.21875 25.484375 
L 43.21875 27.484375 
z
M 52.203125 31.203125 
L 52.203125 0 
L 43.21875 0 
L 43.21875 8.296875 
Q 40.140625 3.328125 35.546875 0.953125 
Q 30.953125 -1.421875 24.3125 -1.421875 
Q 15.921875 -1.421875 10.953125 3.296875 
Q 6 8.015625 6 15.921875 
Q 6 25.140625 12.171875 29.828125 
Q 18.359375 34.515625 30.609375 34.515625 
L 43.21875 34.515625 
L 43.21875 35.40625 
Q 43.21875 41.609375 39.140625 45 
Q 35.0625 48.390625 27.6875 48.390625 
Q 23 48.390625 18.546875 47.265625 
Q 14.109375 46.140625 10.015625 43.890625 
L 10.015625 52.203125 
Q 14.9375 54.109375 19.578125 55.046875 
Q 24.21875 56 28.609375 56 
Q 40.484375 56 46.34375 49.84375 
Q 52.203125 43.703125 52.203125 31.203125 
z
" id="DejaVuSans-97"/>
      <path d="M 32.171875 -5.078125 
Q 28.375 -14.84375 24.75 -17.8125 
Q 21.140625 -20.796875 15.09375 -20.796875 
L 7.90625 -20.796875 
L 7.90625 -13.28125 
L 13.1875 -13.28125 
Q 16.890625 -13.28125 18.9375 -11.515625 
Q 21 -9.765625 23.484375 -3.21875 
L 25.09375 0.875 
L 2.984375 54.6875 
L 12.5 54.6875 
L 29.59375 11.921875 
L 46.6875 54.6875 
L 56.203125 54.6875 
z
" id="DejaVuSans-121"/>
      <path d="M 9.421875 75.984375 
L 18.40625 75.984375 
L 18.40625 0 
L 9.421875 0 
z
" id="DejaVuSans-108"/>
      <path d="M 19.671875 34.8125 
L 19.671875 8.109375 
L 35.5 8.109375 
Q 43.453125 8.109375 47.28125 11.40625 
Q 51.125 14.703125 51.125 21.484375 
Q 51.125 28.328125 47.28125 31.5625 
Q 43.453125 34.8125 35.5 34.8125 
z
M 19.671875 64.796875 
L 19.671875 42.828125 
L 34.28125 42.828125 
Q 41.5 42.828125 45.03125 45.53125 
Q 48.578125 48.25 48.578125 53.8125 
Q 48.578125 59.328125 45.03125 62.0625 
Q 41.5 64.796875 34.28125 64.796875 
z
M 9.8125 72.90625 
L 35.015625 72.90625 
Q 46.296875 72.90625 52.390625 68.21875 
Q 58.5 63.53125 58.5 54.890625 
Q 58.5 48.1875 55.375 44.234375 
Q 52.25 40.28125 46.1875 39.3125 
Q 53.46875 37.75 57.5 32.78125 
Q 61.53125 27.828125 61.53125 20.40625 
Q 61.53125 10.640625 54.890625 5.3125 
Q 48.25 0 35.984375 0 
L 9.8125 0 
z
" id="DejaVuSans-66"/>
     </defs>
     <g transform="translate(181 85.718437)scale(0.1 -0.1)">
      <use xlink:href="#DejaVuSans-116"/>
      <use x="39.208984" xlink:href="#DejaVuSans-97"/>
      <use x="100.488281" xlink:href="#DejaVuSans-121"/>
      <use x="159.667969" xlink:href="#DejaVuSans-108"/>
      <use x="187.451172" xlink:href="#DejaVuSans-111"/>
      <use x="248.632812" xlink:href="#DejaVuSans-114"/>
      <use x="289.746094" xlink:href="#DejaVuSans-102"/>
      <use x="324.951172" xlink:href="#DejaVuSans-111"/>
      <use x="386.132812" xlink:href="#DejaVuSans-32"/>
      <use x="417.919922" xlink:href="#DejaVuSans-110"/>
      <use x="481.298828" xlink:href="#DejaVuSans-111"/>
      <use x="542.480469" xlink:href="#DejaVuSans-66"/>
      <use x="611.083984" xlink:href="#DejaVuSans-78"/>
     </g>
    </g>
    <g id="line2d_29">
     <path d="M 153 96.896563 
L 173 96.896563 
" style="fill:none;stroke:#ff7f0e;stroke-linecap:square;stroke-width:1.5;"/>
    </g>
    <g id="line2d_30"/>
    <g id="text_21">
     <!-- taylorfo_abs noBN -->
     <defs>
      <path d="M 50.984375 -16.609375 
L 50.984375 -23.578125 
L -0.984375 -23.578125 
L -0.984375 -16.609375 
z
" id="DejaVuSans-95"/>
     </defs>
     <g transform="translate(181 100.396563)scale(0.1 -0.1)">
      <use xlink:href="#DejaVuSans-116"/>
      <use x="39.208984" xlink:href="#DejaVuSans-97"/>
      <use x="100.488281" xlink:href="#DejaVuSans-121"/>
      <use x="159.667969" xlink:href="#DejaVuSans-108"/>
      <use x="187.451172" xlink:href="#DejaVuSans-111"/>
      <use x="248.632812" xlink:href="#DejaVuSans-114"/>
      <use x="289.746094" xlink:href="#DejaVuSans-102"/>
      <use x="324.951172" xlink:href="#DejaVuSans-111"/>
      <use x="386.132812" xlink:href="#DejaVuSans-95"/>
      <use x="436.132812" xlink:href="#DejaVuSans-97"/>
      <use x="497.412109" xlink:href="#DejaVuSans-98"/>
      <use x="560.888672" xlink:href="#DejaVuSans-115"/>
      <use x="612.988281" xlink:href="#DejaVuSans-32"/>
      <use x="644.775391" xlink:href="#DejaVuSans-110"/>
      <use x="708.154297" xlink:href="#DejaVuSans-111"/>
      <use x="769.335938" xlink:href="#DejaVuSans-66"/>
      <use x="837.939453" xlink:href="#DejaVuSans-78"/>
     </g>
    </g>
    <g id="line2d_31">
     <path d="M 153 111.852812 
L 173 111.852812 
" style="fill:none;stroke:#2ca02c;stroke-linecap:square;stroke-width:1.5;"/>
    </g>
    <g id="line2d_32"/>
    <g id="text_22">
     <!-- taylorfo_sq noBN -->
     <defs>
      <path d="M 14.796875 27.296875 
Q 14.796875 17.390625 18.875 11.75 
Q 22.953125 6.109375 30.078125 6.109375 
Q 37.203125 6.109375 41.296875 11.75 
Q 45.40625 17.390625 45.40625 27.296875 
Q 45.40625 37.203125 41.296875 42.84375 
Q 37.203125 48.484375 30.078125 48.484375 
Q 22.953125 48.484375 18.875 42.84375 
Q 14.796875 37.203125 14.796875 27.296875 
z
M 45.40625 8.203125 
Q 42.578125 3.328125 38.25 0.953125 
Q 33.9375 -1.421875 27.875 -1.421875 
Q 17.96875 -1.421875 11.734375 6.484375 
Q 5.515625 14.40625 5.515625 27.296875 
Q 5.515625 40.1875 11.734375 48.09375 
Q 17.96875 56 27.875 56 
Q 33.9375 56 38.25 53.625 
Q 42.578125 51.265625 45.40625 46.390625 
L 45.40625 54.6875 
L 54.390625 54.6875 
L 54.390625 -20.796875 
L 45.40625 -20.796875 
z
" id="DejaVuSans-113"/>
     </defs>
     <g transform="translate(181 115.352812)scale(0.1 -0.1)">
      <use xlink:href="#DejaVuSans-116"/>
      <use x="39.208984" xlink:href="#DejaVuSans-97"/>
      <use x="100.488281" xlink:href="#DejaVuSans-121"/>
      <use x="159.667969" xlink:href="#DejaVuSans-108"/>
      <use x="187.451172" xlink:href="#DejaVuSans-111"/>
      <use x="248.632812" xlink:href="#DejaVuSans-114"/>
      <use x="289.746094" xlink:href="#DejaVuSans-102"/>
      <use x="324.951172" xlink:href="#DejaVuSans-111"/>
      <use x="386.132812" xlink:href="#DejaVuSans-95"/>
      <use x="436.132812" xlink:href="#DejaVuSans-115"/>
      <use x="488.232422" xlink:href="#DejaVuSans-113"/>
      <use x="551.708984" xlink:href="#DejaVuSans-32"/>
      <use x="583.496094" xlink:href="#DejaVuSans-110"/>
      <use x="646.875" xlink:href="#DejaVuSans-111"/>
      <use x="708.056641" xlink:href="#DejaVuSans-66"/>
      <use x="776.660156" xlink:href="#DejaVuSans-78"/>
     </g>
    </g>
    <g id="line2d_33">
     <path d="M 153 126.809062 
L 173 126.809062 
" style="fill:none;stroke:#d62728;stroke-dasharray:5.55,2.4;stroke-dashoffset:0;stroke-width:1.5;"/>
    </g>
    <g id="line2d_34"/>
    <g id="text_23">
     <!-- Molchanov_group noBN -->
     <defs>
      <path d="M 9.8125 72.90625 
L 24.515625 72.90625 
L 43.109375 23.296875 
L 61.8125 72.90625 
L 76.515625 72.90625 
L 76.515625 0 
L 66.890625 0 
L 66.890625 64.015625 
L 48.09375 14.015625 
L 38.1875 14.015625 
L 19.390625 64.015625 
L 19.390625 0 
L 9.8125 0 
z
" id="DejaVuSans-77"/>
      <path d="M 48.78125 52.59375 
L 48.78125 44.1875 
Q 44.96875 46.296875 41.140625 47.34375 
Q 37.3125 48.390625 33.40625 48.390625 
Q 24.65625 48.390625 19.8125 42.84375 
Q 14.984375 37.3125 14.984375 27.296875 
Q 14.984375 17.28125 19.8125 11.734375 
Q 24.65625 6.203125 33.40625 6.203125 
Q 37.3125 6.203125 41.140625 7.25 
Q 44.96875 8.296875 48.78125 10.40625 
L 48.78125 2.09375 
Q 45.015625 0.34375 40.984375 -0.53125 
Q 36.96875 -1.421875 32.421875 -1.421875 
Q 20.0625 -1.421875 12.78125 6.34375 
Q 5.515625 14.109375 5.515625 27.296875 
Q 5.515625 40.671875 12.859375 48.328125 
Q 20.21875 56 33.015625 56 
Q 37.15625 56 41.109375 55.140625 
Q 45.0625 54.296875 48.78125 52.59375 
z
" id="DejaVuSans-99"/>
      <path d="M 54.890625 33.015625 
L 54.890625 0 
L 45.90625 0 
L 45.90625 32.71875 
Q 45.90625 40.484375 42.875 44.328125 
Q 39.84375 48.1875 33.796875 48.1875 
Q 26.515625 48.1875 22.3125 43.546875 
Q 18.109375 38.921875 18.109375 30.90625 
L 18.109375 0 
L 9.078125 0 
L 9.078125 75.984375 
L 18.109375 75.984375 
L 18.109375 46.1875 
Q 21.34375 51.125 25.703125 53.5625 
Q 30.078125 56 35.796875 56 
Q 45.21875 56 50.046875 50.171875 
Q 54.890625 44.34375 54.890625 33.015625 
z
" id="DejaVuSans-104"/>
      <path d="M 2.984375 54.6875 
L 12.5 54.6875 
L 29.59375 8.796875 
L 46.6875 54.6875 
L 56.203125 54.6875 
L 35.6875 0 
L 23.484375 0 
z
" id="DejaVuSans-118"/>
      <path d="M 45.40625 27.984375 
Q 45.40625 37.75 41.375 43.109375 
Q 37.359375 48.484375 30.078125 48.484375 
Q 22.859375 48.484375 18.828125 43.109375 
Q 14.796875 37.75 14.796875 27.984375 
Q 14.796875 18.265625 18.828125 12.890625 
Q 22.859375 7.515625 30.078125 7.515625 
Q 37.359375 7.515625 41.375 12.890625 
Q 45.40625 18.265625 45.40625 27.984375 
z
M 54.390625 6.78125 
Q 54.390625 -7.171875 48.1875 -13.984375 
Q 42 -20.796875 29.203125 -20.796875 
Q 24.46875 -20.796875 20.265625 -20.09375 
Q 16.0625 -19.390625 12.109375 -17.921875 
L 12.109375 -9.1875 
Q 16.0625 -11.328125 19.921875 -12.34375 
Q 23.78125 -13.375 27.78125 -13.375 
Q 36.625 -13.375 41.015625 -8.765625 
Q 45.40625 -4.15625 45.40625 5.171875 
L 45.40625 9.625 
Q 42.625 4.78125 38.28125 2.390625 
Q 33.9375 0 27.875 0 
Q 17.828125 0 11.671875 7.65625 
Q 5.515625 15.328125 5.515625 27.984375 
Q 5.515625 40.671875 11.671875 48.328125 
Q 17.828125 56 27.875 56 
Q 33.9375 56 38.28125 53.609375 
Q 42.625 51.21875 45.40625 46.390625 
L 45.40625 54.6875 
L 54.390625 54.6875 
z
" id="DejaVuSans-103"/>
     </defs>
     <g transform="translate(181 130.309062)scale(0.1 -0.1)">
      <use xlink:href="#DejaVuSans-77"/>
      <use x="86.279297" xlink:href="#DejaVuSans-111"/>
      <use x="147.460938" xlink:href="#DejaVuSans-108"/>
      <use x="175.244141" xlink:href="#DejaVuSans-99"/>
      <use x="230.224609" xlink:href="#DejaVuSans-104"/>
      <use x="293.603516" xlink:href="#DejaVuSans-97"/>
      <use x="354.882812" xlink:href="#DejaVuSans-110"/>
      <use x="418.261719" xlink:href="#DejaVuSans-111"/>
      <use x="479.443359" xlink:href="#DejaVuSans-118"/>
      <use x="538.623047" xlink:href="#DejaVuSans-95"/>
      <use x="588.623047" xlink:href="#DejaVuSans-103"/>
      <use x="652.099609" xlink:href="#DejaVuSans-114"/>
      <use x="690.962891" xlink:href="#DejaVuSans-111"/>
      <use x="752.144531" xlink:href="#DejaVuSans-117"/>
      <use x="815.523438" xlink:href="#DejaVuSans-112"/>
      <use x="879" xlink:href="#DejaVuSans-32"/>
      <use x="910.787109" xlink:href="#DejaVuSans-110"/>
      <use x="974.166016" xlink:href="#DejaVuSans-111"/>
      <use x="1035.347656" xlink:href="#DejaVuSans-66"/>
      <use x="1103.951172" xlink:href="#DejaVuSans-78"/>
     </g>
    </g>
    <g id="line2d_35">
     <path d="M 153 141.765312 
L 173 141.765312 
" style="fill:none;stroke:#9467bd;stroke-linecap:square;stroke-width:1.5;"/>
    </g>
    <g id="line2d_36"/>
    <g id="text_24">
     <!-- taylorfo BN -->
     <g transform="translate(181 145.265312)scale(0.1 -0.1)">
      <use xlink:href="#DejaVuSans-116"/>
      <use x="39.208984" xlink:href="#DejaVuSans-97"/>
      <use x="100.488281" xlink:href="#DejaVuSans-121"/>
      <use x="159.667969" xlink:href="#DejaVuSans-108"/>
      <use x="187.451172" xlink:href="#DejaVuSans-111"/>
      <use x="248.632812" xlink:href="#DejaVuSans-114"/>
      <use x="289.746094" xlink:href="#DejaVuSans-102"/>
      <use x="324.951172" xlink:href="#DejaVuSans-111"/>
      <use x="386.132812" xlink:href="#DejaVuSans-32"/>
      <use x="417.919922" xlink:href="#DejaVuSans-66"/>
      <use x="486.523438" xlink:href="#DejaVuSans-78"/>
     </g>
    </g>
    <g id="line2d_37">
     <path d="M 153 156.443437 
L 173 156.443437 
" style="fill:none;stroke:#8c564b;stroke-linecap:square;stroke-width:1.5;"/>
    </g>
    <g id="line2d_38"/>
    <g id="text_25">
     <!-- taylorfo_abs BN -->
     <g transform="translate(181 159.943437)scale(0.1 -0.1)">
      <use xlink:href="#DejaVuSans-116"/>
      <use x="39.208984" xlink:href="#DejaVuSans-97"/>
      <use x="100.488281" xlink:href="#DejaVuSans-121"/>
      <use x="159.667969" xlink:href="#DejaVuSans-108"/>
      <use x="187.451172" xlink:href="#DejaVuSans-111"/>
      <use x="248.632812" xlink:href="#DejaVuSans-114"/>
      <use x="289.746094" xlink:href="#DejaVuSans-102"/>
      <use x="324.951172" xlink:href="#DejaVuSans-111"/>
      <use x="386.132812" xlink:href="#DejaVuSans-95"/>
      <use x="436.132812" xlink:href="#DejaVuSans-97"/>
      <use x="497.412109" xlink:href="#DejaVuSans-98"/>
      <use x="560.888672" xlink:href="#DejaVuSans-115"/>
      <use x="612.988281" xlink:href="#DejaVuSans-32"/>
      <use x="644.775391" xlink:href="#DejaVuSans-66"/>
      <use x="713.378906" xlink:href="#DejaVuSans-78"/>
     </g>
    </g>
    <g id="line2d_39">
     <path d="M 153 171.399687 
L 173 171.399687 
" style="fill:none;stroke:#e377c2;stroke-linecap:square;stroke-width:1.5;"/>
    </g>
    <g id="line2d_40"/>
    <g id="text_26">
     <!-- taylorfo_sq BN -->
     <g transform="translate(181 174.899687)scale(0.1 -0.1)">
      <use xlink:href="#DejaVuSans-116"/>
      <use x="39.208984" xlink:href="#DejaVuSans-97"/>
      <use x="100.488281" xlink:href="#DejaVuSans-121"/>
      <use x="159.667969" xlink:href="#DejaVuSans-108"/>
      <use x="187.451172" xlink:href="#DejaVuSans-111"/>
      <use x="248.632812" xlink:href="#DejaVuSans-114"/>
      <use x="289.746094" xlink:href="#DejaVuSans-102"/>
      <use x="324.951172" xlink:href="#DejaVuSans-111"/>
      <use x="386.132812" xlink:href="#DejaVuSans-95"/>
      <use x="436.132812" xlink:href="#DejaVuSans-115"/>
      <use x="488.232422" xlink:href="#DejaVuSans-113"/>
      <use x="551.708984" xlink:href="#DejaVuSans-32"/>
      <use x="583.496094" xlink:href="#DejaVuSans-66"/>
      <use x="652.099609" xlink:href="#DejaVuSans-78"/>
     </g>
    </g>
    <g id="line2d_41">
     <path d="M 153 186.355937 
L 173 186.355937 
" style="fill:none;stroke:#7f7f7f;stroke-dasharray:5.55,2.4;stroke-dashoffset:0;stroke-width:1.5;"/>
    </g>
    <g id="line2d_42"/>
    <g id="text_27">
     <!-- Molchanov_group BN -->
     <g transform="translate(181 189.855937)scale(0.1 -0.1)">
      <use xlink:href="#DejaVuSans-77"/>
      <use x="86.279297" xlink:href="#DejaVuSans-111"/>
      <use x="147.460938" xlink:href="#DejaVuSans-108"/>
      <use x="175.244141" xlink:href="#DejaVuSans-99"/>
      <use x="230.224609" xlink:href="#DejaVuSans-104"/>
      <use x="293.603516" xlink:href="#DejaVuSans-97"/>
      <use x="354.882812" xlink:href="#DejaVuSans-110"/>
      <use x="418.261719" xlink:href="#DejaVuSans-111"/>
      <use x="479.443359" xlink:href="#DejaVuSans-118"/>
      <use x="538.623047" xlink:href="#DejaVuSans-95"/>
      <use x="588.623047" xlink:href="#DejaVuSans-103"/>
      <use x="652.099609" xlink:href="#DejaVuSans-114"/>
      <use x="690.962891" xlink:href="#DejaVuSans-111"/>
      <use x="752.144531" xlink:href="#DejaVuSans-117"/>
      <use x="815.523438" xlink:href="#DejaVuSans-112"/>
      <use x="879" xlink:href="#DejaVuSans-32"/>
      <use x="910.787109" xlink:href="#DejaVuSans-66"/>
      <use x="979.390625" xlink:href="#DejaVuSans-78"/>
     </g>
    </g>
    <g id="line2d_43">
     <path d="M 153 201.312187 
L 173 201.312187 
" style="fill:none;stroke:#bcbd22;stroke-dasharray:5.55,2.4;stroke-dashoffset:0;stroke-width:1.5;"/>
    </g>
    <g id="line2d_44"/>
    <g id="text_28">
     <!-- Molchanov_BN BN -->
     <g transform="translate(181 204.812187)scale(0.1 -0.1)">
      <use xlink:href="#DejaVuSans-77"/>
      <use x="86.279297" xlink:href="#DejaVuSans-111"/>
      <use x="147.460938" xlink:href="#DejaVuSans-108"/>
      <use x="175.244141" xlink:href="#DejaVuSans-99"/>
      <use x="230.224609" xlink:href="#DejaVuSans-104"/>
      <use x="293.603516" xlink:href="#DejaVuSans-97"/>
      <use x="354.882812" xlink:href="#DejaVuSans-110"/>
      <use x="418.261719" xlink:href="#DejaVuSans-111"/>
      <use x="479.443359" xlink:href="#DejaVuSans-118"/>
      <use x="538.623047" xlink:href="#DejaVuSans-95"/>
      <use x="588.623047" xlink:href="#DejaVuSans-66"/>
      <use x="657.226562" xlink:href="#DejaVuSans-78"/>
      <use x="732.03125" xlink:href="#DejaVuSans-32"/>
      <use x="763.818359" xlink:href="#DejaVuSans-66"/>
      <use x="832.421875" xlink:href="#DejaVuSans-78"/>
     </g>
    </g>
   </g>
  </g>
 </g>
 <defs>
  <clipPath id="pe07c7a15fd">
   <rect height="434.88" width="892.8" x="144" y="69.12"/>
  </clipPath>
 </defs>
</svg>
